<?xml version="1.0" encoding="UTF-8"?>
<svg width="240px" height="324px" viewBox="0 0 240 324" version="1.1" xmlns="http://www.w3.org/2000/svg" xmlns:xlink="http://www.w3.org/1999/xlink">
    <!-- Generator: Sketch 62 (91390) - https://sketch.com -->
    <title>peep-103</title>
    <desc>Created with Sketch.</desc>
    <g id="Introduction" stroke="none" stroke-width="1" fill="none" fill-rule="evenodd">
        <g id="variations" transform="translate(-3486.000000, -1406.000000)">
            <g id="images" transform="translate(126.000000, 110.000000)">
                <g id="a-person/bust" transform="translate(3360.000000, 1296.000000)">
                    <g id="body/Gaming" transform="translate(31.056338, 135.052838)">
                        <path d="M161.439528,82.7357233 C161.439528,81.0255544 159.073352,77.9899728 159.069211,76.4408783 C161.058507,76.0851757 162.721672,73.3889861 162.280968,71.7005086 C161.504559,71.1068256 159.469458,69.9380524 158.627768,69.392346 C153.499669,69.5478998 155.448613,62.4109174 154.868261,58.7830896 C154.283894,55.2336728 153.849951,51.5223616 152.994739,47.9528665 C151.475725,45.0966787 150.762908,41.8947217 149.311077,39.0529057 C148.662697,38.1111288 147.61481,37.2477628 147.301077,36.1536023 C144.12488,32.6832305 139.752486,30.6031209 136.154176,27.6638724 C137.550655,27.2166552 137.457486,25.3324673 137.367275,24.1224869 C137.692204,22.5439115 137.345092,20.563982 135.905937,19.67462 C135.419599,18.0894928 133.293824,17.5361777 132.050725,18.5460094 C131.234176,14.8847883 128.039599,12.6634967 124.69312,11.304937 C124.696077,11.2941581 124.698824,11.2835906 124.701993,11.2728117 C121.326993,9.93285088 117.281716,9.26484202 113.914278,10.0180809 C115.691797,-9.79574487 100.522176,-10.5230721 92.8234253,-8.8579678 C88.8855439,-8.00627341 82.976952,-5.35470293 81.6346909,-1.66855519 C80.8768944,0.412522813 78.7022753,7.12416471 78.392685,9.26484202 C72.5137413,5.9088107 65.698331,1.48348885 60.5991761,8.23993503 C59.5781197,9.41736751 58.4482606,10.291935 56.9203732,10.6964595 C52.1499507,11.9347609 45.8182606,11.9761855 43.1068521,16.8410466 C41.4862183,19.8549018 42.9437535,21.8407491 42.508331,24.8556611 C21.0344577,39.9416337 3.08917606,95.5168274 7.11847183,121.371943 C8.08776761,130.624647 12.820162,147.00197 24.5009366,144.960115 C30.4586642,151.479022 130.456722,151.479022 140.768089,144.960115 C149.255765,147.180984 157.880092,143.74316 161.439528,135.610823 C165.959599,124.459559 161.169528,112.416608 160.320655,100.977274 C159.805124,98.0892011 159.037874,95.7966343 158.627768,92.8399178 C158.456877,91.607856 159.046349,89.5581298 158.627768,88.4224321 C158.825268,87.6831619 161.439528,84.4458922 161.439528,82.7357233 Z" id="ðŸŽ¨-Background" fill="#FFFFFF"></path>
                        <path d="M114.171254,3.61421683 C114.407451,4.62595068 114.191746,5.76660822 114.231254,6.80497221 C114.268859,7.79726184 114.385901,8.78384501 114.558296,9.76155147 C116.371394,8.80751624 118.51407,8.68493307 120.580268,8.99202505 C123.253014,9.3893636 126.345761,10.2685808 128.440479,12.0549135 C128.957662,12.4962129 129.386113,13.0186708 129.744845,13.5946004 C130.175408,14.2857159 130.450268,15.0664438 131.132873,15.5616376 C132.188789,16.3277824 133.497803,16.6243068 134.512944,17.473301 C135.547944,18.3387804 136.190408,19.6326669 136.326254,20.9679781 C136.398718,21.6787491 136.281465,22.3432344 136.146676,23.0364634 C136.025831,23.6601581 136.085197,23.9161033 136.249352,24.5165495 C136.378225,24.9878607 136.13231,25.5227883 135.731324,25.7827491 C136.590972,26.3730505 137.439,26.981528 138.272239,27.6147335 C143.126958,31.3006826 147.232099,35.895438 150.077873,41.3017785 L150.14665,41.4360304 L150.226285,41.5974505 C150.919801,43.0227829 152.734329,47.1898409 152.959775,48.1267022 C153.120972,48.6159781 153.277099,49.1071562 153.422239,49.6012932 C153.805496,50.9109605 154.130526,52.2367887 154.399931,53.5735686 L154.472028,53.9384125 C154.69069,55.0611053 155.066958,56.3909213 155.006324,57.5875867 C155.636535,60.8546395 156.194915,64.1354301 156.671535,67.4299585 C156.733859,67.8615358 156.562099,68.2121659 156.295479,68.4448626 C156.932873,68.5473675 157.566254,68.6733323 158.192662,68.8003538 L158.556547,68.876923 L158.738661,68.9171785 C160.043311,69.2115379 161.330909,69.6401909 162.185408,70.7363225 C163.106746,71.922209 163.125549,73.4460446 162.200197,74.6401738 C161.414493,75.6546552 160.267099,76.1365339 159.069211,76.4408783 C158.832803,76.5000564 158.593859,76.5550074 158.355127,76.6034067 C158.194775,76.6372227 158.089141,76.4176297 158.241042,76.3330896 L158.495255,76.192563 L158.842073,76.0024137 C159.745052,75.5044456 160.682245,74.9424603 161.181887,74.0441659 C161.860268,72.8246748 161.323437,71.6958528 160.159352,71.0768078 C159.184861,70.5578254 157.979394,70.4249328 156.89724,70.247646 L156.450348,70.1737897 C155.318991,69.9931366 154.164891,69.8757592 153.022944,70.0050505 C152.023648,70.1191796 151.011676,70.459665 150.204423,71.070256 L150.12968,71.1290322 L150.052439,71.1939792 C149.344574,71.8076271 148.326655,73.1861031 149.661676,73.5834223 C150.682099,73.8852129 151.92546,73.8102463 152.997931,73.8687671 L153.136817,73.8771992 C154.034704,73.9384908 154.972944,73.9384908 155.881183,74.0462795 C156.206535,74.0841112 156.527873,74.1369487 156.842662,74.2111327 C157.744775,74.4245965 157.434211,75.6250661 156.639634,75.7096063 C156.445268,75.7307413 156.246887,75.7410975 156.048085,75.7455358 C155.528366,76.1365339 154.810056,76.3140681 154.195479,76.5569096 C153.608155,76.7896063 153.018718,77.0199781 152.425056,77.2461229 C152.936324,77.2693714 153.447592,77.3116415 153.956746,77.3750466 C154.121324,77.3938568 154.123437,77.6159859 153.956746,77.6328939 C152.731183,77.7575906 151.505831,77.8928548 150.284704,78.0638372 C148.39407,78.3261229 146.51569,78.6769644 144.679986,79.2114693 C143.338135,79.603977 142.012678,80.0712013 140.727129,80.6165266 L140.338225,80.7839155 L140.177764,80.8539912 C139.011003,81.3598906 137.50162,81.9518982 136.831183,83.0664986 C136.480479,83.6477119 136.326465,84.5459507 136.820831,85.1020133 C137.3495,85.7008577 138.457021,85.6324601 139.197528,85.6616125 L139.256746,85.6642051 C140.824352,85.7402912 142.393859,85.7506474 143.963577,85.6959076 C147.253014,85.579665 150.544775,85.2203695 153.775056,84.5882207 C154.370831,84.4721894 154.628577,85.3662012 154.028577,85.5056924 C150.218219,86.3913088 146.366126,86.8771821 142.45657,86.8998015 L142.028366,86.9006043 C140.505457,87.1918714 139.011886,87.6261715 137.530941,88.1164309 L137.234915,88.2152031 C136.360268,88.5108822 134.866606,88.8048705 134.350901,89.6733088 C134.008859,90.2502951 134.12907,90.6457315 134.46731,90.9141464 C135.062873,91.3854575 136.330479,91.4740133 136.94738,91.4974732 C139.419211,91.590256 141.893155,91.607164 144.367099,91.5543264 C145.603225,91.5268509 146.839141,91.4826787 148.075056,91.4192736 C149.283507,91.3558685 150.574141,91.1762207 151.778366,91.2922521 C152.296183,91.3429761 152.469423,92.1038372 151.907451,92.2456532 C150.422318,92.6219663 148.756753,92.5890635 147.222411,92.6370661 L147.045972,92.6429918 C145.398085,92.7019585 143.748296,92.7275319 142.100408,92.7233049 C140.685942,92.717689 139.271785,92.689092 137.858871,92.6371146 L136.609682,92.5875656 L136.388446,92.5769763 C135.722723,92.5412904 135.042718,92.464553 134.452521,92.1904908 C133.907451,93.1035241 134.314986,94.3272423 135.018507,95.0500603 C135.688225,95.7392736 136.65393,96.0774341 137.57907,96.2887843 C137.665901,96.3078059 137.752521,96.326616 137.839141,96.3437354 C139.871535,96.7577706 141.941958,96.7220524 143.843366,97.6560094 C145.442451,98.4422325 146.906746,99.7526043 148.698085,100.063289 C150.299493,100.342272 151.463577,99.636573 152.317099,98.3304282 C152.363789,98.2585691 152.410268,98.18671 152.454634,98.1146395 C153.126254,97.032526 153.610056,95.8407217 154.318014,94.7795319 C154.679282,94.2386865 155.087028,93.7187648 155.58562,93.2960642 C155.809352,93.1035241 157.376958,92.2710153 157.622239,92.0216219 C158.676465,90.9392971 157.742662,88.6632658 158.01731,87.3063969 C158.338225,85.7273988 159.726465,85.1717589 160.558859,83.9478294 C162.141042,81.6189605 157.801606,79.4376141 159.099,76.8908431 C159.115901,76.8593519 159.136817,76.8361033 159.164282,76.8210975 C159.278366,76.7598059 159.460268,76.8361033 159.449704,76.986162 C159.305831,78.8840877 161.114493,80.1902325 161.76731,81.8343264 C162.510761,83.7049879 161.323437,84.8378254 160.110972,86.0869057 C158.555831,87.6910544 159.650197,89.4875319 159.30393,91.4192736 C159.258718,91.6724712 159.186042,91.8956571 159.091606,92.0953832 C159.35738,92.2602364 159.56231,92.533301 159.60731,92.9145769 C160.140549,97.4374732 160.713718,101.94642 161.649634,106.406757 L161.849887,107.354398 L162.117994,108.618594 C162.785068,111.780515 163.407746,114.955174 163.526113,118.187634 C163.897732,120.915532 164.045197,123.666256 163.825056,126.41233 C163.157451,134.771446 158.486113,143.517121 149.999493,146.082702 C148.034915,146.676808 145.951606,146.830882 143.936113,146.414733 C143.245479,146.273129 142.277873,145.960119 141.409352,145.486694 C141.461113,146.043814 141.502099,146.600933 141.519211,147.156784 C141.805404,147.475649 141.934828,147.957088 141.771832,148.368933 C141.079764,148.141199 140.450695,147.780494 139.884238,147.286976 L139.790408,147.203493 C139.454576,145.955157 139.356333,144.589301 139.307534,143.274196 L139.294775,142.899978 C139.281887,142.536456 139.273648,142.179274 139.260761,141.830546 C139.189141,139.659978 139.239845,137.485184 139.351606,135.31673 L139.434007,133.720415 C139.622754,129.997129 139.77628,126.282641 139.672944,122.549058 C139.554634,118.252307 139.187028,113.974366 138.726465,109.701074 C138.487521,107.496479 138.21731,105.296534 137.940338,103.096377 C137.718718,101.325262 137.346887,99.4188822 137.340549,97.5928157 C135.918507,97.2884712 134.522239,96.7049331 133.64738,95.5110153 C132.719915,94.245027 132.582803,92.6260838 133.406535,91.3281816 C132.610268,90.2378254 133.263085,89.210663 134.247592,88.5174341 C132.734915,87.669708 131.891958,85.3575358 131.668014,83.7493714 C131.51569,82.6459115 131.46731,80.9952658 131.938225,79.7546395 C131.26238,79.7780994 130.586324,79.847845 129.910268,79.9640877 C129.128366,80.1014654 128.361676,80.3020368 127.605127,80.5516415 L127.222162,80.6783814 C127.028909,80.7431249 126.811364,80.8194525 126.595268,80.9088235 C127.96238,83.1700603 126.206535,85.2203695 123.954423,85.8058098 C123.525761,85.9176141 123.088437,85.996025 122.646887,86.0592188 C121.651817,86.1968078 120.635408,86.2388665 119.648789,86.3299585 C117.760268,86.5030544 115.860972,86.7505456 113.965901,86.8308587 C113.549493,86.8498802 113.281394,86.655438 113.154423,86.3846982 C113.150408,86.3806826 113.148296,86.3783577 113.148296,86.3743421 C113.10393,86.302483 113.074141,86.2261855 113.063577,86.1460838 C113.070127,86.1524243 113.078577,86.1566513 113.084704,86.1608783 C112.993859,85.6534262 113.298296,85.0364947 113.965901,84.9625221 C116.701817,84.6537393 119.475549,84.6391562 122.219915,84.4130114 L122.395796,84.3983996 C123.257225,84.3240241 124.271883,84.1872756 124.95393,83.6415828 C125.587732,83.1343421 125.644563,82.4747178 125.391042,81.8789213 C125.386817,81.8935045 125.382803,81.9104125 125.380479,81.9254184 C125.361465,82.0435632 125.199,82.0395476 125.146183,81.9569096 C124.987732,81.7161816 124.94738,81.4792579 124.987732,81.2509996 C124.79738,81.0314067 124.56731,80.836753 124.318014,80.6866943 C123.212873,80.0148117 121.759563,79.830937 120.50231,79.6320564 C119.127169,79.4145769 117.741254,79.3150309 116.353225,79.2497237 C113.621535,79.1205886 110.881183,79.3427178 108.19407,79.8328391 C108.081887,79.852072 108.03562,79.6956728 108.145479,79.6597432 C109.193155,79.3129174 110.264282,79.0214654 111.348085,78.7910935 C111.322732,78.7866552 111.297592,78.7826395 111.272239,78.7760877 C111.177169,78.7528391 111.109352,78.6368078 111.141254,78.5438137 C111.145268,78.5288078 111.151817,78.5142247 111.158155,78.5015436 C110.69738,78.2901933 110.505338,77.5800564 111.063085,77.29262 C112.801606,76.3943812 114.842451,75.9883773 116.750408,75.6185143 C118.582099,75.2655593 120.432592,75.0182795 122.28562,74.7986865 C125.418718,74.430937 128.834915,74.439391 131.849493,73.4500603 L131.973459,73.4084733 C133.201142,72.9848642 134.666698,72.1266991 134.752521,70.6773558 C134.87907,68.4854419 131.623437,69.056299 130.267099,69.1091366 C126.555338,69.2507413 122.847592,69.5085886 119.152521,69.9059272 C118.398085,69.9862403 117.643859,70.0684556 116.889845,70.153207 C115.734211,70.2819194 114.576465,70.4173949 113.422944,70.5609018 C112.778577,70.6414262 112.119423,70.7471014 111.456042,70.8485495 C111.249,70.8992736 111.046183,70.9352031 110.843366,70.9542247 C110.828366,70.9561268 110.815901,70.9521112 110.805338,70.9457706 C109.839845,71.0810348 108.870127,71.1843851 107.927873,71.1550074 C107.819915,71.1528939 107.752521,70.9836023 107.866606,70.9328783 C109.083507,70.4173949 110.437732,70.1130505 111.795972,69.8740133 C112.637028,69.2465143 113.653014,68.7435006 114.487732,68.2573949 C115.632803,67.589528 116.944775,66.6067491 118.24407,66.2072971 C118.82907,65.7465534 119.492451,65.3766904 120.103225,65.1251836 C119.927873,64.8525417 119.864493,64.4740133 119.895972,64.1550857 C120.01238,63.0116806 120.927169,62.3731914 121.983507,62.1491601 C122.310972,62.0817393 122.689141,62.0310153 123.092662,62.0119937 C123.100901,61.7985299 123.195972,61.5892932 123.407239,61.4328939 L123.469618,61.3855598 L123.513896,61.3502383 C124.223021,60.7742334 125.630658,59.152467 123.935408,59.0340681 C123.03562,58.9704517 122.274845,59.6300759 121.558648,60.076025 C120.071324,61.0038528 118.632803,61.0501386 116.934211,60.8197667 L116.170631,60.7101576 L116.043677,60.6930341 C114.815612,60.5318484 113.569833,60.5096207 112.884211,61.762389 C112.148789,63.1025613 111.891254,64.3241659 110.407944,65.0617785 C108.990549,65.765575 107.416606,65.9050661 106.115197,66.8730505 C104.72062,67.9084556 103.672732,69.3625456 102.532099,70.6517824 C100.015901,73.4923303 97.1363239,76.0012697 94.1701268,78.3599389 L93.642476,78.7782274 C90.9108108,80.9378322 88.0911255,83.0641482 85.0328028,84.7279233 C85.0116761,84.7382795 84.990338,84.7427178 84.9715352,84.7427178 C84.8891408,84.7342638 84.827662,84.6285886 84.9018169,84.5567295 C88.4743521,81.0842442 92.6532254,78.2690583 96.3227324,74.8895671 C97.949493,73.3910935 99.4980845,71.814209 100.987521,70.1785691 C102.28893,68.7435006 103.442451,67.1308978 104.959563,65.9092932 C105.696676,65.3151875 106.493366,64.8609957 107.384704,64.5439703 C108.21731,64.245755 109.151113,64.0978098 109.918014,63.6412932 C111.420127,62.7496063 111.274352,60.6361033 112.776465,59.6763616 C114.064385,58.8533148 115.633383,59.1540435 117.061436,59.3493735 L117.232099,59.3722286 C118.157451,59.4948117 119.114493,59.5983734 119.997592,59.2327374 C120.872028,58.8713284 121.575549,58.1950074 122.456535,57.8357119 C123.684211,57.3305847 125.424845,57.4510544 126.054634,58.8015828 C126.656535,60.0908196 125.834915,61.2574732 124.875761,62.1134419 C126.183296,62.3501542 127.33069,62.9820916 127.427873,64.2713284 C128.387028,64.2394145 129.34407,64.2055984 130.303014,64.1719937 C133.643366,64.0557511 137.000197,63.8315084 140.342662,63.8908978 C140.266394,63.5504125 140.232592,63.199571 140.228366,62.8426004 C140.226465,62.6439311 140.234915,62.4452618 140.249493,62.2423656 C140.274845,61.8955397 140.503014,61.6863029 140.841254,61.6503734 L141.596155,61.5698053 L141.848783,61.5447618 C143.263104,61.4109472 144.844605,61.3828857 145.922239,62.3182403 C146.501113,62.8235789 146.968014,63.9860055 146.684915,64.7616611 C147.343859,64.9878059 147.971535,65.2771444 148.54407,65.6429918 C149.678577,65.2623499 150.870127,65.3048313 152.010761,65.7019585 L152.146264,65.7504 C152.957181,66.0482218 154.106575,66.6123642 154.547239,67.4170661 C153.477592,60.1639468 152.036113,52.972753 150.22407,45.8684243 C149.06738,43.0312579 147.605831,40.3194223 145.833507,37.8166121 C141.369423,31.5099194 134.938225,27.1730114 129.16238,22.1872579 C128.652724,22.7483401 128.103761,23.2822374 127.590364,23.7960291 L127.372732,24.0150153 C126.326958,25.0745143 125.236183,26.0883616 124.121324,27.0743108 C121.791254,29.1349761 119.338648,31.0369174 116.903577,32.9692932 C111.994775,36.8651131 107.556676,41.0018724 103.864141,46.0880172 C103.797803,46.1797432 103.613789,46.1262716 103.665127,46.0043225 C106.197803,39.9814732 111.448225,35.4025691 116.217803,31.1537941 C118.725972,28.9196102 121.292873,26.7393205 123.704493,24.3996728 C124.828762,23.3089102 125.917927,22.1805097 126.945403,20.9976819 L127.200972,20.7008313 C127.872803,19.9141855 129.445901,17.5124008 130.485549,19.2452618 C130.703366,19.6077276 130.693859,20.0714301 130.485549,20.4343186 C130.190197,20.9500133 129.815197,21.4418254 129.405127,21.9141933 C130.862873,22.707391 132.29062,23.5449722 133.687099,24.4315867 C133.606817,24.0044477 133.626887,23.5322912 133.701465,23.0599233 L133.725915,22.909877 L133.827622,22.3240267 C133.973518,21.4603919 134.048532,20.6574677 133.500761,19.8150622 C132.815831,18.7612697 131.524352,18.43262 130.495479,17.8237198 C129.310268,17.1220368 128.691254,16.1832188 128.056606,14.9916258 C126.8412,12.7105307 124.095392,11.7958385 121.735382,11.0619855 L121.438437,10.9698411 C119.257732,10.2937315 116.898718,9.9318998 114.718437,10.5815906 C114.922944,11.533935 115.19062,12.472753 115.525056,13.3872658 C115.881042,14.3607452 116.694211,15.4430701 116.610972,16.4945378 C116.553507,17.2222168 115.680972,17.9999859 114.956958,17.4439233 C113.931465,16.6568548 113.726535,15.3750153 113.451676,14.1538333 C113.185901,12.9728078 113.016254,11.7630387 112.944,10.5547491 C112.87448,9.39027505 112.928811,8.22654401 113.072352,7.06999944 L113.182439,6.22062673 L113.209167,6.02336793 C113.328989,5.16477171 113.507182,4.26361042 113.989986,3.5905456 C114.036465,3.52587241 114.150127,3.52439295 114.171254,3.61421683 Z M84.4186479,-1.21365793 C84.4340704,-1.14496908 84.4448451,-1.07712564 84.4545634,-1.00928219 C84.5251268,-0.71973229 84.5515352,-0.441383953 84.5428732,-0.161767515 C84.5470986,-0.0609534247 84.5397042,0.0400720157 84.5209014,0.140040705 C84.4830845,0.469113112 84.4038592,0.806850881 84.2967465,1.17607984 C84.0687887,1.96166888 83.807662,2.73774716 83.5159014,3.50220117 C82.9391408,5.01398982 82.2582254,6.45645558 81.4165352,7.8391092 C79.8960423,10.3366356 77.9631549,12.4097706 75.6844225,14.2018098 C76.1168873,14.5587804 76.5396338,14.9301229 76.9632254,15.2947022 C79.0106197,17.0573636 81.002662,18.8999155 82.932169,20.7910779 C86.3587183,24.1500681 89.7163944,27.5714067 92.9952676,31.0747491 C94.6125211,32.8025378 96.1997746,34.5529409 97.7783662,36.3151796 L97.8301168,36.3744743 L97.8860704,36.4411623 C98.4466017,37.1193161 99.5671486,38.7366677 100.403155,38.4768705 C100.825268,38.3454106 101.269775,37.7153753 101.557521,37.4148352 L102.087539,36.8619429 C102.263736,36.677117 102.438824,36.4912344 102.610901,36.30271 C105.694563,32.9227961 108.61238,29.4131131 111.352099,25.7447061 C112.689,23.9547804 113.981324,22.1312501 115.226746,20.2760172 C115.866887,19.3221933 116.495197,18.3599155 117.110831,17.3896063 C117.706183,16.451211 118.187662,15.4426474 119.065056,14.7422325 C119.709,14.2282286 120.601183,14.6995397 120.43893,15.5421933 C120.183296,16.8692618 119.265127,17.9915319 118.542169,19.1131679 C117.816042,20.240299 117.072803,21.3564399 116.312873,22.4607452 C114.850268,24.5869292 113.324282,26.6683068 111.743789,28.7078372 C110.382732,30.4642638 108.962738,32.1755818 107.50431,33.85221 L107.10562,34.30862 C105.536958,36.0977002 103.997239,37.9968939 102.263789,39.6297863 C100.711606,41.092119 99.0163944,40.6660368 97.6023803,39.2449174 C95.814,37.4482286 94.1536479,35.505074 92.4328732,33.6428665 C88.9942817,29.9214106 85.5197746,26.2282755 82.0093521,22.5744517 L80.8553772,21.3719102 C79.5098399,19.9668874 78.1697981,18.5530427 76.8647746,17.1133714 L76.6963683,16.9256643 C75.2081049,15.250818 73.6947196,13.1526592 71.5788592,12.3011366 C71.4259014,12.2396337 71.4820986,12.0223656 71.6473099,12.0528 C73.0017465,12.3032501 74.1324507,12.9859115 75.1845634,13.8015123 C76.1301972,12.2360407 76.974,10.5858176 77.7096338,8.89797417 L77.2376551,8.69295915 C73.8607948,7.23324682 70.0546895,5.76142541 66.4292113,5.99803679 C64.9680845,6.09314442 63.4091408,6.64688219 62.400338,7.74421292 C61.4868169,8.73819335 61.0306901,10.0785769 60.1923803,11.1372305 C59.232169,12.3497472 57.9797746,12.8954536 56.4428028,12.9446982 L55.6954412,12.9673681 C54.8358466,12.9952788 54.0115117,13.040393 53.1396338,13.2295984 C50.7772394,13.7419115 48.2866056,14.5731523 46.305338,15.9927922 C45.5866056,16.5076415 44.8446338,17.215665 44.4970986,17.9957589 C44.1525211,18.7686669 44.0534366,19.6730348 44.0198451,20.5072344 C44.0035775,20.9138724 44.1254789,21.4509135 44.0236479,21.8400094 C44.0352676,21.7954145 44.0405493,21.8190857 44.0420282,21.8655828 C44.3587183,22.1153988 44.5744225,22.5307022 44.5978732,22.944526 C46.5728028,21.9148274 48.6172394,21.0123616 50.7013944,20.1988744 C53.0219577,19.2932384 55.4145634,18.5674614 57.8075915,17.8801503 C60.1497042,17.207845 62.6012535,16.929708 64.9887887,16.4503656 C65.2928028,16.3892853 65.3984366,16.7999389 65.1151268,16.9089957 C62.6056901,17.8731757 60.1775915,19.0161581 57.6472394,19.9232736 C55.1181549,20.8301777 52.6078732,21.8116885 50.1520986,22.9026787 C45.405338,25.0121659 40.8201972,27.6963147 37.0805493,31.3380916 C33.4281549,34.895117 30.6109014,39.2161738 27.9907606,43.5606904 C25.3520282,47.9358528 22.9970282,52.4703734 20.8980845,57.1283225 C16.745831,66.342984 13.632169,76.0314928 11.5822394,85.9277589 C9.58723944,95.5581464 8.47259155,105.532401 8.84378873,115.375618 C9.01998592,120.050686 9.59083099,124.729348 10.9184366,129.225614 C11.552662,131.373778 12.3466056,133.472698 13.3497042,135.47651 C14.4075211,137.589168 15.8327324,139.471031 16.7986479,141.619618 C16.8780845,141.796307 16.908507,141.966021 16.9040704,142.123688 C21.0237887,145.694452 27.4720986,143.288229 31.9306901,141.156338 C42.1898451,136.248784 52.2588592,130.878373 61.8292817,124.715399 C71.2750563,118.632526 80.2264648,111.843955 88.9666056,104.797747 C88.2905493,104.100291 87.6945634,103.318295 87.170831,102.610272 C86.0891408,101.147728 85.2757606,99.4907413 84.7159014,97.7616845 C84.0609718,95.7369487 83.8579437,93.5706082 84.0440704,91.4552031 L84.0968651,90.8568895 C84.2749283,88.8592084 84.4806261,86.8319923 84.9187183,84.8798841 C84.9227324,84.8547335 84.9419577,84.8439546 84.9630845,84.8439546 C84.984,84.8439546 85.005338,84.856847 85.0137887,84.8798841 C86.1947746,88.6611523 86.2898451,92.725207 87.6163944,96.4578646 C88.1509014,97.9584517 88.9790704,99.4083147 89.9722394,100.653168 C90.4011127,101.1919 90.9039296,101.659195 91.4170986,102.115712 C91.4511127,101.883015 91.4973803,101.652855 91.5670986,101.42671 L91.6224223,101.247656 C91.6911727,101.030355 91.7762535,100.78862 91.8945634,100.574757 C91.727662,100.526358 91.5651972,100.47352 91.4046338,100.414131 C91.277662,100.367845 91.2501972,100.162835 91.4046338,100.129019 C91.8250563,100.031798 92.2581549,99.9831875 92.6997042,99.9620524 C92.7694225,99.9514849 92.8368169,99.9493714 92.9044225,99.9535984 C93.7306901,99.928025 94.5715352,99.9874145 95.3680141,100.000095 C96.7475915,100.021231 98.1229437,100.046381 99.5001972,100.107884 C102.137028,100.221802 105.113577,100.727141 107.708155,100.114013 C110.065901,99.5562599 112.389845,97.9836023 114.280479,96.5041503 C115.932592,95.2108978 117.206746,93.6743812 118.577662,92.1420916 C118.479211,92.1575906 118.381512,92.1721503 118.284188,92.185708 L117.400117,92.3069032 C116.284148,92.4559491 114.959387,92.572867 114.073648,92.0364164 C113.735408,91.8314067 113.832803,91.366436 114.177169,91.2394145 C115.081183,90.9078059 116.203225,91.1825613 117.166394,91.1360642 C117.922732,91.0999233 118.687732,91.0198215 119.433507,90.8634223 C119.678577,90.8126982 119.921324,90.7535202 120.162169,90.6837746 C121.928366,90.1744204 124.003225,88.3821699 122.600408,86.4250661 C122.547592,86.3510935 122.606535,86.2834614 122.678366,86.2705691 C122.710268,86.2644399 122.74407,86.2705691 122.771535,86.294029 C124.368507,87.6168705 123.538225,89.9882207 122.027662,91.005027 C121.508155,91.3558685 120.920831,91.6010348 120.31238,91.7806826 C120.428577,91.993935 120.449493,92.2562207 120.310056,92.5054027 C119.127169,94.61489 117.124352,96.4682207 115.248085,97.9584517 C113.321535,99.4884164 111.099,100.931939 108.709563,101.608471 C105.950197,102.386029 102.918718,101.8008 100.119423,101.55352 C98.6023099,101.420158 97.0898451,101.261645 95.5750563,101.086225 C95.1692113,101.039939 94.749,101.004009 94.3220282,100.963862 C94.7236479,101.492229 95.042662,102.100917 95.2518169,102.466553 C95.9320986,103.654131 95.3046338,105.218334 93.9863239,105.581645 C93.8487887,105.6199 93.7072394,105.641035 93.5680141,105.64505 C93.2128732,106.357301 92.3678028,106.881661 91.5861127,106.613035 C91.2461831,106.497004 90.918507,106.338491 90.6039296,106.148276 C85.6875211,110.468276 80.5114648,114.521763 75.1877324,118.322052 C65.3151972,125.368471 54.9670986,131.804088 44.2370282,137.461935 C41.8201479,138.736377 39.3847859,139.976581 36.9287861,141.168525 L34.8148666,142.187862 C32.4750426,143.31436 30.080382,144.434698 27.5954789,145.133739 C27.1110423,145.27006 26.6037887,145.380174 26.0840704,145.464503 C26.0773412,145.511047 26.0756446,145.555607 26.0786875,145.598262 C25.6114577,145.66057 25.203752,145.670066 24.8556076,145.62676 L24.7763239,145.615829 C21.7304789,145.82887 18.4725211,145.084917 16.5130141,142.859399 C16.1863944,143.088714 15.7101972,143.114076 15.2899859,142.784158 C13.1766761,141.12527 11.9168873,138.599634 10.8113239,136.188338 C9.69033803,133.742381 8.81167606,131.193285 8.16604225,128.581841 C6.87646479,123.366139 6.36498592,117.986005 6.33803126,112.620878 C6.2405493,91.9468039 11.4161831,71.0911796 20.4060423,52.5306082 C22.6860423,47.8232031 25.1992817,43.2037198 27.9892817,38.7786787 C30.7716761,34.3656845 34.0025915,30.2644321 38.1402676,27.0459898 C39.3301268,26.1206982 40.5679437,25.274663 41.8446338,24.4952031 C40.9877324,24.070389 40.6473803,22.989755 40.5873803,22.029802 C40.4542817,19.8979115 40.7082254,17.4418098 41.9559718,15.6430074 C43.7063239,13.1194849 46.8396338,11.5635241 49.7449859,10.80689 C51.2616761,10.4120877 52.8305493,10.1819272 54.3949859,10.1041503 C55.2016056,10.0637824 56.0397042,10.1965104 56.8366056,10.1094341 C57.5397042,10.0329252 57.974493,9.61318356 58.3788592,9.06134795 C59.4147042,7.64678043 60.0890704,6.16310137 61.5749155,5.12621683 C63.0994225,4.0624908 65.0749859,3.65543014 66.9115352,3.76575499 C69.0510423,3.89446732 71.0029437,4.73775499 72.8872394,5.70679609 C74.5879437,6.5813636 76.2387887,7.55019335 77.8475915,8.58369628 C78.1425211,7.89236947 78.420338,7.1957589 78.6787183,6.49682348 C79.1798451,5.1416454 79.6156901,3.74335186 79.9693521,2.34252211 C80.3278732,0.922036791 80.2754789,-0.953908415 81.3584366,-2.0220728 C82.3000563,-2.95053464 84.1133662,-2.58595538 84.4186479,-1.21365793 Z M157.407269,93.5693979 L157.399563,93.5710309 C155.209141,94.8695671 154.161676,98.1146395 153.13069,99.5328 C153.214986,100.008338 153.274141,100.49233 153.390338,100.942506 C153.656746,101.976221 154.005127,103.00127 154.408859,103.986162 C155.118718,105.725575 156.008155,107.382561 156.829986,109.068925 C157.491254,110.42516 158.139211,111.806334 158.643296,113.234005 C158.588577,113.288745 158.538085,113.35363 158.495197,113.434154 C157.948437,114.458569 157.520408,114.257152 156.511606,114.033544 L156.510972,114.03143 C155.934,112.264753 155.101817,110.605653 154.35393,108.910413 L154.172038,108.496524 L153.992168,108.082307 C153.367274,106.631503 152.797023,105.167272 152.464986,103.612072 C152.253718,102.620839 152.167099,101.601919 152.154634,100.589551 C151.607451,101.039939 150.950197,101.363305 150.122239,101.48779 C148.350232,101.755563 146.745333,100.645383 145.301536,99.7546754 L144.976129,99.5554024 C144.072266,99.0052799 143.176095,98.497025 142.134,98.2372227 C140.950901,97.9415436 139.727662,97.9415436 138.525761,97.7912736 C138.381887,97.7722521 138.236324,97.7532305 138.090338,97.7301933 C138.559352,99.283618 138.776958,100.970193 139.056042,102.525732 C139.444775,104.706867 139.761676,106.907023 140.065901,109.100839 C140.657451,113.353207 141.069423,117.63918 141.278366,121.927688 C141.480831,126.079841 141.378865,130.216465 141.228698,134.367324 L141.153796,136.39155 C141.093763,138.039659 141.044347,139.689567 141.073437,141.338099 C141.153718,141.344229 141.234,141.357121 141.314493,141.376142 C142.146887,141.570585 142.714986,142.420002 143.475761,142.79853 C145.081183,143.597434 147.020831,143.586867 148.729986,143.183187 C152.61731,142.261489 155.849704,139.547751 157.97907,136.231876 C160.53562,132.254264 161.473648,127.572643 161.443859,122.889121 C161.408692,117.618177 160.555399,112.57844 159.367525,107.48975 L159.291254,107.16487 C158.291493,102.925524 157.665275,93.6096889 157.407269,93.5693979 Z M48.5535211,82.9341088 C48.5757042,84.3518466 47.9993662,85.8682849 47.6826761,87.2458661 C47.3416901,88.7301793 47.0015493,90.2144924 46.6567606,91.6981714 L46.3466468,93.0273996 C46.0884507,94.1351309 45.8338732,95.2436632 45.6057042,96.3582341 C45.4180986,97.2744376 45.339507,98.4818818 45.0321127,99.4919249 C48.6885211,98.0124728 52.3506338,96.5480266 56.0066197,95.0734356 C60.5108451,93.2560344 65.0361972,91.4889346 69.5509859,89.7009112 C74.0488732,87.9213417 78.5214085,85.8966059 83.1103521,84.3748838 C84.2026056,84.0113613 84.9420423,85.7550012 83.8960563,86.238782 C79.235493,88.4011068 74.304507,90.0940227 69.5298592,91.9879327 L62.623185,94.7308567 C56.2917089,97.244052 49.9559155,99.7451084 43.5883099,102.160011 C39.2509859,103.804528 34.9305634,105.497443 30.5657746,107.059111 C28.4847887,107.803275 26.385,108.507072 24.3143662,109.278289 C22.5798592,109.925021 20.7038028,110.884762 20.0615493,112.748661 C20.0277465,112.845882 19.8946479,112.805937 19.9094366,112.706391 C20.1692958,110.901459 21.5089437,109.772849 23.0192958,108.918993 C25.0239498,107.782848 27.2257656,106.956096 29.3418589,106.044951 L29.6298592,105.920144 C33.9509155,104.034899 38.306831,102.225952 42.6756338,100.447228 C42.6323239,100.341553 42.6067606,100.228269 42.6048592,100.109913 L42.5923944,100.113295 C42.5129577,99.3053025 42.8833099,98.5848094 43.1497183,97.8332477 L43.9138732,95.6766294 C44.4230282,94.2405041 44.8797887,92.7866254 45.3502817,91.3376078 C45.8423239,89.8230716 46.3390141,88.3100149 46.8348592,86.7967468 C47.2548592,85.5149072 47.5371127,83.987056 48.2556338,82.841326 C48.3422535,82.7033143 48.5809859,82.7808798 48.5535211,82.9341088 Z M132.699,79.7463969 L132.644551,80.02167 C132.581055,80.3435554 132.521535,80.6678841 132.506746,80.9933636 C132.464282,81.8451053 132.561465,82.6966356 132.787732,83.5189996 C133.009563,84.3324869 133.319915,85.1189213 133.761676,85.8396258 C134.179986,86.5178489 134.786324,87.050663 135.172944,87.7460055 C135.212873,87.8197667 135.238225,87.8937393 135.248789,87.9658098 C135.396676,87.9045182 135.542662,87.8495671 135.684211,87.8049722 C136.863085,87.4310935 138.067099,87.1180838 139.288225,86.8836963 L139.09456,86.8705749 L138.969518,86.8606084 C136.929222,86.6878885 135.004206,86.0201331 135.420127,83.6371444 C135.655394,82.290116 136.712314,81.3867974 137.84509,80.7465571 L137.987028,80.6678841 C138.048085,80.6338568 138.111676,80.6000407 138.172732,80.570663 C137.148085,80.3973558 136.404634,80.183892 135.147592,79.9725417 C134.331887,79.835164 133.514282,79.7590779 132.699,79.7463969 Z M39.4897183,50.3935397 C41.4959155,54.4485065 43.0052113,58.7600524 44.1439437,63.1343695 C44.6936901,65.2468297 45.1602516,67.3800944 45.5353833,69.5303831 L45.6585917,70.2483999 L45.7286153,70.6380993 C46.0790407,72.5547509 46.524119,74.6310879 46.0094366,76.5012188 C45.8414789,77.1122325 44.8273944,77.3540172 44.5434507,76.6931249 C43.6869718,74.6979781 43.8073944,72.404616 43.5591549,70.2695554 C43.2982394,68.0292423 42.9422535,65.7994967 42.4985915,63.5881386 C41.646421,59.3390692 40.4502726,55.1894407 39.1170045,51.0710314 L38.9683099,50.6135554 C38.8550704,50.3085769 39.348169,50.1075828 39.4897183,50.3935397 Z M116.60231,68.5340524 C116.004423,68.8153597 115.406535,69.073207 114.878366,69.3308431 C114.838437,69.3521894 114.796183,69.3709996 114.753718,69.392346 C115.351606,69.2908978 115.951606,69.1957902 116.551606,69.1068117 C116.545479,68.9123695 116.564493,68.7202521 116.60231,68.5340524 Z M139.996817,66.5031875 C139.906998,66.5323538 139.827579,66.5795324 139.758559,66.6441908 L139.724915,66.6779742 C139.642521,66.7546943 139.584211,66.8453636 139.550197,66.949982 C139.49738,67.0510074 139.472873,67.1596415 139.47731,67.2758841 L139.507521,67.5005495 C139.547662,67.643845 139.620127,67.7679076 139.724915,67.8735828 L139.895831,68.0056767 C140.011183,68.0726219 140.134461,68.1104404 140.265665,68.1192738 L140.32238,68.1212853 L140.493469,68.1213611 C140.591289,68.1180374 140.683256,68.09384 140.769634,68.0483695 C140.859453,68.0192031 140.938872,67.9721798 141.007892,67.9074327 L141.041535,67.8735828 C141.124141,67.7968626 141.182239,67.7061933 141.216254,67.601575 C141.261706,67.5151629 141.285894,67.4230055 141.289217,67.325236 L141.289141,67.2758841 L141.25893,67.0510074 C141.223806,66.9256239 141.163935,66.8148037 141.079316,66.7184052 L141.041535,66.6779742 L140.87062,66.5456689 C140.755268,66.4789086 140.63199,66.4411132 140.500786,66.4324243 L140.44407,66.430483 L140.32238,66.430483 C140.205972,66.4260446 140.09738,66.4503499 139.996817,66.5031875 Z M134.499845,66.2172305 C134.050901,66.2996571 133.796324,66.8440955 133.909775,67.2568626 C134.035308,67.7139929 134.4695,67.9171728 134.905606,67.8547181 L134.949211,67.8475867 C135.460056,67.7535358 135.960549,67.7898881 136.447099,67.9693245 C136.875127,68.1274145 137.373085,67.7924243 137.486535,67.3788117 C137.616254,66.9066552 137.326183,66.497481 136.896254,66.3389683 C136.125127,66.0540681 135.298014,66.0701307 134.499845,66.2172305 Z M45.4904577,36.1939068 C46.5127204,37.6925168 47.150942,39.6847759 47.7806047,41.397398 L47.8435563,41.5676994 C48.5128521,43.3675585 49.1584859,45.1815781 49.7605986,47.0053198 C50.9625,50.6458286 52.528838,54.4554176 52.8182746,58.3011476 C52.8717254,59.0108618 51.7860211,59.2953393 51.4712324,58.6663609 C50.5667958,56.8578364 50.0804577,54.9725918 49.5453169,53.0336642 C49.0348944,51.1845605 48.5031338,49.3417973 47.971162,47.4988227 C47.4394014,45.6569049 46.9249648,43.809492 46.4012324,41.9652493 C45.8918662,40.1710967 45.1826408,38.1761613 45.0660211,36.3088814 C45.0508099,36.0662513 45.372993,36.021445 45.4904577,36.1939068 Z M68.5628451,24.1289119 C69.9274225,25.0763953 71.0450282,26.4622192 72.1998169,27.6474716 C73.3712958,28.8500548 74.5271408,30.0638395 75.6722113,31.2917847 C77.585662,33.3439961 79.4644648,35.4298121 81.4049577,37.4570841 C85.272,41.497045 89.6467183,45.2146967 94.9837606,47.1134677 C96.2752394,47.5729432 95.7094648,49.6462896 94.4150282,49.177092 C88.9560845,47.1971624 84.4339014,43.536364 80.4449577,39.394955 C78.3789718,37.2501722 76.4832676,34.9582896 74.6348873,32.6256164 C73.7699225,31.5339922 72.9114131,30.4389922 72.0651054,29.3334002 L71.558831,28.6687162 C70.4946761,27.2640822 69.1926338,25.8640978 68.4139014,24.2781252 C68.370169,24.1889354 68.4660845,24.0619139 68.5628451,24.1289119 Z" id="ðŸ–-Ink" fill="#000000"></path>
                    </g>
                    <g id="head/No-Hair-1" transform="translate(78.591549, 38.043053)">
                        <path d="M84.9435732,47.3890709 C83.0314877,39.3253229 78.8510905,31.8210772 72.1584085,25.7563303 C52.0186901,5.83741057 15.0335493,16.6490348 15.2010845,46.6654262 C14.4787606,50.1713049 14.1855211,53.7760955 14.4246761,57.3515084 C14.5235493,58.8770348 15.1835493,61.0059663 14.2968592,62.3788978 C12.2967887,64.947438 11.1343944,66.8407139 11.8150986,70.2574027 C12.383831,73.2406121 14.4132676,75.3541151 17.1521408,76.4776532 C18.7947465,76.9491757 20.3532676,77.9763382 20.9617183,79.5420211 C24.6179155,86.2384438 27.3265775,91.8083695 33.0905915,96.3720564 C34.5779155,97.5469526 49.8326771,104.593794 54.8589718,104.593794 C69.5740208,104.593794 88.1203099,99.2614262 88.4281268,82.8183734 C88.4813662,79.2068196 87.8477746,75.553207 87.4503803,71.9701855 C86.4830201,63.7934533 86.8243089,55.3206091 84.9435732,47.3890709 Z" id="ðŸŽ¨-Background" fill="#FFFFFF"></path>
                        <path d="M84.6124648,43.355744 C84.6171127,43.2559867 84.7599296,43.2335836 84.7876056,43.3320728 C85.3345775,45.2733252 85.644507,47.2509299 86.0723239,49.2224055 C86.4842958,51.1213879 86.8732394,53.0258654 87.1969014,54.9415444 C87.8076923,58.5570001 88.3223552,62.1818202 88.8010428,65.816171 L88.92,66.7249573 C89.7519718,73.1197832 91.1260563,79.7817558 89.9245775,86.2139906 C88.8992958,91.7025464 85.4617606,96.126108 81.0316901,99.3692783 C76.8369718,102.439987 71.7511268,104.410617 66.7014085,105.530985 C61.2815493,106.733779 54.8573239,107.092652 50.4475352,103.11673 C48.6821831,101.524629 51.0887324,98.3657871 53.0038732,99.8025464 C57.5009134,103.175443 63.2216981,102.181115 68.2960786,100.83899 L68.4496479,100.798218 C72.9033803,99.6114857 77.3866901,97.8126834 80.9224648,94.7781159 C84.8315493,91.4229299 86.7644366,86.7664603 86.9877465,81.6593918 C87.1130357,78.7900625 86.8456283,75.924074 86.5571871,73.0716598 L86.5250704,72.7547812 C86.1940141,69.4928008 85.8466901,66.2322998 85.5261972,62.9690513 C85.2337746,59.99338 84.9814723,57.0004025 84.8481318,54.0114263 L84.7859087,52.5038855 C84.6563278,49.4644407 84.4818739,46.3805802 84.6124648,43.355744 Z M31.8710915,18.1010959 C39.1889789,14.289816 47.5991197,12.9257613 55.7430634,14.2048532 C63.5722183,15.4344892 70.7574296,19.4759295 76.1280634,25.2709432 C78.7501056,28.1002896 81.0774296,31.3730489 82.5647535,34.9484618 C83.3035563,36.7246497 83.882007,38.5775577 84.1900352,40.4805558 C84.3484859,41.4588963 84.5041901,42.4725323 84.5339789,43.4643992 C84.5614437,44.3827162 84.2918662,45.2439687 84.3237676,46.1775029 C84.3286268,46.323546 84.1048944,46.3516556 84.0708803,46.2117417 C83.8165141,45.1708415 83.2036268,44.383773 82.8191197,43.3950763 C82.5317254,42.6568297 82.2057342,41.9360992 81.8738499,41.2175705 L81.5886972,40.6018708 C80.7609507,38.8123679 79.7715845,37.0964149 78.7927817,35.386591 C76.8218662,31.9428493 74.292993,28.8131742 71.3318662,26.1723523 C66.1327817,21.5357495 59.4628521,18.542818 52.5013732,18.0038748 C45.2758099,17.4442192 37.9469366,19.1671468 31.7762324,22.9837104 C25.6059507,26.8000626 20.9403169,32.7326654 18.5179225,39.5632955 C17.2957394,43.0102074 16.6207394,46.601683 16.4637676,50.2533933 C16.384331,52.101863 16.4584859,53.9657613 16.587993,55.810638 L16.6523211,56.6903966 C16.7276996,57.7454264 16.7793647,58.7963928 16.6217958,59.8258708 C17.7347535,59.4786223 18.9013732,59.3346928 20.0722183,59.5065205 C21.812007,59.7618317 22.8514437,60.4753503 23.6318662,62.0304658 C23.6726408,62.1116243 23.5908803,62.1927828 23.5099648,62.1524149 C22.4982042,61.6472877 20.8613028,61.9131663 19.7897535,62.1779883 C18.6746831,62.453589 17.6703169,62.9329315 16.7227817,63.5809315 C14.9698944,64.7790763 13.5958099,66.6357886 13.2586268,68.7659883 C12.9326408,70.8236947 13.7770775,72.9071859 15.1955282,74.3819883 C15.925669,75.1415812 16.7984155,75.7982466 17.7755282,76.2074207 C18.9613732,76.7043053 20.1351761,76.6888767 21.184331,77.5091272 C21.8329225,78.0161566 21.676162,78.8837495 21.2363028,79.4467867 C23.4497535,81.8747789 25.4126408,84.5310294 27.6258803,86.9685323 C28.6517958,88.098364 29.6695318,89.2295316 30.6525284,90.3957307 L31.0194718,90.8347632 C32.0010211,92.0198043 33.5627113,93.2716321 34.0112324,94.7620744 C34.2903169,95.6892681 33.2977817,96.9019961 32.2944718,96.4795068 C30.7554637,95.831228 29.6568196,94.1445712 28.6168636,92.8509346 L28.5491197,92.7671389 C27.4585563,91.426544 26.4903169,90.0113425 25.6051056,88.5282975 L25.3140415,88.0397304 C23.7133465,85.346632 22.1264155,82.5535515 21.1057394,79.5949432 C21.0383451,79.6642661 20.9669366,79.7274599 20.8917254,79.7809315 C19.4213028,80.8269041 17.2836972,80.0227162 15.8151761,79.3434364 C14.428838,78.702411 13.1578521,77.7377987 12.1672183,76.5751703 C10.0127113,74.046998 9.01954225,70.7727593 9.73911972,67.491546 C10.3486268,64.7120783 12.274331,62.0084853 14.7989789,60.6025832 C13.6336268,59.2605088 13.1510915,57.4513503 12.8299648,55.6825597 C12.4201056,53.4247045 12.3383451,51.1108415 12.4496831,48.8212838 C12.6717254,44.2609785 13.8448944,39.7657691 15.6584155,35.58991 C18.9030634,28.1180431 24.6394014,21.8679922 31.8710915,18.1010959 Z M16.4694085,67.960955 C18.0053239,67.6730959 19.436662,67.6035616 20.9180704,68.2536751 C22.5249718,68.9593738 23.6558873,70.1243366 24.7071549,71.4892368 C25.903312,73.0417738 22.8376905,74.7378618 22.0647287,72.6768079 L22.0420141,72.6131977 C21.8349718,72.0030294 21.4641972,71.4131507 20.9945493,70.8701918 C20.8536338,71.0861918 20.6651831,71.276407 20.4437746,71.3852524 C20.1756761,71.517135 19.7662394,71.4258317 19.7018028,71.0832329 C19.6303944,70.7030137 19.7094085,70.2422701 19.9287042,69.9203836 L19.9587042,69.8764227 L19.9587042,69.8764227 C18.8930704,69.0185519 17.6113099,68.3918982 16.4694085,68.1902701 C16.3553239,68.1699804 16.3565915,67.98209 16.4694085,67.960955 Z" id="ðŸ–-Ink" fill="#000000"></path>
                    </g>
                    <g id="face/Smiling" transform="translate(112.183099, 77.354207)" fill="#000000">
                        <path d="M30.968993,50.9198978 C29.548794,50.3403012 28.2816173,49.3734958 27.3551889,48.1384646 C27.0331038,47.7091169 26.9495926,47.2557326 27.017159,46.8410547 C27.0931327,46.3747786 27.3688808,45.9521824 27.7449394,45.6687178 C28.1221628,45.3843752 28.5940214,45.2441445 29.0502103,45.3156301 C29.4466117,45.3777469 29.8412104,45.5948709 30.1535058,46.0451781 L30.2187521,46.1352289 C30.7695298,46.8806513 31.4872438,47.4922614 32.3050288,47.8864795 C33.0932406,48.2664417 33.9747757,48.4437847 34.8870208,48.3406561 C36.6244504,48.1443157 37.8219743,47.2043274 39.0948115,45.9278391 C39.2525834,45.7666792 39.4104563,45.6004672 39.5690946,45.4315797 C39.6692778,45.278484 39.8083069,45.1800892 39.962667,45.1284632 C40.1340565,45.0711416 40.327938,45.0743848 40.5055187,45.1363808 C40.6767961,45.1961763 40.8299095,45.309486 40.9325762,45.4602937 C41.0301525,45.6036243 41.0854754,45.7806897 41.0675245,45.9843589 C40.9510195,47.3072301 40.2596776,48.4878363 39.2776553,49.4148615 C38.1869942,50.4444414 36.7412431,51.1567117 35.3801317,51.4065272 C33.8805866,51.6817086 32.3525901,51.4845569 30.968993,50.9198978 L30.968993,50.9198978 Z M36.0875289,30.5120405 C37.6828906,31.482148 40.1137318,33.7442494 38.3974899,36.149264 C36.3773089,38.2698449 33.4687045,35.8384541 32.0353946,34.7388307 C30.7063626,33.8866164 29.2131206,36.0784478 30.4461973,37.0735516 C40.8033244,44.7445605 45.006466,30.7657101 36.8944406,29.3714319 C36.0012775,29.2177885 35.6695544,30.2119271 36.0875289,30.5120405 Z M17.5274577,21.5886716 C17.7037243,19.3998697 21.0359789,18.9028321 21.3674577,21.0687499 C21.6642887,23.0089456 21.3148521,24.7912626 20.4412606,26.5380728 C19.6065423,28.2068947 17.5085456,27.4283107 17.3498837,25.9087021 C17.1372039,23.8717299 17.4178099,22.9502317 17.5274577,21.5886716 Z M42.8930282,20.6196517 C43.3576056,20.0109628 44.0283803,19.5954481 44.8320423,19.8302583 C47.3429577,20.5642779 46.6028873,24.1303914 45.7210563,25.8662114 C45.2419014,26.8088337 43.6930986,27.0478708 42.993169,26.2178982 C41.8523239,24.864411 41.3059859,22.1614521 42.756338,20.8282544 C42.7956338,20.7593542 42.8393662,20.68982 42.8930282,20.6196517 Z M20.4058944,12.0111429 L20.802522,11.9416942 C22.0295218,11.7294045 23.5551549,11.5254176 24.4231479,12.5122544 C24.8835,13.0355577 25.0419507,14.0081918 24.4231479,14.509092 C23.3346972,15.3904227 22.1313169,15.0488806 20.8269507,15.1234873 C19.7520211,15.1852016 18.7189225,15.3631585 17.6835,15.6592603 C15.4119507,16.3087397 13.5610352,17.4944149 11.6209648,18.7963327 C11.3663873,18.9671037 11.1065282,18.6414129 11.228007,18.4032211 C12.3479366,16.208771 14.5182887,14.4061644 16.6922324,13.3073542 C17.8525141,12.7208571 19.1222324,12.2343288 20.4058944,12.0111429 Z M40.6041287,11.0281289 L40.9077055,11.0902829 C44.2113469,11.7811043 48.5035506,13.1610768 50.0679842,16.4073021 C50.1275964,16.8663298 50.0646105,16.9647086 50.0133917,17.0289838 L49.9963385,17.0503723 C49.9541341,17.1052595 49.9204583,17.1809212 49.7215736,17.2433957 C49.6663832,17.2302408 49.6106433,17.216308 49.5543131,17.2015401 C48.8372041,17.0135386 48.2698321,16.7545401 47.720556,16.4857982 L47.1250012,16.192275 C46.4340388,15.8533498 45.7369757,15.5267598 44.9982488,15.2856588 C43.4217423,14.7712438 41.8001698,14.4088706 40.1534741,14.2153715 C39.7965654,14.1734678 39.4528848,14.0529641 39.1817455,13.8464404 C38.92438,13.6504079 38.7277692,13.3789964 38.6381257,13.0182314 C38.5219478,12.5513438 38.5553348,12.1978716 38.8057421,11.7766707 C38.9940329,11.4603578 39.263447,11.2411116 39.5728025,11.115213 C39.888177,10.9868648 40.2472278,10.9566068 40.6041287,11.0281289 Z" id="ðŸ–-Ink"></path>
                    </g>
                    <g id="facial-hair/Moustache-9" transform="translate(104.577451, 109.479380)">
                        <path d="M51.8377347,6.93708405 C48.87443,6.43714457 45.7957692,7.17601909 42.9386178,7.96331117 C38.3999206,4.98214052 32.5188972,7.99123572 29.2683793,11.7157849 C28.1559094,12.6323406 25.8196799,13.8497608 27.0505022,15.598423 C26.5839411,16.8345346 26.4591682,17.4162209 27.4248211,15.9711256 C32.8900059,16.6005539 38.7536937,15.4115086 44.1623775,14.2900228 C46.0040095,14.9095424 47.6303385,16.3580157 49.6547426,15.8619046 C51.568927,16.2690625 53.6410573,16.6491967 55.3690453,15.4207418 C56.684833,15.3673698 59.6121826,17.7310477 59.5650984,14.9822813 C59.1580346,12.3474651 53.9359201,7.96331117 51.8377347,6.93708405 Z" id="ðŸŽ¨-Background" fill="#FFFFFF"></path>
                        <path d="M54.0598732,15.3958755 C50.8426901,15.7520008 47.5800845,15.2286975 44.8862113,13.3599382 C44.6050141,13.1648618 44.327831,13.1669753 44.1017746,13.2813159 C43.8269155,13.2508814 43.5457183,13.3605722 43.3826197,13.6746387 C42.7061408,14.978036 40.4639577,14.6876407 39.2314225,14.7142708 C35.1998028,14.7920477 31.0274789,14.5694959 27.1475493,15.7887757 C30.8582535,8.53227476 35.9901549,5.3996407 43.9310704,8.24843131 C43.2140282,8.82605166 46.7920563,7.47383249 47.106,7.44804775 C52.6002254,6.07088924 57.1329718,10.6808618 59.3472676,15.2489871 C57.6721268,14.8501691 55.7950141,15.2037581 54.0598732,15.3958755 M61.7339577,16.6307953 C59.3113521,11.1718286 54.5345915,5.16948023 47.8718451,6.11294795 C46.5038873,6.31436477 45.0649437,7.24916712 43.6876901,7.08050959 C39.7000141,5.60718669 36.4084648,4.85858395 32.4148732,7.24092446 C30.720507,7.36752329 21.1855775,19.1771436 25.7166338,18.2129636 C31.2784648,15.0177699 40.9490282,18.027398 44.402831,15.1695194 C51.1834648,19.6224587 56.6967042,14.7852845 60.5181127,17.5687679 C61.1825493,18.1785135 62.1144507,17.4191319 61.7339577,16.6307953" id="ðŸ–-Ink" fill="#000000"></path>
                    </g>
                    <g id="accessories/Glasses-2" transform="translate(88.521127, 88.978474)" fill="#000000">
                        <path d="M78.6572746,20.1750129 C76.0922746,22.8264023 71.8103028,23.5872634 68.3976972,22.1652986 C59.635162,18.5028094 63.9241056,7.07932603 70.6819225,4.01157652 C71.5261479,3.80107162 72.6536831,3.30165088 73.6819225,3.18836712 C73.7748803,3.14271546 73.9772746,3.27480939 74.2225563,3.14990137 C81.6741761,3.98219883 83.3710775,15.5540501 78.6572746,20.1750129 M50.3943169,20.8536587 C47.5174859,24.6708564 42.1690352,25.8485002 37.7991761,24.0740031 C29.1663592,20.6729542 32.2282606,10.543146 38.134669,6.57187397 C50.6115,1.88179961 55.7636831,13.8154826 50.3943169,20.8536587 M31.6802324,12.3958427 C31.6722042,12.3920384 31.6641761,12.3901362 31.6559366,12.3863319 C31.7015704,12.3662536 31.7472042,12.3461753 31.7926268,12.3256744 C31.777838,12.3643515 31.7617817,12.4026059 31.7474155,12.441283 C31.7250211,12.4258544 31.7053732,12.4078896 31.6802324,12.3958427 M84.5964296,8.26965088 C83.8920634,8.27113033 82.8745986,8.38695029 82.2915,8.87580352 C80.8536127,4.02468023 75.5461479,-0.465034051 70.9303732,2.808782 C67.2955141,3.97818317 64.5982606,6.57166262 63.0653028,10.0196313 C60.3012887,8.37490333 55.9550915,9.07722035 53.5582606,11.2522262 C51.9885423,6.06336517 48.1253028,4.24638669 43.5270634,3.97818317 C38.5081901,3.15581918 33.5057958,8.0318818 31.9449507,11.943553 C30.6471338,11.7958192 28.7079085,11.3826294 27.486993,12.1838583 C19.5629789,10.1050168 5.70910563,8.95886419 4.09819014,10.1138935 C2.95016197,10.5545589 2.32016197,13.2653378 3.9236831,13.4115922 C5.32100704,13.2131342 3.76058451,11.4253221 5.16910563,11.2302458 C12.6739648,10.7648524 19.9595282,12.2768524 27.3849507,12.911326 C28.0479085,13.8034356 30.1899507,14.1018622 31.3326972,13.7434121 C29.5329085,20.3789659 33.4181197,24.8934082 39.2395986,26.2456274 C48.2537535,28.3170716 56.0962183,20.2502536 53.7391056,11.859647 C56.4697394,10.5006646 59.6106549,10.5589973 62.5853028,11.2748407 C57.6145986,29.5756626 87.0773451,28.7545667 82.4757254,9.50287984 C85.5380493,11.0267155 86.2031197,8.57716556 84.5964296,8.26965088" id="ðŸ–-Ink"></path>
                    </g>
                </g>
            </g>
        </g>
    </g>
</svg>