<?xml version="1.0" encoding="UTF-8"?>
<svg width="240px" height="324px" viewBox="0 0 240 324" version="1.1" xmlns="http://www.w3.org/2000/svg" xmlns:xlink="http://www.w3.org/1999/xlink">
    <!-- Generator: Sketch 62 (91390) - https://sketch.com -->
    <title>peep-46</title>
    <desc>Created with Sketch.</desc>
    <g id="Introduction" stroke="none" stroke-width="1" fill="none" fill-rule="evenodd">
        <g id="variations" transform="translate(-1566.000000, -1082.000000)">
            <g id="images" transform="translate(126.000000, 110.000000)">
                <g id="a-person/bust" transform="translate(1440.000000, 972.000000)">
                    <g id="body/Macbook" transform="translate(31.056338, 135.052838)" fill-rule="evenodd">
                        <path d="M210.439775,44.2719053 C207.422998,44.5682184 204.406222,44.8641088 201.389445,45.1604219 C186.941274,46.2647272 172.498813,48.5709816 158.161247,49.9551147 C157.804267,49.3739014 157.105534,49.4696431 156.681303,49.8735335 C155.250634,49.7482027 153.647185,48.6542536 152.351229,49.7921636 C152.309144,49.7862458 152.26706,49.7792712 152.224552,49.7752556 C149.917083,45.3447194 148.322093,40.6191382 146.774052,35.8872164 C145.786013,32.9779796 144.456643,30.161737 142.00008,28.2084376 C137.80768,25.2970873 128.20179,19.3934395 123.278935,19.6415648 C123.197303,18.7598114 122.786396,17.8510051 122.111771,17.263874 C123.598694,14.7278818 117.653329,13.0732204 117.233962,13.3672086 C117.502754,4.89459804 113.518875,-2.46335108 104.734377,-4.15056047 C96.8645343,-5.79106145 85.6710561,-6.06666223 81.4384752,2.16099335 C80.973217,2.10857847 76.2173547,2.08380822 75.757172,2.13537769 C75.0417317,1.22889628 67.1847923,9.81861213 70.4050136,12.8090074 C41.6150467,25.5496258 25.2450108,24.0294082 17.2764065,59.8467311 C16.1991222,63.2114278 16.1206628,66.8933613 14.9831064,70.1830286 C10.9359944,79.6369386 7.65338619,89.7037644 6.83643506,99.9906059 C4.86331726,100.496367 4.63639814,103.976672 6.92187339,104.480109 C7.79486699,104.672649 8.52489942,104.935569 9.16145726,105.434144 C8.66384245,113.864062 10.7018849,133.121032 11.9859976,133.061643 C14.6043439,141.397933 26.2835527,143.750645 34.5520371,140.821119 C33.1266551,143.503788 34.5520371,145.190524 34.5520371,146.623883 C64.3042426,147.749957 96.8351384,147.101432 126.579096,148.645768 C130.383851,148.591663 134.385706,149.580571 138.138437,149.011404 C140.427084,148.462528 140.430891,144.862598 138.109464,144.417494 L148.253011,142.213506 C148.026303,142.127909 152.434238,139.194841 155.765699,133.713894 C158.866645,127.582622 156.756167,120.181599 158.161247,113.51223 C169.135419,112.614413 180.291042,112.230535 191.145094,110.371287 C192.625038,114.800978 199.031432,109.503271 201.067782,107.372226 C201.065245,107.368845 201.062707,107.365674 201.060169,107.362293 C202.045671,107.09261 202.835975,106.168586 202.86241,105.074637 C203.55353,104.086786 203.698606,102.69441 203.035825,101.739741 C206.073538,84.2044297 210.704549,66.3005237 212.378421,48.6003593 C212.970145,48.4693221 213.527398,48.209784 213.999846,47.8099092 L213.961568,47.7716548 C214.762024,46.8789112 214.917674,45.3379562 213.583228,44.57942 C212.50679,43.9669268 211.607996,44.1569307 210.439775,44.2719053 Z" id="ðŸŽ¨-Background" fill="#FFFFFF"></path>
                        <path d="M81.9869366,0.250133072 C82.8833451,-2.00349511 85.9135563,-1.12744814 85.5757394,1.24009785 C85.3735563,2.65825832 84.5971479,4.15609785 83.8997535,5.39904892 C83.3318662,6.41078278 82.6841197,7.39821135 81.8058803,8.1565362 C83.3692606,9.61569863 84.992007,11.0216008 86.6559507,12.3564892 C88.4715845,13.8129041 90.3808099,15.1554012 92.3542606,16.3892642 C94.0847535,17.4713777 95.8934155,18.4300626 97.5246127,19.664771 C99.0413028,20.8126145 100.422993,22.1931546 101.126092,23.9953386 C101.875081,25.9144722 101.549582,27.8964087 100.998042,29.8142471 L100.934683,30.0310802 C100.371232,31.9311194 99.3958099,34.2215225 100.748345,36.0116595 C101.436866,36.923002 102.437852,37.5684658 103.302148,38.2969902 C104.070317,38.9445675 104.791373,39.6487867 105.452641,40.4052094 C106.894542,42.0541644 108.067289,43.9096086 108.807359,45.9770372 L108.873542,46.1648608 C109.507873,47.99503 109.971465,50.2370489 109.114331,52.0339139 C108.868415,52.5489746 108.075317,52.3815851 107.93757,51.8800509 C107.626162,50.7438317 107.64243,49.5539295 107.381303,48.4016477 C107.109613,47.2032916 106.6575,46.0658043 106.067007,44.9896086 C104.924505,42.9076469 103.377208,41.1292503 101.549151,39.625739 L101.001919,39.1805492 C99.5758244,38.0097479 98.2655568,36.767681 97.9760915,34.83 C97.6663732,32.756865 98.4966549,30.7820078 99.0305282,28.8198317 C99.4025704,27.4523953 99.5240493,26.1416008 99.122007,24.9058356 C98.6308099,25.70791 97.960669,26.4691937 97.4305986,27.1482622 C96.3748944,28.5011155 95.3092606,29.845726 94.2463732,31.1928728 C93.1566549,32.5742583 92.0937676,33.9774129 91.0815845,35.4169198 C90.628838,36.0609041 90.1809507,36.7086928 89.7345423,37.3571155 C89.398838,37.8444892 88.930669,38.3314403 88.5647535,38.8285362 C88.6536972,39.0944149 88.6469366,39.4008728 88.4857394,39.6185636 C86.5452465,42.2414207 83.7846127,36.7687162 83.0646127,35.3860626 C81.5984155,32.5702427 80.5072183,29.5787906 79.036162,26.7636047 C77.5118662,23.8452798 75.7760915,21.0047319 73.8415141,18.3404501 C72.6713028,16.7289041 71.3597535,15.2152133 70.2892606,13.5525205 C67.7673592,15.8401761 64.4487676,17.3737339 61.4005986,18.7644188 C58.051504,20.2921795 54.5721038,21.5402485 51.1383288,22.8655547 L50.1240141,23.2596677 C44.2075178,25.5696 38.1464369,28.107338 33.2286972,32.2103131 C27.4498944,37.0318474 24.031162,43.7519413 21.4860211,50.7108611 C18.556162,58.7220939 16.1322887,66.9495382 13.8727817,75.1716986 C12.7165141,79.3786262 11.6194014,83.6045753 10.587993,87.8440509 C9.67911972,91.5790333 8.92573944,95.3512133 7.87362676,99.0477299 C10.0074296,98.9722779 12.4410211,99.7986575 14.2627817,100.037272 C22.5653873,101.124458 30.7562324,102.85753 38.5948944,105.85807 C39.5631338,106.228779 39.8432746,107.196129 39.6324296,107.980239 C40.1908099,107.822571 40.7487676,107.662791 41.3071479,107.505969 C40.6953889,106.568246 40.9873742,104.891742 41.0354701,103.852382 L41.0384155,103.78092 C41.0878521,102.395941 41.2380634,101.009483 41.3354577,99.6270411 C41.5209182,96.9917305 41.7623633,94.3756891 42.0833889,91.7554781 L42.1653169,91.1003249 C42.5291197,88.2496321 42.7980634,85.3822427 43.1950352,82.536411 L43.2419366,82.2107202 C43.0515845,81.4826184 42.8299648,80.7633933 42.5973592,80.0473386 C41.9775,78.1399022 41.1026408,76.3444814 40.3359507,74.4970685 C40.2455282,74.279589 40.5552465,74.154681 40.6999648,74.2850841 C41.9984155,75.4536399 43.0298239,76.9360509 43.8584155,78.4865166 C43.8727817,78.4133894 43.8854577,78.3400509 43.9004577,78.2669237 L43.9950084,77.8013617 C44.228167,76.6659778 44.5117702,75.4713998 45.207993,74.5505401 C45.2821479,74.4526849 45.4287676,74.432184 45.4989085,74.5505401 C46.1652465,75.6785166 46.2398239,77.1070333 46.3422887,78.3905636 C46.4582746,79.8425401 46.4728521,81.3129041 46.4523592,82.7688963 C46.4124296,85.6143053 46.2119366,88.4677456 46.0522183,91.3085049 C45.8955323,94.100119 45.5878214,96.856162 45.1912613,99.6203323 L45.1158803,100.13872 C44.9220246,101.454393 44.7633187,102.786405 44.5076257,104.09308 L44.4353873,104.448787 C44.2986972,105.096787 44.2146127,106.010454 43.9425,106.769413 C50.9434859,104.815902 57.9552465,102.906986 64.9803169,101.031675 C70.0577113,99.6760744 75.1403873,98.3407632 80.2209507,96.996998 C80.4890493,96.5136399 80.8228521,96.0621957 81.2394718,95.658728 C82.6120775,94.3289119 84.4310915,93.7356517 86.0994718,94.7592211 C86.2351056,94.8427045 86.2465141,95.0553229 86.0994718,95.1358474 C85.7798239,95.3106341 85.4595423,95.4898591 85.1449648,95.6766928 L88.195669,94.8501018 C90.4758803,94.2319022 92.7833451,93.4594168 95.1172183,93.0284736 C99.4158803,90.9063053 104.039261,89.3702114 108.56757,87.8520822 L109.101182,87.6715173 C111.419788,86.8807335 113.818038,85.9954604 116.213556,85.5570294 C117.967289,85.2361996 120.02588,85.6233933 120.731092,87.4207162 C121.623908,88.0093268 122.463908,88.7010763 123.274542,89.3814129 C123.860599,89.8730137 124.422359,90.395683 124.993627,90.9046145 L125.098943,90.9971057 C125.565963,91.4024711 125.935924,91.6739587 126.050599,92.319182 C126.109754,92.6524814 125.898063,93.1030802 125.487148,93.058908 C124.229894,92.9242779 123.20757,91.4663836 122.354894,90.5958317 C121.696162,89.9228924 121.032148,89.2271272 120.43088,88.4876125 C120.080387,88.6784618 119.599965,88.6442231 119.376866,88.2215225 C118.219965,86.0300313 115.050739,87.5485832 113.297218,88.0682935 L110.78526,88.8120843 C109.529362,89.1845105 108.273951,89.5587781 107.020669,89.939589 C103.576162,90.9859843 100.148556,92.1570763 96.6727817,93.1180861 C96.9837676,93.4600509 96.9408803,94.068317 96.3501761,94.2997456 C93.6294718,95.3676986 90.6446831,95.9199569 87.8181338,96.6527084 C86.0335563,97.1157769 84.2500352,97.581593 82.4671479,98.0501566 C82.1614437,98.5455616 81.9415141,99.1060626 81.8489789,99.758501 C81.5087432,102.157439 82.1649374,104.925292 82.804131,107.245514 L82.900416,107.591693 C83.425855,109.45712 84.1988899,111.743894 85.8077113,112.92182 C86.2004577,113.209045 86.7005282,113.408982 87.2046127,113.454211 C90.3539789,111.832521 93.5031338,110.211041 96.6541901,108.592521 C97.2379225,108.292614 97.7772887,108.698618 97.9082746,109.181342 C99.019331,108.998947 100.127852,108.711511 101.1375,108.368701 C102.833979,107.792348 104.158627,106.693115 105.749049,105.932888 C108.82639,104.462296 111.968957,106.26869 114.724226,107.642017 L115.359246,107.954245 C116.594813,108.553961 119.165325,109.70607 119.758204,108.065836 C120.331585,106.479018 118.518697,104.783143 117.347852,104.06899 C115.952218,103.21746 114.327148,102.761789 112.749824,102.382204 C111.84919,102.165358 110.93757,101.988458 110.020458,101.859323 C108.980176,101.712857 107.905669,101.734838 106.904049,101.397311 C106.406303,101.229922 106.329824,100.439049 106.904049,100.308434 C108.445899,99.9574046 110.286155,100.340303 111.895134,100.731586 L112.736092,100.938892 C114.357148,101.336865 115.993838,101.836286 117.470387,102.630117 C118.544049,103.207526 119.677289,104.08463 120.41757,105.15829 C121.060441,104.560884 121.860561,104.581081 122.694027,104.802649 L123.146412,104.928454 C123.893427,105.13555 124.498929,105.278095 125.22581,105.134618 C125.322993,104.605609 125.421444,104.076387 125.526866,103.547166 C126.562711,98.3449902 127.698697,93.162681 128.952148,88.0080587 C131.114233,79.1170291 133.61604,70.3235813 136.436505,61.6202449 L136.719613,60.7502114 C137.370106,58.7595029 137.893627,56.5906262 138.942359,54.7618121 C139.934261,53.032544 141.523415,52.0364501 143.411514,51.5089198 C145.55419,50.9103757 147.805669,50.5971546 149.991444,50.1928415 C150.479049,50.1028063 150.967923,50.0172094 151.455951,49.9286536 C151.043521,49.1837143 150.735679,48.3381057 150.458386,47.6891645 L150.409754,47.5767476 C149.814042,46.2180399 149.27891,44.8348516 148.762156,43.4442848 L148.375605,42.3988884 C147.44258,39.8815384 146.479406,37.4055298 145.16757,35.0510724 C143.786725,32.5732016 141.954824,30.547409 139.671232,28.8707671 C135.015317,25.4519648 129.403415,23.7081135 124.88757,20.054501 C124.7025,19.904865 124.939754,19.6489198 125.12757,19.7436047 C128.176796,21.276317 131.468556,22.3184853 134.640106,23.5662975 L135.265744,23.8132462 C137.77251,24.8073664 140.318313,25.8895899 142.488063,27.4991037 C144.907077,29.2938904 146.812289,31.5227906 148.244261,34.1733346 C149.655528,36.786047 150.558275,39.710501 151.553979,42.5011703 L151.820287,43.2447562 C152.221904,44.3597777 152.636725,45.4714681 153.112077,46.5565597 C153.489401,47.4180235 154.193556,48.4014364 154.513627,49.3854834 C155.389331,49.2335225 156.264824,49.0811389 157.141373,48.9346732 C176.127359,45.7635734 195.325458,43.9003092 214.566232,43.3552368 C215.318979,43.3338904 215.708345,44.0524814 215.59743,44.7093581 C213.750951,55.6321526 212.110035,66.5923562 210.309613,77.5233933 C209.523697,82.2942035 208.722148,87.0614207 207.901796,91.8263131 C207.486232,94.2403562 207.00581,96.6450998 206.612218,99.0627358 C206.294472,101.01519 206.063768,102.982861 205.518275,104.890086 C205.028979,106.600121 204.278134,108.249076 203.044965,109.553742 C201.715669,110.960067 199.860317,111.640826 197.992711,111.962501 C193.251655,112.778736 188.388697,113.112035 183.60919,113.65584 L158.162641,116.551973 C158.534501,119.933286 158.562292,123.261993 158.391674,126.682671 L158.294436,128.550025 C158.214943,130.052012 158.119912,131.556258 157.904261,133.042791 C157.633838,134.907534 156.781162,136.486532 155.525176,137.879331 C154.371866,139.158423 152.970739,140.249836 151.607852,141.295597 C150.193204,142.381515 148.731444,143.429601 147.068134,144.101061 L146.852245,144.18678 C145.393048,144.756719 142.655744,145.639282 140.661232,145.316748 C140.921937,146.623526 141.426444,148.028583 140.97919,149.321624 C140.771725,149.92207 139.986866,150.221554 139.506021,149.71072 C138.553415,148.698141 138.479049,147.360716 138.253415,146.039777 C138.018697,144.665155 137.816303,143.285671 137.636514,141.902806 C137.288768,139.229014 137.018134,136.530705 136.935528,133.834297 C136.850599,131.065186 136.883345,128.29227 137.0325,125.526117 C137.10919,124.105632 137.204261,122.685992 137.384472,121.274595 C137.461373,120.672669 137.539965,120.070321 137.629754,119.469875 C137.6625,119.250916 137.698838,119.033014 137.737923,118.815534 L135.453947,119.073317 C131.951826,119.464441 128.448041,119.817637 124.921162,119.872497 C124.503486,119.878838 124.182148,119.688622 123.972148,119.411542 C123.748415,119.776121 123.358838,120.036928 122.80088,120.034814 C117.875599,120.016427 113.288979,118.405303 108.809261,116.506532 C106.551232,115.549115 104.328275,114.512654 102.066866,113.563479 C99.9560915,112.677499 97.6995423,112.04535 95.6396831,111.047354 L90.227007,113.887479 C90.1872887,114.027182 90.1363732,114.159276 90.0822887,114.269812 C89.7298944,114.98946 89.0350352,115.379824 88.3253873,115.673812 C87.6442606,115.956599 86.938838,116.044521 86.2515845,115.973084 C82.1466021,118.125053 78.040669,120.275 73.9320026,122.419896 L69.8223592,124.562994 C61.6344718,128.827832 53.4789085,133.162626 45.2394718,137.327284 L44.6328829,137.632758 C41.7869498,139.060356 38.730993,140.507458 35.5727113,141.58726 C35.5165141,142.38701 35.552007,143.164779 35.6189789,144.011237 L35.6351008,144.195631 C35.7292657,145.195917 35.9311703,146.449287 35.1290493,147.161413 C34.7117958,147.531699 33.9664437,147.533178 33.6827113,146.974791 C33.1678521,145.962211 33.6301056,144.365883 33.7932042,143.265804 C33.8510915,142.874595 33.9216549,142.472395 34.0260211,142.082243 C30.4053169,143.160552 26.6749648,143.683432 22.9904577,143.077914 C19.4031338,142.488881 16.6247535,140.228067 14.3848944,137.462759 C12.0210211,134.544646 10.3412324,131.143808 9.43996479,127.498227 C8.41426056,123.349843 8.34728873,119.065773 8.37137324,114.816575 C8.39693662,110.291777 8.56426056,105.744575 9.11440141,101.250211 C8.51165493,101.108395 7.84320423,100.985812 7.23411972,101.028082 C6.93242958,101.511018 6.34721831,101.714337 5.81841549,101.651566 C4.66848592,102.920301 7.58524648,104.216935 8.51735915,104.541569 C8.84102113,104.654431 8.80637324,105.18027 8.43306338,105.164419 L8.19791771,105.153237 C6.75763006,105.076583 5.26961875,104.830576 4.42278169,103.491581 C3.74419014,102.418344 3.94806338,101.146861 4.75700704,100.271659 C5.29130282,95.2178513 6.56862676,90.2965597 7.75742958,85.3666027 C8.9240493,80.5277378 10.2214437,75.7199413 11.5965845,70.9364501 L12.2130686,68.7954533 C14.3782021,61.2949338 16.6413059,53.7338962 19.6279225,46.531409 C21.1192606,42.9350724 22.8372887,39.4048885 25.1660915,36.2690841 C27.3368662,33.3458982 29.8997535,30.8445675 32.845669,28.7082387 C38.3375735,24.7251902 44.7817552,22.3185381 51.1134368,20.0256371 L51.3968662,19.9230411 C54.6780634,18.7356751 57.9512324,17.5341487 61.1950352,16.2476595 C64.063838,15.1099609 66.8122183,13.6674951 69.6675,12.5126771 C69.5747535,12.3442309 69.4851761,12.1738826 69.3989789,12.0016321 L69.3461933,12.046047 C69.3371714,12.053225 69.3279225,12.0601761 69.3182746,12.066728 C69.031162,12.26582 68.6084155,12.1679648 68.3717958,11.9445675 C67.7036771,11.3138939 67.9298696,10.6138019 68.3758348,9.95974284 L68.4339085,9.87650489 C68.9794014,9.11205088 69.4659507,8.30384736 69.9694014,7.51170646 L70.2846663,7.01633036 C71.1297274,5.69293542 72.0177817,4.36070841 73.1445423,3.26694716 C73.6663732,2.76012916 74.2376408,2.38096673 74.8429225,2.09839139 C74.791162,1.98891194 75.2449648,1.76509198 75.3736268,1.87774168 C77.2913028,1.17563601 79.4975704,1.32273581 81.5882746,1.51633268 M156.931373,116.691886 L154.265176,116.995174 C151.331937,117.329065 148.397556,117.651924 145.462811,117.971648 L139.088345,118.66463 C139.072077,119.028153 139.027923,119.383644 139.019894,119.658188 C138.978275,121.073601 138.947218,122.489648 138.917852,123.905483 C138.858908,126.743495 138.923556,129.584254 139.110317,132.416771 C139.291347,135.161419 139.529753,137.906438 139.900216,140.632498 L139.976092,141.177452 L140.020035,141.464043 C140.322359,141.493209 140.619401,141.636928 140.866373,141.932184 C141.405528,142.576168 143.357852,141.950149 144.120317,141.678775 C145.37419,141.232403 146.554965,140.478305 147.644472,139.722094 C148.708465,138.983711 149.666535,138.1227 150.587199,137.215712 L151.340483,136.47041 C152.089807,135.7255 152.839943,134.931934 153.299049,133.994924 C153.921655,132.724286 154.002148,131.164521 154.184683,129.780599 C154.409472,128.078384 154.677148,126.37638 154.960035,124.682618 M79.5324296,98.82391 L79.2558803,98.8966145 C69.2098944,101.567025 59.1789085,104.31627 49.1020775,106.868748 C44.1153169,108.1322 39.1048944,109.303714 34.112007,110.542861 L33.3036456,110.745113 C29.3647909,111.741014 25.3786511,112.939619 22.3623592,115.797663 C22.2510211,115.902916 22.0894014,115.741233 22.1941901,115.629429 C25.4449648,112.167511 30.0683451,110.702008 34.5075,109.431581 C35.3280634,109.196771 36.1496831,108.967456 36.9704577,108.733914 C30.9332746,106.580888 24.8008099,104.707691 18.5267958,103.371746 C16.9112324,103.027667 15.2768662,102.775104 13.6625704,102.429757 C12.5367465,102.188755 11.4372761,101.840413 10.3233454,101.551442 L9.44714789,101.330947 L9.43551136,104.101247 C9.42092915,108.024979 9.42789235,111.945512 9.62799296,115.868677 L9.66587168,116.595419 C9.89933547,120.961348 10.2637528,125.417928 11.8125,129.534587 C13.0710211,132.87984 15.077007,136.031284 17.7003169,138.467941 C19.0277113,139.700748 20.4548239,140.660489 22.2189085,141.134337 C23.8568662,141.574157 25.572993,141.625726 27.2567958,141.508427 C35.3333451,140.944755 42.5227817,136.555644 49.5385563,132.921687 C61.0139789,126.977883 72.490669,121.037037 83.9777113,115.116059 C83.6671479,114.903652 83.3747535,114.658908 83.1087676,114.383941 C81.5684155,112.792474 80.7558803,110.613875 80.2222183,108.503965 C79.6541197,106.258157 79.3144014,103.851088 79.2748944,101.532575 M94.1485775,117.410499 C94.2499859,117.35597 94.3674507,117.424236 94.3720986,117.538788 C94.4075915,118.41646 93.9227462,119.282114 93.5604844,120.072782 L93.522169,120.157207 C93.0820986,121.136604 92.6001972,122.102898 92.1018169,123.053974 C91.1056901,124.954225 90.0704789,126.834186 88.9900563,128.687516 C86.8173803,132.415947 84.4030141,135.987344 81.5492113,139.233685 C80.9046338,139.96707 79.844493,139.026773 80.2581549,138.237168 C82.2525211,134.430749 84.5775211,130.836737 86.9707606,127.274005 C88.1688592,125.490209 89.3661127,123.704722 90.5760423,121.928957 C91.0807958,121.187998 91.5920047,120.449681 92.1170047,119.722567 L92.4337183,119.287712 M213.293979,45.5353151 C203.212923,45.8398708 193.143697,46.497593 183.110599,47.5283483 C173.779754,48.4868219 164.483134,49.7627436 155.238908,51.3533659 C153.308099,51.6855382 151.379636,52.0313601 149.453643,52.3908317 L148.298345,52.6081526 C146.372007,52.9733659 144.018697,53.1240587 142.303627,54.153546 C140.495387,55.2388297 140.006725,57.5070411 139.405035,59.3774912 C138.697711,61.577225 138.008345,63.7832994 137.33757,65.9946575 C134.673908,74.7747828 132.240739,83.6309941 130.070176,92.5457495 C128.992711,96.9707906 128.036725,101.42056 127.029401,105.861663 C126.134472,109.807573 125.147007,113.708888 124.115387,117.615276 C124.24257,117.516364 124.398486,117.441123 124.586725,117.400967 C129.709503,116.310696 134.938751,115.836691 140.138097,115.234374 L140.641162,115.175659 C146.019824,114.542877 151.398486,113.914744 156.780317,113.309436 L192.4125,109.300755 C194.513979,109.064466 196.765246,109.032341 198.810317,108.468247 C202.287308,107.508687 203.102293,103.619897 203.685665,100.522928 L203.703275,100.429327 C205.462077,91.0722153 206.862148,81.6337339 208.50243,72.2529511 M124.944613,106.737922 C123.561232,106.646618 121.667852,105.379151 120.618275,105.470031 C121.169261,106.3949 121.417923,107.44975 121.100387,108.576247 C120.216655,111.710994 116.220106,110.089092 114.295035,109.131464 C112.716655,108.345875 111.19257,107.384654 109.445176,107.016693 C107.465599,106.600333 106.124472,107.387824 104.452077,108.295573 C103.078415,109.041006 101.58243,109.576356 100.043979,109.853436 C99.2259507,110.000959 98.4489085,110.016599 97.6733451,109.959112 C97.6266549,109.997155 97.5740493,110.03245 97.5140493,110.063941 L97.1037676,110.279307 C98.9589085,110.36427 100.848486,110.937029 102.574965,111.461389 C104.363979,112.004475 106.120272,112.659289 107.867208,113.328874 L109.5858,113.989682 C113.824974,115.613663 118.213099,117.155787 122.80088,117.142274 C123.130669,117.141429 123.40088,117.232732 123.613627,117.381734 M117.204676,96.9156282 C118.571366,96.7484501 119.832845,96.9276751 120.924887,97.8176712 C122.24193,98.890908 123.126718,100.6709 125.020099,100.787777 C125.572141,100.821804 125.70038,101.598305 125.151718,101.760622 C123.742352,102.178039 122.601296,101.415276 121.641085,100.424888 L120.99549,99.7501075 C120.046589,98.7671728 119.171432,98.0072802 117.561296,98.0660078 C115.83693,98.1289902 114.109606,98.5275969 112.396437,98.7302818 C110.455732,98.9598082 108.515451,99.1555186 106.56862,99.3243875 C106.478197,99.3322074 106.462775,99.1897573 106.547493,99.1688337 L108.728029,98.625947 M115.885437,91.326216 L116.110839,91.3036481 C118.095435,91.1108676 119.910419,91.1033875 121.682831,92.1714059 L122.022777,92.377061 C123.620788,93.3487134 125.360127,94.4934411 126.359451,96.0665918 C126.522972,96.3242278 126.252761,96.6270928 125.979169,96.5615742 C124.058535,96.1004078 122.654451,94.6907014 121.03931,93.6356407 C119.226634,92.4516564 117.354169,92.646944 115.287338,92.8308188 C113.286211,93.0089871 111.286141,93.2537307 109.304662,93.5874528 C107.442761,93.900674 105.574944,94.3952337 103.694239,94.552901 L103.694662,94.5490967 C103.479803,94.548674 103.357268,94.2259421 103.576352,94.1164626 C105.484944,93.1630614 107.695437,92.7118286 109.771563,92.2762356 M176.173775,71.7034403 C175.981944,70.785546 177.110535,70.3598865 177.633634,71.0879883 L177.744882,71.2415442 C178.874994,72.7903964 180.509381,74.733924 180.426169,76.7037769 C181.419549,76.725546 182.449479,77.3293738 182.836521,78.2261331 C183.015465,78.6410137 183.076099,79.1326145 183.036592,79.641546 C183.939549,79.7117143 184.924268,80.3047632 185.47631,80.8821722 C186.39131,81.8393777 186.463563,83.1920196 185.807155,84.3104853 C184.375954,86.7485527 181.249373,87.6354745 178.609942,87.8334669 L178.515887,87.8402466 C175.78969,88.028771 171.86138,87.9778356 169.992085,85.6379765 C168.188915,83.3809667 170.181803,81.5536321 172.225394,80.5613425 C171.693423,80.0754481 171.41793,79.3786262 171.676944,78.6437613 C172.131803,77.3521996 173.737648,76.8532016 174.645042,75.9553855 C175.751198,74.8606287 176.482177,73.3589485 176.190692,71.7891322 M177.672085,73.6882309 C177.371451,74.9952211 176.632859,76.1906184 175.604197,77.1378904 C175.210817,77.5001448 174.780465,77.8226654 174.323282,78.0997456 L174.268322,78.131657 C173.862582,78.3595189 172.865265,78.7864227 172.942014,79.2976791 C173.021028,79.8230959 174.645887,80.6454599 175.088704,80.6458826 C175.189479,80.6458826 175.246521,80.8033386 175.143634,80.8489902 C174.341028,81.203636 173.640042,81.3555969 172.855183,80.9808728 C172.330817,81.5164344 171.821451,82.0705949 171.316944,82.6198943 C170.424761,83.5918943 170.730042,84.6182114 171.784268,85.3418748 C173.478211,86.5047241 176.053141,86.4764031 178.029549,86.391863 C180.018845,86.3069002 182.145254,85.8630646 183.699127,84.5374755 L183.766806,84.4784995 C184.611311,83.7271294 185.382666,82.4539212 184.089338,81.7303209 C183.58293,81.4469002 183.035746,81.4635969 182.554901,81.3257965 C182.104901,82.208184 181.374972,82.9149393 180.484268,83.0512603 C179.764426,83.161409 179.268684,82.2562774 179.923497,81.8233561 L180.070604,81.7319279 C180.89285,81.2069261 181.594479,80.3982903 181.575887,79.3452329 C181.563195,78.614217 180.542736,77.6909166 179.877933,78.3777901 L179.847507,78.4106419 C179.291217,79.0379359 178.311381,78.2474537 178.677267,77.5523804 L178.694831,77.5208571 M47.9285699,37.3403342 C47.9260986,37.183301 48.1468732,37.1245456 48.2239859,37.2604438 C49.5152535,39.5330935 50.1902535,42.3189018 50.8781408,44.8227687 C51.5985634,47.4456258 52.1801831,50.0951131 52.7026479,52.7640446 C53.7608873,58.168483 54.3247606,63.5418528 54.3630486,69.0500642 C54.3682817,69.8364986 53.0875775,70.0457354 52.9622958,69.2398568 C52.1305352,63.8819155 51.3336338,58.5184791 50.4955352,53.1620172 C50.0738451,50.467935 49.5830704,47.784209 49.1134225,45.0981581 M60.7120141,41.2988196 C60.6169437,40.9853871 61.0728592,40.8805573 61.1894789,41.1671483 C63.7808873,47.5306943 64.658493,54.742389 62.9947606,61.4559311 C62.7401831,62.4828822 61.2365915,62.0379898 61.4286338,61.0239311 M94.1382254,35.6443961 C94.1251268,35.4097973 94.4295634,35.372811 94.5442817,35.5342826 C95.772169,37.2650301 96.2815352,39.5829088 98.435831,40.4773432 C99.5113944,40.9239264 100.721746,40.8461495 101.672028,41.6004587 C102.30731,42.1049519 102.794493,42.9013198 102.317662,43.6653511 C102.163859,43.9122082 101.733296,44.0358481 101.524563,43.7676446 C101.219915,43.3768579 101.058718,42.9089284 100.644845,42.6159969 C100.061113,42.202807 99.2739296,42.1772337 98.6046338,41.9830027 C97.7388592,41.7319186 96.9757606,41.2925213 96.350831,40.6396603 M114.65193,6.77734873 C114.778479,6.71288689 114.899958,6.7541002 114.980873,6.86357965 C115.096437,7.01955616 115.082282,7.17130568 114.940732,7.27824892 C115.129817,7.66480861 115.353127,8.63321566 115.385028,8.7741863 C115.514324,9.3456775 115.651859,9.91378708 115.795732,10.481474 C116.086014,11.6263585 116.34038,12.7801198 116.630873,13.925427 C116.938901,15.1394231 117.305873,16.3405268 117.714254,17.5242998 C117.740592,17.6009495 117.769559,17.6791961 117.799966,17.7586012 L117.846507,17.8785229 L117.857915,17.8603468 C117.940944,17.7290982 118.113761,17.8208243 118.093268,17.9594701 C118.074254,18.0858575 118.04869,18.211611 118.027141,18.3379984 L118.069933,18.4512244 C118.337065,19.170484 118.520007,19.9279973 118.029887,20.5626716 C117.846507,20.800018 117.644746,20.9405659 117.393338,20.9824133 C116.990239,22.3118067 116.484465,23.616472 115.942986,24.8693566 L115.784283,25.235254 C114.98778,27.0634715 114.138298,28.8676682 112.870099,30.424065 C111.485451,32.1233213 109.580873,33.2836344 108.374746,35.1456305 C107.81362,36.011744 107.423197,36.9224524 107.106296,37.9005816 L106.987084,38.2718558 C106.76215,38.9636916 106.502634,39.6342624 105.853901,40.0400806 C105.646859,40.169427 105.336718,40.1282137 105.169817,39.9517362 C103.839465,38.5439319 105.232141,35.9151569 106.034324,34.5521589 C107.149394,32.6567695 108.763268,31.4442528 110.379254,30.0142568 C112.121155,28.4728791 113.232211,26.4109456 114.30693,24.3796579 C114.965239,23.1352274 115.600732,21.8639554 116.269817,20.6140297 C115.570788,19.9959607 115.347026,18.7682451 115.110199,17.9148858 L115.08862,17.8383663 C114.697141,16.4717753 114.386155,15.0696775 114.189676,13.6614505 C114.000579,12.3074162 113.92171,10.9728524 113.971738,9.61124135 L113.986176,9.26438979 M117.251007,13.2217996 C117.09657,13.0100266 117.352204,12.770144 117.564106,12.8143162 C118.852459,13.0808217 120.112058,13.8609732 121.268361,14.4918131 L121.391852,14.5588016 C122.31488,15.0567429 123.243613,15.6666998 123.728261,16.6340501 C124.25538,17.6854217 124.211954,18.8963778 124.140067,20.0389388 L124.133261,20.1458466 C124.045162,21.5160305 124.031007,22.9396861 123.741148,24.2851421 C123.592838,24.9737213 122.969387,25.1677409 122.436359,25.0050012 C121.802134,27.0083906 120.020514,28.4844611 118.719106,30.0653613 C117.05981,32.0807977 117.372063,34.8019327 117.545514,37.2292908 C117.615655,38.2120697 116.393683,38.4914748 115.764317,37.9671147 L114.31391,36.7619483 C114.072369,36.5607898 113.831148,36.3592321 113.590585,36.1568994 C113.384528,35.9834513 113.18035,35.8086881 112.977862,35.6317331 L112.675373,35.3645472 C112.541218,35.2445002 111.949458,34.5831851 111.77643,34.5557096 C111.357331,34.4890638 110.361638,35.5940062 110.020872,35.9405629 L109.977697,35.9838035 C109.336289,36.6129933 108.756782,37.2899483 108.216993,38.0079053 C108.117697,38.1397879 107.923542,38.0303084 107.994528,37.8779249 C108.478199,36.8414498 109.0406,35.8504852 109.708365,34.9229683 L109.843331,34.7383162 C110.287627,34.1393495 110.884035,33.0817526 111.668261,32.9048524 C112.625844,32.6890066 113.58201,33.6496639 114.278722,34.1828442 L114.322838,34.216281 C114.654317,34.4650403 114.981993,34.718238 115.309035,34.9731264 C115.27481,33.1658701 115.502979,31.3398035 116.435725,29.7823632 C117.093401,28.6839757 118.078754,27.8704885 118.921923,26.926598 C119.860585,25.875553 120.350725,24.58378 121.200444,23.4891969 C121.30988,23.3484376 121.460725,23.2725628 121.624035,23.2484689 C121.656686,22.3684831 121.78624,21.4797639 121.88635,20.6093055 L121.915373,20.3487429 C122.01657,19.4029503 122.255725,18.2477096 121.792838,17.3619405 C121.355592,16.5253104 120.352348,15.9347591 119.609433,15.3671108 L119.00283,14.8963934 M75.4380634,3.22108415 C75.0501761,3.44553816 74.6876408,3.7247319 74.3586972,4.07367123 C73.3232746,5.17248141 72.582993,6.53991781 71.8625704,7.85536204 C71.4746831,8.56380822 71.1007394,9.28007436 70.7096831,9.98682975 C70.5396127,10.2943444 70.3646831,10.5984775 70.1878521,10.9021879 C70.1060915,11.0421018 69.8631338,11.3202387 69.7427113,11.4916438 C69.8765181,11.6791997 70.0148632,11.8638765 70.1559839,12.0465559 C70.2098268,12.1162549 73.924069,16.1638994 75.2187676,17.7480352 C77.2013028,20.1745479 78.9734155,22.737593 80.4884155,25.4809198 C81.9719366,28.1673933 83.1013732,31.0117456 84.475669,33.7502114 C85.1635563,35.1212407 85.9317254,36.4825479 86.9109507,37.6690685 C86.9487676,37.7153542 86.9886972,37.7591037 87.0273592,37.8047554 C87.4010783,36.7947454 88.3587018,35.7133303 88.8290341,35.0923785 L88.872993,35.0337417 C89.9396831,33.5952916 91.066162,32.2001683 92.2171479,30.8287162 C93.2684155,29.5763953 94.3463915,28.3511272 95.4504824,27.1460838 L95.8657394,26.6951272 C96.6349648,25.8638865 97.6120775,24.62009 98.7381338,24.0261957 C98.6175,23.8110411 98.4778521,23.5982114 98.3172887,23.3881292 C97.2622183,22.00891 95.7707952,21.0079638 94.2991511,20.1047973 L93.3447802,19.524028 C89.7473341,17.3308915 86.2059301,15.036112 83.0827817,12.1865636 C81.4304577,10.6787906 79.8009507,9.09936986 78.4120775,7.34072407 L77.9208928,6.71890679 M81.4405986,2.13537769 C79.7559507,2.27677104 77.9367254,2.24316634 76.3798944,2.7922544 C77.7639085,4.10114677 79.0794718,5.51444618 80.4309507,6.84531898 C80.551162,5.94517808 80.7970775,5.0560274 81.0053873,4.17828963" id="ðŸ–-Ink" fill="#000000"></path>
                    </g>
                    <g id="head/Short-5" transform="translate(78.591549, 38.043053)" fill-rule="evenodd">
                        <path d="M51.1354565,15.9061419 C63.1313673,15.9061419 75.5390849,25.2080901 79.9363235,31.1439108 C83.6333118,36.1344656 85.6238351,58.7015195 85.6238351,73.9525261 C85.6238351,77.1421911 87.3833653,83.1549207 86.8698864,86.205958 C84.9882891,97.3862084 76.7905704,106.762705 60.5655366,106.762705 C44.3405027,106.762705 32.7073806,100.328897 20.6477187,83.0548573 C14.7963146,83.0548573 11.9604867,78.5658008 11.9187155,71.4815998 C11.8916516,66.7587992 13.7745471,63.5382528 17.5674018,61.8199609 C16.2150634,43.1817886 17.2418356,31.4364602 20.6477187,26.5839757 C25.7565432,19.305249 39.1395457,15.9061419 51.1354565,15.9061419 Z" id="ðŸŽ¨-Background" fill="#FFFFFF"></path>
                        <path d="M46.0872887,11.9531061 C53.6612324,11.1859045 61.0830634,11.8305229 68.5471479,13.1643546 C69.1175704,13.2677049 69.4408099,13.6420063 69.5610211,14.091971 C73.0767254,14.2525973 76.5964437,14.510656 80.1075,14.7029847 C81.3816549,14.7727303 82.1039789,16.0321667 81.522993,17.1694427 C81.407007,17.3953761 81.2863732,17.6151804 81.163838,17.8349847 L81.3177803,17.7842135 C82.3740077,17.4452371 83.5149566,17.278116 84.5441197,17.8161746 C85.8539789,18.5009495 86.3675704,20.0118928 86.0781338,21.4025777 C86.0039789,21.7576462 85.8795423,22.0979202 85.737993,22.4299515 C86.0253169,22.4109299 86.3147535,22.4172705 86.6020775,22.4553135 C88.1316549,22.6582098 89.2682746,23.8312039 89.3485563,25.3930826 C89.4668662,27.7515405 87.9478521,30.1442372 86.1584155,31.8327147 C86.4180634,32.3676423 86.5175704,32.9974661 86.4096127,33.635744 C86.1941197,34.8975053 85.2649648,35.6530826 84.1879225,36.1459515 C84.6370775,37.5727773 84.8494014,39.0644877 84.7241197,40.5889573 C84.6822887,41.0978888 84.2373592,41.5182646 83.7677113,41.6214035 C85.5182746,46.4431491 86.404331,51.6199632 87.0415141,56.6642607 C87.4957394,60.2532 87.7196831,63.863063 87.7469366,67.4790552 C87.76027,69.1116188 87.7333738,70.7460193 87.6649126,72.3788427 L87.6372887,72.9910708 C87.5527817,74.7560571 87.5485563,76.6093879 87.2316549,78.3553526 C88.3133451,80.1960023 88.7485563,82.4809104 88.9323592,84.5434779 C89.1605282,87.0965894 88.7992606,89.7300141 87.9941197,92.1586403 C84.9560915,101.335259 75.7872887,107.126257 66.5779225,108.631282 C58.0534859,110.024081 48.1894014,108.149404 43.2077113,100.403204 C43.1295423,100.280621 43.2964437,100.179384 43.3936268,100.259697 C46.9577113,103.159212 51.092007,104.452676 55.5837676,105.082499 C63.3499648,106.169051 72.079331,104.325865 78.3117254,99.4396579 C81.3032746,97.0936697 83.4603169,93.6782489 84.4091197,90.002656 C84.8929225,88.1239632 85.0598239,86.1645346 84.8694718,84.2308908 C84.6751056,82.2695601 83.807007,80.5956658 83.2598239,78.7421237 C83.0760211,78.1163155 83.2703873,77.5351022 83.6527817,77.1210669 C83.7603169,75.6160415 84.0140493,74.0985464 84.1110211,72.5981706 C84.2187676,70.8923624 84.2844718,69.1867656 84.3077113,67.4790552 C84.3520775,63.9368243 84.2041901,60.3882528 83.9063028,56.8610278 C83.3612324,50.4019515 81.9140493,44.0996971 81.0647535,37.6955718 C80.7502465,37.9777174 80.2995211,38.0935721 79.8270798,37.8470694 L79.7781338,37.8202685 L79.5203873,37.6725346 C79.5055986,37.6725346 79.4886972,37.6746481 79.4736972,37.6765503 C77.7098239,37.8479554 75.8802465,37.602789 74.1901056,37.0763155 C72.4215845,36.527016 70.7802465,35.6816149 69.313838,34.5551178 C69.0351761,35.9688399 68.9187676,37.3975679 68.9168662,38.8389769 C68.9147535,39.7393292 67.9619366,40.2066247 67.2055986,39.8219671 C63.8527817,38.1182724 60.6499648,36.1550395 57.6098239,33.9485425 C57.2546831,35.7682685 56.8999648,37.5877832 56.5427113,39.4096227 C56.4055986,40.111517 55.5117254,40.3947264 54.9391901,40.060793 C52.6619366,38.7354153 50.6950352,37.0004407 49.0936268,34.9374505 C48.7739085,35.5490982 48.4532512,36.1606521 48.130403,36.7708595 L47.644331,37.6850043 C47.1647535,38.5832431 46.5225,39.5768008 45.4725,39.8640258 C44.3612324,40.1683703 43.4335563,39.4478771 43.0598239,38.4416384 C42.9457394,38.1290513 42.8401056,37.8075875 42.7429225,37.4842215 C41.7962324,39.6465464 40.7274296,41.7600493 39.5189789,43.7763311 C37.7063028,46.8005425 35.5300352,49.4952587 33.3605282,52.2597205 C32.7013732,53.0989926 31.5732042,52.2977636 31.4823592,51.4821628 C31.4295423,51.0023977 31.3851761,50.520519 31.3469366,50.0405425 C30.0827113,52.5928086 28.7635563,55.1211922 27.3263028,57.5762372 L27.5320775,58.3829613 L27.5320775,58.3829613 C28.1251056,60.7665699 28.6175704,63.1670865 29.1529225,65.5633761 C29.3257394,66.3364955 28.9150352,67.4418575 28.0120775,67.5735288 C26.9333451,67.7307734 25.9127113,68.2821863 24.8077817,67.9028125 C23.6029225,67.4889886 23.3648239,66.4472431 22.7960915,65.4598145 C22.6826408,65.2630474 22.5505986,65.0823429 22.4086268,64.9107264 L22.3725,64.9576462 L22.3725,64.9576462 C22.2837676,65.0741002 22.0725,64.94729 22.1253169,64.8141393 L22.1872183,64.6602763 L22.1872183,64.6602763 C21.6985563,64.1414114 21.1137676,63.7085659 20.5760915,63.2429613 C19.2983451,63.0275953 17.8610915,63.2634622 16.9807394,63.7827499 C14.9758099,64.9661002 14.0548944,67.4050826 14.0358803,69.6477205 C14.0126408,72.2726912 14.8258099,75.2231413 16.1990493,77.4676814 C16.8034859,78.4546873 17.6316549,79.3463742 18.7258099,79.7840806 C19.8119366,80.2192509 20.9886972,80.084198 22.0936268,80.4940063 C22.8246127,80.7668595 23.2746127,81.5784446 22.8330634,82.3137323 C22.8034859,82.3646677 22.7696831,82.4109534 22.7377817,82.4597753 L23.0664124,82.8961041 C23.2924531,83.1983507 23.5281338,83.5219515 23.7478521,83.8587029 C24.3098239,84.5056462 24.9013732,85.1291295 25.4739085,85.7652939 C26.5321479,86.9380767 27.5591197,88.1429847 28.6004577,89.3326755 C29.5830634,90.4551569 30.6225,91.5095836 31.6936268,92.5473135 C32.7055986,93.5303037 33.9689789,94.356472 34.8985563,95.4049808 C35.8025704,96.4279162 36.0478521,98.2136149 34.5603169,98.805607 C32.9146919,99.4621139 31.4578661,97.9234593 30.3500854,96.8976632 L30.3034859,96.8546325 C28.2727817,94.9852391 26.4389789,92.8489104 24.9827113,90.496793 C23.5401761,91.4791491 21.4536972,91.5729886 20.0172887,90.5908438 C19.2613732,90.0740924 18.6814437,89.205654 18.3996127,88.2609182 C18.133838,88.320519 17.8682746,88.3553918 17.6092606,88.3513761 C17.4759507,88.4287303 17.3422183,88.503971 17.207007,88.5741393 C16.135669,89.1318928 14.8196831,88.8827108 14.3295423,87.6968243 C13.8832165,86.620284 14.343139,85.3976604 14.7451623,84.3604172 L14.8281338,84.1461393 C15.0563028,83.5545699 15.3077113,82.9099515 15.6203873,82.3033761 C14.7499648,81.6481902 14.0060915,80.8342802 13.3767254,79.9087773 C11.2619366,76.7913605 10.2055986,72.2323233 10.6725,68.5127695 C10.9534859,66.2682294 12.0075,63.9433761 13.7335563,62.4298967 L13.6703873,62.2650434 L13.6703873,62.2650434 C13.1865845,61.0373096 12.7469366,59.804926 12.4619366,58.5074466 C12.1281338,56.9899515 11.9652465,55.4175053 11.8175704,53.8725346 C11.5048944,50.6092861 11.5894014,47.272065 12.0055986,44.0214975 C12.7872887,37.9029065 14.7689789,31.8963311 18.2865845,26.8049025 C17.2891901,25.610562 16.4992606,24.2050826 16.9110211,22.5884642 C17.0992606,21.8464133 17.5279225,21.1428282 18.1746127,20.7178027 C18.5314437,20.4834153 18.9563028,20.4474857 19.3133451,20.2530434 L19.420702,20.1939098 C19.5775319,20.1023576 19.4575725,20.1120604 19.3640493,19.6866247 C18.994331,17.9871569 19.300669,16.3451765 21.1703873,15.7808712 C22.9302465,15.250382 24.5950352,16.3768791 25.6365845,17.7189534 C28.3619366,15.7848869 31.9534859,14.7727303 35.1119366,13.9125346 C38.7034859,12.9379984 42.3877817,12.3295209 46.0872887,11.9531061 Z M16.6493451,68.9543436 C16.6364577,67.5699992 17.9484296,66.716144 19.2394859,66.9425002 C20.1063924,67.0934194 20.8295711,67.6109969 21.508653,68.1459648 L21.8397397,68.4080223 C22.6666643,69.0574741 23.6160352,69.7576297 24.108993,70.6770599 C24.8315282,72.0339288 23.3042746,73.859784 21.8782183,72.9087076 C20.8999789,72.2528877 20.2729458,71.2020775 19.631284,70.2259205 L19.564838,70.1252243 C19.2732887,69.6877292 19.0176549,69.2227585 18.6181479,68.871917 L18.5318485,68.7963136 C18.4005527,68.6843567 18.2595499,68.582175 18.0899789,68.5337566 C17.7628548,68.4396716 17.1569499,68.5714301 17.012697,68.961021 L16.999838,69.0008407 C16.9470211,69.1976078 16.6514577,69.1551264 16.6493451,68.9543436 Z" id="ðŸ–-Ink" fill="#000000"></path>
                    </g>
                    <g id="face/Driven" transform="translate(112.183099, 77.354207)" fill="#000000" fill-rule="evenodd">
                        <path d="M37.789841,48.8044324 C36.3559842,49.3683303 34.6619225,49.5015257 33.1819221,49.021074 C31.7667682,48.561558 30.4817514,47.5388973 29.7042095,46.2527605 C29.0116692,45.1072252 28.7224504,43.7478061 29.1317437,42.3925909 C29.1513241,42.3277234 29.2148444,42.28624 29.2761213,42.2700587 C29.6109711,42.5750308 29.81785,42.8779272 30.024548,43.1793441 C30.3730223,43.6875061 30.7222705,44.1904523 31.2016895,44.62491 C31.8992221,45.2569587 32.8390149,45.7702988 33.7717239,45.9395936 C34.6849483,46.1057208 35.6196054,45.9589078 36.4373139,45.5216207 C36.9345995,45.2558871 37.3366756,44.9005342 37.7348211,44.5436031 C38.1683684,44.1549348 38.5950468,43.7603501 39.1921487,43.5408786 C39.6706421,43.3649711 40.1732602,43.5134062 40.5593818,43.8076605 C40.9743842,44.1239242 41.2728113,44.6189803 41.2562668,45.1365403 C41.230644,45.9384126 40.8797721,46.6073085 40.3706676,47.1591719 C39.6823908,47.9052561 38.709212,48.4428278 37.789841,48.8044324 Z M36.0875289,28.8212381 C37.6828906,29.7913456 40.1137318,32.053447 38.3974899,34.4584617 C36.3773089,36.5790425 33.4687045,34.1476518 32.0353946,33.0480284 C30.7063626,32.1958141 29.2131206,34.3876454 30.4461973,35.3827493 C40.8033244,43.0537581 45.006466,29.0749077 36.8944406,27.6806296 C36.0012775,27.5269861 35.6695544,28.5211248 36.0875289,28.8212381 Z M19.3073239,15.3796016 C21.4816901,15.2756172 23.3978873,16.2524783 25.47,16.6963139 C27.3849296,17.1067562 29.2715493,16.8603217 31.1338732,16.3382865 C34.1562676,15.4909832 35.4057042,20.1195546 32.424507,21.0215977 C30.2535211,21.6784744 27.9676056,21.724126 25.7397887,21.3855429 C23.7608451,21.08458 22.1019718,20.1208227 20.2151408,19.5596877 C18.5958778,19.0783693 16.6910135,19.278405 14.9809817,19.505011 L14.3171831,19.5943491 C13.3305634,19.7272885 12.338662,19.8606505 11.3617606,20.0536133 C10.5141549,20.2212141 9.66802817,20.5278834 8.80288732,20.5633902 C8.70464789,20.5676172 8.62140845,20.4399616 8.68330986,20.3547875 C9.68828638,18.9745479 11.6252091,17.8854788 13.1659323,17.1591007 L13.2703521,17.1101378 C15.1721831,16.2231006 17.1897887,15.480627 19.3073239,15.3796016 Z M18.5107028,25.5572978 L18.5104303,25.5096835 C18.5133881,24.1619478 19.2980381,21.0847736 21.2374979,21.0847736 C22.4491129,21.0847736 23.1847181,23.1790024 23.3120629,25.3378515 L23.316486,25.4258734 C23.3727209,26.7680588 23.0045415,29.7018423 21.2374979,29.7018423 C19.4517543,29.7018423 18.5290635,26.9231839 18.5107028,25.5572978 L18.5107028,25.5572978 Z M47.0646375,25.5572978 L47.0649099,25.5096835 C47.0619522,24.1619478 46.2773022,21.0847736 44.3378423,21.0847736 C43.1565178,21.0847736 42.4276999,23.0755998 42.2739666,25.1760907 L42.2632773,25.3378515 C42.1867783,26.6347218 42.5310899,29.7018423 44.3378423,29.7018423 C46.1235859,29.7018423 47.0462767,26.9231839 47.0646375,25.5572978 L47.0646375,25.5572978 Z M47.0349061,13.7381013 L47.1736268,13.7411507 C49.4401056,13.819773 51.7714437,15.1629041 52.3765141,17.4190685 C52.4077817,17.5361566 52.2634859,17.6149902 52.1779225,17.5346771 C50.3143054,15.7891948 47.8079587,17.4570512 45.9418217,18.3312784 L45.2563844,18.6480514 C42.8506313,19.7677376 40.1144405,21.0841252 37.4432746,20.249683 C36.1746127,19.8534012 35.368838,18.5493699 35.7307394,17.2322348 C36.0526923,16.0603006 37.4667238,15.075407 38.6914715,15.4984056 L38.747007,15.5186067 C39.7420775,15.8993894 40.965581,15.5135871 41.9932707,15.1332153 L42.8374775,14.8160754 C44.1949825,14.3007631 45.5587645,13.7242367 47.0349061,13.7381013 L47.0349061,13.7381013 Z" id="ðŸ–-Ink"></path>
                    </g>
                    <g id="facial-hair/*-None" transform="translate(104.577451, 109.479380)"></g>
                    <g id="accessories/*-None" transform="translate(88.521127, 88.978474)"></g>
                </g>
            </g>
        </g>
    </g>
</svg>