<?xml version="1.0" encoding="UTF-8"?>
<svg width="240px" height="324px" viewBox="0 0 240 324" version="1.1" xmlns="http://www.w3.org/2000/svg" xmlns:xlink="http://www.w3.org/1999/xlink">
    <!-- Generator: Sketch 62 (91390) - https://sketch.com -->
    <title>peep-105</title>
    <desc>Created with Sketch.</desc>
    <g id="Introduction" stroke="none" stroke-width="1" fill="none" fill-rule="evenodd">
        <g id="variations" transform="translate(-3486.000000, -2054.000000)">
            <g id="images" transform="translate(126.000000, 110.000000)">
                <g id="a-person/bust" transform="translate(3360.000000, 1944.000000)">
                    <g id="body/Blazer-Black-Tee" transform="translate(31.056338, 135.052838)">
                        <path d="M155.399092,48.0676297 C152.466486,34.1688117 142.066099,23.3836485 128.078493,18.0109127 C125.389799,16.4896036 122.78349,9.96187896 119.170044,8.76641554 C118.590808,8.57478261 119.505081,10.0998734 119.170044,10.1909519 C117.975017,10.515815 116.636022,10.5497381 115.316599,9.37656994 C112.958495,7.27985531 112.218694,1.15424032 110.784955,-1.61433476 C103.223476,-16.2156811 84.3440915,-10.502609 81.8147958,5.63884697 C80.0512119,6.78878168 77.5581564,7.8017844 75.6384508,8.72843306 C73.6616671,9.68263351 71.9228442,11.9938122 69.8856864,12.8201065 C68.0680245,13.5573708 65.0730395,13.0350803 63.2414766,13.6778109 C54.8173757,16.6339896 47.6824192,20.3641573 42.088669,27.9219311 C40.910007,29.515935 39.5813451,31.475575 38.5087394,33.0858528 C32.9790211,39.4540485 29.1381761,46.5917706 25.6007113,54.2496258 C15.703669,76.7269409 13.0116972,101.614283 10.5964859,125.832068 C10.6514155,130.06943 7.84071127,141.819238 11.9978239,143.850737 C11.7493732,144.108373 11.8393732,144.62597 12.3003592,144.621532 C22.8411338,144.515011 33.3574014,145.45869 43.7346549,147.293422 C48.7414859,148.178769 53.7214859,149.392765 58.8214859,149.592279 C69.4083169,149.519152 79.9571197,147.744444 90.530007,149.423833 C103.240337,149.423833 118.687285,149.053328 132.827369,148.509541 C146.042668,148.001319 159.328783,149.149143 172.380359,146.900945 C173.413458,146.73736 173.917965,145.476867 173.701415,144.573555 C172.170148,138.991794 171.418458,133.24687 170.559232,127.533861 C170.730359,123.869469 170.424232,120.044029 169.069162,116.630933 C165.528739,93.5899468 160.98881,70.6992305 155.399092,48.0676297 Z" id="ðŸŽ¨-Background" fill="#FFFFFF"></path>
                        <path d="M151.134169,78.3534505 C150.855296,79.7082059 150.464451,81.0629613 149.944732,82.3460689 C149.444028,83.5843703 148.689803,84.6939593 148.170296,85.9176775 C148.100577,86.0825307 147.986493,86.2072274 147.848958,86.302335 L147.891819,86.6352117 L147.891819,86.6352117 L147.931352,86.9680885 C148.190487,89.2144401 148.481907,91.4545807 148.734301,93.7006219 L148.856915,94.8241902 C149.353183,99.5138419 150.136986,104.180456 150.745437,108.857638 C151.341211,113.437599 151.947761,118.01756 152.596141,122.59118 C153.265859,127.306405 153.948254,132.01529 154.744732,136.711494 C155.081,138.69484 155.431939,140.676572 155.797549,142.656689 L156.079944,144.172159 C158.986986,144.871728 159.781352,148.925427 156.821493,150.421787 C155.478042,151.098108 153.751986,150.935368 152.644732,149.872488 C151.494118,148.764777 151.446353,146.767153 151.179315,145.266799 L150.922063,143.872583 C148.997136,133.388851 147.326485,122.784355 146.545437,112.152589 C146.344732,109.40736 146.175718,106.659807 146.065859,103.909928 C145.961475,101.323529 146.011359,98.7373071 145.971417,96.1507747 L145.958113,95.4453487 C145.897056,92.6872274 145.947549,89.9333331 146.01938,87.1752117 C146.027831,86.8391648 146.04262,86.5031178 146.059521,86.1649573 C145.962549,86.0508282 145.89262,85.915564 145.863254,85.7845268 L145.825014,85.6112196 C145.729944,85.1652705 145.83769,84.6432352 146.180155,84.3240963 C146.327831,82.4451922 146.522197,80.5684016 146.575014,78.691611 C146.579239,78.5373252 146.80107,78.5417636 146.813958,78.691611 C146.938606,80.2894192 147.18769,81.8914544 147.436986,83.4913761 C149.040507,82.2021393 150.225718,80.0759554 150.925014,78.2963859 C150.975718,78.1674622 151.163958,78.2139593 151.134169,78.3534505 Z M113.19469,3.65790294 C113.460887,4.87528063 113.986944,5.96817299 114.692577,6.98476791 C115.028704,7.47087358 115.410887,7.92316321 115.869338,8.30148023 C116.262507,8.62463483 116.710394,8.83598513 117.128493,9.11729237 C117.736944,9.02197339 118.372859,9.25255656 118.79962,9.70040783 L118.732225,9.04543327 C118.710887,8.83408297 119.061803,8.79181292 119.101944,8.99661135 C120.950245,18.3217386 122.63595,27.652883 124.095094,37.0454778 L124.734683,41.1933915 L125.336493,45.0874098 C126.335717,51.5762214 127.302257,58.0624431 128.030113,64.5986466 C128.999831,73.3212845 129.815113,82.0669597 130.410887,90.8251045 C131.008775,99.6449636 131.376592,108.470741 131.638563,117.307508 C131.703845,119.53514 131.773775,121.760658 131.841169,123.988079 L132.292443,121.324923 C132.74282,118.661206 133.184461,115.995022 133.563,113.319328 C134.921451,103.743046 136.007577,94.0989205 136.537648,84.4404235 C137.023775,75.6017542 136.861099,66.5876642 134.613211,57.9770419 C134.046803,55.8107014 133.353845,53.6781769 132.517437,51.6006035 C131.705958,49.5803061 130.599127,47.7075311 129.72638,45.7168227 C128.712296,43.4004235 128.40807,41.2150614 128.930113,38.721128 C129.386451,36.548447 130.187155,34.5046896 130.330606,32.2686035 C130.599127,28.1176838 129.248915,24.0975898 127.34138,20.4646896 C126.838352,19.5072728 126.30807,18.562537 125.754549,17.6260438 C124.079408,14.7962748 122.190465,12.0696446 120.230113,9.45545284 C120.124479,9.31596164 120.348211,9.16167593 120.462507,9.27580509 C122.24962,11.0426935 124.203845,12.779993 125.811803,14.7096211 C126.593282,15.6480164 127.355958,16.6052219 128.078493,17.5882121 C136.005465,18.9133785 142.816732,23.8524235 147.472859,30.3749049 C152.756662,37.7763922 155.429197,46.684807 157.406873,55.4577464 C159.606169,65.2075468 161.461099,75.0459029 163.436451,84.8438912 C165.48131,94.9825761 167.515817,105.12105 169.573563,115.25741 C170.596099,120.289449 171.618845,125.321911 172.639056,130.356275 C173.156662,132.905159 173.699831,135.447703 174.26793,137.988134 C174.55969,139.290052 174.872366,140.589856 175.142789,141.896001 C175.446803,143.369112 175.163704,144.311523 174.166732,145.393848 C173.798915,145.795414 173.21793,145.789073 172.761592,145.575609 L172.618936,145.508414 L172.481059,145.441816 C171.916391,145.1642 171.47369,144.876521 171.122366,144.258686 C170.735535,143.580463 170.674268,142.828056 170.54138,142.073535 C170.296099,140.684752 170.053352,139.296392 169.808282,137.905707 C169.442102,135.82602 169.043955,133.752278 168.638708,131.67904 L166.605518,121.318038 C166.063352,118.555425 165.520394,115.793077 164.974268,113.031891 C163.024268,103.157605 161.072155,93.2854333 159.120254,83.4132611 C157.246099,73.933989 155.587648,64.3896211 153.454056,54.9653002 L153.332751,54.4343716 L153.209384,53.9041521 C151.301501,45.7797801 148.635799,37.9209029 143.798915,31.0364313 C140.07638,25.7421065 134.906873,21.0142004 128.81793,18.6215037 C129.247014,19.2388579 129.658986,19.8686818 130.051944,20.5111867 C132.519549,24.5437503 134.321451,29.3308344 133.898915,34.1327131 C133.692085,36.4787014 132.800535,38.7845331 132.884831,41.1495429 C132.963,43.2503648 134.262507,45.0954528 135.160394,46.9234215 C137.198915,51.0660986 138.673775,55.4685252 139.624479,59.9848697 C141.532225,69.0539108 141.525887,78.3852376 140.868634,87.591445 C140.154549,97.5990928 138.798423,107.604416 137.254056,117.51442 C136.461803,122.597394 135.407577,127.63831 134.600324,132.712831 C134.201239,135.215007 133.65807,137.711265 133.182718,140.200971 L132.956169,141.390459 C132.82933,142.050589 132.697731,142.708589 132.545723,143.359601 L132.451944,143.749332 L132.451944,143.819077 C132.447718,144.299054 132.316521,144.696392 132.105254,145.013418 C131.816028,145.941034 131.456873,146.845825 130.979408,147.714474 C130.734338,148.15831 130.379197,148.407492 129.992577,148.498584 C129.603845,149.388369 128.722859,150.072932 127.670958,150.068969 L113.834831,150.016079 C105.798211,149.984165 97.7615915,149.931328 89.7249718,149.886944 C87.6970141,149.876588 85.6709577,149.838545 83.6449014,149.785707 C81.7456056,149.73287 79.9244789,149.504611 78.0463099,149.267899 C75.9249718,149.001598 74.7758873,147.498897 75.0927887,145.379054 C75.162507,144.911758 75.2383521,144.446999 75.3103944,143.982028 C74.8878592,144.121519 74.3850423,144.056001 74.0449014,143.724181 L73.7260047,143.411959 C73.2839572,142.974489 72.8885936,142.544907 72.6082817,141.961308 C72.3188451,141.361285 72.0841268,140.727234 71.828493,140.114318 C71.2770845,138.795492 70.7406761,137.472439 70.2186338,136.143046 C69.1730704,133.484259 68.1272958,130.814905 67.1552535,128.128431 C65.2308169,122.808744 63.5277887,117.408744 62.0470141,111.947664 C59.406169,102.204416 57.4960986,92.2730654 56.2918732,82.2529479 L56.0039615,79.8647931 L55.9202464,79.1593603 C55.4635933,75.2756684 55.0792769,71.3316851 55.2608873,67.4563139 C55.3730704,65.0298012 55.7489155,62.5846896 56.6554648,60.3188031 C57.4918732,58.2287601 58.7827183,56.4407366 60.0101831,54.5724 L60.1506462,54.3567334 L60.2918604,54.135809 C61.3653401,52.4388327 62.2195003,50.6646937 62.2622958,48.6038677 C62.3056684,46.512528 61.6966344,44.4772108 61.0156753,42.5193301 L60.8459582,42.0364777 L60.7320493,41.7168916 C59.2833898,37.6704159 57.6347852,33.6811632 58.178493,29.2779969 C58.9815211,22.7937699 62.9108873,17.5670771 67.8547606,13.536627 C63.4580704,14.4073902 59.106169,16.1275703 55.2653239,18.3089166 C50.7291972,20.8873902 46.6453944,24.2901299 43.1235634,28.1303648 C36.4686338,35.3879225 31.7172254,44.0957659 27.828,53.0866074 C23.756662,62.4959225 20.7376479,72.3554137 18.462507,82.3438286 C16.1744789,92.389308 14.6427887,102.595414 13.5968028,112.841676 C13.0751831,117.941559 12.6651127,123.053911 12.3251831,128.168799 C12.1519437,130.789543 12.0209577,133.414514 11.8181408,136.03103 C11.6153239,138.645433 11.5242676,141.299782 10.8862394,143.84465 C10.5883521,145.030326 8.57919718,145.150795 8.36391549,143.84465 C7.88614002,140.927643 8.01966513,137.911086 8.1530081,134.957304 L8.16511268,134.688956 C8.29630986,131.74696 8.46743662,128.807077 8.67004225,125.867195 C9.08433803,119.858506 9.63764789,113.858271 10.3601831,107.877058 C12.8932817,86.8815194 17.5646197,65.9958834 26.7272958,46.8306387 C31.0413803,37.8038677 36.5787042,29.0328305 44.2815211,22.5147875 C47.9489155,19.4140673 52.0834225,16.9391554 56.5390563,15.1471162 C60.5237746,13.5429675 64.571662,12.78422 68.8054648,12.7863335 C70.9287042,11.1589362 73.2082817,9.74077573 75.4855352,8.5295272 C75.6228592,8.45576595 75.7665211,8.6333002 75.6526479,8.74742935 C75.593493,8.80449393 75.5362394,8.86346067 75.4772958,8.91862309 C75.7350423,8.93553112 76.0010282,9.05600078 76.2397606,9.30750763 C77.0765915,10.1844 77.7822254,11.2815194 78.4137042,12.4204861 C79.3749718,13.6211671 80.2918732,14.861582 81.2512394,16.0493706 C82.7869437,17.9515233 84.3587746,19.8262004 85.949831,21.686083 C88.6218102,24.8118203 91.3808224,27.8783749 94.2579441,30.8215922 L94.7385634,31.3109753 C96.2299014,32.8223413 97.7406761,34.6312885 99.5045493,35.8275311 L99.5987243,35.890197 C100.342918,36.3752256 100.870639,36.4633151 101.505254,35.7389753 C102.08221,35.0795624 102.562438,34.3144528 103.056054,33.5874825 L103.170254,33.4204626 C105.690676,29.757762 108.027296,25.9597973 110.142085,22.0498168 C111.106041,20.2704395 112.02303,18.465211 112.893051,16.6400067 L113.152648,16.0918521 C113.625887,15.0858247 114.139268,14.0988188 114.529901,13.062991 C114.620746,12.8201495 114.709479,12.5770967 114.796099,12.3361573 C113.465113,11.4632806 112.434338,9.573809 112.060394,8.09435695 C111.671662,6.55784031 111.868141,4.98095577 112.560887,3.57568767 C112.691873,3.3114998 113.13131,3.37680705 113.19469,3.65790294 Z M47.5352372,66.0971624 C47.3510493,71.9390959 47.2392887,77.7871585 46.9644296,83.6246536 L46.8695704,85.6174755 C47.2982324,86.0953386 47.5496408,86.6467515 47.3489366,87.4035969 C47.2709789,87.6931468 47.0404859,87.9552211 46.753162,88.0524423 L46.6635815,89.9053239 C46.2558614,98.2419842 45.777907,106.561335 44.9045704,114.877022 C43.8123169,125.28391 42.5489366,135.673679 41.2878803,146.061757 C41.1083028,147.532755 40.0855563,148.699198 38.4947113,148.483832 C36.8850634,148.26593 36.2322465,146.864677 36.4435141,145.404247 C37.2737958,139.674751 38.0721761,133.940607 38.7716831,128.19209 L39.5681432,121.64259 C40.566852,113.455494 41.5890478,105.26966 42.7667535,97.108591 C43.259007,93.6976086 43.7702746,90.2885284 44.2834437,86.8792368 L44.1040775,86.6467515 C43.3707676,85.693773 42.6123169,84.7617182 41.8623169,83.8233229 C40.4216831,82.0141644 38.9998521,80.219589 37.6794296,78.3258904 C37.6137254,78.2307828 37.7470352,78.0912916 37.8418944,78.163362 C39.6925986,79.5307984 41.4442183,80.9931311 43.2061901,82.479135 L44.7484437,83.7850685 C45.6357676,77.8947358 46.5146408,72.0022896 47.2982324,66.0971624 C47.3174577,65.9494286 47.5392887,65.9386497 47.5352372,66.0971624 Z M74.1568732,10.1909519 C73.0432817,11.2411515 71.9047606,12.2685252 70.7827183,13.3125957 L70.3717365,13.6968454 L69.9626554,14.0828637 C67.9907608,15.9535661 66.1015019,17.9008825 64.5272958,20.1370967 C61.6371549,24.2436329 59.9153239,29.25031 61.1172254,34.2637503 C62.1146197,38.4165722 64.4026479,42.1809323 65.0174366,46.4375272 C65.3256761,48.5700517 65.1758873,50.7131436 64.3728592,52.7271006 C63.5531408,54.7816368 62.2432817,56.5421847 61.0665211,58.3957268 C58.5101831,62.4240634 58.1615915,66.8455115 58.4153239,71.512126 C58.6815211,76.3858638 59.241169,81.2615037 59.9322254,86.0910693 C61.3306056,95.8765879 63.4390563,105.560658 66.2299014,115.043946 C67.6265915,119.792987 69.2763803,124.44058 70.9181408,129.107195 C71.7355352,131.429934 72.6885634,133.697723 73.6707465,135.954733 C74.1883521,137.142733 74.7188451,138.323969 75.2575775,139.503304 C75.0587746,137.838075 75.0587746,136.128251 74.9615915,134.473378 C74.8221549,132.102028 74.6446901,129.734905 74.4820141,127.365668 C74.1505352,122.557449 73.8547606,117.745003 73.5906761,112.932557 C72.6547606,95.7709127 71.9660282,78.5944744 72.0165211,61.405355 C72.0420845,52.8097386 72.2174366,44.2141221 72.5871549,35.6267483 C72.7604789,31.5829127 73.0961239,27.5429434 73.3994766,23.5047784 L73.4639155,22.6394841 C73.7322254,19.0148266 74.0533521,15.3817151 74.6045493,11.7887601 C74.4413568,11.420353 74.299698,11.0472702 74.1945591,10.6646131 L74.1568732,10.5206583 L74.184338,10.5248853 C74.1589859,10.4126583 74.1505352,10.300854 74.1568732,10.1909519 Z M83.786493,-4.57824892 C83.8095211,-4.67758356 83.9510704,-4.66912955 83.9764225,-4.57824892 C84.6038873,-2.46474599 84.3820563,-0.139892759 83.8414225,1.98629119 C83.5498732,3.13815029 83.1357887,4.25619335 82.6350845,5.33407984 L82.4598655,5.71129057 C82.0308574,6.62927093 81.5478054,7.57509746 80.712338,8.14715225 C80.3639577,8.38597808 79.740507,8.4007726 79.3919155,8.14715225 L79.2141377,8.01220117 C79.1848732,7.98934403 79.156,7.9660955 79.127831,7.94214247 C78.8026901,7.66950059 78.6419155,7.06715225 78.7919155,6.6698137 C79.1785352,5.64476477 80.055507,4.89235773 80.6616338,3.97932446 C81.1984648,3.16773933 81.6738169,2.31177065 82.0686761,1.42198591 C82.9200845,-0.503415264 83.3024789,-2.5471726 83.786493,-4.57824892 Z" id="ðŸ–-Ink" fill="#000000"></path>
                    </g>
                    <g id="head/Gray-Bun" transform="translate(78.591549, 38.043053)">
                        <path d="M90.6066972,41.1338395 C86.443669,15.9457456 54.6563451,11.4044618 33.9428239,16.7059726 C33.5610634,11.8609785 30.5099366,7.57986693 26.7024718,4.76383562 C10.528669,-6.8792407 -8.61935915,12.8883523 -4.78590845,29.9248767 C-4.09823239,35.0858395 0.0257112676,40.9751155 5.79564085,40.0918826 C-1.45696479,53.8226771 -4.29111972,81.5101996 11.6885282,90.0690411 C13.2301479,91.1665832 13.485993,93.3956947 14.6724718,94.8250568 C16.5985986,97.1302544 24.8276831,100.066544 29.2795141,97.7133699 C30.6783169,98.999225 32.2921901,100.250419 34.1790211,100.695311 C43.9264859,108.5009 58.1716268,110.262082 70.0410634,107.041315 C77.3538803,105.799843 84.9345845,102.49982 88.696838,95.7575342 C91.8846549,90.6261605 90.4157113,84.6138787 88.9539507,79.1828102 C88.3224718,76.1951624 87.9113451,73.1836321 87.6582465,70.1467397 C88.1766972,69.5412211 88.2056408,68.7004697 88.3349366,67.9347476 C88.8962746,65.2207984 90.1228944,62.702137 90.7364155,59.9960078 C92.1090211,53.8529002 91.8707113,47.2896282 90.6066972,41.1338395" id="ðŸŽ¨-Background" fill="#FFFFFF"></path>
                        <path d="M90.2732958,53.961809 C90.0328732,56.9989127 88.7460423,59.731672 87.6687887,62.5620751 C87.7864648,60.8873354 87.7311127,59.1445409 87.8483662,57.4055507 C86.5955493,46.5161495 71.792662,43.6553119 66.0461831,35.4213159 C66.2637887,34.9563452 66.342169,30.7988736 65.4852676,31.9680634 C62.1613944,46.5184744 42.4055493,53.8183022 28.8797746,53.8464117 C27.8568169,53.0031241 25.8280141,53.8939656 26.2112535,55.5750458 C28.2339296,64.445629 28.6767465,73.7249636 27.3778732,82.7384196 C26.765831,85.9211436 26.6625211,89.750811 24.7537183,92.4932924 C22.727662,94.4210184 25.1633662,94.5757268 26.5038592,94.1405566 C26.8775915,94.6661847 27.2720282,95.1765957 27.6679437,95.6851045 C25.7424507,97.0157659 22.9330141,96.289989 20.9401268,95.40422 C18.7232958,94.2303804 17.4561127,91.9556172 15.8498451,90.1322982 C14.9728732,88.3664665 13.6427324,87.3515624 11.9327324,86.3952023 C2.41956338,79.927038 2.66526761,65.7382474 4.03090141,55.4833198 C8.01033803,24.9672963 41.8672394,10.2431554 69.0385775,20.8444861 C83.7125915,24.5982787 90.587662,39.7757659 90.2732958,53.961809 M1.77223944,36.685402 C-4.03064789,30.904126 -2.8625493,20.797355 0.785197183,14.1326348 C8.0946338,0.207398043 28.8556901,0.659899022 31.3416761,17.5387562 C20.7544225,21.1670067 11.8207606,28.9470223 6.50188732,38.7707953 C4.77012676,38.5856524 3.09604225,37.8140125 1.77223944,36.685402 M90.6066761,41.1385526 C86.4436479,15.9504587 54.6565352,11.409175 33.9428028,16.7108971 C33.5612535,11.8656916 30.5101268,7.58458004 26.7024507,4.76833738 C10.5286479,-6.87452759 -8.61938028,12.8930654 -4.78592958,29.9295898 C-4.09825352,35.0905526 0.0256901408,40.9798286 5.79561972,40.0965957 C-1.45698592,53.8273902 -4.29092958,81.5149127 11.688507,90.0737542 C13.2301268,91.1715076 13.4859718,93.4006192 14.6724507,94.8295585 C16.5985775,97.1349675 24.827662,100.071468 29.279493,97.718083 C30.3379437,99.0172532 36.3457606,102.968236 35.9078028,99.0952415 C35.465831,98.0518051 34.1001972,97.7795859 33.1909014,97.2638912 C31.2797746,96.2084078 29.6194225,94.7209245 28.3148451,92.9736916 C32.4123803,81.4153667 32.1001268,68.5456133 29.8047042,56.6444783 C43.5223099,55.9542082 59.6635775,49.9391789 65.7140704,36.7308423 C69.8042113,46.3430536 82.4882958,47.5800869 85.6923803,58.327038 C85.8856901,63.9715703 84.6757606,69.5324078 85.5531549,75.1796877 C85.8106901,80.7111476 88.7335775,86.2058325 87.0436479,91.7009401 C82.322662,103.684079 65.327662,105.442514 54.0994225,104.941613 C51.4323803,104.721386 49.2189296,103.279555 47.0263944,101.910639 C45.7123099,101.286733 44.1480845,102.591821 44.9532254,103.984831 C48.0273803,108.276298 54.3504085,108.651445 59.2057606,108.496737 C71.8063944,107.749402 90.0168169,104.025198 90.6709014,88.459672 C90.255338,82.2893002 87.8350563,76.384173 87.6584366,70.1514528 C88.1766761,69.5459342 88.2056197,68.7051828 88.3349155,67.9394607 C88.8962535,65.2253002 90.1230845,62.7068501 90.7363944,60.0007209 C92.109,53.8576133 91.8709014,47.2945526 90.6066761,41.1385526" id="ðŸ–-Ink" fill="#000000"></path>
                    </g>
                    <g id="face/Loving-Grin-1" transform="translate(112.183099, 77.354207)" fill="#000000">
                        <path d="M20.3417318,46.2582387 C20.3639789,43.9295812 22.381162,43.5280157 24.2973592,43.8384892 C27.5413732,44.3634834 30.7974296,44.7329237 34.0853873,44.799499 L34.652007,44.8094325 L34.652007,44.8094325 C34.7432746,44.6762818 34.8958099,44.5752564 35.1028521,44.5530646 C36.9254577,44.3560861 38.7873592,44.388 40.6198944,44.3338943 C42.2185563,44.2869746 43.8613732,44.1269824 45.4598239,44.2525245 L45.5870567,44.2637242 C47.540686,44.4529485 49.6023007,45.4504399 49.3663732,47.7440313 C49.1494014,49.8678904 47.1199648,51.7480626 45.499331,52.9282427 C45.1716549,53.1647436 44.8365845,53.3864501 44.4917958,53.588501 C44.3836268,53.7265127 44.2258099,53.8226771 44.0434859,53.8423327 C42.4475704,54.7046419 40.6866549,55.2148415 38.863838,55.3847671 C34.999331,55.7444853 30.5067254,55.3551781 26.7949648,53.6798043 C25.5882042,53.1351546 24.4625704,52.4550294 23.4675,51.619773 C21.9330634,50.3311703 20.3246831,48.3772368 20.3417318,46.2582387 Z M35.5682746,50.8756086 C34.0190493,50.8289002 32.4723592,51.0457456 30.9968662,51.52382 C29.9969366,51.8465519 29.0855282,52.4672877 28.1274296,52.8986536 C31.3564437,54.1306145 35.1077113,54.3992407 38.4203873,54.174998 C39.8736972,54.0765088 41.2826408,53.7413072 42.5954577,53.1647436 C42.3909507,53.0170098 42.1839085,52.8667397 41.9671479,52.7359139 C41.3122183,52.3392094 40.6272887,52.001683 39.912993,51.7330568 C38.5215845,51.2108102 37.0534859,50.9225284 35.5682746,50.8756086 Z M36.0875289,30.5120405 C35.6695544,30.2119271 36.0012775,29.2177885 36.8944406,29.3714319 C45.006466,30.7657101 40.8033244,44.7445605 30.4461973,37.0735516 C29.2131206,36.0784478 30.7063626,33.8866164 32.0353946,34.7388307 L32.5072827,35.102787 C34.0415412,36.2792126 36.579327,38.0577868 38.3974899,36.149264 C40.1137318,33.7442494 37.6828906,31.482148 36.0875289,30.5120405 Z M41.5792606,19.9322982 C43.3036762,18.4604301 45.4665003,19.5451528 46.7360144,21.0359296 L46.9597986,21.3024534 C47.2137254,21.6065814 47.4949648,21.9608384 47.6639789,22.3395781 C49.0708099,21.1412219 50.9785563,20.2979342 52.8041197,20.8453315 C54.5745423,21.3781456 55.5841901,23.0689479 55.2801761,24.8842356 C54.9352211,26.948539 53.3738961,28.3360216 51.6963293,29.4089104 L51.2205823,29.7111353 C49.2046239,30.9967858 47.3182042,32.2919481 45.6590493,34.0591632 C45.3884155,34.3463883 44.8034155,34.3083452 44.6259507,33.9260125 L44.483081,33.6183129 L44.483081,33.6183129 L44.3386268,33.3107718 C43.1616549,30.8001417 41.9005986,28.3059969 40.8651761,25.7361886 C40.0982746,23.8317112 39.8491901,21.4075233 41.5792606,19.9322982 Z M21.9222808,21.2655619 L22.1849789,20.9616798 C23.4483592,19.4906818 25.5885,18.5057894 27.2767394,19.9324039 C29.0744155,21.4520125 28.7215986,23.9649675 27.9208944,25.9030497 C26.956669,28.240584 25.8304906,30.5265675 24.7484812,32.8194245 L24.5173732,33.3108775 C24.4201901,33.5158873 24.3251197,33.7208971 24.2302606,33.9259068 C24.0525845,34.3084509 23.4654718,34.3464939 23.1969507,34.0590575 C21.5893963,32.3471202 19.7705743,31.0804158 17.827944,29.8354498 L17.2415282,29.4621886 C15.5363873,28.3800751 13.9244155,26.9830497 13.5737113,24.8843413 C13.2737113,23.0730693 14.2772324,21.3716994 16.0497676,20.8452258 C17.8793451,20.3022669 19.7828662,21.1392141 21.1920211,22.3396838 C21.3599789,21.9513276 21.6491514,21.5855595 21.9222808,21.2655619 L21.9222808,21.2655619 Z M24.2339577,10.7123953 C24.8510704,11.5138356 24.1921268,12.8235734 23.2910704,13.0306967 C22.1751549,13.2874873 21.047831,13.1312994 19.9521972,13.4498043 C18.9482535,13.7416791 17.9865634,14.3264853 17.1260704,14.9093894 C16.1447324,15.5738748 15.2409296,16.3157143 14.4104366,17.1609041 C13.916493,17.6637065 13.2940986,18.8548767 12.5322676,18.8770685 C11.7748732,18.8992603 12.791493,16.5298121 12.8755775,16.3248023 C13.472831,14.8654286 14.3117746,13.5225088 15.3611408,12.3461331 C17.4317746,10.0248728 21.8170563,7.57553425 24.2339577,10.7123953 Z M47.3575428,10.0709336 L47.8744437,10.2145808 C49.1534577,10.5702834 50.5188803,11.0073558 51.6162042,11.774346 L51.7023725,11.8353909 L51.8351984,11.9325932 C53.2128266,12.9600197 55.161279,15.0100972 54.1856408,16.7985652 C54.1182465,16.9217824 53.9754296,16.9340407 53.8605,16.8837393 C52.5624718,16.3149957 51.6001479,15.1791992 50.2195141,14.7040838 L49.9648205,14.617312 C48.6277072,14.1667473 46.9734898,13.693016 45.5342324,13.7360994 C44.5223142,14.0651483 43.1555955,13.7926016 42.8921681,12.5602901 L42.8802887,12.4999115 L42.8574718,12.372256 C42.7057817,11.5302364 42.9314155,10.4567883 43.8016268,10.0509957 C44.9939683,9.49509159 46.1571945,9.74243748 47.3575428,10.0709336 Z" id="ðŸ–-Ink"></path>
                    </g>
                </g>
            </g>
        </g>
    </g>
</svg>