<?xml version="1.0" encoding="UTF-8"?>
<svg width="240px" height="324px" viewBox="0 0 240 324" version="1.1" xmlns="http://www.w3.org/2000/svg" xmlns:xlink="http://www.w3.org/1999/xlink">
    <!-- Generator: Sketch 62 (91390) - https://sketch.com -->
    <title>peep-15</title>
    <desc>Created with Sketch.</desc>
    <g id="Introduction" stroke="none" stroke-width="1" fill="none" fill-rule="evenodd">
        <g id="variations" transform="translate(-606.000000, -110.000000)">
            <g id="images" transform="translate(126.000000, 110.000000)">
                <g id="a-person/bust" transform="translate(480.000000, 0.000000)">
                    <g id="body/Gym-Shirt" transform="translate(31.056338, 135.052838)">
                        <path d="M11.9520451,138.193359 C11.6645099,138.202658 11.7551437,138.118752 11.8607775,138.098463 C11.8912,138.129954 11.9216226,138.161868 11.9520451,138.193359 Z M20.4418338,144.507026 C28.4757071,145.459793 36.5195099,144.588185 44.5138761,143.714251 C60.7096507,142.513148 76.7915521,146.012263 93.0192282,144.945155 C113.299228,144.090243 133.634369,142.484827 153.846975,145.190322 C159.437749,145.318823 168.354932,146.828075 166.327397,138.170322 C163.664158,115.91112 160.103454,93.7641456 156.289228,71.6763491 C153.056623,59.2935467 152.822961,37.875308 143.97127,29.264263 C142.677045,28.0821808 138.035285,24.2584313 136.808031,23.7450614 C130.706834,21.4726231 119.70782,19.6993941 115.170003,14.8822982 C111.494369,8.66056827 113.204158,0.17041563 107.488735,-4.83858633 C102.47958,-8.92990531 91.5464817,-8.06505991 86.1910592,-4.99287204 C81.9657071,-2.25208143 81.3038057,3.07140976 78.6709888,7.00823168 C78.0215521,7.95148804 76.4788956,10.2253646 75.6078392,10.9589615 C73.4874205,13.0011906 66.0399956,15.1467473 63.8892914,15.5409156 C51.7526012,18.0289313 45.7009888,19.5662434 36.1552845,27.6343295 C11.2134535,53.1073237 14.7490169,98.1608657 7.84753806,131.47094 C7.56507327,135.132795 5.33979158,140.102063 9.30993242,142.459676 C12.7292986,144.098275 16.7497212,143.919895 20.4418338,144.507026 Z" id="ðŸŽ¨-Background" fill="#FFFFFF"></path>
                        <path d="M112.387606,6.41403757 C112.417394,6.32738395 112.55662,6.31258943 112.577746,6.41403757 C112.918099,7.97147789 113.555915,9.67939961 114.202394,11.1398301 C114.859437,12.6192822 115.757324,13.9782646 116.891831,15.1322372 C119.268592,17.5500845 122.325634,18.6533331 125.678451,18.6554466 L125.758732,18.6575601 C125.774225,18.5448399 125.791596,18.4321198 125.807715,18.3193996 L125.830563,18.1503194 C126.136901,15.8339202 128.885493,15.9015523 129.422113,17.6494192 C129.694648,17.7360728 129.967183,17.8227264 130.237606,17.913607 L130.291656,17.9330564 C130.746881,18.1063979 132.288924,18.8746213 132.572113,18.6702411 C133.195352,18.2219671 133.907324,18.7357597 134.143944,19.308519 C134.530651,20.2462978 134.595271,21.4053561 134.720849,22.4227745 L134.737606,22.5546481 L134.75662,22.7131609 C143.577042,25.0065229 148.527042,33.8346247 151.053803,41.967384 C152.422817,46.3761511 153.318592,50.9244094 154.218592,55.4473057 C155.181972,60.2851139 156.069507,65.1356031 157.009437,69.9755249 C158.862254,79.5135523 160.615775,89.0731374 162.139014,98.6684407 L162.580684,101.454959 C163.976156,110.278209 165.335392,119.096352 166.478451,127.959478 C167.095352,132.738108 167.674225,137.520965 168.231972,142.308049 C168.331972,143.161764 168.431033,144.015666 168.529218,144.870194 L168.675845,146.152511 C168.80662,147.302257 169.028451,148.439321 168.460141,149.515094 C167.228451,151.84819 163.497465,151.831282 163.286197,148.843 C163.244155,148.249106 163.444648,147.794703 163.776338,147.477677 L163.771745,147.427501 C163.768474,147.397599 163.765141,147.375525 163.763873,147.365662 C163.653803,146.771768 163.624225,146.144057 163.55662,145.543611 C163.408732,144.26304 163.26507,142.982257 163.119296,141.69936 C162.83831,139.25594 162.555211,136.812942 162.261549,134.371846 C161.668099,129.419908 161.040423,124.474312 160.375141,119.532942 L159.71561,114.647152 C157.509966,98.3611269 155.211165,82.0785955 152.186197,65.9218262 C151.362254,61.5236266 150.515282,57.1317675 149.646761,52.7420219 C148.822817,48.5847616 147.897465,44.4465229 146.515775,40.4329808 C144.259437,33.8768947 140.31507,27.7371687 134.839014,23.4340767 C134.923521,24.2562294 134.984789,25.082609 135.062958,25.9047616 C135.263662,28.0161511 135.477042,30.125427 135.692535,32.2347029 C136.476338,39.8771295 137.539014,47.5068751 139.35169,54.9800102 C140.249577,58.6830787 141.343944,62.3373252 142.677042,65.9070317 C143.334085,67.6654661 144.050282,69.4006521 144.836197,71.1041354 C145.613662,72.7885973 146.976549,74.5893018 147.058732,76.4660924 C147.096761,77.3347421 146.18831,78.1061706 145.347676,78.0131765 C145.740423,81.4708673 145.962254,84.9644877 146.196761,88.4137245 C146.539014,93.4098341 146.811549,98.4148204 147.210845,103.406914 C147.92493,112.349145 148.820704,121.278695 149.758732,130.199791 C149.944648,131.96837 150.146789,133.735597 150.346766,135.502553 L150.514189,136.986182 C150.626943,137.947969 150.797279,139.100642 150.286901,139.953607 C150.743239,141.054742 151.055915,142.185466 151.237817,143.364801 C151.467887,144.831572 150.629366,146.475877 148.917887,146.412472 C148.723521,146.40592 148.529155,146.389012 148.334789,146.368088 C146.748169,146.735838 145.165775,147.059204 143.517887,147.069771 C141.413662,147.084566 139.305211,147.042296 137.200986,147.027501 C133.13007,147.000026 129.058732,146.97255 124.987606,146.938734 C110.249577,146.820378 95.5052113,146.826719 80.7692958,146.590006 L74.8733834,146.496386 C69.468338,146.409419 64.0625352,146.309192 58.6601408,146.112355 C54.9397183,145.97709 51.219507,145.839713 47.5009859,145.689654 L46.7439349,145.660797 C43.4629937,145.541213 40.1781489,145.479813 36.9333803,144.977404 C36.8520423,144.963648 36.8168603,144.879211 36.8294618,144.805 L36.8340845,144.785075 L36.6925352,144.753372 C36.6101408,145.108441 34.8988732,143.616308 34.9115493,142.625075 C34.2016901,141.701474 34.5333803,140.226249 34.6094366,139.156816 C34.6833803,138.114859 34.776338,137.070789 34.8587324,136.028832 C35.0340845,133.803314 35.1840845,131.575681 35.363662,129.350163 C36.0883099,120.376229 36.713662,111.379047 37.1192958,102.386092 C37.3242254,97.8526286 37.4890141,93.3170513 37.6622535,88.7835875 C37.74026,86.719508 37.8488691,84.6536277 38.0512244,82.5990789 L38.1038028,82.0856853 C38.3256338,80.0019828 38.304507,77.7616697 39.0714085,75.7980141 C39.0819718,75.7707499 39.1178873,75.7707499 39.1284507,75.7980141 C39.9038028,77.7088321 39.9777465,79.9301237 40.1340845,82.0267186 C40.1615493,82.0182646 40.1890141,82.0140376 40.2185915,82.0076971 C41.2897183,81.4983429 42.3714085,81.0397127 43.385493,80.4098888 C43.5228169,80.3253487 43.6559155,80.2363703 43.7911268,80.149928 C45.3861972,75.2677362 47.2347887,70.4658575 48.935493,65.6153683 C54.4305634,49.931063 57.4643662,33.227838 58.1361972,16.6201432 C53.9446479,19.3233775 49.3796225,21.4264314 44.9419787,23.6847396 L44.526338,23.8969339 C40.1552113,26.13302 35.97,28.671337 32.8580282,32.5496149 C30.1453521,35.9269926 28.3728169,40.0419828 26.7143662,44.0090278 C24.9333803,48.2719632 23.3277465,52.6109847 21.8594366,56.9901628 C18.8805634,65.8753292 16.5735211,74.9781863 14.7735211,84.1740376 C12.9967606,93.2494192 11.7270423,102.392222 10.8777465,111.598852 C10.4446479,116.295055 10.0495775,120.995486 9.71788732,125.702257 C9.54887324,128.084175 9.39887324,130.468206 9.25943662,132.854351 C9.19183099,134.01255 9.14112676,135.172863 9.06507042,136.331063 C9.01859155,136.99893 9.01014085,137.687721 8.79042254,138.321771 C8.60661972,138.850147 8.28126761,139.292081 7.97704225,139.759165 C7.42140845,140.610906 6.01859155,140.765192 5.49676056,139.759165 L5.27080563,139.323445 C4.97171831,138.743162 4.69859155,138.15882 4.65802817,137.489263 C4.62,136.855212 4.69816901,136.193685 4.73408451,135.55731 C4.80380282,134.270398 4.88408451,132.981161 4.9643662,131.694038 C5.13338028,128.98664 5.32140845,126.279243 5.53267606,123.573959 C5.95309859,118.154938 6.49394366,112.750711 7.17422535,107.357051 C9.56788732,88.4137245 13.0242254,69.5697323 19.62,51.5922763 C21.2509859,47.1475796 23.07,42.7386012 25.1235211,38.4716501 C27.1094366,34.3460924 29.6214085,30.4509065 33.2678873,27.6103585 C36.624507,24.9950254 40.5262986,23.2445175 44.403168,21.5454316 L44.8876056,21.3332548 C49.2333803,19.4332157 53.5707042,17.3873448 58.1087324,15.9755249 C58.0073239,15.9882059 57.9080282,16.0008869 57.8216197,16.0304759 C57.7221127,16.0621785 57.663169,15.9332548 57.7244366,15.8635092 C57.9819718,15.5781863 58.0897183,15.2844094 58.3857042,15.0033135 C58.5900423,14.8088712 58.8026282,14.6252501 59.0212986,14.4481216 L59.3359821,14.1975946 C59.9116976,13.7404126 60.5170394,13.2732845 61.241831,13.1138419 C62.2666901,12.8898106 62.769507,13.8218654 62.4819718,14.5510239 C62.6298592,14.3586951 63.0270423,14.4157597 63.1305634,14.6799476 C66.5023944,23.3791256 68.7164789,32.5876579 73.254507,40.8070708 C76.6052113,46.8791648 81.1009859,52.4862881 87.0671831,56.1532157 C90.2721127,58.1230004 93.9399296,59.6362685 97.7277465,59.8750943 C101.129155,60.0885581 104.40169,59.2239241 107.294155,57.4382254 C112.901197,53.9784211 116.562465,47.9042137 119.173521,42.018108 C122.044648,35.538108 124.093944,28.6332939 125.298169,21.6333722 C121.482676,21.6862098 117.455915,19.9446834 114.918592,17.1062489 C113.58338,15.6120023 112.58831,13.7922763 112.08338,11.8520806 C111.574225,9.89497691 111.736901,8.28660117 112.387606,6.41403757 Z M80.3783873,1.33099961 C80.8433873,0.500392955 81.8743732,0.225637573 82.717331,0.563798043 C83.6530352,0.940001566 83.9342324,1.84880783 83.8011338,2.77240861 C83.6466972,3.85452211 82.9516268,5.02350059 82.410993,5.96802505 C81.8447958,6.95714442 81.1159225,7.86827554 80.3614859,8.71980587 C78.9419789,10.3260681 77.4227535,11.7738176 75.6208521,12.9575906 C73.8271901,14.1346004 71.7988099,15.0159311 69.7138099,15.5083773 L69.2181039,15.6240945 C67.5961608,15.995099 65.2885645,16.420122 63.9375423,15.5381777 C63.8722606,15.4956963 63.874162,15.4090427 63.9375423,15.3667726 C64.6685282,14.8574184 65.6469085,14.7665378 66.4875423,14.5258098 C67.4044437,14.2616219 68.323669,13.9615045 69.2002183,13.5850896 C70.9307113,12.8411366 72.5870493,11.8604712 74.0614859,10.6895906 C75.5426831,9.51469432 76.9748662,8.11344188 77.9659225,6.49640078 C78.4645141,5.68502701 78.889162,4.83307397 79.2966972,3.97520313 C79.7088803,3.11479609 79.9157113,2.15949276 80.3783873,1.33099961 Z" id="ðŸ–-Ink" fill="#000000"></path>
                    </g>
                    <g id="head/Cornrows" transform="translate(78.591549, 38.043053)">
                        <path d="M90.9607817,66.9685174 C92.2693732,57.5205252 89.4747254,48.4026622 85.8542324,39.7677346 C85.6554296,39.2418951 85.340007,38.7864352 84.9345845,38.4626466 C74.7170493,17.860854 59.7037394,15.995265 38.7588803,17.4140595 C38.1400775,17.4003217 38.1033169,17.4113119 37.6334577,17.2010184 C37.5557113,8.83196947 28.0011338,4.39889706 20.7303592,7.16018865 C-11.515838,22.1510536 -1.37626056,64.354537 5.04057042,91.907218 C7.3298662,102.573011 9.61979577,113.238169 11.9095141,123.903539 C11.9864155,124.260298 12.1484577,124.568658 12.3639507,124.828619 C12.0314155,124.954795 11.698669,125.073151 11.3722606,125.184322 C10.627331,125.437942 10.9233169,126.549011 11.698669,126.36894 C12.4585986,126.192463 13.1908521,125.955962 13.9152887,125.698326 C15.0447254,125.943492 15.9916268,125.205245 16.8783169,124.616423 C27.2612746,120.509042 31.6201479,107.009887 34.2833873,97.0652219 C45.1110634,104.707649 62.4124014,110.431437 74.7924718,103.559171 C86.3927535,96.5706622 90.5703592,81.9927757 89.7462042,69.1259812 C90.5927535,68.7362513 90.9343732,67.8866231 90.9565563,67.000854 L90.9616268,67.000854 C90.9614155,66.9900751 90.9607817,66.9792963 90.9607817,66.9685174 L90.9607817,66.9685174 Z" id="ðŸŽ¨-Background" fill="#FFFFFF"></path>
                        <path d="M17.7551197,7.94715147 C20.148993,6.39584031 23.2214577,5.81843131 26.0418803,5.93150372 C27.5461056,5.99173855 28.9504014,6.36688532 30.337162,6.93034521 C31.6225141,7.45280313 32.7557535,8.20330802 34.0073028,8.77522192 C34.0833592,8.80988337 34.0258944,8.91661526 33.9540634,8.90203209 C32.4719871,8.60280098 30.7319048,8.78356157 29.229162,8.99781143 L29.0796972,9.01933151 C27.6027254,9.23385205 26.0997676,9.34481096 24.6439225,9.68529628 C21.9620915,10.3123726 19.4676549,11.6787523 17.9957535,14.0553863 C16.0738521,17.1592767 15.5811761,21.1770458 15.7867394,24.7581652 C15.8906831,26.5700712 16.2477254,28.3525996 16.8037817,30.0799656 C17.1375845,31.1166387 17.9131479,32.1596524 18.2754718,33.2474724 C18.5511761,32.7326231 18.8357535,32.2228462 19.1304718,31.7191984 C17.7878662,31.0862043 17.4113873,29.3269245 17.3418803,27.7392611 C17.1350493,27.5393237 17.0019507,27.2499851 16.9975141,26.9843178 C16.9856831,26.2701652 17.1536408,25.6236446 17.4392746,25.0320751 C17.6023732,23.35649 17.948007,21.6859773 18.5429366,20.115856 C20.8780775,13.951402 27.0384296,8.39542544 34.0244155,8.94430215 C35.9444155,9.09520626 37.8126549,9.91080705 38.8054014,11.6447249 C39.6029366,13.0371006 39.6082183,14.7167014 39.0580775,16.1976329 C38.8949789,16.6372415 38.6828662,17.0341573 38.4335704,17.3962004 C39.1884296,17.204717 39.9445563,17.0210536 40.6994155,16.839081 C43.3182887,16.2075663 45.9504718,15.7127953 48.6318803,15.4376172 C52.2836408,15.0631045 56.0106127,15.6297346 59.3568803,17.0878403 C60.2746268,17.3239186 61.1879366,17.5775389 62.0957535,17.84849 C66.0906127,19.040083 70.1892042,20.5964665 73.4158944,23.3163335 C74.9004718,24.5677386 75.9629366,26.0235194 76.825331,27.622173 C80.0554014,30.5030888 83.1441338,33.7688736 85.3244155,37.5047014 C89.8165986,45.2018677 90.8894155,54.7229871 91.0740634,63.4735233 C91.2437113,71.5120204 90.5378662,79.632944 89.0319507,87.5313159 C88.3482887,91.1158168 87.2431479,94.4471202 85.0075141,97.3867914 C82.5179366,100.660396 79.1974437,103.239504 75.4715282,104.97004 C67.8859648,108.493249 58.4974437,109.005774 51.1242042,104.640756 C48.9065282,103.328059 50.9034296,99.9060869 53.1435,101.184968 C60.4227254,105.340326 69.7125845,104.391151 76.7165282,99.9857659 C79.675331,98.1248266 82.2251197,95.5799577 83.8449085,92.4635977 C85.027805,90.1873688 85.5353753,87.5772186 85.9749416,85.0357828 L86.2085704,83.6762865 C87.5655423,75.8609753 88.1790634,67.8446701 87.8526549,59.9162865 C87.5268803,52.0075585 86.273007,43.4415311 81.7949789,36.7178442 C79.433007,33.1713863 76.4209648,30.064537 73.2572324,27.2315977 C73.0349789,27.0325057 72.8123028,26.8342591 72.5894155,26.6366466 C71.3528662,25.8933276 70.0713169,25.2442708 68.8102606,24.6903217 L68.5419645,24.5742688 C67.8165662,24.2649511 66.8021457,23.8653809 65.8609648,23.5458599 C64.5156127,23.0891319 63.1485,22.6833393 61.7756831,22.3177033 C61.0561056,22.1260086 60.3331479,21.9501652 59.6082887,21.7821417 C59.8609648,22.013993 60.112162,22.2479577 60.3589225,22.4878403 C61.5280775,23.6242708 62.4555423,24.9747992 63.5640634,26.1663922 C63.6893451,26.300811 63.5313169,26.496944 63.3720211,26.4151515 C61.6863169,25.5498834 59.8170211,24.9898051 58.0569507,24.2887562 C56.3927958,23.6259616 54.7755423,22.8629871 53.1409648,22.1317151 C52.7315282,21.948263 52.3233592,21.7523413 51.9162465,21.5585331 C50.3087113,21.5750184 48.7011761,21.6128501 47.0972324,21.7043648 C49.0362465,23.0851162 50.8070915,24.7169519 52.2739225,26.5064548 C52.3949789,26.6537659 52.2849085,26.8898442 52.0812465,26.8376407 C49.010662,26.0511006 46.0904979,24.8951244 43.1719766,23.6837156 L41.7756127,23.1022356 L41.7756127,23.1022356 C40.7492746,23.0502434 39.7214577,23.0259382 38.6934296,23.0411554 L38.1952012,23.0494501 C37.1159864,23.0700531 36.0388662,23.1128172 34.9692042,23.2763883 C34.714838,23.3150654 34.4655423,23.3518403 34.2179366,23.3856564 C32.7126549,24.000263 31.2642042,24.7412571 29.9608944,25.7179068 L30.3004014,25.6978286 L30.3004014,25.6978286 C32.3611056,25.5805292 34.462162,25.7580634 36.4577958,26.2902434 C40.3354014,27.3248031 43.6440634,29.815989 46.051669,32.9923726 C46.1237113,33.0874802 45.9836408,33.2197855 45.8892042,33.1551123 C42.8602606,31.0807092 39.3470915,30.0357933 35.7477254,29.4683178 C34.0079366,29.1937738 32.2161761,29.0993002 30.4596972,29.2360438 C29.005331,29.3491162 27.5008944,29.8616407 26.0539225,29.6128814 C25.6594859,30.1042708 25.2806831,30.6104548 24.9160352,31.1278403 C25.1076549,31.115582 25.3001197,31.1043804 25.4938521,31.0952924 C27.5718803,30.9976485 29.6881479,31.1310106 31.717162,31.6095076 C35.7699085,32.5658677 39.1565282,34.9997777 42.2545563,37.6718795 C42.3158239,37.724717 42.2368099,37.8189793 42.1704718,37.7809362 C38.8106831,35.8411632 34.9056127,35.2614294 31.0996268,34.9114333 C29.183007,34.7351671 27.244838,34.6552767 25.323993,34.8082943 C24.4440634,34.8782513 23.5738521,35.0234489 22.6964577,35.1136955 C22.6254718,35.1210928 22.5517394,35.1229949 22.4786408,35.1263765 C21.8427254,36.3260008 21.2661761,37.5471828 20.7460352,38.7647718 C22.3335,38.3386896 24.0462465,38.115081 25.6852606,38.2254059 C29.0144155,38.4496485 32.3165282,39.9766544 34.9740634,41.9297425 C35.0573028,41.9908227 35.0108239,42.1535624 34.8977958,42.1108697 C32.0051197,41.0175546 29.1375845,41.0086779 26.1187817,41.4305331 C24.7035,41.6283569 23.3025845,41.8967718 21.9352606,42.3177816 C21.2477958,42.5295546 20.5681479,42.7605605 19.9157535,43.0646935 C19.6195563,43.2024939 19.3311761,43.3631202 19.0396268,43.5146583 C18.8063873,44.3067992 18.5978662,45.1063374 18.409838,45.9107366 C23.3442042,46.1890849 27.9927254,48.5190106 32.0382887,51.1930145 C32.1361056,51.2576877 32.0750493,51.4377581 31.9542042,51.3921065 C29.5392042,50.4805526 26.9120915,50.0591202 24.3504718,49.8137425 C22.1106127,49.5992219 19.9125845,49.7158873 17.6856127,49.778447 C17.5662465,50.6249049 17.4696972,51.473899 17.3997676,52.324584 C17.7578662,52.4249753 18.1092042,52.5331867 18.4470211,52.6348462 C19.5580775,52.9687796 20.6670211,53.4183217 21.7037113,53.9395115 C23.8096268,54.9981652 25.5160352,56.429218 27.233007,58.0200517 C27.3225845,58.1031123 27.2292042,58.2844509 27.1077254,58.2352063 C25.114838,57.4293276 22.9373028,56.9132102 20.8394155,56.4564822 C19.7537113,56.2201926 18.6675845,56.0020791 17.5742746,55.8019303 C17.4684296,55.7824861 17.3608944,55.7662121 17.2535704,55.7501495 C17.2432307,57.6895993 17.3528501,59.6296107 17.5945819,61.5537967 L17.6414577,61.9143922 C17.7724437,62.8882943 17.665331,63.8302826 17.0207535,64.5030106 C17.9123028,63.910173 18.9323028,63.4995194 20.0627958,63.3420634 C23.0397676,62.9276055 25.7963873,64.1175076 27.6696972,66.4191123 C27.7573732,66.5266896 27.622162,66.6678716 27.5156831,66.5731867 C25.6977254,64.9548775 22.8961056,64.6684978 20.6382887,65.4304157 C18.548007,66.1356916 16.9765986,67.8195194 16.3468099,69.9264705 C15.6775141,72.1655155 15.9840634,74.6374685 17.2045563,76.6334607 C17.8125845,77.6278638 18.6908239,78.5168031 19.789838,78.9540869 C19.9254718,79.0081926 20.0636408,79.0532102 20.2032887,79.09231 C20.866669,78.8496798 21.5805423,78.959582 22.2627254,79.2670967 L22.3512465,79.3087327 L22.3512465,79.3087327 C22.7864577,79.3061965 23.2197676,79.2928814 23.6408239,79.2966857 C24.460331,79.3045057 24.8543451,80.1748462 24.5104014,80.8226348 C24.7054014,81.1800282 24.8482183,81.5815937 25.0195563,81.9318012 C25.3290634,82.5637386 25.6531479,83.1916603 25.9789225,83.8155663 C26.4396972,84.3443648 26.8797676,84.891762 27.1785,85.5300399 C27.3010352,85.7919029 27.4168099,86.075535 27.5055423,86.3600125 C27.7615986,86.7453041 28.0218803,87.1284822 28.2885,87.5097581 C29.1504718,88.7415076 30.0582887,89.9083726 31.0649789,91.026627 C31.6700493,91.6987209 32.3661761,92.2987444 33.0067394,92.9429401 C33.2008944,92.9687249 33.3912465,93.1010301 33.4512465,93.2912454 L33.5036408,93.473218 L33.5036408,93.473218 C33.7100493,93.7059147 33.9075845,93.9455859 34.0854718,94.2008971 C34.4801197,94.7671045 34.3719507,95.3415546 34.0252606,95.7555898 C34.5743451,99.1828462 34.2004014,102.829061 33.4658239,106.152333 C32.9908944,108.299652 32.4363169,110.445069 31.6920211,112.516514 C31.3136408,113.569461 30.8554014,114.580983 30.2222324,115.505852 C29.8751197,116.01267 29.423007,116.602971 28.9159648,117.085273 C28.8388521,117.646619 28.7387113,118.203316 28.5952606,118.749022 C26.8943451,125.215707 19.9318099,127.184435 14.1020915,128.010392 C12.9768803,128.169539 11.8632887,127.897742 11.2504014,126.849234 C11.1088521,126.607238 11.0137817,126.34622 10.9626549,126.078016 C10.7087113,126.010384 10.4644859,125.891394 10.2454014,125.720412 C10.2088521,126.12557 10.1665986,126.532208 10.1131479,126.943285 C9.97983803,127.97087 8.59328873,128.279864 8.24575352,127.196059 C6.7791338,122.622016 5.98244366,117.799214 4.97744366,113.098995 C3.97455634,108.408709 2.85462676,103.743363 1.81835915,99.060263 L0.50625602,93.1499087 C-2.69533876,78.6774121 -5.69408873,64.019923 -4.9580493,49.1350967 C-4.55621831,41.009946 -3.06593662,32.9059303 0.12378169,25.3974998 C2.78089437,19.1425879 7.26526056,12.115402 14.5094155,10.8365213 C14.5592746,10.827856 14.6036408,10.8329284 14.6450493,10.8434959 C15.505331,9.72439609 16.5331479,8.73886967 17.7551197,7.94715147 Z M22.1262465,86.6170145 C22.7104014,88.5557307 23.1274437,90.5432689 23.3543451,92.5715977 C23.7323028,95.9521456 23.5449085,99.4151202 23.3807535,102.804756 C23.2296972,105.918791 22.8711761,109.059879 22.2608239,112.117695 C21.6749789,115.053774 20.7568099,117.932365 19.3918099,120.603198 C19.1710352,121.035198 18.9337817,121.455786 18.6844859,121.868341 C19.4393451,121.616623 20.1208944,121.323692 20.8307535,120.917476 C21.7242042,120.406009 22.5418099,119.746596 22.9890634,119.051042 C23.7069507,117.935324 23.9477958,116.695754 24.0527958,115.365938 C24.3227958,111.945868 24.4476549,108.515652 24.619838,105.089876 L24.6580369,104.34391 C24.9365401,98.9912753 25.3015892,93.5019194 24.7563169,88.1435977 C23.9892042,87.9419695 23.2970915,87.5461104 22.6584296,87.0494372 C22.4822324,86.9124822 22.3043451,86.7674959 22.1262465,86.6170145 Z M16.2920915,80.1353237 C16.4532887,81.7635663 16.6075141,83.3920204 16.747162,85.0217425 C17.2425845,90.8066114 17.5487113,96.6236055 17.2670915,102.428553 C17.1204718,105.451496 16.8259648,108.482893 16.3168099,111.467371 C16.0873099,112.812573 15.8098944,114.157433 15.4999648,115.488084 L15.3954718,115.931089 C15.0808944,117.249069 14.8804014,118.896333 13.8730775,119.854807 L13.8806831,120.053688 L13.8806831,120.053688 C14.5877958,118.980028 15.2418803,117.773007 15.7102606,116.649257 C17.7973732,111.64258 18.1787113,106.192279 18.5558239,100.853782 C18.7882183,97.5636916 18.9604014,94.2693746 19.2293451,90.9820321 L19.3599647,89.4000325 C19.5098198,87.558961 19.6388286,85.7315272 19.6212465,83.8920751 C19.2192042,83.2924744 18.8925845,82.6620164 18.6897676,82.0148618 C18.6572324,81.9106661 18.634838,81.8054137 18.6192042,81.7001613 C17.7690634,81.2971162 16.9685704,80.7469714 16.2920915,80.1353237 Z M27.7163873,91.5911436 C28.1357535,92.9871123 28.478007,94.4008344 28.7218099,95.8204744 C29.1101197,98.0802317 29.3431479,100.35415 29.4456127,102.635676 L29.659811,101.82959 C30.1992071,99.8135952 30.7724478,97.7946477 31.4828662,95.8382278 C30.3591338,95.0511593 29.4202606,93.8151828 28.6035,92.7821025 C28.2982183,92.3961769 28.0022324,91.9977816 27.7163873,91.5911436 Z M11.6241338,29.5093198 C11.1923028,30.903809 10.8147676,32.3141495 10.4247676,33.7200517 C9.50828873,37.0226114 8.91335915,40.415629 8.50054225,43.8149871 C6.85328873,57.3874802 8.22526056,71.0149245 10.0195563,84.4986505 C10.763007,90.0854841 11.5713169,95.6640751 12.2651197,101.257461 C12.2835,100.708584 12.2989225,100.159707 12.3088521,99.6114646 C12.5196972,87.7390732 10.522162,76.0328031 9.72230282,64.2217033 L9.67428243,63.5019883 C9.31177942,57.9795469 9.08998768,52.3539793 9.74617606,46.8516681 C10.0837979,44.0195742 10.6786678,41.2480559 11.4703089,38.5113723 L11.9415785,36.9039342 C12.2600752,35.8230992 12.5986207,34.7134886 13.000331,33.6374137 C12.946669,33.5342748 12.8955423,33.4302904 12.848007,33.3260947 C12.292162,32.1036446 11.905331,30.8186348 11.6241338,29.5093198 Z M13.0157535,13.5103139 C8.86941549,18.8581104 5.3900493,24.5389949 3.28497887,31.0731006 C-1.53276761,46.027402 -0.457204225,62.0183765 2.33469718,77.2613824 C3.65026056,84.4434881 5.34673944,91.541899 6.89469718,98.674126 C5.23772535,85.8665096 3.10096479,73.0870027 2.76082394,60.1561691 C2.57511972,53.0987601 2.93997887,46.0083804 4.23948592,39.0600282 L4.31639906,38.6514783 C4.87336802,35.7149472 5.56327465,32.6037511 6.97561268,29.9647796 C7.74251408,28.5318247 8.58906338,27.1946114 9.59300704,25.914674 C10.0163873,25.3748853 10.4917394,24.9420399 10.9960352,24.5461808 C10.8481479,20.8595977 11.4054718,16.8619068 13.0157535,13.5103139 Z M19.7805423,70.4897824 C21.8433592,70.5709409 23.9042746,71.1462364 25.5287113,72.4874654 C26.7994859,73.5363969 24.9872324,75.3092031 23.7268099,74.2898607 C22.3561056,73.1815397 21.1267394,71.922526 19.6656127,70.9143851 C19.4915282,70.7941268 19.5392746,70.4802716 19.7805423,70.4897824 Z M16.3584296,64.9914411 C15.8997676,65.2279421 15.4440634,65.2757072 14.9245563,65.1480517 C14.9055423,65.143402 14.8872559,65.1381182 14.8693294,65.1325292 L14.7631479,65.0979616 C14.8085704,65.5899851 14.8563169,66.0820086 14.9036408,66.5740321 C15.3227958,65.9835194 15.8089225,65.4488031 16.3584296,64.9914411 Z M14.3051197,35.298627 C14.1225845,36.8245761 14.0036408,38.3579225 13.9402606,39.8935937 C13.8787025,41.3896896 13.8530533,42.8903163 13.8460459,44.3915094 L13.8441338,45.034901 L13.8468803,45.0226427 C14.5561056,41.9956838 15.5592042,39.0167014 16.840331,36.1660086 C16.6197676,36.2027836 16.3958239,36.1968658 16.1752606,36.1702356 C15.6707535,36.1091554 15.1869507,35.8853354 14.7540634,35.6234724 C14.5962465,35.5279421 14.4481479,35.4165605 14.3051197,35.298627 Z M35.3463169,17.6117777 C34.4646972,18.0103843 33.6132887,18.4685918 32.7285,18.8581104 C30.9739225,19.630807 29.257162,20.5290458 27.6333592,21.548811 C25.9901197,22.5808344 24.4070915,23.6673863 22.9512465,24.9545096 C22.7807535,25.1054137 22.6117394,25.2580086 22.4429366,25.4103922 C22.4089225,25.7432689 22.3842042,26.0774137 22.373007,26.4143061 C22.3668803,26.5954333 22.366669,26.7848031 22.368993,26.9794568 C25.1161056,23.5752376 28.4374437,20.889398 32.6509648,19.1998638 C33.3813169,18.9069323 34.1237113,18.646126 34.8728662,18.404764 C35.0511761,18.1570614 35.2111056,17.8941417 35.3463169,17.6117777 Z M35.2679366,14.3462043 C34.778007,13.6956681 33.3696972,13.748717 32.4817394,13.8937033 C31.0459648,14.1283022 29.7813169,14.6304705 28.5506831,15.3575155 C27.0961056,16.2164431 25.8413873,17.3801378 24.8596268,18.7488423 C25.3427958,18.4762004 25.8350493,18.2189871 26.3376549,17.9801613 L26.6820052,17.8174783 C28.5857006,16.9247436 30.6477918,16.076028 32.7299789,15.7992376 C33.6933592,15.6711593 34.7294155,15.4858051 35.7027254,15.5902121 C35.6547676,15.1169988 35.5140634,14.6731632 35.2679366,14.3462043 Z" id="ðŸ–-Ink" fill="#000000"></path>
                    </g>
                    <g id="face/Smiling" transform="translate(112.183099, 77.354207)" fill="#000000">
                        <path d="M30.968993,50.9198978 C29.548794,50.3403012 28.2816173,49.3734958 27.3551889,48.1384646 C27.0331038,47.7091169 26.9495926,47.2557326 27.017159,46.8410547 C27.0931327,46.3747786 27.3688808,45.9521824 27.7449394,45.6687178 C28.1221628,45.3843752 28.5940214,45.2441445 29.0502103,45.3156301 C29.4466117,45.3777469 29.8412104,45.5948709 30.1535058,46.0451781 L30.2187521,46.1352289 C30.7695298,46.8806513 31.4872438,47.4922614 32.3050288,47.8864795 C33.0932406,48.2664417 33.9747757,48.4437847 34.8870208,48.3406561 C36.6244504,48.1443157 37.8219743,47.2043274 39.0948115,45.9278391 C39.2525834,45.7666792 39.4104563,45.6004672 39.5690946,45.4315797 C39.6692778,45.278484 39.8083069,45.1800892 39.962667,45.1284632 C40.1340565,45.0711416 40.327938,45.0743848 40.5055187,45.1363808 C40.6767961,45.1961763 40.8299095,45.309486 40.9325762,45.4602937 C41.0301525,45.6036243 41.0854754,45.7806897 41.0675245,45.9843589 C40.9510195,47.3072301 40.2596776,48.4878363 39.2776553,49.4148615 C38.1869942,50.4444414 36.7412431,51.1567117 35.3801317,51.4065272 C33.8805866,51.6817086 32.3525901,51.4845569 30.968993,50.9198978 L30.968993,50.9198978 Z M36.0875289,30.5120405 C37.6828906,31.482148 40.1137318,33.7442494 38.3974899,36.149264 C36.3773089,38.2698449 33.4687045,35.8384541 32.0353946,34.7388307 C30.7063626,33.8866164 29.2131206,36.0784478 30.4461973,37.0735516 C40.8033244,44.7445605 45.006466,30.7657101 36.8944406,29.3714319 C36.0012775,29.2177885 35.6695544,30.2119271 36.0875289,30.5120405 Z M17.5274577,21.5886716 C17.7037243,19.3998697 21.0359789,18.9028321 21.3674577,21.0687499 C21.6642887,23.0089456 21.3148521,24.7912626 20.4412606,26.5380728 C19.6065423,28.2068947 17.5085456,27.4283107 17.3498837,25.9087021 C17.1372039,23.8717299 17.4178099,22.9502317 17.5274577,21.5886716 Z M42.8930282,20.6196517 C43.3576056,20.0109628 44.0283803,19.5954481 44.8320423,19.8302583 C47.3429577,20.5642779 46.6028873,24.1303914 45.7210563,25.8662114 C45.2419014,26.8088337 43.6930986,27.0478708 42.993169,26.2178982 C41.8523239,24.864411 41.3059859,22.1614521 42.756338,20.8282544 C42.7956338,20.7593542 42.8393662,20.68982 42.8930282,20.6196517 Z M20.4058944,12.0111429 L20.802522,11.9416942 C22.0295218,11.7294045 23.5551549,11.5254176 24.4231479,12.5122544 C24.8835,13.0355577 25.0419507,14.0081918 24.4231479,14.509092 C23.3346972,15.3904227 22.1313169,15.0488806 20.8269507,15.1234873 C19.7520211,15.1852016 18.7189225,15.3631585 17.6835,15.6592603 C15.4119507,16.3087397 13.5610352,17.4944149 11.6209648,18.7963327 C11.3663873,18.9671037 11.1065282,18.6414129 11.228007,18.4032211 C12.3479366,16.208771 14.5182887,14.4061644 16.6922324,13.3073542 C17.8525141,12.7208571 19.1222324,12.2343288 20.4058944,12.0111429 Z M40.6041287,11.0281289 L40.9077055,11.0902829 C44.2113469,11.7811043 48.5035506,13.1610768 50.0679842,16.4073021 C50.1275964,16.8663298 50.0646105,16.9647086 50.0133917,17.0289838 L49.9963385,17.0503723 C49.9541341,17.1052595 49.9204583,17.1809212 49.7215736,17.2433957 C49.6663832,17.2302408 49.6106433,17.216308 49.5543131,17.2015401 C48.8372041,17.0135386 48.2698321,16.7545401 47.720556,16.4857982 L47.1250012,16.192275 C46.4340388,15.8533498 45.7369757,15.5267598 44.9982488,15.2856588 C43.4217423,14.7712438 41.8001698,14.4088706 40.1534741,14.2153715 C39.7965654,14.1734678 39.4528848,14.0529641 39.1817455,13.8464404 C38.92438,13.6504079 38.7277692,13.3789964 38.6381257,13.0182314 C38.5219478,12.5513438 38.5553348,12.1978716 38.8057421,11.7766707 C38.9940329,11.4603578 39.263447,11.2411116 39.5728025,11.115213 C39.888177,10.9868648 40.2472278,10.9566068 40.6041287,11.0281289 Z" id="ðŸ–-Ink"></path>
                    </g>
                    <g id="facial-hair/Moustache-4" transform="translate(104.577451, 109.479380)" fill="#000000">
                        <path d="M64.4933662,2.7485683 C63.7932254,1.80827084 62.5347042,0.574196477 61.2616056,0.64056047 C61.0987183,0.649014481 61.037662,0.825491977 61.1354789,0.944904892 C61.5518873,1.45362505 62.120831,1.81545675 62.5380845,2.33474442 C63.0318169,2.94935108 63.3882254,3.69055656 63.6199859,4.44021605 C63.9567465,5.52930411 64.0497042,6.76189902 63.749493,7.86937456 C63.2204789,9.82140587 61.5478732,11.2522474 59.7229437,11.9828853 C57.9166056,12.706126 55.7430845,12.9531945 54.0347746,11.8934841 C51.5132958,10.3290693 49.3746338,8.07396164 46.2054085,8.02936673 C45.4640704,8.01901057 44.9416056,8.35865049 44.6304085,8.84348806 C44.3177324,8.37598121 43.8018169,8.045218 43.0790704,8.03697534 C39.5261831,7.99703014 36.8743521,10.4438325 33.8923099,11.9691476 C31.8770282,13.0001143 29.2693521,12.6801299 27.1902676,11.9989479 C25.2290704,11.3566544 23.1001268,10.0667836 22.3602676,8.03000078 C21.9518873,6.90519452 22.0433662,5.5918638 22.4627324,4.48312016 C22.7384366,3.75396164 23.1641408,3.04953112 23.690831,2.47656047 C24.2369577,1.88224344 24.9548451,1.50857613 25.5142817,0.945116243 C25.6285775,0.829930333 25.5383662,0.650916634 25.3881549,0.64056047 C23.0122394,0.479300196 20.8668169,3.31731194 20.4182958,5.3762865 C19.9765352,7.40398121 20.6352676,9.42639217 21.9685775,10.9736877 C24.6797746,14.1194254 29.6999155,15.156944 33.6070986,14.2324978 C36.7695634,13.4845292 39.7731549,11.7616016 43.0790704,12.0088814 C43.8037183,12.0631984 44.3238592,11.7609675 44.6378028,11.3027601 C44.952169,11.7742826 45.4756901,12.0826427 46.2054085,12.0120517 C49.2865352,11.7134137 52.0366056,13.8962395 55.0273099,14.429265 C57.408507,14.853445 59.9806901,14.2813198 62.0211127,12.9980008 C64.1538592,11.6565605 65.6551268,9.50480313 65.754,6.93943327 C65.810831,5.46357417 65.3779437,3.9365683 64.4933662,2.7485683" id="ðŸ–-Ink"></path>
                    </g>
                    <g id="accessories/Sunglasses" transform="translate(88.521127, 88.978474)" fill="#000000">
                        <path d="M71.3680491,3.1702544 C76.3269356,3.1702544 79.1568052,4.23707181 80.1938017,4.32017463 L80.2249868,4.32240913 C80.6563105,4.34999802 81.0432333,4.38607581 81.4491851,4.54312029 C82.9419037,5.11824266 83.1850519,6.68444304 82.313947,7.67148884 C82.2528428,9.713916 82.521363,12.1003555 82.06065,14.1493615 C81.4923175,22.7874448 77.431531,24.2451996 75.1233146,24.7772408 C73.9644491,25.0444286 72.5909789,25.150752 71.3600147,24.8687086 C69.2600599,24.7903986 67.1839971,24.1327218 65.4077466,22.9875704 C62.9339779,21.3914466 61.0966232,18.9381571 60.5003815,16.0266798 C60.2177929,14.6388685 60.0857253,13.1943522 60.2395124,11.7836899 L60.2623077,11.5893242 C59.4582272,11.2045653 58.526441,11.131773 57.5658998,11.0978175 C57.1070897,11.0814763 56.6548341,11.066833 56.2154759,11.0863575 C55.786055,11.1343197 55.3617085,11.1981986 54.9360934,11.2852097 C54.4713632,11.4254886 54.0324278,11.6570231 53.6271104,12.0237432 L53.5992012,12.5589678 C53.5230852,13.8959681 53.3475956,15.2370007 53.0769611,16.5487466 C52.6773523,18.4842137 52.0345953,20.3326697 50.6666224,21.7055356 C50.2035836,22.3973802 49.6305996,23.014947 48.9349843,23.5497472 C46.4081459,25.4960376 42.9751046,26.21059 39.8243268,25.9414922 C33.4278375,25.3954443 29.7305048,20.3156919 28.8784289,18.1444458 L28.8275239,18.0129005 C28.2119991,16.3987184 27.7214607,14.3043319 25.7764921,13.9575126 L25.3628246,13.883161 C24.4752804,13.7164979 23.6563102,13.4844691 23.1359026,12.6181778 C22.9077661,12.2399977 22.7904207,11.8170387 22.7616658,11.3858031 C22.4580477,11.4091475 22.1548524,11.4314309 21.8527144,11.4530775 C19.4424813,11.9629946 4.98596345,12.3953444 3.83204944,12.3953444 C3.83204944,12.3953444 1.61394912,13.3292972 0.677465773,12.6056567 C0.0283657826,12.1024777 -0.185181771,11.4318553 0.172140373,10.6720996 C0.71128711,9.52898231 3.19864834,8.84138978 4.30313196,8.62367284 C4.30313196,8.62367284 22.1266578,8.77176371 23.4094972,8.52844238 C24.2032175,7.70968885 25.6229916,7.82174221 26.8093434,7.69228662 C27.7914507,6.99174089 29.1653438,6.52251745 30.2506305,6.20842848 C30.4717896,6.12460068 30.6908345,6.04353177 30.9037477,5.96713175 C32.8933343,5.25830936 34.9613627,4.88288816 37.0608946,4.68127699 C39.2259708,4.47542139 41.3973899,4.56858697 43.5497801,4.86357593 C44.4568287,4.98666485 45.3554199,5.14583155 46.247668,5.3540216 C47.8453103,5.56471853 49.4336611,5.91176412 51.0318841,6.32346342 L51.351666,6.40664408 C53.0346745,6.84806641 54.7641982,7.22985428 56.506408,6.93062088 C57.9247725,6.68859906 59.2887664,6.14252462 60.5965287,5.55202796 L60.7667874,5.47477608 C63.6422792,4.16133242 68.1329094,3.1702544 71.3680491,3.1702544 Z M46.0747157,7.97263224 C45.0137438,7.73918774 44.5606424,9.3756337 45.6249972,9.60971487 C46.378691,9.77548242 47.0174738,10.155707 47.4490469,10.7998619 L47.4944898,10.8698907 C48.0736053,11.7917843 49.5379918,10.940773 48.954859,10.0129372 C48.2987817,8.9688036 47.2792507,8.23748564 46.0747157,7.97263224 Z M77.1492677,6.95799755 C76.7752423,6.69441749 76.2092356,6.89008642 75.9920937,7.26253652 C75.7531059,7.67267317 75.9097469,8.12931765 76.260044,8.39762278 L76.2957118,8.4238168 C76.6170226,8.65036832 76.9299546,9.056466 76.969253,9.47256193 L76.972721,9.52461373 C77.0147962,10.6135262 78.7064734,10.619044 78.6641867,9.52461373 C78.6229573,8.45395236 78.0032465,7.55943548 77.1492677,6.95799755 Z" id="ðŸ–-Ink"></path>
                    </g>
                </g>
            </g>
        </g>
    </g>
</svg>