<?xml version="1.0" encoding="UTF-8"?>
<svg width="240px" height="324px" viewBox="0 0 240 324" version="1.1" xmlns="http://www.w3.org/2000/svg" xmlns:xlink="http://www.w3.org/1999/xlink">
    <!-- Generator: Sketch 62 (91390) - https://sketch.com -->
    <title>peep-71</title>
    <desc>Created with Sketch.</desc>
    <g id="Introduction" stroke="none" stroke-width="1" fill="none" fill-rule="evenodd">
        <g id="variations" transform="translate(-2526.000000, -110.000000)">
            <g id="images" transform="translate(126.000000, 110.000000)">
                <g id="a-person/bust" transform="translate(2400.000000, 0.000000)">
                    <g id="body/Whatever" transform="translate(31.056338, 135.052838)" fill-rule="evenodd">
                        <path d="M214.857423,59.8874148 C217.021437,58.7574195 219.134324,57.5296423 221.213831,56.2517043 C222.678549,55.3752648 221.381789,53.1675516 219.879887,53.9652576 C219.11193,54.3733173 218.34693,54.7853984 217.579183,55.1909183 C218.183408,54.6702612 218.743479,54.1034645 219.245662,53.4856604 L219.211014,53.4511616 C221.14707,51.7158495 218.660239,48.4416359 216.458408,49.8670935 C214.516648,51.2751958 212.557141,52.7118708 210.328268,53.6391061 C205.711648,55.5974965 200.619465,55.9215315 195.664394,55.9780418 C193.851085,55.8417397 192.119113,56.1560388 190.359676,56.5063183 C191.049465,53.7379463 192.775732,51.6474868 193.691366,48.9663144 C194.367,46.2593207 190.461085,44.4154326 189.076859,47.0174482 C188.737141,47.6564173 188.413268,48.302794 188.096577,48.9523455 C185.104606,51.6747896 180.108549,51.434991 177.091014,54.3580786 C175.372256,55.8841834 174.531021,57.9549368 174.198825,60.0331862 C173.97324,61.4444635 174.323926,62.8591975 173.470944,64.109182 C169.347211,69.9441398 162.831352,79.1669667 159.522267,85.5884045 C157.179309,70.3293414 150.923408,51.4557326 144.460521,37.5031802 C142.323338,33.0409795 139.878338,28.6807936 136.668761,24.8984102 C137.032563,23.6369807 135.748479,21.3979435 134.93193,22.0872851 C132.418479,19.0156197 127.975521,18.2204536 124.402986,16.6934043 C119.58038,14.6304593 115.579183,10.3424458 113.612282,5.46879891 C111.085099,-3.81201996 104.863901,-4.99090619 96.2359437,-4.58072997 C87.9787606,-4.59110079 81.8695352,-1.05804014 80.0678451,7.3507839 C76.4076338,13.7330665 67.7655211,12.6775718 61.5481268,14.3671676 C56.991507,15.4084819 52.5694648,17.0184976 48.3669296,19.0623942 C43.6917887,14.6260146 26.9477746,33.2447977 25.4258028,38.0365363 C26.3217887,38.2103003 27.2122817,38.4194098 28.0947465,38.6742355 C28.880662,38.9015467 28.550662,40.0891106 27.7579859,39.8990496 C26.7715775,39.6620024 25.778831,39.4988209 24.7814366,39.3855885 C24.7510141,39.4810423 24.7243944,39.5758612 24.7045352,39.6696218 C24.5925634,39.6620024 24.4808028,39.6524782 24.368831,39.6448588 C24.6170704,39.7741765 24.8560141,39.9242358 25.088831,40.1176832 C25.6516479,40.5852164 24.9189718,41.4874771 24.3208732,41.1149744 C23.7574225,40.6931575 23.0194648,40.759827 22.3436197,40.6182337 C22.3034789,42.0085575 17.3443944,40.4531473 16.5741127,39.9923869 C13.1505211,39.5640088 9.62847887,40.023711 6.43242254,38.3720003 C2.1798169,37.4760891 -2.10469014,36.4853591 -6.3095493,35.3443581 C-7.42271831,35.7784506 -8.46891549,37.331956 -7.58476056,38.4718988 C-7.08743662,38.9906511 -7.72673239,39.8376713 -8.35292958,39.4689783 C-10.4531408,38.2323119 -12.0773662,36.3018592 -13.4544085,34.2221938 C-14.1025775,33.5679861 -15.2531408,33.7087328 -16.1239859,33.4371868 C-16.2403944,33.6465079 -16.3090563,33.8797454 -16.308,34.118909 C-20.0020141,34.7271889 -17.3668732,38.7633398 -15.509831,40.0209595 C-16.4949718,40.66268 -16.5323662,41.9192415 -16.446169,42.9685984 C-16.6549014,43.3423709 -16.7246197,43.8056711 -16.5429296,44.2245249 C-15.8482817,45.825863 -14.3459577,47.174492 -13.2036338,48.4719018 C-11.9423662,49.9047671 -10.8177887,51.3454634 -9.28314085,52.5069944 C-3.43356338,56.9677136 3.62552113,59.4615765 10.8673521,60.4368562 C13.4386901,60.8320053 17.1373521,61.4366872 18.7294648,63.6118063 C18.338831,66.193292 17.6215775,68.6689531 16.9708732,71.1863091 C16.0609437,74.5276155 16.1228451,78.0257541 16.1108028,81.4322485 C15.9836197,81.3300219 15.7393944,81.3511868 15.7030563,81.5459041 C15.4913662,82.9580278 15.3339718,84.4018989 14.4760141,85.5884045 C13.7239014,87.7948477 13.2234085,90.1481755 12.9422113,92.4661579 C11.8157324,103.455409 11.5467887,114.768696 14.0866479,125.586723 C15.0667183,129.600016 16.6607324,133.414147 18.8325634,136.926254 C19.4800986,137.973706 20.5212254,138.280598 21.4560845,138.074874 C24.5849577,139.700976 28.5265775,140.222268 31.8990423,139.809128 C43.3964366,136.553117 39.3903803,144.393662 55.5107324,141.992713 C83.3361549,138.446742 111.456718,145.415082 139.222986,141.323902 C139.906859,146.608148 148.859113,145.092316 151.968761,142.858359 C161.292845,135.924095 165.922563,113.969932 170.60193,102.832737 C173.818479,94.0545854 179.204535,78.5068328 186.258127,72.616423 C188.373127,70.9615376 190.929676,70.0903894 193.487704,69.387079 C203.034465,66.9260217 212.617986,64.5987267 222.182915,62.2060321 C223.805028,61.8064384 223.513479,59.038913 221.778972,59.2164867 C219.477,59.4520523 217.167211,59.6653947 214.857423,59.8874148 Z" id="ðŸŽ¨-Background" fill="#FFFFFF"></path>
                        <path d="M2.33340845,58.2413354 C1.68692958,58.161128 1.05312676,57.9307562 0.423549296,57.7489949 C-0.53771831,57.467899 -1.47997183,57.1403061 -2.40743662,56.766216 C-4.32152113,55.9992258 -6.17856338,55.0923217 -7.91940845,53.9827327 C-10.7313803,52.1883687 -13.2158873,49.8888775 -15.089831,47.1201886 L-15.2184848,46.927094 C-16.2883099,45.2969052 -18.2617183,41.6770732 -16.0489859,40.4394059 C-17.4751056,39.2473268 -18.822993,37.1063483 -18.7469366,35.453589 C-18.6391901,33.1160548 -15.7744014,33.1479687 -14.2934155,34.1389902 C-13.3236972,34.7878356 -12.5969366,35.6966419 -11.8680634,36.590865 C-11.0610211,37.584 -10.1990493,38.5308493 -9.30327465,39.4417691 C-9.06559859,39.6827084 -8.82554577,39.9188924 -8.58133363,40.1512126 L-8.33569014,40.3822568 C-8.37369718,40.2914818 -8.4075,40.1984877 -8.43707746,40.1031687 C-8.93144366,38.5626364 -8.34200704,36.5569221 -6.8018662,35.8510121 C-5.85935503,35.418775 -4.88052369,35.6826284 -3.96719921,36.0495615 L-3.82721831,36.106746 C-2.59764085,36.6158888 -1.35327465,37.0662763 -0.0729929577,37.4276853 C5.1453169,38.9007969 10.5917958,39.1459632 15.9389789,39.8814622 C17.998838,40.1667851 20.0967254,40.5258693 22.1460211,41.054245 C22.927669,37.7339953 24.8438662,34.5512712 26.9227394,31.9326411 C36.877669,19.4056978 53.2952746,15.2655569 68.3142887,12.5856352 C69.6833028,12.3425824 70.8178944,14.1558834 71.6143732,13.7268423 C73.1249366,12.9152571 74.4538099,11.7655115 75.620007,10.5164313 C78.1066268,7.85130411 79.8707113,4.71697926 81.9432465,1.74750763 C82.9678944,0.280736595 85.3256408,1.59322192 84.3749366,3.1677816 L83.9092,3.93729014 C81.9915688,7.08931294 79.8680405,10.3376609 77.1178944,12.7821065 C75.6559225,14.0797973 74.0333873,15.1048462 72.1784577,15.7450262 C70.7735282,16.2292297 68.8024014,16.6371358 67.2643732,16.1677268 L67.0797879,15.8987562 C67.1408568,15.9886967 67.2023592,16.0784031 67.264331,16.1678748 C71.2783732,21.9863272 76.314993,26.910789 81.6220352,31.558382 C86.9788681,36.2469312 92.7577053,40.4454837 98.5712997,44.5505878 L99.055838,44.892472 C108.5269,37.9815761 116.527559,28.9673509 122.140934,18.6683392 C120.964373,18.5265652 119.800289,17.772256 118.794655,17.2098528 C117.584092,16.5295162 116.445359,15.7177198 115.558035,14.6356063 C113.624937,12.2790505 113.876345,9.24194677 113.527754,6.3823773 C113.506627,6.20484305 113.741134,6.16045949 113.84888,6.24922661 C114.896768,7.11998982 115.264373,8.54660431 115.701697,9.77877652 C116.183387,11.1335319 116.728458,12.2496728 117.833387,13.2026513 C118.862261,14.0905339 120.11719,14.7433949 121.336204,15.3246082 C121.964861,15.6228298 125.08559,16.3892302 125.44107,17.0239703 C130.832683,15.7579397 136.084796,17.9454153 140.079866,21.6355914 C143.939725,25.2010708 146.772824,29.8359828 149.274232,34.4117166 C151.942542,39.2939084 154.129162,44.3830121 156.013669,49.6139319 C157.923528,54.9232626 159.387613,60.3486247 160.192542,65.9367264 C160.871979,70.6479781 161.288565,75.4332463 161.558188,80.1971666 L161.591134,80.7925386 C165.579803,74.5301871 169.667831,68.3333965 173.840366,62.1915569 C172.891775,59.6574669 173.941775,57.0705393 175.718535,55.1134356 C177.687549,52.9470951 180.410789,51.9410677 183.015718,50.7701871 L183.358114,50.6152458 C184.613635,50.0423202 185.865014,49.4113808 186.949521,48.5531225 C187.993183,47.7246294 188.760085,46.5833378 189.858676,45.8203632 C191.455859,44.7086607 194.354451,44.945373 194.428394,47.3737879 C194.466423,48.7076196 193.893887,50.1699523 193.369944,51.3683084 C192.776282,52.7232751 191.975577,53.951009 191.024873,55.0796196 C190.98093,55.1322035 190.93293,55.1736958 190.884118,55.2065853 L190.84743,55.2296783 C192.161514,55.4473691 193.486162,55.6227898 194.836162,55.6840814 C197.559401,55.8087781 200.312218,55.6079953 202.978415,55.0331225 C205.707993,54.4455687 208.353063,53.4904767 210.807993,52.1587585 C212.90588,51.0216939 214.849542,49.5506959 217.232641,49.2040814 C217.452338,49.1703076 217.674169,49.1491726 217.902338,49.1364916 C218.28262,49.1153566 218.662901,49.5634192 218.512901,49.9394114 C218.430507,50.146746 218.343887,50.3517558 218.248817,50.5588791 C217.424894,52.3742671 216.161119,54.1354611 214.584793,55.4721773 L214.462923,55.5741581 C215.018599,55.3818716 215.565782,55.1662943 216.104514,54.9232415 C219.271415,53.496627 222.144655,51.340854 225.539725,50.4743178 C225.700289,50.4320266 225.862965,50.3939836 226.025641,50.358054 C227.075641,50.1319092 227.629162,51.2732008 227.012261,52.0551969 C226.912965,52.182007 226.813669,52.3067037 226.710148,52.4314004 C225.195359,54.3123546 223.524232,56.058108 221.681979,57.6263272 C221.050289,58.1631569 220.399585,58.6830787 219.736204,59.1799632 C219.456648,59.3904936 219.175532,59.5964696 218.891516,59.7991052 L218.751634,59.8983429 C219.083324,59.6639554 219.410789,59.4251295 219.736141,59.1799632 C221.815014,58.549928 223.86431,57.8038614 225.869239,56.9776932 C226.665718,56.6498888 227.284732,57.457247 227.369239,58.1208869 C227.652338,60.3445033 225.184732,61.9528791 223.579099,63.0221002 C221.969239,64.095971 220.196704,64.9117832 218.381915,65.5667577 C214.89261,66.8282683 211.227776,67.4011266 207.568682,67.9144971 L205.791469,68.1621294 C198.756932,69.1461563 191.409613,70.3226254 186.362197,75.7984368 C183.533324,78.8670317 181.619239,82.679791 179.867831,86.4312587 C178.118535,90.1787108 176.58262,94.0252861 175.124873,97.8929965 C173.61431,101.89576 172.298113,105.972707 170.899521,110.015838 C169.615014,113.728312 168.080731,117.39329 166.561129,121.021102 L166.321352,121.593607 C163.095296,129.303877 159.241775,136.565662 153.871352,143.003392 C152.986141,144.066484 151.555859,142.557654 152.373465,141.504918 C157.99107,134.25983 161.899521,125.710922 165.125577,117.182726 C166.593887,113.302546 167.823465,109.32895 169.234732,105.427423 L170.074496,103.10969 C171.195803,100.020026 172.326845,96.9343115 173.506563,93.8688869 C175.000225,89.9903977 176.641775,86.1586168 178.519944,82.4515327 L178.719194,82.0612221 C180.558021,78.484917 182.742664,74.9602957 185.749521,72.253881 C191.161606,67.3804772 198.363281,66.2112704 205.326343,65.2852305 L207.516872,64.9964495 C210.46073,64.605202 213.412901,64.1730787 216.275577,63.3856227 C217.92769,62.9335444 219.541775,62.3542333 221.058676,61.5553292 C221.662901,61.2383037 222.252338,60.8897871 222.822761,60.5093566 C221.196,60.9870082 219.546,61.3777949 217.866423,61.6842528 C217.044592,61.8343115 216.231211,61.9465386 215.419944,62.0247382 C213.330592,62.2315867 211.258056,62.2231327 209.117915,62.1113284 C208.936225,62.1005495 208.87707,61.815438 209.071437,61.7795084 C210.561834,61.5143599 212.053976,61.1828368 213.539929,60.8230491 L213.9855,60.714155 C213.993951,60.4670865 214.091134,60.2048008 214.293951,59.9556188 C215.033387,59.0552665 216.438317,58.5943115 217.412261,57.9581472 C218.432683,57.2923937 219.421415,56.5740141 220.363669,55.8044877 C221.225641,55.1009025 222.05381,54.3567382 222.850289,53.5791804 L223.089063,53.3444389 C223.00981,53.4229773 222.930218,53.5012063 222.850289,53.5790536 C220.699585,54.5726114 218.660852,55.8468423 216.415077,56.6332767 C214.629866,57.2607757 212.758035,57.6834763 210.869303,57.833535 L210.752049,57.8427816 L210.634796,57.8504431 C208.663648,57.9920689 206.679845,57.9350043 204.738296,58.3619319 C204.52069,58.4105425 204.453085,58.1188791 204.647451,58.0364524 C206.34393,57.3305425 208.108014,57.0579006 209.891113,56.7281941 C209.92912,56.5886395 210.026303,56.4639429 210.195317,56.3836297 L210.65153,56.165736 C212.010106,55.5129933 213.276444,54.8540877 214.40588,53.7945886 C215.403063,52.8583068 216.233345,51.7637237 216.856585,50.5503616 C214.361514,51.09778 212.170669,52.9893652 209.901655,54.0524571 C207.429824,55.2127703 204.814331,56.0454904 202.127007,56.5191264 L201.820834,56.5716004 C196.798888,57.4096093 190.759838,57.3027668 186.26081,54.690735 C186.117148,54.6061949 186.220669,54.4140775 186.368556,54.4371147 C187.644613,54.6463515 188.907993,54.8936313 190.171373,55.1134356 C189.924169,54.8872908 189.81431,54.4814982 190.099521,54.1560188 C191.234233,52.8551918 192.131515,51.3683062 192.705206,49.7413339 L192.814929,49.423177 C193.079146,48.6685179 193.525437,47.4965683 193.069944,46.8158231 C192.634732,46.1669777 191.610085,46.2557448 190.997408,46.5305002 C189.723465,47.105373 188.876282,48.5406528 187.803042,49.4069777 C186.63262,50.353827 185.301634,51.05551 183.938958,51.6832204 L183.651212,51.8140089 C181.29425,52.8746298 178.775992,53.7674658 176.922761,55.6396978 C175.925577,56.6457252 175.067831,57.9032595 174.780507,59.3129659 C174.649521,59.9596978 174.649521,60.6254513 174.822761,61.2658427 C174.960085,61.7667429 175.247408,62.0755256 175.08262,62.5846685 C174.867127,63.2419679 174.104451,64.028191 173.711493,64.6136313 C173.255155,65.2901636 172.80093,65.9683867 172.346704,66.6468211 C171.440366,68.00369 170.538254,69.3647859 169.636141,70.7237683 C167.831915,73.4459601 166.046704,76.1808329 164.276282,78.9241597 C163.700225,79.8174669 163.126047,80.7117135 162.553746,81.6068994 L161.696768,82.950425 L161.243863,83.6587127 L160.471394,84.8735225 C160.498859,84.9857495 160.496746,85.1041057 160.460831,85.207456 C160.329141,85.5827202 160.082499,85.8392172 159.776078,86.0251976 L159.721352,86.0572321 C155.212901,93.1860775 150.776282,100.36142 146.295296,107.507385 C146.056563,109.688245 145.83262,111.871494 145.638254,114.054742 C145.196704,118.996112 144.894592,123.950374 144.797408,128.910554 C144.75093,131.311705 144.943183,133.727227 145.046704,136.126053 C145.097408,137.270968 145.166739,138.414485 145.257356,139.55767 L145.324019,140.367965 C145.413277,141.481488 145.463887,142.586764 145.063606,143.648222 C144.708676,144.580065 143.626986,144.789302 142.986845,144.079376 C134.635458,143.743202 126.277711,143.487468 117.919965,143.328956 C102.960106,143.041519 87.9939085,143.085903 73.0319366,143.375453 C65.5171479,143.521285 58.0002465,143.726294 50.4875704,143.979915 C46.786162,144.102498 43.0826408,144.275805 39.3791197,144.326529 C37.3837817,144.35373 34.2433832,143.626925 34.0823782,141.381192 L34.0784155,141.312611 C33.8291197,141.380243 33.5713732,141.435194 33.3072887,141.47535 C33.1897203,141.493445 33.0767975,141.488302 32.9724976,141.463901 L32.920669,141.450115 C29.9462918,142.357021 26.1838642,141.063002 23.3575543,140.308896 L23.1242324,140.247363 C20.4263451,139.543566 18.2587394,138.537539 16.4904296,136.301453 C13.3953592,132.385343 12.3390211,127.126737 11.7897254,122.280474 C11.2742324,117.719535 11.2446549,113.074267 11.8721197,108.521782 C11.5023803,104.812605 11.8636479,100.985051 12.2840704,97.2967773 C12.4911127,95.4728243 12.7340704,93.6509847 13.0256197,91.8375992 C13.1882958,90.8252313 13.4016761,89.8234309 13.6192817,88.823744 C13.7061655,88.424292 13.7784916,87.9942569 13.8886273,87.5785222 L13.9382746,87.4013566 C13.6002465,87.4457401 13.2305282,87.3717675 12.8734859,87.1754231 C12.0241901,86.7083389 11.777007,85.7633918 11.7622183,84.8590239 C11.7157394,82.1323937 12.0410915,79.3279867 12.3284155,76.6184759 C12.6178521,73.9131922 13.0150352,71.1971295 13.5347535,68.5256618 L13.6692414,67.8368828 C14.0630456,65.8385125 14.513651,63.7755276 15.3072887,61.8977166 C12.3263662,61.3906661 9.35383099,60.8517229 6.46157746,59.9342513 C5.05030986,59.4840751 3.66016901,58.9242082 2.33340845,58.2413354 Z M157.923465,86.6151969 C157.877007,86.6258067 157.832641,86.6384877 157.788275,86.6511687 C156.596725,86.9851022 155.3925,87.2683115 154.1925,87.572656 C152.117852,88.0946912 150.089683,88.678018 148.16081,89.5847108 C147.756739,94.6867544 147.157722,99.7721644 146.588297,104.860187 L146.474873,105.877874 C147.349521,104.254492 148.245296,102.644003 149.181211,101.052747 C152.031211,96.2020462 154.946704,91.3896 157.923465,86.6151969 Z M14.6650352,87.120472 C14.6713944,87.726836 14.5446338,88.3568712 14.4770282,88.9399867 C14.367169,89.8870474 14.2784366,90.8381237 14.1664648,91.7847616 C13.9382958,93.6869143 13.7439296,95.5911804 13.6023803,97.5017871 C13.5115352,98.7214896 13.4523803,99.9452078 13.3995634,101.168926 C14.5974718,96.6901808 16.1840915,92.3091006 17.6925423,87.9212571 C17.4404014,87.8946411 17.1826455,87.8330724 16.9167582,87.7624204 L16.4691548,87.6418132 C16.2052272,87.5738177 15.3490452,87.3631519 14.6650352,87.120472 Z M161.696789,82.9504462 L161.705239,83.151229 C161.73693,83.8634795 161.310169,84.265045 160.792563,84.3686067 C161.092563,83.895182 161.394676,83.4217573 161.696789,82.9504462 Z M24.6263028,49.1936618 C25.8875704,49.3054661 27.1234859,49.5740924 28.3023592,50.039063 L28.4161091,50.0834796 C29.2880579,50.4201642 30.5629225,50.8432059 30.8481338,51.7742489 C30.9284155,52.0384368 30.7129225,52.2559162 30.4657394,52.2772626 C29.5192606,52.3533487 28.4037676,51.338656 27.527007,50.9962685 C26.5509507,50.615838 25.5284155,50.3326286 24.4932042,50.1825699 C22.1671479,49.8422959 19.7417958,50.1003546 17.5530634,50.9478693 C17.4241901,50.9985933 17.3439085,50.7933722 17.4601056,50.7320806 C19.6657394,49.531611 22.1185563,48.971744 24.6263028,49.1936618 Z M-2.10109859,55.2381534 C-2.24695775,55.1091663 -2.39273239,54.9739022 -2.53639437,54.8388493 C-3.66909054,53.7668504 -4.67213201,52.5158187 -5.41481165,51.1410895 L-5.61027258,50.7690181 C-6.21516415,49.5974596 -6.95794536,47.9283237 -5.53639437,47.0841957 C-4.68709859,46.5792798 -3.66456338,46.7058787 -2.71808451,47.0123366 C-2.6568169,47.0313581 -2.5955493,47.0527045 -2.53428169,47.0736282 C-2.11174648,47.2217847 -1.704,47.3991076 -1.34061972,47.5681879 C0.237549296,48.2931194 1.62980282,49.3477573 3.0875493,50.27791 C4.66706274,51.2860381 6.22671043,51.9306794 8.04966963,52.3079976 L8.22135211,52.342591 C9.93261972,52.6809628 11.7875493,52.8984423 12.9812113,54.3060352 C13.2812113,54.6613151 13.0065634,55.3268571 12.4889577,55.1514364 C9.18895775,54.0378317 5.69670423,53.792454 2.66712676,51.964274 C1.41219718,51.2076399 0.224873239,50.3392016 -1.05752113,49.6225127 C-1.73780282,49.2418004 -2.44016901,48.9089566 -3.18866729,48.680687 L-3.59757575,48.560074 C-3.83709207,48.4901155 -4.12301408,48.421045 -4.31526761,48.4898865 C-4.68123762,48.6166967 -4.56443587,48.8125861 -4.45120832,49.1545577 L-4.43991549,49.1892446 C-3.55047887,51.9412368 -1.01526761,54.2447436 1.33402817,55.7685793 C1.87276056,56.1194207 2.42416901,56.4408845 2.98614085,56.7388885 C6.79011761,58.7672338 11.0464654,59.7112605 15.2268675,60.8318906 C16.8382563,61.2818746 17.9108521,61.5914067 18.4446549,61.7604869 C19.3362042,61.6863029 20.3524014,62.0014262 21.0242324,62.3776297 C21.6770493,62.7430544 22.2031056,63.2335984 22.6002887,63.8105847 C22.6002887,63.8105847 22.9826831,64.1297237 23.0524014,64.6242834 C23.2531056,65.0829135 23.3883169,65.5772618 23.4559225,66.0931679 C23.4939507,66.3953988 23.4178944,66.6276728 23.2742324,66.792526 C23.7063501,73.427398 21.9149056,80.0249209 19.8952164,86.3304343 L19.6950951,86.9522002 L19.5664859,87.3463421 C17.3883169,94.0313941 14.8890211,100.668005 13.7735282,107.638126 C13.0277535,112.294173 13.050993,117.11296 13.5981761,121.790142 L13.6367545,122.112729 C14.1758912,126.534937 15.2132163,131.495709 18.0242324,135.054697 C19.4580226,136.870989 21.1567395,137.678127 23.3285396,138.26301 L23.4474718,138.294697 C25.4122606,138.812294 27.4404296,139.545891 29.4664859,139.767809 C31.3467676,139.972607 32.9228239,139.273249 34.6150775,138.617852 L34.6171479,138.615908 C38.1812535,135.460427 39.7995634,130.865671 40.995338,126.228434 C44.0946338,114.228176 43.7101268,101.77119 41.9523803,89.5952994 C41.0354789,83.2336556 39.789,76.9269628 38.5467465,70.6223836 C37.9256197,67.4711507 37.2559014,64.3262583 36.7002676,61.1644579 L36.3702693,59.3036177 C36.1881747,58.2698175 36.0120634,57.2351918 35.8615352,56.1956125 C35.6587183,54.7985871 35.5974507,53.4248102 35.5277324,52.0193307 C33.8206901,49.1893292 31.3425211,46.8581354 28.4713944,45.1863546 C26.4157606,43.9879984 24.2397042,43.1573918 21.9939296,42.5550434 C15.5734859,40.8240845 8.57419014,40.9466677 2.11362676,39.6151609 C-0.0567345377,39.1683847 -2.11691718,38.5050325 -4.17600729,37.7101876 L-4.45679577,37.6009926 C-5.40116197,37.2332431 -6.36454225,37.0282333 -6.83355634,38.1420493 C-7.16735915,38.9346129 -6.96876761,39.7588791 -6.46806338,40.4246325 C-5.24059859,42.0562568 -2.77299296,42.8128908 -0.915950704,43.4004446 C0.20165493,43.7555131 1.3425,44.036609 2.49602113,44.2458458 C3.64954225,44.4550826 4.80728873,44.5079202 5.91433099,44.9158262 C6.34109155,45.0722254 6.42559859,45.7506599 5.91433099,45.8709182 C4.51151408,46.1987225 3.10024648,45.9176266 1.70588028,45.6449847 C0.174190141,45.3425425 -1.33426056,44.9137127 -2.80045775,44.3705425 C-3.07088028,44.2707851 -3.35076761,44.1656172 -3.63579296,44.0538484 L-3.85045775,43.9688924 C-3.62862676,44.1297299 -3.40679577,44.2882427 -3.18285211,44.4467554 C-3.12369718,44.4888141 -3.15961268,44.6008297 -3.23778169,44.5733542 C-6.68525341,43.2867506 -9.82204081,40.9652861 -12.2520817,38.2185718 L-12.372993,38.0808845 C-13.2286268,37.1000078 -15.1786268,34.1326497 -16.8222887,34.9590294 C-18.3657254,35.7340932 -15.7347034,38.7218626 -14.7348355,39.9433943 L-14.6187254,40.0865566 C-13.4821056,40.1161456 -12.3814014,40.8239577 -11.4602746,41.3946035 C-9.86097887,42.3860477 -8.18985211,43.2399029 -6.48703521,44.0385957 C-3.10252817,45.6300634 0.491133803,46.7525448 3.83972535,48.4241143 C3.88409155,48.4475742 3.85028873,48.5044274 3.80803521,48.4982982 C1.67634507,48.1578129 -0.432105634,47.6146427 -2.49196479,46.9406466 L-2.5838662,46.9118237 L-2.67576761,46.8812571 C-3.96238732,46.4585566 -5.23210563,45.9811162 -6.48069718,45.4715507 C-7.86872535,44.9053432 -9.22506338,44.2691789 -10.5412606,43.5484744 C-11.7328099,42.8975155 -13.0553451,41.7245213 -14.4370352,41.5512141 C-14.5849225,41.5321926 -14.7159085,41.5298677 -14.829993,41.5406466 C-16.4165915,41.6736916 -15.1046197,44.3028892 -14.6609577,45.0891123 C-13.9363099,46.3804626 -13.061662,47.5724783 -12.0581408,48.6609323 C-10.0236338,50.8716564 -7.55814085,52.6237503 -4.88983099,53.9869597 C-3.97926761,54.4519303 -3.04757746,54.8619499 -2.10109859,55.2381534 Z" id="ðŸ–-Ink" fill="#000000"></path>
                    </g>
                    <g id="head/Cornrows-2" transform="translate(78.591549, 38.043053)" fill-rule="evenodd">
                        <path d="M32.5378042,12.5408519 L34.362507,14.7117558 C33.3521104,15.4240455 32.3983252,16.1397668 31.5011513,16.8589197 L31.500317,16.85676 C35.6561266,14.1442521 40.2586953,12.5408519 45.2307527,12.5408519 C54.8071453,12.5408519 74.2589814,20.7701859 78.65622,26.7060067 C80.8384203,29.6517532 84.8936105,38.6949361 86.9971217,48.5264802 C88.6872626,56.4259836 91.201055,78.7432573 88.6872626,87.1290694 C85.470031,97.8614988 74.8852981,107.780946 63.9711488,107.780946 C53.0569995,107.780946 36.1125435,99.8984542 24.0528815,82.6244143 C23.5014375,81.8345359 17.1689361,80.9189519 12.6515,77.9542773 L13.8375512,91.0258609 L14.7389865,98.629713 L14.5400611,99.1708711 C11.304651,107.924343 8.7407885,112.491062 6.84847363,112.871028 C4.91754009,113.258748 0.985183677,110.092277 -4.94859562,103.371615 L-5.70679734,100.187966 C-7.63263214,92.0667247 -8.59554954,87.7074622 -8.59554954,87.1101782 L-8.59421906,87.0013895 C-8.5658293,85.6269384 -8.09252043,77.8473911 -8.08276752,75.7538479 L-8.08261466,44.3759319 C-1.7010369,23.1525452 4.38877181,12.5408519 10.1868115,12.5408519 L32.5378042,12.5408519 Z" id="Path" fill="#FFFFFF"></path>
                        <path d="M17.4167324,5.31300822 C19.293,4.58596321 21.4667324,4.7233409 23.2477183,5.81813542 C26.7444085,5.66807671 30.2218732,7.71394755 32.0449014,10.7003272 C32.0829296,10.7425973 32.1232817,10.7848673 32.1591972,10.8271374 L32.5455664,11.277628 C32.9114357,11.7078209 33.2973239,12.1819773 33.603,12.6715914 C32.1055352,12.7058301 30.858,13.3164211 29.9871549,14.5496501 C29.3658194,15.4295934 30.789173,16.2657784 31.4242502,15.4335183 L31.4465915,15.4030826 C31.9694789,14.6627225 32.7587746,14.3759202 33.6374366,14.3609143 C33.8896901,14.3566873 34.0810986,14.2601002 34.2163099,14.1176501 C34.2701831,14.3139945 34.3183521,14.5124524 34.362507,14.7117558 C38.7868732,12.9903076 43.5564507,12.534425 48.3068028,12.9427538 C48.098493,13.2800689 47.9244085,13.6414779 47.7904648,14.0212744 C47.6385634,14.4517949 47.9626479,14.9461432 48.3807465,15.0611178 C48.8328526,15.1853984 49.2415376,14.9203232 49.4051241,14.5106901 L49.4201831,14.4706051 C49.6027183,13.9532196 49.9008169,13.5091726 50.3009577,13.164883 C52.5372254,13.4681706 54.7576479,13.950472 56.9237746,14.5722646 C59.5272254,15.3202333 62.106169,16.2330552 64.6282817,17.2781824 C64.2010986,17.4457832 63.8320141,17.7289926 63.5736338,18.2017832 C63.0578063,19.145505 64.4759417,19.9907988 65.0140103,19.0885895 L65.0330704,19.0552157 C65.0858404,18.9584642 65.1326009,18.9002881 65.1668234,18.8671794 L65.1790563,18.8559123 L65.2534225,18.8216736 L65.3920141,18.7819397 L65.3920141,18.7819397 L65.445225,18.7688723 C65.4921712,18.7582923 65.5116728,18.7589676 65.6351831,18.7521393 C65.7995493,18.7428399 65.9641268,18.7436853 66.1287042,18.743474 C66.5157465,18.7432626 66.7627183,18.527474 66.8744789,18.2514505 C68.1190563,18.8134309 69.3477887,19.4052117 70.5547606,20.0251022 L70.8417042,20.173702 C74.5672264,22.1210102 78.0966972,24.6782959 80.1441972,28.4410708 C80.2796197,28.6925777 80.321662,28.9673331 80.2880704,29.2294074 C80.7251831,29.7535562 81.1477183,30.2946129 81.5533521,30.8441237 C82.7913803,32.526472 83.6977183,34.4391922 84.5554648,36.3350043 C86.2815211,40.1477636 87.443493,44.0640845 88.349831,48.1473722 C89.2268028,52.0827147 89.934338,56.0603272 90.5915915,60.0379397 C91.3202535,64.4572744 91.9265915,68.9146521 92.0535634,73.3973918 C92.277507,81.3885464 90.7160282,89.426198 86.2308169,96.1534779 C82.2296197,102.155826 76.2042676,106.921775 69.0589859,108.447724 C61.7913803,109.999036 54.1012394,108.485768 48.3739859,103.641619 C47.4505352,102.861736 47.577507,101.287177 48.3739859,100.488272 C49.2760986,99.5879202 50.6068732,99.7126168 51.5258873,100.488272 C56.9195493,105.051325 64.7702535,105.755122 71.2690563,103.430268 C77.277507,101.278723 81.984338,96.3162176 84.8723662,90.7429104 C88.3963099,83.9458849 88.9901831,76.1386051 88.4491268,68.6187616 C88.1535634,64.4889769 87.5385634,60.3930082 86.9047606,56.30338 L86.5221979,53.8416468 C86.1048086,51.1752613 85.6663223,48.5125109 85.0944085,45.8732431 L84.9605282,45.2583495 C84.2615417,42.0756431 83.4428015,38.8113252 82.1768028,35.8193096 C81.5132113,34.2489769 80.714831,32.7357088 79.8972254,31.2414622 C79.7387746,30.9519123 79.5758873,30.6581354 79.4089859,30.362245 C79.1850423,30.4404446 78.9294085,30.4531256 78.6610986,30.3685855 C76.3519437,29.6499945 73.9794085,29.1681159 71.564831,29.0074896 C70.4647606,28.9339397 69.363,28.9225268 68.262507,28.9654309 C66.3786338,28.8557401 64.4421549,29.0214387 62.6476479,29.5992705 C62.4720845,29.4485777 62.2941972,29.3010552 62.1160986,29.1535327 C62.0681408,29.1497284 62.0201831,29.144656 61.9720141,29.1351452 C61.5141972,29.04511 61.1922254,28.7196305 60.9982817,28.3085542 C60.9881408,28.2867851 60.9790563,28.265016 60.9703944,28.243247 C60.7407465,28.0676149 60.5091972,27.8947303 60.2755352,27.7241706 C59.7059577,27.8719045 59.2069437,27.3978458 59.0725775,26.8783468 C58.9458169,26.7927499 58.8169437,26.7099006 58.6889155,26.6259945 C58.5885634,26.6505112 58.4888451,26.6708008 58.391662,26.6779867 C57.9722958,26.7082098 57.5672958,26.6439593 57.1956761,26.4438106 C56.7251831,26.1904016 56.4245493,25.7816501 56.2234225,25.3173135 C55.5118732,25.361063 54.7918732,25.1300571 54.1557465,24.712429 C53.6394085,24.3736344 53.2439155,23.9059162 52.8507465,23.4390434 C48.0596197,21.3012352 42.8514507,20.0390513 37.6310282,19.7156853 C37.1168028,19.8145973 36.606169,19.9323194 36.1018732,20.0692744 C35.982507,20.1018223 35.8130704,20.1656501 35.6180704,20.2421589 C36.7819437,20.1013996 37.9608169,20.0874505 39.1563803,20.259701 C44.8297606,21.0803742 49.2484225,25.3297832 53.0514507,29.3410004 C53.9560986,29.1581824 54.8704648,30.3301198 54.0332113,31.106198 L47.5056761,37.1573683 L47.5056761,37.1573683 C47.6658169,37.8341119 46.8900423,38.5011335 46.2103944,38.3386051 C45.0708169,38.0646951 43.929338,37.7983937 42.7870141,37.5365307 C41.5954648,38.1133057 40.0973662,38.0146051 39.0165211,37.1785033 C38.9662394,37.1396149 38.8570141,37.0774779 38.7621549,37.0157636 C38.6734225,37.0891022 38.5540563,37.1626521 38.5065211,37.1939319 C38.1222254,37.4483977 37.6540563,37.5232157 37.2051127,37.4517793 C36.7432817,37.3784407 36.3264507,37.1440532 35.9670845,36.8521785 C35.7383021,36.6662584 35.2052153,35.8904929 34.9085487,35.833358 L34.8796901,35.8300885 C35.0776479,35.8357949 34.4413099,36.4273644 34.2703944,36.5497362 C33.8715211,36.834425 33.4306056,36.9840611 32.934338,36.9295327 C32.0694032,36.8343299 31.3257734,36.04577 30.9027888,35.3176452 L30.8708873,35.2617675 L30.8575775,35.2271061 L30.8463412,35.2646012 C30.8442441,35.2712313 30.8418732,35.2783233 30.8389859,35.2862841 C30.7756056,35.4576892 30.5765915,35.6525542 30.4413803,35.7723898 C30.0560282,36.1132978 29.5789859,36.2631452 29.0694085,36.1741667 C28.6380951,36.099074 28.2754225,35.8383877 27.9839267,35.5229388 L27.938493,35.4726951 C27.8522446,35.3753459 27.284053,34.6116373 27.373755,34.4286151 L27.3841268,34.4131961 L27.3558169,34.4072783 C27.0101831,34.4922411 26.7201127,34.4070669 26.5075775,34.2288986 C25.3215211,33.9689378 24.1508873,33.6660728 23.0176479,33.2809926 C22.9289155,33.5303859 22.8420845,33.7797793 22.7577887,34.0312861 C23.3765915,34.4138301 23.9491268,34.9591139 24.4751831,35.3479984 C25.4725775,36.0834975 26.4695493,36.8189965 27.4646197,37.556609 L31.4072958,40.4660571 L31.4072958,40.4660571 L31.8581408,40.3449534 L31.8581408,40.3449534 C32.4342852,40.1902274 32.9285552,40.5257411 33.1400093,41.0386021 L33.1574366,41.0829886 C33.2413099,41.307654 33.3422958,41.5154114 33.4610282,41.714292 C34.4465915,41.6749808 35.2810986,42.2802881 35.5508873,43.1485151 C35.7942676,43.14302 36.0401831,43.1523194 36.2915915,43.1800063 C36.9800986,43.2556415 37.4442033,43.767123 37.3195298,44.4694626 L37.3101127,44.5176423 L37.2934225,44.5958419 C37.692507,44.7653448 37.9819437,45.0927264 38.046169,45.5877088 C38.1530704,45.7485464 38.2392676,45.9235444 38.2944085,46.1184094 C38.5823933,47.1295309 38.022158,48.3794268 37.7237415,49.3480515 L37.7007465,49.423928 C37.5092113,50.0605151 37.3109831,50.6940587 37.1104428,51.327298 L36.6109175,52.8994962 C35.225825,57.2812452 33.8754056,61.9010886 34.9963099,66.4946912 C35.2352535,67.4669025 33.9927887,67.9065112 33.4540563,67.1456501 C32.148,65.3035209 30.7369437,63.567701 29.2553239,61.9014153 L29.183493,61.8900023 L29.183493,61.8900023 C28.1459577,61.6813996 27.7430704,60.9482254 27.2668732,60.2008908 C26.9863099,60.2835288 26.6846197,60.302973 26.3930704,60.2467538 C25.9709577,60.165384 25.5927887,59.9242333 25.2942676,59.6196775 C25.0413803,59.3614074 24.8096197,58.6990356 24.5106761,58.5348164 C24.1367324,58.3295953 23.3850423,58.6229495 22.9384225,58.5570082 C22.5752535,58.5035366 22.236169,58.3788399 21.9072254,58.2222294 C21.3025775,59.0467068 20.9018028,60.0159593 20.8035634,61.0608751 C20.7653239,61.4582137 20.6470141,61.7942607 20.4758873,62.0732431 C21.1054648,62.0499945 21.7371549,62.0943781 22.3606056,62.2106207 C24.6676479,62.6396618 26.3218732,64.0641628 27.2514507,66.1861198 C27.2913803,66.2791139 27.1709577,66.3552 27.1160282,66.2664329 C25.736662,64.1423624 22.734338,64.0345738 20.5540563,64.7827538 C18.2385634,65.5774309 16.9392676,67.6169613 16.4768028,69.943928 C15.9697606,72.494926 16.6202535,75.2445933 18.008493,77.4172744 C18.6526479,78.4275288 19.5317324,79.349016 20.699831,79.7209926 C22.0880704,80.1627147 23.3702535,79.3722646 24.7920845,79.7801706 C25.7596901,80.0570395 26.186662,80.9933213 26.0110986,81.9296031 C25.9413803,82.2973526 25.812507,82.6186051 25.6392676,82.8975875 C26.1507465,83.9120689 26.6237746,84.9561393 27.2258873,85.9156697 C28.1554648,87.3972352 29.2796197,88.6230669 30.5047606,89.8594661 C31.7702535,91.1360219 33.0589859,92.3872157 34.4132113,93.5707773 C35.7106056,94.7057284 37.1979296,95.5130865 38.558493,96.5529299 C39.5134225,97.2820885 39.9864507,98.3050239 39.5153239,99.4759045 C39.1268028,100.443889 37.8167324,101.268155 36.756169,100.83066 C34.7258873,99.9937127 32.9491268,98.5692117 31.3310282,97.1024407 C29.8310282,95.7413448 28.5251831,94.1139476 27.5385634,92.3470591 C26.6078366,90.6812806 25.9220478,88.7895569 25.3434397,86.9673307 L25.271662,86.7399358 C24.9991268,85.8733996 24.7120141,84.8990748 24.5260986,83.9162959 C23.4127183,84.5249847 21.9019437,84.6137519 20.7106056,84.4488986 C18.7857465,84.1847108 17.0301127,83.2146129 15.7033521,81.8006795 C15.0849718,81.142746 14.5384225,80.3922411 14.0664507,79.5787538 C14.109338,80.0739476 14.1349014,80.5530787 14.1623662,80.9890943 C15.2653944,82.1975953 15.7077887,83.9416579 15.3163099,85.5329143 C16.2391268,86.4831452 16.4977183,87.9095483 16.0160282,89.1239671 C17.0260986,90.1261902 16.9880704,91.7210395 16.5513803,93.1694231 C17.7454648,94.5045229 17.858493,96.5844211 16.926169,98.090926 L16.8980704,98.1991374 L16.8980704,98.1991374 C17.8394789,99.7749652 17.6271549,101.811537 16.4476479,103.203067 C17.2532113,104.766214 17.1285634,106.868726 15.1153944,107.475302 C14.381662,107.696163 13.6705352,107.507638 13.1383521,107.096351 C13.6242676,109.513987 13.841662,111.968398 13.1937042,114.397235 C12.9357465,115.360993 11.993493,116.064789 11.0026479,116.064789 C10.1744789,116.064789 9.5723662,115.648429 9.15638028,115.035513 C9.20497183,116.255004 9.13102817,117.480836 8.87116901,118.717235 C8.71440845,119.463936 8.02208451,120.046206 7.28708451,120.226488 C7.55222535,120.525548 7.65785915,120.958182 7.40370423,121.40857 C6.32602817,123.317063 3.72215493,122.525556 3.54616901,120.697165 C2.81074648,120.148077 2.46891549,119.246456 2.3273662,118.272343 C2.12116901,116.851646 2.04638028,115.454409 1.81271831,114.051889 L1.72339124,114.135474 L1.72339124,114.135474 L1.67729577,114.175317 L1.66250704,114.276766 C1.52856338,114.969995 1.13771831,115.455466 0.630464789,115.745016 C0.740746479,116.954362 0.536661972,118.185901 -0.230239437,119.104218 C-0.741084507,119.716288 -1.61129577,119.957227 -2.35728169,119.824499 C-2.4041831,119.826824 -2.45214085,119.826613 -2.502,119.820061 C-4.19150704,119.595396 -5.16904225,117.992304 -4.72432394,116.520883 C-5.40460563,115.686895 -5.69108451,114.628664 -5.48974648,113.582903 C-6.80615493,112.710871 -6.77932394,110.795615 -6.32340845,109.257196 C-7.70340845,108.167685 -8.22249296,106.130903 -7.52911268,104.512171 C-8.77284507,102.966989 -8.94587324,100.813752 -8.10080282,99.0542607 C-9.4691831,97.9296658 -9.4613662,95.7584642 -8.1041831,94.6082959 C-8.82692958,93.173016 -9.26277465,91.4532587 -8.5404507,90.1397166 C-9.05002817,89.5771022 -9.32974648,88.7752391 -9.27080282,88.000429 C-9.18439437,86.862519 -8.43185915,86.0762959 -7.49805634,85.5523585 L-7.43340845,85.1964446 L-7.43340845,85.1964446 C-7.21411268,85.2237088 -6.9804507,85.1624172 -6.77446479,84.9645933 C-6.57059155,84.7686716 -6.36080282,84.610793 -6.14383099,84.4806012 C-5.89812676,84.4774309 -5.68664789,84.3679515 -5.53791549,84.1995053 C-5.13101408,84.0612822 -4.69347887,84.000202 -4.20819718,83.9947068 C-3.16009859,83.9832939 -3.12312676,82.4152861 -4.0985493,82.3136266 C-4.25256338,82.1582841 -4.46467606,82.060429 -4.69474648,82.060429 L-4.87490163,82.0611542 C-5.29610321,82.0651678 -5.72134859,82.0911276 -6.11214085,82.2586755 C-6.36608451,82.3673096 -6.56192958,82.5311061 -6.70538028,82.7314661 C-6.73221127,83.0345425 -6.897,83.3367734 -7.25383099,83.5863781 C-7.66601408,83.8746599 -8.22967606,83.9082646 -8.67080282,83.6474583 C-9.28833803,83.282245 -9.29467606,82.7122333 -9.22347887,82.0925542 C-9.06756338,80.7369534 -9.84671831,79.4612431 -9.66122535,78.0743624 C-9.57904225,77.4612352 -9.37495775,76.9318027 -9.04221127,76.5042411 C-9.74383099,75.4536188 -9.8676338,74.097384 -9.32742254,72.9440454 C-10.4528451,71.7327969 -10.6474225,69.8657284 -9.92974648,68.4080454 C-9.91939437,68.3727499 -9.9113662,68.336609 -9.90016901,68.3017362 C-9.81904225,68.0540337 -9.70728169,67.8306364 -9.58411268,67.6169613 C-10.2141127,66.5251256 -10.2094648,65.1853761 -9.56911268,64.0981902 C-10.5390423,62.9670434 -10.5698873,61.166973 -9.70728169,59.9483272 C-9.70221127,59.8473018 -9.69164789,59.7462763 -9.68298592,59.6452509 C-10.0789014,58.6170317 -9.98383099,57.4480532 -9.48164789,56.4919045 C-9.66080282,56.0787147 -9.79897183,55.6338223 -9.88728169,55.159975 C-10.1135493,53.9383703 -9.99714085,52.7505816 -9.65911268,51.5585659 C-9.60439437,51.3704642 -9.54312676,51.1823624 -9.4776338,50.9942607 C-9.46664789,50.1778145 -9.43559155,49.3649613 -9.39460563,48.5535875 C-9.55524824,47.8667519 -9.58115163,47.1119539 -9.58469284,46.4112427 L-9.58570604,45.9568666 C-9.5935734,44.8005422 -9.67413615,43.1074474 -8.94333803,42.1245229 C-9.41256338,41.062699 -9.21967606,39.7248517 -8.43650704,38.8832548 C-8.98622535,37.9374622 -9.10157746,36.7760924 -8.54911268,35.7267382 C-8.46038028,35.5578693 -8.35749296,35.4006247 -8.24467606,35.2518341 C-8.29030986,34.2908243 -8.08812676,33.2998027 -7.57622535,32.3447108 C-7.24369014,31.7229182 -6.747,31.184609 -6.15650704,30.7538771 C-6.16643662,30.6264329 -6.17256338,30.4992 -6.1704507,30.3738693 C-6.16009859,29.8146364 -6.03608451,29.2530787 -5.82735211,28.7291413 C-6.20192958,28.0895953 -6.37559155,27.3686795 -6.15650704,26.5917558 C-5.91143662,25.7125386 -5.26685915,24.9559045 -4.46214085,24.5289769 C-4.39728169,23.7000611 -4.26777465,22.8760063 -4.08270423,22.0629417 C-4.57728169,20.9611726 -4.18347887,19.5070826 -3.06566197,18.8580258 C-3.21143662,17.9775405 -3.08002817,17.0645072 -2.43946479,16.3767734 C-2.19671831,16.1161785 -1.91066197,15.9185659 -1.60284507,15.7875288 C-1.75115493,14.9021824 -1.58383099,13.9811178 -0.971788732,13.260202 C-0.471929577,12.6715914 0.268774648,12.3139867 1.02257746,12.2613605 C1.31285915,10.7214622 2.78349296,9.57002583 4.33504225,9.66175186 C4.52898592,8.98374012 4.99229577,8.39259335 5.71102817,8.09289863 C5.89504225,8.01617847 6.08095775,7.96566575 6.26623944,7.93755616 C7.52792958,6.664382 9.40630986,5.80143875 11.0324366,5.35950528 C12.6635684,4.91798446 14.3170475,4.87524713 15.7175304,5.38858164 L15.8195493,5.42713738 L15.9336338,5.41234286 C16.4282113,5.35739178 16.9223662,5.32568924 17.4167324,5.31300822 Z M5.02166197,109.664257 C4.58602817,109.528359 4.10011268,109.825094 3.98201408,110.254558 C3.8573662,110.708539 4.13497183,111.158292 4.57229577,111.294613 C5.11715493,111.464539 5.68947887,111.50702 6.2573662,111.507443 C6.71391549,111.507865 7.10243662,111.118558 7.10243662,110.662041 C7.10243662,110.2032 6.71560563,109.817063 6.2573662,109.81664 C5.79553521,109.816218 5.4545493,109.79931 5.02166197,109.664257 Z M1.14638028,100.686307 C0.495042254,100.686942 -0.0635492958,100.842495 -0.546507042,101.299012 C-0.868478873,101.603568 -0.876507042,102.191756 -0.546507042,102.494832 C-0.213199611,102.800722 0.270379629,102.818559 0.612529374,102.52723 L0.678422535,102.468123 C0.68634507,102.46091 0.692471831,102.455204 0.69743662,102.450449 C0.724901408,102.432695 0.752577465,102.414519 0.781732394,102.399302 L0.726610285,102.435335 C0.684655546,102.46565 0.781995771,102.416159 0.836581004,102.392773 L0.853774648,102.385775 L0.859267606,102.384507 L0.903,102.381126 C0.983915493,102.376899 1.06525352,102.37711 1.14638028,102.37711 C1.58835211,102.376687 2.01173239,101.988648 1.9914507,101.531708 C1.97074648,101.073924 1.62004225,100.685885 1.14638028,100.686307 Z M13.437507,95.3226599 C14.3522606,94.7615223 13.5351933,93.3262943 12.6178187,93.8431167 L12.5846197,93.8626521 C12.114338,94.1513566 11.5358873,94.1122568 11.0030704,94.1124681 C9.91567606,94.1131022 9.91377465,95.8039045 11.0030704,95.8032708 L11.1831083,95.8026058 C11.9641893,95.7966129 12.7542223,95.7420543 13.437507,95.3226599 Z M6.23856338,89.1514427 C5.54745145,89.0212954 4.77328852,88.905185 4.04612994,88.9844337 L3.92539437,88.9994818 L3.70166197,88.9994818 C3.50729577,88.9994818 3.31905634,89.0776814 3.168,89.2006873 C2.92884507,89.3000219 2.7023662,89.4331726 2.49574648,89.6121863 C1.67243662,90.3263389 2.87222535,91.5179319 3.69088732,90.8080063 C3.73635211,90.7684415 3.78911831,90.7359105 3.84777972,90.7092228 L3.89285915,90.6902841 L4.79687324,90.6902841 C4.87905634,90.6902841 4.95912676,90.6731648 5.03708451,90.6484368 C5.33053521,90.6888047 5.60391549,90.746926 5.78919718,90.7817988 C6.85229577,90.9819476 7.30778873,89.3526481 6.23856338,89.1514427 Z M5.46680282,72.9239671 C4.14215493,72.3093605 2.67511268,72.3137988 1.44997183,73.1672313 C0.573922121,73.7775314 1.38768108,75.2167604 2.27127526,74.6483962 L2.30285915,74.6272391 C2.41271831,74.5507303 2.52553521,74.4866912 2.63961972,74.4285699 C3.26159155,74.608429 3.88763798,74.6168936 4.48893767,74.3957405 L4.56722535,74.3655875 L4.61391549,74.3837636 C5.59419718,74.8385894 6.4536338,73.3817519 5.46680282,72.9239671 Z M19.8915423,70.2747546 C18.5533732,70.1246959 18.5425986,68.0099249 19.8915423,68.1612517 C22.7396408,68.4808133 25.3238662,69.7474356 27.2166127,71.9226528 C28.0969734,72.9343134 26.6471756,74.4143414 25.7502985,73.4477875 L25.7227394,73.4171108 C24.217669,71.68742 22.1865423,70.5321793 19.8915423,70.2747546 Z M4.9001831,59.4172039 C4.60271831,59.384656 4.30588732,59.368382 4.01370423,59.3825425 C3.31187324,59.4163585 2.45708451,59.8847108 2.76511268,60.7309573 C3.01208451,61.4089691 3.82166197,61.4358106 4.22138028,61.0741902 C4.38764789,61.0782059 4.55370423,61.0891961 4.71912676,61.1061041 C5.16046479,61.1515444 5.59757746,61.2356618 6.03257746,61.3214701 C7.09504225,61.5304955 7.54990141,59.9011961 6.48194366,59.6909025 L6.0095757,59.5974065 C5.85041197,59.5662587 5.68979577,59.5357714 5.52849296,59.5078732 C5.43197384,59.4598665 5.32846996,59.4275428 5.21784827,59.4192872 L5.16194366,59.4172039 L4.9001831,59.4172039 Z M-3.49664789,46.2997479 L-3.59591152,46.2862892 C-5.02302039,46.1036364 -7.31389169,46.2717064 -7.48707042,48.0890395 C-7.58277465,49.0954896 -6.12925352,49.1586834 -5.84235211,48.298065 C-4.7885493,48.1080611 -3.72608451,48.0717088 -2.67946479,48.1871061 C-2.28016901,47.7813135 -2.277,47.0012196 -2.94164789,46.8065659 C-3.0354507,46.5542137 -3.23129577,46.3380023 -3.49664789,46.2997479 Z M29.1241268,43.2303076 C28.794338,42.9274427 28.253493,42.8872861 27.9289859,43.2303076 C27.7420141,43.4277088 27.5858873,43.6470904 27.4622958,43.8884524 L27.3800579,44.051427 C27.3661221,44.0784798 27.3518732,44.1053683 27.3370141,44.131928 C27.309338,44.1811726 27.2782817,44.2280924 27.2480704,44.2758575 L27.2277359,44.2958301 C27.2196549,44.30402 27.2101479,44.3139006 27.1988451,44.3259476 C26.894831,44.6474114 26.856169,45.2068556 27.1988451,45.5215562 C27.5286338,45.8244211 28.0692676,45.8645777 28.3939859,45.5215562 C28.5807465,45.324155 28.7368732,45.1049847 28.8606761,44.8634114 L28.9427574,44.7005933 C28.956662,44.6735718 28.9708873,44.6467068 28.9857465,44.6201472 C29.0134225,44.5706912 29.0446901,44.5237714 29.0746901,44.4760063 L29.108351,44.4424214 C29.1131805,44.4374216 29.1184225,44.4319397 29.1241268,44.4259162 C29.4281408,44.1046638 29.4665915,43.5450082 29.1241268,43.2303076 Z M11.7946901,41.0286716 C10.6039859,40.1845386 9.18807042,40.1452274 8.09349296,41.1607656 C7.30356092,41.8937702 8.46415434,43.0681942 9.26067621,42.3813909 L9.2886338,42.3563742 C9.31757746,42.3293213 9.34694366,42.3056501 9.37609859,42.2830356 C9.51891549,42.4047734 9.70039437,42.4819162 9.90785915,42.4821276 C9.96208451,42.4822685 10.016216,42.4821276 10.0703161,42.4832705 L10.1514507,42.4861432 L10.1949718,42.4897362 L10.2004648,42.490793 L10.2384768,42.5069558 C10.3079748,42.5383196 10.4038879,42.5867276 10.2722958,42.5043194 C10.301662,42.5197479 10.3291268,42.5379241 10.3570141,42.5556775 L10.4056056,42.5998497 C10.7241972,42.9012352 11.2753944,42.9409691 11.591662,42.6076697 C12.1517324,42.4182998 12.4489859,41.4921628 11.7946901,41.0286716 Z M23.4361044,38.2589808 L23.4577183,38.2521628 C24.5018028,37.9539476 24.0579296,36.3221119 23.0083521,36.6215953 C21.8947606,36.9396775 21.363,37.9763507 21.1403239,39.0381746 C21.0467324,39.4847577 21.2713099,39.9520532 21.7306056,40.0782294 C22.1501831,40.1934153 22.6760282,39.9366247 22.7702535,39.4877166 C22.8363227,39.1720362 22.9125187,38.9042152 23.0331269,38.6556713 L23.1061189,38.5137953 C23.1402607,38.4491273 23.152165,38.4383926 23.2673662,38.3377597 C23.2867089,38.3208517 23.3746588,38.2798967 23.4361044,38.2589808 Z M5.75180282,29.7434114 L5.58850429,29.7061522 C4.57135229,29.483256 3.22132686,29.3668544 2.60708451,30.3755601 C2.04722535,31.2945112 3.4595493,32.1310356 4.04116901,31.2623859 C4.05004225,31.2621041 4.06023005,31.262198 4.07210798,31.2631687 L4.09123944,31.2653448 L4.35194366,31.2442098 C4.67666197,31.2418849 4.98743662,31.2993722 5.30243662,31.3739789 C6.36004225,31.624429 6.81152113,29.9944955 5.75180282,29.7434114 Z M42.2664507,23.2435444 C43.0365211,22.4731726 41.8418028,21.2771413 41.0715211,22.0481472 C40.4624366,22.6574701 39.8749014,23.27102 39.4789859,24.0451961 C39.2713099,24.4514114 39.3729296,24.9624564 39.7821549,25.2019162 C40.1596901,25.4227773 40.7296901,25.3065346 40.9384225,24.8986286 C41.2815211,24.2275914 41.7146197,23.7960141 42.2664507,23.2435444 Z M32.5494085,21.2213448 C31.7886338,21.6719436 31.296169,22.4142059 30.9972254,23.2733448 C30.8472254,23.7044994 31.1681408,24.1980023 31.587507,24.3131883 C32.0381805,24.4370593 32.449993,24.1729631 32.6120477,23.7628151 L32.6269437,23.7226755 C32.7070141,23.4929378 32.8350423,23.221564 32.9932817,23.0167656 C33.128493,22.8419789 33.3387042,22.6669808 33.4971549,22.6088595 C33.8780704,22.4689456 34.1480704,22.1235992 34.1127887,21.7203429 C33.4863803,21.9369769 32.9047606,21.676382 32.5494085,21.2213448 Z M9.77539437,17.5438497 C9.00785915,16.8311765 7.97814085,16.7367029 7.04771831,17.1680689 C6.63342254,17.359975 6.52969014,17.9574622 6.7445493,18.324789 C6.993,18.7498145 7.48504225,18.8208282 7.90060563,18.6280767 C7.79391549,18.6775327 7.98659155,18.6122254 8.06983099,18.5883429 C8.08047887,18.5932885 8.21998521,18.5869353 8.26810986,18.5876181 L8.32599296,18.5912753 C8.32646831,18.5916716 8.31226056,18.5914074 8.28342254,18.5904564 C8.32398592,18.5996149 8.36407981,18.6105581 8.40357903,18.6231609 L8.45393277,18.6406002 C8.42856019,18.6353159 8.54273559,18.7097653 8.57448977,18.7344843 L8.58025352,18.739247 C9.37673239,19.4787616 10.574831,18.2859006 9.77539437,17.5438497 Z" id="ðŸ–-Ink" fill="#000000"></path>
                    </g>
                    <g id="face/Angry-with-Fang" transform="translate(112.183099, 77.354207)" fill="#000000" fill-rule="evenodd">
                        <path d="M41.5240986,39.2929573 C41.8366672,38.8844853 42.5971776,40.6626772 42.7523233,40.880086 L42.7598028,40.8899202 C43.4367042,41.7093252 43.9893803,42.9641119 44.0675493,44.0162137 C44.0698732,44.0477049 44.0698732,44.0781393 44.0698732,44.1085738 C45.1549437,43.9595718 46.2402254,43.8078223 47.3250845,43.6412783 C47.744662,43.3257323 48.3317746,43.4235875 48.8998732,43.7108125 C50.1668451,44.3505699 49.5501549,46.3831256 48.1851549,46.3505777 C44.4943099,46.262656 40.724662,46.7367147 37.064662,47.1634309 C35.1818451,47.3830239 33.3030423,47.6159319 31.4303662,47.9137245 C29.6808592,48.1916501 27.8920563,48.5843389 26.1214225,48.6609301 C26.0248732,48.6648634 25.9845211,48.5209339 26.0715634,48.4761276 C27.6326197,47.6740532 29.4157183,47.1883703 31.1012113,46.7185386 C32.9250845,46.2102411 34.7624789,45.7330121 36.6127606,45.3301785 C38.2731127,44.9685581 39.9421268,44.6980297 41.6149437,44.4543429 C41.6020563,44.4215836 41.5895915,44.3881902 41.5790282,44.3531061 C41.3668658,43.6409799 41.3723514,42.8240123 41.3270551,42.0736498 L41.3008223,41.6753284 C41.2596038,40.9889927 41.2183564,39.692973 41.5240986,39.2929573 Z M36.0875289,30.5120405 C37.6828906,31.482148 40.1137318,33.7442494 38.3974899,36.149264 C36.3773089,38.2698449 33.4687045,35.8384541 32.0353946,34.7388307 C30.7063626,33.8866164 29.2131206,36.0784478 30.4461973,37.0735516 C40.8033244,44.7445605 45.006466,30.7657101 36.8944406,29.3714319 C36.0012775,29.2177885 35.6695544,30.2119271 36.0875289,30.5120405 Z M10.4369577,21.973456 C13.0915352,21.5682975 15.8107606,21.5218004 18.4930141,21.6557965 C19.8875915,21.7253307 21.2804789,21.8288924 22.6701972,21.9666928 C23.3956901,22.0387632 24.1205493,22.119499 24.8439296,22.2101683 C25.3628028,22.2752642 26.1639296,22.5724227 26.6570282,22.4371585 C28.1637887,22.0243914 29.5942817,23.4507945 29.1787183,24.960047 C28.7665352,26.4576751 27.0001268,26.8526888 25.8639296,25.953182 C25.3251972,25.7631781 24.7832958,25.5831076 24.2382254,25.4148728 C24.1966056,25.5867006 24.1355493,25.7566262 24.0493521,25.9208454 C23.9525915,26.1047202 23.8594225,26.289863 23.7711127,26.4777534 C23.7901268,26.4477417 23.6441408,26.7979491 23.6401268,26.8080939 L23.5233941,27.1130774 C23.3200339,27.63895 23.092119,28.1376782 22.5396338,28.4101292 C21.7801268,28.7846419 20.5885775,28.5781526 20.2816056,27.6845636 C19.8021036,26.7447845 20.1194539,25.4318004 20.3942619,24.4583241 L20.4155493,24.3834834 C17.102662,23.5953581 13.7348451,23.0044227 10.4369577,22.202771 C10.3292113,22.1765636 10.3182254,21.9916321 10.4369577,21.973456 Z M49.8368028,18.4383053 C50.0091972,18.0931703 50.4000423,18.0916908 50.6326479,18.4159022 C51.1496484,19.1356574 49.9917412,20.1664984 49.5085885,20.6454909 L49.4603239,20.6938356 C48.3741972,21.7962387 47.0495493,22.6847554 45.7363099,23.4880978 C45.4608169,23.656544 45.1810986,23.8171703 44.9003239,23.9754716 C44.9522958,24.08009 44.9996197,24.1868219 45.0382817,24.2956673 C45.2370845,24.8574364 45.2408873,25.5284736 45.0617324,26.0961605 C44.6886338,27.2799335 43.6958873,28.225726 42.4084225,28.2244605 C41.7294085,28.2238239 40.9255352,27.5815303 41.0174366,26.8329276 C41.0501831,26.5664149 41.0770141,26.2827828 41.1177887,25.999362 C40.2122958,26.3007476 39.1003944,25.9475812 38.5244789,25.2008806 C37.7235634,24.1629393 37.9439155,22.4617808 39.1701127,21.8171624 C40.0718028,21.3433151 41.0670845,21.2236908 42.0437746,20.9732407 C43.0130704,20.7251155 43.9756056,20.4400039 44.9244085,20.121499 C45.8601127,19.8074325 46.7913803,19.4709628 47.721169,19.1385088 C48.1810986,18.9738669 48.636169,18.8221174 49.104338,18.6826262 C49.313493,18.6204892 49.6145493,18.4571155 49.8368028,18.4383053 Z" id="ðŸ–-Ink"></path>
                    </g>
                    <g id="facial-hair/*-None" transform="translate(104.577451, 109.479380)"></g>
                    <g id="accessories/*-None" transform="translate(88.521127, 88.978474)"></g>
                </g>
            </g>
        </g>
    </g>
</svg>