<?xml version="1.0" encoding="UTF-8"?>
<svg width="240px" height="324px" viewBox="0 0 240 324" version="1.1" xmlns="http://www.w3.org/2000/svg" xmlns:xlink="http://www.w3.org/1999/xlink">
    <!-- Generator: Sketch 62 (91390) - https://sketch.com -->
    <title>peep-88</title>
    <desc>Created with Sketch.</desc>
    <g id="Introduction" stroke="none" stroke-width="1" fill="none" fill-rule="evenodd">
        <g id="variations" transform="translate(-3006.000000, -1082.000000)">
            <g id="images" transform="translate(126.000000, 110.000000)">
                <g id="a-person/bust" transform="translate(2880.000000, 972.000000)">
                    <g id="body/Button-Shirt-1" transform="translate(31.056338, 135.052838)" fill-rule="evenodd">
                        <path d="M16.4080469,150.998477 C44.0090737,155.192513 72.110794,155.40344 99.9411735,153.88045 C110.955378,153.05555 122.003343,152.906971 133.008686,153.961609 C139.511795,154.445389 168.024536,156.625679 170.354143,150.798963 C168.887932,119.771683 165.918373,88.4802153 156.808619,58.6396673 C153.062173,48.0440431 149.844462,39.2498092 142.532393,30.4817309 C140.227895,28.0877661 135.258036,23.066896 132.410433,21.4293539 C129.943256,20.0109821 128.912083,20.5169872 127.495455,18.1211203 C126.087716,15.4744421 125.049395,11.0542733 123.050542,9.18669838 C121.015362,7.28518299 117.999252,7.96550545 114.260904,8.57796948 C114.947698,-0.706782862 110.663571,-3.07144814 104.761589,-4.83706849 C94.3873354,-8.79798434 84.1416866,-6.80813577 81.5306104,5.82575073 C76.6891883,5.82575073 73.969679,7.91000614 71.0296751,9.91267429 C69.8278494,10.7313324 70.6638845,12.8170749 69.2283592,13.4605183 C66.5723897,14.4065213 61.8789101,14.1748053 59.3216229,15.3390557 C47.6926933,20.6333321 37.3352039,28.3107799 30.5331777,39.5232446 C15.2838599,63.462047 4.80874987,113.889382 6.62141697,142.262313 C5.82722782,143.508223 6.92546228,145.294767 7.20461006,146.634517 C7.55697347,147.799902 8.69804013,148.575135 9.88890185,148.442618 C11.5507068,150.230431 14.1210607,150.628403 16.4080469,150.998477 Z" id="ðŸŽ¨-Background" fill="#FFFFFF"></path>
                        <path d="M130.652958,20.7275037 C130.483521,20.6330301 130.632676,20.3908227 130.802958,20.4709245 C138.988521,24.3124274 145.268028,31.0521769 149.686479,38.8393785 C154.261708,46.9026765 156.869352,56.0575559 159.117487,65.0054314 L159.198592,65.3287562 C161.595845,74.900811 163.634155,84.5717777 165.469225,94.2664157 C167.327746,104.083848 168.819507,113.96215 170.019507,123.881241 C170.613169,128.785625 171.142394,133.698674 171.555211,138.621656 C171.761408,141.081774 171.948803,143.543793 172.117183,146.00687 C172.184451,146.991931 172.247797,147.976993 172.302139,148.96292 L172.341127,149.702541 C172.374718,150.373367 172.454366,151.045883 172.288732,151.707621 C172.145704,152.278056 171.843803,152.794596 171.578239,153.318322 C171.053028,154.353515 169.613239,154.182956 169.047254,153.318322 L168.882895,153.066456 C168.50757,152.48615 168.195713,151.946843 168.077958,151.224686 C167.964085,150.525328 167.959859,149.792576 167.908732,149.086243 C167.814718,147.78665 167.734648,146.485789 167.64338,145.185774 C167.451761,142.44921 167.236479,139.714337 166.998169,136.981578 C166.526831,131.58665 166.021268,126.196584 165.400352,120.816451 C164.297113,111.254964 162.912676,101.718838 161.280634,92.2334372 C159.686042,82.9673753 157.670161,73.7953212 155.567146,64.6348007 L155.349296,63.6871984 C151.667113,47.6934763 145.992042,29.2747209 130.652958,20.7275037 Z M43.4654789,83.3553299 C43.5256901,83.1953378 43.7847042,83.1585628 43.8284366,83.3553299 C44.3798451,85.8389072 44.4343521,88.3968798 44.5186479,90.9396352 C44.6016761,93.4479405 44.5982958,95.9676587 44.5617465,98.4774434 C44.4269577,107.701404 44.1738592,116.917545 43.9549859,126.140027 C43.8455493,130.753169 43.7428732,135.366946 43.6640704,139.980723 C43.6342817,141.711207 43.6092465,143.441571 43.58843,145.172084 L43.5629676,147.454431 C43.5503059,148.463512 43.5238212,149.460255 43.400831,150.468348 C43.3197042,151.131353 43.1468873,151.763714 42.7809718,152.332034 C42.5212867,152.73544 42.1511868,152.940208 41.790444,153.214346 L41.7229437,153.266625 C41.2628028,153.630359 40.7781549,153.632895 40.3224507,153.266625 L40.1901246,153.16188 C39.7548166,152.821333 39.3786031,152.555259 39.1006901,152.0167 C38.7140704,151.267886 38.652169,150.454398 38.5864648,149.629287 C38.4867465,148.378093 38.5528732,147.108512 38.5657606,145.853725 C38.5915352,143.336543 38.6263944,140.819784 38.6705493,138.302813 C38.8325915,129.072935 39.1528732,119.841365 39.7366056,110.627972 C40.0116015,106.288179 40.3844735,101.934346 40.8846361,97.6121079 L40.9799155,96.8020697 C41.1316056,95.530375 41.2699859,94.2360658 41.4259014,92.9375295 C39.0983662,91.2997761 37.0524507,89.3126607 35.3078028,87.0583984 C35.1793521,86.8924885 35.390831,86.6597918 35.5459014,86.820418 C37.3285775,88.6669855 39.3725915,90.1390403 41.6354789,91.2966059 C42.0062535,88.5784297 42.5160423,85.8748368 43.4654789,83.3553299 Z M82.3498099,1.07961957 C82.3817113,1.05489159 82.4315704,1.04411272 82.461993,1.07961957 C82.9622746,1.66310009 82.8608227,2.55521647 82.876946,3.29461384 L82.8788239,3.36347084 C82.9147394,4.44452759 82.9215,5.52220274 82.9179085,6.60389354 L82.9067113,10.0470012 L82.9067113,10.0470012 C82.9052089,10.5204258 82.8668156,11.0132217 82.8910943,11.4894666 L82.9037535,11.6737644 L82.9037535,11.6737644 C83.1665704,11.9430247 83.2886831,12.3321205 83.1995282,12.7229072 C83.1834718,13.2242301 82.9215,13.6424924 82.5393169,13.9054121 L83.3584278,15.0679444 L83.3584278,15.0679444 L84.178331,16.2298427 C85.8682606,18.6276117 87.5767817,21.0040344 89.3573451,23.3358622 C91.1729789,25.7133417 93.1098803,28.0012086 95.1367817,30.2009425 C96.126993,31.2758701 97.1341056,32.3357918 98.164669,33.3720423 C98.5834542,33.7932106 99.0126972,34.203917 99.4371569,34.6192303 L99.8594577,35.0366372 C100.108965,35.2862419 100.422908,35.533099 100.588542,35.8494904 C100.685937,36.0361127 100.70812,36.496011 100.742979,36.5720971 C101.055655,37.2596196 100.522204,38.3558935 99.6357254,38.012872 L99.675951,37.9860957 C99.8373505,37.8737995 99.7339284,37.872171 99.3655141,37.9813808 C99.1331197,37.9806123 98.9152173,37.9270935 98.711648,37.821142 L98.651007,37.787784 C98.3643332,37.6420498 98.1084418,37.3599909 97.8755232,37.1344374 L97.8177676,37.0793378 C97.285162,36.5801284 96.7774859,36.0506959 96.2670634,35.528872 C95.2016408,34.4402067 94.1603028,33.3282928 93.1521338,32.1865785 C91.1408662,29.908645 89.2341761,27.5383515 87.4284718,25.094508 C85.5891761,22.6054356 83.8795986,19.9884963 82.4093873,17.264191 C81.8514296,16.2302654 81.3399507,15.1764728 80.8495986,14.1104219 C79.8950915,13.803964 79.6734718,12.7884258 79.7400211,11.6443867 C79.387838,10.8239249 79.0705141,9.98655499 78.8829085,9.131009 C78.8573451,9.01370959 79.0079789,8.90317339 79.0981901,9.00567828 C79.4034718,9.35271546 79.6861479,9.72215577 79.957838,10.1011068 C80.1217817,9.29903249 80.3292465,8.56078591 80.4268521,8.09010881 L80.8500211,6.01295812 L80.8500211,6.01295812 C78.4654437,5.88868415 75.8524859,6.86871546 74.2086127,8.58445714 C74.1203028,9.03125166 73.7765704,9.35102466 73.4415,9.76865284 C73.0586831,10.2460932 72.724669,10.7818661 72.4755845,11.3421558 C71.9231197,12.5840501 72.2349507,14.4141323 71.1627676,15.3252634 C71.051007,15.4201597 70.9261479,15.486101 70.7972746,15.5268916 C71.3060433,18.0224555 71.0751579,20.7723126 71.0640669,23.3041072 L71.0636831,23.5269229 C71.0662183,26.3604963 70.9715704,29.1963945 70.8621338,32.0276431 L70.7507958,34.8297202 C70.6065254,38.5667789 70.5128239,42.3056501 70.8758662,46.0222027 C72.5332606,44.5537409 74.2470634,43.1522771 76.0198099,41.8171773 C77.1854437,40.9390873 78.3744473,40.0922249 79.5850403,39.277184 L80.5686891,38.61967 C81.7473929,37.8289489 82.9547333,37.0153262 84.2453028,36.4490912 C85.933331,35.7087311 87.5385423,35.9631969 89.1682606,36.7225785 C90.7912183,37.4790012 92.3657958,38.3575843 93.9576972,39.1774121 C95.5768521,40.0109777 97.1993873,40.8375687 98.8208662,41.6662732 C99.8949507,42.2153613 101.468894,42.7109777 102.256711,43.7216548 C102.306993,43.4980462 102.365514,43.2750716 102.433965,43.0529425 C102.355796,42.7141479 102.386007,42.3480892 102.575937,41.9991499 C105.22312,37.1332321 107.672345,32.1510716 110.104458,27.1750403 C111.335514,24.6568016 112.505937,22.1087624 113.739317,19.5920031 L114.938315,17.1408094 C115.13866,16.7324806 115.339599,16.3244571 115.541641,15.9170442 C115.844176,15.3070873 116.159176,14.7030481 116.465092,14.0945706 C116.594387,13.8375083 116.756434,13.582154 116.882315,13.3226516 L116.941923,13.1925276 C116.944802,13.1857366 117.235305,12.2718572 117.010909,12.3589673 L116.99157,12.3682614 C116.877063,12.433146 116.785373,12.2890051 116.859528,12.1970677 C117.176852,11.8045902 117.618824,12.1522614 117.79988,12.5155726 C118.298777,13.515416 117.384667,15.0849183 117.033043,16.0423159 L117.013754,16.0958466 C115.922556,19.1855765 114.687063,22.2173965 113.421148,25.2386489 C110.993894,31.0311264 108.38643,36.7346254 105.784669,42.4480579 L105.753824,42.5463358 L105.753824,42.5463358 C106.308613,42.1208877 106.901007,41.7347507 107.408261,41.3589699 C108.687908,40.4106411 110.004951,39.5090207 111.31988,38.6103593 C113.731302,36.9622233 116.208085,35.4227552 118.725857,33.9440645 L119.229951,33.6491225 C120.487627,32.9161597 121.733472,32.3218427 123.226289,32.5418583 C124.613183,32.7463679 125.902553,33.4916191 127.155467,34.0970108 L127.284951,34.1591108 L131.15643,36.0003945 C130.742556,34.349326 130.294458,32.7062888 129.826923,31.0693808 C128.915092,27.8765119 127.911782,24.7104845 126.823754,21.5727781 C125.807556,18.6411382 124.709021,15.7415717 123.547092,12.864941 L123.197205,12.0015982 C122.723465,10.8171951 122.25239,9.52567171 120.898331,9.16102074 C119.545162,8.79644149 117.992979,9.33707554 116.756218,8.56543562 C116.643824,8.49526732 116.657768,8.30991311 116.794035,8.27567436 L117.557177,8.08325809 C118.990051,7.72668065 120.669833,7.36797652 122.02481,7.71475068 C123.499246,8.09264501 124.719106,9.33052368 125.434458,10.6174356 C126.229849,12.0490168 126.790526,13.6511229 127.39417,15.1776753 L127.48988,15.4180462 C128.182627,17.1456235 128.848965,18.8835569 129.48657,20.6324806 C130.761359,24.1282145 131.921852,27.666007 132.972275,31.2357135 C133.478472,32.9561049 133.958683,34.6847389 134.420303,36.4176 C134.552979,36.915964 134.771852,37.5202145 134.95143,38.1504611 C135.157204,38.3512438 135.351993,38.5752751 135.534739,38.8307977 C135.837908,39.2547663 135.620303,39.7518622 135.243401,40.0056939 C135.228824,40.4393847 135.132486,40.8472908 134.902204,41.1968642 C134.003261,42.5619757 131.626711,42.2102888 131.723261,40.3751342 C131.737838,40.0942497 131.847275,39.8260462 132.012908,39.5994787 L132.008261,39.5627037 L132.008261,39.5627037 L131.989458,39.4954943 L131.989458,39.4954943 C131.576852,39.2976705 131.162556,39.0772321 130.725866,38.8614434 L126.662768,36.8529816 L126.662768,36.8529816 C125.486007,36.2711342 124.181641,35.3722614 122.873049,35.150555 C121.653091,34.9439084 120.365945,35.853179 119.317626,36.4017916 L119.249599,36.4370442 C116.715444,37.7364258 114.200092,39.0789229 111.694669,40.4324102 C110.471641,41.0933025 109.264458,41.7816705 108.046077,42.4503828 C107.027345,43.0096157 105.927908,43.8123241 104.782838,44.1278701 C104.293754,44.5083006 103.712768,44.4573652 103.245866,44.1697174 C103.459246,45.4917135 103.446148,46.848371 103.511641,48.1999562 C103.599716,50.0068603 103.613174,51.8187742 103.642231,53.6281275 L103.654035,54.3065002 C103.730937,58.3065159 103.772134,62.3075883 103.787345,66.3084493 C103.84143,80.5551499 103.684035,94.8060775 103.647275,109.052778 C103.628683,116.21079 103.486923,123.374931 103.301007,130.530195 C103.222172,133.562161 103.057419,136.590496 102.879449,139.617887 L102.7815,141.269115 C102.574246,144.753224 102.451923,148.2758 101.807134,151.712989 C101.723049,152.161263 100.964599,152.172676 100.890232,151.712989 C100.296835,148.029946 100.263832,144.266099 100.149744,140.539867 L100.125655,139.795158 C99.9885423,135.794297 99.9234718,131.795972 99.9374155,127.792997 C99.9881197,113.54059 100.358472,99.2970599 100.66143,85.0486685 C100.813754,77.8898114 100.916218,70.727784 101.152838,63.5712517 C101.271148,59.9903436 101.405092,56.4117605 101.563965,52.8323319 C101.634951,51.2341538 101.703187,49.6375939 101.809293,48.0418026 L101.857204,47.3579366 C101.890162,46.9117761 101.916782,46.4711108 101.949106,46.0344611 C100.507627,46.561146 99.1893169,45.5859757 97.8925563,44.9187429 C96.3980493,44.1496391 94.9041761,43.3792673 93.4090352,42.6116431 L91.912705,41.8453495 L91.912705,41.8453495 L88.9181197,40.3168016 C87.5698099,39.6284337 86.531007,38.9434474 85.0929085,39.7508055 C79.911993,42.6585628 75.1510775,46.5275413 70.8365704,50.5873691 C70.0092465,51.3659836 68.261007,51.1567468 68.0514296,49.8518701 C67.1562207,44.2773914 67.7006752,38.6222317 68.1577222,33.0308485 L68.3262066,30.9549806 C68.5303732,28.475602 68.7527324,25.9961988 69.0490352,23.5269229 C69.1815423,22.4223217 69.3135085,21.3183969 69.4595366,20.2159058 L69.5719225,19.3893182 C69.7544577,18.0825393 69.8736127,16.7835804 70.2627676,15.5302732 C70.1400211,15.4905393 70.0219225,15.4254434 69.9162887,15.3252634 C68.7462887,14.214829 69.3103732,12.2879483 69.8442465,10.967009 C70.3713592,9.66318904 71.1752324,8.52527906 72.1819225,7.5458818 C72.4014296,7.3319953 72.7109366,7.19440626 73.0219225,7.18722035 C75.4626972,5.56954521 78.1403028,4.76218708 80.9271338,5.64520861 C81.0054085,5.27080157 81.085228,4.89698894 81.1692663,4.5241274 L81.2548099,4.15159609 C81.4715704,3.22651585 81.5520634,1.69845323 82.3498099,1.07961957 Z M107.365099,147.168895 C108.122493,146.960503 108.951718,147.180096 109.506718,147.735314 C110.061507,148.290531 110.281225,149.119869 110.072493,149.87756 C109.968127,150.250593 109.779465,150.574382 109.506718,150.849349 C109.251688,151.102712 108.954214,151.283546 108.614464,151.39185 L108.53531,151.415556 L108.411507,151.467126 C108.031859,151.569208 107.652,151.569208 107.272563,151.467126 C106.909606,151.365255 106.594606,151.181591 106.327141,150.916135 C106.061577,150.648566 105.877986,150.333443 105.776155,149.970132 C105.674113,149.590335 105.674113,149.210539 105.776155,148.830742 L105.827915,148.706891 L105.827915,148.706891 C105.932282,148.333858 106.120944,148.009858 106.39369,147.735314 C106.668338,147.46246 106.992211,147.273513 107.365099,147.168895 Z M152.337486,71.6664117 C152.461923,71.5235389 152.663683,71.7065683 152.586359,71.8585292 C151.406641,74.1721808 150.091711,76.4693472 148.799387,78.7242434 C148.902908,79.3492063 149.005585,79.9690967 149.123683,80.5733472 C149.627134,83.1488618 150.243824,85.6778795 150.645866,88.2779108 C152.090937,97.6236094 152.841148,107.070756 153.48488,116.500361 C154.130514,125.963782 154.21312,135.431429 154.310092,144.913449 C154.318542,145.735179 153.686641,146.690271 152.83988,146.845191 C152.452204,146.915993 152.162134,146.902255 151.775303,146.845191 C150.894106,146.715422 150.342908,145.70559 150.305092,144.913449 C150.052415,139.614052 149.712486,134.321418 149.318683,129.030263 C148.620655,119.649692 148.194106,110.244604 147.630232,100.85431 L147.431645,97.5723814 C147.218527,94.0162124 147.023584,90.4575788 146.960092,86.8961025 C146.917838,84.5365879 147.043965,82.1777072 146.96643,79.8209401 C146.89481,77.6450888 146.674246,75.2792337 147.153824,73.1414254 C147.17157,73.0613237 147.29812,73.0410341 147.334669,73.1177542 C147.833261,74.1677425 148.149106,75.3090341 148.392486,76.4739969 C149.677415,74.8482904 150.986007,73.218991 152.337486,71.6664117 Z M68.1691901,14.1901552 C68.3496127,14.1772086 68.3424296,14.448371 68.1691901,14.4684493 C65.6475059,14.7610521 63.2114901,15.787616 60.8304678,16.6601559 L60.6265141,16.7345472 C58.2210211,17.6076352 55.8757394,18.622962 53.6187676,19.8331538 C49.2060211,22.1994317 45.1539085,25.2504845 41.5712324,28.7432595 C27.2673592,42.6864611 20.7486972,62.7930599 15.9721479,81.6881988 C13.3182042,92.1861793 11.4309507,102.861694 10.2077113,113.619001 C9.60285211,118.939111 9.17524648,124.27951 8.9259507,129.628152 C8.79834507,132.369365 8.71785211,135.113115 8.68426056,137.857076 C8.66693662,139.262555 8.6618662,140.668457 8.66355634,142.073937 C8.66440141,142.718132 8.77933099,143.529083 8.60714789,144.154469 C8.44742958,144.73378 7.99700704,145.24398 7.66383803,145.726704 C7.26897887,146.299463 6.55933099,146.26924 6.15897887,145.726704 L6.01134541,145.529247 C5.58436766,144.962672 5.16658936,144.420923 5.10559859,143.68041 C5.0403169,142.886578 5.08637324,142.06823 5.08341549,141.270805 C5.07665493,139.664332 5.09651408,138.057647 5.12862676,136.451596 C5.19052817,133.373068 5.31179577,130.295807 5.49200704,127.221929 C5.85792254,120.983925 6.46024648,114.758602 7.32264085,108.569631 C8.85559859,97.5688485 11.1533451,86.6731068 14.1630634,75.9821636 C17.0025,65.8967389 20.3663028,55.8411147 25.1582746,46.499009 C29.6075704,37.825193 35.4444718,29.7560501 43.1464437,23.694101 C46.7280634,20.8751108 50.627007,18.5257409 54.8305986,16.7565276 C56.950669,15.8642067 59.177007,15.1356822 61.441162,14.7203789 C63.6801761,14.3097252 65.9094718,14.3670012 68.1691901,14.1901552 Z M107.799169,129.342279 C108.199099,129.339321 108.645085,129.427242 108.988183,129.648526 L109.446634,130.00296 L109.446634,130.00296 C109.570859,130.16253 109.694451,130.322733 109.81762,130.48336 C110.10431,130.857027 110.142338,131.4617 110.082549,131.907015 C110.069028,132.204385 109.980718,132.480831 109.81762,132.737199 L109.468606,133.189277 L109.468606,133.189277 C109.133113,133.462976 108.853394,133.658264 108.447127,133.789935 C108.234739,133.858603 108.030224,133.873002 107.826342,133.862561 L107.758394,133.858201 L107.799169,133.863696 L107.727761,133.855665 L107.727761,133.855665 C107.661423,133.849959 107.594873,133.842773 107.528113,133.833685 C107.48269,133.827978 107.437056,133.824596 107.391634,133.818256 C107.347901,133.814663 107.305648,133.812972 107.261493,133.816988 C106.745155,133.86562 106.22607,133.572667 105.859521,133.236197 C105.52931,132.93291 105.232901,132.289771 105.278958,131.833888 L105.298603,131.643363 C105.333415,131.321948 105.361923,131.195494 105.498042,130.872667 C105.630296,130.5586 105.815155,130.28152 106.066775,130.047344 C106.548465,129.59907 107.138113,129.346929 107.799169,129.342279 Z M106.200866,105.822542 C106.886218,105.075419 108.06319,105.020468 108.91312,105.472335 C109.120162,105.58266 109.310303,105.75956 109.492838,105.907083 C109.952768,106.279059 110.133401,106.950096 110.158754,107.515458 C110.183894,108.07448 109.889176,108.738331 109.492838,109.124257 L109.396711,109.217462 L109.396711,109.217462 C109.15988,109.447834 108.820585,109.648194 108.489317,109.709063 C107.955021,109.807341 107.506289,109.804382 107.008754,109.5943 C106.581237,109.413896 106.21288,109.123852 105.962243,108.730278 L105.92157,108.663724 C105.904387,108.636108 105.888143,108.608022 105.872901,108.579341 L105.850796,108.535858 C105.374599,107.619865 105.502627,106.582981 106.200866,105.822542 Z M106.555838,82.1788908 C106.864923,82.081881 107.173796,82.0681432 107.48288,82.1374661 C107.692669,82.1378888 107.888303,82.1909378 108.06957,82.2959789 C108.266472,82.3511413 108.437599,82.4508986 108.582528,82.5952509 C108.757035,82.6983898 108.896261,82.8374583 108.99957,83.012245 C109.205134,83.2369104 109.343725,83.5004642 109.415768,83.8031178 L109.498585,84.4213174 L109.415768,85.0397284 L109.181261,85.5953683 L109.181261,85.5953683 C109.116824,85.6794857 109.051965,85.7636031 108.986472,85.8472978 C108.882951,86.0225072 108.743514,86.1622098 108.568373,86.2657714 C108.4545,86.3790552 108.323937,86.4638067 108.177951,86.522562 C107.660345,86.8936932 106.970768,87.0147969 106.357458,86.8457166 C105.993232,86.7438458 105.676965,86.559337 105.408866,86.2928243 C105.142458,86.0244094 104.958021,85.708018 104.85619,85.3438614 L104.814182,85.0530126 C104.760067,84.6628856 104.75144,84.4467947 104.861894,83.9508517 C104.910275,83.7327382 105.050768,83.4252235 105.124289,83.2956658 C105.438655,82.7427734 105.952246,82.3638223 106.555838,82.1788908 Z M133.393711,65.1689753 C134.281204,65.1627194 135.168697,65.164444 136.056082,65.1742574 L136.721599,65.1831358 C137.836035,65.2006779 138.790542,65.0857033 139.666669,65.8592454 C140.302585,66.4205918 140.022444,67.3623687 139.418852,67.7852806 C138.504275,68.425672 137.357092,68.1035742 136.305824,68.0329832 C135.197092,67.9585879 134.087514,67.8968736 132.977514,67.8469949 C130.828289,67.7508305 128.678218,67.6895389 126.52688,67.6800282 C124.38019,67.6709401 122.230331,67.6912297 120.083852,67.7258912 C117.899768,67.761398 115.625683,67.9649284 113.453852,67.7387836 C113.155542,67.7077151 113.088359,67.3152376 113.382866,67.2131554 C115.429415,66.5049205 117.731599,66.2753941 119.876387,66.0046544 C122.08857,65.725038 124.300754,65.5272141 126.52688,65.3989245 C128.81343,65.2676759 131.103359,65.185038 133.393711,65.1689753 Z M106.551771,58.2125993 L106.625007,58.214029 C107.015627,58.2150153 107.381217,58.3069517 107.722122,58.4898383 L107.794796,58.5304204 L108.26381,58.8926748 C108.550923,59.1822247 108.749725,59.5231327 108.859585,59.9158215 L108.942401,60.532119 L108.942401,60.532119 C108.954655,60.8512579 108.887894,61.1488391 108.742965,61.4252853 C108.649373,61.7127217 108.489655,61.9612697 108.26381,62.1713519 C108.05381,62.3972853 107.805148,62.5570661 107.518035,62.6506943 C107.262954,62.7845278 106.989871,62.8517297 106.698288,62.8518013 L106.625007,62.8504204 C106.206908,62.8489409 105.816908,62.7434771 105.455641,62.5338176 L104.986415,62.1713519 L104.986415,62.1713519 C104.699303,61.8820133 104.5005,61.5411053 104.390641,61.1484164 L104.307613,60.532119 L104.307613,60.532119 C104.295782,60.21298 104.36212,59.9149761 104.507472,59.6389526 C104.600852,59.3515162 104.76057,59.1027569 104.986415,58.8926748 C105.196415,58.6667413 105.444866,58.5069605 105.732401,58.4135436 C105.987288,58.279515 106.260355,58.2124782 106.551771,58.2125993 L106.551771,58.2125993 Z M113.42193,3.7538771 C113.921155,3.03042505 114.826014,3.67377534 114.696507,4.25541135 C114.730732,5.88893777 114.814183,7.47427632 115.185803,9.07440939 C115.355873,9.80694951 115.578761,10.540335 115.922493,11.2113722 L116.066861,11.4939403 C116.511811,12.3732986 116.857198,13.2026253 116.257986,14.1673174 C115.975521,14.6221432 115.465099,14.9636853 114.911789,14.9398027 C112.457915,14.8339162 112.120732,11.417016 111.971577,9.50957965 C111.817775,7.54507867 112.296085,5.38613542 113.42193,3.7538771 Z" id="ðŸ–-Ink" fill="#000000"></path>
                    </g>
                    <g id="head/Medium-Bangs" transform="translate(78.591549, 38.043053)" fill-rule="evenodd">
                        <path d="M62.8736769,30.6802638 C38.5589302,29.7925926 15.3252733,46.1403264 7.50266448,69.2470427 C6.93426726,71.0595828 8.70315137,72.75271 10.4880111,72.4462521 C8.6625816,81.6412579 12.6520827,94.0179311 23.0440403,95.3223851 C25.172587,95.5910114 27.3122746,95.4363029 29.4437642,95.631802 C31.3436067,95.8059546 41.6863761,101.626542 45.559423,102.990174 C53.7133166,105.839598 74.2319224,105.317775 82.3942242,102.990174 C82.6914556,103.666495 89.0304594,77.6606865 90.4739445,69.5976728 C91.0003485,66.1041798 86.1902767,63.5177855 86.5449695,59.9178082 C87.0005851,55.2935086 92.4074776,49.6552961 90.7509961,45.2528665 C86.3845955,34.0479194 73.7125326,30.9214145 62.8736769,30.6802638 Z" id="ðŸŽ¨-Background" fill="#FFFFFF"></path>
                        <path d="M50.7981761,10.3112947 C51.8904296,10.4021753 52.9890211,10.5564611 54.0685986,10.7593573 C57.3495845,10.2225276 60.7446549,10.8185354 63.9263451,11.8520384 C71.3777535,14.2719992 78.5502887,18.4736431 84.1657817,23.9581832 C87.0559225,26.7818231 89.420007,30.0345041 90.8756408,33.8176744 C91.6150775,35.736735 92.0312746,37.7847194 92.1516972,39.8369307 L92.1650812,40.0856294 C92.1988725,40.7665172 92.2142089,41.5829659 92.1328944,42.3917331 C92.3929648,44.0244141 92.6247254,45.6704102 92.6422606,47.32169 C92.6505,48.0865667 92.6008521,48.8501753 92.5078944,49.6087115 L92.5397958,49.680782 L92.5397958,49.680782 C92.405007,50.586418 92.2440211,51.4882497 92.0606408,52.3854317 L92.0147958,52.4448211 C91.9896549,52.6272164 91.9607113,52.809189 91.9334577,52.9911616 C91.8337394,53.452328 91.7295845,53.9124376 91.6190915,54.3708564 C91.3799366,55.3635687 91.1152183,56.3497292 90.830007,57.3299718 C90.7801479,57.5017996 90.8281056,57.6372751 90.9216972,57.7262536 C90.7138099,58.4723202 90.4866972,59.2128916 90.2348662,59.9454317 C90.3584577,60.5864571 90.4833169,61.2272712 90.6157817,61.8659718 C91.3066268,65.1883984 91.891838,68.5319601 92.6777535,71.8353652 C94.2707113,78.5393965 96.691838,85.1356391 97.357331,92.0277722 C97.8749366,97.3728211 97.0150775,103.216657 93.6939507,107.583154 C90.8312746,111.345189 86.5256408,113.566481 81.8756408,114.158261 C79.650993,114.443584 77.3693028,114.312547 75.1932465,113.750355 L74.9561555,113.687809 C73.8660589,113.394259 72.4794777,112.934689 71.4664859,112.194817 C70.3678944,111.808046 69.3305704,111.093682 68.7052183,110.396226 C67.8516972,109.443036 66.920007,107.813526 67.1524014,106.45877 C65.8826831,106.562332 64.6045141,106.591921 63.3474718,106.587694 C60.2502887,106.581353 57.1256408,106.336187 54.1467676,105.435835 C51.4890211,104.632704 48.391838,103.290629 46.820007,100.868555 C46.7460634,100.754426 46.8685986,100.589573 46.9974718,100.633956 C48.2671901,101.079905 49.4545141,101.682254 50.7643732,102.022528 C52.0531056,102.356461 53.341838,102.671373 54.6707113,102.808751 C57.2687958,103.076574 59.9058211,103.040539 62.5126284,102.911945 L63.4074437,102.865462 C66.1967823,102.715937 69.0795665,102.502922 71.6883169,101.458222 C72.7119085,101.048625 73.6592324,100.476896 74.5230433,99.7973974 L74.6587394,99.6892204 C75.1214155,99.3130168 75.5988803,98.9959914 76.0847958,98.695874 C76.1545141,98.6071068 76.2242324,98.5183397 76.2939507,98.4274591 C77.3988803,97.0092986 78.5862042,95.6418622 79.5812746,94.1433886 C81.5587394,91.16969 82.3214155,88.0797487 82.4249366,84.5332908 C82.5333169,80.7898544 82.5458662,77.0412822 82.5904162,73.2968186 L82.6066268,72.048829 C82.663669,67.766872 82.6721197,63.4701205 83.0016972,59.1987311 C83.1535282,57.2142928 83.3697723,55.2390599 83.7019601,53.2781876 L83.7749366,52.8582223 L84.3115563,49.8337996 C84.4406408,49.1052751 84.5160634,48.3545589 84.6810634,47.6292047 C84.4955704,47.3248603 84.2811338,47.0319288 84.0324718,46.7529464 C83.8032465,46.4957331 83.5704296,46.2461284 83.3380352,45.9982145 L83.1705569,45.8503159 C82.787712,45.5085357 82.4588423,45.1823709 82.1505546,44.7122273 L82.0761338,44.5959053 L82.0761338,44.5959053 C81.7450775,44.1962419 81.4328239,43.778191 81.1569085,43.3189268 L81.105993,43.229737 L81.105993,43.229737 C81.0371197,43.1432947 80.968669,43.0566411 80.8974718,42.9712556 C80.6762746,42.7051656 80.4443028,42.4538701 80.2045141,42.2131421 C79.3634577,43.8384258 78.1738099,45.2462301 76.4895845,46.1262928 C75.8805,46.4445863 75.1374718,46.1719444 74.9378239,45.4947781 C74.4339507,43.7853769 73.6687394,42.1958114 72.6561338,40.7563045 C70.9653592,43.5710677 68.2843732,45.7727037 65.1248662,46.8469973 C64.3353592,47.1154121 63.6400775,46.286919 63.8255704,45.5469816 C64.3955704,43.2726411 64.5090211,40.9598348 64.174162,38.6734474 C62.9815563,39.5260344 61.7515563,40.3289542 60.4885986,41.0733299 C57.6781056,43.246645 54.7002887,45.2024806 51.4247958,46.6069033 C50.6680352,46.9315374 49.5290915,46.3860423 49.8730352,45.4136196 C50.1625926,44.5948485 50.4005974,43.7624098 50.55305,42.907504 L50.5866972,42.7098153 C50.5877535,42.7038975 50.5881761,42.6979796 50.5890211,42.6918505 C43.003181,53.1603856 24.607183,63.2483964 23.1951735,63.3455479 L23.1567676,63.3458466 L23.1567676,63.3458466 C24.0385986,64.1885002 24.7503592,65.2296117 25.215993,66.4260658 C25.7049856,67.6826834 23.7108937,68.2298365 23.1951995,67.0282924 L23.1787394,66.9880462 C22.3854296,64.9493613 20.4231761,63.4880853 18.2883169,63.1425276 C16.9978944,63.3769151 15.7782465,63.9993417 14.9460634,64.9432321 C13.3087394,66.8010012 13.2939507,69.0413143 14.4115563,71.1548172 L14.5755259,71.4627636 C15.1805851,72.5918378 15.8178944,73.7234278 16.1587394,74.9633495 C16.5749366,76.4850716 16.2601479,78.0279288 16.5326831,79.5475374 L16.5474927,79.6281055 C16.6766982,80.3037837 16.9557059,81.0724297 17.7601479,80.8874982 C17.8222606,80.8731264 17.8822606,80.8538935 17.9420493,80.8333926 C18.1116972,80.9686568 18.3157817,81.0804611 18.5701479,81.154645 C19.1929648,81.3361949 19.8810634,81.2480618 20.5009225,81.1013847 C21.0996549,80.95978 21.6810634,80.7376509 22.2407113,80.47769 C22.3026127,80.6307076 22.3408521,80.7906998 22.3446549,80.9445628 C22.363669,81.7307859 22.0383169,82.3775178 21.5376127,82.90378 C22.3362042,83.9140344 23.0185986,85.025737 23.7876127,86.0571264 C24.8925423,87.5365785 26.0228239,88.984328 27.2249366,90.3855804 C28.4756408,91.846011 29.8383169,93.2261284 31.2516972,94.5301597 C32.2425423,95.443193 33.8798662,96.4196313 34.500993,97.7447977 C35.2150775,97.9667155 35.8214155,98.5141127 36.0432465,99.414465 C36.4467676,101.046089 36.5650775,104.869416 36.2481761,106.528516 C35.9333873,108.172821 34.7333873,109.19787 33.4066268,110.064406 C33.0390211,110.305346 32.6228239,110.279984 32.2847958,110.100336 C31.9869085,110.389886 31.650993,110.656187 31.2664859,110.892899 C29.8467676,111.770003 28.1967676,112.089142 26.5615563,112.273017 C24.3538099,112.978927 21.9728239,113.164915 19.6193028,112.725306 C18.8502887,112.816187 18.0812746,112.898614 17.3101479,112.966246 C9.42141549,113.653134 1.40169718,113.067694 -6.29266901,111.18879 C-9.8229507,110.326481 -13.1565423,108.759318 -16.2623873,106.746207 C-21.6154859,103.276469 -23.8811197,93.5374474 -20.7750634,84.2268329 L-20.5291243,83.4926616 C-19.1294824,79.3333665 -17.6201338,75.1958348 -15.5968944,71.3154434 L-15.3553382,70.8538337 C-13.4956253,67.3146264 -11.4498873,63.7792204 -8.73280986,60.8261284 C-7.37224648,59.3487898 -5.79196479,58.0067155 -4.00675352,57.0683202 C-3.32900704,56.7124063 -2.53780986,56.4655491 -1.76457042,56.18551 L-1.74877817,55.9919395 L-1.74877817,55.9919395 L-1.73203521,55.7985276 C-1.68111972,55.1784258 -1.61626056,54.5593808 -1.53259859,53.9418153 C-1.22034507,51.6321793 -0.779640845,49.3565706 -0.15365493,47.1097057 C0.473176056,44.8598818 1.24388028,42.6478896 2.1711338,40.5039523 C3.71803521,36.9270599 5.66085211,33.5340423 7.90345775,30.3502614 C8.06359859,30.0214004 8.22606338,29.6938074 8.39254225,29.3687507 C10.2833873,25.6722341 12.7319789,22.1469112 15.8904296,19.4183789 C19.5157817,16.2861675 23.8826831,14.3417448 28.4397254,12.9764219 C33.1657817,11.5624885 38.0967676,10.5945041 43.0214155,10.2690247 C45.613669,10.0978309 48.2101479,10.0957174 50.7981761,10.3112947 Z M16.2348169,69.6966059 C18.6073521,68.1431812 21.8397465,69.2081753 23.0418592,71.7319092 C23.910169,73.5600892 21.0390423,74.5893652 20.5848169,72.7675256 C20.1327042,70.9414591 18.1911549,69.6332008 16.325662,69.9121832 C16.1967887,69.9333182 16.116507,69.772692 16.2348169,69.6966059 Z" id="ðŸ–-Ink" fill="#000000"></path>
                    </g>
                    <g id="face/Eyes-Closed" transform="translate(112.183099, 77.354207)" fill="#000000" fill-rule="evenodd">
                        <path d="M38.5022324,47.7578114 L38.6483595,47.7239991 C39.8155361,47.4486776 40.9386549,47.0742284 42.0257535,47.7977566 C43.0615986,48.4869699 43.2054718,49.7618348 42.3984296,50.6917761 C41.5689498,51.6478731 40.4669977,51.594373 39.3040769,51.6074863 L39.2313169,51.6084023 C38.2656127,51.6217174 37.2838521,51.6073456 36.3219507,51.5217487 C35.4252465,51.4418583 34.5227239,51.3142049 33.6362531,51.1466461 L33.1120563,51.0438477 C32.57645,50.9354201 32.0489313,50.7943867 31.7729366,50.2758387 C31.291669,49.3718935 34.8688521,48.662602 35.3034296,48.5385393 C36.3580775,48.2373652 37.4325845,48.0002301 38.5022324,47.7578114 Z M40.4860971,36.8583586 C39.9158655,37.4500012 39.162674,37.8540537 38.3171646,38.1055558 C36.1921796,38.7376462 33.4807651,38.400933 31.7451626,37.7568385 C31.3851066,37.6232358 31.0486135,37.3508907 30.8552771,37.0103214 C30.6786787,36.6992367 30.6189037,36.3333917 30.7533203,35.9602721 C30.7916023,35.8542875 30.838155,35.7502275 30.8849219,35.6477456 C31.0122416,35.3689561 31.2717165,35.1520654 31.5764872,35.0280314 C31.8930016,34.8992181 32.2529291,34.8729251 32.5415926,34.9637345 C32.580371,34.9759348 32.6201465,34.9884779 32.6608695,35.0013198 C33.7605356,35.3480979 35.5641657,35.9223733 37.0584293,35.8110697 C37.9550516,35.7442827 38.7437145,35.4273752 39.1516166,34.6065468 C39.3665807,34.1737351 39.3070443,33.7456796 39.1163794,33.3537661 C38.8289083,32.7628669 38.2531034,32.2487015 37.7679835,31.8944056 C37.0841526,31.3948406 36.3547845,31.1954052 35.6003906,30.9848385 C35.3161296,30.9054955 35.028219,30.8250543 34.7376159,30.7288095 C34.6418552,30.6971841 34.55791,30.6350504 34.4950532,30.5542797 C34.4329714,30.4745047 34.392222,30.3770903 34.3794486,30.2793506 C34.3662206,30.1781326 34.3825639,30.0771964 34.4294569,29.9902011 C34.4729549,29.909504 34.5425229,29.8386271 34.6464802,29.7920648 C36.1224326,29.1305523 38.0313496,29.5676772 39.4721611,30.6083696 C40.1922606,31.1284945 40.7928761,31.7966468 41.1630661,32.5432658 C41.5066184,33.2361606 41.6525805,33.9963801 41.5179814,34.7716354 C41.3672735,35.6395481 41.0000644,36.325093 40.4860971,36.8583586 Z M16.2963803,22.0977088 C16.7110986,21.9148908 17.0518732,22.7706481 17.1372254,23.0039789 L17.3137423,23.4880548 C17.6016858,24.2685761 17.9322399,25.0621153 18.5377183,25.6414192 C19.0445493,26.1264681 19.856662,26.5375444 20.4446197,25.9700689 C21.0023662,25.4317597 20.7304648,24.8253957 20.8126479,24.164926 C20.9609577,22.9703742 22.5891972,21.7764564 23.5682113,23.0230004 C25.7797606,25.8394544 22.3580704,29.756198 19.2063803,29.0690982 C17.6035148,28.7195285 16.3132468,27.4338407 15.7831531,25.9049272 L15.7559577,25.8242372 C15.4386338,24.8556188 15.1177183,22.6178419 16.2963803,22.0977088 Z M44.8351961,24.059205 L44.8199155,24.0234904 C43.7665352,21.6265667 47.5241408,20.5964454 47.8427324,22.7486254 L47.862898,22.893839 C48.1728002,25.2829982 47.5197972,28.495874 44.5947042,28.7340658 C41.3111831,29.0016352 39.9438592,25.3366098 40.2370986,22.6471773 C40.2897042,22.1657213 40.8736479,22.099146 41.0540704,22.5366411 L41.0924605,22.6321203 C41.6226109,23.9837277 42.1260547,26.5830892 43.9940704,26.5804063 C45.2421097,26.5785313 45.1825503,24.8931573 44.8351961,24.059205 L44.8351961,24.059205 Z M47.217507,17.1205151 C49.1049718,17.053517 49.1024366,20.0086168 47.217507,20.0530004 C40.9213099,20.2011569 34.6202535,20.3981354 28.3221549,20.4319515 L27.1774144,20.4389467 C21.2615306,20.4786061 15.3253367,20.5594725 9.42680282,20.0627225 C8.92335211,20.0204524 9.01694366,19.3132744 9.43757746,19.3418067 C15.6215915,18.4613213 21.8810282,18.2038967 28.1121549,17.8693292 C34.4749014,17.5275757 40.8499014,17.3466599 47.217507,17.1205151 Z" id="ðŸ–-Ink"></path>
                    </g>
                    <g id="facial-hair/*-None" transform="translate(104.577451, 109.479380)"></g>
                    <g id="accessories/*-None" transform="translate(88.521127, 88.978474)"></g>
                </g>
            </g>
        </g>
    </g>
</svg>