<?xml version="1.0" encoding="UTF-8"?>
<svg width="240px" height="324px" viewBox="0 0 240 324" version="1.1" xmlns="http://www.w3.org/2000/svg" xmlns:xlink="http://www.w3.org/1999/xlink">
    <!-- Generator: Sketch 62 (91390) - https://sketch.com -->
    <title>peep-91</title>
    <desc>Created with Sketch.</desc>
    <g id="Introduction" stroke="none" stroke-width="1" fill="none" fill-rule="evenodd">
        <g id="variations" transform="translate(-3006.000000, -2054.000000)">
            <g id="images" transform="translate(126.000000, 110.000000)">
                <g id="a-person/bust" transform="translate(2880.000000, 1944.000000)">
                    <g id="body/Tee-1" transform="translate(31.056338, 135.052838)" fill-rule="evenodd">
                        <path d="M163.580535,116.881512 C162.728915,112.07037 161.948282,107.246318 161.238845,102.411896 C160.902085,100.116693 160.573563,97.8193746 160.278211,95.5182464 C160.07138,93.9059964 159.75638,92.0624272 160.852859,90.8683717 C162.395746,89.1877629 163.797296,87.7492668 163.986169,85.3418968 C164.163845,83.0767469 163.398211,80.607579 162.919479,78.408883 C161.915535,73.7981611 160.665676,69.2443696 159.28462,64.7337519 C157.881592,60.1509661 156.343141,55.6113542 154.782507,51.0804194 C153.323493,46.8440833 151.920887,42.5696524 150.020535,38.5051654 C146.413986,30.7918463 140.312577,25.0797659 132.772014,21.2656453 C130.896592,20.3170887 127.071493,16.930898 125.112197,16.1728145 C123.310929,15.4756825 123.317366,17.5112064 121.54462,16.7444458 C120.127437,16.1315453 118.807859,15.3142036 118.014338,13.945336 C117.152789,12.4590099 114.992223,10.3801664 114.66328,8.65003464 C113.966308,4.98279012 114.72131,1.86150285 112.104972,-0.898665838 C109.782296,-3.34963299 106.660394,-5.0287603 103.430113,-5.93012193 C96.3239155,-7.91294822 86.8468732,-6.5267264 82.5594085,0.0790967238 C80.5115915,3.23375663 79.7960282,7.04681898 77.0328592,9.62138209 C74.6199718,11.8693894 75.1599467,13.4062967 72.0348763,14.5647972 C71.8578341,14.6306163 67.0604789,13.6011899 66.8834366,13.667009 C63.4647042,12.9351685 60.1971549,14.9838383 57.0606761,16.1728145 C52.3846901,17.9448504 47.9328592,20.2514812 43.7503944,22.9928142 C35.3168028,28.5207705 28.0935634,35.6988599 22.1385634,43.8216964 C16.134338,52.0114102 11.4756761,61.1909499 8.15856338,70.7848747 C7.353,73.1152088 6.62940845,75.4739023 5.99116901,77.8556641 C5.63391549,79.1885535 5.25215493,80.5711774 5.68715493,81.9358123 C6.04292958,83.052197 6.83433803,83.8835068 7.76370423,84.5533377 C9.02349296,85.4614717 11.5504648,86.0517271 11.5012394,87.8781537 C11.4636338,89.2669151 10.9927183,90.7282681 10.7628592,92.1005218 C10.4892676,93.7347821 10.2644789,95.3785661 10.0396901,97.020022 C9.01715493,104.491228 8.22130986,112.004551 7.86933803,119.539248 C7.52285915,126.957969 7.23532394,134.528433 7.74976056,141.945037 C7.78377465,142.43413 7.9295493,142.883012 8.16469014,143.262477 C7.9451831,143.346497 7.92828169,143.755803 8.2014507,143.813791 C8.39285915,143.854425 8.58384507,143.894848 8.77525352,143.935482 C9.17285915,144.23643 9.66870423,144.420977 10.239338,144.438967 C10.626169,144.451242 11.0127887,144.468596 11.3991972,144.48849 C15.4768732,145.341175 19.5539155,146.146665 23.684831,146.756602 C28.7062394,147.497967 33.7424366,148.102402 38.7942676,148.593823 C49.1749014,149.603331 59.4737746,149.268521 69.8681408,148.724403 C80.2464507,148.180919 90.6186338,148.053937 101.007718,148.324197 C111.405887,148.594881 121.800254,149.04736 132.200746,149.232543 C143.820254,149.4391 155.422014,149.121645 167.00793,148.197638 C168.596451,148.071079 169.579268,146.80676 169.265958,145.228372 C167.388845,135.772012 165.261592,126.378719 163.580535,116.881512 Z" id="ðŸŽ¨-Background" fill="#FFFFFF"></path>
                        <path d="M63.6413239,13.4343123 C64.715831,13.3876039 65.8114648,13.5615452 66.8834366,13.667009 C66.9768169,13.6760971 67.0123099,13.820238 66.9070986,13.8422184 C64.9886303,14.2431499 63.0911897,14.7916568 61.2069925,15.3486993 L60.4002676,15.5875491 C58.2755493,16.2163162 56.2131549,16.8649503 54.1562535,17.7035883 C50.0568169,19.3749464 46.1633662,21.6308994 42.5800563,24.2226881 C28.7817465,34.2028603 18.7951268,49.3131382 12.4930141,64.9574982 C10.7815352,69.2060618 9.33139437,73.5603006 8.15674648,77.9878779 C7.87111268,79.0651303 7.60238028,80.1466098 7.34759155,81.2314708 C7.27280282,81.549553 6.9468169,82.3640971 7.1255493,82.6895765 C7.28357746,82.9772243 7.89794366,83.1549699 8.1833662,83.3046059 L9.14698228,83.8044493 C11.026604,84.7735821 14.1575601,86.3665725 14.4715352,86.52178 L14.9612138,86.7629923 C22.970505,90.6909542 31.5283606,94.0218115 40.5413239,94.2523397 L40.6118873,93.4823906 L40.6118873,93.4823906 C41.0137183,89.2255843 41.5410423,84.9461636 42.6920282,80.8201832 C42.7539296,80.5984767 43.0359718,80.6732947 43.0617465,80.8702732 C43.7029437,85.7547898 43.4980141,90.6773495 43.2742817,95.5844806 C42.8781549,104.275627 42.3520986,112.961913 41.8845634,121.649678 C41.6504789,125.995674 41.3479437,130.338712 41.0747746,134.682383 C40.8011831,139.034719 40.712662,143.491674 40.0879437,147.808081 C39.9487183,148.770148 38.8222394,149.293451 37.9691408,149.192003 C37.0251972,149.079565 36.2990704,148.247901 36.2946338,147.2945 C36.2832254,144.779854 36.5990704,142.23562 36.7746338,139.727314 C36.9413239,137.344128 37.1202676,134.962211 37.3036479,132.580293 C37.9737887,123.887244 38.7447042,115.20434 39.4577324,106.515095 C39.7104085,103.433185 39.9833662,100.354023 40.2643521,97.2750716 C30.7165352,96.9671342 21.7966056,93.4293417 13.287169,89.2957526 C13.164,92.0933965 12.8665352,94.8859679 12.5785775,97.6719875 C11.7747042,105.446719 11.0659014,113.218492 10.5354085,121.017318 C10.2675211,124.956254 10.0725211,128.90005 9.90266197,132.844269 C9.81921127,134.782774 9.7511831,136.721702 9.699,138.661263 C9.68153521,139.307714 9.66576056,139.954258 9.65180125,140.600833 L9.62277405,142.082063 C9.5990243,143.020561 9.50365554,143.889909 8.71428169,144.573154 C7.91252113,145.267017 6.82956338,145.304003 6.03604225,144.573154 C4.97378873,143.594602 5.16160563,142.261404 5.19308451,140.947228 C5.21928169,139.838696 5.25076056,138.730375 5.28730986,137.622265 C5.36061972,135.405835 5.45421127,133.190038 5.56808451,130.975299 C5.96656247,123.23231 6.76273357,115.5202 7.80322649,107.839158 L8.2093983,104.874102 C8.96790662,99.3620622 9.80064457,93.7246478 11.4962535,88.4148446 C10.8360423,88.0864063 10.1777324,87.7556431 9.52195775,87.4234004 C8.35871831,86.8341558 7.15597183,86.2812634 6.02526761,85.6309386 C5.12822535,85.1150325 4.35456338,84.4074317 4.10484507,83.3631499 C3.82634608,82.1996484 4.25221293,80.9270502 4.5351332,79.7921891 L4.55970423,79.692418 C4.83709859,78.5494356 5.13583099,77.4115256 5.45104225,76.2784767 C6.72921127,71.6839327 8.30970423,67.1790012 10.1593521,62.7839718 C13.8628732,53.9850364 18.6432254,45.6259209 24.4824507,38.0678231 C29.7385775,31.2644571 35.9477324,25.0947194 43.2250563,20.467416 C46.7828028,18.2051225 50.5742113,16.3475648 54.5838592,15.0342341 C56.4580141,14.4204728 58.497169,13.886602 60.4594225,13.6667977 C61.5178732,13.5484415 62.5778028,13.480598 63.6413239,13.4343123 Z M82.6794085,-0.508403131 C83.9563099,-1.88006654 86.4932113,-0.460637965 85.8801127,1.35570646 C84.438,5.62899804 82.1415211,9.52693151 78.5575775,12.3349315 C75.1887042,14.9746967 71.1714507,16.6889589 66.8451127,16.3231115 C66.8117324,16.3201526 66.7827887,16.3116986 66.7572254,16.2996517 L67.1300556,16.8055511 C70.0571184,20.7664722 73.1450351,24.6726817 76.8668028,27.91018 C84.449831,34.5066341 94.7744789,38.0645049 104.744197,35.5335851 C112.588141,33.542454 119.498704,27.3374207 121.531099,19.4295382 C121.239761,19.5601526 120.893493,19.6047476 120.513423,19.5221096 C118.887296,19.1689432 117.277437,17.4580626 116.228704,16.2313855 C115.094197,14.904317 114.208141,13.471362 113.558704,11.8515734 C112.370113,8.88717417 111.988986,5.07039922 113.611944,2.19878278 C113.812225,1.84477104 114.274056,2.04322896 114.313352,2.38878669 L114.375143,2.92817968 C114.688032,5.61937583 115.077771,8.22266243 116.346169,10.6760431 C116.966873,11.8765127 117.710958,13.0482387 118.616662,14.0536321 C119.10131,14.5915186 119.626732,15.1055225 120.193986,15.556544 C120.746761,15.9959537 121.415753,16.3136725 121.911219,16.8178812 L122.002014,16.914681 L122.004549,16.8973503 C122.129831,15.8319335 122.876662,15.3625245 123.607437,15.3919022 C124.314638,15.4203322 125.145294,15.7317346 125.466986,15.8808968 L125.497435,15.8952558 C130.430953,18.2644404 134.974756,21.3525226 139.250746,24.7786027 C148.093563,31.86391 154.719127,41.1263366 157.929338,52.0337025 C159.504938,57.3869199 160.409049,62.9029688 161.363415,68.3932924 L161.950955,71.7571824 C162.841744,76.825724 163.836781,81.9939549 165.847648,86.7088885 C166.367789,87.928591 165.966803,89.0724188 164.69138,89.5519726 C163.098845,90.1509393 161.500394,90.7308845 159.899408,91.3036438 C160.685535,94.6774286 161.164901,98.16809 161.753915,101.558571 C163.005887,108.765405 164.539901,115.926164 165.855254,123.123487 C166.527718,126.803519 167.134479,130.495808 167.80631,134.176262 C168.129761,135.948646 168.467366,137.718493 168.795676,139.490031 C168.972507,140.445335 169.132859,141.403597 169.301662,142.360168 L169.331039,142.518914 C169.427732,143.02356 169.549237,143.545531 169.410465,144.050548 C169.252225,144.626477 168.802859,145.033327 168.401662,145.446305 C168.071451,145.786368 167.594197,145.788481 167.18962,145.602916 L167.056548,145.541328 C166.333952,145.203229 165.767885,144.865974 165.511521,144.050548 C165.349268,143.534219 165.290746,142.952583 165.18469,142.420614 C164.981239,141.400849 164.788352,140.379816 164.606239,139.355824 C164.242014,137.307205 163.886239,135.257108 163.538915,133.205319 L163.214504,131.284113 C162.101053,124.662697 161.043665,118.001015 160.509127,111.30964 C160.272,108.341098 160.020676,105.375127 159.767054,102.408587 L159.576592,100.183526 C159.335746,97.3672838 159.041451,94.479816 158.999831,91.6255303 L158.042498,91.9655401 L158.042498,91.9655401 L153.371239,93.6175068 L153.371239,93.6175068 C152.21307,94.0268924 150.738423,94.865953 149.491944,94.7133581 C148.881803,94.6385401 148.416592,94.4464227 148.057437,94.097272 C148.487577,100.17 149.069831,106.23216 149.845817,112.263464 C150.551873,117.751386 151.33462,123.23191 152.259127,128.687495 C152.716944,131.388975 153.187437,134.087918 153.698493,136.779675 C153.953915,138.125765 154.217577,139.469953 154.489268,140.812873 C154.62469,141.482853 154.785887,142.153468 154.891521,142.828943 C155.012366,143.602485 154.799408,144.078446 154.367366,144.714822 C154.012648,145.237491 153.303,145.505906 152.727718,145.145131 C151.965887,144.666845 151.568493,144.252599 151.344338,143.381624 C151.140676,142.59054 151.016873,141.764583 150.859268,140.963354 C150.568352,139.484325 150.287155,138.003605 150.015676,136.520771 C149.448,133.41984 148.92469,130.311299 148.457366,127.19346 C146.810535,116.209796 145.765606,105.134196 145.237859,94.0406301 C144.977366,88.5672916 144.896873,83.089092 144.943141,77.610047 C144.966803,74.8016243 145.058493,71.9851703 145.257085,69.1837221 C145.458211,66.3480352 145.876521,63.5689902 146.250042,60.7605675 C146.263141,60.6616556 146.402577,60.6559491 146.408493,60.7605675 C146.585324,63.9092642 146.862507,67.0543679 146.998352,70.2113072 C147.12807,73.223683 147.184901,76.2407084 147.288,79.2541409 C147.423423,83.2152681 147.611239,87.1787202 147.859901,91.1394247 C148.310113,90.6467671 148.988704,90.3627123 149.667718,90.4736712 C150.65138,90.267182 151.710254,89.7508532 152.64807,89.4374207 L156.183423,88.2559726 L156.183423,88.2559726 C158.041944,87.6350254 159.900465,87.0183053 161.765535,86.420184 C160.098037,80.808125 158.955761,75.1124438 157.980376,69.3337199 L157.545373,66.7348328 C156.68431,61.619303 155.755897,56.5013559 154.196239,51.5475969 C152.556592,46.3395029 150.10293,41.4974677 146.84793,37.1125832 C143.639408,32.7911037 139.735817,28.985953 135.716662,25.4268141 C132.275746,22.3799883 128.594831,19.6290528 125.085254,16.6659217 C125.122014,16.8622661 125.129831,17.0784775 125.097507,17.3160352 C124.35131,22.7794403 121.502366,27.8672759 117.532014,31.6515029 C109.555606,39.2539843 97.748493,40.8312916 87.5396197,37.2662348 C77.664338,33.8178434 68.9332817,25.6508454 65.8485634,15.5447084 C65.7957465,15.3718239 66.0272958,15.303135 66.1202535,15.4301566 C66.2913803,15.6647554 66.4633521,15.8993542 66.6355352,16.133953 C66.6239155,16.0407476 66.6722958,15.9392994 66.7872254,15.8949159 C70.3863803,14.5046536 73.9206761,12.5329667 76.6185634,9.74377691 C77.933493,8.38416047 79.0810986,6.84383953 79.9870141,5.18262622 C80.4209577,4.38689237 80.8107465,3.56283757 81.1217324,2.71130724 L81.2007668,2.49100266 C81.5776499,1.42432911 81.8926138,0.336629884 82.6794085,-0.508403131 Z" id="ðŸ–-Ink" fill="#000000"></path>
                    </g>
                    <g id="head/Twists-2" transform="translate(78.591549, 38.043053)" fill-rule="evenodd">
                        <path d="M86.2127324,53.2740751 C85.428507,47.0136681 82.9651205,40.366821 80.3743458,34.5303827 C74.5488529,22.1904844 61.212169,20.4915311 49.2563239,17.9472963 C37.4582958,16.2290184 24.9649859,14.6774959 13.3448451,18.105809 C6.81223944,19.7067875 4.26076056,27.4899734 5.29174648,33.6320243 C5.88012676,37.4593667 7.62160563,41.0816994 9.10660563,44.6287914 C12.0582254,51.9131906 13.9309014,59.7118051 13.9340704,67.5985526 C13.7314648,72.7525409 13.0042817,78.635265 18.9248451,80.8183022 C24.5587183,83.6210184 25.0347042,91.2186387 32.0891408,95.5293393 C34.9416761,101.309559 42.7118873,101.818279 48.3043521,103.159085 C51.8390704,103.835829 55.4137183,104.333981 58.9980845,104.655656 C69.3768169,105.986106 77.6796338,102.977535 83.1125915,93.7284235 C86.7482958,88.0995311 89.4556901,81.6000869 88.7868169,74.7781221 C88.1206901,67.5943256 87.0109014,60.4481495 86.2127324,53.2740751 Z" id="ðŸŽ¨-Background" fill="#FFFFFF"></path>
                        <path d="M49.3459014,2.95021761 C49.9382958,2.27854638 50.8509718,2.5089182 51.4049155,3.04004149 C51.7655493,3.14635068 52.1149859,3.3044407 52.4449859,3.5136775 C53.1907606,3.41793581 53.972662,3.41793581 54.7040704,3.4447773 C54.8815352,3.34523131 55.0716761,3.25667554 55.2787183,3.18058943 C56.7575915,2.63974403 58.0672394,2.91449941 59.1474507,3.63858552 C59.6678028,3.14613933 60.3242113,2.83714521 61.1633662,2.88385362 C61.9123099,2.92570098 62.4459718,3.27823327 62.9033662,3.74256986 C63.359493,3.0846364 64.0968169,2.6152274 65.0154085,2.54992016 C66.2992817,2.45861683 67.533507,2.9736775 68.5564648,3.77110215 C69.1524507,3.0871726 69.9649859,2.69406106 70.8704789,2.69025675 C71.4662535,2.5820454 72.0949859,2.62473816 72.6630845,2.7963546 C73.4878732,3.04553659 74.2120986,3.51240939 74.7888592,4.11835068 C75.7013239,3.24420587 76.8182958,2.6152274 78.1061831,2.70695342 C79.7730845,2.82742309 81.1547746,4.05346614 81.7970282,5.56250724 C82.9251972,6.01458552 83.9667465,6.65941526 84.837169,7.57878904 C84.8836479,7.62718826 84.9280141,7.67791233 84.974493,7.72884775 C85.443507,7.90194364 85.8850563,8.14732133 86.2737887,8.47047593 C87.5054789,9.4957362 87.7801268,10.9794153 87.3723803,12.4332939 C87.4294225,12.6659906 87.4780141,12.9027029 87.5223803,13.1392039 C88.6759014,13.3146247 89.7237887,13.9805894 90.3195634,15.0648164 C91.1350563,16.5527225 90.974493,18.5138419 90.0913944,19.9343272 C89.7117465,20.5453409 89.2298451,21.0601902 88.6885775,21.5103663 C89.3006197,22.9010513 89.0069577,24.5605738 88.0201268,25.68538 C87.7797042,26.0732078 87.4845634,26.4232039 87.1524507,26.740018 C87.519,28.1778341 86.8670282,29.6613018 85.5656197,30.4295601 L85.4543052,30.7082763 C85.4355962,30.7545933 85.4166056,30.8006912 85.3970282,30.8463429 C85.382662,30.9055209 85.3649155,30.9627969 85.3473803,31.0204955 C85.3163239,31.5306951 85.1483662,32.031384 84.8149859,32.5031178 C84.1324648,33.4698904 83.2864817,34.1003288 82.8379073,35.2289092 L82.7929437,35.3474701 C82.6000563,35.8815523 81.9772394,36.2583898 81.4465352,36.0935366 C84.3930845,42.1468204 85.9378732,48.8823429 86.9984366,55.4832352 C87.5272658,58.776337 87.9354002,62.0807699 88.2663595,65.3979272 L88.5909732,68.7012067 C88.8764681,71.6373885 89.1306143,74.5832864 89.1322394,77.5291843 C89.1364648,84.1932705 87.230831,90.6033135 83.1406901,95.9063037 C79.2723803,100.919321 73.7984366,104.552433 67.6146338,105.983274 C61.2301268,107.458499 53.7406901,106.877286 48.015338,103.499908 C46.3273099,102.506773 47.8061831,100.118304 49.5237887,100.917419 C52.7751972,102.430687 56.0794225,103.555071 59.6836479,103.806578 C63.1970282,104.053646 66.7188592,103.614038 70.0505493,102.464292 C75.5625211,100.560237 80.252662,96.5720571 83.2674507,91.6053252 C84.752662,89.1576775 85.8280141,86.5012157 86.4005493,83.6942724 C87.1132254,80.1958333 87.0058534,76.5797944 86.7439875,73.0366144 L86.7259014,72.7951491 C86.2082958,65.9683233 85.5259014,59.0994387 84.4230845,52.3406677 C83.4482958,46.3638928 81.9493521,40.5082215 80.0033662,34.782108 C79.2411127,34.1108595 78.3884366,33.5554309 77.4759718,33.1335757 C70.7942113,32.854382 64.1004085,32.9359632 57.4273099,33.3971295 C51.7361977,33.7930105 46.0726583,34.4627572 40.4519043,35.4388993 L39.8498451,35.5446599 C38.6054789,35.7663663 37.2237887,35.8931765 36.0512535,36.3942881 C35.0456197,36.8254427 34.6378732,37.6539358 34.3843521,38.6724329 C33.7463239,41.248793 33.6491408,44.0684172 33.5413944,46.7102959 C33.4357606,49.2927851 33.674493,51.8968321 33.4674507,54.4708673 C33.2920986,56.6245268 32.7406901,58.8289104 31.1456197,60.3867734 C30.3111127,61.2023742 29.2843521,61.6483233 28.3209718,62.2675796 C27.6977324,62.6672431 27.4336479,63.0791648 27.5139296,63.8188908 C27.687169,65.4378341 28.9906901,67.4773644 27.5266056,68.8638223 C27.2688592,69.1068751 26.8230845,69.1385777 26.5695634,68.8638223 C25.965338,68.2067342 25.130831,67.7056227 24.4146338,67.1751335 C24.1146338,66.9555405 24.3639296,66.5286129 24.7040704,66.6805738 C25.1519577,66.8815679 25.6082958,67.1182802 26.0751972,67.3254035 C25.0442113,66.4757753 23.5780141,66.0592039 22.3568873,65.8119241 C21.7420986,65.6893409 21.0956197,65.6534114 20.4554789,65.7106873 C19.9822394,65.9366207 19.4984366,66.1460689 19.0146338,66.3508673 C18.3998451,66.608926 17.7787183,66.8433135 17.1533662,67.0654427 C14.9836479,68.8342333 13.9484366,71.7109221 14.4005493,74.5239945 C14.6477324,76.0772078 15.3639296,77.766108 16.7139296,78.6728008 C18.3132254,79.7464603 20.4554789,79.2855053 22.1836479,80.0825072 C23.8019577,80.8283624 24.7864648,82.3355014 25.5237887,83.8952665 L25.8311755,84.5446604 C26.5155284,85.982433 27.2189816,87.3820594 28.1540704,88.6905933 C29.2357606,90.205975 30.5604085,91.5670708 32.0054789,92.7360493 C32.7065352,93.3017636 33.4537477,93.8106481 34.2259613,94.2740985 L34.437169,94.3993761 C35.2188592,94.8580063 35.7787183,95.29529 35.8315352,96.2653879 C35.8484366,96.6035483 35.6350563,96.9121198 35.3604085,97.0875405 C34.1773099,97.8378341 33.0005493,96.8994387 32.0160423,96.2442528 C30.9533662,95.5383429 29.937169,94.7438771 28.9970282,93.8773409 C27.2097042,92.2330356 25.6632254,90.2801589 24.4737887,88.1601041 C23.5674507,86.5455992 23.0519577,84.2735836 21.6195634,83.0223898 C20.7449155,82.2592039 19.509,82.2530748 18.4167465,82.1133722 C17.4005493,81.9825464 16.4392817,81.7711961 15.5350563,81.2702959 C11.8568873,79.2265386 10.8174507,74.2788282 11.6899859,70.4555014 C11.8378732,69.8106716 12.0449155,69.1829613 12.3005493,68.5784994 C10.9315352,68.8067577 9.39350704,67.3909221 9.94914085,65.9619828 C9.99139437,65.8541941 10.0399859,65.7529573 10.0864648,65.6491843 C9.18435211,65.05529 8.47238028,64.1551491 8.13435211,62.9777166 C7.96111268,62.3690278 7.93576056,61.7539984 8.02660563,61.1601041 C7.58928169,60.8665386 7.22801408,60.4626481 6.99561972,59.965975 C6.26885915,59.629928 5.62449296,59.1271256 5.23998592,58.4085346 C4.70759155,57.4170904 4.77519718,56.5040571 5.18083099,55.6819045 C5.12378873,55.5785542 5.06885915,55.4728791 5.01604225,55.3648791 C3.52660563,54.4203546 2.48716901,52.792746 2.60547887,50.9878145 C2.64350704,50.3896932 2.79139437,49.8507499 3.01956338,49.3648556 C3.0005493,49.303564 2.98153521,49.2399476 2.9646338,49.178656 C1.71815493,48.5446051 0.687169014,47.5028595 0.31956338,46.1121746 C-0.0480422535,44.7128243 0.385056338,43.3179123 1.25125352,42.2442528 C-0.0163521127,41.3166364 -0.779028169,40.0210591 -0.316352113,38.0616305 C-0.128323944,37.2650513 0.24984507,36.5399084 0.761112676,35.9291061 C0.759,35.9102959 0.754774648,35.8912744 0.750549296,35.8720415 L0.631955217,35.7800261 C-0.932915443,34.5446849 -1.83248059,32.9704082 -0.871985915,31.0342333 C-0.441,30.1636814 0.173788732,29.5568947 0.896323944,29.1574427 L0.932239437,29.0433135 L0.932239437,29.0433135 C0.414633803,27.9337245 0.23928169,26.7015523 0.596323944,25.405975 C0.887873239,24.3388673 1.57871831,23.4890278 2.4618169,22.9249339 C2.40266197,22.4470708 2.41111268,21.937928 2.5061831,21.3860924 C2.6646338,20.4542489 3.12730986,19.6405503 3.8033662,19.063564 C3.82871831,18.9407695 3.86040845,18.8205112 3.89632394,18.6998301 C4.12449296,17.962429 4.55125352,17.1614114 5.04561972,16.5673057 C5.4533662,16.0748595 5.90970423,15.8952117 6.4674507,15.8761902 C6.43364789,15.4219984 6.45688732,14.9610434 6.54984507,14.4939593 C6.83505634,13.0527616 7.75195775,11.6977949 9.11040845,11.0827656 C9.66815493,10.8312587 10.2554789,10.7574975 10.8216761,10.8185777 C11.3033662,9.80409628 12.243507,9.06880861 13.3991408,8.91029589 C13.8491408,8.8468908 14.2674507,8.85090646 14.6519577,8.90818239 C14.8695634,8.8065229 15.0956197,8.71585362 15.3322394,8.63321566 C15.4885775,8.57826458 15.6470282,8.52754051 15.8054789,8.47702779 C16.3399859,7.81338787 17.043507,7.28268728 17.865338,6.96375969 C18.8139296,6.59389667 19.7794225,6.63172838 20.6350563,6.94241331 L20.9075915,6.88534873 L20.9075915,6.88534873 C21.3343521,6.1456227 22.0146338,5.57286341 23.0604085,5.31290254 C24.2477324,5.01912564 25.4667465,5.42914521 26.4005493,6.17542309 C26.4047746,6.17542309 26.409,6.17542309 26.415338,6.17309824 C26.9033662,5.08041722 27.7378732,4.31955616 29.1385775,4.37239374 C30.0111127,4.40620978 30.7991408,4.83968924 31.4075915,5.45683209 C31.7456197,5.41435068 32.0836479,5.37630763 32.4237887,5.33847593 C32.7829437,4.9176775 33.1822394,4.5247773 33.6237887,4.17182231 C34.3463239,3.59251115 35.2864648,3.63921957 35.8188592,4.45482035 C35.9350563,4.6323546 36.0428028,4.81200235 36.1505493,4.9916501 L36.6385775,4.95783405 L36.6385775,4.95783405 C37.2132254,4.18217847 37.9970282,3.65802975 39.0702676,3.61597104 C40.0547746,3.57560313 40.7561831,4.05769315 41.2906901,4.73168924 C41.7259014,4.72112172 42.1632254,4.71287906 42.6005493,4.7063272 C43.1097042,4.11665988 43.7097042,3.59673816 44.3942113,3.16558356 C44.9181549,2.8358771 45.6913944,2.94810411 46.1160423,3.38771272 C46.4029437,3.68656204 46.6699859,3.99851507 46.9182254,4.32145832 C47.5581549,3.60371272 48.4224507,3.13092211 49.3459014,2.95021761 Z M18.2519577,70.0644188 C19.2385775,69.502227 20.565338,70.1109159 21.5202676,70.5885675 C22.6843521,71.1697808 23.8399859,72.0468845 24.5519577,73.1459061 C25.5216761,74.6422661 23.2420986,75.8511898 22.2216761,74.5091155 C21.5942113,73.6827358 21.093507,72.8500157 20.3329437,72.1271977 C19.6378732,71.4635577 18.6301268,71.0197221 18.230831,70.1447319 C18.2160423,70.1151429 18.2202676,70.0813268 18.2519577,70.0644188 Z M18.9450534,33.7436864 L18.963507,33.6909065 C19.2440704,32.9230708 18.0195634,32.5920963 17.7413239,33.3535914 C17.3196338,34.5077753 17.8057606,35.762562 18.945338,36.260926 C19.2611831,36.3991491 19.6220282,36.3511726 19.8123803,36.0335131 C19.9723099,35.766155 19.8981549,35.3028751 19.5850563,35.1661315 C18.9438647,34.8856419 18.7291002,34.3905528 18.9450534,33.7436864 L18.9450534,33.7436864 Z M8.39611268,31.5966364 C9.009,31.0555796 8.1096338,30.1613566 7.49970423,30.7000885 C6.9305493,31.2026795 6.50843662,31.8853409 6.61808451,32.6705072 C6.72984507,33.4706795 7.33301408,34.0356188 7.99322535,34.4348595 C8.69294366,34.8581941 9.33076056,33.7621315 8.63294366,33.3398536 L8.55455274,33.2918826 C8.26163498,33.1098942 7.91878873,32.8596658 7.86921127,32.5016384 C7.81660563,32.1212078 8.1383662,31.8242607 8.39611268,31.5966364 Z M11.8751456,22.049552 L11.9185775,22.017607 C12.5768873,21.547564 11.9445634,20.4472744 11.2786479,20.9226012 C10.6680845,21.3586168 10.1783662,21.9250356 10.1268169,22.7061863 C10.0767465,23.4653566 10.4629437,24.1235014 10.9678732,24.6575836 C11.5296338,25.2516892 12.4249859,24.3538732 11.8642817,23.7610356 C11.3179481,23.1832391 11.211162,22.5527574 11.8751456,22.049552 L11.8751456,22.049552 Z" id="ðŸ–-Ink" fill="#000000"></path>
                    </g>
                    <g id="face/Smiling" transform="translate(112.183099, 77.354207)" fill="#000000" fill-rule="evenodd">
                        <path d="M30.968993,50.9198978 C29.548794,50.3403012 28.2816173,49.3734958 27.3551889,48.1384646 C27.0331038,47.7091169 26.9495926,47.2557326 27.017159,46.8410547 C27.0931327,46.3747786 27.3688808,45.9521824 27.7449394,45.6687178 C28.1221628,45.3843752 28.5940214,45.2441445 29.0502103,45.3156301 C29.4466117,45.3777469 29.8412104,45.5948709 30.1535058,46.0451781 L30.2187521,46.1352289 C30.7695298,46.8806513 31.4872438,47.4922614 32.3050288,47.8864795 C33.0932406,48.2664417 33.9747757,48.4437847 34.8870208,48.3406561 C36.6244504,48.1443157 37.8219743,47.2043274 39.0948115,45.9278391 C39.2525834,45.7666792 39.4104563,45.6004672 39.5690946,45.4315797 C39.6692778,45.278484 39.8083069,45.1800892 39.962667,45.1284632 C40.1340565,45.0711416 40.327938,45.0743848 40.5055187,45.1363808 C40.6767961,45.1961763 40.8299095,45.309486 40.9325762,45.4602937 C41.0301525,45.6036243 41.0854754,45.7806897 41.0675245,45.9843589 C40.9510195,47.3072301 40.2596776,48.4878363 39.2776553,49.4148615 C38.1869942,50.4444414 36.7412431,51.1567117 35.3801317,51.4065272 C33.8805866,51.6817086 32.3525901,51.4845569 30.968993,50.9198978 L30.968993,50.9198978 Z M36.0875289,30.5120405 C37.6828906,31.482148 40.1137318,33.7442494 38.3974899,36.149264 C36.3773089,38.2698449 33.4687045,35.8384541 32.0353946,34.7388307 C30.7063626,33.8866164 29.2131206,36.0784478 30.4461973,37.0735516 C40.8033244,44.7445605 45.006466,30.7657101 36.8944406,29.3714319 C36.0012775,29.2177885 35.6695544,30.2119271 36.0875289,30.5120405 Z M17.5274577,21.5886716 C17.7037243,19.3998697 21.0359789,18.9028321 21.3674577,21.0687499 C21.6642887,23.0089456 21.3148521,24.7912626 20.4412606,26.5380728 C19.6065423,28.2068947 17.5085456,27.4283107 17.3498837,25.9087021 C17.1372039,23.8717299 17.4178099,22.9502317 17.5274577,21.5886716 Z M42.8930282,20.6196517 C43.3576056,20.0109628 44.0283803,19.5954481 44.8320423,19.8302583 C47.3429577,20.5642779 46.6028873,24.1303914 45.7210563,25.8662114 C45.2419014,26.8088337 43.6930986,27.0478708 42.993169,26.2178982 C41.8523239,24.864411 41.3059859,22.1614521 42.756338,20.8282544 C42.7956338,20.7593542 42.8393662,20.68982 42.8930282,20.6196517 Z M20.4058944,12.0111429 L20.802522,11.9416942 C22.0295218,11.7294045 23.5551549,11.5254176 24.4231479,12.5122544 C24.8835,13.0355577 25.0419507,14.0081918 24.4231479,14.509092 C23.3346972,15.3904227 22.1313169,15.0488806 20.8269507,15.1234873 C19.7520211,15.1852016 18.7189225,15.3631585 17.6835,15.6592603 C15.4119507,16.3087397 13.5610352,17.4944149 11.6209648,18.7963327 C11.3663873,18.9671037 11.1065282,18.6414129 11.228007,18.4032211 C12.3479366,16.208771 14.5182887,14.4061644 16.6922324,13.3073542 C17.8525141,12.7208571 19.1222324,12.2343288 20.4058944,12.0111429 Z M40.6041287,11.0281289 L40.9077055,11.0902829 C44.2113469,11.7811043 48.5035506,13.1610768 50.0679842,16.4073021 C50.1275964,16.8663298 50.0646105,16.9647086 50.0133917,17.0289838 L49.9963385,17.0503723 C49.9541341,17.1052595 49.9204583,17.1809212 49.7215736,17.2433957 C49.6663832,17.2302408 49.6106433,17.216308 49.5543131,17.2015401 C48.8372041,17.0135386 48.2698321,16.7545401 47.720556,16.4857982 L47.1250012,16.192275 C46.4340388,15.8533498 45.7369757,15.5267598 44.9982488,15.2856588 C43.4217423,14.7712438 41.8001698,14.4088706 40.1534741,14.2153715 C39.7965654,14.1734678 39.4528848,14.0529641 39.1817455,13.8464404 C38.92438,13.6504079 38.7277692,13.3789964 38.6381257,13.0182314 C38.5219478,12.5513438 38.5553348,12.1978716 38.8057421,11.7766707 C38.9940329,11.4603578 39.263447,11.2411116 39.5728025,11.115213 C39.888177,10.9868648 40.2472278,10.9566068 40.6041287,11.0281289 Z" id="ðŸ–-Ink"></path>
                    </g>
                    <g id="facial-hair/Moustache-5" transform="translate(104.577451, 109.479380)" fill="#000000" fill-rule="evenodd">
                        <path d="M62.1955141,6.91588885 C61.9138944,6.07429198 60.4648099,6.14763053 60.5539648,7.13822935 C60.656007,8.27001018 60.2687535,9.53219413 59.1849507,10.0817049 C58.0500211,10.6570004 56.7731197,10.1398262 56.0807958,9.15282035 C55.4788944,8.29494951 55.0637535,7.36183796 54.3063592,6.61365793 C53.6022042,5.91789276 52.7457254,5.38127436 51.8087535,5.06276947 C51.0790352,4.81485558 50.3220634,4.74891429 49.5879085,4.83028415 C47.758331,4.41667162 45.6384718,5.35739178 44.4982606,6.78442896 C44.4247394,6.87636634 44.3565,6.97083992 44.2905845,7.0661589 C44.1775563,6.91229589 44.0592465,6.75991233 43.9339648,6.60964227 C43.6109366,6.22244853 43.2099507,6.13938787 42.847838,6.24485166 C40.7856549,4.71065988 37.8957254,4.5073409 35.5536127,5.89189667 C33.6771338,7.00127436 32.1249507,8.63628023 29.8174859,8.76351311 C27.9898099,8.8643272 25.9990352,7.82110215 25.870162,5.81179491 C25.8025563,4.76265205 24.3735423,3.88808454 23.5717817,4.85945049 C21.8862887,6.90193973 21.5491056,9.61504344 22.4816408,12.0846716 C23.4657254,14.6904094 25.4706549,16.5259867 28.0092465,17.6057753 C30.7506549,18.7717949 33.9631901,19.1767421 36.9287535,19.084382 C39.8852324,18.9922333 42.5734014,17.8549573 44.3554437,15.4356305 C44.5681901,15.146926 44.755162,14.8535718 44.9191056,14.556836 C46.6493873,16.7607969 49.3616408,17.6871452 52.1241761,17.7537205 C55.0143169,17.8230434 58.4309366,17.3155914 60.4743169,15.0702059 C62.4435423,12.9059789 63.1231901,9.68753659 62.1955141,6.91588885" id="ðŸ–-Ink"></path>
                    </g>
                    <g id="accessories/*-None" transform="translate(88.521127, 88.978474)"></g>
                </g>
            </g>
        </g>
    </g>
</svg>