<?xml version="1.0" encoding="UTF-8"?>
<svg width="240px" height="324px" viewBox="0 0 240 324" version="1.1" xmlns="http://www.w3.org/2000/svg" xmlns:xlink="http://www.w3.org/1999/xlink">
    <!-- Generator: Sketch 62 (91390) - https://sketch.com -->
    <title>peep-75</title>
    <desc>Created with Sketch.</desc>
    <g id="Introduction" stroke="none" stroke-width="1" fill="none" fill-rule="evenodd">
        <g id="variations" transform="translate(-2526.000000, -1406.000000)">
            <g id="images" transform="translate(126.000000, 110.000000)">
                <g id="a-person/bust" transform="translate(2400.000000, 1296.000000)">
                    <g id="body/Tee-Selena" transform="translate(31.056338, 135.052838)" fill-rule="evenodd">
                        <path d="M108.981739,151.709016 C91.837162,151.757204 81.5685,151.55621 62.1758239,151.275748 C39.7305423,150.681642 33.6815282,151.750018 21.1073028,149.280178 C19.1847676,148.871427 17.722162,148.252593 16.2386408,147.38965 C15.7068803,147.99073 14.8054014,148.884953 13.9493451,148.292961 C12.3724437,147.250582 13.0954014,143.608593 12.7043451,141.552155 C12.0570211,123.442816 11.0215986,104.793055 14.5611761,86.9028869 C12.415331,86.2050082 -0.158471831,81.030519 -0.845091549,79.2970239 C10.5255423,49.5534857 35.4690634,14.7472626 68.287162,16.0580571 C68.947162,16.8721785 69.5342746,18.0770865 70.2667394,18.9060023 C74.7287113,17.2346442 80.9224437,15.5594818 81.2281479,9.12407671 C82.0007535,4.8292274 82.5574437,0.819278278 82.9294859,-3.1278998 C82.9968803,-3.57934403 83.5381479,-3.73447515 83.8706831,-3.92680391 C84.0120211,-4.94741448 84.3365282,-5.99063953 85.0408944,-6.69042035 C90.7924437,-7.20738317 103.921669,-4.83455342 107.367021,-3.85684697 C112.067303,-3.0522364 111.57843,1.99396321 112.453923,5.81940352 C113.841951,10.5483663 114.808077,15.4563429 116.870894,20.0764603 C117.337585,20.1407108 118.644908,20.368335 119.12681,20.4526638 C119.151951,19.9291491 118.906458,18.3753018 119.386246,18.0582763 C120.275472,17.1642646 120.480613,18.864789 120.678148,19.4193722 C140.100401,15.7503311 152.801176,32.2379789 157.057162,50.6550434 C160.139345,59.9170474 164.223782,69.2904329 169.555542,79.3430982 C172.899063,85.5846951 163.293148,86.7443742 159.266387,89.2353487 C163.421599,105.409141 163.92188,121.880515 164.603852,138.181963 C164.783852,140.689423 165.0285,144.099137 164.140542,145.34695 C163.719275,145.674542 163.426458,145.665454 162.999275,145.689337 C162.17512,146.579122 160.761317,146.519944 159.571246,146.773987 C155.808993,147.45855 151.95357,147.915701 148.331387,147.984813 C138.164345,154.27967 122.489979,150.759631 108.981739,151.709016" id="ðŸŽ¨-Background" fill="#FFFFFF"></path>
                        <path d="M81.5150493,-3.14011585 C82.0491338,-5.81475382 86.4620915,-5.19507476 86.2615986,-2.49761096 C84.033993,7.54152798 85.3901197,19.762436 71.3097676,18.7743734 C80.2478662,34.5022168 107.848711,44.0679311 116.77012,23.4187961 C112.374063,22.8940133 111.504275,12.4979037 110.973359,8.86035382 L110.951583,8.53520778 C110.833804,6.66448198 110.873226,4.93056026 111.997585,3.33058474 C113.119415,4.17070215 113.570261,5.69221292 113.95012,7.07972759 L114.228274,8.19104666 C115.158237,11.8942261 116.131343,15.5807167 117.606951,19.1150701 L117.659134,19.1235241 L117.659134,19.1235241 C117.585401,16.726389 120.661669,15.6305378 121.424134,18.1984438 C142.238007,15.3310544 153.623641,32.5136219 158.115824,50.483892 C161.392162,60.3207687 165.66357,69.7846121 170.515542,78.9322755 C174.177232,86.0799311 165.28519,87.7159937 160.581739,90.0941072 C164.199275,104.592949 164.909345,119.613825 165.579908,134.484643 C165.357444,137.658279 166.791739,144.168503 164.876176,146.444323 C162.039486,148.664769 160.511176,144.858773 160.947866,142.418311 C161.35519,125.163039 159.558993,107.984276 159.043077,90.7564791 C155.49188,92.2572775 151.897373,93.6401425 148.262725,94.9247295 C148.447796,111.091125 150.369275,127.257309 151.054627,143.341066 C151.953782,144.049935 152.450472,145.278726 151.682725,146.349638 C147.570613,152.08653 140.136317,152.943344 133.595049,153.025559 C118.028218,153.220847 102.44512,153.160842 86.8772324,153.114115 C71.5852606,152.767712 56.1601901,153.747321 40.9489225,151.993959 C37.9679366,154.233849 37.3582183,149.405551 37.7575141,147.345943 L37.9091573,143.220573 C38.0111761,140.470295 38.1192042,137.720205 38.2582183,134.971806 L38.6048214,128.270216 C39.185108,117.101933 39.8001901,105.939497 40.7758944,94.7930583 C31.939838,93.5845573 23.2307535,91.4393519 14.7992746,88.5444869 C15.4932887,107.894663 14.0695563,127.452385 16.4435704,146.704072 C18.0101197,148.83089 14.8683592,150.827516 13.0343451,149.495164 C10.759838,147.760189 11.7352606,144.365904 11.2810352,141.868166 L11.2227626,140.253481 C10.5861186,122.839145 9.71638521,105.058911 12.9610352,87.8838059 L11.5653772,87.3420889 C7.31096233,85.6805037 -3.63006761,81.2370526 -2.19530282,79.0447139 C9.22688028,49.1039859 34.7777958,13.2927922 68.618007,14.9945847 C69.475331,15.5897472 69.9130775,16.7492149 70.548993,17.5802442 L71.5555996,17.2147564 C75.4546399,15.7870381 79.688962,13.9768739 79.8044155,9.1758998 C80.5425845,5.08500352 81.128007,0.99326184 81.5150493,-3.14011585 Z M137.282725,71.4885182 C142.130261,64.7058646 108.509556,75.4255515 106.119063,76.1331523 L105.218983,76.4612863 C90.4934805,81.8164188 74.6188014,86.9950229 62.8770211,97.6695358 C62.6302606,97.9398528 62.9374437,98.3133088 63.256669,98.1617706 L63.2976194,98.1376161 C63.7647655,97.8776156 65.7873239,97.1552508 64.3544155,97.4288078 C81.3202606,86.7256063 101.030894,80.8460524 120.290683,75.7036885 C123.089556,75.0267335 125.901739,74.4043068 128.724908,73.8376767 C131.572796,73.1452932 134.786387,73.1529018 137.282725,71.4885182 Z M84.1561056,69.2809644 C84.5708239,67.590162 87.3570211,52.0518998 82.7294155,56.3146239 C81.4956127,58.5504986 81.0219507,61.1412305 80.7999085,63.6588352 C80.2030775,66.5940681 81.7094155,69.7573479 80.2446972,72.4632658 C78.9333592,75.9974654 74.1137113,80.1261933 73.7917394,73.5599624 C81.6770915,73.2904908 79.309838,63.2953127 73.9413169,66.3854654 C71.0017394,68.902436 70.493007,73.6419663 71.9646972,77.1142403 C69.5881479,74.5264673 65.7346268,74.517802 62.9839225,72.5649252 C58.0163873,67.1932462 66.3599789,61.6032423 70.9032887,59.6685417 C71.1591338,59.3868117 74.8837817,58.0882755 74.0944859,57.9312423 C70.5278662,57.9642129 66.9536408,58.7233832 63.8756831,60.5999624 C57.5051197,63.7091366 55.3368803,73.3355084 62.6243451,76.7090818 C64.2001901,77.4686748 65.9247676,77.8770035 67.4849789,78.6613245 C71.416669,80.7000094 70.1463169,83.262209 66.0874437,83.3374497 C64.418007,83.7022403 58.9087817,82.1735436 59.5256831,85.1005339 C60.5222324,86.9304047 62.6923732,87.2030466 64.5935704,87.2541933 C69.6749789,87.60271 75.9935704,84.7313049 73.1218099,78.751571 C76.5882887,81.7058254 80.9169507,77.575618 82.4025845,74.3658411 C84.2129366,77.9171601 88.7636408,76.8477276 91.3318099,74.7462716 C95.2558944,77.8376924 100.179697,74.4015593 101.927725,70.5638607 C101.96343,71.3623421 101.999134,72.1606121 102.037796,72.9590935 C102.11681,74.5955789 104.652021,75.1209957 105.02681,73.3638294 C105.59681,70.6923616 106.382725,68.0506943 107.463782,65.5396415 C109.950824,58.9385378 111.471528,61.914984 111.558148,67.0877824 C111.864486,69.0298802 112.836739,70.7701386 114.982585,70.9009644 C115.580683,70.937528 116.360894,70.4053479 116.454275,69.7801738 L116.577831,68.9530436 C116.839224,67.2198323 117.142045,65.4350595 117.796246,63.8065691 C118.426458,69.1972697 125.483641,69.1712736 127.451176,64.7014262 C131.533462,67.1522168 135.816806,63.7283915 137.719941,60.1873742 L137.77688,60.0800407 C138.441951,58.8690035 136.752021,57.404346 135.785894,58.5433127 L135.450572,58.8926466 C133.628561,60.7791615 130.729661,63.5145633 128.333852,61.1847687 C128.4135,60.1341464 128.381387,59.0609096 128.316739,58.0274067 C128.239204,56.7948117 126.5385,55.6983264 125.571528,56.8005182 C124.208641,55.6421072 122.515542,55.8088626 121.089908,56.6170661 C117.396951,57.6609252 115.070683,61.2572618 114.269556,64.831618 C114.184415,61.9756415 113.250401,58.8770348 110.114134,58.6084086 C106.900965,58.5811444 105.670965,62.1747335 104.57512,64.5932149 C104.511528,63.5100446 104.450261,62.4270857 104.39512,61.3437041 C104.300591,59.4798037 101.716013,59.4992904 101.504373,61.2885883 L101.498641,61.3439155 C101.091528,65.2109918 98.950331,74.4744751 93.5473732,72.6617237 C95.8256831,70.1510935 99.9468803,62.5006356 96.0289225,60.1176611 C89.9991338,58.5995319 86.9061761,68.1147335 89.4777254,72.5427335 L89.3442528,72.6363622 C87.8752475,73.6501431 85.4475718,74.7787097 84.6274437,72.5063812 L84.5344897,72.2968146 C84.1133282,71.336083 83.7415122,70.2954026 84.1561056,69.2809644 Z M75.5305563,68.2085307 C76.6722465,67.5419319 77.0785141,69.7496971 76.7871761,70.4906912 C76.3202746,71.6793252 75.0467535,72.3414857 73.7774577,72.7946207 L73.7818072,72.660167 C73.8378675,71.3027341 74.290412,68.9338156 75.5305563,68.2085307 Z M94.7485141,62.697593 C94.7742887,62.8567397 94.7322465,63.0509706 94.7269648,63.1987045 C94.5317535,65.8010607 93.3744296,68.2998552 91.7647817,70.3307202 C90.838162,67.5715421 92.0324577,63.9253268 94.7485141,62.697593 Z M122.196972,59.4430098 C122.936831,59.2479335 123.721056,59.3026732 124.483732,59.5089511 C124.42838,60.3763327 124.61662,61.2439256 124.994155,62.0400822 C123.025352,67.9549315 118.396901,63.4018121 122.196972,59.4430098 Z" id="ðŸ–-Ink" fill="#000000"></path>
                    </g>
                    <g id="head/hat-beanie" transform="translate(78.591549, 38.043053)" fill-rule="evenodd">
                        <path d="M51.7185372,12.4075623 C61.1773122,12.4075623 72.5261313,16.9948296 73.4910373,17.0865749 L73.5170858,17.0879697 C74.0247475,17.0879697 76.0083955,18.5998047 79.4680297,21.6234749 L75.7208552,28.9349282 L76.0240988,29.2246001 C77.4752121,30.6164137 78.714028,31.8850112 79.6918691,32.8850476 C87.6760202,41.0504247 89.1110361,73.1100521 87.2294388,84.2903025 C85.3478415,95.4705529 81.862756,106.410634 65.6377222,106.410634 C49.4126883,106.410634 31.3619694,96.6510448 28.581369,93.6117924 C26.7276354,91.5856241 24.6454088,90.614914 22.3346891,90.6996621 C22.2397193,90.5797811 22.1455157,90.4602512 22.0520783,90.3410724 L21.7120996,90.2928919 C18.514111,89.8295513 16.2226766,89.2059005 14.8378832,88.4221476 C12.1329919,86.8912577 9.15998878,78.8431922 9.15998878,77.0703055 C9.15998878,75.3151477 4.72067039,62.5469812 4.63188402,61.1958146 L4.63053425,61.1583879 C4.63053425,60.0288611 -1.16898899,54.8365017 -1.16898899,53.1875104 C-1.16898899,51.5385191 -2.33797797,51.6385642 -1.16898899,45.8277744 L-0.829364528,44.1207341 C0.414623318,37.9339543 2.84944751,27.6895419 12.1329919,23.2380361 C22.3346891,18.3462714 42.1642191,12.4075623 51.7185372,12.4075623 Z" id="Path" fill="#FFFFFF"></path>
                        <path d="M10.5582887,23.008227 C15.6461915,17.6057331 44.5310604,9.24935967 59.1447173,11.0207121 L59.5831479,11.0775029 C60.7493451,11.2254481 61.8986408,11.4494795 63.0329366,11.7538239 C66.6992746,12.6104266 70.4864577,13.9074834 73.5158239,16.0740352 C76.0449085,17.8464188 84.023007,20.7408611 81.6715986,25.3774638 C82.5435,27.0300117 82.8688521,29.0716556 82.2796268,30.6992642 C82.2054718,31.261456 82.0322324,31.7792642 81.8106127,32.3160939 C83.6733592,35.0659726 85.1482183,38.1757808 86.3420915,41.1336282 C88.4283592,48.5775969 89.7265986,56.3244305 89.9167394,63.9193033 C90.5492746,78.3486106 88.9677254,95.5844384 76.405331,104.915131 C68.8163873,110.827656 56.9287817,111.026325 48.4005423,103.695429 C47.9165282,103.122458 45.6405423,101.576219 46.4000493,101.305057 C46.6261056,101.543883 46.8585,101.776368 47.0951197,102.004626 C47.0843451,101.979264 47.0822324,101.953902 47.086669,101.926427 L46.8641141,101.724804 C46.4450174,101.336936 45.9020777,100.774384 46.5204718,100.88447 C46.5477254,100.916172 46.5775141,100.943648 46.6068803,100.97535 C46.737853,101.053946 46.8367989,101.122085 46.9137866,101.18216 L46.9533888,101.213866 L46.9411537,101.201134 C46.5849376,100.82114 46.3713786,100.433564 46.9039807,100.681094 L46.9744859,100.715389 C47.2113169,100.964783 47.4519507,101.203609 47.6970211,101.436094 C47.693007,101.408618 47.6970211,101.381143 47.7120211,101.351554 L47.4835246,101.13073 C47.2604763,100.912076 47.2945191,100.911143 47.4035704,100.734411 C46.9294859,100.069714 47.8144859,100.464517 47.8765986,100.723843 C48.430331,100.592806 48.9164577,101.63265 49.2730775,101.75946 C64.906669,113.783178 87.5940634,103.114427 87.226669,69.6101213 L87.2210589,68.9545949 C87.113608,58.2413582 86.2123986,47.2301458 81.7829366,37.5322192 C81.352162,36.5980509 80.8702606,35.6892446 80.3401901,34.8100274 C79.9746972,34.1506145 79.5838521,33.5081096 79.1634296,32.8825127 C77.9864577,32.7874051 76.8244859,32.5718278 75.6796268,32.2378943 C75.2864577,32.1385597 74.8977254,32.0286575 74.5092042,31.8997339 C68.830331,32.2095734 63.278007,32.5466771 57.5832887,32.8662387 L55.8045153,32.9770686 C50.9804102,33.2873268 45.9913648,33.7842578 42.0984296,36.7692446 C38.2787113,39.4867867 38.2613873,44.8455734 34.9915986,47.8292055 C30.3289225,50.9950215 30.2949085,53.8497299 29.3970211,58.5150763 C29.4635704,62.0319452 31.9011761,67.1417613 27.428007,68.6218474 C28.1826549,69.6982544 27.1307535,69.1810802 27.0479366,68.8036086 C27.0394859,68.8057221 27.0310352,68.8078356 27.0246972,68.8078356 C27.697162,70.0583953 26.7086408,69.2709041 26.6211761,68.8691272 C26.5683592,68.8543327 26.5155423,68.8162896 26.4627254,68.7634521 C27.1402606,69.859092 26.0450493,69.0918904 26.1099085,68.8923757 C24.8006831,66.8792642 22.1061761,66.5666771 20.2068803,67.1001252 C20.1836408,67.1719843 20.0993451,67.1783249 20.0465282,67.1402818 C11.9704014,68.8911076 14.0541338,85.6165245 22.330331,83.9996947 C22.6846268,83.9274129 22.6761761,84.0975499 22.7465282,84.1138239 C22.555331,83.6116556 23.0942746,83.8160313 23.0885704,83.9214951 L23.1214093,83.9199 C23.1474306,83.9176047 23.1367864,83.9147554 23.1561761,83.9214951 C22.9713169,82.894544 24.0115986,84.3824501 23.9294155,84.4435303 C23.9613169,84.4245088 23.9972324,84.4139413 24.0289225,84.4097143 L23.9931125,84.3122287 C23.8204664,83.8521113 23.835267,84.0433546 23.8364577,83.7798904 C23.7067394,83.4541996 23.6972324,83.5966497 23.7276549,83.384454 C24.1835704,83.0310763 24.3181479,84.103045 24.4702606,84.181456 C24.2095563,83.8179335 24.4168099,83.5209863 24.6627254,83.7183875 C26.5267394,87.6406262 28.9345563,91.3259413 32.0463169,94.2290489 C32.386669,94.4974638 32.7310352,94.7616517 33.0878662,95.011045 C34.4114577,96.1643836 36.4417394,96.9060117 37.6808239,97.9276791 C37.6808239,97.9445871 37.6725845,97.9657221 37.6599085,97.9868571 L37.6882711,98.0124834 L37.6882711,98.0124834 L37.7169507,98.0396947 L38.1479366,98.246818 C38.2746972,98.3546067 38.3887817,98.4750763 38.4899789,98.608227 C38.5979366,98.7329237 38.6927958,98.8703014 38.7732887,99.0161331 C38.8134296,99.1936673 38.7246972,99.2676399 38.5556831,99.1915538 C38.4815282,99.1661918 38.4077958,99.1366027 38.3338521,99.1091272 C38.3380775,99.1154677 38.3399789,99.1196947 38.3444155,99.1239217 C38.3686585,99.1606061 38.5327713,99.5412065 38.3436663,99.4792782 L38.3211761,99.4705362 C38.2174437,99.4324932 38.1141338,99.3902231 38.0127254,99.3500665 C38.1331479,99.5001252 38.2427958,99.662865 38.3399789,99.8002427 C38.4437113,99.9080313 38.5068803,100.034841 38.5324437,100.17856 C38.528007,100.258873 38.4838521,100.292689 38.4035704,100.282121 C38.2810352,100.241965 38.1606127,100.199695 38.0399789,100.155311 L38.0742856,100.220782 C38.1595165,100.388494 38.2806468,100.669779 38.0655423,100.575898 C37.8815282,100.518834 37.7042746,100.453315 37.5268099,100.381456 C37.5118099,100.411045 37.4824437,100.421613 37.4232887,100.394137 C36.8592042,100.193354 36.3141338,99.9481879 35.7923028,99.658638 C35.3338521,99.3247045 34.8709648,98.9971115 34.4106127,98.6652916 C33.9773028,98.4053307 33.558993,98.1157808 33.1599085,97.7903014 C30.4882183,96.0639922 28.1492746,93.8710215 26.2937113,91.4286575 C23.1904014,94.1172446 16.9856831,91.5487045 13.1475845,89.4440783 C9.75272535,87.5630607 8.41835915,84.0850802 8.07335915,80.3353033 C7.35610563,75.2869902 3.23216197,73.5589902 3.51906338,62.4821213 C3.51272535,62.4842348 3.50617606,62.4842348 3.49772535,62.4842348 C3.34772535,62.4398513 3.20216197,62.3806732 3.06483803,62.3045871 C2.92328873,62.236955 2.79019014,62.1566419 2.66533099,62.0594207 L2.51110563,61.8459569 L2.51110563,61.8459569 C2.43103521,61.8015734 2.35920423,61.7550763 2.30427465,61.7085793 L2.27578788,61.7453318 C2.18561268,61.8541923 2.24622887,61.6904031 2.25145775,61.6578552 L1.98353948,61.2933606 C1.34828543,60.4256995 0.65134331,59.4521507 0.0836408451,58.673589 L0.0657588593,58.7052238 C0.052916499,58.7291008 0.0461257545,58.7463539 0.0521619718,58.7539022 C-1.29889437,56.8120157 -2.56945775,54.4664501 -2.92248592,52.1957025 C-3.3393169,50.4465675 -3.17642958,48.6441722 -2.81283803,47.0239609 C-1.25389437,41.3502622 3.8528662,28.5111546 10.5582887,23.008227 Z M47.2233139,101.472664 L47.1386515,101.397234 L47.2130932,101.49054 C47.2521032,101.53876 47.2920401,101.582099 47.3570915,101.626309 C47.3528662,101.611515 47.3528662,101.59672 47.3547676,101.579812 C47.3116263,101.546867 47.2675152,101.510839 47.2233139,101.472664 Z M59.0801197,13.8715538 C49.1699789,13.0191781 39.4227254,15.203272 29.9659648,17.8470528 L29.3135977,18.0346301 C23.9363843,19.569572 18.250545,20.9507731 13.7063873,24.2361722 C7.35758451,29.1008219 4.0791338,36.8396243 1.21814789,43.9847436 C-1.28009155,49.2934403 -0.00297887324,55.2795147 3.76180986,58.9863875 C4.1535,55.3027632 4.8213169,51.7269276 5.86497887,48.1798356 C6.08279577,47.6256751 5.91800704,47.4441252 6.38744366,47.3718434 C7.09645775,56.9307945 3.60441549,63.9932759 10.5149789,75.3220744 C13.5135,80.667546 10.0423732,84.5787945 18.5099789,87.3916556 L18.7391283,87.4792497 C20.50323,88.1451832 22.42975,88.6708356 24.1575845,88.2985597 L24.0027873,88.0466646 C23.8449167,87.7872612 23.7970101,87.6613386 24.0265986,87.5503796 C24.0204718,87.5376986 24.0120211,87.5250176 24.0033592,87.5102231 C23.8176549,87.1593816 23.6380775,86.8043131 23.4667394,86.4450176 C23.3972324,86.4682661 23.3275141,86.4851742 23.2554718,86.5041957 C23.302162,86.5908493 23.3082887,86.6775029 23.1775141,86.707092 C22.7119648,86.8668728 22.2339009,86.9309166 21.7445249,86.9009418 L21.6394859,86.8930802 C21.0865986,86.8592642 20.7382183,86.7584501 20.4265986,86.6648219 C20.3232887,86.6479139 20.2197676,86.6310059 20.1181479,86.6098708 C19.1156831,86.3875303 18.0544859,85.8219569 17.3676549,85.261456 C9.5385,80.812955 10.3476549,65.6699178 19.9979366,64.2384423 C20.1958944,54.7040078 24.7290634,38.6185597 32.2523028,29.5332446 C39.0525845,21.1762427 57.6175141,17.5541213 70.5335704,18.8313112 C70.7218099,18.8936595 70.9100493,18.9566419 71.0982887,19.0202583 C73.0909648,19.1973699 74.9900493,20.0854638 76.9842042,20.4980196 C75.5524437,19.4245714 73.9282183,18.7095734 72.2551901,18.1019413 C68.9218099,16.0621996 65.1004014,14.9585284 61.4085,14.1801252 C60.6437113,13.9920235 59.8683592,13.8884618 59.0801197,13.8715538 Z M19.5562394,71.8977558 C20.0751127,71.6158145 20.0157465,71.8880337 20.1351127,71.8089886 C23.8673662,71.5044329 27.8918028,74.7733879 29.9780704,77.4985386 C29.8132817,77.6697323 29.367507,77.1624916 29.289338,77.0821785 C29.2787746,77.092746 29.2660986,77.1012 29.2534225,77.105427 L29.3115156,77.1874494 C30.1571007,78.4013886 28.4808213,76.9729193 28.3238451,76.6784994 C28.2963803,76.6932939 28.2689155,76.7017479 28.2372254,76.6954074 C28.3701127,76.8258106 28.7759577,77.1658732 28.8456761,77.4076579 L28.9532735,77.4972352 C29.9678658,78.3664083 29.8836617,79.0202421 28.7318028,77.785975 C28.7590563,77.8430395 28.7696197,77.8958771 28.7506056,77.9381472 L28.7902669,77.9645876 C29.3566853,78.3605602 29.8225102,79.4643749 28.6386338,78.3312587 C28.7618028,79.1589065 27.4654648,77.5591961 27.4238451,77.5703977 C25.1806056,75.808793 21.8778592,74.0955875 19.0639859,73.865427 L18.9671387,73.8542957 C18.4507899,73.7879265 18.206662,73.6346627 18.3879296,73.2968947 C17.7520141,73.1455679 17.9009577,72.8323468 18.2020141,72.8424916 C17.753493,72.5474466 18.1572254,72.2652939 18.417507,72.3754074 C18.2385634,71.879791 18.9562394,72.2099202 19.0217324,72.1408086 C19.3941972,71.5661472 19.4945493,72.0454896 19.5562394,71.8977558 Z M11.7330211,41.1779906 C13.5256268,40.5211139 18.8206268,42.487517 18.3970352,45.0917753 C18.1447817,45.6896853 17.3136549,46.0322841 16.7295,45.6947577 L15.9670715,45.1824955 C14.6402471,44.2935638 13.4435993,43.5140899 12.0190775,42.7388125 C11.2437254,42.3539436 10.9099225,41.5368634 11.7330211,41.1779906 Z M21.9319437,37.3079131 L21.2396325,36.8572074 C17.5035897,34.4111231 12.2220634,30.7047213 21.5886338,34.5394356 C22.656169,34.9974317 24.0746197,35.2683828 24.6570845,36.2854004 C25.5720845,38.1598661 23.1640563,38.2858309 21.9319437,37.3079131 Z M22.3517746,26.3327037 C22.0519859,25.1945824 25.782338,26.5301049 26.8682535,26.8822145 L27.0336531,26.944708 C28.0899945,27.3384701 29.3008732,27.7037542 29.9326901,28.6157096 C30.6729718,29.87578 29.174662,30.1367977 28.2465634,29.5676313 C26.3436761,28.3236235 24.2574085,27.3850168 22.3517746,26.3327037 Z M31.8377535,21.0310027 C29.7380472,18.7371398 35.3574566,20.9345822 36.199214,21.5445568 L36.2232465,21.5625487 C36.8513451,22.0049049 36.7239507,22.957672 36.1338803,23.2374998 C34.4549366,23.2694137 33.2194437,21.8694294 31.8377535,21.0310027 Z M41.3925423,18.5177941 C38.0545141,16.1179115 42.4516268,17.2594145 43.9788803,18.1999233 C45.0197958,19.1182403 43.9476127,20.6684947 41.3925423,18.5177941 Z" id="ðŸ–-Ink" fill="#000000"></path>
                    </g>
                    <g id="face/Tired" transform="translate(112.183099, 77.354207)" fill="#000000" fill-rule="evenodd">
                        <path d="M39.9421268,48.4226982 C41.277338,48.1113793 42.3260704,49.242526 42.0636761,50.5450779 C41.7858592,51.9239272 40.3038169,52.3965065 39.0611408,52.3531796 C37.6521972,52.3043577 36.2443099,52.0133284 34.8283944,51.9547843 C33.3738169,51.8947609 31.9137465,51.8837706 30.4583239,51.9230818 C29.1121268,51.9594341 27.7304366,52.1967804 26.3948028,51.9837393 C25.874662,51.9006787 25.9238873,51.2137902 26.262338,50.9696806 C27.2671268,50.2447491 28.5693803,49.9492814 29.7537465,49.6451483 C30.9613521,49.3348861 32.1957887,49.0973284 33.4342394,48.9523421 C34.6898028,48.8054536 35.9557183,48.7321151 37.2195211,48.7177432 C37.7948028,48.7111914 38.5002254,48.8390583 39.0611408,48.7354967 C39.3469859,48.6824477 39.6381127,48.4937119 39.9421268,48.4226982 Z M36.0875289,30.5120405 C37.6828906,31.482148 40.1137318,33.7442494 38.3974899,36.149264 C36.3773089,38.2698449 33.4687045,35.8384541 32.0353946,34.7388307 C30.7063626,33.8866164 29.2131206,36.0784478 30.4461973,37.0735516 C40.8033244,44.7445605 45.006466,30.7657101 36.8944406,29.3714319 C36.0012775,29.2177885 35.6695544,30.2119271 36.0875289,30.5120405 Z M24.5195704,23.2678708 C26.6535845,22.9128023 27.0268944,25.9562466 24.9118944,26.168865 C24.4680211,26.2134599 24.0266831,26.2523483 23.5861901,26.2910254 C23.6290775,26.4288258 23.6575986,26.5706419 23.6732324,26.7164736 C23.6933028,26.8403249 23.7083028,26.9717847 23.7216127,27.1220548 C23.7885845,27.8708689 23.2578803,28.6494834 22.6378099,29.0125832 C21.9934437,29.3898434 21.0685141,29.4401448 20.4285845,29.0125832 C20.0985845,28.7919335 19.769007,28.5431742 19.5871056,28.1783836 C19.3430915,27.8036595 19.209993,27.3699687 19.1964718,26.924865 C18.2235845,27.1776399 17.2329507,27.5193933 16.2503451,27.7005205 C16.2864718,27.7360274 16.3219648,27.7738591 16.3564014,27.8154951 C16.3825986,27.847409 16.3466831,27.9072211 16.3084437,27.8778434 L15.8155563,27.7685753 L15.8155563,27.7685753 C15.6638662,27.7884423 15.5121761,27.8047162 15.3609085,27.814227 L15.3645,27.8009119 L15.3645,27.8009119 C15.1116127,27.7964736 14.9045704,27.4974129 15.130838,27.2581644 C15.9989644,26.3402144 17.353571,25.730161 18.5885778,25.2200846 L19.778498,24.7320764 C21.3000321,24.1134321 22.906201,23.5363182 24.5195704,23.2678708 Z M41.6872394,24.2093941 C43.0849859,24.0498247 44.469,24.1132297 45.8690704,24.1986153 C48.225338,24.3421221 47.2370282,27.7795233 45.3457606,26.9859029 C45.3651972,27.1116564 45.3702676,27.2376211 45.3556901,27.3549205 C45.2817465,27.959171 45.0848451,28.4697933 44.5304789,28.7944274 C44.0156197,29.0958129 43.3630141,29.0949675 42.8481549,28.7944274 C42.2967465,28.4727523 42.0480845,28.0194059 41.9073803,27.4303726 C41.7983662,26.9736446 41.8420986,26.5915233 41.9050563,26.1392337 C41.9259718,25.9893863 41.9912535,25.8496838 42.0816761,25.7241417 C41.9498451,25.691171 41.8178028,25.6592571 41.6855493,25.6294568 C40.5096338,25.3618873 39.3495634,25.4155703 38.1770282,25.2460673 C38.0519577,25.2278912 38.0320986,25.0258403 38.1415352,24.9744822 C39.1951268,24.4792885 40.5345634,24.340854 41.6872394,24.2093941 Z M24.3041197,13.5930787 C25.1107394,13.2851413 26.1239789,13.7972431 26.5357394,14.5016719 C27.0030634,15.3010004 26.8034155,16.2237558 26.2266549,16.8973292 C25.3419051,17.9305929 23.6569785,18.5671183 22.4151509,19.1567194 L22.3154577,19.204429 C21.0402465,19.819881 19.7301761,20.3850317 18.4023592,20.8774779 C17.0965141,21.3621041 15.7380634,21.7416892 14.3842606,22.0675914 C13.6703873,22.2394192 12.9413028,22.3814466 12.2117958,22.4710591 C11.6358803,22.5416501 11.1917958,22.3835601 10.6408099,22.3835601 C10.5603169,22.3837714 10.5351761,22.2770395 10.6008803,22.2360376 C11.1157394,21.9122489 11.4979225,21.4859554 12.0594718,21.1860493 C12.6442606,20.8738849 13.231162,20.5670043 13.8201761,20.2630826 C15.0110915,19.6488986 16.1578521,18.9653918 17.3067254,18.2774466 C18.5177113,17.5523037 19.7012324,16.7886951 20.8522183,15.9711922 C21.9784859,15.1712313 23.0164437,14.0844681 24.3041197,13.5930787 Z M38.6780915,12.9353777 C39.6854155,12.7398787 40.6830211,13.2166849 40.9811197,14.243636 C41.2669648,15.2274716 40.9680211,15.4383992 41.7304859,16.142407 C42.3382866,16.7034608 42.9935912,17.2042359 43.654954,17.6973536 L44.6283687,18.4212746 C46.3914775,19.7268939 48.169162,20.9613487 50.1964014,21.8423131 C50.3677394,21.9167084 50.2686549,22.1713855 50.1061901,22.1747671 C46.8835141,22.2369041 43.7933028,21.8004658 40.8843592,20.3571546 C39.5254859,19.6829472 38.1602746,18.8301487 37.3728803,17.4842701 C36.460838,15.925773 36.4874577,13.3601918 38.6780915,12.9353777 Z" id="ðŸ–-Ink"></path>
                    </g>
                    <g id="facial-hair/*-None" transform="translate(104.577451, 109.479380)"></g>
                    <g id="accessories/*-None" transform="translate(88.521127, 88.978474)"></g>
                </g>
            </g>
        </g>
    </g>
</svg>