<?xml version="1.0" encoding="UTF-8"?>
<svg width="240px" height="324px" viewBox="0 0 240 324" version="1.1" xmlns="http://www.w3.org/2000/svg" xmlns:xlink="http://www.w3.org/1999/xlink">
    <!-- Generator: Sketch 62 (91390) - https://sketch.com -->
    <title>peep-84</title>
    <desc>Created with Sketch.</desc>
    <g id="Introduction" stroke="none" stroke-width="1" fill="none" fill-rule="evenodd">
        <g id="variations" transform="translate(-2766.000000, -2054.000000)">
            <g id="images" transform="translate(126.000000, 110.000000)">
                <g id="a-person/bust" transform="translate(2640.000000, 1944.000000)">
                    <g id="body/Polo-and-Sweater" transform="translate(31.056338, 135.052838)" fill-rule="evenodd">
                        <path d="M20.4452113,149.828759 C33.3815493,150.191014 45.6017763,150.590677 58.5131847,149.828759 C79.1743115,148.550301 139.807842,150.854865 153.135569,149.828759 C154.141343,149.751324 157.600331,150.854865 157.672373,149.828759 C158.258218,142.68364 158.638077,70.3940087 156.897444,65.4199637 C155.15681,60.4459187 146.564979,36.5350685 135.617303,25.3854951 C132.564697,22.3733307 127.919382,21.2065704 125.353326,17.725631 C123.140829,13.9298846 123.312712,11.7020609 121.127725,9.70501958 C120.179554,8.83840687 117.943398,8.48708054 116.281796,7.28418787 C114.611092,5.62318591 116.192937,1.96682583 115.507162,-0.346191781 C114.093782,-6.1215499 108.886669,-9.8267319 103.195331,-10.69982 C95.2850412,-12.59334 86.9341145,-10.8030512 83.1450972,-4.58706945 C81.7347203,-2.27330922 82.4853076,0.539084016 80.7506831,4.24666145 C80.8744859,7.04853229 77.6046972,7.72548728 75.6502606,8.83571037 L71.768936,12.7599263 C59.8111895,19.4905877 45.7442746,23.1251037 35.2668803,32.1679374 C26.358993,41.2080235 17.4988521,51.6567593 13.5464577,63.8876008 C12.7282183,67.2203836 12.4611761,70.6649706 12.1220915,74.0704579 C11.1540634,84.0225205 8.4585,93.681863 6.13878169,103.375867 C3.49371127,115.589589 1.02807764,128.554906 4.59300722,140.884237 C5.62082412,143.493779 18.1054225,149.70681 20.4452113,149.828759 Z" id="ðŸŽ¨-Background" fill="#FFFFFF"></path>
                        <path d="M82.4597535,-3.59189824 C82.5632746,-3.93027006 83.0092606,-3.83516243 83.0430634,-3.51369863 C83.3789789,-0.326536204 82.9564437,3.00434442 82.5508099,6.17037182 C82.3564437,7.69843444 82.2442606,9.28778865 81.9484859,10.7945049 C81.9104577,10.9553425 81.8745423,11.1178708 81.8407394,11.2787084 C81.9379225,11.4518043 82.2254577,11.6462466 82.3625704,11.7793973 L82.958971,12.3594912 L84.1541197,13.516908 C86.4930634,15.7825832 88.8315845,18.0501605 91.1703169,20.316047 L94.6034155,23.6448141 C95.7803873,24.7858943 97.1177113,25.8787867 98.1505986,27.1511155 C98.710669,27.8420196 98.8372183,28.6895342 98.2858099,29.4292603 C98.0132746,29.7948963 97.5233451,30.0611977 97.0266549,30.1161487 C97.2210211,30.3866771 97.3710211,30.693135 97.4660915,31.0336204 C97.6604577,31.7268493 96.9592606,32.5783796 96.2134859,32.2888297 C95.3663028,31.9633503 94.6667958,31.3800235 93.8048239,31.1010411 C92.9344014,30.8178317 91.9881338,30.763092 91.0858099,30.9150528 C90.6717254,30.9847984 90.2660915,31.0885714 89.8710211,31.2196086 C94.0986972,33.1661448 98.6724296,34.2841879 103.337218,34.4446027 C104.287923,34.4765166 105.236725,34.4636243 106.18088,34.4004305 C107.769824,34.2966575 109.347782,34.0559295 110.898486,33.667045 C112.117711,33.3605871 113.324049,32.9757182 114.494472,32.5107476 C115.06912,32.2824892 115.637218,32.0311937 116.186725,31.7458708 L116.234831,31.7173897 C116.35905,31.6397223 118.654441,30.3374279 118.694472,30.1417221 C118.734503,29.9460163 118.734503,29.87784 118.659816,29.7074708 C118.610025,29.5938914 118.516063,29.4979539 118.377931,29.4196581 C117.668696,29.1164024 116.933963,28.8341466 116.159261,28.8290254 C114.375951,28.8184579 112.430176,30.1374951 110.955739,31.0357339 C109.335317,32.0227397 107.845669,33.176501 106.286514,34.2461448 C106.250599,34.2712955 106.210669,34.2820744 106.17243,34.2820744 C106.007852,34.2820744 105.855528,34.0789667 105.961162,33.920454 C107.078636,32.2745042 108.586899,30.9040587 110.164612,29.7074708 L110.80035,29.230737 C112.245334,28.1527235 113.935458,26.9588083 115.692359,26.6986145 C117.844965,26.381589 120.093063,27.7238748 122.013486,28.5098865 L125.414683,29.9026849 C126.021021,30.1499648 126.680387,30.3613151 127.290739,30.642411 L125.865423,26.1810328 C125.153252,23.9500969 124.442937,21.7185675 123.739542,19.4854403 L123.603055,19.0479479 C122.902382,16.7811599 122.259113,14.4231525 121.092148,12.3523679 C120.813275,11.8556947 120.494261,11.3886106 120.179472,10.9170881 C119.852007,10.4290802 119.729472,9.89013699 119.317711,9.45454403 C118.502218,8.59012133 117.333697,8.08288063 116.218204,7.75127202 C115.945669,7.6709589 116.026162,7.31166341 116.281796,7.28418787 C117.426525,7.16351367 118.518032,7.43059358 119.552484,7.9136075 L119.982434,8.11874867 C120.960636,8.58174975 121.914401,9.01237808 122.640739,9.84342857 C124.296934,11.7413796 125.157035,14.1310906 125.947198,16.4893748 L126.158556,17.122544 C126.45412,17.0253229 128.463275,17.6382387 128.714683,17.7838591 C136.246585,20.9691194 142.047993,26.8993973 146.290246,33.8485949 C150.938134,41.463546 153.468908,50.1648376 155.558345,58.7754599 C156.203134,61.4327671 156.819824,64.098317 157.412218,66.7697847 C154.772852,67.7857456 151.967641,68.3172916 149.496866,69.7485558 C148.555669,70.2936282 149.40581,71.7553268 150.349754,71.2085636 C152.663979,69.86818 155.299965,69.3729863 157.777077,68.4316321 C159.120106,74.6163757 160.314824,80.8349354 161.315387,87.0794912 C164.389542,106.244736 166.33088,125.722568 166.208345,145.149886 C166.206232,145.579139 166.079683,146.058693 165.844965,146.470826 C165.9825,146.403405 166.090246,146.322881 166.151514,146.225871 C166.93088,145.001941 168.885106,146.137104 168.101303,147.367162 L167.986835,147.545426 C167.39867,148.452603 166.849593,149.145752 165.815599,149.657988 C164.773838,150.173894 163.645669,150.260548 162.496585,150.290137 C158.590246,150.393065 154.681162,150.460063 150.77081,150.50825 C150.234613,146.323937 150.016585,142.099679 149.277782,137.939883 C149.087852,136.870239 147.458768,137.323585 147.648063,138.389425 C148.361514,142.406348 148.589894,146.484141 149.087852,150.52854 C140.727993,150.618575 132.363486,150.619632 124.009965,150.643092 C112.68919,150.67638 101.369871,150.65287 90.0496021,150.646473 L85.197993,150.644994 C72.1205282,150.644994 59.0428521,150.602724 45.9655986,150.51607 L42.8555282,150.49409 C41.6183451,143.198067 40.7762324,135.839695 40.7605986,128.425526 C40.7582746,127.337706 39.0681338,127.335593 39.0704577,128.425526 C39.0860915,135.831452 39.9189085,143.190669 41.1446831,150.484579 C38.0483451,150.471053 34.9534859,150.482254 31.8569366,150.592157 L30.2808717,150.648328 C27.1275086,150.756324 23.9677817,150.82286 20.8203169,150.571233 C17.3259507,150.290137 13.7916549,149.647632 10.6585563,148.001213 C9.2475,147.258317 8.00503521,146.30872 6.94320423,145.192157 C8.02257042,144.564023 9.11735915,143.961464 10.1629225,143.277112 C11.0694718,142.68364 10.2237676,141.219194 9.30982394,141.817315 C8.1831338,142.554928 6.99876761,143.197221 5.83869718,143.87946 C4.99869718,142.758035 4.30933099,141.513393 3.78580986,140.170685 C2.95975352,138.05063 2.64073944,135.77016 2.36397887,133.52562 C2.03672535,130.88184 1.90130282,128.216501 1.90130282,125.553699 C1.90130282,119.952916 2.49073944,114.369041 3.31278169,108.83589 C4.09888089,103.535023 5.13800441,98.2768905 6.23638571,93.0354132 L6.38651408,92.3207671 C7.4703169,87.168047 8.50341549,82.0005323 9.74566901,76.8837417 C10.894331,72.1522427 12.2217254,67.4429354 13.8036972,62.8247202 C15.2117958,63.6956947 16.6853873,64.4576125 18.0715141,65.3649393 C18.9844014,65.962638 19.8322183,64.4992485 18.9246127,63.9051429 C17.4457394,62.9369472 15.8684155,62.1323366 14.3760211,61.1863327 C16.1449648,56.2411585 18.2213028,51.4113816 20.710669,46.7855577 C25.6963732,37.5220744 32.4148944,29.234818 41.0198239,23.1185519 C45.3273592,20.0579883 50.0534155,17.5536986 55.0163028,15.7316477 C60.076162,13.8719765 65.3196127,12.8530568 70.6815845,12.4347945 C70.8346914,12.4226605 70.9206137,12.5644188 70.9143403,12.6954947 L70.9120775,12.7199061 L71.1233451,12.7539335 C71.2015141,12.2234442 71.3620775,11.7096517 71.6684155,11.2385519 C72.3655986,10.1648924 73.6879225,9.47589041 74.7442606,8.8164775 L74.9947089,8.66060691 C76.2514907,7.88131024 77.5778345,7.11358855 79.0395423,6.84035225 C79.0902465,6.83168689 79.1217254,6.88452446 79.0879225,6.92489237 C78.1239911,8.0305117 76.8913784,8.87527283 75.7617168,9.81042254 L75.5020578,10.0270252 C74.5658748,10.7977781 73.2600352,11.6725479 73.2252465,12.9608454 C73.1853169,14.4785519 73.495669,16.0571272 73.6078521,17.5706067 C73.7198239,19.0794364 73.7977817,20.586364 73.8379225,22.0996321 C73.9839085,27.5209785 73.8085563,32.944227 73.3287676,38.344227 L75.4497688,36.9236558 C78.7505669,34.713237 82.0623219,32.509007 85.4428521,30.4395147 C87.4881338,29.1864188 89.7867254,28.1146614 92.2372183,28.1634834 C92.923838,28.175953 93.6991901,28.275499 94.4430634,28.4868493 C93.6423592,27.7281018 92.8754577,26.9207436 92.0916549,26.1577691 C90.8005986,24.9000235 89.5097535,23.6427006 88.2191197,22.3872798 L84.4971919,18.7604031 L80.773838,15.1335264 C79.6205282,14.0070294 78.2682042,12.9695108 78.3907394,11.1941683 C78.4902465,9.77812133 79.2104577,8.36841487 79.7027113,7.00309198 C79.7724296,6.8065362 79.8358099,6.61209393 79.8949648,6.41976517 C80.8881338,3.11847358 81.452007,-0.303499022 82.4597535,-3.59189824 Z M130.563486,138.0538 C129.793627,137.283217 128.598275,138.478403 129.368556,139.249198 L129.775837,139.654989 C130.456099,140.333904 131.130482,141.033697 131.601253,141.87297 L131.670317,141.999922 C132.17757,142.962834 133.637007,142.109401 133.129542,141.146489 C132.502289,139.956376 131.504472,138.995577 130.563486,138.0538 Z M97.5778521,137.836321 C95.1269366,137.36818 92.7647535,137.36818 90.313838,137.836321 C89.2467254,138.040274 89.6986268,139.670207 90.7632042,139.466888 C92.9067254,139.057292 94.9847535,139.057292 97.1284859,139.466888 C98.1913732,139.669785 98.6466549,138.040697 97.5778521,137.836321 Z M64.4781338,120.793033 C63.4234859,120.525675 62.9734859,122.156031 64.0289789,122.423389 L64.5486177,122.553808 C66.3150978,122.990509 67.9975094,123.315898 69.8325,122.910552 C70.880151,122.678831 70.4565231,121.088048 69.4247279,121.271685 L69.3831338,121.279984 C67.6851761,121.655131 66.1209507,121.209393 64.4781338,120.793033 Z M123.262289,109.810638 C122.481866,109.051679 121.285458,110.24602 122.067148,111.006035 C123.04257,111.954998 124.192077,112.676125 125.585176,112.714591 C126.656965,112.744571 126.672142,111.104106 125.63313,111.026241 L125.585176,111.023789 C124.651585,110.997793 123.907711,110.43856 123.262289,109.810638 Z M23.7922183,105.294928 C24.7653169,104.808188 23.9103169,103.349448 22.939331,103.835131 L17.0982042,106.756626 L17.0982042,106.756626 C16.1251056,107.243366 16.9801056,108.702528 17.9510915,108.216634 L23.7922183,105.294928 L23.7922183,105.294928 Z M139.214472,105.667538 C138.126444,105.636892 138.127289,107.327695 139.214472,107.358341 C140.236796,107.386873 141.284472,107.774278 142.195246,108.216634 C143.169613,108.690059 144.02757,107.232587 143.048345,106.756626 C141.857641,106.178372 140.550528,105.704736 139.214472,105.667538 Z M84.6372887,97.5039217 C85.5317958,96.8958669 84.6871479,95.4299413 83.7841901,96.0439139 C82.5521127,96.8812485 81.4357805,97.8709579 80.2233194,98.7336884 L79.8901056,98.9656204 C78.9955986,99.5736751 79.8402465,101.039178 80.7432042,100.425628 C82.0870775,99.5119609 83.2934155,98.4171663 84.6372887,97.5039217 Z M147.489401,85.2153814 C146.401796,85.2149589 146.400106,86.9057613 147.489401,86.9061839 L147.695629,86.9055533 C148.593327,86.900505 149.539523,86.8756974 150.374353,87.2346001 L150.470176,87.2777378 C151.448768,87.7389041 152.30757,86.2816438 151.323275,85.8179413 C150.099401,85.2413777 148.819754,85.2160157 147.489401,85.2153814 Z M53.6274361,84.0075368 L53.7694014,83.9542544 C54.7855986,83.5892524 54.3474296,81.9546693 53.3200352,82.3241096 C51.7718662,82.8805949 50.5674296,83.9316399 49.2244014,84.8438278 C48.3294718,85.4518826 49.1741197,86.9173855 50.0772887,86.304047 C51.2344815,85.5177947 52.3111224,84.5223012 53.6274361,84.0075368 L53.6274361,84.0075368 Z M117.02218,79.6088088 L117.250035,79.4867319 C118.217641,78.9885793 117.363486,77.5292055 116.397148,78.0267241 C115.630054,78.4215648 114.943627,78.9468839 114.191041,79.365448 L113.963134,79.4875773 C112.995739,79.9855186 113.849683,81.4448924 114.816232,80.9475851 C115.583326,80.5525522 116.269754,80.0272157 117.02218,79.6088088 L117.02218,79.6088088 Z M91.3101188,63.2316628 L91.1360915,63.063546 C90.3582042,62.3016282 89.1622183,63.4963914 89.9409507,64.2591546 C91.8858924,66.1634087 94.1852364,67.6092207 96.5048319,69.0070465 L96.9267254,69.2607593 C97.8615845,69.8218943 98.7123592,68.3606184 97.7798239,67.8007515 L97.1606632,67.428364 C95.0983245,66.1842047 93.060097,64.8999058 91.3101188,63.2316628 L91.3101188,63.2316628 Z M44.539331,61.6532055 C45.194698,60.8018766 43.7694752,59.9687114 43.1033568,60.7704419 L43.0798944,60.799773 C42.397674,61.6857534 41.5881959,62.4878607 40.7421698,63.2198387 L40.5831338,63.3562661 C40.0794718,63.7848845 39.1627817,64.7032016 38.4552465,64.7636477 C37.3794718,64.8551624 37.3697535,66.5468102 38.4552465,66.4544501 C39.5500352,66.3612446 40.4920775,65.5904501 41.3191901,64.9299804 C42.522993,63.9689706 43.5998239,62.8731194 44.539331,61.6532055 Z M134.45757,55.4938239 C135.242909,54.7558059 134.082881,53.581117 133.290453,54.2732205 L133.262641,54.2984266 C131.794965,55.6776986 129.683768,56.047773 127.794401,56.5154912 C126.73912,56.7771429 127.186162,58.4079217 128.243768,58.1460587 L129.10449,57.9334671 C131.035237,57.4514316 132.972547,56.8900274 134.45757,55.4938239 Z M100.985176,44.8288767 C99.9305282,44.5606732 99.4805282,46.1910294 100.536021,46.4592329 C102.328627,46.9149041 104.026585,47.5039374 105.688204,48.321863 C106.66088,48.8003601 107.518204,47.3428885 106.541303,46.8618552 C104.753556,45.9817926 102.915317,45.3196321 100.985176,44.8288767 Z M118.250577,9.18629824 C118.225225,9.11021213 118.305718,9.02355851 118.383676,9.0508227 C120.280424,9.75828399 119.272119,12.2434102 118.682794,13.7310234 L118.57593,14.0029714 C117.65269,16.3870027 116.362056,18.707629 114.955014,20.8422669 C113.482479,23.0762395 111.847268,25.2151045 110.076845,27.2229323 C109.30877,28.0946348 108.51215,28.9412885 107.688766,29.7627447 L107.378746,30.0696094 C106.546563,30.8877464 105.473324,32.3249284 104.182268,32.1664157 C102.792127,31.9992376 102.016775,30.5136564 103.030859,29.3850458 C103.747268,28.5861417 104.740225,27.9497659 105.540718,27.2229323 C106.335296,26.5041299 107.10431,25.7625018 107.854099,24.9995272 C109.388113,23.4334215 110.841634,21.7785487 112.170507,20.0349088 C113.45574,18.3487297 114.68564,16.6159257 115.803977,14.8143798 L116.026141,14.4531476 C116.877338,13.0518951 118.842338,10.9912297 118.250577,9.18629824 Z M51.0508099,26.8970724 C50.1503873,26.2811977 49.3040493,27.7458552 50.1977113,28.3568689 C51.8409507,29.480407 53.2866549,30.8415029 55.0653169,31.7655264 C56.0176459,32.2604635 56.8645722,30.8421411 55.9521632,30.3240588 L55.9184155,30.3057299 C54.1410211,29.3819178 52.6932042,28.0197652 51.0508099,26.8970724 Z" id="ðŸ–-Ink" fill="#000000"></path>
                    </g>
                    <g id="head/Bangs-2" transform="translate(78.591549, 38.043053)" fill-rule="evenodd">
                        <path d="M82.2952606,34.1722779 C69.5913169,25.7599022 44.140331,26.6735695 30.1556831,31.8275577 C16.510331,36.1566458 11.7329366,48.2194638 9.46730282,61.2519569 C6.71342958,75.8991663 7.08357042,97.0136947 26.8865282,96.7581722 C29.6706127,98.1051076 32.7549085,98.6892798 35.6355423,99.8047867 C39.5782183,101.168419 43.443993,102.751432 47.4447676,103.945773 C55.3246268,106.484513 64.0930775,106.263652 71.5679366,102.548748 C75.6976707,100.553085 77.4069864,97.4452114 80.1076918,94.13357 C87.9647602,84.4991272 91.9182745,70.7110041 91.5642042,58.4604423 C90.9428662,49.83418 89.5165986,39.8483014 82.2952606,34.1722779 Z" id="ðŸŽ¨-Background" fill="#FFFFFF"></path>
                        <path d="M98.3712254,69.6811773 C97.0677042,61.5864611 96.7064366,53.3543671 94.9993944,45.323056 C93.3937606,37.7653808 90.3916479,30.6236431 85.1458732,24.8622341 C80.451507,19.7074004 74.3817887,15.9221166 67.8662958,13.5232908 C55.173338,8.85033581 40.5747465,9.90708728 28.2958732,15.3622497 C16.8029155,20.4661479 7.63601408,29.9092791 2.29305634,41.2418818 C-1.17807042,48.605326 -2.92314085,56.4337409 -3.69849296,64.5136626 C-4.55835211,73.4897096 -4.65130986,82.5587507 -5.00201408,91.5665002 C-5.04426761,92.6782027 -5.10553521,93.7899053 -5.12032394,94.9018192 C-5.13722535,96.1189855 -4.64497183,97.1863045 -4.24356338,98.3191421 C-4.21609859,98.3994552 -4.17595775,98.4757526 -4.1273662,98.5476117 C-4.42947887,98.5854434 -4.73159155,98.629827 -5.03370423,98.6784376 C-5.37173239,98.7312751 -5.35694366,99.2807859 -5.03370423,99.3463045 C-2.29778873,99.9042693 0.514183099,99.9824689 3.29657746,100.119847 C6.18038028,100.263565 9.06840845,100.341976 11.9564366,100.438986 C14.7726338,100.534093 17.588831,100.629201 20.4050282,100.724308 C21.8839014,100.775032 23.3627746,100.825757 24.8416479,100.874367 C25.545169,100.897616 26.2486901,100.923189 26.9543239,100.946226 C27.3050282,100.959119 27.6578451,100.969263 28.0085493,100.982156 C28.2937606,100.99061 28.7585493,101.172371 28.7881268,100.963134 C28.8409437,100.995048 28.8979859,101.022101 28.9592535,101.041334 C29.0268592,101.077263 29.0923521,101.119533 29.1557324,101.166031 C29.5000986,101.402743 30.0219296,101.373154 30.3705211,101.166031 C30.4022113,101.147009 30.4360141,101.125874 30.4698169,101.104739 C30.7296761,100.950453 30.9113662,100.726422 31.0127746,100.472802 C32.4578451,102.218555 35.0162958,100.257224 33.5374225,98.4100227 C32.7430563,97.4166763 24.8416479,73.062782 28.1120704,54.5104532 L41.2275634,52.7731538 C42.8261549,52.6111186 45.1127746,52.3687703 48.0874225,52.0461088 C48.8155915,49.6691225 49.2839014,48.0980853 49.4923521,47.3329973 C49.5155915,47.2484571 49.538831,47.1618035 49.5641831,47.0772634 C49.8768592,47.629099 50.1916479,48.1783984 50.5085493,48.7279092 L52.1268592,52.0186333 C68.0508028,51.7523319 77.9648873,51.6318622 81.8691127,51.6572243 C81.9684085,51.6572243 82.4395352,58.7797292 82.2261549,61.9161675 C81.795169,68.2144063 81.3367183,74.508418 80.6986901,80.7897487 C80.2914675,84.8118376 79.3099143,88.756242 77.8477434,92.4632769 C75.5380063,98.3191421 68.8318996,103.885115 62.2930563,103.885115 C58.2228459,103.885115 49.0254507,100.587353 47.6860141,99.9213886 C46.3465775,99.2554239 45.5484655,101.073036 46.7691127,101.800081 C49.2417414,103.272835 56.057599,106.39695 62.2930563,106.39695 C71.3485877,106.39695 78.1846056,97.8013339 79.023338,96.5691616 C87.2691127,96.1170834 95.7029155,96.3261088 103.938127,97.1440344 C104.628972,97.2116665 105.224746,96.3789464 105.002915,95.742782 C102.045169,87.2741871 99.795169,78.5390795 98.3712254,69.6811773 Z" id="ðŸ–-Ink" fill="#000000"></path>
                    </g>
                    <g id="face/Angry-with-Fang" transform="translate(112.183099, 77.354207)" fill="#000000" fill-rule="evenodd">
                        <path d="M41.5240986,39.2929573 C41.8366672,38.8844853 42.5971776,40.6626772 42.7523233,40.880086 L42.7598028,40.8899202 C43.4367042,41.7093252 43.9893803,42.9641119 44.0675493,44.0162137 C44.0698732,44.0477049 44.0698732,44.0781393 44.0698732,44.1085738 C45.1549437,43.9595718 46.2402254,43.8078223 47.3250845,43.6412783 C47.744662,43.3257323 48.3317746,43.4235875 48.8998732,43.7108125 C50.1668451,44.3505699 49.5501549,46.3831256 48.1851549,46.3505777 C44.4943099,46.262656 40.724662,46.7367147 37.064662,47.1634309 C35.1818451,47.3830239 33.3030423,47.6159319 31.4303662,47.9137245 C29.6808592,48.1916501 27.8920563,48.5843389 26.1214225,48.6609301 C26.0248732,48.6648634 25.9845211,48.5209339 26.0715634,48.4761276 C27.6326197,47.6740532 29.4157183,47.1883703 31.1012113,46.7185386 C32.9250845,46.2102411 34.7624789,45.7330121 36.6127606,45.3301785 C38.2731127,44.9685581 39.9421268,44.6980297 41.6149437,44.4543429 C41.6020563,44.4215836 41.5895915,44.3881902 41.5790282,44.3531061 C41.3668658,43.6409799 41.3723514,42.8240123 41.3270551,42.0736498 L41.3008223,41.6753284 C41.2596038,40.9889927 41.2183564,39.692973 41.5240986,39.2929573 Z M36.0875289,30.5120405 C37.6828906,31.482148 40.1137318,33.7442494 38.3974899,36.149264 C36.3773089,38.2698449 33.4687045,35.8384541 32.0353946,34.7388307 C30.7063626,33.8866164 29.2131206,36.0784478 30.4461973,37.0735516 C40.8033244,44.7445605 45.006466,30.7657101 36.8944406,29.3714319 C36.0012775,29.2177885 35.6695544,30.2119271 36.0875289,30.5120405 Z M10.4369577,21.973456 C13.0915352,21.5682975 15.8107606,21.5218004 18.4930141,21.6557965 C19.8875915,21.7253307 21.2804789,21.8288924 22.6701972,21.9666928 C23.3956901,22.0387632 24.1205493,22.119499 24.8439296,22.2101683 C25.3628028,22.2752642 26.1639296,22.5724227 26.6570282,22.4371585 C28.1637887,22.0243914 29.5942817,23.4507945 29.1787183,24.960047 C28.7665352,26.4576751 27.0001268,26.8526888 25.8639296,25.953182 C25.3251972,25.7631781 24.7832958,25.5831076 24.2382254,25.4148728 C24.1966056,25.5867006 24.1355493,25.7566262 24.0493521,25.9208454 C23.9525915,26.1047202 23.8594225,26.289863 23.7711127,26.4777534 C23.7901268,26.4477417 23.6441408,26.7979491 23.6401268,26.8080939 L23.5233941,27.1130774 C23.3200339,27.63895 23.092119,28.1376782 22.5396338,28.4101292 C21.7801268,28.7846419 20.5885775,28.5781526 20.2816056,27.6845636 C19.8021036,26.7447845 20.1194539,25.4318004 20.3942619,24.4583241 L20.4155493,24.3834834 C17.102662,23.5953581 13.7348451,23.0044227 10.4369577,22.202771 C10.3292113,22.1765636 10.3182254,21.9916321 10.4369577,21.973456 Z M49.8368028,18.4383053 C50.0091972,18.0931703 50.4000423,18.0916908 50.6326479,18.4159022 C51.1496484,19.1356574 49.9917412,20.1664984 49.5085885,20.6454909 L49.4603239,20.6938356 C48.3741972,21.7962387 47.0495493,22.6847554 45.7363099,23.4880978 C45.4608169,23.656544 45.1810986,23.8171703 44.9003239,23.9754716 C44.9522958,24.08009 44.9996197,24.1868219 45.0382817,24.2956673 C45.2370845,24.8574364 45.2408873,25.5284736 45.0617324,26.0961605 C44.6886338,27.2799335 43.6958873,28.225726 42.4084225,28.2244605 C41.7294085,28.2238239 40.9255352,27.5815303 41.0174366,26.8329276 C41.0501831,26.5664149 41.0770141,26.2827828 41.1177887,25.999362 C40.2122958,26.3007476 39.1003944,25.9475812 38.5244789,25.2008806 C37.7235634,24.1629393 37.9439155,22.4617808 39.1701127,21.8171624 C40.0718028,21.3433151 41.0670845,21.2236908 42.0437746,20.9732407 C43.0130704,20.7251155 43.9756056,20.4400039 44.9244085,20.121499 C45.8601127,19.8074325 46.7913803,19.4709628 47.721169,19.1385088 C48.1810986,18.9738669 48.636169,18.8221174 49.104338,18.6826262 C49.313493,18.6204892 49.6145493,18.4571155 49.8368028,18.4383053 Z" id="ðŸ–-Ink"></path>
                    </g>
                    <g id="facial-hair/*-None" transform="translate(104.577451, 109.479380)"></g>
                    <g id="accessories/*-None" transform="translate(88.521127, 88.978474)"></g>
                </g>
            </g>
        </g>
    </g>
</svg>