<?xml version="1.0" encoding="UTF-8"?>
<svg width="240px" height="324px" viewBox="0 0 240 324" version="1.1" xmlns="http://www.w3.org/2000/svg" xmlns:xlink="http://www.w3.org/1999/xlink">
    <!-- Generator: Sketch 62 (91390) - https://sketch.com -->
    <title>peep-101</title>
    <desc>Created with Sketch.</desc>
    <g id="Introduction" stroke="none" stroke-width="1" fill="none" fill-rule="evenodd">
        <g id="variations" transform="translate(-3486.000000, -758.000000)">
            <g id="images" transform="translate(126.000000, 110.000000)">
                <g id="a-person/bust" transform="translate(3360.000000, 648.000000)">
                    <g id="body/Blazer-Black-Tee" transform="translate(31.056338, 135.052838)">
                        <path d="M155.399092,48.0676297 C152.466486,34.1688117 142.066099,23.3836485 128.078493,18.0109127 C125.389799,16.4896036 122.78349,9.96187896 119.170044,8.76641554 C118.590808,8.57478261 119.505081,10.0998734 119.170044,10.1909519 C117.975017,10.515815 116.636022,10.5497381 115.316599,9.37656994 C112.958495,7.27985531 112.218694,1.15424032 110.784955,-1.61433476 C103.223476,-16.2156811 84.3440915,-10.502609 81.8147958,5.63884697 C80.0512119,6.78878168 77.5581564,7.8017844 75.6384508,8.72843306 C73.6616671,9.68263351 71.9228442,11.9938122 69.8856864,12.8201065 C68.0680245,13.5573708 65.0730395,13.0350803 63.2414766,13.6778109 C54.8173757,16.6339896 47.6824192,20.3641573 42.088669,27.9219311 C40.910007,29.515935 39.5813451,31.475575 38.5087394,33.0858528 C32.9790211,39.4540485 29.1381761,46.5917706 25.6007113,54.2496258 C15.703669,76.7269409 13.0116972,101.614283 10.5964859,125.832068 C10.6514155,130.06943 7.84071127,141.819238 11.9978239,143.850737 C11.7493732,144.108373 11.8393732,144.62597 12.3003592,144.621532 C22.8411338,144.515011 33.3574014,145.45869 43.7346549,147.293422 C48.7414859,148.178769 53.7214859,149.392765 58.8214859,149.592279 C69.4083169,149.519152 79.9571197,147.744444 90.530007,149.423833 C103.240337,149.423833 118.687285,149.053328 132.827369,148.509541 C146.042668,148.001319 159.328783,149.149143 172.380359,146.900945 C173.413458,146.73736 173.917965,145.476867 173.701415,144.573555 C172.170148,138.991794 171.418458,133.24687 170.559232,127.533861 C170.730359,123.869469 170.424232,120.044029 169.069162,116.630933 C165.528739,93.5899468 160.98881,70.6992305 155.399092,48.0676297 Z" id="ðŸŽ¨-Background" fill="#FFFFFF"></path>
                        <path d="M151.134169,78.3534505 C150.855296,79.7082059 150.464451,81.0629613 149.944732,82.3460689 C149.444028,83.5843703 148.689803,84.6939593 148.170296,85.9176775 C148.100577,86.0825307 147.986493,86.2072274 147.848958,86.302335 L147.891819,86.6352117 L147.891819,86.6352117 L147.931352,86.9680885 C148.190487,89.2144401 148.481907,91.4545807 148.734301,93.7006219 L148.856915,94.8241902 C149.353183,99.5138419 150.136986,104.180456 150.745437,108.857638 C151.341211,113.437599 151.947761,118.01756 152.596141,122.59118 C153.265859,127.306405 153.948254,132.01529 154.744732,136.711494 C155.081,138.69484 155.431939,140.676572 155.797549,142.656689 L156.079944,144.172159 C158.986986,144.871728 159.781352,148.925427 156.821493,150.421787 C155.478042,151.098108 153.751986,150.935368 152.644732,149.872488 C151.494118,148.764777 151.446353,146.767153 151.179315,145.266799 L150.922063,143.872583 C148.997136,133.388851 147.326485,122.784355 146.545437,112.152589 C146.344732,109.40736 146.175718,106.659807 146.065859,103.909928 C145.961475,101.323529 146.011359,98.7373071 145.971417,96.1507747 L145.958113,95.4453487 C145.897056,92.6872274 145.947549,89.9333331 146.01938,87.1752117 C146.027831,86.8391648 146.04262,86.5031178 146.059521,86.1649573 C145.962549,86.0508282 145.89262,85.915564 145.863254,85.7845268 L145.825014,85.6112196 C145.729944,85.1652705 145.83769,84.6432352 146.180155,84.3240963 C146.327831,82.4451922 146.522197,80.5684016 146.575014,78.691611 C146.579239,78.5373252 146.80107,78.5417636 146.813958,78.691611 C146.938606,80.2894192 147.18769,81.8914544 147.436986,83.4913761 C149.040507,82.2021393 150.225718,80.0759554 150.925014,78.2963859 C150.975718,78.1674622 151.163958,78.2139593 151.134169,78.3534505 Z M113.19469,3.65790294 C113.460887,4.87528063 113.986944,5.96817299 114.692577,6.98476791 C115.028704,7.47087358 115.410887,7.92316321 115.869338,8.30148023 C116.262507,8.62463483 116.710394,8.83598513 117.128493,9.11729237 C117.736944,9.02197339 118.372859,9.25255656 118.79962,9.70040783 L118.732225,9.04543327 C118.710887,8.83408297 119.061803,8.79181292 119.101944,8.99661135 C120.950245,18.3217386 122.63595,27.652883 124.095094,37.0454778 L124.734683,41.1933915 L125.336493,45.0874098 C126.335717,51.5762214 127.302257,58.0624431 128.030113,64.5986466 C128.999831,73.3212845 129.815113,82.0669597 130.410887,90.8251045 C131.008775,99.6449636 131.376592,108.470741 131.638563,117.307508 C131.703845,119.53514 131.773775,121.760658 131.841169,123.988079 L132.292443,121.324923 C132.74282,118.661206 133.184461,115.995022 133.563,113.319328 C134.921451,103.743046 136.007577,94.0989205 136.537648,84.4404235 C137.023775,75.6017542 136.861099,66.5876642 134.613211,57.9770419 C134.046803,55.8107014 133.353845,53.6781769 132.517437,51.6006035 C131.705958,49.5803061 130.599127,47.7075311 129.72638,45.7168227 C128.712296,43.4004235 128.40807,41.2150614 128.930113,38.721128 C129.386451,36.548447 130.187155,34.5046896 130.330606,32.2686035 C130.599127,28.1176838 129.248915,24.0975898 127.34138,20.4646896 C126.838352,19.5072728 126.30807,18.562537 125.754549,17.6260438 C124.079408,14.7962748 122.190465,12.0696446 120.230113,9.45545284 C120.124479,9.31596164 120.348211,9.16167593 120.462507,9.27580509 C122.24962,11.0426935 124.203845,12.779993 125.811803,14.7096211 C126.593282,15.6480164 127.355958,16.6052219 128.078493,17.5882121 C136.005465,18.9133785 142.816732,23.8524235 147.472859,30.3749049 C152.756662,37.7763922 155.429197,46.684807 157.406873,55.4577464 C159.606169,65.2075468 161.461099,75.0459029 163.436451,84.8438912 C165.48131,94.9825761 167.515817,105.12105 169.573563,115.25741 C170.596099,120.289449 171.618845,125.321911 172.639056,130.356275 C173.156662,132.905159 173.699831,135.447703 174.26793,137.988134 C174.55969,139.290052 174.872366,140.589856 175.142789,141.896001 C175.446803,143.369112 175.163704,144.311523 174.166732,145.393848 C173.798915,145.795414 173.21793,145.789073 172.761592,145.575609 L172.618936,145.508414 L172.481059,145.441816 C171.916391,145.1642 171.47369,144.876521 171.122366,144.258686 C170.735535,143.580463 170.674268,142.828056 170.54138,142.073535 C170.296099,140.684752 170.053352,139.296392 169.808282,137.905707 C169.442102,135.82602 169.043955,133.752278 168.638708,131.67904 L166.605518,121.318038 C166.063352,118.555425 165.520394,115.793077 164.974268,113.031891 C163.024268,103.157605 161.072155,93.2854333 159.120254,83.4132611 C157.246099,73.933989 155.587648,64.3896211 153.454056,54.9653002 L153.332751,54.4343716 L153.209384,53.9041521 C151.301501,45.7797801 148.635799,37.9209029 143.798915,31.0364313 C140.07638,25.7421065 134.906873,21.0142004 128.81793,18.6215037 C129.247014,19.2388579 129.658986,19.8686818 130.051944,20.5111867 C132.519549,24.5437503 134.321451,29.3308344 133.898915,34.1327131 C133.692085,36.4787014 132.800535,38.7845331 132.884831,41.1495429 C132.963,43.2503648 134.262507,45.0954528 135.160394,46.9234215 C137.198915,51.0660986 138.673775,55.4685252 139.624479,59.9848697 C141.532225,69.0539108 141.525887,78.3852376 140.868634,87.591445 C140.154549,97.5990928 138.798423,107.604416 137.254056,117.51442 C136.461803,122.597394 135.407577,127.63831 134.600324,132.712831 C134.201239,135.215007 133.65807,137.711265 133.182718,140.200971 L132.956169,141.390459 C132.82933,142.050589 132.697731,142.708589 132.545723,143.359601 L132.451944,143.749332 L132.451944,143.819077 C132.447718,144.299054 132.316521,144.696392 132.105254,145.013418 C131.816028,145.941034 131.456873,146.845825 130.979408,147.714474 C130.734338,148.15831 130.379197,148.407492 129.992577,148.498584 C129.603845,149.388369 128.722859,150.072932 127.670958,150.068969 L113.834831,150.016079 C105.798211,149.984165 97.7615915,149.931328 89.7249718,149.886944 C87.6970141,149.876588 85.6709577,149.838545 83.6449014,149.785707 C81.7456056,149.73287 79.9244789,149.504611 78.0463099,149.267899 C75.9249718,149.001598 74.7758873,147.498897 75.0927887,145.379054 C75.162507,144.911758 75.2383521,144.446999 75.3103944,143.982028 C74.8878592,144.121519 74.3850423,144.056001 74.0449014,143.724181 L73.7260047,143.411959 C73.2839572,142.974489 72.8885936,142.544907 72.6082817,141.961308 C72.3188451,141.361285 72.0841268,140.727234 71.828493,140.114318 C71.2770845,138.795492 70.7406761,137.472439 70.2186338,136.143046 C69.1730704,133.484259 68.1272958,130.814905 67.1552535,128.128431 C65.2308169,122.808744 63.5277887,117.408744 62.0470141,111.947664 C59.406169,102.204416 57.4960986,92.2730654 56.2918732,82.2529479 L56.0039615,79.8647931 L55.9202464,79.1593603 C55.4635933,75.2756684 55.0792769,71.3316851 55.2608873,67.4563139 C55.3730704,65.0298012 55.7489155,62.5846896 56.6554648,60.3188031 C57.4918732,58.2287601 58.7827183,56.4407366 60.0101831,54.5724 L60.1506462,54.3567334 L60.2918604,54.135809 C61.3653401,52.4388327 62.2195003,50.6646937 62.2622958,48.6038677 C62.3056684,46.512528 61.6966344,44.4772108 61.0156753,42.5193301 L60.8459582,42.0364777 L60.7320493,41.7168916 C59.2833898,37.6704159 57.6347852,33.6811632 58.178493,29.2779969 C58.9815211,22.7937699 62.9108873,17.5670771 67.8547606,13.536627 C63.4580704,14.4073902 59.106169,16.1275703 55.2653239,18.3089166 C50.7291972,20.8873902 46.6453944,24.2901299 43.1235634,28.1303648 C36.4686338,35.3879225 31.7172254,44.0957659 27.828,53.0866074 C23.756662,62.4959225 20.7376479,72.3554137 18.462507,82.3438286 C16.1744789,92.389308 14.6427887,102.595414 13.5968028,112.841676 C13.0751831,117.941559 12.6651127,123.053911 12.3251831,128.168799 C12.1519437,130.789543 12.0209577,133.414514 11.8181408,136.03103 C11.6153239,138.645433 11.5242676,141.299782 10.8862394,143.84465 C10.5883521,145.030326 8.57919718,145.150795 8.36391549,143.84465 C7.88614002,140.927643 8.01966513,137.911086 8.1530081,134.957304 L8.16511268,134.688956 C8.29630986,131.74696 8.46743662,128.807077 8.67004225,125.867195 C9.08433803,119.858506 9.63764789,113.858271 10.3601831,107.877058 C12.8932817,86.8815194 17.5646197,65.9958834 26.7272958,46.8306387 C31.0413803,37.8038677 36.5787042,29.0328305 44.2815211,22.5147875 C47.9489155,19.4140673 52.0834225,16.9391554 56.5390563,15.1471162 C60.5237746,13.5429675 64.571662,12.78422 68.8054648,12.7863335 C70.9287042,11.1589362 73.2082817,9.74077573 75.4855352,8.5295272 C75.6228592,8.45576595 75.7665211,8.6333002 75.6526479,8.74742935 C75.593493,8.80449393 75.5362394,8.86346067 75.4772958,8.91862309 C75.7350423,8.93553112 76.0010282,9.05600078 76.2397606,9.30750763 C77.0765915,10.1844 77.7822254,11.2815194 78.4137042,12.4204861 C79.3749718,13.6211671 80.2918732,14.861582 81.2512394,16.0493706 C82.7869437,17.9515233 84.3587746,19.8262004 85.949831,21.686083 C88.6218102,24.8118203 91.3808224,27.8783749 94.2579441,30.8215922 L94.7385634,31.3109753 C96.2299014,32.8223413 97.7406761,34.6312885 99.5045493,35.8275311 L99.5987243,35.890197 C100.342918,36.3752256 100.870639,36.4633151 101.505254,35.7389753 C102.08221,35.0795624 102.562438,34.3144528 103.056054,33.5874825 L103.170254,33.4204626 C105.690676,29.757762 108.027296,25.9597973 110.142085,22.0498168 C111.106041,20.2704395 112.02303,18.465211 112.893051,16.6400067 L113.152648,16.0918521 C113.625887,15.0858247 114.139268,14.0988188 114.529901,13.062991 C114.620746,12.8201495 114.709479,12.5770967 114.796099,12.3361573 C113.465113,11.4632806 112.434338,9.573809 112.060394,8.09435695 C111.671662,6.55784031 111.868141,4.98095577 112.560887,3.57568767 C112.691873,3.3114998 113.13131,3.37680705 113.19469,3.65790294 Z M47.5352372,66.0971624 C47.3510493,71.9390959 47.2392887,77.7871585 46.9644296,83.6246536 L46.8695704,85.6174755 C47.2982324,86.0953386 47.5496408,86.6467515 47.3489366,87.4035969 C47.2709789,87.6931468 47.0404859,87.9552211 46.753162,88.0524423 L46.6635815,89.9053239 C46.2558614,98.2419842 45.777907,106.561335 44.9045704,114.877022 C43.8123169,125.28391 42.5489366,135.673679 41.2878803,146.061757 C41.1083028,147.532755 40.0855563,148.699198 38.4947113,148.483832 C36.8850634,148.26593 36.2322465,146.864677 36.4435141,145.404247 C37.2737958,139.674751 38.0721761,133.940607 38.7716831,128.19209 L39.5681432,121.64259 C40.566852,113.455494 41.5890478,105.26966 42.7667535,97.108591 C43.259007,93.6976086 43.7702746,90.2885284 44.2834437,86.8792368 L44.1040775,86.6467515 C43.3707676,85.693773 42.6123169,84.7617182 41.8623169,83.8233229 C40.4216831,82.0141644 38.9998521,80.219589 37.6794296,78.3258904 C37.6137254,78.2307828 37.7470352,78.0912916 37.8418944,78.163362 C39.6925986,79.5307984 41.4442183,80.9931311 43.2061901,82.479135 L44.7484437,83.7850685 C45.6357676,77.8947358 46.5146408,72.0022896 47.2982324,66.0971624 C47.3174577,65.9494286 47.5392887,65.9386497 47.5352372,66.0971624 Z M74.1568732,10.1909519 C73.0432817,11.2411515 71.9047606,12.2685252 70.7827183,13.3125957 L70.3717365,13.6968454 L69.9626554,14.0828637 C67.9907608,15.9535661 66.1015019,17.9008825 64.5272958,20.1370967 C61.6371549,24.2436329 59.9153239,29.25031 61.1172254,34.2637503 C62.1146197,38.4165722 64.4026479,42.1809323 65.0174366,46.4375272 C65.3256761,48.5700517 65.1758873,50.7131436 64.3728592,52.7271006 C63.5531408,54.7816368 62.2432817,56.5421847 61.0665211,58.3957268 C58.5101831,62.4240634 58.1615915,66.8455115 58.4153239,71.512126 C58.6815211,76.3858638 59.241169,81.2615037 59.9322254,86.0910693 C61.3306056,95.8765879 63.4390563,105.560658 66.2299014,115.043946 C67.6265915,119.792987 69.2763803,124.44058 70.9181408,129.107195 C71.7355352,131.429934 72.6885634,133.697723 73.6707465,135.954733 C74.1883521,137.142733 74.7188451,138.323969 75.2575775,139.503304 C75.0587746,137.838075 75.0587746,136.128251 74.9615915,134.473378 C74.8221549,132.102028 74.6446901,129.734905 74.4820141,127.365668 C74.1505352,122.557449 73.8547606,117.745003 73.5906761,112.932557 C72.6547606,95.7709127 71.9660282,78.5944744 72.0165211,61.405355 C72.0420845,52.8097386 72.2174366,44.2141221 72.5871549,35.6267483 C72.7604789,31.5829127 73.0961239,27.5429434 73.3994766,23.5047784 L73.4639155,22.6394841 C73.7322254,19.0148266 74.0533521,15.3817151 74.6045493,11.7887601 C74.4413568,11.420353 74.299698,11.0472702 74.1945591,10.6646131 L74.1568732,10.5206583 L74.184338,10.5248853 C74.1589859,10.4126583 74.1505352,10.300854 74.1568732,10.1909519 Z M83.786493,-4.57824892 C83.8095211,-4.67758356 83.9510704,-4.66912955 83.9764225,-4.57824892 C84.6038873,-2.46474599 84.3820563,-0.139892759 83.8414225,1.98629119 C83.5498732,3.13815029 83.1357887,4.25619335 82.6350845,5.33407984 L82.4598655,5.71129057 C82.0308574,6.62927093 81.5478054,7.57509746 80.712338,8.14715225 C80.3639577,8.38597808 79.740507,8.4007726 79.3919155,8.14715225 L79.2141377,8.01220117 C79.1848732,7.98934403 79.156,7.9660955 79.127831,7.94214247 C78.8026901,7.66950059 78.6419155,7.06715225 78.7919155,6.6698137 C79.1785352,5.64476477 80.055507,4.89235773 80.6616338,3.97932446 C81.1984648,3.16773933 81.6738169,2.31177065 82.0686761,1.42198591 C82.9200845,-0.503415264 83.3024789,-2.5471726 83.786493,-4.57824892 Z" id="ðŸ–-Ink" fill="#000000"></path>
                    </g>
                    <g id="head/Gray-Medium" transform="translate(78.591549, 38.043053)">
                        <path d="M60.9094225,107.446939 C56.5361831,107.434892 52.5332958,106.582516 48.735338,104.716081 C44.1495634,103.219299 39.1418873,102.403698 35.4204085,99.0903593 C33.6081549,99.4748055 31.7506901,97.6136548 30.2473099,96.5055452 C27.795338,105.530837 15.0347746,104.029616 9.64301408,98.1965589 C6.34470423,95.4101166 5.01794366,88.5169268 10.7456197,86.6933965 C1.36132394,80.3169581 -2.02825352,69.3022262 -1.38325352,57.3835491 C-0.704450704,37.3902341 14.6601972,16.6043554 34.4084366,13.1365198 C38.3042113,12.4508994 42.3049859,12.5233926 46.1840704,13.338782 C48.3501972,13.808825 50.4440704,14.7201675 52.7623099,14.6787429 C61.7534366,13.2569894 71.6287183,13.4203632 79.0551972,19.1769112 C90.9248451,27.1213573 92.5746338,43.0168016 91.187662,55.7967311 L91.2438592,55.9163554 C90.5538592,60.6074865 89.4070986,64.9040266 87.2384366,67.7323162 C87.0696338,71.7984845 85.6573099,80.4782184 85.5527324,83.9097018 C85.8060423,99.8772164 76.7405493,106.964214 60.9094225,107.446939" id="ðŸŽ¨-Background" fill="#FFFFFF"></path>
                        <path d="M8.67927465,86.4729581 C-19.746993,61.3467898 9.41533099,4.80170959 46.4011056,12.304011 C50.1443451,13.5579523 53.9456831,13.9931225 57.8222324,13.0640266 C77.3575141,10.0123397 93.3388521,26.5950951 92.5127958,45.780418 C92.650331,49.0618427 92.6237113,52.3462262 92.2692042,55.6145472 C91.8637817,59.9104532 90.7565282,64.5047859 88.2872324,68.0759718 C88.2586606,70.4746666 86.8471127,79.4726739 86.6202535,83.706023 L86.576875,84.5900321 C86.3517009,88.9406856 85.8663462,93.3780388 83.9545563,97.3452399 C78.0754014,108.002156 62.9306831,110.289177 52.0715282,107.184653 L51.6199833,107.036325 C49.6028915,106.365466 47.316202,105.471551 46.0354014,103.78149 C45.3585,102.888535 46.4790634,101.748512 47.4109648,101.991353 C48.6105423,102.304152 49.6047676,103.035635 50.7246972,103.555346 C58.0292239,106.784706 66.6686883,105.703184 73.8791731,102.686755 L74.0972324,102.594759 C87.0109648,97.350735 83.4735,78.6965354 85.1733592,68.0599092 C85.5599789,54.553146 74.298993,45.3551812 65.8146972,36.421827 L65.5607367,36.1387803 C64.6890355,35.1718228 63.7684155,34.2292368 62.5563169,34.0230012 C62.2244155,35.030508 61.4080775,35.8879562 60.6508944,36.6228211 L58.9386067,38.4739954 C57.2259428,40.3229968 55.5098028,42.1644787 53.7690634,43.9894356 C45.3170915,52.5785002 36.7056127,64.239964 23.6773732,65.1181245 C24.4782887,65.843056 25.1805423,66.6713378 26.0199085,67.3539992 C26.373993,67.7084337 26.0129366,68.3033847 25.538007,68.1818583 C24.6523732,67.9555022 24.0859648,67.1151734 23.5047676,66.458508 C16.4682887,63.5036196 10.6896972,74.4230325 16.6512465,78.9436039 C18.8627958,81.2862106 25.3252606,79.5036822 23.8309648,82.392418 C25.4619507,87.5092086 27.9724437,92.6555883 32.2191338,96.0781949 C33.4660352,97.0199718 35.4135,97.4969894 36.2408239,98.8834474 C36.4404718,99.2175922 36.3386408,99.7628759 35.9636408,99.9406215 C34.1596268,100.782007 32.221669,99.3668055 30.8361761,98.3007546 C23.5195563,112.608535 -3.31058451,96.8008016 8.67927465,86.4729581 Z M52.1579366,16.5597605 L51.4248108,16.4162986 C43.6075758,14.8692014 38.4542958,13.3375815 30.1894859,16.134735 C11.7684296,22.2898896 -0.107133803,41.8970677 0.406246479,60.9538896 C0.418288732,71.7796744 5.78300704,85.5844415 17.866669,87.1209581 C19.6936373,87.2661685 19.7222602,90.102392 17.9219937,90.0173965 L17.8668803,90.0139209 C14.8882183,89.8279327 12.004838,88.7472986 9.5469507,87.0846059 C6.24948592,92.4271186 9.5541338,97.2748603 14.6917394,99.5711812 C19.8973732,102.318946 25.4623732,101.442899 28.9406831,96.5879718 C25.7661761,93.05969 23.4261761,87.7865002 22.8849085,83.1088955 C13.9694155,86.5686998 7.24540141,73.8149777 13.0459648,67.0513456 C15.0872324,64.1399953 19.0497676,62.3202693 22.3163873,64.3868524 C36.3701197,58.9779757 46.1818099,47.4822106 55.5760352,36.2212556 L56.0775675,35.6506862 C57.7223355,33.7922091 61.5042908,29.5942932 61.9237817,29.0516196 C62.3951197,28.4414513 63.3468803,28.9907507 63.3587113,29.6461479 C63.367162,30.1121753 63.3411761,30.5847546 63.2887817,31.0562771 C65.0378662,32.1846763 66.4552606,33.8980932 67.759838,35.4800501 C77.4988521,43.1264924 85.4188521,51.1347663 87.8824437,63.2656391 C89.4124437,61.4793065 90.1062465,59.134375 90.6067394,56.8946959 C91.6563169,42.120465 88.8361056,24.4285432 73.5988521,18.0195569 C66.2758944,14.3853886 59.7426549,16.050829 52.1579366,16.5597605 Z M17.6037676,72.046335 C16.969331,71.4797049 21.1610915,71.4112274 21.5567958,71.855063 L21.6470761,71.8859052 C23.1478525,72.4137735 25.8959451,74.1155854 24.5464437,75.8825542 C22.6222183,77.6965738 21.2821479,72.3107342 17.6037676,72.046335 Z" id="ðŸ–-Ink" fill="#221E1F"></path>
                    </g>
                    <g id="face/Smiling" transform="translate(112.183099, 77.354207)" fill="#000000">
                        <path d="M30.968993,50.9198978 C29.548794,50.3403012 28.2816173,49.3734958 27.3551889,48.1384646 C27.0331038,47.7091169 26.9495926,47.2557326 27.017159,46.8410547 C27.0931327,46.3747786 27.3688808,45.9521824 27.7449394,45.6687178 C28.1221628,45.3843752 28.5940214,45.2441445 29.0502103,45.3156301 C29.4466117,45.3777469 29.8412104,45.5948709 30.1535058,46.0451781 L30.2187521,46.1352289 C30.7695298,46.8806513 31.4872438,47.4922614 32.3050288,47.8864795 C33.0932406,48.2664417 33.9747757,48.4437847 34.8870208,48.3406561 C36.6244504,48.1443157 37.8219743,47.2043274 39.0948115,45.9278391 C39.2525834,45.7666792 39.4104563,45.6004672 39.5690946,45.4315797 C39.6692778,45.278484 39.8083069,45.1800892 39.962667,45.1284632 C40.1340565,45.0711416 40.327938,45.0743848 40.5055187,45.1363808 C40.6767961,45.1961763 40.8299095,45.309486 40.9325762,45.4602937 C41.0301525,45.6036243 41.0854754,45.7806897 41.0675245,45.9843589 C40.9510195,47.3072301 40.2596776,48.4878363 39.2776553,49.4148615 C38.1869942,50.4444414 36.7412431,51.1567117 35.3801317,51.4065272 C33.8805866,51.6817086 32.3525901,51.4845569 30.968993,50.9198978 L30.968993,50.9198978 Z M36.0875289,30.5120405 C37.6828906,31.482148 40.1137318,33.7442494 38.3974899,36.149264 C36.3773089,38.2698449 33.4687045,35.8384541 32.0353946,34.7388307 C30.7063626,33.8866164 29.2131206,36.0784478 30.4461973,37.0735516 C40.8033244,44.7445605 45.006466,30.7657101 36.8944406,29.3714319 C36.0012775,29.2177885 35.6695544,30.2119271 36.0875289,30.5120405 Z M17.5274577,21.5886716 C17.7037243,19.3998697 21.0359789,18.9028321 21.3674577,21.0687499 C21.6642887,23.0089456 21.3148521,24.7912626 20.4412606,26.5380728 C19.6065423,28.2068947 17.5085456,27.4283107 17.3498837,25.9087021 C17.1372039,23.8717299 17.4178099,22.9502317 17.5274577,21.5886716 Z M42.8930282,20.6196517 C43.3576056,20.0109628 44.0283803,19.5954481 44.8320423,19.8302583 C47.3429577,20.5642779 46.6028873,24.1303914 45.7210563,25.8662114 C45.2419014,26.8088337 43.6930986,27.0478708 42.993169,26.2178982 C41.8523239,24.864411 41.3059859,22.1614521 42.756338,20.8282544 C42.7956338,20.7593542 42.8393662,20.68982 42.8930282,20.6196517 Z M20.4058944,12.0111429 L20.802522,11.9416942 C22.0295218,11.7294045 23.5551549,11.5254176 24.4231479,12.5122544 C24.8835,13.0355577 25.0419507,14.0081918 24.4231479,14.509092 C23.3346972,15.3904227 22.1313169,15.0488806 20.8269507,15.1234873 C19.7520211,15.1852016 18.7189225,15.3631585 17.6835,15.6592603 C15.4119507,16.3087397 13.5610352,17.4944149 11.6209648,18.7963327 C11.3663873,18.9671037 11.1065282,18.6414129 11.228007,18.4032211 C12.3479366,16.208771 14.5182887,14.4061644 16.6922324,13.3073542 C17.8525141,12.7208571 19.1222324,12.2343288 20.4058944,12.0111429 Z M40.6041287,11.0281289 L40.9077055,11.0902829 C44.2113469,11.7811043 48.5035506,13.1610768 50.0679842,16.4073021 C50.1275964,16.8663298 50.0646105,16.9647086 50.0133917,17.0289838 L49.9963385,17.0503723 C49.9541341,17.1052595 49.9204583,17.1809212 49.7215736,17.2433957 C49.6663832,17.2302408 49.6106433,17.216308 49.5543131,17.2015401 C48.8372041,17.0135386 48.2698321,16.7545401 47.720556,16.4857982 L47.1250012,16.192275 C46.4340388,15.8533498 45.7369757,15.5267598 44.9982488,15.2856588 C43.4217423,14.7712438 41.8001698,14.4088706 40.1534741,14.2153715 C39.7965654,14.1734678 39.4528848,14.0529641 39.1817455,13.8464404 C38.92438,13.6504079 38.7277692,13.3789964 38.6381257,13.0182314 C38.5219478,12.5513438 38.5553348,12.1978716 38.8057421,11.7766707 C38.9940329,11.4603578 39.263447,11.2411116 39.5728025,11.115213 C39.888177,10.9868648 40.2472278,10.9566068 40.6041287,11.0281289 Z" id="ðŸ–-Ink"></path>
                    </g>
                </g>
            </g>
        </g>
    </g>
</svg>