<?xml version="1.0" encoding="UTF-8"?>
<svg width="240px" height="324px" viewBox="0 0 240 324" version="1.1" xmlns="http://www.w3.org/2000/svg" xmlns:xlink="http://www.w3.org/1999/xlink">
    <!-- Generator: Sketch 62 (91390) - https://sketch.com -->
    <title>peep-99</title>
    <desc>Created with Sketch.</desc>
    <g id="Introduction" stroke="none" stroke-width="1" fill="none" fill-rule="evenodd">
        <g id="variations" transform="translate(-3486.000000, -110.000000)">
            <g id="images" transform="translate(126.000000, 110.000000)">
                <g id="a-person/bust" transform="translate(3360.000000, 0.000000)">
                    <g id="body/Polo-and-Sweater" transform="translate(31.056338, 135.052838)">
                        <path d="M20.4452113,149.828759 C33.3815493,150.191014 45.6017763,150.590677 58.5131847,149.828759 C79.1743115,148.550301 139.807842,150.854865 153.135569,149.828759 C154.141343,149.751324 157.600331,150.854865 157.672373,149.828759 C158.258218,142.68364 158.638077,70.3940087 156.897444,65.4199637 C155.15681,60.4459187 146.564979,36.5350685 135.617303,25.3854951 C132.564697,22.3733307 127.919382,21.2065704 125.353326,17.725631 C123.140829,13.9298846 123.312712,11.7020609 121.127725,9.70501958 C120.179554,8.83840687 117.943398,8.48708054 116.281796,7.28418787 C114.611092,5.62318591 116.192937,1.96682583 115.507162,-0.346191781 C114.093782,-6.1215499 108.886669,-9.8267319 103.195331,-10.69982 C95.2850412,-12.59334 86.9341145,-10.8030512 83.1450972,-4.58706945 C81.7347203,-2.27330922 82.4853076,0.539084016 80.7506831,4.24666145 C80.8744859,7.04853229 77.6046972,7.72548728 75.6502606,8.83571037 L71.768936,12.7599263 C59.8111895,19.4905877 45.7442746,23.1251037 35.2668803,32.1679374 C26.358993,41.2080235 17.4988521,51.6567593 13.5464577,63.8876008 C12.7282183,67.2203836 12.4611761,70.6649706 12.1220915,74.0704579 C11.1540634,84.0225205 8.4585,93.681863 6.13878169,103.375867 C3.49371127,115.589589 1.02807764,128.554906 4.59300722,140.884237 C5.62082412,143.493779 18.1054225,149.70681 20.4452113,149.828759 Z" id="ðŸŽ¨-Background" fill="#FFFFFF"></path>
                        <path d="M82.4597535,-3.59189824 C82.5632746,-3.93027006 83.0092606,-3.83516243 83.0430634,-3.51369863 C83.3789789,-0.326536204 82.9564437,3.00434442 82.5508099,6.17037182 C82.3564437,7.69843444 82.2442606,9.28778865 81.9484859,10.7945049 C81.9104577,10.9553425 81.8745423,11.1178708 81.8407394,11.2787084 C81.9379225,11.4518043 82.2254577,11.6462466 82.3625704,11.7793973 L82.958971,12.3594912 L84.1541197,13.516908 C86.4930634,15.7825832 88.8315845,18.0501605 91.1703169,20.316047 L94.6034155,23.6448141 C95.7803873,24.7858943 97.1177113,25.8787867 98.1505986,27.1511155 C98.710669,27.8420196 98.8372183,28.6895342 98.2858099,29.4292603 C98.0132746,29.7948963 97.5233451,30.0611977 97.0266549,30.1161487 C97.2210211,30.3866771 97.3710211,30.693135 97.4660915,31.0336204 C97.6604577,31.7268493 96.9592606,32.5783796 96.2134859,32.2888297 C95.3663028,31.9633503 94.6667958,31.3800235 93.8048239,31.1010411 C92.9344014,30.8178317 91.9881338,30.763092 91.0858099,30.9150528 C90.6717254,30.9847984 90.2660915,31.0885714 89.8710211,31.2196086 C94.0986972,33.1661448 98.6724296,34.2841879 103.337218,34.4446027 C104.287923,34.4765166 105.236725,34.4636243 106.18088,34.4004305 C107.769824,34.2966575 109.347782,34.0559295 110.898486,33.667045 C112.117711,33.3605871 113.324049,32.9757182 114.494472,32.5107476 C115.06912,32.2824892 115.637218,32.0311937 116.186725,31.7458708 L116.234831,31.7173897 C116.35905,31.6397223 118.654441,30.3374279 118.694472,30.1417221 C118.734503,29.9460163 118.734503,29.87784 118.659816,29.7074708 C118.610025,29.5938914 118.516063,29.4979539 118.377931,29.4196581 C117.668696,29.1164024 116.933963,28.8341466 116.159261,28.8290254 C114.375951,28.8184579 112.430176,30.1374951 110.955739,31.0357339 C109.335317,32.0227397 107.845669,33.176501 106.286514,34.2461448 C106.250599,34.2712955 106.210669,34.2820744 106.17243,34.2820744 C106.007852,34.2820744 105.855528,34.0789667 105.961162,33.920454 C107.078636,32.2745042 108.586899,30.9040587 110.164612,29.7074708 L110.80035,29.230737 C112.245334,28.1527235 113.935458,26.9588083 115.692359,26.6986145 C117.844965,26.381589 120.093063,27.7238748 122.013486,28.5098865 L125.414683,29.9026849 C126.021021,30.1499648 126.680387,30.3613151 127.290739,30.642411 L125.865423,26.1810328 C125.153252,23.9500969 124.442937,21.7185675 123.739542,19.4854403 L123.603055,19.0479479 C122.902382,16.7811599 122.259113,14.4231525 121.092148,12.3523679 C120.813275,11.8556947 120.494261,11.3886106 120.179472,10.9170881 C119.852007,10.4290802 119.729472,9.89013699 119.317711,9.45454403 C118.502218,8.59012133 117.333697,8.08288063 116.218204,7.75127202 C115.945669,7.6709589 116.026162,7.31166341 116.281796,7.28418787 C117.426525,7.16351367 118.518032,7.43059358 119.552484,7.9136075 L119.982434,8.11874867 C120.960636,8.58174975 121.914401,9.01237808 122.640739,9.84342857 C124.296934,11.7413796 125.157035,14.1310906 125.947198,16.4893748 L126.158556,17.122544 C126.45412,17.0253229 128.463275,17.6382387 128.714683,17.7838591 C136.246585,20.9691194 142.047993,26.8993973 146.290246,33.8485949 C150.938134,41.463546 153.468908,50.1648376 155.558345,58.7754599 C156.203134,61.4327671 156.819824,64.098317 157.412218,66.7697847 C154.772852,67.7857456 151.967641,68.3172916 149.496866,69.7485558 C148.555669,70.2936282 149.40581,71.7553268 150.349754,71.2085636 C152.663979,69.86818 155.299965,69.3729863 157.777077,68.4316321 C159.120106,74.6163757 160.314824,80.8349354 161.315387,87.0794912 C164.389542,106.244736 166.33088,125.722568 166.208345,145.149886 C166.206232,145.579139 166.079683,146.058693 165.844965,146.470826 C165.9825,146.403405 166.090246,146.322881 166.151514,146.225871 C166.93088,145.001941 168.885106,146.137104 168.101303,147.367162 L167.986835,147.545426 C167.39867,148.452603 166.849593,149.145752 165.815599,149.657988 C164.773838,150.173894 163.645669,150.260548 162.496585,150.290137 C158.590246,150.393065 154.681162,150.460063 150.77081,150.50825 C150.234613,146.323937 150.016585,142.099679 149.277782,137.939883 C149.087852,136.870239 147.458768,137.323585 147.648063,138.389425 C148.361514,142.406348 148.589894,146.484141 149.087852,150.52854 C140.727993,150.618575 132.363486,150.619632 124.009965,150.643092 C112.68919,150.67638 101.369871,150.65287 90.0496021,150.646473 L85.197993,150.644994 C72.1205282,150.644994 59.0428521,150.602724 45.9655986,150.51607 L42.8555282,150.49409 C41.6183451,143.198067 40.7762324,135.839695 40.7605986,128.425526 C40.7582746,127.337706 39.0681338,127.335593 39.0704577,128.425526 C39.0860915,135.831452 39.9189085,143.190669 41.1446831,150.484579 C38.0483451,150.471053 34.9534859,150.482254 31.8569366,150.592157 L30.2808717,150.648328 C27.1275086,150.756324 23.9677817,150.82286 20.8203169,150.571233 C17.3259507,150.290137 13.7916549,149.647632 10.6585563,148.001213 C9.2475,147.258317 8.00503521,146.30872 6.94320423,145.192157 C8.02257042,144.564023 9.11735915,143.961464 10.1629225,143.277112 C11.0694718,142.68364 10.2237676,141.219194 9.30982394,141.817315 C8.1831338,142.554928 6.99876761,143.197221 5.83869718,143.87946 C4.99869718,142.758035 4.30933099,141.513393 3.78580986,140.170685 C2.95975352,138.05063 2.64073944,135.77016 2.36397887,133.52562 C2.03672535,130.88184 1.90130282,128.216501 1.90130282,125.553699 C1.90130282,119.952916 2.49073944,114.369041 3.31278169,108.83589 C4.09888089,103.535023 5.13800441,98.2768905 6.23638571,93.0354132 L6.38651408,92.3207671 C7.4703169,87.168047 8.50341549,82.0005323 9.74566901,76.8837417 C10.894331,72.1522427 12.2217254,67.4429354 13.8036972,62.8247202 C15.2117958,63.6956947 16.6853873,64.4576125 18.0715141,65.3649393 C18.9844014,65.962638 19.8322183,64.4992485 18.9246127,63.9051429 C17.4457394,62.9369472 15.8684155,62.1323366 14.3760211,61.1863327 C16.1449648,56.2411585 18.2213028,51.4113816 20.710669,46.7855577 C25.6963732,37.5220744 32.4148944,29.234818 41.0198239,23.1185519 C45.3273592,20.0579883 50.0534155,17.5536986 55.0163028,15.7316477 C60.076162,13.8719765 65.3196127,12.8530568 70.6815845,12.4347945 C70.8346914,12.4226605 70.9206137,12.5644188 70.9143403,12.6954947 L70.9120775,12.7199061 L71.1233451,12.7539335 C71.2015141,12.2234442 71.3620775,11.7096517 71.6684155,11.2385519 C72.3655986,10.1648924 73.6879225,9.47589041 74.7442606,8.8164775 L74.9947089,8.66060691 C76.2514907,7.88131024 77.5778345,7.11358855 79.0395423,6.84035225 C79.0902465,6.83168689 79.1217254,6.88452446 79.0879225,6.92489237 C78.1239911,8.0305117 76.8913784,8.87527283 75.7617168,9.81042254 L75.5020578,10.0270252 C74.5658748,10.7977781 73.2600352,11.6725479 73.2252465,12.9608454 C73.1853169,14.4785519 73.495669,16.0571272 73.6078521,17.5706067 C73.7198239,19.0794364 73.7977817,20.586364 73.8379225,22.0996321 C73.9839085,27.5209785 73.8085563,32.944227 73.3287676,38.344227 L75.4497688,36.9236558 C78.7505669,34.713237 82.0623219,32.509007 85.4428521,30.4395147 C87.4881338,29.1864188 89.7867254,28.1146614 92.2372183,28.1634834 C92.923838,28.175953 93.6991901,28.275499 94.4430634,28.4868493 C93.6423592,27.7281018 92.8754577,26.9207436 92.0916549,26.1577691 C90.8005986,24.9000235 89.5097535,23.6427006 88.2191197,22.3872798 L84.4971919,18.7604031 L80.773838,15.1335264 C79.6205282,14.0070294 78.2682042,12.9695108 78.3907394,11.1941683 C78.4902465,9.77812133 79.2104577,8.36841487 79.7027113,7.00309198 C79.7724296,6.8065362 79.8358099,6.61209393 79.8949648,6.41976517 C80.8881338,3.11847358 81.452007,-0.303499022 82.4597535,-3.59189824 Z M130.563486,138.0538 C129.793627,137.283217 128.598275,138.478403 129.368556,139.249198 L129.775837,139.654989 C130.456099,140.333904 131.130482,141.033697 131.601253,141.87297 L131.670317,141.999922 C132.17757,142.962834 133.637007,142.109401 133.129542,141.146489 C132.502289,139.956376 131.504472,138.995577 130.563486,138.0538 Z M97.5778521,137.836321 C95.1269366,137.36818 92.7647535,137.36818 90.313838,137.836321 C89.2467254,138.040274 89.6986268,139.670207 90.7632042,139.466888 C92.9067254,139.057292 94.9847535,139.057292 97.1284859,139.466888 C98.1913732,139.669785 98.6466549,138.040697 97.5778521,137.836321 Z M64.4781338,120.793033 C63.4234859,120.525675 62.9734859,122.156031 64.0289789,122.423389 L64.5486177,122.553808 C66.3150978,122.990509 67.9975094,123.315898 69.8325,122.910552 C70.880151,122.678831 70.4565231,121.088048 69.4247279,121.271685 L69.3831338,121.279984 C67.6851761,121.655131 66.1209507,121.209393 64.4781338,120.793033 Z M123.262289,109.810638 C122.481866,109.051679 121.285458,110.24602 122.067148,111.006035 C123.04257,111.954998 124.192077,112.676125 125.585176,112.714591 C126.656965,112.744571 126.672142,111.104106 125.63313,111.026241 L125.585176,111.023789 C124.651585,110.997793 123.907711,110.43856 123.262289,109.810638 Z M23.7922183,105.294928 C24.7653169,104.808188 23.9103169,103.349448 22.939331,103.835131 L17.0982042,106.756626 L17.0982042,106.756626 C16.1251056,107.243366 16.9801056,108.702528 17.9510915,108.216634 L23.7922183,105.294928 L23.7922183,105.294928 Z M139.214472,105.667538 C138.126444,105.636892 138.127289,107.327695 139.214472,107.358341 C140.236796,107.386873 141.284472,107.774278 142.195246,108.216634 C143.169613,108.690059 144.02757,107.232587 143.048345,106.756626 C141.857641,106.178372 140.550528,105.704736 139.214472,105.667538 Z M84.6372887,97.5039217 C85.5317958,96.8958669 84.6871479,95.4299413 83.7841901,96.0439139 C82.5521127,96.8812485 81.4357805,97.8709579 80.2233194,98.7336884 L79.8901056,98.9656204 C78.9955986,99.5736751 79.8402465,101.039178 80.7432042,100.425628 C82.0870775,99.5119609 83.2934155,98.4171663 84.6372887,97.5039217 Z M147.489401,85.2153814 C146.401796,85.2149589 146.400106,86.9057613 147.489401,86.9061839 L147.695629,86.9055533 C148.593327,86.900505 149.539523,86.8756974 150.374353,87.2346001 L150.470176,87.2777378 C151.448768,87.7389041 152.30757,86.2816438 151.323275,85.8179413 C150.099401,85.2413777 148.819754,85.2160157 147.489401,85.2153814 Z M53.6274361,84.0075368 L53.7694014,83.9542544 C54.7855986,83.5892524 54.3474296,81.9546693 53.3200352,82.3241096 C51.7718662,82.8805949 50.5674296,83.9316399 49.2244014,84.8438278 C48.3294718,85.4518826 49.1741197,86.9173855 50.0772887,86.304047 C51.2344815,85.5177947 52.3111224,84.5223012 53.6274361,84.0075368 L53.6274361,84.0075368 Z M117.02218,79.6088088 L117.250035,79.4867319 C118.217641,78.9885793 117.363486,77.5292055 116.397148,78.0267241 C115.630054,78.4215648 114.943627,78.9468839 114.191041,79.365448 L113.963134,79.4875773 C112.995739,79.9855186 113.849683,81.4448924 114.816232,80.9475851 C115.583326,80.5525522 116.269754,80.0272157 117.02218,79.6088088 L117.02218,79.6088088 Z M91.3101188,63.2316628 L91.1360915,63.063546 C90.3582042,62.3016282 89.1622183,63.4963914 89.9409507,64.2591546 C91.8858924,66.1634087 94.1852364,67.6092207 96.5048319,69.0070465 L96.9267254,69.2607593 C97.8615845,69.8218943 98.7123592,68.3606184 97.7798239,67.8007515 L97.1606632,67.428364 C95.0983245,66.1842047 93.060097,64.8999058 91.3101188,63.2316628 L91.3101188,63.2316628 Z M44.539331,61.6532055 C45.194698,60.8018766 43.7694752,59.9687114 43.1033568,60.7704419 L43.0798944,60.799773 C42.397674,61.6857534 41.5881959,62.4878607 40.7421698,63.2198387 L40.5831338,63.3562661 C40.0794718,63.7848845 39.1627817,64.7032016 38.4552465,64.7636477 C37.3794718,64.8551624 37.3697535,66.5468102 38.4552465,66.4544501 C39.5500352,66.3612446 40.4920775,65.5904501 41.3191901,64.9299804 C42.522993,63.9689706 43.5998239,62.8731194 44.539331,61.6532055 Z M134.45757,55.4938239 C135.242909,54.7558059 134.082881,53.581117 133.290453,54.2732205 L133.262641,54.2984266 C131.794965,55.6776986 129.683768,56.047773 127.794401,56.5154912 C126.73912,56.7771429 127.186162,58.4079217 128.243768,58.1460587 L129.10449,57.9334671 C131.035237,57.4514316 132.972547,56.8900274 134.45757,55.4938239 Z M100.985176,44.8288767 C99.9305282,44.5606732 99.4805282,46.1910294 100.536021,46.4592329 C102.328627,46.9149041 104.026585,47.5039374 105.688204,48.321863 C106.66088,48.8003601 107.518204,47.3428885 106.541303,46.8618552 C104.753556,45.9817926 102.915317,45.3196321 100.985176,44.8288767 Z M118.250577,9.18629824 C118.225225,9.11021213 118.305718,9.02355851 118.383676,9.0508227 C120.280424,9.75828399 119.272119,12.2434102 118.682794,13.7310234 L118.57593,14.0029714 C117.65269,16.3870027 116.362056,18.707629 114.955014,20.8422669 C113.482479,23.0762395 111.847268,25.2151045 110.076845,27.2229323 C109.30877,28.0946348 108.51215,28.9412885 107.688766,29.7627447 L107.378746,30.0696094 C106.546563,30.8877464 105.473324,32.3249284 104.182268,32.1664157 C102.792127,31.9992376 102.016775,30.5136564 103.030859,29.3850458 C103.747268,28.5861417 104.740225,27.9497659 105.540718,27.2229323 C106.335296,26.5041299 107.10431,25.7625018 107.854099,24.9995272 C109.388113,23.4334215 110.841634,21.7785487 112.170507,20.0349088 C113.45574,18.3487297 114.68564,16.6159257 115.803977,14.8143798 L116.026141,14.4531476 C116.877338,13.0518951 118.842338,10.9912297 118.250577,9.18629824 Z M51.0508099,26.8970724 C50.1503873,26.2811977 49.3040493,27.7458552 50.1977113,28.3568689 C51.8409507,29.480407 53.2866549,30.8415029 55.0653169,31.7655264 C56.0176459,32.2604635 56.8645722,30.8421411 55.9521632,30.3240588 L55.9184155,30.3057299 C54.1410211,29.3819178 52.6932042,28.0197652 51.0508099,26.8970724 Z" id="ðŸ–-Ink" fill="#000000"></path>
                    </g>
                    <g id="head/Gray-Short" transform="translate(78.591549, 38.043053)">
                        <path d="M60.7199366,107.677045 C56.0306408,107.70411 52.0452887,106.373025 49.0043028,104.170967 C45.2095141,102.817268 40.6321901,100.729339 37.8519085,98.5374247 C36.7674718,98.8142935 35.4698662,97.6618004 34.640007,97.0535342 C29.4797958,93.1987162 25.4293732,87.5562975 24.229162,81.9043679 C22.3763451,84.2440157 19.7397254,84.3412368 17.2140211,83.1783875 C11.9196549,80.1746771 12.1176127,73.8500196 14.023669,69.1246497 C10.0165563,60.1302153 7.23944366,36.3858552 13.3562746,26.8030215 C14.6074014,25.3692211 16.4435282,24.5115616 17.7654296,23.0411977 C18.9417676,21.7570333 20.0606408,20.4434912 21.4292324,19.427319 C25.6051479,16.2477652 32.7975423,14.5548493 37.3009225,13.7586928 C56.0999366,9.69273581 70.5438803,17.0008063 87.5724718,23.1652603 C86.5924014,25.6169237 85.2366972,27.8527984 83.6830352,29.9375577 C87.9105,31.5161331 85.9687394,35.0653386 82.6890211,36.8645636 L80.7364859,35.9151781 C83.7802183,46.8094403 90.785007,73.9007436 87.7626127,82.6005558 C85.3524718,96.1734716 74.7751479,107.774912 60.7199366,107.677045" id="ðŸŽ¨-Background" fill="#FFFFFF"></path>
                        <path d="M37.1261831,12.5463029 C45.5868169,10.9903421 54.2722394,10.910663 62.6295634,13.0979272 C66.8931549,14.2136454 71.019,15.7799624 75.149493,17.3012618 C79.4654789,18.8910387 83.7848451,20.4708822 88.1027324,22.0553753 C88.4901972,22.1976141 88.8645634,22.6416611 88.6885775,23.0876102 C87.8037887,25.3302481 86.6718169,27.4249409 85.2799859,29.3708431 C86.3944225,29.9254262 87.155831,31.1345613 87.1824507,32.5011523 C87.2289296,34.8889879 84.9975211,36.4624908 83.2163239,37.6196337 C82.9072394,37.8206278 82.6047042,37.8178802 82.3570986,37.6974106 C84.2606197,44.9602521 86.0863944,52.2473988 87.6309718,59.593301 L87.7342562,60.0883534 C89.2718699,67.5175691 90.2709764,75.0995666 88.8166056,82.6283695 C87.570338,89.0806826 84.677662,95.3095984 80.1529437,100.116761 C75.7351268,104.81064 69.807169,107.765951 63.3930845,108.42473 C57.4429437,109.035743 50.3551268,107.657951 46.3818169,102.814436 C46.1538592,102.536299 46.4382254,102.110217 46.7779437,102.300855 L47.1523744,102.509425 C49.9653714,104.063708 52.8879197,105.385359 56.0754085,105.952565 C59.3659014,106.538005 62.7163944,106.472276 65.9775211,105.728745 C78.5122394,102.871712 86.0124507,90.6742638 87.1556197,78.4715319 C87.8798451,70.7399155 86.2066056,63.0545847 84.4682958,55.5677119 C82.6505493,47.7388744 80.6635775,39.949982 78.3554789,32.2513362 C78.2690704,31.9634771 78.285338,31.7060524 78.3709014,31.4881503 C75.8249155,30.0907022 72.6265352,33.1901542 70.7037887,34.5064438 C69.4116761,35.3909448 68.000831,36.0342951 66.420338,36.1344751 C64.7620986,36.2393049 63.1387183,35.7147335 61.6340704,35.0701151 C58.5554789,33.7510779 55.6689296,32.24098 52.4109718,31.3640877 C49.1625211,30.4895202 45.8086479,30.0587883 42.4444225,30.0896454 C36.3692113,30.1452305 30.2959014,31.7375436 26.5786479,36.8691288 C25.0241408,39.0151796 24.0432254,41.4822716 24.830831,44.1214027 C25.2522589,45.5335142 26.0435563,46.817756 26.9128318,47.9984778 L27.1999136,48.3855103 C27.9404067,49.3919851 28.5487451,50.3781665 27.7868873,51.6156728 C27.3616056,52.3067883 26.7231549,52.8660211 26.253507,53.5298724 C25.8360423,54.1201738 25.4667465,54.7561268 25.1768873,55.4191327 C24.6102676,56.71471 24.3670986,58.1079311 24.3168169,59.5138333 C24.2162535,62.3157041 24.945338,65.0150701 25.1027324,67.7962286 C25.122169,68.1396728 24.6681549,68.1310074 24.5580845,67.8699898 C23.2894225,64.8595162 22.4591408,61.2686748 22.8489296,57.990209 C23.0344225,56.4321346 23.502169,54.9319703 24.2646338,53.558616 C24.7028028,52.7694341 25.2373099,52.0392188 25.8199859,51.3510622 L26.0267485,51.1133714 C26.3023293,50.7937654 26.5076561,50.4934556 26.2818169,50.0077198 C26.0916761,49.5989683 25.6661831,49.2031092 25.394493,48.8353597 C23.7140704,46.5597511 22.4380141,43.8531992 22.8461831,40.9617159 C23.247169,38.1207452 25.1213239,35.48098 27.1004789,33.4875241 C31.5155493,29.0405025 38.3673803,28.0477902 44.3557606,28.2927452 C47.8720986,28.4364634 51.3827324,29.0563538 54.7313239,30.1393127 C56.3830141,30.6736063 57.9979437,31.3243538 59.5657606,32.0693636 L59.9155817,32.2373823 C61.371954,32.9432553 62.817036,33.7098568 64.3972394,34.0981151 C68.0409718,34.9931836 70.1663239,32.3026943 72.9867465,30.6004791 L73.1261957,30.5179942 C75.3047452,29.2551778 78.2651408,28.7343628 80.2338592,30.6262638 C80.3942113,30.7805495 80.478507,30.9498411 80.504493,31.1174419 C80.6090704,31.2434067 80.6916761,31.4008626 80.7428028,31.59298 C81.149493,33.1195632 81.5540704,34.6474145 81.957169,36.1756885 C82.025831,36.0837511 82.1139296,35.9987883 82.2267465,35.9258724 L82.7150933,35.6110751 C83.6275982,35.0181529 84.5992817,34.3264059 85.0454789,33.3385221 C85.4016419,32.5499089 85.0836427,30.8162375 83.9225396,30.9220936 L83.8699859,30.928072 C82.9435775,31.0540368 82.2844225,30.1042286 82.9465352,29.3408313 C84.5122394,27.5354771 85.8134366,25.5310309 86.7719577,23.3463029 L80.2527148,20.9333959 C78.0795106,20.1294458 75.9059366,19.326526 73.7312535,18.5266708 L72.5406185,18.0890082 C68.5698986,16.6320377 64.5760679,15.2091437 60.4467465,14.2711327 C52.2157606,12.401528 43.6323803,12.8373323 35.4229437,14.5974575 L34.9299169,14.7040409 C31.4762893,15.4574048 27.9773547,16.3717336 24.8075915,17.956025 C23.2302676,18.7443616 21.7319577,19.7043147 20.444493,20.9153519 C19.1187887,22.1623186 18.0886479,23.6844634 16.664493,24.8318841 L15.8866074,25.4550089 C14.6779552,26.4292809 13.5975671,27.38506 12.9163944,28.8942481 C12.2194225,30.438162 11.8830845,32.1429135 11.6116056,33.8049722 C10.9380845,37.9239781 10.6718873,42.1089252 10.6972394,46.2811914 C10.7422394,53.6325886 11.9122394,60.8267413 13.3507606,68.0018724 C14.3633662,66.1553049 15.9480845,64.5936376 18.1232958,64.3081033 C20.4683662,64.0003773 22.7730845,65.1822481 23.8841408,67.2722912 C23.9266056,67.352393 23.8256197,67.4305926 23.7597042,67.3684556 C21.8513239,65.5692305 18.7325915,65.467571 16.7895634,67.2811679 C14.9561831,68.9922599 14.390831,71.7776454 14.3716056,74.1836571 C14.3519577,76.6602599 14.9644225,79.6024673 17.1109014,81.1315867 C17.9986479,81.7639468 19.0832958,82.1418411 20.1751268,82.1528313 C21.3117465,82.1642442 22.3887887,81.659117 23.4529437,81.3125025 C24.2599859,81.0497941 24.7537183,81.9708587 24.4592113,82.6222403 C24.402169,82.7488391 24.3375211,82.8665613 24.269493,82.9802677 L24.8466106,83.929529 C26.5794401,86.7725662 28.3446127,89.562054 30.6565352,92.0055593 C31.9881261,93.4129217 33.3999887,94.7405587 34.9500035,95.9044647 L35.1723803,96.0696141 C35.7396338,96.4861855 36.5813239,97.3406748 37.3201268,97.369207 C37.9442113,97.3935123 38.2868873,97.0754301 38.7233662,97.7200485 C38.9080141,97.9929018 38.8930141,98.4107413 38.7233662,98.6848626 C37.6101042,100.484958 35.3327057,98.7320644 34.1565932,97.8292156 L34.0154789,97.7211053 C32.3580845,96.4563851 30.7868873,95.0574575 29.4060423,93.4924086 C26.9282958,90.6844086 24.7120986,87.3490896 23.6959014,83.6973793 C21.9778732,85.3112501 18.7418873,84.8923538 16.7777324,83.9605104 C11.5554085,81.4830622 10.8592817,74.1536454 12.7387183,69.3192188 C12.7883662,69.1911405 12.8418169,69.0639076 12.8965352,68.9366748 C9.63794366,60.765027 8.6405493,51.6748509 8.91709859,42.9418568 C9.0455493,38.8828744 9.31977465,34.6239546 10.2770282,30.6651523 C10.6934366,28.9430701 11.4136479,27.3010896 12.5692817,25.9448548 C13.8415352,24.4514536 15.6770282,23.6033049 17.0023099,22.1549213 L17.2941652,21.8346235 C18.4075781,20.6086995 19.4690197,19.4093796 20.8144225,18.4068352 C22.2848451,17.3114067 23.9080141,16.4550153 25.5939296,15.7429761 C29.265338,14.1929331 33.2173099,13.2653166 37.1261831,12.5463029 Z M16.6983169,72.8005386 C18.2407817,72.0641941 19.955007,71.7363898 21.6571901,71.9673957 L21.83093,71.9920737 C23.3025264,72.2105617 25.7929181,72.8220249 26.0783873,74.4676697 C26.1755704,75.0273252 25.8392324,75.639607 25.1999366,75.6214309 C24.3979648,75.5986051 23.9798662,75.1926012 23.3743732,74.7392548 C22.7904296,74.3021824 22.1519789,73.9316853 21.4712746,73.6679202 C19.9869085,73.0926247 18.4283873,72.9060023 16.858669,73.1809691 C16.6427535,73.2185894 16.4712042,72.9091726 16.6983169,72.8005386 Z" id="ðŸ–-Ink" fill="#000000"></path>
                    </g>
                    <g id="face/Smiling" transform="translate(112.183099, 77.354207)" fill="#000000">
                        <path d="M30.968993,50.9198978 C29.548794,50.3403012 28.2816173,49.3734958 27.3551889,48.1384646 C27.0331038,47.7091169 26.9495926,47.2557326 27.017159,46.8410547 C27.0931327,46.3747786 27.3688808,45.9521824 27.7449394,45.6687178 C28.1221628,45.3843752 28.5940214,45.2441445 29.0502103,45.3156301 C29.4466117,45.3777469 29.8412104,45.5948709 30.1535058,46.0451781 L30.2187521,46.1352289 C30.7695298,46.8806513 31.4872438,47.4922614 32.3050288,47.8864795 C33.0932406,48.2664417 33.9747757,48.4437847 34.8870208,48.3406561 C36.6244504,48.1443157 37.8219743,47.2043274 39.0948115,45.9278391 C39.2525834,45.7666792 39.4104563,45.6004672 39.5690946,45.4315797 C39.6692778,45.278484 39.8083069,45.1800892 39.962667,45.1284632 C40.1340565,45.0711416 40.327938,45.0743848 40.5055187,45.1363808 C40.6767961,45.1961763 40.8299095,45.309486 40.9325762,45.4602937 C41.0301525,45.6036243 41.0854754,45.7806897 41.0675245,45.9843589 C40.9510195,47.3072301 40.2596776,48.4878363 39.2776553,49.4148615 C38.1869942,50.4444414 36.7412431,51.1567117 35.3801317,51.4065272 C33.8805866,51.6817086 32.3525901,51.4845569 30.968993,50.9198978 L30.968993,50.9198978 Z M36.0875289,30.5120405 C37.6828906,31.482148 40.1137318,33.7442494 38.3974899,36.149264 C36.3773089,38.2698449 33.4687045,35.8384541 32.0353946,34.7388307 C30.7063626,33.8866164 29.2131206,36.0784478 30.4461973,37.0735516 C40.8033244,44.7445605 45.006466,30.7657101 36.8944406,29.3714319 C36.0012775,29.2177885 35.6695544,30.2119271 36.0875289,30.5120405 Z M17.5274577,21.5886716 C17.7037243,19.3998697 21.0359789,18.9028321 21.3674577,21.0687499 C21.6642887,23.0089456 21.3148521,24.7912626 20.4412606,26.5380728 C19.6065423,28.2068947 17.5085456,27.4283107 17.3498837,25.9087021 C17.1372039,23.8717299 17.4178099,22.9502317 17.5274577,21.5886716 Z M42.8930282,20.6196517 C43.3576056,20.0109628 44.0283803,19.5954481 44.8320423,19.8302583 C47.3429577,20.5642779 46.6028873,24.1303914 45.7210563,25.8662114 C45.2419014,26.8088337 43.6930986,27.0478708 42.993169,26.2178982 C41.8523239,24.864411 41.3059859,22.1614521 42.756338,20.8282544 C42.7956338,20.7593542 42.8393662,20.68982 42.8930282,20.6196517 Z M20.4058944,12.0111429 L20.802522,11.9416942 C22.0295218,11.7294045 23.5551549,11.5254176 24.4231479,12.5122544 C24.8835,13.0355577 25.0419507,14.0081918 24.4231479,14.509092 C23.3346972,15.3904227 22.1313169,15.0488806 20.8269507,15.1234873 C19.7520211,15.1852016 18.7189225,15.3631585 17.6835,15.6592603 C15.4119507,16.3087397 13.5610352,17.4944149 11.6209648,18.7963327 C11.3663873,18.9671037 11.1065282,18.6414129 11.228007,18.4032211 C12.3479366,16.208771 14.5182887,14.4061644 16.6922324,13.3073542 C17.8525141,12.7208571 19.1222324,12.2343288 20.4058944,12.0111429 Z M40.6041287,11.0281289 L40.9077055,11.0902829 C44.2113469,11.7811043 48.5035506,13.1610768 50.0679842,16.4073021 C50.1275964,16.8663298 50.0646105,16.9647086 50.0133917,17.0289838 L49.9963385,17.0503723 C49.9541341,17.1052595 49.9204583,17.1809212 49.7215736,17.2433957 C49.6663832,17.2302408 49.6106433,17.216308 49.5543131,17.2015401 C48.8372041,17.0135386 48.2698321,16.7545401 47.720556,16.4857982 L47.1250012,16.192275 C46.4340388,15.8533498 45.7369757,15.5267598 44.9982488,15.2856588 C43.4217423,14.7712438 41.8001698,14.4088706 40.1534741,14.2153715 C39.7965654,14.1734678 39.4528848,14.0529641 39.1817455,13.8464404 C38.92438,13.6504079 38.7277692,13.3789964 38.6381257,13.0182314 C38.5219478,12.5513438 38.5553348,12.1978716 38.8057421,11.7766707 C38.9940329,11.4603578 39.263447,11.2411116 39.5728025,11.115213 C39.888177,10.9868648 40.2472278,10.9566068 40.6041287,11.0281289 Z" id="ðŸ–-Ink"></path>
                    </g>
                    <g id="facial-hair/Full-4" transform="translate(104.577451, 109.479380)">
                        <path d="M-2.44466295,-3.43329054 C-0.951472014,-3.43329054 -0.339899606,0.0444267131 -0.339899606,0.0444267131 C3.45781364,6.59540242 7.11342983,13.1279245 13.6358842,17.6350165 C20.8763716,20.5375902 27.9981054,25.4810428 36.2481151,26.0230766 C39.967359,25.632404 41.0582194,22.2268855 45.6514995,23.4251798 C48.5819959,24.1374678 51.8724716,25.5422822 54.5817283,23.51313 C56.8719775,22.0155878 58.4831696,19.746907 60.458524,17.9127654 C60.5591509,17.5818121 61.215201,21.074195 61.0169683,22.2546821 L60.863848,22.9249814 C59.6407537,28.3296966 58.4038579,34.6897629 52.9307968,37.6607337 C51.2633653,38.5395841 48.9240808,39.3875978 47.0737547,38.8922536 C37.2969122,40.4519038 26.6918151,39.3107228 18.1262135,34.431767 C15.1106606,33.648033 12.8675875,31.2423237 10.4929791,29.4251206 C4.68497223,24.3359529 -1.97099733,17.8891716 -2.59125862,10.1578063 C-3.21151992,2.426441 -2.93529895,-3.43329054 -2.44466295,-3.43329054 Z M27.0959987,11.8326233 C30.4238383,6.48680048 37.0351679,7.35496607 42.1797125,9.79052714 C45.0215649,7.86026472 48.7710732,8.21558988 51.8544099,9.57547893 L51.8539455,9.57720276 C54.6941725,11.1316695 56.8452405,13.6840203 58.8226255,16.1251838 C59.3037365,16.7737761 59.4950664,17.6451739 58.8184459,17.964945 C55.6310852,20.592929 49.0090606,19.0506153 46.0039741,17.0966501 C43.8357237,16.9218965 44.3110437,13.8423975 41.8084304,15.9976202 C40.1384735,17.5680324 38.0405785,18.5417827 35.7618025,19.118836 C30.6667158,20.8687423 25.9756508,20.5780609 21.5383766,17.8503101 C20.9676377,17.7949319 18.6294194,16.4718898 19.4602183,16.0010678 C20.3639269,16.2452057 25.3705469,13.3704981 27.0959987,11.8326233 Z" id="ðŸŽ¨-Background" fill="#FFFFFF"></path>
                        <path d="M-3.22270951,2.3139522 C-3.18873411,2.03277066 -2.75240626,2.01884216 -2.74263252,2.3139522 C-2.5404091,8.49929337 -0.52701786,15.2805131 2.87820105,20.5763891 C11.0616172,33.9438295 27.7647128,40.6401724 43.8408925,38.3393587 C55.5893981,38.1800515 56.8444166,31.5204233 59.7646717,22.2211923 C61.2803001,20.9763328 62.0249605,21.422316 61.5541933,22.8816166 C57.9342369,34.1028819 56.6947434,40.5388731 42.3720384,40.4166636 C19.3741864,43.7005246 -5.56608096,24.8894355 -3.22270951,2.3139522 Z M29.2680368,7.30164907 C33.020217,5.6259445 37.4849781,5.86239897 40.6189821,8.17956544 L40.8399694,8.22992393 C41.3888116,8.35266183 41.91546,8.44607278 42.5324844,8.38326998 C50.8256488,4.01573977 56.3621949,11.6327177 60.6141374,17.3357899 C60.9348804,17.3467066 61.1961834,17.5984443 61.1094709,17.893412 L61.2456002,18.03904 C60.7099408,19.4761068 59.7421174,20.8633937 58.4188195,21.7349784 C54.0799314,27.5144671 50.8398678,25.7077628 45.1870056,23.3281532 C39.3742382,22.4576601 39.1390422,29.3122197 31.0297923,26.1721568 L30.7238295,26.0724597 C28.0562151,25.1909702 24.9937082,23.8540442 23.0541075,21.9220896 C22.9907049,21.8587731 23.052709,21.7367251 23.1496778,21.7683833 C27.6496367,23.1255403 33.4355978,27.5568237 38.0159756,24.5713404 C39.1737738,23.7940754 40.2138576,22.8504409 41.5082514,22.2650905 C48.8976943,19.7915977 51.4946403,29.5600275 57.9607817,19.4184669 C52.6955618,20.3363382 46.760884,19.4237069 42.8252556,15.8373716 C36.9418595,22.9259841 25.4909151,21.7902166 18.2103289,17.3873165 C17.2145338,17.5307611 15.7411207,16.545425 16.6581287,15.6074671 C17.6611498,14.8098972 19.2480817,15.1225499 20.4811707,14.6900325 C24.4172653,13.289209 25.3466274,8.82430233 29.2680368,7.30164907 Z M42.4218113,10.2658709 C38.2632445,7.30656622 32.0438011,6.8082558 28.0639446,10.2992662 C25.5785438,12.7964933 23.9661905,16.3800503 19.959539,17.0405353 C26.8404666,21.0027907 36.7273148,21.069363 42.0257129,14.7650705 C42.1920742,14.2200503 43.0544037,14.4551271 43.1585542,14.928773 C46.9522446,17.5768247 51.8046826,18.9840114 56.530136,18.172047 C57.2918099,18.0469783 58.0439308,17.8690882 58.7774118,17.6405595 L58.079984,16.681631 C54.3717311,11.6057726 49.6010615,5.69503949 42.5280589,9.86971087 C42.3679885,9.95068904 42.3006518,9.7435508 42.2806139,9.63725331 L42.1937052,9.70076988 C42.256382,9.83195016 42.7776008,10.2639065 42.4218113,10.2658709 Z M59.4505541,19.0798138 C59.4852167,19.1109309 59.5137935,19.144923 59.5381367,19.180268 C59.6545606,19.1197249 59.7752182,19.0581671 59.8993156,18.999146 L59.8657114,18.9744553 C59.732353,19.012337 59.5934381,19.0473438 59.4505541,19.0798138 Z M-2.68723316,-5.36149215 L-2.68881398,-5.56435655 C-2.68862519,-7.60590729 -2.14021093,-5.03200992 -1.89394819,-4.52565075 C-0.835148954,-2.61876506 0.0500537498,-0.731697386 1.17168283,1.12727661 C5.66913621,9.22174069 6.36561668,12.7301839 15.4280073,17.3412495 C16.1012175,17.9179322 15.3940327,18.9530427 14.5576976,18.7402712 C13.3066856,18.4220939 12.1268808,17.6247997 11.037132,16.981694 C4.86607771,13.7977437 2.56417836,7.30265929 -0.204523474,1.64951415 C-1.01758821,-0.592100112 -2.89317543,-2.98354733 -2.68723316,-5.36149215 Z" id="ðŸ–-Ink" fill="#000000"></path>
                    </g>
                    <g id="accessories/Glasses" transform="translate(88.521127, 88.978474)" fill="#000000">
                        <path d="M82.2021338,13.3747538 C80.1879085,27.0045229 66.1272042,28.5118732 63.6289648,14.9808047 C64.0299507,14.8051726 64.318331,14.4594035 64.2581197,13.788155 C64.2439648,10.8393957 65.1589648,7.72282427 67.8179789,6.08295734 C70.5657254,4.39088689 73.7814296,4.22307476 76.9612183,4.26576751 C83.0292465,4.12120391 82.9016408,9.19509041 82.2021338,13.3747538 M61.4277676,7.44701213 C59.5234014,7.36669902 57.1141056,7.43390841 55.4081197,8.59464423 C54.9391056,7.33119217 53.7205141,5.98214325 52.4892465,5.2608047 C57.0657254,5.39480078 61.7765704,4.94420196 66.3872746,4.59441722 C65.2836127,5.34703562 64.2568521,6.47775969 63.5894577,7.78496125 C62.9702324,7.45462074 62.083331,7.48547789 61.4277676,7.44701213 M53.0336831,14.8197558 C47.7530493,33.0034896 34.5718521,25.0778536 33.1348099,22.7475053 C30.5427676,18.8912078 30.055162,9.51697691 32.3129789,7.01057378 C35.5449507,4.74405323 40.1203732,5.32738004 43.9384014,5.27179491 C50.9526972,5.36647984 55.9343873,7.46561096 53.0336831,14.8197558 M88.4372746,6.45641331 C87.0025563,6.26873425 85.4693873,6.23090254 84.1354437,6.86283992 C83.7247394,5.11645245 82.4353732,3.65644462 80.9795282,3.01393973 C80.803331,2.79286732 80.8297394,2.67408845 80.227838,2.70727045 C76.5317113,1.59599061 72.3957254,2.18396712 68.8438944,3.32356791 C63.2343169,3.79614716 57.3490352,4.16875773 51.6923451,4.81992798 C46.393331,2.43927828 30.4018521,2.09033894 29.4080493,7.95805714 C28.1579789,7.77101213 26.0290352,6.78675382 24.9786127,8.12185362 C17.2734718,6.81507476 9.31185211,8.63120783 1.57333099,9.4400454 C-0.374556338,9.7989182 -1.3778662,13.6662059 0.833260563,13.6133683 C2.07635915,13.2758419 0.795021127,11.2052431 2.46889437,11.0494779 C9.93530282,10.2336658 17.2384014,9.07631155 24.7812887,8.94083601 C24.5188944,10.2438106 29.770162,10.328562 29.8476972,9.56770098 C29.8588944,9.57340744 29.8707254,9.57721174 29.8821338,9.58228415 C28.5845282,14.4200924 29.7557958,21.3823937 32.1008662,24.3822998 C35.3865,28.3104564 43.6354437,29.4373761 47.2931197,26.9100493 C52.0113592,24.5773761 56.9197394,12.8681472 55.541007,8.97803366 C58.0432606,8.18462466 60.516993,8.42281644 63.1138944,8.8269182 C62.5193873,10.5069417 61.4930493,14.6426442 62.9695986,15.0013057 C62.6985423,23.2122646 70.168331,28.335607 77.0543873,24.9673174 C83.0144577,22.1684055 85.0988239,13.3090239 84.3695282,7.93163836 C85.1115,9.36586145 91.3413592,7.80440548 88.4372746,6.45641331" id="ðŸ–-Ink"></path>
                    </g>
                </g>
            </g>
        </g>
    </g>
</svg>