<?xml version="1.0" encoding="UTF-8"?>
<svg width="240px" height="324px" viewBox="0 0 240 324" version="1.1" xmlns="http://www.w3.org/2000/svg" xmlns:xlink="http://www.w3.org/1999/xlink">
    <!-- Generator: Sketch 62 (91390) - https://sketch.com -->
    <title>peep-95</title>
    <desc>Created with Sketch.</desc>
    <g id="Introduction" stroke="none" stroke-width="1" fill="none" fill-rule="evenodd">
        <g id="variations" transform="translate(-3246.000000, -1082.000000)">
            <g id="images" transform="translate(126.000000, 110.000000)">
                <g id="a-person/bust" transform="translate(3120.000000, 972.000000)">
                    <g id="body/Striped-Pocket-Tee" transform="translate(31.056338, 135.052838)" fill-rule="evenodd">
                        <path d="M86.4419577,-6.19333437 C97.7777324,-7.00539689 113.319423,-4.7575689 116.598085,8.17278598 C117.614915,12.8779655 119.618366,14.9431482 122.984282,18.0203932 C144.349352,45.3767626 69.8063239,49.9748523 65.9743521,23.2989054 C57.9013944,26.2402776 49.113507,26.863134 41.0356901,29.8360404 C36.6546338,31.4550861 32.6819577,34.0097921 28.8751268,36.6809 C13.3513944,47.7109397 -1.95261972,59.0558996 -17.421,70.1650927 C-11.4351549,72.9225497 -0.0545915493,83.450791 -4.69191549,90.5254915 C-5.77217157,91.9035883 -7.37569154,92.8536197 -8.79414698,93.860923 L-9.5421324,94.3951864 C-11.1512707,95.5487527 -13.8600581,97.5149541 -15.3579718,98.5834713 L-15.634221,98.7846702 C-15.7425352,98.8630865 -15.8647283,98.9511522 -15.9750845,99.0300316 C-5.17297183,114.829166 7.46907042,129.406926 21.492169,142.422361 C22.6862535,143.532835 22.197169,146.015795 20.469,146.304896 L18.410146,146.607166 C11.7622757,147.57577 4.98808891,148.447525 -1.71114085,147.921613 C-8.23571831,147.211561 -12.1674085,141.43379 -16.6276901,137.248399 C-25.5345211,128.140896 -33.8257183,118.425987 -41.3776901,108.163142 L-41.5349378,107.946622 C-43.8853486,104.733454 -47.0050744,101.449595 -47.2333944,97.3005099 C-47.6498028,96.053104 -46.5539577,94.2655929 -45.501,93.4152235 L-45.1415247,92.8962069 C-39.4940448,84.7708528 -33.1024525,76.9349126 -25.094662,71.0505942 C-25.1244507,70.1737699 -24.7192394,69.2520779 -23.9168451,68.6711262 L9.5496338,44.4427954 L9.5496338,44.4427954 C18.1845634,38.4980406 26.2104085,31.511594 35.5699859,26.7111765 C45.1404085,22.1014465 55.9406197,21.9202827 65.7482958,18.0730916 C65.9561831,15.3001848 71.7835775,14.5924608 71.5995634,15.0206085 C77.7480845,11.3080203 80.9132958,6.89067111 81.8895634,2.8307818 C82.8656197,-1.22910752 81.6525211,-4.93153694 86.4419577,-6.19333437 Z M169.201965,80.7921275 C179.550275,65.215215 189.414148,82.4496917 193.722317,92.8369808 C198.812387,107.05199 188.271401,124.537895 181.461824,136.792484 C178.953655,140.195654 175.654923,147.373847 171.233937,147.894269 C160.095908,147.848767 148.942458,147.064217 137.797669,146.830567 C130.601472,145.044537 140.697951,134.226138 147.672317,138.177667 C149.785415,138.968566 150.84112,141.368563 152.901613,142.138509 C153.652348,142.29884 153.704124,141.963849 154.009506,141.215957 L154.05281,141.11142 C154.597246,139.817242 155.125204,138.51608 155.661401,137.218515 C160.198796,126.040327 164.995627,114.960552 169.765204,103.885645 C170.784148,101.481203 169.355134,99.5000416 167.497458,98.0689322 C166.074993,96.8977167 159.960275,94.0382492 165.721542,95.2968721 C163.503021,90.1455555 166.168796,84.9169903 169.201965,80.7921275 Z M143.509923,59.4689573 C144.506261,59.344513 145.785908,60.3489563 145.939289,61.3220768 C147.210197,69.3883863 145.794182,77.3632227 144.096639,85.2537341 L143.784164,86.6985363 C143.158007,89.5764758 142.458353,92.5109262 140.896754,95.0333592 C139.303162,97.6077476 136.892387,99.5478511 134.124782,100.727321 C125.246261,104.266787 114.20457,100.766474 107.673232,94.1491274 C103.494782,88.4236316 107.168092,81.2310476 107.869289,74.9557113 C107.206437,73.2648301 106.962174,71.3090076 106.578875,69.5655732 L106.532176,69.3574111 L105.042951,62.8537152 C104.714641,61.4192195 105.75957,59.4562589 107.476754,59.6532957 C119.449711,61.0270507 131.551542,60.9652518 143.509923,59.4689573 Z" id="ðŸŽ¨-Background" fill="#FFFFFF"></path>
                        <path d="M185.323901,78.7541495 C185.287986,78.5937346 185.480239,78.4709401 185.604887,78.5916211 C187.711225,80.6224861 189.198549,83.2178677 190.831648,85.6230341 C192.386577,87.9140712 194.078831,90.1163413 195.23869,92.6443022 C196.316155,94.9943061 197.011225,97.3783374 197.218268,99.961038 C197.42531,102.524928 197.157,105.094948 196.704887,107.620373 C195.815451,112.595559 193.914042,117.306557 191.826718,121.882502 C189.79733,126.330816 187.504249,130.652507 185.082701,134.895676 L184.214849,136.410547 C183.156233,138.254929 182.085982,140.095841 180.940099,141.88258 C179.514042,144.105985 178.212634,146.401249 176.332352,148.256905 C174.997141,149.577844 172.480944,148.256905 173.089394,146.369335 C173.353479,145.547394 173.560521,144.773641 173.97038,144.010666 C174.280944,143.429453 174.631648,142.865148 174.961225,142.2926 C175.62038,141.147081 176.273197,139.997335 176.932352,138.851817 C178.316155,136.444537 179.773901,134.081641 181.145028,131.665907 C183.523901,127.476944 185.769676,123.20957 187.755592,118.817923 L187.989319,118.299545 C189.816614,114.232749 191.54819,110.020307 192.350662,105.620999 C193.195732,100.986298 192.439394,96.6176877 190.79362,92.2615468 C189.942211,90.0085526 188.985169,87.8062826 187.990099,85.6124665 L187.798843,85.1934656 C186.837848,83.0995033 185.81906,81.0169186 185.323901,78.7541495 Z M83.038669,-1.41534951 C83.0576831,-1.49756477 83.1971197,-1.50390528 83.2097958,-1.41534951 C83.8013451,2.52041566 82.4851479,6.68380509 80.3407817,9.95762114 C79.1703592,11.7456446 77.7274014,13.3603609 76.0266972,14.6580517 L75.8942697,14.7580544 C74.156893,16.0573968 71.8094261,17.3121411 69.6527535,16.469535 C69.5851479,16.4437503 69.5217676,16.4143726 69.4626127,16.3807679 C69.7055704,16.7567601 69.9295141,17.1519851 70.1576831,17.5472102 C70.8358521,18.7244313 71.4443028,19.9439225 72.1055704,21.1317112 C73.288669,23.2557816 74.6978239,25.1558207 76.4788099,26.8191476 C83.6005352,33.468902 93.6004415,35.0494181 102.991602,34.9737255 L103.654991,34.9674447 C107.780132,34.9384077 113.17519,35.1490819 116.359796,32.1622943 C118.071063,30.5581456 119.013317,28.2774646 119.864725,26.1364861 C120.701345,24.0377777 121.27388,21.8714372 121.968951,19.7367992 C120.517542,18.7415507 119.186556,17.5262865 118.140782,16.1058012 C117.050641,14.6263491 116.226697,12.9609088 115.751345,11.1834528 L115.681228,10.9178892 C115.313628,9.50049835 114.944049,7.62549746 115.535852,6.28646654 C115.603458,6.13218082 115.856979,6.14274834 115.92881,6.28646654 C116.247824,6.92685793 116.309092,7.64967593 116.50557,8.33445088 C116.733739,9.13124149 116.991486,9.92380509 117.331627,10.6783256 C117.988669,12.1408697 118.856979,13.5315546 119.898528,14.7489323 C120.758387,15.7568618 121.690077,16.6827875 122.754866,17.4605566 C123.382331,16.3763295 124.837965,16.2304978 126.056979,16.5876798 C127.691002,17.0651994 129.302743,17.6783217 130.878275,18.3260412 L131.192894,18.4560164 C132.749937,19.1027483 134.509796,19.6966427 135.967542,20.5779734 C136.852754,21.000674 137.702049,21.4254881 138.500641,21.8016916 C142.479796,23.671719 146.400059,25.6558943 150.302654,27.6786099 L151.138669,28.1126114 C152.77388,28.964353 154.394303,29.8245487 155.816134,31.0123374 C157.263317,32.2212611 158.387261,33.8740204 159.443599,35.423218 C161.858387,38.9654489 164.133739,42.609128 166.521063,46.1703804 C171.34219,53.3562904 176.163317,60.5422004 181.011908,67.7112023 C182.184444,69.4465996 183.506979,71.1393041 184.559092,72.9484626 C185.566838,74.6775194 185.539373,76.4526505 185.342894,78.3822787 L185.306086,78.7366923 C184.929368,82.2762418 184.281649,85.6757046 182.296415,88.7109675 C179.171768,93.4832571 174.249232,96.4548423 169.041486,98.5005018 C169.677401,98.9741378 170.275289,99.4856055 171.033739,99.8112963 C172.199937,100.309872 173.444303,100.56793 174.70557,100.671281 C176.051345,100.779281 177.568246,100.443022 178.658387,101.358169 C179.095711,101.723594 179.108387,102.603022 178.658387,102.968658 C177.610334,103.82442 176.255655,103.579145 174.978578,103.43576 L174.902049,103.427288 C173.716838,103.296251 172.548528,103.076447 171.435148,102.641065 C171.1605,102.533065 170.887965,102.412807 170.62388,102.279656 C170.632331,102.302905 170.636556,102.330592 170.632331,102.359969 C170.442098,103.816081 170.029839,105.192866 169.594449,106.584451 L169.318246,107.466193 C168.756275,109.266897 168.190077,111.063375 167.606979,112.859852 C166.497336,116.279825 165.288686,119.667382 164.075742,123.050784 L163.028866,125.970269 C161.953441,128.965398 160.864505,131.956368 159.661204,134.901574 C158.917542,136.718975 158.169655,138.536799 157.42388,140.352298 C156.695007,142.125527 156.088669,144.040361 155.184444,145.72905 C154.440782,147.119735 152.412613,146.124063 152.737965,144.695547 C153.164725,142.821081 153.969655,140.960987 154.584444,139.137034 C155.209796,137.285605 155.822472,135.432063 156.458387,133.58465 C157.564303,130.375691 158.789232,127.209434 160.020404,124.04612 L161.240589,120.910305 C162.437573,117.837966 163.648637,114.768361 164.942894,111.73568 L165.084337,111.403289 C166.429154,108.231105 167.817351,104.664089 170.2605,102.205895 C170.29219,102.172079 170.336556,102.15496 170.380923,102.150733 C169.780923,101.825253 169.218951,101.430028 168.724585,100.962944 L168.700491,100.938602 C168.505088,100.731643 167.697824,99.7117552 167.437965,99.1009479 C167.099937,99.2214176 166.761908,99.3376603 166.42388,99.4515781 C165.834444,99.6504587 165.346415,99.5067405 165.002049,99.1918286 L164.34609,99.597854 C163.644817,100.026231 162.890782,100.432775 162.116134,100.45359 C161.140077,100.478952 160.373176,99.9400086 159.851345,99.1453315 C159.382331,98.4351945 159.103458,97.667993 158.509796,97.0318286 C157.926134,96.4065135 157.250453,95.8787765 156.560049,95.3749001 L155.74628,94.7825895 C154.25391,93.6927732 152.807138,92.5915634 151.60557,91.1520634 C151.001345,90.4250184 150.19219,89.5627092 149.824585,88.6896211 C149.752754,88.5209636 149.708387,88.3624509 149.699937,88.2079538 C149.619655,88.7532376 149.537261,89.3006348 149.454866,89.8459186 C148.301345,97.5200477 147.369655,105.247014 147.071768,113.007797 C146.925993,116.83514 146.8605,120.667132 147.031627,124.496588 C147.116134,126.409519 147.25557,128.320126 147.447824,130.226506 C147.542894,131.181809 147.64219,132.134999 147.758387,133.086075 L147.78521,133.306366 C147.81881,133.597813 147.840782,133.879738 147.81543,134.147054 C148.745007,134.605472 149.279514,135.763883 149.651345,136.668463 C149.934444,137.357465 149.714725,138.027445 149.258387,138.511437 C149.803458,139.00811 150.289373,139.591437 150.69712,140.259093 C150.779514,140.394568 150.602049,140.500243 150.496415,140.415703 C149.826697,139.883101 149.106275,139.445605 148.354162,139.109559 C147.959092,139.259617 147.528106,139.299774 147.130923,139.189872 C146.699937,139.071515 146.328106,138.784079 146.059796,138.418654 C143.92388,138.067602 141.703458,138.496643 139.780923,139.83449 C139.381627,140.113472 139.020359,140.428384 138.675993,140.77056 C138.616838,140.830161 138.55557,140.906036 138.494303,140.980009 L138.913721,141.14122 C139.087491,141.207102 139.230118,141.258689 139.284444,141.269559 C139.650641,141.344236 140.022472,141.384157 140.394303,141.416251 L140.951345,141.461887 C143.091486,141.639422 145.225289,141.6986 147.21543,142.594725 C147.633739,142.782827 147.487965,143.427445 147.092894,143.535022 C145.639655,143.929543 144.197458,143.898954 142.718208,143.793458 L142.400641,143.769832 C141.025289,143.664157 139.548528,143.670498 138.206979,143.290067 C138.528106,144.169073 138.090782,145.316917 136.749232,145.496564 C132.720359,146.033394 128.666134,145.779985 124.633035,145.424705 C120.559796,145.06541 116.488669,144.725136 112.404866,144.511883 C99.195067,143.816667 85.9650228,143.950131 72.7433781,144.138874 L65.2717649,144.247104 C59.3132468,144.331159 53.3536826,144.39664 47.3953389,144.350929 L44.6063517,144.324928 C43.427627,144.313493 42.2482833,144.299149 41.0708997,144.264505 L40.3647254,144.241144 C38.9619085,144.19042 37.1048662,144.40177 35.8858521,143.570952 C34.8802183,142.886388 34.6562746,141.630968 35.2626127,140.618811 C35.4379648,140.326936 35.6788099,140.066975 35.9302183,139.813355 C36.4457113,135.406913 36.7351479,130.978913 37.0309225,126.553238 C38.0576831,111.065699 37.4576831,95.6580517 35.0893732,80.3267014 C28.7344437,82.2692219 22.4766972,84.7058795 16.3795141,87.3202826 C13.0816268,88.734216 9.80064085,90.2009871 6.5576831,91.7396172 C3.59782394,93.1450967 0.625288732,94.9014176 -2.53738732,95.8144509 C-2.82488732,96.0696564 -3.22686429,96.1911237 -3.58340619,96.0778457 L-3.62964085,96.0617307 L-3.63175352,96.0617307 C-3.95710563,96.1378168 -4.31837324,96.0913198 -4.67330282,95.877856 C-4.7451338,95.8343178 -4.81696479,95.7905918 -4.88879577,95.7456133 L-4.99654225,95.6770732 C-6.10992254,94.9753902 -7.22964085,94.1109675 -8.01766901,93.054216 C-8.97471127,93.9418873 -10.0035845,94.7557973 -11.0155563,95.5798521 C-12.1141479,96.4759773 -13.2085141,97.3763295 -14.2944296,98.2851358 C-14.7254155,98.6465448 -15.2007676,98.9910458 -15.5810493,99.4074059 L-15.6362919,99.4685252 C-15.6451338,99.4784665 -15.6535845,99.488353 -15.661331,99.4982865 C-14.0155563,100.563492 -12.5747113,102.180322 -11.2838662,103.585801 C-9.89773944,105.094208 -8.55952817,106.650721 -7.23226901,108.213276 L-5.94738067,109.728929 C3.13846479,120.462073 12.3172606,131.584305 24.0802183,139.473081 C25.9393732,140.720048 24.166838,143.757151 22.3203592,142.482709 C18.825993,140.075429 15.5196549,137.401848 12.3443028,134.588564 C6.77951408,129.6622 1.77247183,124.13539 -2.91555634,118.376095 C-5.28809155,115.461363 -7.59090845,112.475406 -9.84724648,109.469793 L-10.6130493,108.450324 C-11.6335563,107.090581 -12.6486549,105.72678 -13.6204859,104.331868 L-13.8238227,104.039516 C-14.6762617,102.808986 -15.5827707,101.426584 -16.1324577,100.009754 C-16.3437254,100.223218 -16.5824577,100.402654 -16.9310493,100.53813 C-17.5268239,100.770615 -18.2578099,100.282396 -18.4035845,99.7011828 C-18.7585141,98.2914763 -17.533162,97.4524157 -16.5359789,96.7040243 C-15.3254155,95.7996564 -14.0916127,94.9267796 -12.8556972,94.0581299 L-12.41423,93.7458839 C-10.8686914,92.6493943 -9.31503582,91.523948 -7.6310493,90.6575037 C-7.58034507,90.5898716 -7.51907746,90.5264665 -7.44935915,90.4715155 C-7.36907746,90.4081104 -7.29090845,90.3468188 -7.21062676,90.2855272 C-9.22189437,87.0222787 -11.4275282,83.8858403 -13.8887958,80.9224978 C-15.7395,78.693175 -17.7042887,76.5646661 -19.783162,74.5483843 L-20.7170505,73.6438178 C-22.1296641,72.2790411 -23.5984629,70.8947142 -25.1662606,69.7084626 L-25.6570606,70.2651424 C-26.3124296,71.0066607 -26.9742887,71.7424978 -27.674007,72.4391084 C-29.0514718,73.8086583 -30.4099225,75.2058951 -31.7620352,76.6027092 C-34.007508,78.9269586 -36.1769245,81.3226357 -38.3394671,83.721729 L-39.4204859,84.9212454 C-41.6725986,87.4215194 -44.0852746,89.8755076 -46.1324577,92.546764 L-46.2346951,92.6819758 C-47.1284508,93.8811442 -47.7646729,95.2082982 -47.3493592,96.7317112 C-46.9486322,98.2002548 -45.9958835,99.5025333 -45.1746779,100.770716 L-45.0930211,100.897425 C-41.7402042,106.122005 -38.1486549,111.213433 -34.3014718,116.085269 C-26.5965423,125.843312 -17.8078099,135.091789 -7.32048592,141.876134 C-5.86696479,142.816643 -7.22541549,145.154177 -8.6810493,144.203101 C-14.8056972,140.198013 -20.4317535,135.387891 -25.6078099,130.222279 C-30.3592183,125.481692 -34.6648521,120.261339 -38.7000634,114.903609 C-40.6669648,112.289206 -42.5514718,109.619852 -44.3578099,106.891531 C-46.1092183,104.243101 -48.1352746,101.519007 -49.404993,98.5979342 C-50.0698553,97.0614176 -50.3155563,95.3980908 -49.7704859,93.7791476 C-49.270614,92.2912415 -48.2820445,91.0557292 -47.2536232,89.8933876 L-47.1571056,89.784627 C-44.7930211,87.1279538 -42.3866831,84.5029832 -39.9592183,81.9033746 C-37.5233028,79.2953119 -34.9754155,76.7802434 -32.3747113,74.3391476 C-30.3317535,72.4179734 -28.2021761,70.7248462 -25.9247113,69.1568384 C-26.1296408,69.0110067 -26.3345704,68.8715155 -26.5437254,68.7362513 C-27.1796408,68.3220047 -27.3402042,67.436447 -26.7824577,66.8742552 C-25.2592183,65.3354137 -23.5035845,63.9975663 -21.8514718,62.5967366 C-20.2986549,61.2798129 -18.745838,59.9609871 -17.1930211,58.6421613 C-14.0324577,55.9622395 -10.8718944,53.2802043 -7.71133099,50.5981691 C-2.03457042,45.7814959 3.6105,40.9310067 9.26824648,36.0931984 C11.6274014,34.0765644 14.0085634,32.0848814 16.3836123,30.0875722 L20.6033013,26.5350771 L20.6033013,26.5350771 L22.6671365,24.80172 C23.7245659,23.9157179 24.8044988,23.0395611 26.0069789,22.3638834 C28.8363573,20.7739319 32.2379105,20.0860646 35.3552224,19.2436874 L35.5626127,19.1872885 C39.0590915,18.230083 42.5745845,17.3295194 46.1090915,16.5263883 C49.6478239,15.7232571 53.2013451,14.9919851 56.7696549,14.3302474 C59.9766972,13.7344509 63.2597958,13.2229832 66.5302183,13.1468971 C67.3414859,12.8383256 68.3597958,12.730537 69.1583873,13.0602434 C69.4879648,13.1976211 69.832331,13.3984039 70.138669,13.6520243 C71.7379648,13.0898325 73.3161338,12.8214176 74.8097958,11.8703413 C76.3013451,10.9215898 77.6217676,9.67441174 78.7330352,8.30063483 C81.0295141,5.45585988 82.2316268,2.09539022 83.038669,-1.41534951 Z M119.801345,94.9162121 C118.533739,94.8276564 117.392894,95.3515937 116.2605,95.9095585 C116.898528,96.1864274 117.536556,96.4611828 118.174585,96.7338247 L122.421063,98.5472102 L122.421063,98.5472102 C123.82388,99.1453315 125.309092,99.6652532 126.64219,100.402654 C126.737261,100.455492 126.813317,100.519108 126.870359,100.593081 C128.256275,99.7056211 129.722472,98.9130575 131.127401,98.0695585 C131.448528,97.8772297 131.771768,97.684901 132.095007,97.4925722 C130.421768,98.0526505 128.706275,98.3337464 126.889373,97.8074841 C124.466134,97.1079147 122.361908,95.0958599 119.801345,94.9162121 Z M123.274585,90.6638442 L123.046884,90.5089884 C121.817357,89.6653245 120.350268,88.5808006 118.856979,89.3386779 C118.153458,89.6958599 117.576697,90.2728462 116.883739,90.6575037 C116.186556,91.0463883 115.419655,91.3443922 114.64219,91.5240399 C113.351345,91.8220438 111.872472,91.8664274 110.484444,91.5787796 L110.50557,93.4557816 L110.50557,93.4557816 C111.55557,93.8890497 112.599232,94.3330967 113.642894,94.7809479 C114.320487,94.5492312 114.972623,94.2708252 115.658316,93.9654089 L116.121063,93.7580125 C117.441486,93.1639068 118.774585,92.766991 120.234444,92.9548814 C122.983035,93.3078364 125.059796,95.3515937 127.687965,96.0321417 C130.909796,96.8693002 133.816838,94.4639225 136.861204,93.8700282 C137.363176,93.7711162 137.880549,93.7132908 138.394842,93.7042556 L138.566134,93.7030614 L138.64219,93.6586779 C139.29712,93.2740204 140.277401,92.9064822 140.733739,92.2595389 C141.230218,91.557856 141.272472,90.3827483 141.435148,89.5584822 C141.452049,89.4760556 141.468951,89.3915155 141.483739,89.3090888 C141.196415,89.3090888 140.904866,89.323672 140.609092,89.3788344 C139.679514,89.5500282 138.804866,89.8797346 137.938669,90.2476955 C136.301345,90.9428266 134.699937,91.7353902 132.975993,92.1982474 C131.287965,92.6524391 129.52388,92.8682278 127.785148,92.6167209 C126.088669,92.3713432 124.679514,91.6064665 123.274585,90.6638442 Z M123.539093,84.0651883 L123.284584,83.901217 C122.613124,83.472632 121.843035,83.0286458 121.020359,83.1862708 C120.285148,83.3278755 119.653458,83.9133159 119.013317,84.2747249 C117.608387,85.0672885 116.032331,85.5005566 114.424585,85.6104587 C113.087261,85.7013393 111.699232,85.5385996 110.412613,85.1412611 L110.456979,89.2966192 L110.456979,89.2966192 C110.928106,89.4464665 111.416134,89.5542552 111.929514,89.5922982 C113.488669,89.7085409 115.009796,89.3344509 116.317542,88.4742552 L116.979117,88.0348693 C118.111197,87.2907549 119.173465,86.7001921 120.671768,86.9717659 C122.154866,87.242083 123.399232,88.1931593 124.611908,89.0216524 L124.810761,89.1552342 C126.203426,90.074976 127.615077,90.6687437 129.323176,90.6828658 C131.167542,90.6974489 132.990782,90.1840791 134.708387,89.5521417 C136.413317,88.9267562 138.033739,88.1762513 139.856979,87.9458795 C140.414725,87.8761339 141.095007,87.8549988 141.735148,87.964901 C141.819655,87.4935898 141.899937,87.0246035 141.975993,86.553081 C142.140782,85.5407131 142.282331,84.5304587 142.404866,83.5180908 C139.170359,82.6473276 136.183035,85.464627 133.17881,86.3332767 C131.435852,86.8362904 129.538669,86.8301613 127.795711,86.3438442 C126.182947,85.8936087 124.915172,84.959009 123.539093,84.0651883 Z M123.54712,77.0676798 C122.856275,76.9345292 122.17388,77.2536681 121.586556,77.5812611 C120.088669,78.4120791 118.795711,79.5679538 117.099232,80.0054489 C114.916838,80.5676407 112.529514,80.0836485 110.361908,79.1642748 C110.370359,80.4469597 110.380923,81.7300673 110.391486,83.0129636 C110.799232,83.1674607 111.217542,83.291946 111.644303,83.3912806 C113.161204,83.7378951 114.768951,83.691398 116.262613,83.2539029 C117.785852,82.8077425 118.954162,81.6032571 120.481627,81.2270536 C122.043547,80.8410896 123.51586,81.5919651 124.774594,82.4455229 L125.153452,82.7041054 C126.592284,83.6808681 127.987683,84.5296133 129.787965,84.6953119 C131.691486,84.8707327 133.345711,84.2747249 135.046415,83.4844861 L135.442305,83.3011595 C137.595509,82.3117487 140.390616,81.1854052 142.540077,82.3112806 C142.709092,80.7134724 142.831627,79.1158755 142.914021,77.5157425 C142.618246,77.4058403 142.311908,77.3255272 141.959092,77.3234137 C141.116134,77.319398 140.230923,77.5854881 139.445007,77.8623569 C137.727401,78.4689323 136.128106,79.3733002 134.427401,80.0223569 C132.81543,80.6394998 131.030218,80.9607523 129.3105,80.6840947 C127.717542,80.4281495 126.521768,79.5954294 125.421063,78.4541378 L125.261182,78.285438 C124.778472,77.7716665 124.262049,77.206537 123.54712,77.0676798 Z M124.808387,71.1350771 C124.011908,70.7147014 123.04219,70.323492 122.121063,70.4460751 C121.24219,70.5620159 120.656477,71.1585033 120.115268,71.796019 L119.822169,72.1450003 C118.854024,73.2909084 117.901067,74.2543617 116.408387,74.7259186 C114.861908,75.2120243 113.222472,75.021809 111.783739,74.3095585 C111.272472,74.0559382 110.79712,73.7410262 110.319655,73.4303413 L110.345007,76.8011671 L110.345007,76.8011671 C111.299937,77.2767053 112.271768,77.7059577 113.338669,77.9659186 C115.307683,78.4456838 116.980923,78.0906153 118.664725,77.0042748 L118.841506,76.8891555 C120.109761,76.0559842 121.410124,75.0639851 122.976697,74.9710849 C124.505477,74.8795663 125.652791,75.727409 126.659588,76.7651179 L126.777401,76.8880321 C128.04712,78.2277816 129.329514,78.8810654 131.218246,78.7267796 C133.049377,78.5770317 134.763085,77.7682604 136.4405,77.0715124 L136.592894,77.0085018 C138.126697,76.3784665 139.895007,75.7298325 141.57881,75.9707718 C141.982331,76.0278364 142.504162,76.1525331 142.968951,76.3702239 C143.036556,74.7933393 143.068246,73.214764 143.074585,71.6338638 C142.117542,70.8034685 140.628106,70.6658795 139.430218,71.0061534 C137.554162,71.5387562 136.018246,72.9125331 134.226697,73.6585996 C132.637965,74.320126 130.981627,74.4680712 129.361204,73.842263 C127.687965,73.1957425 126.375993,71.9635703 124.808387,71.1350771 Z M142.968951,64.4944509 C140.16543,64.591672 137.423176,66.415625 134.746415,67.1109675 C131.756255,67.8871732 129.315851,66.8290415 126.652154,65.6543429 L126.308387,65.5028031 C124.941486,64.9025683 123.473176,64.3634137 121.958387,64.60858 C120.481627,64.8497307 119.175993,65.667445 117.906275,66.407171 L117.662937,66.5473382 C115.34987,67.8646384 112.994625,68.7664063 110.294303,68.5415977 C110.309092,69.3893237 110.302754,70.2347249 110.304866,71.063218 C110.748528,71.3168384 111.175289,71.6042748 111.580923,71.8663491 L111.726503,71.9586522 C113.013882,72.7639373 114.340961,73.2932326 115.875993,72.7962904 C117.359092,72.3144117 118.056275,71.0230614 119.074585,69.9599695 C120.0105,68.9835311 121.231627,68.3898481 122.600641,68.4467014 C124.073176,68.5056681 125.46543,69.1547249 126.682331,69.9472885 C127.899232,70.7398521 129.075993,71.7646896 130.499937,72.1622395 C133.694303,73.0496994 136.430218,69.6704196 139.451345,69.1441573 C140.718951,68.9222395 142.117542,69.2033354 143.074585,69.9682121 C143.064021,68.146584 143.02388,66.3205174 142.968951,64.4944509 Z M118.837965,63.7293628 C118.442894,63.7441573 118.047824,63.7610654 117.652754,63.7779734 C116.190782,63.8413785 114.72881,63.9132376 113.266838,63.9956642 C112.254866,64.0504039 111.0105,64.3613002 110.017542,64.0527288 C109.99219,64.1541769 109.958387,64.2516094 109.914021,64.3465057 C110.064021,65.0946857 110.156979,65.8682278 110.214021,66.6502239 C111.130923,66.7495585 112.062613,66.7157425 112.966838,66.5276407 C115.136556,66.0774646 116.898528,64.7079147 118.837965,63.7293628 Z M142.926697,63.1016524 C137.588127,63.4694832 132.208538,63.3429388 126.861179,63.4585466 L126.219655,63.473629 C126.194303,63.473629 126.168951,63.4759538 126.143599,63.4759538 C126.756803,63.7137229 127.365254,63.9858496 127.971625,64.2630884 L128.577401,64.5409479 C130.009796,65.2003609 131.467542,65.7393041 133.071063,65.6230614 C134.788669,65.4983648 136.406979,64.7968932 138.012613,64.230263 C139.544303,63.6892063 141.308387,63.3256838 142.941486,63.5623961 C142.937261,63.4081104 142.933035,63.2559382 142.926697,63.1016524 Z" id="ðŸ–-Ink" fill="#000000"></path>
                    </g>
                    <g id="head/Pomp" transform="translate(78.591549, 38.043053)" fill-rule="evenodd">
                        <path d="M81.4256314,36.6104283 C80.6099272,31.6734676 83.2871103,30.6491358 81.4256314,25.956124 C77.2885892,17.2604103 66.0142934,17.6350838 57.7410539,16.9664909 C48.5133075,16.6126912 39.1735892,17.8313815 30.6666877,21.5313083 C28.6347159,22.4149642 26.6802793,23.4542245 24.8067582,24.6349625 C23.1867582,25.65609 23.4094342,27.5975606 24.4309131,28.6566404 C17.065068,39.0914125 21.2779554,53.097917 15.4007018,64.0817322 C14.3149976,66.0451308 12.8790117,67.8056955 11.9352793,69.848583 C10.5007723,72.953924 10.4088708,77.4034086 13.6619694,79.465694 C18.24373,81.925846 20.8004906,77.0548801 23.0517582,84.1159041 C34.2949976,108.736189 56.9004201,110.122713 78.3601385,97.2866148 C80.2167582,96.253469 82.1116173,95.0858035 83.5135892,93.4627104 C86.6959131,89.880014 86.3211244,84.8418471 86.3914765,80.3679044 C86.4307723,77.7460335 86.4373216,75.1237409 86.4117582,72.5014483 C86.3116173,61.879445 82.7925328,47.1449306 81.4256314,36.6104283 Z" id="ðŸŽ¨-Background" fill="#FFFFFF"></path>
                        <path d="M35.7182958,7.08186223 C48.675338,1.20209706 63.3713239,-1.02764853 77.5051268,0.434895499 C84.4813263,1.15564299 91.3656509,2.7019552 97.917253,5.21377913 L98.491534,5.43579941 C100.108829,6.05850617 101.85219,6.67661033 103.081183,7.94417143 C104.511676,9.41728297 104.912873,11.6449151 103.890338,13.4646411 C103.095972,14.8785746 101.667803,15.8928446 100.144563,16.4341127 C100.681183,16.8737213 101.190338,17.364054 101.667803,17.9114513 C102.472732,18.8287115 102.534,20.1367585 101.667803,21.0415491 C99.9987887,22.785189 97.8332958,24.0467389 95.5009014,24.6514121 C95.7628732,25.9174004 95.6213239,27.3186528 95.0593521,28.5804141 C93.4467676,32.2023029 88.9042363,32.6339605 85.4086174,32.418907 L85.3030141,32.4121949 L85.1086479,34.6377135 C85.0051268,35.8233886 84.2952676,36.7427624 83.0910423,36.9245237 C83.0487887,36.9308642 83.0063239,36.9350912 82.9642817,36.9391068 C84.8699155,43.8335648 86.0213239,50.9410638 87.084,58.0067155 C87.6392113,61.6949894 88.1362394,65.3918231 88.6120479,69.0910535 L88.7699155,70.3242106 C89.2769577,74.3123906 89.9107606,78.3407272 90.1304789,82.3584963 C90.3269577,86.0042888 89.6318873,89.4852282 87.3861127,92.4272243 C85.3706197,95.0648759 82.6220282,97.0410012 79.6663944,98.5077722 C72.9882254,101.823647 65.9593521,104.29243 58.5734366,105.437948 L58.0808946,105.513769 C55.2298827,105.949103 52.2924123,106.316013 49.4720282,105.526715 C46.9940704,104.833486 44.3952676,103.045463 44.9551268,100.173213 C45.1431549,99.2031147 46.499493,99.1608446 46.9642817,99.9111382 L47.0715697,100.08306 C47.6289121,100.967712 48.2397106,101.789901 49.2123803,102.246348 C50.3509014,102.783389 51.6713239,102.933236 52.9156901,102.948242 C56.3910423,102.988398 60.0100563,102.121862 63.3565352,101.253213 C69.605831,99.6302536 76.0241408,96.9839366 81.1431549,92.9746215 C83.3213239,91.2711382 85.0706197,89.1407272 85.6875211,86.3995139 C86.4501972,83.0200227 85.7487887,79.3256196 85.4023099,75.9292204 C84.6892817,68.9209767 83.8407039,61.9257361 82.9453568,54.938274 L82.7656901,53.5408838 C82.0116761,47.6991616 81.2194225,41.855326 80.8431549,35.9797879 C80.6868169,35.7663241 80.5811831,35.5232712 80.5389296,35.2569699 L80.4799859,34.8744258 L80.4799859,34.8744258 C80.4290704,34.5468329 80.4206197,34.2467155 80.4565352,33.9698466 C80.4586479,32.9088681 80.4882254,31.8542301 80.549493,30.7930403 C80.5598451,30.6030364 80.568507,30.4128211 80.5748451,30.2247194 C79.4720282,30.4677722 78.3607606,30.664328 77.2452676,30.8312947 C69.4030141,32.0127429 61.4382254,32.3086333 53.5325915,31.7210795 C49.5882254,31.4270912 45.6736479,30.9221753 41.7713239,30.290238 C39.7851972,29.9689855 37.805831,29.613917 35.8325915,29.2165785 C34.4065352,28.9312556 33.0100563,28.5444845 31.6072394,28.180962 C30.1600563,30.2881245 29.3783662,32.8813926 29.5304789,35.4281636 C29.7016056,38.3342301 31.6368169,40.9697683 31.0938592,43.9392399 C30.5842817,46.7182849 28.2042887,47.5799601 25.8545681,48.2682331 L24.8552002,48.557078 C24.086368,48.7816425 23.5280965,48.9982914 23.3889296,49.9225667 C23.1501972,51.5098074 23.4438592,53.2957174 23.5051268,54.8914121 C23.5790704,56.7787703 23.6760423,58.6661284 23.7206197,60.5534865 C23.7438592,61.5299249 23.7816761,62.5105902 23.7797746,63.4870286 C23.777662,64.1802575 23.6741408,64.6536822 23.405831,65.1015335 C23.6128732,65.3617057 23.7985775,65.6428016 23.9635775,65.9408055 C24.0163944,66.0380266 23.8854085,66.1413769 23.8074507,66.0612751 C23.5980845,65.8435843 23.3760423,65.6470286 23.1417465,65.4713965 C23.0234366,65.6174395 22.8861127,65.7653847 22.725338,65.9238975 L22.7128732,65.9069894 L22.7128732,65.9069894 C22.2100563,66.4078896 21.4114648,66.4565002 20.7880141,65.9238975 L20.6244224,65.782104 C20.1681044,65.3819496 19.8545682,65.0486886 19.727662,64.3873808 C19.7213239,64.3535648 19.7147746,64.3197487 19.7107606,64.2859327 C18.5509014,64.2457761 17.3720282,64.5203202 16.3283662,65.0975178 C14.6741408,66.0126646 13.5100563,67.3166959 12.8215352,68.9271851 C13.0959718,69.2484376 13.4170986,69.535874 13.7910423,69.7768133 C13.8438592,69.8127429 13.7973803,69.8909425 13.740338,69.8634669 C13.3579437,69.6838192 13.0156901,69.4619014 12.7093521,69.2019405 C12.462169,69.8359914 12.2889296,70.5165393 12.1832958,71.2372438 C11.8114648,73.7819014 12.4748451,76.8908642 14.7734366,78.3407272 C15.768507,78.9684376 16.9051268,79.3087115 18.084,79.3129386 C18.6584366,79.3148407 19.1551268,79.2178309 19.7128732,79.0804532 C20.0910423,78.9874591 20.4670986,78.8521949 20.862169,78.8521949 C21.2001972,78.8521949 21.5128732,78.936735 21.8023099,79.1058153 L21.7220362,79.1128471 C21.5269586,79.1311641 21.5644829,79.13942 21.8361127,79.13942 C22.6811831,79.1755609 23.1647746,80.0336431 22.7762535,80.7797096 L22.7252758,80.8949701 C22.7145418,80.9182691 22.7054487,80.9374977 22.6982958,80.9528055 L22.6675961,81.1507037 C22.6645352,81.1695241 22.6613239,81.1888838 22.6579437,81.2087507 L22.6462066,81.248829 C22.6440939,81.2552477 22.6417465,81.2615883 22.6389296,81.2679288 L23.906332,83.2014281 C25.4602575,85.566729 27.048839,87.9228966 28.8565352,90.0833495 C30.1241408,91.5987311 31.4678028,93.0845237 32.8875211,94.4604141 C34.1635775,95.6968133 35.6931549,96.2928211 37.1382254,97.2650325 C37.9095634,97.7807272 38.1354085,98.8607272 37.4342113,99.5560697 C35.3762535,101.599827 32.4628732,99.9766568 30.7748451,98.3154434 C29.177662,96.7408838 27.7980845,94.8471851 26.6086479,92.951373 C24.4980845,89.5803358 22.818507,85.9958348 22.0832958,82.1048759 C21.7769577,82.3859718 21.3861127,82.5613926 20.9910423,82.6987703 C20.1987887,82.9735256 19.3262535,83.0876548 18.4896338,83.1172438 C16.8861127,83.1700814 15.2804789,82.7811969 13.8375211,82.0921949 C7.96639437,79.2918035 7.10442254,70.9054239 10.6938592,65.959827 C10.2098643,64.5556925 9.93954214,63.0321626 9.64585774,61.7329805 L9.51224669,61.1522224 C8.02816393,54.6652869 7.0313662,47.8355291 9.66287324,41.4791225 C10.0009014,40.6590834 10.3811831,39.8601793 10.8311831,39.0950912 C11.1924507,38.4800618 11.8135775,37.8248759 11.9847042,37.1253065 C12.3649859,35.5887898 10.0178028,33.9740736 9.33329577,32.7545824 C8.5283662,31.3237409 8.41428169,29.6350521 9.51076056,28.3265824 C9.65019718,28.1619405 9.80209859,28.0095569 9.96709859,27.8766176 C8.92766197,25.991373 8.87907042,23.6200227 10.2480845,21.7601401 C11.1480845,20.5343084 12.5213239,19.6762262 14.0213239,19.4162654 C14.9382254,19.2577526 16.0410423,19.3169307 17.0487887,19.6001401 C22.5668873,14.4748955 28.8628732,10.1929386 35.7182958,7.08186223 Z M14.5282606,71.2119029 C16.001007,69.9120986 17.6277676,69.2315507 19.6348099,69.4027444 C21.6524155,69.5758403 24.081993,70.4108853 25.266993,72.1418442 C26.2031197,73.5092806 24.2953732,75.5149949 22.9221338,74.4878325 C21.6714296,73.5515507 20.8367113,72.4947992 19.2841056,71.9917855 C17.8895282,71.5416094 16.1634718,71.2520595 14.7036127,71.5099068 C14.5430493,71.5373824 14.3826972,71.3387131 14.5282606,71.2119029 Z" id="ðŸ–-Ink" fill="#000000"></path>
                    </g>
                    <g id="face/Monster" transform="translate(112.183099, 77.354207)" fill="#000000" fill-rule="evenodd">
                        <path d="M21.3723169,44.5256102 C22.9045739,44.2297198 24.8108537,44.8742816 26.3389908,45.1567196 L26.4528803,45.1772031 C28.3059085,45.5009918 30.1549225,45.8924125 32.0284437,46.0834732 C33.8170352,46.2662912 35.6436549,46.2990505 37.4324577,46.0934067 C38.2914718,45.9944947 39.1430915,45.8262599 39.9775986,45.6005378 C40.3346408,45.5039507 40.6887254,45.396162 41.0385845,45.2765378 L41.0781433,45.2613897 C41.3351747,45.1552347 42.030229,44.7551937 42.0220352,44.9781112 C42.2174577,44.7526004 42.4866127,44.5926082 42.7821761,44.5148313 C43.1992183,44.4051405 43.7345704,44.5080681 44.0835845,44.8031131 C44.5375986,44.4433949 45.2187254,44.7014536 45.523162,45.1321855 C46.0452706,45.8708971 45.8753742,46.7366555 45.8079129,47.593644 L45.8022465,47.6692344 C45.7449401,48.4770153 45.6572245,49.2792944 45.5490068,50.0810274 L45.5014014,50.4246082 C45.3330211,51.6104947 45.2867535,53.5663303 43.8503451,53.9550035 C42.7142535,54.2626943 41.6746995,53.0932814 40.9423394,52.1653313 L40.5414718,51.6512853 C40.0667535,51.0487256 39.6357676,50.4284125 39.2884437,49.7434262 C39.1302042,49.4316845 38.9772465,49.1123342 38.8447817,48.7887569 C38.8280915,48.7479663 38.815838,48.7114027 38.803162,48.6746278 C36.6964014,48.9582599 34.5397817,48.9176806 32.4275282,48.6391209 C31.0902042,48.4626434 29.7727394,48.207755 28.4751338,47.8653675 L27.8897133,48.9239762 C27.2046278,50.1584947 26.5097582,51.3892344 25.7793592,52.5958098 L25.7226839,52.6877235 C25.0389698,53.7759201 23.8941199,54.8657901 22.5406268,54.0507452 C21.3294296,53.321164 21.2778803,51.6616415 21.1502746,50.4233401 C21.0650546,49.5961415 20.9960097,48.7632793 20.962813,47.9315499 L20.950838,47.5751836 C20.9290775,46.7686708 20.7978803,45.8338685 21.1078099,45.0795593 C21.1528099,44.9696571 21.3106268,44.885117 21.4056972,45.0007256 C22.0532324,45.7882168 22.2490775,47.0087648 22.5287958,47.9752697 C22.8402042,49.05062 23.2912606,50.2250935 23.4530915,51.3406004 L23.4983028,51.2619781 L23.4983028,51.2619781 C23.6577042,50.9590074 23.8203275,50.6576748 23.983743,50.3567648 L24.4739366,49.4540877 C24.9135845,48.6391209 25.3612606,47.8292266 25.8129507,47.0212344 C25.2971761,46.8273558 24.7861901,46.6191053 24.2772387,46.4073793 L23.1221976,45.9243235 C22.4624167,45.6455319 21.7896761,45.3308548 21.2937254,44.8236141 C21.205838,44.7337902 21.2364718,44.5516063 21.3723169,44.5256102 Z M43.2845704,47.5031131 C42.1464718,47.9659703 40.9692887,48.2999037 39.7707676,48.5213988 C39.8480915,48.6006552 39.9252042,48.6799115 39.9970352,48.7631836 C40.2790775,49.0897198 40.5782852,49.4033401 40.8792535,49.7134624 L41.0599225,49.8991914 C41.5209085,50.3724047 42.2134437,51.1516532 42.9201338,51.6045769 L42.9583353,51.4001161 C42.9645891,51.3648793 42.9694912,51.3342863 42.9721056,51.3105886 L43.0473795,50.6382599 C43.0595704,50.5261738 43.0714014,50.4140407 43.0825986,50.3018137 C43.1434437,49.6954497 43.1918239,49.0878176 43.2425282,48.4806082 C43.2691479,48.1606239 43.2754859,47.8319742 43.2845704,47.5031131 Z M29.8161972,8.43131272 C32.5267606,7.27311311 35.7437324,7.81992935 38.0784507,9.56943405 C40.4674648,11.3597824 41.5121831,14.2704986 41.6503521,17.1744517 C43.5397183,15.5605808 46.2606338,16.7821855 47.8519014,18.2943969 C49.6882394,20.0395162 50.6169718,22.6731523 50.1889437,25.1725808 C49.7623944,27.6635554 47.960493,29.8611757 45.5226761,30.6019585 C44.3562676,30.956393 43.056338,30.9644243 41.8829577,30.6347178 C41.484507,30.5224908 40.9962676,30.3487609 40.5452113,30.1067648 C40.5709859,30.2103264 40.5971831,30.3140994 40.6216901,30.4174497 C41.2071127,32.8963773 41.5390141,35.6828196 40.6605634,38.1342716 C39.248662,42.0736297 34.2338028,44.2788587 31.1028169,40.7822795 C29.8734507,39.4095593 28.9178873,37.2597041 28.9922535,35.3881973 C29.031338,34.4047843 29.5882394,33.2670857 30.7379577,33.3336611 C31.6294752,33.385087 32.0522237,34.1314983 31.8240294,34.9213634 L31.8101408,34.9669761 C31.3267606,36.477074 32.1519718,38.6590544 33.3475352,39.6889644 C35.1809155,41.2683851 37.6969014,39.8939742 38.6993662,38.0419115 C39.8676761,35.883391 39.725493,33.1159703 39.3519718,30.7676571 C38.9852113,28.4618254 38.1673944,26.3527609 37.2992958,24.2191796 C37.2071831,24.2358763 37.1138028,24.2513049 37.0183099,24.2641973 C35.291831,24.4985847 31.7790845,24.5869292 29.8715493,23.3357354 C30.0764789,25.2668431 29.6744366,27.2548039 28.5777465,28.8900211 C27.3557746,30.7122834 25.5147887,31.6766748 23.3721127,31.9721425 C21.2911268,32.2595789 18.8788732,32.3177002 16.8242958,31.8244086 C12.4491549,30.7739977 10.9064789,25.3704047 12.2296479,21.4697237 C13.0123944,19.1624125 15.1964789,17.087164 17.6241549,16.5630153 C18.8748592,15.7400172 20.5542254,15.4963303 21.9976056,15.6085573 C24.1533803,15.7765808 26.2766197,16.7084243 27.7204225,18.3449096 C28.2720423,18.9700838 28.7256338,19.6778959 29.0752817,20.4353753 C29.1927465,20.3428039 29.3296479,20.2732697 29.4842958,20.2369174 C29.7257746,20.1802755 29.9370423,20.1675945 30.1732394,20.2508665 C30.2909155,20.2925025 30.4605634,20.4396023 30.5626056,20.5351327 L30.7957405,20.8090379 C31.0815544,21.142265 31.3533275,21.4217295 31.8621127,21.6288705 C33.2805634,22.2064908 35.2043662,22.3318215 36.711338,22.2136767 C40.5564085,21.9127139 40.0721831,16.8176924 39.1250704,14.200119 C38.0032394,11.0991875 34.7877465,9.17019335 31.5164789,9.72097221 C30.1109155,9.95747319 28.77,10.7058646 27.7411268,11.6837824 C26.5926761,12.775618 26.1008451,14.0944438 25.4119014,15.4764634 C25.3711268,15.558256 25.2304225,15.5405025 25.2128873,15.450256 C24.6466901,12.5361581 27.3314789,9.49313659 29.8161972,8.43131272 Z M9.33678169,31.9255397 C9.2199507,31.7883734 9.37333099,31.5472227 9.54065493,31.6609292 C10.7662183,32.4938607 12.1291056,33.0949409 13.6107254,33.2574693 C14.3066408,33.3335554 15.0080493,33.3388391 15.7012183,33.2321072 C16.2917113,33.1408039 16.8238944,32.9607335 17.413331,33.1234732 C17.7270634,33.2101268 17.7841056,33.5742834 17.5924859,33.8025417 C16.701993,34.8628861 14.509669,34.5796767 13.3143169,34.2954106 C11.7684718,33.9280838 10.3671338,33.1365769 9.33678169,31.9255397 Z M50.5786268,29.9895499 C51.1803169,29.6165166 51.8965141,30.3551859 51.5407394,30.9518278 C50.6272183,32.482638 47.9794014,32.6073346 46.4432746,32.2408532 C46.3230634,32.2125323 46.3505282,32.0237965 46.4722183,32.0271781 C47.3551056,32.0489472 48.1530634,31.8792329 48.9136268,31.4184892 C49.5634859,31.0247436 49.951162,30.3784344 50.5786268,29.9895499 Z M21.2203014,17.7525122 L21.0997183,17.7535515 C19.6952113,17.7761659 18.4090141,18.3119389 17.0556338,18.5951483 C16.9434507,18.6188196 16.8308451,18.6067726 16.7292254,18.569575 C15.0809155,19.6696532 13.9447183,21.399344 13.790493,23.6753753 C13.6835915,25.2518372 14.0683099,26.969481 15.0040141,28.2631562 C16.0690383,29.735599 17.7846971,29.962811 19.4742802,30.0067251 L19.6459859,30.0106004 C22.8399296,30.0729487 26.3537324,29.8842129 27.4922535,26.3119703 C28.3347887,23.6681894 27.435,20.4586239 25.0880282,18.8749761 C23.948173,18.1058784 22.5868205,17.7512289 21.2203014,17.7525122 Z M46.9525352,19.6485182 L46.8588153,19.5390983 C45.6061029,18.1012424 43.6198592,16.7916415 41.6615493,17.5157824 L41.6672613,17.7579429 C41.6679577,17.7983342 41.6683803,17.8387256 41.6683099,17.8790935 C41.6623944,20.6558137 40.586831,23.2471796 37.9432394,24.061935 C38.6524648,25.0740916 39.2222535,26.197207 39.6785915,27.3628039 C39.8395775,27.2575515 40.0354225,27.1907648 40.2627465,27.1677276 C41.1933803,27.0734654 41.7266197,27.9478215 42.533662,28.273935 C43.2891549,28.5795476 44.1460563,28.6583812 44.9435915,28.5005025 C46.6882394,28.1553675 47.9123239,26.6503421 48.3411972,24.9802521 C48.8260563,23.0922599 48.185493,21.1129644 46.9525352,19.6485182 Z M20.3946127,21.9854395 C20.976413,21.0022925 22.411623,21.1445815 22.9869484,22.0113412 L23.0145423,22.0545511 L23.020669,22.0465198 C23.9789789,23.2888368 23.5158803,25.2510129 22.1244718,25.9495256 C21.0083451,26.5093926 19.588838,26.3625041 18.8468662,25.2725706 C18.6805986,25.0282497 18.5739085,24.7408133 18.5348239,24.449784 C18.5082042,24.2517487 18.5234155,24.0539249 18.5677817,23.8571577 L18.5565581,23.9032057 C18.5785563,23.8038975 18.6134155,23.648238 18.6225,23.611146 C18.7205282,23.2104258 18.955669,22.7805393 19.2499648,22.4903554 C19.5531338,22.1915061 19.9741901,22.0097448 20.3946127,21.9854395 Z M44.3033662,20.9641949 C44.8186479,20.9641949 45.275831,21.1797722 45.6480845,21.5215256 C46.1775211,22.0078427 46.2512535,22.7078348 46.1369577,23.3721088 C46.1018873,23.5747937 46.0537183,23.7707155 46.0032254,23.9702301 L45.9597512,24.1506763 C45.9521455,24.1806411 45.944,24.2103945 45.9347746,24.2397018 C45.9030845,24.3633417 45.8525915,24.4768368 45.7925915,24.5854708 C45.5722394,25.406144 44.6800563,25.8136274 43.893507,25.6346137 C43.5233662,25.5502849 43.1542817,25.2429816 42.965831,24.9208838 C42.9037183,24.8147859 42.8601972,24.7091108 42.8293521,24.6030129 L42.6761831,24.2397018 L42.6761831,24.2397018 C42.6474507,24.1526254 42.629493,24.0592086 42.6064648,23.9702301 C42.5551268,23.7709268 42.5056901,23.5745824 42.4699859,23.3721088 C42.348507,22.6856431 42.4452676,22.0351068 42.9588592,21.5215256 C43.3036479,21.1763906 43.8159718,20.9641949 44.3033662,20.9641949 Z M32.9535211,13.8451773 C33.8478169,13.7251303 34.7585915,14.1419131 35.2210563,14.9321519 C35.6228873,15.6190403 35.6211972,16.5432751 35.2210563,17.2301636 L35.1872535,17.2882849 L35.1872535,17.2882849 C34.4501408,18.5534278 32.7310563,18.7157448 31.6969014,17.7382497 L31.646831,17.6909072 L31.646831,17.6909072 C30.9817606,17.0625628 30.8319718,16.0203945 31.176338,15.2041597 C31.4911268,14.4576705 32.1511268,13.9531773 32.9535211,13.8451773 Z" id="ðŸ–-Ink"></path>
                    </g>
                    <g id="facial-hair/*-None" transform="translate(104.577451, 109.479380)"></g>
                    <g id="accessories/*-None" transform="translate(88.521127, 88.978474)"></g>
                </g>
            </g>
        </g>
    </g>
</svg>