<?xml version="1.0" encoding="UTF-8"?>
<svg width="240px" height="324px" viewBox="0 0 240 324" version="1.1" xmlns="http://www.w3.org/2000/svg" xmlns:xlink="http://www.w3.org/1999/xlink">
    <!-- Generator: Sketch 62 (91390) - https://sketch.com -->
    <title>peep-3</title>
    <desc>Created with Sketch.</desc>
    <g id="Introduction" stroke="none" stroke-width="1" fill="none" fill-rule="evenodd">
        <g id="variations" transform="translate(-126.000000, -758.000000)">
            <g id="images" transform="translate(126.000000, 110.000000)">
                <g id="a-person/bust" transform="translate(0.000000, 648.000000)">
                    <g id="body/Striped-Pocket-Tee" transform="translate(31.056338, 135.052838)" fill-rule="evenodd">
                        <path d="M86.4419577,-6.19333437 C97.7777324,-7.00539689 113.319423,-4.7575689 116.598085,8.17278598 C117.614915,12.8779655 119.618366,14.9431482 122.984282,18.0203932 C144.349352,45.3767626 69.8063239,49.9748523 65.9743521,23.2989054 C57.9013944,26.2402776 49.113507,26.863134 41.0356901,29.8360404 C36.6546338,31.4550861 32.6819577,34.0097921 28.8751268,36.6809 C13.3513944,47.7109397 -1.95261972,59.0558996 -17.421,70.1650927 C-11.4351549,72.9225497 -0.0545915493,83.450791 -4.69191549,90.5254915 C-5.77217157,91.9035883 -7.37569154,92.8536197 -8.79414698,93.860923 L-9.5421324,94.3951864 C-11.1512707,95.5487527 -13.8600581,97.5149541 -15.3579718,98.5834713 L-15.634221,98.7846702 C-15.7425352,98.8630865 -15.8647283,98.9511522 -15.9750845,99.0300316 C-5.17297183,114.829166 7.46907042,129.406926 21.492169,142.422361 C22.6862535,143.532835 22.197169,146.015795 20.469,146.304896 L18.410146,146.607166 C11.7622757,147.57577 4.98808891,148.447525 -1.71114085,147.921613 C-8.23571831,147.211561 -12.1674085,141.43379 -16.6276901,137.248399 C-25.5345211,128.140896 -33.8257183,118.425987 -41.3776901,108.163142 L-41.5349378,107.946622 C-43.8853486,104.733454 -47.0050744,101.449595 -47.2333944,97.3005099 C-47.6498028,96.053104 -46.5539577,94.2655929 -45.501,93.4152235 L-45.1415247,92.8962069 C-39.4940448,84.7708528 -33.1024525,76.9349126 -25.094662,71.0505942 C-25.1244507,70.1737699 -24.7192394,69.2520779 -23.9168451,68.6711262 L9.5496338,44.4427954 L9.5496338,44.4427954 C18.1845634,38.4980406 26.2104085,31.511594 35.5699859,26.7111765 C45.1404085,22.1014465 55.9406197,21.9202827 65.7482958,18.0730916 C65.9561831,15.3001848 71.7835775,14.5924608 71.5995634,15.0206085 C77.7480845,11.3080203 80.9132958,6.89067111 81.8895634,2.8307818 C82.8656197,-1.22910752 81.6525211,-4.93153694 86.4419577,-6.19333437 Z M169.201965,80.7921275 C179.550275,65.215215 189.414148,82.4496917 193.722317,92.8369808 C198.812387,107.05199 188.271401,124.537895 181.461824,136.792484 C178.953655,140.195654 175.654923,147.373847 171.233937,147.894269 C160.095908,147.848767 148.942458,147.064217 137.797669,146.830567 C130.601472,145.044537 140.697951,134.226138 147.672317,138.177667 C149.785415,138.968566 150.84112,141.368563 152.901613,142.138509 C153.652348,142.29884 153.704124,141.963849 154.009506,141.215957 L154.05281,141.11142 C154.597246,139.817242 155.125204,138.51608 155.661401,137.218515 C160.198796,126.040327 164.995627,114.960552 169.765204,103.885645 C170.784148,101.481203 169.355134,99.5000416 167.497458,98.0689322 C166.074993,96.8977167 159.960275,94.0382492 165.721542,95.2968721 C163.503021,90.1455555 166.168796,84.9169903 169.201965,80.7921275 Z M143.509923,59.4689573 C144.506261,59.344513 145.785908,60.3489563 145.939289,61.3220768 C147.210197,69.3883863 145.794182,77.3632227 144.096639,85.2537341 L143.784164,86.6985363 C143.158007,89.5764758 142.458353,92.5109262 140.896754,95.0333592 C139.303162,97.6077476 136.892387,99.5478511 134.124782,100.727321 C125.246261,104.266787 114.20457,100.766474 107.673232,94.1491274 C103.494782,88.4236316 107.168092,81.2310476 107.869289,74.9557113 C107.206437,73.2648301 106.962174,71.3090076 106.578875,69.5655732 L106.532176,69.3574111 L105.042951,62.8537152 C104.714641,61.4192195 105.75957,59.4562589 107.476754,59.6532957 C119.449711,61.0270507 131.551542,60.9652518 143.509923,59.4689573 Z" id="ðŸŽ¨-Background" fill="#FFFFFF"></path>
                        <path d="M185.323901,78.7541495 C185.287986,78.5937346 185.480239,78.4709401 185.604887,78.5916211 C187.711225,80.6224861 189.198549,83.2178677 190.831648,85.6230341 C192.386577,87.9140712 194.078831,90.1163413 195.23869,92.6443022 C196.316155,94.9943061 197.011225,97.3783374 197.218268,99.961038 C197.42531,102.524928 197.157,105.094948 196.704887,107.620373 C195.815451,112.595559 193.914042,117.306557 191.826718,121.882502 C189.79733,126.330816 187.504249,130.652507 185.082701,134.895676 L184.214849,136.410547 C183.156233,138.254929 182.085982,140.095841 180.940099,141.88258 C179.514042,144.105985 178.212634,146.401249 176.332352,148.256905 C174.997141,149.577844 172.480944,148.256905 173.089394,146.369335 C173.353479,145.547394 173.560521,144.773641 173.97038,144.010666 C174.280944,143.429453 174.631648,142.865148 174.961225,142.2926 C175.62038,141.147081 176.273197,139.997335 176.932352,138.851817 C178.316155,136.444537 179.773901,134.081641 181.145028,131.665907 C183.523901,127.476944 185.769676,123.20957 187.755592,118.817923 L187.989319,118.299545 C189.816614,114.232749 191.54819,110.020307 192.350662,105.620999 C193.195732,100.986298 192.439394,96.6176877 190.79362,92.2615468 C189.942211,90.0085526 188.985169,87.8062826 187.990099,85.6124665 L187.798843,85.1934656 C186.837848,83.0995033 185.81906,81.0169186 185.323901,78.7541495 Z M83.038669,-1.41534951 C83.0576831,-1.49756477 83.1971197,-1.50390528 83.2097958,-1.41534951 C83.8013451,2.52041566 82.4851479,6.68380509 80.3407817,9.95762114 C79.1703592,11.7456446 77.7274014,13.3603609 76.0266972,14.6580517 L75.8942697,14.7580544 C74.156893,16.0573968 71.8094261,17.3121411 69.6527535,16.469535 C69.5851479,16.4437503 69.5217676,16.4143726 69.4626127,16.3807679 C69.7055704,16.7567601 69.9295141,17.1519851 70.1576831,17.5472102 C70.8358521,18.7244313 71.4443028,19.9439225 72.1055704,21.1317112 C73.288669,23.2557816 74.6978239,25.1558207 76.4788099,26.8191476 C83.6005352,33.468902 93.6004415,35.0494181 102.991602,34.9737255 L103.654991,34.9674447 C107.780132,34.9384077 113.17519,35.1490819 116.359796,32.1622943 C118.071063,30.5581456 119.013317,28.2774646 119.864725,26.1364861 C120.701345,24.0377777 121.27388,21.8714372 121.968951,19.7367992 C120.517542,18.7415507 119.186556,17.5262865 118.140782,16.1058012 C117.050641,14.6263491 116.226697,12.9609088 115.751345,11.1834528 L115.681228,10.9178892 C115.313628,9.50049835 114.944049,7.62549746 115.535852,6.28646654 C115.603458,6.13218082 115.856979,6.14274834 115.92881,6.28646654 C116.247824,6.92685793 116.309092,7.64967593 116.50557,8.33445088 C116.733739,9.13124149 116.991486,9.92380509 117.331627,10.6783256 C117.988669,12.1408697 118.856979,13.5315546 119.898528,14.7489323 C120.758387,15.7568618 121.690077,16.6827875 122.754866,17.4605566 C123.382331,16.3763295 124.837965,16.2304978 126.056979,16.5876798 C127.691002,17.0651994 129.302743,17.6783217 130.878275,18.3260412 L131.192894,18.4560164 C132.749937,19.1027483 134.509796,19.6966427 135.967542,20.5779734 C136.852754,21.000674 137.702049,21.4254881 138.500641,21.8016916 C142.479796,23.671719 146.400059,25.6558943 150.302654,27.6786099 L151.138669,28.1126114 C152.77388,28.964353 154.394303,29.8245487 155.816134,31.0123374 C157.263317,32.2212611 158.387261,33.8740204 159.443599,35.423218 C161.858387,38.9654489 164.133739,42.609128 166.521063,46.1703804 C171.34219,53.3562904 176.163317,60.5422004 181.011908,67.7112023 C182.184444,69.4465996 183.506979,71.1393041 184.559092,72.9484626 C185.566838,74.6775194 185.539373,76.4526505 185.342894,78.3822787 L185.306086,78.7366923 C184.929368,82.2762418 184.281649,85.6757046 182.296415,88.7109675 C179.171768,93.4832571 174.249232,96.4548423 169.041486,98.5005018 C169.677401,98.9741378 170.275289,99.4856055 171.033739,99.8112963 C172.199937,100.309872 173.444303,100.56793 174.70557,100.671281 C176.051345,100.779281 177.568246,100.443022 178.658387,101.358169 C179.095711,101.723594 179.108387,102.603022 178.658387,102.968658 C177.610334,103.82442 176.255655,103.579145 174.978578,103.43576 L174.902049,103.427288 C173.716838,103.296251 172.548528,103.076447 171.435148,102.641065 C171.1605,102.533065 170.887965,102.412807 170.62388,102.279656 C170.632331,102.302905 170.636556,102.330592 170.632331,102.359969 C170.442098,103.816081 170.029839,105.192866 169.594449,106.584451 L169.318246,107.466193 C168.756275,109.266897 168.190077,111.063375 167.606979,112.859852 C166.497336,116.279825 165.288686,119.667382 164.075742,123.050784 L163.028866,125.970269 C161.953441,128.965398 160.864505,131.956368 159.661204,134.901574 C158.917542,136.718975 158.169655,138.536799 157.42388,140.352298 C156.695007,142.125527 156.088669,144.040361 155.184444,145.72905 C154.440782,147.119735 152.412613,146.124063 152.737965,144.695547 C153.164725,142.821081 153.969655,140.960987 154.584444,139.137034 C155.209796,137.285605 155.822472,135.432063 156.458387,133.58465 C157.564303,130.375691 158.789232,127.209434 160.020404,124.04612 L161.240589,120.910305 C162.437573,117.837966 163.648637,114.768361 164.942894,111.73568 L165.084337,111.403289 C166.429154,108.231105 167.817351,104.664089 170.2605,102.205895 C170.29219,102.172079 170.336556,102.15496 170.380923,102.150733 C169.780923,101.825253 169.218951,101.430028 168.724585,100.962944 L168.700491,100.938602 C168.505088,100.731643 167.697824,99.7117552 167.437965,99.1009479 C167.099937,99.2214176 166.761908,99.3376603 166.42388,99.4515781 C165.834444,99.6504587 165.346415,99.5067405 165.002049,99.1918286 L164.34609,99.597854 C163.644817,100.026231 162.890782,100.432775 162.116134,100.45359 C161.140077,100.478952 160.373176,99.9400086 159.851345,99.1453315 C159.382331,98.4351945 159.103458,97.667993 158.509796,97.0318286 C157.926134,96.4065135 157.250453,95.8787765 156.560049,95.3749001 L155.74628,94.7825895 C154.25391,93.6927732 152.807138,92.5915634 151.60557,91.1520634 C151.001345,90.4250184 150.19219,89.5627092 149.824585,88.6896211 C149.752754,88.5209636 149.708387,88.3624509 149.699937,88.2079538 C149.619655,88.7532376 149.537261,89.3006348 149.454866,89.8459186 C148.301345,97.5200477 147.369655,105.247014 147.071768,113.007797 C146.925993,116.83514 146.8605,120.667132 147.031627,124.496588 C147.116134,126.409519 147.25557,128.320126 147.447824,130.226506 C147.542894,131.181809 147.64219,132.134999 147.758387,133.086075 L147.78521,133.306366 C147.81881,133.597813 147.840782,133.879738 147.81543,134.147054 C148.745007,134.605472 149.279514,135.763883 149.651345,136.668463 C149.934444,137.357465 149.714725,138.027445 149.258387,138.511437 C149.803458,139.00811 150.289373,139.591437 150.69712,140.259093 C150.779514,140.394568 150.602049,140.500243 150.496415,140.415703 C149.826697,139.883101 149.106275,139.445605 148.354162,139.109559 C147.959092,139.259617 147.528106,139.299774 147.130923,139.189872 C146.699937,139.071515 146.328106,138.784079 146.059796,138.418654 C143.92388,138.067602 141.703458,138.496643 139.780923,139.83449 C139.381627,140.113472 139.020359,140.428384 138.675993,140.77056 C138.616838,140.830161 138.55557,140.906036 138.494303,140.980009 L138.913721,141.14122 C139.087491,141.207102 139.230118,141.258689 139.284444,141.269559 C139.650641,141.344236 140.022472,141.384157 140.394303,141.416251 L140.951345,141.461887 C143.091486,141.639422 145.225289,141.6986 147.21543,142.594725 C147.633739,142.782827 147.487965,143.427445 147.092894,143.535022 C145.639655,143.929543 144.197458,143.898954 142.718208,143.793458 L142.400641,143.769832 C141.025289,143.664157 139.548528,143.670498 138.206979,143.290067 C138.528106,144.169073 138.090782,145.316917 136.749232,145.496564 C132.720359,146.033394 128.666134,145.779985 124.633035,145.424705 C120.559796,145.06541 116.488669,144.725136 112.404866,144.511883 C99.195067,143.816667 85.9650228,143.950131 72.7433781,144.138874 L65.2717649,144.247104 C59.3132468,144.331159 53.3536826,144.39664 47.3953389,144.350929 L44.6063517,144.324928 C43.427627,144.313493 42.2482833,144.299149 41.0708997,144.264505 L40.3647254,144.241144 C38.9619085,144.19042 37.1048662,144.40177 35.8858521,143.570952 C34.8802183,142.886388 34.6562746,141.630968 35.2626127,140.618811 C35.4379648,140.326936 35.6788099,140.066975 35.9302183,139.813355 C36.4457113,135.406913 36.7351479,130.978913 37.0309225,126.553238 C38.0576831,111.065699 37.4576831,95.6580517 35.0893732,80.3267014 C28.7344437,82.2692219 22.4766972,84.7058795 16.3795141,87.3202826 C13.0816268,88.734216 9.80064085,90.2009871 6.5576831,91.7396172 C3.59782394,93.1450967 0.625288732,94.9014176 -2.53738732,95.8144509 C-2.82488732,96.0696564 -3.22686429,96.1911237 -3.58340619,96.0778457 L-3.62964085,96.0617307 L-3.63175352,96.0617307 C-3.95710563,96.1378168 -4.31837324,96.0913198 -4.67330282,95.877856 C-4.7451338,95.8343178 -4.81696479,95.7905918 -4.88879577,95.7456133 L-4.99654225,95.6770732 C-6.10992254,94.9753902 -7.22964085,94.1109675 -8.01766901,93.054216 C-8.97471127,93.9418873 -10.0035845,94.7557973 -11.0155563,95.5798521 C-12.1141479,96.4759773 -13.2085141,97.3763295 -14.2944296,98.2851358 C-14.7254155,98.6465448 -15.2007676,98.9910458 -15.5810493,99.4074059 L-15.6362919,99.4685252 C-15.6451338,99.4784665 -15.6535845,99.488353 -15.661331,99.4982865 C-14.0155563,100.563492 -12.5747113,102.180322 -11.2838662,103.585801 C-9.89773944,105.094208 -8.55952817,106.650721 -7.23226901,108.213276 L-5.94738067,109.728929 C3.13846479,120.462073 12.3172606,131.584305 24.0802183,139.473081 C25.9393732,140.720048 24.166838,143.757151 22.3203592,142.482709 C18.825993,140.075429 15.5196549,137.401848 12.3443028,134.588564 C6.77951408,129.6622 1.77247183,124.13539 -2.91555634,118.376095 C-5.28809155,115.461363 -7.59090845,112.475406 -9.84724648,109.469793 L-10.6130493,108.450324 C-11.6335563,107.090581 -12.6486549,105.72678 -13.6204859,104.331868 L-13.8238227,104.039516 C-14.6762617,102.808986 -15.5827707,101.426584 -16.1324577,100.009754 C-16.3437254,100.223218 -16.5824577,100.402654 -16.9310493,100.53813 C-17.5268239,100.770615 -18.2578099,100.282396 -18.4035845,99.7011828 C-18.7585141,98.2914763 -17.533162,97.4524157 -16.5359789,96.7040243 C-15.3254155,95.7996564 -14.0916127,94.9267796 -12.8556972,94.0581299 L-12.41423,93.7458839 C-10.8686914,92.6493943 -9.31503582,91.523948 -7.6310493,90.6575037 C-7.58034507,90.5898716 -7.51907746,90.5264665 -7.44935915,90.4715155 C-7.36907746,90.4081104 -7.29090845,90.3468188 -7.21062676,90.2855272 C-9.22189437,87.0222787 -11.4275282,83.8858403 -13.8887958,80.9224978 C-15.7395,78.693175 -17.7042887,76.5646661 -19.783162,74.5483843 L-20.7170505,73.6438178 C-22.1296641,72.2790411 -23.5984629,70.8947142 -25.1662606,69.7084626 L-25.6570606,70.2651424 C-26.3124296,71.0066607 -26.9742887,71.7424978 -27.674007,72.4391084 C-29.0514718,73.8086583 -30.4099225,75.2058951 -31.7620352,76.6027092 C-34.007508,78.9269586 -36.1769245,81.3226357 -38.3394671,83.721729 L-39.4204859,84.9212454 C-41.6725986,87.4215194 -44.0852746,89.8755076 -46.1324577,92.546764 L-46.2346951,92.6819758 C-47.1284508,93.8811442 -47.7646729,95.2082982 -47.3493592,96.7317112 C-46.9486322,98.2002548 -45.9958835,99.5025333 -45.1746779,100.770716 L-45.0930211,100.897425 C-41.7402042,106.122005 -38.1486549,111.213433 -34.3014718,116.085269 C-26.5965423,125.843312 -17.8078099,135.091789 -7.32048592,141.876134 C-5.86696479,142.816643 -7.22541549,145.154177 -8.6810493,144.203101 C-14.8056972,140.198013 -20.4317535,135.387891 -25.6078099,130.222279 C-30.3592183,125.481692 -34.6648521,120.261339 -38.7000634,114.903609 C-40.6669648,112.289206 -42.5514718,109.619852 -44.3578099,106.891531 C-46.1092183,104.243101 -48.1352746,101.519007 -49.404993,98.5979342 C-50.0698553,97.0614176 -50.3155563,95.3980908 -49.7704859,93.7791476 C-49.270614,92.2912415 -48.2820445,91.0557292 -47.2536232,89.8933876 L-47.1571056,89.784627 C-44.7930211,87.1279538 -42.3866831,84.5029832 -39.9592183,81.9033746 C-37.5233028,79.2953119 -34.9754155,76.7802434 -32.3747113,74.3391476 C-30.3317535,72.4179734 -28.2021761,70.7248462 -25.9247113,69.1568384 C-26.1296408,69.0110067 -26.3345704,68.8715155 -26.5437254,68.7362513 C-27.1796408,68.3220047 -27.3402042,67.436447 -26.7824577,66.8742552 C-25.2592183,65.3354137 -23.5035845,63.9975663 -21.8514718,62.5967366 C-20.2986549,61.2798129 -18.745838,59.9609871 -17.1930211,58.6421613 C-14.0324577,55.9622395 -10.8718944,53.2802043 -7.71133099,50.5981691 C-2.03457042,45.7814959 3.6105,40.9310067 9.26824648,36.0931984 C11.6274014,34.0765644 14.0085634,32.0848814 16.3836123,30.0875722 L20.6033013,26.5350771 L20.6033013,26.5350771 L22.6671365,24.80172 C23.7245659,23.9157179 24.8044988,23.0395611 26.0069789,22.3638834 C28.8363573,20.7739319 32.2379105,20.0860646 35.3552224,19.2436874 L35.5626127,19.1872885 C39.0590915,18.230083 42.5745845,17.3295194 46.1090915,16.5263883 C49.6478239,15.7232571 53.2013451,14.9919851 56.7696549,14.3302474 C59.9766972,13.7344509 63.2597958,13.2229832 66.5302183,13.1468971 C67.3414859,12.8383256 68.3597958,12.730537 69.1583873,13.0602434 C69.4879648,13.1976211 69.832331,13.3984039 70.138669,13.6520243 C71.7379648,13.0898325 73.3161338,12.8214176 74.8097958,11.8703413 C76.3013451,10.9215898 77.6217676,9.67441174 78.7330352,8.30063483 C81.0295141,5.45585988 82.2316268,2.09539022 83.038669,-1.41534951 Z M119.801345,94.9162121 C118.533739,94.8276564 117.392894,95.3515937 116.2605,95.9095585 C116.898528,96.1864274 117.536556,96.4611828 118.174585,96.7338247 L122.421063,98.5472102 L122.421063,98.5472102 C123.82388,99.1453315 125.309092,99.6652532 126.64219,100.402654 C126.737261,100.455492 126.813317,100.519108 126.870359,100.593081 C128.256275,99.7056211 129.722472,98.9130575 131.127401,98.0695585 C131.448528,97.8772297 131.771768,97.684901 132.095007,97.4925722 C130.421768,98.0526505 128.706275,98.3337464 126.889373,97.8074841 C124.466134,97.1079147 122.361908,95.0958599 119.801345,94.9162121 Z M123.274585,90.6638442 L123.046884,90.5089884 C121.817357,89.6653245 120.350268,88.5808006 118.856979,89.3386779 C118.153458,89.6958599 117.576697,90.2728462 116.883739,90.6575037 C116.186556,91.0463883 115.419655,91.3443922 114.64219,91.5240399 C113.351345,91.8220438 111.872472,91.8664274 110.484444,91.5787796 L110.50557,93.4557816 L110.50557,93.4557816 C111.55557,93.8890497 112.599232,94.3330967 113.642894,94.7809479 C114.320487,94.5492312 114.972623,94.2708252 115.658316,93.9654089 L116.121063,93.7580125 C117.441486,93.1639068 118.774585,92.766991 120.234444,92.9548814 C122.983035,93.3078364 125.059796,95.3515937 127.687965,96.0321417 C130.909796,96.8693002 133.816838,94.4639225 136.861204,93.8700282 C137.363176,93.7711162 137.880549,93.7132908 138.394842,93.7042556 L138.566134,93.7030614 L138.64219,93.6586779 C139.29712,93.2740204 140.277401,92.9064822 140.733739,92.2595389 C141.230218,91.557856 141.272472,90.3827483 141.435148,89.5584822 C141.452049,89.4760556 141.468951,89.3915155 141.483739,89.3090888 C141.196415,89.3090888 140.904866,89.323672 140.609092,89.3788344 C139.679514,89.5500282 138.804866,89.8797346 137.938669,90.2476955 C136.301345,90.9428266 134.699937,91.7353902 132.975993,92.1982474 C131.287965,92.6524391 129.52388,92.8682278 127.785148,92.6167209 C126.088669,92.3713432 124.679514,91.6064665 123.274585,90.6638442 Z M123.539093,84.0651883 L123.284584,83.901217 C122.613124,83.472632 121.843035,83.0286458 121.020359,83.1862708 C120.285148,83.3278755 119.653458,83.9133159 119.013317,84.2747249 C117.608387,85.0672885 116.032331,85.5005566 114.424585,85.6104587 C113.087261,85.7013393 111.699232,85.5385996 110.412613,85.1412611 L110.456979,89.2966192 L110.456979,89.2966192 C110.928106,89.4464665 111.416134,89.5542552 111.929514,89.5922982 C113.488669,89.7085409 115.009796,89.3344509 116.317542,88.4742552 L116.979117,88.0348693 C118.111197,87.2907549 119.173465,86.7001921 120.671768,86.9717659 C122.154866,87.242083 123.399232,88.1931593 124.611908,89.0216524 L124.810761,89.1552342 C126.203426,90.074976 127.615077,90.6687437 129.323176,90.6828658 C131.167542,90.6974489 132.990782,90.1840791 134.708387,89.5521417 C136.413317,88.9267562 138.033739,88.1762513 139.856979,87.9458795 C140.414725,87.8761339 141.095007,87.8549988 141.735148,87.964901 C141.819655,87.4935898 141.899937,87.0246035 141.975993,86.553081 C142.140782,85.5407131 142.282331,84.5304587 142.404866,83.5180908 C139.170359,82.6473276 136.183035,85.464627 133.17881,86.3332767 C131.435852,86.8362904 129.538669,86.8301613 127.795711,86.3438442 C126.182947,85.8936087 124.915172,84.959009 123.539093,84.0651883 Z M123.54712,77.0676798 C122.856275,76.9345292 122.17388,77.2536681 121.586556,77.5812611 C120.088669,78.4120791 118.795711,79.5679538 117.099232,80.0054489 C114.916838,80.5676407 112.529514,80.0836485 110.361908,79.1642748 C110.370359,80.4469597 110.380923,81.7300673 110.391486,83.0129636 C110.799232,83.1674607 111.217542,83.291946 111.644303,83.3912806 C113.161204,83.7378951 114.768951,83.691398 116.262613,83.2539029 C117.785852,82.8077425 118.954162,81.6032571 120.481627,81.2270536 C122.043547,80.8410896 123.51586,81.5919651 124.774594,82.4455229 L125.153452,82.7041054 C126.592284,83.6808681 127.987683,84.5296133 129.787965,84.6953119 C131.691486,84.8707327 133.345711,84.2747249 135.046415,83.4844861 L135.442305,83.3011595 C137.595509,82.3117487 140.390616,81.1854052 142.540077,82.3112806 C142.709092,80.7134724 142.831627,79.1158755 142.914021,77.5157425 C142.618246,77.4058403 142.311908,77.3255272 141.959092,77.3234137 C141.116134,77.319398 140.230923,77.5854881 139.445007,77.8623569 C137.727401,78.4689323 136.128106,79.3733002 134.427401,80.0223569 C132.81543,80.6394998 131.030218,80.9607523 129.3105,80.6840947 C127.717542,80.4281495 126.521768,79.5954294 125.421063,78.4541378 L125.261182,78.285438 C124.778472,77.7716665 124.262049,77.206537 123.54712,77.0676798 Z M124.808387,71.1350771 C124.011908,70.7147014 123.04219,70.323492 122.121063,70.4460751 C121.24219,70.5620159 120.656477,71.1585033 120.115268,71.796019 L119.822169,72.1450003 C118.854024,73.2909084 117.901067,74.2543617 116.408387,74.7259186 C114.861908,75.2120243 113.222472,75.021809 111.783739,74.3095585 C111.272472,74.0559382 110.79712,73.7410262 110.319655,73.4303413 L110.345007,76.8011671 L110.345007,76.8011671 C111.299937,77.2767053 112.271768,77.7059577 113.338669,77.9659186 C115.307683,78.4456838 116.980923,78.0906153 118.664725,77.0042748 L118.841506,76.8891555 C120.109761,76.0559842 121.410124,75.0639851 122.976697,74.9710849 C124.505477,74.8795663 125.652791,75.727409 126.659588,76.7651179 L126.777401,76.8880321 C128.04712,78.2277816 129.329514,78.8810654 131.218246,78.7267796 C133.049377,78.5770317 134.763085,77.7682604 136.4405,77.0715124 L136.592894,77.0085018 C138.126697,76.3784665 139.895007,75.7298325 141.57881,75.9707718 C141.982331,76.0278364 142.504162,76.1525331 142.968951,76.3702239 C143.036556,74.7933393 143.068246,73.214764 143.074585,71.6338638 C142.117542,70.8034685 140.628106,70.6658795 139.430218,71.0061534 C137.554162,71.5387562 136.018246,72.9125331 134.226697,73.6585996 C132.637965,74.320126 130.981627,74.4680712 129.361204,73.842263 C127.687965,73.1957425 126.375993,71.9635703 124.808387,71.1350771 Z M142.968951,64.4944509 C140.16543,64.591672 137.423176,66.415625 134.746415,67.1109675 C131.756255,67.8871732 129.315851,66.8290415 126.652154,65.6543429 L126.308387,65.5028031 C124.941486,64.9025683 123.473176,64.3634137 121.958387,64.60858 C120.481627,64.8497307 119.175993,65.667445 117.906275,66.407171 L117.662937,66.5473382 C115.34987,67.8646384 112.994625,68.7664063 110.294303,68.5415977 C110.309092,69.3893237 110.302754,70.2347249 110.304866,71.063218 C110.748528,71.3168384 111.175289,71.6042748 111.580923,71.8663491 L111.726503,71.9586522 C113.013882,72.7639373 114.340961,73.2932326 115.875993,72.7962904 C117.359092,72.3144117 118.056275,71.0230614 119.074585,69.9599695 C120.0105,68.9835311 121.231627,68.3898481 122.600641,68.4467014 C124.073176,68.5056681 125.46543,69.1547249 126.682331,69.9472885 C127.899232,70.7398521 129.075993,71.7646896 130.499937,72.1622395 C133.694303,73.0496994 136.430218,69.6704196 139.451345,69.1441573 C140.718951,68.9222395 142.117542,69.2033354 143.074585,69.9682121 C143.064021,68.146584 143.02388,66.3205174 142.968951,64.4944509 Z M118.837965,63.7293628 C118.442894,63.7441573 118.047824,63.7610654 117.652754,63.7779734 C116.190782,63.8413785 114.72881,63.9132376 113.266838,63.9956642 C112.254866,64.0504039 111.0105,64.3613002 110.017542,64.0527288 C109.99219,64.1541769 109.958387,64.2516094 109.914021,64.3465057 C110.064021,65.0946857 110.156979,65.8682278 110.214021,66.6502239 C111.130923,66.7495585 112.062613,66.7157425 112.966838,66.5276407 C115.136556,66.0774646 116.898528,64.7079147 118.837965,63.7293628 Z M142.926697,63.1016524 C137.588127,63.4694832 132.208538,63.3429388 126.861179,63.4585466 L126.219655,63.473629 C126.194303,63.473629 126.168951,63.4759538 126.143599,63.4759538 C126.756803,63.7137229 127.365254,63.9858496 127.971625,64.2630884 L128.577401,64.5409479 C130.009796,65.2003609 131.467542,65.7393041 133.071063,65.6230614 C134.788669,65.4983648 136.406979,64.7968932 138.012613,64.230263 C139.544303,63.6892063 141.308387,63.3256838 142.941486,63.5623961 C142.937261,63.4081104 142.933035,63.2559382 142.926697,63.1016524 Z" id="ðŸ–-Ink" fill="#000000"></path>
                    </g>
                    <g id="head/Bantu-Knots" transform="translate(78.591549, 38.043053)" fill-rule="evenodd">
                        <path d="M87.1390141,52.886501 C86.8975352,48.2615225 86.6856338,43.482681 85.7991549,38.9285049 C85.3645775,36.6960117 84.4954225,34.6349237 83.0894366,32.8428845 C81.8032394,31.2030176 80.184507,29.9311115 78.5425352,28.6678708 C75.2425352,26.1289198 72.069507,23.3179609 68.3757042,21.3540939 C64.8312676,19.4696947 60.999507,18.3322074 57.0287324,17.8213738 C49.3812676,16.8375382 41.3488732,18.4750802 34.7078873,22.4038708 C28.266338,26.2149393 23.0879577,32.1291546 19.883662,38.871863 C18.2911268,42.2226106 17.0949296,45.7589237 16.4505634,49.4159178 C15.6826056,53.775229 15.7521127,58.1467984 15.7797887,62.5549315 C15.7892958,64.0364971 15.7759859,65.5172172 15.7022535,66.9951898 C15.5820423,67.7125127 15.5157042,68.4389237 15.5165493,69.2175382 C14.0585915,71.1368102 13.4653521,73.7019687 14.3790845,76.0646536 C15.8366197,79.8347202 19.9721831,81.5491937 23.726831,80.8914716 C23.8947887,81.8715029 24.2997887,82.8371624 24.8040845,83.7770372 C25.6662676,85.3832994 26.6300704,86.956591 27.6530282,88.464998 C29.7692958,91.5860078 32.1842958,94.4153542 35.0657746,96.8562387 C40.7778169,101.694892 48.0137324,104.865358 55.5177465,105.3242 C62.349507,105.741828 69.5545775,103.79825 75.1259155,99.7891468 C78.0175352,97.7084031 80.52,95.1584618 82.3793662,92.1048728 C84.5514085,88.5377025 85.7300704,84.4311663 86.3416901,80.3261096 C87.6840845,71.3139217 87.6124648,61.9654755 87.1390141,52.886501 L87.1390141,52.886501 Z" id="ðŸŽ¨-Background" fill="#FFFFFF"></path>
                        <path d="M33.2676338,5.09157652 C33.0094648,2.18086027 35.6910845,-0.00915146771 38.1793944,0.806026614 C38.6359437,0.862879843 39.0800282,1.00702074 39.4767887,1.24943953 C40.6220704,1.94922035 40.8724225,3.07783092 40.5732676,4.05342387 C41.1109437,4.45942779 41.5345352,5.00978395 41.747493,5.67363523 C41.967,6.35756477 41.9441831,7.02099335 41.7375634,7.5990364 C42.5181972,8.11494247 43.1082676,8.8933456 43.2453803,9.85773699 C43.3104507,10.3157331 43.2842535,10.7699249 43.175662,11.1873417 C44.357493,11.5886959 45.3219296,12.48778 45.3073521,13.8482419 C45.9937606,13.8922027 46.6810141,13.9019249 47.3805211,13.8630364 C47.4802394,13.5813065 47.6025634,13.3065511 47.7840423,13.0535648 C48.150417,12.5439165 48.6710419,12.1937998 49.2473696,11.9754699 L49.3262958,11.9465119 L49.3250282,11.7918035 C48.8836901,11.3025276 48.6770704,10.6853847 49.1471408,10.0132908 C49.2278451,9.89810489 49.3260845,9.80299726 49.4357324,9.72141605 C49.4746056,9.42975264 49.5375634,9.14104814 49.6148873,8.8572047 C49.2253099,8.31403444 49.2675634,7.41283679 49.9210141,7.14315382 C49.8299577,6.61350998 49.8246761,6.06421057 49.9229155,5.51068415 C50.3260141,3.2428955 52.5139014,1.69834755 54.7685493,1.78500117 C55.0508028,1.79578004 55.3254507,1.83826145 55.5908028,1.90589354 C56.1396761,1.96338082 56.6858028,2.08617534 57.2228451,2.268782 C57.8427042,2.47970959 58.0022113,2.99751781 57.8657324,3.43522427 C58.7074225,4.56108728 58.9463662,6.09062935 58.0987606,7.46525166 C58.0664366,7.51745519 58.0309437,7.5671225 57.9960845,7.61721252 C58.1661549,7.74507945 58.3140423,7.91373699 58.4239014,8.13037104 C58.6998169,8.67565479 58.6317887,9.36761566 58.2107324,9.82265284 C58.0987606,9.94396791 57.953831,10.0350599 57.795169,10.0936039 L57.7924225,10.1384102 L57.7924225,10.1384102 C57.737493,10.8686254 57.621507,11.6007429 57.4024225,12.2903789 C58.2948169,13.1195061 58.8874225,14.2479053 58.9924225,15.4638035 C59.3249577,15.4946607 59.6572817,15.5308016 59.9891831,15.5684219 C60.0381972,15.2351225 60.2403803,14.9350051 60.5471408,14.7025198 C60.803831,14.5080775 61.0778451,14.3525237 61.3592535,14.2360697 C61.4948873,13.5371342 61.8267887,12.8675765 62.3870704,12.3362419 C62.5949577,12.1392634 62.8220704,11.9655335 63.0639718,11.8161088 C63.0504507,11.058418 63.2192535,10.3013613 63.638831,9.58446106 C63.9878451,8.98824188 64.4959437,8.55581918 65.0752394,8.2806411 C65.4977746,7.43101292 66.2800986,6.73778395 67.4186197,6.34382701 C68.2694614,6.04958616 69.1697705,6.39927848 69.8166407,6.94916067 L69.9612254,7.07594442 L69.9612254,7.07594442 C70.5546761,7.5998818 70.7691127,8.56258239 70.5502394,9.30526732 C70.4473521,9.65420665 70.2755915,10.0619014 70.0262958,10.3930873 C70.2897465,11.5548798 69.7655915,12.5241323 68.9625634,13.068782 C69.237,13.4593573 69.4677042,13.8926254 69.662493,14.3552712 C69.9992535,15.1552321 69.620662,16.151326 69.0134789,16.7815726 C69.2792535,17.2055413 69.4518592,17.700101 69.5152394,18.1967742 C69.7860845,18.2126254 70.0552394,18.2608133 70.3205915,18.3362654 C70.4644648,17.8476235 70.7350986,17.3934317 71.1491831,17.0225119 C71.330662,16.6680775 71.5461549,16.3381597 71.7872113,16.0496665 C72.1670704,15.594418 72.6593239,15.2664023 73.1965775,15.132829 C73.2681972,14.9639601 73.3696056,14.8022771 73.4967887,14.6545432 C73.3685493,13.1734004 74.3496761,11.6440697 75.8608732,11.6428016 C75.9675634,11.2974552 76.0979155,10.9559131 76.2540423,10.6209229 C76.560169,9.96383483 77.2089718,9.57030059 77.9127042,9.44095421 C78.3259437,8.43365871 79.1378451,7.70111859 80.5311549,7.57895812 C83.6437606,7.30631624 85.6017887,11.0818779 84.8416479,13.7926568 C84.6155915,14.5979014 84.0863662,15.3388955 83.3839014,15.7939327 C83.2000986,15.9129229 83.0148169,15.9993652 82.8274225,16.0708016 C82.6400282,16.3326646 82.3877746,16.5653613 82.0634789,16.7549425 C81.9916479,16.7970012 81.9177042,16.8348329 81.8416479,16.8686489 C81.8490423,18.078418 81.0143239,19.0622536 79.9782676,19.3752634 C80.0448169,20.1380266 79.8498169,20.902692 79.2707324,21.4936274 L79.2295587,21.5333065 L79.2295587,21.5333065 L79.1452394,21.6088133 L79.1384789,21.6422067 C79.3444648,22.1731186 79.3229155,22.7579249 79.0271408,23.2391695 C79.0531268,23.6813143 79.1312958,24.1135256 79.2798169,24.5243906 C79.8519296,24.9874591 80.3568592,25.5194278 80.808338,26.0968368 C81.1098169,25.8237722 81.5648873,25.700555 81.9584789,25.8497683 C82.0677042,25.8125706 82.1800986,25.7884767 82.2880563,25.7776978 C82.4676338,25.7595217 82.6436197,25.7601558 82.8164366,25.7728368 C82.8962958,25.6568055 82.9877746,25.5464806 83.0923521,25.4431303 C83.8273521,24.7162967 84.8940423,24.7313025 85.7408028,25.1827468 C85.8922817,25.0722106 86.0631972,24.9745667 86.2567183,24.8927742 C88.4152394,23.9824885 89.8300986,26.722645 90.0405211,28.4305667 C90.1552394,29.3624102 89.3536901,29.9370716 88.5310141,29.9854708 C88.3639014,30.5504102 87.8272817,30.9570481 87.2279155,31.0950599 C87.3343944,31.7929386 86.8717183,32.505189 86.2417183,32.770645 C85.9605211,32.8892125 85.6884085,32.9215491 85.4323521,32.887099 L85.4446056,33.052375 L85.4446056,33.052375 C85.4942535,33.7077722 85.1629859,34.1249777 84.7093944,34.3099092 C84.6295352,34.6345432 84.4079155,34.8699875 84.1305211,34.9906685 C85.190662,37.4474043 86.027493,40.0212282 86.702493,42.5597566 C87.8167183,46.7504102 88.5658732,51.0173613 89.0682676,55.3229894 C89.952,62.8920775 89.9866479,70.6167194 89.1018592,78.1889777 C88.6516479,82.0423162 87.903338,85.8085785 86.3729155,89.387373 C85.0964366,92.3724845 83.3207324,94.9630051 81.2771408,97.4696196 C77.217,102.448187 71.4054507,106.115749 65.0004507,107.02688 C61.638338,107.505166 58.1900282,107.349612 54.9090423,106.433197 C51.6422113,105.520798 48.1590423,103.956171 46.1010845,101.177549 C45.5437606,100.425353 45.8150282,99.2050168 46.4355211,98.584281 C47.1434789,97.8760462 48.1630563,97.8303945 49.0275634,98.2497135 C50.5615775,98.9938779 51.9405211,100.011107 53.5000986,100.721244 C54.9073521,101.362269 56.4291127,101.772712 57.9443239,102.062684 C60.9458028,102.637346 64.2094648,102.490457 67.2018592,101.689228 C72.6284789,100.236618 77.4096761,96.7307389 80.4449577,92.0032556 C84.0305915,86.4183241 85.310662,79.8730168 85.8967183,73.3505354 C86.5379155,66.2115452 86.4709437,58.9744885 85.6203803,51.8557879 C85.1986901,48.3256039 84.5496761,44.8271225 83.7812958,41.3573847 C83.2343239,38.8869112 82.6172113,36.4329229 82.0364366,33.9709033 C81.5097465,33.468101 81.0005915,32.9488133 80.5100282,32.4107155 L80.4950282,32.4096587 L80.4950282,32.4096587 C80.4329155,32.4250873 80.3682676,32.4367115 80.2989718,32.4419953 C77.3845352,32.6643358 74.2258732,32.3716157 71.7394648,30.6913808 C70.7289718,30.008508 69.8741831,29.1440853 69.2380563,28.1488368 C68.3446056,27.5293691 67.5305915,26.7477957 66.9191831,25.8446959 C66.485662,25.368735 66.0747465,24.8714278 65.6841127,24.3559444 C64.7116479,23.0713573 64.1948873,21.7231538 63.6149577,20.2409542 C63.6014366,20.2069268 63.5925634,20.1735335 63.5858028,20.1407742 C63.4748873,19.9592243 63.3960845,19.7603436 63.3580563,19.5595609 C62.0642535,19.4059092 60.765169,19.3040384 59.4787606,19.2427468 C59.0232676,19.221189 58.566507,19.2040697 58.1095352,19.1892751 C58.2295352,19.6358583 58.3017887,20.0991382 58.3174225,20.5748877 C58.6862958,20.591373 59.0623521,20.6342771 59.4472817,20.69578 C61.2527746,20.9834278 62.4107324,21.9082967 63.5072113,23.3575256 C64.5745352,24.7680775 65.4253099,26.4645863 66.0574225,28.114598 C66.4448873,29.1248524 65.9279155,30.2416274 65.0781972,30.8919523 C62.8721408,31.07942 60.7045352,31.55369 58.6742535,32.4933534 C58.6028451,32.5265354 58.5510845,32.5846568 58.5168592,32.6531342 C56.8955915,33.136281 55.2622817,33.5782145 53.6300282,33.9533613 C52.0541831,34.3156157 50.4629155,34.4663084 48.8784085,34.066645 C48.1972817,33.8948172 47.5311549,33.6403515 46.8760141,33.3550286 C46.5240423,33.3977213 46.1429155,33.3305119 45.7552394,33.1081714 C45.168338,32.7719131 44.5778451,32.4041636 43.9964366,32.0085159 C42.9690423,31.515647 41.9585493,30.9862145 40.9934789,30.3811186 L40.9881972,30.3737213 L40.9881972,30.3737213 C40.2185493,29.4397644 39.1205915,28.4882654 37.8914366,27.7677722 C37.7553803,27.5600149 37.6353803,27.3414787 37.5396761,27.1079366 C37.0108732,25.8210247 37.2316479,24.2644297 38.3471408,23.3792947 C38.3634085,23.0738935 38.4962958,22.7748329 38.7910141,22.5349503 C39.0242535,22.3449464 39.2644648,22.1644532 39.5108028,21.9924141 C39.4592535,21.9541597 39.4072817,21.9171734 39.3559437,21.8780736 C39.2545352,21.8013534 39.1571408,21.7187155 39.0620704,21.6335413 C38.3173521,22.0418701 37.5660845,22.4415335 36.7977042,22.7974474 C36.7782676,22.8116078 36.7598873,22.8266137 36.7393944,22.8399288 C35.2945352,23.7886802 33.927,24.8784023 32.4641831,25.7927037 C32.1139014,26.0114513 31.7650986,26.223647 31.418831,26.4364767 C31.2889014,26.6137996 31.1619296,26.7936587 31.0393944,26.9768994 C30.987,27.2588407 30.9073521,27.5403593 30.8084789,27.8144806 C30.9998873,27.9668642 31.1555915,28.167647 31.2614366,28.4056274 C31.7160845,28.5787233 32.1439014,28.7983162 32.5429859,29.0601793 L32.8968592,29.2172125 L32.8968592,29.2172125 C33.3517183,28.8524219 33.8323521,28.5227155 34.3486901,28.2485941 C35.9693239,28.3538466 37.7207324,29.5025354 38.952,30.6736274 C39.0381972,30.7708485 39.122493,30.8689151 39.2029859,30.9684611 C39.2809437,31.0314434 39.3595352,31.0984415 39.4379155,31.1641714 C39.5653099,31.3013378 39.6842535,31.4370247 39.7932676,31.5691186 C39.9155915,31.7176978 40.0537606,31.7994904 40.1940423,31.8337292 C40.9482676,32.5421753 41.6549577,33.3393886 42.138338,34.1676705 C42.9145352,35.4974865 42.3705211,37.1551068 41.8024225,38.4599836 C41.7094648,38.6730247 41.6116479,38.8826841 41.5089718,39.0900188 C40.4226338,40.5540423 39.3927042,42.0590677 38.3634085,43.5645159 C37.6698169,44.2351303 36.9810845,44.9099718 36.3221408,45.6116548 C36.2141831,45.6839366 36.1007324,45.7532595 35.9760845,45.81751 C34.0585095,46.8047915 32.2039273,45.693407 30.3769503,45.0013059 L30.172929,44.9257863 C28.2902372,44.2447476 25.9467115,43.7972057 25.8278451,41.3447037 C25.8115775,41.0105589 25.8244648,40.6681714 25.8576338,40.3219796 C26.3211549,39.093189 26.8522817,37.8870129 27.4444648,36.7121166 C27.3250986,36.5829816 27.2179859,36.4398975 27.1277746,36.280328 C26.937,36.0385432 26.777493,35.777737 26.6560141,35.5025589 C25.7815775,37.1777213 24.9487606,38.9744102 23.8248169,40.4441401 C23.2053803,41.2542458 22.433831,41.5461205 21.6149577,41.5442184 C21.2695352,41.7185824 20.8829155,41.7771264 20.510662,41.7331656 L20.5499787,42.1815153 C20.5842003,42.5553743 20.6237807,42.9289251 20.6815775,43.2954669 C21.4731972,43.2825746 22.3005211,43.4996313 23.0380563,43.7915061 C25.2027042,44.6476861 27.2885493,45.8333613 29.3767183,46.8611577 C30.3850986,47.3574082 31.7705915,47.7733456 32.5943239,48.5483671 C33.2255915,49.1428955 33.153338,49.8792399 32.9135493,50.6451734 C32.8723521,50.7757879 32.8275634,50.9053456 32.7848873,51.035326 L32.7821408,51.0778074 L32.7821408,51.0778074 C32.108831,51.9263789 31.6476338,52.9389581 31.3129859,53.9842967 C30.7662254,54.914238 30.3848873,55.9578857 30.1250282,56.9806098 C29.9143239,57.8115511 29.7646878,58.6595413 29.6673323,59.515464 L29.6420704,59.7490873 L29.6281268,59.7765628 L29.6209437,59.9784023 L29.6209437,59.9784023 C29.4823521,61.4855413 29.498831,63.0117018 29.6243239,64.5065824 C29.6593944,64.9227311 29.7029155,65.3395139 29.7572113,65.7548172 C29.5218592,66.491373 28.4044648,66.5938779 27.8253803,66.142011 C27.1877746,65.6447037 26.5182676,65.1926254 25.8229859,64.7847194 C24.8752394,65.2167194 23.7791831,65.2904806 22.7200986,64.9364689 C22.6444648,64.9113182 22.5726338,64.8808838 22.4999577,64.8521401 C21.7062254,64.9506294 20.9203099,65.1357722 20.1681972,65.3549425 L19.9426105,65.4216883 C18.7427564,65.7828434 17.5991334,66.2346445 16.6958028,67.152054 C15.0908028,68.7817761 14.573831,71.4158348 14.9012958,73.6210638 C15.2196761,75.7664806 16.4640423,78.2183554 18.7062254,78.8420501 C19.6237606,79.0973613 20.6127042,79.089964 21.5048873,78.7332047 C21.8437606,78.5977292 22.1342535,78.4013847 22.4203099,78.1860188 C22.7714366,77.9214082 23.048831,77.6236157 23.4654507,77.4562262 C23.8459437,77.30342 24.5031972,77.3152556 24.6889014,77.3063789 C25.268831,77.2782693 25.7596056,77.7324611 25.9303099,78.2519601 C26.4508732,79.8372986 25.6691831,81.0018387 24.4131972,81.7810873 C24.9415775,82.5812595 25.4367887,83.4171499 25.9598873,84.1731499 C26.9372113,85.5858153 27.9692535,86.9511382 29.0389014,88.2944806 C30.1368592,89.673964 31.3072817,90.9866607 32.5831268,92.2044611 C33.1590423,92.7541832 33.7529155,93.2850951 34.3636901,93.7955061 L34.7011033,94.074867 C35.2712778,94.5512165 35.7700495,95.0362994 35.7502394,95.8675843 C35.7394648,96.333189 35.4303803,96.7656117 34.9725634,96.8896744 C33.3530737,97.3283635 31.6556148,95.2042877 30.6007771,94.1145836 L30.5177746,94.0296822 C29.2410845,92.7376978 28.0535493,91.3495491 26.9796761,89.8840462 C25.8728451,88.3735256 24.9662958,86.7049151 24.2355211,84.9838896 C23.8962254,84.1841401 23.5275634,83.2700501 23.2666479,82.3449699 C21.8593944,82.8908877 20.2252394,83.085964 19.1065775,82.9576744 C18.0741127,82.8395295 17.1316479,82.5427937 16.2804507,82.1101597 C16.1063662,82.5003123 15.8722817,82.8632008 15.5879155,83.165009 C14.5332676,84.2845315 12.9984085,84.6040932 11.5117183,84.5903554 C9.60777465,84.5730247 7.89925352,83.3719209 7.83016901,81.3454943 C7.78538028,80.0319523 8.46566197,78.9046098 9.45840845,78.1361401 C9.82664789,77.2269112 10.5257324,76.4776744 11.5387606,76.2344102 C10.8684085,74.1612751 10.7503099,71.8770012 11.2539718,69.7839992 C11.7526612,67.711917 12.8907957,65.7491653 14.5738953,64.4560526 L14.6697465,64.3835765 L14.6291831,64.4051342 C14.2315775,64.6243045 13.8436901,64.8608055 13.4503099,65.087373 L13.2735964,65.1881674 C11.5264426,66.1750675 9.50289587,67.0227804 7.46847887,66.4949659 C4.23967606,65.6571734 3.96038028,61.6286254 6.73833803,60.0386372 C7.69833803,59.4891264 8.80770423,59.2817918 9.90291549,59.1444141 C10.0759437,58.918692 10.2817183,58.7170638 10.508831,58.5539014 C10.5426338,57.8135413 10.9148873,57.0733926 11.5734085,56.6084219 C12.2448169,56.1341519 12.9990423,56.0872321 13.7012958,56.3049229 C13.9630563,56.1083671 14.2467887,55.936328 14.558831,55.8019092 C14.8296761,55.6848211 15.1043239,55.5998583 15.3796056,55.5411029 C15.3747465,55.3200305 15.3722113,55.0989581 15.368831,54.8776744 C15.3246761,54.6716078 15.2980563,54.4556078 15.2703803,54.2309425 C15.2207324,54.2224885 15.1704507,54.2144571 15.1216479,54.2038896 C14.4062958,54.0474904 13.7600282,53.7264493 13.1974225,53.2936039 C12.2976338,53.8623476 11.2053803,54.0775022 9.90671831,53.6928446 C8.70101408,53.3356626 7.56460563,52.2133926 7.00284507,50.9239444 C6.23277465,50.7690247 5.48509859,50.5439366 4.83038028,50.117009 C3.61812676,50.4052908 2.31164789,49.9390521 1.82023944,48.6836313 C1.45580282,47.7528446 1.89397183,46.6276157 2.67523944,46.0506294 C2.90277465,45.8826059 3.14890141,45.9140971 3.34453521,46.0440775 C3.39080282,45.892962 3.44509859,45.743326 3.51185915,45.5970716 C3.53869014,45.5381049 3.56784507,45.4806176 3.59742254,45.4233417 C3.56826761,44.1903241 4.01552113,42.9983084 5.13439437,42.336782 C5.96488732,41.8458153 6.95530986,41.7923436 7.84791549,42.0759757 C8.33826761,41.618825 8.95939437,41.2696744 9.73073239,41.0779796 C11.0870704,40.7406646 12.5150282,41.1253221 13.4805211,42.1429738 C13.6894648,42.0814708 13.9058028,42.0377213 14.1272113,42.0100344 C14.2077042,41.4423476 14.4008028,40.8964297 14.8034789,40.4703476 C15.092493,40.1645237 15.4389718,39.9210481 15.8137606,39.7502771 C15.9846761,39.1071382 16.2650282,38.53142 16.7344648,38.0495413 C16.5050282,37.8557331 16.296507,37.6376196 16.1186197,37.3949894 C15.9212958,37.3620188 15.7254507,37.3195374 15.5344648,37.2582458 C14.5140423,36.9304415 13.8105211,36.2870912 13.3332676,35.4852282 C12.4495352,35.7115843 11.513831,35.628735 10.5941831,35.0515374 C9.92911268,34.6341205 9.42777465,33.9666763 9.16326761,33.2210325 L8.40798592,32.9562106 L8.40798592,32.9562106 C7.69622535,32.704281 7.18538028,32.2338153 6.89383099,31.6739483 C6.52305634,31.8073104 6.11446479,31.8024493 5.78171831,31.5454474 C3.83192958,30.0397879 5.1635493,27.545009 7.25066197,27.0496039 C8.09974648,26.8481871 8.84108451,26.9629503 9.50023944,27.2700423 C9.96925352,26.817964 10.5576338,26.4785354 11.2309437,26.3255178 C12.0162254,26.1471382 12.8437606,26.277964 13.5684085,26.6245785 L13.7555915,26.6220423 L13.7555915,26.6220423 C14.4853099,26.0799288 15.4218592,25.8370873 16.5662958,26.0989503 C17.862,26.3954748 18.7453099,27.1210403 19.3440423,28.0659875 C19.536507,27.8920462 19.7532676,27.7388172 19.9894648,27.6101049 C20.6596056,27.2453143 21.3753803,27.1552791 22.0609437,27.2694082 C22.2916479,26.9405472 22.5282676,26.6161245 22.7720704,26.2974082 C22.1929859,25.8449072 21.7970704,25.1430129 21.7761549,24.3641871 C21.6012254,24.2551303 21.4317887,24.1310677 21.2697465,24.0169386 C20.4768592,23.4583397 19.8046056,22.7579249 19.4989014,21.8163593 C19.3463662,21.3467389 19.2908028,20.8572517 19.3085493,20.3664963 C19.2231972,20.3478975 19.1382676,20.3280305 19.0539718,20.3039366 C15.6842535,19.3342614 14.2873521,14.6881479 16.9505915,12.1946372 C18.3491831,10.8851108 20.475169,11.6267389 21.8585493,12.5936665 C22.8018592,13.2530795 23.5512254,14.0729072 24.2302394,14.9787546 C24.2621408,14.9853065 24.2931972,14.98742 24.3253099,14.9952399 C25.3005211,15.2258231 26.0760845,15.8516313 26.6490423,16.6518035 C27.6610141,16.4759601 28.7382676,16.6714591 29.6982676,17.3741988 C30.3981972,17.8865119 30.8378451,18.5205628 31.0660141,19.2095648 C31.9753099,18.734872 32.9112254,18.3187233 33.8674225,17.9511851 C33.930169,17.8004924 33.995662,17.6495883 34.071507,17.4997409 C34.2189718,17.2087115 34.4112254,16.9557252 34.6347465,16.7418387 C34.3913662,16.4696196 34.1758732,16.1654865 34.0024225,15.8271147 C33.1791127,14.2221205 33.4765775,12.5976822 34.386507,11.3686802 C33.9886901,10.472555 33.8661549,9.45638278 34.1017183,8.48966654 C34.1454507,8.31023014 34.2005915,8.1377683 34.2650282,7.97185832 C33.7129859,7.11102857 33.3591127,6.1202184 33.2676338,5.09157652 Z M18.4921056,70.0163155 C19.0762606,69.8740767 19.2137958,69.6876658 19.8706268,69.7413487 C20.3791479,69.7829847 20.8990775,69.8700611 21.3923873,69.9977166 C22.5689366,70.3024838 23.6668944,70.9183585 24.6336549,71.6435014 C26.0048746,72.6721094 24.3633222,74.5837742 23.2711565,73.4868257 L23.2382324,73.4526599 C22.5042887,72.6655914 21.6805563,72.0507734 20.758162,71.5025307 C20.2906268,71.2248164 19.8080915,71.024245 19.3194296,70.7907029 C18.9816127,70.6294427 18.7864014,70.3654661 18.4686549,70.1974427 C18.3936549,70.1577088 18.4111901,70.0361824 18.4921056,70.0163155 Z M21.636507,54.5249307 C21.3136901,54.4110129 20.9431268,54.6542771 20.8567183,54.9677096 C20.7640246,55.3054096 20.9606967,55.6108798 21.2652601,55.7346009 L21.2995352,55.7475922 C21.7130282,55.8935648 22.0906338,56.1361949 22.4120834,56.433211 L22.4800986,56.4976744 C23.0655211,57.0666294 23.9627746,56.1709268 23.376507,55.6009151 C22.8791831,55.1175569 22.2897465,54.7553025 21.636507,54.5249307 Z M36.800662,31.4427311 C36.4672102,30.7127207 35.4025615,31.3256067 35.6915393,32.0487275 L35.7060845,32.0826998 C36.0065335,32.7401379 35.8834783,33.5030968 35.5558832,34.1223592 L35.5235493,34.1818309 C35.1250986,34.8949268 36.2196761,35.5351068 36.6181268,34.8217996 C37.2092535,33.7633573 37.3072817,32.5514748 36.800662,31.4427311 Z M46.0059635,22.3544244 L45.9912254,22.2813299 C45.8412254,21.480101 44.6192535,21.8193182 44.7690423,22.6182223 C45.0179155,23.9465589 45.9823521,24.8192243 47.2193239,25.2524924 C47.9910577,25.522598 48.3225634,24.2980344 47.556507,24.0296196 C46.736554,23.7425648 46.1883838,23.1986036 46.0059635,22.3544244 L46.0059635,22.3544244 Z M65.9811549,21.0713495 L65.7658732,21.0620501 L65.7658732,21.0620501 L65.9298169,21.2784728 L65.9298169,21.2784728 C65.945662,21.2089386 65.9623521,21.139827 65.9811549,21.0713495 Z" id="ðŸ–-Ink" fill="#000000"></path>
                    </g>
                    <g id="face/Hectic" transform="translate(112.183099, 77.354207)" fill="#000000" fill-rule="evenodd">
                        <path d="M32.0877254,43.4818356 C34.057162,42.7759256 36.1474437,43.0413816 38.1342042,43.7745558 L38.312344,43.8413739 C40.1373915,44.5374419 42.3675577,45.7462192 43.1142042,47.6342348 C43.2620915,48.0085362 43.3313873,48.3915029 43.3406831,48.7725675 C43.5846972,48.7966614 43.8265986,48.828364 44.0663873,48.8704227 C44.5599085,48.9572877 44.536669,49.74182 44.0663873,49.8449589 C43.7685,49.9102661 43.4651197,49.9580313 43.158993,49.9937495 C42.8758944,50.8742348 42.2900493,51.6733503 41.5501901,52.2338513 C39.8182183,53.5457025 37.4313169,53.792771 35.3376549,53.9933425 C33.022475,54.215182 30.6957364,54.1610752 28.3891329,53.8804682 L27.5771183,53.7766423 C25.6882842,53.5310956 23.5821761,53.2154325 21.9762465,52.2044736 C20.4646268,51.2531859 19.4306831,49.4163405 20.0706127,47.6323327 C20.7257535,45.8054207 22.9715282,45.0301879 24.6384296,44.4436908 C27.0335704,43.6008258 29.5823028,43.270274 32.0877254,43.4818356 Z M28.7461056,49.6042309 C28.7695563,50.1381018 28.7896268,50.6723953 28.8107535,51.2066888 C28.8170915,51.3704853 28.7699789,51.5184305 28.6896972,51.6465088 C29.8351901,51.7811389 30.9908239,51.844544 32.1432887,51.8437151 C31.9324437,51.2064775 31.9212465,50.4747828 31.9092042,49.7944462 C30.8539225,49.7428767 29.7999085,49.6815851 28.7461056,49.6042309 Z M32.9875141,49.8443249 L33.0794532,50.1894844 C33.221785,50.7303038 33.3512299,51.286629 33.3320915,51.8204501 C33.8693451,51.8001605 34.4049085,51.7680352 34.9375141,51.7217495 L35.617047,51.6639849 C35.7714718,51.650702 35.9278099,51.6368712 36.085331,51.6219922 C36.1201901,51.0686771 36.1852606,50.5079648 36.2431479,49.9546497 C35.1576549,49.925272 34.0723732,49.8901879 32.9875141,49.8443249 Z M37.2933592,49.9787436 C37.3427958,50.4675969 37.3888521,50.9674403 37.4082887,51.4626341 C38.2804014,51.3267358 39.1358239,51.1151742 39.8665986,50.7412955 C40.2342042,50.5531937 40.5289225,50.3257808 40.7486408,50.0738513 C40.0104718,50.0565205 39.2744155,50.0191115 38.560331,50.0074873 C38.4195563,50.0051624 38.2787817,50.002227 38.138007,49.999002 L37.2933592,49.9787436 Z M22.1444155,48.8541487 C22.2014577,49.8743366 23.8136408,50.6024384 24.6437113,50.8421096 C25.4357535,51.071002 26.2419507,51.2565675 27.0563873,51.40409 C27.0409648,51.3358239 27.0333592,51.2686145 27.0388521,51.2066888 C27.0906127,50.6309706 27.1415282,50.0554638 27.1958239,49.480591 L26.7587305,49.4458709 C25.2225322,49.3275258 23.6250891,49.2327598 22.1444155,48.8541487 Z M32.2051901,44.9669941 C32.3342746,46.2452407 32.5134296,47.5163014 32.752162,48.7784853 L33.1892746,48.7877847 L33.1892746,48.7877847 C34.2386408,48.8044814 35.2882183,48.8112446 36.3377958,48.8125127 C36.3405423,48.7609432 36.3432887,48.7095851 36.3451901,48.6586497 C36.3844859,47.590908 36.3694859,46.522955 36.3304014,45.455636 C34.9970915,45.161225 33.6014577,45.065272 32.2051901,44.9669941 Z M36.878007,45.5896321 C36.994838,46.6613894 37.0922324,47.7350489 37.1809648,48.8099765 L38.1006049,48.8084579 C38.2538521,48.8080274 38.4070915,48.8072994 38.560331,48.8059609 C39.421669,48.7979295 40.306669,48.741499 41.1906127,48.7178278 C41.1246972,48.2562387 40.853007,47.7868297 40.3523028,47.3596908 C39.2925845,46.4557456 38.1170915,45.9222975 36.878007,45.5896321 Z M31.3854718,44.7216164 C30.3722324,44.8302505 29.3665986,45.0082074 28.3755423,45.2573894 C28.6343451,46.0078943 28.5849085,46.8668219 28.6396268,47.6507202 C28.6639225,47.9958552 28.6837817,48.3412016 28.7019507,48.6863366 C29.7620915,48.7123327 30.8222324,48.737272 31.8823732,48.7598865 C31.8485704,47.4890372 31.870331,46.2183992 31.9419507,44.9483953 L31.8263873,44.9401526 L31.8263873,44.9401526 C31.654838,44.9278943 31.501669,44.8422975 31.3854718,44.7216164 Z M27.7039225,45.4376712 C27.2406127,45.5701879 26.7808944,45.7172877 26.3256127,45.8821409 L25.8290274,46.0616414 C24.6319534,46.4980444 23.0477418,47.1298901 22.3804014,48.1057573 C22.2682183,48.2697652 22.2008239,48.4284892 22.1676549,48.5817182 C23.8457535,48.4267984 25.5857535,48.5829863 27.2790634,48.6468141 C27.302162,48.425319 27.3260117,48.2039178 27.3511761,47.9826106 L27.3899789,47.6507202 C27.4765986,46.9340313 27.4757535,46.1378748 27.7039225,45.4376712 Z M36.0875289,30.0893399 C37.6828906,31.0594474 40.1137318,33.3215488 38.3974899,35.7265634 C36.3773089,37.8471443 33.4687045,35.4157535 32.0353946,34.3161301 C30.7063626,33.4639159 29.2131206,35.6557472 30.4461973,36.6508511 C40.8033244,44.3218599 45.006466,30.3430095 36.8944406,28.9487313 C36.0012775,28.7950879 35.6695544,29.7892265 36.0875289,30.0893399 Z M16.5330845,18.3267757 C18.8001972,14.3850928 24.4091408,14.3396524 27.6180845,17.3497033 C30.6818873,20.223856 31.0609014,25.1273941 28.6137887,28.4887092 C26.0056901,32.0710967 20.9392817,33.0621182 16.8307606,31.7853511 C12.9793521,30.5884744 10.9091408,26.4081769 12.2293521,22.5780869 C12.9434366,20.5064313 14.5870986,19.0741104 16.5330845,18.3267757 Z M14.420662,11.7246787 C16.3366479,10.0279585 19.8181268,8.38935969 22.4017183,9.2244047 C23.8871408,9.70438121 24.5346761,12.0987687 22.8764366,12.8577276 C20.9562254,13.7365221 18.7423521,13.3789174 16.7879155,14.2898372 C15.9671408,14.6725926 15.195169,15.1508783 14.6236901,15.8523499 C14.1734789,16.4052423 13.7154507,17.13271 13.0643239,17.4514262 C12.8931972,17.5353323 12.6614366,17.5374458 12.5243239,17.381892 C11.097,15.766753 13.1743944,12.8281386 14.420662,11.7246787 Z M41.7890704,9.1401816 C42.9732254,8.80772759 44.2868873,8.8144908 45.4898451,9.02330489 C46.6923803,9.23211898 47.9132958,9.73069432 48.8950563,10.4579507 L49.0090263,10.5431059 C50.0808072,11.3510643 51.3597916,12.5266182 51.2912535,13.9579115 C51.234,15.1530975 49.977169,15.9615123 48.8920986,15.3350701 C48.0075211,14.8242364 47.5913239,13.8008783 46.8423803,13.1194849 C46.2244225,12.5570818 45.498507,12.1136689 44.724,11.802984 C43.8637183,11.4578489 43.0019577,11.2961659 42.0787183,11.2807374 C41.3678028,11.2689018 40.652662,11.5022325 39.9550563,11.5768391 C40.0125211,11.6947726 39.4611127,11.6398215 39.1450563,11.5352031 C38.9109718,11.4354458 38.9097042,11.139344 38.990831,10.9472266 C39.3932958,9.99551624 40.8575915,9.40141057 41.7890704,9.1401816 Z M43.0781408,15.8281503 C45.0617324,15.4341933 47.2671549,15.8655593 48.9272958,17.0288313 C51.9040563,19.1146474 53.2394789,23.4283068 51.8560986,26.8020916 C50.4832817,30.1505143 46.7309577,32.2807139 43.1529296,31.6409566 C39.5003239,30.9878841 36.674831,27.3082755 37.0688451,23.6011914 C37.2363803,22.0230387 37.9244789,20.6006513 38.9425775,19.5255123 C38.9503944,19.488526 38.9590563,19.451117 38.9736338,19.4126513 C39.6894085,17.5069057 41.0457465,16.2320407 43.0781408,15.8281503 Z M24.927169,18.8587444 C22.6528732,17.4891945 19.3091408,18.2538599 17.3555493,19.9072532 C16.967662,20.2356916 16.5299155,20.1395272 16.2918169,19.8529362 C14.9659014,20.9236368 14.0297746,22.4214763 13.8793521,24.2454294 C13.6099859,27.5169205 15.9387887,29.6684665 19.0765352,29.9159577 C22.2831549,30.168944 25.6017465,29.2736642 27.1120986,26.1999969 C28.4162535,23.5464939 27.459,20.3832141 24.927169,18.8587444 Z M46.4573662,19.0003068 C44.6765915,18.3017941 42.1225775,18.7145613 40.5676479,19.9099585 C39.3839155,21.436753 38.8077887,23.5316571 39.2628592,25.2473988 C39.9203239,27.7252697 42.2970845,29.6555319 44.9081408,29.3809879 C47.3246197,29.1269448 49.5078592,27.1918215 49.7672958,24.7348744 C50.0168028,22.3717667 48.7204648,19.8879781 46.4573662,19.0003068 Z M44.9464648,22.7082998 C45.3523099,22.4187499 45.8365352,22.7448634 45.9850563,23.1310004 L46.0700915,23.3059984 C46.1149859,23.3996266 46.1611479,23.496425 46.1627324,23.500018 L46.1787887,23.5467264 C46.200338,23.5870943 46.2261127,23.6247147 46.2506197,23.6629691 C46.2696338,23.6760728 46.4274507,23.8736853 46.4485775,23.8994701 C46.7031549,24.2139593 46.8383662,24.501607 46.830338,24.9154309 C46.8149155,25.7335679 46.0518169,26.3097088 45.2606197,26.1116736 C44.4096338,25.8986325 44.0473099,25.0181472 44.1248451,24.2097323 C44.1863239,23.5697636 44.4193521,23.084292 44.9464648,22.7082998 Z M21.842493,22.8645722 C22.2179155,22.5230301 22.7972113,22.4942865 23.1677746,22.8645722 C23.3712254,23.0678912 23.4536197,23.2944587 23.5996056,23.5309597 L23.6687842,23.639595 C23.8207268,23.8729742 23.9796197,24.0970403 24.0204507,24.3833354 C24.1172113,25.0573315 23.9082676,25.6846192 23.2444648,25.965081 C22.5842535,26.2436407 21.9728451,25.9587405 21.5708028,25.4164157 C21.0950282,24.7739108 21.2395352,23.4128149 21.842493,22.8645722 Z" id="ðŸ–-Ink"></path>
                    </g>
                    <g id="facial-hair/*-None" transform="translate(104.577451, 109.479380)"></g>
                    <g id="accessories/*-None" transform="translate(88.521127, 88.978474)"></g>
                </g>
            </g>
        </g>
    </g>
</svg>