<?xml version="1.0" encoding="UTF-8"?>
<svg width="240px" height="324px" viewBox="0 0 240 324" version="1.1" xmlns="http://www.w3.org/2000/svg" xmlns:xlink="http://www.w3.org/1999/xlink">
    <!-- Generator: Sketch 62 (91390) - https://sketch.com -->
    <title>peep-58</title>
    <desc>Created with Sketch.</desc>
    <g id="Introduction" stroke="none" stroke-width="1" fill="none" fill-rule="evenodd">
        <g id="variations" transform="translate(-2046.000000, -434.000000)">
            <g id="images" transform="translate(126.000000, 110.000000)">
                <g id="a-person/bust" transform="translate(1920.000000, 324.000000)">
                    <g id="body/Fur-Jacket" transform="translate(31.056338, 135.052838)" fill-rule="evenodd">
                        <path d="M18.1058873,150.310469 C19.2199014,152.003596 21.411169,151.743213 22.3519437,150.431784 C33.0644789,152.928676 44.0468028,151.944629 54.9082817,151.332559 C85.5152535,150.086649 116.294831,153.99198 146.778,149.906578 C150.011662,149.259635 153.775394,149.568841 156.42131,147.325146 C160.653211,142.364121 159.741803,134.831807 159.067648,128.789303 C153.664056,94.7272438 145.98173,60.3528348 142.149547,26.0718172 C141.935533,22.8064552 143.280676,18.7491382 144.486592,15.6794865 C144.784479,15.108418 146.667085,14.5487624 147.643986,13.8899836 C150.642085,11.7371695 150.155958,7.87918121 147.556944,5.61540822 C139.141944,-0.318462622 127.427593,1.75503608 118.500908,3.94430372 C116.790197,-2.48346428 114.867218,-6.71098957 111.610028,-7.12964853 C105.410465,-7.92650193 90.3717939,-10.3615595 85.7394358,-7.12964853 C83.5233246,-5.58350854 82.1008944,-0.135500637 80.5056761,2.51849237 C68.8718028,2.31179178 45.2599014,-13.2592297 40.4056056,4.27502466 C36.461662,4.54745519 32.5553239,7.99204227 33.3097606,12.1256313 C28.1947606,16.6472595 32.2291268,23.4271656 32.1583521,29.0552125 C31.4858873,40.9962928 25.0270141,51.6754004 22.3399014,63.2104767 C16.1977183,85.582962 9.24574648,126.27825 16.8638451,148.116019 C16.6999014,148.030422 16.3418028,148.159346 16.5737746,148.340895 C17.4363803,148.584371 17.5485634,149.671346 18.1058873,150.310469 Z" id="ðŸŽ¨-Background" fill="#FFFFFF"></path>
                        <path d="M151.859852,144.620961 C150.431049,133.145908 149.437458,119.293376 149.426049,107.722582 C149.424993,106.632859 151.115134,106.634762 151.11619,107.722582 C151.127599,119.293376 152.12119,133.145908 153.549993,144.620961 C153.684359,145.699693 151.992528,145.686378 151.859852,144.620961 M141.275345,73.4709417 C139.067599,74.8216814 136.168373,73.8847656 133.983444,72.9903311 C132.988585,72.5830591 133.426754,70.9480532 134.432599,71.359975 C136.095486,72.0407342 138.525908,73.0429573 140.280908,72.0935718 C142.032528,71.1458771 142.111542,68.5390826 142.124641,66.8189025 C142.13288,65.7296031 143.82281,65.7304485 143.81481,66.8189025 C143.797035,69.1591843 143.484148,72.1191452 141.275345,73.4709417 M137.188796,125.982613 C134.961401,124.840476 133.060838,123.27902 131.531261,121.296977 C130.866401,120.435302 132.335345,119.594339 132.990697,120.443544 C134.336894,122.18803 136.090838,123.522284 138.041894,124.522816 C139.01119,125.019912 138.154923,126.478229 137.188796,125.982613 M126.482599,66.9731883 C122.660768,82.2941824 120.095979,97.8895092 118.838937,113.630879 C118.583303,116.826495 118.403725,120.017885 118.302317,123.211388 C118.200908,124.044108 118.103725,124.878942 118.01288,125.713775 C117.668514,128.871137 117.40443,132.079646 117.427669,135.258355 C117.438232,136.684969 117.482599,138.105243 117.579782,139.527419 C117.410768,139.051881 117.25443,138.574441 117.102317,138.098903 C116.791754,137.124578 116.586824,136.114323 116.269923,135.146339 C116.007951,134.345321 115.669923,133.57812 115.355134,132.802464 L115.355134,132.800351 C115.450204,129.623756 115.234711,126.417572 115.124852,123.255771 C114.983303,119.159803 114.807951,115.068061 114.717106,110.969979 C114.535415,102.773814 114.626261,94.5713096 114.922035,86.3795836 C115.515697,69.8729143 117.015697,53.4448673 118.528373,37.0058301 C118.948796,32.4343233 119.400908,27.8649299 119.713585,23.2847577 C120.028373,18.6563977 120.155134,14.0193722 120.191049,9.37833112 C120.193162,9.0441863 119.68612,8.95563053 119.593162,9.27878513 C119.510768,8.1776501 119.364993,7.07862857 119.122035,6.01553659 C122.766401,8.34038982 126.609359,10.3503311 130.376261,12.4638341 C132.360063,13.5776501 134.335415,14.7104877 136.380486,15.7080611 C137.50443,16.2573605 138.638937,16.762699 139.796683,17.2403507 C140.996683,17.7349104 142.143866,18.4154583 143.464289,18.070746 C143.578373,18.0413683 143.68612,17.9990982 143.789641,17.9441472 C143.639641,18.2292587 143.489641,18.5126795 143.345979,18.8003272 C142.847387,19.7913487 142.372035,20.7868086 141.911472,21.7907225 C141.788937,21.8816031 141.68119,22.0065112 141.596683,22.1690395 C141.372739,22.6065346 141.155134,23.0482568 140.943866,23.496108 C140.901613,23.4561628 140.859359,23.4160063 140.817106,23.3758497 C140.639641,23.208883 140.39457,23.4601785 140.550908,23.6421511 C140.622739,23.7243663 140.692458,23.8048908 140.762176,23.8873174 C139.384711,26.852562 138.264993,29.9699789 137.111472,33.0136344 C135.693866,36.7543233 134.350204,40.522699 133.084711,44.3164368 C130.589641,51.7792157 128.388232,59.3392157 126.482599,66.9731883 M71.8424577,122.574167 C64.7985845,126.347826 58.216331,130.857619 51.8854859,135.721846 C51.0224577,136.384852 50.1816127,134.915333 51.0323873,134.261838 C57.3632324,129.397822 63.9456972,124.887818 70.9895704,121.113948 C71.9491479,120.600155 72.8018239,122.060163 71.8424577,122.574167 M48.0516127,78.377016 C47.6854859,78.3497519 47.3297113,78.1373448 47.2367535,77.7564916 C46.6661197,75.41938 46.2192887,72.8734544 46.749993,70.4896344 C46.9866127,69.4263311 48.6156972,69.8788321 48.3797113,70.9389652 C47.9611901,72.8187147 48.2937254,74.8506364 48.7283028,76.7251022 C54.8717535,76.9941511 60.9328099,74.7887108 66.8104859,73.3077793 C67.8674577,73.0414779 68.3138662,74.6726795 67.2598521,74.9381354 C61.0249225,76.5088908 54.5757676,78.8601628 48.0516127,78.377016 M170.35443,140.717533 C170.360768,140.702738 170.367106,140.68583 170.371331,140.671036 C170.732599,139.576241 170.741049,138.303912 170.78119,137.156492 C170.850908,135.114636 170.776965,133.068766 170.593162,131.033462 C170.20443,126.749392 169.36781,122.535067 168.368514,118.35646 C166.388937,110.080194 163.591754,102.027748 162.072739,93.6392548 C159.091754,77.1729534 159.7995,60.0282176 153.9495,44.1454544 C151.51781,37.5426599 148.04457,31.1958106 143.324852,25.9500963 C143.669218,24.9017988 144.005134,23.8513879 144.332599,22.7967499 C144.905134,20.9622294 145.490345,19.0685307 145.843162,17.1790591 C145.851613,17.128335 145.862176,17.0754975 145.868514,17.0226599 C147.877669,16.1561237 149.705134,14.5223859 150.01781,12.3497049 C150.153021,11.4113096 149.996683,10.3714661 149.591049,9.46477339 C150.419218,8.69968532 150.951613,7.70633894 150.824852,6.37483209 C150.588232,3.86821761 147.662176,3.22338787 145.625556,2.73326654 C143.310063,2.17741526 140.907951,2.02312955 138.539641,2.28520391 C137.343866,2.4162411 136.160768,2.6360454 135.005134,2.96575186 C134.001613,3.25107476 132.909359,3.54485166 132.10443,4.23385362 C132.009359,4.31416673 132.087528,4.47056595 132.201613,4.47056595 C133.830486,4.46443679 135.453021,3.86610411 137.098796,3.78769315 C138.822739,3.70759139 140.542458,3.84919609 142.232599,4.20426458 C143.884711,4.55087906 145.532599,5.05811977 147.034711,5.84222935 C147.457246,6.06414716 148.076261,6.21420587 147.579782,6.66226849 C147.216401,6.98986145 146.502317,7.01754834 146.035415,7.06594755 C145.002317,7.1737362 144.110768,7.77819804 143.979782,8.88144658 C143.863585,9.85577143 144.44457,10.95902 145.479782,11.1788243 C145.536824,11.1917166 145.589641,11.2062998 145.63612,11.2253213 C145.663585,11.2781589 145.705838,11.3225425 145.701613,11.2506834 C145.701613,11.2506834 145.703725,11.2485699 145.703725,11.2506834 C145.729077,11.4049691 145.737528,11.4660493 145.737528,11.4768282 C145.73119,11.4641472 145.720627,11.4113096 145.712176,11.3690395 C145.718514,11.4070826 145.73119,11.4683742 145.748092,11.5592548 C145.724852,11.4599202 145.743866,11.7031843 145.724852,11.741016 C145.175556,12.7554975 143.550908,13.0410317 142.60443,13.4783155 C142.420627,13.5626442 142.262176,13.6621902 142.126965,13.7739945 C141.903021,13.6960063 141.674852,13.6178067 141.44457,13.531153 C140.310063,13.1063389 139.177669,12.6942059 138.028373,12.3114505 C135.810063,11.5698223 133.564289,10.9082959 131.345979,10.1643429 C127.145979,8.7567499 123.085415,6.97929393 118.963585,5.3688047 C118.832599,4.88269902 118.680486,4.40716086 118.500908,3.94430372 C118.464993,3.84729393 118.291754,3.81538004 118.272739,3.94430372 C118.209359,4.35432329 118.158655,4.76645636 118.116401,5.18070294 C118.0995,5.21874599 118.095275,5.26101605 118.103725,5.3011726 C117.864993,7.71056595 117.928373,10.1770239 117.805838,12.5843037 C117.653725,15.5854779 117.229077,18.565517 117.108655,21.5688047 L117.108655,21.6237558 C116.664993,24.1874348 116.263585,26.7595679 115.900204,29.340155 C115.492458,29.2133448 115.025556,29.2387068 114.548092,29.4944407 C111.172035,31.2972587 107.377669,32.3011726 103.560063,32.5252039 C101.637528,32.6370082 99.734007,32.5740258 97.8220352,32.3518967 C96.564993,32.2081785 95.3269648,31.9461041 94.0868239,31.6967108 C94.7396408,28.9597245 95.4410493,26.2354192 96.2333028,23.5388008 C96.8861197,21.3215249 97.6128803,19.1150278 98.5107676,16.9825033 C99.4171056,14.8288438 100.545275,12.7724055 101.595275,10.6842646 C102.079077,9.71839374 101.508655,8.24105519 100.251613,8.34250333 C99.8797817,8.37209237 99.5079507,8.3953409 99.134007,8.41224892 C95.4959789,8.58576751 91.7121761,8.17997495 88.1206268,7.8183546 C84.0325986,7.40410802 79.8896408,6.97485558 75.8375282,6.30085949 C75.5375282,6.25224892 75.414993,6.66015499 75.7107676,6.75948963 C77.6333028,7.40622153 79.5325986,8.13728219 81.5037254,8.62148571 C83.5318944,9.12238591 85.5727394,9.57890254 87.6304859,9.93608454 C89.6016127,10.2765699 91.5811901,10.5616814 93.5671056,10.8026207 C94.8621761,10.9611335 96.1720352,11.0414466 97.4755563,11.1471217 C95.7199225,13.9538536 94.5093592,17.1196697 93.4551338,20.2370865 C92.1009085,24.2402724 91.105838,28.3594896 90.1318944,32.4702528 C88.0487958,41.2814466 86.3311901,50.1814074 84.9875282,59.1363194 C84.0241479,65.5571413 83.2445704,72.0033252 82.6593592,78.4664172 C82.4861197,76.502973 82.2748521,74.5458693 82.0361197,72.5908791 C81.2375282,66.1001002 80.071331,59.6520141 78.5121761,53.3009378 C78.6516127,53.0557714 78.7171056,52.7619945 78.6706268,52.4766716 C78.3896408,50.7309182 77.6502042,49.2113096 77.0016127,47.5923663 C76.3572465,45.3309182 75.6621761,43.0842646 74.9142887,40.854519 C74.064993,37.8174153 73.1121761,34.8268086 71.893162,31.9059476 C70.9614718,29.680429 69.8987958,27.5117636 68.7156972,25.4090395 C67.3023169,22.4691569 65.7495,19.5928908 64.0445704,16.8430121 C63.955838,16.5872783 63.8121761,16.3484524 63.6072465,16.1476697 C63.2966831,15.657337 62.9818944,15.1733448 62.6607676,14.6935796 C62.4516127,14.3807812 61.8516127,14.5709965 62.0100634,14.968335 C62.084007,15.1545346 62.1579507,15.3403115 62.234007,15.5243977 C55.2896408,13.7868869 48.4804859,16.4435601 41.8656972,18.4048908 C40.1966831,18.901564 38.5107676,19.3496266 36.7995,19.6729926 C35.4537254,19.9266129 33.8861197,20.2351843 32.5445704,19.9559906 C31.6466831,19.7702137 31.2495,19.3623076 31.6868239,18.4027773 C32.1389366,17.4096423 33.3727394,16.7563585 34.4438662,16.3169613 C34.8473873,16.2300963 35.2445704,16.0758106 35.6269648,15.8433252 C36.5185141,15.3022685 36.9093592,14.1736579 36.4889366,13.2120141 C36.1065423,12.3433644 34.9910493,11.5951843 34.0044296,11.9925229 C33.8628803,12.0495875 33.7234437,12.1045386 33.584007,12.1594896 C33.5692183,12.1383546 33.5523169,12.1087656 33.5375282,12.0664955 C33.3959789,11.6797245 33.3347113,12.142793 33.3959789,11.5888438 C33.4973873,10.6842646 34.4544296,9.86211194 35.1093592,9.34430372 C36.7382324,8.05295342 39.0917535,7.0976501 41.1938662,7.58586928 C41.3523169,7.62179883 41.5107676,7.66618239 41.6671056,7.72113346 C43.8325986,8.47142701 44.8868239,5.35189667 43.1565423,4.18947006 C43.0509085,4.11972446 42.9178099,4.03095734 42.7720352,3.92739569 C42.0516127,3.4264955 40.9973873,2.58320783 41.2847113,1.82255812 C41.6396408,0.877610959 43.7333028,0.334440705 44.5255563,0.0131882583 C47.3903451,-1.14923836 50.4854155,-1.80865127 53.5741479,-1.94391546 C56.6818944,-2.07917965 59.8297817,-1.73679217 62.827669,-0.897942857 C64.2980915,-0.487711937 65.8086549,0.135771429 67.1987958,0.765806654 C68.4473873,1.32990059 71.1642887,2.07596712 71.3375282,3.65686732 C71.3755563,4.00580665 71.8720352,4.12395147 71.9797817,3.74352094 C72.8311901,0.708530724 69.5269648,-1.2506865 67.3466831,-2.50399374 C65.9164014,-3.32847123 64.2938662,-3.8418411 62.7241479,-4.3469683 C61.2199225,-4.83307397 59.684007,-5.19025597 58.1164014,-5.40604462 C54.7509085,-5.86657691 51.3452746,-5.80739883 48.0072465,-5.16066693 C44.9671056,-4.57078826 41.5847113,-3.56497221 39.127669,-1.60786849 C37.6192183,-0.407398826 36.9368239,1.50320783 37.543162,3.36731742 C37.5642887,3.428609 37.5854155,3.49201409 37.6065423,3.55330568 C34.8917535,4.03941135 32.3227394,5.59494951 30.6051338,7.76340352 C29.1938662,9.5450865 28.4544296,12.0242254 29.7178099,14.0977832 C29.664993,14.1356149 29.6121761,14.1757714 29.5614718,14.2180415 C28.3572465,15.1817988 27.4614718,16.5811491 27.1952746,18.1111139 C26.6734437,21.1291961 28.4966831,23.2405855 31.0466831,24.0479436 C30.414993,24.6652978 29.8086549,25.3202724 29.214993,25.9754583 C27.8861197,27.4443429 26.6164014,29.0440532 25.4966831,30.6758888 C23.227669,33.9814074 21.2882324,37.5807029 19.5917535,41.207474 C16.1037254,48.6554583 13.9044296,56.671975 12.7382324,64.8005072 C12.1509085,68.8964759 11.7579507,73.0135796 11.6079507,77.1475914 C11.4347113,81.8607029 11.6100634,86.575928 11.5192183,91.291153 C11.4304859,95.8225033 10.9297817,100.243951 9.91780986,104.661384 C8.94809155,108.886065 7.6551338,113.026417 6.48471127,117.196359 C5.16428873,121.892562 3.71076761,126.567631 3.01358451,131.409666 C2.66076761,133.873799 2.40724648,136.344695 2.60372535,138.836515 C2.8023169,141.374832 3.72344366,143.5454 4.57273944,145.906182 C4.78823239,146.508742 5.44527465,146.751584 5.97133099,146.62266 C6.08964085,147.753384 6.51640141,148.856632 7.1523169,149.811936 C8.5023169,151.836672 10.5811901,153.128022 12.9621761,153.59722 C15.6452746,154.123482 18.4107676,153.998785 21.127669,153.901564 C24.0748521,153.795889 27.0241479,153.700781 29.971331,153.578198 C33.0568944,153.450754 36.1422465,153.319717 39.2278099,153.188045 C39.1257676,150.024343 39.0040775,146.861697 38.8665423,143.699474 C38.122669,126.604617 36.9511901,109.499615 36.9201338,92.3823546 C36.8603451,92.3472705 36.8016127,92.3056344 36.7454155,92.2511061 C35.356331,90.907975 33.6509789,90.0257988 32.0487254,88.9745425 C31.1419648,88.3795914 31.9895704,86.916202 32.9018239,87.514746 C34.252669,88.4009378 35.6603451,89.188429 36.9262606,90.181564 C36.9336549,88.3996697 36.9492887,86.6179867 36.9845704,84.835881 C37.0061197,83.7476384 38.6962606,83.7476384 38.6747113,84.835881 C38.5686549,90.2065033 38.6041479,95.5783937 38.7256268,100.948382 C39.1187958,118.350542 40.3547113,135.720366 40.9175282,153.115764 C49.1992183,152.761752 57.481331,152.405204 65.7642887,152.102762 C72.5016127,151.857807 79.2389366,151.61264 85.9762606,151.367474 C87.3896408,151.316961 88.184007,150.306284 88.3572465,148.985345 C88.6741479,146.554816 88.0783732,144.042073 86.7304859,141.998315 C86.5910493,141.786965 86.4262606,141.598863 86.2424577,141.438237 C86.2741479,139.982034 86.3333028,138.523505 86.2509085,137.067513 C86.1283732,134.844108 85.9445704,132.620703 85.784007,130.399411 C85.4586549,125.950488 85.2072465,121.49311 85.1079507,117.033619 C84.9051338,108.114636 85.0530211,99.1872 85.5579507,90.2808986 C86.5699225,72.4873174 88.9255563,54.8078654 92.7811901,37.4031687 C93.0621761,36.1350669 93.3452746,34.8669652 93.6389366,33.6009769 C96.6368239,35.1586286 100.283303,35.7184955 103.560063,35.7398419 C107.667106,35.7652039 111.683303,34.8202568 115.393162,33.1024016 C115.36781,33.294519 115.342458,33.4847342 115.319218,33.677063 C114.284007,41.9197245 113.411472,50.1790826 112.650908,58.4494309 C111.134007,74.9368673 110.20443,91.4919358 110.333303,108.053133 C110.369218,112.64176 110.54457,117.21538 110.762176,121.797454 C110.984007,126.457728 111.324148,131.38219 112.621331,135.877611 C112.764993,136.374073 113.084007,136.659607 113.451613,136.763169 C113.470627,137.418355 113.51288,138.075654 113.559359,138.722386 C113.709359,140.825321 114.138232,145.193932 115.055134,147.1001 C115.948796,148.960194 117.438232,150.435419 119.337528,151.247216 C121.750204,152.27628 124.359359,151.98039 126.907246,151.815537 C137.98612,151.092719 149.056542,150.124734 160.129077,149.275106 C161.671331,149.15675 163.213585,149.040507 164.753725,148.920038 C166.124852,148.814362 167.542458,148.721157 168.759359,148.009118 C170.143162,147.199646 171.222739,143.224147 170.745275,141.579842 C170.658655,141.279724 170.527669,140.983834 170.35443,140.717533" id="ðŸ–-Ink" fill="#000000"></path>
                    </g>
                    <g id="head/hat-hip" transform="translate(78.591549, 38.043053)" fill-rule="evenodd">
                        <path d="M88.4325423,59.8527335 C88.3484577,55.1180642 88.2555,50.28871 87.5519789,45.6001151 C86.8640915,41.0163499 84.9717676,36.8730387 81.7199366,33.544483 C74.8129648,26.4741816 64.800993,24.7472384 55.4815563,23.1646474 L39.5479648,20.4587295 C34.6869085,19.6334067 29.5009225,18.3141581 24.5895845,19.484616 C22.1695141,20.061391 20.1143028,21.4013519 18.2359225,22.9866904 C16.4253592,24.514753 14.4787394,26.1556767 13.2519085,28.211481 C12.0229648,30.2702442 11.6002183,32.67689 11.2007113,35.0053362 C10.7500775,37.6305182 10.400007,40.2762012 10.1513451,42.9282247 C9.65296479,48.241571 9.58493662,53.5948626 9.94641549,58.9191992 C10.1215563,61.5016885 10.4002183,64.0767804 10.755993,66.6404595 C10.9324014,67.9117315 11.131838,69.1798333 11.3570493,70.4434967 C11.4233873,70.8161072 11.4738803,71.228663 11.5419085,71.6454458 C11.0393028,73.0754419 10.753669,74.5563734 10.7766972,76.0309644 C10.8445141,80.3746356 14.5093732,83.1092971 18.2040211,84.5775476 C20.3462746,85.4288665 22.5859225,86.0073323 24.6907817,86.9584086 C26.9050775,87.9587295 28.4122606,89.5804204 29.9262042,91.4303695 C32.8135986,94.9586513 36.0719789,98.1297511 39.7926127,100.775434 C47.6809225,106.384882 57.6721901,109.037962 67.2434577,107.024217 C69.5399366,106.54107 71.8566972,105.790777 73.920993,104.660264 C76.1004296,103.466769 77.7392324,101.737289 79.1154296,99.6924751 C81.6707113,95.8964125 83.5032465,91.6218528 84.8895845,87.2720524 C86.3035986,82.8349644 87.307331,78.389845 87.8547254,73.7631757 C88.4002183,69.1515123 88.5151479,64.4929292 88.4325423,59.8527335 L88.4325423,59.8527335 Z" id="ðŸŽ¨-Background" fill="#FFFFFF"></path>
                        <path d="M37.586831,3.96573464 C44.180493,3.05840783 53.2812676,6.00737847 56.565,11.9535076 C72.2423239,8.2561456 92.015493,8.13504188 104.936831,20.4434489 C118.419718,35.0439499 101.484507,54.2947914 90.255,58.635081 C91.0726056,62.609946 89.7978169,88.0744861 80.7777465,99.4330849 C73.6191549,109.057132 56.948662,113.498658 49.2346479,102.003527 L49.1744756,101.908679 C48.3480316,100.581132 49.0597999,100.62376 49.908169,101.611261 C57.461831,108.256537 67.7321831,108.370032 75.6464789,101.357007 C90.4791549,88.5386114 88.9497887,57.1087092 81.8917606,38.9260321 C61.7938732,36.7178442 40.2754225,42.8117072 26.3940845,57.9462904 L27.3327465,63.5994881 C27.4926761,64.5626114 27.6743662,65.5248892 27.8129577,66.4913941 C27.9016901,67.1106505 27.9116197,67.7265252 27.4827465,68.2278481 C26.0666197,69.8827209 23.6799296,67.3959734 21.7161972,66.406854 C21.1364789,66.3252728 20.5557042,66.2937816 19.9861268,66.3339382 C10.551338,67.549625 12.4102817,85.858901 22.7797183,82.6495468 C23.6509859,82.1065879 24.399507,82.2722865 24.7375352,83.0602004 C27.2091549,85.3250301 28.8388732,89.3643569 32.9452817,93.2548932 C34.3941549,94.7142669 35.7126761,95.9352376 37.3423944,97.1059068 C38.2996479,98.0743139 41.1880986,99.0617425 40.2724648,100.71894 C38.5409155,104.489852 28.3301408,92.6447249 26.5248592,89.3690067 C20.8685915,91.603402 14.6002817,90.8444431 8.73866197,90.2983139 C-22.1845775,88.6899382 -18.0564085,56.0807014 7.2906338,35.4928579 C12.0619014,31.9789479 17.3260563,29.1124039 22.7980986,26.9065409 C23.5451408,26.6053667 23.2187324,25.3782669 22.4611268,25.6836681 C18.8404225,27.1434646 15.3107746,28.8809753 11.9461268,30.8919734 L11.9410329,29.6896896 C11.9361033,27.6646896 11.9678521,25.5564705 12.3194366,23.7062748 C12.4952113,22.4242239 12.7907746,21.0548853 13.2458451,20.024764 C13.8084507,16.8665566 22.6214789,6.0259773 37.586831,3.96573464 Z M19.5734366,70.5373996 C20.0509014,70.0836305 20.9422394,70.6246873 21.3673099,70.6111609 C22.4542817,70.7599515 23.4869577,71.2192157 24.2923099,71.7860571 C24.8240704,72.0840611 25.1967465,72.3638888 25.5081549,72.6213135 L25.5166056,72.6189886 C25.5142817,72.6189886 25.5113239,72.6213135 25.5087887,72.6219476 L25.5381,72.6417614 C25.9915376,72.9640533 27.6514411,74.77939 26.6027324,74.2911922 C26.5245634,74.1895327 26.444493,74.0918888 26.3637887,73.9961472 C26.3551268,74.0092509 26.3430845,74.0221432 26.3287183,74.0346129 L26.387625,74.122067 C27.2789615,75.4633988 25.7400535,74.0502528 25.5032958,73.6748947 C25.4920986,73.6839828 25.4794225,73.6901119 25.4669577,73.6966638 L25.7752888,74.0720727 C25.8183948,74.1253714 25.8522835,74.1679221 25.8804085,74.2039045 L25.945426,74.2666956 C26.9759912,75.2800555 27.0081869,76.1920426 25.8109014,74.6938145 C25.8580141,74.7644055 25.895831,74.8392235 25.9011127,74.9055875 L25.9720666,74.9960724 C26.912131,76.2079083 26.1475002,75.7775357 25.6803678,75.2599649 L25.6412775,75.2154462 L25.6492759,75.2275339 C26.0838492,75.8972591 25.2215971,75.4273439 25.0692326,75.0691011 L25.0628028,75.0528986 C24.8967746,74.9173808 24.7946075,74.7652932 24.759565,74.726887 L24.7530845,74.7204446 C23.9447746,73.8919515 22.7730845,73.1909025 21.7778028,72.8723977 C21.633507,72.8449221 21.4875211,72.8229417 21.3400563,72.8073018 C20.7415352,72.6737284 20.1364648,72.5822137 19.5250563,72.5327577 C19.4502676,72.523881 19.3744225,72.4689299 19.3178028,72.3979162 C18.39326,72.3667242 18.6786544,71.9876128 19.0622401,71.9172123 L19.0689535,71.9160568 L18.9928545,71.9096487 C18.3995214,71.8517198 17.9943094,71.6387496 18.5942451,71.508036 L18.6702676,71.4929143 C18.6609718,71.4783311 18.6527324,71.4637479 18.6447042,71.4491648 C18.1309014,71.3927342 18.4661831,70.8931022 18.7513944,71.0139945 C18.6313944,70.621517 19.1798451,70.8174387 19.2482958,70.7591061 C19.3004789,70.7011961 19.365338,70.6500493 19.4027324,70.6473018 C19.5679437,70.5306364 19.4878732,70.5412039 19.5734366,70.5373996 Z M22.7171831,64.1830262 L22.5967606,64.2534059 C22.4993662,64.3102591 22.3992254,64.3480908 22.298662,64.3702826 C22.4406338,64.4307288 22.5809155,64.496036 22.7197183,64.5657816 C22.7174648,64.480537 22.7158685,64.3953863 22.7158685,64.3103922 L22.7171831,64.1830262 Z" id="ðŸ–-Ink" fill="#000000"></path>
                    </g>
                    <g id="face/Smiling" transform="translate(112.183099, 77.354207)" fill="#000000" fill-rule="evenodd">
                        <path d="M30.968993,50.9198978 C29.548794,50.3403012 28.2816173,49.3734958 27.3551889,48.1384646 C27.0331038,47.7091169 26.9495926,47.2557326 27.017159,46.8410547 C27.0931327,46.3747786 27.3688808,45.9521824 27.7449394,45.6687178 C28.1221628,45.3843752 28.5940214,45.2441445 29.0502103,45.3156301 C29.4466117,45.3777469 29.8412104,45.5948709 30.1535058,46.0451781 L30.2187521,46.1352289 C30.7695298,46.8806513 31.4872438,47.4922614 32.3050288,47.8864795 C33.0932406,48.2664417 33.9747757,48.4437847 34.8870208,48.3406561 C36.6244504,48.1443157 37.8219743,47.2043274 39.0948115,45.9278391 C39.2525834,45.7666792 39.4104563,45.6004672 39.5690946,45.4315797 C39.6692778,45.278484 39.8083069,45.1800892 39.962667,45.1284632 C40.1340565,45.0711416 40.327938,45.0743848 40.5055187,45.1363808 C40.6767961,45.1961763 40.8299095,45.309486 40.9325762,45.4602937 C41.0301525,45.6036243 41.0854754,45.7806897 41.0675245,45.9843589 C40.9510195,47.3072301 40.2596776,48.4878363 39.2776553,49.4148615 C38.1869942,50.4444414 36.7412431,51.1567117 35.3801317,51.4065272 C33.8805866,51.6817086 32.3525901,51.4845569 30.968993,50.9198978 L30.968993,50.9198978 Z M36.0875289,30.5120405 C37.6828906,31.482148 40.1137318,33.7442494 38.3974899,36.149264 C36.3773089,38.2698449 33.4687045,35.8384541 32.0353946,34.7388307 C30.7063626,33.8866164 29.2131206,36.0784478 30.4461973,37.0735516 C40.8033244,44.7445605 45.006466,30.7657101 36.8944406,29.3714319 C36.0012775,29.2177885 35.6695544,30.2119271 36.0875289,30.5120405 Z M17.5274577,21.5886716 C17.7037243,19.3998697 21.0359789,18.9028321 21.3674577,21.0687499 C21.6642887,23.0089456 21.3148521,24.7912626 20.4412606,26.5380728 C19.6065423,28.2068947 17.5085456,27.4283107 17.3498837,25.9087021 C17.1372039,23.8717299 17.4178099,22.9502317 17.5274577,21.5886716 Z M42.8930282,20.6196517 C43.3576056,20.0109628 44.0283803,19.5954481 44.8320423,19.8302583 C47.3429577,20.5642779 46.6028873,24.1303914 45.7210563,25.8662114 C45.2419014,26.8088337 43.6930986,27.0478708 42.993169,26.2178982 C41.8523239,24.864411 41.3059859,22.1614521 42.756338,20.8282544 C42.7956338,20.7593542 42.8393662,20.68982 42.8930282,20.6196517 Z M20.4058944,12.0111429 L20.802522,11.9416942 C22.0295218,11.7294045 23.5551549,11.5254176 24.4231479,12.5122544 C24.8835,13.0355577 25.0419507,14.0081918 24.4231479,14.509092 C23.3346972,15.3904227 22.1313169,15.0488806 20.8269507,15.1234873 C19.7520211,15.1852016 18.7189225,15.3631585 17.6835,15.6592603 C15.4119507,16.3087397 13.5610352,17.4944149 11.6209648,18.7963327 C11.3663873,18.9671037 11.1065282,18.6414129 11.228007,18.4032211 C12.3479366,16.208771 14.5182887,14.4061644 16.6922324,13.3073542 C17.8525141,12.7208571 19.1222324,12.2343288 20.4058944,12.0111429 Z M40.6041287,11.0281289 L40.9077055,11.0902829 C44.2113469,11.7811043 48.5035506,13.1610768 50.0679842,16.4073021 C50.1275964,16.8663298 50.0646105,16.9647086 50.0133917,17.0289838 L49.9963385,17.0503723 C49.9541341,17.1052595 49.9204583,17.1809212 49.7215736,17.2433957 C49.6663832,17.2302408 49.6106433,17.216308 49.5543131,17.2015401 C48.8372041,17.0135386 48.2698321,16.7545401 47.720556,16.4857982 L47.1250012,16.192275 C46.4340388,15.8533498 45.7369757,15.5267598 44.9982488,15.2856588 C43.4217423,14.7712438 41.8001698,14.4088706 40.1534741,14.2153715 C39.7965654,14.1734678 39.4528848,14.0529641 39.1817455,13.8464404 C38.92438,13.6504079 38.7277692,13.3789964 38.6381257,13.0182314 C38.5219478,12.5513438 38.5553348,12.1978716 38.8057421,11.7766707 C38.9940329,11.4603578 39.263447,11.2411116 39.5728025,11.115213 C39.888177,10.9868648 40.2472278,10.9566068 40.6041287,11.0281289 Z" id="ðŸ–-Ink"></path>
                    </g>
                    <g id="facial-hair/Moustache-4" transform="translate(104.577451, 109.479380)" fill="#000000" fill-rule="evenodd">
                        <path d="M64.4933662,2.7485683 C63.7932254,1.80827084 62.5347042,0.574196477 61.2616056,0.64056047 C61.0987183,0.649014481 61.037662,0.825491977 61.1354789,0.944904892 C61.5518873,1.45362505 62.120831,1.81545675 62.5380845,2.33474442 C63.0318169,2.94935108 63.3882254,3.69055656 63.6199859,4.44021605 C63.9567465,5.52930411 64.0497042,6.76189902 63.749493,7.86937456 C63.2204789,9.82140587 61.5478732,11.2522474 59.7229437,11.9828853 C57.9166056,12.706126 55.7430845,12.9531945 54.0347746,11.8934841 C51.5132958,10.3290693 49.3746338,8.07396164 46.2054085,8.02936673 C45.4640704,8.01901057 44.9416056,8.35865049 44.6304085,8.84348806 C44.3177324,8.37598121 43.8018169,8.045218 43.0790704,8.03697534 C39.5261831,7.99703014 36.8743521,10.4438325 33.8923099,11.9691476 C31.8770282,13.0001143 29.2693521,12.6801299 27.1902676,11.9989479 C25.2290704,11.3566544 23.1001268,10.0667836 22.3602676,8.03000078 C21.9518873,6.90519452 22.0433662,5.5918638 22.4627324,4.48312016 C22.7384366,3.75396164 23.1641408,3.04953112 23.690831,2.47656047 C24.2369577,1.88224344 24.9548451,1.50857613 25.5142817,0.945116243 C25.6285775,0.829930333 25.5383662,0.650916634 25.3881549,0.64056047 C23.0122394,0.479300196 20.8668169,3.31731194 20.4182958,5.3762865 C19.9765352,7.40398121 20.6352676,9.42639217 21.9685775,10.9736877 C24.6797746,14.1194254 29.6999155,15.156944 33.6070986,14.2324978 C36.7695634,13.4845292 39.7731549,11.7616016 43.0790704,12.0088814 C43.8037183,12.0631984 44.3238592,11.7609675 44.6378028,11.3027601 C44.952169,11.7742826 45.4756901,12.0826427 46.2054085,12.0120517 C49.2865352,11.7134137 52.0366056,13.8962395 55.0273099,14.429265 C57.408507,14.853445 59.9806901,14.2813198 62.0211127,12.9980008 C64.1538592,11.6565605 65.6551268,9.50480313 65.754,6.93943327 C65.810831,5.46357417 65.3779437,3.9365683 64.4933662,2.7485683" id="ðŸ–-Ink"></path>
                    </g>
                    <g id="accessories/*-None" transform="translate(88.521127, 88.978474)"></g>
                </g>
            </g>
        </g>
    </g>
</svg>