<?xml version="1.0" encoding="UTF-8"?>
<svg width="240px" height="324px" viewBox="0 0 240 324" version="1.1" xmlns="http://www.w3.org/2000/svg" xmlns:xlink="http://www.w3.org/1999/xlink">
    <!-- Generator: Sketch 62 (91390) - https://sketch.com -->
    <title>peep-49</title>
    <desc>Created with Sketch.</desc>
    <g id="Introduction" stroke="none" stroke-width="1" fill="none" fill-rule="evenodd">
        <g id="variations" transform="translate(-1566.000000, -2054.000000)">
            <g id="images" transform="translate(126.000000, 110.000000)">
                <g id="a-person/bust" transform="translate(1440.000000, 1944.000000)">
                    <g id="body/Blazer-Black-Tee" transform="translate(31.056338, 135.052838)">
                        <path d="M155.399092,48.0676297 C152.466486,34.1688117 142.066099,23.3836485 128.078493,18.0109127 C125.389799,16.4896036 122.78349,9.96187896 119.170044,8.76641554 C118.590808,8.57478261 119.505081,10.0998734 119.170044,10.1909519 C117.975017,10.515815 116.636022,10.5497381 115.316599,9.37656994 C112.958495,7.27985531 112.218694,1.15424032 110.784955,-1.61433476 C103.223476,-16.2156811 84.3440915,-10.502609 81.8147958,5.63884697 C80.0512119,6.78878168 77.5581564,7.8017844 75.6384508,8.72843306 C73.6616671,9.68263351 71.9228442,11.9938122 69.8856864,12.8201065 C68.0680245,13.5573708 65.0730395,13.0350803 63.2414766,13.6778109 C54.8173757,16.6339896 47.6824192,20.3641573 42.088669,27.9219311 C40.910007,29.515935 39.5813451,31.475575 38.5087394,33.0858528 C32.9790211,39.4540485 29.1381761,46.5917706 25.6007113,54.2496258 C15.703669,76.7269409 13.0116972,101.614283 10.5964859,125.832068 C10.6514155,130.06943 7.84071127,141.819238 11.9978239,143.850737 C11.7493732,144.108373 11.8393732,144.62597 12.3003592,144.621532 C22.8411338,144.515011 33.3574014,145.45869 43.7346549,147.293422 C48.7414859,148.178769 53.7214859,149.392765 58.8214859,149.592279 C69.4083169,149.519152 79.9571197,147.744444 90.530007,149.423833 C103.240337,149.423833 118.687285,149.053328 132.827369,148.509541 C146.042668,148.001319 159.328783,149.149143 172.380359,146.900945 C173.413458,146.73736 173.917965,145.476867 173.701415,144.573555 C172.170148,138.991794 171.418458,133.24687 170.559232,127.533861 C170.730359,123.869469 170.424232,120.044029 169.069162,116.630933 C165.528739,93.5899468 160.98881,70.6992305 155.399092,48.0676297 Z" id="ðŸŽ¨-Background" fill="#FFFFFF"></path>
                        <path d="M151.134169,78.3534505 C150.855296,79.7082059 150.464451,81.0629613 149.944732,82.3460689 C149.444028,83.5843703 148.689803,84.6939593 148.170296,85.9176775 C148.100577,86.0825307 147.986493,86.2072274 147.848958,86.302335 L147.891819,86.6352117 L147.891819,86.6352117 L147.931352,86.9680885 C148.190487,89.2144401 148.481907,91.4545807 148.734301,93.7006219 L148.856915,94.8241902 C149.353183,99.5138419 150.136986,104.180456 150.745437,108.857638 C151.341211,113.437599 151.947761,118.01756 152.596141,122.59118 C153.265859,127.306405 153.948254,132.01529 154.744732,136.711494 C155.081,138.69484 155.431939,140.676572 155.797549,142.656689 L156.079944,144.172159 C158.986986,144.871728 159.781352,148.925427 156.821493,150.421787 C155.478042,151.098108 153.751986,150.935368 152.644732,149.872488 C151.494118,148.764777 151.446353,146.767153 151.179315,145.266799 L150.922063,143.872583 C148.997136,133.388851 147.326485,122.784355 146.545437,112.152589 C146.344732,109.40736 146.175718,106.659807 146.065859,103.909928 C145.961475,101.323529 146.011359,98.7373071 145.971417,96.1507747 L145.958113,95.4453487 C145.897056,92.6872274 145.947549,89.9333331 146.01938,87.1752117 C146.027831,86.8391648 146.04262,86.5031178 146.059521,86.1649573 C145.962549,86.0508282 145.89262,85.915564 145.863254,85.7845268 L145.825014,85.6112196 C145.729944,85.1652705 145.83769,84.6432352 146.180155,84.3240963 C146.327831,82.4451922 146.522197,80.5684016 146.575014,78.691611 C146.579239,78.5373252 146.80107,78.5417636 146.813958,78.691611 C146.938606,80.2894192 147.18769,81.8914544 147.436986,83.4913761 C149.040507,82.2021393 150.225718,80.0759554 150.925014,78.2963859 C150.975718,78.1674622 151.163958,78.2139593 151.134169,78.3534505 Z M113.19469,3.65790294 C113.460887,4.87528063 113.986944,5.96817299 114.692577,6.98476791 C115.028704,7.47087358 115.410887,7.92316321 115.869338,8.30148023 C116.262507,8.62463483 116.710394,8.83598513 117.128493,9.11729237 C117.736944,9.02197339 118.372859,9.25255656 118.79962,9.70040783 L118.732225,9.04543327 C118.710887,8.83408297 119.061803,8.79181292 119.101944,8.99661135 C120.950245,18.3217386 122.63595,27.652883 124.095094,37.0454778 L124.734683,41.1933915 L125.336493,45.0874098 C126.335717,51.5762214 127.302257,58.0624431 128.030113,64.5986466 C128.999831,73.3212845 129.815113,82.0669597 130.410887,90.8251045 C131.008775,99.6449636 131.376592,108.470741 131.638563,117.307508 C131.703845,119.53514 131.773775,121.760658 131.841169,123.988079 L132.292443,121.324923 C132.74282,118.661206 133.184461,115.995022 133.563,113.319328 C134.921451,103.743046 136.007577,94.0989205 136.537648,84.4404235 C137.023775,75.6017542 136.861099,66.5876642 134.613211,57.9770419 C134.046803,55.8107014 133.353845,53.6781769 132.517437,51.6006035 C131.705958,49.5803061 130.599127,47.7075311 129.72638,45.7168227 C128.712296,43.4004235 128.40807,41.2150614 128.930113,38.721128 C129.386451,36.548447 130.187155,34.5046896 130.330606,32.2686035 C130.599127,28.1176838 129.248915,24.0975898 127.34138,20.4646896 C126.838352,19.5072728 126.30807,18.562537 125.754549,17.6260438 C124.079408,14.7962748 122.190465,12.0696446 120.230113,9.45545284 C120.124479,9.31596164 120.348211,9.16167593 120.462507,9.27580509 C122.24962,11.0426935 124.203845,12.779993 125.811803,14.7096211 C126.593282,15.6480164 127.355958,16.6052219 128.078493,17.5882121 C136.005465,18.9133785 142.816732,23.8524235 147.472859,30.3749049 C152.756662,37.7763922 155.429197,46.684807 157.406873,55.4577464 C159.606169,65.2075468 161.461099,75.0459029 163.436451,84.8438912 C165.48131,94.9825761 167.515817,105.12105 169.573563,115.25741 C170.596099,120.289449 171.618845,125.321911 172.639056,130.356275 C173.156662,132.905159 173.699831,135.447703 174.26793,137.988134 C174.55969,139.290052 174.872366,140.589856 175.142789,141.896001 C175.446803,143.369112 175.163704,144.311523 174.166732,145.393848 C173.798915,145.795414 173.21793,145.789073 172.761592,145.575609 L172.618936,145.508414 L172.481059,145.441816 C171.916391,145.1642 171.47369,144.876521 171.122366,144.258686 C170.735535,143.580463 170.674268,142.828056 170.54138,142.073535 C170.296099,140.684752 170.053352,139.296392 169.808282,137.905707 C169.442102,135.82602 169.043955,133.752278 168.638708,131.67904 L166.605518,121.318038 C166.063352,118.555425 165.520394,115.793077 164.974268,113.031891 C163.024268,103.157605 161.072155,93.2854333 159.120254,83.4132611 C157.246099,73.933989 155.587648,64.3896211 153.454056,54.9653002 L153.332751,54.4343716 L153.209384,53.9041521 C151.301501,45.7797801 148.635799,37.9209029 143.798915,31.0364313 C140.07638,25.7421065 134.906873,21.0142004 128.81793,18.6215037 C129.247014,19.2388579 129.658986,19.8686818 130.051944,20.5111867 C132.519549,24.5437503 134.321451,29.3308344 133.898915,34.1327131 C133.692085,36.4787014 132.800535,38.7845331 132.884831,41.1495429 C132.963,43.2503648 134.262507,45.0954528 135.160394,46.9234215 C137.198915,51.0660986 138.673775,55.4685252 139.624479,59.9848697 C141.532225,69.0539108 141.525887,78.3852376 140.868634,87.591445 C140.154549,97.5990928 138.798423,107.604416 137.254056,117.51442 C136.461803,122.597394 135.407577,127.63831 134.600324,132.712831 C134.201239,135.215007 133.65807,137.711265 133.182718,140.200971 L132.956169,141.390459 C132.82933,142.050589 132.697731,142.708589 132.545723,143.359601 L132.451944,143.749332 L132.451944,143.819077 C132.447718,144.299054 132.316521,144.696392 132.105254,145.013418 C131.816028,145.941034 131.456873,146.845825 130.979408,147.714474 C130.734338,148.15831 130.379197,148.407492 129.992577,148.498584 C129.603845,149.388369 128.722859,150.072932 127.670958,150.068969 L113.834831,150.016079 C105.798211,149.984165 97.7615915,149.931328 89.7249718,149.886944 C87.6970141,149.876588 85.6709577,149.838545 83.6449014,149.785707 C81.7456056,149.73287 79.9244789,149.504611 78.0463099,149.267899 C75.9249718,149.001598 74.7758873,147.498897 75.0927887,145.379054 C75.162507,144.911758 75.2383521,144.446999 75.3103944,143.982028 C74.8878592,144.121519 74.3850423,144.056001 74.0449014,143.724181 L73.7260047,143.411959 C73.2839572,142.974489 72.8885936,142.544907 72.6082817,141.961308 C72.3188451,141.361285 72.0841268,140.727234 71.828493,140.114318 C71.2770845,138.795492 70.7406761,137.472439 70.2186338,136.143046 C69.1730704,133.484259 68.1272958,130.814905 67.1552535,128.128431 C65.2308169,122.808744 63.5277887,117.408744 62.0470141,111.947664 C59.406169,102.204416 57.4960986,92.2730654 56.2918732,82.2529479 L56.0039615,79.8647931 L55.9202464,79.1593603 C55.4635933,75.2756684 55.0792769,71.3316851 55.2608873,67.4563139 C55.3730704,65.0298012 55.7489155,62.5846896 56.6554648,60.3188031 C57.4918732,58.2287601 58.7827183,56.4407366 60.0101831,54.5724 L60.1506462,54.3567334 L60.2918604,54.135809 C61.3653401,52.4388327 62.2195003,50.6646937 62.2622958,48.6038677 C62.3056684,46.512528 61.6966344,44.4772108 61.0156753,42.5193301 L60.8459582,42.0364777 L60.7320493,41.7168916 C59.2833898,37.6704159 57.6347852,33.6811632 58.178493,29.2779969 C58.9815211,22.7937699 62.9108873,17.5670771 67.8547606,13.536627 C63.4580704,14.4073902 59.106169,16.1275703 55.2653239,18.3089166 C50.7291972,20.8873902 46.6453944,24.2901299 43.1235634,28.1303648 C36.4686338,35.3879225 31.7172254,44.0957659 27.828,53.0866074 C23.756662,62.4959225 20.7376479,72.3554137 18.462507,82.3438286 C16.1744789,92.389308 14.6427887,102.595414 13.5968028,112.841676 C13.0751831,117.941559 12.6651127,123.053911 12.3251831,128.168799 C12.1519437,130.789543 12.0209577,133.414514 11.8181408,136.03103 C11.6153239,138.645433 11.5242676,141.299782 10.8862394,143.84465 C10.5883521,145.030326 8.57919718,145.150795 8.36391549,143.84465 C7.88614002,140.927643 8.01966513,137.911086 8.1530081,134.957304 L8.16511268,134.688956 C8.29630986,131.74696 8.46743662,128.807077 8.67004225,125.867195 C9.08433803,119.858506 9.63764789,113.858271 10.3601831,107.877058 C12.8932817,86.8815194 17.5646197,65.9958834 26.7272958,46.8306387 C31.0413803,37.8038677 36.5787042,29.0328305 44.2815211,22.5147875 C47.9489155,19.4140673 52.0834225,16.9391554 56.5390563,15.1471162 C60.5237746,13.5429675 64.571662,12.78422 68.8054648,12.7863335 C70.9287042,11.1589362 73.2082817,9.74077573 75.4855352,8.5295272 C75.6228592,8.45576595 75.7665211,8.6333002 75.6526479,8.74742935 C75.593493,8.80449393 75.5362394,8.86346067 75.4772958,8.91862309 C75.7350423,8.93553112 76.0010282,9.05600078 76.2397606,9.30750763 C77.0765915,10.1844 77.7822254,11.2815194 78.4137042,12.4204861 C79.3749718,13.6211671 80.2918732,14.861582 81.2512394,16.0493706 C82.7869437,17.9515233 84.3587746,19.8262004 85.949831,21.686083 C88.6218102,24.8118203 91.3808224,27.8783749 94.2579441,30.8215922 L94.7385634,31.3109753 C96.2299014,32.8223413 97.7406761,34.6312885 99.5045493,35.8275311 L99.5987243,35.890197 C100.342918,36.3752256 100.870639,36.4633151 101.505254,35.7389753 C102.08221,35.0795624 102.562438,34.3144528 103.056054,33.5874825 L103.170254,33.4204626 C105.690676,29.757762 108.027296,25.9597973 110.142085,22.0498168 C111.106041,20.2704395 112.02303,18.465211 112.893051,16.6400067 L113.152648,16.0918521 C113.625887,15.0858247 114.139268,14.0988188 114.529901,13.062991 C114.620746,12.8201495 114.709479,12.5770967 114.796099,12.3361573 C113.465113,11.4632806 112.434338,9.573809 112.060394,8.09435695 C111.671662,6.55784031 111.868141,4.98095577 112.560887,3.57568767 C112.691873,3.3114998 113.13131,3.37680705 113.19469,3.65790294 Z M47.5352372,66.0971624 C47.3510493,71.9390959 47.2392887,77.7871585 46.9644296,83.6246536 L46.8695704,85.6174755 C47.2982324,86.0953386 47.5496408,86.6467515 47.3489366,87.4035969 C47.2709789,87.6931468 47.0404859,87.9552211 46.753162,88.0524423 L46.6635815,89.9053239 C46.2558614,98.2419842 45.777907,106.561335 44.9045704,114.877022 C43.8123169,125.28391 42.5489366,135.673679 41.2878803,146.061757 C41.1083028,147.532755 40.0855563,148.699198 38.4947113,148.483832 C36.8850634,148.26593 36.2322465,146.864677 36.4435141,145.404247 C37.2737958,139.674751 38.0721761,133.940607 38.7716831,128.19209 L39.5681432,121.64259 C40.566852,113.455494 41.5890478,105.26966 42.7667535,97.108591 C43.259007,93.6976086 43.7702746,90.2885284 44.2834437,86.8792368 L44.1040775,86.6467515 C43.3707676,85.693773 42.6123169,84.7617182 41.8623169,83.8233229 C40.4216831,82.0141644 38.9998521,80.219589 37.6794296,78.3258904 C37.6137254,78.2307828 37.7470352,78.0912916 37.8418944,78.163362 C39.6925986,79.5307984 41.4442183,80.9931311 43.2061901,82.479135 L44.7484437,83.7850685 C45.6357676,77.8947358 46.5146408,72.0022896 47.2982324,66.0971624 C47.3174577,65.9494286 47.5392887,65.9386497 47.5352372,66.0971624 Z M74.1568732,10.1909519 C73.0432817,11.2411515 71.9047606,12.2685252 70.7827183,13.3125957 L70.3717365,13.6968454 L69.9626554,14.0828637 C67.9907608,15.9535661 66.1015019,17.9008825 64.5272958,20.1370967 C61.6371549,24.2436329 59.9153239,29.25031 61.1172254,34.2637503 C62.1146197,38.4165722 64.4026479,42.1809323 65.0174366,46.4375272 C65.3256761,48.5700517 65.1758873,50.7131436 64.3728592,52.7271006 C63.5531408,54.7816368 62.2432817,56.5421847 61.0665211,58.3957268 C58.5101831,62.4240634 58.1615915,66.8455115 58.4153239,71.512126 C58.6815211,76.3858638 59.241169,81.2615037 59.9322254,86.0910693 C61.3306056,95.8765879 63.4390563,105.560658 66.2299014,115.043946 C67.6265915,119.792987 69.2763803,124.44058 70.9181408,129.107195 C71.7355352,131.429934 72.6885634,133.697723 73.6707465,135.954733 C74.1883521,137.142733 74.7188451,138.323969 75.2575775,139.503304 C75.0587746,137.838075 75.0587746,136.128251 74.9615915,134.473378 C74.8221549,132.102028 74.6446901,129.734905 74.4820141,127.365668 C74.1505352,122.557449 73.8547606,117.745003 73.5906761,112.932557 C72.6547606,95.7709127 71.9660282,78.5944744 72.0165211,61.405355 C72.0420845,52.8097386 72.2174366,44.2141221 72.5871549,35.6267483 C72.7604789,31.5829127 73.0961239,27.5429434 73.3994766,23.5047784 L73.4639155,22.6394841 C73.7322254,19.0148266 74.0533521,15.3817151 74.6045493,11.7887601 C74.4413568,11.420353 74.299698,11.0472702 74.1945591,10.6646131 L74.1568732,10.5206583 L74.184338,10.5248853 C74.1589859,10.4126583 74.1505352,10.300854 74.1568732,10.1909519 Z M83.786493,-4.57824892 C83.8095211,-4.67758356 83.9510704,-4.66912955 83.9764225,-4.57824892 C84.6038873,-2.46474599 84.3820563,-0.139892759 83.8414225,1.98629119 C83.5498732,3.13815029 83.1357887,4.25619335 82.6350845,5.33407984 L82.4598655,5.71129057 C82.0308574,6.62927093 81.5478054,7.57509746 80.712338,8.14715225 C80.3639577,8.38597808 79.740507,8.4007726 79.3919155,8.14715225 L79.2141377,8.01220117 C79.1848732,7.98934403 79.156,7.9660955 79.127831,7.94214247 C78.8026901,7.66950059 78.6419155,7.06715225 78.7919155,6.6698137 C79.1785352,5.64476477 80.055507,4.89235773 80.6616338,3.97932446 C81.1984648,3.16773933 81.6738169,2.31177065 82.0686761,1.42198591 C82.9200845,-0.503415264 83.3024789,-2.5471726 83.786493,-4.57824892 Z" id="ðŸ–-Ink" fill="#000000"></path>
                    </g>
                    <g id="head/Medium-Bangs-2" transform="translate(78.591549, 38.043053)">
                        <path d="M86.1692958,30.5323397 C85.7000704,29.3477213 84.8702113,27.8587585 83.4832394,27.7993691 C82.4104225,24.5181558 79.7429577,21.1764963 76.0326761,21.2652634 C65.1422535,10.124144 51.431831,10.6493495 37.0973239,13.0078074 C29.5347887,14.410962 21.8558451,17.1585159 16.2154225,22.5804963 C9.45992958,28.9636978 6.82943662,40.101647 12.1195775,48.173326 C7.54753521,50.6243554 7.45880282,56.4407155 9.41408451,60.6379209 C7.06373239,62.2638387 6.92091549,66.2101714 9.56746479,67.450375 C9.42676056,68.0269386 9.52626761,68.6229464 9.79457746,69.1352595 C8.48239437,70.2279405 6.77450704,71.0350873 5.36260563,71.7289503 C4.73852113,72.0356196 4.37852113,72.5365198 4.22894366,73.1010364 C-0.407112676,76.1436352 -11.9672535,83.5793613 -11.829507,89.4973808 C-11.8975352,92.5847859 -9.60823944,94.6167076 -6.82626761,95.4257566 C-8.4815493,98.7361362 -9.73795775,102.60279 -8.1534507,106.173764 C-7.71549296,107.252708 -4.43404229,110.423633 -4.26883102,110.482177 C-3.9800282,110.729879 0.727605634,108.567729 3.0156338,107.464903 C3.45929577,110.351948 6.54528169,111.864582 9.20535211,110.875252 C11.7276761,110.114602 13.278169,107.978485 14.8690141,106.03533 C16.9806338,110.6434 23.1933803,110.696449 27.2087324,108.709757 C30.8148592,107.043259 33.5560563,103.988825 35.0830986,100.30816 C43.1919718,104.27922 52.6791549,105.436786 61.4890141,103.850602 C62.0543662,104.851557 63.3059155,105.523862 64.4207746,105.136668 C69.1054225,103.727807 74.2850704,103.648762 78.2560563,100.420809 C86.5333099,94.4774278 87.2302817,83.5201832 86.6530986,74.1799796 C86.1411972,64.8672517 86.5892958,55.4769581 84.8970423,46.2648329 C85.6314085,43.5525746 86.8529577,41.1548055 87.9832394,38.6067663 C89.2111268,35.9348759 89.1853521,31.9629699 86.1692958,30.5323397 Z" id="ðŸŽ¨-Background" fill="#FFFFFF"></path>
                        <path d="M9.21325352,70.0617346 C9.70107042,69.9391515 9.96304225,70.5949714 9.54895775,70.8585252 C6.91994366,72.5313628 4.20409859,74.025398 1.6644507,75.8455468 C-0.75108501,77.5758263 -2.98215743,79.5468471 -5.06267462,81.6659412 L-5.29322535,81.9020008 C-7.17414085,83.8377581 -9.25723944,86.3004117 -9.2783662,89.1559656 C-9.2946338,91.3755663 -7.584,93.7982748 -5.19730986,93.5066114 C-4.29815493,93.3967092 -3.47167606,94.5380008 -3.78540845,95.3607875 L-4.11551031,96.227986 C-5.44345626,99.7374248 -6.7945528,103.713741 -5.74558621,107.405991 L-5.70709859,107.537735 C-5.4533662,108.383136 -5.18590141,109.130259 -4.20498592,109.113351 C-3.2946338,109.097288 -2.34730986,108.790196 -1.49505634,108.497054 C0.273464789,107.888576 1.87614085,106.873883 3.23649296,105.59775 C4.4397487,104.4691 5.97705634,105.615788 5.81505937,107.05014 L5.80930986,107.096013 C5.58769014,108.705656 8.151,109.452991 9.31635211,109.222831 C11.6172676,108.767582 13.2577606,106.461328 14.5644507,104.703105 C15.1925493,103.858337 16.7181127,103.525672 17.2699437,104.703105 C18.3634648,107.035355 20.6174789,108.778572 23.2543099,108.851699 C24.6239577,108.889531 25.9380423,108.49959 27.0981127,107.776349 C27.5716121,107.480979 27.9950674,107.129782 28.3834336,106.731736 L28.4798028,106.631253 C29.0544507,106.02193 29.451,105.69793 30.1849437,105.299958 C30.9081127,104.907903 31.8436056,105.394009 31.8392003,106.249343 C31.8332535,107.357241 31.5087465,108.093797 30.7450141,108.897351 C30.1131127,109.562893 29.3622676,110.147065 28.5729718,110.613938 C26.9867746,111.551488 25.101,112.079018 23.2543099,112.017938 C20.3434648,111.921562 17.5650845,110.47022 15.7640282,108.212999 C13.9251549,110.412521 11.6440986,112.433453 8.67980282,112.379136 C6.46064789,112.338557 4.3925493,111.182893 3.40170423,109.392333 C2.00290141,110.357148 0.467619718,111.111457 -1.17477465,111.604114 L-1.32112241,111.647382 C-3.64590231,112.324186 -6.32127748,112.593238 -7.81766197,110.284443 C-9.22259155,108.116834 -9.32738028,105.115026 -9.00540845,102.637367 C-8.71787324,100.424106 -8.03716901,98.3222278 -7.25547887,96.2490928 C-9.4805493,95.5843961 -11.207662,93.4935076 -11.8009014,91.2396681 C-12.6983662,87.8314333 -10.9573099,84.526126 -8.80491549,81.9937268 C-6.4668169,79.2427914 -3.52407042,76.916036 -0.559352113,74.8794646 C2.3975493,72.8485996 5.71001408,70.9401065 9.21325352,70.0617346 Z M85.2420845,43.403636 C85.2475775,43.3089511 85.4026479,43.2757691 85.4170141,43.3797534 C86.4382817,50.793499 87.0296197,58.1922387 87.5191268,65.6569198 C87.7673662,69.4386106 88.0491972,73.2164971 88.3576479,76.9935382 C88.6536338,80.6154481 89.1463099,84.3337339 89.0349718,87.9704384 C88.8606761,93.6650607 86.0964507,98.2953229 81.5639155,101.627472 C77.2208873,104.820763 71.8331408,106.39955 66.5470141,107.066571 C63.4770845,107.453977 60.3644789,107.472575 57.291169,107.10863 C55.6949762,106.919604 54.100826,106.667977 52.5374413,106.290187 L51.8614763,106.121014 C50.6302925,105.806461 49.2555864,105.379516 49.0800423,103.920622 C48.9949014,103.214078 49.3701127,102.692888 49.9760282,102.338243 C50.7659577,101.875808 51.671662,102.148027 52.4856761,102.358744 C53.8574366,102.713812 55.2437746,103.018579 56.6457465,103.229295 C59.6569437,103.682431 62.7524366,103.709272 65.7790563,103.395628 C70.8701831,102.867675 76.2406056,101.215761 80.1659577,97.8041448 C81.8719437,96.3217339 83.3552535,94.5153229 84.1354648,92.369272 C85.1385634,89.6103053 84.9900423,86.6004658 84.9564507,83.7113072 C84.878493,76.9935382 84.9471549,70.2757691 84.8537746,63.5573659 C84.7599718,56.8184618 84.8417324,50.1326067 85.2420845,43.403636 Z M34.0447817,12.0086912 C39.9936549,10.4738654 46.0310493,10.0750474 52.1417535,10.5370591 C57.9045,10.9724407 64.4692183,12.2623115 69.175838,15.8081354 C69.4042183,15.9801746 69.2675282,16.3058654 68.9848521,16.2608477 C65.8382324,15.7591022 62.7710493,14.8464916 59.6379507,14.2426638 C56.6244296,13.6618732 53.5566127,13.2258575 50.488162,13.1248321 C40.1102746,12.782656 28.5625986,15.1351961 20.1942887,21.6077988 C16.2704155,24.6425777 13.2759085,28.7233292 12.0841479,33.5786795 C10.8619648,38.5587264 11.5232324,43.9443546 13.9775282,48.4492861 C14.3309789,49.0979202 14.1852042,50.1240258 13.4478803,50.4693722 C11.2105563,51.517247 9.61696479,53.8387186 9.65161268,56.3438536 C9.66830282,57.5589065 10.0870352,58.7240806 10.7599225,59.7284172 C11.4714718,60.7904524 12.5546408,61.5335601 13.3504859,62.525427 C13.6637958,62.9160023 13.675838,63.4538888 13.4275986,63.813607 C13.8930211,64.0175601 14.394993,64.1270395 14.8530211,64.3679789 C15.241331,64.5723546 15.2523169,65.2104211 14.8530211,65.4116266 C13.843162,65.9203468 12.751331,65.3803468 12.0697817,64.5600963 C11.9480915,64.4136305 11.8428803,64.261247 11.7469648,64.1056932 C10.9306268,63.9325973 10.1992183,63.522789 9.56055634,62.9622881 C8.34365493,63.6912352 8.17696479,65.3139828 9.2223169,66.553975 C9.75617389,67.1870097 10.514659,67.577742 11.2812201,67.858634 L11.3732324,67.8918223 C12.1192183,68.1568556 12.8024577,68.3048008 13.2871056,68.9018654 C13.6067535,68.2352665 13.9737254,67.6069221 14.3827394,67.0343742 C15.8698521,64.9532078 18.1557676,63.1068517 20.8682324,63.3412391 C22.9929507,63.5244798 24.8337254,65.046202 25.2691479,67.1457558 C25.3012606,67.3010982 25.0671761,67.4224133 24.9974577,67.2603076 C23.9780915,64.8824055 20.752669,64.7951178 18.8314014,66.0342646 C16.5718944,67.4917362 15.3370352,70.2382333 14.8416127,72.7962059 C14.354007,75.3159241 14.635838,78.3805033 16.5209789,80.2970278 C17.2923169,81.0813487 18.3416831,81.6236736 19.4368944,81.7665464 C19.9722597,81.8366883 20.4444923,81.7676981 20.956473,81.6645866 L21.2957687,81.5936684 C21.5311373,81.5449852 21.765169,81.5056344 22.0120352,81.5275092 L22.3798521,81.5769652 L22.3798521,81.5769652 L22.5888789,81.6747565 C22.7701192,81.7562467 22.7537208,81.7339303 22.5397817,81.607611 C23.1647113,81.5564642 23.4877394,82.0184759 23.5219648,82.5250826 C23.5418239,82.5377636 23.5610493,82.5515014 23.5771056,82.5711569 C25.9487958,85.4746873 27.7097113,88.8121198 30.2265423,91.6205425 L30.9633112,92.4432589 C32.8573767,94.5510251 35.019694,96.8361605 37.5927136,97.9296064 L37.898916,98.0563354 C38.6474897,98.3726217 39.3992042,98.8056211 39.4946408,99.7082841 C39.5802042,100.51691 38.9430211,101.125388 38.2084437,101.314124 C36.5356268,101.743376 34.6287254,100.256104 33.4035845,99.2802998 C30.7690775,97.1826481 28.554993,94.5086442 26.7264718,91.6951491 L26.5457202,91.4149447 C25.0426018,89.0665902 23.6298982,86.3882489 23.1909085,83.6010669 L23.1117326,83.729492 C23.1058072,83.7386295 23.1011725,83.7455249 23.098162,83.7496462 C23.0085845,83.871384 22.9099225,83.9741002 22.7954155,84.0725894 C22.4878099,84.3382568 22.1125986,84.4933879 21.7228099,84.5986403 C20.9911901,84.7962528 20.189007,84.8351413 19.4368944,84.7582098 C17.9092183,84.6020219 16.4812606,84.0203859 15.2736549,83.0731139 C11.5967535,80.1883937 11.1625986,74.820519 12.6497113,70.4656462 C11.4294296,70.7570982 10.0395,69.9355796 9.0866831,69.2315718 C7.99400704,68.423791 7.0929507,67.2577714 6.87766901,65.886108 C6.6638662,64.5250121 7.53133099,62.7226168 8.8179507,62.1974114 C7.4829507,60.5938967 6.70569718,58.3182881 6.62541549,56.4962372 C6.48597887,53.3268282 8.16914789,50.3311491 10.7533732,48.601881 C8.32316197,43.3918849 7.85499296,37.3474779 9.49126056,31.8155953 C12.7382324,20.8382724 23.6151338,14.6996031 34.0447817,12.0086912 Z M24.7868662,95.4124838 L24.8172224,95.3160704 C25.0760915,94.4671192 25.4102928,92.7784411 26.6781338,93.4213526 C27.889331,94.0353252 27.1160915,95.8527264 26.6925,96.7374387 C26.185669,97.7960924 25.3103873,98.6448751 24.1348944,98.8722881 C23.1786972,99.0572196 22.1286972,98.8196618 21.4598239,98.0805699 C21.2648239,97.8652039 21.1547535,97.6289143 21.0391901,97.368108 C20.9941901,97.2666599 20.9739085,97.1971256 20.9654577,97.1518967 C20.9544718,97.201564 20.9232042,97.2755366 20.8433451,97.3626129 C20.3096831,97.9459397 19.8055986,98.6250082 19.4183451,99.3150669 C19.3266549,99.4782294 19.0376408,99.3638888 19.1107394,99.1852978 C19.5617958,98.0816266 19.4859507,96.374973 20.4913732,95.5767029 C21.3775728,94.8729924 22.2102807,95.4268282 22.6790044,96.2463334 L22.7029225,96.2889534 C23.3880634,97.533384 24.4798944,96.3515131 24.7868662,95.4124838 Z M15.1469155,91.4247053 L15.2394794,91.29614 C16.1870415,90.0006022 17.7850754,88.4421368 19.3840986,89.647038 C19.8926197,90.030216 19.9114225,90.669762 19.3840986,91.0499812 L19.1845806,91.1925032 C18.4860108,91.6878959 17.7904427,92.1558027 17.277338,92.8663256 C16.7198028,93.638811 16.2190986,94.4567366 15.4695211,95.0626779 C14.1438169,96.1342239 12.0013521,96.3455742 10.851,94.9009949 L10.7378453,94.7576335 C10.6416106,94.6336939 10.5311831,94.4844023 10.4415634,94.3354215 L10.3717285,94.4321574 C10.3649121,94.4418558 10.3585082,94.4511181 10.3526146,94.4598578 L10.3365634,94.4844235 C9.86374648,95.2402121 9.26649296,95.8626387 8.52261972,96.3538168 C7.1088169,97.2869284 5.51564789,97.4166975 3.91614085,96.9227718 C3.75959155,96.8741613 3.8016338,96.6642904 3.95311268,96.6503413 C5.84839437,96.4732297 7.69508451,95.1262943 8.466,93.3917425 L8.55306224,93.1970707 C8.8650138,92.5070909 9.21452113,91.8513853 9.98522535,91.5804705 C10.7354366,91.3167053 11.5230423,91.595265 12.0374789,92.1629519 C12.4676197,92.6374333 12.5783239,93.5806896 13.3543099,93.3727209 C14.2040282,93.1448853 14.682338,92.0803139 15.1469155,91.4247053 Z M9.71839437,79.9011898 C10.1381831,79.5820509 10.7956479,79.9244384 10.9112113,80.3868728 C11.4349437,82.4805088 9.25973239,84.9476008 7.1694507,85.0124853 C6.63135211,85.0289706 6.11374648,84.8987789 5.63712676,84.6495969 C5.26740845,84.4564227 4.82987324,83.9627084 4.42402817,83.8809159 C3.89987324,83.7754521 3.43550704,84.4737534 3.06642254,84.8322035 C2.60860563,85.2770959 2.15564789,85.6900744 1.64269014,86.0692368 C1.43776056,86.220775 1.11980282,85.9663092 1.20642254,85.7336125 L1.3799349,85.2709481 C2.00801468,83.6241726 3.08980986,81.2201784 5.11423944,81.9035225 C6.10614085,82.2383014 6.85276056,83.3673346 7.89726761,82.4733229 C8.73367606,81.7574795 8.8116338,80.5904031 9.71839437,79.9011898 Z M18.6505141,71.4727092 C20.5377676,69.3055233 24.9741761,70.4501965 25.8154437,73.0867914 C26.0013592,73.6690614 25.8074155,74.4259068 25.3527676,74.8380399 C24.7538239,75.3809988 23.8994577,75.5454294 23.1722746,75.1195585 C22.5465,74.7532885 22.2895986,74.153899 21.829669,73.6396838 C21.1550915,72.88622 20.2375563,72.4679577 19.2921338,72.168263 C19.0557254,72.292537 18.8357958,72.4559108 18.6384718,72.6528892 C18.5374859,72.7537033 18.3467113,72.6154802 18.4362887,72.4967014 C18.5579789,72.3352297 18.7067113,72.1832689 18.8759366,72.0431436 L18.7945986,72.0192611 L18.7945986,72.0192611 C18.5457254,71.9499382 18.4918521,71.6553159 18.6505141,71.4727092 Z M30.9161408,47.5448152 C31.3390986,47.5454677 31.8317746,47.9428063 31.7776901,48.4067202 L31.7613565,48.5355297 C31.6396394,49.4187309 31.3559616,49.9188162 30.4722676,50.3291624 C29.7224789,50.6768337 28.9348732,50.8689511 28.1130423,50.9450372 C27.8020563,50.9737808 27.4729014,50.9754716 27.1393099,50.9507436 L27.0690575,51.3561764 C26.9294435,52.1669999 26.8004064,52.978378 26.7761408,53.804818 C26.7309296,55.3368963 27.3024085,56.5995029 27.9152958,57.967362 C29.0918451,60.5948689 29.2240986,63.217726 27.9431831,65.8414286 C27.7557887,66.2250294 27.2252958,66.5378278 26.7972676,66.4989393 C26.2422676,66.448638 25.974169,66.2880117 25.6513521,65.8414286 C25.3801977,65.4664328 25.4422166,64.93638 25.6299823,64.5442445 L25.6513521,64.5012564 C26.2967746,63.250274 26.5002254,61.8369746 26.1706479,60.4619295 C25.8609296,59.1695225 25.1593099,58.0079413 24.846,56.7195499 C24.3355775,54.6208415 24.879169,52.5390411 25.9414225,50.7385479 C25.139662,50.5075421 24.3981127,50.0958317 23.9033239,49.46791 L23.9054366,49.4670646 L23.9054366,49.4670646 C23.7165634,49.265225 23.819662,48.8435812 24.1511408,48.8689432 L24.5260146,48.8992287 C25.5983373,48.9888912 26.5854172,49.0821447 27.6698028,48.783135 C28.225662,48.6296665 28.7055136,48.3738331 29.1827028,48.0640924 L29.2849437,47.9969119 C29.8819859,47.5999961 30.2130423,47.5439883 30.9161408,47.5448152 Z M33.482493,32.0332438 C36.170662,31.8804376 38.465662,33.655146 39.5813662,36.0176196 C40.7932666,38.5824509 40.2847667,41.5253798 39.2151293,44.0488603 L38.9112257,44.7551436 C38.3792982,45.9788103 37.6809305,47.4340007 36.591507,48.0905824 C35.3678451,48.8281949 34.3100282,47.9728603 34.6708732,46.6132438 C34.8859437,45.8035609 35.4679859,45.1790207 35.9389014,44.5107311 C36.378338,43.8866137 36.7884085,43.2407272 37.1479859,42.5669425 C37.8523521,41.2455804 38.3781972,39.7733143 38.372493,38.2594121 C38.3625634,35.4962184 36.5376338,32.3295569 33.482493,32.3701362 C33.2642535,32.3726724 33.2678451,32.0452908 33.482493,32.0332438 Z M47.0781761,27.5746826 C46.9106408,27.4474497 47.0604296,27.1644517 47.2478239,27.2838646 C50.3650775,29.2671757 52.6926127,32.9926474 53.1612042,36.6526004 C53.4212746,38.683254 53.2226831,40.8533988 52.3581761,42.7274419 C51.862331,43.8027922 51.0113451,44.8293205 49.8214859,45.1241542 C48.7275423,45.3948939 47.600007,44.7699311 47.2605,43.7017667 C47.1288803,43.2873088 47.3553592,42.8538294 47.6974014,42.6274732 C48.8065563,41.8938763 49.6995845,40.968162 50.2220493,39.7228861 C50.7656408,38.4281542 50.9824014,37.0541659 50.9889507,35.6575632 C51.005007,32.3869174 49.7002183,29.5681386 47.0781761,27.5746826 Z M85.1571338,28.9922301 C85.012838,28.832238 85.1943169,28.596371 85.3853028,28.6965511 C87.6388944,29.8822262 89.0708662,32.1533965 89.4811479,34.6407781 C89.8831901,37.0759562 89.3423451,40.3911969 87.4580493,42.1523789 C86.3947394,43.1465706 84.4899507,41.8243632 85.3738944,40.5437918 C85.9971338,39.640692 86.6708662,38.8969503 87.0276972,37.8298427 C87.3458662,36.8777096 87.4584718,35.9175452 87.4411479,34.9170129 C87.403331,32.7341871 86.6237535,30.6196274 85.1571338,28.9922301 Z M57.6041408,25.9428258 C61.454493,25.7593738 63.7879437,30.1565166 64.3224507,33.4339256 C64.6524507,35.4588728 64.4044225,37.5444775 63.2868169,39.3007984 L63.2206988,39.403045 C62.2985606,40.8060881 60.6219829,42.421456 58.8155493,41.7571115 C58.0509718,41.476227 57.8475211,40.6568219 58.3611127,40.0352407 C59.1470282,39.0837417 60.3618169,38.6959139 61.100831,37.679953 C61.9298451,36.5405636 62.2015352,35.1131037 62.1535775,33.7274912 L62.147063,33.5744352 C62.0186047,31.0256843 60.8033577,26.1337512 57.6041408,26.2203288 C57.4247746,26.2249785 57.4268873,25.9510685 57.6041408,25.9428258 Z M69.647831,25.2122301 C73.3720563,24.7360579 75.6400141,29.1190403 76.3395211,32.1383906 C76.7764225,34.0259601 76.8719155,36.1316431 76.3131127,38.0050521 L76.2714609,38.1385059 C75.8165893,39.536682 74.4745752,41.932312 72.7226197,41.2177879 C72.2426197,41.0220775 71.7526901,40.4888407 71.9825493,39.9139679 C72.276,39.1791029 72.6995915,38.988465 73.2640986,38.5182106 C73.6988873,38.1561675 74.0024789,37.6364571 74.226,37.1245667 C74.8213521,35.7603006 74.9540282,34.166508 74.8726901,32.6963554 L74.8614852,32.5223534 C74.6510774,29.6507867 73.0946704,25.3712924 69.647831,25.4499992 C69.4904366,25.4535922 69.5012113,25.230829 69.647831,25.2122301 Z M76.4660704,21.0917025 C78.5388169,20.3020978 80.2369859,22.284775 81.4285352,23.6997652 C82.9211408,25.4727828 84.2751549,27.3827554 85.0405775,29.5898865 C85.722338,31.556501 85.842338,33.7431311 85.2281831,35.7450411 C84.924169,36.736274 84.450507,37.6554364 83.8040282,38.4644853 L83.7214918,38.5665311 C83.0486593,39.3872578 82.399111,39.8915764 81.2969155,39.5977456 C80.8483944,39.47791 80.6588873,39.0342857 80.7364225,38.610317 C80.9024789,37.7044697 81.369169,37.4692368 81.9736056,36.8368767 C82.5066338,36.2791233 82.9021268,35.5922348 83.1681127,34.8700509 C83.7165634,33.3802427 83.7450845,31.7661605 83.3768451,30.2313346 C82.9649225,28.5131272 82.1540185,26.9264515 81.2158853,25.4396162 L81.0135098,25.1211489 C80.0195772,23.5492277 78.6023137,21.1284994 76.5055775,21.3835773 C76.326,21.4055577 76.3236761,21.1458082 76.4660704,21.0917025 Z" id="ðŸ–-Ink" fill="#000000"></path>
                    </g>
                    <g id="face/Eating-Happy" transform="translate(112.183099, 77.354207)" fill="#000000">
                        <path d="M26.651385,41.4864172 C27.8332398,39.5415711 30.3523572,44.3057979 30.6200098,45.1249997 C30.8570644,45.850687 31.0135488,46.5940725 31.0930874,47.3460616 C32.0093391,47.5515032 32.9607994,47.5518825 33.8996301,47.3718474 C35.2949741,47.1040359 36.147956,46.3536048 37.3606685,45.7092415 C38.1982987,45.2639875 39.253962,45.7861206 39.6895539,46.524568 C40.2019297,47.3937571 39.8755006,48.2959069 39.201613,48.9438883 C37.923659,50.1726203 35.409214,50.4548999 33.7410515,50.1285895 C32.7852837,49.9417094 31.9093184,49.5831419 31.1357638,49.0620417 C31.1306364,49.159284 31.1272121,49.2565522 31.1195448,49.3536508 L31.1047743,49.5220861 C30.9766029,50.8848667 30.6021836,52.5984609 29.5440832,53.4852118 C27.8086691,54.9398049 25.6669327,52.142372 27.3531919,50.6894243 L27.4054668,50.6458128 C28.4536,49.7986046 28.6822644,47.525525 28.6258217,46.2735213 C28.5888138,45.4563605 28.4400203,44.6287353 28.1821129,43.8504618 L28.1290773,43.6954828 C28.0514434,43.4756328 27.2049692,41.3901568 26.8990933,41.6557485 L26.8844918,41.6707244 C26.758361,41.8213851 26.5545245,41.6458886 26.651385,41.4864172 Z M36.0875289,30.5120405 C37.6828906,31.482148 40.1137318,33.7442494 38.3974899,36.149264 C36.3773089,38.2698449 33.4687045,35.8384541 32.0353946,34.7388307 C30.7063626,33.8866164 29.2131206,36.0784478 30.4461973,37.0735516 C40.8033244,44.7445605 45.006466,30.7657101 36.8944406,29.3714319 C36.0012775,29.2177885 35.6695544,30.2119271 36.0875289,30.5120405 Z M19.051838,21.5451123 C20.610993,21.2684548 22.2081761,21.6562826 23.4983873,22.5688932 L23.5961707,22.6392476 C24.8391675,23.5486603 26.2298987,25.1455025 25.5166268,26.7130497 C25.2303592,27.3424509 24.3730352,27.4411515 23.8290211,27.1558286 C22.9233169,26.6807131 22.759162,25.5117346 21.9510634,24.8647914 C21.2883169,24.3345135 20.3959225,24.0128384 19.5424014,24.0904039 C17.5372606,24.2725879 16.3038803,26.251038 15.6810634,27.9560008 C15.6014155,28.1741143 15.2813451,28.2588658 15.1562746,28.0246896 C13.6877535,25.2788266 16.2871901,22.0358677 19.051838,21.5451123 Z M44.0259085,20.5088618 C47.0125986,20.2626387 50.5084437,23.3601886 49.7221056,26.5139577 C49.344993,28.0272258 47.1011197,27.983899 46.7022465,26.5139577 C46.4827394,25.7051202 46.5047113,24.9894881 45.922669,24.3178168 C45.4422465,23.7632337 44.7596408,23.4411358 44.0259085,23.4905918 C43.2171761,23.5451202 42.4711901,23.9494333 41.9043592,24.5177542 C41.3924577,25.0309127 41.086331,25.7818403 40.5560493,26.2360321 C40.4254859,26.347625 40.2507676,26.354811 40.1218944,26.2360321 C39.2092183,25.3942239 39.7570352,23.6417072 40.3356972,22.7629127 C41.1638662,21.5053785 42.5123873,20.6337699 44.0259085,20.5088618 Z M13.3643239,15.9516845 C15.2803099,14.2549644 18.7617887,12.6163656 21.3453803,13.4514106 C22.8308028,13.9313871 23.478338,16.3257746 21.8200986,17.0847335 C19.8998873,17.963528 17.6860141,17.6059233 15.7315775,18.5168431 C14.9108028,18.8995984 14.138831,19.3778841 13.5673521,20.0793558 C13.1171408,20.6322481 12.6591127,21.3597159 12.0079859,21.6784321 C11.8368592,21.7623382 11.6050986,21.7644517 11.4679859,21.6088978 C10.040662,19.9937589 12.1180563,17.0551444 13.3643239,15.9516845 Z M40.7327324,13.3671875 C41.9168873,13.0347335 43.2305493,13.0414967 44.433507,13.2503108 C45.6360423,13.4591249 46.8569577,13.9577002 47.8387183,14.6849566 L47.9526883,14.7701118 C49.0244692,15.5780701 50.3034536,16.7536241 50.2349155,18.1849174 C50.177662,19.3801033 48.920831,20.1885182 47.8357606,19.5620759 C46.9511831,19.0512423 46.5349859,18.0278841 45.7860423,17.3464908 C45.1680845,16.7840877 44.442169,16.3406748 43.667662,16.0299898 C42.8073803,15.6848548 41.9456197,15.5231718 41.0223803,15.5077432 C40.3114648,15.4959076 39.5963239,15.7292384 38.8987183,15.803845 C38.9561831,15.9217785 38.4047746,15.8668274 38.0887183,15.762209 C37.8546338,15.6624517 37.8533662,15.3663499 37.934493,15.1742325 C38.3369577,14.2225221 39.8012535,13.6284164 40.7327324,13.3671875 Z" id="ðŸ–-Ink"></path>
                    </g>
                    <g id="facial-hair/Goatee-1" transform="translate(104.577451, 109.479380)" fill="#000000">
                        <path d="M43.9255563,6.62122427 C41.5760493,5.56257065 37.3570352,6.48638278 35.8253451,6.85370959 C32.2644296,7.70798748 28.6821761,9.55413229 27.5751338,12.4464611 C26.3275986,15.7061166 28.8167535,16.7322223 29.1828803,16.5646215 C31.6479507,16.7383515 34.5835141,15.1880971 37.1666831,14.788011 C39.2637254,14.460418 41.4759085,14.1744611 43.4406972,13.0597996 C44.8752042,13.849193 48.1152042,14.2759092 50.7300634,14.9661793 C52.9570352,15.5537331 53.9218944,16.827964 55.9864014,16.5570129 C58.4607676,16.2323789 57.4479507,11.0261871 54.6902746,8.9171225 C51.6721056,6.60896595 46.5674577,5.6728955 43.9255563,6.62122427 Z M48.5776268,28.8817573 C46.5220761,29.3831108 46.3840352,24.8760352 46.1537535,23.2837221 C45.9738469,22.0397339 44.9592008,18.8316443 42.3868521,18.9700626 C39.8145035,19.108481 38.8475561,21.796294 38.9780493,23.4680196 C39.0626709,24.5520924 40.0612712,30.0433492 36.8738239,30.738047 C34.8416408,30.7308611 32.4906549,30.5936947 30.3538944,30.1995264 C27.8389648,29.629726 24.5687141,27.6347621 23.7048803,31.5635812 C23.393986,32.9775653 34.4723451,37.1785245 39.388331,37.5585323 C44.3739031,38.5692259 50.2070662,37.0151109 53.756631,33.1996929 C54.5641562,32.3316861 56.8385145,28.7288625 57.0005829,27.8461124 C57.3410764,25.9915219 56.5527386,24.798077 54.2588239,25.4517534 C52.6384014,26.3174442 49.8995426,28.5593391 48.5776268,28.8817573 Z" id="ðŸ–-Ink"></path>
                    </g>
                    <g id="accessories/Glasses-5" transform="translate(88.521127, 88.978474)" fill="#000000">
                        <path d="M74.5743803,22.486699 C71.4036761,24.0143389 66.9801549,21.7611335 64.8482535,19.4009847 C64.0722676,18.5416344 63.4735352,16.0829965 63.7720563,14.523654 C64.5805775,10.3006638 67.6186056,7.76615108 70.8258592,6.90067162 C75.2717746,5.70062466 79.746,8.74068728 79.2243803,12.3281472 C78.7298028,15.7281393 77.9804366,20.6599984 74.5743803,22.486699 M52.9931831,14.3746521 C52.7390282,18.9768047 49.0445915,23.0049299 44.6290986,24.198425 C37.5148732,26.1842724 33.9989577,21.1813996 32.4064225,15.7917558 C32.2481831,15.2561941 31.8761408,13.621611 32.8743803,12.2195131 C36.8003662,6.7043272 46.3524085,7.64441331 51.1232535,9.15852681 C52.5197324,10.494472 53.0905775,12.4226207 52.9931831,14.3746521 M78.0193099,6.43696908 C78.0171972,6.43971663 78.014662,6.44204149 78.0125493,6.44478904 C77.9962817,6.43485558 77.9802254,6.42471076 77.9635352,6.41498865 C77.9819155,6.42259726 78.0013521,6.42914912 78.0193099,6.43696908 M83.9715634,6.96893777 C83.5583239,2.28330176 68.8619155,4.0774544 67.1436761,4.46147789 C62.4543803,5.8411726 58.404169,9.59475382 53.1613521,7.94474207 C47.7290282,1.88680861 29.4355775,3.62410802 25.6006479,6.71003366 C24.8747324,6.42513346 23.9920563,6.57793973 23.0567746,6.8467773 C18.2538169,6.67325871 -3.67238028,8.32961096 0.812408451,14.4619397 C1.49311268,14.9343076 2.1731831,14.4536971 2.19198592,13.4806403 C25.571493,5.03783014 23.3052254,12.9459241 26.0779014,12.0223233 C26.5012817,12.1442724 26.9430423,12.2214153 27.3294507,12.3025738 C29.475507,12.9932665 30.204169,12.7798027 30.4868451,15.1898301 C32.4290282,33.7994348 57.2012113,27.3764994 55.1694507,12.1119358 C57.1811408,12.0011883 58.9407887,11.1310591 61.0680423,11.9806873 C62.5450141,26.3603272 74.1121268,26.9406951 77.5931831,21.9559984 C80.2181831,18.4961941 79.1772676,13.2749965 82.785507,10.5532274 C84.2098732,11.7456658 84.3015634,7.72113346 83.9715634,6.96893777" id="ðŸ–-Ink"></path>
                    </g>
                </g>
            </g>
        </g>
    </g>
</svg>