<?xml version="1.0" encoding="UTF-8"?>
<svg width="240px" height="324px" viewBox="0 0 240 324" version="1.1" xmlns="http://www.w3.org/2000/svg" xmlns:xlink="http://www.w3.org/1999/xlink">
    <!-- Generator: Sketch 62 (91390) - https://sketch.com -->
    <title>peep-55</title>
    <desc>Created with Sketch.</desc>
    <g id="Introduction" stroke="none" stroke-width="1" fill="none" fill-rule="evenodd">
        <g id="variations" transform="translate(-1806.000000, -1730.000000)">
            <g id="images" transform="translate(126.000000, 110.000000)">
                <g id="a-person/bust" transform="translate(1680.000000, 1620.000000)">
                    <g id="body/Gym-Shirt" transform="translate(31.056338, 135.052838)" fill-rule="evenodd">
                        <path d="M11.9520451,138.193359 C11.6645099,138.202658 11.7551437,138.118752 11.8607775,138.098463 C11.8912,138.129954 11.9216226,138.161868 11.9520451,138.193359 Z M20.4418338,144.507026 C28.4757071,145.459793 36.5195099,144.588185 44.5138761,143.714251 C60.7096507,142.513148 76.7915521,146.012263 93.0192282,144.945155 C113.299228,144.090243 133.634369,142.484827 153.846975,145.190322 C159.437749,145.318823 168.354932,146.828075 166.327397,138.170322 C163.664158,115.91112 160.103454,93.7641456 156.289228,71.6763491 C153.056623,59.2935467 152.822961,37.875308 143.97127,29.264263 C142.677045,28.0821808 138.035285,24.2584313 136.808031,23.7450614 C130.706834,21.4726231 119.70782,19.6993941 115.170003,14.8822982 C111.494369,8.66056827 113.204158,0.17041563 107.488735,-4.83858633 C102.47958,-8.92990531 91.5464817,-8.06505991 86.1910592,-4.99287204 C81.9657071,-2.25208143 81.3038057,3.07140976 78.6709888,7.00823168 C78.0215521,7.95148804 76.4788956,10.2253646 75.6078392,10.9589615 C73.4874205,13.0011906 66.0399956,15.1467473 63.8892914,15.5409156 C51.7526012,18.0289313 45.7009888,19.5662434 36.1552845,27.6343295 C11.2134535,53.1073237 14.7490169,98.1608657 7.84753806,131.47094 C7.56507327,135.132795 5.33979158,140.102063 9.30993242,142.459676 C12.7292986,144.098275 16.7497212,143.919895 20.4418338,144.507026 Z" id="ðŸŽ¨-Background" fill="#FFFFFF"></path>
                        <path d="M112.387606,6.41403757 C112.417394,6.32738395 112.55662,6.31258943 112.577746,6.41403757 C112.918099,7.97147789 113.555915,9.67939961 114.202394,11.1398301 C114.859437,12.6192822 115.757324,13.9782646 116.891831,15.1322372 C119.268592,17.5500845 122.325634,18.6533331 125.678451,18.6554466 L125.758732,18.6575601 C125.774225,18.5448399 125.791596,18.4321198 125.807715,18.3193996 L125.830563,18.1503194 C126.136901,15.8339202 128.885493,15.9015523 129.422113,17.6494192 C129.694648,17.7360728 129.967183,17.8227264 130.237606,17.913607 L130.291656,17.9330564 C130.746881,18.1063979 132.288924,18.8746213 132.572113,18.6702411 C133.195352,18.2219671 133.907324,18.7357597 134.143944,19.308519 C134.530651,20.2462978 134.595271,21.4053561 134.720849,22.4227745 L134.737606,22.5546481 L134.75662,22.7131609 C143.577042,25.0065229 148.527042,33.8346247 151.053803,41.967384 C152.422817,46.3761511 153.318592,50.9244094 154.218592,55.4473057 C155.181972,60.2851139 156.069507,65.1356031 157.009437,69.9755249 C158.862254,79.5135523 160.615775,89.0731374 162.139014,98.6684407 L162.580684,101.454959 C163.976156,110.278209 165.335392,119.096352 166.478451,127.959478 C167.095352,132.738108 167.674225,137.520965 168.231972,142.308049 C168.331972,143.161764 168.431033,144.015666 168.529218,144.870194 L168.675845,146.152511 C168.80662,147.302257 169.028451,148.439321 168.460141,149.515094 C167.228451,151.84819 163.497465,151.831282 163.286197,148.843 C163.244155,148.249106 163.444648,147.794703 163.776338,147.477677 L163.771745,147.427501 C163.768474,147.397599 163.765141,147.375525 163.763873,147.365662 C163.653803,146.771768 163.624225,146.144057 163.55662,145.543611 C163.408732,144.26304 163.26507,142.982257 163.119296,141.69936 C162.83831,139.25594 162.555211,136.812942 162.261549,134.371846 C161.668099,129.419908 161.040423,124.474312 160.375141,119.532942 L159.71561,114.647152 C157.509966,98.3611269 155.211165,82.0785955 152.186197,65.9218262 C151.362254,61.5236266 150.515282,57.1317675 149.646761,52.7420219 C148.822817,48.5847616 147.897465,44.4465229 146.515775,40.4329808 C144.259437,33.8768947 140.31507,27.7371687 134.839014,23.4340767 C134.923521,24.2562294 134.984789,25.082609 135.062958,25.9047616 C135.263662,28.0161511 135.477042,30.125427 135.692535,32.2347029 C136.476338,39.8771295 137.539014,47.5068751 139.35169,54.9800102 C140.249577,58.6830787 141.343944,62.3373252 142.677042,65.9070317 C143.334085,67.6654661 144.050282,69.4006521 144.836197,71.1041354 C145.613662,72.7885973 146.976549,74.5893018 147.058732,76.4660924 C147.096761,77.3347421 146.18831,78.1061706 145.347676,78.0131765 C145.740423,81.4708673 145.962254,84.9644877 146.196761,88.4137245 C146.539014,93.4098341 146.811549,98.4148204 147.210845,103.406914 C147.92493,112.349145 148.820704,121.278695 149.758732,130.199791 C149.944648,131.96837 150.146789,133.735597 150.346766,135.502553 L150.514189,136.986182 C150.626943,137.947969 150.797279,139.100642 150.286901,139.953607 C150.743239,141.054742 151.055915,142.185466 151.237817,143.364801 C151.467887,144.831572 150.629366,146.475877 148.917887,146.412472 C148.723521,146.40592 148.529155,146.389012 148.334789,146.368088 C146.748169,146.735838 145.165775,147.059204 143.517887,147.069771 C141.413662,147.084566 139.305211,147.042296 137.200986,147.027501 C133.13007,147.000026 129.058732,146.97255 124.987606,146.938734 C110.249577,146.820378 95.5052113,146.826719 80.7692958,146.590006 L74.8733834,146.496386 C69.468338,146.409419 64.0625352,146.309192 58.6601408,146.112355 C54.9397183,145.97709 51.219507,145.839713 47.5009859,145.689654 L46.7439349,145.660797 C43.4629937,145.541213 40.1781489,145.479813 36.9333803,144.977404 C36.8520423,144.963648 36.8168603,144.879211 36.8294618,144.805 L36.8340845,144.785075 L36.6925352,144.753372 C36.6101408,145.108441 34.8988732,143.616308 34.9115493,142.625075 C34.2016901,141.701474 34.5333803,140.226249 34.6094366,139.156816 C34.6833803,138.114859 34.776338,137.070789 34.8587324,136.028832 C35.0340845,133.803314 35.1840845,131.575681 35.363662,129.350163 C36.0883099,120.376229 36.713662,111.379047 37.1192958,102.386092 C37.3242254,97.8526286 37.4890141,93.3170513 37.6622535,88.7835875 C37.74026,86.719508 37.8488691,84.6536277 38.0512244,82.5990789 L38.1038028,82.0856853 C38.3256338,80.0019828 38.304507,77.7616697 39.0714085,75.7980141 C39.0819718,75.7707499 39.1178873,75.7707499 39.1284507,75.7980141 C39.9038028,77.7088321 39.9777465,79.9301237 40.1340845,82.0267186 C40.1615493,82.0182646 40.1890141,82.0140376 40.2185915,82.0076971 C41.2897183,81.4983429 42.3714085,81.0397127 43.385493,80.4098888 C43.5228169,80.3253487 43.6559155,80.2363703 43.7911268,80.149928 C45.3861972,75.2677362 47.2347887,70.4658575 48.935493,65.6153683 C54.4305634,49.931063 57.4643662,33.227838 58.1361972,16.6201432 C53.9446479,19.3233775 49.3796225,21.4264314 44.9419787,23.6847396 L44.526338,23.8969339 C40.1552113,26.13302 35.97,28.671337 32.8580282,32.5496149 C30.1453521,35.9269926 28.3728169,40.0419828 26.7143662,44.0090278 C24.9333803,48.2719632 23.3277465,52.6109847 21.8594366,56.9901628 C18.8805634,65.8753292 16.5735211,74.9781863 14.7735211,84.1740376 C12.9967606,93.2494192 11.7270423,102.392222 10.8777465,111.598852 C10.4446479,116.295055 10.0495775,120.995486 9.71788732,125.702257 C9.54887324,128.084175 9.39887324,130.468206 9.25943662,132.854351 C9.19183099,134.01255 9.14112676,135.172863 9.06507042,136.331063 C9.01859155,136.99893 9.01014085,137.687721 8.79042254,138.321771 C8.60661972,138.850147 8.28126761,139.292081 7.97704225,139.759165 C7.42140845,140.610906 6.01859155,140.765192 5.49676056,139.759165 L5.27080563,139.323445 C4.97171831,138.743162 4.69859155,138.15882 4.65802817,137.489263 C4.62,136.855212 4.69816901,136.193685 4.73408451,135.55731 C4.80380282,134.270398 4.88408451,132.981161 4.9643662,131.694038 C5.13338028,128.98664 5.32140845,126.279243 5.53267606,123.573959 C5.95309859,118.154938 6.49394366,112.750711 7.17422535,107.357051 C9.56788732,88.4137245 13.0242254,69.5697323 19.62,51.5922763 C21.2509859,47.1475796 23.07,42.7386012 25.1235211,38.4716501 C27.1094366,34.3460924 29.6214085,30.4509065 33.2678873,27.6103585 C36.624507,24.9950254 40.5262986,23.2445175 44.403168,21.5454316 L44.8876056,21.3332548 C49.2333803,19.4332157 53.5707042,17.3873448 58.1087324,15.9755249 C58.0073239,15.9882059 57.9080282,16.0008869 57.8216197,16.0304759 C57.7221127,16.0621785 57.663169,15.9332548 57.7244366,15.8635092 C57.9819718,15.5781863 58.0897183,15.2844094 58.3857042,15.0033135 C58.5900423,14.8088712 58.8026282,14.6252501 59.0212986,14.4481216 L59.3359821,14.1975946 C59.9116976,13.7404126 60.5170394,13.2732845 61.241831,13.1138419 C62.2666901,12.8898106 62.769507,13.8218654 62.4819718,14.5510239 C62.6298592,14.3586951 63.0270423,14.4157597 63.1305634,14.6799476 C66.5023944,23.3791256 68.7164789,32.5876579 73.254507,40.8070708 C76.6052113,46.8791648 81.1009859,52.4862881 87.0671831,56.1532157 C90.2721127,58.1230004 93.9399296,59.6362685 97.7277465,59.8750943 C101.129155,60.0885581 104.40169,59.2239241 107.294155,57.4382254 C112.901197,53.9784211 116.562465,47.9042137 119.173521,42.018108 C122.044648,35.538108 124.093944,28.6332939 125.298169,21.6333722 C121.482676,21.6862098 117.455915,19.9446834 114.918592,17.1062489 C113.58338,15.6120023 112.58831,13.7922763 112.08338,11.8520806 C111.574225,9.89497691 111.736901,8.28660117 112.387606,6.41403757 Z M80.3783873,1.33099961 C80.8433873,0.500392955 81.8743732,0.225637573 82.717331,0.563798043 C83.6530352,0.940001566 83.9342324,1.84880783 83.8011338,2.77240861 C83.6466972,3.85452211 82.9516268,5.02350059 82.410993,5.96802505 C81.8447958,6.95714442 81.1159225,7.86827554 80.3614859,8.71980587 C78.9419789,10.3260681 77.4227535,11.7738176 75.6208521,12.9575906 C73.8271901,14.1346004 71.7988099,15.0159311 69.7138099,15.5083773 L69.2181039,15.6240945 C67.5961608,15.995099 65.2885645,16.420122 63.9375423,15.5381777 C63.8722606,15.4956963 63.874162,15.4090427 63.9375423,15.3667726 C64.6685282,14.8574184 65.6469085,14.7665378 66.4875423,14.5258098 C67.4044437,14.2616219 68.323669,13.9615045 69.2002183,13.5850896 C70.9307113,12.8411366 72.5870493,11.8604712 74.0614859,10.6895906 C75.5426831,9.51469432 76.9748662,8.11344188 77.9659225,6.49640078 C78.4645141,5.68502701 78.889162,4.83307397 79.2966972,3.97520313 C79.7088803,3.11479609 79.9157113,2.15949276 80.3783873,1.33099961 Z" id="ðŸ–-Ink" fill="#000000"></path>
                    </g>
                    <g id="head/Mohawk-2" transform="translate(78.591549, 38.043053)" fill-rule="evenodd">
                        <path d="M91.8551197,77.5134599 C88.2857535,61.3259295 87.5902606,43.5488337 78.1692042,29.4145714 C74.0522324,23.6512603 67.4374437,16.1360665 59.7099085,18.5046693 C60.0282887,15.0919961 60.3289225,11.6778434 60.6069507,8.2615773 C60.7660352,6.30743249 61.4972324,3.70380822 59.8440634,2.20131898 C57.1146972,-0.00348727984 52.5963169,3.37029746 50.4868099,5.25533072 C45.916669,9.6332407 44.1120211,13.8853973 38.0919507,16.8092172 C35.6788521,15.0888258 33.3270211,13.283683 30.8777958,11.6097886 C28.3820915,9.90419178 24.8120915,7.13360078 22.222162,10.2822975 C20.0270915,12.951229 21.4292746,17.1581566 22.2996972,20.0946575 C22.744838,21.5965127 23.1872324,23.2357456 23.8058239,24.7802935 C23.858007,25.9543444 23.9488521,27.1262818 24.082162,28.2948376 C19.6227254,29.0886693 15.0331479,29.7565362 10.7725141,31.3143992 C8.44899296,32.5734129 8.65392254,35.432771 10.3022324,37.1442857 C12.768993,39.5340235 15.8904718,41.4027828 19.2982183,42.6571468 C18.6794155,44.7993933 17.1961056,46.6159491 15.3310352,47.8037378 C14.7054718,48.2004423 14.3545563,48.7822896 14.2275845,49.4030254 C13.2715986,49.8783523 12.248007,50.2211624 11.1667394,50.4437143 C9.83321831,50.7191037 9.06272535,52.2936634 9.40645775,53.5450685 C10.3749085,56.5863992 13.7877254,54.8480431 16.0047676,54.6333112 C16.0715282,56.7571703 16.1061761,58.9702192 17.0701901,60.9376791 C11.9175845,62.2903209 7.45392254,67.2226027 8.64526056,72.7798474 C9.72737324,78.0923483 15.4596972,79.7157299 19.9973028,80.9229628 C20.3410352,81.1254364 20.3399789,81.324317 20.4492042,81.8258513 C21.1979366,85.2698043 20.5675141,89.058681 19.387162,92.3282701 C19.0654014,93.2195342 19.5382183,94.3348297 20.2529366,94.8693346 C23.9482183,97.2231429 25.1733592,90.0551977 29.3858239,94.6176164 C29.0714577,94.5704853 28.2893451,94.1792759 28.3294859,94.7461174 C33.7945563,104.340575 49.9307535,104.930243 59.8174437,105.165687 C61.0039225,105.743096 62.3699789,105.415714 63.727162,105.047119 C65.0220211,104.976951 66.3154014,104.879941 67.6056127,104.74827 C69.9610352,104.323033 74.1042042,104.827104 74.2520915,101.50827 C80.3355423,99.1075421 85.5661056,94.9602153 89.1331479,89.4651076 C91.7790634,85.818681 92.8237817,81.959002 91.8551197,77.5134599 L91.8551197,77.5134599 Z" id="ðŸŽ¨-Background" fill="#FFFFFF"></path>
                        <path d="M54.9620704,0.988612133 L55.3171467,0.833476634 C56.5416437,0.30308801 57.8786244,-0.205545205 59.2191127,0.0844555773 C60.7630563,0.418389041 61.655662,1.74672564 62.0378451,3.19489785 C62.4802394,4.87006027 62.6779859,6.6532227 62.7992535,8.3774184 C62.9245352,10.163117 62.8761549,11.9450114 62.7417887,13.7279624 C62.6296056,15.2190387 62.3976338,16.9470387 61.8428451,18.3922521 C61.866507,18.371117 61.8948169,18.3554771 61.9286197,18.3518841 C64.1122817,18.1280642 66.1246056,18.2584673 68.2100282,18.9620524 C70.1526338,19.6174497 72.0358732,20.5370348 73.7264366,21.6988274 C77.3779859,24.2079781 80.2032676,27.9974888 82.1716479,31.9207843 C86.1702718,39.8914506 87.013871,48.9081963 88.1344341,57.6247171 L88.1684789,57.8887609 C88.7713372,62.5498181 89.5724223,67.1403936 90.8572383,71.661647 L91.0790931,72.432461 C92.2583364,76.568885 92.9621379,80.592706 92.0217887,84.8750231 C90.2034085,93.1557276 83.793338,99.4062012 76.3782676,103.014162 C72.5923521,104.856291 68.4958732,106.215485 64.3584085,106.999172 C60.1146761,107.803148 55.5217183,107.937778 51.6523521,105.741638 C49.7340423,104.652761 51.4229155,101.871814 53.3617183,102.815915 C57.3627042,104.764354 61.8971408,104.122906 66.0502394,103.051571 C70.1811549,101.986154 74.2326338,100.494444 77.8928451,98.2788587 C84.1740423,94.4770896 89.4591127,87.9136063 89.6323521,80.2914693 C89.7297465,76.0025378 87.8976338,71.9072031 87.0143239,67.7664282 C86.2358028,64.1174816 85.7526976,60.4151185 85.2967381,56.7132442 L84.9587326,53.9634278 C83.9778069,46.0774113 82.7495451,37.9590813 78.7013662,30.9893636 C75.1277746,24.8371679 68.9727042,19.9450427 61.8889014,18.6437589 C61.8464366,18.6361503 61.818338,18.6156493 61.8014366,18.5896532 C61.5846761,19.7569409 60.2986901,20.8453949 59.4758028,21.5170661 C58.3098169,22.4694106 56.8970704,23.1594693 55.3603099,23.1286121 C52.3970704,23.0692227 49.8525634,20.7703656 47.8214366,18.8451757 C47.5924225,18.6283303 47.8404507,18.3256767 48.1009437,18.3649879 C50.4582676,18.719845 52.4792535,20.6357354 54.8955211,20.6072031 C56.1390423,20.5924086 57.0918592,19.9249644 57.9037606,19.0375045 C58.2069296,18.7056845 58.4735493,18.3051757 58.7619296,17.9370035 C58.8331268,16.9698646 59.1069296,16.0215358 59.2294648,15.0588352 C59.3437606,14.1605965 59.4417887,13.24862 59.4998873,12.343618 C59.6181972,10.4968391 59.5808028,8.6363225 59.376507,6.7965182 C59.288735,6.00683665 59.1777409,5.20981897 59.00543,4.43214199 L58.9248433,4.08164405 C58.8179807,3.59984356 58.7481074,3.16086517 58.1659437,3.21032642 C56.8717183,3.31980587 55.4249577,4.10962192 54.2931972,4.70562975 C49.9055915,7.01716791 46.715662,10.5913127 44.3610845,14.790209 C44.5089718,14.8641816 44.6500986,14.9616141 44.7821408,15.0884243 C45.0477042,15.3435241 45.1839718,15.7928548 45.0622817,16.1485573 C44.5922113,17.5231796 42.9210845,17.5633362 41.7453803,18.1016454 C40.4642535,18.6879311 39.2608732,19.4416063 38.1212958,20.2671405 C35.8780563,21.8920016 33.8171408,23.8009174 31.8574225,25.7535828 C28.7710141,28.8283068 25.9049577,32.1006434 23.1371408,35.4579429 L22.5481301,36.7740674 C21.9602086,38.0899805 21.3851514,39.4103519 20.9093239,40.7810114 C20.1348169,43.0099115 19.4860141,45.2884791 18.9872113,47.5949448 C18.4852394,49.9164164 18.1579859,52.2911483 18.0339718,54.6631327 C17.9232676,56.7795945 18.2040423,58.8945769 18.1922113,60.9987804 C18.3802394,61.3506787 18.4482676,61.7473832 18.3597465,62.1516963 C18.9517183,62.3192971 19.5250986,62.5748196 20.0636197,62.9273519 C20.1948169,63.0135828 20.1115775,63.2190153 19.9567183,63.1809722 C19.2739014,63.0127374 18.5908732,62.9753284 17.922,63.0404243 C17.5670704,63.4783421 16.9924225,63.7571131 16.4348873,63.7448548 L16.197,63.739571 L16.197,63.739571 C16.0227042,63.7357667 15.8498873,63.7078685 15.6829859,63.6603147 C14.742,64.0942168 13.8762254,64.7187569 13.143338,65.4650348 C11.3811549,67.2598215 10.530169,69.6110935 10.6552394,72.1229918 C10.7790423,74.6006513 12.0981972,76.8354693 14.2831268,78.0255828 C15.2577042,78.5562834 16.340662,78.8356885 17.4485493,78.8561894 C18.5143944,78.8754223 19.9131972,78.5514223 20.7889014,79.2461307 C20.8873521,79.3243303 20.9522113,79.4283147 20.9921408,79.5432892 C21.0531972,79.2852305 21.1180563,79.0278059 21.188831,78.771438 C21.2429155,78.5755162 21.5689014,78.5526904 21.608831,78.771438 L21.6602289,79.0566244 C22.3940119,83.1948261 22.6521155,87.4552397 25.5673521,90.7672579 C26.9308732,92.3164556 28.5747465,93.7136924 30.2610845,94.8997902 L30.5400874,95.0945786 C31.2605312,95.5921372 32.0389664,96.0753449 32.8979155,96.255391 C33.8524225,96.4555397 34.641507,96.4005886 35.5193239,96.9253714 C35.9319296,97.1722286 36.1852394,97.7170896 36.033338,98.1896689 C35.0596056,101.222968 31.2219296,99.860393 29.2873521,98.6611914 C28.2115775,97.9943812 27.1647465,97.1887139 26.1920704,96.301254 C25.343831,96.8182168 24.336507,97.1515162 23.4709437,97.281074 C22.1359437,97.4810114 20.7185493,97.2032971 19.6543944,96.3407765 C18.5285493,95.4285886 18.1434085,94.1013088 18.3346056,92.6922364 C18.4297213,91.9911271 18.6115699,91.3071102 18.8074951,90.6280887 L18.9694648,90.0733949 C19.205662,89.2656141 19.3903099,88.4318372 19.866507,87.7265613 C20.1069296,87.3708587 20.6775634,87.4044634 20.8011549,87.8489331 C21.0840423,88.8661167 20.9616138,90.0143279 20.8883827,91.0739204 L20.8725634,91.3167687 C20.8246056,92.1137706 20.4850986,93.3362207 21.1835493,93.9267335 C22.0248169,94.6377159 22.9455211,94.3130818 23.8412958,93.8231718 C23.7500282,93.7117902 23.6598169,93.5997746 23.5712958,93.4875476 C20.6727042,89.8020211 19.9518592,85.214029 20.7458028,80.7293871 C19.9977042,81.7111092 18.0477042,81.9235162 17.0129155,81.8472188 C15.3882676,81.7275945 13.7896056,81.2334575 12.4058028,80.3648078 C9.50742254,78.5459272 7.87728169,75.3560172 7.80798592,71.9627883 C7.74038028,68.6678372 9.21397183,65.3354771 11.9312958,63.4168391 C12.6491831,62.9100211 13.4477746,62.5160642 14.2814366,62.2569487 C13.8762254,60.6473049 13.833338,58.8690035 13.9212254,57.1289566 C12.9491831,57.2612618 11.8968592,57.0894341 11.0179859,56.790162 L10.8815718,56.7424927 C9.52706565,56.2571524 7.80678411,55.2817134 7.55319718,53.7591875 C7.24094366,51.8866239 9.55094366,50.8104282 10.8912254,50.0624595 C11.518114,49.7127708 12.1591453,49.3856145 12.8246366,49.115607 L13.0250282,49.0363538 C13.5994648,48.8152814 14.2757324,48.402937 14.858831,48.7313753 C14.9004507,48.7548352 14.9105915,48.7994301 14.9044648,48.8431796 C14.7891127,49.6558215 13.4577042,50.3473597 12.8657324,50.8598841 C12.4110845,51.253207 11.9716479,51.6649174 11.5499577,52.0937472 C11.2765775,52.3718841 10.8654507,53.0746239 10.5147465,53.2718137 C10.6776338,53.3569879 10.8728451,53.5666474 11.0089014,53.6471718 C11.3921408,53.8731053 11.7962958,54.0324634 12.2287606,54.1356023 C12.8716479,54.2894654 13.5155915,54.2235241 14.1593239,54.2089409 C14.420662,51.6461072 14.895169,49.1392814 15.6591127,46.6772618 C16.9404507,42.5466317 19.040662,38.1951405 22.0368592,34.9295671 C24.233831,30.8120407 27.0713662,27.0510622 30.3122113,23.687845 C32.3908732,21.5310153 34.5865775,19.4382247 37.0218592,17.685708 C38.1015188,16.9088313 39.2369583,16.2088705 40.4422377,15.6449367 L40.8427243,15.4611939 C41.5117714,15.151483 42.3254844,14.7494552 43.101507,14.6344438 C43.6034789,12.6418333 44.4977746,10.7360877 45.5828451,9.00872172 C47.0777746,6.62870607 49.0453099,4.62130098 51.347493,3.0173636 C52.4834789,2.2256454 53.6940423,1.54488611 54.9620704,0.988612133 Z M15.0250141,70.3902787 C16.9566338,69.0923765 19.3255775,68.5845018 21.6338873,68.7761965 C22.7789577,68.8712035 23.9115725,69.1396998 24.9846463,69.5502831 L25.4270154,69.7250845 C26.4519211,70.1359156 27.551937,70.6429067 27.5886761,71.8830458 C27.6032535,72.3727444 27.2409296,72.7626857 26.8036056,72.9148579 C25.7369155,73.2857777 24.8726197,72.3974724 23.9918451,71.9248932 C23.1026197,71.4472415 22.1574085,71.1323295 21.1836761,70.8772297 C21.0902958,70.8527131 20.9967042,70.8305213 20.9033239,70.8083295 C20.9540282,70.909989 20.9827606,71.0224274 20.972831,71.1435311 C20.9487465,71.4335037 20.8644507,71.649081 20.7824789,71.9208775 C20.7577606,72.0033041 20.6975493,72.5065292 20.6358592,72.5686661 C20.6559296,72.7398599 20.6580423,72.9017542 20.6633239,73.074216 C20.6781127,73.5833589 20.6153662,74.0134568 20.355507,74.4642669 C19.7081831,75.587171 17.8576901,75.6907327 17.2380423,74.4642669 C16.6183944,73.2380125 17.1026197,72.0379656 18.0442394,71.1562121 C18.3009296,70.9161182 18.6431831,70.6715859 19.0150141,70.5029284 C17.7093803,70.3837268 16.389169,70.4401573 15.0848028,70.6117738 C14.9576197,70.6286818 14.9381831,70.4488227 15.0250141,70.3902787 Z M15.1405141,29.2517049 C17.7898099,28.8011061 20.5565704,28.7112822 23.2303732,28.9777949 C23.3761479,28.9925894 23.4306549,29.2145072 23.2673451,29.2502254 C19.201516,30.1431804 14.9867144,30.444932 11.3591406,32.6819101 L11.1921338,32.7865386 C10.8439648,33.0080337 10.0155845,33.4262959 9.84319014,33.8202528 C9.63973944,34.2852235 10.1907254,34.8829221 10.446993,35.2185464 C11.0231197,35.9722215 11.7388944,36.630155 12.5290352,37.1536697 C13.3637535,37.706562 14.2612183,38.1332783 15.2265,38.4027499 C15.6849507,38.5308282 16.1605141,38.5959241 16.6136831,38.7417558 C17.1295986,38.9074544 17.2960775,39.1718536 17.6869225,39.5174114 C18.1373451,39.9151726 17.9860775,40.6785699 17.5003732,40.9641041 L17.3640352,41.0433806 C16.7257899,41.4087658 16.3710116,41.5164374 15.5603028,41.3734896 C14.9260775,41.261474 14.3203732,41.0397675 13.7267113,40.7933331 C12.6359668,40.3402383 11.6404604,39.7470101 10.7219421,39.008354 L10.5847394,38.8964642 C8.94445775,37.540018 6.16523239,34.5730826 7.9958662,32.4130826 C9.61164085,30.5071256 12.7867817,29.6520023 15.1405141,29.2517049 Z M21.6652817,8.70103796 C24.2061972,5.70662701 27.7947887,7.75122975 30.3409859,9.54157808 C33.0851408,11.4707836 35.4661268,13.7463922 37.3911972,16.4958481 C37.5135211,16.6706348 37.2769014,16.8832532 37.1066197,16.780537 C34.9721831,15.4932023 32.8153521,14.2608188 30.6259859,13.0677464 C29.7270158,12.5778628 28.8269135,12.0997918 27.9071381,11.6520812 L27.4154816,11.4154998 C26.647227,11.0361273 25.5441506,10.3438422 24.7248592,10.795308 C22.9581727,11.7693615 24.048594,14.9598284 24.4126062,16.5049929 L24.4457746,16.6507679 L25.5559331,21.7356975 L25.5559331,21.7356975 L26.0617606,24.024991 L26.0617606,24.024991 C26.2415493,24.1708227 26.3911268,24.365899 26.4969718,24.6174059 C26.7834507,25.2973198 26.5495775,26.2158481 25.8566197,26.5726074 C23.811338,27.6255546 23.1188028,25.5691162 22.733662,24.0237229 C22.4207042,22.7683022 22.1044601,21.5136329 21.7875587,20.2592141 L21.2633366,18.186144 C20.4604034,15.0479417 19.3205282,11.4640626 21.6652817,8.70103796 Z" id="ðŸ–-Ink" fill="#000000"></path>
                    </g>
                    <g id="face/Smiling" transform="translate(112.183099, 77.354207)" fill="#000000" fill-rule="evenodd">
                        <path d="M30.968993,50.9198978 C29.548794,50.3403012 28.2816173,49.3734958 27.3551889,48.1384646 C27.0331038,47.7091169 26.9495926,47.2557326 27.017159,46.8410547 C27.0931327,46.3747786 27.3688808,45.9521824 27.7449394,45.6687178 C28.1221628,45.3843752 28.5940214,45.2441445 29.0502103,45.3156301 C29.4466117,45.3777469 29.8412104,45.5948709 30.1535058,46.0451781 L30.2187521,46.1352289 C30.7695298,46.8806513 31.4872438,47.4922614 32.3050288,47.8864795 C33.0932406,48.2664417 33.9747757,48.4437847 34.8870208,48.3406561 C36.6244504,48.1443157 37.8219743,47.2043274 39.0948115,45.9278391 C39.2525834,45.7666792 39.4104563,45.6004672 39.5690946,45.4315797 C39.6692778,45.278484 39.8083069,45.1800892 39.962667,45.1284632 C40.1340565,45.0711416 40.327938,45.0743848 40.5055187,45.1363808 C40.6767961,45.1961763 40.8299095,45.309486 40.9325762,45.4602937 C41.0301525,45.6036243 41.0854754,45.7806897 41.0675245,45.9843589 C40.9510195,47.3072301 40.2596776,48.4878363 39.2776553,49.4148615 C38.1869942,50.4444414 36.7412431,51.1567117 35.3801317,51.4065272 C33.8805866,51.6817086 32.3525901,51.4845569 30.968993,50.9198978 L30.968993,50.9198978 Z M36.0875289,30.5120405 C37.6828906,31.482148 40.1137318,33.7442494 38.3974899,36.149264 C36.3773089,38.2698449 33.4687045,35.8384541 32.0353946,34.7388307 C30.7063626,33.8866164 29.2131206,36.0784478 30.4461973,37.0735516 C40.8033244,44.7445605 45.006466,30.7657101 36.8944406,29.3714319 C36.0012775,29.2177885 35.6695544,30.2119271 36.0875289,30.5120405 Z M17.5274577,21.5886716 C17.7037243,19.3998697 21.0359789,18.9028321 21.3674577,21.0687499 C21.6642887,23.0089456 21.3148521,24.7912626 20.4412606,26.5380728 C19.6065423,28.2068947 17.5085456,27.4283107 17.3498837,25.9087021 C17.1372039,23.8717299 17.4178099,22.9502317 17.5274577,21.5886716 Z M42.8930282,20.6196517 C43.3576056,20.0109628 44.0283803,19.5954481 44.8320423,19.8302583 C47.3429577,20.5642779 46.6028873,24.1303914 45.7210563,25.8662114 C45.2419014,26.8088337 43.6930986,27.0478708 42.993169,26.2178982 C41.8523239,24.864411 41.3059859,22.1614521 42.756338,20.8282544 C42.7956338,20.7593542 42.8393662,20.68982 42.8930282,20.6196517 Z M20.4058944,12.0111429 L20.802522,11.9416942 C22.0295218,11.7294045 23.5551549,11.5254176 24.4231479,12.5122544 C24.8835,13.0355577 25.0419507,14.0081918 24.4231479,14.509092 C23.3346972,15.3904227 22.1313169,15.0488806 20.8269507,15.1234873 C19.7520211,15.1852016 18.7189225,15.3631585 17.6835,15.6592603 C15.4119507,16.3087397 13.5610352,17.4944149 11.6209648,18.7963327 C11.3663873,18.9671037 11.1065282,18.6414129 11.228007,18.4032211 C12.3479366,16.208771 14.5182887,14.4061644 16.6922324,13.3073542 C17.8525141,12.7208571 19.1222324,12.2343288 20.4058944,12.0111429 Z M40.6041287,11.0281289 L40.9077055,11.0902829 C44.2113469,11.7811043 48.5035506,13.1610768 50.0679842,16.4073021 C50.1275964,16.8663298 50.0646105,16.9647086 50.0133917,17.0289838 L49.9963385,17.0503723 C49.9541341,17.1052595 49.9204583,17.1809212 49.7215736,17.2433957 C49.6663832,17.2302408 49.6106433,17.216308 49.5543131,17.2015401 C48.8372041,17.0135386 48.2698321,16.7545401 47.720556,16.4857982 L47.1250012,16.192275 C46.4340388,15.8533498 45.7369757,15.5267598 44.9982488,15.2856588 C43.4217423,14.7712438 41.8001698,14.4088706 40.1534741,14.2153715 C39.7965654,14.1734678 39.4528848,14.0529641 39.1817455,13.8464404 C38.92438,13.6504079 38.7277692,13.3789964 38.6381257,13.0182314 C38.5219478,12.5513438 38.5553348,12.1978716 38.8057421,11.7766707 C38.9940329,11.4603578 39.263447,11.2411116 39.5728025,11.115213 C39.888177,10.9868648 40.2472278,10.9566068 40.6041287,11.0281289 Z" id="ðŸ–-Ink"></path>
                    </g>
                    <g id="facial-hair/Moustache-5" transform="translate(104.577451, 109.479380)" fill="#000000" fill-rule="evenodd">
                        <path d="M62.1955141,6.91588885 C61.9138944,6.07429198 60.4648099,6.14763053 60.5539648,7.13822935 C60.656007,8.27001018 60.2687535,9.53219413 59.1849507,10.0817049 C58.0500211,10.6570004 56.7731197,10.1398262 56.0807958,9.15282035 C55.4788944,8.29494951 55.0637535,7.36183796 54.3063592,6.61365793 C53.6022042,5.91789276 52.7457254,5.38127436 51.8087535,5.06276947 C51.0790352,4.81485558 50.3220634,4.74891429 49.5879085,4.83028415 C47.758331,4.41667162 45.6384718,5.35739178 44.4982606,6.78442896 C44.4247394,6.87636634 44.3565,6.97083992 44.2905845,7.0661589 C44.1775563,6.91229589 44.0592465,6.75991233 43.9339648,6.60964227 C43.6109366,6.22244853 43.2099507,6.13938787 42.847838,6.24485166 C40.7856549,4.71065988 37.8957254,4.5073409 35.5536127,5.89189667 C33.6771338,7.00127436 32.1249507,8.63628023 29.8174859,8.76351311 C27.9898099,8.8643272 25.9990352,7.82110215 25.870162,5.81179491 C25.8025563,4.76265205 24.3735423,3.88808454 23.5717817,4.85945049 C21.8862887,6.90193973 21.5491056,9.61504344 22.4816408,12.0846716 C23.4657254,14.6904094 25.4706549,16.5259867 28.0092465,17.6057753 C30.7506549,18.7717949 33.9631901,19.1767421 36.9287535,19.084382 C39.8852324,18.9922333 42.5734014,17.8549573 44.3554437,15.4356305 C44.5681901,15.146926 44.755162,14.8535718 44.9191056,14.556836 C46.6493873,16.7607969 49.3616408,17.6871452 52.1241761,17.7537205 C55.0143169,17.8230434 58.4309366,17.3155914 60.4743169,15.0702059 C62.4435423,12.9059789 63.1231901,9.68753659 62.1955141,6.91588885" id="ðŸ–-Ink"></path>
                    </g>
                    <g id="accessories/*-None" transform="translate(88.521127, 88.978474)"></g>
                </g>
            </g>
        </g>
    </g>
</svg>