<?xml version="1.0" encoding="UTF-8"?>
<svg width="240px" height="324px" viewBox="0 0 240 324" version="1.1" xmlns="http://www.w3.org/2000/svg" xmlns:xlink="http://www.w3.org/1999/xlink">
    <!-- Generator: Sketch 62 (91390) - https://sketch.com -->
    <title>peep-56</title>
    <desc>Created with Sketch.</desc>
    <g id="Introduction" stroke="none" stroke-width="1" fill="none" fill-rule="evenodd">
        <g id="variations" transform="translate(-1806.000000, -2054.000000)">
            <g id="images" transform="translate(126.000000, 110.000000)">
                <g id="a-person/bust" transform="translate(1680.000000, 1944.000000)">
                    <g id="body/Dress" transform="translate(31.056338, 135.052838)" fill-rule="evenodd">
                        <path d="M161.739486,136.423804 C161.226951,131.66187 160.911106,126.866543 160.729838,122.080516 C160.548782,117.300195 160.785613,112.461119 160.889556,107.678895 C161.101458,97.9506528 161.445824,88.199373 160.671528,78.4859249 C159.939908,69.3059249 158.26012,60.189964 155.609345,51.3694708 C154.3185,47.0737761 152.958148,42.6051969 150.83512,38.6360384 C148.700261,34.6453221 145.318711,31.9878035 141.604204,29.5507233 C137.649486,26.9559757 133.726458,24.3121949 129.787162,21.6933534 C126.480401,19.495099 120.529647,16.9365879 117.816548,13.997762 C114.961689,10.9054959 114.425036,3.2404227 112.523839,-0.422700587 C110.67229,-3.99071624 105.431162,-6.31822011 101.395648,-6.31822011 C94.7158947,-6.31822011 89.6547676,-6.65971115 84.1622324,-0.478349119 C81.4218803,2.60588571 83.6022444,5.72378026 80.72985,8.68395248 C78.089005,11.4055102 71.335331,14.202465 67.9315986,15.7816744 C63.8549789,17.6730481 59.6754718,19.3429268 55.435331,20.8304102 C51.1100493,22.3479053 46.6757535,23.4788407 42.3261761,24.9109503 C38.1570211,26.2836705 32.7130211,31.9417203 29.4764014,34.9354972 C26.4673169,37.7189806 25.7205423,37.4072477 23.4329366,40.7886411 C18.4123732,48.2093613 13.3863169,55.7152556 9.38828873,63.749737 C7.39688028,67.7518661 5.46864085,71.9617526 4.74610563,76.4064493 C3.97540141,81.1470364 4.73955634,85.7282654 5.98941549,90.3181597 C7.26166901,94.9892125 11.3017365,99.4365088 12.6179337,104.095726 C13.224483,106.242834 11.1424437,108.586011 12.1001197,110.609479 C12.5784296,111.619944 13.1807535,112.519663 13.8665282,113.400148 C14.3949085,114.078582 16.4554742,113.928237 16.7220939,114.758632 C16.9914601,115.59727 15.5006831,117.337604 15.4785,118.20562 C15.4470211,119.447725 15.3975845,120.689831 15.3568099,121.931937 L15.1159648,129.275303 C14.9577254,134.100852 14.7994859,138.926614 14.6412465,143.752164 C14.5894859,145.327357 14.5140634,146.86641 14.8915986,148.361079 C14.755331,148.234692 14.6258239,148.097103 14.5075141,147.942606 C14.1612465,147.490316 13.4268803,147.873706 13.7207535,148.402715 C14.2113169,149.285526 14.9167394,149.906895 15.7455423,150.353267 C16.7087113,151.773753 162.572937,154.946543 163.290613,150.79351 C163.693289,148.463373 162.960401,145.968805 162.667373,143.653674 C162.362303,141.242379 161.999768,138.84144 161.739486,136.423804 Z" id="ðŸŽ¨-Background" fill="#FFFFFF"></path>
                        <path d="M13.5693592,76.4147554 C13.9261901,75.3922427 15.5584437,75.8347082 15.1990775,76.8640861 C13.3517535,82.1575656 14.6622465,87.9179178 16.6593592,92.971092 C17.0601338,93.9849393 15.4249225,94.4205323 15.0296408,93.4204227 C12.9287958,88.1049628 11.6290775,81.9739022 13.5693592,76.4147554 M25.9557676,106.650951 C31.1656268,107.384125 36.3797113,107.836415 41.6254859,108.202051 C41.859993,108.218959 42.0628099,108.183241 42.238162,108.106943 C42.0818239,110.509996 41.9550634,112.915162 41.8557676,115.320329 C40.4254859,115.280384 38.9656268,115.37528 37.5480211,115.337237 C35.6952042,115.286513 33.8445,115.193519 31.9959085,115.052125 C28.4170352,114.781386 24.8445,114.350231 21.3057676,113.754223 C19.9832324,113.532305 18.3036549,113.397041 16.7973169,112.957432 C15.3733732,112.541284 14.1057676,111.85207 13.4402746,110.55438 C12.8740775,109.455358 12.7705563,108.109268 12.7705563,106.894004 C12.7705563,106.056845 12.9142183,105.207217 13.000838,104.36393 C13.1085845,104.288055 13.2057676,104.196963 13.2839366,104.095726 C14.8557676,104.592188 16.4867535,104.941127 18.0839366,105.279076 C20.6846408,105.832814 23.3233732,106.281088 25.9557676,106.650951 M23.0174577,87.1088689 C23.0461901,88.7242192 23.4930211,90.1916243 24.3623873,91.5516634 C24.9505563,92.4720939 23.4871056,93.3189746 22.9029507,92.4050959 C21.8795704,90.8036947 21.3611197,89.0061605 21.3273169,87.1088689 C21.3078803,86.0185127 22.9980211,86.0221057 23.0174577,87.1088689 M156.565627,104.731679 C157.271049,104.771202 157.980908,104.795295 158.688444,104.832916 C159.312528,105.366787 160.176613,105.640485 160.965697,105.47056 C160.992951,105.538826 161.017669,105.615546 161.040275,105.70389 C161.179711,106.247061 161.24943,106.830387 161.329711,107.384125 C161.409993,107.929409 161.471261,108.479131 161.513514,109.028642 C161.534641,109.305299 161.667739,109.930896 161.498725,110.172047 C161.346613,110.389526 161.010697,110.370505 160.778303,110.39798 C160.152951,110.465613 159.519148,110.497526 158.88957,110.550364 C157.700134,110.653714 156.510697,110.757276 155.323373,110.860838 C154.159289,110.962497 152.88112,110.930795 151.742387,111.237252 C151.548021,108.952344 151.370556,106.667859 151.205768,104.380838 C152.969852,104.64101 154.814218,104.634458 156.565627,104.731679 M8.6529507,100.94238 C9.36280986,102.313832 10.0177394,103.662247 11.3761901,104.486513 C11.5536549,104.592188 11.7522465,104.649252 11.9550634,104.664047 C11.8029507,105.317119 11.7078803,105.984986 11.6233732,106.602129 C11.4374577,107.961323 11.3973169,109.366591 11.7374577,110.706552 C12.0691479,112.010583 12.6184437,113.175335 13.6959085,114.010168 C14.1966127,114.399053 14.7437958,114.694732 15.3184437,114.929331 C15.2212606,115.201973 15.1642183,115.472712 15.1937958,115.770716 C15.0564718,116.46162 14.9656268,117.165628 14.866331,117.839624 C14.6487254,119.335984 14.4311197,120.834458 14.259993,122.339272 C13.9177394,125.331992 13.6494296,128.324712 13.4233732,131.328 C13.1973169,134.322834 13.0346408,137.322106 12.8994296,140.32328 C12.8297113,141.857683 12.7684437,143.391875 12.7114014,144.928391 C12.6543592,146.507389 12.3987254,148.121894 13.0959085,149.586763 C13.6578803,150.770325 15.5571761,150.702481 16.1402746,149.586763 C16.8797113,148.168391 16.6621056,146.48393 16.6811197,144.928391 C16.7001338,143.463734 16.7254859,141.997174 16.7571761,140.532305 C16.8205563,137.533456 16.9135141,134.536297 16.9874577,131.537448 C17.0592887,128.610247 17.1480211,125.684947 17.2071761,122.757746 C17.2367535,121.225456 17.2388662,119.693166 17.2473169,118.160877 C17.2515423,117.311249 17.2874577,116.404767 17.2240775,115.518998 C17.7522465,115.643695 18.2846408,115.74937 18.8106972,115.857159 C22.8268944,116.681425 26.8853451,117.281659 30.9691479,117.653636 C33.0205563,117.839624 35.0783028,117.970661 37.1360493,118.044845 C38.6487254,118.099585 40.216331,118.20526 41.7522465,118.148407 C41.6318239,121.817237 41.5768944,125.488391 41.5832324,129.159757 C41.5874577,131.807765 41.6233732,134.455984 41.6888662,137.104204 C41.7247817,138.497002 41.7543592,139.8898 41.7966127,141.282599 C41.8156268,141.908407 41.8156268,142.540133 41.8578803,143.163616 C41.8705563,143.358059 41.8980211,143.546372 41.9339366,143.73236 C41.7945,144.127585 41.6783028,144.518372 41.5832324,144.884219 C41.1184437,146.65935 41.1184437,148.365159 41.3254859,150.174106 C41.5029507,151.708509 42.7937958,153.130896 44.4987254,152.592164 C44.7754859,152.505299 45.0522465,152.414419 45.3268944,152.321425 C47.8367535,152.606748 50.3614014,152.672477 52.9071761,152.720877 C56.6275986,152.792947 60.3501338,152.815984 64.072669,152.835006 C71.3740775,152.87326 78.6775986,152.892282 85.9811197,152.913205 C100.65788,152.955476 115.334641,152.995632 130.011401,153.037902 C134.084641,153.050795 138.15788,153.061151 142.23112,153.074043 C144.33957,153.080172 146.443796,153.082286 148.550134,153.16281 C149.532528,153.200853 150.517035,153.253691 151.49943,153.268485 C152.638162,153.287507 153.645908,152.959703 154.733937,152.66191 C155.348725,152.490505 155.591683,151.873362 155.460697,151.351538 C156.445204,151.585926 157.638866,151.08735 157.974782,149.977761 C158.219852,149.172305 158.129007,148.299429 157.763514,147.553362 L157.763514,147.551249 C157.05788,143.093871 156.162106,138.657628 155.458585,134.198137 C154.687458,129.313832 153.945908,124.41917 153.293092,119.515843 C152.802951,115.812775 152.39943,118.437746 152.050838,114.71798 C153.569852,114.836337 155.287458,114.373691 156.791683,114.176924 C157.871261,114.037644 158.959289,113.925417 160.040979,113.777472 C159.960697,114.868039 159.983937,115.979742 159.954359,117.025926 C159.897317,119.103499 159.922669,121.172618 159.975486,123.250403 C160.076894,127.259507 160.302951,124.9262 160.664218,128.918607 C161.029711,132.940603 161.477599,136.947804 162.020556,140.95099 C162.29943,143.011656 162.597317,145.069996 162.912106,147.126434 C163.05788,148.085965 163.20788,149.043593 163.362106,150.003123 C163.545908,151.133636 163.605063,152.205393 164.452246,153.05481 C165.096613,153.699429 166.41281,153.644477 166.83957,152.746239 C167.380415,151.611288 167.135345,150.639076 166.934641,149.447272 C166.771965,148.489644 166.615627,147.532227 166.461401,146.575022 C166.131824,144.522599 165.819148,142.468274 165.525486,140.412047 C164.959289,136.449229 164.424782,132.479859 163.947317,128.506685 C163.465627,124.501386 162.967035,126.841033 162.493796,122.836157 C162.255063,120.815436 162.016331,118.799155 161.737458,116.785198 C161.595908,115.74937 161.507176,114.646333 161.321261,113.578802 C161.380415,113.57056 161.43957,113.559781 161.498725,113.549213 C162.783232,113.314614 163.879711,112.589683 164.202951,111.26663 C164.511401,110.000642 164.143796,108.544438 163.883937,107.30191 C163.662106,106.243468 163.461613,104.892305 162.780486,103.985401 C165.180486,100.927162 166.741542,97.0788963 167.737246,93.3792094 C168.821894,89.3485479 169.275908,85.1411977 169.372035,80.9759061 C169.483585,76.1503562 169.119993,71.3527045 168.293303,66.6345205 C168.273866,65.6346223 168.22781,64.6351468 168.153655,63.636728 C167.426894,53.8387397 164.37619,42.2419491 154.704359,37.6638904 C154.666331,37.6450802 154.62619,37.6279609 154.586049,37.6110528 C153.827599,36.7043601 152.88112,35.8885479 152.116331,35.1257847 C150.762106,33.7729315 149.346613,32.4794677 147.846613,31.2874521 C144.87619,28.9268806 141.618444,27.041636 138.231824,25.3442818 C134.807176,23.6260039 131.331824,22.0136125 127.985345,20.1387241 C125.069852,18.5028728 122.445908,16.5330881 119.955063,14.309683 C117.155768,11.809409 115.163514,8.43837182 114.381824,4.75876321 C114.341683,4.56664579 114.056472,4.61948337 114.052246,4.80314677 C113.847317,11.5473346 118.398021,17.5074129 123.635345,21.2779022 C129.897317,25.7819883 137.458585,27.9143014 143.809289,32.2810098 C145.387458,33.3652368 146.864218,34.588955 148.269148,35.8885479 C146.116331,35.6687436 143.925486,35.8082348 141.90788,36.4042427 C141.113514,36.3556321 140.314923,36.3410489 139.518444,36.3027945 C137.697317,36.2119139 135.874077,36.1275851 134.050838,36.0470607 C130.334641,35.8824188 126.616331,35.7323601 122.898021,35.6013229 C115.602951,35.3432642 108.305768,35.1488219 101.008585,35.0201096 C86.3445,34.7599374 71.6614014,34.7092133 56.9994296,35.1342387 C53.0233732,35.2483679 32.116331,34.4558043 30.1811197,34.6796243 C33.0268944,32.2152798 36.1494296,30.2034364 39.5825282,28.5483523 C43.8775986,26.4834599 48.316331,25.105456 52.9029507,23.8458082 C62.3487254,21.2525401 72.1578803,18.7522661 79.7170352,12.1644775 C81.5952042,10.5265127 83.2642183,8.64359295 84.6311197,6.55756556 C85.9367535,4.56664579 87.388162,2.0175499 87.4240775,-0.410864971 C87.4494296,-2.13527202 85.0494296,-2.76319374 84.1959085,-1.28585519 C83.6656268,-0.370708415 83.4036549,0.633205479 82.9705563,1.59273581 C82.5395704,2.54381213 82.0283028,3.46107241 81.459993,4.33838748 C80.3423873,6.06300587 78.9564718,7.60142466 77.4480211,8.98999609 C74.2325282,11.9531272 70.3367535,14.1236947 66.3057676,15.7658865 C57.1536549,19.4919922 47.1437958,21.0644384 38.4712606,25.9764305 C34.6768944,28.1256517 31.0452042,31.0911076 28.7656268,34.8740665 C28.3980211,34.9313425 28.0325282,34.9987632 27.6670352,35.0748493 C27.9395704,34.7303483 28.2142183,34.3860587 28.4909789,34.0434599 C28.672669,33.8194286 28.3916831,33.5237495 28.1698521,33.7222074 C23.8578803,37.5603288 19.8860493,41.704908 16.2860493,46.2235773 C12.8423873,50.5478043 9.63111972,55.0793659 7.35788028,60.143319 C3.27196479,69.2398356 2.37196479,79.6443992 4.48252817,89.3709511 C5.05717606,92.0210724 5.86844366,94.616454 6.90154225,97.125182 C7.43393662,98.4207593 8.01069718,99.6973151 8.6529507,100.94238" id="ðŸ–-Ink" fill="#000000"></path>
                    </g>
                    <g id="head/Medium-2" transform="translate(78.591549, 38.043053)" fill-rule="evenodd">
                        <path d="M82.7799642,35.4166661 C76.4302882,26.6739499 64.7390719,24.1597268 54.6004061,26.2861221 C34.7794217,29.9006348 15.8424788,45.0284548 12.3402337,65.6021378 C6.87628451,78.0487679 10.3654671,97.6534098 26.2560909,99.1180673 C28.5184448,99.2457229 30.7593086,98.7247444 33.0256656,99.0060517 C46.8576695,101.216353 63.2027444,110.678083 75.4468026,99.5198442 C76.060533,99.9596642 76.8689379,100.172283 77.5570407,99.9061926 C82.7685872,97.8913902 83.0134051,92.0629832 83.4577434,87.2718834 C84.031654,81.0812219 84.5699585,74.8871789 85.072025,68.6905996 C85.2513194,58.0043061 89.4854902,44.6505605 82.7799642,35.4166661 L82.7799642,35.4166661 Z" id="ðŸŽ¨-Background" fill="#FFFFFF"></path>
                        <path d="M44.351493,13.138908 C52.6965634,12.6950724 68.072831,16.5188219 75.3531127,21.001773 C87.2151549,28.3058278 88.1345915,42.8758943 87.6507887,45.3951898 C87.4669859,46.3566223 86.879662,47.246407 85.9606479,46.950728 C86.7402254,53.5700078 86.6789577,57.3533894 86.8099437,64.0109237 L86.899928,68.4556908 C86.9583005,71.4189628 87.0085352,74.3825166 87.0212113,77.3469159 C87.3212113,77.2351115 87.6169859,77.3722779 87.7268451,77.6599256 C87.7543099,77.7296712 87.6592394,77.7677143 87.6127606,77.7275577 C87.0845915,77.2666027 87.4606479,78.3170137 87.642338,78.5306888 C87.8937465,78.8244658 88.3120563,79.1013346 88.6057183,79.3528415 L89.4032535,80.0436135 L89.4032535,80.0436135 L90.2007887,80.7329589 C91.2310704,81.6222153 92.2276227,82.5132476 93.1888181,83.4711732 L93.4500845,83.7341331 C95.201493,85.5137025 97.3965634,87.2359961 98.4867042,89.5378121 C99.5282535,91.7356438 99.2071268,94.2274638 97.4768451,95.9795577 C96.8472676,96.6157221 96.1120563,97.1020391 95.3134648,97.4697886 C96.7352958,99.8115499 96.942338,102.907832 95.4592394,105.317014 C93.9740282,107.735072 91.1176901,109.001061 88.3669859,108.806618 C88.2824789,109.151119 88.151493,109.487166 87.9782535,109.806094 C86.8874897,111.811339 84.7178874,112.071643 82.6604661,111.964329 L82.5803662,111.959965 C77.9493803,111.693452 73.4937465,110.53335 69.4374085,108.278243 C68.0303662,108.37335 66.7754366,107.217053 66.5007887,105.948951 C65.7613521,105.921687 65.0176901,105.860184 64.2592394,105.77353 C62.0092394,105.513781 59.7021972,105.029789 57.7183944,103.886384 C57.414169,103.710963 57.5557183,103.248106 57.8937465,103.23944 C60.3106479,103.184489 62.729662,103.351667 65.142338,103.089593 C67.3564225,102.850556 69.7162817,102.239965 71.7803662,101.409358 C75.4902254,99.912998 78.6719155,97.374681 80.4275493,93.8576008 C82.7007887,89.3051155 82.4937465,83.8376947 82.7409296,78.8920978 C83.0147324,73.4177025 83.3518521,67.9484431 83.7122451,62.4796971 L83.8871312,59.8582927 C84.2371571,54.748752 84.5268564,52.0153321 85.4134648,46.7119022 C82.7409296,46.950728 71.6390672,42.9533688 68.1867042,36.4147045 C61.6342111,50.3246751 28.4364758,44.6318974 26.964169,66.046227 C26.9516837,66.2278222 26.664169,66.1772642 26.6536056,66.0037456 L26.6262191,65.5157065 C26.6129562,65.274544 26.6009257,65.0372211 26.5927684,64.8017299 L26.586,64.566775 L26.064169,64.5731155 C26.064169,64.6384227 25.9712113,64.6618826 25.9479718,64.592137 C25.4557183,63.1949002 23.1106479,63.6450763 22.0902254,63.9771076 C21.1712113,64.2770137 20.3050141,64.7377573 19.5275493,65.306501 C17.9662817,66.4477926 16.7557183,67.9843092 16.3543099,69.905272 C15.5916338,73.5533894 17.9134648,77.2689276 20.9958592,79.0294755 C22.9395211,80.1390646 25.0690986,80.8555421 26.9324789,82.1130763 C28.5782535,83.2226654 30.1120563,84.5224697 31.4409296,85.9998082 C36.7057183,91.8520978 39.8029014,100.72881 37.3120563,108.453663 C37.1219155,109.043331 36.6190986,109.717327 35.9536056,109.812646 C34.8529014,109.971159 33.7521972,109.810532 33.1352958,108.762235 C32.8944507,108.352215 32.7803662,107.885131 32.8057183,107.424387 C32.3789577,108.890947 30.9951549,110.341022 29.7190986,110.886305 C27.9803662,111.630258 26.0219155,111.408129 24.4881127,110.448599 L24.2943361,110.592015 C21.7999776,112.428715 19.0135539,114.102736 15.8176901,113.764896 C13.5021972,113.51973 11.2289577,112.340395 9.94867606,110.480513 C8.24585915,111.43793 6.42684507,112.200693 4.55078873,112.720614 L4.35112968,112.77548 C1.77000638,113.478523 -1.52235265,114.123036 -3.93160563,112.695252 C-6.24498592,111.323589 -7.014,108.328755 -6.47104225,105.828481 C-6.4055493,105.530689 -6.32315493,105.241139 -6.22174648,104.960043 C-7.96259155,105.052826 -9.70132394,104.88607 -11.3534366,104.374603 C-13.0414648,103.852356 -14.6513239,102.848442 -15.4604789,101.221256 C-16.3731549,99.380184 -16.1301972,97.2880274 -15.4499155,95.4133503 C-14.3618873,92.4056243 -12.6125915,89.7299295 -10.4344225,87.3989472 C-8.33978987,85.1554352 -5.81315277,83.2520599 -3.1872714,81.6654604 L-2.74459513,81.4004526 C-0.380840237,79.9900853 2.46973781,78.3373749 5.26276056,78.4461487 C5.25430986,78.4102192 5.24797183,78.3761918 5.24374648,78.3404736 C4.82121127,75.2272838 4.86980282,72.0528023 4.77050704,68.9142505 C4.67966197,66.0272055 4.57614085,63.1401605 4.50853521,60.251002 C4.39867606,55.3390098 4.43459155,50.4063053 5.07473239,45.5283405 C5.64304225,41.1998865 6.66557746,36.9790098 8.53107042,33.0161918 C10.4895211,28.8528023 13.4388169,25.3000039 17.0810704,22.505953 C24.7247324,16.6409824 34.8212113,13.6461487 44.351493,13.138908 Z M18.3887958,70.8311131 C19.2211901,69.2607804 21.1162606,68.7662207 22.7789366,69.0494301 C25.1092183,69.4467687 26.6937254,71.4843969 28.0542887,73.2364908 C29.4824577,75.0729135 26.5035845,76.8038724 25.7366831,75.0245143 L25.5549771,74.6041176 C24.9395233,73.1929614 24.2124834,71.7049505 22.9564014,70.784616 C21.6211901,69.8081777 19.7366831,69.6644595 18.5578099,70.9621503 C18.4733028,71.0572579 18.3317535,70.9346748 18.3887958,70.8311131 Z" id="ðŸ–-Ink" fill="#000000"></path>
                    </g>
                    <g id="face/Monster" transform="translate(112.183099, 77.354207)" fill="#000000" fill-rule="evenodd">
                        <path d="M21.3723169,44.5256102 C22.9045739,44.2297198 24.8108537,44.8742816 26.3389908,45.1567196 L26.4528803,45.1772031 C28.3059085,45.5009918 30.1549225,45.8924125 32.0284437,46.0834732 C33.8170352,46.2662912 35.6436549,46.2990505 37.4324577,46.0934067 C38.2914718,45.9944947 39.1430915,45.8262599 39.9775986,45.6005378 C40.3346408,45.5039507 40.6887254,45.396162 41.0385845,45.2765378 L41.0781433,45.2613897 C41.3351747,45.1552347 42.030229,44.7551937 42.0220352,44.9781112 C42.2174577,44.7526004 42.4866127,44.5926082 42.7821761,44.5148313 C43.1992183,44.4051405 43.7345704,44.5080681 44.0835845,44.8031131 C44.5375986,44.4433949 45.2187254,44.7014536 45.523162,45.1321855 C46.0452706,45.8708971 45.8753742,46.7366555 45.8079129,47.593644 L45.8022465,47.6692344 C45.7449401,48.4770153 45.6572245,49.2792944 45.5490068,50.0810274 L45.5014014,50.4246082 C45.3330211,51.6104947 45.2867535,53.5663303 43.8503451,53.9550035 C42.7142535,54.2626943 41.6746995,53.0932814 40.9423394,52.1653313 L40.5414718,51.6512853 C40.0667535,51.0487256 39.6357676,50.4284125 39.2884437,49.7434262 C39.1302042,49.4316845 38.9772465,49.1123342 38.8447817,48.7887569 C38.8280915,48.7479663 38.815838,48.7114027 38.803162,48.6746278 C36.6964014,48.9582599 34.5397817,48.9176806 32.4275282,48.6391209 C31.0902042,48.4626434 29.7727394,48.207755 28.4751338,47.8653675 L27.8897133,48.9239762 C27.2046278,50.1584947 26.5097582,51.3892344 25.7793592,52.5958098 L25.7226839,52.6877235 C25.0389698,53.7759201 23.8941199,54.8657901 22.5406268,54.0507452 C21.3294296,53.321164 21.2778803,51.6616415 21.1502746,50.4233401 C21.0650546,49.5961415 20.9960097,48.7632793 20.962813,47.9315499 L20.950838,47.5751836 C20.9290775,46.7686708 20.7978803,45.8338685 21.1078099,45.0795593 C21.1528099,44.9696571 21.3106268,44.885117 21.4056972,45.0007256 C22.0532324,45.7882168 22.2490775,47.0087648 22.5287958,47.9752697 C22.8402042,49.05062 23.2912606,50.2250935 23.4530915,51.3406004 L23.4983028,51.2619781 L23.4983028,51.2619781 C23.6577042,50.9590074 23.8203275,50.6576748 23.983743,50.3567648 L24.4739366,49.4540877 C24.9135845,48.6391209 25.3612606,47.8292266 25.8129507,47.0212344 C25.2971761,46.8273558 24.7861901,46.6191053 24.2772387,46.4073793 L23.1221976,45.9243235 C22.4624167,45.6455319 21.7896761,45.3308548 21.2937254,44.8236141 C21.205838,44.7337902 21.2364718,44.5516063 21.3723169,44.5256102 Z M43.2845704,47.5031131 C42.1464718,47.9659703 40.9692887,48.2999037 39.7707676,48.5213988 C39.8480915,48.6006552 39.9252042,48.6799115 39.9970352,48.7631836 C40.2790775,49.0897198 40.5782852,49.4033401 40.8792535,49.7134624 L41.0599225,49.8991914 C41.5209085,50.3724047 42.2134437,51.1516532 42.9201338,51.6045769 L42.9583353,51.4001161 C42.9645891,51.3648793 42.9694912,51.3342863 42.9721056,51.3105886 L43.0473795,50.6382599 C43.0595704,50.5261738 43.0714014,50.4140407 43.0825986,50.3018137 C43.1434437,49.6954497 43.1918239,49.0878176 43.2425282,48.4806082 C43.2691479,48.1606239 43.2754859,47.8319742 43.2845704,47.5031131 Z M29.8161972,8.43131272 C32.5267606,7.27311311 35.7437324,7.81992935 38.0784507,9.56943405 C40.4674648,11.3597824 41.5121831,14.2704986 41.6503521,17.1744517 C43.5397183,15.5605808 46.2606338,16.7821855 47.8519014,18.2943969 C49.6882394,20.0395162 50.6169718,22.6731523 50.1889437,25.1725808 C49.7623944,27.6635554 47.960493,29.8611757 45.5226761,30.6019585 C44.3562676,30.956393 43.056338,30.9644243 41.8829577,30.6347178 C41.484507,30.5224908 40.9962676,30.3487609 40.5452113,30.1067648 C40.5709859,30.2103264 40.5971831,30.3140994 40.6216901,30.4174497 C41.2071127,32.8963773 41.5390141,35.6828196 40.6605634,38.1342716 C39.248662,42.0736297 34.2338028,44.2788587 31.1028169,40.7822795 C29.8734507,39.4095593 28.9178873,37.2597041 28.9922535,35.3881973 C29.031338,34.4047843 29.5882394,33.2670857 30.7379577,33.3336611 C31.6294752,33.385087 32.0522237,34.1314983 31.8240294,34.9213634 L31.8101408,34.9669761 C31.3267606,36.477074 32.1519718,38.6590544 33.3475352,39.6889644 C35.1809155,41.2683851 37.6969014,39.8939742 38.6993662,38.0419115 C39.8676761,35.883391 39.725493,33.1159703 39.3519718,30.7676571 C38.9852113,28.4618254 38.1673944,26.3527609 37.2992958,24.2191796 C37.2071831,24.2358763 37.1138028,24.2513049 37.0183099,24.2641973 C35.291831,24.4985847 31.7790845,24.5869292 29.8715493,23.3357354 C30.0764789,25.2668431 29.6744366,27.2548039 28.5777465,28.8900211 C27.3557746,30.7122834 25.5147887,31.6766748 23.3721127,31.9721425 C21.2911268,32.2595789 18.8788732,32.3177002 16.8242958,31.8244086 C12.4491549,30.7739977 10.9064789,25.3704047 12.2296479,21.4697237 C13.0123944,19.1624125 15.1964789,17.087164 17.6241549,16.5630153 C18.8748592,15.7400172 20.5542254,15.4963303 21.9976056,15.6085573 C24.1533803,15.7765808 26.2766197,16.7084243 27.7204225,18.3449096 C28.2720423,18.9700838 28.7256338,19.6778959 29.0752817,20.4353753 C29.1927465,20.3428039 29.3296479,20.2732697 29.4842958,20.2369174 C29.7257746,20.1802755 29.9370423,20.1675945 30.1732394,20.2508665 C30.2909155,20.2925025 30.4605634,20.4396023 30.5626056,20.5351327 L30.7957405,20.8090379 C31.0815544,21.142265 31.3533275,21.4217295 31.8621127,21.6288705 C33.2805634,22.2064908 35.2043662,22.3318215 36.711338,22.2136767 C40.5564085,21.9127139 40.0721831,16.8176924 39.1250704,14.200119 C38.0032394,11.0991875 34.7877465,9.17019335 31.5164789,9.72097221 C30.1109155,9.95747319 28.77,10.7058646 27.7411268,11.6837824 C26.5926761,12.775618 26.1008451,14.0944438 25.4119014,15.4764634 C25.3711268,15.558256 25.2304225,15.5405025 25.2128873,15.450256 C24.6466901,12.5361581 27.3314789,9.49313659 29.8161972,8.43131272 Z M9.33678169,31.9255397 C9.2199507,31.7883734 9.37333099,31.5472227 9.54065493,31.6609292 C10.7662183,32.4938607 12.1291056,33.0949409 13.6107254,33.2574693 C14.3066408,33.3335554 15.0080493,33.3388391 15.7012183,33.2321072 C16.2917113,33.1408039 16.8238944,32.9607335 17.413331,33.1234732 C17.7270634,33.2101268 17.7841056,33.5742834 17.5924859,33.8025417 C16.701993,34.8628861 14.509669,34.5796767 13.3143169,34.2954106 C11.7684718,33.9280838 10.3671338,33.1365769 9.33678169,31.9255397 Z M50.5786268,29.9895499 C51.1803169,29.6165166 51.8965141,30.3551859 51.5407394,30.9518278 C50.6272183,32.482638 47.9794014,32.6073346 46.4432746,32.2408532 C46.3230634,32.2125323 46.3505282,32.0237965 46.4722183,32.0271781 C47.3551056,32.0489472 48.1530634,31.8792329 48.9136268,31.4184892 C49.5634859,31.0247436 49.951162,30.3784344 50.5786268,29.9895499 Z M21.2203014,17.7525122 L21.0997183,17.7535515 C19.6952113,17.7761659 18.4090141,18.3119389 17.0556338,18.5951483 C16.9434507,18.6188196 16.8308451,18.6067726 16.7292254,18.569575 C15.0809155,19.6696532 13.9447183,21.399344 13.790493,23.6753753 C13.6835915,25.2518372 14.0683099,26.969481 15.0040141,28.2631562 C16.0690383,29.735599 17.7846971,29.962811 19.4742802,30.0067251 L19.6459859,30.0106004 C22.8399296,30.0729487 26.3537324,29.8842129 27.4922535,26.3119703 C28.3347887,23.6681894 27.435,20.4586239 25.0880282,18.8749761 C23.948173,18.1058784 22.5868205,17.7512289 21.2203014,17.7525122 Z M46.9525352,19.6485182 L46.8588153,19.5390983 C45.6061029,18.1012424 43.6198592,16.7916415 41.6615493,17.5157824 L41.6672613,17.7579429 C41.6679577,17.7983342 41.6683803,17.8387256 41.6683099,17.8790935 C41.6623944,20.6558137 40.586831,23.2471796 37.9432394,24.061935 C38.6524648,25.0740916 39.2222535,26.197207 39.6785915,27.3628039 C39.8395775,27.2575515 40.0354225,27.1907648 40.2627465,27.1677276 C41.1933803,27.0734654 41.7266197,27.9478215 42.533662,28.273935 C43.2891549,28.5795476 44.1460563,28.6583812 44.9435915,28.5005025 C46.6882394,28.1553675 47.9123239,26.6503421 48.3411972,24.9802521 C48.8260563,23.0922599 48.185493,21.1129644 46.9525352,19.6485182 Z M20.3946127,21.9854395 C20.976413,21.0022925 22.411623,21.1445815 22.9869484,22.0113412 L23.0145423,22.0545511 L23.020669,22.0465198 C23.9789789,23.2888368 23.5158803,25.2510129 22.1244718,25.9495256 C21.0083451,26.5093926 19.588838,26.3625041 18.8468662,25.2725706 C18.6805986,25.0282497 18.5739085,24.7408133 18.5348239,24.449784 C18.5082042,24.2517487 18.5234155,24.0539249 18.5677817,23.8571577 L18.5565581,23.9032057 C18.5785563,23.8038975 18.6134155,23.648238 18.6225,23.611146 C18.7205282,23.2104258 18.955669,22.7805393 19.2499648,22.4903554 C19.5531338,22.1915061 19.9741901,22.0097448 20.3946127,21.9854395 Z M44.3033662,20.9641949 C44.8186479,20.9641949 45.275831,21.1797722 45.6480845,21.5215256 C46.1775211,22.0078427 46.2512535,22.7078348 46.1369577,23.3721088 C46.1018873,23.5747937 46.0537183,23.7707155 46.0032254,23.9702301 L45.9597512,24.1506763 C45.9521455,24.1806411 45.944,24.2103945 45.9347746,24.2397018 C45.9030845,24.3633417 45.8525915,24.4768368 45.7925915,24.5854708 C45.5722394,25.406144 44.6800563,25.8136274 43.893507,25.6346137 C43.5233662,25.5502849 43.1542817,25.2429816 42.965831,24.9208838 C42.9037183,24.8147859 42.8601972,24.7091108 42.8293521,24.6030129 L42.6761831,24.2397018 L42.6761831,24.2397018 C42.6474507,24.1526254 42.629493,24.0592086 42.6064648,23.9702301 C42.5551268,23.7709268 42.5056901,23.5745824 42.4699859,23.3721088 C42.348507,22.6856431 42.4452676,22.0351068 42.9588592,21.5215256 C43.3036479,21.1763906 43.8159718,20.9641949 44.3033662,20.9641949 Z M32.9535211,13.8451773 C33.8478169,13.7251303 34.7585915,14.1419131 35.2210563,14.9321519 C35.6228873,15.6190403 35.6211972,16.5432751 35.2210563,17.2301636 L35.1872535,17.2882849 L35.1872535,17.2882849 C34.4501408,18.5534278 32.7310563,18.7157448 31.6969014,17.7382497 L31.646831,17.6909072 L31.646831,17.6909072 C30.9817606,17.0625628 30.8319718,16.0203945 31.176338,15.2041597 C31.4911268,14.4576705 32.1511268,13.9531773 32.9535211,13.8451773 Z" id="ðŸ–-Ink"></path>
                    </g>
                    <g id="facial-hair/*-None" transform="translate(104.577451, 109.479380)"></g>
                    <g id="accessories/*-None" transform="translate(88.521127, 88.978474)"></g>
                </g>
            </g>
        </g>
    </g>
</svg>