<?xml version="1.0" encoding="UTF-8"?>
<svg width="240px" height="324px" viewBox="0 0 240 324" version="1.1" xmlns="http://www.w3.org/2000/svg" xmlns:xlink="http://www.w3.org/1999/xlink">
    <!-- Generator: Sketch 62 (91390) - https://sketch.com -->
    <title>peep-74</title>
    <desc>Created with Sketch.</desc>
    <g id="Introduction" stroke="none" stroke-width="1" fill="none" fill-rule="evenodd">
        <g id="variations" transform="translate(-2526.000000, -1082.000000)">
            <g id="images" transform="translate(126.000000, 110.000000)">
                <g id="a-person/bust" transform="translate(2400.000000, 972.000000)">
                    <g id="body/Polka-Dot-Jacket" transform="translate(31.056338, 135.052838)" fill-rule="evenodd">
                        <path d="M96.5293806,-8.22339274 C102.684082,-7.91955082 112.267163,-5.27997127 112.746268,-3.59296916 C113.494383,-0.958742583 111.886755,8.91710931 114.575641,14.236598 C115.721878,16.504226 120.074428,16.3009289 121.760953,17.0394411 C127.403791,19.5103837 144.109072,24.196625 147.553415,30.0974572 C148.933318,32.4615007 157.413481,61.7947256 161.919521,76.7596791 C162.427537,78.446843 163.001314,80.0072366 163.625104,81.4524319 L163.854351,80.3294706 C165.691593,71.2846375 166.610214,65.8091073 166.610214,63.9028801 C166.610214,60.9244 164.23521,48.3576083 166.610214,45.1618213 C168.961468,41.9979921 174.627858,39.4110886 177.177228,39.3596669 L177.253521,39.3588868 C178.927423,39.3588868 180.379852,38.8354535 181.61081,37.7885871 L183.415612,36.8805888 C192.597039,32.2716359 197.961227,29.7434607 199.508176,29.2960632 C201.976712,28.5821311 206.177899,30.1031625 204.077305,32.3866025 C202.67691,33.9088958 199.157884,36.6018499 193.520228,40.4654648 L191.394524,42.1551036 L191.651332,42.2893081 C194.398595,43.7361423 196.013947,44.9539324 196.49739,45.9426783 C196.995707,46.9618472 196.756597,48.1674064 195.780057,49.5593559 L195.928189,49.7038308 C197.163096,50.916214 197.780549,51.7294454 197.780549,52.1435249 L197.780549,54.1663086 C199.009084,55.9662187 199.316218,57.4672779 198.70195,58.6694861 C198.087683,59.8716944 197.113718,60.9134409 195.780057,61.7947256 C194.797332,64.3808032 193.627029,66.2213665 192.269148,67.3164156 C190.911267,68.4114647 188.564476,69.3230448 185.228778,70.0511559 L182.210261,77.2713581 L179.764373,87.4149976 L178.531921,98.7334888 L178.889753,98.9926487 C180.548382,100.201156 181.61081,101.097022 181.61081,102.022833 C181.61081,103.465008 174.918543,137.382263 164.506528,138.900309 C162.254702,139.228619 150.57652,137.618335 146.742115,134.497923 L146.798718,134.834949 C147.700918,140.286236 147.510061,143.117165 146.226146,143.327735 C130.447144,145.915601 85.6337076,146.715183 11.7858376,145.726481 C11.3464744,106.516456 13.3331798,80.4031761 17.7459537,67.3866419 C29.0318669,34.0961369 41.4751175,22.7257371 45.8283682,21.7518945 C49.6416034,20.8988559 62.8645502,15.6339491 66.5608908,14.236598 C68.9737335,13.3244558 69.4906577,10.5896527 72.2402107,10.5896527 L72.4624819,10.5907904 C75.1215619,10.6175049 77.4795807,11.0932346 78.804393,9.72515695 C82.2810849,6.13492436 81.3091945,1.16536952 82.7515225,-3.59296916 C83.5462314,-6.2147681 88.9767998,-8.59624441 96.5293806,-8.22339274 Z" id="ðŸŽ¨-Background" fill="#FFFFFF"></path>
                        <path d="M79.6204014,1.17747476 C79.981669,0.461419961 80.9406127,0.55420274 81.5733592,0.879048141 C83.4711761,2.26698552 81.4854718,4.95726341 80.9604718,6.65102466 C79.6100493,9.93625362 77.2645563,13.1468759 74.026669,14.6823358 C74.2949789,17.9481205 74.598993,21.2067194 74.7111761,24.4826489 C78.8509648,29.6195178 85.8306127,31.4944063 92.0264577,32.936238 C101.757655,35.628418 112.74019,30.112598 116.024556,20.4900305 C112.286599,18.365326 111.07688,12.8021636 112.192162,8.92092681 C112.289134,8.64828493 112.711669,8.52781526 112.86188,8.83215969 C113.885472,10.9382654 113.748993,13.5076509 114.912655,15.5883945 C126.081951,16.6580384 140.496739,20.874054 147.813993,29.9101245 C151.056739,34.4309072 152.341246,40.3106724 153.93843,45.5500462 C157.346176,56.351737 160.061387,67.371964 163.40343,78.184645 L163.79751,76.1387422 C164.877176,70.5029627 165.858279,64.7907371 165.129063,59.0593456 L165.116015,58.7851039 C164.877778,54.224647 163.451075,45.7499202 166.986528,42.6710325 C170.184486,40.2263436 174.817162,38.2618427 178.83019,39.3887624 C185.971669,36.2096313 192.135613,30.8561284 199.741458,28.7709464 C202.082303,28.2890677 205.449908,28.8597135 204.896599,32.0365198 C203.363218,37.5927076 196.941739,39.749326 192.552021,42.6143906 C195.365894,43.3771538 198.796246,46.8003945 196.597796,49.7855061 C196.578782,49.8383436 196.56188,49.8785002 196.544979,49.9102027 C198.327866,50.7006528 198.577585,52.6873456 198.140049,54.390829 C198.095683,54.8410051 197.977373,54.4542341 198.241669,54.8621401 C200.253359,56.7600658 199.364134,62.0507977 196.333711,62.2296 C196.532092,64.7364258 194.922444,67.1711812 192.883711,68.5386176 C190.686317,70.0117292 187.509063,70.0751342 185.689838,72.091416 C181.418641,79.6256313 179.945261,88.5200971 179.479627,97.1478387 C182.29519,98.202054 184.821317,101.354766 182.263289,104.029404 C182.212796,104.035322 182.162303,104.04124 182.111176,104.045467 C180.628289,108.004269 180.055754,112.224301 179.271528,116.358735 C178.064979,123.413396 174.920683,129.890649 170.905542,135.767455 C166.262303,143.546625 153.776599,142.313396 147.486528,137.292982 C147.511669,138.610117 147.728641,139.919432 147.306951,141.192183 C146.684556,142.565749 145.167021,141.972277 145.01681,140.619635 C141.691669,142.490297 140.9085,136.315486 144.604838,137.294884 C144.320472,132.830954 144.155683,128.360684 144.021951,123.889146 C139.837162,125.244113 139.656739,118.298719 143.937232,119.687502 L143.932157,117.767407 C143.900685,103.044351 144.063298,88.2709327 146.005542,73.6638622 C146.18512,72.5711812 146.489345,71.5144297 146.66681,70.4280892 C146.685824,70.3158622 146.861176,70.3477761 146.86181,70.4553534 C147.162444,90.9056078 145.826387,111.399612 147.220331,131.857052 C148.380824,132.210852 148.8435,133.542993 149.702725,134.319072 C151.610261,136.080888 154.208007,136.938759 156.748289,137.237608 C163.861669,138.235393 166.932866,136.062077 170.100613,129.8767 C168.671875,130.831866 166.741216,129.145112 167.612094,127.633525 L167.639345,127.587776 C168.543782,125.985952 171.097796,126.945905 170.774345,128.739635 C173.959204,123.637639 175.626106,117.884473 176.857162,112.047189 L177.023707,111.349814 C177.622127,108.871659 178.398745,106.031875 179.835824,103.789733 C171.072021,101.555338 162.499204,94.7475335 161.127866,85.4073299 C158.902796,92.4006998 155.88843,99.236825 153.015401,106.0385 C152.128077,108.40351 151.758359,110.945843 150.486528,113.13987 C150.190754,113.647111 149.440754,113.516074 149.27343,112.981146 C148.129627,107.865201 151.595683,102.999072 153.395261,98.3937487 C154.864838,95.7909699 159.083007,83.9052634 161.698289,83.8765198 C158.759556,70.9909151 154.839908,58.2016861 151.107021,45.4764963 C147.497514,28.2941401 140.14181,24.9808016 124.559134,19.5708681 C127.369838,33.8995726 140.202232,47.7694356 133.373852,62.7983436 L133.207794,63.1880961 C132.509376,64.8452464 131.929208,66.5149193 132.41681,68.3336078 C132.890049,70.0983828 133.967514,71.6306724 134.829697,73.2179131 C139.648289,82.1836039 136.331387,92.6543202 134.468218,101.991142 C132.114697,112.940567 129.789697,123.900136 127.356951,134.832864 C126.877373,137.013788 126.566599,139.260653 125.842162,141.374156 C125.468218,142.464723 123.602725,142.361162 123.723359,141.088833 C123.95343,138.620261 124.646387,136.212982 125.153852,133.788794 C128.183007,118.093921 132.28181,102.58398 134.888007,86.820418 C136.564415,75.1513456 129.964627,73.3582497 130.210965,65.8185393 C131.108007,61.9624532 133.482444,58.5212477 133.346176,54.411964 C133.873923,41.8332399 124.715049,31.4557292 123.584345,19.2219288 L121.587829,18.5094686 C120.58999,18.1521328 119.593246,17.7918904 118.599697,17.4231264 C123.829627,54.013146 122.241528,91.4024924 119.627092,128.173216 C119.093007,129.869937 119.601106,141.72225 117.36188,140.670359 C117.248852,141.332731 116.897092,141.983901 116.132303,141.98052 C109.187937,142.044136 102.241458,142.154038 95.2970915,142.236888 C91.9567394,141.92895 87.3654718,143.204661 84.5243451,141.276723 C81.243993,140.34023 80.8668803,131.45295 79.9899085,128.285232 L79.6479779,125.981509 C74.0739026,88.3380136 69.085762,49.9180481 73.0924437,11.9018114 C67.5179366,12.1161205 66.3673732,18.1347429 65.9539225,22.5168798 C64.9201901,32.1889033 58.6734296,40.5182184 58.3738521,50.3012008 C58.3485,52.6746646 58.7963873,54.9739444 59.7447676,57.1531773 C62.2609648,62.4923084 66.6126549,68.6647937 63.3601901,74.6278309 C59.5136408,79.2699288 59.8465986,80.4917448 61.2580775,86.2284258 C65.2292746,105.19331 71.8242042,123.425443 78.0977958,141.710625 C76.7346972,148.817702 68.5358239,122.433577 67.7644859,120.444136 C64.1351197,122.26978 62.1525845,116.211213 66.3154014,115.779635 C63.6415986,106.826414 61.1809648,97.8061949 59.1323028,88.6866411 L59.0780386,88.4295898 C58.1730792,84.2161169 56.3930831,79.2822082 59.3989225,75.5446685 C67.1494859,67.703784 54.2784296,58.9397213 55.9020211,49.4410051 C54.5000493,50.4808485 52.3778662,49.3868994 52.4097676,47.6403006 C52.3461761,45.6738975 54.9865986,44.666602 56.257162,46.1669777 C57.5635108,38.4604567 62.1084272,31.7327297 63.483771,24.0488609 L63.5458944,23.6879718 C64.0119507,20.9723319 64.1433592,18.1148759 65.476669,15.6397526 C63.661669,16.8190873 61.7287817,17.7722771 59.7407535,18.6134513 C63.295331,21.5835569 56.4120211,24.2943358 56.9815986,19.7061323 C37.4883592,25.347917 33.0823732,33.2156431 25.9252606,51.2839796 C27.262162,49.984598 29.5523028,51.666101 28.7520211,53.3232986 C28.1135704,55.0690521 25.3284296,54.5586411 25.3294859,52.6979131 L25.00328,53.4760498 C20.6632871,63.8574601 16.7131685,74.490912 14.7280775,85.6009268 C18.622162,85.0509933 17.6306831,91.2767389 14.1025141,89.5214748 C12.6865986,99.402101 12.6642042,109.422641 12.8372324,119.382946 C16.1218099,117.660019 16.2206831,123.514845 12.8689225,121.845389 C12.9914577,130.007737 13.1710352,138.170085 13.3062465,146.332434 C13.3337113,148.069733 10.654838,148.061279 10.6125845,146.332434 C10.2996972,133.790696 9.72948592,121.226132 10.0005423,108.68059 C9.74554225,86.9060149 16.0028662,65.9189307 25.3261056,46.4134121 C33.5754718,23.9542732 44.9704014,21.4001049 65.9351197,14.8702262 C67.870331,11.9964963 72.004838,9.27853151 75.3781479,11.0830403 C77.2654014,8.03536908 78.2239225,4.42466067 79.6204014,1.17747476 Z M43.701338,79.4527468 C43.779507,79.1758779 44.1745775,79.2454121 44.1872535,79.5182654 C44.3626056,83.0414748 44.2062676,86.5877213 43.9654225,90.1259366 C43.8194366,92.2859366 43.6400704,94.4436117 43.4879577,96.5890286 C43.0844366,102.248989 42.7590845,107.915291 42.5119014,113.585819 C42.5985211,113.54989 42.6872535,113.517976 42.7802113,113.492825 C43.2069718,113.376371 43.6339437,113.376371 44.060493,113.492825 C44.4410563,113.599148 44.77377,113.785007 45.0603515,114.053322 L45.1210563,114.112081 C45.3555634,114.329561 45.5224648,114.58762 45.6196479,114.885623 C45.7581094,115.150754 45.8281653,115.434254 45.8279879,115.737286 L45.8264789,115.813451 C45.8245775,116.248622 45.716831,116.652301 45.4971127,117.028715 C45.2837324,117.390124 44.9964085,117.677561 44.6351408,117.892927 C44.2590845,118.110829 43.8553521,118.218618 43.4203521,118.22052 C43.3738732,118.224958 43.3271831,118.229185 43.2809155,118.231299 C42.9574648,118.24398 42.6555634,118.176348 42.3764789,118.030516 L42.3344366,118.017835 L42.3344366,118.017835 C42.2288028,120.894312 42.1421831,123.772903 42.0788028,126.651494 C42.0217606,129.160222 41.9457042,131.66895 41.895,134.177467 L41.8714476,135.432488 L41.8714476,135.432488 L41.8254736,138.205926 C41.8105301,139.346563 41.8178386,140.438694 41.4302325,141.514306 L41.3837324,141.638344 C41.1048592,142.356723 40.8874648,143.356622 40.1412676,143.756074 C39.5457042,144.075001 38.7428873,143.956856 38.4006338,143.335275 C38.1133099,142.815565 38.3623944,142.067173 38.7872535,141.716332 C38.7788028,141.693295 38.7661268,141.67216 38.7555634,141.648911 C38.6900704,141.458485 38.5905634,141.279048 38.5316197,141.086719 C38.345493,140.478031 38.3964085,139.829185 38.3942958,139.197036 C38.3942958,138.081318 38.4321127,136.965389 38.4619014,135.851361 C38.5273944,133.480011 38.6034507,131.110986 38.6961972,128.741749 C39.0102201,120.793921 39.60151,112.846093 40.2787305,104.920587 L40.5085393,102.245562 C40.8147371,98.6884039 41.1316197,95.1273299 41.5802113,91.5884806 C41.6011268,91.4194004 41.6224648,91.2503202 41.6457042,91.0810286 C41.4048592,90.9607703 41.1809155,90.7938035 41.0032394,90.6078153 C40.2915091,89.8600881 39.8597654,88.7424225 39.454956,87.7793969 L39.3619014,87.560144 C38.9224648,86.5329816 38.516831,85.4931382 38.3076761,84.3898896 L38.2876618,84.2883645 C38.1922506,83.8185968 38.0039487,82.9859198 38.5020423,82.7582654 C38.7619014,82.6399092 38.9264789,82.7244493 39.0111972,82.9844102 C39.0219718,83.0182262 39.0130986,83.0562693 38.9942958,83.0858583 C39.1992254,83.4005589 39.5203521,83.6945472 39.723169,83.9862106 L40.4173318,84.9791812 L40.4173318,84.9791812 L40.760493,85.4781323 C41.1957042,86.118735 41.660493,86.7316509 42.1400704,87.3361127 C42.5180282,84.681553 42.9809155,82.0375609 43.701338,79.4527468 Z M72.1675563,138.607644 C73.0358662,137.926885 74.4492465,138.296748 74.4492465,139.55238 C74.4492465,140.81393 73.0337535,141.177663 72.1675563,140.496904 L72.1244313,140.465017 L72.1244313,140.465017 L72.0830493,140.431386 C71.6113415,140.062732 71.5955321,139.102988 72.04737,138.702821 L72.0830493,138.673162 C72.1103028,138.649703 72.1379789,138.628779 72.1675563,138.607644 Z M34.3414607,136.15421 L34.4160634,136.155748 C34.8090211,136.155748 35.1745141,136.255083 35.5146549,136.453963 C35.6625423,136.565979 35.8083169,136.679897 35.9562042,136.794237 C36.2266268,137.064554 36.4125423,137.386018 36.5160634,137.755881 L36.5944437,138.334769 L36.5944437,138.334769 C36.6047958,138.634887 36.5435282,138.913869 36.4062042,139.174041 C36.3174718,139.444359 36.1674718,139.678957 35.9562042,139.875724 C35.7576127,140.089188 35.5252183,140.239247 35.255007,140.325689 C35.0166092,140.451619 34.7624117,140.515585 34.4906246,140.515585 L34.4160634,140.514002 C34.0212042,140.514002 33.6555,140.414668 33.3153592,140.215787 C33.1674718,140.103983 33.0216972,139.989642 32.8738099,139.875724 C32.6055,139.605196 32.4174718,139.283732 32.314162,138.913869 C32.2885986,138.721541 32.2634577,138.527098 32.2357817,138.334769 C32.2254296,138.034652 32.2885986,137.755881 32.4238099,137.495709 C32.5125423,137.22518 32.6625423,136.990793 32.8738099,136.794237 C33.0726127,136.580773 33.3047958,136.430503 33.5752183,136.34385 C33.8134225,136.218114 34.0693791,136.154358 34.3414607,136.15421 L34.3414607,136.15421 Z M133.238556,132.135823 L133.792289,132.210007 L133.792289,132.210007 C134.32257,132.330477 134.74912,132.721475 135.034331,133.167424 C135.186655,133.40625 135.268838,133.664097 135.281514,133.940966 C135.342993,134.215721 135.330106,134.49259 135.243486,134.769459 C135.180106,135.039776 135.055669,135.276488 134.871655,135.477483 C134.808486,135.576817 134.734331,135.667698 134.650035,135.748011 C134.476585,136.037561 134.214824,136.227565 133.94419,136.422218 C133.716232,136.56805 133.468838,136.64625 133.202641,136.658931 C133.027289,136.705428 132.849824,136.705428 132.672359,136.658931 C132.408275,136.64625 132.161092,136.56805 131.932923,136.422218 C131.797923,136.318657 131.662711,136.212982 131.529401,136.10942 C131.411303,135.972042 131.301232,135.830438 131.197711,135.682492 C131.128204,135.519753 131.060387,135.358915 130.992993,135.198289 C130.868134,134.811518 130.929401,134.469342 130.997218,134.082571 C131.00757,134.017052 131.024683,133.957874 131.047923,133.894258 L131.093532,133.771496 C131.215139,133.450395 131.280106,133.341432 131.495599,133.061749 L131.57778,132.95182 C131.618861,132.897048 131.661021,132.843508 131.70919,132.795447 C131.84419,132.655956 132.036655,132.539502 132.188556,132.419244 C132.513908,132.231142 132.864613,132.138148 133.238556,132.135823 Z M61.5104303,130.782549 L61.5808521,130.783371 C61.8871901,130.785485 62.1747254,130.861571 62.4407113,131.015857 L62.7871901,131.284272 L62.7871901,131.284272 C62.9984577,131.497735 63.1442324,131.746917 63.2266268,132.03689 C63.2456408,132.18864 63.2669789,132.341023 63.2878944,132.491082 C63.2963451,132.725681 63.2479648,132.945274 63.140007,133.150495 C63.0726127,133.361845 62.9540915,133.543395 62.7871901,133.700005 C62.6331761,133.864859 62.449162,133.983215 62.2378944,134.05296 C62.0535154,134.149029 61.8551683,134.199683 61.6444403,134.200159 L61.5808521,134.198792 C61.2724014,134.198792 60.9850775,134.120593 60.7188803,133.966095 L60.3724014,133.700005 L60.3724014,133.700005 C60.1611338,133.486542 60.0153592,133.235035 59.9329648,132.945274 C59.9139507,132.793313 59.8928239,132.643254 59.8716972,132.491082 C59.8632465,132.256483 59.911838,132.03689 60.0195845,131.833782 C60.0893028,131.622432 60.2055,131.438557 60.3724014,131.284272 C60.5266268,131.117305 60.7104296,130.998949 60.9216972,130.931317 C61.1061338,130.834307 61.300838,130.785231 61.5104303,130.782549 L61.5104303,130.782549 Z M47.5675563,130.083781 C48.0088944,130.079554 48.456993,130.20425 48.8182606,130.459984 C49.1689648,130.709166 49.4349507,130.977793 49.6062887,131.381472 C49.6527676,131.491585 49.6990352,131.599162 49.7393873,131.709065 C49.9210775,132.193057 49.9548803,132.679162 49.7034718,133.152587 C49.4605141,133.611217 48.9365704,133.812 48.4673451,133.949166 C48.0703732,134.067734 47.6203732,134.086755 47.2253028,133.945151 C47.0288239,133.875405 46.8365704,133.801432 46.6591056,133.693644 C46.3274155,133.488634 46.147838,133.24537 45.926007,132.945252 C45.7527676,132.649573 45.6661479,132.32811 45.6661479,131.985933 C45.6661479,131.641221 45.7527676,131.322294 45.926007,131.02429 C46.2659366,130.443076 46.8957254,130.088008 47.5675563,130.083781 Z M25.1731056,130.491708 C25.7310634,130.491708 26.220993,130.749555 26.5571197,131.184726 C26.8970493,131.626659 27.0216972,132.17617 26.8716972,132.723778 C26.7132465,133.302667 26.2338803,133.809908 25.640007,133.955739 C25.2007817,134.063528 24.8414155,134.059301 24.4040915,133.985117 C24.0343732,133.921923 23.7514859,133.701908 23.4681761,133.473649 C23.1449366,133.209461 23.0456408,132.727794 23.0984577,132.33891 C23.149162,131.950025 23.3289507,131.696405 23.6014859,131.465822 L23.6033873,131.459692 L23.5019789,131.537892 C23.5402183,131.504076 23.5780352,131.468146 23.6162746,131.432217 C23.6287394,131.411082 23.6393028,131.387833 23.6498662,131.364585 C23.8062042,131.098283 24.0174718,130.889047 24.2815563,130.732647 C24.5583169,130.572021 24.8540915,130.491708 25.1731056,130.491708 Z M155.227268,124.089971 C155.533606,124.007544 155.842056,124.007544 156.148394,124.089971 C156.374662,124.142809 156.57093,124.24637 156.738042,124.400445 C156.907268,124.510769 157.045519,124.651909 157.150024,124.827099 L157.183606,124.886762 C157.424662,125.296781 157.462479,125.765768 157.358958,126.222284 C157.230296,126.786589 156.710577,127.300382 156.148394,127.433321 L156.129486,127.436861 L156.129486,127.436861 L156.110577,127.441987 C155.882408,127.513846 155.651915,127.524413 155.423958,127.471576 C155.193465,127.461008 154.980085,127.393376 154.783817,127.266566 C154.534521,127.10594 154.325366,126.898816 154.164803,126.649423 C154.037831,126.450754 153.970437,126.23729 153.959662,126.006707 C153.919732,125.854746 153.919732,125.702574 153.959662,125.550402 C153.970437,125.319818 154.037831,125.106355 154.164803,124.907897 L154.435014,124.558957 L154.435014,124.558957 L154.46269,124.53592 L154.46269,124.53592 C154.678183,124.320132 154.933606,124.172186 155.227268,124.089971 Z M133.956951,112.90525 C136.726669,112.90525 136.722444,117.204115 133.956951,117.204115 C131.187444,117.204115 131.191458,112.90525 133.956951,112.90525 Z M32.5525563,112.36208 C32.8443169,112.296561 33.1358662,112.309242 33.4253028,112.400123 C33.6006549,112.474095 33.7738944,112.548068 33.9471338,112.619716 L34.3907958,112.962526 L34.3907958,112.962526 C34.4731901,113.03206 34.513331,113.108146 34.5893873,113.207481 L34.6844679,113.331893 C34.8218966,113.515941 34.825162,113.554856 34.976007,113.947207 C35.0774155,114.323411 35.0774155,114.699403 34.976007,115.076029 C34.9272042,115.257579 34.8534718,115.428773 34.7584014,115.587285 C34.6714799,115.739458 34.5674845,115.872996 34.4504065,115.995888 L34.3907958,116.056483 C34.1922042,116.269947 33.9576972,116.420005 33.6872746,116.508773 C33.5161479,116.608319 33.3323451,116.656718 33.1358662,116.656718 C32.8443169,116.722236 32.5525563,116.709555 32.263331,116.618463 C32.0879789,116.544702 31.9147394,116.47073 31.7412887,116.39887 L31.297838,116.056483 L30.9555845,115.612647 L30.8464384,115.352343 L30.8464384,115.352343 L30.7358662,115.090612 L30.6576972,114.509399 C30.6471338,114.207168 30.7084014,113.928186 30.8455141,113.666111 C30.898331,113.482025 30.9915,113.319497 31.1265,113.184021 C31.2238944,113.019379 31.354669,112.888342 31.519669,112.791121 C31.654669,112.655645 31.8175563,112.562863 32.0013592,112.510025 C32.1724859,112.41069 32.3562887,112.36208 32.5525563,112.36208 Z M169.542676,109.291054 C169.773169,109.282812 169.988662,109.331211 170.187254,109.436886 C170.256972,109.460346 170.324789,109.489724 170.39007,109.523751 C170.645704,109.673598 170.848521,109.876495 170.998521,110.130326 C171.121056,110.324769 171.188662,110.534005 171.199225,110.759939 C171.245128,110.963796 171.24092,111.16905 171.185649,111.373161 L171.167535,111.434358 C171.121056,111.601324 171.051338,111.755399 170.958592,111.897004 C170.949718,111.913912 170.939366,111.93082 170.92669,111.945614 C170.785141,112.169857 170.597113,112.35352 170.364718,112.491109 C170.106972,112.638843 169.830211,112.714929 169.530211,112.717254 C168.932324,112.717254 168.416831,112.393888 168.102042,111.897004 C168.057676,111.827258 168.032324,111.738491 168.000845,111.666632 C167.973169,111.599 167.928803,111.512557 167.905352,111.434358 C167.825282,111.13424 167.825282,110.834123 167.905352,110.534005 C167.958169,110.31399 168.057676,110.121872 168.207676,109.958921 C168.327887,109.775258 168.486338,109.629426 168.683028,109.523751 C168.926798,109.381333 169.18875,109.305548 169.466723,109.292902 L169.542676,109.291054 Z M52.6019155,107.188267 C52.8944399,107.108279 53.1853441,107.102126 53.4759576,107.169808 L53.5486056,107.188267 C53.7807887,107.243218 53.9817042,107.348893 54.1547324,107.505292 C54.3469859,107.632103 54.5014225,107.799069 54.6131831,108.005981 C54.7739577,108.283061 54.8542394,108.583179 54.8561408,108.90422 C54.8542394,109.225684 54.7739577,109.525801 54.6131831,109.802459 C54.4547324,110.071085 54.2413521,110.282435 53.9732535,110.440948 L53.7408592,110.552964 L53.7408592,110.552964 C53.546493,110.675547 53.3394507,110.741065 53.1152958,110.751422 C52.965507,110.791789 52.8152958,110.791789 52.6676197,110.751422 C52.5152958,110.751422 52.3737465,110.71359 52.2429718,110.637504 C52.0993099,110.597347 51.9765634,110.525277 51.8709296,110.419602 C51.6871268,110.301245 51.5436761,110.145058 51.4380423,109.948502 L51.2667042,109.544611 L51.2667042,109.544611 L51.2077606,109.096549 L51.2077606,109.096549 L51.2667042,108.650811 L51.2667042,108.650811 L51.3598732,108.431007 L51.3598732,108.431007 C51.444169,108.128564 51.596493,107.866701 51.8181127,107.644784 C52.0399437,107.424768 52.3019155,107.272596 52.6019155,107.188267 Z M157.373915,103.62283 C157.682155,103.525609 157.988704,103.512716 158.295042,103.58056 C158.501873,103.58056 158.696239,103.633397 158.876028,103.739072 C159.072507,103.793812 159.24131,103.891033 159.385183,104.034963 C159.63638,104.197491 159.83307,104.413068 159.978845,104.681483 L160.211028,105.233319 L160.211028,105.233319 C160.350465,105.59029 160.299761,106.116763 160.215465,106.476059 C160.145746,106.771738 160.010535,107.029796 159.809831,107.249389 C159.708423,107.420583 159.573211,107.556059 159.401873,107.657507 C159.206275,107.835552 158.980675,107.962273 158.724748,108.037506 L158.654197,108.056748 L158.628845,108.063088 C158.624408,108.065202 158.620394,108.065202 158.616169,108.065202 C158.614056,108.067526 158.60962,108.067526 158.607507,108.067526 C158.50631,108.092677 158.402789,108.107472 158.295042,108.111699 C157.988704,108.179331 157.682155,108.166861 157.373915,108.06964 C157.192225,107.993342 157.008423,107.915143 156.82462,107.837155 C156.668282,107.718798 156.513845,107.598117 156.357718,107.477648 C156.237296,107.32146 156.116873,107.164849 155.996451,107.010775 C155.827225,106.746587 155.736592,106.459151 155.723915,106.152481 C155.668775,105.947683 155.668775,105.744787 155.723915,105.539566 C155.723915,105.33054 155.776732,105.138211 155.880042,104.958352 C155.973211,104.671127 156.131662,104.423847 156.357718,104.214611 C156.513845,104.09393 156.668282,103.97346 156.82462,103.855104 C157.008423,103.776904 157.192225,103.698916 157.373915,103.62283 Z M22.6274366,96.0564047 C22.9462394,95.9697511 23.2654648,95.9697511 23.5844789,96.0564047 L24.0131408,96.2360524 L24.0131408,96.2360524 C24.2244085,96.3501816 24.3915211,96.504256 24.5182817,96.7010231 C24.6788451,96.874119 24.7863803,97.0793401 24.8413099,97.3139389 C24.966169,97.6351914 24.9513803,98.1445456 24.8520845,98.4721386 C24.7401127,98.8441151 24.5668732,99.1400055 24.2985634,99.4189879 C23.8527887,99.8797315 23.1680704,100.012882 22.5619437,99.873391 C22.394831,99.8353479 22.2363803,99.7613753 22.0927183,99.6704947 C21.6344789,99.3872853 21.3260282,98.8927256 21.3281408,98.3453284 C21.3281408,98.2861503 21.3323662,98.2269722 21.3408169,98.1680055 C21.3112394,98.0473245 21.3004648,97.9226278 21.3049014,97.7913793 L21.3682817,97.3139389 L21.3682817,97.3139389 L21.3722958,97.3012579 C21.4570141,96.9988157 21.6091268,96.7369526 21.8307465,96.5150348 C22.0357086,96.3121386 22.2746935,96.1650688 22.5478674,96.0771501 L22.6168732,96.0564047 L22.6274366,96.0564047 Z M182.047796,48.5979288 C181.470613,43.8643162 179.300683,38.7716196 172.682303,41.5512986 L172.190699,41.7355382 C170.553063,42.3557742 168.644685,43.1705941 167.648007,44.6031969 C166.961387,45.5902027 167.19357,47.5029229 167.098711,48.654782 C166.667092,52.3999092 166.898641,56.1397526 167.348218,59.8690286 C167.92857,68.6102654 166.091387,77.6670481 162.433711,85.6114943 C166.094345,91.5366998 170.99343,97.0632986 177.676458,99.5329268 C177.959134,92.7961362 179.277655,86.1829855 180.680894,79.609146 L180.736139,79.3225448 C181.297284,76.3582542 181.578181,73.3159202 183.524345,70.8505785 C187.483077,66.5510795 192.927866,68.9845667 195.533007,62.0776391 C194.985824,61.8007703 195.287937,60.8539209 195.947303,61.0358935 C198.232162,61.4414748 198.603359,57.2041127 197.039556,56.1830795 C195.410049,55.189099 197.050542,53.3554239 196.356951,52.0319483 C195.970331,51.4615139 195.135824,51.4424924 194.757444,50.7849816 C193.754768,48.3652321 198.772796,46.814555 192.871669,44.0866568 C191.663852,43.6569816 190.313852,43.9234943 189.095683,43.9186333 C187.303711,44.0860227 185.879556,45.3490521 184.240754,45.7463906 C186.02512,50.3684102 181.522796,54.819236 177.459063,51.1275804 C175.247725,53.2184689 172.774838,57.9846294 178.15012,55.7627037 C180.781035,54.0061714 183.046035,51.7356352 186.10012,50.6539444 L186.164671,50.6337976 C187.298374,50.2621991 192.259466,47.8509154 192.0135,49.9378896 C190.15519,51.7320423 187.090331,51.7109072 184.938148,53.1673221 C181.954415,54.5476509 180.046458,57.8924806 176.474556,57.8461949 C175.651035,62.8482223 181.325049,59.8047781 183.437937,58.4252947 L184.023764,58.107316 C187.004078,56.4967463 190.029226,55.0045577 193.504838,54.9847233 C194.463993,54.9783828 194.459768,56.4578348 193.504838,56.4705159 C188.975261,56.4988368 185.288641,59.3311421 181.494275,61.4370364 C181.120754,64.3568407 185.394908,63.0785941 187.01681,62.6478622 C188.717303,62.408825 191.448359,60.5688094 192.936739,61.5408094 C193.518782,63.0369581 190.957162,62.9255765 190.065401,63.3795569 C194.136951,65.3358153 190.569697,66.5677761 189.478077,63.5613182 L189.158325,63.6702957 C186.431917,64.5868642 179.820841,66.4735562 180.607162,61.8536078 C179.609345,62.2953299 178.392655,62.5595178 177.290049,62.3143515 C174.540401,66.3828446 170.154275,64.8084963 176.529486,62.0353691 C175.092866,61.3668681 174.613077,58.7858583 175.993077,57.8252712 C170.974838,57.5188133 174.700542,52.2517526 176.777514,50.4964885 C176.581458,50.2982419 176.391528,50.0959796 176.214486,49.8911812 C175.01681,50.461827 173.757866,50.8084415 172.411669,50.9310247 C171.123148,51.047056 170.836035,48.8534513 172.107655,48.6738035 C173.470331,48.4814748 174.725472,48.1179523 175.925261,47.4329659 C177.743852,46.6473769 178.364556,50.0230638 180.184627,50.1426881 C181.177373,50.3392438 181.848993,49.4684806 182.047796,48.5979288 Z M139.798648,92.1548149 C140.238085,92.1548149 140.628718,92.338901 140.947732,92.630353 C141.266746,92.9220164 141.40407,93.3597229 141.423085,93.7779851 C141.431535,94.0020164 141.385056,94.2112532 141.283648,94.4056955 C141.218155,94.6064783 141.106183,94.7797855 140.947732,94.9279421 C140.651958,95.2215076 140.214634,95.4034802 139.798648,95.4034802 C139.359211,95.4034802 138.968366,95.2193941 138.649141,94.9279421 C138.330338,94.6339538 138.192803,94.1985722 138.173789,93.7779851 C138.165338,93.5560673 138.212028,93.3468305 138.313225,93.1523883 C138.372169,92.9716838 138.468761,92.8115225 138.603,92.674986 L138.649141,92.630353 C138.945127,92.3344626 139.382239,92.1548149 139.798648,92.1548149 Z M153.113974,82.1313146 L153.184352,82.1324994 C153.556183,82.1348243 153.900761,82.227607 154.221676,82.4135953 C154.361113,82.521384 154.500549,82.6270591 154.638085,82.7350591 C154.893507,82.9926951 155.068859,83.294926 155.166254,83.6438654 C155.265549,84.0073879 155.265549,84.3730239 155.166254,84.736335 C155.132451,84.9457832 155.054282,85.1486795 154.931746,85.3241002 C154.749845,85.6261198 154.509211,85.869384 154.204775,86.0488204 C153.889986,86.2329065 153.549845,86.3235757 153.184352,86.3256892 C152.81907,86.3235757 152.478718,86.2329065 152.16393,86.0488204 C151.859704,85.869384 151.618859,85.6261198 151.439282,85.3241002 C151.314634,85.1486795 151.236465,84.9457832 151.202662,84.736335 C151.103366,84.3730239 151.103366,84.0073879 151.202662,83.6438654 C151.292903,83.3198503 151.450546,83.0361093 151.67728,82.7909502 L151.730831,82.7350591 C151.916746,82.5342763 152.136465,82.3926716 152.392099,82.3100337 C152.616746,82.1920474 152.857371,82.1323115 153.113974,82.1313146 Z M51.4948099,82.2444939 C51.6513592,82.2022239 51.8055845,82.2022239 51.9619225,82.2444939 C52.1943169,82.2550614 52.4117113,82.324807 52.6126268,82.4518286 C52.7309366,82.5446114 52.8492465,82.6357033 52.9675563,82.726584 L53.0706993,82.8504168 C53.2911761,83.119097 53.2967535,83.1649245 53.4659366,83.5740986 C53.5358662,83.8023569 53.5464296,84.0306153 53.4957254,84.2588736 C53.4957254,84.4131593 53.4555845,84.5568775 53.3793169,84.6900282 C53.3372746,84.8358599 53.2654437,84.9626701 53.1576972,85.0683452 C53.0814296,85.1970575 52.9802324,85.3006192 52.8511479,85.3769166 C52.6865704,85.5269753 52.4922042,85.630537 52.2682606,85.6833746 L51.8138239,85.7444548 L51.8138239,85.7444548 C51.7548803,85.7362121 51.6936127,85.7277581 51.6344577,85.7214176 C51.5631549,85.7191984 51.4938724,85.7111539 51.4260753,85.6980865 L51.3574859,85.6831632 L51.3574859,85.6831632 L51.29502,85.6664868 C51.2122775,85.6422881 51.1317254,85.6101628 51.0534718,85.5692454 C50.9055845,85.5269753 50.7767113,85.4530027 50.6666408,85.3431006 C50.4767113,85.2205174 50.3245986,85.0554528 50.2147394,84.8506544 L50.185162,84.7830223 L50.185162,84.7830223 C50.1450211,84.7109519 50.1112183,84.6371906 50.0856549,84.5568775 C50.0140352,84.4300673 49.9781197,84.2948031 49.976007,84.1489714 C49.9339859,83.9549519 49.9368,83.7626442 49.9870675,83.5703537 L50.0055845,83.5062552 L50.1682606,83.1194841 C50.2527676,82.9886583 50.3415,82.8552963 50.4553732,82.7475076 C50.5240141,82.6866387 50.6917373,82.5557516 50.7862012,82.4901236 L50.8441056,82.4518286 L50.8441056,82.4518286 C51.0450211,82.324807 51.2626268,82.2550614 51.4948099,82.2444939 Z M26.0245775,79.2223327 C26.3288028,78.0239765 27.9006338,77.6456595 28.7562676,78.5016282 C29.6116901,79.3578082 29.2337324,80.9300431 28.0360563,81.2343875 L27.8985211,81.2682035 L27.8985211,81.2682035 C26.7407746,81.5619804 25.6971127,80.5157965 25.9907746,79.3578082 L26.0245775,79.2223327 L26.0245775,79.2223327 Z M171.032261,69.4473182 C171.02381,69.328962 171.175923,69.2869033 171.251979,69.3566489 C172.270289,70.2696822 172.91888,71.3644767 174.154796,72.0722888 C175.397261,72.7826372 176.677331,72.7253613 177.972401,73.1839914 C178.411838,73.3403906 178.413951,73.9281558 177.972401,74.0822301 C175.521697,74.9384102 171.218176,72.0363593 171.032261,69.4473182 Z M55.880831,69.2614356 C56.1535775,69.1768955 56.4282254,69.1642145 56.7007606,69.2255061 C56.8866761,69.2255061 57.0597042,69.2720031 57.2181549,69.3647859 C57.393507,69.4136078 57.5437183,69.502375 57.6723803,69.6289738 C57.8268169,69.7200658 57.9493521,69.8447624 58.0420986,69.9988368 C58.224,70.1977174 58.3465352,70.4302027 58.4097042,70.6965041 L58.4815352,71.2439014 L58.4815352,71.2439014 L58.4097042,71.7912986 L58.4097042,71.7912986 C58.3399859,71.953827 58.2702676,72.1188916 58.202662,72.2816313 L58.0138898,72.5375113 C57.860911,72.7416235 57.8364155,72.743784 57.465338,73.0192438 C57.2289296,73.1690912 56.9732958,73.2517292 56.7007606,73.2622967 C56.5188592,73.3130207 56.337169,73.3130207 56.1535775,73.2622967 C55.9697746,73.2622967 55.7963239,73.2157996 55.6359718,73.1228055 C55.4625211,73.0741949 55.3106197,72.9854278 55.1815352,72.8586176 C54.9578028,72.7127859 54.7824507,72.5204571 54.6533662,72.2816313 C54.5836479,72.1188916 54.5141408,71.953827 54.4465352,71.7912986 L54.3723803,71.2439014 L54.3723803,71.2439014 L54.4465352,70.6965041 L54.4465352,70.6965041 L54.4505493,70.6795961 L54.4505493,70.6795961 C54.5477324,70.3372086 54.7211831,70.0392047 54.9702676,69.7874865 L55.380338,69.4704611 L55.380338,69.4704611 C55.5406901,69.3671108 55.7075915,69.3142732 55.880831,69.2614356 Z M154.502789,69.6714975 C155.087789,69.5106599 155.730254,69.6797401 156.158915,70.1089926 C156.588,70.5380337 156.757014,71.1782137 156.596451,71.7638654 C156.438,72.3345112 155.979549,72.7971569 155.407014,72.951654 C155.235887,72.9979397 155.062648,73.0235131 154.887296,73.0150591 C154.593423,73.0129456 154.318986,72.9387616 154.063352,72.7910278 L153.733775,72.5350826 L153.733775,72.5350826 C153.573,72.3873487 153.461239,72.211928 153.395535,72.0090317 C153.292014,71.8145894 153.245535,71.6053526 153.253986,71.3792078 L153.252085,71.3390513 C153.245535,71.2587382 153.256099,71.1782137 153.281662,71.1002254 C153.281662,71.0175875 153.294338,70.9372744 153.315465,70.8590748 C153.46969,70.2886403 153.934479,69.8276853 154.502789,69.6714975 Z M28.3421831,63.9482372 C28.5302113,63.9416853 28.7055634,63.9797284 28.8682394,64.066382 C29.0393662,64.1213331 29.1851408,64.2143272 29.3076761,64.3495914 C29.4428873,64.4721746 29.5358451,64.6201198 29.5907746,64.7892 C29.6773944,64.9521511 29.7154225,65.1275718 29.7090845,65.3154622 C29.7090845,65.5627421 29.6457042,65.7931139 29.523169,66.0044642 C29.451338,66.0976697 29.379507,66.1904524 29.3076761,66.2813331 C29.138662,66.4525268 28.9379577,66.5687695 28.7055634,66.6342881 L28.5703521,66.6807851 L28.5703521,66.6807851 C28.3717606,66.7526442 28.1773944,66.7568712 27.9703521,66.729607 C27.7527465,66.6998067 27.551831,66.6406286 27.3745775,66.5053644 C27.2011268,66.4039162 27.0640141,66.2665386 26.9626056,66.0932313 L26.8464085,65.8184759 L26.8464085,65.8184759 C26.8210563,65.7256932 26.810493,65.586202 26.8041549,65.4887695 C26.8041549,65.473975 26.8041549,65.4615053 26.8020423,65.4464994 C26.8020423,65.3640728 26.8273944,65.1635014 26.8483099,65.0808634 C26.895,64.9075562 26.9898592,64.7427029 27.0978169,64.6032117 C27.1907746,64.4575914 27.3175352,64.3432509 27.4738732,64.2587108 L27.4877905,64.2481432 L27.4877905,64.2481432 L27.5034507,64.2375757 C27.551831,64.2037597 27.6027465,64.1699436 27.6534507,64.1338027 C27.8647183,64.0114309 28.095,63.9482372 28.3421831,63.9482372 Z M137.438746,62.4474387 C137.776775,62.4474387 138.091563,62.5340924 138.383113,62.7031726 C138.393465,62.7071883 138.404028,62.7116266 138.412479,62.716065 C138.691563,62.8807068 138.913183,63.102836 139.078183,63.381607 C139.247197,63.6711569 139.331493,63.9841667 139.331493,64.3181002 C139.331493,64.6539358 139.247197,64.9646207 139.078183,65.2541706 C138.913183,65.5333644 138.691563,65.7550708 138.412479,65.9201354 C138.404028,65.9262646 138.393465,65.9302802 138.383113,65.9347186 C138.091563,66.1037988 137.776775,66.1883389 137.438746,66.1904524 C137.102831,66.1883389 136.788042,66.1037988 136.496282,65.9347186 C135.92607,65.6007851 135.568817,64.9773018 135.568817,64.3181002 C135.568817,63.6582646 135.92607,63.0349926 136.496282,62.7031726 C136.788042,62.5340924 137.102831,62.4474387 137.438746,62.4474387 Z M49.7030477,60.0035078 L49.7605775,60.0023061 C49.9845211,59.9936407 50.1934648,60.0401378 50.3857183,60.1439108 C50.5864225,60.209218 50.7617746,60.321445 50.9098732,60.4799577 L51.2183239,60.7375937 L51.2183239,60.7375937 L51.3078388,60.8101417 C51.3225962,60.8224626 51.3371268,60.8349558 51.3512113,60.8477072 C51.5584648,61.0567327 51.7000141,61.301899 51.7802958,61.5851084 C51.8056479,61.7480595 51.8265634,61.9084744 51.8436761,62.0712141 C51.8899437,62.4939147 51.6408592,62.9273941 51.3662113,63.2275115 C51.2183239,63.3860243 51.0427606,63.4978286 50.8401549,63.5654607 C50.6457887,63.6671202 50.4345211,63.7134059 50.2103662,63.7049519 C49.7519155,63.6650067 49.3169155,63.5675742 48.987338,63.2125057 C48.9490986,63.1702356 48.9131831,63.1258521 48.8753662,63.0814685 L48.6112817,62.7771241 L48.6112817,62.7771241 C48.4105775,62.5744391 48.2709296,62.335402 48.1950845,62.0606466 C48.1737465,61.9148149 48.1549437,61.7710967 48.1359296,61.6273785 C48.1167042,61.1941104 48.3279718,60.7883178 48.6112817,60.4799577 C48.8728511,60.1941316 49.3164652,60.0194921 49.7030477,60.0035078 Z M39.0387887,55.553171 C41.2357606,55.553171 41.2315352,58.9624626 39.0387887,58.9624626 C36.843507,58.9624626 36.8477324,55.553171 39.0387887,55.553171 Z M149.50656,50.773391 L149.575838,50.7746254 C149.93943,50.7767389 150.279359,50.8676196 150.594359,51.0514943 L151.004007,51.3664063 L151.004007,51.3664063 C151.253514,51.6200266 151.426542,51.915917 151.523937,52.2583045 C151.546965,52.4377409 151.570415,52.6176 151.595768,52.7951342 C151.606331,53.0741166 151.546965,53.3340775 151.420415,53.5750168 C151.340134,53.8244102 151.200697,54.0418896 151.004007,54.2259757 C150.820415,54.4225315 150.604711,54.5620227 150.353514,54.6423358 C150.112669,54.769146 149.85281,54.8283241 149.575838,54.8177566 C149.210556,54.8154317 148.870204,54.7247624 148.555415,54.5408877 C148.418303,54.4352125 148.283092,54.3295374 148.145768,54.2259757 C147.915648,53.9918646 147.750335,53.7217365 147.651488,53.4122665 L147.628162,53.3340775 L147.554218,52.7951342 C147.543655,52.5182654 147.602599,52.2583045 147.729359,52.0173652 C147.809852,51.7658583 147.949289,51.550281 148.145768,51.3664063 C148.32957,51.1696391 148.547176,51.0301479 148.796472,50.9500462 C149.017053,50.8338035 149.253966,50.774213 149.50656,50.773391 Z M139.610408,44.39191 C139.806887,44.3853581 139.988577,44.4255147 140.159915,44.5144932 C140.335056,44.5713464 140.487169,44.670681 140.616042,44.8080587 C140.888789,45.0259609 141.055479,45.4611311 141.055479,45.8140861 C141.055479,46.1670411 140.888789,46.6026341 140.616042,46.8201135 C140.438577,46.9955342 140.229423,47.1181174 139.988577,47.1857495 L139.610408,47.2366849 L139.610408,47.2366849 C139.242803,47.253593 138.868859,47.0612642 138.606887,46.8201135 C138.55407,46.7717143 138.503366,46.7231037 138.450549,46.6763953 C138.212028,46.456591 138.108507,46.128998 138.093507,45.8140861 C138.087169,45.6473307 138.123296,45.4909315 138.199141,45.3450998 C138.247944,45.1929276 138.332239,45.0637926 138.450549,44.9517769 C138.503366,44.9052798 138.55407,44.8568806 138.606887,44.8080587 C138.89231,44.5438708 139.225901,44.4109315 139.610408,44.39191 Z M202.310472,33.0233143 C203.698711,31.3316665 202.890401,30.1276039 200.804134,30.5460775 C197.210472,31.0323945 193.828289,33.3044102 190.663289,34.9337096 C187.208852,36.7589307 183.648782,38.2643789 180.125049,39.9794865 C181.578993,40.8722301 182.660261,42.2703123 183.486317,43.8655843 C185.135261,42.6129112 187.243077,42.0139444 189.300613,41.9359562 C193.0335,38.3594865 199.215401,37.5405041 202.310472,33.0233143 Z M38.2994366,38.6390607 C38.6758592,38.640836 39.0285408,38.729327 39.3590276,38.9060801 L39.429507,38.9453072 L39.8816197,39.2961487 C40.101338,39.499045 40.2555634,39.739773 40.3464085,40.0168532 C40.4858451,40.2831546 40.5492254,40.5727045 40.538662,40.8812759 C40.5492254,41.1898474 40.4858451,41.4772838 40.3464085,41.7435851 C40.2555634,42.0225675 40.101338,42.2613933 39.8816197,42.4642896 C39.7569718,42.6270294 39.5964085,42.7538395 39.4041549,42.847045 C39.2243662,42.9208063 39.0471127,42.9968924 38.8675352,43.0729785 C38.666831,43.1363836 38.4344366,43.1448376 38.216831,43.1554051 C37.8217606,43.1532916 37.4543662,43.0539569 37.1116901,42.8552877 L36.6682394,42.5131115 L36.6682394,42.5131115 C36.4548592,42.3142309 36.3025352,42.0796321 36.2138028,41.8069902 C36.0881162,41.5669491 36.0244001,41.3105695 36.0244001,41.0367117 L36.0259859,40.961589 C36.0259859,40.9448924 36.0259859,40.9256595 36.0283099,40.906638 C36.0534507,40.7079687 36.0811268,40.5092994 36.108169,40.3108415 C36.1780986,40.0189667 36.3111972,39.7632329 36.5097887,39.5476556 C36.560493,39.4462074 36.6280986,39.3637808 36.7149296,39.2961487 C36.9935915,39.0171663 37.3229577,38.8269511 37.7034507,38.7189511 C37.9020423,38.6938004 38.1006338,38.6661135 38.2994366,38.6390607 Z M136.326404,33.0392311 L136.390669,33.04018 C136.67588,33.04018 136.939965,33.1120391 137.185246,33.2536438 C137.292782,33.3362818 137.398415,33.4184971 137.504049,33.5009237 C137.700739,33.6974795 137.835951,33.9299648 137.909683,34.1962661 L137.966937,34.6145284 L137.966937,34.6145284 C137.973063,34.8324305 137.928697,35.0332133 137.829401,35.2215264 C137.766232,35.4157573 137.658275,35.5848376 137.504049,35.7285558 C137.3625,35.8826301 137.193697,35.9906301 136.997218,36.0540352 C136.811092,36.1533699 136.608275,36.1977534 136.390669,36.1895108 C136.10757,36.1895108 135.841373,36.1174403 135.596303,35.9737221 C135.490669,35.893409 135.382923,35.8109824 135.277289,35.7285558 C135.09912,35.5483796 134.970657,35.3380127 134.893529,35.0990829 L134.873768,35.0332133 L134.816937,34.6145284 C134.808486,34.3970489 134.852852,34.1962661 134.951937,34.0081644 C135.015317,33.81182 135.125387,33.6425284 135.277289,33.5009237 C135.420951,33.3464266 135.590176,33.2388493 135.784542,33.1754442 C135.953577,33.0860431 136.134763,33.0411523 136.326404,33.0392311 L136.326404,33.0392311 Z M50.6480237,30.7501069 L50.7217183,30.751193 C51.1421408,30.7533065 51.5329859,30.8589816 51.8963662,31.0703319 C52.0527042,31.1910129 52.2092535,31.3114826 52.3653803,31.4340658 C52.6548169,31.7234043 52.8534085,32.0657918 52.9655915,32.4610168 L53.0477746,33.0781597 L53.0477746,33.0781597 C53.0604507,33.3994121 52.9928451,33.697416 52.8470704,33.9742849 C52.7543239,34.2640462 52.5935493,34.5132282 52.3653803,34.7245785 C52.1564366,34.9509346 51.9069296,35.1113495 51.617493,35.204555 C51.3407324,35.3501753 51.0428451,35.4180188 50.7217183,35.4051264 C50.3012958,35.4051264 49.9104507,35.2994513 49.5470704,35.088101 C49.3909437,34.9676313 49.2346056,34.8452595 49.0761549,34.7245785 C48.7886197,34.4329151 48.5900282,34.0905276 48.4780563,33.697416 L48.395662,33.0781597 L48.395662,33.0781597 C48.3829859,32.7590207 48.4505915,32.4591147 48.5963662,32.1820344 C48.6893239,31.8948094 48.8498873,31.6430912 49.0761549,31.4340658 C49.2874225,31.2058074 49.536507,31.0449699 49.8259437,30.9519757 C50.081415,30.8173619 50.3548877,30.7511804 50.6480237,30.7501069 Z M128.87607,24.939229 C129.068324,24.8882935 129.260366,24.8882935 129.45262,24.939229 C129.739944,24.9516986 130.008465,25.0383523 130.257761,25.196865 L130.695085,25.5352368 L130.695085,25.5352368 C130.701211,25.5413659 130.707761,25.5479178 130.714099,25.5563718 C130.978183,25.8224618 131.161775,26.1375851 131.263183,26.4989941 L131.339451,27.0675264 L131.339451,27.0675264 C131.350014,27.3613033 131.288746,27.6358474 131.155648,27.8896791 C131.076246,28.1335949 130.945186,28.3457216 130.764581,28.5291523 L130.695085,28.5974912 C130.498394,28.8088415 130.268113,28.9589002 129.999803,29.0455538 C129.831,29.1450998 129.646986,29.1937104 129.45262,29.1937104 C129.165507,29.2590176 128.87607,29.2465479 128.588535,29.155456 C128.41762,29.0814834 128.244169,29.0096243 128.071141,28.9379765 L128.016,28.9060626 C127.363183,28.549092 126.959662,27.8009119 126.959662,27.0675264 C126.959662,26.3339295 127.363183,25.583636 128.016,25.226454 C128.035225,25.2182114 128.051915,25.2074325 128.071141,25.196865 C128.320437,25.0383523 128.588535,24.9516986 128.87607,24.939229 Z" id="ðŸ–-Ink" fill="#000000"></path>
                    </g>
                    <g id="head/No-Hair-3" transform="translate(78.591549, 38.043053)" fill-rule="evenodd">
                        <path d="M84.264364,40.5969618 C76.8317584,21.0350127 63.4337324,6.71244305 40.8466901,15.7083569 C40.1987324,15.2670575 39.3532394,15.1487014 38.5430282,15.6654528 C26.2390141,23.3943217 17.378662,35.7855781 13.5388732,49.7581573 C11.2020423,50.202627 8.93133803,50.9778599 6.90316901,52.2491319 C2.49528169,55.0121143 -0.47028169,59.4086231 -3.25014085,63.69058 C-4.08612676,64.9779147 -3.31204225,67.109171 -1.74105634,67.4014685 C-1.05866197,67.5287014 -0.382394366,67.6043648 0.290070423,67.6242317 C0.126338028,68.2187601 -0.0891549296,68.7932102 -0.363591549,69.3201065 C-1.3571831,71.2273315 0.519929577,73.2522787 2.27915493,72.7308775 C2.4743662,72.8342278 2.67887324,72.9191906 2.89077465,72.9830184 C2.91485915,74.0634411 3.46985915,75.5097112 4.56823944,75.728036 C6.34457746,76.1093119 8.70528169,74.7492728 8.28612676,72.7617346 C8.82274648,72.8562082 9.35746479,72.8680438 9.87866197,72.8025252 C9.93697183,73.8375076 9.91880282,74.9175076 10.0616197,75.8721769 C10.5285211,80.371402 15.0221831,83.3937112 19.3075352,82.0250067 C19.5703521,83.4268932 19.8790141,85.3966779 21.2592254,86.1571162 C22.8728873,90.685719 25.6592958,95.8538677 30.2230986,97.9172806 C29.816831,98.9586035 30.0371831,100.225437 31.2608451,100.922259 C39.6145775,105.686729 49.641338,107.298909 59.0858451,105.527582 C62.8603521,105.302705 66.5378873,104.449484 70.0677465,102.63166 C72.641831,101.306071 75.0082394,99.6226661 77.3182394,97.8872689 C79.629507,96.1512376 82.1007042,94.4608579 83.945493,92.206807 C85.9491549,89.7587366 86.8819014,86.8784548 87.4871831,83.8128188 C90.2609155,69.8977268 89.3028852,56.2345948 84.264364,42.9791271 C78.0274617,26.570928 90.49902,57.0060153 84.264364,40.5969618 Z" id="ðŸŽ¨-Background" fill="#FFFFFF"></path>
                        <path d="M48.3314789,11.8964008 C52.1353521,11.6277746 56.0085211,12.2692227 59.6309155,13.4166434 C65.4082394,15.2460916 70.7140141,18.4746787 75.0730986,22.677802 C79.5657042,27.0094262 82.8883099,32.3500368 84.908662,38.2486121 C87.345,45.3622403 87.7096479,52.9577472 88.3954225,60.3835397 C88.741838,64.1353667 89.312671,67.8299706 89.9061363,71.5454515 L90,72.1322912 C90.5797183,75.752299 90.9059155,79.4135202 90.105,83.0278215 C88.7735915,89.0348196 84.7823239,94.1338568 80.0446479,97.9015984 C70.3121831,105.641669 55.161338,110.360487 43.8295775,103.238193 C42.0764789,102.136213 43.7376761,99.3182795 45.4491549,100.466546 C46.6535915,101.27496 47.9296479,101.983618 49.2980282,102.472894 C55.0153521,104.516863 61.2944366,103.788761 66.945,101.887454 C72.5133803,100.013833 77.8565493,96.8480172 81.9652817,92.6235476 C86.2810563,88.1862481 88.6728169,82.705301 88.3271831,76.4687765 C88.1211972,72.7580994 87.2761268,69.1161112 86.8071127,65.4356571 C86.3916479,62.1759311 86.1425531,58.8985306 85.8554238,55.6256223 L85.7501825,54.4483827 C85.1414197,47.7801372 84.2670865,40.9289811 81.2342958,34.8760955 C78.6832394,29.7838215 74.9478169,25.253528 70.4562676,21.7548352 C65.7538732,18.0919233 60.1373239,15.5301464 54.2442254,14.5746317 C47.3142254,13.4510935 40.6804225,15.4942168 34.899507,19.2976767 C29.7724648,22.6708274 25.3645775,27.1785065 21.9847183,32.2931836 C20.3457042,34.7731679 18.9494366,37.4215984 17.7437324,40.1376611 C16.6075352,42.6966904 15.8241549,45.3787256 14.9104225,48.0163773 C15.6623239,47.9939742 16.4266901,48.0229292 17.2028873,48.1087374 C21.1840141,48.5500368 24.8932394,50.6140838 27.2545775,53.8686669 C30.1402817,57.8456454 29.3602817,62.7274145 30.4873944,67.2503108 C30.5746479,67.6013636 30.426338,67.9450192 30.1257042,68.1392501 C28.4167606,69.2441894 26.1295775,69.2809644 24.4755634,68.0367452 C23.04,66.9569566 22.3660563,65.0047139 22.9472535,63.2989057 C23.0230986,63.0765652 23.3467606,63.1158763 23.3558451,63.3542795 C23.4650704,66.2571757 26.1572535,68.4926278 28.7961972,67.1112423 C27.6642254,63.2111953 28.26,58.8554771 25.9447183,55.3326904 C21.8467606,49.0978568 13.3664789,48.8402207 7.41021127,52.3549761 C4.27552465,54.2044356 1.79434266,56.9853862 -0.0532217342,60.0959588 L-0.585496518,60.9989565 C-1.29369903,62.2054812 -2.04370246,63.5703851 -2.1906338,64.8990387 C-2.27535211,65.6658176 -1.99246479,66.3863108 -1.11316901,65.9999624 C-0.401830986,65.6875867 0.148943662,64.9586395 0.571478873,64.3319859 C1.29209677,63.2631807 2.94804554,64.1865577 2.35281726,65.3247084 L2.33260563,65.3618959 C1.46632394,66.8972169 0.932986203,68.5891027 0.835044591,70.3519171 L0.81015515,70.8400693 C0.793823999,71.1958468 0.782086268,71.7014932 0.857323944,71.7199468 C0.947535211,71.7421386 1.5743662,71.0182638 1.67873239,70.9180838 C2.1815493,70.434937 2.6993662,70.0401346 3.39929577,69.9114223 C4.31939718,69.7427197 5.24772545,70.8815701 4.44903403,71.6281835 L4.41570423,71.6582325 C3.70288732,72.2781229 3.73457746,73.5143108 4.52197183,74.0940446 C5.63325232,74.9122254 7.00139092,73.5767793 7.16267952,72.4772467 L7.16809859,72.4366356 C7.31070423,71.2486356 8.96007042,71.2065769 9.04964789,72.4366356 C9.24422535,75.1059898 6.06739437,77.343344 3.65028169,75.99662 C2.69450704,75.4644399 2.08690141,74.4899037 1.8965493,73.4454106 C1.59147887,73.6066708 1.26232394,73.7184751 0.914366197,73.7493323 C-0.218450704,73.8497237 -1.02380282,73.0529331 -1.20697183,71.9835006 C-1.42035211,70.7375906 -1.29380282,69.4035476 -0.965704225,68.1096611 C-1.58091549,68.258029 -2.22802817,68.2013871 -2.87852113,67.8258176 C-4.84647887,66.6898098 -4.28133803,64.1629057 -3.53830986,62.4568861 C-0.366126761,55.1750231 6.20598592,48.5675789 14.3482394,48.0430074 C14.3928169,46.758209 14.5669014,45.5435789 14.8516901,44.2570896 C17.6366197,31.6735045 26.6585915,20.0213401 38.4040141,14.5752658 C41.5426056,13.1199076 44.8711268,12.1409331 48.3314789,11.8964008 Z M17.5300141,62.1630669 L17.6416373,62.1379014 C18.9105757,61.8643956 22.2499606,61.543092 21.8474789,63.6792939 C21.8284648,63.7796853 21.6824789,63.767427 21.656493,63.6792939 C21.2622676,62.3361628 18.5842394,63.410245 17.802338,63.733611 C16.7244507,64.1791374 15.6611408,64.8364368 14.781,65.6004681 C12.8540282,67.273517 11.562338,69.6313409 11.3658592,72.1920611 C11.1710704,74.7322802 11.9077606,77.4760297 13.7394507,79.3135092 C14.637338,80.2140728 15.7834648,80.8255092 17.0709296,80.8705268 C18.2276197,80.9106834 19.5055775,80.0099084 20.5729014,80.5374387 C20.7833239,80.6414231 20.9500141,80.9269573 20.931,81.1619789 C20.8950845,81.6068712 20.6960704,81.9532744 20.3998732,82.2219006 C22.1867746,85.4794427 23.649169,88.9274114 25.9285352,91.8896971 C27.072338,93.3759123 28.3684648,94.7522254 29.8361408,95.9235288 C30.5337465,96.4804368 31.2921972,96.9695014 32.0743099,97.3991765 C32.9907887,97.903247 33.7838873,98.2185816 34.4379718,99.0724368 C34.9957183,99.8005386 34.4377606,101.208343 33.5183239,101.333885 C31.3530423,101.62893 29.2488169,99.8776814 27.6592394,98.5658301 C26.0711408,97.2550356 24.6985352,95.6382059 23.5642394,93.9226755 C21.3860704,90.6283585 19.896,86.7420493 19.3002254,82.8102998 C18.6085352,83.0296814 17.8298028,83.0966795 17.2439577,83.0979476 C15.6852254,83.1015405 14.1968451,82.5406168 12.9719155,81.5927108 C8.4875493,78.122973 7.98916901,70.9989886 11.1537465,66.5065268 C12.6681127,64.356883 14.9692394,62.7685855 17.5300141,62.1630669 Z M17.5581127,70.4255953 C18.5979718,70.334292 19.6369859,70.4985112 20.6143099,70.8531569 L21.0171997,70.9992687 C21.8682818,71.310571 22.7742079,71.6766141 23.3888873,72.3148556 C24.3279718,73.2904485 23.3929014,74.9808282 22.0551549,74.6069495 C20.5760704,74.1935483 19.3739577,72.947427 17.8952958,72.4247577 C16.5736056,71.9576736 15.0765634,72.0238262 13.9036056,72.8282254 C13.7487465,72.9345346 13.5450845,72.7248751 13.6462817,72.5705894 C14.5435352,71.2037871 15.9600845,70.5657205 17.5581127,70.4255953 Z" id="ðŸ–-Ink" fill="#000000"></path>
                    </g>
                    <g id="face/Eating-Happy" transform="translate(112.183099, 77.354207)" fill="#000000" fill-rule="evenodd">
                        <path d="M26.651385,41.4864172 C27.8332398,39.5415711 30.3523572,44.3057979 30.6200098,45.1249997 C30.8570644,45.850687 31.0135488,46.5940725 31.0930874,47.3460616 C32.0093391,47.5515032 32.9607994,47.5518825 33.8996301,47.3718474 C35.2949741,47.1040359 36.147956,46.3536048 37.3606685,45.7092415 C38.1982987,45.2639875 39.253962,45.7861206 39.6895539,46.524568 C40.2019297,47.3937571 39.8755006,48.2959069 39.201613,48.9438883 C37.923659,50.1726203 35.409214,50.4548999 33.7410515,50.1285895 C32.7852837,49.9417094 31.9093184,49.5831419 31.1357638,49.0620417 C31.1306364,49.159284 31.1272121,49.2565522 31.1195448,49.3536508 L31.1047743,49.5220861 C30.9766029,50.8848667 30.6021836,52.5984609 29.5440832,53.4852118 C27.8086691,54.9398049 25.6669327,52.142372 27.3531919,50.6894243 L27.4054668,50.6458128 C28.4536,49.7986046 28.6822644,47.525525 28.6258217,46.2735213 C28.5888138,45.4563605 28.4400203,44.6287353 28.1821129,43.8504618 L28.1290773,43.6954828 C28.0514434,43.4756328 27.2049692,41.3901568 26.8990933,41.6557485 L26.8844918,41.6707244 C26.758361,41.8213851 26.5545245,41.6458886 26.651385,41.4864172 Z M36.0875289,30.5120405 C37.6828906,31.482148 40.1137318,33.7442494 38.3974899,36.149264 C36.3773089,38.2698449 33.4687045,35.8384541 32.0353946,34.7388307 C30.7063626,33.8866164 29.2131206,36.0784478 30.4461973,37.0735516 C40.8033244,44.7445605 45.006466,30.7657101 36.8944406,29.3714319 C36.0012775,29.2177885 35.6695544,30.2119271 36.0875289,30.5120405 Z M19.051838,21.5451123 C20.610993,21.2684548 22.2081761,21.6562826 23.4983873,22.5688932 L23.5961707,22.6392476 C24.8391675,23.5486603 26.2298987,25.1455025 25.5166268,26.7130497 C25.2303592,27.3424509 24.3730352,27.4411515 23.8290211,27.1558286 C22.9233169,26.6807131 22.759162,25.5117346 21.9510634,24.8647914 C21.2883169,24.3345135 20.3959225,24.0128384 19.5424014,24.0904039 C17.5372606,24.2725879 16.3038803,26.251038 15.6810634,27.9560008 C15.6014155,28.1741143 15.2813451,28.2588658 15.1562746,28.0246896 C13.6877535,25.2788266 16.2871901,22.0358677 19.051838,21.5451123 Z M44.0259085,20.5088618 C47.0125986,20.2626387 50.5084437,23.3601886 49.7221056,26.5139577 C49.344993,28.0272258 47.1011197,27.983899 46.7022465,26.5139577 C46.4827394,25.7051202 46.5047113,24.9894881 45.922669,24.3178168 C45.4422465,23.7632337 44.7596408,23.4411358 44.0259085,23.4905918 C43.2171761,23.5451202 42.4711901,23.9494333 41.9043592,24.5177542 C41.3924577,25.0309127 41.086331,25.7818403 40.5560493,26.2360321 C40.4254859,26.347625 40.2507676,26.354811 40.1218944,26.2360321 C39.2092183,25.3942239 39.7570352,23.6417072 40.3356972,22.7629127 C41.1638662,21.5053785 42.5123873,20.6337699 44.0259085,20.5088618 Z M13.3643239,15.9516845 C15.2803099,14.2549644 18.7617887,12.6163656 21.3453803,13.4514106 C22.8308028,13.9313871 23.478338,16.3257746 21.8200986,17.0847335 C19.8998873,17.963528 17.6860141,17.6059233 15.7315775,18.5168431 C14.9108028,18.8995984 14.138831,19.3778841 13.5673521,20.0793558 C13.1171408,20.6322481 12.6591127,21.3597159 12.0079859,21.6784321 C11.8368592,21.7623382 11.6050986,21.7644517 11.4679859,21.6088978 C10.040662,19.9937589 12.1180563,17.0551444 13.3643239,15.9516845 Z M40.7327324,13.3671875 C41.9168873,13.0347335 43.2305493,13.0414967 44.433507,13.2503108 C45.6360423,13.4591249 46.8569577,13.9577002 47.8387183,14.6849566 L47.9526883,14.7701118 C49.0244692,15.5780701 50.3034536,16.7536241 50.2349155,18.1849174 C50.177662,19.3801033 48.920831,20.1885182 47.8357606,19.5620759 C46.9511831,19.0512423 46.5349859,18.0278841 45.7860423,17.3464908 C45.1680845,16.7840877 44.442169,16.3406748 43.667662,16.0299898 C42.8073803,15.6848548 41.9456197,15.5231718 41.0223803,15.5077432 C40.3114648,15.4959076 39.5963239,15.7292384 38.8987183,15.803845 C38.9561831,15.9217785 38.4047746,15.8668274 38.0887183,15.762209 C37.8546338,15.6624517 37.8533662,15.3663499 37.934493,15.1742325 C38.3369577,14.2225221 39.8012535,13.6284164 40.7327324,13.3671875 Z" id="ðŸ–-Ink"></path>
                    </g>
                    <g id="facial-hair/Full-2" transform="translate(104.577451, 109.479380)" fill="#000000" fill-rule="evenodd">
                        <path d="M52.4221901,23.6127945 C51.6848662,23.3714325 50.9606408,23.0905479 50.2330352,22.8198082 C46.5128239,20.9504149 42.0189507,20.611409 38.1174718,22.1857573 C36.2025423,22.958454 34.4169085,24.3468141 32.4954296,25.2566771 C32.0390915,25.4270254 31.5789507,25.5817339 31.1137394,25.7115029 C30.8285282,25.6121683 30.5433169,25.5064932 30.2602183,25.400818 C28.2221197,24.6323483 26.3050775,23.6844423 24.4438099,22.6416399 C24.2452183,22.3620235 24.0392324,22.090227 23.8178239,21.8292094 C25.1646549,21.6379374 26.4833873,21.3200665 27.6764155,20.9920509 C31.3397958,19.988137 34.7919085,18.3522857 38.4426127,17.3039883 C41.8419085,16.3254364 45.5306408,15.7907202 48.9447254,17.0059843 C50.5651479,17.5829706 51.9912042,18.593225 53.5672606,19.273773 C54.3827535,19.6246145 55.3609225,19.9691155 56.3137394,20.0198395 C55.6989507,21.4929511 54.9214859,22.8688415 53.8588099,24.0143601 C53.3728944,23.9107984 52.8912042,23.7649667 52.4221901,23.6127945 Z M60.349162,12.0747593 C60.0229648,12.3459217 58.6767676,13.2209119 58.2400775,13.7425245 C58.1272606,13.6996204 58.0150775,13.6556595 57.9035282,13.6104305 C57.7114859,13.3745636 57.4285986,13.271002 57.1402183,13.2773425 C55.1270493,12.340638 53.3348662,11.0169511 51.7355704,9.35721722 C50.5989507,8.17999609 49.4348662,6.94782387 47.9158521,6.26516243 C46.1264155,5.45780431 44.3665563,5.82978082 42.4862746,5.95236399 C40.4855704,6.08551468 38.5102183,5.51698239 36.5116268,5.78962427 C35.0496549,5.99040705 33.6806408,6.60966341 32.4975423,7.48254012 C30.0827535,9.26422309 28.4179648,11.7666106 26.3771197,13.9244971 C24.0616268,16.3719335 21.2137394,17.9359256 18.046838,18.7348297 C18.0088099,18.7094677 17.968669,18.6841057 17.9285282,18.6608571 C15.5940211,16.5473542 13.4855704,14.1612094 11.6200775,11.6186654 C9.7989507,9.13529941 4.99683803,-2.04301761 3.83697887,-3.02368297 C3.35528873,-3.43158904 2.82711972,-3.60700978 2.32219014,-3.59221526 C1.40740141,-3.57108023 0.562330986,-2.93491585 0.184161972,-1.93311546 C-0.458091549,-0.229632094 -0.136964789,1.97263796 -0.0862605634,3.75432094 C-0.0228802817,5.93545597 0.12078169,8.1144775 0.348950704,10.285045 C0.575007042,12.4302505 0.875007042,14.5691155 1.2489507,16.6931859 C1.43697887,17.7668454 1.6461338,18.8383914 1.87641549,19.9057104 C1.94824648,20.2417573 2.03909155,20.5418748 2.1489507,20.8208571 C2.26092254,21.3471194 2.38134507,21.8712681 2.51021831,22.3911898 C3.35106338,25.7960431 4.67782394,29.2051233 7.21092254,31.7180783 C9.84754225,34.3367084 13.4306408,36.0761213 16.7581056,37.6316595 C19.9271197,39.113225 23.2482465,40.4299374 26.655993,41.4613268 C29.6158521,42.8034012 32.7848662,43.8643796 35.9665563,44.4223444 C39.4693732,45.0373738 43.1517676,45.0754168 46.534162,43.8580391 C48.196838,43.2599178 49.768669,42.4250841 51.1947254,41.3852407 C53.2165563,40.3348297 55.0355704,38.8913072 56.525007,36.9807006 C59.192706,33.5565513 60.4660235,29.4012411 61.0231856,25.1164508 C61.1657905,24.0197643 61.7019307,19.8165841 61.7440898,19.1621818 C61.8802406,17.0488169 62.0163914,14.9355171 62.1525423,12.8220939 C62.2167676,11.8247319 60.9931056,11.5400431 60.349162,12.0747593 Z" id="ðŸ–-Ink"></path>
                    </g>
                    <g id="accessories/*-None" transform="translate(88.521127, 88.978474)"></g>
                </g>
            </g>
        </g>
    </g>
</svg>