<?xml version="1.0" encoding="UTF-8"?>
<svg width="240px" height="324px" viewBox="0 0 240 324" version="1.1" xmlns="http://www.w3.org/2000/svg" xmlns:xlink="http://www.w3.org/1999/xlink">
    <!-- Generator: Sketch 62 (91390) - https://sketch.com -->
    <title>peep-97</title>
    <desc>Created with Sketch.</desc>
    <g id="Introduction" stroke="none" stroke-width="1" fill="none" fill-rule="evenodd">
        <g id="variations" transform="translate(-3246.000000, -1730.000000)">
            <g id="images" transform="translate(126.000000, 110.000000)">
                <g id="a-person/bust" transform="translate(3120.000000, 1620.000000)">
                    <g id="body/Sweater-Dots" transform="translate(31.056338, 135.052838)" fill-rule="evenodd">
                        <path d="M24.9119215,152.753119 C31.9614243,152.774919 38.8112317,153.016339 45.8805383,153.039931 C74.6169435,153.135834 103.617783,152.996234 132.458423,151.830884 C140.609878,151.501511 142.644634,151.509615 150.760907,150.998518 C155.55309,150.981352 169.947978,150.584892 169.227344,144.055187 C168.909175,131.893552 165.899245,119.783413 164.951288,107.654661 C163.131851,84.8537412 161.582414,61.3397302 152.446147,40.0138 C150.331358,34.9208245 145.789527,31.5903089 141.293541,28.5954506 C136.784668,25.3646189 135.678106,21.7774763 131.516768,18.1276415 C130.636855,17.3558127 125.640149,17.0417296 122.951731,15.0841549 C119.038711,12.2348842 117.098184,7.56998909 115.63826,6.77585798 C114.563964,6.19161142 114.583622,2.16045402 112.430433,0.73365108 C109.541028,-1.18100267 100.333391,-2.60465811 96.9834791,-2.87093114 C93.7681796,-3.12650432 88.1757182,-2.58966651 85.1590153,-1.41185023 C80.1282454,0.552321601 78.1217209,4.2990663 75.9062173,9.12608026 C46.6357243,18.1760078 19.8818511,33.50064 11.5731187,64.411316 C4.40797787,90.3361455 4.14537223,118.129116 6.9134004,144.717609 C7.4671328,146.661857 7.07903421,149.709866 8.75861167,150.998518 C2.92171026,151.333555 24.1200905,152.53762 24.9119215,152.753119 Z" id="ðŸŽ¨-Background" fill="#FFFFFF"></path>
                        <path d="M158.045007,127.154804 C157.491063,126.878146 156.913669,126.561755 156.281134,126.539775 C155.194796,126.501943 155.193317,124.810929 156.281134,124.848972 C157.229937,124.882154 158.063176,125.277802 158.898106,125.694796 C159.872261,126.181324 159.015359,127.639219 158.045007,127.154804 M156.281134,79.562522 C157.022472,79.5631562 157.769725,79.6567843 158.339092,80.175438 C158.677542,80.4840094 158.650711,81.0590935 158.339092,81.3710466 C158.0055,81.704346 157.481134,81.6783499 157.143739,81.3710466 C157.25381,81.4710153 157.144796,81.371892 157.104866,81.3497002 C157.095359,81.3446278 157.090077,81.3410348 157.087542,81.33871 C157.079092,81.3365965 157.070641,81.3349057 157.056908,81.3313127 C156.968599,81.3091209 156.881345,81.2873519 156.791979,81.2712892 C156.7905,81.2755162 156.603317,81.2588196 156.559373,81.2571288 C156.466415,81.2537472 156.37388,81.2533245 156.281134,81.2533245 C155.822683,81.2531131 155.436063,80.8667648 155.436063,80.4079233 C155.436063,79.9514067 155.824373,79.5623108 156.281134,79.562522 M148.334303,98.5282521 C148.09219,99.5902873 146.463106,99.1379977 146.704585,98.07871 C147.055711,96.5386004 146.991697,94.9606591 146.704585,93.4150544 C146.506838,92.3498489 148.135923,91.8973479 148.334303,92.9657237 C148.678669,94.8196885 148.755782,96.6802051 148.334303,98.5282521 M146.199655,37.7629292 C144.940923,37.4638685 143.695923,37.4283616 142.408458,37.4279389 C141.319162,37.4275162 141.320852,35.7367139 142.408458,35.7371365 C143.844444,35.7375593 145.246204,35.7992736 146.649021,36.132573 C147.708317,36.3842912 147.257049,38.0140133 146.199655,37.7629292 M141.981908,78.9466474 C141.251979,78.5814341 140.521627,78.2162207 139.791697,77.8510074 C138.817331,77.363845 139.674444,75.9059507 140.644585,76.3909996 L142.835007,77.4868509 C143.808951,77.9740133 142.952049,79.4319076 141.981908,78.9466474 M141.677894,112.242984 C140.751908,113.578506 139.449866,114.408268 137.887331,114.822726 C136.833106,115.102342 136.387331,113.470929 137.437965,113.192369 C138.555359,112.896056 139.548106,112.356479 140.218458,111.389551 C140.834725,110.500612 142.299232,111.346859 141.677894,112.242984 M135.837824,52.7132149 C135.587261,52.2448626 135.210148,52.0470387 134.741979,52.0364712 C133.654373,52.0115319 133.654162,50.3207295 134.741979,50.3456689 C135.80888,50.3697628 136.787261,50.9057472 137.297049,51.8599937 C137.810218,52.8201581 136.35057,53.6733793 135.837824,52.7132149 M125.117683,64.2060211 C124.814725,64.5361503 124.22719,64.5279076 123.922542,64.2060211 C123.735993,64.0090427 123.579232,63.789027 123.455852,63.5478763 C123.408951,63.4563616 123.364796,63.3631562 123.313246,63.2741777 C123.290218,63.2346552 123.264655,63.195344 123.238458,63.157301 C123.229585,63.149481 123.211204,63.1304595 123.19219,63.1103812 C122.867472,62.766937 122.875711,62.2599076 123.19219,61.9147726 C123.495359,61.5846434 124.082894,61.5928861 124.387542,61.9147726 C124.57388,62.1117511 124.730852,62.3317667 124.854021,62.5729174 C124.900923,62.6644321 124.945077,62.7576376 124.996838,62.8468274 C125.019866,62.8863499 125.04543,62.9254497 125.071627,62.9634928 C125.0805,62.9713127 125.098669,62.9903342 125.117683,63.0104125 C125.442613,63.3538568 125.434373,63.8608861 125.117683,64.2060211 M124.216415,89.17262 C123.115711,89.6764791 121.908528,89.6764791 120.807824,89.17262 C120.390993,88.9817706 120.29212,88.3796337 120.504866,88.0158998 C120.751204,87.5944673 121.246204,87.5228196 121.660923,87.7126121 C122.160148,87.9410818 122.864937,87.9408705 123.363528,87.7126121 C123.780148,87.5219742 124.270289,87.5896063 124.519585,88.0158998 C124.733599,88.3819585 124.631556,88.982616 124.216415,89.17262 M121.214092,106.844675 C121.025007,107.292526 120.616627,107.530506 120.139162,107.548683 C119.666134,107.566647 119.313951,107.146906 119.294092,106.703281 C119.281415,106.41669 119.436275,106.171735 119.658739,106.019986 C119.658951,106.004346 119.659373,105.988706 119.659373,105.972855 C119.659585,105.499007 120.046415,105.147955 120.504444,105.127454 C120.96057,105.106953 121.349725,105.53071 121.349514,105.972855 C121.349303,106.271281 121.330923,106.567383 121.214092,106.844675 M116.853528,134.939681 C115.504796,134.96145 114.186908,135.282914 112.837965,135.304894 C111.748035,135.322436 111.751415,133.631634 112.837965,133.614092 C114.186697,133.592111 115.504585,133.270647 116.853528,133.248878 C117.943458,133.231125 117.940077,134.921927 116.853528,134.939681 M111.244796,26.5890505 C110.455289,27.3414575 109.480077,27.7121659 108.518387,28.182209 C107.544021,28.6583812 106.688176,27.1998528 107.665289,26.7222012 C108.479937,26.3240172 109.381838,26.0298176 110.049866,25.3936532 C110.837894,24.6427256 112.034303,25.8370661 111.244796,26.5890505 M109.12557,46.0776611 C108.571627,45.8010035 107.994232,45.4846121 107.361908,45.4626317 C106.275359,45.4245886 106.27388,43.7337863 107.361908,43.7718294 C108.3105,43.8048 109.143739,44.2006591 109.978669,44.6176532 C110.953246,45.1041816 110.096134,46.5620759 109.12557,46.0776611 M98.9655,124.295023 C98.7153592,123.826459 98.3382465,123.628636 97.8700775,123.618068 C96.7822606,123.59334 96.781838,121.902538 97.8700775,121.927266 C98.9369789,121.951571 99.9153592,122.487555 100.425148,123.441591 C100.938106,124.401966 99.478669,125.254976 98.9655,124.295023 M95.4470493,87.5794614 C95.1107113,87.2706787 95.134162,86.697074 95.4470493,86.3840642 C95.8121197,86.0188509 96.1771901,85.6536376 96.5424718,85.2884243 C96.8762746,84.9542795 97.400007,84.9785847 97.7374014,85.2884243 C98.0737394,85.597207 98.0502887,86.1708117 97.7374014,86.4840329 C97.3721197,86.8492462 97.0072606,87.2142481 96.6421901,87.5794614 C96.3079648,87.9138176 95.7844437,87.889301 95.4470493,87.5794614 M91.2985986,144.80044 C90.0793732,144.771908 88.9364155,144.421912 87.7883873,144.03979 C86.7597254,143.697403 87.2033873,142.064933 88.2377535,142.409434 C89.2355704,142.741465 90.2378239,143.08491 91.2985986,143.109638 C92.3864155,143.134788 92.386838,144.825591 91.2985986,144.80044 M85.8225423,108.644323 C84.720993,108.613677 83.8072606,108.052542 83.0346549,107.30098 C82.2531761,106.540964 83.4495845,105.346413 84.2297958,106.105583 C84.6719789,106.535469 85.1821901,106.935767 85.8225423,106.95352 C86.9099366,106.983743 86.9107817,108.674546 85.8225423,108.644323 M89.2231056,62.1472579 C89.2364155,62.5974341 89.4265563,63.0797354 89.7058521,63.3756258 C90.4526831,64.1669213 89.2590211,65.3640094 88.5107113,64.5712344 C87.8933873,63.9173166 87.5589507,63.0421151 87.5329648,62.1472579 C87.5016972,61.0571131 89.1920493,61.0617628 89.2231056,62.1472579 M76.3313451,25.3224282 C75.9776831,24.6296219 75.514162,23.8171914 74.809162,23.434436 C73.8516972,22.9147256 74.7058521,21.4553519 75.6622606,21.9744282 C76.6205704,22.4947726 77.3063451,23.5202442 77.7907817,24.4689957 C78.2851479,25.4371914 76.8261338,26.2916806 76.3313451,25.3224282 M74.1405,42.9061386 C73.7483873,42.894937 73.3592324,42.8277276 72.9810634,42.7252227 C72.8194437,42.6812618 72.6597254,42.6307491 72.4978944,42.5867883 C72.4285986,42.5679781 72.1343028,42.5312031 72.3151479,42.5409252 C71.8575423,42.5164086 71.4700775,42.1735984 71.4700775,41.6955241 C71.4700775,41.2561268 71.8588099,40.8256063 72.3151479,40.8501229 C72.9424014,40.8837276 73.5128239,41.1975828 74.1405,41.2153362 C75.2274718,41.245982 75.2283169,42.9367843 74.1405,42.9061386 M68.6644437,69.9317119 L66.8390915,69.9317119 C65.7497958,69.9317119 65.7516972,68.2409096 66.8390915,68.2409096 L68.6644437,68.2409096 C69.7537394,68.2409096 69.751838,69.9317119 68.6644437,69.9317119 M66.5352887,144.684831 C65.9817676,144.961912 65.3293732,145.224409 64.8810634,145.648377 C64.0905,146.396135 62.8938803,145.202005 63.6859225,144.452769 C64.2569789,143.912769 64.9871197,143.572917 65.6824014,143.225035 C66.0920493,143.020025 66.5957113,143.112596 66.838669,143.528323 C67.0581761,143.904103 66.9434577,144.480667 66.5352887,144.684831 M62.4567676,123.321544 C62.385993,123.301888 62.3112042,123.28815 62.2395845,123.278428 C61.9522606,123.23954 61.6516268,123.253066 61.3630352,123.252855 C60.2737394,123.252221 60.2754296,121.561418 61.3630352,121.562052 C62.2201479,121.562475 63.1121197,121.574522 63.7860634,122.174968 C64.1281056,122.479735 64.0949366,123.061371 63.7860634,123.370366 C63.4501479,123.706413 62.9314859,123.674076 62.5909225,123.370366 C62.626838,123.402702 62.503669,123.334647 62.4567676,123.321544 M61.3634577,94.5897393 C61.6089507,94.083344 61.6127535,93.7532149 61.6131761,93.190389 C61.6140211,92.1006669 63.304162,92.1023577 63.3033172,93.190389 C63.3028944,94.0074693 63.1814155,94.7032344 62.8228944,95.4431718 C62.6228239,95.8557276 62.0371901,95.9633049 61.666838,95.7464595 C61.2514859,95.503618 61.1646549,95.000393 61.3634577,94.5897393 M56.4766268,54.9279546 C55.4963451,55.2614654 54.6212746,55.7336219 53.7580352,56.3036337 C52.846838,56.9051366 52.0011338,55.4402677 52.9049366,54.8436258 C53.8900775,54.193301 54.9090211,53.678029 56.0272606,53.2973871 C57.0612042,52.9457002 57.5008521,54.579438 56.4766268,54.9279546 M50.775993,26.4715397 C50.0477535,26.4918294 49.2960634,26.7712344 48.6470493,27.0865691 C47.6716268,27.5604164 46.8157817,26.1018881 47.794162,25.6265613 C48.7212042,25.1759624 49.7355,24.8099037 50.775993,24.7807374 C51.8659225,24.7500916 51.8612746,26.4411053 50.775993,26.4715397 M48.2205,102.435696 C47.9340211,102.448589 47.689162,102.293669 47.5374718,102.070906 C47.5216268,102.070906 47.505993,102.070483 47.4903592,102.070483 C47.0166972,102.070272 46.665993,101.683289 46.6452887,101.225082 C46.6247958,100.768777 47.0483873,100.379469 47.4903592,100.379681 C47.788669,100.379892 48.0846549,100.398068 48.361838,100.515156 C48.8095141,100.704103 49.0474014,101.112643 49.0655704,101.590295 C49.0835282,102.06372 48.6639507,102.415829 48.2205,102.435696 M44.0642324,43.9715554 C43.0262746,44.3107726 42.5855704,42.6776689 43.6148662,42.3411992 C44.8231056,41.9461855 46.0577535,41.6403616 47.2657817,41.2453479 C48.3037394,40.9061307 48.7444437,42.5394458 47.7149366,42.8759155 C46.5071197,43.2707178 45.2722606,43.5765417 44.0642324,43.9715554 M40.2738803,75.885027 C39.9519085,76.9227569 38.3211338,76.4772305 38.6439507,75.4354849 C38.9557817,74.4298802 38.9781761,73.417935 38.9788099,72.3732305 C38.9794437,71.2835084 40.6695845,71.2854106 40.6689509,72.3732305 C40.6683169,73.5622873 40.6283873,74.7405652 40.2738803,75.885027 M28.9738099,114.108996 C28.912331,114.530005 28.5785282,114.833293 28.1416268,114.852949 C27.6969085,114.872816 27.2805,114.449904 27.2965563,114.007548 C27.3276127,113.15644 28.0212042,112.462788 28.8717676,112.43172 C29.345007,112.414389 29.6969789,112.832863 29.716838,113.277121 C29.7362746,113.70891 29.3758521,114.046013 28.9738099,114.108996 M23.2552183,65.5191405 C22.3621901,65.8173558 21.4078944,66.1011992 20.7077535,66.7625143 C19.9165563,67.5094262 18.7199366,66.3155084 19.5126127,65.5669057 C20.4358521,64.6950857 21.6233873,64.2835867 22.8060634,63.888573 C23.8416972,63.5428039 24.2817676,65.1763303 23.2552183,65.5191405 M19.3795141,98.3648783 C19.1340211,98.78462 18.6369085,98.8604947 18.2234577,98.6681659 C17.6690915,98.4103186 17.0570493,98.418984 16.4593732,98.4183499 C15.3702887,98.4175045 15.3719789,96.7267022 16.4593732,96.7275472 C17.3813451,96.728393 18.2319085,96.8152579 19.0765563,97.2081581 C19.4921197,97.401755 19.5933169,97.9992423 19.3795141,98.3648783 M17.1895141,138.2266 C16.7162746,138.243931 16.3643028,137.825246 16.3444437,137.381199 C16.325007,136.949411 16.6852183,136.612307 17.0876831,136.549324 C17.1489507,136.128315 17.4829648,135.824816 17.9196549,135.805371 C18.3645845,135.785293 18.780993,136.208205 18.7647254,136.650773 C18.733669,137.50188 18.0405,138.195321 17.1895141,138.2266 M171.166838,144.619524 C170.879725,143.586021 170.222683,142.751187 169.726204,141.821246 C169.559725,141.507814 169.501838,141.312949 169.411627,141.083422 C169.289092,141.3288 169.051204,141.513309 168.693528,141.51352 C168.007331,141.513732 167.204725,141.469559 166.564373,141.763336 C166.147965,141.954186 165.657401,141.886342 165.408317,141.460049 C165.194303,141.093778 165.296556,140.493544 165.711486,140.303328 C166.655218,139.870694 167.669725,139.823141 168.693528,139.822506 C168.946415,139.822506 169.137824,139.915712 169.273035,140.055626 C169.664303,134.695782 169.654585,129.332135 169.284444,123.968487 C168.889585,118.236667 167.980923,112.618976 167.030218,106.961129 C166.569866,104.217802 165.971979,101.447 166.088176,98.6529487 C166.204373,95.8779194 167.39381,93.2909918 166.550852,90.5075084 C166.212824,89.3915789 165.633951,88.3686434 165.257894,87.2653949 C164.854373,86.0776063 164.890289,84.9046121 165.074092,83.6745534 C165.452261,81.1700524 166.079514,78.6951405 165.075993,76.2498176 C164.632542,75.1655906 163.914021,74.1976063 163.567754,73.0774497 C163.136768,71.6846513 163.195923,70.1439076 163.124092,68.7003851 C162.978317,65.7879781 162.940289,62.8565495 162.699232,59.950483 C162.591697,58.6485652 162.35719,57.4142795 161.822683,56.2201503 C161.309092,55.0704047 160.546627,54.0242207 160.206486,52.8047295 C159.868458,51.6042599 159.83888,50.3382716 159.65719,49.1103264 C159.467049,47.8126356 159.169162,46.5339663 158.767754,45.2869996 C157.217049,40.4597589 154.3755,36.1228509 151.018458,32.3629292 C147.450148,28.3662951 143.184655,25.3566669 138.65719,22.5520485 C136.276415,21.0772462 133.895852,19.6024438 131.516768,18.1276415 C131.466063,18.404299 131.289655,18.6585534 130.950993,18.7718372 C130.057542,19.0702638 129.103669,19.3538959 128.403317,20.015211 C127.612331,20.7621229 126.4155,19.5682051 127.208176,18.8198137 C128.035077,18.038663 129.074303,17.6275867 130.131908,17.266389 C129.047894,16.5828822 127.952261,15.8750701 126.729021,15.4802677 C125.657683,15.1336532 124.077613,15.4358841 123.209092,14.6496611 C122.526908,14.0304047 122.311204,12.8827726 122.049444,12.0415984 C121.721979,10.997528 121.43888,9.89639295 121.022683,8.88191155 C120.739585,8.18868258 120.327613,7.52292916 119.807894,6.98609941 C119.579725,6.10688219 119.161204,5.30375108 118.421768,4.8155319 C116.486768,3.53474912 114.110007,4.80707789 113.258599,6.63314442 C112.555077,6.63103092 111.813528,6.78531663 111.129021,6.82758669 C109.721979,6.91635382 108.312824,6.95651037 106.903669,6.95228337 C104.146627,6.94382935 101.387472,6.7641816 98.653669,6.3985456 C93.7649366,5.74335969 89.0219789,4.42242035 84.2156408,3.39314442 C84.1881761,3.32973933 84.1564859,3.26633425 84.1184577,3.20292916 C83.0832465,1.46562975 80.503669,1.75940665 78.8788099,2.41670607 C78.181838,2.69780196 77.4719789,3.05287045 77.0726831,3.71228337 C76.6501479,3.99760626 76.2846549,4.34422074 76.0416972,4.70985675 C75.5388803,5.4643773 75.1501479,6.98609941 74.1297254,7.11290959 C73.4578944,7.1953362 72.7755,7.06641252 72.0931056,7.16363366 C71.2395845,7.28198982 70.4747958,7.58210724 69.6867676,7.92449472 C63.6867676,10.5304438 57.4839507,13.4280564 50.9724718,14.4383108 C49.4452183,14.6750231 47.8902887,14.9201894 46.5635282,15.7761581 C45.4860634,16.4715006 44.6534577,17.4268039 43.7642324,18.3334967 C42.8980352,19.2169409 42.1839507,19.6079389 40.9480352,19.7664517 C39.4480352,19.9587804 38.1487394,20.373027 37.0522606,21.4635945 C36.1416972,22.3702873 35.5480352,23.5284869 34.8339507,24.5810114 C34.1069789,25.6546708 33.0402887,26.2591327 31.9332465,26.882616 C29.3156408,28.3578411 26.8776127,30.1395241 24.7543732,32.2762755 C20.281838,36.7822638 17.5733873,42.5732618 14.8438099,48.2163147 C11.8924014,54.3201112 9.13324648,60.4978802 7.21916197,67.0159233 C5.34310563,73.4156102 4.22761268,79.9991718 3.71211972,86.644025 C3.16916197,93.6164712 3.09310563,100.616393 2.64099296,107.593066 C2.41493662,111.078232 2.24380986,114.567626 2.07057042,118.054906 C1.90155634,121.499915 1.65437324,124.951266 1.69430282,128.400503 C1.77057042,135.068604 3.10345775,141.757841 5.4339507,148.001129 C6.01493662,149.554553 6.65909155,151.086843 7.34571127,152.595884 C7.94803521,153.92105 10.0078944,153.773105 10.6543732,152.595884 C10.8022606,152.325356 10.9184577,152.046373 11.0156408,151.763164 C12.7057817,151.777959 14.4128239,151.646921 16.0924014,151.803321 C19.0585986,152.080189 22.0309225,152.234475 25.0055704,152.41835 C30.8916972,152.783986 36.7881761,153.027039 42.6762042,153.363086 C43.2474718,153.395634 43.8187394,153.428393 44.3897958,153.46242 C40.1938099,140.470084 40.7380352,126.423955 40.0740211,112.911908 C40.0205704,111.822608 41.7111338,111.828949 41.764162,112.911908 C42.4309225,126.481865 41.8632465,140.563923 46.2075423,153.577395 C47.8930352,153.691524 49.5762042,153.831015 51.253669,154.03518 C52.6097958,154.197919 53.9726831,154.390248 55.3416972,154.322616 C56.8945141,154.248643 58.4114155,153.893575 59.9262042,153.585004 C62.6790211,153.024925 65.3304296,153.278546 68.0938099,153.623047 C71.0494437,153.99291 74.0156408,154.197919 76.9902887,154.326843 C88.9015563,154.848878 100.893106,155.324416 112.800148,154.527626 C115.681838,154.335297 118.55719,154.064769 121.419866,153.697019 C124.369162,153.318702 127.286768,152.682538 130.233739,152.321129 C133.138669,151.96606 135.809303,152.940385 138.68043,153.120033 C141.608387,153.303908 144.614937,152.693105 147.515641,152.342264 C148.461908,152.227501 149.409232,152.115908 150.356768,152.00516 C149.136908,143.640972 148.443317,135.213802 147.769585,126.790013 C147.682754,125.703461 149.373528,125.712761 149.459725,126.790013 C150.127965,135.148072 150.806134,143.512471 152.024092,151.810718 C157.046979,151.226123 162.074725,150.634553 167.045218,149.723634 C168.460711,149.465786 169.867754,149.045199 170.714937,147.781324 C171.34219,146.845043 171.469162,145.697411 171.166838,144.619524" id="ðŸ–-Ink" fill="#000000"></path>
                    </g>
                    <g id="head/Bear" transform="translate(78.591549, 38.043053)" fill-rule="evenodd">
                        <path d="M85.2110282,43.4076305 C89.0406761,40.950472 94.266169,34.6807656 91.2963803,29.9264407 C90.0902535,28.0671922 88.4455352,27.3682568 86.6400423,27.3122489 C86.2096901,26.7720376 85.4945493,26.6137362 84.8271549,26.6099319 L84.8309577,26.5813996 C82.3912394,26.6262059 79.9935634,27.4811178 78.0313099,28.9085777 C76.7662394,27.7966638 75.1950423,27.1643037 73.6730704,26.4805855 C74.3113099,23.2691178 75.2852535,20.1364838 76.3912394,17.0579554 C76.9880704,15.2853605 75.0974366,13.4180806 73.3147606,13.9536423 C73.7533521,12.0320454 72.7456056,9.8001863 70.5505352,9.82491429 C69.3769437,9.82491429 68.0489155,10.4543155 66.9139859,10.7379476 C66.0733521,10.9480297 65.2453944,11.163607 64.4341268,11.4377284 C64.4303239,11.4157479 64.4282113,11.3935562 64.4258873,11.371153 C66.5520845,9.88197886 66.4779296,6.4534544 63.353493,6.78590841 C62.0206056,6.90363053 60.6655352,7.81116869 59.433,8.36532916 C57.4012394,8.48770098 55.4499718,9.13358748 53.4750423,9.59707867 C48.0710282,10.9380963 42.2894789,12.2856658 37.8374366,15.6884055 C30.1263803,18.6612587 20.5356761,23.2570708 19.5803239,32.3415405 C5.99898592,27.084836 -4.26080282,43.870699 8.05567606,50.4760297 C10.4725775,51.6031609 13.2663803,52.186699 15.9103944,51.6445855 C15.2856761,53.9559123 14.6886338,56.2750591 14.129831,58.6035053 C9.42638028,69.4142841 5.62356338,80.839247 6.99152113,92.7048751 C7.01159155,94.8574779 9.77497183,96.0991609 11.3024366,94.4912078 C12.5660282,92.9661041 14.0991972,94.7488438 13.6872254,96.2213213 C13.2968028,97.8569613 14.448,99.3586051 16.122507,99.4192626 C18.1263803,99.5243037 19.7180704,98.1799045 21.1360986,96.9382215 C21.1088451,96.965063 21.173493,96.9242724 21.2677183,96.860656 C24.7667324,105.116632 28.0451831,98.69729 32.3577887,102.411983 C33.3655352,103.343192 34.0726479,104.446441 35.3637042,105.052171 C38.3915915,106.586785 40.7822958,103.851278 43.6745493,103.535521 C46.3481408,103.338542 48.9917324,104.264468 51.5554648,104.887529 C54.549338,105.614785 57.5679296,105.995638 60.6433521,105.654519 C64.5756761,105.217869 72.4212537,103.4404 74.7432148,101.976818 C77.5881443,103.887002 80.5156056,101.621321 82.0794085,99.0126247 C83.1731408,100.065995 85.242507,100.227466 86.1213803,98.6030278 C86.9956056,96.7915444 88.6295493,94.0228556 90.5085634,94.4330865 C90.6763099,94.4844446 90.7745493,94.5165699 90.8770141,94.5909652 C92.6332817,96.0845777 94.9006056,94.9506834 95.157507,92.7799045 C96.8222958,78.7151765 93.4263803,64.6058536 88.9109577,51.3698301 C87.9251831,48.6019867 87.1073662,45.7248751 85.2110282,43.4076305 Z" id="ðŸŽ¨-Background" fill="#FFFFFF"></path>
                        <path d="M83.6586549,43.0186403 C83.587669,42.8237753 83.8859789,42.7117597 83.9844296,42.8812626 C87.2115423,48.4308986 89.7911197,54.325881 91.9973873,60.3476736 C93.9501338,65.677928 95.6818944,71.11111 96.9159085,76.6556736 L96.9997913,77.037326 C98.1604271,82.3879498 98.7326919,88.0481622 97.2104155,93.3861628 L97.1368504,93.6401095 C96.7863667,94.8274112 96.3232887,96.0333816 95.2405563,96.7383898 C94.3312606,97.3308047 93.3023873,97.4047773 92.2553451,97.2401354 C91.3730915,97.1012783 90.532669,96.7166207 89.6485141,96.6101002 C88.9819894,96.5299739 88.8079661,96.85011 88.6136411,97.3889079 L88.4522306,97.8450898 C87.7594367,99.7783552 86.9134599,101.577482 84.6533028,101.984738 C83.4361901,102.204331 82.1138662,101.976495 81.0594296,101.336527 C81.0471761,101.377529 81.0349225,101.418319 81.0247817,101.457631 L80.974891,101.648054 C80.7543009,102.474686 80.4704608,103.314947 79.8860493,103.957482 C79.0697113,104.85403 77.8988662,105.171901 76.7189366,104.93392 C76.1827394,104.82592 75.6790775,104.582233 75.1701338,104.379126 C75.0456972,105.128996 74.1847817,105.74001 73.3971761,105.55529 C72.9710493,105.455533 72.6425282,105.261513 72.3978803,105.011697 C71.1811901,105.950726 69.5400634,106.431126 68.1186549,106.795071 C66.0602746,107.321967 63.8698521,107.53839 61.7472465,107.474985 C59.5927394,107.410523 57.400838,106.995642 55.3743592,106.265427 L55.0576254,106.149977 C53.3093756,105.504879 51.4690171,104.688343 50.0527394,103.481944 C49.771331,103.343509 49.9359085,102.832253 50.2714014,102.940676 C52.1952042,103.562891 53.9897113,104.293951 56.0087958,104.593223 C57.914007,104.875587 59.8274577,104.922296 61.7472465,104.806053 C63.6938662,104.688331 65.5825986,104.290993 67.4402746,103.703439 C69.0568944,103.192182 70.6492183,102.269004 72.3659789,102.148323 C72.4555563,102.024261 72.5527394,101.904425 72.6649225,101.795157 C74.1499225,100.352268 75.6543592,101.07403 77.3254859,101.599447 C77.3804155,101.616989 77.395838,101.646155 77.3960493,101.674687 L77.4164562,101.645662 L77.4164562,101.645662 L77.4296348,101.628003 L77.4197895,101.640153 C77.3502957,101.71864 77.4893882,101.427068 77.5141308,101.367454 L77.5166831,101.361043 C77.7087254,100.836683 77.7830915,100.273223 77.9455563,99.7399867 C78.3330211,98.4663898 79.0574577,97.3012157 80.4450634,96.9964485 C81.129993,96.8457558 82.0633732,97.0752822 82.3804859,97.7843624 C82.6416127,98.3674779 83.0692183,98.6629456 83.7273169,98.647517 C84.4145704,98.6316658 84.6674577,98.2307342 84.9068239,97.6266951 C85.2961901,96.6439162 85.5064014,95.6214035 86.1461197,94.7544446 C86.8654859,93.7792744 87.9406268,93.2098967 89.1554155,93.1631883 C90.0915423,93.1274701 91.0084437,93.4005346 91.8987254,93.6533096 L91.9806738,93.6779636 C92.3871883,93.8055551 93.1135845,94.0930027 93.4310493,93.8811452 C93.9070397,93.5634183 94.1529319,91.7106977 94.2907352,91.0177533 L94.2995704,90.9742333 C94.5448521,89.7934192 94.6872465,88.603517 94.7451338,87.3990317 C94.9866127,82.3612861 93.9484437,77.3495366 92.8002042,72.473474 C90.4318944,62.4178497 87.1902042,52.7172939 83.6586549,43.0186403 Z M16.1779014,55.3135209 C16.2419155,55.2175679 16.3817746,55.3006286 16.3317042,55.4035562 C16.0995211,55.8814192 16.0148028,56.3833761 15.8580423,56.8811061 C15.6845915,57.4320963 15.3898732,57.9663898 15.1712113,58.5011061 C14.8171268,59.3670082 14.4742394,60.2379828 14.1283944,61.1072665 C13.4331127,62.8551335 12.7866338,64.6294192 12.1739577,66.4081432 C10.9437465,69.9814427 9.93832394,73.6549221 9.20290141,77.3620063 C8.48015493,81.0042059 7.87508451,84.8125268 7.89811268,88.5354622 C7.90846479,90.2285894 8.09332394,91.972018 8.76494366,93.5442528 C8.87022535,93.7910043 8.99384624,94.0326188 9.12492508,94.2675063 L9.20438028,94.4076188 C9.21557746,94.4274857 9.22731455,94.4470708 9.23930203,94.4665229 L9.31191549,94.5828282 C9.52398793,94.27164 10.1352172,93.8598089 10.3874946,93.6416413 L10.4225493,93.6104055 L11.6060704,92.5151883 C12.1213521,92.0379593 12.8648028,91.9231961 13.487831,92.2721354 C15.3816519,93.3323319 15.3202332,95.3012236 15.7256087,97.1596197 L15.7435352,97.2403468 C15.9199437,98.0212861 16.2250141,98.6703429 17.1600845,98.5171139 C18.1356689,98.3570498 18.6993173,97.3650414 19.0179155,96.5118169 L19.0589577,96.3989613 C19.6219859,94.8106638 21.6465634,94.8740689 22.2294507,96.3989613 L22.4479456,96.9762968 C22.8999802,98.1601298 23.5158438,99.5883025 24.6824789,100.056801 C25.6633944,100.450758 26.787338,99.8615131 27.6795211,99.4958771 C28.1700845,99.294883 28.7426197,99.714202 28.8733944,100.1741 C28.9088873,100.29922 28.9327606,100.418844 28.9513521,100.536566 C29.8840986,100.446108 30.7769155,100.668871 31.6942394,101.092629 C32.8950845,101.646789 34.4048028,102.843243 34.6304366,104.229912 C34.8976901,105.869357 32.999662,106.643321 32.0202254,105.330836 C31.4035352,104.504245 31.1802254,103.500542 30.4429014,102.714953 C30.0098028,102.253787 29.4712817,101.853278 28.9061408,101.512793 C28.401,103.298914 25.5657887,103.813764 23.8758592,103.284965 C22.2533239,102.777724 21.1777606,101.581482 20.3745211,100.182343 C18.872831,101.651016 16.7890986,102.361787 14.7009296,101.080582 C13.4918451,100.338742 12.9281831,99.0412626 12.7097324,97.6934818 C12.6440282,97.2883233 12.6402254,96.6223585 12.5240282,96.0373409 L12.4113875,96.1521703 C11.3914721,97.1838796 10.2057208,98.1542103 8.86909859,97.9312509 C7.11705634,97.6391648 6.28529577,95.6884016 5.73895775,94.202609 C4.60276056,91.1145699 4.81212676,87.6805503 5.19705634,84.4743663 C5.61874648,80.9640493 6.32438028,77.4869143 7.2581831,74.0776227 C8.16895775,70.7520258 9.34804225,67.5247068 10.7352254,64.3690356 C11.442338,62.7608712 12.257831,61.1922294 13.1343803,59.6696618 C13.574662,58.9054192 14.0540282,58.1621002 14.5357183,57.4234309 C15.032831,56.6608791 15.6790986,56.0602215 16.1779014,55.3135209 Z M5.68166197,33.5832235 C8.25447887,31.1947538 11.694338,30.1058771 15.1633521,30.5970552 C16.8006761,30.8284838 18.359831,31.4206873 19.7421549,32.3343546 C21.144338,33.2611256 22.0527887,34.408335 22.8919437,35.8431922 C22.9504648,35.9431609 22.8175775,36.0380571 22.7364507,35.9630278 C20.4995493,33.9010943 17.1122958,32.8005933 14.1019437,32.916836 C8.73722535,33.1237479 4.28961972,37.8719436 4.623,43.2835679 C4.78715493,45.9486951 6.28461972,48.6404524 8.60011268,50.0119045 C11.0539859,51.4653605 13.8471549,50.9828477 16.4768028,50.3428791 C17.4264507,50.1118732 17.9047606,51.1794035 17.3632817,51.866292 C14.6962394,55.2512783 9.21215493,54.3661432 6.13314085,52.0379084 C0.183422535,47.5393174 0.386873239,38.4985973 5.68166197,33.5832235 Z M14.3207113,38.9131186 L14.548942,38.873941 C16.4683479,38.5568943 20.5547028,38.1911291 21.1558521,40.5341753 C21.4621901,41.7274591 20.2774014,42.369964 19.2405,42.3171264 C18.3855,42.2735883 17.5569085,42.0058074 16.7128944,41.8240462 C16.4705704,42.6620501 16.3881761,43.5372517 16.2700775,44.3999836 C16.1669789,45.1553495 14.9524014,44.9503397 14.9667676,44.2237174 C14.9870493,43.2132517 15.4562746,42.3541127 16.1948662,41.7270364 C16.0224718,41.7004063 15.8492324,41.6780031 15.6743028,41.6661675 C13.575993,41.5251969 11.5028239,41.9149268 9.5426831,42.6347859 L9.74993662,42.7512399 L9.74993662,42.7512399 C9.84880986,42.7854787 9.80655634,42.9175726 9.7076831,42.9040462 L8.7326831,42.9530795 L8.7326831,42.9530795 C8.32472535,43.0486098 8.08388028,42.582371 8.34099296,42.2797174 C9.85155634,40.4999366 12.0307817,39.3216587 14.3207113,38.9131186 Z M84.3055141,26.3697957 C87.2362183,26.0185315 90.1474859,27.0989542 91.7205845,29.6782732 C93.1802324,32.0709699 93.3067817,35.1002536 92.2715704,37.6715413 C91.6831901,39.1323945 90.7945986,40.442555 89.6947394,41.5690521 C89.1509366,42.1259601 88.5276972,42.7006215 87.8385423,43.0690051 C87.0359366,43.4980462 86.4384718,43.4606372 85.5917113,43.3031812 C85.0464296,43.2017331 84.670162,42.5015295 84.8444577,41.9868916 L84.9742688,41.5966653 C85.1159262,41.1776496 85.2484953,40.8671108 85.6362887,40.4719327 C85.9747394,40.1272204 86.3797394,39.8480266 86.7517817,39.5407233 C87.5518521,38.8794082 88.2953028,38.141373 88.8513592,37.2594082 C89.8677676,35.6465941 90.220162,33.7928407 89.6463592,31.9534591 C89.0305141,29.9781793 87.3999507,28.6988759 85.3567817,28.4604728 C84.1966286,28.3254292 83.0194655,28.4475696 81.8752131,28.6500686 L81.1776866,28.776174 C80.2044683,28.9564036 79.4105814,29.1658085 78.7392465,30.0587037 C78.6826268,30.1337331 78.5729789,30.1269699 78.5402324,30.0327076 C78.2036831,29.0628211 79.2315,28.1973417 79.9593169,27.7387115 C81.2237535,26.9429777 82.8365704,26.5458505 84.3055141,26.3697957 Z M71.5330986,25.1889182 C71.3896479,25.0061002 71.5128169,24.6353918 71.7929577,24.7419123 C75.0574648,25.9819045 77.8069014,29.0010434 79.6888732,31.853427 C80.2584507,32.7163703 80.7690845,33.6124955 81.2302817,34.5337714 C81.8885086,33.7336445 82.8718544,33.154803 83.7916078,32.7612409 L83.8935211,32.7182724 C84.954507,32.2773957 87.2490845,31.5228751 87.8989437,32.9355405 C88.1078873,33.390155 88.0242254,33.8566051 87.6578873,34.208926 C87.0914789,34.7533644 86.186831,34.5470865 85.4801408,34.540746 C84.0519718,34.5284877 82.9178873,34.9799319 81.6540845,35.4182724 C81.8841549,35.920018 82.1017606,36.4278928 82.3043662,36.9427421 C82.580493,37.6429456 82.7841549,38.3807695 83.1190141,39.0560337 C83.4369718,39.6979045 83.9364085,40.2712978 84.3627465,40.8404642 C84.9384507,41.6085112 84.1688028,42.9066247 83.2305634,42.8144759 C81.2885915,42.6234153 80.5147183,41.0179984 79.98,39.3164172 L79.6884869,38.385748 C79.2515458,36.9956617 78.8017606,35.6331388 78.1457746,34.3107969 C77.3019718,32.6106951 76.2952817,30.9499045 75.1373239,29.4448791 C74.0017606,27.9692313 72.6773239,26.6518849 71.5330986,25.1889182 Z M66.4783944,5.152382 C67.6847324,4.70262857 68.6990282,6.25161487 68.0983944,7.26038982 C67.5704366,8.14637025 67.256493,9.06130568 67.1335352,10.0212587 L72.4519859,8.75357965 L72.4519859,8.75357965 C73.5093803,8.5016501 74.5097324,9.43645245 74.2175493,10.5200454 L73.3967746,13.5645464 L73.3967746,13.5645464 C74.457338,13.2096892 75.5667042,12.9993957 76.7069155,12.9252117 C77.6840282,12.8618067 78.2236056,13.870793 78.0630423,14.7060493 C77.7277939,16.4462186 77.2617118,18.1545203 76.640725,19.8138824 L76.1869556,21.0082883 C75.6533641,22.3989677 75.0306607,23.8023162 73.7440986,24.5858301 C73.1225493,24.9643585 72.3165634,24.4748712 72.3136056,23.7649456 C72.3062113,22.0460337 73.3667746,20.5773605 73.9562113,18.9924446 C74.3140986,18.0303781 74.6176901,17.0516149 74.8754366,16.060382 C73.8770463,16.3427862 72.9376767,16.7906284 72.0505754,17.3812695 L71.9179014,17.4709339 C70.8689801,18.1902608 69.5514226,17.0213803 69.8123451,15.8994342 L69.822338,15.8593879 L70.8245915,12.0998888 L66.057338,13.2506912 L66.057338,13.2506912 C65.0747324,13.4880376 64.3202958,12.8011491 64.2271268,11.8559906 C64.1282535,10.8512313 64.1918451,9.85133307 64.4007887,8.88292603 C61.2498833,9.87546726 58.0343999,10.6477441 54.8090889,11.3691837 L54.3252254,11.4770395 C47.2467042,13.0494857 40.0139577,14.4378458 33.5198028,17.8033879 C30.6518451,19.2893918 28.0221972,21.0486716 25.6304366,23.2245229 C24.4486056,24.2996618 23.3675493,25.4828008 22.4210704,26.7705581 C21.9771268,27.3747382 21.5618946,27.9999593 21.1814576,28.6459247 L20.8768341,29.1717882 C20.7305105,29.4256436 20.5881895,29.6870192 20.5010704,29.9604681 L20.4580265,30.0973368 C20.3875927,30.3285065 20.311377,30.632475 20.3755775,30.835247 C20.4679014,31.1273331 20.996493,31.6075209 21.3700141,31.4760611 C21.4209296,31.4580963 21.4467042,31.5244603 21.4179718,31.5589104 C21.0888169,31.9554035 20.6252958,32.0268399 20.1537465,31.8275366 C19.4079718,31.5119906 19.2220563,30.7917088 19.3044507,30.0401472 C19.5087465,28.1800532 20.8025493,26.1288986 21.825507,24.6105581 C26.0379718,18.357337 32.969662,14.6155914 39.9617746,12.2712939 C48.6554366,9.35635068 57.8707183,8.36110215 66.4783944,5.152382 Z" id="ðŸ–-Ink" fill="#000000"></path>
                    </g>
                    <g id="face/Smiling" transform="translate(112.183099, 77.354207)" fill="#000000" fill-rule="evenodd">
                        <path d="M30.968993,50.9198978 C29.548794,50.3403012 28.2816173,49.3734958 27.3551889,48.1384646 C27.0331038,47.7091169 26.9495926,47.2557326 27.017159,46.8410547 C27.0931327,46.3747786 27.3688808,45.9521824 27.7449394,45.6687178 C28.1221628,45.3843752 28.5940214,45.2441445 29.0502103,45.3156301 C29.4466117,45.3777469 29.8412104,45.5948709 30.1535058,46.0451781 L30.2187521,46.1352289 C30.7695298,46.8806513 31.4872438,47.4922614 32.3050288,47.8864795 C33.0932406,48.2664417 33.9747757,48.4437847 34.8870208,48.3406561 C36.6244504,48.1443157 37.8219743,47.2043274 39.0948115,45.9278391 C39.2525834,45.7666792 39.4104563,45.6004672 39.5690946,45.4315797 C39.6692778,45.278484 39.8083069,45.1800892 39.962667,45.1284632 C40.1340565,45.0711416 40.327938,45.0743848 40.5055187,45.1363808 C40.6767961,45.1961763 40.8299095,45.309486 40.9325762,45.4602937 C41.0301525,45.6036243 41.0854754,45.7806897 41.0675245,45.9843589 C40.9510195,47.3072301 40.2596776,48.4878363 39.2776553,49.4148615 C38.1869942,50.4444414 36.7412431,51.1567117 35.3801317,51.4065272 C33.8805866,51.6817086 32.3525901,51.4845569 30.968993,50.9198978 L30.968993,50.9198978 Z M36.0875289,30.5120405 C37.6828906,31.482148 40.1137318,33.7442494 38.3974899,36.149264 C36.3773089,38.2698449 33.4687045,35.8384541 32.0353946,34.7388307 C30.7063626,33.8866164 29.2131206,36.0784478 30.4461973,37.0735516 C40.8033244,44.7445605 45.006466,30.7657101 36.8944406,29.3714319 C36.0012775,29.2177885 35.6695544,30.2119271 36.0875289,30.5120405 Z M17.5274577,21.5886716 C17.7037243,19.3998697 21.0359789,18.9028321 21.3674577,21.0687499 C21.6642887,23.0089456 21.3148521,24.7912626 20.4412606,26.5380728 C19.6065423,28.2068947 17.5085456,27.4283107 17.3498837,25.9087021 C17.1372039,23.8717299 17.4178099,22.9502317 17.5274577,21.5886716 Z M42.8930282,20.6196517 C43.3576056,20.0109628 44.0283803,19.5954481 44.8320423,19.8302583 C47.3429577,20.5642779 46.6028873,24.1303914 45.7210563,25.8662114 C45.2419014,26.8088337 43.6930986,27.0478708 42.993169,26.2178982 C41.8523239,24.864411 41.3059859,22.1614521 42.756338,20.8282544 C42.7956338,20.7593542 42.8393662,20.68982 42.8930282,20.6196517 Z M20.4058944,12.0111429 L20.802522,11.9416942 C22.0295218,11.7294045 23.5551549,11.5254176 24.4231479,12.5122544 C24.8835,13.0355577 25.0419507,14.0081918 24.4231479,14.509092 C23.3346972,15.3904227 22.1313169,15.0488806 20.8269507,15.1234873 C19.7520211,15.1852016 18.7189225,15.3631585 17.6835,15.6592603 C15.4119507,16.3087397 13.5610352,17.4944149 11.6209648,18.7963327 C11.3663873,18.9671037 11.1065282,18.6414129 11.228007,18.4032211 C12.3479366,16.208771 14.5182887,14.4061644 16.6922324,13.3073542 C17.8525141,12.7208571 19.1222324,12.2343288 20.4058944,12.0111429 Z M40.6041287,11.0281289 L40.9077055,11.0902829 C44.2113469,11.7811043 48.5035506,13.1610768 50.0679842,16.4073021 C50.1275964,16.8663298 50.0646105,16.9647086 50.0133917,17.0289838 L49.9963385,17.0503723 C49.9541341,17.1052595 49.9204583,17.1809212 49.7215736,17.2433957 C49.6663832,17.2302408 49.6106433,17.216308 49.5543131,17.2015401 C48.8372041,17.0135386 48.2698321,16.7545401 47.720556,16.4857982 L47.1250012,16.192275 C46.4340388,15.8533498 45.7369757,15.5267598 44.9982488,15.2856588 C43.4217423,14.7712438 41.8001698,14.4088706 40.1534741,14.2153715 C39.7965654,14.1734678 39.4528848,14.0529641 39.1817455,13.8464404 C38.92438,13.6504079 38.7277692,13.3789964 38.6381257,13.0182314 C38.5219478,12.5513438 38.5553348,12.1978716 38.8057421,11.7766707 C38.9940329,11.4603578 39.263447,11.2411116 39.5728025,11.115213 C39.888177,10.9868648 40.2472278,10.9566068 40.6041287,11.0281289 Z" id="ðŸ–-Ink"></path>
                    </g>
                    <g id="facial-hair/Moustache-7" transform="translate(104.577451, 109.479380)" fill="#000000" fill-rule="evenodd">
                        <path d="M54.6411761,8.17173229 C53.2480775,7.90986928 51.8078662,7.98341918 50.4240634,7.67865205 C49.0740634,7.38107084 48.0018803,6.49614716 46.6975141,6.08422544 C45.5496972,5.72154834 44.2043451,5.96713738 43.3104718,6.67008845 C42.4799789,6.28606497 41.5362465,6.20300431 40.5914577,6.32981448 C39.1586408,6.52214325 37.8217394,7.12871859 36.5454718,7.7847499 C36.3975845,7.86083601 36.2494859,7.93332916 36.1015986,8.00666771 C33.7434296,7.94770098 31.3258944,7.95235068 29.0118803,8.45790059 C26.9627958,8.90575186 25.0256831,9.94813151 23.8037113,11.6892352 C22.4361761,13.6380963 22.1892042,16.1197714 21.9783592,18.4226442 C21.8442042,19.8843429 23.8736408,20.1808673 24.5613169,19.122425 C25.2743451,18.0250943 26.0165282,16.9252274 26.9665986,16.0159984 C28.0457535,14.9831295 29.3583592,14.5764916 30.8294155,14.4822294 C34.0761761,14.2742607 37.3444859,14.4486247 40.5944155,14.3046951 C42.4782887,14.2212117 44.5757535,13.4964916 45.3350493,11.8581041 C46.1454718,13.1285307 47.9818099,13.8838967 49.492162,13.9984485 C51.0882887,14.1197636 52.7089225,13.8295796 54.2892042,14.162245 C55.7989225,14.4801159 57.5934296,15.6049221 57.2577254,17.4039358 C57.0604014,18.4606873 58.3958239,19.0837479 59.0104014,18.1432391 C61.5200493,14.3002568 59.047162,9.00043679 54.6411761,8.17173229" id="ðŸ–-Ink"></path>
                    </g>
                    <g id="accessories/*-None" transform="translate(88.521127, 88.978474)"></g>
                </g>
            </g>
        </g>
    </g>
</svg>