<?xml version="1.0" encoding="UTF-8"?>
<svg width="240px" height="324px" viewBox="0 0 240 324" version="1.1" xmlns="http://www.w3.org/2000/svg" xmlns:xlink="http://www.w3.org/1999/xlink">
    <!-- Generator: Sketch 62 (91390) - https://sketch.com -->
    <title>peep-53</title>
    <desc>Created with Sketch.</desc>
    <g id="Introduction" stroke="none" stroke-width="1" fill="none" fill-rule="evenodd">
        <g id="variations" transform="translate(-1806.000000, -1082.000000)">
            <g id="images" transform="translate(126.000000, 110.000000)">
                <g id="a-person/bust" transform="translate(1680.000000, 972.000000)">
                    <g id="body/Tee-2" transform="translate(31.056338, 135.052838)" fill-rule="evenodd">
                        <path d="M10.1408304,74.1409423 L161.508208,86.1622614 L161.666702,87.191236 C164.203145,103.716755 165.484307,114.928125 165.510189,120.825346 L165.51059,121.00604 C165.51059,126.853358 167.304928,136.15308 170.893606,148.905205 L171.115563,149.690261 L9.9295628,149.971185 L8.02815435,111.587477 L10.1408304,74.1409423 Z M99.7541549,-8.22339274 C105.908856,-7.91955082 112.111656,-5.27997127 112.590761,-3.59296916 C113.657787,0.164193512 115.373739,16.2472869 121.016578,18.7182295 C126.659417,21.1891721 138.706225,18.9364862 142.150568,24.8373184 C145.594911,30.7381506 156.906256,54.7924801 156.906256,60.3973625 C156.906256,64.1339508 120.043856,65.4309817 46.3190579,64.2884552 C47.2602227,34.1918165 51.184016,18.3709976 58.0904377,16.8259986 L58.7069698,16.6896825 C68.6947802,14.5070641 74.6640267,14.4366955 78.0711847,10.9182676 C81.5478766,7.32803501 82.1787774,1.16536952 83.6211055,-3.59296916 C84.4158144,-6.2147681 92.2015741,-8.59624441 99.7541549,-8.22339274 Z" id="ðŸŽ¨-Background" fill="#FFFFFF"></path>
                        <path d="M113.251479,1.18286419 C113.274718,1.16536952 113.298169,1.15961566 113.32331,1.17229667 C113.802887,1.40266849 113.902183,1.86341213 114.066972,2.3431773 C114.307817,3.04486027 114.58669,3.72963523 114.844437,4.42497769 C115.358028,5.81988963 115.847958,7.21268806 116.420493,8.58435147 C117.007817,9.99617143 117.616268,11.3826294 118.313451,12.7458387 C118.649366,13.4052517 119.010634,14.0519836 119.378239,14.6944885 C119.631761,15.1404376 119.86838,15.7533534 120.202183,16.171827 C120.227535,16.0386763 120.263451,15.9118661 120.305704,15.79351 C120.261549,15.814645 120.219085,15.8378935 120.178944,15.8632556 C120.094437,15.9160932 119.993028,15.810418 120.043732,15.7279914 C120.225423,15.427874 120.462042,15.2249777 120.732465,15.0876 C121.480352,14.2569933 137.965352,18.2208681 142.471901,22.672962 C150.633803,30.7361871 156.143028,40.7053691 159.766268,51.3109268 C161.766972,57.1632164 163.609225,63.0725706 165.512746,68.9565628 C167.524014,75.1787155 169.624014,81.3733926 171.639507,87.5913182 C172.081056,88.9587546 171.117676,90.2014943 169.900775,90.6516705 C167.633873,91.4886176 165.35007,92.2769542 163.047254,93.0061127 C164.164859,97.2986372 164.946549,101.682042 165.508521,106.078128 C166.66838,115.142942 166.814155,124.391631 168.641831,133.361338 C169.061454,135.420041 169.592379,137.449586 170.153244,139.473664 L170.283169,139.940672 C170.616972,141.128461 170.921408,142.326817 171.331056,143.489244 C171.683873,144.488931 172.140211,145.497072 172.387394,146.528461 C172.676831,147.741612 172.25007,149.066778 171.115563,149.690261 C170.205,150.191162 168.901479,149.984038 168.352183,149.04353 C168.240211,148.851201 168.172606,148.641964 168.145141,148.430614 C168.062746,148.255193 167.98669,148.075545 167.919085,147.89167 C167.892676,147.820868 167.869437,147.747424 167.847254,147.673715 L167.781761,147.454175 C167.621197,146.930027 167.47331,146.401651 167.325423,145.873275 C167.084577,145.025459 166.84218,144.180747 166.574283,143.340473 L166.438099,142.920712 C165.774718,140.900203 165.181056,138.862786 164.663451,136.800007 C162.811092,129.403463 162.418117,121.745484 161.909584,114.165395 L161.883169,113.773393 C161.422606,106.980594 161.147958,100.20259 161.712042,93.4245863 L161.63493,93.4496841 L161.63493,93.4496841 L161.557817,93.4731969 C160.82493,93.6972282 160.089507,93.9170325 159.352183,94.1304963 C159.328944,94.1389503 159.307817,94.1474043 159.284577,94.1537448 C158.812746,94.2999288 158.327711,94.4387742 157.834362,94.5678348 L157.537394,94.6440775 L157.328239,94.7011421 L157.108063,94.7638105 C156.409393,94.9665185 155.697052,95.1996268 154.972606,95.1766802 C153.772606,95.369009 152.551479,95.4852517 151.351479,95.4894787 C151.721197,101.536211 152.147958,107.578715 152.657113,113.61488 C153.16838,119.682747 153.846549,125.727365 154.55007,131.771984 C154.896549,134.758363 155.26838,137.738402 155.678239,140.714214 C155.885282,142.223256 156.100775,143.723843 156.375423,145.220203 C156.658521,146.750379 157.159225,148.38623 156.857113,149.933314 C156.850775,149.931201 156.844437,149.929087 156.838099,149.929087 C156.73669,150.37715 156.466268,150.778715 155.995141,151.055584 C155.131056,151.560712 153.922606,151.264821 153.426127,150.381377 C153.383873,150.307404 153.343732,150.231318 153.305704,150.153119 C152.796761,150.370809 152.238803,150.45535 151.554296,150.46169 L142.271197,150.554684 L142.271197,150.554684 C138.052183,150.596954 133.833169,150.641338 129.612042,150.702629 C116.35946,150.898011 103.106878,151.123451 89.8542958,151.28395 L84.8845775,151.340907 C77.4310563,151.419107 69.9733099,151.573393 62.5197887,151.571279 C58.7911268,151.571279 55.0662676,151.558598 51.3373944,151.467717 C49.5310563,151.423334 47.7289437,151.353588 45.9247183,151.279616 L45.6061839,151.265049 C44.1658138,151.193935 42.636593,151.060467 41.2282394,151.383177 C40.839507,152.139811 39.8465493,152.296211 39.326831,151.522668 C38.1391613,149.752706 37.8150803,147.283214 37.5956665,145.120009 L37.5183803,144.340986 C37.2754225,141.916798 37.0620423,139.49261 36.9035915,137.064195 C36.3416197,128.460124 36.1366901,119.8476 36.3944366,111.226622 C36.5254225,106.832649 36.9289437,102.464038 37.4064085,98.0954278 C37.5564085,96.7322184 37.7127465,95.3711225 37.8817606,94.0121401 L37.8846655,93.5289405 C37.8849296,93.3743906 37.8838732,93.2269738 37.8796479,93.0885393 L37.8375264,91.7772759 C37.8025352,90.6842811 37.7700198,89.5906672 37.7564855,88.4969501 L37.7507746,87.8407115 L37.7444366,86.6191068 C36.7007746,86.5197722 35.5873944,86.1731577 34.6873944,86.006191 C33.2277465,85.7335491 31.7719014,85.4397722 30.320493,85.1290873 C27.4134507,84.5034904 24.5380986,83.7637644 21.6817606,82.9458387 L21.0742807,82.7712845 C18.4386519,82.0115518 15.7667203,81.201444 13.2733099,80.0651342 C12.2972535,79.6191851 11.3233099,79.1161714 10.4676761,78.4567585 C10.4169718,79.1499875 10.3388028,79.8411029 10.2923239,80.5279914 C10.1995775,81.8869738 10.089507,83.2417292 9.99866197,84.6007115 L9.91178795,85.893735 C9.76908451,88.0481871 9.64056338,90.2004376 9.58246479,92.3614943 C9.32471831,101.787717 9.28035211,111.254097 9.77894366,120.67398 C10.0261268,125.389205 10.3789437,130.10443 10.8880986,134.800633 C11.1373944,137.110692 11.4014789,139.427091 11.726831,141.728696 C12.0627465,144.093706 12.6690845,146.443921 12.855,148.825839 C13.0324648,151.123216 9.52119718,151.45715 8.94443662,149.356328 C8.25381791,146.837334 8.07788912,144.119852 7.71386277,141.529829 L7.67260563,141.24259 C7.26908451,138.490809 6.94584507,135.728461 6.66697183,132.961886 C5.70430572,123.41942 5.45429577,113.828344 5.95922535,104.249948 C6.19928795,99.6625511 6.76847592,95.0927924 7.45738541,90.5538832 L7.53739437,90.0303006 C7.85100939,87.9975804 8.14459311,85.9648603 8.49975454,83.9410464 L8.63598592,83.1825511 C8.955,81.4431382 9.20007042,79.551553 9.71767606,77.8121401 L9.56381708,77.6702055 C9.27616426,77.4021331 8.96442579,77.0919233 8.73739437,76.7575022 C7.95570423,76.651827 7.29021127,76.0896352 7.37260563,75.0688133 C7.64091549,71.7146841 8.86626761,68.3034904 9.95852113,65.137463 C11.055,61.9545276 12.326831,58.8307703 13.7676761,55.787326 C18.8359859,45.0908877 26.1352817,35.3793417 35.061338,27.5995374 C39.7958451,23.4718661 44.9845775,19.8112791 50.7183803,17.2053299 C53.5451408,15.9182067 56.4690845,14.9227468 59.5324648,14.385917 C61.0493662,14.1196157 62.5810563,13.9124924 64.1233099,13.8681088 C65.3745045,13.1291376 66.8600574,13.4400941 68.0715858,14.2503488 L68.1373944,14.2950364 L68.1397183,14.2950364 L68.4500704,14.356328 L68.4500704,14.356328 C68.5261268,14.3711225 68.5240141,14.4915922 68.4500704,14.5085002 C68.4458451,14.5085002 68.439507,14.5106137 68.4352817,14.5127272 C68.6338732,14.6691264 68.8219014,14.8360932 68.9972535,15.0157409 C69.5761268,15.6075217 69.5740141,16.3218857 69.2761268,16.898872 C71.048662,18.5431773 72.1683803,20.6545667 73.3409155,22.7828642 C74.5979577,25.0612204 76.2437324,27.0310051 78.2465493,28.6922184 C85.5880986,34.7833339 96.3859859,37.4780501 105.584577,34.6015726 C112.349366,32.4880697 118.127535,26.7668172 119.724718,19.8789112 C119.346549,20.0141753 118.93669,20.0353104 118.547958,19.8958192 C116.722471,19.2447932 116.026454,17.2489275 115.328228,15.5802149 L115.294437,15.4997331 C114.612042,13.8829033 114.039507,12.2407115 113.587394,10.5456822 C113.131268,8.83374481 112.862746,7.0266998 112.750775,5.25981135 C112.707561,4.56120256 112.726575,3.86259377 112.762689,3.16398498 L112.794761,2.58633159 C112.819438,2.06290802 112.811761,1.52806967 113.251479,1.18286419 Z M83.5494718,-3.52813386 C83.5748239,-3.59153894 83.6741197,-3.62535499 83.7121479,-3.54926888 C85.3281338,-0.214161252 84.2677817,4.35523209 82.7401056,7.53605401 C81.1410211,10.8627076 78.7325704,13.3862301 75.8783451,15.5694787 C75.4853873,15.8695961 75.0816549,16.1654865 74.672007,16.4550364 C72.2908099,18.1373847 70.1696831,13.6018074 72.9184859,12.7352712 C75.7832746,11.2790677 78.1114437,8.68368611 79.7295423,5.95726732 C80.6044014,4.48415577 81.3797535,2.94975264 81.9734155,1.33926341 C82.5649648,-0.266998826 82.9198944,-1.93877965 83.5494718,-3.52813386 Z" id="ðŸ–-Ink" fill="#000000"></path>
                    </g>
                    <g id="head/Mohawk" transform="translate(78.591549, 38.043053)" fill-rule="evenodd">
                        <path d="M83.0583717,51.2628609 C83.1669633,45.9594479 82.6751323,40.5243638 80.0989351,35.7841994 C77.8620337,31.3352757 74.5432309,27.4787669 71.1363295,23.8889822 C69.714921,22.3911427 67.8166816,20.8818902 67.9943576,18.611354 C68.1809069,16.2288021 69.6135126,11.067628 69.8344985,8.66351839 C70.2692872,3.93645772 66.8873154,2.63559667 62.9336534,0.389365748 C58.1653436,-2.31993367 52.467245,-2.00650118 47.2987943,-0.79018024 C37.6605548,1.51057906 26.2075267,5.32904481 22.5652731,15.5465634 C21.6897802,18.0664929 21.9082309,20.7187278 21.7339351,23.3327082 C21.5706252,25.7795106 20.5913999,28.1098589 19.6529492,30.3455223 C14.6915407,41.3957611 14.7363295,53.5965908 15.6371745,65.4573579 C12.9878788,66.0702738 10.426259,68.1408726 9.84231539,70.8884264 C8.86372384,75.6991818 13.9071041,77.9230096 16.8859774,80.5232522 C20.5189351,83.6941407 23.163583,87.798352 26.4661182,91.2822503 C47.8958365,114.92009 95.1825971,104.040833 85.3521041,67.2225556 C84.0183717,61.9905791 82.8595689,56.697945 83.0583717,51.2628609 Z" id="ðŸŽ¨-Background" fill="#FFFFFF"></path>
                        <path d="M40.6686338,-0.280335029 C45.9908873,-2.3498771 51.743493,-3.22486732 57.4337746,-2.4914818 C60.4954648,-2.0968908 63.4637746,-1.27304736 66.2637042,0.0343655577 C67.6141268,0.665034834 68.9096197,1.41279217 70.1246197,2.27658082 L70.2354415,2.3559176 C71.197181,3.04975876 72.1780469,3.90790763 72.0657465,5.05964149 C72.1401127,5.30079217 72.1532113,5.56582544 72.0942676,5.83022466 C71.1456761,10.0889331 70.1503944,14.3341151 69.1682113,18.5845808 C68.9615915,19.4781699 68.7617324,20.3732384 68.5635634,21.2689409 C75.2478592,26.3041503 81.5313803,33.1878294 83.9108873,41.3677198 C86.2401127,49.3753597 85.2203239,57.8090818 86.0436338,66.0044008 C86.2388451,67.9460759 86.5684225,69.8721112 87.0860282,71.7552423 C87.6420845,73.7770192 88.5710282,75.6880485 89.0406761,77.7324399 C89.9858873,81.845528 88.6149718,85.8833753 86.4454648,89.3708665 C82.4235634,95.836072 76.3472958,101.291657 69.2820845,104.188424 C65.6668732,105.670413 61.6874366,106.47608 57.776662,106.413309 C53.9413099,106.351806 49.5750423,105.563681 46.3641972,103.349575 C44.1938451,101.853215 46.0485634,98.905935 48.383493,99.893575 L49.0179324,100.160953 C50.6369651,100.839036 52.2443678,101.467623 53.9803944,101.828276 C55.9208873,102.231109 57.914831,102.317129 59.8903944,102.193277 C63.7215211,101.953184 67.3540563,100.677473 70.6608169,98.7617941 C73.6449718,97.0327374 76.3035634,94.8000329 78.6775775,92.3054654 L78.9418854,92.0263784 C81.1896119,89.6410564 83.4523609,86.9223534 84.7164507,83.8875945 C85.3671549,82.3259272 85.7195493,80.6089174 85.4377183,78.9244556 C85.1127887,76.9825691 84.248493,75.1535436 83.7441972,73.2558294 C82.7863627,69.6509014 82.4631708,65.8920726 82.3534226,62.1728843 L82.3453944,61.8868744 C82.1419437,54.2541699 82.7201831,46.5244556 80.0178592,39.2288548 C77.5707465,32.6216219 72.5260986,27.5671796 68.4002535,22.0069761 C68.1976479,22.926984 67.9958873,23.8474145 67.7909577,24.7667883 C67.5463099,25.8653871 67.3232113,26.9709605 67.0565915,28.0640642 L67.0365211,28.1437432 L67.0365211,28.1437432 C67.1168028,28.3793988 67.0889155,28.647391 66.8742676,28.8160485 C66.8506056,28.8346474 66.8267324,28.85071 66.8028592,28.8680407 C66.5841972,29.3735906 66.2446901,29.7614184 65.5958873,29.9224673 C64.9745493,30.0765417 64.4827183,29.8138333 64.2068028,29.3598528 L60.9636338,29.3763382 L60.9636338,29.3763382 C58.9044085,29.3869057 56.6446901,29.623618 54.6194789,29.204299 C54.3080704,29.1396258 54.3473662,28.6970583 54.6194789,28.6118841 C56.5331408,28.0137628 58.7681408,28.0281346 60.7549014,27.8427804 L63.8860986,27.550483 L63.8860986,27.550483 C64.0244085,27.5376611 64.1637512,27.5210818 64.3035008,27.5036885 L64.5133521,27.4773558 L65.6018028,22.6321503 L65.6018028,22.6321503 C66.0336338,20.709708 66.4857465,18.790436 66.8803944,16.8601738 C67.5917324,13.3798685 68.3717324,9.91541448 69.1513099,6.45011507 C66.7035634,5.84966888 64.2049014,5.58083131 61.6722254,5.68777456 L61.3803032,5.70069742 C60.3991215,5.74751682 59.3469565,5.84576851 58.526662,6.41545362 C57.5089859,7.1217863 57.4354648,8.57883523 57.2100423,9.70237339 C56.5914507,12.7836493 56.1486338,15.8943029 55.7605352,19.0127765 C55.5729296,20.5207609 55.431169,22.0327609 55.2649014,23.5426474 C55.1892676,24.227845 55.143,24.9244556 55.0409577,25.6054262 C54.9437746,26.2536376 54.7113803,26.8845182 54.5801831,27.5251209 C54.8062394,28.5028274 53.4520141,29.4317119 52.6960986,28.5630622 C51.761662,27.4891914 50.943,26.3681894 49.8989155,25.386256 C48.8514507,24.4009409 47.7070141,23.5384204 46.4734225,22.7993284 C43.9665211,21.2970505 41.3618028,20.373027 38.5620845,19.5920877 C38.4691268,19.5663029 38.4165211,19.5086043 38.3909577,19.4418176 C35.5973662,20.2348039 32.864831,21.3093088 30.3294085,22.690483 C24.4515211,25.8926513 19.824338,31.4213636 18.0710282,37.9144673 C16.9825775,41.9463969 16.7423662,46.2053166 16.7275775,50.3653245 C16.7208169,52.2964321 16.7618028,54.2497315 17.0670845,56.1605495 C17.4078592,58.2924399 18.1810986,60.1983969 18.8041268,62.243845 C18.9668028,62.7779272 18.9268732,63.2547335 18.7536338,63.6529174 L18.9123944,63.6768513 C20.184809,63.875816 22.6774542,64.437344 22.9046197,65.8251757 C22.9682113,66.2142716 22.7506056,66.518616 22.3506761,66.5524321 C21.6397606,66.6126669 21.1927183,66.0961268 20.6250423,65.7433832 C20.523,65.6801894 20.418,65.6220681 20.3134225,65.5633127 C20.2863803,65.5819115 20.2500423,65.5865613 20.2126479,65.5652149 C16.8558169,63.6527061 12.7532113,66.5777941 12.006169,69.9714458 C11.3085634,73.1402207 12.4956761,76.8096845 15.5567324,78.1948744 C17.0958169,78.8914849 18.732507,79.3287687 20.1490563,80.2815358 C21.3412394,81.0833988 22.3946197,82.0636415 23.3134225,83.1656219 C25.2053239,85.4338333 26.6324366,88.0201268 28.3084225,90.4409331 C29.0440563,91.503391 29.8608169,92.5073049 30.8315915,93.3658098 C31.8949014,94.3058959 33.3744085,94.6768157 33.824831,96.1484477 C34.0003944,96.7222638 33.7084225,97.4114771 33.1920845,97.7035632 C31.302507,98.7729957 29.1619437,96.9129018 27.8400423,95.6517746 C26.4830704,94.357254 25.3760282,92.7896689 24.3600423,91.221027 C22.658493,88.5939429 21.2053944,85.5967843 18.7092676,83.6054419 C17.2109577,82.410256 15.3444085,81.9581777 13.6580704,81.1127765 C11.7230704,80.1431014 10.3487746,78.5539585 9.52757746,76.5670544 C8.01595775,72.9092149 8.41398592,68.2457706 11.2779296,65.3352658 C12.2079296,64.3896845 13.3849014,63.7850114 14.6172254,63.5417472 C13.3447606,61.3147491 12.8721549,58.5073832 12.5529296,56.0153519 C12.2320141,53.5116963 12.1984225,50.9917667 12.3304648,48.4737393 L12.3570638,47.984433 C12.6098415,43.4944861 13.1192565,38.8832266 14.7437746,34.6674928 C16.1113099,31.1191327 18.1865915,27.8639155 20.9440563,25.2336611 C21.2286338,24.9622873 21.5208169,24.6964086 21.8176479,24.4349683 C21.738,24.3738881 21.6615211,24.3083695 21.5932817,24.2341855 C20.8206761,23.3930114 20.9860986,22.2574262 21.0889859,21.2118763 C21.2032817,20.0496611 21.3883521,18.8908274 21.6663803,17.756299 C23.6058169,9.84038513 29.5703239,3.38194286 37.2454648,0.710475147 C38.3537746,0.324549511 39.5007465,-0.00748180039 40.6686338,-0.280335029 Z M14.8100915,69.7685918 C16.0523451,68.9834254 17.9482606,69.2843883 19.243331,69.7990262 C20.7667817,70.4041221 22.3893169,71.5331554 22.9893169,73.110674 C23.5449507,74.5711045 21.4715704,75.0887014 20.698331,74.0767562 C20.2204437,73.4513706 19.8667817,72.8490223 19.4134014,72.3039499 C19.3555986,72.3602536 19.3006352,72.4192626 19.2518645,72.4834658 L19.2165,72.5326309 C19.0242465,72.8154176 18.6737535,73.1094059 18.2989648,73.0588932 L18.1977676,73.0455781 L18.1977676,73.0455781 C17.8194552,72.9948314 17.4030322,72.8114313 17.2985663,72.3996781 L17.2882606,72.3529832 L17.2743169,72.2785879 C17.1879085,71.8212258 17.3243873,71.3173667 17.7627676,71.0781182 C17.7921338,71.0620556 17.8221338,71.0483178 17.8517113,71.0331006 C16.8862183,70.527128 15.8905141,70.3688266 14.8407254,70.004036 C14.7363592,69.9676838 14.7129085,69.8300947 14.8100915,69.7685918 Z M49.3472958,1.65901526 C42.8738451,1.49648689 35.7718732,3.48782935 30.986662,7.97395068 C28.7212394,10.0982325 27.1865915,12.5693401 25.8103944,15.3236571 C25.1605352,16.6240955 24.7422254,18.0648705 24.432507,19.4815515 C24.2630704,20.256573 24.1360986,21.0383577 24.068493,21.8292305 C24.0553944,21.9816141 24.0579296,22.1424517 24.0342676,22.2933558 C24.0141972,22.4218568 23.9899014,22.4552501 23.967507,22.4467961 C23.978493,22.4827256 24.0319437,22.5560642 24.083493,22.6260211 C28.9303944,19.1385299 34.9295493,17.1087217 40.8623662,18.4311405 C41.0512394,18.4731992 41.0512394,18.7712031 40.8623662,18.8132618 C40.5589859,18.8808939 40.2564507,18.9565573 39.9537042,19.0307413 C42.5497606,19.0880172 45.2174366,19.9017159 47.4596197,21.1116963 C49.7001127,22.3208313 52.0565915,24.0302325 53.6808169,26.1094967 C53.634338,25.8059977 53.5975775,25.5012305 53.5906056,25.1928705 C53.5726479,24.3692384 53.591662,23.5413793 53.6222958,22.7183812 C53.6886338,20.933528 53.8101127,19.1488861 53.9567324,17.3691053 L54.0213308,16.5933934 C54.2841884,13.4826273 54.6074204,10.2836192 55.2359577,7.24056517 C55.602507,5.46585675 56.5836338,4.3848 57.9023662,3.75096047 C55.4541972,2.16963757 52.1318028,1.72918356 49.3472958,1.65901526 Z M61.3517324,0.623610176 C58.4345493,-0.250957339 55.3977887,-0.636248924 52.3587042,-0.583622701 C53.4634225,-0.304428963 54.5328592,0.101363601 55.539338,0.661653229 C56.8344085,1.38278043 57.7462394,2.33808376 58.5627887,3.47641644 C59.331169,3.20884697 60.1857465,3.06111311 61.0849014,2.99728532 C63.1612394,2.84997417 65.2603944,2.96072172 67.323,3.28789198 C66.9380704,3.05075695 66.5474366,2.82313268 66.1504648,2.60692133 C64.6242676,1.77652603 63.0150423,1.12218552 61.3517324,0.623610176 Z" id="ðŸ–-Ink" fill="#000000"></path>
                    </g>
                    <g id="face/Suspicious" transform="translate(112.183099, 77.354207)" fill="#000000" fill-rule="evenodd">
                        <path d="M32.9332183,53.0344885 C34.5301901,52.8121479 36.2473732,51.9073573 37.7727254,52.642645 C38.4857535,52.9863006 38.8242042,54.1616196 38.3420915,54.8149033 C37.6058239,55.8126881 36.8456831,55.9777526 35.6505423,56.0737057 C34.7545563,56.1455648 33.8537113,56.1508485 32.9600493,56.0474982 L32.7327314,56.0196695 C31.1381508,55.8137645 29.4807983,55.3685258 28.2454014,54.2964611 C27.9927254,54.0770795 28.1222324,53.6032321 28.4465282,53.5347546 C29.9135704,53.2259718 31.4482183,53.2414004 32.9332183,53.0344885 Z M31.0536549,49.3558309 C31.0530211,49.3429386 31.072669,49.3429386 31.0733028,49.3558309 C31.1119648,50.2688642 31.3684437,51.1153221 31.8425282,51.8964728 C31.8490775,51.9076744 31.8319648,51.9176078 31.8254155,51.9066176 C31.3511197,51.1248329 31.0923169,50.2697096 31.0536549,49.3558309 Z M36.0875289,30.5120405 C37.6828906,31.482148 40.1137318,33.7442494 38.3974899,36.149264 C36.3773089,38.2698449 33.4687045,35.8384541 32.0353946,34.7388307 C30.7063626,33.8866164 29.2131206,36.0784478 30.4461973,37.0735516 C40.8033244,44.7445605 45.006466,30.7657101 36.8944406,29.3714319 C36.0012775,29.2177885 35.6695544,30.2119271 36.0875289,30.5120405 Z M44.2529577,19.6556196 C44.6275769,19.6556196 44.985876,19.7828243 45.3121821,20.018202 C45.6333352,20.2498627 45.9240697,20.5879667 46.1662193,21.0096614 C46.6244555,21.807663 46.9109155,22.9094914 46.9109155,24.1277918 C46.9109155,25.3460922 46.6244555,26.4479205 46.1662193,27.2459222 C45.9240697,27.6676168 45.6333352,28.0057209 45.3121821,28.2373815 C44.985876,28.4727593 44.6275769,28.599964 44.2529577,28.599964 C43.8783386,28.599964 43.5200395,28.4727593 43.1937334,28.2373815 C42.8725803,28.0057209 42.5818458,27.6676168 42.3396962,27.2459222 C41.88146,26.4479205 41.595,25.3460922 41.595,24.1277918 C41.595,22.9094914 41.88146,21.807663 42.3396962,21.0096614 C42.5818458,20.5879667 42.8725803,20.2498627 43.1937334,20.018202 C43.5200395,19.7828243 43.8783386,19.6556196 44.2529577,19.6556196 Z M26.9042324,20.8982748 L27.0452616,20.8715222 C27.8680961,20.7218049 28.2838988,20.7721987 29.0004296,21.3332337 C29.5389507,21.7548775 29.3847254,22.5852728 29.0004296,23.0286857 C28.3310666,23.8013776 27.6770384,23.6645215 26.7601129,23.6940012 L26.6957113,23.6963413 C25.9315563,23.7274098 25.1667676,23.7491789 24.4019789,23.7608031 C24.1928239,23.7641847 23.9834577,23.7633393 23.7743028,23.7646074 C23.7964859,25.7007875 22.6805704,27.1749558 21.210993,28.2957464 C20.2611338,29.0204665 19.0596549,28.1843648 18.7207817,27.2823217 C18.4404296,26.5358325 18.3802183,25.6179382 18.5255704,24.8006466 C18.5794085,24.4993843 18.6916517,24.1723711 18.8632766,23.8935152 L18.9115563,23.8187131 L18.9037394,23.7117699 C18.901838,23.6853511 18.9037394,23.6597777 18.9028944,23.6333589 C17.5386338,23.550425 16.1822451,23.4135652 14.8263355,23.2415763 L14.3743732,23.1829714 C13.2170493,23.0297425 11.5174014,22.9804978 10.5808521,22.2274568 C10.5512746,22.2033628 10.561838,22.1507366 10.5931056,22.1340399 C11.1079552,21.8566427 11.6303122,21.872342 12.2061136,21.8467693 L12.2887394,21.8427992 C12.9149366,21.8104626 13.5397077,21.7834758 14.1655484,21.7620172 L14.791838,21.7424078 C16.393669,21.6965448 17.9969789,21.6187679 19.597331,21.5335937 C19.8755704,21.5187992 20.1538099,21.5012571 20.4324718,21.4841378 C20.7238099,21.3619773 21.0335282,21.2888501 21.3394437,21.2753237 C21.5929648,21.2639108 21.8367676,21.2989949 22.065993,21.3719108 C22.6505176,21.3267346 23.2346857,21.2775164 23.8184082,21.2246128 L24.4019789,21.1704939 C25.2255,21.092083 26.0912746,21.0578442 26.9042324,20.8982748 Z M37.0173169,6.38692133 C38.7778099,5.52144188 40.9183732,5.50030685 42.7314718,6.21657299 L42.8516309,6.26524765 C44.6827854,7.02545524 46.8892819,8.78140198 46.4115423,10.968573 C45.9744296,12.970483 42.8356268,12.6312658 42.6765423,10.7390466 C41.6630915,9.33441252 39.3904859,9.0262638 37.9618944,9.91943014 C37.0954859,10.4613323 36.5007676,11.3737315 36.0942887,12.2939507 C35.7478099,13.0776376 35.6825282,14.0454106 35.1503451,14.728072 C35.1330211,14.7502638 35.0983732,14.7542795 35.0732324,14.7483616 C33.4861901,14.3810348 33.4494296,11.8581464 33.7200634,10.6344282 C34.1132324,8.85528141 35.3751338,7.19470215 37.0173169,6.38692133 Z" id="ðŸ–-Ink"></path>
                    </g>
                    <g id="facial-hair/*-None" transform="translate(104.577451, 109.479380)"></g>
                    <g id="accessories/*-None" transform="translate(88.521127, 88.978474)"></g>
                </g>
            </g>
        </g>
    </g>
</svg>