<?xml version="1.0" encoding="UTF-8"?>
<svg width="240px" height="324px" viewBox="0 0 240 324" version="1.1" xmlns="http://www.w3.org/2000/svg" xmlns:xlink="http://www.w3.org/1999/xlink">
    <!-- Generator: Sketch 62 (91390) - https://sketch.com -->
    <title>peep-62</title>
    <desc>Created with Sketch.</desc>
    <g id="Introduction" stroke="none" stroke-width="1" fill="none" fill-rule="evenodd">
        <g id="variations" transform="translate(-2046.000000, -1730.000000)">
            <g id="images" transform="translate(126.000000, 110.000000)">
                <g id="a-person/bust" transform="translate(1920.000000, 1620.000000)">
                    <g id="body/Explaining" transform="translate(31.056338, 135.052838)" fill-rule="evenodd">
                        <path d="M158.388106,84.73543 C156.97557,80.3932194 158.65799,75.3779444 157.558342,70.6969691 C157.181497,68.8454922 156.465211,61.9666945 155.745945,57.9443789 C155.343607,55.6944094 157.7506,54.995832 158.12043,54.0977659 C160.723669,46.0304342 141.733458,27.051868 140.574232,26.3526146 C138.83719,25.3483655 137.300134,24.4838757 135.60281,23.4579026 C130.651543,21.7180501 124.714246,16.877724 120.22557,19.9866345 C112.448387,8.40496856 115.525126,-5.86427054 111.305007,-7.56020501 C107.084888,-9.25613947 94.6226831,-12.6838328 87.4978944,-8.30677787 C83.227331,-5.14583439 83.5421197,0.295694534 81.5935986,4.78330509 C80.449842,6.89575864 79.8879267,9.95593963 78.5564789,11.3336974 C74.0325726,16.0149525 68.3911646,16.8221125 62.0843682,17.6166412 C61.6039984,17.6771581 61.09864,16.3701867 60.6318781,16.5315765 C49.9932765,20.2100293 37.6142516,21.2833271 25.5660634,41.8802978 C23.8645141,44.8259375 19.2743028,49.5520814 20.809162,52.9560751 C10.6962042,76.4814013 0.745421392,129.43215 28.4943651,142.637306 C29.3813564,143.204837 35.3987002,140.161383 36.379162,140.18959 C38.0135447,140.236608 34.8819708,144.206451 36.379162,143.499167 C47.3711699,144.333496 107.854402,142.181004 131.038458,144.333496 C146.981408,144.214122 157.07929,147.010466 160.760641,144.214122 C159.288951,140.65634 159.35719,136.845399 159.822401,133.083927 C163.2105,130.561797 159.02212,112.786652 159.376627,107.581721 C162.548176,103.778308 160.022894,89.5136254 158.388106,84.73543 Z" id="ðŸŽ¨-Background" fill="#FFFFFF"></path>
                        <path d="M153.333592,58.699247 C151.812676,60.9120845 150.415352,63.1902294 149.152183,65.5598888 C148.500845,66.7821276 147.893239,68.0286716 147.346268,69.3005777 C147.232606,66.5504877 147.207676,63.7678497 146.886338,61.0448125 C146.86331,60.8482568 146.535634,60.7527264 146.501197,60.9923977 C146.146268,63.4616031 146.087746,65.9946364 145.953592,68.4902607 C145.799155,68.4429182 145.628451,68.415654 145.440423,68.415654 C143.61507,68.415654 141.817183,68.56529 139.99838,68.7128125 C139.18331,68.7787538 138.330634,68.8292665 137.499296,68.959247 C138.16838,68.2199436 138.79162,67.4390043 139.366901,66.6244603 C139.953592,65.7936423 140.624155,64.4953174 139.601831,63.6972587 C138.472606,62.8157166 136.258099,63.9686325 135.165634,64.4169065 C134.612746,64.6438967 134.070423,64.8909652 133.536549,65.1536736 C132.862394,63.264202 130.795986,63.0137519 129.024507,63.2745581 C127.761549,63.4607577 126.535563,63.8929691 125.304718,64.2220415 C123.741972,64.6396697 122.172676,65.0327812 120.597676,65.4017988 C117.761408,66.0658614 114.905704,66.6464407 112.036479,67.1494544 C111.960634,67.0613213 111.855423,66.9917871 111.71493,66.9567029 C110.732535,66.7111139 109.648521,66.8992157 108.640775,66.9178145 C107.604718,66.9370474 106.568451,66.9355679 105.532394,66.9142215 C103.681479,66.8763898 101.832465,66.8609613 99.9819718,66.828836 C99.4559155,66.5099084 98.7889437,66.0521237 98.6256338,65.4516775 C98.4217606,64.7024407 99.0585211,63.8724681 99.3540845,63.2346129 C100.489225,60.7854857 100.886197,58.0446951 100.440845,55.3774544 C100.361408,54.9019162 100.197887,54.3819945 99.9616901,53.8948321 C101.989225,54.1118888 103.990352,54.2592 106.028873,54.3257753 C110.099366,54.458292 114.169648,54.5971491 118.242042,54.6273722 C126.384507,54.6880297 134.527183,54.6884524 142.669648,54.6288517 C147.273592,54.595247 151.866972,54.5529769 156.465211,54.317744 C156.090423,54.7928595 155.725986,55.2783311 155.370211,55.7712 C155.29669,55.7492196 155.200563,55.7887421 155.211761,55.8800454 C155.215352,55.9119593 155.219155,55.9436618 155.222958,55.9753644 C154.573732,56.8824798 153.948803,57.8039671 153.333592,58.699247 M144.279718,142.915364 C142.387394,142.85513 140.495493,142.794683 138.60338,142.734449 C134.889296,142.616304 131.175211,142.497948 127.461338,142.379803 C120.103521,142.145415 112.745915,141.919482 105.387042,141.716374 C98.0459155,141.513901 90.7011972,141.299591 83.3579577,141.528695 C75.9980282,141.758433 68.6569014,142.352539 61.3107042,142.829556 C57.2266901,143.094378 53.1397183,143.323905 49.0480986,143.433807 C45.1512676,143.538214 41.22,143.380124 37.3292958,143.658261 C37.1985211,142.695983 37.2946479,141.736452 37.280493,140.777979 C38.5567606,140.040578 39.8093662,139.256679 41.0473944,138.486519 C45.5609155,135.678096 49.8272535,132.500867 53.8514789,129.027748 C54.4700704,128.493877 55.0766197,127.948593 55.6770423,127.397603 C55.2591549,128.311059 55.5935915,129.488703 56.7912676,129.875474 C58.2517606,130.346785 59.7471127,130.179396 61.2640141,130.143677 C62.8043662,130.107537 64.3447183,130.073086 65.8852817,130.040539 C68.8960563,129.976711 71.9070423,129.919435 74.9180282,129.868922 C80.8001408,129.770433 86.6824648,129.697517 92.565,129.649752 C104.400211,129.554222 116.227183,129.715482 128.060493,129.928946 C131.387958,129.98918 134.712042,130.063787 138.039507,129.988335 C139.704296,129.950715 141.375845,129.938668 143.038732,129.849055 C144.370986,129.776985 145.711268,129.58846 147.04331,129.418957 C147.211268,131.739795 147.386831,134.059998 147.582465,136.378723 C147.711972,137.909744 147.84507,139.440766 147.976479,140.971787 C148.030352,141.60309 148.034366,142.24792 148.12331,142.847944 C146.844507,142.918112 145.573521,142.956366 144.279718,142.915364 M145.580915,77.3804994 C145.534437,79.1568986 145.509718,80.9345659 145.497042,82.7124446 C145.343451,82.6243115 145.170423,82.5600611 144.975423,82.530472 C142.906056,82.2145033 140.691761,82.4541746 138.598099,82.4894701 C136.574366,82.5232861 134.543662,82.5118732 132.521831,82.6074035 C130.495986,82.7031452 128.470986,82.8174857 126.445563,82.9223155 C125.495282,82.9719828 124.555352,83.0144642 123.612465,83.1431765 C122.966408,83.2313096 122.140141,83.2249691 121.44993,83.4088438 C124.345352,80.6035914 127.225141,77.7818536 130.112746,74.9687812 C130.199155,74.8842411 130.26169,74.7950513 130.305423,74.7041706 C132.230915,73.5305425 134.079085,72.2096031 135.752746,70.6969691 C137.080141,71.2088595 138.591127,71.2735327 139.99838,71.3876618 C141.817606,71.5353957 143.614437,71.6848204 145.440423,71.6848204 C145.563803,71.6848204 145.679366,71.6727734 145.788169,71.651427 C145.698803,73.5601315 145.630986,75.468836 145.580915,77.3804994 M70.4019718,111.891043 C74.8223239,113.303286 79.6115493,113.287435 84.2102113,113.570222 C89.1126761,113.871818 94.0077465,114.12248 98.9159155,114.313752 C108.718521,114.694605 118.514789,115.212413 128.315915,115.624335 C133.914296,115.859568 139.511408,116.118895 145.107465,116.400836 C145.504437,116.420703 145.883028,116.318832 146.217042,116.132421 C146.404859,119.819004 146.625,123.504108 146.881268,127.186887 C146.913169,127.647419 146.948662,128.107529 146.981408,128.568272 C144.347535,128.237721 141.733732,127.921329 139.080211,127.697298 C136.100493,127.445368 133.122254,127.233173 130.13831,127.035137 C124.323592,126.649634 118.499577,126.133094 112.674296,125.944993 C100.799366,125.560969 88.8982394,125.691584 77.0188732,125.776124 C73.6576056,125.800006 70.2965493,125.832554 66.935493,125.873133 C65.2550704,125.893634 63.5746479,125.916038 61.8942254,125.940343 C60.2053521,125.965282 58.3903521,125.789439 56.7912676,126.379106 C56.7760563,126.384601 56.763169,126.392844 56.748169,126.39855 C61.5724648,121.825775 65.8943662,116.772178 70.4019718,111.891043 M85.9411268,97.2717323 C93.3285211,98.6171883 100.83169,98.5250395 108.319859,98.6581902 C115.981901,98.7947225 123.654296,98.7042646 131.317606,98.7201159 C135.670775,98.7292039 140.061338,98.9204759 144.398873,98.5330708 C144.911408,98.4872078 145.308592,98.2927656 145.591901,98.0169534 C145.670915,102.631998 145.815634,107.245353 146.015282,111.856593 C145.733873,111.736969 145.42669,111.664265 145.107465,111.645454 C135.315211,111.069102 125.522324,110.546222 115.718028,110.226871 C105.921549,109.907521 96.1130282,109.528781 86.3112676,109.647349 C81.5279577,109.705259 76.4697887,109.399223 71.7521831,110.442026 C73.545,108.53628 75.3762676,106.66583 77.291831,104.874848 C80.0845775,102.264038 83.0647183,99.8185033 85.9411268,97.2717323 M91.5851408,91.8391843 C91.5950704,91.8279828 91.5999296,91.8155131 91.6073239,91.8038888 C91.6339437,91.8235444 91.6664789,91.8370708 91.7091549,91.8362254 C98.6243662,91.6802489 106.382324,93.8626521 112.85007,90.5131726 C115.737465,89.0180806 118.128592,86.654973 120.449789,84.3835914 C120.451056,84.4002881 120.452535,84.4171961 120.453803,84.4341041 C120.469014,84.6184016 120.546972,84.8403194 120.733732,84.9219006 C121.49662,85.2566795 122.39007,85.2786599 123.209155,85.3978614 C124.151197,85.5352391 125.076338,85.6155523 126.02662,85.6726168 C128.121761,85.7983703 130.21669,85.9315209 132.312465,86.0500885 C134.403592,86.1684446 136.504225,86.1781667 138.598099,86.2303703 C140.697676,86.2825738 142.897183,86.5368282 144.975423,86.2371335 C145.166197,86.2096579 145.335845,86.1496344 145.486479,86.0665738 C145.489648,88.7560063 145.514155,91.4452274 145.539296,94.1329691 C145.543521,94.5710982 145.551972,95.009016 145.557042,95.4467225 C145.276479,95.1897205 144.890915,95.0098614 144.398873,94.9665346 C140.545141,94.6271061 136.66162,94.7780102 132.794366,94.7911139 C128.996831,94.8035836 125.198873,94.8162646 121.401127,94.8289456 C113.732746,94.854519 106.070493,94.929337 98.4033803,95.07538 C94.6749296,95.1463937 90.9627465,95.4602489 87.2888028,96.063654 C88.776338,94.7080532 90.2224648,93.3125072 91.5851408,91.8391843 M31.4997887,140.738245 C30.0840845,141.171302 28.6787324,140.983411 27.2602817,141.280147 C27.1730282,141.298323 27.0925352,141.332139 27.0188028,141.376734 C22.7710563,139.561235 19.9396479,135.917979 18.0019014,131.835537 C15.9593662,127.532233 14.5514789,122.931983 13.6083803,118.26875 C11.6638732,108.655059 11.660493,98.6869339 12.6669718,88.961016 C13.6559155,79.4058693 15.6139437,69.9025033 18.408169,60.7132039 C20.3266901,54.4035523 22.7716901,48.029016 26.1665493,42.2758497 C30.0866197,44.9033566 33.1267606,48.6865268 35.9907042,52.3843115 C39.4130282,56.8034348 42.4971127,61.4797714 45.2577465,66.3387147 C44.9723239,67.1710121 44.9279577,68.2150826 44.7910563,68.9590356 C44.5271831,70.3936814 44.2888732,71.846292 44.1014789,73.2931961 C43.7011268,76.3858849 43.3170423,79.4802646 42.9078169,82.5716853 C42.0984507,88.6847812 41.1321127,94.7811804 40.0645775,100.85412 C39.978169,101.346566 40.116338,101.762503 40.370493,102.074668 C38.253169,103.19102 36.1635211,104.35704 34.1275352,105.620914 C29.6514085,108.399537 25.4680986,111.636366 22.1837324,115.787709 C22.0983803,115.895497 22.2321127,116.039638 22.3377465,115.941995 C29.3809859,109.43156 38.1312676,105.344045 46.7224648,101.304507 C51.1128169,99.2400376 55.4816197,97.1423859 59.6938732,94.7287656 C64.0988028,92.2052431 68.2996479,89.3532822 72.3259859,86.2624955 C76.9235915,82.7333683 81.2514085,78.8749573 85.3083803,74.7354505 C85.7862676,74.2474427 85.670493,73.6366403 85.3109155,73.2507147 C85.4323944,73.2130943 85.5304225,73.1074192 85.5367606,72.931153 C85.6341549,70.2277714 86.4456338,67.9246873 88.0343662,65.736789 C89.508169,63.7067695 91.3865493,62.0339319 93.0809155,60.1972978 C93.8338732,59.381063 94.5534507,58.5308008 95.1959155,57.6236853 C95.8573944,56.6901511 96.2602817,55.659607 96.8359859,54.6842254 C97.5084507,53.5444133 98.0805634,54.1266834 98.3921831,55.1584955 C98.7456338,56.328108 98.723662,57.6974466 98.5816901,58.8998184 C98.4314789,60.1721472 98.0442254,61.412562 97.4864789,62.562519 C96.9625352,63.6427303 96.3585211,64.7415405 96.7111268,65.9796305 C97.2906338,68.0142998 99.7751408,69.1925777 101.657324,69.6507851 C103.753099,70.1609847 105.945423,70.0618614 108.067606,69.7972509 C110.725352,69.4656423 113.370423,68.980382 115.997535,68.4642646 C119.04,67.8667773 122.064507,67.1771413 125.065352,66.3978928 C126.475986,66.0316227 127.87669,65.5499554 129.301056,65.2466677 C129.808944,65.1386677 130.748873,64.9763507 131.345704,65.2411726 C123.673521,69.8164838 115.309225,72.8645777 106.813944,75.5206168 C105.758451,75.8503233 106.191338,77.4449613 107.271549,77.1807734 C116.398099,74.9484916 124.984437,70.8053918 133.156056,66.267701 C133.281127,66.1979554 133.387183,66.0903781 133.465141,65.9631452 C134.287183,65.6738067 135.122958,65.4225112 135.975211,65.2151765 C136.356127,65.1226051 138.315423,64.4758732 138.560282,64.7244211 C138.907394,65.0763194 137.706338,66.2190904 137.406338,66.5513331 C135.270845,68.9178223 132.730775,70.8493526 129.981338,72.4461041 C127.192394,74.0654701 124.22493,75.356609 121.243521,76.5750434 C117.903803,77.9399436 114.373732,79.0127577 111.127394,80.581611 C109.837817,81.204883 110.742676,83.3219789 112.101338,82.8927264 C113.852324,82.3392 115.553662,81.5257127 117.255211,80.8345973 C118.700704,80.2478888 120.146408,79.6613918 121.583662,79.0546051 C122.585704,78.6314818 123.580986,78.194198 124.566549,77.7372587 C123.090211,79.1270982 121.613662,80.5169378 120.137535,81.9074114 C117.581197,84.3151139 115.152254,87.0578067 112.027183,88.7464955 C108.939718,90.4148947 105.417465,90.6089143 101.980775,90.5729847 C100.255352,90.5548086 98.5375352,90.5000689 96.8121127,90.5696031 C94.9962676,90.6427303 93.383662,90.9219241 91.6628873,91.4936266 C91.6311972,91.5041941 91.608169,91.5232157 91.5887324,91.5447734 C91.5285211,91.4714348 91.4264789,91.4346599 91.3210563,91.4970082 C86.6450704,94.2627382 82.3827465,97.8506207 78.2835211,101.396656 C74.0585915,105.051537 70.083169,108.938057 66.2953521,113.043537 C62.6697887,116.97275 59.073169,120.91718 55.1279577,124.532539 C51.2759155,128.062511 47.1593662,131.26785 42.8609155,134.234362 C40.5188028,135.850769 38.1188028,137.407364 35.6355634,138.798895 C34.3085915,139.542425 32.9609155,140.29145 31.4997887,140.738245 M31.8929577,34.3449299 C33.5674648,32.4632783 35.3697887,30.7192157 37.2769014,29.1057675 C38.1183803,29.3549495 39.0016901,29.4246951 39.8917606,29.4337832 C41.25,29.4473096 42.6111972,29.5039515 43.9694366,29.4900023 C46.5847183,29.4631609 49.1989437,29.3805229 51.8148592,29.3663624 C57.1635211,29.3371961 62.5138732,29.3357166 67.8625352,29.3822137 C68.5633099,29.3883429 69.0688732,29.0886481 69.3809155,28.6532665 C70.463662,29.8812117 71.5795775,31.080836 72.7047887,32.2614387 C74.5328873,34.179654 76.481831,36.0097362 78.5564789,37.6775014 C78.1525352,37.6802489 77.7488028,37.6838419 77.3471831,37.6810943 C75.4971127,37.6686247 73.646831,37.6570004 71.7969718,37.6470669 C68.0843662,37.6265659 64.3717606,37.6113487 60.6591549,37.6014153 C53.2783099,37.581971 45.8744366,37.643474 38.5030986,38.0215796 C36.4571831,38.1264094 34.3952113,38.1688908 32.3564789,38.3684055 C31.2507042,38.4766168 30.1461972,38.602793 29.0414789,38.7205151 C28.8154225,38.744609 28.598662,38.7748321 28.3859155,38.8088595 C29.4678169,37.253744 30.633169,35.7603429 31.8929577,34.3449299 M61.4541549,17.5728047 C61.4042958,17.6066207 61.3504225,17.6368438 61.3026761,17.6729847 C61.1940845,17.7545659 61.2111972,17.9020885 61.3392254,17.9515444 C61.509507,18.0181198 61.6884507,18.0684211 61.8726761,18.108155 C62.4321127,18.9199515 62.8692254,19.9234427 63.174507,20.4319515 C64.0514789,21.8932274 65.0598592,23.2851804 66.0857746,24.6441628 C66.2919718,24.917016 66.5021831,25.1869104 66.7132394,25.4561706 C61.7452817,25.444335 56.7798592,25.4696971 51.8148592,25.6575875 C49.2008451,25.7567108 46.5779577,25.8397714 43.9694366,26.0359045 C42.896831,26.1166403 41.8248592,26.2521159 40.7556338,26.3861119 C46.3204225,22.3620023 52.5785915,19.2891804 59.0617606,17.0078654 C59.0528873,17.0177988 59.0438028,17.0251961 59.0349296,17.0351295 C58.8921127,17.1936423 59.1052817,17.3990748 59.2660563,17.2663468 C60.1094366,16.5686795 60.8414789,16.8960611 61.4541549,17.5728047 M86.5561268,64.8723663 C86.415,65.0864642 86.2761972,65.3073252 86.1407746,65.5338928 C85.815,65.208836 85.3599296,64.9915679 84.773662,64.9733918 C78.2655634,64.7702841 71.7606338,64.5927499 65.2489437,64.5883115 C62.0376761,64.586198 58.7972535,64.4779867 55.59,64.6369221 C53.979507,64.7168125 52.3696479,64.8119202 50.76,64.9032235 C49.6345775,64.9670513 48.4390141,65.046519 47.34,65.3724211 C44.8071127,60.9404055 41.9953521,56.6793722 38.9247887,52.6051726 C45.8915493,53.4600845 52.9776761,53.3689926 59.9839437,53.6063389 C67.9219014,53.8753879 75.8642958,53.9332978 83.805,54.1213996 C85.983169,54.1729691 88.161338,54.229611 90.3390845,54.2904798 C91.4630282,54.321971 92.5871831,54.354519 93.711338,54.3885464 C94.0626761,54.3991139 94.4262676,54.408836 94.7902817,54.3993252 C94.7628169,54.4561785 94.7349296,54.5130317 94.7076761,54.5692509 C94.0947887,55.8356618 93.3240845,57.0012587 92.4259859,58.0829495 C90.5165493,60.3828634 88.2101408,62.3640611 86.5561268,64.8723663 M78.018169,78.5245386 C77.7771127,77.8541354 77.1897887,77.3384407 76.2540845,77.3811335 C70.9216901,77.6233409 65.5793662,77.7913644 60.2530986,78.1424172 C57.6585211,78.313611 55.0533803,78.4287969 52.4630282,78.6557871 C51.1269718,78.7730865 49.7932394,78.9909886 48.4628873,79.1642959 C47.5508451,79.2832861 46.5959155,79.4212978 45.7210563,79.7455092 C45.8907042,77.8718888 46.0402817,75.996789 46.1702113,74.1189417 C46.2743662,72.6103233 46.3060563,71.0879671 46.2980282,69.5755444 C46.2940141,68.8100337 46.2680282,68.0400845 46.2310563,67.2747851 C46.3096479,67.2906364 46.3884507,67.2984564 46.4657746,67.2889456 C46.6022535,67.2720376 46.7296479,67.255975 46.8479577,67.2242724 C48.0739437,67.7042489 49.4615493,67.8101354 50.76,67.9029182 C52.3001408,68.012609 53.8398592,68.1294857 55.38,68.2393879 C58.6569718,68.4733526 61.9647887,68.4581354 65.2489437,68.56529 C71.7139437,68.7760063 78.1802113,68.8985894 84.6464789,69.0716853 C84.3464789,70.3594427 84.3359155,71.6818614 84.8161268,72.9286168 C84.4816901,72.8176579 84.0965493,72.8692274 83.7678169,73.1940728 C81.9052817,75.0347225 79.9871831,76.810065 78.018169,78.5245386 M59.208169,92.2168673 C59.0765493,91.8527108 58.8280986,91.5181432 58.5340141,91.2913644 C57.4033099,90.4197558 55.3392254,90.9215014 53.9820423,90.9878654 C52.3753521,91.066699 50.7684507,91.1453213 49.1617606,91.2239436 C48.6741549,91.2476149 46.1854225,91.3746364 44.3575352,91.7643663 C44.7352817,88.910926 45.0779577,86.052836 45.3842958,83.1894622 C45.4485211,82.588382 45.5080986,81.9870904 45.5670423,81.3857988 C46.428169,81.6628791 47.3640845,81.7645386 48.2522535,81.8068086 C49.5832394,81.8702137 50.9203521,81.9775796 52.2526056,81.9985033 C54.9143662,82.0403507 57.5909155,81.9088908 60.2530986,81.8645072 C65.0471831,81.7848282 69.8419014,81.5559358 74.6338732,81.3667773 C69.8226761,85.2735875 64.7389437,88.8382215 59.4361268,92.0807577 C59.360493,92.1270434 59.2838028,92.1710043 59.208169,92.2168673 M44.0661972,93.9102059 C44.4711972,93.9641002 44.8728169,93.9816423 45.18,94.0129221 C46.7222535,94.1684759 48.2404225,94.3096579 49.790493,94.3322724 C51.3274648,94.3546755 52.8642254,94.3770787 54.4011972,94.3996932 C54.7280282,94.4041315 55.0548592,94.4092039 55.3816901,94.4138536 C51.3346479,96.6254231 47.1633803,98.606198 43.0510563,100.691803 C43.4133803,98.4345816 43.7516197,96.1739789 44.0661972,93.9102059 M88.1647183,43.5530395 C97.3878169,47.4737988 109.217746,47.8295014 117.143873,41.3165307 C117.931479,41.532108 118.802535,41.6037558 119.498028,41.6735014 C121.060563,41.8305346 122.608732,41.9748869 124.178873,42.0241315 C127.239085,42.1196618 130.302042,42.262746 133.363521,42.3005777 C139.556831,42.3770865 145.750563,42.4128047 151.944085,42.4679671 C152.471197,42.4728282 152.892887,42.312202 153.212746,42.0541432 C153.84,43.1178693 154.423521,44.2084368 154.956127,45.3266912 C155.732958,46.9576814 156.391268,48.6432 156.931901,50.3665503 C156.816127,50.346472 156.695704,50.3325229 156.566831,50.330198 C148.427324,50.1894387 140.28169,50.4236149 132.140704,50.4576423 C123.997817,50.4916697 115.855986,50.4567969 107.71331,50.5147068 C105.45993,50.5309808 103.223239,50.5314035 100.975563,50.6985816 C99.8057746,50.7856579 98.6220423,50.823701 97.4634507,51.0126481 C97.3339437,51.0335718 97.2021127,51.0521706 97.0692254,51.0707695 C95.5166197,50.16302 93.5892254,50.3526012 91.8145775,50.3192078 C89.7769014,50.2807421 87.7394366,50.2465033 85.7019718,50.2162802 C81.6971831,50.1568908 77.6919718,50.113564 73.6867606,50.0860885 C65.7378169,50.0315601 57.8083099,50.2346677 49.8644366,50.5117479 C45.9120423,50.649337 41.9746479,50.8833018 38.073169,51.4917793 C37.8111972,51.152562 37.5517606,50.811654 37.2864085,50.4751843 C34.5219718,46.9701511 31.2447887,42.482973 26.6957746,41.3968438 C26.8702817,41.1123663 27.0473239,40.8295796 27.2271127,40.5486951 C30.3788028,41.3801472 33.8556338,41.3380885 37.0757746,41.5122411 C40.7875352,41.7128125 44.4914789,41.8514583 48.2076761,41.9427616 C55.5946479,42.1243115 62.9801408,42.2382294 70.3685915,42.3504564 C72.4191549,42.3817362 74.4697183,42.4144955 76.5202817,42.4487342 C77.6262676,42.4671217 78.7324648,42.4884681 79.838662,42.5053761 C80.4566197,42.5148869 81.0090845,42.5131961 81.5978873,42.307975 C82.143169,42.117971 82.6747183,41.8328595 83.2020423,41.5967812 C83.3860563,41.5143546 83.5356338,41.3924055 83.6577465,41.2484759 C85.1057746,42.1139554 86.6061972,42.8904564 88.1647183,43.5530395 M124.204648,30.5152626 C125.364718,30.8373605 126.561972,30.8908321 127.78838,30.9834035 C129.398239,31.1053526 131.004296,31.1258536 132.61838,31.1362098 C135.191831,31.1526951 137.765915,31.1349417 140.338521,31.063928 C141.443662,31.0334935 142.089296,30.2935562 142.280915,29.4460415 C142.307535,29.4675992 142.335,29.4887342 142.36162,29.5107147 C145.492817,32.0915131 148.32993,35.0432313 150.734155,38.3104955 C144.944155,38.3286716 139.153521,38.3324759 133.363521,38.3713644 C130.302465,38.3920767 127.239085,38.5178301 124.178873,38.5966638 C122.677606,38.6351295 121.19831,38.7596149 119.70338,38.9016423 C119.673803,38.9046012 119.642535,38.9071374 119.612324,38.9098849 C119.770775,38.7270669 119.927958,38.5417127 120.081549,38.3510748 C121.868451,36.1359123 123.338239,33.4065346 124.204648,30.5152626 M161.849789,146.798292 C162.360634,145.392178 162.162254,143.884194 162.13331,142.405587 C162.103732,140.888515 162.087465,139.372288 162.082394,137.855004 C162.072465,134.889126 162.052394,131.923458 162.019648,128.95758 C161.95331,122.957768 161.884014,116.953306 161.648028,110.957298 C161.181549,99.1035053 160.283028,87.2786677 158.816408,75.5045542 C158.103592,69.7803429 157.218803,64.0692352 156.018169,58.425971 C156.03507,58.4033566 156.051549,58.380108 156.068451,58.3572822 C157.264014,56.7590513 158.623732,55.2817127 159.79838,53.6727029 C159.902535,53.5298301 159.946056,53.3468008 159.945,53.1618693 C159.987887,53.1409456 160.030986,53.1189652 160.074718,53.0940258 C161.049085,52.53902 160.169155,51.0259632 159.195,51.5883663 C159.307394,51.5236932 157.689507,47.3698145 157.518169,46.9515523 C156.902324,45.4492744 156.209789,43.9803898 155.428944,42.5567342 C154.957817,41.698018 154.453521,40.8572665 153.925352,40.0319436 C153.833028,39.4156462 153.500282,38.8443663 152.928592,38.5387538 C151.925493,37.1011491 150.841901,35.7193409 149.686901,34.4028399 C144.958521,29.0134074 139.052535,24.6627616 132.600211,21.5637323 C131.667887,21.1160924 130.707887,20.7428477 129.751268,20.3520611 C128.732958,19.9354896 127.788592,19.3910513 126.78507,18.9537675 C125.152183,18.2425738 123.54,18.2833644 121.936056,19.0364055 C121.798944,19.1008673 121.897183,19.3117949 122.03662,19.2754427 C123.069296,19.0061824 124.127113,18.9609534 125.162324,19.2534622 C126.17662,19.5400532 126.947746,20.1732587 127.833803,20.7016344 C129.411972,21.6432 131.176268,22.2569613 132.793944,23.1357558 C134.933028,24.2986051 137.023521,25.5753722 139.023169,26.9770474 C136.951268,27.0867382 134.877887,27.1659945 132.803873,27.2209456 C131.263521,27.2619476 129.723803,27.2689221 128.185563,27.3585346 C127.090775,27.4221511 125.952254,27.4041863 124.858099,27.5810865 C125.121972,25.7666442 125.122394,23.935928 124.792606,22.1684055 C124.792606,22.1677714 124.792394,22.1671374 124.792394,22.1665033 C124.712746,21.7406325 124.616197,21.3179319 124.497465,20.9000924 C124.244577,20.0109417 123.434366,19.8775796 122.846197,20.2140493 C122.787887,20.1711452 122.729155,20.1288751 122.672746,20.0830121 C121.968169,19.5106755 121.333944,18.8259006 120.782324,18.1062528 C119.63662,16.6109495 118.710634,14.8799906 118.009437,13.1352939 C117.299155,11.3684055 116.795915,9.51972446 116.303028,7.68287906 C116.055845,6.76202583 115.78838,5.84603366 115.536549,4.92581448 C115.317676,4.12585362 115.15838,3.24219804 114.756338,2.51325088 C114.680915,2.37671859 114.454014,2.40250333 114.417887,2.55763444 C114.20493,3.47066771 114.317535,4.51199061 114.35662,5.44298865 C114.399718,6.47628023 114.459085,7.50006106 114.59662,8.52553268 C114.88162,10.6534074 115.341338,12.7451413 116.078028,14.7656501 C116.784296,16.7033096 117.716408,18.5114114 118.982324,20.143881 C119.82338,21.2283194 121.017887,22.6638106 122.401479,23.2486168 C122.582324,25.2843429 122.56162,27.3221824 122.080986,29.3376188 C121.452254,31.9756932 120.248239,34.4833644 118.594014,36.6317401 C115.125423,41.1364603 109.759225,43.6817519 104.160845,44.2063233 C98.3687324,44.7488595 92.4414085,43.4530708 87.236831,40.904609 C81.4478873,38.0699789 76.6455634,33.6967186 72.3321127,28.9764211 C69.845493,26.2554975 67.2671831,23.5783233 64.9626761,20.6995209 C64.5542958,20.1893213 63.9006338,19.1534935 63.1252817,18.220382 C63.9143662,18.2131961 64.7241549,18.0950513 65.4226056,18.0054387 C66.8676761,17.8198732 68.28,17.5326481 69.6921127,17.1733526 C72.3323239,16.5016814 75.1164085,15.5670904 77.4234507,14.0886951 C82.3052113,10.9600767 84.2108451,6.99155225 84.8617606,1.52413151 C85.0675352,-0.204291194 82.08,-0.624032877 81.8017606,1.10967358 C81.3743662,3.77480078 80.7276761,5.07164618 79.8773239,7.63173229 C79.059507,10.0924838 77.8749296,11.00911 75.6107746,12.3655562 C73.4852113,13.639153 71.0695775,14.3788791 68.7278873,15.1433331 C67.4302817,15.5668791 66.1172535,15.9532274 64.808662,16.3425346 C63.9756338,16.5904485 62.9866901,16.8066599 62.1416197,17.1894153 C61.7007042,16.8024329 61.2407746,16.5105581 60.7776761,16.4000219 C60.8116901,16.342746 60.7675352,16.2537675 60.6821831,16.2706755 C60.5461268,16.2979397 60.410493,16.3279515 60.2744366,16.3560611 C60.1377465,16.3657832 60.0016901,16.392836 59.8658451,16.4418693 C51.7096479,18.2087577 43.8771127,21.971427 37.2352817,27.0970943 C36.9004225,27.2367969 36.5765493,27.408202 36.2683099,27.624836 C36.1096479,27.7362176 36.0044366,27.9131178 35.9742254,28.0963585 C34.9757746,28.9117479 34.0069014,29.7579945 33.0707746,30.6338301 C25.5314789,37.6880689 20.754507,47.0720219 17.4103521,56.7239671 C14.1160563,66.2328282 11.8861268,76.2041237 10.6599296,86.1876775 C9.40985915,96.3641941 9.26577465,106.752061 11.0788732,116.87109 C12.0523944,122.304484 13.6284507,127.644038 15.9547183,132.655576 C18.0437324,137.156492 21.4440845,142.28385 26.7849296,142.831881 C26.8020423,142.849 26.8180986,142.866965 26.8373239,142.883028 C28.9328873,144.609337 32.0528873,143.41711 34.2437324,142.385721 C34.5910563,142.222135 34.9356338,142.050096 35.2787324,141.87383 C35.0974648,142.57192 35.0157042,143.302769 34.9778873,143.987756 C34.8990845,145.410355 36.9042254,145.49109 37.2838732,144.310488 C40.5342254,144.88219 43.8906338,144.890222 47.178169,144.872045 C50.8514789,144.851756 54.5235211,144.724523 58.1926056,144.551638 C65.4724648,144.208194 72.743662,143.6832 80.0283803,143.444586 C94.778662,142.961439 109.569296,143.993885 124.307746,144.513807 C128.442254,144.65985 132.576761,144.80547 136.711268,144.951513 C140.935563,145.100515 145.155634,145.129047 149.345915,145.700539 C150.88669,145.910621 151.476972,144.4001 151.042394,143.458957 C151.150775,142.826809 151.042817,142.133791 150.983451,141.389204 C150.872746,139.997885 150.768169,138.606143 150.670141,137.213768 C150.478732,134.499184 150.293873,131.783544 150.118521,129.067693 C149.763169,123.564343 149.457465,118.056977 149.16,112.550245 C148.568662,101.601243 148.115915,90.6439984 147.782958,79.6842176 C147.70162,77.0127499 147.595563,74.3404368 147.46162,71.6708712 C147.621127,71.4178849 147.780211,71.1644759 147.934014,70.908108 C148.446127,70.0536188 148.94831,69.1936344 149.466972,68.3429495 C150.507465,66.6377753 151.554296,64.9438027 152.648239,63.2722333 C153.593028,61.8287108 154.567606,60.40738 155.585915,59.015427 C156.850141,69.6955914 157.973873,80.3865346 158.489789,91.1351765 C159.057887,102.973752 159.359366,114.830503 159.52331,126.681126 C159.569155,129.991928 159.6,133.302942 159.635282,136.613744 C159.653662,138.33794 159.672042,140.060867 159.657887,141.785063 C159.644155,143.433807 159.39507,145.237681 159.979859,146.798292 C160.320845,147.708366 161.513239,147.724429 161.849789,146.798292 Z" id="ðŸ–-Ink" fill="#000000"></path>
                    </g>
                    <g id="head/Medium-2" transform="translate(78.591549, 38.043053)" fill-rule="evenodd">
                        <path d="M82.7799642,35.4166661 C76.4302882,26.6739499 64.7390719,24.1597268 54.6004061,26.2861221 C34.7794217,29.9006348 15.8424788,45.0284548 12.3402337,65.6021378 C6.87628451,78.0487679 10.3654671,97.6534098 26.2560909,99.1180673 C28.5184448,99.2457229 30.7593086,98.7247444 33.0256656,99.0060517 C46.8576695,101.216353 63.2027444,110.678083 75.4468026,99.5198442 C76.060533,99.9596642 76.8689379,100.172283 77.5570407,99.9061926 C82.7685872,97.8913902 83.0134051,92.0629832 83.4577434,87.2718834 C84.031654,81.0812219 84.5699585,74.8871789 85.072025,68.6905996 C85.2513194,58.0043061 89.4854902,44.6505605 82.7799642,35.4166661 L82.7799642,35.4166661 Z" id="ðŸŽ¨-Background" fill="#FFFFFF"></path>
                        <path d="M44.351493,13.138908 C52.6965634,12.6950724 68.072831,16.5188219 75.3531127,21.001773 C87.2151549,28.3058278 88.1345915,42.8758943 87.6507887,45.3951898 C87.4669859,46.3566223 86.879662,47.246407 85.9606479,46.950728 C86.7402254,53.5700078 86.6789577,57.3533894 86.8099437,64.0109237 L86.899928,68.4556908 C86.9583005,71.4189628 87.0085352,74.3825166 87.0212113,77.3469159 C87.3212113,77.2351115 87.6169859,77.3722779 87.7268451,77.6599256 C87.7543099,77.7296712 87.6592394,77.7677143 87.6127606,77.7275577 C87.0845915,77.2666027 87.4606479,78.3170137 87.642338,78.5306888 C87.8937465,78.8244658 88.3120563,79.1013346 88.6057183,79.3528415 L89.4032535,80.0436135 L89.4032535,80.0436135 L90.2007887,80.7329589 C91.2310704,81.6222153 92.2276227,82.5132476 93.1888181,83.4711732 L93.4500845,83.7341331 C95.201493,85.5137025 97.3965634,87.2359961 98.4867042,89.5378121 C99.5282535,91.7356438 99.2071268,94.2274638 97.4768451,95.9795577 C96.8472676,96.6157221 96.1120563,97.1020391 95.3134648,97.4697886 C96.7352958,99.8115499 96.942338,102.907832 95.4592394,105.317014 C93.9740282,107.735072 91.1176901,109.001061 88.3669859,108.806618 C88.2824789,109.151119 88.151493,109.487166 87.9782535,109.806094 C86.8874897,111.811339 84.7178874,112.071643 82.6604661,111.964329 L82.5803662,111.959965 C77.9493803,111.693452 73.4937465,110.53335 69.4374085,108.278243 C68.0303662,108.37335 66.7754366,107.217053 66.5007887,105.948951 C65.7613521,105.921687 65.0176901,105.860184 64.2592394,105.77353 C62.0092394,105.513781 59.7021972,105.029789 57.7183944,103.886384 C57.414169,103.710963 57.5557183,103.248106 57.8937465,103.23944 C60.3106479,103.184489 62.729662,103.351667 65.142338,103.089593 C67.3564225,102.850556 69.7162817,102.239965 71.7803662,101.409358 C75.4902254,99.912998 78.6719155,97.374681 80.4275493,93.8576008 C82.7007887,89.3051155 82.4937465,83.8376947 82.7409296,78.8920978 C83.0147324,73.4177025 83.3518521,67.9484431 83.7122451,62.4796971 L83.8871312,59.8582927 C84.2371571,54.748752 84.5268564,52.0153321 85.4134648,46.7119022 C82.7409296,46.950728 71.6390672,42.9533688 68.1867042,36.4147045 C61.6342111,50.3246751 28.4364758,44.6318974 26.964169,66.046227 C26.9516837,66.2278222 26.664169,66.1772642 26.6536056,66.0037456 L26.6262191,65.5157065 C26.6129562,65.274544 26.6009257,65.0372211 26.5927684,64.8017299 L26.586,64.566775 L26.064169,64.5731155 C26.064169,64.6384227 25.9712113,64.6618826 25.9479718,64.592137 C25.4557183,63.1949002 23.1106479,63.6450763 22.0902254,63.9771076 C21.1712113,64.2770137 20.3050141,64.7377573 19.5275493,65.306501 C17.9662817,66.4477926 16.7557183,67.9843092 16.3543099,69.905272 C15.5916338,73.5533894 17.9134648,77.2689276 20.9958592,79.0294755 C22.9395211,80.1390646 25.0690986,80.8555421 26.9324789,82.1130763 C28.5782535,83.2226654 30.1120563,84.5224697 31.4409296,85.9998082 C36.7057183,91.8520978 39.8029014,100.72881 37.3120563,108.453663 C37.1219155,109.043331 36.6190986,109.717327 35.9536056,109.812646 C34.8529014,109.971159 33.7521972,109.810532 33.1352958,108.762235 C32.8944507,108.352215 32.7803662,107.885131 32.8057183,107.424387 C32.3789577,108.890947 30.9951549,110.341022 29.7190986,110.886305 C27.9803662,111.630258 26.0219155,111.408129 24.4881127,110.448599 L24.2943361,110.592015 C21.7999776,112.428715 19.0135539,114.102736 15.8176901,113.764896 C13.5021972,113.51973 11.2289577,112.340395 9.94867606,110.480513 C8.24585915,111.43793 6.42684507,112.200693 4.55078873,112.720614 L4.35112968,112.77548 C1.77000638,113.478523 -1.52235265,114.123036 -3.93160563,112.695252 C-6.24498592,111.323589 -7.014,108.328755 -6.47104225,105.828481 C-6.4055493,105.530689 -6.32315493,105.241139 -6.22174648,104.960043 C-7.96259155,105.052826 -9.70132394,104.88607 -11.3534366,104.374603 C-13.0414648,103.852356 -14.6513239,102.848442 -15.4604789,101.221256 C-16.3731549,99.380184 -16.1301972,97.2880274 -15.4499155,95.4133503 C-14.3618873,92.4056243 -12.6125915,89.7299295 -10.4344225,87.3989472 C-8.33978987,85.1554352 -5.81315277,83.2520599 -3.1872714,81.6654604 L-2.74459513,81.4004526 C-0.380840237,79.9900853 2.46973781,78.3373749 5.26276056,78.4461487 C5.25430986,78.4102192 5.24797183,78.3761918 5.24374648,78.3404736 C4.82121127,75.2272838 4.86980282,72.0528023 4.77050704,68.9142505 C4.67966197,66.0272055 4.57614085,63.1401605 4.50853521,60.251002 C4.39867606,55.3390098 4.43459155,50.4063053 5.07473239,45.5283405 C5.64304225,41.1998865 6.66557746,36.9790098 8.53107042,33.0161918 C10.4895211,28.8528023 13.4388169,25.3000039 17.0810704,22.505953 C24.7247324,16.6409824 34.8212113,13.6461487 44.351493,13.138908 Z M18.3887958,70.8311131 C19.2211901,69.2607804 21.1162606,68.7662207 22.7789366,69.0494301 C25.1092183,69.4467687 26.6937254,71.4843969 28.0542887,73.2364908 C29.4824577,75.0729135 26.5035845,76.8038724 25.7366831,75.0245143 L25.5549771,74.6041176 C24.9395233,73.1929614 24.2124834,71.7049505 22.9564014,70.784616 C21.6211901,69.8081777 19.7366831,69.6644595 18.5578099,70.9621503 C18.4733028,71.0572579 18.3317535,70.9346748 18.3887958,70.8311131 Z" id="ðŸ–-Ink" fill="#000000"></path>
                    </g>
                    <g id="face/Happy-Grin" transform="translate(112.183099, 77.354207)" fill="#000000" fill-rule="evenodd">
                        <path d="M19.7211365,39.4118615 C23.3427017,38.9721514 26.8531681,40.0813242 30.39357,40.6404383 C32.2628533,40.9354736 34.1344555,41.1557498 36.0260851,41.237669 C36.4066034,41.2543055 36.7873326,41.2639926 37.1680618,41.2717844 C37.2034785,40.9365265 37.3911025,40.6286453 37.7975509,40.4441692 C38.6306859,40.0663724 39.297489,39.8960058 40.2122088,39.9324377 C41.04956,39.9655002 41.8898626,40.0516312 42.7143542,40.2026235 C44.2115517,40.4772317 45.7154952,41.1003649 46.8106713,42.1830034 C49.345282,44.6881713 48.9594933,48.7121078 47.0010359,51.4407108 C42.9548102,57.0790106 35.5698828,57.3406925 29.2449892,57.2671358 L28.6613154,57.2594981 C22.9023122,57.1771578 14.6628774,58.0361507 12.0464711,51.4813545 C11.0843182,49.0709516 11.217974,46.2770661 12.3959998,43.965219 C13.8010718,41.2077653 16.7587852,39.7715477 19.7211365,39.4118615 Z M37.7102741,48.7997129 L37.6586248,48.8018188 C35.0034288,48.9041651 32.3486544,48.9761865 29.6919827,49.0231479 C29.7714593,49.7056672 29.8526225,50.388397 29.9453805,51.0694422 C30.0181111,51.6053914 30.0961121,52.1407089 30.1772753,52.6753946 C30.2116379,52.9017779 30.3377044,53.2532511 30.3020769,53.4775285 L30.2892173,53.5661865 L30.2892173,53.5661865 C30.4256136,53.6278891 30.5493612,53.7272872 30.6414867,53.8715407 C30.6735303,53.9214503 30.6967198,53.9717811 30.7199093,54.0219013 C32.7825086,54.0381167 35.0021639,53.9981048 37.1048178,53.6230456 L37.109034,53.5773477 L37.109034,53.5773477 C37.1471913,53.3086361 37.2589224,53.12774 37.4073351,53.003703 C37.5551154,52.146816 37.5416233,51.2337017 37.5987538,50.3835535 C37.6343813,49.855396 37.6729601,49.3276597 37.7102741,48.7997129 Z M27.6629027,49.0593692 C25.7490909,49.0919403 23.8344463,49.1170239 21.9210416,49.0936505 L21.0524238,49.0802176 L21.0524238,49.0802176 C21.2358315,50.0647216 21.4354719,51.0458562 21.6013821,52.0368885 C21.77446,53.069828 20.865643,53.7264448 20.0790979,53.6999106 C20.1674287,53.7144413 20.2555488,53.7293931 20.3438796,53.7418178 C22.8013326,54.0895004 25.3530192,53.9972624 27.8469429,53.9945248 C27.7127601,53.2110912 27.7671242,52.3271177 27.7470493,51.6731982 L27.7432227,51.5719078 C27.7050654,50.7339737 27.6782921,49.8966715 27.6629027,49.0593692 Z M14.663299,48.8786838 C14.7297053,49.3906259 14.858934,49.8916174 15.0522499,50.3580722 C15.8691523,52.328765 17.7420194,53.2484076 19.7236663,53.6356809 C19.3798295,53.5169087 19.106826,53.2315604 19.03789,52.7427832 C18.866077,51.5274735 18.8043086,50.2919472 18.7996707,49.0578951 C17.4186315,49.0450492 16.0283164,49.0155667 14.663299,48.8786838 Z M44.9122957,48.4579268 C43.9290616,48.689996 42.7864524,48.5836485 41.8217698,48.627451 C40.9180124,48.6685159 40.0138333,48.704316 39.1100758,48.7409585 C39.1526601,49.3581952 39.1941904,49.9752212 39.2393045,50.5920367 C39.297489,51.389327 39.3029701,52.231894 39.4555991,53.0258149 C41.274498,52.4047876 42.9042972,51.4089118 44.1270155,49.816437 C44.431641,49.4196872 44.7044336,48.9540747 44.9122957,48.4579268 Z M19.3056231,42.6452465 C17.6688671,43.032941 16.1198095,43.851922 15.287307,45.3502634 C14.7931601,46.2393706 14.5758114,47.2931585 14.6175525,48.3315733 C16.0009107,48.1704727 17.4080908,48.1094018 18.8085249,48.0588604 C18.8131628,47.8065747 18.8191124,47.5545697 18.8266861,47.3030952 L18.8482617,46.6585603 C18.8864346,45.4292579 18.9056154,43.8855582 19.3056231,42.6452465 Z M27.7773744,42.7951859 L27.056853,42.7142256 C25.0555444,42.486111 23.0553101,42.2466464 21.0538995,42.3839054 C20.7642417,42.4039114 20.4701569,42.4354997 20.1754396,42.4786705 C20.5291847,43.7556828 20.49946,45.2554984 20.6472402,46.5196647 C20.7043707,47.008442 20.7764689,47.4932181 20.8563672,47.9760989 L21.2035771,47.9598836 L21.2035771,47.9598836 C23.3511342,47.8434278 25.5007995,47.7718275 27.6500431,47.6865389 C27.649885,47.2828396 27.6520985,46.8789034 27.6585514,46.4748191 L27.6664865,46.0706888 C27.6909409,45.0385916 27.6243238,43.8759292 27.7773744,42.7951859 Z M37.8272756,42.6313476 C35.731157,42.9697643 33.5648375,43.0417858 31.505822,43.0443128 C30.6834385,43.0453658 29.8614767,42.9948244 29.0399365,42.9219606 C29.0934831,43.3595647 29.1213105,43.802223 29.1615759,44.2337201 C29.2426969,45.1057274 29.3354211,45.976387 29.4361866,46.8462379 L29.5260724,47.6073574 L29.5260724,47.6073574 C32.1677764,47.4875322 34.8092696,47.3580199 37.4503411,47.2238747 L37.8230594,47.2038687 L37.8230594,47.2038687 L37.9275292,45.7411246 C37.9986436,44.7657383 38.0768788,43.7905704 38.1873451,42.8196143 L38.1044954,42.7897106 L38.1044954,42.7897106 C38.0070995,42.7496987 37.9147632,42.6945243 37.8272756,42.6313476 Z M38.7375683,42.9944032 C38.8530941,44.3735512 38.9169706,45.7583851 39.0019284,47.1398496 L40.7430293,47.0468004 C41.0331868,47.030975 41.3233364,47.0148299 41.6134861,46.9981231 C42.7417599,46.9330511 44.1915244,46.591265 45.3069386,46.9100969 C45.3921073,45.8956892 45.1022387,44.9073946 44.1870973,44.2259283 C42.5804876,43.0289398 40.5347534,43.4551722 38.7375683,42.9944032 Z M32.7889225,30.6655961 C35.3815986,29.1802262 41.8867394,27.6620971 42.2987113,32.3297683 C42.488174,34.4777135 40.8919247,36.2574498 39.0279579,37.0516053 L38.9579366,37.0809229 C37.2096972,37.7999366 34.1110352,38.6119444 32.5981479,37.0528133 C31.338993,35.7551225 33.0090634,33.4283671 34.5737113,34.4914591 C35.3778002,35.0375927 37.0703018,34.6351882 37.9675372,34.3753254 L38.0237113,34.3589425 C38.9919507,34.0742536 40.2827958,33.1631225 39.8824437,31.9704728 C39.5281479,30.9154121 38.0205423,30.7226607 37.0763873,30.6884219 C35.6670211,30.6379092 34.2954718,30.9652908 32.898993,31.0718114 C32.6777958,31.0887194 32.6095563,30.7683123 32.7889225,30.6655961 Z M43.5287113,23.1599765 C47.0475845,22.9951233 49.2365282,26.8387397 48.4273732,29.9880705 C48.2875141,30.5314521 47.6799085,31.0649002 47.0934296,31.00382 L46.9456572,30.9902158 C46.8705845,30.9829977 46.795162,30.9735123 46.7258239,30.954364 C46.1689225,30.8000783 45.6696972,30.2205558 45.7102606,29.6198982 L45.7210365,29.4448758 C45.8031384,27.9571532 45.641973,26.2430931 43.8745563,25.8828023 C42.3756127,25.5771898 41.5387817,27.020501 41.5210352,28.3490489 C41.5176549,28.5849159 41.2527254,28.7495577 41.0442042,28.6227476 C39.9606127,27.9631233 39.773007,26.6508493 40.1868803,25.5207593 C40.7114577,24.0888611 42.0242746,23.2303562 43.5287113,23.1599765 Z M17.4154014,23.9843272 C19.9761761,23.1296266 22.7389225,24.4951609 23.9788521,26.7599906 C24.4138521,26.8859554 24.8482183,27.2213683 24.7877958,27.7349495 C24.7005423,28.4738301 24.5691338,28.9396462 24.0570211,29.4999358 C23.2560186,30.3764272 21.7558318,29.9282778 21.4229027,28.849309 L21.4087817,28.8005777 C21.0306127,27.4058771 19.4959648,26.4856579 18.098007,26.9738771 C16.4649085,27.5441002 16.5122324,29.269564 15.3667394,30.274746 C15.232162,30.3928908 15.0707535,30.411701 14.9093451,30.3337127 C13.6926549,29.7455249 13.9113169,27.9752548 14.3450493,26.9620415 C14.913993,25.6324368 16.0197676,24.4499319 17.4154014,23.9843272 Z M13.9279014,16.2050935 C16.0029718,14.0869409 21.4139577,12.0372658 22.8334648,15.9487256 C23.1038873,16.6937354 22.5281831,17.6982834 21.752831,17.8527804 C20.4831127,18.1055554 19.3566338,17.5541425 18.0953662,17.6530544 C17.0743099,17.7335789 16.0093099,18.0749096 15.1929718,18.7076924 C12.9319859,20.460209 12.434662,23.4243969 10.8592394,25.6549879 C10.7825493,25.7636219 10.6336056,25.7179703 10.6194507,25.589892 C10.2607183,22.3424947 11.6550845,18.5248744 13.9279014,16.2050935 Z M40.9902676,14.1199327 C42.3673099,13.6334043 43.9266761,13.6750403 45.3109014,14.1066176 C46.7052676,14.5415765 47.985338,15.3675335 48.9715352,16.4466881 C49.419,16.936598 49.8330845,17.4772321 50.1651972,18.0527389 C50.3416056,18.3577174 50.5270986,18.9877526 50.7275915,19.3628994 C51.8123435,19.9894274 52.2759906,21.4171188 51.3048214,22.4328182 L51.2610423,22.4773573 L51.1311127,22.606281 C50.6090704,23.1232438 49.8218873,23.3472751 49.1092817,23.1407859 C47.5146338,22.6791969 47.3209014,21.4227194 46.7688592,20.089099 C46.4042113,19.208191 45.779493,18.4287311 45.0220986,17.8561832 C43.2320282,16.5035413 40.2968873,16.072598 38.1417465,16.7100305 C38.0270282,16.7440579 37.8922394,16.5978035 37.974,16.4917057 C38.3823803,15.9624845 38.6177324,15.5281597 39.164493,15.1012321 C39.719493,14.667964 40.3251972,14.3549542 40.9902676,14.1199327 Z" id="ðŸ–-Ink"></path>
                    </g>
                    <g id="facial-hair/*-None" transform="translate(104.577451, 109.479380)"></g>
                    <g id="accessories/Sunglasses" transform="translate(88.521127, 88.978474)" fill="#000000" fill-rule="evenodd">
                        <path d="M71.3680491,3.1702544 C76.3269356,3.1702544 79.1568052,4.23707181 80.1938017,4.32017463 L80.2249868,4.32240913 C80.6563105,4.34999802 81.0432333,4.38607581 81.4491851,4.54312029 C82.9419037,5.11824266 83.1850519,6.68444304 82.313947,7.67148884 C82.2528428,9.713916 82.521363,12.1003555 82.06065,14.1493615 C81.4923175,22.7874448 77.431531,24.2451996 75.1233146,24.7772408 C73.9644491,25.0444286 72.5909789,25.150752 71.3600147,24.8687086 C69.2600599,24.7903986 67.1839971,24.1327218 65.4077466,22.9875704 C62.9339779,21.3914466 61.0966232,18.9381571 60.5003815,16.0266798 C60.2177929,14.6388685 60.0857253,13.1943522 60.2395124,11.7836899 L60.2623077,11.5893242 C59.4582272,11.2045653 58.526441,11.131773 57.5658998,11.0978175 C57.1070897,11.0814763 56.6548341,11.066833 56.2154759,11.0863575 C55.786055,11.1343197 55.3617085,11.1981986 54.9360934,11.2852097 C54.4713632,11.4254886 54.0324278,11.6570231 53.6271104,12.0237432 L53.5992012,12.5589678 C53.5230852,13.8959681 53.3475956,15.2370007 53.0769611,16.5487466 C52.6773523,18.4842137 52.0345953,20.3326697 50.6666224,21.7055356 C50.2035836,22.3973802 49.6305996,23.014947 48.9349843,23.5497472 C46.4081459,25.4960376 42.9751046,26.21059 39.8243268,25.9414922 C33.4278375,25.3954443 29.7305048,20.3156919 28.8784289,18.1444458 L28.8275239,18.0129005 C28.2119991,16.3987184 27.7214607,14.3043319 25.7764921,13.9575126 L25.3628246,13.883161 C24.4752804,13.7164979 23.6563102,13.4844691 23.1359026,12.6181778 C22.9077661,12.2399977 22.7904207,11.8170387 22.7616658,11.3858031 C22.4580477,11.4091475 22.1548524,11.4314309 21.8527144,11.4530775 C19.4424813,11.9629946 4.98596345,12.3953444 3.83204944,12.3953444 C3.83204944,12.3953444 1.61394912,13.3292972 0.677465773,12.6056567 C0.0283657826,12.1024777 -0.185181771,11.4318553 0.172140373,10.6720996 C0.71128711,9.52898231 3.19864834,8.84138978 4.30313196,8.62367284 C4.30313196,8.62367284 22.1266578,8.77176371 23.4094972,8.52844238 C24.2032175,7.70968885 25.6229916,7.82174221 26.8093434,7.69228662 C27.7914507,6.99174089 29.1653438,6.52251745 30.2506305,6.20842848 C30.4717896,6.12460068 30.6908345,6.04353177 30.9037477,5.96713175 C32.8933343,5.25830936 34.9613627,4.88288816 37.0608946,4.68127699 C39.2259708,4.47542139 41.3973899,4.56858697 43.5497801,4.86357593 C44.4568287,4.98666485 45.3554199,5.14583155 46.247668,5.3540216 C47.8453103,5.56471853 49.4336611,5.91176412 51.0318841,6.32346342 L51.351666,6.40664408 C53.0346745,6.84806641 54.7641982,7.22985428 56.506408,6.93062088 C57.9247725,6.68859906 59.2887664,6.14252462 60.5965287,5.55202796 L60.7667874,5.47477608 C63.6422792,4.16133242 68.1329094,3.1702544 71.3680491,3.1702544 Z M46.0747157,7.97263224 C45.0137438,7.73918774 44.5606424,9.3756337 45.6249972,9.60971487 C46.378691,9.77548242 47.0174738,10.155707 47.4490469,10.7998619 L47.4944898,10.8698907 C48.0736053,11.7917843 49.5379918,10.940773 48.954859,10.0129372 C48.2987817,8.9688036 47.2792507,8.23748564 46.0747157,7.97263224 Z M77.1492677,6.95799755 C76.7752423,6.69441749 76.2092356,6.89008642 75.9920937,7.26253652 C75.7531059,7.67267317 75.9097469,8.12931765 76.260044,8.39762278 L76.2957118,8.4238168 C76.6170226,8.65036832 76.9299546,9.056466 76.969253,9.47256193 L76.972721,9.52461373 C77.0147962,10.6135262 78.7064734,10.619044 78.6641867,9.52461373 C78.6229573,8.45395236 78.0032465,7.55943548 77.1492677,6.95799755 Z" id="ðŸ–-Ink"></path>
                    </g>
                </g>
            </g>
        </g>
    </g>
</svg>