<?xml version="1.0" encoding="UTF-8"?>
<svg width="240px" height="324px" viewBox="0 0 240 324" version="1.1" xmlns="http://www.w3.org/2000/svg" xmlns:xlink="http://www.w3.org/1999/xlink">
    <!-- Generator: Sketch 62 (91390) - https://sketch.com -->
    <title>peep-10</title>
    <desc>Created with Sketch.</desc>
    <g id="Introduction" stroke="none" stroke-width="1" fill="none" fill-rule="evenodd">
        <g id="variations" transform="translate(-366.000000, -758.000000)">
            <g id="images" transform="translate(126.000000, 110.000000)">
                <g id="a-person/bust" transform="translate(240.000000, 648.000000)">
                    <g id="body/Paper" transform="translate(31.056338, 135.052838)" fill-rule="evenodd">
                        <path d="M150.022562,41.5444811 C148.181113,34.4008449 146.487633,31.3720117 143.21645,28.8890928 C140.156716,26.5666686 135.690221,24.616104 129.173087,23.1912768 C122.385153,22.0042412 122.192712,18.475584 120.490732,12.8041914 C119.994215,11.0992146 117.533743,10.6455451 116.471812,11.8744515 C116.322113,11.7128304 116.166034,11.5648173 116.004427,11.4310403 C116.149023,10.6179104 114.965332,8.28732303 115.004881,7.50952316 C115.417681,-0.609005215 112.762711,-4.68584742 106.136171,-6.20135908 C104.695101,-6.53109121 94.9065863,-6.72516212 93.5014529,-6.33660159 C87.3586723,-4.63790541 81.3115461,0.755465435 82.2369609,7.25254916 C80.30873,9.77295874 78.4215729,11.31129 75.4467217,12.1233731 C68.8263488,12.9641377 62.2066138,13.7117399 55.5845398,14.3517342 C42.6219288,16.385187 30.4684177,23.2478023 22.1617996,33.2563762 C21.3956532,34.1802542 21.1742936,35.4342831 21.8504928,36.4195018 C21.3208035,38.6886869 18.3391477,44.1930152 20.6852187,45.7487228 C16.8272684,54.977454 7.95072329,72.8155543 7.93257791,77.9116861 C7.86411145,99.3206175 10.1762752,127.187115 31.2981439,139.034652 C32.1438182,139.866205 32.264811,140.786315 32.6309793,142.023595 C33.5595837,145.921134 36.932074,148.706647 40.6233136,148.479289 C58.8071994,148.883469 76.4194747,146.664642 94.6037662,146.557151 C102.622991,146.509747 112.266923,147.706921 119.233171,148.504559 C126.19942,149.302197 133.231558,148.596675 139.916787,146.557151 C140.480499,147.44481 141.620256,147.961914 142.776386,147.706921 C149.70679,146.329792 155.311163,142.058139 160.192343,137.389341 C161.684021,134.675279 167.509329,126.942381 165.193878,124.25072 C167.29286,115.375587 167.183775,105.839315 163.453835,97.3881237 C163.982573,95.8389543 163.018842,94.1364726 163.453835,92.5367037 C163.768621,91.3790161 164.574809,90.9001986 164.980599,89.753827 C165.551618,88.1406772 164.930621,85.9765462 164.287719,84.3304236 C164.024256,83.5099664 164.772636,82.6269138 164.980599,81.7897082 C165.967042,77.8410875 163.708257,78.1891262 162.07985,75.5493849 C162.104091,75.5412202 162.527569,73.6567356 162.525656,73.6661565 C162.774982,72.320747 162.150366,70.5970822 161.605521,69.4740158 C161.237274,68.7149621 160.44844,68.2399026 159.664657,68.3269857 C160.453982,65.6468392 161.452242,63.4167123 162.525656,60.8345433 C164.424117,56.2829839 166.827176,51.9244485 169.553236,47.8045764 C170.669603,46.117604 169.17027,44.1630776 167.363669,44.0481424 C161.516248,43.6765395 155.732831,42.8345188 150.022562,41.5444811 Z" id="ðŸŽ¨-Background" fill="#FFFFFF"></path>
                        <path d="M132.956958,75.9647272 C130.618225,75.0474669 128.099915,74.5404376 125.56893,74.3436705 C126.931606,74.1048446 128.298296,73.8744728 129.675972,73.7561166 C130.637239,73.67369 131.528577,73.682144 132.251113,74.4115139 C132.733014,74.8974082 132.95907,75.5230051 133.275972,76.0978779 C133.172451,76.0513808 133.064704,76.0069973 132.956958,75.9647272 Z M158.059775,67.3881323 C154.229493,67.5827859 150.394986,68.4937057 146.930197,70.1441401 C145.512592,70.8204611 144.228085,71.7968994 143.852028,73.4031616 C143.661887,74.2234121 143.708366,75.0709268 143.809563,75.89942 C143.885831,76.526919 143.904845,77.3279366 144.449915,77.7527507 C144.542873,77.8246098 144.642169,77.8795609 144.74569,77.9197174 C143.467521,78.4967037 142.250408,79.190144 141.168718,79.9042967 C140.180197,80.5573691 139.164,81.5633965 138.707662,82.6983476 C138.669634,82.5694239 138.631606,82.4491656 138.593577,82.334825 C137.816113,80.0355452 136.618225,78.1524141 134.731606,76.8862145 C135.065408,76.7363671 135.29569,76.3810873 135.187944,75.8909659 C134.740056,73.8427703 132.849,72.0632008 130.713296,72.190011 C128.374563,72.3273886 125.862592,73.1791303 123.747592,74.2549033 C122.976676,74.2379953 122.207451,74.2485628 121.447099,74.2823789 C121.316113,74.2866059 121.322451,74.4643515 121.447099,74.4789346 C122.064,74.5573456 122.680901,74.6437879 123.297803,74.745236 C124.764,74.9800462 126.225972,75.2778387 127.656042,75.6477018 C129.371746,76.0917487 131.146394,76.5374865 132.749915,77.3131421 C135.859563,78.820281 137.784423,82.7598505 137.389352,86.1877409 C137.323859,86.7499327 137.106254,88.449189 136.326465,88.2737683 C135.667521,88.1258231 135.405549,86.7499327 135.175268,86.2405785 C134.558366,84.8879366 133.447099,84.0044924 132.114,83.406371 C130.548507,82.7025746 128.873155,82.2270364 127.250408,81.67351 C126.331606,81.358598 125.412592,81.0434748 124.491465,80.7306763 C123.549211,80.4075217 122.653437,79.9613613 121.649915,80.1875061 C121.043577,80.3248838 120.973859,81.0477018 121.314,81.4621597 C121.831606,82.0938857 122.60062,82.279874 123.346394,82.5398348 C124.330901,82.8822223 125.313296,83.2248211 126.29569,83.5669973 C127.814493,84.095373 129.405549,84.5413221 130.886324,85.188054 L130.840056,85.2937292 C130.719423,85.2599131 130.577873,85.3803828 130.601324,85.528328 C130.823155,86.8957644 131.131606,88.4766646 130.789141,89.8464258 C130.51893,90.932555 129.565901,92.1353495 128.328085,91.8159992 C128.522451,91.638465 128.594282,91.332007 128.463296,91.0487977 C127.972944,90.0005002 121.55062,85.8622614 120.978085,87.3989894 C120.95907,87.4537292 121.018014,87.4938857 121.064704,87.4856431 C121.552732,87.3839836 122.370338,88.2167037 122.760972,88.4808916 C123.325056,88.8615335 123.897592,89.2332986 124.455549,89.6242967 C125.066113,90.0514356 125.661887,90.4994982 126.242873,90.962144 C126.699211,91.3258779 127.043577,91.7039836 127.56731,91.8880697 C127.292873,92.0188955 127.075056,92.2619483 126.98231,92.5726333 C126.74569,93.3821049 126.289352,94.0689933 125.497099,94.4263867 C124.666817,94.7981519 123.730901,94.563553 122.856254,94.654645 C121.664704,94.7749033 120.625268,95.3415335 119.756958,96.1510051 C117.933718,97.8542771 117.01893,100.855663 114.46893,101.660696 C112.94569,102.140672 111.255549,101.83823 109.713296,101.620539 C107.991465,101.377486 106.314,101.185158 104.579493,101.438778 C102.91893,101.682042 101.349211,102.256704 99.8323099,102.958387 C98.4104789,103.615686 96.8386479,104.35985 95.5773803,105.340305 C95.3175211,104.539287 95.0555493,103.746723 94.8567465,102.928798 C94.3879437,100.995154 94.1344225,99.0251577 94.0729437,97.038465 C94.0161127,95.1470912 94.1217465,93.2470521 94.2842113,91.3637096 C94.3647042,90.4232008 94.4914648,89.486919 94.5717465,88.5464102 C94.592662,88.3096978 94.6351268,88.0560775 94.6668169,87.8026685 C96.9189296,86.4730638 99.2849155,85.4545667 101.670127,84.4062693 C101.676676,84.4041558 101.683014,84.3997174 101.689352,84.3978153 C101.763296,84.3637879 101.835127,84.3322967 101.90907,84.3005941 C101.906958,84.2961558 101.904845,84.2921401 101.90062,84.2877018 C102.173155,84.1209464 102.363296,83.8988172 102.47738,83.6494239 C105.914704,81.3689542 108.787944,78.2559757 110.930197,74.6247663 C111.828085,73.1030442 112.692169,71.5242575 113.866817,70.1908485 C115.117521,68.7682497 116.602732,67.9228485 118.440761,67.4832399 C120.589352,66.9677566 122.803437,66.6589738 125.004845,66.483553 C126.206958,66.3886568 127.550408,66.2405002 128.860479,66.2470521 C129.773155,66.2531812 130.666606,66.3313808 131.486535,66.5575256 C132.701324,66.8914591 133.411183,67.8152712 134.173859,68.7492282 C134.902732,69.6455648 135.62738,70.5438035 136.307662,71.4779718 C136.951817,72.3633182 137.560479,73.278465 138.088648,74.2379953 C138.405549,74.8128681 138.699211,75.4048603 138.946394,76.0154513 C139.033014,76.2312399 139.147099,76.4761949 139.199915,76.7002262 C139.252732,76.926371 139.155549,77.1654082 139.40907,77.1654082 C138.363296,77.1799914 138.373859,78.8517722 139.413296,78.7904806 C143.48231,78.5537683 137.653437,70.6072086 136.801817,69.4995217 C135.595479,67.9313025 134.351324,65.8854317 132.420338,65.1562732 C132.392873,65.1457057 132.363296,65.1353495 132.335831,65.1266841 C132.897803,64.5940814 133.341465,63.9560149 133.766113,63.3069581 C134.203437,62.6390912 134.725056,61.8740031 134.86893,61.0814395 C134.959775,60.5765237 134.33231,60.2888759 134.034423,60.730598 C133.601324,61.3752164 133.392169,62.1910286 133.06893,62.8992634 C132.739352,63.6176431 132.337944,64.2960775 132.021042,65.021009 C131.258366,64.7864102 130.434423,64.6788329 129.59569,64.6429033 C130.654141,63.2099483 132.46238,60.4452751 132.680197,60.0902067 C133.681606,58.4459014 134.634423,56.7510834 135.544986,55.0537292 C136.529282,53.2149816 137.372451,51.3001479 138.314704,49.4402654 C138.849211,48.3858387 139.387944,47.3225354 139.981606,46.2996 C140.186535,45.9487585 140.406254,45.597917 140.655549,45.2787781 C140.704141,45.2155843 140.765408,45.1627468 140.822451,45.1033573 C140.887944,45.0674278 140.955549,45.0272712 140.993577,45.0063476 C141.33562,44.8097918 141.456254,44.3532751 141.696887,44.0635139 C142.081606,43.5966411 142.533718,43.54169 143.112592,43.5351382 C144.346183,43.5224571 145.584423,43.5710677 146.816113,43.6048838 C148.626676,43.6556078 150.435127,43.7274669 152.243577,43.8225746 C152.790761,43.8521636 153.335831,43.8817526 153.883014,43.9155687 C156.513296,44.0721793 159.141465,44.2769777 161.763296,44.5286959 C164.083014,44.7504023 166.402732,45.1120227 168.724563,45.2853299 C165.580901,52.7565628 162.094986,60.0925315 158.148296,67.1727663 C158.108366,67.2444141 158.078577,67.3162732 158.059775,67.3881323 Z M140.617521,86.6358035 C140.110479,86.8685002 139.618225,87.1578387 139.159775,87.4877566 C139.235831,86.9741753 139.254845,86.4329072 139.233718,85.889737 C139.611887,86.2955295 140.09569,86.5280149 140.617521,86.6358035 Z M162.261887,73.7838035 C162.225972,73.7878192 162.192169,73.8068407 162.175268,73.8427703 C161.473859,75.2905198 161.76731,76.9073495 162.912592,78.0423006 C163.512592,78.6340814 164.820338,79.3019483 164.777873,80.2741597 C164.741958,81.0603828 163.886535,81.7197957 163.521042,82.3686411 C163.180901,82.9731029 163.054141,83.6367429 163.326676,84.2921401 C163.675268,85.1309894 164.649211,85.4649229 164.983014,86.2894004 C165.405549,87.335373 164.71893,88.5973456 164.237239,89.508054 C163.789352,90.3513417 163.210268,91.1946294 162.825972,92.0865276 C160.25062,93.4203593 157.94569,95.4662301 155.964,97.5438035 C153.794282,99.8158192 151.933014,102.489189 148.487239,102.421768 C148.142873,102.415216 147.880901,102.597189 147.724563,102.848485 C146.765408,102.892868 145.804141,102.91189 144.844986,102.916328 C143.15907,102.924571 141.473155,102.907663 139.789352,102.854825 C139.671042,102.446919 139.757662,101.893393 139.751113,101.54868 C139.730197,100.439091 139.719634,99.3316157 139.673155,98.2220266 C139.660479,97.9136665 139.647803,97.6027703 139.635127,97.2941988 C140.241465,98.3911068 141.424563,98.8898935 142.772451,98.8138074 C144.940056,98.6872086 147.120338,98.3319288 149.266606,98.0127898 C150.397099,97.8458231 151.525268,97.6556078 152.651324,97.4527115 C153.576676,97.2878583 154.88231,97.3303397 155.528789,96.5882888 C155.680901,96.415193 155.689352,96.0981675 155.45062,95.9817135 C154.810479,95.6668016 154.406958,95.8422223 153.703225,95.9776978 C152.84569,96.1444532 151.985831,96.3029659 151.123648,96.4511225 C149.469423,96.7383476 147.811183,97.0046489 146.148507,97.2392477 C145.202028,97.3723984 144.253437,97.5034356 143.304845,97.6069973 C142.476676,97.6957644 141.542873,97.8162341 140.875268,97.192962 C139.529493,95.9331029 140.283718,93.8217135 141.135127,92.5493847 C141.152028,92.5242341 141.152028,92.5007742 141.14569,92.4796391 C141.948507,92.2915374 142.749211,92.0717331 143.547803,91.9174474 C145.083718,91.6215569 146.630197,91.372375 148.178789,91.1504571 C151.360479,90.6958427 154.563296,90.3957252 157.761676,90.0937057 C158.55393,90.0174082 158.56238,88.7706528 157.761676,88.8446254 C153.166606,89.2652125 148.548507,89.6644532 144.014704,90.5502223 C142.878085,90.7698153 141.749704,91.0192086 140.628085,91.3003045 C140.097803,91.431553 139.529493,91.6365628 138.973859,91.6429033 C138.940056,91.6429033 138.906042,91.6429033 138.872451,91.6405785 C137.784423,91.6069738 137.625972,90.674919 138.223859,89.8992634 C138.297803,89.8039444 138.373859,89.7088368 138.452028,89.6181675 C139.508366,88.3583084 140.824352,87.5171342 142.18069,86.646371 C143.699915,86.4392477 145.214704,85.9785041 146.702028,85.6403436 C150.373859,84.8033965 154.04569,83.9664493 157.719634,83.1316157 C158.439845,82.9667624 158.133718,81.8592869 157.413296,82.0220266 C154.624563,82.6541753 151.835831,83.2859014 149.046887,83.9178387 L144.965408,84.8437644 C144.149915,85.0274278 143.131394,85.3972908 142.172239,85.5306528 C141.699211,85.5959601 141.240761,85.6044141 140.826676,85.5074043 C139.489352,85.1903789 139.421746,83.5183867 139.998507,82.5250403 C140.644986,81.4093221 141.866113,80.7116548 142.949915,80.0797174 C144.828085,78.9828094 146.826676,78.1944728 148.778789,77.2856665 C149.125268,77.2095804 149.471746,77.1334943 149.818225,77.0574082 C151.833718,76.6135726 154.136535,76.3958818 156.033718,75.5823945 C156.602028,75.3412438 156.291254,74.4451186 155.729493,74.4577996 C154.256958,74.4897135 152.716817,75.0136509 151.278085,75.3243358 C149.721042,75.6624963 148.161887,75.9985432 146.604845,76.3345902 C146.448507,76.3684063 145.523155,76.6642967 145.383718,76.5987781 C145.294986,76.556508 145.263296,76.2481479 145.233718,76.0450403 C145.138437,75.3771734 145.06893,74.6757018 145.172451,74.00551 C145.40062,72.5028094 146.653437,71.7968994 147.921042,71.2199131 C150.743577,69.9370168 153.838648,69.1340971 156.91893,68.8126333 C157.628789,68.7386607 158.338648,68.692375 159.052732,68.6689151 C159.891254,68.643553 160.58231,68.4956078 161.006958,69.3219875 C161.674563,70.6239053 162.042169,72.298011 162.261887,73.7838035 Z M158.342028,120.987623 C157.727028,118.859749 157.894352,116.587733 157.473085,114.417377 C157.25569,113.297643 156.958859,112.186786 156.634775,111.093682 C156.373225,110.210661 155.936958,109.27142 155.887521,108.349933 C155.884563,108.28843 155.957028,108.252923 156.006887,108.281244 C156.874563,108.77834 157.540901,109.853056 158.03569,110.696344 C158.628085,111.705541 159.080408,112.762293 159.445268,113.873361 C160.172451,116.086833 160.769493,118.756821 159.831676,120.987623 C159.552592,121.651686 158.57231,121.784625 158.342028,120.987623 Z M139.335127,92.8030051 C139.854845,92.7524924 140.374563,92.6529464 140.894282,92.5367037 C140.313296,93.1033339 139.776676,93.785784 139.478577,94.5426294 C139.43231,93.961416 139.372944,93.3821049 139.294986,92.8053299 C139.307662,92.8053299 139.322451,92.8053299 139.335127,92.8030051 Z M134.340338,137.095897 C133.423859,136.45614 132.756042,135.561706 131.978789,134.772312 C131.214423,133.996023 132.409352,132.800414 133.17393,133.576915 C133.837099,134.250066 134.412803,135.09124 135.193225,135.63589 C135.568859,135.897753 135.742732,136.371389 135.496606,136.79261 C135.279,137.164375 134.714915,137.357338 134.340338,137.095897 Z M129.229352,112.505925 C130.90238,111.782261 132.547732,110.994136 134.298718,110.472946 C135.345127,110.161205 135.788155,111.793463 134.748085,112.103091 C133.135479,112.58349 131.623014,113.299545 130.082451,113.965721 C129.093296,114.393494 128.233648,112.936445 129.229352,112.505925 Z M111.561042,111.99953 C111.151817,110.989698 112.787662,110.554528 113.190761,111.550199 C113.654915,112.69614 114.186887,113.812704 114.651042,114.958645 C115.059845,115.968477 113.424423,116.403858 113.021324,115.408187 C112.557169,114.262246 112.024986,113.145682 111.561042,111.99953 Z M94.1219577,132.166363 C93.8494225,132.529886 93.3949859,132.726864 92.9656901,132.469862 C92.6061127,132.254285 92.3866056,131.681103 92.6625211,131.313142 C93.4680845,130.23906 94.2842113,129.17787 95.2283662,128.220242 C95.9937887,127.443952 97.1882958,128.640406 96.423507,129.41585 C95.580338,130.270974 94.8415352,131.207044 94.1219577,132.166363 Z M91.6283662,19.0113182 C92.4041408,19.5413847 93.0837887,20.1853691 93.7465352,20.8479523 C94.5170282,21.6183241 93.3216761,22.8137213 92.5511831,22.0433495 C91.9928028,21.484962 91.4295634,20.9181205 90.7752676,20.471326 C90.3973099,20.213056 90.227662,19.7326568 90.4720986,19.3146059 C90.6911831,18.9400932 91.2512535,18.7538935 91.6283662,19.0113182 Z M116.999704,46.2199209 C116.561113,47.0985041 116.166254,47.9597566 116.141324,48.9583867 C116.114704,50.0462067 114.424563,50.0468407 114.451394,48.9583867 C114.483718,47.6516078 114.965408,46.5183476 115.540268,45.3664885 C116.026606,44.3915295 117.48393,45.2489777 116.999704,46.2199209 Z M126.308577,24.36778 C127.217239,23.7618387 128.062521,25.2271303 127.161887,25.8277879 C126.431746,26.3145276 125.701394,26.80169 124.971254,27.2886411 C124.063014,27.894371 123.217732,26.4292908 124.118155,25.8286333 C124.848296,25.3416822 125.578437,24.8547311 126.308577,24.36778 Z M85.932169,62.5742067 C85.7770986,63.6487115 84.1486479,63.1890247 84.3022394,62.1248759 C84.5399155,60.4801479 84.8299859,58.857189 85.2759718,57.2551538 C85.5679437,56.2068564 87.1978732,56.654919 86.9056901,57.7046959 C86.4597042,59.3067311 86.1696338,60.92969 85.932169,62.5742067 Z M80.0063239,81.9423476 C78.918507,81.9193104 78.9182958,80.228508 80.0063239,80.2515452 C80.990831,80.2724689 81.9586479,80.5315843 82.9082958,80.7687194 C83.9646338,81.0326959 83.5142113,82.6628407 82.4589296,82.3990755 C81.6561127,82.1985041 80.8387183,81.960101 80.0063239,81.9423476 Z M77.8188592,120.957612 C77.4451268,121.139584 77.0616761,121.303381 76.6839296,121.476265 C75.9273803,121.822246 75.1712535,122.168649 74.415338,122.515897 C72.8405493,123.239138 71.2666056,123.964704 69.6941408,124.692805 C66.5462535,126.150488 63.3740704,127.556813 60.2185775,128.998645 C57.0007606,130.46922 53.7913944,131.95924 50.5860423,133.456868 C49.0759014,134.162144 47.5543521,134.841635 46.0357606,135.528524 C44.7373099,136.115866 43.1323099,137.142183 41.7068873,137.23877 C41.6335775,137.243843 41.6090704,137.15106 41.6509014,137.103506 C42.1894225,136.490802 43.0484366,136.134465 43.7561831,135.736281 C44.4791408,135.32922 45.2156197,134.946465 45.9487183,134.558214 C47.4770282,133.748109 49.0072394,132.944555 50.550338,132.162982 C53.6369577,130.600469 56.729493,129.049158 59.822662,127.499749 C62.9773099,125.919483 66.1279437,124.328649 69.3102676,122.804602 C70.8085775,122.086856 72.3083662,121.371436 73.809,120.658128 C74.6219577,120.27178 75.435338,119.886066 76.2487183,119.500986 C76.6000563,119.334653 76.9478028,119.155216 77.3069577,119.006426 C77.7842113,118.808813 78.1469577,118.849181 78.6392113,118.727443 C79.4420282,118.529197 79.7895634,119.550441 79.1732958,119.995123 C78.665831,120.361393 78.3987887,120.674614 77.8188592,120.957612 Z M66.5356901,138.294888 C66.3622394,137.873244 66.7254085,137.360508 67.1259718,137.254833 C67.6057606,137.128445 67.9904789,137.420109 68.1656197,137.845346 C68.6289296,138.972899 69.2889296,140.007459 70.1384366,140.881181 C70.8977324,141.661909 69.7032254,142.857941 68.9432958,142.07679 C67.8787183,140.981573 67.1139296,139.701635 66.5356901,138.294888 Z M58.2347746,111.155185 C57.4642817,110.384602 58.6596338,109.189205 59.4299155,109.959788 L61.620338,112.150856 C62.390831,112.921651 61.1952676,114.117048 60.4251972,113.346465 L58.2347746,111.155185 Z M35.7622394,107.582731 C34.1874507,108.044743 32.3506901,108.469557 31.2770282,109.813533 C31.2246338,109.879263 31.1365352,109.794935 31.1680141,109.729416 C32.5425211,106.878723 36.4843521,105.878825 39.213507,104.880195 C41.1438592,104.173651 43.124493,103.587788 45.1218169,103.064485 C44.922169,100.785072 45.4727324,98.3420736 45.6641408,96.0738622 C45.8684366,93.6522106 46.0347042,91.2242184 46.1200563,88.7949581 C46.2073099,86.3168759 46.2284366,83.8220971 46.1468873,81.3433808 C46.0657606,78.8737526 45.7452676,76.4343476 45.6049859,73.972962 C45.5914648,73.7349816 45.9227324,73.7235687 45.9941408,73.9203358 C46.8235775,76.2043984 47.1778732,78.7344728 47.4478732,81.1428094 C47.7259014,83.6238505 47.8182254,86.0977057 47.7827324,88.5931186 C47.7459718,91.1589112 47.5968169,93.7185746 47.3920986,96.2761245 C47.2951268,97.4884297 47.1825211,98.6990442 47.0762535,99.9105041 C46.9951268,100.83495 46.9575211,101.751999 46.7690704,102.647068 C47.9737183,102.351389 49.1811127,102.071561 50.3847042,101.799553 C54.2225915,100.933228 58.0765352,100.129252 61.8983662,99.1923358 C63.7744225,98.7326489 65.6236479,98.1818701 67.4912535,97.6928055 C69.2498451,97.2322732 71.1060423,96.6738857 72.9115352,96.4684532 C73.5559014,96.3949033 73.6378732,97.2766568 73.2113239,97.5759288 C71.7438592,98.6066841 69.7949155,99.3244297 68.0999155,99.901416 C66.3987887,100.480305 64.6304789,100.896876 62.8868873,101.325706 C59.2507606,102.220351 55.5801972,102.951835 51.9151268,103.713753 C48.2551268,104.474825 44.5881549,105.230191 40.9693521,106.16922 C39.2266056,106.62151 37.4897746,107.07549 35.7622394,107.582731 Z M27.1325915,62.3489072 C26.1916056,62.9015883 25.3420986,61.4396783 26.2797042,60.8888994 C27.5065352,60.1686176 28.8140704,59.6273495 30.132169,59.0993965 C31.1437183,58.6944493 31.5789296,60.3303006 30.5815352,60.729964 C29.3969577,61.2042341 28.2349859,61.7017526 27.1325915,62.3489072 Z M23.7252676,125.165385 C22.7817465,125.712782 21.9316056,124.251083 22.8723803,123.705588 C24.1936479,122.939443 25.6406197,122.428187 27.0098451,121.757784 C27.984,121.280555 28.8396338,122.739506 27.8627324,123.217792 C26.4937183,123.888195 25.0465352,124.39924 23.7252676,125.165385 Z M22.1927324,89.5078427 C23.1049859,90.3748016 24.3225211,90.782919 25.4705493,91.2383789 C26.4715352,91.6350834 26.0325211,93.2696665 25.0211831,92.868735 C23.5909014,92.3012595 22.134,91.7832399 20.9975915,90.7032399 C20.2070282,89.952101 21.4042817,88.7586059 22.1927324,89.5078427 Z M32.2851972,41.0822067 C33.2880845,41.4757409 32.8488592,43.1103241 31.835831,42.7127742 C30.7123099,42.2718975 29.5520282,41.9362732 28.428507,41.4953965 C27.425831,41.1018622 27.8648451,39.4674904 28.8778732,39.864829 C30.0013944,40.3057057 31.1616761,40.6413299 32.2851972,41.0822067 Z M50.0893521,21.8476391 C51.1549859,21.6679914 51.6087887,23.2975022 50.5387183,23.4782067 C49.2111127,23.7024493 47.9037887,23.964735 46.6446338,24.4521088 C45.6278028,24.8456431 45.1915352,23.2102145 46.1952676,22.8217526 C47.4546338,22.3343789 48.7619577,22.0718818 50.0893521,21.8476391 Z M55.9720986,68.6792712 C54.9949859,68.1986607 55.8523099,66.741189 56.8249859,67.2194748 C57.8500563,67.7235452 58.9120986,68.1132751 60.0305493,68.3514669 C61.0955493,68.5784571 60.6419577,70.2081793 59.5811831,69.9820344 C58.3224507,69.7136196 57.1247746,69.2463241 55.9720986,68.6792712 Z M61.5282254,42.2995843 C62.580338,42.0113025 63.0252676,43.6427155 61.9775915,43.9301519 C60.1342817,44.4352791 58.2364648,44.6979875 56.3796338,45.1475295 C55.3213944,45.4036861 54.8737183,43.7729072 55.9302676,43.5171734 C57.7870986,43.06742 59.6851268,42.8051342 61.5282254,42.2995843 Z M85.098507,34.021416 C86.1683662,34.2194513 85.7124507,35.8487507 84.6493521,35.6519836 C83.5175915,35.4425354 82.3706197,35.4391538 81.2232254,35.4385198 C80.1339296,35.4380971 80.135831,33.7472947 81.2232254,33.7477173 C82.5267465,33.7483515 83.8135775,33.783647 85.098507,34.021416 Z M161.970338,42.8548016 C159.20907,42.5906137 156.443577,42.3792634 153.673859,42.2207507 C153.544775,42.2141988 153.418225,42.2059562 153.289141,42.1994043 C153.274563,42.1700266 153.255549,42.1423397 153.236324,42.1127507 C152.33231,40.7854708 151.666817,39.4584023 151.090056,37.9576039 C150.538648,36.5288759 150.004141,35.0559757 149.154845,33.7667389 C148.186183,32.2978544 146.878437,31.1485315 145.445197,30.1524376 C144.575831,30.7372438 143.769,31.4220188 143.030831,32.1477957 C142.254,32.9114043 141.058648,31.716007 141.83569,30.9521871 C142.491676,30.307146 143.191817,29.7113495 143.931887,29.1730403 C143.07731,28.6535413 142.205408,28.1653221 141.354845,27.6796391 C138.166606,25.8601245 134.902732,24.1775648 131.571042,22.639146 C130.022451,21.9224571 128.454845,21.2862928 126.876676,20.6416744 C126.027169,20.2952712 125.188648,19.8491108 124.339352,19.4477566 C124.40062,18.8473104 124.221042,18.1752164 123.760479,17.7799914 C123.420338,17.4904415 123.156254,17.3826528 122.75062,17.1778544 C122.659775,17.1459405 122.604845,17.126919 122.579493,17.1163515 C122.598507,17.1205785 122.653437,17.1374865 122.74407,17.1670755 C122.959775,17.2666215 122.976676,17.2368211 122.794986,17.0804219 C122.784423,16.7382458 122.110268,16.0154278 121.956254,15.6624728 C121.419634,14.4512243 121.252732,13.1704415 120.460479,12.067193 C119.368225,10.5475843 117.534423,9.9729229 115.825056,10.4884063 C115.647803,8.66022622 115.601324,6.75194442 114.912592,5.12010881 C114.893577,5.07593659 114.83231,5.05670372 114.804845,5.10531429 C114.086535,6.32924384 114.025268,7.69224188 113.970338,9.10406184 C113.917521,10.4292282 113.968014,11.7839836 114.141465,13.1006959 C114.031606,13.185236 113.919634,13.2657605 113.803437,13.3437487 C113.258366,13.7030442 112.671042,13.9799131 112.054141,14.1851342 C110.879493,14.5738074 109.647803,14.7428877 108.416113,14.8020658 C105.236535,14.954238 101.959775,14.6329855 98.8330141,14.0877018 C95.670338,13.5360775 90.8217465,12.7075843 88.007662,11.1245706 C86.1504085,10.0807115 84.4372394,8.80605793 82.7004085,7.57177221 C83.3301972,5.54280939 83.4907606,3.36167436 82.8569577,1.64762348 C82.7809014,1.4426137 82.4597746,1.40457065 82.398507,1.64762348 C82.0013239,3.28347476 81.8851268,4.92778004 81.3569577,6.54460978 C81.348507,6.56785832 81.3400563,6.5934317 81.3316056,6.61646888 C81.1668169,6.50466458 81.0020282,6.39455108 80.8372394,6.28464892 C80.4569577,6.03314207 79.9393521,6.22145519 79.7111831,6.58053933 C76.0623803,12.3313808 70.2844225,12.6610873 64.2168169,13.6884611 C57.5764648,14.8126333 50.9027324,16.025784 44.5182254,18.2259405 C38.4125915,20.3312008 32.5773803,23.39578 27.9548451,27.9736274 C26.9084366,29.0100892 25.9298451,30.1143945 25.0061831,31.2673104 C25.8998451,31.3799601 26.7861127,31.5553808 27.6609718,31.8303476 C28.6968169,32.155827 28.2516761,33.7876626 27.2116056,33.4607037 C26.0872394,33.107326 24.9504085,32.9325393 23.8019577,32.845463 C20.6610423,37.1439053 18.2120282,42.0178544 16.0942817,46.8152947 C12.0322394,56.0134708 9.38822535,65.8091342 8.17153521,75.7821205 C8.83956338,75.3816117 9.5196338,75.0001245 10.2166056,74.6452673 C11.1850563,74.1526098 12.0392113,75.6117722 11.0697042,76.1052751 C9.99308451,76.6530951 8.94730986,77.2569229 7.93407042,77.9116861 C7.49146479,82.2771264 7.31991549,86.6706763 7.42385915,91.0572517 C7.67104225,101.514864 9.08230986,112.278935 12.2745634,122.256782 C13.8400563,127.153768 15.9147042,132.010809 19.0055493,136.149048 C20.4041408,138.023514 21.9928732,139.714316 23.8647042,141.124023 C24.7710423,141.808798 25.7301972,142.419811 26.742169,142.935295 C28.0456901,143.603162 29.7442817,143.822966 30.8682254,144.767702 C31.2379437,145.078598 31.5231549,145.488406 31.7386479,145.951263 C31.614,146.830481 31.5992113,147.711811 31.8400563,148.591029 C31.9161127,148.865995 32.1231549,149.089815 32.3787887,149.197604 C32.3830141,149.27369 32.3830141,149.347663 32.3830141,149.419522 C32.3830141,149.453338 32.4337183,149.461792 32.4400563,149.428187 C32.4506197,149.362457 32.4611831,149.296939 32.4717465,149.229518 C32.5541408,149.256782 32.6407606,149.269674 32.729493,149.269674 C35.9386479,149.281721 39.1518169,149.203522 42.3651972,149.094465 C42.1167465,148.33297 41.8475915,147.578027 41.5892113,146.816532 C41.2382958,145.782183 42.8711831,145.342363 43.2189296,146.367201 C43.5212535,147.257408 43.8373099,148.139796 44.118507,149.033173 C47.5615352,148.905095 51.003507,148.751232 54.4393521,148.637737 C61.7470986,148.394473 69.0527324,148.31416 76.3623803,148.160085 C87.714,147.919357 99.1482254,147.426488 110.51738,147.908578 C110.910549,147.073745 111.35062,146.258144 111.767873,145.434723 C112.260127,144.462935 113.717873,145.319537 113.22731,146.288156 C112.937239,146.860281 112.636817,147.42522 112.351394,147.996289 C114.654,148.115913 116.954282,148.274003 119.249704,148.489792 C123.166606,148.85733 127.04569,149.510402 130.958366,149.916406 C134.936324,150.330441 138.828085,150.25668 142.774563,149.599381 C143.484423,149.481025 143.902732,149.051772 144.075972,148.519169 C144.082099,148.517056 144.086535,148.51304 144.090549,148.506488 C144.293366,148.269776 144.483718,148.073432 144.679986,147.902027 C144.914704,147.750066 145.168225,147.620931 145.466113,147.506802 C146.021746,147.295451 146.60062,147.166528 147.187944,147.079874 C147.834423,146.982864 148.489352,146.974199 149.135831,146.894097 C149.68069,146.824351 150.213296,146.720578 150.745479,146.59398 C151.702732,146.365721 152.611183,146.067717 153.515408,145.672281 C154.303437,145.327991 155.015197,144.833432 155.687239,144.294277 C157.07738,143.277682 158.281394,141.980203 159.333718,140.631577 C159.946394,139.84324 160.523155,139.025314 161.047099,138.173784 C161.959775,136.698348 162.737239,135.166058 163.523155,133.621087 C163.808366,133.163303 164.068648,132.694528 164.306535,132.215819 C162.77062,131.763107 161.219915,131.394089 159.591676,131.367882 C158.503225,131.35034 158.503437,129.659537 159.591676,129.677079 C161.45907,129.70688 163.225479,130.143318 164.980479,130.66324 C165.066042,130.436038 165.148014,130.207146 165.223859,129.975295 C165.433014,129.491514 165.606254,128.994629 165.749915,128.491616 C165.834211,128.263357 165.91893,128.035099 166.003437,127.806841 C166.193577,127.016391 166.383718,126.223827 166.575972,125.431263 C166.958366,124.163162 167.260268,122.876038 167.48231,121.572007 C167.668225,120.713925 167.811887,119.849502 167.90907,118.974512 C168.204845,116.854668 168.44569,114.739052 168.462592,112.59596 C168.437239,111.275021 168.352732,109.956195 168.20907,108.64371 C168.147803,107.751811 168.044282,106.86414 167.904845,105.982809 C167.723155,104.672438 167.543577,103.374958 167.241465,102.081283 C167.015408,101.206504 166.789352,100.331303 166.563296,99.4563123 C165.999211,97.6325706 165.333718,95.8443358 164.566606,94.0964689 C164.524563,93.9867781 164.310972,93.7456274 164.18231,93.7435139 C164.085127,93.7414004 163.949704,93.8301675 163.99407,93.948735 C163.998507,93.9590912 164.002521,93.9717722 164.006958,93.9823397 C163.962592,93.8830051 163.920338,93.7815569 163.875972,93.6822223 C163.837944,93.5892282 163.690056,93.4034513 163.575972,93.4055648 C163.569634,93.4055648 163.563085,93.4055648 163.554845,93.4074669 C163.584423,93.3865432 163.611887,93.3588564 163.639352,93.3273652 C164.397803,92.4291264 164.890056,91.2474669 165.433014,90.2076235 C165.883014,89.3495413 166.307662,88.444962 166.430197,87.4748642 C166.537732,86.6233339 166.392169,85.7840618 165.857662,85.0950599 C165.249211,84.3109503 164.104141,83.9432008 164.740056,82.8103632 C165.462592,81.5211264 166.525268,80.4030834 165.466817,78.9384258 C164.928085,78.1923593 164.074563,77.7825511 163.440761,77.1334943 C162.711887,76.3832008 162.365197,75.3792869 162.384423,74.354238 C162.428789,74.3796 162.487944,74.3671303 162.50907,74.3035139 C163.121746,72.4520853 162.678085,70.4191068 162.05062,68.6160775 C161.708366,67.637737 160.983507,67.3691108 160.140761,67.3207115 C163.791254,60.1876391 167.207451,52.9402262 170.252028,45.5260579 C170.353437,45.2830051 170.452732,45.0401636 170.551817,44.7968994 C170.699915,44.4333769 170.387239,43.9495961 170.025972,43.8690716 C167.393577,43.2920853 164.651324,43.1082106 161.970338,42.8548016 Z" id="ðŸ–-Ink" fill="#000000"></path>
                    </g>
                    <g id="head/No-Hair-1" transform="translate(78.591549, 38.043053)" fill-rule="evenodd">
                        <path d="M84.9435732,47.3890709 C83.0314877,39.3253229 78.8510905,31.8210772 72.1584085,25.7563303 C52.0186901,5.83741057 15.0335493,16.6490348 15.2010845,46.6654262 C14.4787606,50.1713049 14.1855211,53.7760955 14.4246761,57.3515084 C14.5235493,58.8770348 15.1835493,61.0059663 14.2968592,62.3788978 C12.2967887,64.947438 11.1343944,66.8407139 11.8150986,70.2574027 C12.383831,73.2406121 14.4132676,75.3541151 17.1521408,76.4776532 C18.7947465,76.9491757 20.3532676,77.9763382 20.9617183,79.5420211 C24.6179155,86.2384438 27.3265775,91.8083695 33.0905915,96.3720564 C34.5779155,97.5469526 49.8326771,104.593794 54.8589718,104.593794 C69.5740208,104.593794 88.1203099,99.2614262 88.4281268,82.8183734 C88.4813662,79.2068196 87.8477746,75.553207 87.4503803,71.9701855 C86.4830201,63.7934533 86.8243089,55.3206091 84.9435732,47.3890709 Z" id="ðŸŽ¨-Background" fill="#FFFFFF"></path>
                        <path d="M84.6124648,43.355744 C84.6171127,43.2559867 84.7599296,43.2335836 84.7876056,43.3320728 C85.3345775,45.2733252 85.644507,47.2509299 86.0723239,49.2224055 C86.4842958,51.1213879 86.8732394,53.0258654 87.1969014,54.9415444 C87.8076923,58.5570001 88.3223552,62.1818202 88.8010428,65.816171 L88.92,66.7249573 C89.7519718,73.1197832 91.1260563,79.7817558 89.9245775,86.2139906 C88.8992958,91.7025464 85.4617606,96.126108 81.0316901,99.3692783 C76.8369718,102.439987 71.7511268,104.410617 66.7014085,105.530985 C61.2815493,106.733779 54.8573239,107.092652 50.4475352,103.11673 C48.6821831,101.524629 51.0887324,98.3657871 53.0038732,99.8025464 C57.5009134,103.175443 63.2216981,102.181115 68.2960786,100.83899 L68.4496479,100.798218 C72.9033803,99.6114857 77.3866901,97.8126834 80.9224648,94.7781159 C84.8315493,91.4229299 86.7644366,86.7664603 86.9877465,81.6593918 C87.1130357,78.7900625 86.8456283,75.924074 86.5571871,73.0716598 L86.5250704,72.7547812 C86.1940141,69.4928008 85.8466901,66.2322998 85.5261972,62.9690513 C85.2337746,59.99338 84.9814723,57.0004025 84.8481318,54.0114263 L84.7859087,52.5038855 C84.6563278,49.4644407 84.4818739,46.3805802 84.6124648,43.355744 Z M31.8710915,18.1010959 C39.1889789,14.289816 47.5991197,12.9257613 55.7430634,14.2048532 C63.5722183,15.4344892 70.7574296,19.4759295 76.1280634,25.2709432 C78.7501056,28.1002896 81.0774296,31.3730489 82.5647535,34.9484618 C83.3035563,36.7246497 83.882007,38.5775577 84.1900352,40.4805558 C84.3484859,41.4588963 84.5041901,42.4725323 84.5339789,43.4643992 C84.5614437,44.3827162 84.2918662,45.2439687 84.3237676,46.1775029 C84.3286268,46.323546 84.1048944,46.3516556 84.0708803,46.2117417 C83.8165141,45.1708415 83.2036268,44.383773 82.8191197,43.3950763 C82.5317254,42.6568297 82.2057342,41.9360992 81.8738499,41.2175705 L81.5886972,40.6018708 C80.7609507,38.8123679 79.7715845,37.0964149 78.7927817,35.386591 C76.8218662,31.9428493 74.292993,28.8131742 71.3318662,26.1723523 C66.1327817,21.5357495 59.4628521,18.542818 52.5013732,18.0038748 C45.2758099,17.4442192 37.9469366,19.1671468 31.7762324,22.9837104 C25.6059507,26.8000626 20.9403169,32.7326654 18.5179225,39.5632955 C17.2957394,43.0102074 16.6207394,46.601683 16.4637676,50.2533933 C16.384331,52.101863 16.4584859,53.9657613 16.587993,55.810638 L16.6523211,56.6903966 C16.7276996,57.7454264 16.7793647,58.7963928 16.6217958,59.8258708 C17.7347535,59.4786223 18.9013732,59.3346928 20.0722183,59.5065205 C21.812007,59.7618317 22.8514437,60.4753503 23.6318662,62.0304658 C23.6726408,62.1116243 23.5908803,62.1927828 23.5099648,62.1524149 C22.4982042,61.6472877 20.8613028,61.9131663 19.7897535,62.1779883 C18.6746831,62.453589 17.6703169,62.9329315 16.7227817,63.5809315 C14.9698944,64.7790763 13.5958099,66.6357886 13.2586268,68.7659883 C12.9326408,70.8236947 13.7770775,72.9071859 15.1955282,74.3819883 C15.925669,75.1415812 16.7984155,75.7982466 17.7755282,76.2074207 C18.9613732,76.7043053 20.1351761,76.6888767 21.184331,77.5091272 C21.8329225,78.0161566 21.676162,78.8837495 21.2363028,79.4467867 C23.4497535,81.8747789 25.4126408,84.5310294 27.6258803,86.9685323 C28.6517958,88.098364 29.6695318,89.2295316 30.6525284,90.3957307 L31.0194718,90.8347632 C32.0010211,92.0198043 33.5627113,93.2716321 34.0112324,94.7620744 C34.2903169,95.6892681 33.2977817,96.9019961 32.2944718,96.4795068 C30.7554637,95.831228 29.6568196,94.1445712 28.6168636,92.8509346 L28.5491197,92.7671389 C27.4585563,91.426544 26.4903169,90.0113425 25.6051056,88.5282975 L25.3140415,88.0397304 C23.7133465,85.346632 22.1264155,82.5535515 21.1057394,79.5949432 C21.0383451,79.6642661 20.9669366,79.7274599 20.8917254,79.7809315 C19.4213028,80.8269041 17.2836972,80.0227162 15.8151761,79.3434364 C14.428838,78.702411 13.1578521,77.7377987 12.1672183,76.5751703 C10.0127113,74.046998 9.01954225,70.7727593 9.73911972,67.491546 C10.3486268,64.7120783 12.274331,62.0084853 14.7989789,60.6025832 C13.6336268,59.2605088 13.1510915,57.4513503 12.8299648,55.6825597 C12.4201056,53.4247045 12.3383451,51.1108415 12.4496831,48.8212838 C12.6717254,44.2609785 13.8448944,39.7657691 15.6584155,35.58991 C18.9030634,28.1180431 24.6394014,21.8679922 31.8710915,18.1010959 Z M16.4694085,67.960955 C18.0053239,67.6730959 19.436662,67.6035616 20.9180704,68.2536751 C22.5249718,68.9593738 23.6558873,70.1243366 24.7071549,71.4892368 C25.903312,73.0417738 22.8376905,74.7378618 22.0647287,72.6768079 L22.0420141,72.6131977 C21.8349718,72.0030294 21.4641972,71.4131507 20.9945493,70.8701918 C20.8536338,71.0861918 20.6651831,71.276407 20.4437746,71.3852524 C20.1756761,71.517135 19.7662394,71.4258317 19.7018028,71.0832329 C19.6303944,70.7030137 19.7094085,70.2422701 19.9287042,69.9203836 L19.9587042,69.8764227 L19.9587042,69.8764227 C18.8930704,69.0185519 17.6113099,68.3918982 16.4694085,68.1902701 C16.3553239,68.1699804 16.3565915,67.98209 16.4694085,67.960955 Z" id="ðŸ–-Ink" fill="#000000"></path>
                    </g>
                    <g id="face/Awe" transform="translate(112.183099, 77.354207)" fill="#000000" fill-rule="evenodd">
                        <path d="M19.9288732,39.964375 C19.9732394,39.923373 20.0433803,39.9090012 20.096831,39.9426059 C21.0109859,40.5208603 21.1191549,42.4654943 21.129507,43.5886098 C21.5076761,43.687099 21.8811972,43.7991147 22.2344366,43.8773143 C22.9845211,44.0433511 23.7387972,44.1881514 24.4915318,44.3408241 L25.0557042,44.4572595 C26.9414789,44.8548094 28.8625352,45.149009 30.7842254,45.2963202 C32.6492958,45.439193 34.5684507,45.4913965 36.4282394,45.2510912 C37.226831,45.1477409 38.0207746,44.9752791 38.7925352,44.7451186 C39.7047887,44.4728994 40.431338,44.0216665 41.2797887,43.6264415 C43.4038732,42.6366881 45.1840141,45.5370481 43.1397887,46.8097996 C41.385,47.9018466 38.9909155,48.2955922 36.9652817,48.4646724 C34.8948592,48.6373456 32.8324648,48.4477644 30.7869718,48.1201714 C28.5756338,47.765737 26.4097183,47.22151 24.3124648,46.432328 C23.4256866,46.0987115 22.5674897,45.6942355 21.7295749,45.251947 L21.5015493,45.1304102 C21.3623239,45.0555922 21.2171831,44.9797174 21.0711972,44.9027859 C20.9142254,46.3034043 20.4619014,47.6562575 19.9153521,48.9566959 L19.9024648,48.9338701 C19.6035211,49.9597644 18.5235211,50.5944493 17.4490141,50.1413143 C16.187805,49.6098301 16.092005,48.2144991 16.8258402,47.2240956 L16.8608451,47.1779718 C17.723662,46.0675374 18.2642958,44.6899562 18.7341549,43.3768368 C18.9752113,42.7036861 19.1983099,42.0142614 19.391831,41.3256822 C19.5319014,40.8275295 19.5369718,40.326418 19.9288732,39.964375 Z M52.4285797,28.8108977 C51.6810471,31.0709693 50.0506498,32.8113985 47.7794858,33.5766183 C45.5286407,34.3351334 43.0252653,34.058632 40.7244726,33.6485532 C40.2211742,33.5588484 39.7109851,33.4597958 39.2017609,33.3442852 C39.618502,33.6025254 39.9866387,33.9660159 40.3389247,34.3503725 C40.8597561,34.9186182 41.3321703,35.5174474 41.4754504,36.2287556 C41.617647,36.9344868 41.3936428,37.47141 40.9850876,37.876636 C40.356612,38.4999904 39.3428168,38.8357471 38.4841179,39.0213183 C36.561246,39.4371097 34.6350248,39.3724027 32.7215957,38.9462102 C32.2330383,38.8374263 31.9017528,38.5753196 31.7157941,38.2335338 C31.4898643,37.8182823 31.4713902,37.3019286 31.6010046,36.8315974 C31.7305263,36.3616022 32.0104693,35.928259 32.4167557,35.688394 C32.7511656,35.4909638 33.1694607,35.4367937 33.6442181,35.5948171 C34.5970813,35.9119739 35.5431305,36.122105 36.5495748,36.1463873 C36.9755634,36.1562724 37.4044024,36.1436714 37.8297292,36.1045709 C38.0702216,36.0824622 38.3102746,36.0518186 38.5488836,36.0135555 C38.4083197,35.8263346 38.2718181,35.6356328 38.1384118,35.4429565 C37.9807683,35.2152747 37.8272244,34.9845142 37.6806672,34.7500548 C37.2568397,34.0710077 36.9038771,33.3729589 36.5937772,32.636158 C36.4942893,32.4001429 36.4020605,32.1630817 36.3135123,31.9252088 C36.3007575,31.8909448 36.2880716,31.8566437 36.2753654,31.8222475 C36.2480292,31.7994097 36.2209046,31.7763415 36.1939893,31.7530477 C35.5874158,31.2280894 35.0788521,30.5813546 34.7191265,29.7803615 C33.7452276,27.6106609 33.9037924,24.9174592 34.4947685,22.6645732 C34.9683232,20.8587544 36.0137139,19.1884783 37.3947991,18.0537659 C37.6359883,17.6568493 37.7951551,17.4160737 37.9902761,17.2133047 C38.7839924,16.3871897 39.8915581,15.8300266 40.972422,15.4911039 C43.3864569,14.73381 46.0155693,15.2771248 48.0619069,16.718998 C49.9513441,18.0503098 51.4304886,20.0469255 52.2297932,22.2676038 C52.9867466,24.3706193 53.1344485,26.6773243 52.4285797,28.8108977 Z M19.5469014,15.0758489 C22.4178169,15.0513323 25.3388028,15.8992697 27.6684507,17.5962012 C29.8973239,19.2200055 31.6470423,21.6173519 31.6449353,24.4729057 C31.6428169,27.2532188 30.1571831,29.9868235 28.509507,32.1394262 C26.6600704,34.5560055 24.243169,35.7211796 21.2042958,35.7480211 C19.62471,35.7621443 18.0335214,35.622188 16.4652523,35.4299982 L15.6238641,35.3238517 C14.4651874,35.1743553 13.2944846,34.997401 12.1962676,34.5991209 C6.96866197,32.7022521 6.80683099,25.8570387 8.74288732,21.4814536 C10.2378169,18.1032305 14.0214085,14.8087022 17.7942254,15.2041386 C18.3627465,15.1244595 18.9464789,15.0811327 19.5469014,15.0758489 Z M24.3957042,18.2949252 C20.8005634,16.6806317 16.4323944,17.1639898 12.945,18.8867061 C11.5635211,20.3944791 10.5538732,22.2947295 10.1452817,24.0392149 C9.70901408,25.9014223 9.7728169,27.9073479 10.4288028,29.7122795 C11.2297183,31.9156063 13.2019014,32.4613127 15.3293662,32.7998959 L16.1553382,32.9296467 L16.5018568,32.9821811 C18.5922852,33.2941167 20.8776953,33.5367409 22.8866197,33.146299 C25.1255103,32.7107483 26.5473856,30.9013617 27.666494,29.0462263 L27.7187324,28.9592384 C28.8809155,27.0154497 29.8538028,24.6514967 28.8790141,22.4242873 C28.0502113,20.5312227 26.2398592,19.1229957 24.3957042,18.2949252 Z M45.6155704,18.8574129 C44.3817676,18.1734834 42.9745141,18.0492094 41.6422606,18.5069941 C41.0690418,18.7039229 40.5737874,19.0231094 40.0935106,19.3809254 L39.9020493,19.5259139 C39.3114595,19.97941 38.7598695,20.2091034 38.3168224,20.8215954 L38.2596549,20.9037065 C38.0361338,21.2376399 37.6450775,21.3712133 37.2888803,21.3268297 C36.8737394,22.4717143 36.7024014,23.7098043 36.6989491,24.9286614 L36.6992914,25.0901659 L36.7014033,25.2549084 C36.7280219,26.6956049 36.9792827,28.4580906 38.1124014,29.4236595 C39.1459479,30.3042336 40.7109271,30.5156026 42.1080725,30.6382113 L43.1848466,30.7280436 L43.4710294,30.7496553 C44.94368,30.8521439 46.5574014,30.8171914 47.7916268,29.9450607 C48.8665563,29.1854677 49.3735986,27.8962309 49.505007,26.6232681 C49.8157817,23.6159648 48.2942324,20.3421487 45.6155704,18.8574129 Z M18.7595493,19.1352329 C20.739338,18.1241331 23.1175775,18.3775421 24.7946197,19.6447984 C24.6456761,19.6739648 24.4990563,19.7111624 24.3528592,19.784501 C23.9723662,19.9753503 23.736169,20.3574716 23.646169,20.7641096 C23.5447606,21.2237965 23.7828592,21.6589667 24.2364507,21.803953 C24.6310986,21.9299178 25.0990563,21.9876164 25.4656056,21.7477339 C25.6576479,21.6221918 25.7918028,21.4567045 25.8799014,21.2483131 L25.8923662,21.2176673 L25.9078534,21.1951766 L25.9137283,21.1846538 C25.9150788,21.1806471 25.9081408,21.1882661 25.8972254,21.205409 C25.9084225,21.1794129 25.9187746,21.1534168 25.9291268,21.126998 C25.9445493,21.0955068 25.959338,21.0638043 25.9713803,21.031045 C25.9927183,21.0126575 26.0121549,20.9921566 26.0318028,20.9716556 C26.3364507,21.4406419 26.5756056,21.9702857 26.727507,22.5595303 C27.7022958,26.3416438 23.7051127,30.2666301 20.1340563,30.659319 C18.7844789,30.8076869 17.5538451,30.4862231 16.5325775,29.8525949 C16.5418732,29.8401252 16.5522254,29.8289237 16.5606761,29.81582 C16.9709577,29.8895812 17.4606761,29.7059178 17.6096197,29.2481331 C17.9896901,28.0804227 17.5999014,26.7144658 16.3280704,26.3329785 C15.5096197,26.0873894 14.6721549,26.3587632 14.0871549,26.9184188 C13.6447606,25.8352485 13.4865211,24.6157573 13.6958873,23.394364 C13.9912394,21.671225 15.0302535,20.1184344 16.6472958,19.4015342 C17.4346901,19.0521722 18.1132817,18.9788337 18.7595493,19.1352329 Z M39.6088732,21.4687092 L39.6691457,21.373732 C40.2809262,20.4319062 41.4503787,19.2765736 42.6623239,19.5942434 C42.8326056,19.6388384 42.999507,19.7106975 43.1499296,19.8039029 C43.8158451,19.713445 44.5130282,19.8647718 45.0855634,20.2170928 L45.0699922,20.2566074 C45.0675117,20.2632141 45.0652817,20.2699303 45.0635915,20.2769049 C45.0114085,20.5060086 45.041831,20.7177816 45.1487324,20.9282865 C45.2647183,21.1563335 45.4301408,21.3725448 45.6540845,21.5033706 C45.8076761,21.5929832 45.9883099,21.6401143 46.1653521,21.6365213 C46.425,21.6318716 46.6535915,21.5175311 46.8411972,21.3429558 C46.9432394,21.2482708 47.0144366,21.1094137 47.0537324,20.9665409 C47.1462676,21.055308 47.2360563,21.15422 47.3216197,21.266447 C48.7267606,23.1149166 48.5326056,26.0852337 46.8840845,27.7329205 C46.8175352,27.7992845 46.7467606,27.859308 46.676831,27.9205996 C46.0075352,28.8422982 44.9759155,29.4678951 43.736831,29.5944939 C42.5896479,29.7117933 41.4424648,29.3723648 40.5627465,28.6765996 C40.6335211,28.6389793 40.6996479,28.5901573 40.7566901,28.5254841 C40.9069014,28.3553472 41.030493,28.187535 41.1217606,27.9797777 C41.1447183,27.9275037 41.166831,27.874854 41.1877856,27.8217033 L41.2183099,27.7415859 C41.2236066,27.7268669 41.2704369,27.59169 41.2579857,27.6154357 L41.2551152,27.6209201 L41.2717255,27.5819677 C41.4291745,27.1888165 41.3655452,26.739377 40.9918618,26.4927771 L40.9506338,26.4671436 C40.8285211,26.3959186 40.6772535,26.3623139 40.5240845,26.3618912 C40.1425352,25.8945957 39.5746479,25.7874411 39.0416197,25.9239734 L39.022903,25.7731006 C39.0200704,25.7479186 39.0176056,25.7226975 39.0158451,25.6974059 C38.6028169,24.3276446 38.8020423,22.7710497 39.6088732,21.4687092 Z M21.2715423,7.67810254 L21.4087039,7.65675091 C22.4456565,7.50683175 23.1507148,7.6794499 23.8249225,8.56598513 C24.1462606,8.98847436 24.0471761,9.6265409 23.8249225,10.0583295 C23.1070352,11.4534528 21.1321056,11.1649597 19.8019648,11.4420399 C18.5033028,11.7123569 17.2078099,12.0803178 15.9925986,12.6158795 C14.752669,13.1624313 13.5887958,13.8089519 12.4538662,14.5471984 C11.4273169,15.2152767 10.4962606,16.219402 9.32351408,16.6080751 C9.27069718,16.6256172 9.20710563,16.5782748 9.21029329,16.5222669 C9.29393662,15.1880125 10.4079507,13.9632376 11.2707676,13.0130067 C12.2687958,11.9141965 13.4825282,10.9386035 14.7465423,10.1629479 C16.0509085,9.36277573 17.4609085,8.70399687 18.9207676,8.24452133 C19.6895704,8.00252524 20.4761197,7.81019648 21.2715423,7.67810254 Z M37.0693521,9.48975499 C38.3749859,7.57978239 41.6206901,7.94605245 43.535831,8.45646341 C45.9370986,9.09600939 48.5390704,10.3896845 50.2228732,12.2622481 C51.7311127,13.9397354 49.4745634,16.1191796 47.778507,14.707571 L47.3258774,14.3320817 L47.0362039,14.0940718 C45.7341761,13.0302316 44.4447855,12.0674189 42.8580845,11.3580916 C40.997662,10.5268509 39.1125211,10.1219037 37.1462535,9.6789135 C37.0689296,9.66158278 37.023507,9.55675303 37.0693521,9.48975499 Z" id="ðŸ–-Ink"></path>
                    </g>
                    <g id="facial-hair/Full" transform="translate(104.577451, 109.479380)" fill="#000000" fill-rule="evenodd">
                        <path d="M24.8714257,20.1190753 C26.5818995,16.1103389 30.3151083,13.1641387 34.613341,12.0870037 C37.7697106,11.2980357 41.0822108,11.3232133 44.2997667,11.6363462 C45.9855551,11.79926 47.793716,11.9327646 49.3824502,12.5590305 C50.7390983,13.094107 51.8446716,14.1054418 52.6759615,15.2925964 C53.6654918,16.6993673 54.3385412,18.3094631 54.8111527,19.9597583 C54.8782466,20.1943964 54.9413318,20.4307272 55.0001973,20.6683274 C54.7946957,21.913454 54.358374,22.9732397 53.2055395,23.7560721 C52.0805554,24.5204973 50.7382544,24.8332071 49.4001731,24.9442846 C49.268939,24.8812349 49.1421356,24.8164925 49.0258817,24.7500576 C46.9406944,23.5559209 45.473067,20.733916 42.8412117,21.1158113 C40.4925014,21.4568723 38.9463867,24.4132281 37.5496509,26.1468844 C33.0661714,26.6694779 28.5860676,25.3217368 24.9380977,22.7570087 C24.7528508,21.8791786 24.7420905,20.9939433 24.8714257,20.1190753 M58.0474865,17.0780889 C57.6888081,16.0711973 57.2370843,15.0960421 56.7015987,14.1773777 C54.9314154,11.1393534 52.2138994,8.71870887 48.987904,7.33499979 C41.3564943,4.06614578 31.4822899,6.37042339 25.3193517,11.7315555 C23.2141207,13.5642296 21.0854701,16.2573844 20.4417479,19.1542873 C20.2495385,19.192371 20.0680894,19.2924466 19.9187104,19.4333564 C15.466035,16.6289124 10.8806486,13.9306797 7.29259907,10.0431766 C4.68690625,7.21863282 2.87452557,3.87593867 1.76473252,0.202762327 C1.67400799,-0.0995802223 1.18662739,-0.0553607732 1.2013965,0.279141375 C1.20561624,0.357424611 1.20983599,0.43549627 1.21405573,0.513779505 C1.16763853,0.369907613 0.94821177,0.443959322 0.931332788,0.583599688 C0.334238806,5.0457441 -0.412656141,9.77659043 0.275162369,14.2620082 C0.686587551,16.9384486 1.90187424,18.8978568 3.52647625,21.0136199 C5.26712125,23.2815064 7.23774238,25.3909222 9.25267083,27.4138033 C10.5312537,28.69786 11.8668031,30.1788941 13.4323287,31.1204087 C15.2531489,32.2142583 17.3187143,33.0459647 19.2619071,33.8899427 C21.2388578,34.7510582 23.2453468,35.5465852 25.2898135,36.2363239 C29.3766369,37.620033 33.6006021,38.576358 37.8984129,38.9952791 C41.3396153,39.3295696 45.2724181,39.6936925 48.5701492,38.3986339 C51.0977767,37.406341 53.1380236,35.6123854 54.756296,33.4540955 C56.5180397,31.1034826 57.9107667,28.4259844 58.6806593,25.6024985 C59.480723,22.6696277 58.2160653,17.550962 58.0474865,17.0780889" id="ðŸ–-Ink"></path>
                    </g>
                    <g id="accessories/*-None" transform="translate(88.521127, 88.978474)"></g>
                </g>
            </g>
        </g>
    </g>
</svg>