<?xml version="1.0" encoding="UTF-8"?>
<svg width="240px" height="324px" viewBox="0 0 240 324" version="1.1" xmlns="http://www.w3.org/2000/svg" xmlns:xlink="http://www.w3.org/1999/xlink">
    <!-- Generator: Sketch 62 (91390) - https://sketch.com -->
    <title>peep-66</title>
    <desc>Created with Sketch.</desc>
    <g id="Introduction" stroke="none" stroke-width="1" fill="none" fill-rule="evenodd">
        <g id="variations" transform="translate(-2286.000000, -758.000000)">
            <g id="images" transform="translate(126.000000, 110.000000)">
                <g id="a-person/bust" transform="translate(2160.000000, 648.000000)">
                    <g id="body/Tee-Arms-Crossed" transform="translate(31.056338, 135.052838)" fill-rule="evenodd">
                        <path d="M139.422507,46.0695663 C137.587859,45.4152258 135.819549,44.6594372 134.208423,43.5477346 C129.564127,40.0894098 126.535817,34.8849088 123.674408,29.9538951 C119.643845,22.7821456 116.772507,15.1401417 114.787648,7.16800861 C113.934761,3.74286575 113.645113,-0.228406262 111.707366,-3.26508728 C107.31469,-9.62356086 94.4339155,-8.79971742 87.5941268,-7.68357652 C83.0138451,-6.87283679 82.0671549,-1.74505597 81.0268732,2.04931585 C80.1606761,5.20202818 79.5936338,8.39045871 79.1176479,11.621582 C77.9852535,12.3663804 76.7068732,12.971265 75.4882817,13.4981613 C62.2082113,17.5719382 59.8741268,25.1243295 54.8018028,36.7904431 C46.2346901,53.7468658 22.9878592,60.3860125 19.4763803,80.4535115 C17.2139155,93.7020047 23.6476479,106.165966 30.2808169,117.179852 C36.4582817,129.210122 45.0824366,134.984212 58.8167324,132.141973 C71.6987746,129.251124 84.0790563,124.415218 96.7344085,120.678333 C102.863915,119.170772 108.983704,115.249378 115.43138,116.616604 C128.716944,119.601504 142.367155,121.00487 155.982507,120.617465 C175.098845,121.390795 175.095887,103.036079 173.133845,88.8221378 C171.759549,66.7020047 160.606732,52.4984196 139.422507,46.0695663 L139.422507,46.0695663 Z" id="ðŸŽ¨-Background" fill="#FFFFFF"></path>
                        <path d="M140.700549,78.0774481 C142.297944,79.1341996 143.641394,80.7364462 144.719915,82.4225988 C140.21738,81.9540352 135.722662,81.4138239 131.237873,80.7987945 C131.824986,80.4234364 132.417592,80.0563209 133.023718,79.7097065 C135.235056,78.4631624 138.231254,76.4441331 140.700549,78.0774481 Z M65.8938592,91.3920939 C65.0688592,91.0689393 64.7496338,89.8105597 64.4280845,89.0892211 C63.4199155,86.8271389 62.4998451,84.526591 61.5425915,82.2425284 C65.1772394,81.2060665 68.7117465,80.0561096 72.4769577,79.5036399 C76.5254789,78.9101683 80.6337887,78.7664501 84.7197042,78.8998121 C92.9959014,79.1699178 101.195197,80.5229824 109.331958,81.9739022 C117.459211,83.4231311 125.586042,84.8155068 133.770127,85.9081879 C141.788366,86.9786771 149.831958,87.7621526 157.890549,88.4498865 C159.456254,88.5836712 162.066887,89.1469198 163.326042,87.9143249 C164.323014,86.9380978 164.355338,85.1376047 163.107803,84.3439843 C162.330761,83.8492133 161.204915,83.8420274 160.317169,83.7278982 C159.199141,83.5839687 158.076676,83.488227 156.951887,83.4136204 C156.493648,83.3833973 156.035408,83.355499 155.576958,83.3276008 C159.256606,81.9396634 163.099775,81.182818 167.08893,81.3937456 C167.314563,82.764775 168.330972,84.1753268 168.887239,85.3060509 C169.858648,87.2800626 170.615831,89.2779569 171.112944,91.4244305 C172.151958,95.9109746 172.197169,100.567444 171.903718,105.143389 C171.634141,108.958685 171.055056,113.178928 168.063507,115.881041 C165.798507,117.926912 162.602873,118.684391 159.638155,118.922583 C156.19238,119.199452 152.693366,118.903773 149.276535,118.441761 C144.484141,117.79355 139.669352,116.936313 134.971183,115.787413 C125.871676,113.562317 117.149704,110.021777 109.102732,105.221589 C105.178437,102.880885 101.43393,100.24746 97.4557606,97.9957339 C93.402169,95.7008924 89.0889296,93.9206888 84.5597746,92.8153268 C79.4912535,91.5782935 74.192662,91.0503405 68.9832254,91.3555303 C68.0792113,91.4083679 66.7731549,91.7363836 65.8938592,91.3920939 Z M60.0201972,89.0951389 C60.5528028,90.8241957 60.960338,92.7984188 62.097169,94.2512407 C63.2232254,95.6909589 64.9220282,96.199045 66.6818873,96.3271233 C68.8038592,96.4811977 70.9507606,96.3824971 73.0773803,96.4615421 C77.439,96.6236477 81.740831,97.3323053 85.9104085,98.6323209 C89.7960423,99.8439922 93.4030141,101.733886 96.8775211,103.830481 C100.090479,105.769409 103.209211,107.850998 106.423225,109.784008 C105.567803,110.176274 104.722099,110.600665 103.871746,110.970106 C102.088225,111.744916 100.293718,112.492462 98.4911831,113.221409 C94.9366056,114.658591 91.3670282,116.0609 87.7609014,117.363663 C80.489493,119.990536 73.098507,122.285589 65.6185775,124.240579 C62.0511127,125.173057 58.4329437,126.262145 54.7266761,126.417276 C51.4401972,126.554654 48.3960423,125.625346 45.7454789,123.670568 C40.2478732,119.616023 35.874,113.763734 32.3382254,107.991123 C30.2375915,104.561542 28.4044225,100.95802 26.8881549,97.2321252 C26.1212535,95.3479374 25.4257606,93.4347945 24.7997746,91.4992485 C24.5061127,90.5904423 24.227662,89.6765636 23.964,88.7584579 C23.8480141,88.3547789 23.7368873,87.9498317 23.6268169,87.5444618 C29.2484366,85.8282975 34.9368169,84.2790998 40.7587183,83.4191155 C43.8670986,82.9598513 47.0168873,82.7273659 50.1592817,82.761182 C51.7190704,82.7778787 53.2780141,82.8622074 54.8295634,83.0232564 C55.6647042,83.10991 56.4964648,83.2215029 57.3246338,83.359726 C57.6668873,83.4165793 58.0186479,83.5006967 58.3714648,83.5626223 C58.9104085,85.4100352 59.4537887,87.2559687 60.0201972,89.0951389 Z M176.226254,81.7498708 C176.529211,81.1367436 176.657028,80.5335499 176.76562,79.8661057 C176.848437,79.3569628 177.068155,78.640274 176.87569,77.9791703 C176.660197,77.2388102 176.073085,76.5766497 175.651606,75.945135 C175.186183,75.2472564 174.721183,74.548955 174.256817,73.8502309 C173.327873,72.4529941 172.401042,71.0544892 171.47569,69.6549276 C167.696746,63.9398043 163.943577,58.2081957 160.184493,52.48018 C156.848577,47.3969941 153.568859,42.2681566 150.131324,37.2532368 C147.191958,32.9649393 143.988085,28.7474442 139.964704,25.4123366 C134.877592,21.1954755 128.820127,19.2089941 122.492873,17.6589511 C121.801817,16.9414168 120.878789,16.5495734 119.892169,16.6290411 C118.498225,15.0475068 117.390338,13.9427789 116.888155,11.9315695 C116.647521,10.9682348 116.722944,8.26147162 115.785127,7.69145988 C114.671113,7.01429354 114.08931,7.91055311 113.782099,8.92067319 C112.754282,12.3001644 113.934,16.843773 116.648789,20.2289706 C115.504986,24.183546 113.988507,29.803773 111.283225,32.9719139 C108.386324,36.3642975 104.380056,37.4202035 100.057521,37.4897378 C91.8142817,37.6224658 83.5797042,34.5576751 77.292169,29.2460196 C75.3810423,27.631726 73.6061831,25.8286967 72.000338,23.9111155 C70.7959014,22.472454 69.3711127,20.2522192 68.4288592,18.5740978 C68.4288592,17.9201328 67.657034,17.2362505 75.5147746,16.7078748 C83.3725153,16.179499 83.9684366,5.41606262 84.1431549,3.95119374 C84.2851268,2.76171429 84.8889296,0.915358121 84.0510423,-0.0545283757 C83.6954789,-0.466450098 82.9657606,-0.53281409 82.5149155,-0.252986301 C81.6647746,0.275178082 81.3854789,1.62570646 81.1182254,2.54275538 C80.7438592,3.82755382 79.5199859,11.8011663 77.2009014,12.7243444 C76.1151972,13.1565558 74.8699859,13.1645871 73.7215352,13.2444775 C72.3032958,13.3436008 70.8820986,13.4160939 69.4695634,13.5811585 C68.9485775,13.6420274 68.3802676,13.8106849 67.8662535,13.815546 C67.5318169,13.8187162 67.1868169,13.6561879 66.8635775,13.5420587 C65.7725915,13.1563444 64.6824507,13.445683 63.558507,13.5967984 C53.6213239,14.9327436 43.3894225,17.9818943 34.9133662,23.4683366 C27.4425211,28.3040313 22.1792113,35.2585127 18.7061831,43.3895812 C15.1625915,51.6876164 13.1314648,60.6609159 11.4292817,69.4945127 C10.8590704,72.4542622 10.3611127,75.4277495 9.93329577,78.4113816 C9.51984507,81.294411 9.00266197,84.2419022 8.87885915,87.1540978 C8.82984507,88.3063796 9.10512676,89.3768689 9.52871831,90.4293933 C10.0057606,91.6140117 11.1332958,92.0810959 12.2147746,92.6341996 C14.5887887,93.8490411 17.0931549,94.7912407 19.6733662,95.4584736 C21.2496338,98.3271311 22.5761831,101.307804 23.6422394,104.401339 C23.2467465,105.185237 23.238507,106.355906 23.1624507,107.117824 C22.9737887,109.015115 22.8930845,110.922341 22.8761831,112.828297 C22.842169,116.648454 23.0718169,120.464806 23.2518169,124.279045 C23.4343521,128.147601 24.0411127,143.411108 24.1399859,145.275006 C24.2168873,146.722967 24.1133662,148.748337 24.875831,150.033769 C26.0475211,152.009683 28.9393521,151.943108 30.2787887,150.341072 C63.558507,157.498197 126.114993,155.342466 151.309563,151.741479 C154.587631,151.272955 153.558296,151.792626 154.391958,150.964133 C155.017521,150.341918 155.549915,149.276501 155.722944,148.420321 C155.95407,147.277339 155.580972,146.24299 154.926887,145.318121 C154.239211,144.34591 154.11393,142.77135 153.858507,141.615264 C153.254493,138.882294 152.954282,126.87971 152.672028,125.549683 C152.584141,125.135225 152.499,124.697096 152.396324,124.258755 C157.017803,124.696673 161.833225,124.696673 166.229915,123.150434 C168.723085,122.273542 171.048296,120.896172 172.838155,118.929558 C175.005338,116.548274 176.211042,113.550481 176.831113,110.42144 C177.631183,106.386552 177.801042,102.2071 177.643859,98.1054247 C177.425408,93.2578943 176.621746,88.3420978 174.626958,83.891272 C175.283366,83.2815264 175.833507,82.545816 176.226254,81.7498708 Z" id="ðŸ–-Ink" fill="#000000"></path>
                    </g>
                    <g id="head/Buns" transform="translate(78.591549, 38.043053)" fill-rule="evenodd">
                        <path d="M83.9167142,36.707576 C76.9503841,26.8364026 59.4443588,25.7244291 48.3804625,25.786987 C26.5310254,25.6049411 21.9560047,50.7292226 20.8149587,68.3346407 C18.4844201,68.731202 16.2180521,69.5440229 14.680296,71.3761709 C12.8076632,73.6072613 12.160858,77.4367189 13.9164114,79.9318949 C15.0825307,81.5887074 16.9237157,82.1424213 18.8496823,82.2346348 C25.2278532,81.6257227 26.5359126,87.3133039 29.6772951,91.5780699 C37.7383494,102.47225 51.7030949,106.006235 64.511283,106.060351 C68.8617067,106.176159 74.1024438,106.502803 76.8885509,102.407961 C85.6882041,87.1492245 85.8798658,66.9122584 86.4223407,49.620496 C86.4969231,45.1935988 86.4780119,40.5071617 83.9167142,36.707576 L83.9167142,36.707576 Z" id="ðŸŽ¨-Background" fill="#FFFFFF"></path>
                        <path d="M45.3421901,-4.68886967 C46.1297958,-5.87961722 47.8579648,-6.34120626 49.0560634,-5.45797339 C50.053669,-6.07553894 51.3085986,-5.94534716 52.2052183,-5.19441957 C53.2894437,-5.83544501 54.6358521,-5.57675225 55.4862042,-4.68295186 C56.848669,-5.42775029 58.6469789,-4.87760548 59.3764859,-3.46641957 C60.7514155,-3.61901448 62.0471197,-2.71866223 62.413669,-1.41547632 C62.4785282,-1.3628501 62.5425423,-1.30853307 62.6065563,-1.2544274 C63.4302887,-1.21490489 64.2130352,-0.891961644 64.6746549,-0.125605479 C64.9053592,0.257149902 65.011838,0.706903327 64.9962042,1.14756869 C65.488669,1.41387006 65.8864859,1.85073112 66.0569789,2.41693855 C66.2166972,2.94785049 66.1564859,3.47305597 65.9464859,3.93062935 C66.6322606,4.66042192 66.8135282,5.7979092 66.3276127,6.71453542 C66.5287394,7.0594591 66.6333169,7.46715382 66.616838,7.89091115 C66.5925423,8.51841018 66.3016268,9.02417143 65.9059225,9.45596008 C66.4034577,10.3541988 66.2095141,11.5064806 65.4007817,12.1363045 C64.9362042,13.7839914 63.7602887,14.8802654 61.9585986,15.552782 C61.0537394,15.8905198 60.1070493,16.150692 59.1421901,16.3417526 C63.0031056,16.861463 66.8014859,17.774919 70.4500775,19.1368603 C70.648669,19.2110442 70.8170493,19.1820892 70.9457113,19.095647 L70.9457113,19.095647 L71.1861338,19.2201323 C72.1917676,19.7717566 73.1762746,20.3698779 74.1354296,21.0102693 C74.1354296,20.9045941 74.1375423,20.798919 74.1417676,20.6911303 C74.1231761,19.8214239 74.2146549,18.9648211 74.4455704,18.1390755 C74.1434577,17.7271538 73.9174014,17.2575335 73.7944437,16.7735413 C73.4874718,15.5658857 74.0714155,13.8473965 75.1203592,13.4348407 C75.4879648,12.4148642 76.3239507,11.676829 77.3485986,11.3864337 C77.4299366,11.3130951 77.5163451,11.2418701 77.6128944,11.1757174 C77.8285986,11.0273495 78.0645845,10.9261127 78.3071197,10.8673573 C78.4332465,10.3146763 78.7414859,9.80595616 79.2527535,9.44898552 C79.9742324,8.94491507 80.8275423,8.89017534 81.5771197,9.16514207 C81.7197254,9.11716556 81.8644437,9.07552955 82.0104296,9.03938865 C83.2171901,8.01180352 85.0981056,8.08746693 86.1599366,9.28983875 C86.8888099,8.95653933 87.7478239,8.94174481 88.4940211,9.39023014 C89.0910634,9.74910294 89.4626831,10.32778 89.6080352,10.9628877 C90.7383169,10.9975491 91.7722606,11.7478427 92.0982465,12.8675765 C93.1397958,12.98551 93.991838,13.8008994 94.1726831,14.8272164 C94.8371197,14.9197879 95.4508521,15.2321636 95.824162,15.8533221 C95.9967676,16.1405472 96.0903592,16.454825 96.1146549,16.7695256 C96.4505704,16.9307859 96.751838,17.1748955 96.9793732,17.4938231 C97.3778239,18.0526333 97.4547254,18.7050716 97.3083169,19.3190442 L97.3083169,19.3190442 L97.4107817,19.5223632 C97.519162,19.7531577 97.6062042,20.0006489 97.6837394,20.2519444 C98.0340211,20.757283 98.1958521,21.3750599 98.1637394,21.9955843 C98.2381056,22.2580814 98.3101479,22.5212125 98.3699366,22.7856117 C98.6065563,23.8233417 98.6952887,24.9287037 98.5326127,25.9854552 C98.452331,26.4969229 98.3361338,26.9999366 98.1713451,27.4881558 C98.1544437,27.5811499 98.1269789,27.6678035 98.0952887,27.7502301 C98.0044437,28.1348877 97.8882465,28.5132047 97.7403592,28.8830677 C97.3854296,29.3543789 97.0135986,29.813009 96.6227535,30.2568446 C96.2931761,30.7514043 95.9171197,31.2079209 95.4924718,31.6263945 C95.1861338,31.9286254 94.8502183,32.2097213 94.4931761,32.4633417 C93.7843732,33.0316626 92.9912746,33.4748642 92.1451479,33.763146 C91.9940915,33.7314434 91.8421901,33.7067155 91.6900775,33.6824102 C90.7292324,34.2116313 89.2174014,34.2714434 88.2928944,34.2678505 C87.274162,34.2640462 86.3412042,34.0066215 85.5654296,33.5203045 C85.6554296,33.6993182 85.7452183,33.8785432 85.835007,34.058191 C85.8126127,34.0710834 85.7885282,34.0827076 85.7690915,34.0977135 C85.6013451,33.8197879 85.414162,33.5729307 85.1935986,33.3953965 C84.8925423,33.152555 84.4070493,33.1307859 84.1983169,33.5236861 C84.1945141,33.5304493 84.1909225,33.5374239 84.187331,33.5443984 C84.075993,33.7538466 84.0916268,33.9548407 84.1765563,34.1188485 C84.2076127,34.1634434 84.2384577,34.2084611 84.2693028,34.2532673 C84.2802887,34.2659483 84.2908521,34.2794748 84.3028944,34.2913104 L84.3028944,34.2913104 C84.5857817,34.5242184 84.8697254,35.0931734 85.1388803,35.6462771 C85.320993,35.9694317 85.4942324,36.297236 85.6566972,36.6307468 C85.7515563,36.7706607 85.9199366,36.8934552 86.0990915,36.9291734 C86.0640211,37.1954748 86.1865563,37.4708642 86.3876831,37.6073965 C86.4405,37.5008759 86.5047254,37.3918192 86.587331,37.2793808 C87.4953592,36.0455178 89.2793028,35.5131264 90.6227535,36.077009 C90.8906408,36.03178 91.1597958,35.994371 91.4314859,35.9730247 C92.3183873,35.9144806 93.217331,35.9842262 94.0932465,36.1678896 C94.3651479,36.3310521 94.625007,36.5147155 94.8671197,36.7241636 C95.0720493,36.9016978 95.2621901,37.0876861 95.4396549,37.2800149 C95.5769789,37.3829425 95.7119789,37.4919992 95.8444437,37.6057057 C96.3814859,37.8946215 96.7759225,38.448782 97.1071901,39.0004063 C97.370007,39.3721714 97.5996549,39.7671851 97.7984577,40.1856587 C98.7195845,41.7623319 99.7824718,43.7198583 98.9519789,45.2701127 C99.0402887,45.4372908 99.1055704,45.6224337 99.1416972,45.8238505 C99.2564155,46.4631851 99.0208521,46.9520384 98.7117676,47.4267311 C98.752331,47.7577057 98.7749366,48.0785354 98.7924718,48.3606881 C98.8909225,49.9449699 98.5279648,52.1165941 97.1316972,52.763326 C97.1099366,52.7895335 97.0877535,52.8155295 97.0647254,52.8415256 C96.9569789,53.0169464 96.7926127,53.1686959 96.5764859,53.2794434 C96.5228239,53.3168524 96.4685282,53.3523593 96.4135986,53.3827937 C96.3888803,53.4041401 96.360993,53.4214708 96.3354296,53.4417605 L96.3354296,53.4417605 L96.4216268,53.3481323 C95.6492324,53.656281 94.9032465,53.7198975 94.1069789,53.6262693 C93.6147254,53.8042262 93.1214155,53.9371656 92.705007,54.0400932 C91.4055,54.3611342 89.7297254,54.6181362 88.4631761,54.0707389 C88.0940915,53.9113808 87.7879648,53.7002419 87.5578944,53.4485237 C87.5769085,54.429189 87.6056408,55.4096431 87.6481056,56.3903084 C87.7347254,58.8694474 87.7305,61.3464728 87.7114859,63.8277252 C87.6903592,66.6196626 87.6121901,69.4137135 87.4621901,72.2035374 C87.3924718,73.6047898 87.2805,75.0039288 87.1305,76.3988407 C87.0037394,77.7578231 86.8558521,79.114692 86.6847254,80.4673339 C86.2812042,83.2487037 85.6157113,86.0512086 84.8044437,88.7395843 C84.4516268,89.906238 84.065007,91.0876861 83.6255704,92.2416587 C83.4396549,92.7721479 83.2431761,93.2962967 83.0297958,93.8162184 C81.9037394,96.5405237 80.5009225,99.1697213 78.6058521,101.439623 C77.5706408,102.678136 76.4276831,103.791952 75.1516268,104.728234 C74.1269789,105.527138 73.0178239,106.203459 71.7988099,106.736062 C69.1790915,107.88158 66.2551479,108.139428 63.4220493,108.097158 C62.3192324,108.082363 61.1488099,107.883694 60.058669,107.701933 C59.2220493,107.564555 58.3748662,107.38068 57.5361338,107.165103 C56.7924718,106.991796 56.0572606,106.791013 55.3326127,106.556414 C54.4600775,106.326042 53.6234577,105.994222 52.8269789,105.565181 L52.8269789,105.565181 L51.4157113,105.034692 C50.8262746,104.812774 50.2537394,104.548586 49.6981056,104.246355 L49.6981056,104.246355 L48.1643028,103.529878 C47.5283873,103.22342 46.9093732,102.887373 46.3051479,102.51751 C46.2417676,102.483694 46.1699366,102.426629 46.1424718,102.363224 C45.9861338,102.276571 45.8276831,102.194144 45.6713451,102.105377 C45.645993,102.092696 45.665007,102.018723 45.6988099,101.946864 C45.6713451,101.8898 45.6755704,101.826395 45.7516268,101.76933 C45.808669,101.724946 45.8995141,101.737627 45.9945845,101.767216 C45.9861338,101.760876 45.9797958,101.754535 45.9734577,101.748195 C45.8678239,101.69113 45.7643028,101.636179 45.6607817,101.579115 C45.5551479,101.52205 45.5382465,101.374105 45.6375423,101.295905 C45.665007,101.27477 45.6966972,101.264203 45.7283873,101.262089 C45.7262746,101.262089 45.724162,101.259976 45.7220493,101.259976 C45.7030352,101.247295 45.7178239,101.188117 45.7452887,101.122598 C45.6924718,101.054966 45.6755704,100.972539 45.7685282,100.90068 C45.9058521,100.792892 46.2269789,100.991561 46.3431761,101.057079 C46.4762746,101.131052 46.6114859,101.200798 46.7445845,101.272657 C46.7530352,101.253635 46.7699366,101.236727 46.7974014,101.219819 C46.6009225,101.116258 46.4065563,101.010582 46.2121901,100.904907 C46.0917676,100.841502 45.9354296,100.708351 46.0938803,100.583655 C46.2206408,100.482207 46.5481056,100.655514 46.7044437,100.744281 C46.7234577,100.729486 46.7445845,100.723146 46.7699366,100.718919 C46.702331,100.680876 46.6305,100.644946 46.5628944,100.60479 C46.3727535,100.499115 46.5016268,100.169408 46.6981056,100.27931 L46.6981056,100.27931 L46.7678239,100.32158 C46.9093732,100.308899 47.1079648,100.425142 47.1988099,100.475866 C47.8600775,100.892226 48.5488099,101.255749 49.2628944,101.568547 C49.7445845,101.796805 50.2283873,102.02295 50.7143028,102.242755 C51.1917676,102.479467 51.6840211,102.684477 52.1889507,102.857784 C53.458669,103.352344 54.7410634,103.813087 56.0361338,104.240015 C57.8509225,104.736688 59.7290915,105.13614 61.6135986,105.292539 C61.858669,105.311561 62.1037394,105.328469 62.3488099,105.336923 C62.8854296,105.332696 63.4220493,105.330582 63.9565563,105.326355 C64.9981056,105.218567 66.0396549,105.112892 67.0790915,105.007216 C67.4424718,104.956492 67.7974014,104.893087 68.1481056,104.819115 C68.3319085,104.774731 68.5157113,104.728234 68.6974014,104.675396 C68.7607817,104.666942 68.824162,104.654261 68.8875423,104.643694 C69.3333169,104.525338 69.7706408,104.383733 70.2079648,104.21888 C70.4826127,104.106864 70.7551479,103.988508 71.0255704,103.863811 C71.9192324,103.447451 72.7981056,102.897941 73.6262746,102.268117 L73.6262746,102.268117 L76.7382465,99.1697213 L77.686838,97.8762575 C78.9121901,96.1241636 79.8819085,94.1712869 80.686838,92.1782536 L80.686838,92.1782536 L81.9671197,88.4880775 C82.1002183,88.0442419 82.2269789,87.6004063 82.3474014,87.1544571 C82.5903592,86.1568838 82.8333169,85.1593104 83.0762746,84.1638505 C83.1565563,83.7982145 83.2347254,83.434692 83.3107817,83.0711695 C83.7776831,80.8076078 84.0354296,78.5102301 84.2572606,76.2128524 C84.6628944,72.0323436 84.7727535,67.8391538 84.802331,63.641737 C84.8213451,61.133009 84.8002183,58.624281 84.7495141,56.1176665 C84.7199366,54.6635765 84.6988099,53.2094865 84.6776831,51.7553965 C84.6502183,50.2125393 84.6206408,48.6675687 84.5805,47.1247115 C84.5783873,47.0908955 84.5910634,47.0613065 84.6079648,47.0359444 C84.6037394,46.8541832 84.6016268,46.6724219 84.5995141,46.4885472 C84.5974014,46.3680775 84.6438803,46.3152399 84.7114859,46.3046724 C84.6988099,45.2035374 84.6903592,44.1045159 84.6882465,43.0054943 C84.6882465,42.9336352 84.7220493,42.8871382 84.7664155,42.8596626 L84.7664155,42.8596626 L84.7664155,42.5806802 C84.5826127,41.8155922 84.3333169,41.0652986 84.0100775,40.3509346 C83.9002183,40.0930873 83.7776831,39.8415804 83.6424718,39.5964141 C83.4755704,39.2286646 83.2579648,38.8947311 82.9917676,38.5882732 C82.7699366,38.2141832 82.4974014,37.8823632 82.1805,37.5864728 C82.0516268,37.4934787 81.9206408,37.4004845 81.7917676,37.3074904 C81.6840211,37.2504258 81.5255704,37.1510912 81.3861338,37.036962 C81.1347254,36.8826763 80.8854296,36.7262771 80.6340211,36.5719914 C80.4882465,36.4959053 80.5833169,36.30569 80.686838,36.2549659 L80.686838,36.2549659 C80.6635986,36.2380579 80.6382465,36.2253769 80.6107817,36.2021284 C80.3065563,35.914692 79.9896549,35.6441636 79.6600775,35.3905432 C79.6009225,35.4137918 79.5312042,35.4053378 79.4783873,35.3609542 C79.2840211,35.179193 79.0854296,35.0037722 78.8826127,34.834692 C78.4283873,34.5366881 77.9530352,34.2640462 77.4565563,34.0231068 C76.6600775,33.6469033 75.8445845,33.3235374 75.0079648,33.048782 C74.8275423,32.9893926 74.6458521,32.9363436 74.4652183,32.882872 C74.2078944,32.8706137 73.950993,32.8566646 73.6938803,32.845463 C64.1207113,32.4252986 54.5224014,32.6017761 44.970993,33.3725706 C42.6178944,33.5625746 40.2677535,33.7889307 37.9216268,34.0512164 C35.8571197,34.2822223 33.3825423,34.274191 31.4847254,35.2201949 C31.4044437,35.2603515 31.3279648,35.3028329 31.2533873,35.3465824 C31.4014859,36.2963906 31.7887394,37.2237957 32.1261338,38.1192869 C32.6464859,39.5006724 33.1127535,40.9086881 33.0664859,42.4046254 C33.0339507,43.4478505 32.8097958,44.450919 32.4869789,45.4311616 C32.3215563,46.8288211 31.8861338,48.1787155 31.4238803,49.5049386 C29.149162,56.0301675 27.9109225,62.7109503 28.0381056,69.6375335 C28.0414859,69.823099 27.9988099,69.9849933 27.9252887,70.1227937 C27.9669085,70.4256587 28.0083169,70.728735 28.057331,71.0307546 C28.2470493,72.1980423 26.7083873,72.7786215 26.1774718,72.0048681 C26.1417676,72.0401636 26.092331,72.0644689 26.0466972,72.0682732 C25.9114859,72.0809542 25.6896549,71.8590364 25.6262746,71.7575883 C25.5438803,71.605416 25.4572606,71.4574708 25.3643028,71.3158661 C25.3516268,71.3095256 25.3410634,71.3052986 25.3305,71.3010716 C25.3875423,71.4194278 25.4466972,71.5398975 25.5016268,71.6540266 C25.5945845,71.8400149 25.2375423,71.9308955 25.1319085,71.7597018 C25.036838,71.6096431 24.9417676,71.4659249 24.8466972,71.3285472 C24.7917676,71.3687037 24.7305,71.3792712 24.6903592,71.3137526 C24.3502183,70.7515609 23.9572606,70.2696822 23.5262746,69.8596626 C22.8481056,69.3059249 22.1065563,68.9698779 21.2635986,68.7733221 C20.6002183,68.6782145 19.9199366,68.6739875 19.2628944,68.7500736 C18.508669,68.8388407 17.7143028,69.0269425 17.0319085,69.3714434 C16.4762746,69.7539875 15.9185282,70.1365315 15.3607817,70.5190755 C15.2234577,70.6627937 15.0924718,70.8128524 14.9699366,70.9692517 C14.5833169,71.4701519 14.2727535,72.0048681 14.0171197,72.5734004 C14.0065563,72.6093299 13.995993,72.6452595 13.9854296,72.6790755 C13.8290915,73.1567272 13.7276831,73.6470599 13.6833169,74.1500736 C13.6769789,74.786238 13.6727535,75.4202888 13.6664155,76.0564532 C13.7509225,76.8828329 13.9621901,77.685964 14.2854296,78.4489386 C14.4375423,78.8991147 14.6762746,79.3006802 14.9995141,79.6557487 C15.1727535,79.9558661 15.3692324,80.228508 15.5889507,80.4821284 C16.0347254,80.7780188 16.5206408,81.0295256 17.0382465,81.2281949 C17.165007,81.262011 17.2917676,81.295827 17.4206408,81.321189 C18.0861338,81.5769229 18.7748662,81.7143006 19.486838,81.7333221 C20.386838,81.7946137 21.2678239,81.7164141 22.1297958,81.4987233 C22.6621901,81.4036157 23.1776831,81.2493299 23.6762746,81.0358661 C24.1537394,80.7949268 24.6037394,80.5053769 25.024162,80.1672164 C25.0706408,80.1376274 25.1403592,80.1545354 25.2164155,80.1925785 C25.3093732,80.1249464 25.402331,80.0594278 25.4931761,79.9854552 C25.5354296,79.9558661 25.5734577,79.9917957 25.5924718,80.0298387 C25.6009225,80.0234982 25.6093732,80.0171577 25.6178239,80.0108172 C25.7847254,79.8966881 26.2431761,80.2538701 26.0361338,80.4652204 C26.1248662,80.5201714 26.2135986,80.58569 26.2938803,80.6533221 C26.6614859,80.6681166 27.4030352,81.3444376 27.2635986,81.4501127 C27.0565563,81.6297605 26.8389507,81.7946137 26.6171197,81.9510129 C26.8135986,82.0968446 27.0713451,82.3229894 26.9509225,82.4138701 C26.7354296,82.6188798 26.5009225,82.7964141 26.2516268,82.9485863 C26.0826127,83.07751 25.9093732,83.2000932 25.7276831,83.3121088 C25.5312042,83.4283515 25.3305,83.5276861 25.1234577,83.6206802 C25.4847254,84.3202497 25.8290915,85.0261597 26.1502183,85.7447507 C26.3635986,86.2541049 26.6107817,86.7465511 26.895993,87.2199757 C27.2593732,87.9406802 27.6945845,88.6170012 28.2037394,89.246825 C28.6178239,89.944281 29.1037394,90.5846724 29.6593732,91.1701127 C30.345993,91.9521088 31.0833169,92.6876078 31.8671197,93.3681558 C32.1797958,93.5900736 32.4988099,93.8056509 32.8305,94.0043202 C33.6776831,94.642598 34.5797958,95.1899953 35.536838,95.6465119 C35.6488099,95.7078035 35.7375423,95.8430677 35.6065563,95.9487429 C35.602331,95.9508564 35.5981056,95.9508564 35.5938803,95.9550834 C35.9065563,96.1326176 36.2213451,96.3080384 36.5382465,96.4813456 C36.6628944,96.5489777 36.9185282,96.6800149 36.7283873,96.8343006 C36.6058521,96.9357487 36.2276831,96.7539875 36.0016268,96.6356313 C36.0333169,96.6525393 36.0671197,96.6715609 36.1009225,96.6905824 C36.1706408,96.7286254 36.5720493,96.9315217 36.3248662,97.0604454 C36.2002183,97.0815804 36.0819085,97.0604454 35.9678239,96.9991538 C35.8495141,96.9547703 35.7312042,96.9061597 35.615007,96.8554356 C35.6192324,96.8934787 35.5981056,96.9294082 35.536838,96.9589973 C35.4882465,96.9674513 35.4417676,96.9674513 35.3952887,96.9632243 C35.6530352,97.109056 35.9107817,97.2527742 36.1706408,97.3943789 C36.2466972,97.4345354 36.6058521,97.6332047 36.3692324,97.7557879 C36.2530352,97.7790364 36.1410634,97.7600149 36.0333169,97.7008368 C35.836838,97.6268642 35.6424718,97.5402106 35.4544437,97.4451029 C35.4100775,97.4197409 35.3657113,97.3964924 35.3213451,97.3711303 C35.2875423,97.3711303 35.2537394,97.3669033 35.2199366,97.3605628 C35.4269789,97.4725785 35.6361338,97.5803671 35.8474014,97.6860423 C35.9720493,97.7536744 36.1812042,97.8910521 36.0016268,98.0305432 C35.8769789,98.1256509 35.5410634,97.9544571 35.3424718,97.8424415 C35.3297958,97.857236 35.315007,97.874144 35.2938803,97.8910521 C35.145993,98.0030677 34.7657113,97.7557879 34.6452887,97.6902693 C33.5974014,97.1280775 32.5854296,96.5468642 31.6114859,95.8811108 C31.0157113,95.4985667 30.4347254,95.0970012 29.8664155,94.6595061 C28.7783873,93.8183319 27.7896549,92.83978 26.8833169,91.8083906 C26.2643028,91.1024806 25.9283873,90.7051421 25.3283873,89.8491734 C24.365007,88.4711695 23.6382465,87.0339875 22.9389507,85.5101519 C22.9283873,85.4869033 22.9495141,85.4277252 22.9812042,85.3685472 C22.8375423,85.0155922 22.6981056,84.6584102 22.558669,84.2885472 C22.1952887,84.3371577 21.8297958,84.3709738 21.4685282,84.3921088 C20.6171197,84.4407194 19.7910634,84.3646333 18.9903592,84.1892125 C18.0206408,84.0645159 17.0614859,83.7897605 16.2121901,83.3586059 C15.7030352,83.102872 15.2128944,82.8302301 14.7481056,82.5258857 C14.3319085,82.3039679 13.9305,82.0503476 13.545993,81.7544571 C11.908669,80.5032634 11.0192324,78.5609542 10.8016268,76.5446724 C10.6347254,75.6570012 10.5988099,74.7439679 10.6981056,73.8626372 C10.7699366,73.2222458 10.9135986,72.5881949 11.1227535,71.9773926 C11.5093732,70.6226372 12.2297958,69.3693299 13.2734577,68.4203671 C13.4488099,68.2407194 13.6326127,68.0695256 13.8290915,67.9088994 C14.4100775,67.4333613 15.0692324,67.0508172 15.7706408,66.7718348 C15.9058521,66.7063162 16.0431761,66.6450247 16.1805,66.5879601 L16.1805,66.5879601 L16.0135986,66.2033025 C15.9544437,66.2202106 15.7495141,66.1863945 15.724162,66.1145354 C15.6565563,65.9306607 15.5931761,65.7425589 15.5276831,65.5586841 C15.4896549,65.5819327 15.4410634,65.5946137 15.3882465,65.5967272 L15.3882465,65.5967272 L15.3882465,65.810191 C15.3903592,65.8714826 15.274162,66.2519131 15.2107817,66.0532438 C15.1452887,65.8714826 15.0861338,65.6854943 15.0227535,65.5016196 C14.9699366,65.4678035 14.9297958,65.427647 14.915007,65.3811499 C14.908669,65.3621284 14.902331,65.3431068 14.8938803,65.3240853 C14.8896549,65.3219718 14.8833169,65.3219718 14.8790915,65.3198583 L14.8790915,65.3198583 L14.8790915,65.3853769 C14.8812042,65.4255335 14.7755704,65.7298779 14.7565563,65.6706998 C14.3910634,64.6646724 14.0931761,63.63751 13.8607817,62.5934395 C13.702331,62.0185667 13.5776831,61.4373534 13.4826127,60.8476861 C13.3790915,60.3171969 13.2882465,59.7845941 13.2100775,59.2477644 C13.2037394,59.2033808 13.1974014,59.1589973 13.1910634,59.1146137 L13.1910634,59.1146137 L13.1847254,59.0850247 C13.1783873,59.0279601 13.1720493,58.968782 13.1635986,58.9117174 C13.0790915,58.3051421 13.0093732,57.6964532 12.9565563,57.0835374 C12.8445845,55.8238896 12.8002183,54.5579014 12.8128944,53.2940266 C12.7854296,53.3045941 12.7600775,53.3193886 12.7326127,53.3320697 C12.1837394,53.5658231 11.6038099,53.7568838 11.0137394,53.909056 C9.99859859,55.3766724 8.37796479,56.3698074 6.43578169,56.4742145 C5.77810563,56.5097213 5.08852817,56.4296196 4.45007746,56.2438427 C4.38373944,56.2590599 4.31528873,56.2713182 4.24430282,56.2806176 C3.7239507,56.3486724 3.3620493,56.1366881 2.8755,56.0720149 C2.09655634,55.9688759 1.4361338,55.9181519 0.932049296,55.4656509 C0.77634507,55.4692438 0.627612676,55.4466294 0.486274648,55.4043593 C-0.850415493,55.7249777 -2.27076761,55.0182223 -2.74083803,53.5370795 C-3.54259859,53.0670364 -4.18147183,52.3697918 -4.61097887,51.5607429 C-5.43830282,50.4997644 -6.09978169,49.1989033 -6.51006338,47.832101 C-6.51640141,47.8192086 -6.52337324,47.8067389 -6.5295,47.7934239 C-6.73759859,47.3419796 -6.8366831,46.8577761 -6.8451338,46.3720932 C-7.06654225,44.9885941 -7.00823239,43.6034043 -6.58717606,42.3858153 C-6.60492254,41.7257683 -6.44985211,41.0378231 -6.16590845,40.4137057 C-5.82175352,39.6568603 -5.29696479,38.7867311 -4.6160493,38.2820266 C-4.61435915,37.506371 -4.28119014,36.6525159 -3.8445,36.0738387 C-2.97302113,34.917964 -1.70921831,34.3069503 -0.341471831,34.2186059 C0.354021127,32.4350207 2.46141549,32.0184493 4.27916197,32.6121323 C5.03423239,31.840281 6.14021831,31.4716861 7.24409155,31.6029346 C8.17747183,31.7138935 8.97521831,32.1604767 9.63564085,32.7759288 C9.80972535,32.8255961 9.98317606,32.8773769 10.1564155,32.9312712 C10.7346549,32.6774395 11.4092324,32.6199523 12.0263451,32.779099 C13.095993,33.0549112 13.7938099,33.8656509 14.2765563,34.7955922 C14.4305704,34.90169 14.580993,35.0111695 14.7278239,35.12551 C14.8890211,35.1977918 15.0354296,35.2943789 15.1683169,35.4080853 C15.3614155,35.5110129 15.5253592,35.6803045 15.6252887,35.9258935 C15.8978239,36.2069894 16.1513451,36.5043593 16.3757113,36.8232869 C16.543669,36.4346137 16.7169085,36.0486881 16.8958521,35.66551 C17.1871901,35.7532204 17.5393732,35.6397252 17.685993,35.250418 C18.6155704,32.7829033 20.3076127,28.2619092 21.9020493,26.1786294 C20.0412042,27.4460971 17.7692324,28.1141753 15.5124718,28.0469659 C15.4159225,28.044007 15.3185282,28.0399914 15.2202887,28.0347076 C14.0071901,28.2439444 12.7748662,28.2633886 11.6435282,28.0363984 C10.8816972,27.7597409 10.1393028,27.4300344 9.41993662,27.0570012 C9.24500704,26.9661205 9.07155634,26.8705902 8.89873944,26.7742145 C8.8233169,26.710598 8.75338732,26.6395843 8.68134507,26.5715295 C8.53261268,26.5823084 8.37690845,26.5706841 8.21127465,26.5267233 C7.58866901,26.3620814 7.01254225,25.9476235 6.65127465,25.4150207 C6.58409155,25.3158975 6.53000704,25.2138153 6.48183803,25.1108877 C6.08993662,24.7274982 5.75042958,24.2931734 5.50092254,23.7852986 C5.20726056,23.1914043 5.0276831,22.5235374 5.00866901,21.8556705 C4.8861338,21.2004845 4.89458451,20.5262771 5.12275352,19.9006802 C5.14810563,19.8330481 5.1776831,19.7675295 5.20514789,19.6998975 C5.21782394,19.6576274 5.22627465,19.6132438 5.24106338,19.5709738 C5.30782394,19.3479992 5.39275352,19.1493299 5.49585211,18.9612282 C5.53409155,18.7678427 5.59662676,18.5761479 5.68493662,18.3895256 C5.6948662,18.2992791 5.70711972,18.2090325 5.72169718,18.1192086 C5.05028873,16.8521636 5.28817606,15.1951773 6.29317606,14.1652673 C6.15416197,13.4995139 6.29571127,12.7936039 6.70071127,12.2028798 C6.99817606,11.7687663 7.41162676,11.4261675 7.88000704,11.1883984 C7.92880986,11.1636705 8.05810563,11.121189 8.21275352,11.0723671 C8.38599296,10.9191382 8.56873944,10.7741519 8.76880986,10.6464963 C8.81866901,9.34817143 10.1743732,8.62577613 11.2759225,7.98601879 C11.9904296,7.57113816 12.3026831,6.78470372 13.0385282,6.38694247 C13.8434577,5.95219491 14.8733873,5.92619883 15.7630352,5.81904423 C17.8602887,5.56626928 20.0935986,5.3709816 22.2014155,5.59945127 C23.3716268,5.72626145 24.3407113,6.29162348 24.7414859,7.21776047 C25.7481761,7.33675068 26.6454296,8.06337299 27.3552887,8.81070763 C28.2413451,9.74339648 28.9957817,10.7363202 29.2558521,11.9619405 C29.4290915,12.0555687 29.5864859,12.1701205 29.728669,12.2994669 C29.7233873,13.1613534 29.610993,14.0247194 29.3731056,14.8382067 C29.4430352,15.3245237 29.2966268,15.7888603 29.0490211,16.2098701 C29.086838,16.6084767 29.0597958,17.0009542 28.9763451,17.3921636 C29.4580352,18.2470755 29.0071901,19.5390599 28.3324014,20.3867859 C28.3307113,20.546144 28.3290211,20.7055022 28.327331,20.8648603 C28.3674718,20.8439366 28.4065563,20.8192086 28.4431056,20.7881401 C31.5047958,18.1817683 34.6520493,18.5535335 38.3714155,17.0622458 C41.7259225,16.4144571 45.1497254,16.0021127 48.5857817,15.8649464 C48.5403592,15.8581832 48.4949366,15.8533221 48.4497254,15.8459249 C46.7181761,15.5622928 45.0550775,14.8498309 43.6247958,13.8262614 C43.2462042,13.7303084 42.8872606,13.559326 42.5659225,13.2733691 C42.253669,12.9956548 42.0375423,12.6752477 41.9133169,12.3315922 C41.8566972,12.2709346 41.8007113,12.2098544 41.7455704,12.1477174 C40.6719085,11.8839523 39.8543028,10.954645 39.9912042,9.73304031 C39.3113451,8.92800705 39.0612042,7.93402661 39.2912746,6.89904423 C38.9114155,6.25717339 38.8782465,5.44791311 39.1617676,4.77011272 C38.5647254,4.04475851 38.5182465,3.01505988 38.9864155,2.19438669 C38.5590211,1.5867546 38.4645845,0.78150998 38.9919085,0.0618622309 C39.2407817,-0.277989041 39.5855704,-0.492298239 39.9612042,-0.595859883 C40.0672606,-0.987491977 40.2829648,-1.35122583 40.621838,-1.63211037 C40.7961338,-1.77646262 40.978669,-1.88361722 41.1652183,-1.96350763 C41.2353592,-2.36782074 41.4637394,-2.75121018 41.9031761,-3.05280705 C42.1026127,-3.18955068 42.3066972,-3.27789511 42.5095141,-3.32692838 C42.7015563,-3.80246654 43.0366268,-4.21946067 43.5079648,-4.49020039 C44.0771197,-4.81673659 44.7390211,-4.86006341 45.3421901,-4.68886967 Z M18.225507,72.1781965 C18.6670563,72.171856 19.0917042,72.176083 19.5142394,72.2204665 C19.5311408,72.2077855 19.5480423,72.201445 19.562831,72.2035585 C19.6325493,72.2204665 19.6959296,72.2352611 19.7635352,72.2521691 C19.9980423,72.2859851 20.2325493,72.3345957 20.4712817,72.4043413 C21.0353662,72.571308 21.5994507,72.8354959 22.0874789,73.1630888 C22.5480423,73.4716603 23.006493,73.7929127 23.4079014,74.1775703 C23.5494507,74.2980399 23.6825493,74.4290771 23.8093099,74.5643413 C24.0142394,74.7334215 24.212831,74.9067288 24.4029718,75.0779225 C24.6353662,75.2913863 24.8614225,75.5111906 25.0769155,75.7394489 C25.4149437,76.130447 25.6790282,76.5658286 25.869169,77.0455937 C25.9452254,77.1998795 25.8522676,77.2928736 25.6959296,77.265398 C25.6262113,77.2548305 25.5311408,77.2041065 25.4339577,77.1364744 C25.4487465,77.1724039 25.4656479,77.2041065 25.4804366,77.240036 C25.562831,77.4027757 25.4931127,77.5190184 25.3050845,77.4577268 C25.2945211,77.4513863 25.2839577,77.4450458 25.275507,77.4387053 C25.3726901,77.6120125 25.4614225,77.7895468 25.5374789,77.975535 C25.6198732,78.1403883 25.5459296,78.2545174 25.3600141,78.1911123 C25.262831,78.1361613 25.1698732,78.0727562 25.0811408,78.0030106 C25.1212817,78.0917777 25.1635352,78.1784313 25.1994507,78.2693119 C25.2839577,78.4362787 25.1867746,78.5229323 25.0219859,78.4848892 C24.8804366,78.4066896 24.7494507,78.3136955 24.6269155,78.2059068 C24.6079014,78.1911123 24.591,78.1742043 24.5740986,78.1594098 C24.6290282,78.2967875 24.525507,78.3813276 24.3881831,78.3538521 C24.1938169,78.315809 23.8283239,77.988216 23.7395915,77.8149088 C23.7332535,77.8043413 23.7290282,77.7937738 23.7226901,77.7832063 C23.619169,77.7134607 23.5071972,77.6162395 23.4226901,77.5232454 C23.3550845,77.6204665 23.2240986,77.6923256 23.1649437,77.5739695 C22.9874789,77.0899773 22.7107183,76.6757307 22.3325493,76.3270027 C22.1170563,76.0120908 21.8550845,75.7436759 21.5487465,75.5217581 C21.3839577,75.3822669 21.212831,75.2491162 21.0374789,75.1223061 C20.7269155,74.9807014 20.4036761,74.8729127 20.0656479,74.8010536 C19.9980423,74.7799186 19.9283239,74.7672376 19.8607183,74.748216 C19.7107183,74.7207405 19.562831,74.693265 19.412831,74.6721299 C18.8022676,74.5875898 18.1895915,74.5727953 17.5769155,74.6277464 C17.4670563,74.6319734 17.3614225,74.5474333 17.3149437,74.4502121 C17.1776197,74.4565526 17.0424085,74.4628932 16.9050845,74.4755742 C16.6790282,74.4840282 16.7276197,74.1648892 16.8987465,74.1331867 C17.1142394,74.0930301 17.3297324,74.0634411 17.541,74.0380791 C17.5367746,74.0190575 17.534662,73.9979225 17.5388873,73.9810145 C17.1522676,73.961993 16.7677606,73.970447 16.3790282,74.0106035 C16.2100141,74.0190575 16.4107183,73.7062591 16.5036761,73.6893511 C16.5459296,73.6808971 16.5881831,73.6766701 16.6325493,73.668216 C16.6283239,73.6618755 16.6262113,73.6576485 16.6240986,73.651308 L16.6240986,73.651308 L16.6135352,73.651308 C16.3811408,73.6618755 16.2226901,73.2920125 16.5015634,73.2412885 C16.5712817,73.2286074 16.6388873,73.2201534 16.706493,73.2074724 C16.6938169,73.1715429 16.6917042,73.1398403 16.7043803,73.1102513 C16.5839577,73.1081378 16.4656479,73.1081378 16.3452254,73.1081378 C16.4107183,73.1039108 16.4593099,72.8207014 16.5374789,72.8101339 C16.5987465,72.8016798 16.6621268,72.7932258 16.7233944,72.7847718 C16.7276197,72.7065722 16.8459296,72.524811 16.8966338,72.5142434 C17.2980423,72.4466114 17.691,72.4001143 18.0797324,72.3853198 C18.1177606,72.2965526 18.1726901,72.1781965 18.225507,72.1781965 Z" id="ðŸ–-Ink" fill="#000000"></path>
                    </g>
                    <g id="face/Calm" transform="translate(112.183099, 77.354207)" fill="#000000" fill-rule="evenodd">
                        <path d="M36.1355807,50.7576477 C34.5792518,51.2085912 32.9087172,51.248911 31.3223041,50.7832029 C29.8834014,50.360756 28.4059706,49.4311146 27.3469701,48.2009743 C26.4062119,47.1081848 25.7969355,45.7801752 25.8208659,44.3626205 C25.8235881,44.200724 25.8814539,44.0655898 25.9704694,43.960699 C26.0662981,43.8477797 26.2001424,43.770241 26.3435243,43.7365861 C26.4909826,43.7019744 26.6468689,43.7142451 26.7796083,43.7745639 C26.8997736,43.8291689 27.0027261,43.9219168 27.0671023,44.0574747 C27.2298518,44.271353 27.3919691,44.4820638 27.5547228,44.6869305 C28.8633068,46.3034013 30.1305682,47.5114248 32.0982932,47.9447089 C33.1659227,48.1798436 34.2322094,48.0755764 35.2105654,47.7168291 C36.2578485,47.3328074 37.20456,46.6576063 37.9464279,45.7935679 C38.281691,45.4030846 38.6775074,45.243703 39.0645477,45.2410241 C39.5031488,45.2379884 39.9366673,45.4418724 40.2632619,45.7677405 C40.5842915,46.088056 40.7992466,46.5233339 40.8187288,46.9786674 C40.8358275,47.3782965 40.7055112,47.7957375 40.3588211,48.1681599 C39.2168736,49.3949406 37.7369013,50.2936679 36.1355807,50.7576477 Z M36.0875289,30.5120405 C37.6828906,31.482148 40.1137318,33.7442494 38.3974899,36.149264 C36.3773089,38.2698449 33.4687045,35.8384541 32.0353946,34.7388307 C30.7063626,33.8866164 29.2131206,36.0784478 30.4461973,37.0735516 C40.8033244,44.7445605 45.006466,30.7657101 36.8944406,29.3714319 C36.0012775,29.2177885 35.6695544,30.2119271 36.0875289,30.5120405 Z M21.1637235,26.2433841 C20.6509637,25.9153345 20.0477929,25.8027312 19.3793045,26.1069807 C18.8569075,26.3446314 17.940682,27.1368895 17.3030499,28.1783611 C16.8668241,28.8908671 16.5574904,29.7267298 16.6218894,30.5973822 C16.6368454,30.7995814 16.5621603,30.9486689 16.4443587,31.0589029 C16.3513216,31.1459632 16.2169326,31.2099444 16.0590844,31.2299454 C15.9250721,31.2469262 15.7750703,31.2316074 15.6531033,31.1935253 C15.4210899,31.1210832 15.2982973,30.9705246 15.2520315,30.8476073 C14.8055787,29.6614902 14.9979153,28.3378565 15.4982762,27.1437063 C16.1735435,25.5321285 17.3998475,24.1822314 18.2032848,23.7470076 C19.5781337,23.0019868 21.2000694,22.9676976 22.5768864,23.7266868 C23.7489015,24.3726733 24.4817361,25.4155943 25.2105921,26.4786834 C25.3655302,26.7046719 25.519308,26.9290034 25.6782406,27.1493889 C25.9967578,27.5909936 26.0284618,28.0289715 25.9051123,28.4045405 C25.7684635,28.8206031 25.4200374,29.1717323 24.9843378,29.35549 C24.5816341,29.5253316 24.1142443,29.5492397 23.7006589,29.3747309 C23.3512777,29.2273126 23.0306409,28.9399379 22.8277572,28.4523361 C22.4860607,27.6311552 21.9167617,26.725157 21.1637235,26.2433841 L21.1637235,26.2433841 Z M47.2057975,28.0703558 C46.854626,28.2534063 46.5798898,28.3085969 46.1903367,28.191838 C45.9749147,28.1271071 45.7620049,28.0030471 45.5953149,27.8362919 C45.430116,27.6710283 45.3109252,27.46551 45.2645956,27.237516 C45.1506491,26.6748327 44.842904,26.1481247 44.4043542,25.8047626 C44.0295178,25.5112849 43.5563894,25.3557348 43.0316008,25.4434901 C42.4653137,25.5380595 41.9257878,25.9013871 41.5541977,26.329742 C41.4300015,26.4730774 41.332649,26.6358657 41.2347764,26.7975552 C41.0516902,27.0999327 40.8737374,27.3809999 40.6212345,27.6030618 C40.525519,27.6875497 40.3812902,27.7460664 40.2415987,27.7460664 C40.1848244,27.7460664 40.1272065,27.7368245 40.0723021,27.7197062 C39.5086645,27.1537742 39.4002724,26.7244568 39.4184441,26.298631 C39.4374998,25.8520897 39.6134808,25.3999711 39.8978673,24.9781311 C40.5649681,23.9885981 41.8315691,23.1772733 42.6862814,22.9935044 C43.8568041,22.741864 45.0192729,23.0439416 45.9512868,23.6979617 C46.9102744,24.3709099 47.6208819,25.4157255 47.8424283,26.5931812 C47.8957249,26.8767614 47.8730769,27.1828542 47.7651208,27.4482499 C47.6596313,27.7075815 47.4757987,27.9296941 47.2057975,28.0703558 Z M23.7452657,15.6933191 C23.0428108,16.3779875 22.2113939,16.4840404 21.3702793,16.5783674 C20.9029351,16.6312713 20.5298547,16.6739192 20.1627273,16.7567903 C19.1536405,16.9846614 18.1561922,17.3278598 17.246184,17.8221314 C16.294917,18.3388343 15.2582521,18.9619766 14.5124493,19.76027 C14.3351058,19.9502351 14.1679314,20.1495633 14.0005235,20.3493278 C13.8478707,20.5314882 13.7008186,20.7068549 13.5458401,20.8759439 C13.3678581,21.0701644 13.1988448,21.2737207 13.03073,21.4767452 C12.9267758,21.6480566 12.9062409,21.6901906 12.8853068,21.7340522 C12.8538048,21.7999604 12.817161,21.8737194 12.7753087,21.9528481 C12.7179906,22.0612175 12.6508527,22.1798459 12.580538,22.2874003 C12.4635502,22.4839907 12.4007768,22.5381415 12.3465338,22.5623625 C12.2565262,22.6024644 12.1711667,22.6222192 12.0883542,22.6115215 C12.010706,22.6014909 11.9375528,22.5641827 11.8653131,22.5031082 C11.5046675,22.1982812 11.3983041,21.6980217 11.4092058,21.1669949 C11.4257489,20.3611671 11.7228526,19.4689689 11.9967373,18.9205127 C12.6335735,17.6461341 13.5167793,16.3213355 14.578782,15.3702043 C15.790623,14.2845054 17.1164173,13.4625756 18.6392285,12.8962099 C19.5855664,12.5441215 20.6812594,12.2209389 21.7122583,12.2617615 C22.4543706,12.2911455 23.1628225,12.5118308 23.7478918,13.0629393 C24.1071586,13.4012492 24.2796163,13.8824603 24.2796163,14.3633306 C24.2796163,14.8537795 24.1004995,15.3471245 23.7452657,15.6933191 Z M48.6344331,21.9630113 C48.5897609,22.0362559 48.52793,22.0867313 48.4591307,22.1170463 C48.3870082,22.1488257 48.306492,22.1579791 48.2292252,22.1449547 C48.1523004,22.131988 48.0791787,22.0971039 48.0211758,22.0437919 C47.9655812,21.9926933 47.9232469,21.9249248 47.9043176,21.8419028 C47.4379426,19.7927507 46.5323587,18.2681511 44.599502,17.2849986 C43.648701,16.8013523 42.5553699,16.4940619 41.5203553,16.2490617 C41.2195854,16.1778585 40.9017767,16.1317238 40.5817237,16.0849743 C39.5786546,15.9384579 38.5683479,15.770662 37.914432,14.9595487 C37.5204151,14.4709632 37.3550515,13.8461151 37.4485474,13.2746647 C37.5365789,12.7366129 37.8508666,12.2432575 38.4221896,11.9476055 C39.8445457,11.2119052 41.6121007,11.9338197 43.048451,12.5487917 C43.1549986,12.5944099 43.2595897,12.6391915 43.3619269,12.6824007 C44.7665657,13.2755401 46.0476705,14.0584708 47.1007622,15.1781503 C47.9363407,16.0664316 48.7105159,17.3795935 49.0223132,18.7304738 C49.2817173,19.8543575 49.2207229,21.0016883 48.6344331,21.9630113 Z" id="ðŸ–-Ink"></path>
                    </g>
                    <g id="facial-hair/*-None" transform="translate(104.577451, 109.479380)"></g>
                    <g id="accessories/Glasses-3" transform="translate(88.521127, 88.978474)" fill="#000000" fill-rule="evenodd">
                        <path d="M77.5634366,20.7796016 C76.1409718,22.691265 73.5039296,23.3001652 71.0716056,23.0898716 C65.8256197,22.5847444 64.1745634,16.6244548 64.0025915,11.9918677 C67.5204085,12.9818325 63.7051268,5.97049785 75.7302676,5.19949198 C79.9693521,4.84611429 78.8006197,7.40725714 80.673507,9.27855264 C80.6350563,13.2058638 79.9816056,17.4732376 77.5634366,20.7796016 M52.5766056,16.2668501 C49.4794225,30.7766818 32.5192817,27.3253315 30.737662,14.2457072 C32.3828028,13.084126 31.949493,10.2158912 33.9932958,9.1766818 C37.2324507,7.10629432 41.2816056,7.1948501 44.9599859,7.24346067 C49.6617465,7.56661526 51.0016056,9.51505362 53.4168169,11.6408149 C53.3006197,13.0606661 52.9655493,14.7434372 52.5766056,16.2668501 M84.2819577,2.79643914 C84.1080845,2.76748415 83.934,2.74021996 83.7599155,2.71464658 C83.6240704,2.63750372 83.4645634,2.57811429 83.2790704,2.54239609 C82.8554789,2.43481879 82.4348451,2.36232564 82.0148451,2.32322583 C75.9869577,0.966145597 62.0418169,2.89302622 61.4663239,8.03898317 C59.5467465,8.68000861 57.8857606,8.10598121 55.6609014,8.16304579 C53.9673803,1.08175421 24.6892817,2.08122975 23.2811831,6.35050568 C23.2759014,6.34902622 23.2706197,6.34775812 23.2651268,6.34606732 C21.912169,5.92717104 19.9175915,6.02819648 18.369,5.96183249 C15.0624507,5.89250959 11.7520986,6.18734325 8.51695775,6.88501057 C2.45885915,7.84813386 -5.80909859,8.97568767 -1.59578873,16.543719 C-1.59494366,16.5449871 -1.59430986,16.5464665 -1.59325352,16.5477346 L-1.59261972,16.5471006 C-0.866492958,17.2916877 0.365830986,16.6920869 0.411676056,15.6841573 C-1.00487324,12.098811 2.19456338,11.6682904 4.65625352,10.6379577 C10.7815352,8.43653307 17.0177324,8.13134325 23.3528028,8.81231389 C23.8294225,9.37366027 24.5525915,9.86314755 25.3169577,10.1193041 C29.552662,10.8226779 27.3204085,13.9658795 29.9978028,14.4230301 C29.5059718,25.3798521 42.8033662,31.3606427 50.5080845,24.158036 C53.5843521,21.1492532 54.317662,16.6920869 55.0309014,12.6745292 C55.4080141,12.5897777 55.6478028,12.3834998 55.7878732,12.1104352 C56.6948451,11.2045879 57.2646338,10.3680634 59.0580845,10.1193041 C60.8515352,9.87075616 62.232169,10.3697542 62.4189296,10.5225605 C62.4660423,10.6174568 62.5165352,10.7125644 62.5752676,10.807672 C62.6572394,10.9494881 62.7687887,11.0625605 62.8955493,11.1515389 C61.124493,22.0622865 69.5914648,28.9624509 78.1391408,23.3035468 C81.8532254,19.808447 82.6380845,14.4574802 82.7931549,9.6813863 C83.2966056,9.37746458 83.6154085,8.78843131 83.4411127,8.04785988 C83.2009014,7.02703796 83.7641408,6.14317104 84.6611831,5.69933542 C85.8267465,5.12298317 85.6205493,3.0181456 84.2819577,2.79643914" id="ðŸ–-Ink"></path>
                    </g>
                </g>
            </g>
        </g>
    </g>
</svg>