<?xml version="1.0" encoding="UTF-8"?>
<svg width="240px" height="324px" viewBox="0 0 240 324" version="1.1" xmlns="http://www.w3.org/2000/svg" xmlns:xlink="http://www.w3.org/1999/xlink">
    <!-- Generator: Sketch 62 (91390) - https://sketch.com -->
    <title>peep-48</title>
    <desc>Created with Sketch.</desc>
    <g id="Introduction" stroke="none" stroke-width="1" fill="none" fill-rule="evenodd">
        <g id="variations" transform="translate(-1566.000000, -1730.000000)">
            <g id="images" transform="translate(126.000000, 110.000000)">
                <g id="a-person/bust" transform="translate(1440.000000, 1620.000000)">
                    <g id="body/Sporty-Tee" transform="translate(31.056338, 135.052838)" fill-rule="evenodd">
                        <path d="M24.1490915,150.426542 C26.6782013,150.582878 29.2071394,150.706398 31.7359206,150.800658 C64.8057553,152.033332 97.8487751,148.261985 130.898176,147.436781 C142.407401,147.133705 153.857683,147.285032 165.337331,148.209478 C166.46212,148.299936 167.748317,147.089321 167.610148,145.935771 C165.489232,127.621423 162.835923,109.355685 161.460782,90.9660963 C161.459725,89.9934622 161.585218,89.0223076 161.919444,88.1058928 C161.982401,88.0340337 162.309021,87.2283663 162.599514,87.1784877 C162.504655,87.248656 162.934585,87.1252274 162.660782,87.1463624 C164.3205,86.8745659 165.948317,85.0823155 164.74388,83.3672078 C152.335711,64.3420885 135.397542,46.9775483 129.948106,24.3803977 C128.660641,18.2711061 124.010218,17.8934231 119.055993,15.3730708 C117.510359,14.4534857 113.73057,11.9058693 113.115359,10.1347538 C111.645993,3.7513409 114.233599,-2.50230294 106.67381,-5.08521487 C101.683246,-6.46934795 92.8624014,-7.64043992 87.8128944,-6.18064344 C81.6533873,-4.12991155 82.1143732,2.813791 78.5416268,7.59094168 C76.6938602,10.3540673 73.5438342,14.1372645 70.6350659,14.5606247 C69.2252948,14.7658115 68.18693,11.9130412 66.7793028,12.1093996 C44.8383169,17.4402881 14.9452183,53.8064877 5.51507746,73.9376031 C3.38993662,80.2732509 10.2436056,78.3617988 9.8225493,84.7297832 C9.30346479,96.8107773 8.16817606,112.276546 8.84148592,124.371912 C9.47211972,131.392124 9.00542958,138.747748 11.1867676,145.503983 C10.5996549,146.217079 11.4432465,146.937572 12.1315563,147.247411 C12.9988099,148.722848 21.532331,150.222167 24.1490915,150.426542 Z" id="ðŸŽ¨-Background" fill="#FFFFFF"></path>
                        <path d="M81.2711408,-0.0176688845 C81.8415634,-2.5853636 85.9253662,-1.48422857 85.2260704,1.07289863 C84.1422676,5.02747397 81.8943803,8.76414716 78.7213521,11.3870043 C76.2704366,13.4117401 72.930507,15.2185738 69.6176197,15.5525072 C69.9281831,15.8549495 70.2260704,16.1783155 70.5387465,16.4866755 C71.2443803,17.1883585 71.9943803,17.8393174 72.7676197,18.4649143 C74.3565634,19.7499241 76.0084648,20.9060102 77.8126901,21.8739945 C85.0190282,25.7419162 93.1593803,26.6338145 101.208465,25.7332509 C105.028183,25.3063233 108.904944,24.5816031 112.496493,23.1843663 C114.161493,22.5378458 115.779592,21.6880063 117.207972,20.6145581 L117.581744,20.3338548 C118.332645,19.7665633 119.334764,18.9661539 119.804239,18.0910356 C118.37607,18.4120767 116.569732,16.8903546 115.578887,16.0050082 C114.495296,15.0327969 113.582408,13.7792783 112.908465,12.4942685 C111.588042,9.97307084 110.888746,6.72038982 111.996,4.01700822 C112.069732,3.83736047 112.306352,3.86716086 112.327479,4.06160313 C112.654944,7.21283601 113.504239,10.1675131 115.765014,12.5008204 C116.768535,13.5343233 117.970437,14.4008595 119.282408,15.0029965 L119.467087,15.0878479 C120.025982,15.3465274 120.61443,15.6499397 120.850014,16.2034661 C120.94107,16.1928986 121.031704,16.2013526 121.118324,16.2248125 C121.196493,16.2457362 121.268324,16.2691961 121.338042,16.2945581 C121.181704,15.9881002 121.099521,15.6266912 121.114099,15.1995523 C121.169239,13.5446795 123.440366,13.4941667 123.754944,14.9672783 C123.697901,14.772836 123.621845,14.9609378 123.765507,15.0201159 C123.763257,15.00295 123.759257,14.984013 123.754838,14.9671726 L123.759165,14.9827499 L123.759165,14.9827499 L123.767725,15.0200102 L123.765507,15.0201159 C123.771282,15.046746 123.77593,15.0745033 123.779013,15.1025112 L123.781965,15.1393627 L123.780127,15.1085065 C123.77818,15.0856939 123.775453,15.0652854 123.772396,15.0466998 L123.76762,15.0201159 C123.788746,15.030472 123.818324,15.0370239 123.852127,15.0370239 L123.86609,15.0425271 C123.919013,15.0653542 124.105676,15.1524211 124.160789,15.1744016 C124.538746,15.3138928 124.961282,15.358065 125.347901,15.4785346 C126.186845,15.7365933 126.926282,16.1635209 127.437549,16.8903546 C127.805155,17.4126012 128.009873,18.0107225 128.09438,18.631881 C131.806352,20.4180023 135.319732,22.7384172 138.262901,25.6108791 C144.831211,32.0188086 149.411282,40.0395523 153.169732,48.3416031 C155.082644,52.5680806 156.787346,56.8842076 158.454647,61.2120654 L158.71762,61.8954975 C160.504944,66.5471061 162.085437,71.2496501 162.473958,76.2504094 C162.509873,76.698472 162.361986,77.1190591 162.106352,77.4677871 C162.197197,77.8439906 162.243887,78.2201941 162.231,78.5877323 C162.228887,78.6450082 162.224873,78.7020728 162.220437,78.7591374 C162.820437,78.7485699 163.407761,79.0000767 163.965507,79.7059867 C164.191563,79.6341276 164.436634,79.6254622 164.677479,79.7036618 C166.145789,80.1728595 166.382408,81.7856736 166.659169,83.136202 C166.944592,84.5311139 167.069028,85.9598419 167.071141,87.382018 C167.071141,87.8915836 166.779592,88.5340885 166.285225,88.7517793 C165.355648,89.1615875 164.354451,89.4302137 163.392972,89.8021902 C162.670437,90.0811726 161.945789,90.3453605 161.214803,90.5926403 C161.620437,91.3004524 161.751423,92.2855562 161.971141,93.0316227 C162.315507,94.1961628 162.592268,95.3649299 162.824873,96.5569456 C164.400718,104.662229 165.492972,112.854167 166.96762,120.976359 C167.704944,125.044852 168.562901,129.085869 169.437338,133.126887 C169.868324,135.11358 170.326775,137.095834 170.819028,139.069846 C171.081211,140.12237 171.353535,141.175106 171.634521,142.221079 C171.716211,142.526832 171.79884,142.831646 171.882408,143.136147 L172.029592,143.66904 L172.029592,143.66904 C172.350718,143.846574 172.625366,144.114989 172.815507,144.482527 C173.510789,145.826926 173.111282,147.342308 171.778183,148.098942 C170.328887,148.923208 168.598817,148.145227 167.800014,146.80738 C167.238042,145.862856 167.054239,144.611662 166.777479,143.56104 C166.464803,142.381916 166.166915,141.196241 165.879592,140.010566 C163.927685,131.955466 162.620555,123.759221 161.635337,115.532122 L161.565507,114.944421 C161.064803,110.708961 160.581,106.462934 160.268324,102.208452 C160.114099,100.118198 159.991563,98.0279436 159.915507,95.9332509 C159.877479,94.8555757 159.938746,93.7713487 160.000014,92.6953644 C160.027479,92.2242646 160.06762,91.7506286 160.082408,91.2795288 L160.087162,91.2124379 C160.09107,91.1646907 160.096563,91.1018795 160.101,91.0359721 L160.105648,90.9561628 C158.647901,91.4126795 157.169028,91.79311 155.675577,92.1141511 C152.497901,92.8010395 149.246493,93.1837949 146.003535,92.9893526 C146.455648,98.3618771 147.045085,103.721509 147.869028,109.045423 C148.663394,114.172993 149.580296,119.289572 150.615507,124.374871 C151.133324,126.930096 151.692972,129.478981 152.282408,132.019411 C152.59931,133.37628 152.960577,134.724484 153.246,136.087905 C153.414803,136.899278 153.46762,137.577713 153.127479,138.336672 C153.501999,139.356917 153.834614,140.382403 154.161833,141.348024 L154.259873,141.63585 C154.838746,143.326652 155.937338,145.055286 154.790155,146.716711 C154.196704,147.574582 153.229099,148.065126 152.254944,148.094715 C152.238042,148.105071 152.219028,148.117963 152.200014,148.128319 C151.67607,148.409415 151.071845,148.464578 150.497197,148.344108 C149.624662,148.51509 148.750014,148.680155 147.873254,148.830214 C145.707761,149.204304 143.531704,149.512664 141.351423,149.772836 C137.200014,150.267184 133.021141,150.537924 128.844592,150.687983 C113.552831,151.239396 98.2443803,150.271411 82.9467042,150.550394 C75.152831,150.691998 67.359169,151.04284 59.5781831,151.508022 C55.6950845,151.740507 51.8098732,151.989901 47.924662,152.182229 L46.7220611,152.240748 C43.2475564,152.406978 39.7705338,152.535476 36.2986056,152.281564 C36.231,152.277126 36.1781831,152.24965 36.1422676,152.211818 C34.9443803,152.076554 33.7403662,150.973094 33.8605775,149.698863 C34.3781831,144.271177 34.8957887,138.843912 35.415507,133.414112 C36.3387465,123.74082 37.2704366,114.067317 38.2126901,104.395717 L38.3488628,102.999534 C38.665463,99.7406736 38.9677077,96.4742284 39.1211408,93.2026051 C38.3479014,93.1478654 37.5769859,93.0781198 36.8056479,92.9933683 C28.4488592,92.0781201 20.4375983,89.5495715 12.7454846,86.22808 L12.4338169,86.0929926 C11.7408592,85.7905503 10.9824085,85.4883194 10.2049437,85.1651648 C10.217831,86.642292 10.1690282,88.121744 10.1626901,89.5842881 C10.1521268,92.0129143 10.1711408,94.4413292 10.1774789,96.8674192 C10.1922676,101.867967 10.3824085,106.870629 10.6317042,111.862934 C11.0690282,120.680257 11.5824085,129.48511 12.3598732,138.281509 C12.5563521,140.494347 12.8227606,142.702957 13.0105775,144.915795 C13.1227606,146.219826 12.8542394,147.306378 11.6607887,147.991153 C11.0732535,148.329314 10.6190282,148.187709 10.0359296,147.915067 C8.61198592,147.246989 8.57184507,145.668413 8.4366338,144.294636 C8.33332394,143.258809 8.23804225,142.223404 8.14508451,141.185674 C7.94670423,138.972836 7.7753662,136.759787 7.63592958,134.542723 C7.08473239,125.733642 6.92395775,116.933227 7.30423944,108.11358 C7.48079879,103.988324 7.73568885,99.853774 8.07398418,95.7358207 L8.15353521,94.7858301 C8.43240845,91.4948947 8.61198592,88.0416423 9.18874648,84.7297832 C6.86269014,83.6983937 4.55776056,82.3859084 3.48874648,80.204562 C2.10304225,77.3724681 3.62607042,74.9506051 5.79578873,73.2828399 C5.77466197,73.001744 5.79578873,72.7227616 5.85494366,72.4693526 C6.4781831,69.770198 7.52184507,67.1029573 8.52959155,64.5289221 C9.54578873,61.9417832 10.6676197,59.3952235 11.9014225,56.9031922 C16.8535352,46.9211178 23.6183239,37.7994505 31.6824085,30.1145425 C35.6880423,26.2977675 40.0718451,22.7701198 44.7514225,19.8112157 C47.0711408,18.3467695 49.4500141,16.9939162 51.9133944,15.7894309 L52.2775941,15.6120132 C53.9924657,14.7794959 55.9158028,13.8943233 57.8227606,13.4307616 C58.0211408,13.2828164 58.2218451,13.1433252 58.424662,13.0101746 C59.174662,12.5111765 60.1929718,12.8725855 60.6366338,13.584836 C60.852338,13.4178693 61.1014225,13.2701354 61.3866338,13.1367734 L61.6685395,13.0080539 C63.379613,12.2373058 65.4341875,11.5165954 67.2915634,12.0231687 C68.4450845,12.3380806 69.3535352,13.1877088 69.761493,14.2698223 C70.6971972,13.7752626 71.6162113,13.2659084 72.5140986,12.642425 C73.9570563,11.6448517 75.2648028,10.4061276 76.4394507,9.10632329 C78.7950845,6.49213151 80.5063521,3.42966575 81.2711408,-0.0176688845 Z M163.008465,82.4089456 C162.847901,82.455654 162.678887,82.472562 162.503535,82.4512157 C162.820325,82.4884634 162.185716,82.6757904 162.01168,82.7656149 L161.998606,82.7726795 C161.681704,82.9542294 161.362901,83.1296501 161.039451,83.2989417 C160.285225,83.6960689 159.51431,84.0532509 158.730296,84.3895092 C157.18593,85.0468086 155.590859,85.5519358 153.953535,85.9217988 C152.352127,86.2829965 150.672549,86.4943468 149.031,86.5281628 C147.932408,86.5492978 146.628887,86.4987851 145.492268,86.1752078 C145.623465,88.1682411 145.769028,90.1591609 145.931704,92.1479671 L148.176452,91.6331178 C150.421352,91.1178326 152.663905,90.5899456 154.878887,89.9478106 C156.541563,89.4661432 158.181,88.901838 159.801423,88.2929378 C160.650718,87.9737988 161.493676,87.6358497 162.32607,87.2723272 C162.740319,87.0913409 163.128752,86.8760898 163.512541,86.6580969 L163.840859,86.4713096 C163.764803,85.5815249 163.625366,84.7086481 163.422761,83.8294309 C163.317127,83.3644603 163.137338,82.8868086 163.008465,82.4089456 Z M9.29438028,73.0228791 C9.00916901,73.9488047 8.57184507,74.8132274 7.57466197,75.0224642 C7.22184507,75.0964368 6.92628169,75.0562802 6.681,74.9358106 L6.62218377,75.0544826 C5.80229423,76.7379741 5.56151238,78.5148942 7.44790141,79.8116618 C8.29952113,80.3971022 9.22677465,80.9043429 10.1859296,81.3585346 C11.9011585,82.1750733 13.727798,82.8314893 15.44999,83.4991437 L15.7929718,83.6328751 C18.8732535,84.8417988 22.0021268,85.9429339 25.1795915,86.8642098 C28.4037465,87.7962646 31.6845211,88.5444446 35.0058592,89.0199828 C36.4063521,89.2188634 37.8176197,89.3583546 39.2312113,89.4492352 C39.2542394,87.5470826 39.2436761,85.6428164 39.237338,83.7406638 C38.7345211,83.6770474 38.2359296,83.6096266 37.7544507,83.5523507 C36.2880423,83.3813683 34.8260704,83.1721315 33.3725493,82.9121706 C30.3366338,82.3690004 27.3324085,81.6187068 24.4021268,80.6591765 C18.9725493,78.8774935 13.9211408,76.3305112 9.29438028,73.0228791 Z M68.8232535,14.7578301 C67.5894507,13.4518967 65.2295915,13.9232078 63.7403662,14.5572587 C63.2901549,14.7495875 62.8359296,14.9440297 62.4049437,15.1786286 L62.3214622,15.2253407 C61.819538,15.5145276 61.8220669,15.6863977 62.0671268,16.2626442 C62.3859296,17.0216031 62.8295915,17.7547773 63.2521268,18.4585738 C65.0607887,21.4789808 67.4415634,24.1081785 70.1605775,26.3292587 C79.7901549,34.1914896 93.6239577,36.9646168 105.666211,34.3311922 C111.445657,33.0686645 117.02052,30.5202715 121.275094,26.3404775 L121.662536,25.9548124 C123.378001,24.2375851 125.732802,21.7519618 125.56762,19.2069652 C125.489451,17.9830356 124.490155,17.91329 123.469732,17.676789 C123.051634,17.5795679 122.652127,17.4419789 122.305648,17.2477479 C122.584521,18.4503311 121.099521,20.2381432 120.332408,20.9886481 C118.724662,22.5629965 116.789451,23.7930552 114.742479,24.7126403 C110.846493,26.4647342 106.608676,27.2932274 102.389451,27.8171648 C97.6021268,28.413384 92.7112817,28.3605464 87.9598732,27.4792157 C83.8253662,26.7120141 79.7500141,25.2600376 76.1922676,22.9985894 C74.5612817,21.9627616 72.9535352,20.7813135 71.5929718,19.4056344 L71.3038146,19.1132898 C70.3215075,18.1176727 69.1785672,16.9141988 68.5908592,15.6076697 C68.3669155,15.6097832 68.1450845,15.6032313 67.9232535,15.5884368 C67.7669155,15.5801941 67.6826197,15.358065 67.8387465,15.2756384 C68.0140986,15.1826442 68.1894507,15.0898614 68.3648028,14.9989808 C68.3354366,14.9015483 68.3098732,14.8066521 68.2887465,14.7094309 C68.2718451,14.6270043 68.3584648,14.5509182 68.4345211,14.5974153 C68.5401549,14.660609 68.6415634,14.7284524 68.7408592,14.8001002 C68.7683239,14.7876305 68.7957887,14.772836 68.8232535,14.7578301 Z" id="ðŸ–-Ink" fill="#000000"></path>
                    </g>
                    <g id="head/Bun-2" transform="translate(78.591549, 38.043053)" fill-rule="evenodd">
                        <path d="M83.9792324,51.518029 C83.4772606,45.0202755 84.2551479,38.2097237 81.7507817,32.0336454 C77.3843028,21.7863264 65.1400775,18.3696376 55.6476127,14.4683225 C51.8447611,13.3442291 39.0486032,13.1871104 34.5959155,11.6993378 C24.5183786,8.33213934 22.1106103,4.32017126 14.1031056,10.731438 C12.7514155,11.8266552 11.9057113,13.01698 11.2888099,14.6433205 L11.314162,14.6502951 C11.1379648,15.3283068 11.326838,16.0048391 11.7238099,16.5215906 C8.25183803,20.0718528 6.7989507,25.3944986 8.58035915,30.1205025 C14.3938099,42.4187648 14.1204296,49.0684791 12.247331,62.289708 C9.80127465,74.6325652 15.3907817,79.141301 24.6476831,85.8571679 C24.2707817,86.5882286 24.1926127,87.5598059 24.6840211,88.204847 C35.3883169,103.252777 55.5713248,110.437498 72.8642122,102.799721 C79.8835784,99.6742733 83.017331,92.1959859 84.8057113,85.4482051 C86.8890211,77.8926434 87.529162,69.9310779 85.8331056,62.2345456 C85.1490211,58.674984 84.2578944,55.141207 83.9792324,51.518029 Z" id="ðŸŽ¨-Background" fill="#FFFFFF"></path>
                        <path d="M22.2346479,-20.4719812 C23.5339807,-20.6671651 24.5151988,-19.8607111 24.9819667,-18.7240285 L25.0064789,-18.6628227 C25.1564789,-18.2760517 25.3233803,-17.8998481 25.5029577,-17.5299851 C28.7543662,-19.1256798 33.3938028,-18.7156603 35.4515493,-15.4841143 C36.9198592,-13.1761691 36.0240845,-10.4370693 35.4705634,-7.98963288 L35.1071831,-6.37703014 C35.8095951,-5.92986575 36.3392879,-5.12909119 36.3144215,-4.29988718 L36.3114085,-4.23605166 L36.1635211,-1.98728454 C36.6325352,-2.4628227 37.0614085,-2.98063092 37.4438028,-3.53225519 C37.7078873,-4.01624736 37.9930986,-4.49178552 38.2994366,-4.95252916 C40.1015493,-7.66415342 44.1473239,-5.30759765 42.66,-2.40364462 C42.3747887,-1.84356634 42.053662,-1.3130771 41.7092958,-0.801609393 C41.3205634,-0.0470888454 41.0015493,0.728566732 40.7564789,1.52535734 C41.46,1.83181526 42.0008451,2.51236321 42.0578873,3.53952564 C42.1909859,5.93835147 40.931831,7.93983875 38.9290141,9.19737299 C38.3395775,9.56723601 37.7311268,9.63909511 37.1797183,9.50171742 C37.0825352,9.6327546 36.9853521,9.76379178 36.8923944,9.89694247 C37.6909859,10.5457879 38.4114085,11.2855139 39.0304225,12.105553 C40.8938028,11.8265706 42.7677465,11.6955335 44.6416901,11.6913065 C46.931831,10.5690364 49.6740845,10.5922849 52.1353521,11.012872 C53.7198592,11.2834004 55.2409859,11.8096626 56.8001408,12.1879796 C58.4438028,12.5853182 60.1128169,12.6001127 61.775493,12.8706411 C63.8712676,13.2109151 65.7092958,14.1788994 66.8649296,15.7238701 C68.1346479,15.7619131 69.4698592,16.2818348 70.5769014,16.9877448 C73.1543662,18.6320501 75.7170423,20.2996039 78.288169,21.9544767 C79.2749208,22.5898045 79.6438753,23.6040612 79.4624669,24.73534 L79.4501408,24.8077057 L79.3635211,25.2769033 L79.5669365,25.5656921 C80.3537713,26.6772766 81.2099155,27.8415969 81.7191549,29.0685276 C82.6614085,30.42751 83.5128169,31.852011 84.2670423,33.3208955 C85.2832394,35.2949072 86.1219718,37.3872751 86.6902817,39.5345941 C86.831831,40.0777644 86.9733803,40.6251616 87.066338,41.1788994 C87.1994366,41.9608955 86.994507,42.5674708 86.8825352,43.3177644 C86.7430986,44.2688407 86.6923944,45.232598 86.544507,46.1857879 C86.4452113,46.8177252 85.9085915,47.1284102 85.3466197,47.1453182 C85.5578873,48.7536939 85.71,50.3726372 85.8557746,51.9788994 C86.0607042,54.2741636 86.2001408,56.5757683 86.3205634,58.877373 C86.9416901,59.7798387 88.2114085,60.4942027 89.1283099,60.7414826 C90.3980282,61.0817566 91.7290141,60.7118935 92.9290141,60.2786254 C93.6832394,60.0059836 94.3022535,60.9549464 93.9346479,61.5889973 C92.7790141,63.579917 90.3071831,63.571463 88.4353521,62.6901323 C87.6430986,62.3181558 86.9480282,61.7792125 86.4325352,61.0775295 C86.4642254,61.7453965 86.4980282,62.4132634 86.531831,63.0832438 L86.5633139,63.6900899 C86.9439234,70.7770778 87.7656338,78.1078427 86.4346479,85.1249659 C84.1297183,97.2797213 74.0749724,106.534642 61.7923944,107.253342 C55.3470357,107.630484 49.9796967,105.726004 47.3106934,104.663606 C44.6416901,103.601209 45.6790407,101.435044 47.5318732,102.054258 C50.7236874,103.120957 56.5872399,104.710152 61.8346479,104.023909 C74.2022535,102.406506 84.6895775,96.2225963 83.6121127,69.5886059 C83.4593178,65.8116489 82.9888732,62.0328329 82.8874648,58.2560031 C82.7902817,54.5637135 82.8261972,50.8693104 82.6635211,47.1791342 L82.6092755,45.9200779 C82.545759,44.4489059 82.4778404,42.9709151 82.3677465,41.4980384 C82.2346479,40.9273926 82.1247887,40.3482928 81.9621127,39.7882145 C81.5205634,38.2643789 80.9438028,36.7828133 80.2276056,35.3688798 C80.0691549,35.4893495 79.8916901,35.5760031 79.6994366,35.6098192 C78.2395775,35.8718935 76.8705634,35.7979209 75.503662,35.1892321 C74.8656338,34.9081362 74.303662,34.5340462 73.7797183,34.071189 C73.5304225,33.8534982 73.3635211,33.6421479 73.2325352,33.4223436 C72.5712676,33.4329112 71.91,33.2342419 71.4959155,32.7587037 C71.0236302,32.2166925 70.9450808,31.6568671 71.1300646,31.138608 L71.1494366,31.0869229 L71.1029577,31.0700149 C70.5452113,32.5135374 69.4339437,33.7837526 68.2149296,34.6418348 C66.288169,36.0029307 63.8776056,36.3960423 61.566338,36.4319718 C59.0142254,36.4700149 56.3226761,36.0769033 53.8043662,35.6753378 C53.1388732,35.5696626 52.4776056,35.449193 51.8290141,35.2864532 C51.803662,35.3118153 51.7783099,35.3414043 51.7508451,35.3667663 C49.5895775,37.4358857 46.5494366,37.9684885 43.8071831,36.7870403 C42.2226761,36.1043789 40.8938028,35.0053573 39.7191549,33.7457096 C39.7022535,34.4051225 39.6684507,35.0645354 39.6114085,35.7176078 L39.5877865,35.9769406 C39.4708263,37.193265 39.2457746,38.4834787 38.3269014,39.3612869 C36.8416901,40.7836744 34.6867606,40.2130286 32.9733803,39.2873143 C32.975493,39.3316978 32.975493,39.3781949 32.975493,39.424692 C33.438169,40.9971382 33.9029577,42.5716978 34.3677465,44.1462575 L34.4678581,44.4816725 C34.8058387,45.5997013 35.1765173,46.7191592 35.2783099,47.8892712 C35.4726761,50.1253573 33.9853521,52.3339679 31.5008451,51.5836744 C30.1976258,51.191529 29.1535844,50.0953404 28.1518089,49.2173454 L27.5205634,48.6712673 C29.153662,54.0120892 30.2860563,59.5431264 30.3916901,65.1164337 C30.3980282,65.4186646 30.138169,65.6469229 29.8508451,65.6574904 C29.1790141,65.6849659 28.4564789,65.5518153 27.7804225,65.2834004 C27.7423944,65.2812869 27.7043662,65.2791734 27.6642254,65.2728329 C26.5107042,65.1058661 25.4395775,64.6895061 24.4952113,64.0744767 C24.7128169,64.7655922 24.81,65.5074317 24.7529577,66.2830873 C24.738169,66.471189 24.444507,66.5367076 24.4022535,66.3295843 C23.8571831,63.6475491 20.7198592,61.6206998 18.0156338,62.134281 C15.1128169,62.6859053 12.9747887,65.1840658 12.4508451,68.0267272 C11.8888732,71.0807389 12.9642254,74.6124023 14.9564789,76.9689581 C15.8733803,78.0552986 17.0797183,78.9619914 18.5121127,79.1902497 C19.1670423,79.2938114 19.8473239,79.2578818 20.4832394,79.0718935 C20.753662,78.9915804 21.0071831,78.8795648 21.2649296,78.7738896 C21.6409859,78.6217174 22.0804225,78.5984689 22.4353521,78.4378427 C23.2402817,78.0764337 24.0494366,78.8182732 23.6416901,79.6446528 C23.2867606,80.3653573 22.9677465,80.851463 22.3783099,81.2234395 C22.8557746,81.8067663 23.2888732,82.6183515 23.4494366,82.8360423 C24.2691549,83.9435178 25.1015493,84.9897018 26.0353521,86.0020697 C26.9860563,87.0292321 28.0233803,87.9676274 29.1198592,88.8362771 L29.5807403,89.2005922 C30.6368926,90.0385631 31.5565669,90.8150442 32.3015493,92.017099 C32.8888732,92.9660618 32.1283099,94.2531851 31.0276056,94.2383906 C27.5839437,94.18978 25.0804225,91.1632438 23.2973239,88.5192517 C23.0438028,88.1409346 22.8050704,87.7414826 22.5832394,87.331463 C22.5029577,87.4603867 22.4142254,87.5808564 22.3149296,87.6907585 L22.5114085,88.2191342 C23.094507,89.7746724 20.5825352,90.7912673 19.853662,89.3392908 C19.3233803,88.2867663 18.7085915,87.2849659 18.0240845,86.3381166 C17.6205634,86.2810521 17.225493,86.0358857 17.0057746,85.7188603 C16.4501408,84.9136157 15.8269014,84.099917 15.3008451,83.2418348 C15.0092958,82.9649659 14.7092958,82.6986646 14.4029577,82.4387037 C14.3142254,82.5169033 14.2233803,82.5951029 14.1367606,82.6775295 C13.7522535,83.5546333 13.2769014,84.3556509 12.6874648,85.1101714 L12.5610893,85.2711401 C11.4318843,86.694834 9.96103713,88.1519633 8.14098592,88.5002301 C7.58535211,88.6059053 7.05084507,87.9147898 7.54309859,87.4730677 C8.81704225,86.3275491 10.3233803,85.5476665 11.4980282,84.2689973 C12.0767505,83.6390224 12.6081101,82.9452651 13.0650425,82.2181846 L13.1691549,82.0498192 C13.2452113,81.9251225 13.3233803,81.8004258 13.403662,81.6736157 C12.8733803,81.3122067 12.3430986,80.9486841 11.8128169,80.5851616 C10.3530259,81.8328102 8.45201316,82.4035219 6.83738288,83.4370178 L6.67690141,83.5419523 C5.21704225,84.5183906 3.67901408,82.3583906 4.84943662,81.1727155 C6.13964789,79.8705863 7.21669014,78.3177957 8.35964789,76.8704689 C7.8221831,75.8800814 7.5678169,74.7089894 7.47253521,73.5254278 C7.43492958,73.1904376 7.40556338,72.855236 7.37619718,72.5200344 C6.55647887,72.5327155 5.73253521,72.2516196 5.03535211,71.7676274 L4.77126761,71.5795256 C3.92408451,71.850054 3.03464789,71.9810912 2.18323944,71.9578427 C0.180422535,71.8986646 -0.639295775,69.6097409 0.613521127,68.1619914 C1.89169014,66.6825393 4.12901408,66.3591734 5.9015493,67.0777644 C5.95859155,67.0481753 6.01774648,67.0164728 6.07478873,66.9847703 C5.99028169,66.5958857 6.00908451,66.2431421 6.10521127,65.9333025 L6.07732394,65.7443554 C5.68753521,65.1460227 5.43126761,64.4629386 5.33408451,63.7411773 C5.2571831,63.1694748 5.2728169,62.6028446 5.40507042,62.038328 C5.44901408,61.8504376 5.54049296,61.655784 5.61042254,61.4598622 C5.46633803,61.095917 5.38161972,60.7197135 5.35542254,60.3413965 C5.31507042,60.29342 5.27492958,60.2441753 5.23690141,60.1909151 C4.35739437,58.9555726 4.53507042,57.4670325 5.37211268,56.4673456 C5.37591549,56.4037292 5.38183099,56.3401127 5.39049296,56.276919 C5.34147887,56.1665941 5.29647887,56.0552125 5.25549296,55.9425628 C4.43767606,55.1172399 3.83725352,54.1241049 3.94922535,52.8934121 C4.01492958,52.169326 4.31239437,51.5175217 4.76260563,51.0303593 C4.68274648,50.7940697 4.67514085,50.520371 4.77190141,50.2919014 C4.05338028,48.3800266 4.14422535,46.0773652 4.66140845,43.9391342 C4.54732394,43.6136548 4.48816901,43.2606998 4.50084507,42.8866098 C4.56,41.2993691 5.93323944,39.8410521 7.56,39.8600736 C7.75584507,39.8617644 7.93922535,39.8873378 8.11542254,39.9247468 L8.11774648,39.8869151 C8.18007042,39.4105315 8.31105634,38.9702888 8.50225352,38.5752751 C8.40823944,38.5412477 8.32119718,38.4924258 8.24492958,38.4275413 C7.20253521,38.9838153 6.09950704,39.4090521 4.94302817,39.6988133 C4.09267606,39.9118544 3.22161972,38.9449268 3.75021127,38.1464454 C3.99549296,37.7759483 4.26612676,37.443283 4.55767606,37.1393613 C4.14316901,37.1416861 3.72232394,37.1697957 3.29661972,37.2245354 C2.53183099,37.3238701 1.67830986,36.8018348 1.18183099,36.0959249 C0.564929577,36.6961597 -0.054084507,37.294281 -0.673098592,37.8924023 C-2.24070423,39.412011 -4.60901408,38.2939679 -4.85619718,36.2903671 C-5.32309859,36.1656705 -5.75830986,35.9543202 -6.14070423,35.6520892 C-8.61253521,36.7257487 -11.2723944,37.315416 -13.9914085,37.4274317 C-15.9435211,37.5077448 -17.0843662,35.2336157 -16.1716901,33.6273534 C-15.5590141,32.5494669 -14.7984507,31.5814826 -13.9216901,30.7403084 C-15.2822535,31.1566685 -16.6871831,31.4567859 -18.1216901,31.6491147 C-18.8970423,31.7526763 -19.9935211,31.1101714 -20.3040845,30.3979209 C-21.4914085,27.6588211 -21.39,24.8034787 -20.0230986,22.1383515 C-19.9702817,22.0326763 -19.9111268,21.9312282 -19.8540845,21.82978 C-19.7125352,21.476825 -19.5583099,21.1280971 -19.3914085,20.7857096 C-21.0730986,19.0315022 -21.2188732,16.4234395 -20.3125352,14.240191 C-20.6759155,13.6505237 -20.8153521,12.9403867 -20.568169,12.2978818 C-19.8646479,10.4485667 -18.8505634,8.74085636 -17.5702817,7.27408532 C-17.6928169,7.03737299 -17.8005634,6.78586614 -17.8914085,6.51533777 C-18.611831,4.32786223 -17.7773239,1.68809706 -16.0935211,0.164261448 C-15.0350704,-0.795268885 -13.818169,-1.37014168 -12.5188732,-1.73789119 C-11.9716901,-2.70587554 -11.268169,-3.57875225 -10.4484507,-4.31425127 C-10.4167606,-4.38399687 -10.3850704,-4.45374247 -10.3491549,-4.52348806 C-9.07309859,-6.9286544 -6.74915493,-8.21789119 -4.25830986,-8.51589511 C-4.16112676,-9.45640391 -3.52732394,-10.3546427 -2.60619718,-10.6463061 C-2.35267606,-11.4600047 -1.97450704,-12.2377738 -1.45478873,-12.9436838 C-0.637183099,-14.0553863 0.721267606,-14.579535 2.0015493,-13.8503765 C2.70295775,-13.4509245 3.37478873,-12.9922943 4.0043662,-12.4850536 C4.28713976,-12.6177166 4.60771648,-12.7035573 4.9694197,-12.7309395 L5.06070423,-12.7365605 L7.14380282,-12.8422356 C8.01633803,-13.2290067 8.88676056,-13.6347992 9.75929577,-14.0300243 C10.2832394,-14.4632924 10.8684507,-14.8247014 11.5064789,-15.0931162 C12.2290141,-15.3953472 12.9684507,-15.5665409 13.71,-15.6236055 C14.3121127,-15.8201613 14.9184507,-15.9934685 15.5353521,-16.1287327 C16.9846479,-16.4457581 18.5015493,-16.6232924 20.0057746,-16.6084978 C20.0365594,-16.9979862 20.0518224,-17.392133 20.0489028,-17.790938 L20.0459155,-17.9907288 C20.0121127,-19.269398 21.0325352,-20.29022 22.2346479,-20.4719812 Z M20.7747887,81.8321284 C20.5677465,81.8765119 20.3585915,81.9124415 20.1494366,81.9378035 C20.2128169,82.0942027 20.2761972,82.250602 20.3374648,82.4070012 C20.5064789,82.5021088 20.6776056,82.5929894 20.8487324,82.6775295 C20.7980282,82.3900932 20.7684507,82.1005432 20.7747887,81.8321284 Z M9.92049296,78.6054434 L9.78003912,78.8641675 C9.757277,78.9065002 9.73485915,78.9483241 9.7128169,78.9894669 C10.0107042,78.9662184 10.3107042,78.9725589 10.6064789,79.006375 L10.6056338,78.9748838 C10.5676056,78.9619914 10.5295775,78.9501558 10.4932394,78.9324023 C10.2891549,78.8343358 10.0994366,78.7244337 9.92049296,78.6054434 Z M15.7867606,66.8009166 C17.655892,66.9098207 19.2394617,67.1965217 20.9393529,68.0145043 L21.0853521,68.0859264 C22.5874648,68.831993 25.0719718,70.2099969 24.8628169,72.1861221 C24.803662,72.7483139 24.3959155,73.3400947 23.753662,73.2957112 C21.9938028,73.1752415 20.988169,71.399899 19.7966197,70.2924235 C18.594507,69.1764939 17.1177465,68.0288618 15.6621127,67.2616603 C15.4563531,67.1536452 15.5374055,66.8117672 15.7613026,66.8007505 L15.7867606,66.8009166 Z M7.31070423,40.7646528 C6.8628169,40.7794474 7.0128169,41.214829 7.24309859,40.8513065 C7.26211268,40.8217174 7.28535211,40.7921284 7.31070423,40.7646528 Z M31.4873239,11.6993378 C27.245493,11.8109307 22.9764085,14.3164885 19.7987324,16.849099 C17.0342958,19.0524258 14.6471831,21.6731695 12.5334507,24.4978661 C11.9896479,25.9046137 11.5227465,27.3407389 11.1283099,28.7874317 C10.8684507,29.742735 10.7057746,30.7086059 10.488169,31.6723632 L10.4205634,31.9678309 C10.2496479,32.2873926 10.1226761,32.6312595 10.0301408,32.9865393 C10.4152817,33.3728877 10.9149296,33.6495452 11.4650704,33.7807937 C11.6423239,33.8230638 11.7895775,33.9145785 11.9059859,34.0358935 C12.3488028,33.2965902 12.7358451,32.5162849 12.9610563,31.6890599 L12.9692958,31.6508055 C13.820493,30.2561049 14.745,28.9047311 15.7360563,27.5996431 C18.4698592,23.9961205 21.4804225,20.711737 25.0994366,17.9789777 C27.8438028,15.9077448 30.9114085,14.2845746 34.1733803,13.2299366 C33.375,12.5855295 32.4682394,12.0757526 31.4873239,11.6993378 Z" id="ðŸ–-Ink" fill="#000000"></path>
                    </g>
                    <g id="face/Smiling" transform="translate(112.183099, 77.354207)" fill="#000000" fill-rule="evenodd">
                        <path d="M30.968993,50.9198978 C29.548794,50.3403012 28.2816173,49.3734958 27.3551889,48.1384646 C27.0331038,47.7091169 26.9495926,47.2557326 27.017159,46.8410547 C27.0931327,46.3747786 27.3688808,45.9521824 27.7449394,45.6687178 C28.1221628,45.3843752 28.5940214,45.2441445 29.0502103,45.3156301 C29.4466117,45.3777469 29.8412104,45.5948709 30.1535058,46.0451781 L30.2187521,46.1352289 C30.7695298,46.8806513 31.4872438,47.4922614 32.3050288,47.8864795 C33.0932406,48.2664417 33.9747757,48.4437847 34.8870208,48.3406561 C36.6244504,48.1443157 37.8219743,47.2043274 39.0948115,45.9278391 C39.2525834,45.7666792 39.4104563,45.6004672 39.5690946,45.4315797 C39.6692778,45.278484 39.8083069,45.1800892 39.962667,45.1284632 C40.1340565,45.0711416 40.327938,45.0743848 40.5055187,45.1363808 C40.6767961,45.1961763 40.8299095,45.309486 40.9325762,45.4602937 C41.0301525,45.6036243 41.0854754,45.7806897 41.0675245,45.9843589 C40.9510195,47.3072301 40.2596776,48.4878363 39.2776553,49.4148615 C38.1869942,50.4444414 36.7412431,51.1567117 35.3801317,51.4065272 C33.8805866,51.6817086 32.3525901,51.4845569 30.968993,50.9198978 L30.968993,50.9198978 Z M36.0875289,30.5120405 C37.6828906,31.482148 40.1137318,33.7442494 38.3974899,36.149264 C36.3773089,38.2698449 33.4687045,35.8384541 32.0353946,34.7388307 C30.7063626,33.8866164 29.2131206,36.0784478 30.4461973,37.0735516 C40.8033244,44.7445605 45.006466,30.7657101 36.8944406,29.3714319 C36.0012775,29.2177885 35.6695544,30.2119271 36.0875289,30.5120405 Z M17.5274577,21.5886716 C17.7037243,19.3998697 21.0359789,18.9028321 21.3674577,21.0687499 C21.6642887,23.0089456 21.3148521,24.7912626 20.4412606,26.5380728 C19.6065423,28.2068947 17.5085456,27.4283107 17.3498837,25.9087021 C17.1372039,23.8717299 17.4178099,22.9502317 17.5274577,21.5886716 Z M42.8930282,20.6196517 C43.3576056,20.0109628 44.0283803,19.5954481 44.8320423,19.8302583 C47.3429577,20.5642779 46.6028873,24.1303914 45.7210563,25.8662114 C45.2419014,26.8088337 43.6930986,27.0478708 42.993169,26.2178982 C41.8523239,24.864411 41.3059859,22.1614521 42.756338,20.8282544 C42.7956338,20.7593542 42.8393662,20.68982 42.8930282,20.6196517 Z M20.4058944,12.0111429 L20.802522,11.9416942 C22.0295218,11.7294045 23.5551549,11.5254176 24.4231479,12.5122544 C24.8835,13.0355577 25.0419507,14.0081918 24.4231479,14.509092 C23.3346972,15.3904227 22.1313169,15.0488806 20.8269507,15.1234873 C19.7520211,15.1852016 18.7189225,15.3631585 17.6835,15.6592603 C15.4119507,16.3087397 13.5610352,17.4944149 11.6209648,18.7963327 C11.3663873,18.9671037 11.1065282,18.6414129 11.228007,18.4032211 C12.3479366,16.208771 14.5182887,14.4061644 16.6922324,13.3073542 C17.8525141,12.7208571 19.1222324,12.2343288 20.4058944,12.0111429 Z M40.6041287,11.0281289 L40.9077055,11.0902829 C44.2113469,11.7811043 48.5035506,13.1610768 50.0679842,16.4073021 C50.1275964,16.8663298 50.0646105,16.9647086 50.0133917,17.0289838 L49.9963385,17.0503723 C49.9541341,17.1052595 49.9204583,17.1809212 49.7215736,17.2433957 C49.6663832,17.2302408 49.6106433,17.216308 49.5543131,17.2015401 C48.8372041,17.0135386 48.2698321,16.7545401 47.720556,16.4857982 L47.1250012,16.192275 C46.4340388,15.8533498 45.7369757,15.5267598 44.9982488,15.2856588 C43.4217423,14.7712438 41.8001698,14.4088706 40.1534741,14.2153715 C39.7965654,14.1734678 39.4528848,14.0529641 39.1817455,13.8464404 C38.92438,13.6504079 38.7277692,13.3789964 38.6381257,13.0182314 C38.5219478,12.5513438 38.5553348,12.1978716 38.8057421,11.7766707 C38.9940329,11.4603578 39.263447,11.2411116 39.5728025,11.115213 C39.888177,10.9868648 40.2472278,10.9566068 40.6041287,11.0281289 Z" id="ðŸ–-Ink"></path>
                    </g>
                    <g id="facial-hair/*-None" transform="translate(104.577451, 109.479380)"></g>
                    <g id="accessories/Sunglasses-2" transform="translate(88.521127, 88.978474)" fill="#000000" fill-rule="evenodd">
                        <path d="M84.2819577,2.79643914 C84.1080845,2.76748415 83.934,2.74021996 83.7599155,2.71464658 C83.6240704,2.63750372 83.4645634,2.57811429 83.2790704,2.54239609 C82.8554789,2.43481879 82.4348451,2.36232564 82.0148451,2.32322583 C75.9869577,0.966145597 62.0418169,2.89302622 61.4663239,8.03898317 C59.5467465,8.68000861 57.8857606,8.10598121 55.6609014,8.16304579 C53.9673803,1.08175421 24.6892817,2.08122975 23.2811831,6.35050568 C23.2759014,6.34902622 23.2706197,6.34775812 23.2651268,6.34606732 C21.912169,5.92717104 19.9175915,6.02819648 18.369,5.96183249 C15.0624507,5.89250959 11.7520986,6.18734325 8.51695775,6.88501057 C2.45885915,7.84813386 -5.80909859,8.97568767 -1.59578873,16.543719 C-1.59494366,16.5449871 -1.59430986,16.5464665 -1.59325352,16.5477346 L-1.59261972,16.5471006 C-0.866492958,17.2916877 0.365830986,16.6920869 0.411676056,15.6841573 C-1.00487324,12.098811 2.19456338,11.6682904 4.65625352,10.6379577 C10.7815352,8.43653307 17.0177324,8.13134325 23.3528028,8.81231389 C23.8294225,9.37366027 24.5525915,9.86314755 25.3169577,10.1193041 C29.552662,10.8226779 27.3204085,13.9658795 29.9978028,14.4230301 C29.5059718,25.3798521 42.8033662,31.3606427 50.5080845,24.158036 C53.5843521,21.1492532 54.317662,16.6920869 55.0309014,12.6745292 C55.4080141,12.5897777 55.6478028,12.3834998 55.7878732,12.1104352 C56.6948451,11.2045879 57.2646338,10.3680634 59.0580845,10.1193041 C60.8515352,9.87075616 62.232169,10.3697542 62.4189296,10.5225605 C62.4660423,10.6174568 62.5165352,10.7125644 62.5752676,10.807672 C62.6572394,10.9494881 62.7687887,11.0625605 62.8955493,11.1515389 C61.124493,22.0622865 69.5914648,28.9624509 78.1391408,23.3035468 C81.8532254,19.808447 82.6380845,14.4574802 82.7931549,9.6813863 C83.2966056,9.37746458 83.6154085,8.78843131 83.4411127,8.04785988 C83.2009014,7.02703796 83.7641408,6.14317104 84.6611831,5.69933542 C85.8267465,5.12298317 85.6205493,3.0181456 84.2819577,2.79643914 M47.5535889,7.97263224 C46.492617,7.73918774 46.0395156,9.3756337 47.1038704,9.60971487 C47.8575643,9.77548242 48.496347,10.155707 48.9279201,10.7998619 L48.973363,10.8698907 C49.5524786,11.7917843 51.0168651,10.940773 50.4337323,10.0129372 C49.777655,8.9688036 48.758124,8.23748564 47.5535889,7.97263224 Z M78.6281409,6.95799755 C78.2541156,6.69441749 77.6881088,6.89008642 77.4709669,7.26253652 C77.2319792,7.67267317 77.3886202,8.12931765 77.7389173,8.39762278 L77.774585,8.4238168 C78.0958959,8.65036832 78.4088279,9.056466 78.4481263,9.47256193 L78.4515942,9.52461373 C78.4936694,10.6135262 80.1853466,10.619044 80.14306,9.52461373 C80.1018305,8.45395236 79.4821197,7.55943548 78.6281409,6.95799755 Z" id="ðŸ–-Ink"></path>
                    </g>
                </g>
            </g>
        </g>
    </g>
</svg>