<?xml version="1.0" encoding="UTF-8"?>
<svg width="240px" height="324px" viewBox="0 0 240 324" version="1.1" xmlns="http://www.w3.org/2000/svg" xmlns:xlink="http://www.w3.org/1999/xlink">
    <!-- Generator: Sketch 62 (91390) - https://sketch.com -->
    <title>peep-72</title>
    <desc>Created with Sketch.</desc>
    <g id="Introduction" stroke="none" stroke-width="1" fill="none" fill-rule="evenodd">
        <g id="variations" transform="translate(-2526.000000, -434.000000)">
            <g id="images" transform="translate(126.000000, 110.000000)">
                <g id="a-person/bust" transform="translate(2400.000000, 324.000000)">
                    <g id="body/Sporty-Tee" transform="translate(31.056338, 135.052838)" fill-rule="evenodd">
                        <path d="M24.1490915,150.426542 C26.6782013,150.582878 29.2071394,150.706398 31.7359206,150.800658 C64.8057553,152.033332 97.8487751,148.261985 130.898176,147.436781 C142.407401,147.133705 153.857683,147.285032 165.337331,148.209478 C166.46212,148.299936 167.748317,147.089321 167.610148,145.935771 C165.489232,127.621423 162.835923,109.355685 161.460782,90.9660963 C161.459725,89.9934622 161.585218,89.0223076 161.919444,88.1058928 C161.982401,88.0340337 162.309021,87.2283663 162.599514,87.1784877 C162.504655,87.248656 162.934585,87.1252274 162.660782,87.1463624 C164.3205,86.8745659 165.948317,85.0823155 164.74388,83.3672078 C152.335711,64.3420885 135.397542,46.9775483 129.948106,24.3803977 C128.660641,18.2711061 124.010218,17.8934231 119.055993,15.3730708 C117.510359,14.4534857 113.73057,11.9058693 113.115359,10.1347538 C111.645993,3.7513409 114.233599,-2.50230294 106.67381,-5.08521487 C101.683246,-6.46934795 92.8624014,-7.64043992 87.8128944,-6.18064344 C81.6533873,-4.12991155 82.1143732,2.813791 78.5416268,7.59094168 C76.6938602,10.3540673 73.5438342,14.1372645 70.6350659,14.5606247 C69.2252948,14.7658115 68.18693,11.9130412 66.7793028,12.1093996 C44.8383169,17.4402881 14.9452183,53.8064877 5.51507746,73.9376031 C3.38993662,80.2732509 10.2436056,78.3617988 9.8225493,84.7297832 C9.30346479,96.8107773 8.16817606,112.276546 8.84148592,124.371912 C9.47211972,131.392124 9.00542958,138.747748 11.1867676,145.503983 C10.5996549,146.217079 11.4432465,146.937572 12.1315563,147.247411 C12.9988099,148.722848 21.532331,150.222167 24.1490915,150.426542 Z" id="ðŸŽ¨-Background" fill="#FFFFFF"></path>
                        <path d="M81.2711408,-0.0176688845 C81.8415634,-2.5853636 85.9253662,-1.48422857 85.2260704,1.07289863 C84.1422676,5.02747397 81.8943803,8.76414716 78.7213521,11.3870043 C76.2704366,13.4117401 72.930507,15.2185738 69.6176197,15.5525072 C69.9281831,15.8549495 70.2260704,16.1783155 70.5387465,16.4866755 C71.2443803,17.1883585 71.9943803,17.8393174 72.7676197,18.4649143 C74.3565634,19.7499241 76.0084648,20.9060102 77.8126901,21.8739945 C85.0190282,25.7419162 93.1593803,26.6338145 101.208465,25.7332509 C105.028183,25.3063233 108.904944,24.5816031 112.496493,23.1843663 C114.161493,22.5378458 115.779592,21.6880063 117.207972,20.6145581 L117.581744,20.3338548 C118.332645,19.7665633 119.334764,18.9661539 119.804239,18.0910356 C118.37607,18.4120767 116.569732,16.8903546 115.578887,16.0050082 C114.495296,15.0327969 113.582408,13.7792783 112.908465,12.4942685 C111.588042,9.97307084 110.888746,6.72038982 111.996,4.01700822 C112.069732,3.83736047 112.306352,3.86716086 112.327479,4.06160313 C112.654944,7.21283601 113.504239,10.1675131 115.765014,12.5008204 C116.768535,13.5343233 117.970437,14.4008595 119.282408,15.0029965 L119.467087,15.0878479 C120.025982,15.3465274 120.61443,15.6499397 120.850014,16.2034661 C120.94107,16.1928986 121.031704,16.2013526 121.118324,16.2248125 C121.196493,16.2457362 121.268324,16.2691961 121.338042,16.2945581 C121.181704,15.9881002 121.099521,15.6266912 121.114099,15.1995523 C121.169239,13.5446795 123.440366,13.4941667 123.754944,14.9672783 C123.697901,14.772836 123.621845,14.9609378 123.765507,15.0201159 C123.763257,15.00295 123.759257,14.984013 123.754838,14.9671726 L123.759165,14.9827499 L123.759165,14.9827499 L123.767725,15.0200102 L123.765507,15.0201159 C123.771282,15.046746 123.77593,15.0745033 123.779013,15.1025112 L123.781965,15.1393627 L123.780127,15.1085065 C123.77818,15.0856939 123.775453,15.0652854 123.772396,15.0466998 L123.76762,15.0201159 C123.788746,15.030472 123.818324,15.0370239 123.852127,15.0370239 L123.86609,15.0425271 C123.919013,15.0653542 124.105676,15.1524211 124.160789,15.1744016 C124.538746,15.3138928 124.961282,15.358065 125.347901,15.4785346 C126.186845,15.7365933 126.926282,16.1635209 127.437549,16.8903546 C127.805155,17.4126012 128.009873,18.0107225 128.09438,18.631881 C131.806352,20.4180023 135.319732,22.7384172 138.262901,25.6108791 C144.831211,32.0188086 149.411282,40.0395523 153.169732,48.3416031 C155.082644,52.5680806 156.787346,56.8842076 158.454647,61.2120654 L158.71762,61.8954975 C160.504944,66.5471061 162.085437,71.2496501 162.473958,76.2504094 C162.509873,76.698472 162.361986,77.1190591 162.106352,77.4677871 C162.197197,77.8439906 162.243887,78.2201941 162.231,78.5877323 C162.228887,78.6450082 162.224873,78.7020728 162.220437,78.7591374 C162.820437,78.7485699 163.407761,79.0000767 163.965507,79.7059867 C164.191563,79.6341276 164.436634,79.6254622 164.677479,79.7036618 C166.145789,80.1728595 166.382408,81.7856736 166.659169,83.136202 C166.944592,84.5311139 167.069028,85.9598419 167.071141,87.382018 C167.071141,87.8915836 166.779592,88.5340885 166.285225,88.7517793 C165.355648,89.1615875 164.354451,89.4302137 163.392972,89.8021902 C162.670437,90.0811726 161.945789,90.3453605 161.214803,90.5926403 C161.620437,91.3004524 161.751423,92.2855562 161.971141,93.0316227 C162.315507,94.1961628 162.592268,95.3649299 162.824873,96.5569456 C164.400718,104.662229 165.492972,112.854167 166.96762,120.976359 C167.704944,125.044852 168.562901,129.085869 169.437338,133.126887 C169.868324,135.11358 170.326775,137.095834 170.819028,139.069846 C171.081211,140.12237 171.353535,141.175106 171.634521,142.221079 C171.716211,142.526832 171.79884,142.831646 171.882408,143.136147 L172.029592,143.66904 L172.029592,143.66904 C172.350718,143.846574 172.625366,144.114989 172.815507,144.482527 C173.510789,145.826926 173.111282,147.342308 171.778183,148.098942 C170.328887,148.923208 168.598817,148.145227 167.800014,146.80738 C167.238042,145.862856 167.054239,144.611662 166.777479,143.56104 C166.464803,142.381916 166.166915,141.196241 165.879592,140.010566 C163.927685,131.955466 162.620555,123.759221 161.635337,115.532122 L161.565507,114.944421 C161.064803,110.708961 160.581,106.462934 160.268324,102.208452 C160.114099,100.118198 159.991563,98.0279436 159.915507,95.9332509 C159.877479,94.8555757 159.938746,93.7713487 160.000014,92.6953644 C160.027479,92.2242646 160.06762,91.7506286 160.082408,91.2795288 L160.087162,91.2124379 C160.09107,91.1646907 160.096563,91.1018795 160.101,91.0359721 L160.105648,90.9561628 C158.647901,91.4126795 157.169028,91.79311 155.675577,92.1141511 C152.497901,92.8010395 149.246493,93.1837949 146.003535,92.9893526 C146.455648,98.3618771 147.045085,103.721509 147.869028,109.045423 C148.663394,114.172993 149.580296,119.289572 150.615507,124.374871 C151.133324,126.930096 151.692972,129.478981 152.282408,132.019411 C152.59931,133.37628 152.960577,134.724484 153.246,136.087905 C153.414803,136.899278 153.46762,137.577713 153.127479,138.336672 C153.501999,139.356917 153.834614,140.382403 154.161833,141.348024 L154.259873,141.63585 C154.838746,143.326652 155.937338,145.055286 154.790155,146.716711 C154.196704,147.574582 153.229099,148.065126 152.254944,148.094715 C152.238042,148.105071 152.219028,148.117963 152.200014,148.128319 C151.67607,148.409415 151.071845,148.464578 150.497197,148.344108 C149.624662,148.51509 148.750014,148.680155 147.873254,148.830214 C145.707761,149.204304 143.531704,149.512664 141.351423,149.772836 C137.200014,150.267184 133.021141,150.537924 128.844592,150.687983 C113.552831,151.239396 98.2443803,150.271411 82.9467042,150.550394 C75.152831,150.691998 67.359169,151.04284 59.5781831,151.508022 C55.6950845,151.740507 51.8098732,151.989901 47.924662,152.182229 L46.7220611,152.240748 C43.2475564,152.406978 39.7705338,152.535476 36.2986056,152.281564 C36.231,152.277126 36.1781831,152.24965 36.1422676,152.211818 C34.9443803,152.076554 33.7403662,150.973094 33.8605775,149.698863 C34.3781831,144.271177 34.8957887,138.843912 35.415507,133.414112 C36.3387465,123.74082 37.2704366,114.067317 38.2126901,104.395717 L38.3488628,102.999534 C38.665463,99.7406736 38.9677077,96.4742284 39.1211408,93.2026051 C38.3479014,93.1478654 37.5769859,93.0781198 36.8056479,92.9933683 C28.4488592,92.0781201 20.4375983,89.5495715 12.7454846,86.22808 L12.4338169,86.0929926 C11.7408592,85.7905503 10.9824085,85.4883194 10.2049437,85.1651648 C10.217831,86.642292 10.1690282,88.121744 10.1626901,89.5842881 C10.1521268,92.0129143 10.1711408,94.4413292 10.1774789,96.8674192 C10.1922676,101.867967 10.3824085,106.870629 10.6317042,111.862934 C11.0690282,120.680257 11.5824085,129.48511 12.3598732,138.281509 C12.5563521,140.494347 12.8227606,142.702957 13.0105775,144.915795 C13.1227606,146.219826 12.8542394,147.306378 11.6607887,147.991153 C11.0732535,148.329314 10.6190282,148.187709 10.0359296,147.915067 C8.61198592,147.246989 8.57184507,145.668413 8.4366338,144.294636 C8.33332394,143.258809 8.23804225,142.223404 8.14508451,141.185674 C7.94670423,138.972836 7.7753662,136.759787 7.63592958,134.542723 C7.08473239,125.733642 6.92395775,116.933227 7.30423944,108.11358 C7.48079879,103.988324 7.73568885,99.853774 8.07398418,95.7358207 L8.15353521,94.7858301 C8.43240845,91.4948947 8.61198592,88.0416423 9.18874648,84.7297832 C6.86269014,83.6983937 4.55776056,82.3859084 3.48874648,80.204562 C2.10304225,77.3724681 3.62607042,74.9506051 5.79578873,73.2828399 C5.77466197,73.001744 5.79578873,72.7227616 5.85494366,72.4693526 C6.4781831,69.770198 7.52184507,67.1029573 8.52959155,64.5289221 C9.54578873,61.9417832 10.6676197,59.3952235 11.9014225,56.9031922 C16.8535352,46.9211178 23.6183239,37.7994505 31.6824085,30.1145425 C35.6880423,26.2977675 40.0718451,22.7701198 44.7514225,19.8112157 C47.0711408,18.3467695 49.4500141,16.9939162 51.9133944,15.7894309 L52.2775941,15.6120132 C53.9924657,14.7794959 55.9158028,13.8943233 57.8227606,13.4307616 C58.0211408,13.2828164 58.2218451,13.1433252 58.424662,13.0101746 C59.174662,12.5111765 60.1929718,12.8725855 60.6366338,13.584836 C60.852338,13.4178693 61.1014225,13.2701354 61.3866338,13.1367734 L61.6685395,13.0080539 C63.379613,12.2373058 65.4341875,11.5165954 67.2915634,12.0231687 C68.4450845,12.3380806 69.3535352,13.1877088 69.761493,14.2698223 C70.6971972,13.7752626 71.6162113,13.2659084 72.5140986,12.642425 C73.9570563,11.6448517 75.2648028,10.4061276 76.4394507,9.10632329 C78.7950845,6.49213151 80.5063521,3.42966575 81.2711408,-0.0176688845 Z M163.008465,82.4089456 C162.847901,82.455654 162.678887,82.472562 162.503535,82.4512157 C162.820325,82.4884634 162.185716,82.6757904 162.01168,82.7656149 L161.998606,82.7726795 C161.681704,82.9542294 161.362901,83.1296501 161.039451,83.2989417 C160.285225,83.6960689 159.51431,84.0532509 158.730296,84.3895092 C157.18593,85.0468086 155.590859,85.5519358 153.953535,85.9217988 C152.352127,86.2829965 150.672549,86.4943468 149.031,86.5281628 C147.932408,86.5492978 146.628887,86.4987851 145.492268,86.1752078 C145.623465,88.1682411 145.769028,90.1591609 145.931704,92.1479671 L148.176452,91.6331178 C150.421352,91.1178326 152.663905,90.5899456 154.878887,89.9478106 C156.541563,89.4661432 158.181,88.901838 159.801423,88.2929378 C160.650718,87.9737988 161.493676,87.6358497 162.32607,87.2723272 C162.740319,87.0913409 163.128752,86.8760898 163.512541,86.6580969 L163.840859,86.4713096 C163.764803,85.5815249 163.625366,84.7086481 163.422761,83.8294309 C163.317127,83.3644603 163.137338,82.8868086 163.008465,82.4089456 Z M9.29438028,73.0228791 C9.00916901,73.9488047 8.57184507,74.8132274 7.57466197,75.0224642 C7.22184507,75.0964368 6.92628169,75.0562802 6.681,74.9358106 L6.62218377,75.0544826 C5.80229423,76.7379741 5.56151238,78.5148942 7.44790141,79.8116618 C8.29952113,80.3971022 9.22677465,80.9043429 10.1859296,81.3585346 C11.9011585,82.1750733 13.727798,82.8314893 15.44999,83.4991437 L15.7929718,83.6328751 C18.8732535,84.8417988 22.0021268,85.9429339 25.1795915,86.8642098 C28.4037465,87.7962646 31.6845211,88.5444446 35.0058592,89.0199828 C36.4063521,89.2188634 37.8176197,89.3583546 39.2312113,89.4492352 C39.2542394,87.5470826 39.2436761,85.6428164 39.237338,83.7406638 C38.7345211,83.6770474 38.2359296,83.6096266 37.7544507,83.5523507 C36.2880423,83.3813683 34.8260704,83.1721315 33.3725493,82.9121706 C30.3366338,82.3690004 27.3324085,81.6187068 24.4021268,80.6591765 C18.9725493,78.8774935 13.9211408,76.3305112 9.29438028,73.0228791 Z M68.8232535,14.7578301 C67.5894507,13.4518967 65.2295915,13.9232078 63.7403662,14.5572587 C63.2901549,14.7495875 62.8359296,14.9440297 62.4049437,15.1786286 L62.3214622,15.2253407 C61.819538,15.5145276 61.8220669,15.6863977 62.0671268,16.2626442 C62.3859296,17.0216031 62.8295915,17.7547773 63.2521268,18.4585738 C65.0607887,21.4789808 67.4415634,24.1081785 70.1605775,26.3292587 C79.7901549,34.1914896 93.6239577,36.9646168 105.666211,34.3311922 C111.445657,33.0686645 117.02052,30.5202715 121.275094,26.3404775 L121.662536,25.9548124 C123.378001,24.2375851 125.732802,21.7519618 125.56762,19.2069652 C125.489451,17.9830356 124.490155,17.91329 123.469732,17.676789 C123.051634,17.5795679 122.652127,17.4419789 122.305648,17.2477479 C122.584521,18.4503311 121.099521,20.2381432 120.332408,20.9886481 C118.724662,22.5629965 116.789451,23.7930552 114.742479,24.7126403 C110.846493,26.4647342 106.608676,27.2932274 102.389451,27.8171648 C97.6021268,28.413384 92.7112817,28.3605464 87.9598732,27.4792157 C83.8253662,26.7120141 79.7500141,25.2600376 76.1922676,22.9985894 C74.5612817,21.9627616 72.9535352,20.7813135 71.5929718,19.4056344 L71.3038146,19.1132898 C70.3215075,18.1176727 69.1785672,16.9141988 68.5908592,15.6076697 C68.3669155,15.6097832 68.1450845,15.6032313 67.9232535,15.5884368 C67.7669155,15.5801941 67.6826197,15.358065 67.8387465,15.2756384 C68.0140986,15.1826442 68.1894507,15.0898614 68.3648028,14.9989808 C68.3354366,14.9015483 68.3098732,14.8066521 68.2887465,14.7094309 C68.2718451,14.6270043 68.3584648,14.5509182 68.4345211,14.5974153 C68.5401549,14.660609 68.6415634,14.7284524 68.7408592,14.8001002 C68.7683239,14.7876305 68.7957887,14.772836 68.8232535,14.7578301 Z" id="ðŸ–-Ink" fill="#000000"></path>
                    </g>
                    <g id="head/Hijab" transform="translate(78.591549, 38.043053)" fill-rule="evenodd">
                        <path d="M54.989192,22.228448 C86.7876603,23.2355512 88.7056191,38.3453798 88.7056191,63.6851773 C88.7056191,89.0249747 72.2099288,104.992685 66.1359719,107.780946 C60.062015,110.569208 44.0683828,122.545287 29.6350899,117.026365 C15.2017971,111.507443 19.3814811,88.1905608 19.3814811,78.172034 C19.3814811,68.1535073 23.1907237,21.2213448 54.989192,22.228448 Z" id="Path-2" fill="#FFFFFF"></path>
                        <path d="M67.8891972,99.4586583 C62.0497606,102.719793 55.3633521,102.846604 49.0821549,100.794392 C45.3152535,99.5666583 41.8612394,97.6685213 38.6286338,95.3986192 C35.816662,93.4224939 33.3068028,91.2307914 30.8201831,88.9036133 C28.773,84.3872689 26.9499718,79.8791671 26.0962394,74.9652728 C25.3314507,70.5543922 25.2300423,65.9744313 26.1173662,61.5720047 C32.6795493,56.1720047 39.2013803,50.7276211 45.7145493,45.2665409 C49.0314507,42.4849597 52.3568028,39.7185957 55.7222958,36.9961926 C57.4314507,35.6139616 59.1239155,34.2105957 60.8265211,32.8220243 C61.107507,32.5937659 61.3865915,32.3655076 61.6675775,32.1372493 C65.1828592,34.7114959 68.9518732,36.9182043 72.4422254,39.5345096 C74.2694789,40.906173 76.0462394,42.3666035 77.738493,43.9029088 C78.6258169,44.7083648 79.4922254,45.5389714 80.3372958,46.3907131 C81.1103239,47.1686935 81.8560986,48.2844117 82.9527887,48.5784 C83.1027887,48.6183452 83.2441268,48.6267992 83.3772254,48.6077777 C84.8434225,61.4494215 85.8849718,75.3161143 79.6039859,86.9784235 C76.8638451,92.065625 72.9788451,96.6138834 67.8891972,99.4586583 Z M29.9013803,104.178322 C29.0972958,103.441343 30.2956056,102.248694 31.0963099,102.982502 C36.1257465,107.591206 42.7008169,110.034204 49.3422254,111.164928 C50.4137746,111.347746 49.9568028,112.976623 48.8928592,112.795285 C41.9588451,111.614682 35.1437746,108.982103 29.9013803,104.178322 Z M23.8663099,111.249468 C22.9063099,110.734196 23.7608873,109.275245 24.7191972,109.789461 C28.6375775,111.891762 32.9353944,112.98402 37.2946901,113.721633 C38.3668732,113.902971 37.9094789,115.531848 36.8455352,115.351989 C32.3381408,114.589437 27.9152535,113.421727 23.8663099,111.249468 Z M39.8138451,40.0187131 C43.0652535,37.0997542 46.5596197,34.3224 50.2506761,31.9787366 C53.9856761,29.6073863 58.0652535,28.1892258 62.4744085,28.1554098 C62.1659577,28.4026896 61.8722958,28.677445 61.5744085,28.9329675 C60.7422254,29.6454294 59.9117324,30.3619068 59.0814507,31.0762708 C57.4208873,32.5071123 55.7560986,33.935629 54.116662,35.3899303 C50.888493,38.2558403 47.6497606,41.1069558 44.4279296,43.9792063 C38.2356761,49.4996759 32.1767324,55.1404039 26.2483521,60.9442943 C26.2802535,60.8026896 26.3140563,60.6610849 26.3476479,60.5196916 C28.3103239,52.3190888 33.6490563,45.5537659 39.8138451,40.0187131 Z M65.301169,28.5125918 C65.3222958,28.4491867 65.3372958,28.3876838 65.3457465,28.328717 C73.8070141,29.4319656 80.8739155,35.6602474 83.2103239,43.8608501 C83.007507,44.1440595 82.8955352,44.4801065 82.9377887,44.8370771 C82.9589155,45.0169362 82.9800423,45.1986975 83.001169,45.3783452 C82.7117324,45.0911202 82.4138451,44.8224939 82.1605352,44.5667601 C81.3173662,43.7129049 80.453493,42.8820869 79.5659577,42.0726153 C77.751169,40.4179538 75.8668732,38.8708697 73.8807465,37.4273472 C70.4267324,34.9165057 66.6870845,32.6085605 62.5694789,31.4038638 C62.8399014,31.181946 63.1105352,30.9600282 63.3830704,30.7402239 C64.1962394,30.0784861 64.9506761,29.5334137 65.301169,28.5125918 Z M80.4703944,19.7436681 C75.2753239,14.0646857 68.0814507,9.90531194 60.5056056,8.45967593 C53.2715915,7.07744501 45.7821549,7.98836477 38.9478592,10.674627 C24.6469437,16.2965448 13.3631408,28.6586348 8.07933803,42.9837464 C4.99905634,51.3299695 3.98919718,60.4793237 4.91476056,69.3137659 C5.83567606,78.1078403 8.48285915,87.1897738 13.2997606,94.6715742 C13.7413099,95.3565605 14.2251127,96.0136485 14.7321549,96.6498129 C14.5060986,99.2325135 13.6441268,101.76449 12.2877887,103.96676 C12.2149014,104.084694 12.138,104.200514 12.0619437,104.316545 C10.6730704,105.357022 9.23243662,106.333461 7.82602817,107.34139 C6.60722535,108.21469 5.40088732,109.110604 4.25476056,110.077954 C3.17285915,110.991198 1.9164507,112.008216 1.18398592,113.240811 C0.583774648,114.250431 0.338704225,115.623151 1.158,116.586063 C2.14525352,117.745954 3.81807042,117.336991 5.15539437,117.336991 C5.26990141,117.336991 5.38419718,117.339527 5.49849296,117.340795 C5.90011268,117.593359 6.31377465,117.821617 6.7145493,118.034024 C10.7645493,120.181555 14.829338,122.305625 18.8983521,124.419128 C27.0027887,128.631339 35.0732113,133.012842 43.3441268,136.890909 C47.1767324,138.6895 51.2795493,140.261735 55.5722958,140.255641 C59.5992676,140.249265 63.2391972,138.649343 66.3828592,136.216701 C69.9659577,133.445688 72.9619437,129.926917 75.8687746,126.477891 C77.0307465,125.097351 78.1694789,123.700537 79.2870845,122.28449 C81.4335634,121.568013 83.5631408,121.358776 85.4772254,122.741007 C87.0131408,123.850596 89.0370845,122.341555 89.073,120.675903 C89.0856761,120.084545 89.0605352,119.501007 88.9969437,118.926134 C88.6126479,115.375238 86.8758169,112.162924 84.9194789,109.183097 C83.8506761,107.553375 82.7246197,105.953241 81.5920141,104.368114 C81.3258169,103.994236 81.0638451,103.620146 80.8103239,103.239504 C85.3589155,96.5399108 88.9673662,89.1109479 91.1856761,81.3478403 C93.516169,73.1793628 94.3084225,64.7084431 93.7887042,56.2438638 C92.9899014,43.2711828 89.4323662,29.5418677 80.4703944,19.7436681 Z" id="ðŸ–-Ink" fill="#000000"></path>
                    </g>
                    <g id="face/Smiling" transform="translate(112.183099, 77.354207)" fill="#000000" fill-rule="evenodd">
                        <path d="M30.968993,50.9198978 C29.548794,50.3403012 28.2816173,49.3734958 27.3551889,48.1384646 C27.0331038,47.7091169 26.9495926,47.2557326 27.017159,46.8410547 C27.0931327,46.3747786 27.3688808,45.9521824 27.7449394,45.6687178 C28.1221628,45.3843752 28.5940214,45.2441445 29.0502103,45.3156301 C29.4466117,45.3777469 29.8412104,45.5948709 30.1535058,46.0451781 L30.2187521,46.1352289 C30.7695298,46.8806513 31.4872438,47.4922614 32.3050288,47.8864795 C33.0932406,48.2664417 33.9747757,48.4437847 34.8870208,48.3406561 C36.6244504,48.1443157 37.8219743,47.2043274 39.0948115,45.9278391 C39.2525834,45.7666792 39.4104563,45.6004672 39.5690946,45.4315797 C39.6692778,45.278484 39.8083069,45.1800892 39.962667,45.1284632 C40.1340565,45.0711416 40.327938,45.0743848 40.5055187,45.1363808 C40.6767961,45.1961763 40.8299095,45.309486 40.9325762,45.4602937 C41.0301525,45.6036243 41.0854754,45.7806897 41.0675245,45.9843589 C40.9510195,47.3072301 40.2596776,48.4878363 39.2776553,49.4148615 C38.1869942,50.4444414 36.7412431,51.1567117 35.3801317,51.4065272 C33.8805866,51.6817086 32.3525901,51.4845569 30.968993,50.9198978 L30.968993,50.9198978 Z M36.0875289,30.5120405 C37.6828906,31.482148 40.1137318,33.7442494 38.3974899,36.149264 C36.3773089,38.2698449 33.4687045,35.8384541 32.0353946,34.7388307 C30.7063626,33.8866164 29.2131206,36.0784478 30.4461973,37.0735516 C40.8033244,44.7445605 45.006466,30.7657101 36.8944406,29.3714319 C36.0012775,29.2177885 35.6695544,30.2119271 36.0875289,30.5120405 Z M17.5274577,21.5886716 C17.7037243,19.3998697 21.0359789,18.9028321 21.3674577,21.0687499 C21.6642887,23.0089456 21.3148521,24.7912626 20.4412606,26.5380728 C19.6065423,28.2068947 17.5085456,27.4283107 17.3498837,25.9087021 C17.1372039,23.8717299 17.4178099,22.9502317 17.5274577,21.5886716 Z M42.8930282,20.6196517 C43.3576056,20.0109628 44.0283803,19.5954481 44.8320423,19.8302583 C47.3429577,20.5642779 46.6028873,24.1303914 45.7210563,25.8662114 C45.2419014,26.8088337 43.6930986,27.0478708 42.993169,26.2178982 C41.8523239,24.864411 41.3059859,22.1614521 42.756338,20.8282544 C42.7956338,20.7593542 42.8393662,20.68982 42.8930282,20.6196517 Z M20.4058944,12.0111429 L20.802522,11.9416942 C22.0295218,11.7294045 23.5551549,11.5254176 24.4231479,12.5122544 C24.8835,13.0355577 25.0419507,14.0081918 24.4231479,14.509092 C23.3346972,15.3904227 22.1313169,15.0488806 20.8269507,15.1234873 C19.7520211,15.1852016 18.7189225,15.3631585 17.6835,15.6592603 C15.4119507,16.3087397 13.5610352,17.4944149 11.6209648,18.7963327 C11.3663873,18.9671037 11.1065282,18.6414129 11.228007,18.4032211 C12.3479366,16.208771 14.5182887,14.4061644 16.6922324,13.3073542 C17.8525141,12.7208571 19.1222324,12.2343288 20.4058944,12.0111429 Z M40.6041287,11.0281289 L40.9077055,11.0902829 C44.2113469,11.7811043 48.5035506,13.1610768 50.0679842,16.4073021 C50.1275964,16.8663298 50.0646105,16.9647086 50.0133917,17.0289838 L49.9963385,17.0503723 C49.9541341,17.1052595 49.9204583,17.1809212 49.7215736,17.2433957 C49.6663832,17.2302408 49.6106433,17.216308 49.5543131,17.2015401 C48.8372041,17.0135386 48.2698321,16.7545401 47.720556,16.4857982 L47.1250012,16.192275 C46.4340388,15.8533498 45.7369757,15.5267598 44.9982488,15.2856588 C43.4217423,14.7712438 41.8001698,14.4088706 40.1534741,14.2153715 C39.7965654,14.1734678 39.4528848,14.0529641 39.1817455,13.8464404 C38.92438,13.6504079 38.7277692,13.3789964 38.6381257,13.0182314 C38.5219478,12.5513438 38.5553348,12.1978716 38.8057421,11.7766707 C38.9940329,11.4603578 39.263447,11.2411116 39.5728025,11.115213 C39.888177,10.9868648 40.2472278,10.9566068 40.6041287,11.0281289 Z" id="ðŸ–-Ink"></path>
                    </g>
                    <g id="facial-hair/*-None" transform="translate(104.577451, 109.479380)"></g>
                    <g id="accessories/Glasses-2" transform="translate(88.521127, 88.978474)" fill="#000000" fill-rule="evenodd">
                        <path d="M78.6572746,20.1750129 C76.0922746,22.8264023 71.8103028,23.5872634 68.3976972,22.1652986 C59.635162,18.5028094 63.9241056,7.07932603 70.6819225,4.01157652 C71.5261479,3.80107162 72.6536831,3.30165088 73.6819225,3.18836712 C73.7748803,3.14271546 73.9772746,3.27480939 74.2225563,3.14990137 C81.6741761,3.98219883 83.3710775,15.5540501 78.6572746,20.1750129 M50.3943169,20.8536587 C47.5174859,24.6708564 42.1690352,25.8485002 37.7991761,24.0740031 C29.1663592,20.6729542 32.2282606,10.543146 38.134669,6.57187397 C50.6115,1.88179961 55.7636831,13.8154826 50.3943169,20.8536587 M31.6802324,12.3958427 C31.6722042,12.3920384 31.6641761,12.3901362 31.6559366,12.3863319 C31.7015704,12.3662536 31.7472042,12.3461753 31.7926268,12.3256744 C31.777838,12.3643515 31.7617817,12.4026059 31.7474155,12.441283 C31.7250211,12.4258544 31.7053732,12.4078896 31.6802324,12.3958427 M84.5964296,8.26965088 C83.8920634,8.27113033 82.8745986,8.38695029 82.2915,8.87580352 C80.8536127,4.02468023 75.5461479,-0.465034051 70.9303732,2.808782 C67.2955141,3.97818317 64.5982606,6.57166262 63.0653028,10.0196313 C60.3012887,8.37490333 55.9550915,9.07722035 53.5582606,11.2522262 C51.9885423,6.06336517 48.1253028,4.24638669 43.5270634,3.97818317 C38.5081901,3.15581918 33.5057958,8.0318818 31.9449507,11.943553 C30.6471338,11.7958192 28.7079085,11.3826294 27.486993,12.1838583 C19.5629789,10.1050168 5.70910563,8.95886419 4.09819014,10.1138935 C2.95016197,10.5545589 2.32016197,13.2653378 3.9236831,13.4115922 C5.32100704,13.2131342 3.76058451,11.4253221 5.16910563,11.2302458 C12.6739648,10.7648524 19.9595282,12.2768524 27.3849507,12.911326 C28.0479085,13.8034356 30.1899507,14.1018622 31.3326972,13.7434121 C29.5329085,20.3789659 33.4181197,24.8934082 39.2395986,26.2456274 C48.2537535,28.3170716 56.0962183,20.2502536 53.7391056,11.859647 C56.4697394,10.5006646 59.6106549,10.5589973 62.5853028,11.2748407 C57.6145986,29.5756626 87.0773451,28.7545667 82.4757254,9.50287984 C85.5380493,11.0267155 86.2031197,8.57716556 84.5964296,8.26965088" id="ðŸ–-Ink"></path>
                    </g>
                </g>
            </g>
        </g>
    </g>
</svg>