<?xml version="1.0" encoding="UTF-8"?>
<svg width="240px" height="324px" viewBox="0 0 240 324" version="1.1" xmlns="http://www.w3.org/2000/svg" xmlns:xlink="http://www.w3.org/1999/xlink">
    <!-- Generator: Sketch 62 (91390) - https://sketch.com -->
    <title>peep-85</title>
    <desc>Created with Sketch.</desc>
    <g id="Introduction" stroke="none" stroke-width="1" fill="none" fill-rule="evenodd">
        <g id="variations" transform="translate(-3006.000000, -110.000000)">
            <g id="images" transform="translate(126.000000, 110.000000)">
                <g id="a-person/bust" transform="translate(2880.000000, 0.000000)">
                    <g id="body/Sweater-Dots" transform="translate(31.056338, 135.052838)">
                        <path d="M24.9119215,152.753119 C31.9614243,152.774919 38.8112317,153.016339 45.8805383,153.039931 C74.6169435,153.135834 103.617783,152.996234 132.458423,151.830884 C140.609878,151.501511 142.644634,151.509615 150.760907,150.998518 C155.55309,150.981352 169.947978,150.584892 169.227344,144.055187 C168.909175,131.893552 165.899245,119.783413 164.951288,107.654661 C163.131851,84.8537412 161.582414,61.3397302 152.446147,40.0138 C150.331358,34.9208245 145.789527,31.5903089 141.293541,28.5954506 C136.784668,25.3646189 135.678106,21.7774763 131.516768,18.1276415 C130.636855,17.3558127 125.640149,17.0417296 122.951731,15.0841549 C119.038711,12.2348842 117.098184,7.56998909 115.63826,6.77585798 C114.563964,6.19161142 114.583622,2.16045402 112.430433,0.73365108 C109.541028,-1.18100267 100.333391,-2.60465811 96.9834791,-2.87093114 C93.7681796,-3.12650432 88.1757182,-2.58966651 85.1590153,-1.41185023 C80.1282454,0.552321601 78.1217209,4.2990663 75.9062173,9.12608026 C46.6357243,18.1760078 19.8818511,33.50064 11.5731187,64.411316 C4.40797787,90.3361455 4.14537223,118.129116 6.9134004,144.717609 C7.4671328,146.661857 7.07903421,149.709866 8.75861167,150.998518 C2.92171026,151.333555 24.1200905,152.53762 24.9119215,152.753119 Z" id="ðŸŽ¨-Background" fill="#FFFFFF"></path>
                        <path d="M158.045007,127.154804 C157.491063,126.878146 156.913669,126.561755 156.281134,126.539775 C155.194796,126.501943 155.193317,124.810929 156.281134,124.848972 C157.229937,124.882154 158.063176,125.277802 158.898106,125.694796 C159.872261,126.181324 159.015359,127.639219 158.045007,127.154804 M156.281134,79.562522 C157.022472,79.5631562 157.769725,79.6567843 158.339092,80.175438 C158.677542,80.4840094 158.650711,81.0590935 158.339092,81.3710466 C158.0055,81.704346 157.481134,81.6783499 157.143739,81.3710466 C157.25381,81.4710153 157.144796,81.371892 157.104866,81.3497002 C157.095359,81.3446278 157.090077,81.3410348 157.087542,81.33871 C157.079092,81.3365965 157.070641,81.3349057 157.056908,81.3313127 C156.968599,81.3091209 156.881345,81.2873519 156.791979,81.2712892 C156.7905,81.2755162 156.603317,81.2588196 156.559373,81.2571288 C156.466415,81.2537472 156.37388,81.2533245 156.281134,81.2533245 C155.822683,81.2531131 155.436063,80.8667648 155.436063,80.4079233 C155.436063,79.9514067 155.824373,79.5623108 156.281134,79.562522 M148.334303,98.5282521 C148.09219,99.5902873 146.463106,99.1379977 146.704585,98.07871 C147.055711,96.5386004 146.991697,94.9606591 146.704585,93.4150544 C146.506838,92.3498489 148.135923,91.8973479 148.334303,92.9657237 C148.678669,94.8196885 148.755782,96.6802051 148.334303,98.5282521 M146.199655,37.7629292 C144.940923,37.4638685 143.695923,37.4283616 142.408458,37.4279389 C141.319162,37.4275162 141.320852,35.7367139 142.408458,35.7371365 C143.844444,35.7375593 145.246204,35.7992736 146.649021,36.132573 C147.708317,36.3842912 147.257049,38.0140133 146.199655,37.7629292 M141.981908,78.9466474 C141.251979,78.5814341 140.521627,78.2162207 139.791697,77.8510074 C138.817331,77.363845 139.674444,75.9059507 140.644585,76.3909996 L142.835007,77.4868509 C143.808951,77.9740133 142.952049,79.4319076 141.981908,78.9466474 M141.677894,112.242984 C140.751908,113.578506 139.449866,114.408268 137.887331,114.822726 C136.833106,115.102342 136.387331,113.470929 137.437965,113.192369 C138.555359,112.896056 139.548106,112.356479 140.218458,111.389551 C140.834725,110.500612 142.299232,111.346859 141.677894,112.242984 M135.837824,52.7132149 C135.587261,52.2448626 135.210148,52.0470387 134.741979,52.0364712 C133.654373,52.0115319 133.654162,50.3207295 134.741979,50.3456689 C135.80888,50.3697628 136.787261,50.9057472 137.297049,51.8599937 C137.810218,52.8201581 136.35057,53.6733793 135.837824,52.7132149 M125.117683,64.2060211 C124.814725,64.5361503 124.22719,64.5279076 123.922542,64.2060211 C123.735993,64.0090427 123.579232,63.789027 123.455852,63.5478763 C123.408951,63.4563616 123.364796,63.3631562 123.313246,63.2741777 C123.290218,63.2346552 123.264655,63.195344 123.238458,63.157301 C123.229585,63.149481 123.211204,63.1304595 123.19219,63.1103812 C122.867472,62.766937 122.875711,62.2599076 123.19219,61.9147726 C123.495359,61.5846434 124.082894,61.5928861 124.387542,61.9147726 C124.57388,62.1117511 124.730852,62.3317667 124.854021,62.5729174 C124.900923,62.6644321 124.945077,62.7576376 124.996838,62.8468274 C125.019866,62.8863499 125.04543,62.9254497 125.071627,62.9634928 C125.0805,62.9713127 125.098669,62.9903342 125.117683,63.0104125 C125.442613,63.3538568 125.434373,63.8608861 125.117683,64.2060211 M124.216415,89.17262 C123.115711,89.6764791 121.908528,89.6764791 120.807824,89.17262 C120.390993,88.9817706 120.29212,88.3796337 120.504866,88.0158998 C120.751204,87.5944673 121.246204,87.5228196 121.660923,87.7126121 C122.160148,87.9410818 122.864937,87.9408705 123.363528,87.7126121 C123.780148,87.5219742 124.270289,87.5896063 124.519585,88.0158998 C124.733599,88.3819585 124.631556,88.982616 124.216415,89.17262 M121.214092,106.844675 C121.025007,107.292526 120.616627,107.530506 120.139162,107.548683 C119.666134,107.566647 119.313951,107.146906 119.294092,106.703281 C119.281415,106.41669 119.436275,106.171735 119.658739,106.019986 C119.658951,106.004346 119.659373,105.988706 119.659373,105.972855 C119.659585,105.499007 120.046415,105.147955 120.504444,105.127454 C120.96057,105.106953 121.349725,105.53071 121.349514,105.972855 C121.349303,106.271281 121.330923,106.567383 121.214092,106.844675 M116.853528,134.939681 C115.504796,134.96145 114.186908,135.282914 112.837965,135.304894 C111.748035,135.322436 111.751415,133.631634 112.837965,133.614092 C114.186697,133.592111 115.504585,133.270647 116.853528,133.248878 C117.943458,133.231125 117.940077,134.921927 116.853528,134.939681 M111.244796,26.5890505 C110.455289,27.3414575 109.480077,27.7121659 108.518387,28.182209 C107.544021,28.6583812 106.688176,27.1998528 107.665289,26.7222012 C108.479937,26.3240172 109.381838,26.0298176 110.049866,25.3936532 C110.837894,24.6427256 112.034303,25.8370661 111.244796,26.5890505 M109.12557,46.0776611 C108.571627,45.8010035 107.994232,45.4846121 107.361908,45.4626317 C106.275359,45.4245886 106.27388,43.7337863 107.361908,43.7718294 C108.3105,43.8048 109.143739,44.2006591 109.978669,44.6176532 C110.953246,45.1041816 110.096134,46.5620759 109.12557,46.0776611 M98.9655,124.295023 C98.7153592,123.826459 98.3382465,123.628636 97.8700775,123.618068 C96.7822606,123.59334 96.781838,121.902538 97.8700775,121.927266 C98.9369789,121.951571 99.9153592,122.487555 100.425148,123.441591 C100.938106,124.401966 99.478669,125.254976 98.9655,124.295023 M95.4470493,87.5794614 C95.1107113,87.2706787 95.134162,86.697074 95.4470493,86.3840642 C95.8121197,86.0188509 96.1771901,85.6536376 96.5424718,85.2884243 C96.8762746,84.9542795 97.400007,84.9785847 97.7374014,85.2884243 C98.0737394,85.597207 98.0502887,86.1708117 97.7374014,86.4840329 C97.3721197,86.8492462 97.0072606,87.2142481 96.6421901,87.5794614 C96.3079648,87.9138176 95.7844437,87.889301 95.4470493,87.5794614 M91.2985986,144.80044 C90.0793732,144.771908 88.9364155,144.421912 87.7883873,144.03979 C86.7597254,143.697403 87.2033873,142.064933 88.2377535,142.409434 C89.2355704,142.741465 90.2378239,143.08491 91.2985986,143.109638 C92.3864155,143.134788 92.386838,144.825591 91.2985986,144.80044 M85.8225423,108.644323 C84.720993,108.613677 83.8072606,108.052542 83.0346549,107.30098 C82.2531761,106.540964 83.4495845,105.346413 84.2297958,106.105583 C84.6719789,106.535469 85.1821901,106.935767 85.8225423,106.95352 C86.9099366,106.983743 86.9107817,108.674546 85.8225423,108.644323 M89.2231056,62.1472579 C89.2364155,62.5974341 89.4265563,63.0797354 89.7058521,63.3756258 C90.4526831,64.1669213 89.2590211,65.3640094 88.5107113,64.5712344 C87.8933873,63.9173166 87.5589507,63.0421151 87.5329648,62.1472579 C87.5016972,61.0571131 89.1920493,61.0617628 89.2231056,62.1472579 M76.3313451,25.3224282 C75.9776831,24.6296219 75.514162,23.8171914 74.809162,23.434436 C73.8516972,22.9147256 74.7058521,21.4553519 75.6622606,21.9744282 C76.6205704,22.4947726 77.3063451,23.5202442 77.7907817,24.4689957 C78.2851479,25.4371914 76.8261338,26.2916806 76.3313451,25.3224282 M74.1405,42.9061386 C73.7483873,42.894937 73.3592324,42.8277276 72.9810634,42.7252227 C72.8194437,42.6812618 72.6597254,42.6307491 72.4978944,42.5867883 C72.4285986,42.5679781 72.1343028,42.5312031 72.3151479,42.5409252 C71.8575423,42.5164086 71.4700775,42.1735984 71.4700775,41.6955241 C71.4700775,41.2561268 71.8588099,40.8256063 72.3151479,40.8501229 C72.9424014,40.8837276 73.5128239,41.1975828 74.1405,41.2153362 C75.2274718,41.245982 75.2283169,42.9367843 74.1405,42.9061386 M68.6644437,69.9317119 L66.8390915,69.9317119 C65.7497958,69.9317119 65.7516972,68.2409096 66.8390915,68.2409096 L68.6644437,68.2409096 C69.7537394,68.2409096 69.751838,69.9317119 68.6644437,69.9317119 M66.5352887,144.684831 C65.9817676,144.961912 65.3293732,145.224409 64.8810634,145.648377 C64.0905,146.396135 62.8938803,145.202005 63.6859225,144.452769 C64.2569789,143.912769 64.9871197,143.572917 65.6824014,143.225035 C66.0920493,143.020025 66.5957113,143.112596 66.838669,143.528323 C67.0581761,143.904103 66.9434577,144.480667 66.5352887,144.684831 M62.4567676,123.321544 C62.385993,123.301888 62.3112042,123.28815 62.2395845,123.278428 C61.9522606,123.23954 61.6516268,123.253066 61.3630352,123.252855 C60.2737394,123.252221 60.2754296,121.561418 61.3630352,121.562052 C62.2201479,121.562475 63.1121197,121.574522 63.7860634,122.174968 C64.1281056,122.479735 64.0949366,123.061371 63.7860634,123.370366 C63.4501479,123.706413 62.9314859,123.674076 62.5909225,123.370366 C62.626838,123.402702 62.503669,123.334647 62.4567676,123.321544 M61.3634577,94.5897393 C61.6089507,94.083344 61.6127535,93.7532149 61.6131761,93.190389 C61.6140211,92.1006669 63.304162,92.1023577 63.3033172,93.190389 C63.3028944,94.0074693 63.1814155,94.7032344 62.8228944,95.4431718 C62.6228239,95.8557276 62.0371901,95.9633049 61.666838,95.7464595 C61.2514859,95.503618 61.1646549,95.000393 61.3634577,94.5897393 M56.4766268,54.9279546 C55.4963451,55.2614654 54.6212746,55.7336219 53.7580352,56.3036337 C52.846838,56.9051366 52.0011338,55.4402677 52.9049366,54.8436258 C53.8900775,54.193301 54.9090211,53.678029 56.0272606,53.2973871 C57.0612042,52.9457002 57.5008521,54.579438 56.4766268,54.9279546 M50.775993,26.4715397 C50.0477535,26.4918294 49.2960634,26.7712344 48.6470493,27.0865691 C47.6716268,27.5604164 46.8157817,26.1018881 47.794162,25.6265613 C48.7212042,25.1759624 49.7355,24.8099037 50.775993,24.7807374 C51.8659225,24.7500916 51.8612746,26.4411053 50.775993,26.4715397 M48.2205,102.435696 C47.9340211,102.448589 47.689162,102.293669 47.5374718,102.070906 C47.5216268,102.070906 47.505993,102.070483 47.4903592,102.070483 C47.0166972,102.070272 46.665993,101.683289 46.6452887,101.225082 C46.6247958,100.768777 47.0483873,100.379469 47.4903592,100.379681 C47.788669,100.379892 48.0846549,100.398068 48.361838,100.515156 C48.8095141,100.704103 49.0474014,101.112643 49.0655704,101.590295 C49.0835282,102.06372 48.6639507,102.415829 48.2205,102.435696 M44.0642324,43.9715554 C43.0262746,44.3107726 42.5855704,42.6776689 43.6148662,42.3411992 C44.8231056,41.9461855 46.0577535,41.6403616 47.2657817,41.2453479 C48.3037394,40.9061307 48.7444437,42.5394458 47.7149366,42.8759155 C46.5071197,43.2707178 45.2722606,43.5765417 44.0642324,43.9715554 M40.2738803,75.885027 C39.9519085,76.9227569 38.3211338,76.4772305 38.6439507,75.4354849 C38.9557817,74.4298802 38.9781761,73.417935 38.9788099,72.3732305 C38.9794437,71.2835084 40.6695845,71.2854106 40.6689509,72.3732305 C40.6683169,73.5622873 40.6283873,74.7405652 40.2738803,75.885027 M28.9738099,114.108996 C28.912331,114.530005 28.5785282,114.833293 28.1416268,114.852949 C27.6969085,114.872816 27.2805,114.449904 27.2965563,114.007548 C27.3276127,113.15644 28.0212042,112.462788 28.8717676,112.43172 C29.345007,112.414389 29.6969789,112.832863 29.716838,113.277121 C29.7362746,113.70891 29.3758521,114.046013 28.9738099,114.108996 M23.2552183,65.5191405 C22.3621901,65.8173558 21.4078944,66.1011992 20.7077535,66.7625143 C19.9165563,67.5094262 18.7199366,66.3155084 19.5126127,65.5669057 C20.4358521,64.6950857 21.6233873,64.2835867 22.8060634,63.888573 C23.8416972,63.5428039 24.2817676,65.1763303 23.2552183,65.5191405 M19.3795141,98.3648783 C19.1340211,98.78462 18.6369085,98.8604947 18.2234577,98.6681659 C17.6690915,98.4103186 17.0570493,98.418984 16.4593732,98.4183499 C15.3702887,98.4175045 15.3719789,96.7267022 16.4593732,96.7275472 C17.3813451,96.728393 18.2319085,96.8152579 19.0765563,97.2081581 C19.4921197,97.401755 19.5933169,97.9992423 19.3795141,98.3648783 M17.1895141,138.2266 C16.7162746,138.243931 16.3643028,137.825246 16.3444437,137.381199 C16.325007,136.949411 16.6852183,136.612307 17.0876831,136.549324 C17.1489507,136.128315 17.4829648,135.824816 17.9196549,135.805371 C18.3645845,135.785293 18.780993,136.208205 18.7647254,136.650773 C18.733669,137.50188 18.0405,138.195321 17.1895141,138.2266 M171.166838,144.619524 C170.879725,143.586021 170.222683,142.751187 169.726204,141.821246 C169.559725,141.507814 169.501838,141.312949 169.411627,141.083422 C169.289092,141.3288 169.051204,141.513309 168.693528,141.51352 C168.007331,141.513732 167.204725,141.469559 166.564373,141.763336 C166.147965,141.954186 165.657401,141.886342 165.408317,141.460049 C165.194303,141.093778 165.296556,140.493544 165.711486,140.303328 C166.655218,139.870694 167.669725,139.823141 168.693528,139.822506 C168.946415,139.822506 169.137824,139.915712 169.273035,140.055626 C169.664303,134.695782 169.654585,129.332135 169.284444,123.968487 C168.889585,118.236667 167.980923,112.618976 167.030218,106.961129 C166.569866,104.217802 165.971979,101.447 166.088176,98.6529487 C166.204373,95.8779194 167.39381,93.2909918 166.550852,90.5075084 C166.212824,89.3915789 165.633951,88.3686434 165.257894,87.2653949 C164.854373,86.0776063 164.890289,84.9046121 165.074092,83.6745534 C165.452261,81.1700524 166.079514,78.6951405 165.075993,76.2498176 C164.632542,75.1655906 163.914021,74.1976063 163.567754,73.0774497 C163.136768,71.6846513 163.195923,70.1439076 163.124092,68.7003851 C162.978317,65.7879781 162.940289,62.8565495 162.699232,59.950483 C162.591697,58.6485652 162.35719,57.4142795 161.822683,56.2201503 C161.309092,55.0704047 160.546627,54.0242207 160.206486,52.8047295 C159.868458,51.6042599 159.83888,50.3382716 159.65719,49.1103264 C159.467049,47.8126356 159.169162,46.5339663 158.767754,45.2869996 C157.217049,40.4597589 154.3755,36.1228509 151.018458,32.3629292 C147.450148,28.3662951 143.184655,25.3566669 138.65719,22.5520485 C136.276415,21.0772462 133.895852,19.6024438 131.516768,18.1276415 C131.466063,18.404299 131.289655,18.6585534 130.950993,18.7718372 C130.057542,19.0702638 129.103669,19.3538959 128.403317,20.015211 C127.612331,20.7621229 126.4155,19.5682051 127.208176,18.8198137 C128.035077,18.038663 129.074303,17.6275867 130.131908,17.266389 C129.047894,16.5828822 127.952261,15.8750701 126.729021,15.4802677 C125.657683,15.1336532 124.077613,15.4358841 123.209092,14.6496611 C122.526908,14.0304047 122.311204,12.8827726 122.049444,12.0415984 C121.721979,10.997528 121.43888,9.89639295 121.022683,8.88191155 C120.739585,8.18868258 120.327613,7.52292916 119.807894,6.98609941 C119.579725,6.10688219 119.161204,5.30375108 118.421768,4.8155319 C116.486768,3.53474912 114.110007,4.80707789 113.258599,6.63314442 C112.555077,6.63103092 111.813528,6.78531663 111.129021,6.82758669 C109.721979,6.91635382 108.312824,6.95651037 106.903669,6.95228337 C104.146627,6.94382935 101.387472,6.7641816 98.653669,6.3985456 C93.7649366,5.74335969 89.0219789,4.42242035 84.2156408,3.39314442 C84.1881761,3.32973933 84.1564859,3.26633425 84.1184577,3.20292916 C83.0832465,1.46562975 80.503669,1.75940665 78.8788099,2.41670607 C78.181838,2.69780196 77.4719789,3.05287045 77.0726831,3.71228337 C76.6501479,3.99760626 76.2846549,4.34422074 76.0416972,4.70985675 C75.5388803,5.4643773 75.1501479,6.98609941 74.1297254,7.11290959 C73.4578944,7.1953362 72.7755,7.06641252 72.0931056,7.16363366 C71.2395845,7.28198982 70.4747958,7.58210724 69.6867676,7.92449472 C63.6867676,10.5304438 57.4839507,13.4280564 50.9724718,14.4383108 C49.4452183,14.6750231 47.8902887,14.9201894 46.5635282,15.7761581 C45.4860634,16.4715006 44.6534577,17.4268039 43.7642324,18.3334967 C42.8980352,19.2169409 42.1839507,19.6079389 40.9480352,19.7664517 C39.4480352,19.9587804 38.1487394,20.373027 37.0522606,21.4635945 C36.1416972,22.3702873 35.5480352,23.5284869 34.8339507,24.5810114 C34.1069789,25.6546708 33.0402887,26.2591327 31.9332465,26.882616 C29.3156408,28.3578411 26.8776127,30.1395241 24.7543732,32.2762755 C20.281838,36.7822638 17.5733873,42.5732618 14.8438099,48.2163147 C11.8924014,54.3201112 9.13324648,60.4978802 7.21916197,67.0159233 C5.34310563,73.4156102 4.22761268,79.9991718 3.71211972,86.644025 C3.16916197,93.6164712 3.09310563,100.616393 2.64099296,107.593066 C2.41493662,111.078232 2.24380986,114.567626 2.07057042,118.054906 C1.90155634,121.499915 1.65437324,124.951266 1.69430282,128.400503 C1.77057042,135.068604 3.10345775,141.757841 5.4339507,148.001129 C6.01493662,149.554553 6.65909155,151.086843 7.34571127,152.595884 C7.94803521,153.92105 10.0078944,153.773105 10.6543732,152.595884 C10.8022606,152.325356 10.9184577,152.046373 11.0156408,151.763164 C12.7057817,151.777959 14.4128239,151.646921 16.0924014,151.803321 C19.0585986,152.080189 22.0309225,152.234475 25.0055704,152.41835 C30.8916972,152.783986 36.7881761,153.027039 42.6762042,153.363086 C43.2474718,153.395634 43.8187394,153.428393 44.3897958,153.46242 C40.1938099,140.470084 40.7380352,126.423955 40.0740211,112.911908 C40.0205704,111.822608 41.7111338,111.828949 41.764162,112.911908 C42.4309225,126.481865 41.8632465,140.563923 46.2075423,153.577395 C47.8930352,153.691524 49.5762042,153.831015 51.253669,154.03518 C52.6097958,154.197919 53.9726831,154.390248 55.3416972,154.322616 C56.8945141,154.248643 58.4114155,153.893575 59.9262042,153.585004 C62.6790211,153.024925 65.3304296,153.278546 68.0938099,153.623047 C71.0494437,153.99291 74.0156408,154.197919 76.9902887,154.326843 C88.9015563,154.848878 100.893106,155.324416 112.800148,154.527626 C115.681838,154.335297 118.55719,154.064769 121.419866,153.697019 C124.369162,153.318702 127.286768,152.682538 130.233739,152.321129 C133.138669,151.96606 135.809303,152.940385 138.68043,153.120033 C141.608387,153.303908 144.614937,152.693105 147.515641,152.342264 C148.461908,152.227501 149.409232,152.115908 150.356768,152.00516 C149.136908,143.640972 148.443317,135.213802 147.769585,126.790013 C147.682754,125.703461 149.373528,125.712761 149.459725,126.790013 C150.127965,135.148072 150.806134,143.512471 152.024092,151.810718 C157.046979,151.226123 162.074725,150.634553 167.045218,149.723634 C168.460711,149.465786 169.867754,149.045199 170.714937,147.781324 C171.34219,146.845043 171.469162,145.697411 171.166838,144.619524" id="ðŸ–-Ink" fill="#000000"></path>
                    </g>
                    <g id="head/Turban" transform="translate(78.591549, 38.043053)">
                        <path d="M98.0009577,54.0112016 C96.0676479,43.4650333 91.3006056,33.4303327 83.9795493,25.5788806 C83.1346901,24.6466145 82.3756056,23.1760391 81.0864507,22.9410176 C79.7924366,20.3031546 77.3258873,18.438411 75.3541268,16.3082114 C71.0503944,12.0154755 66.9327887,7.21845793 61.3817324,4.50767906 C35.6347606,-6.08562035 10.8579296,24.1197182 5.60011268,46.8358591 C0.377788732,65.1043444 6.08159155,90.3053307 28.713,91.0446341 C31.9147606,95.2809393 36.3327887,98.2132133 40.8710282,100.832055 C47.0685634,104.801636 53.8291268,106.412971 60.9991268,104.203937 C68.1397606,106.070583 75.5419437,100.080493 79.8332113,94.8271703 C83.2251127,90.7580431 85.5499014,85.7919452 88.6523662,81.5799452 C92.3151127,81.4884305 95.4803239,78.3858082 95.9706761,74.7491037 C99.3917324,68.459953 99.2362394,60.9236243 98.0009577,54.0112016 L98.0009577,54.0112016 Z" id="ðŸŽ¨-Background" fill="#FFFFFF"></path>
                        <path d="M41.9186831,0.918486106 C46.6035423,-0.176519765 51.5165704,0.0504704501 56.1570634,1.25389902 C65.3545986,3.63940978 72.9224155,9.84275225 79.1972746,16.7591906 C85.3179085,23.505492 90.3653028,31.2392219 94.0517113,39.5704391 L94.23852,39.9942468 C96.8460534,45.9331017 99.1119831,52.1059789 99.2091761,58.6452258 C99.292838,64.2732728 98.7245282,70.1365526 96.906993,75.4896329 C95.287838,80.2583295 92.3095986,85.0635898 87.1857254,86.2067836 C84.2311479,93.7198638 78.4508662,100.226071 71.1695282,103.707433 C66.6534718,105.866799 61.6939648,106.830768 56.7008662,106.351425 C51.6065704,105.862784 46.8481901,103.414079 42.8668521,100.291378 C42.7576268,100.205782 42.8981197,100.039872 43.0107254,100.104545 C47.8041761,102.86795 53.473331,103.855801 58.9637535,103.67404 C67.9865704,103.375613 76.258331,98.5037777 81.0114296,90.8459225 C82.1941056,88.9399656 83.2479085,86.9296016 84.0885423,84.8382904 C84.0393169,84.6662513 84.0107958,84.4918873 84.0107958,84.3219616 C84.0107958,83.6014685 84.3526268,83.050901 84.8626268,82.6951984 C85.0990352,81.9561065 85.3081901,81.2085605 85.4829085,80.4525605 C85.8790352,78.7402004 86.1000211,77.0031123 86.233331,75.2520751 C86.3415,73.8294763 86.2815,72.3202239 86.4243169,70.8612728 C86.3723451,69.6922943 86.3000915,68.5243726 86.1942465,67.3589871 C85.8534718,63.6037151 85.1643169,59.8577425 83.8369225,56.3184705 C82.4922042,52.7335468 80.3685423,49.5721691 77.6892465,46.8510341 C71.9423924,41.0149018 64.7872176,36.7535953 59.1989454,30.7581222 L58.9062887,30.4409519 L58.8864296,30.4346114 C58.1930493,31.1458051 57.5000915,31.8569988 56.8052324,32.5667131 L53.6306173,35.8060562 C47.1511313,42.424726 40.7241612,49.1077064 35.0873451,56.4727562 C31.8416408,60.7139225 28.9255141,65.1596759 26.4129085,69.8740556 C25.2230493,72.1069093 24.1441663,74.3953664 23.1690379,76.7299119 L22.7852894,77.6592873 C22.3286763,78.771471 21.8352446,80.0164162 21.5611479,81.2723883 C22.3766408,82.0816485 22.9730493,83.2709166 23.6326268,84.189445 C24.3807254,85.2311906 25.2435423,86.2228462 26.1312887,87.1483491 C27.0298099,88.085265 28.0153732,88.9832924 29.0615704,89.7528188 L29.1872148,89.8435523 C30.3876296,90.6957393 31.765563,91.2843311 31.9455845,92.9065879 C32.0237535,93.6110184 31.3941761,94.1776485 30.8112887,94.3970301 C29.2155845,94.9966309 27.5626268,93.274126 26.4991056,92.2833159 C25.8359366,91.6653276 25.2262183,90.9993628 24.6608662,90.2962004 C24.1105141,90.3750341 23.5565704,90.4145566 23.008331,90.3494607 C22.1588239,90.2484352 21.3175563,90.099856 20.4900211,89.8821652 C13.6263592,88.0793472 8.54600704,82.3792297 5.80502113,76.030901 C2.12516197,67.507989 2.21072535,57.6833706 3.74051408,48.6705487 C6.53579577,32.2000204 15.5826972,16.8183687 29.2434718,7.08040391 C33.0693169,4.35313973 37.3117817,1.9951045 41.9186831,0.918486106 Z M49.3136831,3.12181292 C40.4886127,2.65663092 32.4426972,7.20911624 25.9874155,12.8760517 C14.2337535,23.194173 6.99403521,38.301492 5.53755634,53.8152376 C4.7636831,62.057899 5.34276761,70.9424313 9.63910563,78.2249284 C11.306007,81.0504705 13.4529085,83.51249 15.9870634,85.5883726 C18.3750211,87.5448423 21.096993,88.6723961 24.006993,89.4395977 C23.8745282,89.256991 23.7437535,89.0731162 23.6165704,88.8864939 C22.939669,87.8950497 22.401993,86.8412571 21.9515704,85.7371632 C21.9118521,85.7768971 21.8370634,85.7849284 21.7929085,85.7242708 C19.9561479,83.2030732 20.531007,80.1947131 21.4065,77.42222 C22.3244577,74.5142513 23.4879085,71.6846935 24.8157254,68.9398873 C29.6556549,58.9371006 36.8543873,50.2229166 44.3269225,42.0912141 C48.1432606,37.9383922 52.0861479,33.9058286 56.0144577,29.8595272 C57.9762887,27.8390184 59.932838,25.8125918 61.864669,23.7629166 C62.8261479,22.7425174 63.7817113,21.7168344 64.7286127,20.6829088 C65.6649507,19.6606074 66.5074859,18.5778599 67.6732606,17.8121378 C68.6026268,17.2019695 69.5303028,18.3682004 69.0959366,19.235582 C68.4279155,20.5696955 67.2789845,21.6273159 66.2623037,22.7121839 L66.1576268,22.8245213 C65.1665704,23.8947992 64.1662183,24.9564117 63.1599507,26.0123178 C62.0026268,27.2267366 60.8362183,28.4329127 59.6662183,29.6359186 C60.6640352,29.52031 61.6736831,29.4537346 62.6655845,29.3030419 C64.0126268,29.0984548 65.3415,28.7970693 66.6636127,28.469265 C68.0569225,28.1241299 69.4322746,27.6834646 70.759669,27.1356446 C72.0067817,26.621218 73.1854437,25.7969519 74.5576268,25.716216 C75.7191761,25.6477386 76.0819225,27.0864 75.4384014,27.8434568 C74.5514808,28.8866722 72.9569377,29.2972843 71.6602414,29.6846564 L71.4771338,29.7399029 C70.042838,30.1778207 68.575162,30.5064705 67.0916408,30.7260634 C65.1397394,31.0151906 62.8838239,31.1474959 60.7954437,30.8516055 C64.965831,33.297809 68.8034236,36.3293648 72.6301806,39.2859004 L73.3054437,39.8067288 C77.0442465,42.6844744 80.6932606,45.786674 83.3590352,49.7239186 C85.8473451,53.3995115 87.3498803,57.6787209 88.1930493,62.0145722 C88.6090352,64.1536485 88.8834718,66.3153393 89.0676972,68.4861182 C89.7541452,70.4107048 89.643897,72.6989401 89.4710122,74.8156762 L89.4093169,75.5462748 L89.4139648,75.760584 C89.4397394,77.0844822 89.9715,80.0321847 88.7191056,81.0318716 C88.6977676,81.1383922 88.6779085,81.2455468 88.6555141,81.3520673 C88.8114296,81.2556916 88.9654437,81.1565683 89.1181901,81.0546975 C89.1809366,81.0126387 89.2417817,80.966353 89.3032606,80.9209127 L89.4763205,80.7787033 C89.4829074,80.7731624 89.4886215,80.7682914 89.4931901,80.7643022 C89.8819225,80.4229714 90.2526972,80.0666348 90.598331,79.6813432 C91.236993,78.9693041 91.8441761,78.0645135 92.4192465,77.0221339 C93.682838,74.7310967 94.4900915,72.2405448 95.1143873,69.6654528 C96.2556549,64.957625 96.7265704,59.9010693 96.206007,55.0729832 C96.133331,54.3989871 95.9841761,53.5540086 95.752838,52.6870497 C95.2035423,50.6284978 94.5716408,48.5917151 93.8641056,46.5824078 C92.4488239,42.5627366 90.7138944,38.6631123 88.691007,34.9129127 C84.5826972,27.2958481 79.2967817,20.2536564 72.9634014,14.3440908 C66.5495282,8.35928454 58.2317113,3.59185597 49.3136831,3.12181292 Z M36.8682676,27.4587569 C37.1864366,27.2643147 37.5139014,27.6419977 37.3560845,27.9467648 C36.5919296,29.4217785 35.307,30.6670544 34.2396761,31.9309292 C33.1345352,33.2396102 32.0374225,34.5554771 30.9430563,35.8732462 C28.7146056,38.5563382 26.5396056,41.2886748 24.4503803,44.0818802 L23.898865,44.8207618 C22.0620908,47.2873515 20.2476338,49.7929879 18.642,52.4137315 C17.802,53.7847609 17.0617183,55.20271 16.3894648,56.6629292 C15.7495352,58.05298 15.4543944,59.73089 14.6853803,61.0366121 C14.637,61.1190387 14.487,61.1122755 14.4684085,61.0080798 C14.2174225,59.6021777 14.837493,57.9088391 15.2805211,56.5923382 C15.8072113,55.0266552 16.5567887,53.5353675 17.3591831,52.0950153 C19.0328451,49.0904595 21.0381972,46.2742168 23.0528451,43.4920016 C25.0989718,40.6668822 27.2232676,37.8994614 29.4519296,35.2157354 C30.4986901,33.9551483 31.5689875,32.7197772 32.6712793,31.5087313 L33.0861549,31.0557276 C34.2407324,29.8028431 35.4043944,28.3527687 36.8682676,27.4587569 Z M31.5179789,23.0908861 C32.0412887,22.7030583 32.4879085,23.4956219 32.1541056,23.9157863 C30.1599507,26.4253597 27.8909366,28.680256 25.7085423,31.0207491 C23.6127676,33.2684595 21.6095282,35.6002873 19.7193169,38.0238411 C15.865162,42.965845 12.7800211,48.3886708 10.1670634,54.0720916 C10.117838,54.1792462 9.96276761,54.0993558 9.98600704,53.9957941 C11.370037,47.8482878 14.605765,42.2648759 18.29004,37.2201181 L18.430162,37.0288039 C22.1567113,31.9557628 26.4403732,26.8560916 31.5179789,23.0908861 Z" id="ðŸ–-Ink" fill="#000000"></path>
                    </g>
                    <g id="face/Old" transform="translate(112.183099, 77.354207)" fill="#000000">
                        <path d="M37.1893753,50.6488622 C35.8389901,50.6599088 34.3209297,50.1529653 33.3059002,49.7560489 L33.0412214,49.65118 C32.162578,49.2991386 31.2601645,48.8949856 30.5871863,48.2168076 C30.3719791,47.9964076 30.1428478,47.7470046 30.0264681,47.4847284 C29.9582969,47.3310961 29.9299587,47.17204 29.9958221,47.0140192 C30.2392117,46.9900874 30.4698271,46.9589389 30.6882646,46.9189997 C30.7922745,46.8999825 30.8919067,46.8802624 30.9683183,46.8797523 C31.2498839,46.877957 31.5284074,46.9137959 31.8067259,46.9489909 C31.8470315,46.9540878 31.8873325,46.9591839 31.9276461,46.9641763 C32.1443338,46.9910008 32.3599673,47.0199794 32.5752044,47.048901 C33.2012873,47.1330282 33.8240754,47.2164546 34.4592374,47.2468403 C34.9178508,47.2688615 35.3986813,47.2430798 35.8837853,47.2166704 C37.1420034,47.1481721 38.4428203,47.0546779 39.4122548,47.9362863 C39.6661348,48.1671692 39.7722691,48.4580271 39.7722691,48.7542965 C39.7722691,49.114315 39.620783,49.480795 39.3897375,49.7683397 C38.8664136,50.4192751 38.061033,50.6417318 37.1893753,50.6488622 Z M44.5525855,39.2951339 C43.965157,40.176833 42.9864025,40.743782 41.6452932,40.6821813 C38.9798239,40.5602553 35.798639,39.5542116 33.566214,38.0994676 C32.9848424,37.7207354 32.6078687,37.115209 32.5402646,36.4664894 L32.4199907,35.3123573 L31.7700363,36.2734642 C31.7023182,36.3736009 31.6340125,36.4734588 31.5656741,36.5733662 C31.3774762,36.8485023 31.1894361,37.1235894 31.0119754,37.4055399 C30.3309387,38.4881001 29.7066385,39.5814074 29.1397017,40.7281241 C28.7383431,41.5400814 28.444889,42.4482504 28.1505916,43.364499 C27.6538046,44.9114627 27.1738795,46.4329049 26.1123913,47.5201529 C25.9518966,47.6846027 25.7051768,47.7434487 25.4793711,47.7143788 C25.2803301,47.6887544 25.0852722,47.5911287 24.9896698,47.3966426 C23.7213937,44.8165293 25.427254,41.707352 26.811039,39.5458254 L26.9573973,39.3201084 C28.2405306,37.3668052 30.3361397,34.7817952 32.7361175,34.4303843 L33.0108921,34.8687582 L33.4103698,34.6022255 C34.0637162,34.1663111 34.9261321,34.1865884 35.6811869,34.5276281 L36.4362866,34.8685615 C37.8418844,35.4995867 39.2283654,36.0818143 40.7491654,36.4007253 C40.8599898,36.4239651 40.9707234,36.4456418 41.0812872,36.4657954 C41.1856425,36.4848173 41.2906178,36.5026229 41.3961467,36.5191381 C41.3733958,36.4154226 41.3491012,36.312176 41.3247508,36.20921 C41.2989918,36.1002874 41.2730363,35.9911119 41.2452098,35.882274 C41.2164769,35.7698912 41.1858209,35.6581511 41.1552013,35.546842 C41.0333709,35.1030752 40.8957237,34.6632784 40.7325198,34.2326871 C40.1184865,32.6139343 39.1380765,31.0999836 38.1841639,29.6559479 L38.0719018,29.486077 C37.9351342,29.2791469 37.7853872,29.063253 37.6304412,28.8399349 C36.8865849,27.7683592 36.0616025,26.605391 36.0031529,25.4380021 C36.9905885,25.5001892 37.8168473,26.1138616 38.5441768,26.6481688 C39.542308,27.3809283 40.4673429,28.2188753 41.3064646,29.129262 C42.9340799,30.8953623 44.3948773,33.153231 45.0355059,35.4872746 C45.4022879,36.8238 45.2409499,38.2619355 44.5525855,39.2951339 L44.5525855,39.2951339 Z M18.5107028,25.9799984 L18.5104303,25.932384 C18.5133881,24.5846484 19.2980381,21.5074742 21.2374979,21.5074742 C22.4491129,21.5074742 23.1847181,23.601703 23.3120629,25.7605521 L23.316486,25.8485739 C23.3727209,27.1907594 23.0045415,30.1245429 21.2374979,30.1245429 C19.4517543,30.1245429 18.5290635,27.3458845 18.5107028,25.9799984 L18.5107028,25.9799984 Z M47.0646375,25.5572978 L47.0649099,25.5096835 C47.0619522,24.1619478 46.2773022,21.0847736 44.3378423,21.0847736 C43.1565178,21.0847736 42.4276999,23.0755998 42.2739666,25.1760907 L42.2632773,25.3378515 C42.1867783,26.6347218 42.5310899,29.7018423 44.3378423,29.7018423 C46.1235859,29.7018423 47.0462767,26.9231839 47.0646375,25.5572978 L47.0646375,25.5572978 Z M25.0424556,16.8590111 C24.7854417,16.8891467 24.5297031,16.9286401 24.2740942,16.9692628 C23.5283097,17.0881162 22.7865635,17.2307828 22.0498901,17.3970563 C20.6507302,17.7130577 19.2628036,18.1120347 17.9014046,18.5628972 C16.6274685,18.9849607 15.3733521,19.4619316 14.1195407,19.9388579 C14.0526336,19.9643081 13.9857273,19.989758 13.9187924,20.0152092 C13.4761018,20.1836051 13.0348879,20.3722663 12.5923158,20.5615732 C11.9187588,20.8496822 11.2421129,21.1397221 10.551624,21.3582764 C12.3707989,18.8419589 15.1740484,16.977462 17.8713222,15.6432421 C19.4102871,14.8820116 21.0429449,14.2681565 22.6852878,13.7651737 L23.5999053,13.4902321 C24.9466611,13.0927446 26.4191863,12.7255811 27.6842829,13.5181384 C28.1846465,13.8316142 28.5039337,14.31889 28.6044934,14.8456736 C28.7031098,15.362277 28.5906065,15.9161752 28.2340305,16.3784407 C27.9233299,16.7811401 27.5361828,17.0104845 27.1241274,17.0890864 C26.6693371,17.1758401 26.1873615,17.0805652 25.7486219,16.8461455 C25.3971271,16.8199549 25.2934006,16.8294198 25.1894139,16.8409874 L25.0424556,16.8590111 Z M45.3025626,17.115025 C44.4011825,16.9189961 43.5086349,16.8402949 42.5838728,16.8685118 C42.1656777,16.881083 41.7610987,16.9457089 41.3575937,17.010745 C40.7309147,17.1117517 40.1066474,17.2160745 39.4314912,17.0935246 C39.0792557,17.0295283 38.7792487,16.8234246 38.5475226,16.5543767 C38.2766153,16.2398371 38.0973821,15.8378337 38.0399101,15.4555923 C37.9805379,15.0607403 38.039609,14.7154323 38.1856418,14.4105102 C38.3581649,14.0502755 38.6488072,13.7466854 39.0000612,13.4807449 C40.0629383,12.6757821 41.8866119,12.8693784 43.1410095,13.0321243 C44.3805925,13.1933414 45.6133054,13.5778697 46.7091153,14.1885929 C47.790175,14.7914339 48.7299709,15.6034734 49.4633476,16.5960651 C50.0814606,17.4326981 50.3726368,18.3955997 50.6733247,19.3760399 C49.2588976,18.1890353 47.0943494,17.5041416 45.3025626,17.115025 Z" id="ðŸ–-Ink"></path>
                    </g>
                    <g id="facial-hair/Full" transform="translate(104.577451, 109.479380)" fill="#000000">
                        <path d="M24.8714257,20.1190753 C26.5818995,16.1103389 30.3151083,13.1641387 34.613341,12.0870037 C37.7697106,11.2980357 41.0822108,11.3232133 44.2997667,11.6363462 C45.9855551,11.79926 47.793716,11.9327646 49.3824502,12.5590305 C50.7390983,13.094107 51.8446716,14.1054418 52.6759615,15.2925964 C53.6654918,16.6993673 54.3385412,18.3094631 54.8111527,19.9597583 C54.8782466,20.1943964 54.9413318,20.4307272 55.0001973,20.6683274 C54.7946957,21.913454 54.358374,22.9732397 53.2055395,23.7560721 C52.0805554,24.5204973 50.7382544,24.8332071 49.4001731,24.9442846 C49.268939,24.8812349 49.1421356,24.8164925 49.0258817,24.7500576 C46.9406944,23.5559209 45.473067,20.733916 42.8412117,21.1158113 C40.4925014,21.4568723 38.9463867,24.4132281 37.5496509,26.1468844 C33.0661714,26.6694779 28.5860676,25.3217368 24.9380977,22.7570087 C24.7528508,21.8791786 24.7420905,20.9939433 24.8714257,20.1190753 M58.0474865,17.0780889 C57.6888081,16.0711973 57.2370843,15.0960421 56.7015987,14.1773777 C54.9314154,11.1393534 52.2138994,8.71870887 48.987904,7.33499979 C41.3564943,4.06614578 31.4822899,6.37042339 25.3193517,11.7315555 C23.2141207,13.5642296 21.0854701,16.2573844 20.4417479,19.1542873 C20.2495385,19.192371 20.0680894,19.2924466 19.9187104,19.4333564 C15.466035,16.6289124 10.8806486,13.9306797 7.29259907,10.0431766 C4.68690625,7.21863282 2.87452557,3.87593867 1.76473252,0.202762327 C1.67400799,-0.0995802223 1.18662739,-0.0553607732 1.2013965,0.279141375 C1.20561624,0.357424611 1.20983599,0.43549627 1.21405573,0.513779505 C1.16763853,0.369907613 0.94821177,0.443959322 0.931332788,0.583599688 C0.334238806,5.0457441 -0.412656141,9.77659043 0.275162369,14.2620082 C0.686587551,16.9384486 1.90187424,18.8978568 3.52647625,21.0136199 C5.26712125,23.2815064 7.23774238,25.3909222 9.25267083,27.4138033 C10.5312537,28.69786 11.8668031,30.1788941 13.4323287,31.1204087 C15.2531489,32.2142583 17.3187143,33.0459647 19.2619071,33.8899427 C21.2388578,34.7510582 23.2453468,35.5465852 25.2898135,36.2363239 C29.3766369,37.620033 33.6006021,38.576358 37.8984129,38.9952791 C41.3396153,39.3295696 45.2724181,39.6936925 48.5701492,38.3986339 C51.0977767,37.406341 53.1380236,35.6123854 54.756296,33.4540955 C56.5180397,31.1034826 57.9107667,28.4259844 58.6806593,25.6024985 C59.480723,22.6696277 58.2160653,17.550962 58.0474865,17.0780889" id="ðŸ–-Ink"></path>
                    </g>
                    <g id="accessories/Sunglasses" transform="translate(88.521127, 88.978474)" fill="#000000">
                        <path d="M71.3680491,3.1702544 C76.3269356,3.1702544 79.1568052,4.23707181 80.1938017,4.32017463 L80.2249868,4.32240913 C80.6563105,4.34999802 81.0432333,4.38607581 81.4491851,4.54312029 C82.9419037,5.11824266 83.1850519,6.68444304 82.313947,7.67148884 C82.2528428,9.713916 82.521363,12.1003555 82.06065,14.1493615 C81.4923175,22.7874448 77.431531,24.2451996 75.1233146,24.7772408 C73.9644491,25.0444286 72.5909789,25.150752 71.3600147,24.8687086 C69.2600599,24.7903986 67.1839971,24.1327218 65.4077466,22.9875704 C62.9339779,21.3914466 61.0966232,18.9381571 60.5003815,16.0266798 C60.2177929,14.6388685 60.0857253,13.1943522 60.2395124,11.7836899 L60.2623077,11.5893242 C59.4582272,11.2045653 58.526441,11.131773 57.5658998,11.0978175 C57.1070897,11.0814763 56.6548341,11.066833 56.2154759,11.0863575 C55.786055,11.1343197 55.3617085,11.1981986 54.9360934,11.2852097 C54.4713632,11.4254886 54.0324278,11.6570231 53.6271104,12.0237432 L53.5992012,12.5589678 C53.5230852,13.8959681 53.3475956,15.2370007 53.0769611,16.5487466 C52.6773523,18.4842137 52.0345953,20.3326697 50.6666224,21.7055356 C50.2035836,22.3973802 49.6305996,23.014947 48.9349843,23.5497472 C46.4081459,25.4960376 42.9751046,26.21059 39.8243268,25.9414922 C33.4278375,25.3954443 29.7305048,20.3156919 28.8784289,18.1444458 L28.8275239,18.0129005 C28.2119991,16.3987184 27.7214607,14.3043319 25.7764921,13.9575126 L25.3628246,13.883161 C24.4752804,13.7164979 23.6563102,13.4844691 23.1359026,12.6181778 C22.9077661,12.2399977 22.7904207,11.8170387 22.7616658,11.3858031 C22.4580477,11.4091475 22.1548524,11.4314309 21.8527144,11.4530775 C19.4424813,11.9629946 4.98596345,12.3953444 3.83204944,12.3953444 C3.83204944,12.3953444 1.61394912,13.3292972 0.677465773,12.6056567 C0.0283657826,12.1024777 -0.185181771,11.4318553 0.172140373,10.6720996 C0.71128711,9.52898231 3.19864834,8.84138978 4.30313196,8.62367284 C4.30313196,8.62367284 22.1266578,8.77176371 23.4094972,8.52844238 C24.2032175,7.70968885 25.6229916,7.82174221 26.8093434,7.69228662 C27.7914507,6.99174089 29.1653438,6.52251745 30.2506305,6.20842848 C30.4717896,6.12460068 30.6908345,6.04353177 30.9037477,5.96713175 C32.8933343,5.25830936 34.9613627,4.88288816 37.0608946,4.68127699 C39.2259708,4.47542139 41.3973899,4.56858697 43.5497801,4.86357593 C44.4568287,4.98666485 45.3554199,5.14583155 46.247668,5.3540216 C47.8453103,5.56471853 49.4336611,5.91176412 51.0318841,6.32346342 L51.351666,6.40664408 C53.0346745,6.84806641 54.7641982,7.22985428 56.506408,6.93062088 C57.9247725,6.68859906 59.2887664,6.14252462 60.5965287,5.55202796 L60.7667874,5.47477608 C63.6422792,4.16133242 68.1329094,3.1702544 71.3680491,3.1702544 Z M46.0747157,7.97263224 C45.0137438,7.73918774 44.5606424,9.3756337 45.6249972,9.60971487 C46.378691,9.77548242 47.0174738,10.155707 47.4490469,10.7998619 L47.4944898,10.8698907 C48.0736053,11.7917843 49.5379918,10.940773 48.954859,10.0129372 C48.2987817,8.9688036 47.2792507,8.23748564 46.0747157,7.97263224 Z M77.1492677,6.95799755 C76.7752423,6.69441749 76.2092356,6.89008642 75.9920937,7.26253652 C75.7531059,7.67267317 75.9097469,8.12931765 76.260044,8.39762278 L76.2957118,8.4238168 C76.6170226,8.65036832 76.9299546,9.056466 76.969253,9.47256193 L76.972721,9.52461373 C77.0147962,10.6135262 78.7064734,10.619044 78.6641867,9.52461373 C78.6229573,8.45395236 78.0032465,7.55943548 77.1492677,6.95799755 Z" id="ðŸ–-Ink"></path>
                    </g>
                </g>
            </g>
        </g>
    </g>
</svg>