<?xml version="1.0" encoding="UTF-8"?>
<svg width="240px" height="324px" viewBox="0 0 240 324" version="1.1" xmlns="http://www.w3.org/2000/svg" xmlns:xlink="http://www.w3.org/1999/xlink">
    <!-- Generator: Sketch 62 (91390) - https://sketch.com -->
    <title>peep-21</title>
    <desc>Created with Sketch.</desc>
    <g id="Introduction" stroke="none" stroke-width="1" fill="none" fill-rule="evenodd">
        <g id="variations" transform="translate(-606.000000, -2054.000000)">
            <g id="images" transform="translate(126.000000, 110.000000)">
                <g id="a-person/bust" transform="translate(480.000000, 1944.000000)">
                    <g id="body/Striped-Pocket-Tee" transform="translate(31.056338, 135.052838)" fill-rule="evenodd">
                        <path d="M86.4419577,-6.19333437 C97.7777324,-7.00539689 113.319423,-4.7575689 116.598085,8.17278598 C117.614915,12.8779655 119.618366,14.9431482 122.984282,18.0203932 C144.349352,45.3767626 69.8063239,49.9748523 65.9743521,23.2989054 C57.9013944,26.2402776 49.113507,26.863134 41.0356901,29.8360404 C36.6546338,31.4550861 32.6819577,34.0097921 28.8751268,36.6809 C13.3513944,47.7109397 -1.95261972,59.0558996 -17.421,70.1650927 C-11.4351549,72.9225497 -0.0545915493,83.450791 -4.69191549,90.5254915 C-5.77217157,91.9035883 -7.37569154,92.8536197 -8.79414698,93.860923 L-9.5421324,94.3951864 C-11.1512707,95.5487527 -13.8600581,97.5149541 -15.3579718,98.5834713 L-15.634221,98.7846702 C-15.7425352,98.8630865 -15.8647283,98.9511522 -15.9750845,99.0300316 C-5.17297183,114.829166 7.46907042,129.406926 21.492169,142.422361 C22.6862535,143.532835 22.197169,146.015795 20.469,146.304896 L18.410146,146.607166 C11.7622757,147.57577 4.98808891,148.447525 -1.71114085,147.921613 C-8.23571831,147.211561 -12.1674085,141.43379 -16.6276901,137.248399 C-25.5345211,128.140896 -33.8257183,118.425987 -41.3776901,108.163142 L-41.5349378,107.946622 C-43.8853486,104.733454 -47.0050744,101.449595 -47.2333944,97.3005099 C-47.6498028,96.053104 -46.5539577,94.2655929 -45.501,93.4152235 L-45.1415247,92.8962069 C-39.4940448,84.7708528 -33.1024525,76.9349126 -25.094662,71.0505942 C-25.1244507,70.1737699 -24.7192394,69.2520779 -23.9168451,68.6711262 L9.5496338,44.4427954 L9.5496338,44.4427954 C18.1845634,38.4980406 26.2104085,31.511594 35.5699859,26.7111765 C45.1404085,22.1014465 55.9406197,21.9202827 65.7482958,18.0730916 C65.9561831,15.3001848 71.7835775,14.5924608 71.5995634,15.0206085 C77.7480845,11.3080203 80.9132958,6.89067111 81.8895634,2.8307818 C82.8656197,-1.22910752 81.6525211,-4.93153694 86.4419577,-6.19333437 Z M169.201965,80.7921275 C179.550275,65.215215 189.414148,82.4496917 193.722317,92.8369808 C198.812387,107.05199 188.271401,124.537895 181.461824,136.792484 C178.953655,140.195654 175.654923,147.373847 171.233937,147.894269 C160.095908,147.848767 148.942458,147.064217 137.797669,146.830567 C130.601472,145.044537 140.697951,134.226138 147.672317,138.177667 C149.785415,138.968566 150.84112,141.368563 152.901613,142.138509 C153.652348,142.29884 153.704124,141.963849 154.009506,141.215957 L154.05281,141.11142 C154.597246,139.817242 155.125204,138.51608 155.661401,137.218515 C160.198796,126.040327 164.995627,114.960552 169.765204,103.885645 C170.784148,101.481203 169.355134,99.5000416 167.497458,98.0689322 C166.074993,96.8977167 159.960275,94.0382492 165.721542,95.2968721 C163.503021,90.1455555 166.168796,84.9169903 169.201965,80.7921275 Z M143.509923,59.4689573 C144.506261,59.344513 145.785908,60.3489563 145.939289,61.3220768 C147.210197,69.3883863 145.794182,77.3632227 144.096639,85.2537341 L143.784164,86.6985363 C143.158007,89.5764758 142.458353,92.5109262 140.896754,95.0333592 C139.303162,97.6077476 136.892387,99.5478511 134.124782,100.727321 C125.246261,104.266787 114.20457,100.766474 107.673232,94.1491274 C103.494782,88.4236316 107.168092,81.2310476 107.869289,74.9557113 C107.206437,73.2648301 106.962174,71.3090076 106.578875,69.5655732 L106.532176,69.3574111 L105.042951,62.8537152 C104.714641,61.4192195 105.75957,59.4562589 107.476754,59.6532957 C119.449711,61.0270507 131.551542,60.9652518 143.509923,59.4689573 Z" id="ðŸŽ¨-Background" fill="#FFFFFF"></path>
                        <path d="M185.323901,78.7541495 C185.287986,78.5937346 185.480239,78.4709401 185.604887,78.5916211 C187.711225,80.6224861 189.198549,83.2178677 190.831648,85.6230341 C192.386577,87.9140712 194.078831,90.1163413 195.23869,92.6443022 C196.316155,94.9943061 197.011225,97.3783374 197.218268,99.961038 C197.42531,102.524928 197.157,105.094948 196.704887,107.620373 C195.815451,112.595559 193.914042,117.306557 191.826718,121.882502 C189.79733,126.330816 187.504249,130.652507 185.082701,134.895676 L184.214849,136.410547 C183.156233,138.254929 182.085982,140.095841 180.940099,141.88258 C179.514042,144.105985 178.212634,146.401249 176.332352,148.256905 C174.997141,149.577844 172.480944,148.256905 173.089394,146.369335 C173.353479,145.547394 173.560521,144.773641 173.97038,144.010666 C174.280944,143.429453 174.631648,142.865148 174.961225,142.2926 C175.62038,141.147081 176.273197,139.997335 176.932352,138.851817 C178.316155,136.444537 179.773901,134.081641 181.145028,131.665907 C183.523901,127.476944 185.769676,123.20957 187.755592,118.817923 L187.989319,118.299545 C189.816614,114.232749 191.54819,110.020307 192.350662,105.620999 C193.195732,100.986298 192.439394,96.6176877 190.79362,92.2615468 C189.942211,90.0085526 188.985169,87.8062826 187.990099,85.6124665 L187.798843,85.1934656 C186.837848,83.0995033 185.81906,81.0169186 185.323901,78.7541495 Z M83.038669,-1.41534951 C83.0576831,-1.49756477 83.1971197,-1.50390528 83.2097958,-1.41534951 C83.8013451,2.52041566 82.4851479,6.68380509 80.3407817,9.95762114 C79.1703592,11.7456446 77.7274014,13.3603609 76.0266972,14.6580517 L75.8942697,14.7580544 C74.156893,16.0573968 71.8094261,17.3121411 69.6527535,16.469535 C69.5851479,16.4437503 69.5217676,16.4143726 69.4626127,16.3807679 C69.7055704,16.7567601 69.9295141,17.1519851 70.1576831,17.5472102 C70.8358521,18.7244313 71.4443028,19.9439225 72.1055704,21.1317112 C73.288669,23.2557816 74.6978239,25.1558207 76.4788099,26.8191476 C83.6005352,33.468902 93.6004415,35.0494181 102.991602,34.9737255 L103.654991,34.9674447 C107.780132,34.9384077 113.17519,35.1490819 116.359796,32.1622943 C118.071063,30.5581456 119.013317,28.2774646 119.864725,26.1364861 C120.701345,24.0377777 121.27388,21.8714372 121.968951,19.7367992 C120.517542,18.7415507 119.186556,17.5262865 118.140782,16.1058012 C117.050641,14.6263491 116.226697,12.9609088 115.751345,11.1834528 L115.681228,10.9178892 C115.313628,9.50049835 114.944049,7.62549746 115.535852,6.28646654 C115.603458,6.13218082 115.856979,6.14274834 115.92881,6.28646654 C116.247824,6.92685793 116.309092,7.64967593 116.50557,8.33445088 C116.733739,9.13124149 116.991486,9.92380509 117.331627,10.6783256 C117.988669,12.1408697 118.856979,13.5315546 119.898528,14.7489323 C120.758387,15.7568618 121.690077,16.6827875 122.754866,17.4605566 C123.382331,16.3763295 124.837965,16.2304978 126.056979,16.5876798 C127.691002,17.0651994 129.302743,17.6783217 130.878275,18.3260412 L131.192894,18.4560164 C132.749937,19.1027483 134.509796,19.6966427 135.967542,20.5779734 C136.852754,21.000674 137.702049,21.4254881 138.500641,21.8016916 C142.479796,23.671719 146.400059,25.6558943 150.302654,27.6786099 L151.138669,28.1126114 C152.77388,28.964353 154.394303,29.8245487 155.816134,31.0123374 C157.263317,32.2212611 158.387261,33.8740204 159.443599,35.423218 C161.858387,38.9654489 164.133739,42.609128 166.521063,46.1703804 C171.34219,53.3562904 176.163317,60.5422004 181.011908,67.7112023 C182.184444,69.4465996 183.506979,71.1393041 184.559092,72.9484626 C185.566838,74.6775194 185.539373,76.4526505 185.342894,78.3822787 L185.306086,78.7366923 C184.929368,82.2762418 184.281649,85.6757046 182.296415,88.7109675 C179.171768,93.4832571 174.249232,96.4548423 169.041486,98.5005018 C169.677401,98.9741378 170.275289,99.4856055 171.033739,99.8112963 C172.199937,100.309872 173.444303,100.56793 174.70557,100.671281 C176.051345,100.779281 177.568246,100.443022 178.658387,101.358169 C179.095711,101.723594 179.108387,102.603022 178.658387,102.968658 C177.610334,103.82442 176.255655,103.579145 174.978578,103.43576 L174.902049,103.427288 C173.716838,103.296251 172.548528,103.076447 171.435148,102.641065 C171.1605,102.533065 170.887965,102.412807 170.62388,102.279656 C170.632331,102.302905 170.636556,102.330592 170.632331,102.359969 C170.442098,103.816081 170.029839,105.192866 169.594449,106.584451 L169.318246,107.466193 C168.756275,109.266897 168.190077,111.063375 167.606979,112.859852 C166.497336,116.279825 165.288686,119.667382 164.075742,123.050784 L163.028866,125.970269 C161.953441,128.965398 160.864505,131.956368 159.661204,134.901574 C158.917542,136.718975 158.169655,138.536799 157.42388,140.352298 C156.695007,142.125527 156.088669,144.040361 155.184444,145.72905 C154.440782,147.119735 152.412613,146.124063 152.737965,144.695547 C153.164725,142.821081 153.969655,140.960987 154.584444,139.137034 C155.209796,137.285605 155.822472,135.432063 156.458387,133.58465 C157.564303,130.375691 158.789232,127.209434 160.020404,124.04612 L161.240589,120.910305 C162.437573,117.837966 163.648637,114.768361 164.942894,111.73568 L165.084337,111.403289 C166.429154,108.231105 167.817351,104.664089 170.2605,102.205895 C170.29219,102.172079 170.336556,102.15496 170.380923,102.150733 C169.780923,101.825253 169.218951,101.430028 168.724585,100.962944 L168.700491,100.938602 C168.505088,100.731643 167.697824,99.7117552 167.437965,99.1009479 C167.099937,99.2214176 166.761908,99.3376603 166.42388,99.4515781 C165.834444,99.6504587 165.346415,99.5067405 165.002049,99.1918286 L164.34609,99.597854 C163.644817,100.026231 162.890782,100.432775 162.116134,100.45359 C161.140077,100.478952 160.373176,99.9400086 159.851345,99.1453315 C159.382331,98.4351945 159.103458,97.667993 158.509796,97.0318286 C157.926134,96.4065135 157.250453,95.8787765 156.560049,95.3749001 L155.74628,94.7825895 C154.25391,93.6927732 152.807138,92.5915634 151.60557,91.1520634 C151.001345,90.4250184 150.19219,89.5627092 149.824585,88.6896211 C149.752754,88.5209636 149.708387,88.3624509 149.699937,88.2079538 C149.619655,88.7532376 149.537261,89.3006348 149.454866,89.8459186 C148.301345,97.5200477 147.369655,105.247014 147.071768,113.007797 C146.925993,116.83514 146.8605,120.667132 147.031627,124.496588 C147.116134,126.409519 147.25557,128.320126 147.447824,130.226506 C147.542894,131.181809 147.64219,132.134999 147.758387,133.086075 L147.78521,133.306366 C147.81881,133.597813 147.840782,133.879738 147.81543,134.147054 C148.745007,134.605472 149.279514,135.763883 149.651345,136.668463 C149.934444,137.357465 149.714725,138.027445 149.258387,138.511437 C149.803458,139.00811 150.289373,139.591437 150.69712,140.259093 C150.779514,140.394568 150.602049,140.500243 150.496415,140.415703 C149.826697,139.883101 149.106275,139.445605 148.354162,139.109559 C147.959092,139.259617 147.528106,139.299774 147.130923,139.189872 C146.699937,139.071515 146.328106,138.784079 146.059796,138.418654 C143.92388,138.067602 141.703458,138.496643 139.780923,139.83449 C139.381627,140.113472 139.020359,140.428384 138.675993,140.77056 C138.616838,140.830161 138.55557,140.906036 138.494303,140.980009 L138.913721,141.14122 C139.087491,141.207102 139.230118,141.258689 139.284444,141.269559 C139.650641,141.344236 140.022472,141.384157 140.394303,141.416251 L140.951345,141.461887 C143.091486,141.639422 145.225289,141.6986 147.21543,142.594725 C147.633739,142.782827 147.487965,143.427445 147.092894,143.535022 C145.639655,143.929543 144.197458,143.898954 142.718208,143.793458 L142.400641,143.769832 C141.025289,143.664157 139.548528,143.670498 138.206979,143.290067 C138.528106,144.169073 138.090782,145.316917 136.749232,145.496564 C132.720359,146.033394 128.666134,145.779985 124.633035,145.424705 C120.559796,145.06541 116.488669,144.725136 112.404866,144.511883 C99.195067,143.816667 85.9650228,143.950131 72.7433781,144.138874 L65.2717649,144.247104 C59.3132468,144.331159 53.3536826,144.39664 47.3953389,144.350929 L44.6063517,144.324928 C43.427627,144.313493 42.2482833,144.299149 41.0708997,144.264505 L40.3647254,144.241144 C38.9619085,144.19042 37.1048662,144.40177 35.8858521,143.570952 C34.8802183,142.886388 34.6562746,141.630968 35.2626127,140.618811 C35.4379648,140.326936 35.6788099,140.066975 35.9302183,139.813355 C36.4457113,135.406913 36.7351479,130.978913 37.0309225,126.553238 C38.0576831,111.065699 37.4576831,95.6580517 35.0893732,80.3267014 C28.7344437,82.2692219 22.4766972,84.7058795 16.3795141,87.3202826 C13.0816268,88.734216 9.80064085,90.2009871 6.5576831,91.7396172 C3.59782394,93.1450967 0.625288732,94.9014176 -2.53738732,95.8144509 C-2.82488732,96.0696564 -3.22686429,96.1911237 -3.58340619,96.0778457 L-3.62964085,96.0617307 L-3.63175352,96.0617307 C-3.95710563,96.1378168 -4.31837324,96.0913198 -4.67330282,95.877856 C-4.7451338,95.8343178 -4.81696479,95.7905918 -4.88879577,95.7456133 L-4.99654225,95.6770732 C-6.10992254,94.9753902 -7.22964085,94.1109675 -8.01766901,93.054216 C-8.97471127,93.9418873 -10.0035845,94.7557973 -11.0155563,95.5798521 C-12.1141479,96.4759773 -13.2085141,97.3763295 -14.2944296,98.2851358 C-14.7254155,98.6465448 -15.2007676,98.9910458 -15.5810493,99.4074059 L-15.6362919,99.4685252 C-15.6451338,99.4784665 -15.6535845,99.488353 -15.661331,99.4982865 C-14.0155563,100.563492 -12.5747113,102.180322 -11.2838662,103.585801 C-9.89773944,105.094208 -8.55952817,106.650721 -7.23226901,108.213276 L-5.94738067,109.728929 C3.13846479,120.462073 12.3172606,131.584305 24.0802183,139.473081 C25.9393732,140.720048 24.166838,143.757151 22.3203592,142.482709 C18.825993,140.075429 15.5196549,137.401848 12.3443028,134.588564 C6.77951408,129.6622 1.77247183,124.13539 -2.91555634,118.376095 C-5.28809155,115.461363 -7.59090845,112.475406 -9.84724648,109.469793 L-10.6130493,108.450324 C-11.6335563,107.090581 -12.6486549,105.72678 -13.6204859,104.331868 L-13.8238227,104.039516 C-14.6762617,102.808986 -15.5827707,101.426584 -16.1324577,100.009754 C-16.3437254,100.223218 -16.5824577,100.402654 -16.9310493,100.53813 C-17.5268239,100.770615 -18.2578099,100.282396 -18.4035845,99.7011828 C-18.7585141,98.2914763 -17.533162,97.4524157 -16.5359789,96.7040243 C-15.3254155,95.7996564 -14.0916127,94.9267796 -12.8556972,94.0581299 L-12.41423,93.7458839 C-10.8686914,92.6493943 -9.31503582,91.523948 -7.6310493,90.6575037 C-7.58034507,90.5898716 -7.51907746,90.5264665 -7.44935915,90.4715155 C-7.36907746,90.4081104 -7.29090845,90.3468188 -7.21062676,90.2855272 C-9.22189437,87.0222787 -11.4275282,83.8858403 -13.8887958,80.9224978 C-15.7395,78.693175 -17.7042887,76.5646661 -19.783162,74.5483843 L-20.7170505,73.6438178 C-22.1296641,72.2790411 -23.5984629,70.8947142 -25.1662606,69.7084626 L-25.6570606,70.2651424 C-26.3124296,71.0066607 -26.9742887,71.7424978 -27.674007,72.4391084 C-29.0514718,73.8086583 -30.4099225,75.2058951 -31.7620352,76.6027092 C-34.007508,78.9269586 -36.1769245,81.3226357 -38.3394671,83.721729 L-39.4204859,84.9212454 C-41.6725986,87.4215194 -44.0852746,89.8755076 -46.1324577,92.546764 L-46.2346951,92.6819758 C-47.1284508,93.8811442 -47.7646729,95.2082982 -47.3493592,96.7317112 C-46.9486322,98.2002548 -45.9958835,99.5025333 -45.1746779,100.770716 L-45.0930211,100.897425 C-41.7402042,106.122005 -38.1486549,111.213433 -34.3014718,116.085269 C-26.5965423,125.843312 -17.8078099,135.091789 -7.32048592,141.876134 C-5.86696479,142.816643 -7.22541549,145.154177 -8.6810493,144.203101 C-14.8056972,140.198013 -20.4317535,135.387891 -25.6078099,130.222279 C-30.3592183,125.481692 -34.6648521,120.261339 -38.7000634,114.903609 C-40.6669648,112.289206 -42.5514718,109.619852 -44.3578099,106.891531 C-46.1092183,104.243101 -48.1352746,101.519007 -49.404993,98.5979342 C-50.0698553,97.0614176 -50.3155563,95.3980908 -49.7704859,93.7791476 C-49.270614,92.2912415 -48.2820445,91.0557292 -47.2536232,89.8933876 L-47.1571056,89.784627 C-44.7930211,87.1279538 -42.3866831,84.5029832 -39.9592183,81.9033746 C-37.5233028,79.2953119 -34.9754155,76.7802434 -32.3747113,74.3391476 C-30.3317535,72.4179734 -28.2021761,70.7248462 -25.9247113,69.1568384 C-26.1296408,69.0110067 -26.3345704,68.8715155 -26.5437254,68.7362513 C-27.1796408,68.3220047 -27.3402042,67.436447 -26.7824577,66.8742552 C-25.2592183,65.3354137 -23.5035845,63.9975663 -21.8514718,62.5967366 C-20.2986549,61.2798129 -18.745838,59.9609871 -17.1930211,58.6421613 C-14.0324577,55.9622395 -10.8718944,53.2802043 -7.71133099,50.5981691 C-2.03457042,45.7814959 3.6105,40.9310067 9.26824648,36.0931984 C11.6274014,34.0765644 14.0085634,32.0848814 16.3836123,30.0875722 L20.6033013,26.5350771 L20.6033013,26.5350771 L22.6671365,24.80172 C23.7245659,23.9157179 24.8044988,23.0395611 26.0069789,22.3638834 C28.8363573,20.7739319 32.2379105,20.0860646 35.3552224,19.2436874 L35.5626127,19.1872885 C39.0590915,18.230083 42.5745845,17.3295194 46.1090915,16.5263883 C49.6478239,15.7232571 53.2013451,14.9919851 56.7696549,14.3302474 C59.9766972,13.7344509 63.2597958,13.2229832 66.5302183,13.1468971 C67.3414859,12.8383256 68.3597958,12.730537 69.1583873,13.0602434 C69.4879648,13.1976211 69.832331,13.3984039 70.138669,13.6520243 C71.7379648,13.0898325 73.3161338,12.8214176 74.8097958,11.8703413 C76.3013451,10.9215898 77.6217676,9.67441174 78.7330352,8.30063483 C81.0295141,5.45585988 82.2316268,2.09539022 83.038669,-1.41534951 Z M119.801345,94.9162121 C118.533739,94.8276564 117.392894,95.3515937 116.2605,95.9095585 C116.898528,96.1864274 117.536556,96.4611828 118.174585,96.7338247 L122.421063,98.5472102 L122.421063,98.5472102 C123.82388,99.1453315 125.309092,99.6652532 126.64219,100.402654 C126.737261,100.455492 126.813317,100.519108 126.870359,100.593081 C128.256275,99.7056211 129.722472,98.9130575 131.127401,98.0695585 C131.448528,97.8772297 131.771768,97.684901 132.095007,97.4925722 C130.421768,98.0526505 128.706275,98.3337464 126.889373,97.8074841 C124.466134,97.1079147 122.361908,95.0958599 119.801345,94.9162121 Z M123.274585,90.6638442 L123.046884,90.5089884 C121.817357,89.6653245 120.350268,88.5808006 118.856979,89.3386779 C118.153458,89.6958599 117.576697,90.2728462 116.883739,90.6575037 C116.186556,91.0463883 115.419655,91.3443922 114.64219,91.5240399 C113.351345,91.8220438 111.872472,91.8664274 110.484444,91.5787796 L110.50557,93.4557816 L110.50557,93.4557816 C111.55557,93.8890497 112.599232,94.3330967 113.642894,94.7809479 C114.320487,94.5492312 114.972623,94.2708252 115.658316,93.9654089 L116.121063,93.7580125 C117.441486,93.1639068 118.774585,92.766991 120.234444,92.9548814 C122.983035,93.3078364 125.059796,95.3515937 127.687965,96.0321417 C130.909796,96.8693002 133.816838,94.4639225 136.861204,93.8700282 C137.363176,93.7711162 137.880549,93.7132908 138.394842,93.7042556 L138.566134,93.7030614 L138.64219,93.6586779 C139.29712,93.2740204 140.277401,92.9064822 140.733739,92.2595389 C141.230218,91.557856 141.272472,90.3827483 141.435148,89.5584822 C141.452049,89.4760556 141.468951,89.3915155 141.483739,89.3090888 C141.196415,89.3090888 140.904866,89.323672 140.609092,89.3788344 C139.679514,89.5500282 138.804866,89.8797346 137.938669,90.2476955 C136.301345,90.9428266 134.699937,91.7353902 132.975993,92.1982474 C131.287965,92.6524391 129.52388,92.8682278 127.785148,92.6167209 C126.088669,92.3713432 124.679514,91.6064665 123.274585,90.6638442 Z M123.539093,84.0651883 L123.284584,83.901217 C122.613124,83.472632 121.843035,83.0286458 121.020359,83.1862708 C120.285148,83.3278755 119.653458,83.9133159 119.013317,84.2747249 C117.608387,85.0672885 116.032331,85.5005566 114.424585,85.6104587 C113.087261,85.7013393 111.699232,85.5385996 110.412613,85.1412611 L110.456979,89.2966192 L110.456979,89.2966192 C110.928106,89.4464665 111.416134,89.5542552 111.929514,89.5922982 C113.488669,89.7085409 115.009796,89.3344509 116.317542,88.4742552 L116.979117,88.0348693 C118.111197,87.2907549 119.173465,86.7001921 120.671768,86.9717659 C122.154866,87.242083 123.399232,88.1931593 124.611908,89.0216524 L124.810761,89.1552342 C126.203426,90.074976 127.615077,90.6687437 129.323176,90.6828658 C131.167542,90.6974489 132.990782,90.1840791 134.708387,89.5521417 C136.413317,88.9267562 138.033739,88.1762513 139.856979,87.9458795 C140.414725,87.8761339 141.095007,87.8549988 141.735148,87.964901 C141.819655,87.4935898 141.899937,87.0246035 141.975993,86.553081 C142.140782,85.5407131 142.282331,84.5304587 142.404866,83.5180908 C139.170359,82.6473276 136.183035,85.464627 133.17881,86.3332767 C131.435852,86.8362904 129.538669,86.8301613 127.795711,86.3438442 C126.182947,85.8936087 124.915172,84.959009 123.539093,84.0651883 Z M123.54712,77.0676798 C122.856275,76.9345292 122.17388,77.2536681 121.586556,77.5812611 C120.088669,78.4120791 118.795711,79.5679538 117.099232,80.0054489 C114.916838,80.5676407 112.529514,80.0836485 110.361908,79.1642748 C110.370359,80.4469597 110.380923,81.7300673 110.391486,83.0129636 C110.799232,83.1674607 111.217542,83.291946 111.644303,83.3912806 C113.161204,83.7378951 114.768951,83.691398 116.262613,83.2539029 C117.785852,82.8077425 118.954162,81.6032571 120.481627,81.2270536 C122.043547,80.8410896 123.51586,81.5919651 124.774594,82.4455229 L125.153452,82.7041054 C126.592284,83.6808681 127.987683,84.5296133 129.787965,84.6953119 C131.691486,84.8707327 133.345711,84.2747249 135.046415,83.4844861 L135.442305,83.3011595 C137.595509,82.3117487 140.390616,81.1854052 142.540077,82.3112806 C142.709092,80.7134724 142.831627,79.1158755 142.914021,77.5157425 C142.618246,77.4058403 142.311908,77.3255272 141.959092,77.3234137 C141.116134,77.319398 140.230923,77.5854881 139.445007,77.8623569 C137.727401,78.4689323 136.128106,79.3733002 134.427401,80.0223569 C132.81543,80.6394998 131.030218,80.9607523 129.3105,80.6840947 C127.717542,80.4281495 126.521768,79.5954294 125.421063,78.4541378 L125.261182,78.285438 C124.778472,77.7716665 124.262049,77.206537 123.54712,77.0676798 Z M124.808387,71.1350771 C124.011908,70.7147014 123.04219,70.323492 122.121063,70.4460751 C121.24219,70.5620159 120.656477,71.1585033 120.115268,71.796019 L119.822169,72.1450003 C118.854024,73.2909084 117.901067,74.2543617 116.408387,74.7259186 C114.861908,75.2120243 113.222472,75.021809 111.783739,74.3095585 C111.272472,74.0559382 110.79712,73.7410262 110.319655,73.4303413 L110.345007,76.8011671 L110.345007,76.8011671 C111.299937,77.2767053 112.271768,77.7059577 113.338669,77.9659186 C115.307683,78.4456838 116.980923,78.0906153 118.664725,77.0042748 L118.841506,76.8891555 C120.109761,76.0559842 121.410124,75.0639851 122.976697,74.9710849 C124.505477,74.8795663 125.652791,75.727409 126.659588,76.7651179 L126.777401,76.8880321 C128.04712,78.2277816 129.329514,78.8810654 131.218246,78.7267796 C133.049377,78.5770317 134.763085,77.7682604 136.4405,77.0715124 L136.592894,77.0085018 C138.126697,76.3784665 139.895007,75.7298325 141.57881,75.9707718 C141.982331,76.0278364 142.504162,76.1525331 142.968951,76.3702239 C143.036556,74.7933393 143.068246,73.214764 143.074585,71.6338638 C142.117542,70.8034685 140.628106,70.6658795 139.430218,71.0061534 C137.554162,71.5387562 136.018246,72.9125331 134.226697,73.6585996 C132.637965,74.320126 130.981627,74.4680712 129.361204,73.842263 C127.687965,73.1957425 126.375993,71.9635703 124.808387,71.1350771 Z M142.968951,64.4944509 C140.16543,64.591672 137.423176,66.415625 134.746415,67.1109675 C131.756255,67.8871732 129.315851,66.8290415 126.652154,65.6543429 L126.308387,65.5028031 C124.941486,64.9025683 123.473176,64.3634137 121.958387,64.60858 C120.481627,64.8497307 119.175993,65.667445 117.906275,66.407171 L117.662937,66.5473382 C115.34987,67.8646384 112.994625,68.7664063 110.294303,68.5415977 C110.309092,69.3893237 110.302754,70.2347249 110.304866,71.063218 C110.748528,71.3168384 111.175289,71.6042748 111.580923,71.8663491 L111.726503,71.9586522 C113.013882,72.7639373 114.340961,73.2932326 115.875993,72.7962904 C117.359092,72.3144117 118.056275,71.0230614 119.074585,69.9599695 C120.0105,68.9835311 121.231627,68.3898481 122.600641,68.4467014 C124.073176,68.5056681 125.46543,69.1547249 126.682331,69.9472885 C127.899232,70.7398521 129.075993,71.7646896 130.499937,72.1622395 C133.694303,73.0496994 136.430218,69.6704196 139.451345,69.1441573 C140.718951,68.9222395 142.117542,69.2033354 143.074585,69.9682121 C143.064021,68.146584 143.02388,66.3205174 142.968951,64.4944509 Z M118.837965,63.7293628 C118.442894,63.7441573 118.047824,63.7610654 117.652754,63.7779734 C116.190782,63.8413785 114.72881,63.9132376 113.266838,63.9956642 C112.254866,64.0504039 111.0105,64.3613002 110.017542,64.0527288 C109.99219,64.1541769 109.958387,64.2516094 109.914021,64.3465057 C110.064021,65.0946857 110.156979,65.8682278 110.214021,66.6502239 C111.130923,66.7495585 112.062613,66.7157425 112.966838,66.5276407 C115.136556,66.0774646 116.898528,64.7079147 118.837965,63.7293628 Z M142.926697,63.1016524 C137.588127,63.4694832 132.208538,63.3429388 126.861179,63.4585466 L126.219655,63.473629 C126.194303,63.473629 126.168951,63.4759538 126.143599,63.4759538 C126.756803,63.7137229 127.365254,63.9858496 127.971625,64.2630884 L128.577401,64.5409479 C130.009796,65.2003609 131.467542,65.7393041 133.071063,65.6230614 C134.788669,65.4983648 136.406979,64.7968932 138.012613,64.230263 C139.544303,63.6892063 141.308387,63.3256838 142.941486,63.5623961 C142.937261,63.4081104 142.933035,63.2559382 142.926697,63.1016524 Z" id="ðŸ–-Ink" fill="#000000"></path>
                    </g>
                    <g id="head/Flat-Top-Long" transform="translate(78.591549, 38.043053)" fill-rule="evenodd">
                        <path d="M51.1354565,15.9061419 C63.1313673,15.9061419 80.6897479,23.9197818 82.0101761,31.6297127 C83.5662661,40.7156644 87.0224189,74.8811768 85.1408216,86.0614272 C83.2592243,97.2416776 75.922239,105.502635 59.6972051,105.502635 C43.4721713,105.502635 31.3619694,96.6510448 28.581369,93.6117924 C26.7276354,91.5856241 24.6776677,87.4199458 22.4314658,81.1147575 C16.5092607,80.1104977 13.5344303,77.2469675 13.5069746,72.5241669 C13.479519,67.8013662 14.9670446,64.7102074 17.9695515,63.2506904 C16.3491133,43.6586985 17.2418356,31.4364602 20.6477187,26.5839757 C25.7565432,19.305249 39.1395457,15.9061419 51.1354565,15.9061419 Z" id="ðŸŽ¨-Background" fill="#FFFFFF"></path>
                        <path d="M47.6707394,-0.630584736 C49.876162,-0.594655186 52.0989085,-0.512228571 54.3127817,-0.330467319 C54.4165141,-0.341034834 54.5221479,-0.349488845 54.625669,-0.36005636 C58.7918662,-0.759719765 62.9517254,-0.400424266 67.1158099,-0.224792172 C71.0832042,-0.0578254403 75.2726408,0.352194129 78.8348239,2.25202192 C79.2928521,2.49592016 79.6809507,2.77321174 80.012007,3.08220587 C80.476162,3.14751311 80.9187676,3.27918434 81.3165845,3.5004681 C82.4633451,3.26861683 83.7436268,3.78262074 84.0148944,5.11391624 C84.4099648,7.06467945 84.5599648,9.03213933 84.3233451,11.0105894 C84.3172183,11.0568751 84.3127817,11.1056971 84.3064437,11.1564211 C84.7853873,12.9917871 84.7534859,14.9962333 84.3554577,16.8064485 C84.5232042,19.0936814 84.6189085,21.3874661 84.6322183,23.6774466 C84.6415141,25.261517 84.7120775,26.8743311 84.5648239,28.4537519 C84.4351056,29.8423233 83.863838,30.9411335 82.9648944,31.9957714 C82.7954577,32.1944407 82.5091901,32.2274114 82.2710915,32.1792235 C82.2094014,32.1667538 82.1557394,32.1498458 82.1071479,32.1297675 C82.6490493,33.2919828 83.0775,34.5250004 83.5165141,35.7026442 C84.2136972,37.5752078 84.8897535,39.479474 85.3691197,41.4196697 C86.341162,45.3315523 86.9810915,49.3178301 87.3531338,53.3313722 C88.0099648,60.4728986 88.2571479,67.6757166 88.3841197,74.8447186 C88.5066549,81.637517 87.9087676,88.7219789 84.0402465,94.5298849 C80.6580634,99.610746 75.5073592,103.298809 69.7712324,105.289728 C66.5071479,106.424679 62.8925704,106.845267 59.4446831,106.948828 C57.6636972,107.001666 55.8784859,106.92558 54.1080634,106.741705 C52.3904577,106.562057 50.6136972,106.581079 49.3585563,105.279161 C49.0141901,104.921979 49.0186268,104.188593 49.5277817,103.956108 C50.4975,103.514386 51.154331,103.467889 52.2172183,103.613721 C53.097993,103.733979 53.9813028,103.829298 54.8684155,103.890589 C56.7698239,104.02374 58.6841197,104.027967 60.5855282,103.882135 C64.0798944,103.613721 67.6545423,102.626503 70.8275704,101.130355 C75.8029225,98.7801393 80.0770775,94.9291256 82.3841197,89.8759515 C85.0651056,84.0109808 84.8918662,77.2160689 84.7672183,70.9136031 C84.6296831,64.0024485 84.3742606,57.112429 83.7742606,50.2245229 C83.4827113,46.8851883 83.0327113,43.5691022 82.6270775,40.244562 C82.4134859,38.4776736 82.1327113,36.7190278 81.7881338,34.9734857 C81.6066549,34.0496736 81.3700352,33.1389652 81.175669,32.2217049 C81.0341197,32.2447421 80.8902465,32.2576344 80.7425704,32.2637636 C79.8592606,32.293564 78.8939789,32.0779867 78.238838,31.4502763 C77.9876408,31.6214701 77.6684155,31.7292587 77.2841197,31.7482802 C73.6524296,31.9277166 69.9636972,31.7060102 66.325669,31.7038967 C62.6749648,31.7017832 59.0221479,31.7038967 55.3691197,31.7144642 C51.7207394,31.7248204 48.0615845,31.7588477 44.4151056,31.6616266 C41.0200352,31.570746 37.510669,31.6447186 34.1601761,31.0233487 C33.0341197,35.0263233 33.0740493,39.4245229 35.4214437,43.0005699 C36.0846127,44.0087108 35.5458803,45.1964994 34.682007,45.8263233 C33.7986972,46.4690395 32.2110211,47.4545659 30.8525704,47.5558027 C30.7209507,47.8514818 30.5857394,48.1456814 30.4572887,48.4390356 C29.8089085,49.9170082 29.2247535,51.4042802 28.8159507,52.9691178 C28.6053169,53.7756305 28.4240493,54.5954583 28.2715141,55.4203585 C28.2839789,55.5647108 28.2968662,55.7088517 28.3122887,55.8527812 C28.3122887,55.8675757 28.3144014,55.8821589 28.3165141,55.8990669 C28.3249648,55.9584564 28.3355282,56.0260885 28.3418662,56.0641315 C28.4200352,56.4783781 28.4958803,56.8926247 28.5784859,57.3047577 C28.7749648,58.3086716 28.9268662,59.3210395 29.0348239,60.3374231 C29.2313028,62.197517 29.2122887,64.6153644 27.3996127,65.7164994 C26.4298944,66.3061667 25.2679225,66.2448751 24.2430634,65.8494387 C23.5545423,65.5833487 22.969331,65.2071452 22.3355282,64.8372822 C21.9594718,64.6172665 21.5663028,64.4378301 21.1986972,64.2095718 C21.0975,64.1461667 21.0003169,64.0700806 20.9094718,63.9897675 C20.2228521,64.1355992 19.5529225,64.4082411 19.1770775,64.5942294 C18.1691197,65.0951295 17.2841197,65.8200611 16.5317958,66.6527812 C14.9327113,68.4260102 14.4531338,70.9241706 14.6770775,73.2426834 C14.8860211,75.4005699 15.7334155,77.8794975 17.4381338,79.3147773 C18.1796831,79.9401628 19.1052465,80.3060102 20.0834155,80.2954427 C20.5648944,80.2912157 21.0087676,80.1897675 21.4735563,80.0671843 C21.932007,79.9467147 22.4982042,79.9826442 22.9207394,79.813564 C23.547993,79.5620571 24.3214437,80.3292587 24.0658099,80.9590826 C23.8733451,81.4325072 23.7636972,81.8509808 23.5226408,82.2208438 C25.2721479,85.0782998 27.1883451,87.8469886 29.2268662,90.5036618 C31.0648944,92.8961472 33.2284859,94.908202 35.2733451,97.0999045 C36.175669,98.0678888 36.5517254,99.9742685 34.9186268,100.388304 C33.2897535,100.804875 32.0728521,99.0548947 31.1367254,97.9918027 C27.2601761,93.5809221 24.3298944,88.5167577 22.9585563,82.7999436 C22.3397535,83.2395523 21.6296831,83.4783781 20.8817958,83.5819397 C19.3923592,83.7869495 17.8862324,83.4931726 16.5805986,82.7386521 C11.6367254,79.8833096 10.4409507,72.1669104 12.7564437,67.3312157 C13.3148239,66.1668869 14.1396127,65.1274661 15.1450352,64.3203194 C15.0658099,64.1687812 15.0345423,63.991247 15.0854577,63.8003977 C15.1748239,63.4662528 15.2730634,63.1361237 15.376162,62.8072626 C15.2635563,62.7571726 15.181162,62.653611 15.1967958,62.4997479 C15.2897535,61.5486716 15.3803873,60.5975953 15.4714437,59.646519 C15.4395423,58.209337 15.3698239,56.7742685 15.3867254,55.3286325 C15.4122887,53.0249143 15.5517254,50.7233096 15.5601761,48.4195914 C15.5876408,40.3840532 15.9148944,32.3569691 15.9383451,24.3214309 C15.9508099,20.3922176 15.9592606,16.4570865 15.8557394,12.530198 C15.8536268,12.4773605 15.8536268,12.4266364 15.8517254,12.3737988 C15.767007,9.23101996 14.9348239,5.02514912 18.0066549,2.99174795 C18.5115845,2.65802583 19.141162,2.65379883 19.6904577,2.86937613 C21.2707394,1.7682411 23.2524296,1.23754051 25.1475,0.931082583 C28.7580634,0.347967123 32.4003169,0.0666598826 36.0362324,-0.303203131 C37.9332042,-0.495531898 39.9296831,-0.569293151 41.8395423,-0.527023092 C43.7707394,-0.484753033 45.7270775,-0.660173777 47.6707394,-0.630584736 Z M18.3868732,69.7025448 C19.077507,69.0452454 20.1087042,69.1972063 20.9558873,69.3538168 C22.1347606,69.5715076 23.279831,70.0872023 24.2727887,70.7487288 C25.3418028,71.4609793 26.6622254,72.4479851 26.873493,73.7985135 C27.0657465,75.0391397 25.8319437,76.4065761 24.5622254,75.5759695 C23.3854648,74.8045409 22.8129296,73.3906074 21.8009577,72.4226231 C21.3042676,71.9491984 20.7676479,71.5328384 20.1995493,71.1521965 C19.9418028,70.9791006 19.6882817,70.7867718 19.4072958,70.6536211 C19.379831,70.6407288 18.2220845,70.2647366 18.4460282,70.7614098 C18.5220845,70.926263 18.323493,71.1101378 18.1819437,70.9643061 C17.7805352,70.5564 18.0044789,70.0660673 18.3868732,69.7025448 Z" id="ðŸ–-Ink" fill="#000000"></path>
                    </g>
                    <g id="face/Smiling" transform="translate(112.183099, 77.354207)" fill="#000000" fill-rule="evenodd">
                        <path d="M30.968993,50.9198978 C29.548794,50.3403012 28.2816173,49.3734958 27.3551889,48.1384646 C27.0331038,47.7091169 26.9495926,47.2557326 27.017159,46.8410547 C27.0931327,46.3747786 27.3688808,45.9521824 27.7449394,45.6687178 C28.1221628,45.3843752 28.5940214,45.2441445 29.0502103,45.3156301 C29.4466117,45.3777469 29.8412104,45.5948709 30.1535058,46.0451781 L30.2187521,46.1352289 C30.7695298,46.8806513 31.4872438,47.4922614 32.3050288,47.8864795 C33.0932406,48.2664417 33.9747757,48.4437847 34.8870208,48.3406561 C36.6244504,48.1443157 37.8219743,47.2043274 39.0948115,45.9278391 C39.2525834,45.7666792 39.4104563,45.6004672 39.5690946,45.4315797 C39.6692778,45.278484 39.8083069,45.1800892 39.962667,45.1284632 C40.1340565,45.0711416 40.327938,45.0743848 40.5055187,45.1363808 C40.6767961,45.1961763 40.8299095,45.309486 40.9325762,45.4602937 C41.0301525,45.6036243 41.0854754,45.7806897 41.0675245,45.9843589 C40.9510195,47.3072301 40.2596776,48.4878363 39.2776553,49.4148615 C38.1869942,50.4444414 36.7412431,51.1567117 35.3801317,51.4065272 C33.8805866,51.6817086 32.3525901,51.4845569 30.968993,50.9198978 L30.968993,50.9198978 Z M36.0875289,30.5120405 C37.6828906,31.482148 40.1137318,33.7442494 38.3974899,36.149264 C36.3773089,38.2698449 33.4687045,35.8384541 32.0353946,34.7388307 C30.7063626,33.8866164 29.2131206,36.0784478 30.4461973,37.0735516 C40.8033244,44.7445605 45.006466,30.7657101 36.8944406,29.3714319 C36.0012775,29.2177885 35.6695544,30.2119271 36.0875289,30.5120405 Z M17.5274577,21.5886716 C17.7037243,19.3998697 21.0359789,18.9028321 21.3674577,21.0687499 C21.6642887,23.0089456 21.3148521,24.7912626 20.4412606,26.5380728 C19.6065423,28.2068947 17.5085456,27.4283107 17.3498837,25.9087021 C17.1372039,23.8717299 17.4178099,22.9502317 17.5274577,21.5886716 Z M42.8930282,20.6196517 C43.3576056,20.0109628 44.0283803,19.5954481 44.8320423,19.8302583 C47.3429577,20.5642779 46.6028873,24.1303914 45.7210563,25.8662114 C45.2419014,26.8088337 43.6930986,27.0478708 42.993169,26.2178982 C41.8523239,24.864411 41.3059859,22.1614521 42.756338,20.8282544 C42.7956338,20.7593542 42.8393662,20.68982 42.8930282,20.6196517 Z M20.4058944,12.0111429 L20.802522,11.9416942 C22.0295218,11.7294045 23.5551549,11.5254176 24.4231479,12.5122544 C24.8835,13.0355577 25.0419507,14.0081918 24.4231479,14.509092 C23.3346972,15.3904227 22.1313169,15.0488806 20.8269507,15.1234873 C19.7520211,15.1852016 18.7189225,15.3631585 17.6835,15.6592603 C15.4119507,16.3087397 13.5610352,17.4944149 11.6209648,18.7963327 C11.3663873,18.9671037 11.1065282,18.6414129 11.228007,18.4032211 C12.3479366,16.208771 14.5182887,14.4061644 16.6922324,13.3073542 C17.8525141,12.7208571 19.1222324,12.2343288 20.4058944,12.0111429 Z M40.6041287,11.0281289 L40.9077055,11.0902829 C44.2113469,11.7811043 48.5035506,13.1610768 50.0679842,16.4073021 C50.1275964,16.8663298 50.0646105,16.9647086 50.0133917,17.0289838 L49.9963385,17.0503723 C49.9541341,17.1052595 49.9204583,17.1809212 49.7215736,17.2433957 C49.6663832,17.2302408 49.6106433,17.216308 49.5543131,17.2015401 C48.8372041,17.0135386 48.2698321,16.7545401 47.720556,16.4857982 L47.1250012,16.192275 C46.4340388,15.8533498 45.7369757,15.5267598 44.9982488,15.2856588 C43.4217423,14.7712438 41.8001698,14.4088706 40.1534741,14.2153715 C39.7965654,14.1734678 39.4528848,14.0529641 39.1817455,13.8464404 C38.92438,13.6504079 38.7277692,13.3789964 38.6381257,13.0182314 C38.5219478,12.5513438 38.5553348,12.1978716 38.8057421,11.7766707 C38.9940329,11.4603578 39.263447,11.2411116 39.5728025,11.115213 C39.888177,10.9868648 40.2472278,10.9566068 40.6041287,11.0281289 Z" id="ðŸ–-Ink"></path>
                    </g>
                    <g id="facial-hair/*-None" transform="translate(104.577451, 109.479380)"></g>
                    <g id="accessories/*-None" transform="translate(88.521127, 88.978474)"></g>
                </g>
            </g>
        </g>
    </g>
</svg>