<?xml version="1.0" encoding="UTF-8"?>
<svg width="240px" height="324px" viewBox="0 0 240 324" version="1.1" xmlns="http://www.w3.org/2000/svg" xmlns:xlink="http://www.w3.org/1999/xlink">
    <!-- Generator: Sketch 62 (91390) - https://sketch.com -->
    <title>peep-93</title>
    <desc>Created with Sketch.</desc>
    <g id="Introduction" stroke="none" stroke-width="1" fill="none" fill-rule="evenodd">
        <g id="variations" transform="translate(-3246.000000, -434.000000)">
            <g id="images" transform="translate(126.000000, 110.000000)">
                <g id="a-person/bust" transform="translate(3120.000000, 324.000000)">
                    <g id="body/Sporty-Tee" transform="translate(31.056338, 135.052838)" fill-rule="evenodd">
                        <path d="M24.1490915,150.426542 C26.6782013,150.582878 29.2071394,150.706398 31.7359206,150.800658 C64.8057553,152.033332 97.8487751,148.261985 130.898176,147.436781 C142.407401,147.133705 153.857683,147.285032 165.337331,148.209478 C166.46212,148.299936 167.748317,147.089321 167.610148,145.935771 C165.489232,127.621423 162.835923,109.355685 161.460782,90.9660963 C161.459725,89.9934622 161.585218,89.0223076 161.919444,88.1058928 C161.982401,88.0340337 162.309021,87.2283663 162.599514,87.1784877 C162.504655,87.248656 162.934585,87.1252274 162.660782,87.1463624 C164.3205,86.8745659 165.948317,85.0823155 164.74388,83.3672078 C152.335711,64.3420885 135.397542,46.9775483 129.948106,24.3803977 C128.660641,18.2711061 124.010218,17.8934231 119.055993,15.3730708 C117.510359,14.4534857 113.73057,11.9058693 113.115359,10.1347538 C111.645993,3.7513409 114.233599,-2.50230294 106.67381,-5.08521487 C101.683246,-6.46934795 92.8624014,-7.64043992 87.8128944,-6.18064344 C81.6533873,-4.12991155 82.1143732,2.813791 78.5416268,7.59094168 C76.6938602,10.3540673 73.5438342,14.1372645 70.6350659,14.5606247 C69.2252948,14.7658115 68.18693,11.9130412 66.7793028,12.1093996 C44.8383169,17.4402881 14.9452183,53.8064877 5.51507746,73.9376031 C3.38993662,80.2732509 10.2436056,78.3617988 9.8225493,84.7297832 C9.30346479,96.8107773 8.16817606,112.276546 8.84148592,124.371912 C9.47211972,131.392124 9.00542958,138.747748 11.1867676,145.503983 C10.5996549,146.217079 11.4432465,146.937572 12.1315563,147.247411 C12.9988099,148.722848 21.532331,150.222167 24.1490915,150.426542 Z" id="ðŸŽ¨-Background" fill="#FFFFFF"></path>
                        <path d="M81.2711408,-0.0176688845 C81.8415634,-2.5853636 85.9253662,-1.48422857 85.2260704,1.07289863 C84.1422676,5.02747397 81.8943803,8.76414716 78.7213521,11.3870043 C76.2704366,13.4117401 72.930507,15.2185738 69.6176197,15.5525072 C69.9281831,15.8549495 70.2260704,16.1783155 70.5387465,16.4866755 C71.2443803,17.1883585 71.9943803,17.8393174 72.7676197,18.4649143 C74.3565634,19.7499241 76.0084648,20.9060102 77.8126901,21.8739945 C85.0190282,25.7419162 93.1593803,26.6338145 101.208465,25.7332509 C105.028183,25.3063233 108.904944,24.5816031 112.496493,23.1843663 C114.161493,22.5378458 115.779592,21.6880063 117.207972,20.6145581 L117.581744,20.3338548 C118.332645,19.7665633 119.334764,18.9661539 119.804239,18.0910356 C118.37607,18.4120767 116.569732,16.8903546 115.578887,16.0050082 C114.495296,15.0327969 113.582408,13.7792783 112.908465,12.4942685 C111.588042,9.97307084 110.888746,6.72038982 111.996,4.01700822 C112.069732,3.83736047 112.306352,3.86716086 112.327479,4.06160313 C112.654944,7.21283601 113.504239,10.1675131 115.765014,12.5008204 C116.768535,13.5343233 117.970437,14.4008595 119.282408,15.0029965 L119.467087,15.0878479 C120.025982,15.3465274 120.61443,15.6499397 120.850014,16.2034661 C120.94107,16.1928986 121.031704,16.2013526 121.118324,16.2248125 C121.196493,16.2457362 121.268324,16.2691961 121.338042,16.2945581 C121.181704,15.9881002 121.099521,15.6266912 121.114099,15.1995523 C121.169239,13.5446795 123.440366,13.4941667 123.754944,14.9672783 C123.697901,14.772836 123.621845,14.9609378 123.765507,15.0201159 C123.763257,15.00295 123.759257,14.984013 123.754838,14.9671726 L123.759165,14.9827499 L123.759165,14.9827499 L123.767725,15.0200102 L123.765507,15.0201159 C123.771282,15.046746 123.77593,15.0745033 123.779013,15.1025112 L123.781965,15.1393627 L123.780127,15.1085065 C123.77818,15.0856939 123.775453,15.0652854 123.772396,15.0466998 L123.76762,15.0201159 C123.788746,15.030472 123.818324,15.0370239 123.852127,15.0370239 L123.86609,15.0425271 C123.919013,15.0653542 124.105676,15.1524211 124.160789,15.1744016 C124.538746,15.3138928 124.961282,15.358065 125.347901,15.4785346 C126.186845,15.7365933 126.926282,16.1635209 127.437549,16.8903546 C127.805155,17.4126012 128.009873,18.0107225 128.09438,18.631881 C131.806352,20.4180023 135.319732,22.7384172 138.262901,25.6108791 C144.831211,32.0188086 149.411282,40.0395523 153.169732,48.3416031 C155.082644,52.5680806 156.787346,56.8842076 158.454647,61.2120654 L158.71762,61.8954975 C160.504944,66.5471061 162.085437,71.2496501 162.473958,76.2504094 C162.509873,76.698472 162.361986,77.1190591 162.106352,77.4677871 C162.197197,77.8439906 162.243887,78.2201941 162.231,78.5877323 C162.228887,78.6450082 162.224873,78.7020728 162.220437,78.7591374 C162.820437,78.7485699 163.407761,79.0000767 163.965507,79.7059867 C164.191563,79.6341276 164.436634,79.6254622 164.677479,79.7036618 C166.145789,80.1728595 166.382408,81.7856736 166.659169,83.136202 C166.944592,84.5311139 167.069028,85.9598419 167.071141,87.382018 C167.071141,87.8915836 166.779592,88.5340885 166.285225,88.7517793 C165.355648,89.1615875 164.354451,89.4302137 163.392972,89.8021902 C162.670437,90.0811726 161.945789,90.3453605 161.214803,90.5926403 C161.620437,91.3004524 161.751423,92.2855562 161.971141,93.0316227 C162.315507,94.1961628 162.592268,95.3649299 162.824873,96.5569456 C164.400718,104.662229 165.492972,112.854167 166.96762,120.976359 C167.704944,125.044852 168.562901,129.085869 169.437338,133.126887 C169.868324,135.11358 170.326775,137.095834 170.819028,139.069846 C171.081211,140.12237 171.353535,141.175106 171.634521,142.221079 C171.716211,142.526832 171.79884,142.831646 171.882408,143.136147 L172.029592,143.66904 L172.029592,143.66904 C172.350718,143.846574 172.625366,144.114989 172.815507,144.482527 C173.510789,145.826926 173.111282,147.342308 171.778183,148.098942 C170.328887,148.923208 168.598817,148.145227 167.800014,146.80738 C167.238042,145.862856 167.054239,144.611662 166.777479,143.56104 C166.464803,142.381916 166.166915,141.196241 165.879592,140.010566 C163.927685,131.955466 162.620555,123.759221 161.635337,115.532122 L161.565507,114.944421 C161.064803,110.708961 160.581,106.462934 160.268324,102.208452 C160.114099,100.118198 159.991563,98.0279436 159.915507,95.9332509 C159.877479,94.8555757 159.938746,93.7713487 160.000014,92.6953644 C160.027479,92.2242646 160.06762,91.7506286 160.082408,91.2795288 L160.087162,91.2124379 C160.09107,91.1646907 160.096563,91.1018795 160.101,91.0359721 L160.105648,90.9561628 C158.647901,91.4126795 157.169028,91.79311 155.675577,92.1141511 C152.497901,92.8010395 149.246493,93.1837949 146.003535,92.9893526 C146.455648,98.3618771 147.045085,103.721509 147.869028,109.045423 C148.663394,114.172993 149.580296,119.289572 150.615507,124.374871 C151.133324,126.930096 151.692972,129.478981 152.282408,132.019411 C152.59931,133.37628 152.960577,134.724484 153.246,136.087905 C153.414803,136.899278 153.46762,137.577713 153.127479,138.336672 C153.501999,139.356917 153.834614,140.382403 154.161833,141.348024 L154.259873,141.63585 C154.838746,143.326652 155.937338,145.055286 154.790155,146.716711 C154.196704,147.574582 153.229099,148.065126 152.254944,148.094715 C152.238042,148.105071 152.219028,148.117963 152.200014,148.128319 C151.67607,148.409415 151.071845,148.464578 150.497197,148.344108 C149.624662,148.51509 148.750014,148.680155 147.873254,148.830214 C145.707761,149.204304 143.531704,149.512664 141.351423,149.772836 C137.200014,150.267184 133.021141,150.537924 128.844592,150.687983 C113.552831,151.239396 98.2443803,150.271411 82.9467042,150.550394 C75.152831,150.691998 67.359169,151.04284 59.5781831,151.508022 C55.6950845,151.740507 51.8098732,151.989901 47.924662,152.182229 L46.7220611,152.240748 C43.2475564,152.406978 39.7705338,152.535476 36.2986056,152.281564 C36.231,152.277126 36.1781831,152.24965 36.1422676,152.211818 C34.9443803,152.076554 33.7403662,150.973094 33.8605775,149.698863 C34.3781831,144.271177 34.8957887,138.843912 35.415507,133.414112 C36.3387465,123.74082 37.2704366,114.067317 38.2126901,104.395717 L38.3488628,102.999534 C38.665463,99.7406736 38.9677077,96.4742284 39.1211408,93.2026051 C38.3479014,93.1478654 37.5769859,93.0781198 36.8056479,92.9933683 C28.4488592,92.0781201 20.4375983,89.5495715 12.7454846,86.22808 L12.4338169,86.0929926 C11.7408592,85.7905503 10.9824085,85.4883194 10.2049437,85.1651648 C10.217831,86.642292 10.1690282,88.121744 10.1626901,89.5842881 C10.1521268,92.0129143 10.1711408,94.4413292 10.1774789,96.8674192 C10.1922676,101.867967 10.3824085,106.870629 10.6317042,111.862934 C11.0690282,120.680257 11.5824085,129.48511 12.3598732,138.281509 C12.5563521,140.494347 12.8227606,142.702957 13.0105775,144.915795 C13.1227606,146.219826 12.8542394,147.306378 11.6607887,147.991153 C11.0732535,148.329314 10.6190282,148.187709 10.0359296,147.915067 C8.61198592,147.246989 8.57184507,145.668413 8.4366338,144.294636 C8.33332394,143.258809 8.23804225,142.223404 8.14508451,141.185674 C7.94670423,138.972836 7.7753662,136.759787 7.63592958,134.542723 C7.08473239,125.733642 6.92395775,116.933227 7.30423944,108.11358 C7.48079879,103.988324 7.73568885,99.853774 8.07398418,95.7358207 L8.15353521,94.7858301 C8.43240845,91.4948947 8.61198592,88.0416423 9.18874648,84.7297832 C6.86269014,83.6983937 4.55776056,82.3859084 3.48874648,80.204562 C2.10304225,77.3724681 3.62607042,74.9506051 5.79578873,73.2828399 C5.77466197,73.001744 5.79578873,72.7227616 5.85494366,72.4693526 C6.4781831,69.770198 7.52184507,67.1029573 8.52959155,64.5289221 C9.54578873,61.9417832 10.6676197,59.3952235 11.9014225,56.9031922 C16.8535352,46.9211178 23.6183239,37.7994505 31.6824085,30.1145425 C35.6880423,26.2977675 40.0718451,22.7701198 44.7514225,19.8112157 C47.0711408,18.3467695 49.4500141,16.9939162 51.9133944,15.7894309 L52.2775941,15.6120132 C53.9924657,14.7794959 55.9158028,13.8943233 57.8227606,13.4307616 C58.0211408,13.2828164 58.2218451,13.1433252 58.424662,13.0101746 C59.174662,12.5111765 60.1929718,12.8725855 60.6366338,13.584836 C60.852338,13.4178693 61.1014225,13.2701354 61.3866338,13.1367734 L61.6685395,13.0080539 C63.379613,12.2373058 65.4341875,11.5165954 67.2915634,12.0231687 C68.4450845,12.3380806 69.3535352,13.1877088 69.761493,14.2698223 C70.6971972,13.7752626 71.6162113,13.2659084 72.5140986,12.642425 C73.9570563,11.6448517 75.2648028,10.4061276 76.4394507,9.10632329 C78.7950845,6.49213151 80.5063521,3.42966575 81.2711408,-0.0176688845 Z M163.008465,82.4089456 C162.847901,82.455654 162.678887,82.472562 162.503535,82.4512157 C162.820325,82.4884634 162.185716,82.6757904 162.01168,82.7656149 L161.998606,82.7726795 C161.681704,82.9542294 161.362901,83.1296501 161.039451,83.2989417 C160.285225,83.6960689 159.51431,84.0532509 158.730296,84.3895092 C157.18593,85.0468086 155.590859,85.5519358 153.953535,85.9217988 C152.352127,86.2829965 150.672549,86.4943468 149.031,86.5281628 C147.932408,86.5492978 146.628887,86.4987851 145.492268,86.1752078 C145.623465,88.1682411 145.769028,90.1591609 145.931704,92.1479671 L148.176452,91.6331178 C150.421352,91.1178326 152.663905,90.5899456 154.878887,89.9478106 C156.541563,89.4661432 158.181,88.901838 159.801423,88.2929378 C160.650718,87.9737988 161.493676,87.6358497 162.32607,87.2723272 C162.740319,87.0913409 163.128752,86.8760898 163.512541,86.6580969 L163.840859,86.4713096 C163.764803,85.5815249 163.625366,84.7086481 163.422761,83.8294309 C163.317127,83.3644603 163.137338,82.8868086 163.008465,82.4089456 Z M9.29438028,73.0228791 C9.00916901,73.9488047 8.57184507,74.8132274 7.57466197,75.0224642 C7.22184507,75.0964368 6.92628169,75.0562802 6.681,74.9358106 L6.62218377,75.0544826 C5.80229423,76.7379741 5.56151238,78.5148942 7.44790141,79.8116618 C8.29952113,80.3971022 9.22677465,80.9043429 10.1859296,81.3585346 C11.9011585,82.1750733 13.727798,82.8314893 15.44999,83.4991437 L15.7929718,83.6328751 C18.8732535,84.8417988 22.0021268,85.9429339 25.1795915,86.8642098 C28.4037465,87.7962646 31.6845211,88.5444446 35.0058592,89.0199828 C36.4063521,89.2188634 37.8176197,89.3583546 39.2312113,89.4492352 C39.2542394,87.5470826 39.2436761,85.6428164 39.237338,83.7406638 C38.7345211,83.6770474 38.2359296,83.6096266 37.7544507,83.5523507 C36.2880423,83.3813683 34.8260704,83.1721315 33.3725493,82.9121706 C30.3366338,82.3690004 27.3324085,81.6187068 24.4021268,80.6591765 C18.9725493,78.8774935 13.9211408,76.3305112 9.29438028,73.0228791 Z M68.8232535,14.7578301 C67.5894507,13.4518967 65.2295915,13.9232078 63.7403662,14.5572587 C63.2901549,14.7495875 62.8359296,14.9440297 62.4049437,15.1786286 L62.3214622,15.2253407 C61.819538,15.5145276 61.8220669,15.6863977 62.0671268,16.2626442 C62.3859296,17.0216031 62.8295915,17.7547773 63.2521268,18.4585738 C65.0607887,21.4789808 67.4415634,24.1081785 70.1605775,26.3292587 C79.7901549,34.1914896 93.6239577,36.9646168 105.666211,34.3311922 C111.445657,33.0686645 117.02052,30.5202715 121.275094,26.3404775 L121.662536,25.9548124 C123.378001,24.2375851 125.732802,21.7519618 125.56762,19.2069652 C125.489451,17.9830356 124.490155,17.91329 123.469732,17.676789 C123.051634,17.5795679 122.652127,17.4419789 122.305648,17.2477479 C122.584521,18.4503311 121.099521,20.2381432 120.332408,20.9886481 C118.724662,22.5629965 116.789451,23.7930552 114.742479,24.7126403 C110.846493,26.4647342 106.608676,27.2932274 102.389451,27.8171648 C97.6021268,28.413384 92.7112817,28.3605464 87.9598732,27.4792157 C83.8253662,26.7120141 79.7500141,25.2600376 76.1922676,22.9985894 C74.5612817,21.9627616 72.9535352,20.7813135 71.5929718,19.4056344 L71.3038146,19.1132898 C70.3215075,18.1176727 69.1785672,16.9141988 68.5908592,15.6076697 C68.3669155,15.6097832 68.1450845,15.6032313 67.9232535,15.5884368 C67.7669155,15.5801941 67.6826197,15.358065 67.8387465,15.2756384 C68.0140986,15.1826442 68.1894507,15.0898614 68.3648028,14.9989808 C68.3354366,14.9015483 68.3098732,14.8066521 68.2887465,14.7094309 C68.2718451,14.6270043 68.3584648,14.5509182 68.4345211,14.5974153 C68.5401549,14.660609 68.6415634,14.7284524 68.7408592,14.8001002 C68.7683239,14.7876305 68.7957887,14.772836 68.8232535,14.7578301 Z" id="ðŸ–-Ink" fill="#000000"></path>
                    </g>
                    <g id="head/Bun" transform="translate(78.591549, 38.043053)" fill-rule="evenodd">
                        <path d="M31.5816549,13.4983624 C63.6034693,11.9230137 85.3303856,37.1862439 86.2650622,47.2604358 C86.9138737,54.2534984 86.4735714,63.5798475 86.4735714,69.8287286 C86.4735714,73.0183935 88.0824383,82.7137735 86.2650622,87.362702 C82.2199911,97.7101722 77.6499664,105.815241 64.9872084,105.815241 C52.3244503,105.815241 33.0205532,99.2495806 26.391941,90.7814249 C25.1816707,89.2352857 10.1426284,77.9174 10.1426284,69.0211488 C10.1426284,50.0407527 8.73273411,14.6224405 31.5816549,13.4983624 Z" id="ðŸŽ¨-Background" fill="#FFFFFF"></path>
                        <path d="M9.73643662,-7.00150685 C11.5613662,-7.57215264 12.7260845,-6.75063405 13.557,-5.47788258 C13.740169,-5.51360078 13.9174225,-5.51127593 14.1147465,-5.46372211 C14.1635493,-5.4518865 14.2816479,-5.40729159 14.3710141,-5.37220744 C14.4400986,-5.34325245 14.5024225,-5.3081683 14.5624225,-5.27097065 L14.5981268,-5.28978082 L14.5981268,-5.28978082 C14.7350282,-5.43920548 14.8789014,-5.57552642 15.0341831,-5.68542857 C15.3831972,-5.93228571 15.7427746,-6.00414481 16.0839718,-5.95342074 L16.242,-6.01154207 L16.242,-6.01154207 C17.5928451,-6.48243053 19.0573521,-6.26389432 19.9731972,-5.09977691 C20.1504507,-4.8749002 20.2936901,-4.6244501 20.4160141,-4.36026223 C20.690662,-4.27022701 20.9484085,-4.14003523 21.1704507,-3.9798317 C21.3263662,-4.05317025 21.4911549,-4.11488454 21.6675634,-4.16032485 C22.6641127,-4.41605871 23.7111549,-4.17469667 24.5232676,-3.56347162 C24.9187606,-3.26610176 25.2096761,-2.89370254 25.4302394,-2.46846575 C25.6814366,-2.40949902 25.9296761,-2.30340117 26.1622817,-2.16095108 C26.3621408,-2.26049706 26.565169,-2.35391389 26.7732676,-2.41795303 C27.5340423,-2.65170646 28.350169,-2.73772603 29.142,-2.6787593 C30.8482859,-2.55217104 32.4984577,-0.602504715 31.358117,1.07172788 L31.3227042,1.12237573 C31.1779859,1.32421526 31.0520704,1.532818 30.9354507,1.74480235 C31.343831,1.92254795 31.7372113,2.16031703 32.1005915,2.45832094 C33.8780178,3.91563043 34.0380087,6.16223654 33.7055702,8.28155964 L33.6914366,8.36978865 L33.695662,8.36978865 C34.6400607,8.45947921 35.4554246,9.44620985 34.8974744,10.3743147 L34.8703099,10.417773 C34.1150282,11.5850607 33.4677042,12.8745088 32.7462254,14.1028767 C30.7495352,14.8229472 28.8242535,15.709773 27.0113662,16.7842779 C25.8821408,17.77382 24.807,18.8200039 23.8611549,19.98391 C23.3889718,20.5651233 22.9552394,21.180364 22.5565775,21.8182192 C22.8753803,21.9714481 23.2696056,21.9636282 23.6025634,21.6550568 C26.5643239,18.9094051 30.1425634,16.9825245 33.9525634,15.6911742 C34.227,15.5979687 34.407,15.4225479 34.5079859,15.215002 C36.1993944,14.7329119 37.9205915,14.3590333 39.6589014,14.0944227 C40.1380563,13.6376947 40.6400282,13.201045 41.1170704,12.7462192 C41.7261549,12.1658513 42.4890423,12.1743053 43.0590423,12.5388845 C43.3421408,12.4097847 43.6316948,12.2958023 43.9256258,12.1933904 L44.1079859,12.1311898 C44.1840423,12.1062505 44.2567183,12.0772955 44.331507,12.0544697 C46.371326,11.4306887 48.2365977,11.6622902 50.2429646,12.1748155 L50.4998873,12.241726 C51.4351766,12.4899569 52.0237377,12.4502811 52.9295248,12.2218093 L53.031507,12.1956517 C53.993831,11.9445675 55.0231268,11.7585793 56.0067887,12.0229785 C57.0360027,12.299711 57.7187686,12.9151098 58.4198459,13.6586618 L58.4900282,13.7334364 C58.8171249,14.0835279 59.0061604,14.1217078 59.434429,14.1131954 L59.8930801,14.0995976 C61.624269,14.0521249 63.3194696,14.1251473 64.6161549,15.4646067 C65.0954306,15.9599715 65.6097738,16.6610314 65.9184658,17.3008657 L65.9631972,17.3963483 C65.9775634,17.4274168 65.9902394,17.4534129 66.0020704,17.4766614 C66.1879859,17.4466497 66.4774225,17.3289276 66.615169,17.3020861 C68.5017887,16.9360274 70.0759437,17.5001213 71.2875634,18.9873933 C71.552493,19.3128728 71.9528451,19.9519961 72.2302394,20.3032603 C72.3274225,20.3856869 72.4191127,20.4740313 72.5059437,20.5668141 C72.9608028,20.8574207 73.6053803,20.8390333 74.1153803,20.9409041 C75.5053099,21.217773 76.9909437,21.7465714 77.6976338,23.0698356 C77.9929859,23.6220939 78.1022113,24.2263444 78.2268592,24.8299609 C78.6941831,25.1370528 79.0603099,25.5796204 79.3446761,26.0587515 C79.6903099,26.6403875 79.8373521,27.3528493 80.2353803,27.9021487 C80.5243944,28.3011781 80.9661549,28.5142192 81.3863662,28.7581174 L81.5467909,28.8524162 C82.7921255,29.5942237 83.7671233,30.4174614 84.1771609,31.8708802 L84.2126764,32.0001863 C84.279158,32.2228095 84.5126318,32.8582346 84.3092535,32.7627828 C84.4843944,32.8593699 84.7818592,32.8933973 84.9415775,32.9462348 C85.8054507,33.2321918 86.556507,33.6942035 87.0166479,34.5055773 C87.3667375,35.123114 87.4303902,35.7668407 87.5306349,36.4476028 L87.573338,36.7224569 C87.5842315,36.7889332 87.5972641,36.8661834 87.61072,36.9410893 L87.6242535,37.014728 L87.6267887,37.0164188 C87.783338,37.0840509 87.9369296,37.1573894 88.0879859,37.2364344 C88.8039718,37.6580783 89.2934789,38.3899843 89.2934789,39.2372877 C89.2934789,39.6485753 89.1650282,39.9689824 88.9780563,40.2549393 C89.1293239,40.4840431 89.2463662,40.7281526 89.3348873,41.0001605 C89.5085493,41.5312838 89.5205915,42.1120744 89.4622817,42.6615851 C89.3921408,43.320998 89.2229155,43.9214442 89.0236901,44.5512681 C88.947,44.7943209 88.9159437,45.1339609 88.8003803,45.3660235 C89.0135493,45.6380313 89.1407324,45.9704853 89.1012254,46.298501 C89.0448169,46.7676986 88.8308028,47.3161526 88.4059437,47.5792838 C88.1982676,48.6043327 87.7512254,49.6517847 87.3111549,50.4897886 C87.2604507,50.5870098 87.1991831,50.6736634 87.1315775,50.7455225 C87.1928451,54.0911977 86.9477746,57.4603327 86.9308732,60.8015695 C86.9118592,64.438908 86.9879155,68.0785714 87.1146761,71.7114716 C87.3280563,77.7328415 88.0907324,83.9592211 86.3139718,89.8307436 C84.8604507,94.636638 81.9489718,98.7621957 78.0449577,101.89018 C74.0477746,105.090023 69.2289718,106.941663 64.1118592,107.231213 C61.5090423,107.376834 58.8618592,107.080943 56.3435493,106.406736 L56.0744894,106.333767 C53.6380197,105.664144 50.8158833,104.641131 49.0231268,102.84971 C48.0766479,101.902861 49.0336901,99.8973581 50.4217183,100.448771 C51.7970704,100.99638 53.0310845,101.80564 54.395662,102.376286 C55.6146761,102.88564 56.8867183,103.276638 58.1752394,103.564074 C60.7590423,104.145288 63.4991831,104.272309 66.1252394,103.910689 C75.6069296,102.612998 82.9949577,94.736184 84.4527042,85.3964031 C84.8561525,82.8099128 84.8486413,80.1809514 84.8214547,77.5673967 L84.7914038,74.7037176 C84.7683337,72.3080564 84.7597968,69.9109785 84.8477746,67.5163796 C84.9597465,64.4348924 85.1773521,61.3553072 85.4689014,58.2867123 L85.6207822,56.6899733 C85.8010871,54.821606 86.0041127,52.9391037 86.3541127,51.096364 C86.0674225,51.1113699 83.8053803,47.2402779 82.5500282,45.0771076 C82.0917887,44.7135851 81.7049577,44.2619295 81.5555915,43.677546 C81.5245352,43.5555969 81.5084789,43.432591 81.4987606,43.3093738 C81.2262254,42.8809667 80.9386901,42.4635499 80.6353099,42.0586027 L80.5690987,42.028994 C80.5181728,42.0057393 80.4785493,41.9863511 80.4553099,41.9732172 C79.7931972,41.5976477 79.2403099,41.0286928 78.8619296,40.3692798 C78.7343239,40.1469393 78.6297465,39.9148767 78.5448169,39.6775303 C78.0050282,39.1476751 77.4403099,38.6421252 76.8470704,38.1680665 C76.7887606,38.1215695 76.7285493,38.0780313 76.6698169,38.0321683 C75.9145352,37.750227 75.2515775,37.3254129 74.7681972,36.7135538 C74.5662254,36.5884344 74.3627746,36.4658513 74.1576338,36.3458043 C73.542,36.3400978 72.9200282,36.196591 72.3149577,35.9478317 C71.2079155,35.4930059 70.3237606,34.5941331 69.2116479,34.1775616 C68.0355211,33.737319 66.7964366,34.7378513 65.5467887,34.5573581 C65.2277746,34.5112838 64.911507,34.414274 64.6174225,34.2735147 C63.9136901,35.0191585 63.1668592,35.7221096 62.3435493,36.3373503 C61.1484085,37.2305166 59.9264366,37.6386341 58.5411549,38.0421018 C57.8547465,38.6936947 57.0861549,39.3254207 56.1593239,39.4182035 C54.0143239,41.1335225 51.720169,42.5804266 49.3062254,43.9237691 C48.9179155,44.1397691 48.5319296,44.2372016 48.1655915,44.2397378 C47.4084085,44.7152759 46.5819296,45.0811233 45.7087606,45.3343209 C45.435169,45.4135773 45.1531268,45.430274 44.8757324,45.3962466 L44.1181268,46.0136008 L44.1181268,46.0136008 C43.5908028,46.4430646 43.0284085,46.6482857 42.4903099,46.6616008 C42.1628451,46.9124736 41.8235493,47.14982 41.4743239,47.3780783 C41.100169,47.6230333 40.6148873,47.7244814 40.1272817,47.6948924 C39.3825634,48.4236282 38.4168592,48.500137 37.6081268,48.1645127 C37.497,48.2296086 37.3827042,48.2913229 37.2542535,48.3519804 C37.0797465,48.4346184 36.8976338,48.504364 36.7119296,48.5607945 C35.8685493,49.4700235 34.6341127,49.9468297 33.3971408,49.8221331 C32.4734789,50.3881292 31.398338,50.6825401 30.3472817,50.6163875 C30.1869296,51.4220548 30.0542535,52.230681 29.9420704,53.0420548 L29.9305872,53.6364193 C29.9293673,53.7327358 29.9291646,53.807816 29.9304441,53.8572738 L29.9310845,53.8768885 C30.0339718,56.4826262 30.090169,59.0896321 30.1917887,61.6957926 L30.2011169,61.9014875 C30.3167826,64.1783433 30.8767711,68.329607 27.5312958,68.2391977 C26.2846056,68.2055065 25.0477329,67.2871336 24.0770061,66.5320366 L23.940169,66.4253894 C23.8658028,66.3674795 23.7895352,66.30809 23.7128451,66.2476438 C22.9873521,66.1533816 22.272,65.9769041 21.5393239,65.9500626 C20.6350986,65.9183601 19.6843944,66.0113542 18.8034085,66.216364 C17.2484789,66.577773 15.7442535,67.2860078 14.730169,68.5686928 C14.6414366,68.6807084 14.5590423,68.7990646 14.4808732,68.9174207 C14.4090423,69.1604736 14.286507,69.3845049 14.123831,69.5789472 C13.1646761,71.7368337 13.7184085,74.5881605 14.7787606,76.5619609 C16.0422101,78.9131463 18.0414909,80.5386407 20.5554516,81.3573907 L20.6815775,81.3976556 C22.3991831,81.9344853 23.0562254,82.9743288 23.9900282,84.4199648 C24.8646761,85.7768337 25.8681972,87.0407084 26.945662,88.2411781 C29.0308732,90.5639178 31.9571408,92.4810763 33.1696056,95.4207476 C33.4146761,96.0127397 32.7132676,96.5704932 32.1703099,96.4185323 C30.0428451,95.820411 28.5512958,94.3050294 27.0048169,92.7981018 C25.9345352,91.754454 24.9052394,90.6689589 23.9395352,89.5287241 C23.7369296,89.6223523 23.5140423,89.6853346 23.2818592,89.7136556 C22.2572113,89.838775 21.2004507,89.7867828 20.3034085,89.2343131 C19.8899577,89.2719335 19.4591831,89.1284266 19.1393239,88.8352838 C18.8458732,88.5656008 18.5927746,88.2739374 18.3789718,87.9634638 C18.0540423,87.9919961 17.7350282,88.0006614 17.4305915,87.9501487 C17.2837606,87.936411 17.1415775,87.8977339 17.0112254,87.8343288 C16.7691127,87.7385871 16.5394648,87.5910646 16.3286197,87.3647084 C15.9014366,86.9060783 15.7377042,86.2580783 15.816507,85.6422035 C15.732,85.6244501 15.6481268,85.602681 15.5653099,85.5745714 C14.9965775,85.3820313 14.558831,84.9996986 14.2791127,84.4793542 C13.7786197,84.1984697 13.3279859,83.8176164 12.9867887,83.413092 C12.5712254,82.9208571 12.2577042,82.3660626 12.0734789,81.7533581 C11.8831268,81.6648023 11.6982676,81.5622975 11.5212254,81.4422505 C10.2525634,80.5835342 9.52622535,78.9713542 10.0243944,77.4807006 L10.0413192,77.4338758 C10.0665954,77.3667228 10.1124117,77.2523935 10.1684789,77.1233072 C10.1604507,77.0182661 10.152,76.913225 10.1462958,76.8079726 L10.1287606,76.4905245 L10.1287606,76.4905245 L9.87460563,76.3825245 L9.87460563,76.3825245 C8.607,75.8782427 7.75009859,75.1974834 7.59777465,73.7706575 C7.56608451,73.4756125 7.68059155,73.1746497 7.86122535,72.9231429 L7.86038028,72.8440978 L7.86038028,72.8440978 C7.77798592,72.8014051 7.69960563,72.7576556 7.63052113,72.7136947 C6.93946479,72.272184 6.5148169,71.4808885 6.56235211,70.6625401 C6.60601894,69.9165683 7.01906319,69.3219228 7.48349809,68.771998 L7.61618134,68.6177524 C7.62719366,68.6052564 7.6395,68.5913072 7.65270423,68.5763014 L7.3456698,68.4796438 C7.14648357,68.4162387 6.96404225,68.3531155 6.83277465,68.2795656 C6.32488732,67.9948767 5.89432394,67.6100078 5.62876056,67.1209432 C5.59009859,67.0602857 5.55080282,67.0006849 5.51530986,66.9360117 C5.17242254,66.3102035 5.1276338,65.5083405 5.34883099,64.8364579 C5.37502817,64.7572016 5.40883099,64.6825949 5.44347887,64.608411 C4.50967606,64.2791272 3.79073239,63.5985793 3.70411268,62.3444266 C3.67009859,61.851135 3.77805634,61.3597456 4.01277465,60.9389472 C3.96080282,60.6555264 3.95002817,60.3617495 3.98361972,60.0711429 C3.65509859,59.7606693 3.39988732,59.3865793 3.28580282,58.930274 C3.07009859,58.0681761 3.46495775,57.2479256 4.05185915,56.4957299 C3.83467606,55.9009902 3.82347887,55.229953 4.07150704,54.6311977 C3.97601408,54.3323483 3.92171831,54.0163796 3.91876056,53.6919569 C3.91221127,52.9735773 4.13340845,52.3735538 4.49066197,51.8631429 C3.98847887,51.2489589 3.74995775,50.4327241 4.04657746,49.6678474 C4.2576338,49.1242544 4.49890141,48.6269472 4.77692958,48.1662035 C4.63094366,47.8157847 4.54601408,47.4233072 4.54601408,46.98391 C4.54601408,46.1934599 4.84221127,45.567229 5.29538028,45.0547045 C5.09869014,44.1186341 5.49861972,42.9786106 6.37030986,42.5664775 C6.69883099,42.4109237 7.13869014,42.2486067 7.62333803,42.1222192 C7.80523944,41.5536869 7.99516901,40.9874795 8.19566197,40.4252877 C8.51150704,39.540364 8.85122535,38.6676986 9.21122535,37.8051781 C9.00397183,37.986728 8.78657746,38.1560196 8.56178873,38.3094599 C7.85087324,39.2136164 6.90840845,39.9968806 6.1163662,40.4654442 C4.54622535,41.3945401 2.7504507,40.8433386 1.97530986,39.2888571 C1.24685915,39.8328728 0.372633803,40.1549706 -0.560112676,40.0448571 C-1.61771831,39.9199491 -2.58469014,39.2347515 -2.84877465,38.165953 C-2.88701408,38.0112446 -2.91004225,37.8440665 -2.9123662,37.6758317 C-3.51891549,38.1078317 -4.15356338,38.5053816 -4.84969014,38.7330059 C-5.73638028,39.0229785 -6.6414507,38.3274247 -6.75849296,37.4608885 C-6.80476056,37.1174442 -6.74053521,36.8139452 -6.60384507,36.5575773 L-6.69043349,36.5234951 C-6.70480751,36.5174912 -6.71912676,36.5112211 -6.73335211,36.5045284 C-7.19835211,36.2866262 -7.55940845,35.8871742 -7.73095775,35.4264305 C-8.73785915,35.8161605 -9.89053521,35.3594325 -10.2099718,34.2517456 C-10.5902535,32.9350333 -10.6132817,31.6014129 -10.3156056,30.318728 C-11.382507,29.5430724 -12.0775775,28.2390411 -12.1958873,26.8758317 C-12.2822958,25.8972798 -12.0488451,24.9939687 -11.637507,24.1587123 C-12.6465211,23.7812407 -12.9934225,22.4581879 -12.5138451,21.504998 C-13.1508169,21.1402074 -13.566169,20.3668767 -13.5754648,19.614047 C-13.8600423,19.1828924 -13.9510986,18.6276751 -13.7151127,18.0054599 C-13.4039155,17.1856321 -12.7701127,16.4998004 -12.0444085,15.9619139 C-12.3608873,15.4107123 -12.5960282,14.8096321 -12.7420141,14.1884736 C-13.3432817,14.0124188 -13.8285634,13.5258904 -13.9274366,12.7952524 C-14.0512394,11.8792603 -13.448493,11.1027593 -12.6372254,10.8977495 C-12.5472254,10.6187671 -12.4373662,10.3459139 -12.3015211,10.0838395 C-12.7029296,9.13276321 -12.6437746,7.93018004 -12.126169,6.89033659 C-11.6677183,5.97096282 -10.9219437,5.40877104 -10.0240563,5.0198865 C-10.2522254,4.23789041 -9.95011268,3.45800783 -9.1895493,2.87679452 C-8.26102817,2.16644618 -7.24271831,1.62348728 -6.17264789,1.2398865 C-6.26771831,-0.0330763209 -5.73574648,-1.33668493 -4.47849296,-1.78052055 C-4.1423662,-1.89908806 -3.79250704,-1.94283757 -3.43694366,-1.94135812 C-3.17877465,-2.50291585 -2.748,-2.95943249 -2.1858169,-3.36353425 C-1.33509507,-3.97475577 0.254726408,-3.60135159 0.726518373,-2.64282604 L0.749535211,-2.59358513 C0.773619718,-2.5392681 0.799605634,-2.48960078 0.824323944,-2.43697456 C0.919394366,-2.90236791 1.14164789,-3.34197652 1.49890141,-3.70232877 C2.39192958,-4.60331507 3.3348169,-4.62022309 4.24221127,-4.23493151 C4.40869014,-4.64790998 4.61023944,-5.04059883 4.85530986,-5.39968297 C5.74495775,-6.70244618 7.21474648,-6.86835616 8.29094366,-6.16286888 C8.72235211,-6.54224266 9.20383099,-6.83475147 9.73643662,-7.00150685 Z M16.0972183,71.3395162 C17.8885563,70.6378333 20.0625,70.8451679 21.8329225,71.519164 L21.9626727,71.5696227 C23.526413,72.1881462 26.066899,73.5638767 26.3730634,75.3234693 C26.5315141,76.2346004 25.6655282,77.0227256 24.7864437,76.5431718 C24.0216549,76.1266004 23.5927817,75.2875397 22.984331,74.6788509 C22.3824296,74.0767139 21.7082746,73.5927217 20.9732746,73.1676963 C19.4394718,72.2821386 17.8272887,71.9376376 16.0972183,71.6821151 C15.9028521,71.6546395 15.955669,71.3944673 16.0972183,71.3395162 Z" id="ðŸ–-Ink" fill="#000000"></path>
                    </g>
                    <g id="face/Blank" transform="translate(112.183099, 77.354207)" fill="#000000" fill-rule="evenodd">
                        <path d="M38.3947606,44.9775405 C38.5413803,44.9378067 38.6704648,45.1347851 38.5489859,45.2425738 C38.051662,45.6840845 37.7358169,46.5066599 37.3728592,47.0673722 C37.0276479,47.6008204 36.6949014,48.1287734 36.3913099,48.6871609 C36.0509577,49.3129691 35.7222254,49.9364524 35.4572958,50.5986129 L35.4049014,50.7321863 L35.4049014,50.7321863 C35.4842228,50.9210566 35.5462586,51.1074815 35.5919613,51.2296916 L35.6051831,51.2643663 C36.0577183,52.4204524 35.1078592,53.7052509 34.0365211,54.0284055 C32.2039859,54.5810865 30.6317324,53.0756384 30.588,51.28529 C30.5535634,49.8768517 31.5078592,48.6218536 32.4775775,47.6908556 C33.3258169,46.8765229 34.2756761,46.1832939 35.3381408,45.6754192 C35.8069437,45.4515992 36.2939155,45.2643429 36.8028592,45.1557088 C37.3234225,45.0447499 37.8849718,45.1153409 38.3947606,44.9775405 Z M34.9409577,50.0816501 C35.0753239,50.1450552 35.1900423,50.299975 35.2865915,50.4808908 C35.2384225,50.3274505 35.1389155,50.1748556 34.9409577,50.0816501 Z M36.0875289,30.5120405 C37.6828906,31.482148 40.1137318,33.7442494 38.3974899,36.149264 C36.3773089,38.2698449 33.4687045,35.8384541 32.0353946,34.7388307 C30.7063626,33.8866164 29.2131206,36.0784478 30.4461973,37.0735516 C40.8033244,44.7445605 45.006466,30.7657101 36.8944406,29.3714319 C36.0012775,29.2177885 35.6695544,30.2119271 36.0875289,30.5120405 Z M22.9734718,21.196807 L23.2553308,21.1731595 C24.4779893,21.0653601 25.7159366,20.9010676 26.9216408,21.1777855 C28.5414296,21.549762 28.4226972,23.9071632 26.9216408,24.3406427 C25.5986831,24.7225526 24.1326972,24.5572767 22.7670634,24.5703804 C22.5522042,24.5724939 22.3377676,24.577989 22.1231197,24.581582 C22.0808662,25.0924157 21.913331,25.5328697 21.6568521,25.972901 C21.4730493,26.2886583 21.2385423,26.5885644 21.007838,26.8690262 C20.4593873,27.535625 19.1657958,27.5206192 18.6122746,26.8690262 C18.202838,26.3867249 17.8768521,25.8319303 17.8715704,25.1790693 C17.8703028,25.0118912 17.8905845,24.8343569 17.9305141,24.6597816 L17.1851399,24.6728174 C15.3608351,24.7006689 13.5225845,24.688297 11.7312887,24.3983413 C11.0941056,24.5302239 10.5726972,23.3800556 11.4522042,23.0357659 C13.8431197,22.1003295 16.5141761,21.8249401 19.0512887,21.5440556 C20.3550211,21.399492 21.6659366,21.299946 22.9734718,21.196807 Z M43.3420916,20.2301431 L43.4071479,20.2236658 C44.989331,20.0615601 46.7333451,19.7808869 48.3186972,19.9423585 C50.6857394,20.1830865 50.6817254,23.384198 48.3186972,23.6236579 C47.4512324,23.7115796 46.5372887,23.6688869 45.6258803,23.5847695 C46.0917254,24.5734661 45.5390493,25.7542802 44.4165845,25.9051843 C43.3734737,26.0453617 42.292403,25.0313137 42.6345747,23.9436933 L42.6505986,23.8956658 C42.7173592,23.7069299 42.7773592,23.4960023 42.8485563,23.2878223 L42.4710789,23.2559706 C41.3427345,23.1561803 39.7766698,22.9523871 39.3613732,22.0611452 C39.2360915,21.792519 39.2650352,21.5431256 39.4579225,21.3135992 C40.2489085,20.3717585 42.1986992,20.3407637 43.3420916,20.2301431 L43.3420916,20.2301431 Z M26.5176549,12.9009276 C27.6627254,12.4847789 28.8527958,13.458681 29.0013169,14.5562231 C29.1723398,15.8209987 28.2604643,16.6537132 27.1046587,16.8047698 L27.046669,16.8117534 C24.4954014,17.0928493 21.9633592,17.6068532 19.4087113,17.8974599 C18.248468,18.0292656 17.0794946,18.1160066 15.9114737,18.1472026 L15.0767519,18.1659677 C14.0538703,18.1918364 12.9567734,18.2151704 12.0124437,17.8627984 L12.0160352,17.8564579 L12.0160352,17.8564579 C11.7652606,17.7837534 11.6499085,17.4219217 11.928993,17.2240978 C12.9344155,16.5129041 14.2896972,16.2440665 15.4601197,15.9061174 C16.6368803,15.5660548 17.8223028,15.2526223 19.0108944,14.9582114 C21.5068099,14.3406458 24.0994859,13.7797221 26.5176549,12.9009276 Z M37.0781831,13.1965855 C37.3815634,11.5964524 39.6474085,11.424836 40.4795915,12.5891648 C41.0174789,12.7738849 41.8061408,12.9666364 42.2948028,13.1116227 C43.1462113,13.3641863 43.9982535,13.6152705 44.8521972,13.8585346 C46.620507,14.3623937 48.3461408,15.0010943 50.084662,15.5964681 C50.2638169,15.657971 50.2145915,15.885384 50.0424085,15.9079984 C47.615907,16.2239079 45.2300988,16.3709428 42.7889089,16.2696327 L42.2883546,16.2470864 C40.1372571,16.1632432 36.4855268,16.3231897 37.0781831,13.1965855 Z" id="ðŸ–-Ink"></path>
                    </g>
                    <g id="facial-hair/*-None" transform="translate(104.577451, 109.479380)"></g>
                    <g id="accessories/*-None" transform="translate(88.521127, 88.978474)"></g>
                </g>
            </g>
        </g>
    </g>
</svg>