<?xml version="1.0" encoding="UTF-8"?>
<svg width="240px" height="324px" viewBox="0 0 240 324" version="1.1" xmlns="http://www.w3.org/2000/svg" xmlns:xlink="http://www.w3.org/1999/xlink">
    <!-- Generator: Sketch 62 (91390) - https://sketch.com -->
    <title>peep-70</title>
    <desc>Created with Sketch.</desc>
    <g id="Introduction" stroke="none" stroke-width="1" fill="none" fill-rule="evenodd">
        <g id="variations" transform="translate(-2286.000000, -2054.000000)">
            <g id="images" transform="translate(126.000000, 110.000000)">
                <g id="a-person/bust" transform="translate(2160.000000, 1944.000000)">
                    <g id="body/Dress" transform="translate(31.056338, 135.052838)" fill-rule="evenodd">
                        <path d="M161.739486,136.423804 C161.226951,131.66187 160.911106,126.866543 160.729838,122.080516 C160.548782,117.300195 160.785613,112.461119 160.889556,107.678895 C161.101458,97.9506528 161.445824,88.199373 160.671528,78.4859249 C159.939908,69.3059249 158.26012,60.189964 155.609345,51.3694708 C154.3185,47.0737761 152.958148,42.6051969 150.83512,38.6360384 C148.700261,34.6453221 145.318711,31.9878035 141.604204,29.5507233 C137.649486,26.9559757 133.726458,24.3121949 129.787162,21.6933534 C126.480401,19.495099 120.529647,16.9365879 117.816548,13.997762 C114.961689,10.9054959 114.425036,3.2404227 112.523839,-0.422700587 C110.67229,-3.99071624 105.431162,-6.31822011 101.395648,-6.31822011 C94.7158947,-6.31822011 89.6547676,-6.65971115 84.1622324,-0.478349119 C81.4218803,2.60588571 83.6022444,5.72378026 80.72985,8.68395248 C78.089005,11.4055102 71.335331,14.202465 67.9315986,15.7816744 C63.8549789,17.6730481 59.6754718,19.3429268 55.435331,20.8304102 C51.1100493,22.3479053 46.6757535,23.4788407 42.3261761,24.9109503 C38.1570211,26.2836705 32.7130211,31.9417203 29.4764014,34.9354972 C26.4673169,37.7189806 25.7205423,37.4072477 23.4329366,40.7886411 C18.4123732,48.2093613 13.3863169,55.7152556 9.38828873,63.749737 C7.39688028,67.7518661 5.46864085,71.9617526 4.74610563,76.4064493 C3.97540141,81.1470364 4.73955634,85.7282654 5.98941549,90.3181597 C7.26166901,94.9892125 11.3017365,99.4365088 12.6179337,104.095726 C13.224483,106.242834 11.1424437,108.586011 12.1001197,110.609479 C12.5784296,111.619944 13.1807535,112.519663 13.8665282,113.400148 C14.3949085,114.078582 16.4554742,113.928237 16.7220939,114.758632 C16.9914601,115.59727 15.5006831,117.337604 15.4785,118.20562 C15.4470211,119.447725 15.3975845,120.689831 15.3568099,121.931937 L15.1159648,129.275303 C14.9577254,134.100852 14.7994859,138.926614 14.6412465,143.752164 C14.5894859,145.327357 14.5140634,146.86641 14.8915986,148.361079 C14.755331,148.234692 14.6258239,148.097103 14.5075141,147.942606 C14.1612465,147.490316 13.4268803,147.873706 13.7207535,148.402715 C14.2113169,149.285526 14.9167394,149.906895 15.7455423,150.353267 C16.7087113,151.773753 162.572937,154.946543 163.290613,150.79351 C163.693289,148.463373 162.960401,145.968805 162.667373,143.653674 C162.362303,141.242379 161.999768,138.84144 161.739486,136.423804 Z" id="ðŸŽ¨-Background" fill="#FFFFFF"></path>
                        <path d="M13.5693592,76.4147554 C13.9261901,75.3922427 15.5584437,75.8347082 15.1990775,76.8640861 C13.3517535,82.1575656 14.6622465,87.9179178 16.6593592,92.971092 C17.0601338,93.9849393 15.4249225,94.4205323 15.0296408,93.4204227 C12.9287958,88.1049628 11.6290775,81.9739022 13.5693592,76.4147554 M25.9557676,106.650951 C31.1656268,107.384125 36.3797113,107.836415 41.6254859,108.202051 C41.859993,108.218959 42.0628099,108.183241 42.238162,108.106943 C42.0818239,110.509996 41.9550634,112.915162 41.8557676,115.320329 C40.4254859,115.280384 38.9656268,115.37528 37.5480211,115.337237 C35.6952042,115.286513 33.8445,115.193519 31.9959085,115.052125 C28.4170352,114.781386 24.8445,114.350231 21.3057676,113.754223 C19.9832324,113.532305 18.3036549,113.397041 16.7973169,112.957432 C15.3733732,112.541284 14.1057676,111.85207 13.4402746,110.55438 C12.8740775,109.455358 12.7705563,108.109268 12.7705563,106.894004 C12.7705563,106.056845 12.9142183,105.207217 13.000838,104.36393 C13.1085845,104.288055 13.2057676,104.196963 13.2839366,104.095726 C14.8557676,104.592188 16.4867535,104.941127 18.0839366,105.279076 C20.6846408,105.832814 23.3233732,106.281088 25.9557676,106.650951 M23.0174577,87.1088689 C23.0461901,88.7242192 23.4930211,90.1916243 24.3623873,91.5516634 C24.9505563,92.4720939 23.4871056,93.3189746 22.9029507,92.4050959 C21.8795704,90.8036947 21.3611197,89.0061605 21.3273169,87.1088689 C21.3078803,86.0185127 22.9980211,86.0221057 23.0174577,87.1088689 M156.565627,104.731679 C157.271049,104.771202 157.980908,104.795295 158.688444,104.832916 C159.312528,105.366787 160.176613,105.640485 160.965697,105.47056 C160.992951,105.538826 161.017669,105.615546 161.040275,105.70389 C161.179711,106.247061 161.24943,106.830387 161.329711,107.384125 C161.409993,107.929409 161.471261,108.479131 161.513514,109.028642 C161.534641,109.305299 161.667739,109.930896 161.498725,110.172047 C161.346613,110.389526 161.010697,110.370505 160.778303,110.39798 C160.152951,110.465613 159.519148,110.497526 158.88957,110.550364 C157.700134,110.653714 156.510697,110.757276 155.323373,110.860838 C154.159289,110.962497 152.88112,110.930795 151.742387,111.237252 C151.548021,108.952344 151.370556,106.667859 151.205768,104.380838 C152.969852,104.64101 154.814218,104.634458 156.565627,104.731679 M8.6529507,100.94238 C9.36280986,102.313832 10.0177394,103.662247 11.3761901,104.486513 C11.5536549,104.592188 11.7522465,104.649252 11.9550634,104.664047 C11.8029507,105.317119 11.7078803,105.984986 11.6233732,106.602129 C11.4374577,107.961323 11.3973169,109.366591 11.7374577,110.706552 C12.0691479,112.010583 12.6184437,113.175335 13.6959085,114.010168 C14.1966127,114.399053 14.7437958,114.694732 15.3184437,114.929331 C15.2212606,115.201973 15.1642183,115.472712 15.1937958,115.770716 C15.0564718,116.46162 14.9656268,117.165628 14.866331,117.839624 C14.6487254,119.335984 14.4311197,120.834458 14.259993,122.339272 C13.9177394,125.331992 13.6494296,128.324712 13.4233732,131.328 C13.1973169,134.322834 13.0346408,137.322106 12.8994296,140.32328 C12.8297113,141.857683 12.7684437,143.391875 12.7114014,144.928391 C12.6543592,146.507389 12.3987254,148.121894 13.0959085,149.586763 C13.6578803,150.770325 15.5571761,150.702481 16.1402746,149.586763 C16.8797113,148.168391 16.6621056,146.48393 16.6811197,144.928391 C16.7001338,143.463734 16.7254859,141.997174 16.7571761,140.532305 C16.8205563,137.533456 16.9135141,134.536297 16.9874577,131.537448 C17.0592887,128.610247 17.1480211,125.684947 17.2071761,122.757746 C17.2367535,121.225456 17.2388662,119.693166 17.2473169,118.160877 C17.2515423,117.311249 17.2874577,116.404767 17.2240775,115.518998 C17.7522465,115.643695 18.2846408,115.74937 18.8106972,115.857159 C22.8268944,116.681425 26.8853451,117.281659 30.9691479,117.653636 C33.0205563,117.839624 35.0783028,117.970661 37.1360493,118.044845 C38.6487254,118.099585 40.216331,118.20526 41.7522465,118.148407 C41.6318239,121.817237 41.5768944,125.488391 41.5832324,129.159757 C41.5874577,131.807765 41.6233732,134.455984 41.6888662,137.104204 C41.7247817,138.497002 41.7543592,139.8898 41.7966127,141.282599 C41.8156268,141.908407 41.8156268,142.540133 41.8578803,143.163616 C41.8705563,143.358059 41.8980211,143.546372 41.9339366,143.73236 C41.7945,144.127585 41.6783028,144.518372 41.5832324,144.884219 C41.1184437,146.65935 41.1184437,148.365159 41.3254859,150.174106 C41.5029507,151.708509 42.7937958,153.130896 44.4987254,152.592164 C44.7754859,152.505299 45.0522465,152.414419 45.3268944,152.321425 C47.8367535,152.606748 50.3614014,152.672477 52.9071761,152.720877 C56.6275986,152.792947 60.3501338,152.815984 64.072669,152.835006 C71.3740775,152.87326 78.6775986,152.892282 85.9811197,152.913205 C100.65788,152.955476 115.334641,152.995632 130.011401,153.037902 C134.084641,153.050795 138.15788,153.061151 142.23112,153.074043 C144.33957,153.080172 146.443796,153.082286 148.550134,153.16281 C149.532528,153.200853 150.517035,153.253691 151.49943,153.268485 C152.638162,153.287507 153.645908,152.959703 154.733937,152.66191 C155.348725,152.490505 155.591683,151.873362 155.460697,151.351538 C156.445204,151.585926 157.638866,151.08735 157.974782,149.977761 C158.219852,149.172305 158.129007,148.299429 157.763514,147.553362 L157.763514,147.551249 C157.05788,143.093871 156.162106,138.657628 155.458585,134.198137 C154.687458,129.313832 153.945908,124.41917 153.293092,119.515843 C152.802951,115.812775 152.39943,118.437746 152.050838,114.71798 C153.569852,114.836337 155.287458,114.373691 156.791683,114.176924 C157.871261,114.037644 158.959289,113.925417 160.040979,113.777472 C159.960697,114.868039 159.983937,115.979742 159.954359,117.025926 C159.897317,119.103499 159.922669,121.172618 159.975486,123.250403 C160.076894,127.259507 160.302951,124.9262 160.664218,128.918607 C161.029711,132.940603 161.477599,136.947804 162.020556,140.95099 C162.29943,143.011656 162.597317,145.069996 162.912106,147.126434 C163.05788,148.085965 163.20788,149.043593 163.362106,150.003123 C163.545908,151.133636 163.605063,152.205393 164.452246,153.05481 C165.096613,153.699429 166.41281,153.644477 166.83957,152.746239 C167.380415,151.611288 167.135345,150.639076 166.934641,149.447272 C166.771965,148.489644 166.615627,147.532227 166.461401,146.575022 C166.131824,144.522599 165.819148,142.468274 165.525486,140.412047 C164.959289,136.449229 164.424782,132.479859 163.947317,128.506685 C163.465627,124.501386 162.967035,126.841033 162.493796,122.836157 C162.255063,120.815436 162.016331,118.799155 161.737458,116.785198 C161.595908,115.74937 161.507176,114.646333 161.321261,113.578802 C161.380415,113.57056 161.43957,113.559781 161.498725,113.549213 C162.783232,113.314614 163.879711,112.589683 164.202951,111.26663 C164.511401,110.000642 164.143796,108.544438 163.883937,107.30191 C163.662106,106.243468 163.461613,104.892305 162.780486,103.985401 C165.180486,100.927162 166.741542,97.0788963 167.737246,93.3792094 C168.821894,89.3485479 169.275908,85.1411977 169.372035,80.9759061 C169.483585,76.1503562 169.119993,71.3527045 168.293303,66.6345205 C168.273866,65.6346223 168.22781,64.6351468 168.153655,63.636728 C167.426894,53.8387397 164.37619,42.2419491 154.704359,37.6638904 C154.666331,37.6450802 154.62619,37.6279609 154.586049,37.6110528 C153.827599,36.7043601 152.88112,35.8885479 152.116331,35.1257847 C150.762106,33.7729315 149.346613,32.4794677 147.846613,31.2874521 C144.87619,28.9268806 141.618444,27.041636 138.231824,25.3442818 C134.807176,23.6260039 131.331824,22.0136125 127.985345,20.1387241 C125.069852,18.5028728 122.445908,16.5330881 119.955063,14.309683 C117.155768,11.809409 115.163514,8.43837182 114.381824,4.75876321 C114.341683,4.56664579 114.056472,4.61948337 114.052246,4.80314677 C113.847317,11.5473346 118.398021,17.5074129 123.635345,21.2779022 C129.897317,25.7819883 137.458585,27.9143014 143.809289,32.2810098 C145.387458,33.3652368 146.864218,34.588955 148.269148,35.8885479 C146.116331,35.6687436 143.925486,35.8082348 141.90788,36.4042427 C141.113514,36.3556321 140.314923,36.3410489 139.518444,36.3027945 C137.697317,36.2119139 135.874077,36.1275851 134.050838,36.0470607 C130.334641,35.8824188 126.616331,35.7323601 122.898021,35.6013229 C115.602951,35.3432642 108.305768,35.1488219 101.008585,35.0201096 C86.3445,34.7599374 71.6614014,34.7092133 56.9994296,35.1342387 C53.0233732,35.2483679 32.116331,34.4558043 30.1811197,34.6796243 C33.0268944,32.2152798 36.1494296,30.2034364 39.5825282,28.5483523 C43.8775986,26.4834599 48.316331,25.105456 52.9029507,23.8458082 C62.3487254,21.2525401 72.1578803,18.7522661 79.7170352,12.1644775 C81.5952042,10.5265127 83.2642183,8.64359295 84.6311197,6.55756556 C85.9367535,4.56664579 87.388162,2.0175499 87.4240775,-0.410864971 C87.4494296,-2.13527202 85.0494296,-2.76319374 84.1959085,-1.28585519 C83.6656268,-0.370708415 83.4036549,0.633205479 82.9705563,1.59273581 C82.5395704,2.54381213 82.0283028,3.46107241 81.459993,4.33838748 C80.3423873,6.06300587 78.9564718,7.60142466 77.4480211,8.98999609 C74.2325282,11.9531272 70.3367535,14.1236947 66.3057676,15.7658865 C57.1536549,19.4919922 47.1437958,21.0644384 38.4712606,25.9764305 C34.6768944,28.1256517 31.0452042,31.0911076 28.7656268,34.8740665 C28.3980211,34.9313425 28.0325282,34.9987632 27.6670352,35.0748493 C27.9395704,34.7303483 28.2142183,34.3860587 28.4909789,34.0434599 C28.672669,33.8194286 28.3916831,33.5237495 28.1698521,33.7222074 C23.8578803,37.5603288 19.8860493,41.704908 16.2860493,46.2235773 C12.8423873,50.5478043 9.63111972,55.0793659 7.35788028,60.143319 C3.27196479,69.2398356 2.37196479,79.6443992 4.48252817,89.3709511 C5.05717606,92.0210724 5.86844366,94.616454 6.90154225,97.125182 C7.43393662,98.4207593 8.01069718,99.6973151 8.6529507,100.94238" id="ðŸ–-Ink" fill="#000000"></path>
                    </g>
                    <g id="head/Bun" transform="translate(78.591549, 38.043053)" fill-rule="evenodd">
                        <path d="M31.5816549,13.4983624 C63.6034693,11.9230137 85.3303856,37.1862439 86.2650622,47.2604358 C86.9138737,54.2534984 86.4735714,63.5798475 86.4735714,69.8287286 C86.4735714,73.0183935 88.0824383,82.7137735 86.2650622,87.362702 C82.2199911,97.7101722 77.6499664,105.815241 64.9872084,105.815241 C52.3244503,105.815241 33.0205532,99.2495806 26.391941,90.7814249 C25.1816707,89.2352857 10.1426284,77.9174 10.1426284,69.0211488 C10.1426284,50.0407527 8.73273411,14.6224405 31.5816549,13.4983624 Z" id="ðŸŽ¨-Background" fill="#FFFFFF"></path>
                        <path d="M9.73643662,-7.00150685 C11.5613662,-7.57215264 12.7260845,-6.75063405 13.557,-5.47788258 C13.740169,-5.51360078 13.9174225,-5.51127593 14.1147465,-5.46372211 C14.1635493,-5.4518865 14.2816479,-5.40729159 14.3710141,-5.37220744 C14.4400986,-5.34325245 14.5024225,-5.3081683 14.5624225,-5.27097065 L14.5981268,-5.28978082 L14.5981268,-5.28978082 C14.7350282,-5.43920548 14.8789014,-5.57552642 15.0341831,-5.68542857 C15.3831972,-5.93228571 15.7427746,-6.00414481 16.0839718,-5.95342074 L16.242,-6.01154207 L16.242,-6.01154207 C17.5928451,-6.48243053 19.0573521,-6.26389432 19.9731972,-5.09977691 C20.1504507,-4.8749002 20.2936901,-4.6244501 20.4160141,-4.36026223 C20.690662,-4.27022701 20.9484085,-4.14003523 21.1704507,-3.9798317 C21.3263662,-4.05317025 21.4911549,-4.11488454 21.6675634,-4.16032485 C22.6641127,-4.41605871 23.7111549,-4.17469667 24.5232676,-3.56347162 C24.9187606,-3.26610176 25.2096761,-2.89370254 25.4302394,-2.46846575 C25.6814366,-2.40949902 25.9296761,-2.30340117 26.1622817,-2.16095108 C26.3621408,-2.26049706 26.565169,-2.35391389 26.7732676,-2.41795303 C27.5340423,-2.65170646 28.350169,-2.73772603 29.142,-2.6787593 C30.8482859,-2.55217104 32.4984577,-0.602504715 31.358117,1.07172788 L31.3227042,1.12237573 C31.1779859,1.32421526 31.0520704,1.532818 30.9354507,1.74480235 C31.343831,1.92254795 31.7372113,2.16031703 32.1005915,2.45832094 C33.8780178,3.91563043 34.0380087,6.16223654 33.7055702,8.28155964 L33.6914366,8.36978865 L33.695662,8.36978865 C34.6400607,8.45947921 35.4554246,9.44620985 34.8974744,10.3743147 L34.8703099,10.417773 C34.1150282,11.5850607 33.4677042,12.8745088 32.7462254,14.1028767 C30.7495352,14.8229472 28.8242535,15.709773 27.0113662,16.7842779 C25.8821408,17.77382 24.807,18.8200039 23.8611549,19.98391 C23.3889718,20.5651233 22.9552394,21.180364 22.5565775,21.8182192 C22.8753803,21.9714481 23.2696056,21.9636282 23.6025634,21.6550568 C26.5643239,18.9094051 30.1425634,16.9825245 33.9525634,15.6911742 C34.227,15.5979687 34.407,15.4225479 34.5079859,15.215002 C36.1993944,14.7329119 37.9205915,14.3590333 39.6589014,14.0944227 C40.1380563,13.6376947 40.6400282,13.201045 41.1170704,12.7462192 C41.7261549,12.1658513 42.4890423,12.1743053 43.0590423,12.5388845 C43.3421408,12.4097847 43.6316948,12.2958023 43.9256258,12.1933904 L44.1079859,12.1311898 C44.1840423,12.1062505 44.2567183,12.0772955 44.331507,12.0544697 C46.371326,11.4306887 48.2365977,11.6622902 50.2429646,12.1748155 L50.4998873,12.241726 C51.4351766,12.4899569 52.0237377,12.4502811 52.9295248,12.2218093 L53.031507,12.1956517 C53.993831,11.9445675 55.0231268,11.7585793 56.0067887,12.0229785 C57.0360027,12.299711 57.7187686,12.9151098 58.4198459,13.6586618 L58.4900282,13.7334364 C58.8171249,14.0835279 59.0061604,14.1217078 59.434429,14.1131954 L59.8930801,14.0995976 C61.624269,14.0521249 63.3194696,14.1251473 64.6161549,15.4646067 C65.0954306,15.9599715 65.6097738,16.6610314 65.9184658,17.3008657 L65.9631972,17.3963483 C65.9775634,17.4274168 65.9902394,17.4534129 66.0020704,17.4766614 C66.1879859,17.4466497 66.4774225,17.3289276 66.615169,17.3020861 C68.5017887,16.9360274 70.0759437,17.5001213 71.2875634,18.9873933 C71.552493,19.3128728 71.9528451,19.9519961 72.2302394,20.3032603 C72.3274225,20.3856869 72.4191127,20.4740313 72.5059437,20.5668141 C72.9608028,20.8574207 73.6053803,20.8390333 74.1153803,20.9409041 C75.5053099,21.217773 76.9909437,21.7465714 77.6976338,23.0698356 C77.9929859,23.6220939 78.1022113,24.2263444 78.2268592,24.8299609 C78.6941831,25.1370528 79.0603099,25.5796204 79.3446761,26.0587515 C79.6903099,26.6403875 79.8373521,27.3528493 80.2353803,27.9021487 C80.5243944,28.3011781 80.9661549,28.5142192 81.3863662,28.7581174 L81.5467909,28.8524162 C82.7921255,29.5942237 83.7671233,30.4174614 84.1771609,31.8708802 L84.2126764,32.0001863 C84.279158,32.2228095 84.5126318,32.8582346 84.3092535,32.7627828 C84.4843944,32.8593699 84.7818592,32.8933973 84.9415775,32.9462348 C85.8054507,33.2321918 86.556507,33.6942035 87.0166479,34.5055773 C87.3667375,35.123114 87.4303902,35.7668407 87.5306349,36.4476028 L87.573338,36.7224569 C87.5842315,36.7889332 87.5972641,36.8661834 87.61072,36.9410893 L87.6242535,37.014728 L87.6267887,37.0164188 C87.783338,37.0840509 87.9369296,37.1573894 88.0879859,37.2364344 C88.8039718,37.6580783 89.2934789,38.3899843 89.2934789,39.2372877 C89.2934789,39.6485753 89.1650282,39.9689824 88.9780563,40.2549393 C89.1293239,40.4840431 89.2463662,40.7281526 89.3348873,41.0001605 C89.5085493,41.5312838 89.5205915,42.1120744 89.4622817,42.6615851 C89.3921408,43.320998 89.2229155,43.9214442 89.0236901,44.5512681 C88.947,44.7943209 88.9159437,45.1339609 88.8003803,45.3660235 C89.0135493,45.6380313 89.1407324,45.9704853 89.1012254,46.298501 C89.0448169,46.7676986 88.8308028,47.3161526 88.4059437,47.5792838 C88.1982676,48.6043327 87.7512254,49.6517847 87.3111549,50.4897886 C87.2604507,50.5870098 87.1991831,50.6736634 87.1315775,50.7455225 C87.1928451,54.0911977 86.9477746,57.4603327 86.9308732,60.8015695 C86.9118592,64.438908 86.9879155,68.0785714 87.1146761,71.7114716 C87.3280563,77.7328415 88.0907324,83.9592211 86.3139718,89.8307436 C84.8604507,94.636638 81.9489718,98.7621957 78.0449577,101.89018 C74.0477746,105.090023 69.2289718,106.941663 64.1118592,107.231213 C61.5090423,107.376834 58.8618592,107.080943 56.3435493,106.406736 L56.0744894,106.333767 C53.6380197,105.664144 50.8158833,104.641131 49.0231268,102.84971 C48.0766479,101.902861 49.0336901,99.8973581 50.4217183,100.448771 C51.7970704,100.99638 53.0310845,101.80564 54.395662,102.376286 C55.6146761,102.88564 56.8867183,103.276638 58.1752394,103.564074 C60.7590423,104.145288 63.4991831,104.272309 66.1252394,103.910689 C75.6069296,102.612998 82.9949577,94.736184 84.4527042,85.3964031 C84.8561525,82.8099128 84.8486413,80.1809514 84.8214547,77.5673967 L84.7914038,74.7037176 C84.7683337,72.3080564 84.7597968,69.9109785 84.8477746,67.5163796 C84.9597465,64.4348924 85.1773521,61.3553072 85.4689014,58.2867123 L85.6207822,56.6899733 C85.8010871,54.821606 86.0041127,52.9391037 86.3541127,51.096364 C86.0674225,51.1113699 83.8053803,47.2402779 82.5500282,45.0771076 C82.0917887,44.7135851 81.7049577,44.2619295 81.5555915,43.677546 C81.5245352,43.5555969 81.5084789,43.432591 81.4987606,43.3093738 C81.2262254,42.8809667 80.9386901,42.4635499 80.6353099,42.0586027 L80.5690987,42.028994 C80.5181728,42.0057393 80.4785493,41.9863511 80.4553099,41.9732172 C79.7931972,41.5976477 79.2403099,41.0286928 78.8619296,40.3692798 C78.7343239,40.1469393 78.6297465,39.9148767 78.5448169,39.6775303 C78.0050282,39.1476751 77.4403099,38.6421252 76.8470704,38.1680665 C76.7887606,38.1215695 76.7285493,38.0780313 76.6698169,38.0321683 C75.9145352,37.750227 75.2515775,37.3254129 74.7681972,36.7135538 C74.5662254,36.5884344 74.3627746,36.4658513 74.1576338,36.3458043 C73.542,36.3400978 72.9200282,36.196591 72.3149577,35.9478317 C71.2079155,35.4930059 70.3237606,34.5941331 69.2116479,34.1775616 C68.0355211,33.737319 66.7964366,34.7378513 65.5467887,34.5573581 C65.2277746,34.5112838 64.911507,34.414274 64.6174225,34.2735147 C63.9136901,35.0191585 63.1668592,35.7221096 62.3435493,36.3373503 C61.1484085,37.2305166 59.9264366,37.6386341 58.5411549,38.0421018 C57.8547465,38.6936947 57.0861549,39.3254207 56.1593239,39.4182035 C54.0143239,41.1335225 51.720169,42.5804266 49.3062254,43.9237691 C48.9179155,44.1397691 48.5319296,44.2372016 48.1655915,44.2397378 C47.4084085,44.7152759 46.5819296,45.0811233 45.7087606,45.3343209 C45.435169,45.4135773 45.1531268,45.430274 44.8757324,45.3962466 L44.1181268,46.0136008 L44.1181268,46.0136008 C43.5908028,46.4430646 43.0284085,46.6482857 42.4903099,46.6616008 C42.1628451,46.9124736 41.8235493,47.14982 41.4743239,47.3780783 C41.100169,47.6230333 40.6148873,47.7244814 40.1272817,47.6948924 C39.3825634,48.4236282 38.4168592,48.500137 37.6081268,48.1645127 C37.497,48.2296086 37.3827042,48.2913229 37.2542535,48.3519804 C37.0797465,48.4346184 36.8976338,48.504364 36.7119296,48.5607945 C35.8685493,49.4700235 34.6341127,49.9468297 33.3971408,49.8221331 C32.4734789,50.3881292 31.398338,50.6825401 30.3472817,50.6163875 C30.1869296,51.4220548 30.0542535,52.230681 29.9420704,53.0420548 L29.9305872,53.6364193 C29.9293673,53.7327358 29.9291646,53.807816 29.9304441,53.8572738 L29.9310845,53.8768885 C30.0339718,56.4826262 30.090169,59.0896321 30.1917887,61.6957926 L30.2011169,61.9014875 C30.3167826,64.1783433 30.8767711,68.329607 27.5312958,68.2391977 C26.2846056,68.2055065 25.0477329,67.2871336 24.0770061,66.5320366 L23.940169,66.4253894 C23.8658028,66.3674795 23.7895352,66.30809 23.7128451,66.2476438 C22.9873521,66.1533816 22.272,65.9769041 21.5393239,65.9500626 C20.6350986,65.9183601 19.6843944,66.0113542 18.8034085,66.216364 C17.2484789,66.577773 15.7442535,67.2860078 14.730169,68.5686928 C14.6414366,68.6807084 14.5590423,68.7990646 14.4808732,68.9174207 C14.4090423,69.1604736 14.286507,69.3845049 14.123831,69.5789472 C13.1646761,71.7368337 13.7184085,74.5881605 14.7787606,76.5619609 C16.0422101,78.9131463 18.0414909,80.5386407 20.5554516,81.3573907 L20.6815775,81.3976556 C22.3991831,81.9344853 23.0562254,82.9743288 23.9900282,84.4199648 C24.8646761,85.7768337 25.8681972,87.0407084 26.945662,88.2411781 C29.0308732,90.5639178 31.9571408,92.4810763 33.1696056,95.4207476 C33.4146761,96.0127397 32.7132676,96.5704932 32.1703099,96.4185323 C30.0428451,95.820411 28.5512958,94.3050294 27.0048169,92.7981018 C25.9345352,91.754454 24.9052394,90.6689589 23.9395352,89.5287241 C23.7369296,89.6223523 23.5140423,89.6853346 23.2818592,89.7136556 C22.2572113,89.838775 21.2004507,89.7867828 20.3034085,89.2343131 C19.8899577,89.2719335 19.4591831,89.1284266 19.1393239,88.8352838 C18.8458732,88.5656008 18.5927746,88.2739374 18.3789718,87.9634638 C18.0540423,87.9919961 17.7350282,88.0006614 17.4305915,87.9501487 C17.2837606,87.936411 17.1415775,87.8977339 17.0112254,87.8343288 C16.7691127,87.7385871 16.5394648,87.5910646 16.3286197,87.3647084 C15.9014366,86.9060783 15.7377042,86.2580783 15.816507,85.6422035 C15.732,85.6244501 15.6481268,85.602681 15.5653099,85.5745714 C14.9965775,85.3820313 14.558831,84.9996986 14.2791127,84.4793542 C13.7786197,84.1984697 13.3279859,83.8176164 12.9867887,83.413092 C12.5712254,82.9208571 12.2577042,82.3660626 12.0734789,81.7533581 C11.8831268,81.6648023 11.6982676,81.5622975 11.5212254,81.4422505 C10.2525634,80.5835342 9.52622535,78.9713542 10.0243944,77.4807006 L10.0413192,77.4338758 C10.0665954,77.3667228 10.1124117,77.2523935 10.1684789,77.1233072 C10.1604507,77.0182661 10.152,76.913225 10.1462958,76.8079726 L10.1287606,76.4905245 L10.1287606,76.4905245 L9.87460563,76.3825245 L9.87460563,76.3825245 C8.607,75.8782427 7.75009859,75.1974834 7.59777465,73.7706575 C7.56608451,73.4756125 7.68059155,73.1746497 7.86122535,72.9231429 L7.86038028,72.8440978 L7.86038028,72.8440978 C7.77798592,72.8014051 7.69960563,72.7576556 7.63052113,72.7136947 C6.93946479,72.272184 6.5148169,71.4808885 6.56235211,70.6625401 C6.60601894,69.9165683 7.01906319,69.3219228 7.48349809,68.771998 L7.61618134,68.6177524 C7.62719366,68.6052564 7.6395,68.5913072 7.65270423,68.5763014 L7.3456698,68.4796438 C7.14648357,68.4162387 6.96404225,68.3531155 6.83277465,68.2795656 C6.32488732,67.9948767 5.89432394,67.6100078 5.62876056,67.1209432 C5.59009859,67.0602857 5.55080282,67.0006849 5.51530986,66.9360117 C5.17242254,66.3102035 5.1276338,65.5083405 5.34883099,64.8364579 C5.37502817,64.7572016 5.40883099,64.6825949 5.44347887,64.608411 C4.50967606,64.2791272 3.79073239,63.5985793 3.70411268,62.3444266 C3.67009859,61.851135 3.77805634,61.3597456 4.01277465,60.9389472 C3.96080282,60.6555264 3.95002817,60.3617495 3.98361972,60.0711429 C3.65509859,59.7606693 3.39988732,59.3865793 3.28580282,58.930274 C3.07009859,58.0681761 3.46495775,57.2479256 4.05185915,56.4957299 C3.83467606,55.9009902 3.82347887,55.229953 4.07150704,54.6311977 C3.97601408,54.3323483 3.92171831,54.0163796 3.91876056,53.6919569 C3.91221127,52.9735773 4.13340845,52.3735538 4.49066197,51.8631429 C3.98847887,51.2489589 3.74995775,50.4327241 4.04657746,49.6678474 C4.2576338,49.1242544 4.49890141,48.6269472 4.77692958,48.1662035 C4.63094366,47.8157847 4.54601408,47.4233072 4.54601408,46.98391 C4.54601408,46.1934599 4.84221127,45.567229 5.29538028,45.0547045 C5.09869014,44.1186341 5.49861972,42.9786106 6.37030986,42.5664775 C6.69883099,42.4109237 7.13869014,42.2486067 7.62333803,42.1222192 C7.80523944,41.5536869 7.99516901,40.9874795 8.19566197,40.4252877 C8.51150704,39.540364 8.85122535,38.6676986 9.21122535,37.8051781 C9.00397183,37.986728 8.78657746,38.1560196 8.56178873,38.3094599 C7.85087324,39.2136164 6.90840845,39.9968806 6.1163662,40.4654442 C4.54622535,41.3945401 2.7504507,40.8433386 1.97530986,39.2888571 C1.24685915,39.8328728 0.372633803,40.1549706 -0.560112676,40.0448571 C-1.61771831,39.9199491 -2.58469014,39.2347515 -2.84877465,38.165953 C-2.88701408,38.0112446 -2.91004225,37.8440665 -2.9123662,37.6758317 C-3.51891549,38.1078317 -4.15356338,38.5053816 -4.84969014,38.7330059 C-5.73638028,39.0229785 -6.6414507,38.3274247 -6.75849296,37.4608885 C-6.80476056,37.1174442 -6.74053521,36.8139452 -6.60384507,36.5575773 L-6.69043349,36.5234951 C-6.70480751,36.5174912 -6.71912676,36.5112211 -6.73335211,36.5045284 C-7.19835211,36.2866262 -7.55940845,35.8871742 -7.73095775,35.4264305 C-8.73785915,35.8161605 -9.89053521,35.3594325 -10.2099718,34.2517456 C-10.5902535,32.9350333 -10.6132817,31.6014129 -10.3156056,30.318728 C-11.382507,29.5430724 -12.0775775,28.2390411 -12.1958873,26.8758317 C-12.2822958,25.8972798 -12.0488451,24.9939687 -11.637507,24.1587123 C-12.6465211,23.7812407 -12.9934225,22.4581879 -12.5138451,21.504998 C-13.1508169,21.1402074 -13.566169,20.3668767 -13.5754648,19.614047 C-13.8600423,19.1828924 -13.9510986,18.6276751 -13.7151127,18.0054599 C-13.4039155,17.1856321 -12.7701127,16.4998004 -12.0444085,15.9619139 C-12.3608873,15.4107123 -12.5960282,14.8096321 -12.7420141,14.1884736 C-13.3432817,14.0124188 -13.8285634,13.5258904 -13.9274366,12.7952524 C-14.0512394,11.8792603 -13.448493,11.1027593 -12.6372254,10.8977495 C-12.5472254,10.6187671 -12.4373662,10.3459139 -12.3015211,10.0838395 C-12.7029296,9.13276321 -12.6437746,7.93018004 -12.126169,6.89033659 C-11.6677183,5.97096282 -10.9219437,5.40877104 -10.0240563,5.0198865 C-10.2522254,4.23789041 -9.95011268,3.45800783 -9.1895493,2.87679452 C-8.26102817,2.16644618 -7.24271831,1.62348728 -6.17264789,1.2398865 C-6.26771831,-0.0330763209 -5.73574648,-1.33668493 -4.47849296,-1.78052055 C-4.1423662,-1.89908806 -3.79250704,-1.94283757 -3.43694366,-1.94135812 C-3.17877465,-2.50291585 -2.748,-2.95943249 -2.1858169,-3.36353425 C-1.33509507,-3.97475577 0.254726408,-3.60135159 0.726518373,-2.64282604 L0.749535211,-2.59358513 C0.773619718,-2.5392681 0.799605634,-2.48960078 0.824323944,-2.43697456 C0.919394366,-2.90236791 1.14164789,-3.34197652 1.49890141,-3.70232877 C2.39192958,-4.60331507 3.3348169,-4.62022309 4.24221127,-4.23493151 C4.40869014,-4.64790998 4.61023944,-5.04059883 4.85530986,-5.39968297 C5.74495775,-6.70244618 7.21474648,-6.86835616 8.29094366,-6.16286888 C8.72235211,-6.54224266 9.20383099,-6.83475147 9.73643662,-7.00150685 Z M16.0972183,71.3395162 C17.8885563,70.6378333 20.0625,70.8451679 21.8329225,71.519164 L21.9626727,71.5696227 C23.526413,72.1881462 26.066899,73.5638767 26.3730634,75.3234693 C26.5315141,76.2346004 25.6655282,77.0227256 24.7864437,76.5431718 C24.0216549,76.1266004 23.5927817,75.2875397 22.984331,74.6788509 C22.3824296,74.0767139 21.7082746,73.5927217 20.9732746,73.1676963 C19.4394718,72.2821386 17.8272887,71.9376376 16.0972183,71.6821151 C15.9028521,71.6546395 15.955669,71.3944673 16.0972183,71.3395162 Z" id="ðŸ–-Ink" fill="#000000"></path>
                    </g>
                    <g id="face/Old" transform="translate(112.183099, 77.354207)" fill="#000000" fill-rule="evenodd">
                        <path d="M37.1893753,50.6488622 C35.8389901,50.6599088 34.3209297,50.1529653 33.3059002,49.7560489 L33.0412214,49.65118 C32.162578,49.2991386 31.2601645,48.8949856 30.5871863,48.2168076 C30.3719791,47.9964076 30.1428478,47.7470046 30.0264681,47.4847284 C29.9582969,47.3310961 29.9299587,47.17204 29.9958221,47.0140192 C30.2392117,46.9900874 30.4698271,46.9589389 30.6882646,46.9189997 C30.7922745,46.8999825 30.8919067,46.8802624 30.9683183,46.8797523 C31.2498839,46.877957 31.5284074,46.9137959 31.8067259,46.9489909 C31.8470315,46.9540878 31.8873325,46.9591839 31.9276461,46.9641763 C32.1443338,46.9910008 32.3599673,47.0199794 32.5752044,47.048901 C33.2012873,47.1330282 33.8240754,47.2164546 34.4592374,47.2468403 C34.9178508,47.2688615 35.3986813,47.2430798 35.8837853,47.2166704 C37.1420034,47.1481721 38.4428203,47.0546779 39.4122548,47.9362863 C39.6661348,48.1671692 39.7722691,48.4580271 39.7722691,48.7542965 C39.7722691,49.114315 39.620783,49.480795 39.3897375,49.7683397 C38.8664136,50.4192751 38.061033,50.6417318 37.1893753,50.6488622 Z M44.5525855,39.2951339 C43.965157,40.176833 42.9864025,40.743782 41.6452932,40.6821813 C38.9798239,40.5602553 35.798639,39.5542116 33.566214,38.0994676 C32.9848424,37.7207354 32.6078687,37.115209 32.5402646,36.4664894 L32.4199907,35.3123573 L31.7700363,36.2734642 C31.7023182,36.3736009 31.6340125,36.4734588 31.5656741,36.5733662 C31.3774762,36.8485023 31.1894361,37.1235894 31.0119754,37.4055399 C30.3309387,38.4881001 29.7066385,39.5814074 29.1397017,40.7281241 C28.7383431,41.5400814 28.444889,42.4482504 28.1505916,43.364499 C27.6538046,44.9114627 27.1738795,46.4329049 26.1123913,47.5201529 C25.9518966,47.6846027 25.7051768,47.7434487 25.4793711,47.7143788 C25.2803301,47.6887544 25.0852722,47.5911287 24.9896698,47.3966426 C23.7213937,44.8165293 25.427254,41.707352 26.811039,39.5458254 L26.9573973,39.3201084 C28.2405306,37.3668052 30.3361397,34.7817952 32.7361175,34.4303843 L33.0108921,34.8687582 L33.4103698,34.6022255 C34.0637162,34.1663111 34.9261321,34.1865884 35.6811869,34.5276281 L36.4362866,34.8685615 C37.8418844,35.4995867 39.2283654,36.0818143 40.7491654,36.4007253 C40.8599898,36.4239651 40.9707234,36.4456418 41.0812872,36.4657954 C41.1856425,36.4848173 41.2906178,36.5026229 41.3961467,36.5191381 C41.3733958,36.4154226 41.3491012,36.312176 41.3247508,36.20921 C41.2989918,36.1002874 41.2730363,35.9911119 41.2452098,35.882274 C41.2164769,35.7698912 41.1858209,35.6581511 41.1552013,35.546842 C41.0333709,35.1030752 40.8957237,34.6632784 40.7325198,34.2326871 C40.1184865,32.6139343 39.1380765,31.0999836 38.1841639,29.6559479 L38.0719018,29.486077 C37.9351342,29.2791469 37.7853872,29.063253 37.6304412,28.8399349 C36.8865849,27.7683592 36.0616025,26.605391 36.0031529,25.4380021 C36.9905885,25.5001892 37.8168473,26.1138616 38.5441768,26.6481688 C39.542308,27.3809283 40.4673429,28.2188753 41.3064646,29.129262 C42.9340799,30.8953623 44.3948773,33.153231 45.0355059,35.4872746 C45.4022879,36.8238 45.2409499,38.2619355 44.5525855,39.2951339 L44.5525855,39.2951339 Z M18.5107028,25.9799984 L18.5104303,25.932384 C18.5133881,24.5846484 19.2980381,21.5074742 21.2374979,21.5074742 C22.4491129,21.5074742 23.1847181,23.601703 23.3120629,25.7605521 L23.316486,25.8485739 C23.3727209,27.1907594 23.0045415,30.1245429 21.2374979,30.1245429 C19.4517543,30.1245429 18.5290635,27.3458845 18.5107028,25.9799984 L18.5107028,25.9799984 Z M47.0646375,25.5572978 L47.0649099,25.5096835 C47.0619522,24.1619478 46.2773022,21.0847736 44.3378423,21.0847736 C43.1565178,21.0847736 42.4276999,23.0755998 42.2739666,25.1760907 L42.2632773,25.3378515 C42.1867783,26.6347218 42.5310899,29.7018423 44.3378423,29.7018423 C46.1235859,29.7018423 47.0462767,26.9231839 47.0646375,25.5572978 L47.0646375,25.5572978 Z M25.0424556,16.8590111 C24.7854417,16.8891467 24.5297031,16.9286401 24.2740942,16.9692628 C23.5283097,17.0881162 22.7865635,17.2307828 22.0498901,17.3970563 C20.6507302,17.7130577 19.2628036,18.1120347 17.9014046,18.5628972 C16.6274685,18.9849607 15.3733521,19.4619316 14.1195407,19.9388579 C14.0526336,19.9643081 13.9857273,19.989758 13.9187924,20.0152092 C13.4761018,20.1836051 13.0348879,20.3722663 12.5923158,20.5615732 C11.9187588,20.8496822 11.2421129,21.1397221 10.551624,21.3582764 C12.3707989,18.8419589 15.1740484,16.977462 17.8713222,15.6432421 C19.4102871,14.8820116 21.0429449,14.2681565 22.6852878,13.7651737 L23.5999053,13.4902321 C24.9466611,13.0927446 26.4191863,12.7255811 27.6842829,13.5181384 C28.1846465,13.8316142 28.5039337,14.31889 28.6044934,14.8456736 C28.7031098,15.362277 28.5906065,15.9161752 28.2340305,16.3784407 C27.9233299,16.7811401 27.5361828,17.0104845 27.1241274,17.0890864 C26.6693371,17.1758401 26.1873615,17.0805652 25.7486219,16.8461455 C25.3971271,16.8199549 25.2934006,16.8294198 25.1894139,16.8409874 L25.0424556,16.8590111 Z M45.3025626,17.115025 C44.4011825,16.9189961 43.5086349,16.8402949 42.5838728,16.8685118 C42.1656777,16.881083 41.7610987,16.9457089 41.3575937,17.010745 C40.7309147,17.1117517 40.1066474,17.2160745 39.4314912,17.0935246 C39.0792557,17.0295283 38.7792487,16.8234246 38.5475226,16.5543767 C38.2766153,16.2398371 38.0973821,15.8378337 38.0399101,15.4555923 C37.9805379,15.0607403 38.039609,14.7154323 38.1856418,14.4105102 C38.3581649,14.0502755 38.6488072,13.7466854 39.0000612,13.4807449 C40.0629383,12.6757821 41.8866119,12.8693784 43.1410095,13.0321243 C44.3805925,13.1933414 45.6133054,13.5778697 46.7091153,14.1885929 C47.790175,14.7914339 48.7299709,15.6034734 49.4633476,16.5960651 C50.0814606,17.4326981 50.3726368,18.3955997 50.6733247,19.3760399 C49.2588976,18.1890353 47.0943494,17.5041416 45.3025626,17.115025 Z" id="ðŸ–-Ink"></path>
                    </g>
                    <g id="facial-hair/*-None" transform="translate(104.577451, 109.479380)"></g>
                    <g id="accessories/*-None" transform="translate(88.521127, 88.978474)"></g>
                </g>
            </g>
        </g>
    </g>
</svg>