<?xml version="1.0" encoding="UTF-8"?>
<svg width="240px" height="324px" viewBox="0 0 240 324" version="1.1" xmlns="http://www.w3.org/2000/svg" xmlns:xlink="http://www.w3.org/1999/xlink">
    <!-- Generator: Sketch 62 (91390) - https://sketch.com -->
    <title>peep-24</title>
    <desc>Created with Sketch.</desc>
    <g id="Introduction" stroke="none" stroke-width="1" fill="none" fill-rule="evenodd">
        <g id="variations" transform="translate(-846.000000, -758.000000)">
            <g id="images" transform="translate(126.000000, 110.000000)">
                <g id="a-person/bust" transform="translate(720.000000, 648.000000)">
                    <g id="body/Striped-Tee" transform="translate(31.056338, 135.052838)" fill-rule="evenodd">
                        <path d="M10.0285775,125.217609 C9.39604225,131.01833 7.96322535,137.408294 10.694493,142.88121 C8.97435211,142.958353 10.3697746,143.456083 11.2980845,143.627277 C11.8281549,144.037719 12.5405493,144.200247 13.2104789,144.143183 C16.6887887,144.878682 20.279493,145.145195 23.8112535,145.561343 C67.9066056,149.225312 112.297521,148.252255 156.475268,146.673468 C157.912099,146.61112 158.876113,145.56705 158.986183,144.160725 C160.605338,123.464881 161.411113,102.704999 161.369915,81.9459616 C160.650549,74.6507836 166.16231,77.4974607 163.222099,67.8844039 C160.858437,57.7448736 157.360056,47.8754489 152.89893,38.4712063 C149.815268,32.3515585 146.909704,25.9123491 142.209634,20.8376172 C140.724423,20.6323961 139.459986,19.156537 138.204845,18.3322708 C136.933648,18.0845683 135.991394,17.0047796 134.703085,16.6727483 C132.247944,16.0338364 126.753718,14.6750654 124.662803,16.3092258 C124.580197,16.2866114 124.496535,16.2673785 124.41393,16.2439186 C124.004704,16.697899 123.442521,16.3574137 123.137239,15.9495076 C122.092521,15.1381339 117.526098,15.0546981 117.007858,13.8094222 C114.306168,11.3577588 113.583317,6.19799579 113.583317,3.17934247 C112.573035,2.04375734 112.503085,2.25464266 111.131746,1.65440783 C109.787239,-0.0421009785 108.163014,-1.51986223 106.350127,-2.68482505 C96.1478028,-9.38632016 81.3428028,-2.32468415 78.9544225,9.32346458 C75.1788592,12.3140712 71.2925915,15.3520204 66.6681549,16.9103061 C64.4113944,15.7489362 61.8404789,15.3782278 59.445338,15.3759029 C57.6599155,15.3110184 55.1927324,14.2781495 54.0324507,16.157899 C34.5119577,22.5506114 22.730831,41.143308 14.3536479,58.759989 C13.1794225,61.2682943 11.7747042,63.8945331 12.1340704,66.7522004 C12.3810423,70.1745957 16.0938592,72.2115898 15.3922394,75.8385722 C14.3724507,85.8155742 13.2123803,95.7824313 12.1507606,105.756474 C11.4432254,112.243449 10.7359014,118.730635 10.0285775,125.217609 Z" id="ðŸŽ¨-Background" fill="#FFFFFF"></path>
                        <path d="M152.834725,77.6228337 C151.572613,78.0799843 149.803458,78.5255108 148.900923,79.5583796 C148.796979,78.5958904 148.691768,77.6336125 148.586134,76.6711233 C151.230782,76.6083523 153.881134,76.5855264 156.527261,76.5115538 C155.278246,76.8171663 154.04381,77.1851272 152.834725,77.6228337 M147.024232,138.163703 C146.114092,138.172157 145.200993,138.235562 144.291486,138.271068 C142.539655,138.338912 140.787824,138.40591 139.035782,138.47164 C135.461768,138.605636 131.887754,138.734771 128.313317,138.859256 C121.235007,139.105479 114.155852,139.332681 107.076063,139.541284 C92.9166972,139.957855 78.7501479,140.210207 64.5926831,140.686591 C60.665007,140.818685 56.7375423,140.921401 52.8134577,141.135288 C50.780007,141.246035 48.7370493,141.341354 46.7133169,141.57701 C45.0060634,141.775679 43.3231056,142.110881 41.6253592,142.360697 C41.7392324,140.147648 41.8459225,137.934176 41.956838,135.721339 C42.061838,133.627703 42.1598662,131.533855 42.2572606,129.439796 C48.8845141,129.786622 55.5195845,129.926748 62.1557113,129.985926 C69.1752887,130.048697 76.1927535,130.222849 83.2127535,130.236376 C97.1101479,130.264063 111.00881,130.089065 124.905782,129.949573 C128.836204,129.90984 132.767049,129.870528 136.697683,129.831006 C138.662894,129.81135 140.628317,129.791483 142.593528,129.771616 C143.574655,129.761894 144.561486,129.782818 145.541556,129.742239 C146.587754,129.698701 147.223035,129.401119 147.982331,128.6969 C148.387331,128.321331 148.404232,127.556454 147.982331,127.183843 C147.373035,126.645534 146.807472,126.232556 145.962824,126.17211 C145.133387,126.11272 144.267824,126.194301 143.435852,126.205292 C141.610923,126.229174 139.785993,126.253479 137.961063,126.277362 C134.451486,126.323648 130.94212,126.369722 127.432542,126.415796 C120.413387,126.508157 113.394232,126.60263 106.3755,126.709573 C99.4966268,126.814614 92.6171197,126.892814 85.7395141,127.065699 C78.7171901,127.242599 71.7031056,127.561949 64.6824718,127.787671 C57.2095141,128.027765 49.7403592,128.314568 42.2843028,128.875491 C42.4634577,124.994043 42.6284577,121.11175 42.7837394,117.229033 C57.5883169,118.035123 72.4030352,118.608939 87.232331,118.63409 C102.681908,118.660509 118.130641,118.396321 133.574514,117.993065 C135.750782,117.936 137.927049,117.878513 140.102894,117.810247 C141.225993,117.774951 142.349092,117.742403 143.47219,117.701824 C144.297824,117.671812 145.146275,117.636517 145.892683,117.241503 C147.365641,116.462043 147.619796,114.186012 145.87219,113.563374 C144.916838,113.2231 143.903387,113.555765 143.670993,114.41744 C143.599585,114.424415 143.531556,114.430121 143.47219,114.432446 C142.629866,114.464149 141.787331,114.487609 140.945218,114.514239 C139.120077,114.572149 137.295148,114.631538 135.470007,114.688814 C132.1005,114.794278 128.730782,114.89171 125.360852,114.9809 C118.480711,115.163295 111.599725,115.311875 104.718106,115.426638 C91.0934577,115.653628 77.4698662,115.863499 63.8469085,116.175029 C56.8315563,116.335656 49.8183169,116.543836 42.8038099,116.721793 C42.9713451,112.501339 43.1295845,108.280885 43.2721901,104.060008 C43.2888803,103.565448 43.3070493,103.070466 43.325007,102.575695 C44.3302183,102.796767 45.3595141,102.919139 46.3835282,103.064125 C48.1605,103.315632 49.9429648,103.501832 51.7275423,103.690145 C55.0900775,104.045002 58.4635986,104.262693 61.8385986,104.449104 C68.7193732,104.828689 75.6020493,105.09647 82.490007,105.306341 C96.1152887,105.721432 109.757472,105.81189 123.388246,105.765182 C130.790007,105.740031 138.236768,105.837464 145.634937,105.514732 C146.090852,105.639429 146.560711,105.626536 147.015148,105.477957 C147.388246,112.076313 147.782261,118.67319 148.169514,125.270701 C148.430852,129.721949 148.661345,134.188204 148.982261,138.640932 C148.35543,138.332149 147.778458,138.157151 147.024232,138.163703 M18.7569085,71.1280391 C17.4588803,70.4927202 16.027331,69.9129863 14.8814155,69.0130568 C13.6288099,68.0290098 13.3212042,66.8737691 13.7061338,65.3296438 C13.7348662,65.2142466 13.768669,65.0994834 13.798669,64.9845088 C23.029162,65.0071233 32.2362042,64.6006967 41.4626831,64.3815264 C50.8366268,64.1589746 60.2071901,63.9719295 69.583669,63.919092 C88.2831761,63.8138395 106.980359,64.2356947 125.670993,64.7609002 C132.40219,64.9498474 139.133176,65.1362583 145.864585,65.3201331 C145.710993,66.9619022 145.770148,68.6440391 145.735289,70.274184 C145.704655,71.7060822 145.712683,73.1400939 145.734021,74.5738943 C142.212613,74.565229 138.692049,74.4891429 135.170218,74.449409 C126.451415,74.3511311 117.737261,74.6015812 109.02057,74.8010959 C91.5878239,75.2001252 74.1504296,75.5139804 56.7210634,76.0391859 C51.9871901,76.181636 47.2228944,76.2566654 42.4672606,76.4593503 C42.3037394,75.6858082 42.1222606,74.9160705 41.9175423,74.1514051 C41.5921901,72.9365636 41.225007,71.6879061 40.2521197,70.8439843 C40.2054296,70.8031937 40.1407817,70.8209472 40.1198662,70.8788571 C39.7503592,71.903272 39.8437394,72.9462857 39.9519085,74.0197339 C40.0374718,74.8676712 40.0953592,75.7179335 40.1382465,76.5692524 C37.1811338,76.7248063 34.2301479,76.9435538 31.2945845,77.2713581 C30.4552183,76.8564775 29.6154296,76.4424423 28.7743732,76.0305205 C25.4357113,74.3953033 22.095993,72.7621996 18.7569085,71.1280391 M125.918387,101.631804 C119.031275,101.687389 112.143739,101.693307 105.256838,101.649135 C91.6243732,101.561636 77.9963451,101.226223 64.366838,100.955272 C60.5735282,100.880243 56.7852887,100.805636 52.9913451,100.805425 C51.0271901,100.805425 49.0564859,100.818528 47.0944437,100.903703 C45.8595845,100.957386 44.6076127,100.965205 43.3784577,101.113573 C43.5267676,97.1412446 43.6812042,93.1649002 43.6763451,89.1906693 C56.6790211,91.1606654 69.8213451,91.7017221 82.9524718,92.0893386 C96.2557817,92.4820274 109.562261,92.6855577 122.871275,92.705002 C126.653599,92.7107084 130.435923,92.7022544 134.218035,92.6798513 C136.038951,92.6692838 137.860077,92.6553346 139.680993,92.6382153 C140.659796,92.6289159 141.644514,92.6487828 142.622472,92.6075695 C143.656627,92.5640313 144.281345,92.318865 145.003669,91.5829432 C145.373387,91.2065284 145.39219,90.5568376 145.003669,90.1819022 C143.714303,88.937683 142.197401,89.2077886 140.521415,89.228501 C138.84057,89.2494247 137.159725,89.2673894 135.478669,89.2826067 C132.116979,89.3132524 128.754866,89.3326967 125.392754,89.341362 C118.809021,89.3580587 112.225077,89.3326967 105.641556,89.2654873 C92.3359225,89.1293777 79.0332465,88.8334873 65.7307817,88.5217456 C58.3765563,88.3494951 51.0238099,88.3968376 43.6755,88.7535969 C43.6727535,88.0937613 43.6666268,87.4337143 43.6537394,86.7738787 C43.6053592,84.2748728 43.3619789,81.7758669 42.9812746,79.3045479 C46.5825423,79.2920783 50.1835986,79.2151468 53.7685986,79.1690724 C62.4861338,79.0572681 71.2017676,78.881636 79.9182465,78.706638 C88.5645845,78.5333307 97.2109225,78.3598121 105.857261,78.1862935 C114.498106,78.0129863 123.16557,78.0005166 131.796063,77.5338552 C136.453669,77.2819256 141.112965,76.9395382 145.774162,76.7596791 C145.783246,77.1876634 145.792331,77.6158591 145.801415,78.0436321 C145.913599,83.2946301 146.118739,88.5405558 146.383458,93.7860587 C146.510641,96.306411 146.644796,98.8267632 146.782754,101.346693 C146.715993,101.340141 146.647754,101.336125 146.577613,101.335491 C139.695993,101.28984 132.801275,101.576008 125.918387,101.631804 M16.9389507,56.0283288 C17.7274014,53.9989432 18.5838803,51.9832955 19.5096549,49.9949119 C23.4400775,51.1047123 27.6326831,51.6772603 31.6890211,52.0583249 C36.007331,52.4643288 40.3340915,52.6923757 44.6701479,52.7809315 C53.2184577,52.9555068 61.7667676,52.5499256 70.305993,52.1969706 C87.8699366,51.4714051 105.43219,50.9415499 123.012613,50.9075225 C127.922261,50.8978004 132.831697,50.9206262 137.740923,50.976 C140.19543,51.0036869 142.649937,51.0368689 145.104232,51.0789276 C146.366556,51.1006967 147.628669,51.1245793 148.890993,51.1505753 C149.449796,51.1619883 150.015359,51.2034129 150.573739,51.1865049 C151.32057,51.1638904 151.866063,50.939225 152.559232,50.668908 C153.355077,50.3588571 153.824514,49.027773 152.831345,48.5866849 C151.839232,48.1458082 151.043176,47.8875382 149.942683,47.8636556 C148.750711,47.8380822 147.558528,47.814411 146.366556,47.7924305 C144.192613,47.7526967 142.018669,47.7193033 139.844725,47.6922505 C135.426697,47.6370881 131.008035,47.6138395 126.589585,47.6144736 C117.892754,47.6155303 109.195923,47.7184579 100.501627,47.923045 C83.0466972,48.3336986 65.6308521,49.550865 48.1822606,50.0731115 C43.3729648,50.2172524 38.5545845,50.245362 33.7450775,50.1010098 C29.0866268,49.9613072 24.4381056,49.5690411 19.7853592,49.4039765 C21.3924718,46.0147632 23.2108521,42.7141057 25.2626831,39.5757652 C33.0189507,39.848407 40.7585282,39.6467789 48.5164859,39.4104892 C52.5874014,39.2864266 56.6583169,39.1606732 60.7288099,39.0209706 C62.764162,38.951225 64.7995141,38.8814795 66.8348662,38.8117339 C67.8174718,38.7779178 68.8000775,38.7443131 69.7826831,38.7107084 C70.8411338,38.6743562 71.9551479,38.7428337 72.9831761,38.4644853 C73.1693028,38.4139726 73.3171901,38.306184 73.4285282,38.1688063 C76.1648662,39.5770333 79.0590211,40.6878904 82.0351479,41.5110998 C88.4952887,43.2980665 95.4434577,43.9684697 102.124796,43.4185362 C107.486768,42.9772368 112.830359,41.6495342 117.544585,39.0499256 C128.190993,40.0303796 138.986556,39.569636 149.65557,39.4998904 C150.674937,39.4933386 151.098951,38.5591703 150.928458,37.7885871 C154.352472,45.1704188 156.620641,53.1731977 158.743669,60.957229 C160.062824,65.7948258 161.236204,70.6626458 162.353176,75.5480078 C162.306697,75.5520235 162.26043,75.5562505 162.214162,75.5606888 C162.343669,75.0255499 162.052542,74.3946693 161.320077,74.3777613 C157.00219,74.278638 152.670359,74.5267632 148.350782,74.5667084 C148.229303,73.485863 148.107824,72.4048063 147.979796,71.3243836 C147.804866,69.8525401 147.596556,68.3842896 147.418458,66.9126575 C147.354021,66.378998 147.294021,65.863726 147.220711,65.356908 C150.640711,65.4499022 154.0605,65.543953 157.4805,65.6341996 C159.700077,65.692955 159.696063,62.2542857 157.4805,62.1866536 C138.686979,61.6109354 119.892613,61.0292994 101.092754,60.7101605 C82.2814859,60.3905988 63.4053592,60.1936204 44.6084577,61.1584344 C34.3651479,61.6838513 24.1471901,62.386591 14.0312746,64.1200861 C14.8169789,61.377182 15.9130352,58.6689393 16.9389507,56.0283288 M32.9359225,29.8999374 C33.2762746,30.1552485 33.3852887,30.3162975 33.8940211,30.4056986 C34.4456408,30.5022857 35.0128944,30.5331429 35.5697958,30.5876712 C36.7613451,30.7043366 37.9558521,30.7478748 39.1514155,30.8045166 C41.5387394,30.9180117 43.9258521,31.0380587 46.3148662,31.1107632 C51.0571901,31.2546928 55.9011338,31.4586458 60.6413451,31.2477182 C61.800993,31.1961487 62.3285282,30.2395773 62.2231056,29.3679687 C63.1121197,30.4693151 64.084162,31.5032407 65.1193732,32.445863 C66.7837394,33.9610333 68.5803592,35.3041644 70.4743732,36.4894168 C69.2456408,36.5344344 67.9945141,36.6885088 66.8348662,36.7383875 C64.8696549,36.8225049 62.9044437,36.9068337 60.9392324,36.9913738 C56.7979648,37.1693307 52.6571197,37.3603914 48.5164859,37.5539883 C40.8531761,37.912227 33.2160634,38.3581761 25.5819085,39.0894481 C27.7621901,35.8116164 30.2044437,32.719773 32.9359225,29.8999374 M157.661979,45.821589 C154.424092,36.9305049 150.249655,27.6947084 142.737401,21.587953 C138.876063,18.4489785 134.574232,16.2775656 129.702401,15.2489237 C129.552824,15.2172211 129.493246,15.4302622 129.639232,15.4782387 C138.064162,18.2433346 144.29888,25.5598591 148.516415,33.0581448 C149.28057,34.4169159 149.988739,35.8082348 150.658458,37.2204775 C150.44043,36.9545988 150.106838,36.7776986 149.65557,36.7853072 C139.693035,36.9526967 129.613246,36.7838278 119.673106,37.7575186 C119.926838,37.5884384 120.18057,37.4195695 120.429444,37.2418239 C123.144866,35.3058552 125.588176,32.9370411 127.607894,30.2541605 C128.824373,30.5627319 130.105077,30.6379726 131.346275,30.7561174 C133.002824,30.9135734 134.670782,30.9856438 136.332613,31.075045 C137.991908,31.1640235 139.657542,31.1724775 141.318739,31.2126341 C142.46043,31.2403209 144.692049,31.4299022 144.693317,29.6828806 C144.694585,27.9339569 142.460641,28.1190998 141.318739,28.1419256 C139.657331,28.1746849 137.992542,28.179546 136.332613,28.2575342 C134.741345,28.3319295 133.14057,28.3921644 131.553951,28.5346145 C130.586134,28.6214795 129.59043,28.678544 128.617331,28.832407 C130.200782,26.4688767 131.461415,23.8944188 132.302894,21.1789902 C132.387613,20.9057143 132.4155,20.6504031 132.401556,20.4139022 C132.758599,20.0370646 132.986345,19.5207358 132.986345,19.0477339 C132.986345,17.9229276 132.110218,17.2639374 131.086204,17.146638 C127.033246,16.6831468 122.567894,16.0226771 119.301697,13.3569159 C117.827683,12.15391 116.642049,10.7317339 115.526134,9.20134638 C114.272261,7.48116634 113.80219,5.31398043 113.797331,3.20829746 C113.79712,3.09015264 113.601275,3.05443444 113.583317,3.17934247 C112.969585,7.44840705 113.854796,12.3217221 116.917542,15.5202975 C119.924725,18.6607515 124.009585,19.8371272 128.154866,20.524227 C126.445711,25.4078982 123.624655,29.6976751 119.664021,33.0710372 C115.250641,36.8299022 109.66388,38.8402661 103.968106,39.5990137 C97.8231761,40.4175734 91.3826831,40.0196008 85.3397958,38.6834442 C79.5185282,37.3958982 73.8240211,35.0934481 69.0861338,31.4191233 C66.6958521,29.5651585 64.4969789,27.3797965 62.580993,25.0409941 C60.9996549,23.1107319 59.7871901,20.9581292 58.4297958,18.8902779 C63.4940915,20.279272 69.6170493,18.3817691 73.8590915,15.7014247 C76.3577535,14.1230607 78.5466972,12.1524305 80.345007,9.80813307 C81.2319085,8.65183562 82.020993,7.43128767 82.6716972,6.12619961 C83.0101479,5.44734247 83.3143732,4.7490411 83.5943028,4.04418787 C83.767331,3.60880626 83.9369789,3.16158904 83.9369789,2.68288063 C83.9359225,2.33034834 83.8471901,2.00190998 83.6705704,1.69756556 C83.3076127,1.31227397 83.2353592,1.20068102 83.4538099,1.36215264 C83.0974014,0.632148728 82.0670493,0.446794521 81.4078944,0.825534247 C81.1621901,0.966927593 80.5843732,1.24062622 80.3002183,1.69756556 C80.1081761,2.00655969 80.0048662,2.376 79.8819085,2.71500587 C79.6877535,3.25014481 79.4921197,3.7791546 79.2483169,4.29442661 C78.6821197,5.49151468 78.0031056,6.6340742 77.2285986,7.70794521 C75.8128944,9.67096673 73.9932465,11.4460978 72.0111338,12.831499 C69.9303592,14.2858004 67.6877535,15.4746458 65.2554296,16.2171194 C62.6864155,17.0010176 60.1435986,17.2351937 57.4930352,17.5224188 C57.4647254,17.4831076 57.4372606,17.4435851 57.4089507,17.4044853 C57.3578239,17.3338943 57.247331,17.3567202 57.2428944,17.4495029 C57.2407817,17.4938865 57.241838,17.5380587 57.2405704,17.5824423 C56.8626127,17.7597652 56.8313451,18.2925793 57.2524014,18.4971663 C57.4085282,20.9498865 58.4665563,23.365409 59.6194437,25.488 C60.0996549,26.3720783 60.6421901,27.228681 61.2299366,28.0561174 C61.0560634,27.9897534 60.8606408,27.9476947 60.6413451,27.9392407 C55.8994437,27.7574795 51.0567676,27.9916556 46.3148662,28.1651742 C43.9957817,28.250137 41.6792324,28.3801174 39.3620493,28.5043914 C38.1677535,28.5682192 36.9705,28.6090098 35.7804296,28.7326497 C35.1852887,28.7945753 34.5865563,28.8431859 33.9945845,28.9323757 C33.9516972,28.9389276 33.9117676,28.9456908 33.874162,28.952454 C35.338669,27.5095656 36.8824014,26.1427632 38.5121197,24.8674755 C43.8584577,20.6835851 49.9987394,17.2747162 56.5501479,15.4207515 C56.6122606,15.4032094 56.6031761,15.2969002 56.5345141,15.3040861 C43.5039507,16.6370724 32.6496549,24.8516243 25.0566972,35.1657299 C20.8435986,40.8888845 17.6481761,47.2245323 14.8985282,53.7575812 C13.5126127,57.0506301 12.2012746,60.4022231 11.1031056,63.8034834 C10.5449366,65.5319061 10.2933169,67.3653699 11.0927535,69.0612446 C11.7058521,70.362317 12.8371901,71.3292446 14.0230352,72.0972916 C14.101838,72.1486497 14.1829648,72.1959922 14.2626127,72.2460822 C13.0503592,76.4709746 12.2382465,80.8061918 11.4590915,85.1283053 C10.6127535,89.8236634 9.87437324,94.5384658 9.24014789,99.2670059 C7.97254225,108.718802 7.00155634,118.190254 6.57754225,127.720039 C6.46028873,130.355789 6.38190845,132.99344 6.3476831,135.631726 C6.33057042,136.951397 6.33808803,138.270857 6.3561338,139.590528 C6.37662676,141.067233 6.17676761,142.73373 6.92824648,144.05171 C7.93240141,145.812681 9.88261268,145.206528 10.7403592,144.002254 C10.7528239,144.018528 10.7657113,144.035225 10.7783873,144.05171 C10.8561338,143.898693 10.9212042,143.745886 10.9767676,143.593292 C11.0690915,143.390184 11.1293028,143.177988 11.1512746,142.961566 C11.3128944,142.14364 11.2520493,141.313033 11.2455,140.424305 C11.235993,139.173957 11.2431761,137.923609 11.2467676,136.67326 C11.2537394,134.312689 11.2805704,131.952963 11.3477535,129.592814 C11.482331,124.874207 11.7451479,120.159616 12.1045141,115.452634 C12.8185986,106.102497 13.8719789,96.7952642 14.7734577,87.4635147 C15.232331,82.7121487 15.7858521,77.9485245 15.8813451,73.1717965 C16.9940915,73.7578708 18.142331,74.2889941 19.2529648,74.8545675 C21.313669,75.9039217 23.374162,76.9532759 25.4346549,78.0026301 C27.4330352,79.0202818 29.4343732,80.031593 31.4365563,81.0422701 C33.4554296,82.0609785 35.4607817,83.4081252 37.7321197,83.6587867 C38.9462746,83.7925714 39.3857113,82.1562975 38.6703592,81.3924775 C37.7361338,80.3944814 36.4955704,79.7743796 35.2484577,79.193589 C36.9054296,79.2542466 38.5645141,79.2867945 40.2244437,79.2994755 C40.2472606,81.3888845 40.1735282,83.4827319 40.0687394,85.5674912 C39.810993,90.6809002 39.4526831,95.7852211 39.1133873,100.893769 C38.4081761,111.512642 37.7255704,122.137221 37.1929648,132.766027 C37.0626127,135.369652 36.9320493,137.972642 36.8014859,140.575843 C36.7381056,141.841409 36.650007,143.108665 36.6140915,144.375288 C36.5739507,145.796407 36.6088099,147.577667 37.9235282,148.455194 C38.8522606,149.074661 39.8517676,148.782787 40.5489507,147.930622 C41.4812746,146.791233 41.4797958,145.140376 41.5547958,143.742082 C41.5721197,143.418928 41.5875423,143.095773 41.6042324,142.772618 C43.0281761,142.957127 44.4417676,143.212227 45.871838,143.351718 C47.6185986,143.522067 49.3763451,143.622458 51.1307113,143.667476 C54.7081056,143.759624 58.2797958,143.792595 61.8582465,143.792595 C68.9399366,143.792806 76.020993,143.671703 83.1016268,143.557362 C97.2633169,143.328681 111.423317,142.931977 125.580148,142.492368 C129.504866,142.370419 133.429373,142.242552 137.35388,142.10919 C139.386063,142.039867 141.418246,141.969276 143.450641,141.896994 C145.374232,141.828517 147.475711,142.077487 149.16881,141.078434 C149.217824,141.686489 149.267683,142.294755 149.321134,142.902176 C149.422754,144.053401 150.231697,145.042309 151.460218,145.042309 C152.614585,145.042309 153.606697,144.062912 153.599303,142.902176 C153.168106,132.401659 152.234937,121.900297 151.495711,111.417534 C150.816908,101.788838 150.18057,92.1468258 149.209796,82.5411663 C149.485289,82.7193346 149.821838,82.8296595 150.21881,82.8313503 C151.487049,82.8366341 152.752965,82.0497769 153.939444,81.6315147 C155.136697,81.2096595 156.353599,80.8444462 157.586979,80.5449628 C158.31712,80.3676399 159.050218,80.2190607 159.785641,80.0924618 C159.696697,81.5953738 159.719514,83.1116008 159.691627,84.6090176 C159.648739,86.9108337 159.577331,89.2118043 159.521345,91.5131977 C159.411275,96.0477182 159.37219,100.58245 159.28557,105.117182 C159.111063,114.258928 158.823739,123.395812 158.335289,132.526356 C158.201134,135.035295 158.050289,137.543389 157.882754,140.050215 C157.794444,141.373268 157.701486,142.696321 157.603669,144.018528 C157.507965,145.318333 157.284021,146.699507 157.773106,147.945417 C157.788739,147.936329 157.804162,147.927663 157.819585,147.918575 C158.160782,148.992744 159.66057,149.506027 160.369162,148.285057 C161.473458,146.381636 161.21888,143.653738 161.345641,141.512337 C161.481908,139.214748 161.604021,136.916102 161.71219,134.616822 C161.928528,130.017628 162.078528,125.417166 162.16557,120.813534 C162.339655,111.604791 162.310077,102.382732 161.747261,93.1875147 C161.593246,90.6732916 161.377754,88.1637182 161.156556,85.6549902 C160.990711,83.7743953 160.899232,81.8424423 160.605993,79.9607906 C162.040077,79.749229 163.485359,79.6264344 164.944585,79.5902935 C166.356908,79.554998 167.267683,78.2807671 166.968317,76.9321409 C164.62388,66.3682192 161.362331,55.9833112 157.661979,45.821589" id="ðŸ–-Ink" fill="#000000"></path>
                    </g>
                    <g id="head/Bun" transform="translate(78.591549, 38.043053)" fill-rule="evenodd">
                        <path d="M25.4433592,5.60499269 C38.7562656,4.87795254 50.5511704,1.13595076 59.9222113,9.51071725 C70.0288492,1.96026549 75.9253281,-0.377112539 77.6116479,2.49858317 C79.3065738,5.38895489 76.9560347,9.26906543 77.5862958,12.8357084 C81.6958817,19.8442129 81.4635336,31.7068879 81.6958817,34.4868746 C82.2815185,41.493872 85.9703295,67.8612303 85.9703295,74.1225634 C85.9703295,77.3185843 83.3363001,85.689051 81.6958817,90.3472433 C78.0446789,100.715333 71.0751265,105.999339 59.64534,105.999339 C48.2155535,105.999339 29.5598815,96.4425336 23.5766967,87.9575037 C23.0523349,87.2138821 19.6614706,89.3833415 16.1147676,85.6201013 C12.2724659,81.5432153 10.1409718,73.7672198 10.1409718,69.1319278 C10.1409718,63.2499152 6.34102132,59.1707987 6.78301535,51.6416392 C7.77011359,34.8268869 11.1979277,6.3829596 25.4433592,5.60499269 Z" id="ðŸŽ¨-Background" fill="#FFFFFF"></path>
                        <path d="M23.9560141,-13.9444697 C24.1292535,-13.9550372 24.3046056,-13.9465832 24.4799577,-13.9294638 C24.6722113,-13.9210098 24.8644648,-13.9021996 25.0567183,-13.8639452 C26.0348873,-13.6760548 26.9074225,-13.1582466 27.5834789,-12.4290881 C27.602493,-12.4100665 27.6172817,-12.3887202 27.6341831,-12.36991 C27.9510845,-12.1310841 28.2447465,-11.8603444 28.508831,-11.5731194 C28.5553099,-11.6175029 28.5996761,-11.6616751 28.6482676,-11.7060587 C28.7877042,-11.8288532 28.9334789,-11.9450959 29.0855915,-12.0547867 C29.72215,-12.600824 30.4688872,-12.9977718 31.2721844,-13.2236194 L31.3820704,-13.2533542 C31.4031972,-13.2596947 31.4243239,-13.2639217 31.4454507,-13.2681487 C32.0158732,-13.4581526 32.6158732,-13.5553738 33.2200986,-13.5534716 C33.9426338,-13.5767202 34.6672817,-13.4581526 35.343338,-13.1793816 C36.1440423,-12.8473503 36.8412254,-12.3234129 37.4264366,-11.6933777 C37.8109437,-11.3805793 38.1468592,-11.0362896 38.5017887,-10.6577613 C39.2348873,-9.87386301 39.8137606,-8.95660274 40.1792535,-7.94613699 C40.2299577,-7.80453229 40.2743239,-7.65891194 40.3144648,-7.51308023 C41.2081268,-7.61643053 42.1060141,-7.69040313 43.0039014,-7.72654403 C44.0116479,-7.78762427 45.0193944,-7.80897065 46.0292535,-7.77494325 C48.8116479,-7.68427397 51.5327746,-7.19372994 54.1672817,-6.29549119 C54.6954507,-6.13930333 55.208831,-5.94063405 55.7031972,-5.69546771 C56.4785493,-5.38689628 57.2116479,-4.99378474 57.902493,-4.51824658 L58.491,-4.16909589 C58.7866056,-3.99333699 59.0822113,-3.8152955 59.3686901,-3.63268885 C60.0510845,-3.19498239 60.6975634,-2.70486106 61.3102394,-2.17648532 C61.9567183,-1.65423875 62.5672817,-1.08570646 63.1482676,-0.48990998 C63.3060845,-0.328649706 63.4584085,-0.16527593 63.6086197,-0.000845401173 C64.9478451,0.722183953 66.137493,1.64789824 67.2470704,2.75199217 C68.127,2.24559687 69.0381972,1.78654403 69.9785493,1.37842661 C70.9482676,0.95783953 72.1799577,0.524571429 73.1961549,0.239459883 C74.108831,-0.0162739726 75.0109437,-0.191694716 75.9257324,-0.320829746 C76.3419296,-0.392688845 76.7602394,-0.449753425 77.180662,-0.498363992 L77.1637606,-0.491812133 L77.1637606,-0.491812133 C77.4595352,-0.523726027 77.7531972,-0.551201566 78.0510845,-0.576563601 L78.0426338,-0.578677104 L78.0426338,-0.578677104 C78.1693944,-0.589033268 78.2982676,-0.599812133 78.4250282,-0.608266145 L78.7334789,-0.63341683 L78.7334789,-0.63341683 C78.8264366,-0.641870841 78.9616479,-0.424391389 78.9700986,-0.348305284 L78.980662,-0.270105675 L78.980662,-0.270105675 C79.0503803,-0.191694716 79.1137606,-0.105041096 79.1581268,-0.0522035225 C79.2130563,-0.0566418787 79.2679859,-0.0606575342 79.3229155,-0.0629823875 C79.4877042,-0.0775655577 79.6778451,0.216 79.7750282,0.328015656 L79.8628893,0.431296397 C79.9629938,0.551709307 80.0630022,0.69040012 80.0792535,0.841596869 C80.187,1.71891194 80.2884085,2.59791781 80.3813662,3.47713503 C80.4172817,4.14288845 80.3813662,4.80230137 80.271507,5.45537378 C80.1891127,6.08942466 80.1046056,6.72347554 80.0200986,7.35541292 C79.8848873,7.79945988 79.7517887,8.2432955 79.6186901,8.68691977 C79.5658732,8.85621135 79.5067183,9.02296673 79.4496761,9.18993346 C79.1118592,10.3050176 78.7157324,11.3905127 78.2439718,12.4424031 C78.5881268,12.8232564 78.9090423,13.2180587 79.2075634,13.6257534 C79.2789718,13.699092 79.3508028,13.7720078 79.4179859,13.8480939 C79.437,13.8187162 79.4644648,13.7912407 79.4940423,13.7762348 C79.5954507,13.7318513 79.6693944,13.7846888 79.7327746,13.8715538 C80.3982676,14.5075068 80.8820704,15.2495577 81.1820704,16.0968611 L81.3689249,16.5387554 C81.3999108,16.6126497 81.430662,16.6865988 81.4609437,16.760501 C81.6996761,17.4032172 81.8834789,18.0626301 82.0355915,18.7302857 C82.1716479,19.2557025 82.2692535,19.7883053 82.3322113,20.3266145 C82.7885493,21.8595382 83.1493944,23.4277573 83.4897465,24.9748415 C83.5434085,25.218317 83.5180563,25.4355851 83.4400986,25.620728 L83.6391127,25.8147476 L83.6391127,25.8147476 L83.9791264,26.1535 C84.5503803,26.7232603 85.1331268,27.3222035 85.5574225,28.0001096 C85.9968592,28.7039061 86.3200986,29.4563131 86.6792535,30.202591 L86.7566303,30.3611037 L86.7566303,30.3611037 L86.9147839,30.6789886 C87.0857786,31.0260646 87.1678099,31.2178386 87.3193944,31.6374481 C87.5708028,32.337229 87.7060141,33.0408141 87.7693944,33.782865 C87.8623521,34.8626536 87.8496761,36.0398748 87.3764366,37.0437886 C87.3743239,37.0522427 87.3700986,37.0587945 87.3658732,37.0649237 C87.1503803,38.0352329 86.6179859,38.9353738 85.808831,39.5102466 C85.6355915,39.6731977 85.4496761,39.8190294 85.2510845,39.9350607 C84.7744648,40.2150575 84.3367859,40.2400868 83.8165525,40.1105617 L83.7510845,40.0935734 C83.6855915,40.0766654 83.6264366,40.0618708 83.5693944,40.0491898 C83.6539014,40.1189354 83.6961549,40.2015734 83.5693944,40.2605401 C83.4468592,40.3197182 83.337,40.3535342 83.2334789,40.3662153 C83.2778451,40.4232798 83.2820704,40.4845714 83.1891127,40.5352955 C82.9862958,40.6430841 82.821507,40.6771115 82.652493,40.6473112 L82.6880343,40.9411318 C82.9651989,43.164571 83.2131282,43.6042829 83.4299577,45.9925714 C83.5736197,48.437683 83.8017887,50.8766654 84.1165775,53.3052916 L84.2250761,54.1877467 C84.5725993,56.9846649 84.9633581,59.8020889 85.5616479,62.5537691 C85.8637606,63.7563523 86.1236197,64.9673894 86.343338,66.1868806 C86.6539014,67.1147084 86.871507,68.0636712 86.9919296,69.0316556 C87.1672817,70.0165479 87.2877042,71.0098943 87.3574225,72.0116947 C87.6003803,72.6522975 87.7186901,73.303045 87.7123521,73.9666849 C87.7440423,74.8585832 87.7144648,75.7485793 87.6193944,76.634137 C87.5665775,77.5554129 87.4398169,78.4684462 87.2391127,79.3730254 C87.0595352,80.613863 86.7320704,81.8122192 86.2630563,82.9746458 C85.887,84.2721252 85.4264366,85.5446654 84.902493,86.7893072 C84.0891127,88.7168219 83.1067183,90.5069589 81.9891127,92.2717339 C80.9412254,93.9266067 79.8172817,95.5201879 78.5327746,97.0019648 C76.8722113,98.9165871 74.9792535,100.670795 72.9046056,102.150247 C71.721507,103.025448 70.4729155,103.81146 69.1672817,104.483765 C67.5700986,105.30782 65.9475634,106.049659 64.2172817,106.55056 C63.1377042,106.863358 62.0391127,107.078935 60.9278451,107.244 C58.7454507,107.567155 56.4848873,107.518544 54.2898169,107.140227 C52.8743239,106.950012 51.4820704,106.620305 50.1658732,106.148994 C49.0841831,105.760321 48.0531972,105.31416 47.0222113,104.811147 C46.4919296,104.555413 45.980662,104.259523 45.4905211,103.927703 C44.6665775,103.392986 43.8954507,102.788736 43.1771408,102.120658 C42.9426338,101.919875 42.7144648,101.714865 42.4905211,101.499288 C42.3827746,101.40418 42.4419296,101.262575 42.5665775,101.228971 L42.6046056,101.224532 L42.6046056,101.224532 C42.5560141,101.180149 42.5053099,101.135765 42.4567183,101.089268 C42.4461549,101.080814 42.4377042,101.070458 42.4292535,101.059679 C42.4060141,101.038544 42.380662,101.01762 42.3595352,100.996485 C42.2771408,100.924415 42.3595352,100.763789 42.4313662,100.725746 C42.458831,100.710951 42.4947465,100.709049 42.5348873,100.713065 C42.5264366,100.704611 42.5200986,100.69827 42.5116479,100.692141 C42.5031972,100.685589 42.5010845,100.668681 42.5031972,100.651773 L42.471507,100.626622 L42.471507,100.626622 C42.3637606,100.531303 42.4186901,100.392023 42.5454507,100.355883 C42.6074225,100.337096 42.709457,100.346698 42.8159428,100.369845 L42.8560141,100.379131 L42.7841831,100.311499 C42.6574225,100.201597 42.6975634,100.079014 42.8539014,100.041182 C42.9705211,100.047945 43.0857887,100.064042 43.1997042,100.091852 L43.2848873,100.114943 C43.3271408,100.125511 43.3672817,100.138192 43.4095352,100.151084 C43.3377042,100.085354 43.2658732,100.02216 43.1961549,99.9564305 C43.1264366,99.8953503 43.2003803,99.7197182 43.2637606,99.684 C43.3503803,99.6353894 43.5193944,99.7028102 43.5975634,99.7598748 C43.7898169,99.7812211 44.043338,99.8655499 44.1362958,99.945863 C44.3919296,100.191029 44.6560141,100.425628 44.9243239,100.653886 C45.087,100.704611 45.2412254,100.772243 45.3595352,100.873691 C45.6637606,101.165354 45.980662,101.440321 46.3039014,101.706411 L46.5495978,101.875804 C46.5907559,101.903671 46.6320704,101.931147 46.6736197,101.957918 C47.1384085,102.23056 47.6031972,102.501088 48.0658732,102.77373 C49.7623521,103.348603 51.458831,103.923687 53.1531972,104.496446 L53.3771408,104.563867 L53.3771408,104.563867 L55.0229155,104.766763 L55.0229155,104.766763 C56.1046056,104.880892 57.1884085,104.874763 58.2700986,104.749855 C59.0813662,104.760634 59.8862958,104.68011 60.6785493,104.515256 C62.0243239,104.286998 63.3447465,103.951162 64.6292535,103.481753 C66.1081268,102.94281 67.5172817,102.232885 68.8926338,101.467796 C69.387,101.190716 69.8729155,100.896939 70.3503803,100.586466 C70.5046056,100.476564 70.658831,100.364337 70.8130563,100.250207 C71.8292535,99.4872329 72.8010845,98.6735342 73.737,97.8133386 C74.1764366,97.4096595 74.5989718,96.9892838 75.0067183,96.5539022 C75.0658732,96.4902857 75.1229155,96.4292055 75.1799577,96.365589 C75.5708028,95.9386614 75.9489718,95.4971507 76.3102394,95.0404227 L76.6546056,94.6517495 L76.6546056,94.6517495 C78.0447465,92.9207906 79.280662,91.0587945 80.3919296,89.141636 C81.4947465,87.2415969 82.4031972,85.2422231 83.1257324,83.1731037 C83.3581268,82.4354912 83.5609437,81.6875225 83.7299577,80.9308885 C84.0426338,80.0218708 84.2475634,79.0900274 84.3426338,78.1389511 C84.3743239,77.9527515 84.3996761,77.7667632 84.4250282,77.580775 L84.4395822,77.287593 C84.4416948,77.2386458 84.443338,77.1897769 84.4440423,77.1411663 C84.4862958,76.8454873 84.5222113,76.5493855 84.5496761,76.2534951 C84.5665775,75.9557025 84.5771408,75.6574873 84.5792535,75.3594834 L84.5560141,73.5313033 L84.5560141,73.5313033 C84.5496761,73.4742387 84.543338,73.415272 84.5391127,73.3558826 L84.4926338,72.9524149 C84.3912254,72.1194834 84.3130563,71.2846497 84.2116479,70.4521409 C84.2116479,70.4477025 84.2116479,70.441362 84.2095352,70.4350215 C84.171507,70.1243366 84.1313662,69.8115382 84.0848873,69.4987397 C84.0616479,69.3127515 84.0320704,69.1267632 84.0046056,68.940775 L83.9517887,68.6155068 L83.9517887,68.6155068 C83.8538134,68.0496164 83.7348103,67.4884187 83.5905335,66.9321967 L83.5271408,66.6941213 L83.1595352,64.8448063 L82.7454507,63.0250802 C82.4771408,61.805589 82.2531972,60.5776438 82.0757324,59.3391311 C81.7546056,57.3653307 81.4799577,55.3889941 81.2412254,53.4044149 C81.2285493,53.3093072 81.2158732,53.2120861 81.2053099,53.1169785 C80.9623521,51.2763288 80.787,49.4289159 80.6729155,47.5753738 C80.5186901,45.7495186 80.4299577,43.9190137 80.4067183,42.086818 C80.4046056,42.00418 80.4595352,41.9367593 80.5250282,41.8985049 L80.5191666,41.5462247 C80.5113674,41.2345685 80.5057686,41.6084372 80.503076,41.2531372 L80.4990561,40.2758955 C80.4992973,40.1944508 80.5000851,40.1377635 80.5017887,40.1337299 C79.3729526,40.2118183 78.613864,40.1478301 77.5239486,40.0903812 L77.3391127,40.0808924 C76.3398169,40.0346067 75.3468592,39.9247045 74.3602394,39.7596399 C74.3560141,39.8105753 74.3222113,39.8462935 74.265169,39.8568611 C74.1637606,39.8610881 74.0686901,39.8610881 73.971507,39.8634129 L74.0074225,40.0005793 L74.0074225,40.0005793 C74.0095352,40.0705362 73.9778451,40.1147084 73.9102394,40.1337299 L73.6284085,40.1463941 C73.2521831,40.16222 72.8746056,40.1696595 72.5010845,40.1189354 C72.165169,40.0747632 71.8377042,39.9963523 71.5123521,39.9033581 C71.3116479,39.8695421 71.1067183,39.8232564 70.8975634,39.7638669 C70.3609437,39.6095812 69.8285493,39.4024579 69.2898169,39.237816 C68.7405211,39.121362 68.1827746,39.0835303 67.5996761,39.2228102 C66.9827746,39.3686419 66.4609437,39.6328297 65.8144648,39.4722035 C65.6855915,39.4407123 65.5609437,39.3921018 65.4362958,39.3411663 L65.3209593,39.3331194 C65.3013192,39.3313973 65.2813662,39.3292603 65.2609437,39.3263718 C64.587,39.229362 63.987,38.8024344 63.3447465,38.5739648 C63.1204778,38.5193389 62.8980093,38.5331454 62.6806642,38.6238623 L62.6264366,38.6481487 L62.4130563,38.8066614 C62.3271408,38.9079687 62.2421643,39.0103092 62.1581268,39.1129941 L62.0327746,39.2671937 C61.802493,39.5525166 61.5574225,39.8082505 61.2595352,39.9942387 C60.9003803,40.3260587 60.4736197,40.520501 59.9644648,40.533182 C59.6750282,40.541636 59.3877042,40.4803444 59.108831,40.3917886 C58.0567183,40.7172681 56.930662,40.7827867 55.880662,40.4657613 C55.4644648,40.4021448 55.0567183,40.2903405 54.6658732,40.1147084 C54.4820704,40.0322818 54.2982676,39.9350607 54.1208028,39.827272 C53.3792535,40.1402818 52.6778451,40.5564305 51.9616479,40.9159374 L51.800335,40.9969651 C51.0685411,41.361648 50.2587581,41.7172465 49.430662,41.6641174 C48.387,41.596274 47.3623521,41.4569941 46.3398169,41.281362 C46.3313662,41.281362 46.3208028,41.2792485 46.3123521,41.277135 L46.1715951,41.2537016 L46.1715951,41.2537016 L45.6600829,41.1639139 L45.6600829,41.1639139 L45.2475634,41.0871311 L45.2475634,41.0871311 L45.0367581,41.1679259 C43.3433797,41.8088775 41.4879296,42.3088626 39.7862958,41.8604618 C39.0447465,41.7697926 38.3496761,41.5201879 37.7222113,41.0953738 C37.7010845,41.0805793 37.6799577,41.0657847 37.658831,41.0488767 C37.5595352,40.9981526 37.4665775,40.9412994 37.3841831,40.8800078 L37.3664894,40.8661644 L37.3664894,40.8661644 L37.3503803,40.8523209 L37.3419296,40.8480939 C36.4144648,40.4213777 35.8820704,39.5123601 35.9750282,38.493863 C35.9179859,38.1702857 35.9200986,37.8532603 35.9834789,37.5153112 C35.6813662,37.8722818 35.3729155,38.2254481 35.0602394,38.5760783 C33.9165272,39.9537803 32.7964963,41.3589998 31.7593502,42.821858 L31.521507,43.1604775 C30.9510845,43.9655108 30.4208028,44.7984423 29.930662,45.6563131 C29.4341831,46.5038278 28.9250282,47.3430998 28.3989718,48.171593 C27.714993,48.9277779 27.0536593,49.7020861 26.4163863,50.4953671 L26.1447465,50.8365088 L25.2278451,52.043319 C24.5792535,52.8128454 24.0405211,53.6540196 23.6158732,54.5668415 C23.2672817,55.2158982 22.9461549,55.8774247 22.6567183,56.5558591 C22.5637606,56.7606575 22.4750282,56.9677808 22.3884085,57.1749041 C22.0905211,57.9843757 21.8391127,58.8088532 21.6426338,59.6603836 C21.4848169,60.276681 21.371493,60.9015382 21.3042021,61.5351091 L21.2834789,61.7466223 C21.2581268,61.9958043 21.2391127,62.2451977 21.2285493,62.494591 C21.2898169,62.5307319 21.3405211,62.5664501 21.3785493,62.6023796 L21.5327746,62.6575421 L21.5327746,62.6575421 L21.6574756,62.6945024 C21.8518716,62.7548836 22.1875585,62.8796129 22.1074225,63.0335342 L21.6996761,63.8115147 L21.6996761,63.8115147 C21.7419296,63.8558982 21.7609437,63.902184 21.7334789,63.9531194 C21.4609437,64.4749432 21.1862958,64.9969785 20.9116479,65.519225 C20.9031972,65.5382466 20.8884085,65.5528297 20.8736197,65.5636086 C21.1081268,65.6711859 21.3362958,65.7895421 21.5539014,65.9184658 C21.9785493,66.1722975 22.2912254,66.465863 22.580662,66.8082505 C22.8848873,66.9902231 23.1722113,67.1888924 23.4426338,67.4169393 C23.7764366,67.7677808 24.0679859,68.1526497 24.315169,68.5687984 C24.543338,68.96191 24.7292535,69.3719295 24.8729155,69.8009706 C24.9362958,70.0271155 24.9658732,70.2617143 24.9637606,70.5005401 C24.7081268,72.305683 22.6440423,71.0690724 22.6039014,70.9105597 C22.3208028,69.8199922 21.9954507,69.1312016 21.2644648,68.3196164 L21.2454507,68.3067241 L21.2454507,68.3067241 C20.8229155,68.1207358 20.4046056,67.9368611 19.9672817,67.7931429 C19.9017887,67.8058239 19.8341831,67.8144892 19.7665775,67.8248454 C19.8426338,67.9328454 19.8046056,68.0385205 19.6503803,68.0573307 C18.9848873,68.1885793 18.3130563,68.2242975 17.637,68.1672329 L16.6102394,68.0216125 L16.6102394,68.0216125 C16.1843239,68.1850074 15.7772324,68.3947959 15.3935852,68.6446607 L15.2665775,68.7294247 L15.243338,68.7463327 C14.252493,69.5431233 13.4877042,70.6019883 12.9637606,71.7559609 C12.9172817,71.858818 12.8726808,71.9626145 12.8299577,72.0673503 L12.7672817,72.2251585 L12.7630563,72.2336125 C12.0785493,74.9243131 12.6891127,77.8787789 13.9398169,80.3198748 C14.6222113,81.4125558 15.3341831,82.4841018 16.0778451,83.5345127 L16.8003803,84.4794599 L16.8003803,84.4794599 C17.2271408,84.8810254 17.6454507,85.2929472 18.0531972,85.7156477 C18.1165775,85.7792642 18.1841831,85.8424579 18.2517887,85.9037495 C18.4672817,86.0453542 18.687,86.1702622 18.9109437,86.2759374 C18.9975634,86.3053151 19.0862958,86.3327906 19.1750282,86.3562505 C19.6060141,86.5631624 20.0581268,86.6732759 20.5334789,86.6859569 C21.1613398,86.7275665 21.7706323,86.653821 22.3596155,86.46681 L22.4771408,86.4278982 L22.5637606,86.3961957 C22.8848873,86.1911859 23.1827746,85.9354521 23.4658732,85.6353346 C23.5292535,85.569816 23.6475634,85.569816 23.7827746,85.6057456 C23.8567183,85.5296595 23.930662,85.4493464 24.0003803,85.3626928 C24.0489718,85.3098552 24.1250282,85.307953 24.1841831,85.3478982 C24.3848873,85.3248611 24.9278451,85.6334325 24.7862958,85.7959609 C24.7630563,85.8340039 24.7334789,85.86782 24.7081268,85.9037495 C24.8031972,85.9523601 24.8982676,86.0073112 24.9827746,86.0645871 C25.4264366,86.1876693 26.0817737,86.6305859 26.0285316,86.763862 L26.0222113,86.7745127 C25.9195352,86.9687225 25.7860563,87.131775 25.6217746,87.261051 L25.5658732,87.3028885 L25.4412254,87.3895421 C25.6165775,87.4996556 25.7644648,87.6262544 25.6905211,87.7150215 C25.6567183,87.7805401 25.6208028,87.8441566 25.5785493,87.9012211 C25.9377042,88.3450568 26.2947465,88.792908 26.6496761,89.2409706 C27.0046056,90.0104971 27.4440423,90.7288767 27.9679859,91.3946301 C28.4053099,92.1174481 28.9313662,92.7665049 29.5461549,93.3453933 C29.5968592,93.3963288 29.6496761,93.4449393 29.7003803,93.4935499 C30.1532852,93.8282759 30.6272179,94.1418042 31.1207629,94.4430547 L31.3334789,94.5714364 C31.4454507,94.6388571 31.6334789,94.7233973 31.5447465,94.886137 C31.5341831,94.907272 31.521507,94.9243914 31.5067183,94.9368611 C31.8172817,95.1399687 32.1384085,95.3320861 32.4700986,95.5098317 L32.5015403,95.5291844 C32.6269268,95.6092691 32.7968028,95.7545331 32.6179859,95.8731429 C32.4658732,95.974591 32.0623521,95.6998356 31.8722113,95.5730254 C31.8362958,95.5730254 31.7940423,95.5626693 31.7517887,95.5499883 C31.815169,95.5836634 31.8776103,95.6202505 31.9409906,95.6559922 L32.037,95.708501 C32.1109437,95.7526732 32.4743239,95.9936125 32.2208028,96.095272 C32.0961549,96.1056282 31.9820704,96.0739256 31.8764366,96.0020665 C31.7517887,95.940775 31.6292535,95.8754677 31.508831,95.8076243 C31.5510845,95.8731429 31.5510845,95.9386614 31.4454507,95.9811429 C31.4095352,95.983045 31.3736197,95.9811429 31.3377042,95.9769159 C31.587,96.1354286 31.8426338,96.2831624 32.1067183,96.4226536 L32.149401,96.4494142 C32.2610097,96.5217571 32.4389366,96.6593924 32.3095352,96.7779335 C32.1637606,96.9087593 31.7623521,96.6297769 31.658831,96.5665832 L31.3503803,96.3824971 L31.3503803,96.3824971 C31.3271408,96.3930646 31.3017887,96.3972916 31.2743239,96.3996164 C31.3672817,96.456681 31.4539014,96.5179726 31.5489718,96.5727123 L31.6783107,96.6431823 C31.8403501,96.7327906 32.0692379,96.879953 31.9862958,97.0271155 C31.9033537,97.1727123 31.6569617,97.0528602 31.4978547,96.958508 L31.3266714,96.8524149 C31.3191596,96.8477965 31.3116479,96.8433112 31.3039014,96.8390137 L31.2973286,96.8644227 C31.2959202,96.8686262 31.2940423,96.8728297 31.2912254,96.8770568 C31.212,97.0149628 31.0127482,96.9246106 30.8752923,96.8450471 L30.765169,96.7779335 C30.5778451,96.6650724 30.3923991,96.5532446 30.208205,96.4405714 L29.9327746,96.2706928 L29.9285493,96.2706928 C28.9757324,95.6977221 28.0947465,95.1272877 27.2644648,94.3917886 C26.7679859,93.9519687 26.3053099,93.486998 25.8658732,92.9903249 C24.9827746,91.994865 24.3257324,90.8558982 23.6919296,89.6934716 C23.6813662,89.6742387 23.6961549,89.6256282 23.721507,89.5727906 C23.6517887,89.4292838 23.5841831,89.2832407 23.5165775,89.133182 C22.8658732,89.3151546 22.1391127,89.3679922 21.4693944,89.3236086 C21.1102394,89.3001487 20.7553099,89.2367436 20.402493,89.141636 C19.2764366,88.9852368 18.1905211,88.4716556 17.252493,87.8566262 C17.193338,87.8185832 17.1405211,87.7763131 17.0855915,87.7384814 C16.6989718,87.5205793 16.3313662,87.2671703 15.9827746,86.977409 C15.302493,86.4152172 14.6539014,85.7896204 14.0644648,85.1365479 C13.6377042,84.6295186 13.2341831,84.103045 12.8560141,83.5577613 C12.471507,83.018818 12.0827746,82.4800861 11.6940423,81.9409315 C10.6144648,80.2501292 9.92361972,78.303593 9.65530986,76.3147867 C9.52432394,75.5816125 9.45671831,74.8395616 9.47150704,74.0998356 C9.48207042,73.5651194 9.54122535,73.0240626 9.64474648,72.4853307 C9.58347887,72.4259413 9.52221127,72.3669746 9.46094366,72.305683 C9.42714085,72.3646497 9.39333803,72.4071311 9.37221127,72.3857847 L8.88799577,71.9007759 C8.54451653,71.5543586 8.31406237,71.2994442 7.91869014,70.7393659 C7.28911268,69.8453542 6.82009859,68.8625753 6.47150704,67.8271703 C6.22009859,67.0874442 6.05319718,66.2460587 5.98770423,65.4325714 C5.96657746,65.2970959 5.9454507,65.1597182 5.9285493,65.020227 C5.79333803,63.919092 5.91798592,62.864454 6.08488732,61.7781135 C6.0954507,61.7064658 6.1313662,61.6620822 6.17995775,61.6386223 C6.19221127,61.5526027 6.20678873,61.4642583 6.22115493,61.3761252 C4.82171831,59.894137 3.81460563,58.1080157 3.89678873,55.9509746 C3.92256338,55.271272 4.062,54.6012916 4.32819718,53.9756947 L4.36052113,53.9051037 L4.36052113,53.9051037 C3.19242254,53.725456 2.26580282,52.9045714 1.56967606,51.8871311 C1.50798592,51.8383092 1.44819718,51.7890646 1.39073239,51.7400313 C0.145943662,50.6765166 -0.717084507,49.1706458 -1.308,47.5800235 C-1.73116901,46.6564227 -2.01152113,45.6694168 -2.13046479,44.645636 C-2.13891549,44.5725088 -2.14398592,44.5000157 -2.15053521,44.4273112 C-2.4395493,42.8085793 -2.51307042,41.1735734 -2.3795493,39.5628728 C-2.66961972,38.5659335 -2.90560563,37.5514521 -3.06722535,36.5132994 C-3.14328169,36.0189511 -3.19609859,35.52418 -3.23623944,35.0296204 L-3.24046479,35.0023562 L-3.24680282,34.9133777 L-3.26464319,34.6915382 C-3.26746009,34.6548258 -3.27004225,34.6181918 -3.27215493,34.5815577 C-3.62919718,30.0544344 -2.61722535,25.5991703 -0.943985915,21.4059804 C-0.798211268,21.0288787 -0.647683099,20.652728 -0.492401408,20.2795791 L-0.32771831,19.8897534 L-0.32771831,19.8897534 C1.35185915,17.1802427 3.87397183,14.9887515 6.01009859,12.6742544 C6.74721127,11.875773 5.55502817,10.6769941 4.81516901,11.4786458 C3.39587324,13.0164305 1.87326761,14.4893307 0.498549296,16.0700196 C0.255802817,16.087773 0.0126338028,16.0943249 -0.229901408,16.0822779 C-0.65243662,16.0609315 -1.06229577,15.9935108 -1.45947887,15.8855108 C-2.45032394,15.7396791 -3.35243662,15.340227 -4.17215493,14.7526732 C-5.2686338,14.2414168 -6.2045493,13.2774481 -6.29750704,12.0199139 C-6.30807042,11.8931037 -6.30595775,11.768407 -6.29750704,11.6439217 C-6.39891549,11.028681 -6.30807042,10.384274 -6.05032394,9.7901683 C-6.00595775,9.62742857 -5.94891549,9.46680235 -5.87708451,9.30828963 C-5.66792958,8.83697847 -5.32356338,8.3849002 -4.90314085,8.07823092 C-4.89257746,8.07189041 -4.88412676,8.06787476 -4.87567606,8.0613229 C-4.83130986,8.01503718 -4.78905634,7.96832877 -4.74046479,7.92627006 C-4.6686338,7.86054012 -4.59257746,7.79945988 -4.51229577,7.7423953 C-4.79750704,7.2729863 -5.05525352,6.79131898 -5.27497183,6.27752642 C-5.51370423,5.71956164 -5.63623944,5.15335421 -5.70384507,4.55502153 C-5.73130986,4.3183092 -5.74187324,4.08371037 -5.74609859,3.8493229 C-5.75877465,3.7413229 -5.76722535,3.63142074 -5.77567606,3.52151859 C-5.82849296,2.68457143 -5.73130986,1.81613307 -5.4186338,1.03392564 C-5.39539437,0.974958904 -5.3658169,0.915569472 -5.33835211,0.854277886 C-5.27919718,0.67674364 -5.21370423,0.499420744 -5.13342254,0.325902153 C-4.82074648,-0.339851272 -4.37708451,-0.904156556 -3.82990141,-1.3670137 C-3.53412676,-1.66501761 -3.20243662,-1.92920548 -2.84116901,-2.15323679 C-2.62778873,-2.28638748 -2.38483099,-2.40474364 -2.12919718,-2.50196477 C-1.67285915,-2.74290411 -1.08764789,-2.96270841 -0.612295775,-2.97940509 C-0.555253521,-2.98172994 -0.504549296,-2.97517808 -0.449619718,-2.97517808 C-0.405253521,-4.18854012 -0.248915493,-5.50947945 0.230661972,-6.60850098 C0.509535211,-7.40508023 0.92784507,-8.11310372 1.55742254,-8.62266928 C1.92256338,-9.00392172 2.37250469,-9.31353686 2.93394292,-9.51590549 L3.0341831,-9.55049706 L3.07221127,-9.56106458 C3.57714085,-9.80623092 4.12221127,-9.90345205 4.68207042,-9.9011272 C5.33488732,-9.9351546 6.00038028,-9.81236008 6.56869014,-9.51245401 C6.687,-9.44904892 6.81376056,-9.37084932 6.9341831,-9.2863092 C7.02502817,-9.46807045 7.12643662,-9.65194521 7.2426338,-9.83560861 C7.65038028,-10.4888924 8.1426338,-11.0574247 8.71305634,-11.5752329 C8.78066197,-11.6365245 8.85460563,-11.6914755 8.92643662,-11.7504423 C9.20319718,-12.0019491 9.49685915,-12.2344344 9.80108451,-12.4457847 C10.4581268,-12.9025127 11.1785493,-13.2425753 11.9348873,-13.462591 C12.8080948,-13.7853805 13.7294267,-13.935244 14.6511086,-13.9037121 L14.8419296,-13.8956477 L14.8419296,-13.8956477 C14.8841831,-13.8916321 14.9264366,-13.8895186 14.9665775,-13.8874051 C15.8813662,-13.8280157 16.7834789,-13.6039843 17.6454507,-13.2660352 C18.5391127,-12.9128689 19.2954507,-12.378364 19.9989718,-11.7654481 C20.1637606,-11.9934951 20.3517887,-12.2092838 20.5820704,-12.41218 C20.6475634,-12.4690333 20.7172817,-12.5199687 20.7827746,-12.5728063 C20.8334789,-12.6235303 20.8862958,-12.6721409 20.9412254,-12.7207515 C21.1926338,-12.9426693 21.458831,-13.134998 21.7503803,-13.3061918 C22.0778451,-13.4983092 22.430662,-13.6314599 22.7961549,-13.7138865 C23.1679859,-13.840908 23.558831,-13.9191076 23.9560141,-13.9444697 Z M19.6144859,73.1847223 C19.6518907,73.1826522 21.6085887,73.9166927 22.5834746,74.3912812 L22.6313873,74.4147898 C23.755331,74.9727546 24.2961761,75.3743202 25.3060352,76.0907977 C25.3736408,76.1394082 25.4433592,76.2133808 25.4433592,76.2852399 C25.4433592,77.3287653 25.1898915,78.6047264 24.3130775,78.0394474 C24.1863169,77.9577252 24.0586174,77.8778818 23.9299789,77.7992908 L23.7363169,77.6822654 L23.7299789,77.6843789 C23.7320915,77.6843789 23.7342042,77.6822654 23.7363169,77.6801519 C21.8264577,76.5156117 19.8088521,75.6025785 17.6792746,74.9495061 C17.5335,74.8966685 18.6130563,73.265002 18.9109437,73.3558826 C18.7398169,73.2882505 19.5860253,73.1863129 19.6144859,73.1847223 Z M39.6812958,27.0923601 C38.4113662,27.2282583 37.1414366,27.3620431 35.871507,27.4928689 C35.0623521,27.585863 34.2510845,27.6682896 33.4398169,27.7380352 C32.2208028,27.8291272 31.0017887,27.8437104 29.787,27.6767436 C29.3560141,27.6177769 28.9334789,27.5330254 28.515169,27.4294638 C28.2299577,27.6387006 27.9341831,27.8352564 27.6320704,28.0235695 L24.2771408,30.5912642 L24.2771408,30.5912642 C22.0271408,32.3604775 19.8257324,34.2349432 17.8440423,36.3040626 C14.3830563,39.918998 11.5641127,44.1481174 9.79178873,48.8326967 C9.63101408,48.927593 9.50678873,49.0930802 9.46538028,49.3469119 C9.15228169,51.2670294 8.23664789,53.0182779 7.90580282,54.9305753 C7.58002817,56.8141292 8.01333803,58.415319 9.19601408,59.9082975 C9.44847887,60.227225 9.96566197,60.210317 10.2829859,59.9949511 C10.3567183,60.1399374 10.6761549,60.1338082 10.788338,59.4934168 C11.3141831,58.9238278 11.7639718,58.3267632 12.0686197,57.5874599 C12.2929859,57.0430215 11.9158732,56.6655499 11.4582676,56.5913659 C11.6484085,55.906591 11.8628451,55.2279452 12.1039014,54.5564853 C12.8179859,52.5611272 13.7264366,50.6549589 14.8693944,48.8669354 C15.8750282,47.2942779 17.0391127,45.924728 18.2898169,44.5509511 C18.3046056,44.5319295 18.3299577,44.5258004 18.3574225,44.5215734 L18.6172817,44.2339256 L18.6172817,44.2339256 C18.6531972,44.1937691 18.7271408,44.1979961 18.8095352,44.2191311 C18.8877042,44.1367045 18.9637606,44.0521644 19.0440423,43.9697378 C19.1222113,43.8851977 19.208831,43.9105597 19.2574225,43.9781918 C19.3905211,43.9486027 19.6334789,44.0923209 19.7074225,44.1390294 C19.8341831,44.2233581 19.8743239,44.3184658 19.7665775,44.4389354 C19.7475634,44.4602818 19.7285493,44.4814168 19.7095352,44.500227 C19.8553099,44.5617299 19.9989718,44.6439452 20.1109437,44.7244697 C20.5017887,44.8109119 21.0510845,45.1744344 20.9560141,45.2824344 C20.7553099,45.4914599 20.5609437,45.705135 20.3686901,45.9226145 C20.5377042,46.041182 20.6475634,46.1572133 20.6031972,46.2081487 C19.7792535,47.0765871 19.0186901,47.9961722 18.321507,48.9702857 C17.7912254,49.6973307 17.3116479,50.4539648 16.8827746,51.2423014 C16.2447465,52.3582309 15.7039014,53.505863 15.2243239,54.6851977 C15.1567183,54.8650568 15.0912254,55.0444932 15.0278451,55.2241409 C14.3264366,57.1875851 13.802493,59.225002 13.580662,61.3004618 L13.5713912,61.4404622 C13.5300704,62.1881049 13.5139014,64.1899022 13.437,64.667272 C13.9039014,64.8976438 14.3898169,65.0941996 14.8947465,65.2550372 C14.9898169,65.2825127 15.087,65.3078748 15.1841831,65.3311233 C15.2391127,65.3078748 15.2961549,65.2886419 15.3531972,65.2717339 C15.8179859,65.0836321 16.3039014,64.9483679 16.8003803,64.8828493 C17.1349754,64.8386507 17.4679529,64.8232551 17.8007283,64.8328398 L17.943338,64.8384658 C18.0912254,64.8426928 18.237,64.8532603 18.3848873,64.8682661 C18.3764366,64.7835147 18.3722113,64.7012994 18.3658732,64.6165479 C18.3236197,64.5890724 18.2919296,64.5512407 18.2898169,64.5003053 C18.1905211,63.549229 18.1884085,62.5981526 18.2834789,61.6470763 C18.3468592,61.1504031 18.4208028,60.6558434 18.5010845,60.1614951 C18.5834789,59.7554912 18.6785493,59.3562505 18.7820704,58.9565871 C19.0567183,57.8366419 19.4222113,56.7437495 19.8658732,55.6745284 C21.1292535,52.6245323 22.9398169,49.874865 24.7609437,47.1399922 C26.0898169,45.1429432 27.3468592,43.1010881 28.7222113,41.1376438 C29.8926338,39.465863 31.1222113,37.8194442 32.4341831,36.2554521 C33.7440423,34.6937847 35.1278451,33.1908728 36.621507,31.8003992 C36.8623521,31.5782701 37.1053099,31.3626928 37.352493,31.1494403 C38.7679859,29.8813386 40.3060141,28.8391703 41.9074225,27.8164462 C41.9686901,27.7762896 42.0785493,27.8206732 42.1693944,27.8965479 L42.4277668,27.7376438 C42.4710376,27.7112642 42.5144648,27.6851977 42.5581268,27.6598356 C42.5982676,27.6346849 42.6426338,27.6767436 42.6658732,27.7126732 C42.7757324,27.6556086 42.8855915,27.6008689 42.9954507,27.5457065 C43.0755211,27.4810333 43.1581268,27.4197417 43.238831,27.3559139 C42.0512958,27.2961018 40.8654507,27.2073346 39.6812958,27.0923601 Z M54.5750282,13.0026928 C53.6158732,12.8105753 52.652493,12.7828885 51.6848873,12.9266067 C51.2794648,12.9859961 50.8759437,13.0574325 50.4758028,13.1438748 C51.3844648,13.9364384 52.1152394,14.9507084 52.5895352,16.1179961 C53.1020704,17.3797573 51.0576338,17.9235616 50.5522817,16.6799765 C50.0648873,15.4803523 49.1422817,14.5601331 48.0278451,14.0085088 C47.787,14.1431389 47.5535493,14.2889706 47.330662,14.4504423 C47.0391127,14.6871546 46.7644648,14.9428885 46.5067183,15.2239843 C45.9447465,15.834998 45.4292535,16.6505988 45.0912254,17.4579569 C44.9602394,17.8975656 44.8630563,18.3498552 44.8017887,18.8148258 C44.7891127,18.920501 44.7764366,19.0282896 44.7658732,19.1360783 C44.5575634,21.3233425 45.1827042,23.4514286 46.2582676,25.3345597 L46.3005211,25.3351937 L46.3005211,25.3351937 C47.2605211,24.8144266 48.2655211,24.3756634 49.2996761,24.0182701 C50.1278451,23.4605166 50.9877042,22.9446106 51.8729155,22.4775264 C53.7547621,21.4843366 55.7423991,20.7186849 57.7905498,20.1951033 L58.0271408,20.1357652 C58.5095352,20.0124775 58.996331,19.9038669 59.4850829,19.8088327 L59.7785493,19.7534325 L59.7827746,19.7534325 L59.7510845,19.4383092 L59.7510845,19.4383092 C59.5862958,18.20191 59.102493,17.0542779 58.4771408,15.9935108 C58.0081268,15.1924932 57.3003803,14.372454 56.5144648,13.7172681 L56.5102394,13.7149432 C56.1534319,13.512047 55.7782624,13.3442192 55.3921498,13.2055224 L55.2468592,13.154865 L54.5750282,13.0026928 Z M28.821507,11.124 C26.8271408,10.9356869 24.8327746,10.9547084 22.8384085,11.1174481 C21.5348873,11.2465832 20.2398169,11.4260196 18.9510845,11.6542779 C18.0785493,11.8043366 17.2229155,12.0156869 16.3820704,12.2779726 L16.8630172,13.250956 C17.6668122,14.8713816 18.490169,16.4811663 19.4602394,18.0116947 C19.9609437,18.8000313 20.5039014,19.5505362 21.0954507,20.2710294 C21.4947465,20.7867241 21.9341831,21.2645871 22.4158732,21.7039843 C22.5426338,21.8584814 22.6778451,22.0043131 22.815169,22.1457065 C23.2546056,22.52191 23.7278451,22.8516164 24.2454507,23.1242583 C24.6604742,23.4267241 25.0938597,23.6909485 25.5456072,23.9225722 L25.7158732,24.0079139 L27.3003803,24.6163914 C27.3848873,24.6403444 27.4703333,24.6642975 27.5560923,24.6870607 L27.6848873,24.7201644 L27.9257324,24.7706771 L28.1064836,24.6725166 C28.1367653,24.6563131 28.1672817,24.6403444 28.1982676,24.6248454 C28.2489718,24.5975812 28.2848873,24.6504188 28.2954507,24.6882505 C28.2996761,24.7032564 28.293338,24.72418 28.2827746,24.7453151 L28.5136901,24.620407 L28.5136901,24.620407 C28.910662,24.7816673 29.3319296,24.910591 29.783831,24.9955538 C29.988338,25.0338082 30.1932676,25.0631859 30.3984085,25.0883366 L30.4258889,25.1067006 C30.4304742,25.1099178 30.4350986,25.1134168 30.4398169,25.1175029 L30.6641831,25.1175029 L30.6641831,25.1175029 C32.2436197,25.2698865 33.8454507,25.0684697 35.4223521,24.7850489 C37.6537606,24.5605949 39.8847465,24.3131037 42.1144648,24.0816751 C42.1567183,24.0776595 42.1736197,24.0964697 42.1736197,24.1262701 L42.3109437,24.113589 L42.3109437,24.113589 C42.5095352,24.0922427 42.7419296,24.4240626 42.5919296,24.5447436 C42.7123521,24.6163914 42.8285493,24.7201644 42.915169,24.8004775 L42.9658732,24.7960391 C42.6595352,24.1958043 42.4229155,23.5680939 42.2539014,22.9152329 L42.0384085,21.820227 L42.0384085,21.820227 C41.9792535,21.4123209 41.9454507,20.9771507 41.9391127,20.5478982 C41.9243239,20.3513425 41.9137606,20.1676791 41.9137606,20.0068415 C41.9137606,19.8546693 41.9158732,19.7024971 41.9222113,19.5505362 C41.5017887,19.3770176 41.0750282,19.2250568 40.6398169,19.0959217 C39.4039014,18.9439609 38.1700986,18.7915773 36.9341831,18.6415186 C36.1926338,18.6689941 35.4510845,18.7218317 34.7116479,18.8042583 C33.8729155,18.8782309 33.0362958,18.9733386 32.2017887,19.0874677 C32.1236197,19.0959217 31.9841831,18.9902466 31.8996761,18.8676634 L31.5426338,18.9164853 L31.5426338,18.9164853 C31.3567183,18.9397339 31.1623521,18.567546 31.4074225,18.4914599 C31.4961549,18.4562348 31.5848873,18.4228885 31.6736197,18.3907945 L31.8067183,18.3435147 L31.730662,18.3519687 C31.7053099,18.3542935 31.6736197,18.3477417 31.6377042,18.335272 C31.4412254,18.3604227 31.2447465,18.3857847 31.0503803,18.4090333 C30.8038763,18.4398074 30.8598999,18.1146776 31.0328092,18.0381639 L31.1158732,18.0074677 C30.9698451,17.9163673 30.8413403,17.6671051 31.0219479,17.5856035 L31.0461549,17.5763131 C31.130662,17.5427084 31.2130563,17.5150215 31.2975634,17.483319 C31.2912254,17.4560548 31.2912254,17.4304814 31.2996761,17.4074442 L30.9510845,17.4516164 L30.9510845,17.4516164 C30.9192701,17.4557937 31.0708564,17.2332514 31.1434021,17.1892588 L31.1560141,17.1832016 L31.3229155,17.1324775 C31.3482676,17.0606184 31.4834789,16.9021057 31.5299577,16.8875225 C32.1426338,16.6949824 32.7130563,16.5218865 33.308831,16.3885245 C33.3384085,16.3525949 33.3722113,16.3251194 33.4102394,16.3166654 C33.7820704,16.2278982 34.1581268,16.1581526 34.5341831,16.0991859 C34.5595352,16.0609315 34.5848873,16.0336673 34.6144648,16.0313425 C35.5461549,15.9129863 36.4799577,15.8855108 37.4179859,15.9491272 C37.5975634,15.9658239 37.7771408,15.9850568 37.9567183,16.0080939 C38.3010845,16.0463483 38.6454507,16.0949589 38.9877042,16.1604775 C39.844998,16.3076679 40.6822537,16.5313973 41.4977797,16.8331886 L41.6855915,16.9042192 C41.8905211,16.9805166 42.093338,17.0606184 42.2940423,17.1474834 C42.3954507,16.7860744 42.5222113,16.4307945 42.6722113,16.0822779 C42.6954507,16.0144344 42.7208028,15.9491272 42.7482676,15.8836086 L42.543338,15.7608141 L42.543338,15.7608141 C42.4989718,15.8453542 42.4081268,15.9108728 42.3489718,15.8751546 C40.880662,14.8839217 39.3278451,14.0573307 37.6905211,13.3979178 C36.7736197,12.9921252 35.8355915,12.6478356 34.8743239,12.3601879 C34.3947465,12.2061135 33.9109437,12.0666223 33.4250282,11.9334716 C33.1820704,11.8825362 32.9391127,11.8318121 32.6919296,11.7895421 C31.4222113,11.4471546 30.1313662,11.2254481 28.821507,11.124 Z M77.2045352,14.4787632 C77.0262254,14.7869119 76.8407324,15.0921018 76.6440423,15.3930646 C75.6889014,16.8553973 74.543831,18.2276947 73.2453803,19.4241487 C73.5840423,19.4233033 73.9218592,19.4361957 74.2554507,19.4674755 C74.8307324,19.5217926 75.3941831,19.6173229 75.9434789,19.7511076 C75.9880563,19.7153894 76.0379155,19.6974247 76.0778451,19.7257456 L76.2210845,19.8248689 L76.2210845,19.8248689 C77.3993239,20.1429511 78.5055211,20.6430059 79.5075634,21.3129863 L79.4895978,21.180681 C79.4865305,21.1586301 79.4831972,21.1365793 79.4792535,21.1145284 C79.4961549,20.8545675 79.5003803,20.5943953 79.4919296,20.3365479 C79.2848873,18.8127123 78.7672817,17.4093464 78.1757324,15.9892838 C78.1645352,15.9618082 78.1725634,15.92609 78.1896761,15.8897378 C77.8911549,15.4019413 77.5643239,14.9302074 77.2045352,14.4787632 Z M77.4764366,2.49858317 C77.0348873,2.57889628 76.5975634,2.68245793 76.1623521,2.8113816 C75.3447465,2.93417613 74.552493,3.14975342 73.7877042,3.456 C72.7334789,3.83009002 71.7109437,4.26547162 70.6926338,4.72642661 C68.715169,5.62234051 66.8602394,6.75538943 65.1722113,8.12071233 C65.0644648,8.20292759 64.9609437,8.28767906 64.8574225,8.37221918 C64.4792535,8.69960078 64.1116479,9.04198826 63.7630563,9.40339726 C63.3975634,9.80073581 63.0299577,10.1982857 62.6644648,10.5975264 C62.2165775,11.0669354 61.7010845,11.4915382 61.2954507,11.9987789 C61.2130563,12.1023405 61.1412254,12.2164697 61.0757324,12.3308102 L61.3144648,12.4130254 L61.3144648,12.4130254 C61.515169,12.4806575 61.4813662,12.8568611 61.2827746,12.80191 C61.215169,12.7828885 61.1517887,12.7596399 61.0884085,12.7344892 C61.1158732,12.7704188 61.1348873,12.8063483 61.1391127,12.8378395 C61.1517887,12.9392877 61.0736197,13.0789902 60.9489718,13.0430607 C60.8919296,13.0280548 60.8348873,13.0069198 60.7778451,12.9836712 C60.7609437,13.0491898 60.7482676,13.1147084 60.7482676,13.1781135 C60.758831,13.1823405 60.7693944,13.1865675 60.7820704,13.1888924 C60.921507,13.2375029 61.1834789,13.4549824 61.221507,13.6031389 C61.2510845,13.7172681 61.1539014,13.8396399 61.0292535,13.8058239 C60.9362958,13.7804618 60.8454507,13.7424188 60.7567183,13.7001487 C60.8158732,13.7574247 60.8623521,13.8187162 60.8665775,13.8715538 C60.8750282,13.968775 60.7905211,14.1059413 60.6743239,14.0744501 C60.458831,14.0150607 60.2855915,13.9243914 60.1419296,13.8102622 C60.1039014,13.860775 60.0489718,13.9009315 60.0046056,13.8884618 L59.9222113,13.8630998 L59.9222113,13.8630998 C59.9447465,13.8840939 59.9654038,13.9062153 59.9854351,13.9279609 L60.015169,13.9601096 C60.5982676,14.5899335 61.1074225,15.2873894 61.515169,16.0378943 C61.5341831,16.0165479 61.5574225,15.9975264 61.587,15.9742779 C61.7771408,15.8136517 61.9736197,15.6572524 62.1700986,15.5052916 L62.2295176,15.4533258 L62.2295176,15.4533258 L62.2905211,15.4015186 L61.8489718,15.5473503 L61.8587406,15.5359066 C61.8899411,15.4959537 61.9870996,15.3626914 62.0323674,15.318293 L62.043338,15.3085245 C62.6496761,14.7655656 63.3109437,14.3046106 64.0250282,13.9286184 C64.4877042,13.6282896 64.9736197,13.3746693 65.4827746,13.1654325 C66.6975634,12.6011272 67.9355915,12.1722975 69.2074225,11.7749589 C69.3975634,11.7136673 69.5877042,11.6481487 69.7778451,11.5887593 C69.8327746,11.5697378 69.843338,11.5929863 69.8348873,11.6310294 L69.9341831,11.6014403 L69.9341831,11.6014403 C70.1116479,11.5443757 70.4137606,11.8571742 70.293338,12.0030059 C70.3660141,12.062184 70.437338,12.1281252 70.499738,12.1900086 L70.5447465,12.2354912 L70.5954507,12.2206967 C70.7463803,12.1741151 71.0010338,12.4095289 71.1627995,12.5762383 L71.2820704,12.7025753 C71.3729155,12.7997965 71.5503803,13.0005793 71.3327746,13.0789902 L71.0602394,13.171773 L71.0602394,13.171773 C71.0686901,13.2267241 71.0454507,13.2732211 70.9609437,13.3049237 C70.8658732,13.3366262 70.7729155,13.3704423 70.6799577,13.4044697 C70.7362958,13.4536438 70.7916948,13.5047906 70.8461549,13.5565949 L70.9271408,13.6346301 C71.022759,13.7323209 71.2496355,13.9476025 71.0493601,14.0426802 L71.0243239,14.0531037 L70.7644648,14.1460978 C70.7982676,14.222184 70.7898169,14.2942544 70.6757324,14.3363131 C69.158831,14.8520078 67.6778451,15.456681 66.230662,16.1435695 C65.1468592,16.743593 64.0017887,17.1918669 62.7954507,17.4854325 C62.6961549,17.5173464 62.480662,17.3672877 62.3919296,17.217229 L62.2118044,17.2702544 C62.1818357,17.2790137 62.1517887,17.2874677 62.121507,17.2952172 L62.0919296,17.3017691 L62.0919296,17.3017691 C62.3179859,17.9041174 62.4848873,18.5569785 62.5778451,19.1889159 C62.5884085,19.2459804 62.5968592,19.3053699 62.6031972,19.3624344 C62.8398169,19.3432016 63.0743239,19.3262935 63.3109437,19.3138239 C64.9482676,19.2269589 66.6046056,19.2797965 68.2461549,19.4742387 C68.9095352,19.0790137 69.5475634,18.6457456 70.1581268,18.1767593 C70.3440423,18.0328297 70.5278451,17.8848845 70.7095352,17.7348258 C71.7996761,16.7879765 72.7862958,15.7250959 73.6609437,14.5772524 C74.4700986,13.5141605 75.1736197,12.3728689 75.765169,11.1768376 C76.2891127,10.0543562 76.7222113,8.88770254 77.0496761,7.68300587 C77.3496761,6.58187084 77.4531972,5.51032485 77.5292535,4.37114677 C77.5546056,4.18515851 77.571507,3.9993816 77.5862958,3.813182 L77.5845743,3.73349511 L77.5845743,3.73349511 L77.5820704,3.69482583 C77.5609437,3.29558513 77.5208028,2.89592172 77.4764366,2.49858317 Z M61.9968592,16.6527123 C61.9482676,16.6696204 61.8975634,16.6865284 61.8468592,16.7013229 C61.8764366,16.7668415 61.9039014,16.8304579 61.9313662,16.8957652 L61.9345352,16.8944706 L61.9345352,16.8944706 L62.1341831,16.7372524 L62.1341831,16.7372524 C62.0919296,16.7182309 62.043338,16.6888532 61.9968592,16.6527123 Z M77.180662,-0.498300587 C77.5609437,-0.639905284 77.8482676,-0.667380822 78.0426338,-0.578613699 C77.7553099,-0.557478669 77.4679859,-0.530003131 77.180662,-0.498300587 Z" id="ðŸ–-Ink" fill="#000000"></path>
                    </g>
                    <g id="face/Smiling" transform="translate(112.183099, 77.354207)" fill="#000000" fill-rule="evenodd">
                        <path d="M30.968993,50.9198978 C29.548794,50.3403012 28.2816173,49.3734958 27.3551889,48.1384646 C27.0331038,47.7091169 26.9495926,47.2557326 27.017159,46.8410547 C27.0931327,46.3747786 27.3688808,45.9521824 27.7449394,45.6687178 C28.1221628,45.3843752 28.5940214,45.2441445 29.0502103,45.3156301 C29.4466117,45.3777469 29.8412104,45.5948709 30.1535058,46.0451781 L30.2187521,46.1352289 C30.7695298,46.8806513 31.4872438,47.4922614 32.3050288,47.8864795 C33.0932406,48.2664417 33.9747757,48.4437847 34.8870208,48.3406561 C36.6244504,48.1443157 37.8219743,47.2043274 39.0948115,45.9278391 C39.2525834,45.7666792 39.4104563,45.6004672 39.5690946,45.4315797 C39.6692778,45.278484 39.8083069,45.1800892 39.962667,45.1284632 C40.1340565,45.0711416 40.327938,45.0743848 40.5055187,45.1363808 C40.6767961,45.1961763 40.8299095,45.309486 40.9325762,45.4602937 C41.0301525,45.6036243 41.0854754,45.7806897 41.0675245,45.9843589 C40.9510195,47.3072301 40.2596776,48.4878363 39.2776553,49.4148615 C38.1869942,50.4444414 36.7412431,51.1567117 35.3801317,51.4065272 C33.8805866,51.6817086 32.3525901,51.4845569 30.968993,50.9198978 L30.968993,50.9198978 Z M36.0875289,30.5120405 C37.6828906,31.482148 40.1137318,33.7442494 38.3974899,36.149264 C36.3773089,38.2698449 33.4687045,35.8384541 32.0353946,34.7388307 C30.7063626,33.8866164 29.2131206,36.0784478 30.4461973,37.0735516 C40.8033244,44.7445605 45.006466,30.7657101 36.8944406,29.3714319 C36.0012775,29.2177885 35.6695544,30.2119271 36.0875289,30.5120405 Z M17.5274577,21.5886716 C17.7037243,19.3998697 21.0359789,18.9028321 21.3674577,21.0687499 C21.6642887,23.0089456 21.3148521,24.7912626 20.4412606,26.5380728 C19.6065423,28.2068947 17.5085456,27.4283107 17.3498837,25.9087021 C17.1372039,23.8717299 17.4178099,22.9502317 17.5274577,21.5886716 Z M42.8930282,20.6196517 C43.3576056,20.0109628 44.0283803,19.5954481 44.8320423,19.8302583 C47.3429577,20.5642779 46.6028873,24.1303914 45.7210563,25.8662114 C45.2419014,26.8088337 43.6930986,27.0478708 42.993169,26.2178982 C41.8523239,24.864411 41.3059859,22.1614521 42.756338,20.8282544 C42.7956338,20.7593542 42.8393662,20.68982 42.8930282,20.6196517 Z M20.4058944,12.0111429 L20.802522,11.9416942 C22.0295218,11.7294045 23.5551549,11.5254176 24.4231479,12.5122544 C24.8835,13.0355577 25.0419507,14.0081918 24.4231479,14.509092 C23.3346972,15.3904227 22.1313169,15.0488806 20.8269507,15.1234873 C19.7520211,15.1852016 18.7189225,15.3631585 17.6835,15.6592603 C15.4119507,16.3087397 13.5610352,17.4944149 11.6209648,18.7963327 C11.3663873,18.9671037 11.1065282,18.6414129 11.228007,18.4032211 C12.3479366,16.208771 14.5182887,14.4061644 16.6922324,13.3073542 C17.8525141,12.7208571 19.1222324,12.2343288 20.4058944,12.0111429 Z M40.6041287,11.0281289 L40.9077055,11.0902829 C44.2113469,11.7811043 48.5035506,13.1610768 50.0679842,16.4073021 C50.1275964,16.8663298 50.0646105,16.9647086 50.0133917,17.0289838 L49.9963385,17.0503723 C49.9541341,17.1052595 49.9204583,17.1809212 49.7215736,17.2433957 C49.6663832,17.2302408 49.6106433,17.216308 49.5543131,17.2015401 C48.8372041,17.0135386 48.2698321,16.7545401 47.720556,16.4857982 L47.1250012,16.192275 C46.4340388,15.8533498 45.7369757,15.5267598 44.9982488,15.2856588 C43.4217423,14.7712438 41.8001698,14.4088706 40.1534741,14.2153715 C39.7965654,14.1734678 39.4528848,14.0529641 39.1817455,13.8464404 C38.92438,13.6504079 38.7277692,13.3789964 38.6381257,13.0182314 C38.5219478,12.5513438 38.5553348,12.1978716 38.8057421,11.7766707 C38.9940329,11.4603578 39.263447,11.2411116 39.5728025,11.115213 C39.888177,10.9868648 40.2472278,10.9566068 40.6041287,11.0281289 Z" id="ðŸ–-Ink"></path>
                    </g>
                    <g id="facial-hair/Full-2" transform="translate(104.577451, 109.479380)" fill="#000000" fill-rule="evenodd">
                        <path d="M52.4221901,23.6127945 C51.6848662,23.3714325 50.9606408,23.0905479 50.2330352,22.8198082 C46.5128239,20.9504149 42.0189507,20.611409 38.1174718,22.1857573 C36.2025423,22.958454 34.4169085,24.3468141 32.4954296,25.2566771 C32.0390915,25.4270254 31.5789507,25.5817339 31.1137394,25.7115029 C30.8285282,25.6121683 30.5433169,25.5064932 30.2602183,25.400818 C28.2221197,24.6323483 26.3050775,23.6844423 24.4438099,22.6416399 C24.2452183,22.3620235 24.0392324,22.090227 23.8178239,21.8292094 C25.1646549,21.6379374 26.4833873,21.3200665 27.6764155,20.9920509 C31.3397958,19.988137 34.7919085,18.3522857 38.4426127,17.3039883 C41.8419085,16.3254364 45.5306408,15.7907202 48.9447254,17.0059843 C50.5651479,17.5829706 51.9912042,18.593225 53.5672606,19.273773 C54.3827535,19.6246145 55.3609225,19.9691155 56.3137394,20.0198395 C55.6989507,21.4929511 54.9214859,22.8688415 53.8588099,24.0143601 C53.3728944,23.9107984 52.8912042,23.7649667 52.4221901,23.6127945 Z M60.349162,12.0747593 C60.0229648,12.3459217 58.6767676,13.2209119 58.2400775,13.7425245 C58.1272606,13.6996204 58.0150775,13.6556595 57.9035282,13.6104305 C57.7114859,13.3745636 57.4285986,13.271002 57.1402183,13.2773425 C55.1270493,12.340638 53.3348662,11.0169511 51.7355704,9.35721722 C50.5989507,8.17999609 49.4348662,6.94782387 47.9158521,6.26516243 C46.1264155,5.45780431 44.3665563,5.82978082 42.4862746,5.95236399 C40.4855704,6.08551468 38.5102183,5.51698239 36.5116268,5.78962427 C35.0496549,5.99040705 33.6806408,6.60966341 32.4975423,7.48254012 C30.0827535,9.26422309 28.4179648,11.7666106 26.3771197,13.9244971 C24.0616268,16.3719335 21.2137394,17.9359256 18.046838,18.7348297 C18.0088099,18.7094677 17.968669,18.6841057 17.9285282,18.6608571 C15.5940211,16.5473542 13.4855704,14.1612094 11.6200775,11.6186654 C9.7989507,9.13529941 4.99683803,-2.04301761 3.83697887,-3.02368297 C3.35528873,-3.43158904 2.82711972,-3.60700978 2.32219014,-3.59221526 C1.40740141,-3.57108023 0.562330986,-2.93491585 0.184161972,-1.93311546 C-0.458091549,-0.229632094 -0.136964789,1.97263796 -0.0862605634,3.75432094 C-0.0228802817,5.93545597 0.12078169,8.1144775 0.348950704,10.285045 C0.575007042,12.4302505 0.875007042,14.5691155 1.2489507,16.6931859 C1.43697887,17.7668454 1.6461338,18.8383914 1.87641549,19.9057104 C1.94824648,20.2417573 2.03909155,20.5418748 2.1489507,20.8208571 C2.26092254,21.3471194 2.38134507,21.8712681 2.51021831,22.3911898 C3.35106338,25.7960431 4.67782394,29.2051233 7.21092254,31.7180783 C9.84754225,34.3367084 13.4306408,36.0761213 16.7581056,37.6316595 C19.9271197,39.113225 23.2482465,40.4299374 26.655993,41.4613268 C29.6158521,42.8034012 32.7848662,43.8643796 35.9665563,44.4223444 C39.4693732,45.0373738 43.1517676,45.0754168 46.534162,43.8580391 C48.196838,43.2599178 49.768669,42.4250841 51.1947254,41.3852407 C53.2165563,40.3348297 55.0355704,38.8913072 56.525007,36.9807006 C59.192706,33.5565513 60.4660235,29.4012411 61.0231856,25.1164508 C61.1657905,24.0197643 61.7019307,19.8165841 61.7440898,19.1621818 C61.8802406,17.0488169 62.0163914,14.9355171 62.1525423,12.8220939 C62.2167676,11.8247319 60.9931056,11.5400431 60.349162,12.0747593 Z" id="ðŸ–-Ink"></path>
                    </g>
                    <g id="accessories/*-None" transform="translate(88.521127, 88.978474)"></g>
                </g>
            </g>
        </g>
    </g>
</svg>