<?xml version="1.0" encoding="UTF-8"?>
<svg width="240px" height="324px" viewBox="0 0 240 324" version="1.1" xmlns="http://www.w3.org/2000/svg" xmlns:xlink="http://www.w3.org/1999/xlink">
    <!-- Generator: Sketch 62 (91390) - https://sketch.com -->
    <title>peep-28</title>
    <desc>Created with Sketch.</desc>
    <g id="Introduction" stroke="none" stroke-width="1" fill="none" fill-rule="evenodd">
        <g id="variations" transform="translate(-846.000000, -2054.000000)">
            <g id="images" transform="translate(126.000000, 110.000000)">
                <g id="a-person/bust" transform="translate(720.000000, 1944.000000)">
                    <g id="body/Tee-1" transform="translate(31.056338, 135.052838)" fill-rule="evenodd">
                        <path d="M163.580535,116.881512 C162.728915,112.07037 161.948282,107.246318 161.238845,102.411896 C160.902085,100.116693 160.573563,97.8193746 160.278211,95.5182464 C160.07138,93.9059964 159.75638,92.0624272 160.852859,90.8683717 C162.395746,89.1877629 163.797296,87.7492668 163.986169,85.3418968 C164.163845,83.0767469 163.398211,80.607579 162.919479,78.408883 C161.915535,73.7981611 160.665676,69.2443696 159.28462,64.7337519 C157.881592,60.1509661 156.343141,55.6113542 154.782507,51.0804194 C153.323493,46.8440833 151.920887,42.5696524 150.020535,38.5051654 C146.413986,30.7918463 140.312577,25.0797659 132.772014,21.2656453 C130.896592,20.3170887 127.071493,16.930898 125.112197,16.1728145 C123.310929,15.4756825 123.317366,17.5112064 121.54462,16.7444458 C120.127437,16.1315453 118.807859,15.3142036 118.014338,13.945336 C117.152789,12.4590099 114.992223,10.3801664 114.66328,8.65003464 C113.966308,4.98279012 114.72131,1.86150285 112.104972,-0.898665838 C109.782296,-3.34963299 106.660394,-5.0287603 103.430113,-5.93012193 C96.3239155,-7.91294822 86.8468732,-6.5267264 82.5594085,0.0790967238 C80.5115915,3.23375663 79.7960282,7.04681898 77.0328592,9.62138209 C74.6199718,11.8693894 75.1599467,13.4062967 72.0348763,14.5647972 C71.8578341,14.6306163 67.0604789,13.6011899 66.8834366,13.667009 C63.4647042,12.9351685 60.1971549,14.9838383 57.0606761,16.1728145 C52.3846901,17.9448504 47.9328592,20.2514812 43.7503944,22.9928142 C35.3168028,28.5207705 28.0935634,35.6988599 22.1385634,43.8216964 C16.134338,52.0114102 11.4756761,61.1909499 8.15856338,70.7848747 C7.353,73.1152088 6.62940845,75.4739023 5.99116901,77.8556641 C5.63391549,79.1885535 5.25215493,80.5711774 5.68715493,81.9358123 C6.04292958,83.052197 6.83433803,83.8835068 7.76370423,84.5533377 C9.02349296,85.4614717 11.5504648,86.0517271 11.5012394,87.8781537 C11.4636338,89.2669151 10.9927183,90.7282681 10.7628592,92.1005218 C10.4892676,93.7347821 10.2644789,95.3785661 10.0396901,97.020022 C9.01715493,104.491228 8.22130986,112.004551 7.86933803,119.539248 C7.52285915,126.957969 7.23532394,134.528433 7.74976056,141.945037 C7.78377465,142.43413 7.9295493,142.883012 8.16469014,143.262477 C7.9451831,143.346497 7.92828169,143.755803 8.2014507,143.813791 C8.39285915,143.854425 8.58384507,143.894848 8.77525352,143.935482 C9.17285915,144.23643 9.66870423,144.420977 10.239338,144.438967 C10.626169,144.451242 11.0127887,144.468596 11.3991972,144.48849 C15.4768732,145.341175 19.5539155,146.146665 23.684831,146.756602 C28.7062394,147.497967 33.7424366,148.102402 38.7942676,148.593823 C49.1749014,149.603331 59.4737746,149.268521 69.8681408,148.724403 C80.2464507,148.180919 90.6186338,148.053937 101.007718,148.324197 C111.405887,148.594881 121.800254,149.04736 132.200746,149.232543 C143.820254,149.4391 155.422014,149.121645 167.00793,148.197638 C168.596451,148.071079 169.579268,146.80676 169.265958,145.228372 C167.388845,135.772012 165.261592,126.378719 163.580535,116.881512 Z" id="ðŸŽ¨-Background" fill="#FFFFFF"></path>
                        <path d="M63.6413239,13.4343123 C64.715831,13.3876039 65.8114648,13.5615452 66.8834366,13.667009 C66.9768169,13.6760971 67.0123099,13.820238 66.9070986,13.8422184 C64.9886303,14.2431499 63.0911897,14.7916568 61.2069925,15.3486993 L60.4002676,15.5875491 C58.2755493,16.2163162 56.2131549,16.8649503 54.1562535,17.7035883 C50.0568169,19.3749464 46.1633662,21.6308994 42.5800563,24.2226881 C28.7817465,34.2028603 18.7951268,49.3131382 12.4930141,64.9574982 C10.7815352,69.2060618 9.33139437,73.5603006 8.15674648,77.9878779 C7.87111268,79.0651303 7.60238028,80.1466098 7.34759155,81.2314708 C7.27280282,81.549553 6.9468169,82.3640971 7.1255493,82.6895765 C7.28357746,82.9772243 7.89794366,83.1549699 8.1833662,83.3046059 L9.14698228,83.8044493 C11.026604,84.7735821 14.1575601,86.3665725 14.4715352,86.52178 L14.9612138,86.7629923 C22.970505,90.6909542 31.5283606,94.0218115 40.5413239,94.2523397 L40.6118873,93.4823906 L40.6118873,93.4823906 C41.0137183,89.2255843 41.5410423,84.9461636 42.6920282,80.8201832 C42.7539296,80.5984767 43.0359718,80.6732947 43.0617465,80.8702732 C43.7029437,85.7547898 43.4980141,90.6773495 43.2742817,95.5844806 C42.8781549,104.275627 42.3520986,112.961913 41.8845634,121.649678 C41.6504789,125.995674 41.3479437,130.338712 41.0747746,134.682383 C40.8011831,139.034719 40.712662,143.491674 40.0879437,147.808081 C39.9487183,148.770148 38.8222394,149.293451 37.9691408,149.192003 C37.0251972,149.079565 36.2990704,148.247901 36.2946338,147.2945 C36.2832254,144.779854 36.5990704,142.23562 36.7746338,139.727314 C36.9413239,137.344128 37.1202676,134.962211 37.3036479,132.580293 C37.9737887,123.887244 38.7447042,115.20434 39.4577324,106.515095 C39.7104085,103.433185 39.9833662,100.354023 40.2643521,97.2750716 C30.7165352,96.9671342 21.7966056,93.4293417 13.287169,89.2957526 C13.164,92.0933965 12.8665352,94.8859679 12.5785775,97.6719875 C11.7747042,105.446719 11.0659014,113.218492 10.5354085,121.017318 C10.2675211,124.956254 10.0725211,128.90005 9.90266197,132.844269 C9.81921127,134.782774 9.7511831,136.721702 9.699,138.661263 C9.68153521,139.307714 9.66576056,139.954258 9.65180125,140.600833 L9.62277405,142.082063 C9.5990243,143.020561 9.50365554,143.889909 8.71428169,144.573154 C7.91252113,145.267017 6.82956338,145.304003 6.03604225,144.573154 C4.97378873,143.594602 5.16160563,142.261404 5.19308451,140.947228 C5.21928169,139.838696 5.25076056,138.730375 5.28730986,137.622265 C5.36061972,135.405835 5.45421127,133.190038 5.56808451,130.975299 C5.96656247,123.23231 6.76273357,115.5202 7.80322649,107.839158 L8.2093983,104.874102 C8.96790662,99.3620622 9.80064457,93.7246478 11.4962535,88.4148446 C10.8360423,88.0864063 10.1777324,87.7556431 9.52195775,87.4234004 C8.35871831,86.8341558 7.15597183,86.2812634 6.02526761,85.6309386 C5.12822535,85.1150325 4.35456338,84.4074317 4.10484507,83.3631499 C3.82634608,82.1996484 4.25221293,80.9270502 4.5351332,79.7921891 L4.55970423,79.692418 C4.83709859,78.5494356 5.13583099,77.4115256 5.45104225,76.2784767 C6.72921127,71.6839327 8.30970423,67.1790012 10.1593521,62.7839718 C13.8628732,53.9850364 18.6432254,45.6259209 24.4824507,38.0678231 C29.7385775,31.2644571 35.9477324,25.0947194 43.2250563,20.467416 C46.7828028,18.2051225 50.5742113,16.3475648 54.5838592,15.0342341 C56.4580141,14.4204728 58.497169,13.886602 60.4594225,13.6667977 C61.5178732,13.5484415 62.5778028,13.480598 63.6413239,13.4343123 Z M82.6794085,-0.508403131 C83.9563099,-1.88006654 86.4932113,-0.460637965 85.8801127,1.35570646 C84.438,5.62899804 82.1415211,9.52693151 78.5575775,12.3349315 C75.1887042,14.9746967 71.1714507,16.6889589 66.8451127,16.3231115 C66.8117324,16.3201526 66.7827887,16.3116986 66.7572254,16.2996517 L67.1300556,16.8055511 C70.0571184,20.7664722 73.1450351,24.6726817 76.8668028,27.91018 C84.449831,34.5066341 94.7744789,38.0645049 104.744197,35.5335851 C112.588141,33.542454 119.498704,27.3374207 121.531099,19.4295382 C121.239761,19.5601526 120.893493,19.6047476 120.513423,19.5221096 C118.887296,19.1689432 117.277437,17.4580626 116.228704,16.2313855 C115.094197,14.904317 114.208141,13.471362 113.558704,11.8515734 C112.370113,8.88717417 111.988986,5.07039922 113.611944,2.19878278 C113.812225,1.84477104 114.274056,2.04322896 114.313352,2.38878669 L114.375143,2.92817968 C114.688032,5.61937583 115.077771,8.22266243 116.346169,10.6760431 C116.966873,11.8765127 117.710958,13.0482387 118.616662,14.0536321 C119.10131,14.5915186 119.626732,15.1055225 120.193986,15.556544 C120.746761,15.9959537 121.415753,16.3136725 121.911219,16.8178812 L122.002014,16.914681 L122.004549,16.8973503 C122.129831,15.8319335 122.876662,15.3625245 123.607437,15.3919022 C124.314638,15.4203322 125.145294,15.7317346 125.466986,15.8808968 L125.497435,15.8952558 C130.430953,18.2644404 134.974756,21.3525226 139.250746,24.7786027 C148.093563,31.86391 154.719127,41.1263366 157.929338,52.0337025 C159.504938,57.3869199 160.409049,62.9029688 161.363415,68.3932924 L161.950955,71.7571824 C162.841744,76.825724 163.836781,81.9939549 165.847648,86.7088885 C166.367789,87.928591 165.966803,89.0724188 164.69138,89.5519726 C163.098845,90.1509393 161.500394,90.7308845 159.899408,91.3036438 C160.685535,94.6774286 161.164901,98.16809 161.753915,101.558571 C163.005887,108.765405 164.539901,115.926164 165.855254,123.123487 C166.527718,126.803519 167.134479,130.495808 167.80631,134.176262 C168.129761,135.948646 168.467366,137.718493 168.795676,139.490031 C168.972507,140.445335 169.132859,141.403597 169.301662,142.360168 L169.331039,142.518914 C169.427732,143.02356 169.549237,143.545531 169.410465,144.050548 C169.252225,144.626477 168.802859,145.033327 168.401662,145.446305 C168.071451,145.786368 167.594197,145.788481 167.18962,145.602916 L167.056548,145.541328 C166.333952,145.203229 165.767885,144.865974 165.511521,144.050548 C165.349268,143.534219 165.290746,142.952583 165.18469,142.420614 C164.981239,141.400849 164.788352,140.379816 164.606239,139.355824 C164.242014,137.307205 163.886239,135.257108 163.538915,133.205319 L163.214504,131.284113 C162.101053,124.662697 161.043665,118.001015 160.509127,111.30964 C160.272,108.341098 160.020676,105.375127 159.767054,102.408587 L159.576592,100.183526 C159.335746,97.3672838 159.041451,94.479816 158.999831,91.6255303 L158.042498,91.9655401 L158.042498,91.9655401 L153.371239,93.6175068 L153.371239,93.6175068 C152.21307,94.0268924 150.738423,94.865953 149.491944,94.7133581 C148.881803,94.6385401 148.416592,94.4464227 148.057437,94.097272 C148.487577,100.17 149.069831,106.23216 149.845817,112.263464 C150.551873,117.751386 151.33462,123.23191 152.259127,128.687495 C152.716944,131.388975 153.187437,134.087918 153.698493,136.779675 C153.953915,138.125765 154.217577,139.469953 154.489268,140.812873 C154.62469,141.482853 154.785887,142.153468 154.891521,142.828943 C155.012366,143.602485 154.799408,144.078446 154.367366,144.714822 C154.012648,145.237491 153.303,145.505906 152.727718,145.145131 C151.965887,144.666845 151.568493,144.252599 151.344338,143.381624 C151.140676,142.59054 151.016873,141.764583 150.859268,140.963354 C150.568352,139.484325 150.287155,138.003605 150.015676,136.520771 C149.448,133.41984 148.92469,130.311299 148.457366,127.19346 C146.810535,116.209796 145.765606,105.134196 145.237859,94.0406301 C144.977366,88.5672916 144.896873,83.089092 144.943141,77.610047 C144.966803,74.8016243 145.058493,71.9851703 145.257085,69.1837221 C145.458211,66.3480352 145.876521,63.5689902 146.250042,60.7605675 C146.263141,60.6616556 146.402577,60.6559491 146.408493,60.7605675 C146.585324,63.9092642 146.862507,67.0543679 146.998352,70.2113072 C147.12807,73.223683 147.184901,76.2407084 147.288,79.2541409 C147.423423,83.2152681 147.611239,87.1787202 147.859901,91.1394247 C148.310113,90.6467671 148.988704,90.3627123 149.667718,90.4736712 C150.65138,90.267182 151.710254,89.7508532 152.64807,89.4374207 L156.183423,88.2559726 L156.183423,88.2559726 C158.041944,87.6350254 159.900465,87.0183053 161.765535,86.420184 C160.098037,80.808125 158.955761,75.1124438 157.980376,69.3337199 L157.545373,66.7348328 C156.68431,61.619303 155.755897,56.5013559 154.196239,51.5475969 C152.556592,46.3395029 150.10293,41.4974677 146.84793,37.1125832 C143.639408,32.7911037 139.735817,28.985953 135.716662,25.4268141 C132.275746,22.3799883 128.594831,19.6290528 125.085254,16.6659217 C125.122014,16.8622661 125.129831,17.0784775 125.097507,17.3160352 C124.35131,22.7794403 121.502366,27.8672759 117.532014,31.6515029 C109.555606,39.2539843 97.748493,40.8312916 87.5396197,37.2662348 C77.664338,33.8178434 68.9332817,25.6508454 65.8485634,15.5447084 C65.7957465,15.3718239 66.0272958,15.303135 66.1202535,15.4301566 C66.2913803,15.6647554 66.4633521,15.8993542 66.6355352,16.133953 C66.6239155,16.0407476 66.6722958,15.9392994 66.7872254,15.8949159 C70.3863803,14.5046536 73.9206761,12.5329667 76.6185634,9.74377691 C77.933493,8.38416047 79.0810986,6.84383953 79.9870141,5.18262622 C80.4209577,4.38689237 80.8107465,3.56283757 81.1217324,2.71130724 L81.2007668,2.49100266 C81.5776499,1.42432911 81.8926138,0.336629884 82.6794085,-0.508403131 Z" id="ðŸ–-Ink" fill="#000000"></path>
                    </g>
                    <g id="head/Bantu-Knots" transform="translate(78.591549, 38.043053)" fill-rule="evenodd">
                        <path d="M87.1390141,52.886501 C86.8975352,48.2615225 86.6856338,43.482681 85.7991549,38.9285049 C85.3645775,36.6960117 84.4954225,34.6349237 83.0894366,32.8428845 C81.8032394,31.2030176 80.184507,29.9311115 78.5425352,28.6678708 C75.2425352,26.1289198 72.069507,23.3179609 68.3757042,21.3540939 C64.8312676,19.4696947 60.999507,18.3322074 57.0287324,17.8213738 C49.3812676,16.8375382 41.3488732,18.4750802 34.7078873,22.4038708 C28.266338,26.2149393 23.0879577,32.1291546 19.883662,38.871863 C18.2911268,42.2226106 17.0949296,45.7589237 16.4505634,49.4159178 C15.6826056,53.775229 15.7521127,58.1467984 15.7797887,62.5549315 C15.7892958,64.0364971 15.7759859,65.5172172 15.7022535,66.9951898 C15.5820423,67.7125127 15.5157042,68.4389237 15.5165493,69.2175382 C14.0585915,71.1368102 13.4653521,73.7019687 14.3790845,76.0646536 C15.8366197,79.8347202 19.9721831,81.5491937 23.726831,80.8914716 C23.8947887,81.8715029 24.2997887,82.8371624 24.8040845,83.7770372 C25.6662676,85.3832994 26.6300704,86.956591 27.6530282,88.464998 C29.7692958,91.5860078 32.1842958,94.4153542 35.0657746,96.8562387 C40.7778169,101.694892 48.0137324,104.865358 55.5177465,105.3242 C62.349507,105.741828 69.5545775,103.79825 75.1259155,99.7891468 C78.0175352,97.7084031 80.52,95.1584618 82.3793662,92.1048728 C84.5514085,88.5377025 85.7300704,84.4311663 86.3416901,80.3261096 C87.6840845,71.3139217 87.6124648,61.9654755 87.1390141,52.886501 L87.1390141,52.886501 Z" id="ðŸŽ¨-Background" fill="#FFFFFF"></path>
                        <path d="M33.2676338,5.09157652 C33.0094648,2.18086027 35.6910845,-0.00915146771 38.1793944,0.806026614 C38.6359437,0.862879843 39.0800282,1.00702074 39.4767887,1.24943953 C40.6220704,1.94922035 40.8724225,3.07783092 40.5732676,4.05342387 C41.1109437,4.45942779 41.5345352,5.00978395 41.747493,5.67363523 C41.967,6.35756477 41.9441831,7.02099335 41.7375634,7.5990364 C42.5181972,8.11494247 43.1082676,8.8933456 43.2453803,9.85773699 C43.3104507,10.3157331 43.2842535,10.7699249 43.175662,11.1873417 C44.357493,11.5886959 45.3219296,12.48778 45.3073521,13.8482419 C45.9937606,13.8922027 46.6810141,13.9019249 47.3805211,13.8630364 C47.4802394,13.5813065 47.6025634,13.3065511 47.7840423,13.0535648 C48.150417,12.5439165 48.6710419,12.1937998 49.2473696,11.9754699 L49.3262958,11.9465119 L49.3250282,11.7918035 C48.8836901,11.3025276 48.6770704,10.6853847 49.1471408,10.0132908 C49.2278451,9.89810489 49.3260845,9.80299726 49.4357324,9.72141605 C49.4746056,9.42975264 49.5375634,9.14104814 49.6148873,8.8572047 C49.2253099,8.31403444 49.2675634,7.41283679 49.9210141,7.14315382 C49.8299577,6.61350998 49.8246761,6.06421057 49.9229155,5.51068415 C50.3260141,3.2428955 52.5139014,1.69834755 54.7685493,1.78500117 C55.0508028,1.79578004 55.3254507,1.83826145 55.5908028,1.90589354 C56.1396761,1.96338082 56.6858028,2.08617534 57.2228451,2.268782 C57.8427042,2.47970959 58.0022113,2.99751781 57.8657324,3.43522427 C58.7074225,4.56108728 58.9463662,6.09062935 58.0987606,7.46525166 C58.0664366,7.51745519 58.0309437,7.5671225 57.9960845,7.61721252 C58.1661549,7.74507945 58.3140423,7.91373699 58.4239014,8.13037104 C58.6998169,8.67565479 58.6317887,9.36761566 58.2107324,9.82265284 C58.0987606,9.94396791 57.953831,10.0350599 57.795169,10.0936039 L57.7924225,10.1384102 L57.7924225,10.1384102 C57.737493,10.8686254 57.621507,11.6007429 57.4024225,12.2903789 C58.2948169,13.1195061 58.8874225,14.2479053 58.9924225,15.4638035 C59.3249577,15.4946607 59.6572817,15.5308016 59.9891831,15.5684219 C60.0381972,15.2351225 60.2403803,14.9350051 60.5471408,14.7025198 C60.803831,14.5080775 61.0778451,14.3525237 61.3592535,14.2360697 C61.4948873,13.5371342 61.8267887,12.8675765 62.3870704,12.3362419 C62.5949577,12.1392634 62.8220704,11.9655335 63.0639718,11.8161088 C63.0504507,11.058418 63.2192535,10.3013613 63.638831,9.58446106 C63.9878451,8.98824188 64.4959437,8.55581918 65.0752394,8.2806411 C65.4977746,7.43101292 66.2800986,6.73778395 67.4186197,6.34382701 C68.2694614,6.04958616 69.1697705,6.39927848 69.8166407,6.94916067 L69.9612254,7.07594442 L69.9612254,7.07594442 C70.5546761,7.5998818 70.7691127,8.56258239 70.5502394,9.30526732 C70.4473521,9.65420665 70.2755915,10.0619014 70.0262958,10.3930873 C70.2897465,11.5548798 69.7655915,12.5241323 68.9625634,13.068782 C69.237,13.4593573 69.4677042,13.8926254 69.662493,14.3552712 C69.9992535,15.1552321 69.620662,16.151326 69.0134789,16.7815726 C69.2792535,17.2055413 69.4518592,17.700101 69.5152394,18.1967742 C69.7860845,18.2126254 70.0552394,18.2608133 70.3205915,18.3362654 C70.4644648,17.8476235 70.7350986,17.3934317 71.1491831,17.0225119 C71.330662,16.6680775 71.5461549,16.3381597 71.7872113,16.0496665 C72.1670704,15.594418 72.6593239,15.2664023 73.1965775,15.132829 C73.2681972,14.9639601 73.3696056,14.8022771 73.4967887,14.6545432 C73.3685493,13.1734004 74.3496761,11.6440697 75.8608732,11.6428016 C75.9675634,11.2974552 76.0979155,10.9559131 76.2540423,10.6209229 C76.560169,9.96383483 77.2089718,9.57030059 77.9127042,9.44095421 C78.3259437,8.43365871 79.1378451,7.70111859 80.5311549,7.57895812 C83.6437606,7.30631624 85.6017887,11.0818779 84.8416479,13.7926568 C84.6155915,14.5979014 84.0863662,15.3388955 83.3839014,15.7939327 C83.2000986,15.9129229 83.0148169,15.9993652 82.8274225,16.0708016 C82.6400282,16.3326646 82.3877746,16.5653613 82.0634789,16.7549425 C81.9916479,16.7970012 81.9177042,16.8348329 81.8416479,16.8686489 C81.8490423,18.078418 81.0143239,19.0622536 79.9782676,19.3752634 C80.0448169,20.1380266 79.8498169,20.902692 79.2707324,21.4936274 L79.2295587,21.5333065 L79.2295587,21.5333065 L79.1452394,21.6088133 L79.1384789,21.6422067 C79.3444648,22.1731186 79.3229155,22.7579249 79.0271408,23.2391695 C79.0531268,23.6813143 79.1312958,24.1135256 79.2798169,24.5243906 C79.8519296,24.9874591 80.3568592,25.5194278 80.808338,26.0968368 C81.1098169,25.8237722 81.5648873,25.700555 81.9584789,25.8497683 C82.0677042,25.8125706 82.1800986,25.7884767 82.2880563,25.7776978 C82.4676338,25.7595217 82.6436197,25.7601558 82.8164366,25.7728368 C82.8962958,25.6568055 82.9877746,25.5464806 83.0923521,25.4431303 C83.8273521,24.7162967 84.8940423,24.7313025 85.7408028,25.1827468 C85.8922817,25.0722106 86.0631972,24.9745667 86.2567183,24.8927742 C88.4152394,23.9824885 89.8300986,26.722645 90.0405211,28.4305667 C90.1552394,29.3624102 89.3536901,29.9370716 88.5310141,29.9854708 C88.3639014,30.5504102 87.8272817,30.9570481 87.2279155,31.0950599 C87.3343944,31.7929386 86.8717183,32.505189 86.2417183,32.770645 C85.9605211,32.8892125 85.6884085,32.9215491 85.4323521,32.887099 L85.4446056,33.052375 L85.4446056,33.052375 C85.4942535,33.7077722 85.1629859,34.1249777 84.7093944,34.3099092 C84.6295352,34.6345432 84.4079155,34.8699875 84.1305211,34.9906685 C85.190662,37.4474043 86.027493,40.0212282 86.702493,42.5597566 C87.8167183,46.7504102 88.5658732,51.0173613 89.0682676,55.3229894 C89.952,62.8920775 89.9866479,70.6167194 89.1018592,78.1889777 C88.6516479,82.0423162 87.903338,85.8085785 86.3729155,89.387373 C85.0964366,92.3724845 83.3207324,94.9630051 81.2771408,97.4696196 C77.217,102.448187 71.4054507,106.115749 65.0004507,107.02688 C61.638338,107.505166 58.1900282,107.349612 54.9090423,106.433197 C51.6422113,105.520798 48.1590423,103.956171 46.1010845,101.177549 C45.5437606,100.425353 45.8150282,99.2050168 46.4355211,98.584281 C47.1434789,97.8760462 48.1630563,97.8303945 49.0275634,98.2497135 C50.5615775,98.9938779 51.9405211,100.011107 53.5000986,100.721244 C54.9073521,101.362269 56.4291127,101.772712 57.9443239,102.062684 C60.9458028,102.637346 64.2094648,102.490457 67.2018592,101.689228 C72.6284789,100.236618 77.4096761,96.7307389 80.4449577,92.0032556 C84.0305915,86.4183241 85.310662,79.8730168 85.8967183,73.3505354 C86.5379155,66.2115452 86.4709437,58.9744885 85.6203803,51.8557879 C85.1986901,48.3256039 84.5496761,44.8271225 83.7812958,41.3573847 C83.2343239,38.8869112 82.6172113,36.4329229 82.0364366,33.9709033 C81.5097465,33.468101 81.0005915,32.9488133 80.5100282,32.4107155 L80.4950282,32.4096587 L80.4950282,32.4096587 C80.4329155,32.4250873 80.3682676,32.4367115 80.2989718,32.4419953 C77.3845352,32.6643358 74.2258732,32.3716157 71.7394648,30.6913808 C70.7289718,30.008508 69.8741831,29.1440853 69.2380563,28.1488368 C68.3446056,27.5293691 67.5305915,26.7477957 66.9191831,25.8446959 C66.485662,25.368735 66.0747465,24.8714278 65.6841127,24.3559444 C64.7116479,23.0713573 64.1948873,21.7231538 63.6149577,20.2409542 C63.6014366,20.2069268 63.5925634,20.1735335 63.5858028,20.1407742 C63.4748873,19.9592243 63.3960845,19.7603436 63.3580563,19.5595609 C62.0642535,19.4059092 60.765169,19.3040384 59.4787606,19.2427468 C59.0232676,19.221189 58.566507,19.2040697 58.1095352,19.1892751 C58.2295352,19.6358583 58.3017887,20.0991382 58.3174225,20.5748877 C58.6862958,20.591373 59.0623521,20.6342771 59.4472817,20.69578 C61.2527746,20.9834278 62.4107324,21.9082967 63.5072113,23.3575256 C64.5745352,24.7680775 65.4253099,26.4645863 66.0574225,28.114598 C66.4448873,29.1248524 65.9279155,30.2416274 65.0781972,30.8919523 C62.8721408,31.07942 60.7045352,31.55369 58.6742535,32.4933534 C58.6028451,32.5265354 58.5510845,32.5846568 58.5168592,32.6531342 C56.8955915,33.136281 55.2622817,33.5782145 53.6300282,33.9533613 C52.0541831,34.3156157 50.4629155,34.4663084 48.8784085,34.066645 C48.1972817,33.8948172 47.5311549,33.6403515 46.8760141,33.3550286 C46.5240423,33.3977213 46.1429155,33.3305119 45.7552394,33.1081714 C45.168338,32.7719131 44.5778451,32.4041636 43.9964366,32.0085159 C42.9690423,31.515647 41.9585493,30.9862145 40.9934789,30.3811186 L40.9881972,30.3737213 L40.9881972,30.3737213 C40.2185493,29.4397644 39.1205915,28.4882654 37.8914366,27.7677722 C37.7553803,27.5600149 37.6353803,27.3414787 37.5396761,27.1079366 C37.0108732,25.8210247 37.2316479,24.2644297 38.3471408,23.3792947 C38.3634085,23.0738935 38.4962958,22.7748329 38.7910141,22.5349503 C39.0242535,22.3449464 39.2644648,22.1644532 39.5108028,21.9924141 C39.4592535,21.9541597 39.4072817,21.9171734 39.3559437,21.8780736 C39.2545352,21.8013534 39.1571408,21.7187155 39.0620704,21.6335413 C38.3173521,22.0418701 37.5660845,22.4415335 36.7977042,22.7974474 C36.7782676,22.8116078 36.7598873,22.8266137 36.7393944,22.8399288 C35.2945352,23.7886802 33.927,24.8784023 32.4641831,25.7927037 C32.1139014,26.0114513 31.7650986,26.223647 31.418831,26.4364767 C31.2889014,26.6137996 31.1619296,26.7936587 31.0393944,26.9768994 C30.987,27.2588407 30.9073521,27.5403593 30.8084789,27.8144806 C30.9998873,27.9668642 31.1555915,28.167647 31.2614366,28.4056274 C31.7160845,28.5787233 32.1439014,28.7983162 32.5429859,29.0601793 L32.8968592,29.2172125 L32.8968592,29.2172125 C33.3517183,28.8524219 33.8323521,28.5227155 34.3486901,28.2485941 C35.9693239,28.3538466 37.7207324,29.5025354 38.952,30.6736274 C39.0381972,30.7708485 39.122493,30.8689151 39.2029859,30.9684611 C39.2809437,31.0314434 39.3595352,31.0984415 39.4379155,31.1641714 C39.5653099,31.3013378 39.6842535,31.4370247 39.7932676,31.5691186 C39.9155915,31.7176978 40.0537606,31.7994904 40.1940423,31.8337292 C40.9482676,32.5421753 41.6549577,33.3393886 42.138338,34.1676705 C42.9145352,35.4974865 42.3705211,37.1551068 41.8024225,38.4599836 C41.7094648,38.6730247 41.6116479,38.8826841 41.5089718,39.0900188 C40.4226338,40.5540423 39.3927042,42.0590677 38.3634085,43.5645159 C37.6698169,44.2351303 36.9810845,44.9099718 36.3221408,45.6116548 C36.2141831,45.6839366 36.1007324,45.7532595 35.9760845,45.81751 C34.0585095,46.8047915 32.2039273,45.693407 30.3769503,45.0013059 L30.172929,44.9257863 C28.2902372,44.2447476 25.9467115,43.7972057 25.8278451,41.3447037 C25.8115775,41.0105589 25.8244648,40.6681714 25.8576338,40.3219796 C26.3211549,39.093189 26.8522817,37.8870129 27.4444648,36.7121166 C27.3250986,36.5829816 27.2179859,36.4398975 27.1277746,36.280328 C26.937,36.0385432 26.777493,35.777737 26.6560141,35.5025589 C25.7815775,37.1777213 24.9487606,38.9744102 23.8248169,40.4441401 C23.2053803,41.2542458 22.433831,41.5461205 21.6149577,41.5442184 C21.2695352,41.7185824 20.8829155,41.7771264 20.510662,41.7331656 L20.5499787,42.1815153 C20.5842003,42.5553743 20.6237807,42.9289251 20.6815775,43.2954669 C21.4731972,43.2825746 22.3005211,43.4996313 23.0380563,43.7915061 C25.2027042,44.6476861 27.2885493,45.8333613 29.3767183,46.8611577 C30.3850986,47.3574082 31.7705915,47.7733456 32.5943239,48.5483671 C33.2255915,49.1428955 33.153338,49.8792399 32.9135493,50.6451734 C32.8723521,50.7757879 32.8275634,50.9053456 32.7848873,51.035326 L32.7821408,51.0778074 L32.7821408,51.0778074 C32.108831,51.9263789 31.6476338,52.9389581 31.3129859,53.9842967 C30.7662254,54.914238 30.3848873,55.9578857 30.1250282,56.9806098 C29.9143239,57.8115511 29.7646878,58.6595413 29.6673323,59.515464 L29.6420704,59.7490873 L29.6281268,59.7765628 L29.6209437,59.9784023 L29.6209437,59.9784023 C29.4823521,61.4855413 29.498831,63.0117018 29.6243239,64.5065824 C29.6593944,64.9227311 29.7029155,65.3395139 29.7572113,65.7548172 C29.5218592,66.491373 28.4044648,66.5938779 27.8253803,66.142011 C27.1877746,65.6447037 26.5182676,65.1926254 25.8229859,64.7847194 C24.8752394,65.2167194 23.7791831,65.2904806 22.7200986,64.9364689 C22.6444648,64.9113182 22.5726338,64.8808838 22.4999577,64.8521401 C21.7062254,64.9506294 20.9203099,65.1357722 20.1681972,65.3549425 L19.9426105,65.4216883 C18.7427564,65.7828434 17.5991334,66.2346445 16.6958028,67.152054 C15.0908028,68.7817761 14.573831,71.4158348 14.9012958,73.6210638 C15.2196761,75.7664806 16.4640423,78.2183554 18.7062254,78.8420501 C19.6237606,79.0973613 20.6127042,79.089964 21.5048873,78.7332047 C21.8437606,78.5977292 22.1342535,78.4013847 22.4203099,78.1860188 C22.7714366,77.9214082 23.048831,77.6236157 23.4654507,77.4562262 C23.8459437,77.30342 24.5031972,77.3152556 24.6889014,77.3063789 C25.268831,77.2782693 25.7596056,77.7324611 25.9303099,78.2519601 C26.4508732,79.8372986 25.6691831,81.0018387 24.4131972,81.7810873 C24.9415775,82.5812595 25.4367887,83.4171499 25.9598873,84.1731499 C26.9372113,85.5858153 27.9692535,86.9511382 29.0389014,88.2944806 C30.1368592,89.673964 31.3072817,90.9866607 32.5831268,92.2044611 C33.1590423,92.7541832 33.7529155,93.2850951 34.3636901,93.7955061 L34.7011033,94.074867 C35.2712778,94.5512165 35.7700495,95.0362994 35.7502394,95.8675843 C35.7394648,96.333189 35.4303803,96.7656117 34.9725634,96.8896744 C33.3530737,97.3283635 31.6556148,95.2042877 30.6007771,94.1145836 L30.5177746,94.0296822 C29.2410845,92.7376978 28.0535493,91.3495491 26.9796761,89.8840462 C25.8728451,88.3735256 24.9662958,86.7049151 24.2355211,84.9838896 C23.8962254,84.1841401 23.5275634,83.2700501 23.2666479,82.3449699 C21.8593944,82.8908877 20.2252394,83.085964 19.1065775,82.9576744 C18.0741127,82.8395295 17.1316479,82.5427937 16.2804507,82.1101597 C16.1063662,82.5003123 15.8722817,82.8632008 15.5879155,83.165009 C14.5332676,84.2845315 12.9984085,84.6040932 11.5117183,84.5903554 C9.60777465,84.5730247 7.89925352,83.3719209 7.83016901,81.3454943 C7.78538028,80.0319523 8.46566197,78.9046098 9.45840845,78.1361401 C9.82664789,77.2269112 10.5257324,76.4776744 11.5387606,76.2344102 C10.8684085,74.1612751 10.7503099,71.8770012 11.2539718,69.7839992 C11.7526612,67.711917 12.8907957,65.7491653 14.5738953,64.4560526 L14.6697465,64.3835765 L14.6291831,64.4051342 C14.2315775,64.6243045 13.8436901,64.8608055 13.4503099,65.087373 L13.2735964,65.1881674 C11.5264426,66.1750675 9.50289587,67.0227804 7.46847887,66.4949659 C4.23967606,65.6571734 3.96038028,61.6286254 6.73833803,60.0386372 C7.69833803,59.4891264 8.80770423,59.2817918 9.90291549,59.1444141 C10.0759437,58.918692 10.2817183,58.7170638 10.508831,58.5539014 C10.5426338,57.8135413 10.9148873,57.0733926 11.5734085,56.6084219 C12.2448169,56.1341519 12.9990423,56.0872321 13.7012958,56.3049229 C13.9630563,56.1083671 14.2467887,55.936328 14.558831,55.8019092 C14.8296761,55.6848211 15.1043239,55.5998583 15.3796056,55.5411029 C15.3747465,55.3200305 15.3722113,55.0989581 15.368831,54.8776744 C15.3246761,54.6716078 15.2980563,54.4556078 15.2703803,54.2309425 C15.2207324,54.2224885 15.1704507,54.2144571 15.1216479,54.2038896 C14.4062958,54.0474904 13.7600282,53.7264493 13.1974225,53.2936039 C12.2976338,53.8623476 11.2053803,54.0775022 9.90671831,53.6928446 C8.70101408,53.3356626 7.56460563,52.2133926 7.00284507,50.9239444 C6.23277465,50.7690247 5.48509859,50.5439366 4.83038028,50.117009 C3.61812676,50.4052908 2.31164789,49.9390521 1.82023944,48.6836313 C1.45580282,47.7528446 1.89397183,46.6276157 2.67523944,46.0506294 C2.90277465,45.8826059 3.14890141,45.9140971 3.34453521,46.0440775 C3.39080282,45.892962 3.44509859,45.743326 3.51185915,45.5970716 C3.53869014,45.5381049 3.56784507,45.4806176 3.59742254,45.4233417 C3.56826761,44.1903241 4.01552113,42.9983084 5.13439437,42.336782 C5.96488732,41.8458153 6.95530986,41.7923436 7.84791549,42.0759757 C8.33826761,41.618825 8.95939437,41.2696744 9.73073239,41.0779796 C11.0870704,40.7406646 12.5150282,41.1253221 13.4805211,42.1429738 C13.6894648,42.0814708 13.9058028,42.0377213 14.1272113,42.0100344 C14.2077042,41.4423476 14.4008028,40.8964297 14.8034789,40.4703476 C15.092493,40.1645237 15.4389718,39.9210481 15.8137606,39.7502771 C15.9846761,39.1071382 16.2650282,38.53142 16.7344648,38.0495413 C16.5050282,37.8557331 16.296507,37.6376196 16.1186197,37.3949894 C15.9212958,37.3620188 15.7254507,37.3195374 15.5344648,37.2582458 C14.5140423,36.9304415 13.8105211,36.2870912 13.3332676,35.4852282 C12.4495352,35.7115843 11.513831,35.628735 10.5941831,35.0515374 C9.92911268,34.6341205 9.42777465,33.9666763 9.16326761,33.2210325 L8.40798592,32.9562106 L8.40798592,32.9562106 C7.69622535,32.704281 7.18538028,32.2338153 6.89383099,31.6739483 C6.52305634,31.8073104 6.11446479,31.8024493 5.78171831,31.5454474 C3.83192958,30.0397879 5.1635493,27.545009 7.25066197,27.0496039 C8.09974648,26.8481871 8.84108451,26.9629503 9.50023944,27.2700423 C9.96925352,26.817964 10.5576338,26.4785354 11.2309437,26.3255178 C12.0162254,26.1471382 12.8437606,26.277964 13.5684085,26.6245785 L13.7555915,26.6220423 L13.7555915,26.6220423 C14.4853099,26.0799288 15.4218592,25.8370873 16.5662958,26.0989503 C17.862,26.3954748 18.7453099,27.1210403 19.3440423,28.0659875 C19.536507,27.8920462 19.7532676,27.7388172 19.9894648,27.6101049 C20.6596056,27.2453143 21.3753803,27.1552791 22.0609437,27.2694082 C22.2916479,26.9405472 22.5282676,26.6161245 22.7720704,26.2974082 C22.1929859,25.8449072 21.7970704,25.1430129 21.7761549,24.3641871 C21.6012254,24.2551303 21.4317887,24.1310677 21.2697465,24.0169386 C20.4768592,23.4583397 19.8046056,22.7579249 19.4989014,21.8163593 C19.3463662,21.3467389 19.2908028,20.8572517 19.3085493,20.3664963 C19.2231972,20.3478975 19.1382676,20.3280305 19.0539718,20.3039366 C15.6842535,19.3342614 14.2873521,14.6881479 16.9505915,12.1946372 C18.3491831,10.8851108 20.475169,11.6267389 21.8585493,12.5936665 C22.8018592,13.2530795 23.5512254,14.0729072 24.2302394,14.9787546 C24.2621408,14.9853065 24.2931972,14.98742 24.3253099,14.9952399 C25.3005211,15.2258231 26.0760845,15.8516313 26.6490423,16.6518035 C27.6610141,16.4759601 28.7382676,16.6714591 29.6982676,17.3741988 C30.3981972,17.8865119 30.8378451,18.5205628 31.0660141,19.2095648 C31.9753099,18.734872 32.9112254,18.3187233 33.8674225,17.9511851 C33.930169,17.8004924 33.995662,17.6495883 34.071507,17.4997409 C34.2189718,17.2087115 34.4112254,16.9557252 34.6347465,16.7418387 C34.3913662,16.4696196 34.1758732,16.1654865 34.0024225,15.8271147 C33.1791127,14.2221205 33.4765775,12.5976822 34.386507,11.3686802 C33.9886901,10.472555 33.8661549,9.45638278 34.1017183,8.48966654 C34.1454507,8.31023014 34.2005915,8.1377683 34.2650282,7.97185832 C33.7129859,7.11102857 33.3591127,6.1202184 33.2676338,5.09157652 Z M18.4921056,70.0163155 C19.0762606,69.8740767 19.2137958,69.6876658 19.8706268,69.7413487 C20.3791479,69.7829847 20.8990775,69.8700611 21.3923873,69.9977166 C22.5689366,70.3024838 23.6668944,70.9183585 24.6336549,71.6435014 C26.0048746,72.6721094 24.3633222,74.5837742 23.2711565,73.4868257 L23.2382324,73.4526599 C22.5042887,72.6655914 21.6805563,72.0507734 20.758162,71.5025307 C20.2906268,71.2248164 19.8080915,71.024245 19.3194296,70.7907029 C18.9816127,70.6294427 18.7864014,70.3654661 18.4686549,70.1974427 C18.3936549,70.1577088 18.4111901,70.0361824 18.4921056,70.0163155 Z M21.636507,54.5249307 C21.3136901,54.4110129 20.9431268,54.6542771 20.8567183,54.9677096 C20.7640246,55.3054096 20.9606967,55.6108798 21.2652601,55.7346009 L21.2995352,55.7475922 C21.7130282,55.8935648 22.0906338,56.1361949 22.4120834,56.433211 L22.4800986,56.4976744 C23.0655211,57.0666294 23.9627746,56.1709268 23.376507,55.6009151 C22.8791831,55.1175569 22.2897465,54.7553025 21.636507,54.5249307 Z M36.800662,31.4427311 C36.4672102,30.7127207 35.4025615,31.3256067 35.6915393,32.0487275 L35.7060845,32.0826998 C36.0065335,32.7401379 35.8834783,33.5030968 35.5558832,34.1223592 L35.5235493,34.1818309 C35.1250986,34.8949268 36.2196761,35.5351068 36.6181268,34.8217996 C37.2092535,33.7633573 37.3072817,32.5514748 36.800662,31.4427311 Z M46.0059635,22.3544244 L45.9912254,22.2813299 C45.8412254,21.480101 44.6192535,21.8193182 44.7690423,22.6182223 C45.0179155,23.9465589 45.9823521,24.8192243 47.2193239,25.2524924 C47.9910577,25.522598 48.3225634,24.2980344 47.556507,24.0296196 C46.736554,23.7425648 46.1883838,23.1986036 46.0059635,22.3544244 L46.0059635,22.3544244 Z M65.9811549,21.0713495 L65.7658732,21.0620501 L65.7658732,21.0620501 L65.9298169,21.2784728 L65.9298169,21.2784728 C65.945662,21.2089386 65.9623521,21.139827 65.9811549,21.0713495 Z" id="ðŸ–-Ink" fill="#000000"></path>
                    </g>
                    <g id="face/Smiling" transform="translate(112.183099, 77.354207)" fill="#000000" fill-rule="evenodd">
                        <path d="M30.968993,50.9198978 C29.548794,50.3403012 28.2816173,49.3734958 27.3551889,48.1384646 C27.0331038,47.7091169 26.9495926,47.2557326 27.017159,46.8410547 C27.0931327,46.3747786 27.3688808,45.9521824 27.7449394,45.6687178 C28.1221628,45.3843752 28.5940214,45.2441445 29.0502103,45.3156301 C29.4466117,45.3777469 29.8412104,45.5948709 30.1535058,46.0451781 L30.2187521,46.1352289 C30.7695298,46.8806513 31.4872438,47.4922614 32.3050288,47.8864795 C33.0932406,48.2664417 33.9747757,48.4437847 34.8870208,48.3406561 C36.6244504,48.1443157 37.8219743,47.2043274 39.0948115,45.9278391 C39.2525834,45.7666792 39.4104563,45.6004672 39.5690946,45.4315797 C39.6692778,45.278484 39.8083069,45.1800892 39.962667,45.1284632 C40.1340565,45.0711416 40.327938,45.0743848 40.5055187,45.1363808 C40.6767961,45.1961763 40.8299095,45.309486 40.9325762,45.4602937 C41.0301525,45.6036243 41.0854754,45.7806897 41.0675245,45.9843589 C40.9510195,47.3072301 40.2596776,48.4878363 39.2776553,49.4148615 C38.1869942,50.4444414 36.7412431,51.1567117 35.3801317,51.4065272 C33.8805866,51.6817086 32.3525901,51.4845569 30.968993,50.9198978 L30.968993,50.9198978 Z M36.0875289,30.5120405 C37.6828906,31.482148 40.1137318,33.7442494 38.3974899,36.149264 C36.3773089,38.2698449 33.4687045,35.8384541 32.0353946,34.7388307 C30.7063626,33.8866164 29.2131206,36.0784478 30.4461973,37.0735516 C40.8033244,44.7445605 45.006466,30.7657101 36.8944406,29.3714319 C36.0012775,29.2177885 35.6695544,30.2119271 36.0875289,30.5120405 Z M17.5274577,21.5886716 C17.7037243,19.3998697 21.0359789,18.9028321 21.3674577,21.0687499 C21.6642887,23.0089456 21.3148521,24.7912626 20.4412606,26.5380728 C19.6065423,28.2068947 17.5085456,27.4283107 17.3498837,25.9087021 C17.1372039,23.8717299 17.4178099,22.9502317 17.5274577,21.5886716 Z M42.8930282,20.6196517 C43.3576056,20.0109628 44.0283803,19.5954481 44.8320423,19.8302583 C47.3429577,20.5642779 46.6028873,24.1303914 45.7210563,25.8662114 C45.2419014,26.8088337 43.6930986,27.0478708 42.993169,26.2178982 C41.8523239,24.864411 41.3059859,22.1614521 42.756338,20.8282544 C42.7956338,20.7593542 42.8393662,20.68982 42.8930282,20.6196517 Z M20.4058944,12.0111429 L20.802522,11.9416942 C22.0295218,11.7294045 23.5551549,11.5254176 24.4231479,12.5122544 C24.8835,13.0355577 25.0419507,14.0081918 24.4231479,14.509092 C23.3346972,15.3904227 22.1313169,15.0488806 20.8269507,15.1234873 C19.7520211,15.1852016 18.7189225,15.3631585 17.6835,15.6592603 C15.4119507,16.3087397 13.5610352,17.4944149 11.6209648,18.7963327 C11.3663873,18.9671037 11.1065282,18.6414129 11.228007,18.4032211 C12.3479366,16.208771 14.5182887,14.4061644 16.6922324,13.3073542 C17.8525141,12.7208571 19.1222324,12.2343288 20.4058944,12.0111429 Z M40.6041287,11.0281289 L40.9077055,11.0902829 C44.2113469,11.7811043 48.5035506,13.1610768 50.0679842,16.4073021 C50.1275964,16.8663298 50.0646105,16.9647086 50.0133917,17.0289838 L49.9963385,17.0503723 C49.9541341,17.1052595 49.9204583,17.1809212 49.7215736,17.2433957 C49.6663832,17.2302408 49.6106433,17.216308 49.5543131,17.2015401 C48.8372041,17.0135386 48.2698321,16.7545401 47.720556,16.4857982 L47.1250012,16.192275 C46.4340388,15.8533498 45.7369757,15.5267598 44.9982488,15.2856588 C43.4217423,14.7712438 41.8001698,14.4088706 40.1534741,14.2153715 C39.7965654,14.1734678 39.4528848,14.0529641 39.1817455,13.8464404 C38.92438,13.6504079 38.7277692,13.3789964 38.6381257,13.0182314 C38.5219478,12.5513438 38.5553348,12.1978716 38.8057421,11.7766707 C38.9940329,11.4603578 39.263447,11.2411116 39.5728025,11.115213 C39.888177,10.9868648 40.2472278,10.9566068 40.6041287,11.0281289 Z" id="ðŸ–-Ink"></path>
                    </g>
                    <g id="facial-hair/Moustache-5" transform="translate(104.577451, 109.479380)" fill="#000000" fill-rule="evenodd">
                        <path d="M62.1955141,6.91588885 C61.9138944,6.07429198 60.4648099,6.14763053 60.5539648,7.13822935 C60.656007,8.27001018 60.2687535,9.53219413 59.1849507,10.0817049 C58.0500211,10.6570004 56.7731197,10.1398262 56.0807958,9.15282035 C55.4788944,8.29494951 55.0637535,7.36183796 54.3063592,6.61365793 C53.6022042,5.91789276 52.7457254,5.38127436 51.8087535,5.06276947 C51.0790352,4.81485558 50.3220634,4.74891429 49.5879085,4.83028415 C47.758331,4.41667162 45.6384718,5.35739178 44.4982606,6.78442896 C44.4247394,6.87636634 44.3565,6.97083992 44.2905845,7.0661589 C44.1775563,6.91229589 44.0592465,6.75991233 43.9339648,6.60964227 C43.6109366,6.22244853 43.2099507,6.13938787 42.847838,6.24485166 C40.7856549,4.71065988 37.8957254,4.5073409 35.5536127,5.89189667 C33.6771338,7.00127436 32.1249507,8.63628023 29.8174859,8.76351311 C27.9898099,8.8643272 25.9990352,7.82110215 25.870162,5.81179491 C25.8025563,4.76265205 24.3735423,3.88808454 23.5717817,4.85945049 C21.8862887,6.90193973 21.5491056,9.61504344 22.4816408,12.0846716 C23.4657254,14.6904094 25.4706549,16.5259867 28.0092465,17.6057753 C30.7506549,18.7717949 33.9631901,19.1767421 36.9287535,19.084382 C39.8852324,18.9922333 42.5734014,17.8549573 44.3554437,15.4356305 C44.5681901,15.146926 44.755162,14.8535718 44.9191056,14.556836 C46.6493873,16.7607969 49.3616408,17.6871452 52.1241761,17.7537205 C55.0143169,17.8230434 58.4309366,17.3155914 60.4743169,15.0702059 C62.4435423,12.9059789 63.1231901,9.68753659 62.1955141,6.91588885" id="ðŸ–-Ink"></path>
                    </g>
                    <g id="accessories/*-None" transform="translate(88.521127, 88.978474)"></g>
                </g>
            </g>
        </g>
    </g>
</svg>