<?xml version="1.0" encoding="UTF-8"?>
<svg width="240px" height="324px" viewBox="0 0 240 324" version="1.1" xmlns="http://www.w3.org/2000/svg" xmlns:xlink="http://www.w3.org/1999/xlink">
    <!-- Generator: Sketch 62 (91390) - https://sketch.com -->
    <title>peep-86</title>
    <desc>Created with Sketch.</desc>
    <g id="Introduction" stroke="none" stroke-width="1" fill="none" fill-rule="evenodd">
        <g id="variations" transform="translate(-3006.000000, -434.000000)">
            <g id="images" transform="translate(126.000000, 110.000000)">
                <g id="a-person/bust" transform="translate(2880.000000, 324.000000)">
                    <g id="body/Gym-Shirt" transform="translate(31.056338, 135.052838)" fill-rule="evenodd">
                        <path d="M11.9520451,138.193359 C11.6645099,138.202658 11.7551437,138.118752 11.8607775,138.098463 C11.8912,138.129954 11.9216226,138.161868 11.9520451,138.193359 Z M20.4418338,144.507026 C28.4757071,145.459793 36.5195099,144.588185 44.5138761,143.714251 C60.7096507,142.513148 76.7915521,146.012263 93.0192282,144.945155 C113.299228,144.090243 133.634369,142.484827 153.846975,145.190322 C159.437749,145.318823 168.354932,146.828075 166.327397,138.170322 C163.664158,115.91112 160.103454,93.7641456 156.289228,71.6763491 C153.056623,59.2935467 152.822961,37.875308 143.97127,29.264263 C142.677045,28.0821808 138.035285,24.2584313 136.808031,23.7450614 C130.706834,21.4726231 119.70782,19.6993941 115.170003,14.8822982 C111.494369,8.66056827 113.204158,0.17041563 107.488735,-4.83858633 C102.47958,-8.92990531 91.5464817,-8.06505991 86.1910592,-4.99287204 C81.9657071,-2.25208143 81.3038057,3.07140976 78.6709888,7.00823168 C78.0215521,7.95148804 76.4788956,10.2253646 75.6078392,10.9589615 C73.4874205,13.0011906 66.0399956,15.1467473 63.8892914,15.5409156 C51.7526012,18.0289313 45.7009888,19.5662434 36.1552845,27.6343295 C11.2134535,53.1073237 14.7490169,98.1608657 7.84753806,131.47094 C7.56507327,135.132795 5.33979158,140.102063 9.30993242,142.459676 C12.7292986,144.098275 16.7497212,143.919895 20.4418338,144.507026 Z" id="ðŸŽ¨-Background" fill="#FFFFFF"></path>
                        <path d="M112.387606,6.41403757 C112.417394,6.32738395 112.55662,6.31258943 112.577746,6.41403757 C112.918099,7.97147789 113.555915,9.67939961 114.202394,11.1398301 C114.859437,12.6192822 115.757324,13.9782646 116.891831,15.1322372 C119.268592,17.5500845 122.325634,18.6533331 125.678451,18.6554466 L125.758732,18.6575601 C125.774225,18.5448399 125.791596,18.4321198 125.807715,18.3193996 L125.830563,18.1503194 C126.136901,15.8339202 128.885493,15.9015523 129.422113,17.6494192 C129.694648,17.7360728 129.967183,17.8227264 130.237606,17.913607 L130.291656,17.9330564 C130.746881,18.1063979 132.288924,18.8746213 132.572113,18.6702411 C133.195352,18.2219671 133.907324,18.7357597 134.143944,19.308519 C134.530651,20.2462978 134.595271,21.4053561 134.720849,22.4227745 L134.737606,22.5546481 L134.75662,22.7131609 C143.577042,25.0065229 148.527042,33.8346247 151.053803,41.967384 C152.422817,46.3761511 153.318592,50.9244094 154.218592,55.4473057 C155.181972,60.2851139 156.069507,65.1356031 157.009437,69.9755249 C158.862254,79.5135523 160.615775,89.0731374 162.139014,98.6684407 L162.580684,101.454959 C163.976156,110.278209 165.335392,119.096352 166.478451,127.959478 C167.095352,132.738108 167.674225,137.520965 168.231972,142.308049 C168.331972,143.161764 168.431033,144.015666 168.529218,144.870194 L168.675845,146.152511 C168.80662,147.302257 169.028451,148.439321 168.460141,149.515094 C167.228451,151.84819 163.497465,151.831282 163.286197,148.843 C163.244155,148.249106 163.444648,147.794703 163.776338,147.477677 L163.771745,147.427501 C163.768474,147.397599 163.765141,147.375525 163.763873,147.365662 C163.653803,146.771768 163.624225,146.144057 163.55662,145.543611 C163.408732,144.26304 163.26507,142.982257 163.119296,141.69936 C162.83831,139.25594 162.555211,136.812942 162.261549,134.371846 C161.668099,129.419908 161.040423,124.474312 160.375141,119.532942 L159.71561,114.647152 C157.509966,98.3611269 155.211165,82.0785955 152.186197,65.9218262 C151.362254,61.5236266 150.515282,57.1317675 149.646761,52.7420219 C148.822817,48.5847616 147.897465,44.4465229 146.515775,40.4329808 C144.259437,33.8768947 140.31507,27.7371687 134.839014,23.4340767 C134.923521,24.2562294 134.984789,25.082609 135.062958,25.9047616 C135.263662,28.0161511 135.477042,30.125427 135.692535,32.2347029 C136.476338,39.8771295 137.539014,47.5068751 139.35169,54.9800102 C140.249577,58.6830787 141.343944,62.3373252 142.677042,65.9070317 C143.334085,67.6654661 144.050282,69.4006521 144.836197,71.1041354 C145.613662,72.7885973 146.976549,74.5893018 147.058732,76.4660924 C147.096761,77.3347421 146.18831,78.1061706 145.347676,78.0131765 C145.740423,81.4708673 145.962254,84.9644877 146.196761,88.4137245 C146.539014,93.4098341 146.811549,98.4148204 147.210845,103.406914 C147.92493,112.349145 148.820704,121.278695 149.758732,130.199791 C149.944648,131.96837 150.146789,133.735597 150.346766,135.502553 L150.514189,136.986182 C150.626943,137.947969 150.797279,139.100642 150.286901,139.953607 C150.743239,141.054742 151.055915,142.185466 151.237817,143.364801 C151.467887,144.831572 150.629366,146.475877 148.917887,146.412472 C148.723521,146.40592 148.529155,146.389012 148.334789,146.368088 C146.748169,146.735838 145.165775,147.059204 143.517887,147.069771 C141.413662,147.084566 139.305211,147.042296 137.200986,147.027501 C133.13007,147.000026 129.058732,146.97255 124.987606,146.938734 C110.249577,146.820378 95.5052113,146.826719 80.7692958,146.590006 L74.8733834,146.496386 C69.468338,146.409419 64.0625352,146.309192 58.6601408,146.112355 C54.9397183,145.97709 51.219507,145.839713 47.5009859,145.689654 L46.7439349,145.660797 C43.4629937,145.541213 40.1781489,145.479813 36.9333803,144.977404 C36.8520423,144.963648 36.8168603,144.879211 36.8294618,144.805 L36.8340845,144.785075 L36.6925352,144.753372 C36.6101408,145.108441 34.8988732,143.616308 34.9115493,142.625075 C34.2016901,141.701474 34.5333803,140.226249 34.6094366,139.156816 C34.6833803,138.114859 34.776338,137.070789 34.8587324,136.028832 C35.0340845,133.803314 35.1840845,131.575681 35.363662,129.350163 C36.0883099,120.376229 36.713662,111.379047 37.1192958,102.386092 C37.3242254,97.8526286 37.4890141,93.3170513 37.6622535,88.7835875 C37.74026,86.719508 37.8488691,84.6536277 38.0512244,82.5990789 L38.1038028,82.0856853 C38.3256338,80.0019828 38.304507,77.7616697 39.0714085,75.7980141 C39.0819718,75.7707499 39.1178873,75.7707499 39.1284507,75.7980141 C39.9038028,77.7088321 39.9777465,79.9301237 40.1340845,82.0267186 C40.1615493,82.0182646 40.1890141,82.0140376 40.2185915,82.0076971 C41.2897183,81.4983429 42.3714085,81.0397127 43.385493,80.4098888 C43.5228169,80.3253487 43.6559155,80.2363703 43.7911268,80.149928 C45.3861972,75.2677362 47.2347887,70.4658575 48.935493,65.6153683 C54.4305634,49.931063 57.4643662,33.227838 58.1361972,16.6201432 C53.9446479,19.3233775 49.3796225,21.4264314 44.9419787,23.6847396 L44.526338,23.8969339 C40.1552113,26.13302 35.97,28.671337 32.8580282,32.5496149 C30.1453521,35.9269926 28.3728169,40.0419828 26.7143662,44.0090278 C24.9333803,48.2719632 23.3277465,52.6109847 21.8594366,56.9901628 C18.8805634,65.8753292 16.5735211,74.9781863 14.7735211,84.1740376 C12.9967606,93.2494192 11.7270423,102.392222 10.8777465,111.598852 C10.4446479,116.295055 10.0495775,120.995486 9.71788732,125.702257 C9.54887324,128.084175 9.39887324,130.468206 9.25943662,132.854351 C9.19183099,134.01255 9.14112676,135.172863 9.06507042,136.331063 C9.01859155,136.99893 9.01014085,137.687721 8.79042254,138.321771 C8.60661972,138.850147 8.28126761,139.292081 7.97704225,139.759165 C7.42140845,140.610906 6.01859155,140.765192 5.49676056,139.759165 L5.27080563,139.323445 C4.97171831,138.743162 4.69859155,138.15882 4.65802817,137.489263 C4.62,136.855212 4.69816901,136.193685 4.73408451,135.55731 C4.80380282,134.270398 4.88408451,132.981161 4.9643662,131.694038 C5.13338028,128.98664 5.32140845,126.279243 5.53267606,123.573959 C5.95309859,118.154938 6.49394366,112.750711 7.17422535,107.357051 C9.56788732,88.4137245 13.0242254,69.5697323 19.62,51.5922763 C21.2509859,47.1475796 23.07,42.7386012 25.1235211,38.4716501 C27.1094366,34.3460924 29.6214085,30.4509065 33.2678873,27.6103585 C36.624507,24.9950254 40.5262986,23.2445175 44.403168,21.5454316 L44.8876056,21.3332548 C49.2333803,19.4332157 53.5707042,17.3873448 58.1087324,15.9755249 C58.0073239,15.9882059 57.9080282,16.0008869 57.8216197,16.0304759 C57.7221127,16.0621785 57.663169,15.9332548 57.7244366,15.8635092 C57.9819718,15.5781863 58.0897183,15.2844094 58.3857042,15.0033135 C58.5900423,14.8088712 58.8026282,14.6252501 59.0212986,14.4481216 L59.3359821,14.1975946 C59.9116976,13.7404126 60.5170394,13.2732845 61.241831,13.1138419 C62.2666901,12.8898106 62.769507,13.8218654 62.4819718,14.5510239 C62.6298592,14.3586951 63.0270423,14.4157597 63.1305634,14.6799476 C66.5023944,23.3791256 68.7164789,32.5876579 73.254507,40.8070708 C76.6052113,46.8791648 81.1009859,52.4862881 87.0671831,56.1532157 C90.2721127,58.1230004 93.9399296,59.6362685 97.7277465,59.8750943 C101.129155,60.0885581 104.40169,59.2239241 107.294155,57.4382254 C112.901197,53.9784211 116.562465,47.9042137 119.173521,42.018108 C122.044648,35.538108 124.093944,28.6332939 125.298169,21.6333722 C121.482676,21.6862098 117.455915,19.9446834 114.918592,17.1062489 C113.58338,15.6120023 112.58831,13.7922763 112.08338,11.8520806 C111.574225,9.89497691 111.736901,8.28660117 112.387606,6.41403757 Z M80.3783873,1.33099961 C80.8433873,0.500392955 81.8743732,0.225637573 82.717331,0.563798043 C83.6530352,0.940001566 83.9342324,1.84880783 83.8011338,2.77240861 C83.6466972,3.85452211 82.9516268,5.02350059 82.410993,5.96802505 C81.8447958,6.95714442 81.1159225,7.86827554 80.3614859,8.71980587 C78.9419789,10.3260681 77.4227535,11.7738176 75.6208521,12.9575906 C73.8271901,14.1346004 71.7988099,15.0159311 69.7138099,15.5083773 L69.2181039,15.6240945 C67.5961608,15.995099 65.2885645,16.420122 63.9375423,15.5381777 C63.8722606,15.4956963 63.874162,15.4090427 63.9375423,15.3667726 C64.6685282,14.8574184 65.6469085,14.7665378 66.4875423,14.5258098 C67.4044437,14.2616219 68.323669,13.9615045 69.2002183,13.5850896 C70.9307113,12.8411366 72.5870493,11.8604712 74.0614859,10.6895906 C75.5426831,9.51469432 76.9748662,8.11344188 77.9659225,6.49640078 C78.4645141,5.68502701 78.889162,4.83307397 79.2966972,3.97520313 C79.7088803,3.11479609 79.9157113,2.15949276 80.3783873,1.33099961 Z" id="ðŸ–-Ink" fill="#000000"></path>
                    </g>
                    <g id="head/Medium-Straight" transform="translate(78.591549, 38.043053)" fill-rule="evenodd">
                        <path d="M98.4378169,105.877811 C96.0272535,94.5578888 94.4809859,83.0921354 93.0971831,71.6115875 C92.4274648,66.0509613 91.8929577,60.4757519 91.2737324,54.9108986 C90.6950704,49.7262646 90.0209155,44.5249339 88.6688028,39.4778888 C87.4119718,34.7880258 85.5737324,30.1446599 82.8652817,26.0953996 C80.3260563,22.299337 77.1335915,19.046656 73.4683099,16.3308047 C66.2258451,10.9646207 56.9638732,8.10927828 47.9556338,9.05612759 C46.5948592,9.19984579 45.2469718,9.43021761 43.9138732,9.73878904 C44.3385211,9.61409237 44.7676056,9.49763836 45.200493,9.39640157 C45.3399296,9.36279687 45.2780282,9.17490646 45.141338,9.18737613 C8.49190141,12.5184681 -0.129084507,76.2803155 -0.912887324,89.1367538 C-0.97415493,90.1366521 -1.02253521,91.1340141 -1.0584507,92.133701 C-1.33330986,94.3636579 -1.53823944,96.599744 -1.63542254,98.8419593 C-1.74507042,101.428887 -1.69225352,104.032934 -1.45373239,106.611196 C-1.20866197,109.254977 -0.929788732,111.964699 0.173239437,114.395227 C0.849084507,115.891587 32.3702113,113.841701 32.6955634,112.074601 C33.3547183,108.507008 33.6927465,104.825497 33.4859155,101.196613 C33.3887324,99.4569886 33.2089437,97.7302568 32.8371127,96.0267734 C32.7357042,95.5618027 32.6279577,94.688926 32.3556338,93.9978106 C35.2307746,88.5325033 38.3934507,83.2231726 41.6490845,77.9753448 C48.4246479,67.0485346 55.628662,56.3246207 61.1659859,44.6874622 C63.9422535,38.856519 66.6779577,32.6641667 67.9878169,26.274836 L68.1990845,26.3171061 C68.1737324,26.3931922 68.1906338,26.4882998 68.2666901,26.5411374 C74.2857042,30.7026247 78.3084507,37.0093174 80.915493,43.7621706 C83.9511972,51.6241902 85.4237324,60.1141315 85.2124648,68.5385542 C84.8767606,81.9254818 79.8042254,98.4699828 65.4526056,102.701216 C62.1779577,103.667086 58.6415493,103.939728 55.2864085,103.233818 C53.7040141,102.899885 52.1533099,102.386092 50.7251408,101.625443 C49.1406338,100.782155 47.8392254,99.5880258 46.3542254,98.6054583 C44.9955634,97.7072196 43.3920423,99.4591022 44.1737324,100.788495 C45.8997887,103.726265 49.6138732,105.522742 52.8040141,106.406186 C56.2075352,107.350922 59.7971831,107.395517 63.2638732,106.795282 C63.5279577,106.750687 63.7899296,106.699963 64.0497887,106.645012 C64.1089437,107.515775 64.4828873,108.382523 65.091338,109.086319 C65.3638732,109.403345 65.6997887,109.677677 66.0758451,109.908261 C66.1246479,110.7581 66.671831,111.611744 67.5612676,111.797944 C72.3124648,112.786852 92.0448592,110.193584 96.7899296,108.779439 C98.0638732,108.399431 98.7082394,107.150351 98.4378169,105.877811" id="ðŸ–-Ink" fill="#000000"></path>
                        <path d="M86.0444789,65.0567483 C85.6887042,48.4486309 81.5522958,30.0624235 67.3730704,19.7992532 C66.4699014,19.1447014 65.1144085,19.4617268 64.3658873,20.2092728 C63.7513099,20.3293198 63.1868028,20.701719 62.8113803,21.3864939 C54.4268028,36.6956524 45.6002535,51.7628149 36.3357465,66.5556446 C30.3872958,76.1205135 23.1615211,85.6974294 22.2082817,97.2910497 C22.0432817,97.51022 20.5118028,99.2399108 21.4041972,99.113946 C21.8003239,98.9066114 22.2036338,98.736263 22.6278592,98.6102982 C23.7606761,100.262423 26.391169,100.002674 27.0165211,98.1379303 C29.1845493,98.2002787 31.3301831,98.7544391 33.3957465,99.3973667 C38.4621549,100.983762 43.6113803,102.551981 48.7819437,103.764498 C65.8156056,108.286971 84.1185634,102.53296 85.4795493,82.6664548 C87.3078592,80.0894607 86.3187042,68.6040517 86.0444789,65.0567483 L86.0444789,65.0567483 Z" id="ðŸŽ¨-Background" fill="#FFFFFF"></path>
                    </g>
                    <g id="face/Very-Angry" transform="translate(112.183099, 77.354207)" fill="#000000" fill-rule="evenodd">
                        <path d="M41.3341253,43.4838008 C39.5623219,42.5425785 37.4833896,42.7017659 35.7042338,43.5425616 C33.5295029,44.570372 31.8480631,46.2580873 30.3586239,48.1138655 C29.7867344,48.8263056 29.2516915,49.5692575 28.7172541,50.311534 C28.4972944,50.6170345 28.2774272,50.9224115 28.0550747,51.2254002 C28.0117124,51.2821912 27.9641511,51.3433299 27.9137641,51.4081067 C27.5577455,51.8657996 27.0717528,52.4987948 26.8857412,53.07323 C26.8110717,53.3038221 26.7832646,53.5264214 26.8167811,53.7291703 C26.833008,53.8273302 26.8630802,53.9214057 26.9091466,54.0102599 C26.62531,54.0837243 26.4357306,54.0137503 26.3046835,53.8726935 C26.0971979,53.6493594 26.0244638,53.313891 26.0214174,52.9288001 C26.0109262,51.5495289 26.9199955,49.5388738 27.2911832,48.7102956 C27.3294074,48.6249704 27.3621674,48.5518324 27.387996,48.4927313 C28.7304663,45.4197501 30.8781741,42.4263599 33.8636931,40.7700092 C36.756438,39.1653112 40.1800549,38.8619759 43.1727813,40.3791076 C46.4789735,42.0552294 47.3809767,45.3742076 47.7556018,48.7851881 C47.8129891,49.3077069 47.5766631,49.7896654 47.213208,50.1532628 C46.8029631,50.5636682 46.2265845,50.8293229 45.6879296,50.8293229 C45.1285857,50.8293229 44.6164322,50.5924159 44.2419192,50.2177562 C43.8643172,49.8400065 43.6257506,49.3215499 43.6215083,48.7597812 L43.6179098,48.4326518 C43.6006148,47.2936972 43.52076,46.2243077 43.1074839,45.3174176 C42.7752644,44.5883976 42.2314387,43.9605602 41.3341253,43.4838008 Z M36.9325994,28.1871873 C38.527961,29.1572948 40.9588023,31.4193962 39.2425603,33.8244108 C37.2223794,35.9449917 34.3137749,33.5136009 32.8804651,32.4139775 C31.551433,31.5617632 30.058191,33.7535945 31.2912677,34.7486984 C41.6483948,42.4197072 45.8515364,28.4408568 37.739511,27.0465787 C36.8463479,26.8929352 36.5146248,27.8870739 36.9325994,28.1871873 Z M23.5034877,28.5055928 C23.0737163,28.7160783 22.5972671,28.801546 22.1299307,28.703994 C21.711309,28.6166108 21.3023197,28.3820259 20.9401494,27.9685554 C20.4428477,27.4002831 20.0818053,26.5933394 20.3230656,25.823356 L20.3921271,25.6253332 C20.4738167,25.395011 20.5838573,25.1790998 20.7177851,24.9833013 C20.803736,24.5638308 20.82105,24.2891356 20.8372974,24.0282942 C20.8414492,23.96164 20.8455403,23.8959207 20.8501738,23.8303265 C20.8759255,23.4650313 20.9295372,23.0825486 21.0520924,22.7308446 C21.0751687,22.6646211 21.1008378,22.5990629 21.1285912,22.534271 C21.0599858,22.5102346 20.9913993,22.4861202 20.9228247,22.461942 C20.4489625,22.2948666 19.9765718,22.1250597 19.5067475,21.9474636 C18.1705535,21.4420937 16.8492711,20.8724012 15.5702803,20.2349689 C14.9383662,19.9199355 14.3223921,19.5654963 13.7142175,19.2068922 C13.4237873,19.013667 12.786699,18.5637959 12.5009921,18.321569 L12.2841803,18.1377524 L12.1707044,18.3984166 C12.0487225,18.5213476 11.9503251,18.5309042 11.8675916,18.5032996 C11.778655,18.4736253 11.7127633,18.4034909 11.6713309,18.3192431 C11.6214576,18.2178317 11.6058971,18.0943699 11.6322084,17.9752058 C11.6559069,17.8678746 11.714456,17.7642162 11.813345,17.6826064 C12.1901673,17.3717569 12.7217061,17.5066855 13.1633406,17.5933337 C13.2263757,17.6057011 13.288094,17.6178038 13.3480061,17.6287522 C14.0347677,17.7542818 14.7199112,17.9037957 15.4022675,18.0581182 L16.2236367,18.245311 C16.5370757,18.3168451 16.8504052,18.3886806 17.1636865,18.460505 C20.7228791,19.2765029 24.2759522,20.0905126 27.9131566,20.448213 L28.2964198,20.4841633 C28.9448015,20.5420647 29.5217169,20.8174672 29.9017619,21.2560778 C30.2517981,21.6600551 30.4306749,22.2019859 30.3457005,22.8303589 C30.2625901,23.4453283 29.9167786,23.9573608 29.4408547,24.2744731 C28.9673707,24.5899596 28.3648896,24.7125098 27.7635928,24.5509855 C26.6345967,24.2480776 25.5080918,23.9293828 24.386936,23.5914023 L24.649173,24.2146269 C24.8747509,24.7575965 25.0827897,25.3202844 25.1072962,25.8946091 C25.1302236,26.4342684 24.9719661,26.956643 24.6980683,27.4035635 C24.4065429,27.8792471 23.98376,28.270374 23.5034877,28.5055928 Z M48.8771883,15.5193441 C48.598749,15.8995431 48.2787397,16.2242777 47.9598667,16.5496947 C47.2711288,17.2525671 46.5826774,17.9553952 45.8451279,18.6091947 C45.5777598,18.8463497 45.3074683,19.0800178 45.0371299,19.3137339 C44.9367908,19.4004803 44.8364447,19.4872328 44.7362374,19.5741702 L44.5784712,19.7110444 L44.713452,19.87045 C44.7496765,19.9132293 44.783865,19.9574211 44.8124586,20.004213 C45.2176117,20.6677763 45.4426283,21.3879732 45.6704193,22.1102957 C45.8264819,22.6051684 45.9833434,23.1012717 46.1937962,23.5831023 L46.261756,23.7340652 C46.5357292,24.3237505 46.6094509,24.9393434 46.4638533,25.4948593 C46.326707,26.0181297 45.9940935,26.4851954 45.4603338,26.8252596 C45.3261892,26.9108617 45.0972851,27.0101948 44.9421382,27.0446023 C44.3305546,27.1803319 43.7112633,27.0856973 43.2051215,26.7982289 C42.7211929,26.5233768 42.3417888,26.0717397 42.1735991,25.4793895 C41.9252978,24.6042082 41.765611,23.7150606 41.7740815,22.8484626 C41.7755161,22.7016847 41.7817864,22.5543544 41.7924557,22.4066641 C41.6958692,22.5048508 41.5848564,22.5911947 41.4589024,22.662383 C41.06695,22.8839118 40.6240076,22.9057209 40.207541,22.7926256 C39.7363562,22.664671 39.2973735,22.3651638 38.9933999,21.9736844 C38.7257255,21.6289539 38.5620166,21.2113813 38.5831702,20.7748715 C38.6016345,20.3938549 38.7623453,20.0014781 39.1061143,19.6318672 L39.4303145,19.3014294 C39.6716412,19.0565467 40.0038129,18.8681604 40.3577153,18.7729419 C40.6824825,18.6855624 41.0268417,18.6761909 41.3357502,18.7815935 C41.7523153,18.667606 42.0224292,18.5331825 42.2732319,18.4081639 C42.451818,18.3191434 42.6202298,18.2350673 42.7703963,18.1696409 C43.50201,17.8513131 44.2308734,17.5268476 44.9572716,17.1966335 C45.5870766,16.9100381 46.2268947,16.6454753 46.8667018,16.3808706 C47.5407234,16.1021159 48.2147138,15.8232763 48.8771883,15.5193441 Z" id="ðŸ–-Ink"></path>
                    </g>
                    <g id="facial-hair/*-None" transform="translate(104.577451, 109.479380)"></g>
                    <g id="accessories/Sunglasses" transform="translate(88.521127, 88.978474)" fill="#000000" fill-rule="evenodd">
                        <path d="M71.3680491,3.1702544 C76.3269356,3.1702544 79.1568052,4.23707181 80.1938017,4.32017463 L80.2249868,4.32240913 C80.6563105,4.34999802 81.0432333,4.38607581 81.4491851,4.54312029 C82.9419037,5.11824266 83.1850519,6.68444304 82.313947,7.67148884 C82.2528428,9.713916 82.521363,12.1003555 82.06065,14.1493615 C81.4923175,22.7874448 77.431531,24.2451996 75.1233146,24.7772408 C73.9644491,25.0444286 72.5909789,25.150752 71.3600147,24.8687086 C69.2600599,24.7903986 67.1839971,24.1327218 65.4077466,22.9875704 C62.9339779,21.3914466 61.0966232,18.9381571 60.5003815,16.0266798 C60.2177929,14.6388685 60.0857253,13.1943522 60.2395124,11.7836899 L60.2623077,11.5893242 C59.4582272,11.2045653 58.526441,11.131773 57.5658998,11.0978175 C57.1070897,11.0814763 56.6548341,11.066833 56.2154759,11.0863575 C55.786055,11.1343197 55.3617085,11.1981986 54.9360934,11.2852097 C54.4713632,11.4254886 54.0324278,11.6570231 53.6271104,12.0237432 L53.5992012,12.5589678 C53.5230852,13.8959681 53.3475956,15.2370007 53.0769611,16.5487466 C52.6773523,18.4842137 52.0345953,20.3326697 50.6666224,21.7055356 C50.2035836,22.3973802 49.6305996,23.014947 48.9349843,23.5497472 C46.4081459,25.4960376 42.9751046,26.21059 39.8243268,25.9414922 C33.4278375,25.3954443 29.7305048,20.3156919 28.8784289,18.1444458 L28.8275239,18.0129005 C28.2119991,16.3987184 27.7214607,14.3043319 25.7764921,13.9575126 L25.3628246,13.883161 C24.4752804,13.7164979 23.6563102,13.4844691 23.1359026,12.6181778 C22.9077661,12.2399977 22.7904207,11.8170387 22.7616658,11.3858031 C22.4580477,11.4091475 22.1548524,11.4314309 21.8527144,11.4530775 C19.4424813,11.9629946 4.98596345,12.3953444 3.83204944,12.3953444 C3.83204944,12.3953444 1.61394912,13.3292972 0.677465773,12.6056567 C0.0283657826,12.1024777 -0.185181771,11.4318553 0.172140373,10.6720996 C0.71128711,9.52898231 3.19864834,8.84138978 4.30313196,8.62367284 C4.30313196,8.62367284 22.1266578,8.77176371 23.4094972,8.52844238 C24.2032175,7.70968885 25.6229916,7.82174221 26.8093434,7.69228662 C27.7914507,6.99174089 29.1653438,6.52251745 30.2506305,6.20842848 C30.4717896,6.12460068 30.6908345,6.04353177 30.9037477,5.96713175 C32.8933343,5.25830936 34.9613627,4.88288816 37.0608946,4.68127699 C39.2259708,4.47542139 41.3973899,4.56858697 43.5497801,4.86357593 C44.4568287,4.98666485 45.3554199,5.14583155 46.247668,5.3540216 C47.8453103,5.56471853 49.4336611,5.91176412 51.0318841,6.32346342 L51.351666,6.40664408 C53.0346745,6.84806641 54.7641982,7.22985428 56.506408,6.93062088 C57.9247725,6.68859906 59.2887664,6.14252462 60.5965287,5.55202796 L60.7667874,5.47477608 C63.6422792,4.16133242 68.1329094,3.1702544 71.3680491,3.1702544 Z M46.0747157,7.97263224 C45.0137438,7.73918774 44.5606424,9.3756337 45.6249972,9.60971487 C46.378691,9.77548242 47.0174738,10.155707 47.4490469,10.7998619 L47.4944898,10.8698907 C48.0736053,11.7917843 49.5379918,10.940773 48.954859,10.0129372 C48.2987817,8.9688036 47.2792507,8.23748564 46.0747157,7.97263224 Z M77.1492677,6.95799755 C76.7752423,6.69441749 76.2092356,6.89008642 75.9920937,7.26253652 C75.7531059,7.67267317 75.9097469,8.12931765 76.260044,8.39762278 L76.2957118,8.4238168 C76.6170226,8.65036832 76.9299546,9.056466 76.969253,9.47256193 L76.972721,9.52461373 C77.0147962,10.6135262 78.7064734,10.619044 78.6641867,9.52461373 C78.6229573,8.45395236 78.0032465,7.55943548 77.1492677,6.95799755 Z" id="ðŸ–-Ink"></path>
                    </g>
                </g>
            </g>
        </g>
    </g>
</svg>