<?xml version="1.0" encoding="UTF-8"?>
<svg width="240px" height="324px" viewBox="0 0 240 324" version="1.1" xmlns="http://www.w3.org/2000/svg" xmlns:xlink="http://www.w3.org/1999/xlink">
    <!-- Generator: Sketch 62 (91390) - https://sketch.com -->
    <title>peep-20</title>
    <desc>Created with Sketch.</desc>
    <g id="Introduction" stroke="none" stroke-width="1" fill="none" fill-rule="evenodd">
        <g id="variations" transform="translate(-606.000000, -1730.000000)">
            <g id="images" transform="translate(126.000000, 110.000000)">
                <g id="a-person/bust" transform="translate(480.000000, 1620.000000)">
                    <g id="body/Striped-Pocket-Tee" transform="translate(31.056338, 135.052838)" fill-rule="evenodd">
                        <path d="M86.4419577,-6.19333437 C97.7777324,-7.00539689 113.319423,-4.7575689 116.598085,8.17278598 C117.614915,12.8779655 119.618366,14.9431482 122.984282,18.0203932 C144.349352,45.3767626 69.8063239,49.9748523 65.9743521,23.2989054 C57.9013944,26.2402776 49.113507,26.863134 41.0356901,29.8360404 C36.6546338,31.4550861 32.6819577,34.0097921 28.8751268,36.6809 C13.3513944,47.7109397 -1.95261972,59.0558996 -17.421,70.1650927 C-11.4351549,72.9225497 -0.0545915493,83.450791 -4.69191549,90.5254915 C-5.77217157,91.9035883 -7.37569154,92.8536197 -8.79414698,93.860923 L-9.5421324,94.3951864 C-11.1512707,95.5487527 -13.8600581,97.5149541 -15.3579718,98.5834713 L-15.634221,98.7846702 C-15.7425352,98.8630865 -15.8647283,98.9511522 -15.9750845,99.0300316 C-5.17297183,114.829166 7.46907042,129.406926 21.492169,142.422361 C22.6862535,143.532835 22.197169,146.015795 20.469,146.304896 L18.410146,146.607166 C11.7622757,147.57577 4.98808891,148.447525 -1.71114085,147.921613 C-8.23571831,147.211561 -12.1674085,141.43379 -16.6276901,137.248399 C-25.5345211,128.140896 -33.8257183,118.425987 -41.3776901,108.163142 L-41.5349378,107.946622 C-43.8853486,104.733454 -47.0050744,101.449595 -47.2333944,97.3005099 C-47.6498028,96.053104 -46.5539577,94.2655929 -45.501,93.4152235 L-45.1415247,92.8962069 C-39.4940448,84.7708528 -33.1024525,76.9349126 -25.094662,71.0505942 C-25.1244507,70.1737699 -24.7192394,69.2520779 -23.9168451,68.6711262 L9.5496338,44.4427954 L9.5496338,44.4427954 C18.1845634,38.4980406 26.2104085,31.511594 35.5699859,26.7111765 C45.1404085,22.1014465 55.9406197,21.9202827 65.7482958,18.0730916 C65.9561831,15.3001848 71.7835775,14.5924608 71.5995634,15.0206085 C77.7480845,11.3080203 80.9132958,6.89067111 81.8895634,2.8307818 C82.8656197,-1.22910752 81.6525211,-4.93153694 86.4419577,-6.19333437 Z M169.201965,80.7921275 C179.550275,65.215215 189.414148,82.4496917 193.722317,92.8369808 C198.812387,107.05199 188.271401,124.537895 181.461824,136.792484 C178.953655,140.195654 175.654923,147.373847 171.233937,147.894269 C160.095908,147.848767 148.942458,147.064217 137.797669,146.830567 C130.601472,145.044537 140.697951,134.226138 147.672317,138.177667 C149.785415,138.968566 150.84112,141.368563 152.901613,142.138509 C153.652348,142.29884 153.704124,141.963849 154.009506,141.215957 L154.05281,141.11142 C154.597246,139.817242 155.125204,138.51608 155.661401,137.218515 C160.198796,126.040327 164.995627,114.960552 169.765204,103.885645 C170.784148,101.481203 169.355134,99.5000416 167.497458,98.0689322 C166.074993,96.8977167 159.960275,94.0382492 165.721542,95.2968721 C163.503021,90.1455555 166.168796,84.9169903 169.201965,80.7921275 Z M143.509923,59.4689573 C144.506261,59.344513 145.785908,60.3489563 145.939289,61.3220768 C147.210197,69.3883863 145.794182,77.3632227 144.096639,85.2537341 L143.784164,86.6985363 C143.158007,89.5764758 142.458353,92.5109262 140.896754,95.0333592 C139.303162,97.6077476 136.892387,99.5478511 134.124782,100.727321 C125.246261,104.266787 114.20457,100.766474 107.673232,94.1491274 C103.494782,88.4236316 107.168092,81.2310476 107.869289,74.9557113 C107.206437,73.2648301 106.962174,71.3090076 106.578875,69.5655732 L106.532176,69.3574111 L105.042951,62.8537152 C104.714641,61.4192195 105.75957,59.4562589 107.476754,59.6532957 C119.449711,61.0270507 131.551542,60.9652518 143.509923,59.4689573 Z" id="ðŸŽ¨-Background" fill="#FFFFFF"></path>
                        <path d="M185.323901,78.7541495 C185.287986,78.5937346 185.480239,78.4709401 185.604887,78.5916211 C187.711225,80.6224861 189.198549,83.2178677 190.831648,85.6230341 C192.386577,87.9140712 194.078831,90.1163413 195.23869,92.6443022 C196.316155,94.9943061 197.011225,97.3783374 197.218268,99.961038 C197.42531,102.524928 197.157,105.094948 196.704887,107.620373 C195.815451,112.595559 193.914042,117.306557 191.826718,121.882502 C189.79733,126.330816 187.504249,130.652507 185.082701,134.895676 L184.214849,136.410547 C183.156233,138.254929 182.085982,140.095841 180.940099,141.88258 C179.514042,144.105985 178.212634,146.401249 176.332352,148.256905 C174.997141,149.577844 172.480944,148.256905 173.089394,146.369335 C173.353479,145.547394 173.560521,144.773641 173.97038,144.010666 C174.280944,143.429453 174.631648,142.865148 174.961225,142.2926 C175.62038,141.147081 176.273197,139.997335 176.932352,138.851817 C178.316155,136.444537 179.773901,134.081641 181.145028,131.665907 C183.523901,127.476944 185.769676,123.20957 187.755592,118.817923 L187.989319,118.299545 C189.816614,114.232749 191.54819,110.020307 192.350662,105.620999 C193.195732,100.986298 192.439394,96.6176877 190.79362,92.2615468 C189.942211,90.0085526 188.985169,87.8062826 187.990099,85.6124665 L187.798843,85.1934656 C186.837848,83.0995033 185.81906,81.0169186 185.323901,78.7541495 Z M83.038669,-1.41534951 C83.0576831,-1.49756477 83.1971197,-1.50390528 83.2097958,-1.41534951 C83.8013451,2.52041566 82.4851479,6.68380509 80.3407817,9.95762114 C79.1703592,11.7456446 77.7274014,13.3603609 76.0266972,14.6580517 L75.8942697,14.7580544 C74.156893,16.0573968 71.8094261,17.3121411 69.6527535,16.469535 C69.5851479,16.4437503 69.5217676,16.4143726 69.4626127,16.3807679 C69.7055704,16.7567601 69.9295141,17.1519851 70.1576831,17.5472102 C70.8358521,18.7244313 71.4443028,19.9439225 72.1055704,21.1317112 C73.288669,23.2557816 74.6978239,25.1558207 76.4788099,26.8191476 C83.6005352,33.468902 93.6004415,35.0494181 102.991602,34.9737255 L103.654991,34.9674447 C107.780132,34.9384077 113.17519,35.1490819 116.359796,32.1622943 C118.071063,30.5581456 119.013317,28.2774646 119.864725,26.1364861 C120.701345,24.0377777 121.27388,21.8714372 121.968951,19.7367992 C120.517542,18.7415507 119.186556,17.5262865 118.140782,16.1058012 C117.050641,14.6263491 116.226697,12.9609088 115.751345,11.1834528 L115.681228,10.9178892 C115.313628,9.50049835 114.944049,7.62549746 115.535852,6.28646654 C115.603458,6.13218082 115.856979,6.14274834 115.92881,6.28646654 C116.247824,6.92685793 116.309092,7.64967593 116.50557,8.33445088 C116.733739,9.13124149 116.991486,9.92380509 117.331627,10.6783256 C117.988669,12.1408697 118.856979,13.5315546 119.898528,14.7489323 C120.758387,15.7568618 121.690077,16.6827875 122.754866,17.4605566 C123.382331,16.3763295 124.837965,16.2304978 126.056979,16.5876798 C127.691002,17.0651994 129.302743,17.6783217 130.878275,18.3260412 L131.192894,18.4560164 C132.749937,19.1027483 134.509796,19.6966427 135.967542,20.5779734 C136.852754,21.000674 137.702049,21.4254881 138.500641,21.8016916 C142.479796,23.671719 146.400059,25.6558943 150.302654,27.6786099 L151.138669,28.1126114 C152.77388,28.964353 154.394303,29.8245487 155.816134,31.0123374 C157.263317,32.2212611 158.387261,33.8740204 159.443599,35.423218 C161.858387,38.9654489 164.133739,42.609128 166.521063,46.1703804 C171.34219,53.3562904 176.163317,60.5422004 181.011908,67.7112023 C182.184444,69.4465996 183.506979,71.1393041 184.559092,72.9484626 C185.566838,74.6775194 185.539373,76.4526505 185.342894,78.3822787 L185.306086,78.7366923 C184.929368,82.2762418 184.281649,85.6757046 182.296415,88.7109675 C179.171768,93.4832571 174.249232,96.4548423 169.041486,98.5005018 C169.677401,98.9741378 170.275289,99.4856055 171.033739,99.8112963 C172.199937,100.309872 173.444303,100.56793 174.70557,100.671281 C176.051345,100.779281 177.568246,100.443022 178.658387,101.358169 C179.095711,101.723594 179.108387,102.603022 178.658387,102.968658 C177.610334,103.82442 176.255655,103.579145 174.978578,103.43576 L174.902049,103.427288 C173.716838,103.296251 172.548528,103.076447 171.435148,102.641065 C171.1605,102.533065 170.887965,102.412807 170.62388,102.279656 C170.632331,102.302905 170.636556,102.330592 170.632331,102.359969 C170.442098,103.816081 170.029839,105.192866 169.594449,106.584451 L169.318246,107.466193 C168.756275,109.266897 168.190077,111.063375 167.606979,112.859852 C166.497336,116.279825 165.288686,119.667382 164.075742,123.050784 L163.028866,125.970269 C161.953441,128.965398 160.864505,131.956368 159.661204,134.901574 C158.917542,136.718975 158.169655,138.536799 157.42388,140.352298 C156.695007,142.125527 156.088669,144.040361 155.184444,145.72905 C154.440782,147.119735 152.412613,146.124063 152.737965,144.695547 C153.164725,142.821081 153.969655,140.960987 154.584444,139.137034 C155.209796,137.285605 155.822472,135.432063 156.458387,133.58465 C157.564303,130.375691 158.789232,127.209434 160.020404,124.04612 L161.240589,120.910305 C162.437573,117.837966 163.648637,114.768361 164.942894,111.73568 L165.084337,111.403289 C166.429154,108.231105 167.817351,104.664089 170.2605,102.205895 C170.29219,102.172079 170.336556,102.15496 170.380923,102.150733 C169.780923,101.825253 169.218951,101.430028 168.724585,100.962944 L168.700491,100.938602 C168.505088,100.731643 167.697824,99.7117552 167.437965,99.1009479 C167.099937,99.2214176 166.761908,99.3376603 166.42388,99.4515781 C165.834444,99.6504587 165.346415,99.5067405 165.002049,99.1918286 L164.34609,99.597854 C163.644817,100.026231 162.890782,100.432775 162.116134,100.45359 C161.140077,100.478952 160.373176,99.9400086 159.851345,99.1453315 C159.382331,98.4351945 159.103458,97.667993 158.509796,97.0318286 C157.926134,96.4065135 157.250453,95.8787765 156.560049,95.3749001 L155.74628,94.7825895 C154.25391,93.6927732 152.807138,92.5915634 151.60557,91.1520634 C151.001345,90.4250184 150.19219,89.5627092 149.824585,88.6896211 C149.752754,88.5209636 149.708387,88.3624509 149.699937,88.2079538 C149.619655,88.7532376 149.537261,89.3006348 149.454866,89.8459186 C148.301345,97.5200477 147.369655,105.247014 147.071768,113.007797 C146.925993,116.83514 146.8605,120.667132 147.031627,124.496588 C147.116134,126.409519 147.25557,128.320126 147.447824,130.226506 C147.542894,131.181809 147.64219,132.134999 147.758387,133.086075 L147.78521,133.306366 C147.81881,133.597813 147.840782,133.879738 147.81543,134.147054 C148.745007,134.605472 149.279514,135.763883 149.651345,136.668463 C149.934444,137.357465 149.714725,138.027445 149.258387,138.511437 C149.803458,139.00811 150.289373,139.591437 150.69712,140.259093 C150.779514,140.394568 150.602049,140.500243 150.496415,140.415703 C149.826697,139.883101 149.106275,139.445605 148.354162,139.109559 C147.959092,139.259617 147.528106,139.299774 147.130923,139.189872 C146.699937,139.071515 146.328106,138.784079 146.059796,138.418654 C143.92388,138.067602 141.703458,138.496643 139.780923,139.83449 C139.381627,140.113472 139.020359,140.428384 138.675993,140.77056 C138.616838,140.830161 138.55557,140.906036 138.494303,140.980009 L138.913721,141.14122 C139.087491,141.207102 139.230118,141.258689 139.284444,141.269559 C139.650641,141.344236 140.022472,141.384157 140.394303,141.416251 L140.951345,141.461887 C143.091486,141.639422 145.225289,141.6986 147.21543,142.594725 C147.633739,142.782827 147.487965,143.427445 147.092894,143.535022 C145.639655,143.929543 144.197458,143.898954 142.718208,143.793458 L142.400641,143.769832 C141.025289,143.664157 139.548528,143.670498 138.206979,143.290067 C138.528106,144.169073 138.090782,145.316917 136.749232,145.496564 C132.720359,146.033394 128.666134,145.779985 124.633035,145.424705 C120.559796,145.06541 116.488669,144.725136 112.404866,144.511883 C99.195067,143.816667 85.9650228,143.950131 72.7433781,144.138874 L65.2717649,144.247104 C59.3132468,144.331159 53.3536826,144.39664 47.3953389,144.350929 L44.6063517,144.324928 C43.427627,144.313493 42.2482833,144.299149 41.0708997,144.264505 L40.3647254,144.241144 C38.9619085,144.19042 37.1048662,144.40177 35.8858521,143.570952 C34.8802183,142.886388 34.6562746,141.630968 35.2626127,140.618811 C35.4379648,140.326936 35.6788099,140.066975 35.9302183,139.813355 C36.4457113,135.406913 36.7351479,130.978913 37.0309225,126.553238 C38.0576831,111.065699 37.4576831,95.6580517 35.0893732,80.3267014 C28.7344437,82.2692219 22.4766972,84.7058795 16.3795141,87.3202826 C13.0816268,88.734216 9.80064085,90.2009871 6.5576831,91.7396172 C3.59782394,93.1450967 0.625288732,94.9014176 -2.53738732,95.8144509 C-2.82488732,96.0696564 -3.22686429,96.1911237 -3.58340619,96.0778457 L-3.62964085,96.0617307 L-3.63175352,96.0617307 C-3.95710563,96.1378168 -4.31837324,96.0913198 -4.67330282,95.877856 C-4.7451338,95.8343178 -4.81696479,95.7905918 -4.88879577,95.7456133 L-4.99654225,95.6770732 C-6.10992254,94.9753902 -7.22964085,94.1109675 -8.01766901,93.054216 C-8.97471127,93.9418873 -10.0035845,94.7557973 -11.0155563,95.5798521 C-12.1141479,96.4759773 -13.2085141,97.3763295 -14.2944296,98.2851358 C-14.7254155,98.6465448 -15.2007676,98.9910458 -15.5810493,99.4074059 L-15.6362919,99.4685252 C-15.6451338,99.4784665 -15.6535845,99.488353 -15.661331,99.4982865 C-14.0155563,100.563492 -12.5747113,102.180322 -11.2838662,103.585801 C-9.89773944,105.094208 -8.55952817,106.650721 -7.23226901,108.213276 L-5.94738067,109.728929 C3.13846479,120.462073 12.3172606,131.584305 24.0802183,139.473081 C25.9393732,140.720048 24.166838,143.757151 22.3203592,142.482709 C18.825993,140.075429 15.5196549,137.401848 12.3443028,134.588564 C6.77951408,129.6622 1.77247183,124.13539 -2.91555634,118.376095 C-5.28809155,115.461363 -7.59090845,112.475406 -9.84724648,109.469793 L-10.6130493,108.450324 C-11.6335563,107.090581 -12.6486549,105.72678 -13.6204859,104.331868 L-13.8238227,104.039516 C-14.6762617,102.808986 -15.5827707,101.426584 -16.1324577,100.009754 C-16.3437254,100.223218 -16.5824577,100.402654 -16.9310493,100.53813 C-17.5268239,100.770615 -18.2578099,100.282396 -18.4035845,99.7011828 C-18.7585141,98.2914763 -17.533162,97.4524157 -16.5359789,96.7040243 C-15.3254155,95.7996564 -14.0916127,94.9267796 -12.8556972,94.0581299 L-12.41423,93.7458839 C-10.8686914,92.6493943 -9.31503582,91.523948 -7.6310493,90.6575037 C-7.58034507,90.5898716 -7.51907746,90.5264665 -7.44935915,90.4715155 C-7.36907746,90.4081104 -7.29090845,90.3468188 -7.21062676,90.2855272 C-9.22189437,87.0222787 -11.4275282,83.8858403 -13.8887958,80.9224978 C-15.7395,78.693175 -17.7042887,76.5646661 -19.783162,74.5483843 L-20.7170505,73.6438178 C-22.1296641,72.2790411 -23.5984629,70.8947142 -25.1662606,69.7084626 L-25.6570606,70.2651424 C-26.3124296,71.0066607 -26.9742887,71.7424978 -27.674007,72.4391084 C-29.0514718,73.8086583 -30.4099225,75.2058951 -31.7620352,76.6027092 C-34.007508,78.9269586 -36.1769245,81.3226357 -38.3394671,83.721729 L-39.4204859,84.9212454 C-41.6725986,87.4215194 -44.0852746,89.8755076 -46.1324577,92.546764 L-46.2346951,92.6819758 C-47.1284508,93.8811442 -47.7646729,95.2082982 -47.3493592,96.7317112 C-46.9486322,98.2002548 -45.9958835,99.5025333 -45.1746779,100.770716 L-45.0930211,100.897425 C-41.7402042,106.122005 -38.1486549,111.213433 -34.3014718,116.085269 C-26.5965423,125.843312 -17.8078099,135.091789 -7.32048592,141.876134 C-5.86696479,142.816643 -7.22541549,145.154177 -8.6810493,144.203101 C-14.8056972,140.198013 -20.4317535,135.387891 -25.6078099,130.222279 C-30.3592183,125.481692 -34.6648521,120.261339 -38.7000634,114.903609 C-40.6669648,112.289206 -42.5514718,109.619852 -44.3578099,106.891531 C-46.1092183,104.243101 -48.1352746,101.519007 -49.404993,98.5979342 C-50.0698553,97.0614176 -50.3155563,95.3980908 -49.7704859,93.7791476 C-49.270614,92.2912415 -48.2820445,91.0557292 -47.2536232,89.8933876 L-47.1571056,89.784627 C-44.7930211,87.1279538 -42.3866831,84.5029832 -39.9592183,81.9033746 C-37.5233028,79.2953119 -34.9754155,76.7802434 -32.3747113,74.3391476 C-30.3317535,72.4179734 -28.2021761,70.7248462 -25.9247113,69.1568384 C-26.1296408,69.0110067 -26.3345704,68.8715155 -26.5437254,68.7362513 C-27.1796408,68.3220047 -27.3402042,67.436447 -26.7824577,66.8742552 C-25.2592183,65.3354137 -23.5035845,63.9975663 -21.8514718,62.5967366 C-20.2986549,61.2798129 -18.745838,59.9609871 -17.1930211,58.6421613 C-14.0324577,55.9622395 -10.8718944,53.2802043 -7.71133099,50.5981691 C-2.03457042,45.7814959 3.6105,40.9310067 9.26824648,36.0931984 C11.6274014,34.0765644 14.0085634,32.0848814 16.3836123,30.0875722 L20.6033013,26.5350771 L20.6033013,26.5350771 L22.6671365,24.80172 C23.7245659,23.9157179 24.8044988,23.0395611 26.0069789,22.3638834 C28.8363573,20.7739319 32.2379105,20.0860646 35.3552224,19.2436874 L35.5626127,19.1872885 C39.0590915,18.230083 42.5745845,17.3295194 46.1090915,16.5263883 C49.6478239,15.7232571 53.2013451,14.9919851 56.7696549,14.3302474 C59.9766972,13.7344509 63.2597958,13.2229832 66.5302183,13.1468971 C67.3414859,12.8383256 68.3597958,12.730537 69.1583873,13.0602434 C69.4879648,13.1976211 69.832331,13.3984039 70.138669,13.6520243 C71.7379648,13.0898325 73.3161338,12.8214176 74.8097958,11.8703413 C76.3013451,10.9215898 77.6217676,9.67441174 78.7330352,8.30063483 C81.0295141,5.45585988 82.2316268,2.09539022 83.038669,-1.41534951 Z M119.801345,94.9162121 C118.533739,94.8276564 117.392894,95.3515937 116.2605,95.9095585 C116.898528,96.1864274 117.536556,96.4611828 118.174585,96.7338247 L122.421063,98.5472102 L122.421063,98.5472102 C123.82388,99.1453315 125.309092,99.6652532 126.64219,100.402654 C126.737261,100.455492 126.813317,100.519108 126.870359,100.593081 C128.256275,99.7056211 129.722472,98.9130575 131.127401,98.0695585 C131.448528,97.8772297 131.771768,97.684901 132.095007,97.4925722 C130.421768,98.0526505 128.706275,98.3337464 126.889373,97.8074841 C124.466134,97.1079147 122.361908,95.0958599 119.801345,94.9162121 Z M123.274585,90.6638442 L123.046884,90.5089884 C121.817357,89.6653245 120.350268,88.5808006 118.856979,89.3386779 C118.153458,89.6958599 117.576697,90.2728462 116.883739,90.6575037 C116.186556,91.0463883 115.419655,91.3443922 114.64219,91.5240399 C113.351345,91.8220438 111.872472,91.8664274 110.484444,91.5787796 L110.50557,93.4557816 L110.50557,93.4557816 C111.55557,93.8890497 112.599232,94.3330967 113.642894,94.7809479 C114.320487,94.5492312 114.972623,94.2708252 115.658316,93.9654089 L116.121063,93.7580125 C117.441486,93.1639068 118.774585,92.766991 120.234444,92.9548814 C122.983035,93.3078364 125.059796,95.3515937 127.687965,96.0321417 C130.909796,96.8693002 133.816838,94.4639225 136.861204,93.8700282 C137.363176,93.7711162 137.880549,93.7132908 138.394842,93.7042556 L138.566134,93.7030614 L138.64219,93.6586779 C139.29712,93.2740204 140.277401,92.9064822 140.733739,92.2595389 C141.230218,91.557856 141.272472,90.3827483 141.435148,89.5584822 C141.452049,89.4760556 141.468951,89.3915155 141.483739,89.3090888 C141.196415,89.3090888 140.904866,89.323672 140.609092,89.3788344 C139.679514,89.5500282 138.804866,89.8797346 137.938669,90.2476955 C136.301345,90.9428266 134.699937,91.7353902 132.975993,92.1982474 C131.287965,92.6524391 129.52388,92.8682278 127.785148,92.6167209 C126.088669,92.3713432 124.679514,91.6064665 123.274585,90.6638442 Z M123.539093,84.0651883 L123.284584,83.901217 C122.613124,83.472632 121.843035,83.0286458 121.020359,83.1862708 C120.285148,83.3278755 119.653458,83.9133159 119.013317,84.2747249 C117.608387,85.0672885 116.032331,85.5005566 114.424585,85.6104587 C113.087261,85.7013393 111.699232,85.5385996 110.412613,85.1412611 L110.456979,89.2966192 L110.456979,89.2966192 C110.928106,89.4464665 111.416134,89.5542552 111.929514,89.5922982 C113.488669,89.7085409 115.009796,89.3344509 116.317542,88.4742552 L116.979117,88.0348693 C118.111197,87.2907549 119.173465,86.7001921 120.671768,86.9717659 C122.154866,87.242083 123.399232,88.1931593 124.611908,89.0216524 L124.810761,89.1552342 C126.203426,90.074976 127.615077,90.6687437 129.323176,90.6828658 C131.167542,90.6974489 132.990782,90.1840791 134.708387,89.5521417 C136.413317,88.9267562 138.033739,88.1762513 139.856979,87.9458795 C140.414725,87.8761339 141.095007,87.8549988 141.735148,87.964901 C141.819655,87.4935898 141.899937,87.0246035 141.975993,86.553081 C142.140782,85.5407131 142.282331,84.5304587 142.404866,83.5180908 C139.170359,82.6473276 136.183035,85.464627 133.17881,86.3332767 C131.435852,86.8362904 129.538669,86.8301613 127.795711,86.3438442 C126.182947,85.8936087 124.915172,84.959009 123.539093,84.0651883 Z M123.54712,77.0676798 C122.856275,76.9345292 122.17388,77.2536681 121.586556,77.5812611 C120.088669,78.4120791 118.795711,79.5679538 117.099232,80.0054489 C114.916838,80.5676407 112.529514,80.0836485 110.361908,79.1642748 C110.370359,80.4469597 110.380923,81.7300673 110.391486,83.0129636 C110.799232,83.1674607 111.217542,83.291946 111.644303,83.3912806 C113.161204,83.7378951 114.768951,83.691398 116.262613,83.2539029 C117.785852,82.8077425 118.954162,81.6032571 120.481627,81.2270536 C122.043547,80.8410896 123.51586,81.5919651 124.774594,82.4455229 L125.153452,82.7041054 C126.592284,83.6808681 127.987683,84.5296133 129.787965,84.6953119 C131.691486,84.8707327 133.345711,84.2747249 135.046415,83.4844861 L135.442305,83.3011595 C137.595509,82.3117487 140.390616,81.1854052 142.540077,82.3112806 C142.709092,80.7134724 142.831627,79.1158755 142.914021,77.5157425 C142.618246,77.4058403 142.311908,77.3255272 141.959092,77.3234137 C141.116134,77.319398 140.230923,77.5854881 139.445007,77.8623569 C137.727401,78.4689323 136.128106,79.3733002 134.427401,80.0223569 C132.81543,80.6394998 131.030218,80.9607523 129.3105,80.6840947 C127.717542,80.4281495 126.521768,79.5954294 125.421063,78.4541378 L125.261182,78.285438 C124.778472,77.7716665 124.262049,77.206537 123.54712,77.0676798 Z M124.808387,71.1350771 C124.011908,70.7147014 123.04219,70.323492 122.121063,70.4460751 C121.24219,70.5620159 120.656477,71.1585033 120.115268,71.796019 L119.822169,72.1450003 C118.854024,73.2909084 117.901067,74.2543617 116.408387,74.7259186 C114.861908,75.2120243 113.222472,75.021809 111.783739,74.3095585 C111.272472,74.0559382 110.79712,73.7410262 110.319655,73.4303413 L110.345007,76.8011671 L110.345007,76.8011671 C111.299937,77.2767053 112.271768,77.7059577 113.338669,77.9659186 C115.307683,78.4456838 116.980923,78.0906153 118.664725,77.0042748 L118.841506,76.8891555 C120.109761,76.0559842 121.410124,75.0639851 122.976697,74.9710849 C124.505477,74.8795663 125.652791,75.727409 126.659588,76.7651179 L126.777401,76.8880321 C128.04712,78.2277816 129.329514,78.8810654 131.218246,78.7267796 C133.049377,78.5770317 134.763085,77.7682604 136.4405,77.0715124 L136.592894,77.0085018 C138.126697,76.3784665 139.895007,75.7298325 141.57881,75.9707718 C141.982331,76.0278364 142.504162,76.1525331 142.968951,76.3702239 C143.036556,74.7933393 143.068246,73.214764 143.074585,71.6338638 C142.117542,70.8034685 140.628106,70.6658795 139.430218,71.0061534 C137.554162,71.5387562 136.018246,72.9125331 134.226697,73.6585996 C132.637965,74.320126 130.981627,74.4680712 129.361204,73.842263 C127.687965,73.1957425 126.375993,71.9635703 124.808387,71.1350771 Z M142.968951,64.4944509 C140.16543,64.591672 137.423176,66.415625 134.746415,67.1109675 C131.756255,67.8871732 129.315851,66.8290415 126.652154,65.6543429 L126.308387,65.5028031 C124.941486,64.9025683 123.473176,64.3634137 121.958387,64.60858 C120.481627,64.8497307 119.175993,65.667445 117.906275,66.407171 L117.662937,66.5473382 C115.34987,67.8646384 112.994625,68.7664063 110.294303,68.5415977 C110.309092,69.3893237 110.302754,70.2347249 110.304866,71.063218 C110.748528,71.3168384 111.175289,71.6042748 111.580923,71.8663491 L111.726503,71.9586522 C113.013882,72.7639373 114.340961,73.2932326 115.875993,72.7962904 C117.359092,72.3144117 118.056275,71.0230614 119.074585,69.9599695 C120.0105,68.9835311 121.231627,68.3898481 122.600641,68.4467014 C124.073176,68.5056681 125.46543,69.1547249 126.682331,69.9472885 C127.899232,70.7398521 129.075993,71.7646896 130.499937,72.1622395 C133.694303,73.0496994 136.430218,69.6704196 139.451345,69.1441573 C140.718951,68.9222395 142.117542,69.2033354 143.074585,69.9682121 C143.064021,68.146584 143.02388,66.3205174 142.968951,64.4944509 Z M118.837965,63.7293628 C118.442894,63.7441573 118.047824,63.7610654 117.652754,63.7779734 C116.190782,63.8413785 114.72881,63.9132376 113.266838,63.9956642 C112.254866,64.0504039 111.0105,64.3613002 110.017542,64.0527288 C109.99219,64.1541769 109.958387,64.2516094 109.914021,64.3465057 C110.064021,65.0946857 110.156979,65.8682278 110.214021,66.6502239 C111.130923,66.7495585 112.062613,66.7157425 112.966838,66.5276407 C115.136556,66.0774646 116.898528,64.7079147 118.837965,63.7293628 Z M142.926697,63.1016524 C137.588127,63.4694832 132.208538,63.3429388 126.861179,63.4585466 L126.219655,63.473629 C126.194303,63.473629 126.168951,63.4759538 126.143599,63.4759538 C126.756803,63.7137229 127.365254,63.9858496 127.971625,64.2630884 L128.577401,64.5409479 C130.009796,65.2003609 131.467542,65.7393041 133.071063,65.6230614 C134.788669,65.4983648 136.406979,64.7968932 138.012613,64.230263 C139.544303,63.6892063 141.308387,63.3256838 142.941486,63.5623961 C142.937261,63.4081104 142.933035,63.2559382 142.926697,63.1016524 Z" id="ðŸ–-Ink" fill="#000000"></path>
                    </g>
                    <g id="head/Bun" transform="translate(78.591549, 38.043053)" fill-rule="evenodd">
                        <path d="M25.4433592,5.60499269 C38.7562656,4.87795254 50.5511704,1.13595076 59.9222113,9.51071725 C70.0288492,1.96026549 75.9253281,-0.377112539 77.6116479,2.49858317 C79.3065738,5.38895489 76.9560347,9.26906543 77.5862958,12.8357084 C81.6958817,19.8442129 81.4635336,31.7068879 81.6958817,34.4868746 C82.2815185,41.493872 85.9703295,67.8612303 85.9703295,74.1225634 C85.9703295,77.3185843 83.3363001,85.689051 81.6958817,90.3472433 C78.0446789,100.715333 71.0751265,105.999339 59.64534,105.999339 C48.2155535,105.999339 29.5598815,96.4425336 23.5766967,87.9575037 C23.0523349,87.2138821 19.6614706,89.3833415 16.1147676,85.6201013 C12.2724659,81.5432153 10.1409718,73.7672198 10.1409718,69.1319278 C10.1409718,63.2499152 6.34102132,59.1707987 6.78301535,51.6416392 C7.77011359,34.8268869 11.1979277,6.3829596 25.4433592,5.60499269 Z" id="ðŸŽ¨-Background" fill="#FFFFFF"></path>
                        <path d="M23.9560141,-13.9444697 C24.1292535,-13.9550372 24.3046056,-13.9465832 24.4799577,-13.9294638 C24.6722113,-13.9210098 24.8644648,-13.9021996 25.0567183,-13.8639452 C26.0348873,-13.6760548 26.9074225,-13.1582466 27.5834789,-12.4290881 C27.602493,-12.4100665 27.6172817,-12.3887202 27.6341831,-12.36991 C27.9510845,-12.1310841 28.2447465,-11.8603444 28.508831,-11.5731194 C28.5553099,-11.6175029 28.5996761,-11.6616751 28.6482676,-11.7060587 C28.7877042,-11.8288532 28.9334789,-11.9450959 29.0855915,-12.0547867 C29.72215,-12.600824 30.4688872,-12.9977718 31.2721844,-13.2236194 L31.3820704,-13.2533542 C31.4031972,-13.2596947 31.4243239,-13.2639217 31.4454507,-13.2681487 C32.0158732,-13.4581526 32.6158732,-13.5553738 33.2200986,-13.5534716 C33.9426338,-13.5767202 34.6672817,-13.4581526 35.343338,-13.1793816 C36.1440423,-12.8473503 36.8412254,-12.3234129 37.4264366,-11.6933777 C37.8109437,-11.3805793 38.1468592,-11.0362896 38.5017887,-10.6577613 C39.2348873,-9.87386301 39.8137606,-8.95660274 40.1792535,-7.94613699 C40.2299577,-7.80453229 40.2743239,-7.65891194 40.3144648,-7.51308023 C41.2081268,-7.61643053 42.1060141,-7.69040313 43.0039014,-7.72654403 C44.0116479,-7.78762427 45.0193944,-7.80897065 46.0292535,-7.77494325 C48.8116479,-7.68427397 51.5327746,-7.19372994 54.1672817,-6.29549119 C54.6954507,-6.13930333 55.208831,-5.94063405 55.7031972,-5.69546771 C56.4785493,-5.38689628 57.2116479,-4.99378474 57.902493,-4.51824658 L58.491,-4.16909589 C58.7866056,-3.99333699 59.0822113,-3.8152955 59.3686901,-3.63268885 C60.0510845,-3.19498239 60.6975634,-2.70486106 61.3102394,-2.17648532 C61.9567183,-1.65423875 62.5672817,-1.08570646 63.1482676,-0.48990998 C63.3060845,-0.328649706 63.4584085,-0.16527593 63.6086197,-0.000845401173 C64.9478451,0.722183953 66.137493,1.64789824 67.2470704,2.75199217 C68.127,2.24559687 69.0381972,1.78654403 69.9785493,1.37842661 C70.9482676,0.95783953 72.1799577,0.524571429 73.1961549,0.239459883 C74.108831,-0.0162739726 75.0109437,-0.191694716 75.9257324,-0.320829746 C76.3419296,-0.392688845 76.7602394,-0.449753425 77.180662,-0.498363992 L77.1637606,-0.491812133 L77.1637606,-0.491812133 C77.4595352,-0.523726027 77.7531972,-0.551201566 78.0510845,-0.576563601 L78.0426338,-0.578677104 L78.0426338,-0.578677104 C78.1693944,-0.589033268 78.2982676,-0.599812133 78.4250282,-0.608266145 L78.7334789,-0.63341683 L78.7334789,-0.63341683 C78.8264366,-0.641870841 78.9616479,-0.424391389 78.9700986,-0.348305284 L78.980662,-0.270105675 L78.980662,-0.270105675 C79.0503803,-0.191694716 79.1137606,-0.105041096 79.1581268,-0.0522035225 C79.2130563,-0.0566418787 79.2679859,-0.0606575342 79.3229155,-0.0629823875 C79.4877042,-0.0775655577 79.6778451,0.216 79.7750282,0.328015656 L79.8628893,0.431296397 C79.9629938,0.551709307 80.0630022,0.69040012 80.0792535,0.841596869 C80.187,1.71891194 80.2884085,2.59791781 80.3813662,3.47713503 C80.4172817,4.14288845 80.3813662,4.80230137 80.271507,5.45537378 C80.1891127,6.08942466 80.1046056,6.72347554 80.0200986,7.35541292 C79.8848873,7.79945988 79.7517887,8.2432955 79.6186901,8.68691977 C79.5658732,8.85621135 79.5067183,9.02296673 79.4496761,9.18993346 C79.1118592,10.3050176 78.7157324,11.3905127 78.2439718,12.4424031 C78.5881268,12.8232564 78.9090423,13.2180587 79.2075634,13.6257534 C79.2789718,13.699092 79.3508028,13.7720078 79.4179859,13.8480939 C79.437,13.8187162 79.4644648,13.7912407 79.4940423,13.7762348 C79.5954507,13.7318513 79.6693944,13.7846888 79.7327746,13.8715538 C80.3982676,14.5075068 80.8820704,15.2495577 81.1820704,16.0968611 L81.3689249,16.5387554 C81.3999108,16.6126497 81.430662,16.6865988 81.4609437,16.760501 C81.6996761,17.4032172 81.8834789,18.0626301 82.0355915,18.7302857 C82.1716479,19.2557025 82.2692535,19.7883053 82.3322113,20.3266145 C82.7885493,21.8595382 83.1493944,23.4277573 83.4897465,24.9748415 C83.5434085,25.218317 83.5180563,25.4355851 83.4400986,25.620728 L83.6391127,25.8147476 L83.6391127,25.8147476 L83.9791264,26.1535 C84.5503803,26.7232603 85.1331268,27.3222035 85.5574225,28.0001096 C85.9968592,28.7039061 86.3200986,29.4563131 86.6792535,30.202591 L86.7566303,30.3611037 L86.7566303,30.3611037 L86.9147839,30.6789886 C87.0857786,31.0260646 87.1678099,31.2178386 87.3193944,31.6374481 C87.5708028,32.337229 87.7060141,33.0408141 87.7693944,33.782865 C87.8623521,34.8626536 87.8496761,36.0398748 87.3764366,37.0437886 C87.3743239,37.0522427 87.3700986,37.0587945 87.3658732,37.0649237 C87.1503803,38.0352329 86.6179859,38.9353738 85.808831,39.5102466 C85.6355915,39.6731977 85.4496761,39.8190294 85.2510845,39.9350607 C84.7744648,40.2150575 84.3367859,40.2400868 83.8165525,40.1105617 L83.7510845,40.0935734 C83.6855915,40.0766654 83.6264366,40.0618708 83.5693944,40.0491898 C83.6539014,40.1189354 83.6961549,40.2015734 83.5693944,40.2605401 C83.4468592,40.3197182 83.337,40.3535342 83.2334789,40.3662153 C83.2778451,40.4232798 83.2820704,40.4845714 83.1891127,40.5352955 C82.9862958,40.6430841 82.821507,40.6771115 82.652493,40.6473112 L82.6880343,40.9411318 C82.9651989,43.164571 83.2131282,43.6042829 83.4299577,45.9925714 C83.5736197,48.437683 83.8017887,50.8766654 84.1165775,53.3052916 L84.2250761,54.1877467 C84.5725993,56.9846649 84.9633581,59.8020889 85.5616479,62.5537691 C85.8637606,63.7563523 86.1236197,64.9673894 86.343338,66.1868806 C86.6539014,67.1147084 86.871507,68.0636712 86.9919296,69.0316556 C87.1672817,70.0165479 87.2877042,71.0098943 87.3574225,72.0116947 C87.6003803,72.6522975 87.7186901,73.303045 87.7123521,73.9666849 C87.7440423,74.8585832 87.7144648,75.7485793 87.6193944,76.634137 C87.5665775,77.5554129 87.4398169,78.4684462 87.2391127,79.3730254 C87.0595352,80.613863 86.7320704,81.8122192 86.2630563,82.9746458 C85.887,84.2721252 85.4264366,85.5446654 84.902493,86.7893072 C84.0891127,88.7168219 83.1067183,90.5069589 81.9891127,92.2717339 C80.9412254,93.9266067 79.8172817,95.5201879 78.5327746,97.0019648 C76.8722113,98.9165871 74.9792535,100.670795 72.9046056,102.150247 C71.721507,103.025448 70.4729155,103.81146 69.1672817,104.483765 C67.5700986,105.30782 65.9475634,106.049659 64.2172817,106.55056 C63.1377042,106.863358 62.0391127,107.078935 60.9278451,107.244 C58.7454507,107.567155 56.4848873,107.518544 54.2898169,107.140227 C52.8743239,106.950012 51.4820704,106.620305 50.1658732,106.148994 C49.0841831,105.760321 48.0531972,105.31416 47.0222113,104.811147 C46.4919296,104.555413 45.980662,104.259523 45.4905211,103.927703 C44.6665775,103.392986 43.8954507,102.788736 43.1771408,102.120658 C42.9426338,101.919875 42.7144648,101.714865 42.4905211,101.499288 C42.3827746,101.40418 42.4419296,101.262575 42.5665775,101.228971 L42.6046056,101.224532 L42.6046056,101.224532 C42.5560141,101.180149 42.5053099,101.135765 42.4567183,101.089268 C42.4461549,101.080814 42.4377042,101.070458 42.4292535,101.059679 C42.4060141,101.038544 42.380662,101.01762 42.3595352,100.996485 C42.2771408,100.924415 42.3595352,100.763789 42.4313662,100.725746 C42.458831,100.710951 42.4947465,100.709049 42.5348873,100.713065 C42.5264366,100.704611 42.5200986,100.69827 42.5116479,100.692141 C42.5031972,100.685589 42.5010845,100.668681 42.5031972,100.651773 L42.471507,100.626622 L42.471507,100.626622 C42.3637606,100.531303 42.4186901,100.392023 42.5454507,100.355883 C42.6074225,100.337096 42.709457,100.346698 42.8159428,100.369845 L42.8560141,100.379131 L42.7841831,100.311499 C42.6574225,100.201597 42.6975634,100.079014 42.8539014,100.041182 C42.9705211,100.047945 43.0857887,100.064042 43.1997042,100.091852 L43.2848873,100.114943 C43.3271408,100.125511 43.3672817,100.138192 43.4095352,100.151084 C43.3377042,100.085354 43.2658732,100.02216 43.1961549,99.9564305 C43.1264366,99.8953503 43.2003803,99.7197182 43.2637606,99.684 C43.3503803,99.6353894 43.5193944,99.7028102 43.5975634,99.7598748 C43.7898169,99.7812211 44.043338,99.8655499 44.1362958,99.945863 C44.3919296,100.191029 44.6560141,100.425628 44.9243239,100.653886 C45.087,100.704611 45.2412254,100.772243 45.3595352,100.873691 C45.6637606,101.165354 45.980662,101.440321 46.3039014,101.706411 L46.5495978,101.875804 C46.5907559,101.903671 46.6320704,101.931147 46.6736197,101.957918 C47.1384085,102.23056 47.6031972,102.501088 48.0658732,102.77373 C49.7623521,103.348603 51.458831,103.923687 53.1531972,104.496446 L53.3771408,104.563867 L53.3771408,104.563867 L55.0229155,104.766763 L55.0229155,104.766763 C56.1046056,104.880892 57.1884085,104.874763 58.2700986,104.749855 C59.0813662,104.760634 59.8862958,104.68011 60.6785493,104.515256 C62.0243239,104.286998 63.3447465,103.951162 64.6292535,103.481753 C66.1081268,102.94281 67.5172817,102.232885 68.8926338,101.467796 C69.387,101.190716 69.8729155,100.896939 70.3503803,100.586466 C70.5046056,100.476564 70.658831,100.364337 70.8130563,100.250207 C71.8292535,99.4872329 72.8010845,98.6735342 73.737,97.8133386 C74.1764366,97.4096595 74.5989718,96.9892838 75.0067183,96.5539022 C75.0658732,96.4902857 75.1229155,96.4292055 75.1799577,96.365589 C75.5708028,95.9386614 75.9489718,95.4971507 76.3102394,95.0404227 L76.6546056,94.6517495 L76.6546056,94.6517495 C78.0447465,92.9207906 79.280662,91.0587945 80.3919296,89.141636 C81.4947465,87.2415969 82.4031972,85.2422231 83.1257324,83.1731037 C83.3581268,82.4354912 83.5609437,81.6875225 83.7299577,80.9308885 C84.0426338,80.0218708 84.2475634,79.0900274 84.3426338,78.1389511 C84.3743239,77.9527515 84.3996761,77.7667632 84.4250282,77.580775 L84.4395822,77.287593 C84.4416948,77.2386458 84.443338,77.1897769 84.4440423,77.1411663 C84.4862958,76.8454873 84.5222113,76.5493855 84.5496761,76.2534951 C84.5665775,75.9557025 84.5771408,75.6574873 84.5792535,75.3594834 L84.5560141,73.5313033 L84.5560141,73.5313033 C84.5496761,73.4742387 84.543338,73.415272 84.5391127,73.3558826 L84.4926338,72.9524149 C84.3912254,72.1194834 84.3130563,71.2846497 84.2116479,70.4521409 C84.2116479,70.4477025 84.2116479,70.441362 84.2095352,70.4350215 C84.171507,70.1243366 84.1313662,69.8115382 84.0848873,69.4987397 C84.0616479,69.3127515 84.0320704,69.1267632 84.0046056,68.940775 L83.9517887,68.6155068 L83.9517887,68.6155068 C83.8538134,68.0496164 83.7348103,67.4884187 83.5905335,66.9321967 L83.5271408,66.6941213 L83.1595352,64.8448063 L82.7454507,63.0250802 C82.4771408,61.805589 82.2531972,60.5776438 82.0757324,59.3391311 C81.7546056,57.3653307 81.4799577,55.3889941 81.2412254,53.4044149 C81.2285493,53.3093072 81.2158732,53.2120861 81.2053099,53.1169785 C80.9623521,51.2763288 80.787,49.4289159 80.6729155,47.5753738 C80.5186901,45.7495186 80.4299577,43.9190137 80.4067183,42.086818 C80.4046056,42.00418 80.4595352,41.9367593 80.5250282,41.8985049 L80.5191666,41.5462247 C80.5113674,41.2345685 80.5057686,41.6084372 80.503076,41.2531372 L80.4990561,40.2758955 C80.4992973,40.1944508 80.5000851,40.1377635 80.5017887,40.1337299 C79.3729526,40.2118183 78.613864,40.1478301 77.5239486,40.0903812 L77.3391127,40.0808924 C76.3398169,40.0346067 75.3468592,39.9247045 74.3602394,39.7596399 C74.3560141,39.8105753 74.3222113,39.8462935 74.265169,39.8568611 C74.1637606,39.8610881 74.0686901,39.8610881 73.971507,39.8634129 L74.0074225,40.0005793 L74.0074225,40.0005793 C74.0095352,40.0705362 73.9778451,40.1147084 73.9102394,40.1337299 L73.6284085,40.1463941 C73.2521831,40.16222 72.8746056,40.1696595 72.5010845,40.1189354 C72.165169,40.0747632 71.8377042,39.9963523 71.5123521,39.9033581 C71.3116479,39.8695421 71.1067183,39.8232564 70.8975634,39.7638669 C70.3609437,39.6095812 69.8285493,39.4024579 69.2898169,39.237816 C68.7405211,39.121362 68.1827746,39.0835303 67.5996761,39.2228102 C66.9827746,39.3686419 66.4609437,39.6328297 65.8144648,39.4722035 C65.6855915,39.4407123 65.5609437,39.3921018 65.4362958,39.3411663 L65.3209593,39.3331194 C65.3013192,39.3313973 65.2813662,39.3292603 65.2609437,39.3263718 C64.587,39.229362 63.987,38.8024344 63.3447465,38.5739648 C63.1204778,38.5193389 62.8980093,38.5331454 62.6806642,38.6238623 L62.6264366,38.6481487 L62.4130563,38.8066614 C62.3271408,38.9079687 62.2421643,39.0103092 62.1581268,39.1129941 L62.0327746,39.2671937 C61.802493,39.5525166 61.5574225,39.8082505 61.2595352,39.9942387 C60.9003803,40.3260587 60.4736197,40.520501 59.9644648,40.533182 C59.6750282,40.541636 59.3877042,40.4803444 59.108831,40.3917886 C58.0567183,40.7172681 56.930662,40.7827867 55.880662,40.4657613 C55.4644648,40.4021448 55.0567183,40.2903405 54.6658732,40.1147084 C54.4820704,40.0322818 54.2982676,39.9350607 54.1208028,39.827272 C53.3792535,40.1402818 52.6778451,40.5564305 51.9616479,40.9159374 L51.800335,40.9969651 C51.0685411,41.361648 50.2587581,41.7172465 49.430662,41.6641174 C48.387,41.596274 47.3623521,41.4569941 46.3398169,41.281362 C46.3313662,41.281362 46.3208028,41.2792485 46.3123521,41.277135 L46.1715951,41.2537016 L46.1715951,41.2537016 L45.6600829,41.1639139 L45.6600829,41.1639139 L45.2475634,41.0871311 L45.2475634,41.0871311 L45.0367581,41.1679259 C43.3433797,41.8088775 41.4879296,42.3088626 39.7862958,41.8604618 C39.0447465,41.7697926 38.3496761,41.5201879 37.7222113,41.0953738 C37.7010845,41.0805793 37.6799577,41.0657847 37.658831,41.0488767 C37.5595352,40.9981526 37.4665775,40.9412994 37.3841831,40.8800078 L37.3664894,40.8661644 L37.3664894,40.8661644 L37.3503803,40.8523209 L37.3419296,40.8480939 C36.4144648,40.4213777 35.8820704,39.5123601 35.9750282,38.493863 C35.9179859,38.1702857 35.9200986,37.8532603 35.9834789,37.5153112 C35.6813662,37.8722818 35.3729155,38.2254481 35.0602394,38.5760783 C33.9165272,39.9537803 32.7964963,41.3589998 31.7593502,42.821858 L31.521507,43.1604775 C30.9510845,43.9655108 30.4208028,44.7984423 29.930662,45.6563131 C29.4341831,46.5038278 28.9250282,47.3430998 28.3989718,48.171593 C27.714993,48.9277779 27.0536593,49.7020861 26.4163863,50.4953671 L26.1447465,50.8365088 L25.2278451,52.043319 C24.5792535,52.8128454 24.0405211,53.6540196 23.6158732,54.5668415 C23.2672817,55.2158982 22.9461549,55.8774247 22.6567183,56.5558591 C22.5637606,56.7606575 22.4750282,56.9677808 22.3884085,57.1749041 C22.0905211,57.9843757 21.8391127,58.8088532 21.6426338,59.6603836 C21.4848169,60.276681 21.371493,60.9015382 21.3042021,61.5351091 L21.2834789,61.7466223 C21.2581268,61.9958043 21.2391127,62.2451977 21.2285493,62.494591 C21.2898169,62.5307319 21.3405211,62.5664501 21.3785493,62.6023796 L21.5327746,62.6575421 L21.5327746,62.6575421 L21.6574756,62.6945024 C21.8518716,62.7548836 22.1875585,62.8796129 22.1074225,63.0335342 L21.6996761,63.8115147 L21.6996761,63.8115147 C21.7419296,63.8558982 21.7609437,63.902184 21.7334789,63.9531194 C21.4609437,64.4749432 21.1862958,64.9969785 20.9116479,65.519225 C20.9031972,65.5382466 20.8884085,65.5528297 20.8736197,65.5636086 C21.1081268,65.6711859 21.3362958,65.7895421 21.5539014,65.9184658 C21.9785493,66.1722975 22.2912254,66.465863 22.580662,66.8082505 C22.8848873,66.9902231 23.1722113,67.1888924 23.4426338,67.4169393 C23.7764366,67.7677808 24.0679859,68.1526497 24.315169,68.5687984 C24.543338,68.96191 24.7292535,69.3719295 24.8729155,69.8009706 C24.9362958,70.0271155 24.9658732,70.2617143 24.9637606,70.5005401 C24.7081268,72.305683 22.6440423,71.0690724 22.6039014,70.9105597 C22.3208028,69.8199922 21.9954507,69.1312016 21.2644648,68.3196164 L21.2454507,68.3067241 L21.2454507,68.3067241 C20.8229155,68.1207358 20.4046056,67.9368611 19.9672817,67.7931429 C19.9017887,67.8058239 19.8341831,67.8144892 19.7665775,67.8248454 C19.8426338,67.9328454 19.8046056,68.0385205 19.6503803,68.0573307 C18.9848873,68.1885793 18.3130563,68.2242975 17.637,68.1672329 L16.6102394,68.0216125 L16.6102394,68.0216125 C16.1843239,68.1850074 15.7772324,68.3947959 15.3935852,68.6446607 L15.2665775,68.7294247 L15.243338,68.7463327 C14.252493,69.5431233 13.4877042,70.6019883 12.9637606,71.7559609 C12.9172817,71.858818 12.8726808,71.9626145 12.8299577,72.0673503 L12.7672817,72.2251585 L12.7630563,72.2336125 C12.0785493,74.9243131 12.6891127,77.8787789 13.9398169,80.3198748 C14.6222113,81.4125558 15.3341831,82.4841018 16.0778451,83.5345127 L16.8003803,84.4794599 L16.8003803,84.4794599 C17.2271408,84.8810254 17.6454507,85.2929472 18.0531972,85.7156477 C18.1165775,85.7792642 18.1841831,85.8424579 18.2517887,85.9037495 C18.4672817,86.0453542 18.687,86.1702622 18.9109437,86.2759374 C18.9975634,86.3053151 19.0862958,86.3327906 19.1750282,86.3562505 C19.6060141,86.5631624 20.0581268,86.6732759 20.5334789,86.6859569 C21.1613398,86.7275665 21.7706323,86.653821 22.3596155,86.46681 L22.4771408,86.4278982 L22.5637606,86.3961957 C22.8848873,86.1911859 23.1827746,85.9354521 23.4658732,85.6353346 C23.5292535,85.569816 23.6475634,85.569816 23.7827746,85.6057456 C23.8567183,85.5296595 23.930662,85.4493464 24.0003803,85.3626928 C24.0489718,85.3098552 24.1250282,85.307953 24.1841831,85.3478982 C24.3848873,85.3248611 24.9278451,85.6334325 24.7862958,85.7959609 C24.7630563,85.8340039 24.7334789,85.86782 24.7081268,85.9037495 C24.8031972,85.9523601 24.8982676,86.0073112 24.9827746,86.0645871 C25.4264366,86.1876693 26.0817737,86.6305859 26.0285316,86.763862 L26.0222113,86.7745127 C25.9195352,86.9687225 25.7860563,87.131775 25.6217746,87.261051 L25.5658732,87.3028885 L25.4412254,87.3895421 C25.6165775,87.4996556 25.7644648,87.6262544 25.6905211,87.7150215 C25.6567183,87.7805401 25.6208028,87.8441566 25.5785493,87.9012211 C25.9377042,88.3450568 26.2947465,88.792908 26.6496761,89.2409706 C27.0046056,90.0104971 27.4440423,90.7288767 27.9679859,91.3946301 C28.4053099,92.1174481 28.9313662,92.7665049 29.5461549,93.3453933 C29.5968592,93.3963288 29.6496761,93.4449393 29.7003803,93.4935499 C30.1532852,93.8282759 30.6272179,94.1418042 31.1207629,94.4430547 L31.3334789,94.5714364 C31.4454507,94.6388571 31.6334789,94.7233973 31.5447465,94.886137 C31.5341831,94.907272 31.521507,94.9243914 31.5067183,94.9368611 C31.8172817,95.1399687 32.1384085,95.3320861 32.4700986,95.5098317 L32.5015403,95.5291844 C32.6269268,95.6092691 32.7968028,95.7545331 32.6179859,95.8731429 C32.4658732,95.974591 32.0623521,95.6998356 31.8722113,95.5730254 C31.8362958,95.5730254 31.7940423,95.5626693 31.7517887,95.5499883 C31.815169,95.5836634 31.8776103,95.6202505 31.9409906,95.6559922 L32.037,95.708501 C32.1109437,95.7526732 32.4743239,95.9936125 32.2208028,96.095272 C32.0961549,96.1056282 31.9820704,96.0739256 31.8764366,96.0020665 C31.7517887,95.940775 31.6292535,95.8754677 31.508831,95.8076243 C31.5510845,95.8731429 31.5510845,95.9386614 31.4454507,95.9811429 C31.4095352,95.983045 31.3736197,95.9811429 31.3377042,95.9769159 C31.587,96.1354286 31.8426338,96.2831624 32.1067183,96.4226536 L32.149401,96.4494142 C32.2610097,96.5217571 32.4389366,96.6593924 32.3095352,96.7779335 C32.1637606,96.9087593 31.7623521,96.6297769 31.658831,96.5665832 L31.3503803,96.3824971 L31.3503803,96.3824971 C31.3271408,96.3930646 31.3017887,96.3972916 31.2743239,96.3996164 C31.3672817,96.456681 31.4539014,96.5179726 31.5489718,96.5727123 L31.6783107,96.6431823 C31.8403501,96.7327906 32.0692379,96.879953 31.9862958,97.0271155 C31.9033537,97.1727123 31.6569617,97.0528602 31.4978547,96.958508 L31.3266714,96.8524149 C31.3191596,96.8477965 31.3116479,96.8433112 31.3039014,96.8390137 L31.2973286,96.8644227 C31.2959202,96.8686262 31.2940423,96.8728297 31.2912254,96.8770568 C31.212,97.0149628 31.0127482,96.9246106 30.8752923,96.8450471 L30.765169,96.7779335 C30.5778451,96.6650724 30.3923991,96.5532446 30.208205,96.4405714 L29.9327746,96.2706928 L29.9285493,96.2706928 C28.9757324,95.6977221 28.0947465,95.1272877 27.2644648,94.3917886 C26.7679859,93.9519687 26.3053099,93.486998 25.8658732,92.9903249 C24.9827746,91.994865 24.3257324,90.8558982 23.6919296,89.6934716 C23.6813662,89.6742387 23.6961549,89.6256282 23.721507,89.5727906 C23.6517887,89.4292838 23.5841831,89.2832407 23.5165775,89.133182 C22.8658732,89.3151546 22.1391127,89.3679922 21.4693944,89.3236086 C21.1102394,89.3001487 20.7553099,89.2367436 20.402493,89.141636 C19.2764366,88.9852368 18.1905211,88.4716556 17.252493,87.8566262 C17.193338,87.8185832 17.1405211,87.7763131 17.0855915,87.7384814 C16.6989718,87.5205793 16.3313662,87.2671703 15.9827746,86.977409 C15.302493,86.4152172 14.6539014,85.7896204 14.0644648,85.1365479 C13.6377042,84.6295186 13.2341831,84.103045 12.8560141,83.5577613 C12.471507,83.018818 12.0827746,82.4800861 11.6940423,81.9409315 C10.6144648,80.2501292 9.92361972,78.303593 9.65530986,76.3147867 C9.52432394,75.5816125 9.45671831,74.8395616 9.47150704,74.0998356 C9.48207042,73.5651194 9.54122535,73.0240626 9.64474648,72.4853307 C9.58347887,72.4259413 9.52221127,72.3669746 9.46094366,72.305683 C9.42714085,72.3646497 9.39333803,72.4071311 9.37221127,72.3857847 L8.88799577,71.9007759 C8.54451653,71.5543586 8.31406237,71.2994442 7.91869014,70.7393659 C7.28911268,69.8453542 6.82009859,68.8625753 6.47150704,67.8271703 C6.22009859,67.0874442 6.05319718,66.2460587 5.98770423,65.4325714 C5.96657746,65.2970959 5.9454507,65.1597182 5.9285493,65.020227 C5.79333803,63.919092 5.91798592,62.864454 6.08488732,61.7781135 C6.0954507,61.7064658 6.1313662,61.6620822 6.17995775,61.6386223 C6.19221127,61.5526027 6.20678873,61.4642583 6.22115493,61.3761252 C4.82171831,59.894137 3.81460563,58.1080157 3.89678873,55.9509746 C3.92256338,55.271272 4.062,54.6012916 4.32819718,53.9756947 L4.36052113,53.9051037 L4.36052113,53.9051037 C3.19242254,53.725456 2.26580282,52.9045714 1.56967606,51.8871311 C1.50798592,51.8383092 1.44819718,51.7890646 1.39073239,51.7400313 C0.145943662,50.6765166 -0.717084507,49.1706458 -1.308,47.5800235 C-1.73116901,46.6564227 -2.01152113,45.6694168 -2.13046479,44.645636 C-2.13891549,44.5725088 -2.14398592,44.5000157 -2.15053521,44.4273112 C-2.4395493,42.8085793 -2.51307042,41.1735734 -2.3795493,39.5628728 C-2.66961972,38.5659335 -2.90560563,37.5514521 -3.06722535,36.5132994 C-3.14328169,36.0189511 -3.19609859,35.52418 -3.23623944,35.0296204 L-3.24046479,35.0023562 L-3.24680282,34.9133777 L-3.26464319,34.6915382 C-3.26746009,34.6548258 -3.27004225,34.6181918 -3.27215493,34.5815577 C-3.62919718,30.0544344 -2.61722535,25.5991703 -0.943985915,21.4059804 C-0.798211268,21.0288787 -0.647683099,20.652728 -0.492401408,20.2795791 L-0.32771831,19.8897534 L-0.32771831,19.8897534 C1.35185915,17.1802427 3.87397183,14.9887515 6.01009859,12.6742544 C6.74721127,11.875773 5.55502817,10.6769941 4.81516901,11.4786458 C3.39587324,13.0164305 1.87326761,14.4893307 0.498549296,16.0700196 C0.255802817,16.087773 0.0126338028,16.0943249 -0.229901408,16.0822779 C-0.65243662,16.0609315 -1.06229577,15.9935108 -1.45947887,15.8855108 C-2.45032394,15.7396791 -3.35243662,15.340227 -4.17215493,14.7526732 C-5.2686338,14.2414168 -6.2045493,13.2774481 -6.29750704,12.0199139 C-6.30807042,11.8931037 -6.30595775,11.768407 -6.29750704,11.6439217 C-6.39891549,11.028681 -6.30807042,10.384274 -6.05032394,9.7901683 C-6.00595775,9.62742857 -5.94891549,9.46680235 -5.87708451,9.30828963 C-5.66792958,8.83697847 -5.32356338,8.3849002 -4.90314085,8.07823092 C-4.89257746,8.07189041 -4.88412676,8.06787476 -4.87567606,8.0613229 C-4.83130986,8.01503718 -4.78905634,7.96832877 -4.74046479,7.92627006 C-4.6686338,7.86054012 -4.59257746,7.79945988 -4.51229577,7.7423953 C-4.79750704,7.2729863 -5.05525352,6.79131898 -5.27497183,6.27752642 C-5.51370423,5.71956164 -5.63623944,5.15335421 -5.70384507,4.55502153 C-5.73130986,4.3183092 -5.74187324,4.08371037 -5.74609859,3.8493229 C-5.75877465,3.7413229 -5.76722535,3.63142074 -5.77567606,3.52151859 C-5.82849296,2.68457143 -5.73130986,1.81613307 -5.4186338,1.03392564 C-5.39539437,0.974958904 -5.3658169,0.915569472 -5.33835211,0.854277886 C-5.27919718,0.67674364 -5.21370423,0.499420744 -5.13342254,0.325902153 C-4.82074648,-0.339851272 -4.37708451,-0.904156556 -3.82990141,-1.3670137 C-3.53412676,-1.66501761 -3.20243662,-1.92920548 -2.84116901,-2.15323679 C-2.62778873,-2.28638748 -2.38483099,-2.40474364 -2.12919718,-2.50196477 C-1.67285915,-2.74290411 -1.08764789,-2.96270841 -0.612295775,-2.97940509 C-0.555253521,-2.98172994 -0.504549296,-2.97517808 -0.449619718,-2.97517808 C-0.405253521,-4.18854012 -0.248915493,-5.50947945 0.230661972,-6.60850098 C0.509535211,-7.40508023 0.92784507,-8.11310372 1.55742254,-8.62266928 C1.92256338,-9.00392172 2.37250469,-9.31353686 2.93394292,-9.51590549 L3.0341831,-9.55049706 L3.07221127,-9.56106458 C3.57714085,-9.80623092 4.12221127,-9.90345205 4.68207042,-9.9011272 C5.33488732,-9.9351546 6.00038028,-9.81236008 6.56869014,-9.51245401 C6.687,-9.44904892 6.81376056,-9.37084932 6.9341831,-9.2863092 C7.02502817,-9.46807045 7.12643662,-9.65194521 7.2426338,-9.83560861 C7.65038028,-10.4888924 8.1426338,-11.0574247 8.71305634,-11.5752329 C8.78066197,-11.6365245 8.85460563,-11.6914755 8.92643662,-11.7504423 C9.20319718,-12.0019491 9.49685915,-12.2344344 9.80108451,-12.4457847 C10.4581268,-12.9025127 11.1785493,-13.2425753 11.9348873,-13.462591 C12.8080948,-13.7853805 13.7294267,-13.935244 14.6511086,-13.9037121 L14.8419296,-13.8956477 L14.8419296,-13.8956477 C14.8841831,-13.8916321 14.9264366,-13.8895186 14.9665775,-13.8874051 C15.8813662,-13.8280157 16.7834789,-13.6039843 17.6454507,-13.2660352 C18.5391127,-12.9128689 19.2954507,-12.378364 19.9989718,-11.7654481 C20.1637606,-11.9934951 20.3517887,-12.2092838 20.5820704,-12.41218 C20.6475634,-12.4690333 20.7172817,-12.5199687 20.7827746,-12.5728063 C20.8334789,-12.6235303 20.8862958,-12.6721409 20.9412254,-12.7207515 C21.1926338,-12.9426693 21.458831,-13.134998 21.7503803,-13.3061918 C22.0778451,-13.4983092 22.430662,-13.6314599 22.7961549,-13.7138865 C23.1679859,-13.840908 23.558831,-13.9191076 23.9560141,-13.9444697 Z M19.6144859,73.1847223 C19.6518907,73.1826522 21.6085887,73.9166927 22.5834746,74.3912812 L22.6313873,74.4147898 C23.755331,74.9727546 24.2961761,75.3743202 25.3060352,76.0907977 C25.3736408,76.1394082 25.4433592,76.2133808 25.4433592,76.2852399 C25.4433592,77.3287653 25.1898915,78.6047264 24.3130775,78.0394474 C24.1863169,77.9577252 24.0586174,77.8778818 23.9299789,77.7992908 L23.7363169,77.6822654 L23.7299789,77.6843789 C23.7320915,77.6843789 23.7342042,77.6822654 23.7363169,77.6801519 C21.8264577,76.5156117 19.8088521,75.6025785 17.6792746,74.9495061 C17.5335,74.8966685 18.6130563,73.265002 18.9109437,73.3558826 C18.7398169,73.2882505 19.5860253,73.1863129 19.6144859,73.1847223 Z M39.6812958,27.0923601 C38.4113662,27.2282583 37.1414366,27.3620431 35.871507,27.4928689 C35.0623521,27.585863 34.2510845,27.6682896 33.4398169,27.7380352 C32.2208028,27.8291272 31.0017887,27.8437104 29.787,27.6767436 C29.3560141,27.6177769 28.9334789,27.5330254 28.515169,27.4294638 C28.2299577,27.6387006 27.9341831,27.8352564 27.6320704,28.0235695 L24.2771408,30.5912642 L24.2771408,30.5912642 C22.0271408,32.3604775 19.8257324,34.2349432 17.8440423,36.3040626 C14.3830563,39.918998 11.5641127,44.1481174 9.79178873,48.8326967 C9.63101408,48.927593 9.50678873,49.0930802 9.46538028,49.3469119 C9.15228169,51.2670294 8.23664789,53.0182779 7.90580282,54.9305753 C7.58002817,56.8141292 8.01333803,58.415319 9.19601408,59.9082975 C9.44847887,60.227225 9.96566197,60.210317 10.2829859,59.9949511 C10.3567183,60.1399374 10.6761549,60.1338082 10.788338,59.4934168 C11.3141831,58.9238278 11.7639718,58.3267632 12.0686197,57.5874599 C12.2929859,57.0430215 11.9158732,56.6655499 11.4582676,56.5913659 C11.6484085,55.906591 11.8628451,55.2279452 12.1039014,54.5564853 C12.8179859,52.5611272 13.7264366,50.6549589 14.8693944,48.8669354 C15.8750282,47.2942779 17.0391127,45.924728 18.2898169,44.5509511 C18.3046056,44.5319295 18.3299577,44.5258004 18.3574225,44.5215734 L18.6172817,44.2339256 L18.6172817,44.2339256 C18.6531972,44.1937691 18.7271408,44.1979961 18.8095352,44.2191311 C18.8877042,44.1367045 18.9637606,44.0521644 19.0440423,43.9697378 C19.1222113,43.8851977 19.208831,43.9105597 19.2574225,43.9781918 C19.3905211,43.9486027 19.6334789,44.0923209 19.7074225,44.1390294 C19.8341831,44.2233581 19.8743239,44.3184658 19.7665775,44.4389354 C19.7475634,44.4602818 19.7285493,44.4814168 19.7095352,44.500227 C19.8553099,44.5617299 19.9989718,44.6439452 20.1109437,44.7244697 C20.5017887,44.8109119 21.0510845,45.1744344 20.9560141,45.2824344 C20.7553099,45.4914599 20.5609437,45.705135 20.3686901,45.9226145 C20.5377042,46.041182 20.6475634,46.1572133 20.6031972,46.2081487 C19.7792535,47.0765871 19.0186901,47.9961722 18.321507,48.9702857 C17.7912254,49.6973307 17.3116479,50.4539648 16.8827746,51.2423014 C16.2447465,52.3582309 15.7039014,53.505863 15.2243239,54.6851977 C15.1567183,54.8650568 15.0912254,55.0444932 15.0278451,55.2241409 C14.3264366,57.1875851 13.802493,59.225002 13.580662,61.3004618 L13.5713912,61.4404622 C13.5300704,62.1881049 13.5139014,64.1899022 13.437,64.667272 C13.9039014,64.8976438 14.3898169,65.0941996 14.8947465,65.2550372 C14.9898169,65.2825127 15.087,65.3078748 15.1841831,65.3311233 C15.2391127,65.3078748 15.2961549,65.2886419 15.3531972,65.2717339 C15.8179859,65.0836321 16.3039014,64.9483679 16.8003803,64.8828493 C17.1349754,64.8386507 17.4679529,64.8232551 17.8007283,64.8328398 L17.943338,64.8384658 C18.0912254,64.8426928 18.237,64.8532603 18.3848873,64.8682661 C18.3764366,64.7835147 18.3722113,64.7012994 18.3658732,64.6165479 C18.3236197,64.5890724 18.2919296,64.5512407 18.2898169,64.5003053 C18.1905211,63.549229 18.1884085,62.5981526 18.2834789,61.6470763 C18.3468592,61.1504031 18.4208028,60.6558434 18.5010845,60.1614951 C18.5834789,59.7554912 18.6785493,59.3562505 18.7820704,58.9565871 C19.0567183,57.8366419 19.4222113,56.7437495 19.8658732,55.6745284 C21.1292535,52.6245323 22.9398169,49.874865 24.7609437,47.1399922 C26.0898169,45.1429432 27.3468592,43.1010881 28.7222113,41.1376438 C29.8926338,39.465863 31.1222113,37.8194442 32.4341831,36.2554521 C33.7440423,34.6937847 35.1278451,33.1908728 36.621507,31.8003992 C36.8623521,31.5782701 37.1053099,31.3626928 37.352493,31.1494403 C38.7679859,29.8813386 40.3060141,28.8391703 41.9074225,27.8164462 C41.9686901,27.7762896 42.0785493,27.8206732 42.1693944,27.8965479 L42.4277668,27.7376438 C42.4710376,27.7112642 42.5144648,27.6851977 42.5581268,27.6598356 C42.5982676,27.6346849 42.6426338,27.6767436 42.6658732,27.7126732 C42.7757324,27.6556086 42.8855915,27.6008689 42.9954507,27.5457065 C43.0755211,27.4810333 43.1581268,27.4197417 43.238831,27.3559139 C42.0512958,27.2961018 40.8654507,27.2073346 39.6812958,27.0923601 Z M54.5750282,13.0026928 C53.6158732,12.8105753 52.652493,12.7828885 51.6848873,12.9266067 C51.2794648,12.9859961 50.8759437,13.0574325 50.4758028,13.1438748 C51.3844648,13.9364384 52.1152394,14.9507084 52.5895352,16.1179961 C53.1020704,17.3797573 51.0576338,17.9235616 50.5522817,16.6799765 C50.0648873,15.4803523 49.1422817,14.5601331 48.0278451,14.0085088 C47.787,14.1431389 47.5535493,14.2889706 47.330662,14.4504423 C47.0391127,14.6871546 46.7644648,14.9428885 46.5067183,15.2239843 C45.9447465,15.834998 45.4292535,16.6505988 45.0912254,17.4579569 C44.9602394,17.8975656 44.8630563,18.3498552 44.8017887,18.8148258 C44.7891127,18.920501 44.7764366,19.0282896 44.7658732,19.1360783 C44.5575634,21.3233425 45.1827042,23.4514286 46.2582676,25.3345597 L46.3005211,25.3351937 L46.3005211,25.3351937 C47.2605211,24.8144266 48.2655211,24.3756634 49.2996761,24.0182701 C50.1278451,23.4605166 50.9877042,22.9446106 51.8729155,22.4775264 C53.7547621,21.4843366 55.7423991,20.7186849 57.7905498,20.1951033 L58.0271408,20.1357652 C58.5095352,20.0124775 58.996331,19.9038669 59.4850829,19.8088327 L59.7785493,19.7534325 L59.7827746,19.7534325 L59.7510845,19.4383092 L59.7510845,19.4383092 C59.5862958,18.20191 59.102493,17.0542779 58.4771408,15.9935108 C58.0081268,15.1924932 57.3003803,14.372454 56.5144648,13.7172681 L56.5102394,13.7149432 C56.1534319,13.512047 55.7782624,13.3442192 55.3921498,13.2055224 L55.2468592,13.154865 L54.5750282,13.0026928 Z M28.821507,11.124 C26.8271408,10.9356869 24.8327746,10.9547084 22.8384085,11.1174481 C21.5348873,11.2465832 20.2398169,11.4260196 18.9510845,11.6542779 C18.0785493,11.8043366 17.2229155,12.0156869 16.3820704,12.2779726 L16.8630172,13.250956 C17.6668122,14.8713816 18.490169,16.4811663 19.4602394,18.0116947 C19.9609437,18.8000313 20.5039014,19.5505362 21.0954507,20.2710294 C21.4947465,20.7867241 21.9341831,21.2645871 22.4158732,21.7039843 C22.5426338,21.8584814 22.6778451,22.0043131 22.815169,22.1457065 C23.2546056,22.52191 23.7278451,22.8516164 24.2454507,23.1242583 C24.6604742,23.4267241 25.0938597,23.6909485 25.5456072,23.9225722 L25.7158732,24.0079139 L27.3003803,24.6163914 C27.3848873,24.6403444 27.4703333,24.6642975 27.5560923,24.6870607 L27.6848873,24.7201644 L27.9257324,24.7706771 L28.1064836,24.6725166 C28.1367653,24.6563131 28.1672817,24.6403444 28.1982676,24.6248454 C28.2489718,24.5975812 28.2848873,24.6504188 28.2954507,24.6882505 C28.2996761,24.7032564 28.293338,24.72418 28.2827746,24.7453151 L28.5136901,24.620407 L28.5136901,24.620407 C28.910662,24.7816673 29.3319296,24.910591 29.783831,24.9955538 C29.988338,25.0338082 30.1932676,25.0631859 30.3984085,25.0883366 L30.4258889,25.1067006 C30.4304742,25.1099178 30.4350986,25.1134168 30.4398169,25.1175029 L30.6641831,25.1175029 L30.6641831,25.1175029 C32.2436197,25.2698865 33.8454507,25.0684697 35.4223521,24.7850489 C37.6537606,24.5605949 39.8847465,24.3131037 42.1144648,24.0816751 C42.1567183,24.0776595 42.1736197,24.0964697 42.1736197,24.1262701 L42.3109437,24.113589 L42.3109437,24.113589 C42.5095352,24.0922427 42.7419296,24.4240626 42.5919296,24.5447436 C42.7123521,24.6163914 42.8285493,24.7201644 42.915169,24.8004775 L42.9658732,24.7960391 C42.6595352,24.1958043 42.4229155,23.5680939 42.2539014,22.9152329 L42.0384085,21.820227 L42.0384085,21.820227 C41.9792535,21.4123209 41.9454507,20.9771507 41.9391127,20.5478982 C41.9243239,20.3513425 41.9137606,20.1676791 41.9137606,20.0068415 C41.9137606,19.8546693 41.9158732,19.7024971 41.9222113,19.5505362 C41.5017887,19.3770176 41.0750282,19.2250568 40.6398169,19.0959217 C39.4039014,18.9439609 38.1700986,18.7915773 36.9341831,18.6415186 C36.1926338,18.6689941 35.4510845,18.7218317 34.7116479,18.8042583 C33.8729155,18.8782309 33.0362958,18.9733386 32.2017887,19.0874677 C32.1236197,19.0959217 31.9841831,18.9902466 31.8996761,18.8676634 L31.5426338,18.9164853 L31.5426338,18.9164853 C31.3567183,18.9397339 31.1623521,18.567546 31.4074225,18.4914599 C31.4961549,18.4562348 31.5848873,18.4228885 31.6736197,18.3907945 L31.8067183,18.3435147 L31.730662,18.3519687 C31.7053099,18.3542935 31.6736197,18.3477417 31.6377042,18.335272 C31.4412254,18.3604227 31.2447465,18.3857847 31.0503803,18.4090333 C30.8038763,18.4398074 30.8598999,18.1146776 31.0328092,18.0381639 L31.1158732,18.0074677 C30.9698451,17.9163673 30.8413403,17.6671051 31.0219479,17.5856035 L31.0461549,17.5763131 C31.130662,17.5427084 31.2130563,17.5150215 31.2975634,17.483319 C31.2912254,17.4560548 31.2912254,17.4304814 31.2996761,17.4074442 L30.9510845,17.4516164 L30.9510845,17.4516164 C30.9192701,17.4557937 31.0708564,17.2332514 31.1434021,17.1892588 L31.1560141,17.1832016 L31.3229155,17.1324775 C31.3482676,17.0606184 31.4834789,16.9021057 31.5299577,16.8875225 C32.1426338,16.6949824 32.7130563,16.5218865 33.308831,16.3885245 C33.3384085,16.3525949 33.3722113,16.3251194 33.4102394,16.3166654 C33.7820704,16.2278982 34.1581268,16.1581526 34.5341831,16.0991859 C34.5595352,16.0609315 34.5848873,16.0336673 34.6144648,16.0313425 C35.5461549,15.9129863 36.4799577,15.8855108 37.4179859,15.9491272 C37.5975634,15.9658239 37.7771408,15.9850568 37.9567183,16.0080939 C38.3010845,16.0463483 38.6454507,16.0949589 38.9877042,16.1604775 C39.844998,16.3076679 40.6822537,16.5313973 41.4977797,16.8331886 L41.6855915,16.9042192 C41.8905211,16.9805166 42.093338,17.0606184 42.2940423,17.1474834 C42.3954507,16.7860744 42.5222113,16.4307945 42.6722113,16.0822779 C42.6954507,16.0144344 42.7208028,15.9491272 42.7482676,15.8836086 L42.543338,15.7608141 L42.543338,15.7608141 C42.4989718,15.8453542 42.4081268,15.9108728 42.3489718,15.8751546 C40.880662,14.8839217 39.3278451,14.0573307 37.6905211,13.3979178 C36.7736197,12.9921252 35.8355915,12.6478356 34.8743239,12.3601879 C34.3947465,12.2061135 33.9109437,12.0666223 33.4250282,11.9334716 C33.1820704,11.8825362 32.9391127,11.8318121 32.6919296,11.7895421 C31.4222113,11.4471546 30.1313662,11.2254481 28.821507,11.124 Z M77.2045352,14.4787632 C77.0262254,14.7869119 76.8407324,15.0921018 76.6440423,15.3930646 C75.6889014,16.8553973 74.543831,18.2276947 73.2453803,19.4241487 C73.5840423,19.4233033 73.9218592,19.4361957 74.2554507,19.4674755 C74.8307324,19.5217926 75.3941831,19.6173229 75.9434789,19.7511076 C75.9880563,19.7153894 76.0379155,19.6974247 76.0778451,19.7257456 L76.2210845,19.8248689 L76.2210845,19.8248689 C77.3993239,20.1429511 78.5055211,20.6430059 79.5075634,21.3129863 L79.4895978,21.180681 C79.4865305,21.1586301 79.4831972,21.1365793 79.4792535,21.1145284 C79.4961549,20.8545675 79.5003803,20.5943953 79.4919296,20.3365479 C79.2848873,18.8127123 78.7672817,17.4093464 78.1757324,15.9892838 C78.1645352,15.9618082 78.1725634,15.92609 78.1896761,15.8897378 C77.8911549,15.4019413 77.5643239,14.9302074 77.2045352,14.4787632 Z M77.4764366,2.49858317 C77.0348873,2.57889628 76.5975634,2.68245793 76.1623521,2.8113816 C75.3447465,2.93417613 74.552493,3.14975342 73.7877042,3.456 C72.7334789,3.83009002 71.7109437,4.26547162 70.6926338,4.72642661 C68.715169,5.62234051 66.8602394,6.75538943 65.1722113,8.12071233 C65.0644648,8.20292759 64.9609437,8.28767906 64.8574225,8.37221918 C64.4792535,8.69960078 64.1116479,9.04198826 63.7630563,9.40339726 C63.3975634,9.80073581 63.0299577,10.1982857 62.6644648,10.5975264 C62.2165775,11.0669354 61.7010845,11.4915382 61.2954507,11.9987789 C61.2130563,12.1023405 61.1412254,12.2164697 61.0757324,12.3308102 L61.3144648,12.4130254 L61.3144648,12.4130254 C61.515169,12.4806575 61.4813662,12.8568611 61.2827746,12.80191 C61.215169,12.7828885 61.1517887,12.7596399 61.0884085,12.7344892 C61.1158732,12.7704188 61.1348873,12.8063483 61.1391127,12.8378395 C61.1517887,12.9392877 61.0736197,13.0789902 60.9489718,13.0430607 C60.8919296,13.0280548 60.8348873,13.0069198 60.7778451,12.9836712 C60.7609437,13.0491898 60.7482676,13.1147084 60.7482676,13.1781135 C60.758831,13.1823405 60.7693944,13.1865675 60.7820704,13.1888924 C60.921507,13.2375029 61.1834789,13.4549824 61.221507,13.6031389 C61.2510845,13.7172681 61.1539014,13.8396399 61.0292535,13.8058239 C60.9362958,13.7804618 60.8454507,13.7424188 60.7567183,13.7001487 C60.8158732,13.7574247 60.8623521,13.8187162 60.8665775,13.8715538 C60.8750282,13.968775 60.7905211,14.1059413 60.6743239,14.0744501 C60.458831,14.0150607 60.2855915,13.9243914 60.1419296,13.8102622 C60.1039014,13.860775 60.0489718,13.9009315 60.0046056,13.8884618 L59.9222113,13.8630998 L59.9222113,13.8630998 C59.9447465,13.8840939 59.9654038,13.9062153 59.9854351,13.9279609 L60.015169,13.9601096 C60.5982676,14.5899335 61.1074225,15.2873894 61.515169,16.0378943 C61.5341831,16.0165479 61.5574225,15.9975264 61.587,15.9742779 C61.7771408,15.8136517 61.9736197,15.6572524 62.1700986,15.5052916 L62.2295176,15.4533258 L62.2295176,15.4533258 L62.2905211,15.4015186 L61.8489718,15.5473503 L61.8587406,15.5359066 C61.8899411,15.4959537 61.9870996,15.3626914 62.0323674,15.318293 L62.043338,15.3085245 C62.6496761,14.7655656 63.3109437,14.3046106 64.0250282,13.9286184 C64.4877042,13.6282896 64.9736197,13.3746693 65.4827746,13.1654325 C66.6975634,12.6011272 67.9355915,12.1722975 69.2074225,11.7749589 C69.3975634,11.7136673 69.5877042,11.6481487 69.7778451,11.5887593 C69.8327746,11.5697378 69.843338,11.5929863 69.8348873,11.6310294 L69.9341831,11.6014403 L69.9341831,11.6014403 C70.1116479,11.5443757 70.4137606,11.8571742 70.293338,12.0030059 C70.3660141,12.062184 70.437338,12.1281252 70.499738,12.1900086 L70.5447465,12.2354912 L70.5954507,12.2206967 C70.7463803,12.1741151 71.0010338,12.4095289 71.1627995,12.5762383 L71.2820704,12.7025753 C71.3729155,12.7997965 71.5503803,13.0005793 71.3327746,13.0789902 L71.0602394,13.171773 L71.0602394,13.171773 C71.0686901,13.2267241 71.0454507,13.2732211 70.9609437,13.3049237 C70.8658732,13.3366262 70.7729155,13.3704423 70.6799577,13.4044697 C70.7362958,13.4536438 70.7916948,13.5047906 70.8461549,13.5565949 L70.9271408,13.6346301 C71.022759,13.7323209 71.2496355,13.9476025 71.0493601,14.0426802 L71.0243239,14.0531037 L70.7644648,14.1460978 C70.7982676,14.222184 70.7898169,14.2942544 70.6757324,14.3363131 C69.158831,14.8520078 67.6778451,15.456681 66.230662,16.1435695 C65.1468592,16.743593 64.0017887,17.1918669 62.7954507,17.4854325 C62.6961549,17.5173464 62.480662,17.3672877 62.3919296,17.217229 L62.2118044,17.2702544 C62.1818357,17.2790137 62.1517887,17.2874677 62.121507,17.2952172 L62.0919296,17.3017691 L62.0919296,17.3017691 C62.3179859,17.9041174 62.4848873,18.5569785 62.5778451,19.1889159 C62.5884085,19.2459804 62.5968592,19.3053699 62.6031972,19.3624344 C62.8398169,19.3432016 63.0743239,19.3262935 63.3109437,19.3138239 C64.9482676,19.2269589 66.6046056,19.2797965 68.2461549,19.4742387 C68.9095352,19.0790137 69.5475634,18.6457456 70.1581268,18.1767593 C70.3440423,18.0328297 70.5278451,17.8848845 70.7095352,17.7348258 C71.7996761,16.7879765 72.7862958,15.7250959 73.6609437,14.5772524 C74.4700986,13.5141605 75.1736197,12.3728689 75.765169,11.1768376 C76.2891127,10.0543562 76.7222113,8.88770254 77.0496761,7.68300587 C77.3496761,6.58187084 77.4531972,5.51032485 77.5292535,4.37114677 C77.5546056,4.18515851 77.571507,3.9993816 77.5862958,3.813182 L77.5845743,3.73349511 L77.5845743,3.73349511 L77.5820704,3.69482583 C77.5609437,3.29558513 77.5208028,2.89592172 77.4764366,2.49858317 Z M61.9968592,16.6527123 C61.9482676,16.6696204 61.8975634,16.6865284 61.8468592,16.7013229 C61.8764366,16.7668415 61.9039014,16.8304579 61.9313662,16.8957652 L61.9345352,16.8944706 L61.9345352,16.8944706 L62.1341831,16.7372524 L62.1341831,16.7372524 C62.0919296,16.7182309 62.043338,16.6888532 61.9968592,16.6527123 Z M77.180662,-0.498300587 C77.5609437,-0.639905284 77.8482676,-0.667380822 78.0426338,-0.578613699 C77.7553099,-0.557478669 77.4679859,-0.530003131 77.180662,-0.498300587 Z" id="ðŸ–-Ink" fill="#000000"></path>
                    </g>
                    <g id="face/Monster" transform="translate(112.183099, 77.354207)" fill="#000000" fill-rule="evenodd">
                        <path d="M21.3723169,44.5256102 C22.9045739,44.2297198 24.8108537,44.8742816 26.3389908,45.1567196 L26.4528803,45.1772031 C28.3059085,45.5009918 30.1549225,45.8924125 32.0284437,46.0834732 C33.8170352,46.2662912 35.6436549,46.2990505 37.4324577,46.0934067 C38.2914718,45.9944947 39.1430915,45.8262599 39.9775986,45.6005378 C40.3346408,45.5039507 40.6887254,45.396162 41.0385845,45.2765378 L41.0781433,45.2613897 C41.3351747,45.1552347 42.030229,44.7551937 42.0220352,44.9781112 C42.2174577,44.7526004 42.4866127,44.5926082 42.7821761,44.5148313 C43.1992183,44.4051405 43.7345704,44.5080681 44.0835845,44.8031131 C44.5375986,44.4433949 45.2187254,44.7014536 45.523162,45.1321855 C46.0452706,45.8708971 45.8753742,46.7366555 45.8079129,47.593644 L45.8022465,47.6692344 C45.7449401,48.4770153 45.6572245,49.2792944 45.5490068,50.0810274 L45.5014014,50.4246082 C45.3330211,51.6104947 45.2867535,53.5663303 43.8503451,53.9550035 C42.7142535,54.2626943 41.6746995,53.0932814 40.9423394,52.1653313 L40.5414718,51.6512853 C40.0667535,51.0487256 39.6357676,50.4284125 39.2884437,49.7434262 C39.1302042,49.4316845 38.9772465,49.1123342 38.8447817,48.7887569 C38.8280915,48.7479663 38.815838,48.7114027 38.803162,48.6746278 C36.6964014,48.9582599 34.5397817,48.9176806 32.4275282,48.6391209 C31.0902042,48.4626434 29.7727394,48.207755 28.4751338,47.8653675 L27.8897133,48.9239762 C27.2046278,50.1584947 26.5097582,51.3892344 25.7793592,52.5958098 L25.7226839,52.6877235 C25.0389698,53.7759201 23.8941199,54.8657901 22.5406268,54.0507452 C21.3294296,53.321164 21.2778803,51.6616415 21.1502746,50.4233401 C21.0650546,49.5961415 20.9960097,48.7632793 20.962813,47.9315499 L20.950838,47.5751836 C20.9290775,46.7686708 20.7978803,45.8338685 21.1078099,45.0795593 C21.1528099,44.9696571 21.3106268,44.885117 21.4056972,45.0007256 C22.0532324,45.7882168 22.2490775,47.0087648 22.5287958,47.9752697 C22.8402042,49.05062 23.2912606,50.2250935 23.4530915,51.3406004 L23.4983028,51.2619781 L23.4983028,51.2619781 C23.6577042,50.9590074 23.8203275,50.6576748 23.983743,50.3567648 L24.4739366,49.4540877 C24.9135845,48.6391209 25.3612606,47.8292266 25.8129507,47.0212344 C25.2971761,46.8273558 24.7861901,46.6191053 24.2772387,46.4073793 L23.1221976,45.9243235 C22.4624167,45.6455319 21.7896761,45.3308548 21.2937254,44.8236141 C21.205838,44.7337902 21.2364718,44.5516063 21.3723169,44.5256102 Z M43.2845704,47.5031131 C42.1464718,47.9659703 40.9692887,48.2999037 39.7707676,48.5213988 C39.8480915,48.6006552 39.9252042,48.6799115 39.9970352,48.7631836 C40.2790775,49.0897198 40.5782852,49.4033401 40.8792535,49.7134624 L41.0599225,49.8991914 C41.5209085,50.3724047 42.2134437,51.1516532 42.9201338,51.6045769 L42.9583353,51.4001161 C42.9645891,51.3648793 42.9694912,51.3342863 42.9721056,51.3105886 L43.0473795,50.6382599 C43.0595704,50.5261738 43.0714014,50.4140407 43.0825986,50.3018137 C43.1434437,49.6954497 43.1918239,49.0878176 43.2425282,48.4806082 C43.2691479,48.1606239 43.2754859,47.8319742 43.2845704,47.5031131 Z M29.8161972,8.43131272 C32.5267606,7.27311311 35.7437324,7.81992935 38.0784507,9.56943405 C40.4674648,11.3597824 41.5121831,14.2704986 41.6503521,17.1744517 C43.5397183,15.5605808 46.2606338,16.7821855 47.8519014,18.2943969 C49.6882394,20.0395162 50.6169718,22.6731523 50.1889437,25.1725808 C49.7623944,27.6635554 47.960493,29.8611757 45.5226761,30.6019585 C44.3562676,30.956393 43.056338,30.9644243 41.8829577,30.6347178 C41.484507,30.5224908 40.9962676,30.3487609 40.5452113,30.1067648 C40.5709859,30.2103264 40.5971831,30.3140994 40.6216901,30.4174497 C41.2071127,32.8963773 41.5390141,35.6828196 40.6605634,38.1342716 C39.248662,42.0736297 34.2338028,44.2788587 31.1028169,40.7822795 C29.8734507,39.4095593 28.9178873,37.2597041 28.9922535,35.3881973 C29.031338,34.4047843 29.5882394,33.2670857 30.7379577,33.3336611 C31.6294752,33.385087 32.0522237,34.1314983 31.8240294,34.9213634 L31.8101408,34.9669761 C31.3267606,36.477074 32.1519718,38.6590544 33.3475352,39.6889644 C35.1809155,41.2683851 37.6969014,39.8939742 38.6993662,38.0419115 C39.8676761,35.883391 39.725493,33.1159703 39.3519718,30.7676571 C38.9852113,28.4618254 38.1673944,26.3527609 37.2992958,24.2191796 C37.2071831,24.2358763 37.1138028,24.2513049 37.0183099,24.2641973 C35.291831,24.4985847 31.7790845,24.5869292 29.8715493,23.3357354 C30.0764789,25.2668431 29.6744366,27.2548039 28.5777465,28.8900211 C27.3557746,30.7122834 25.5147887,31.6766748 23.3721127,31.9721425 C21.2911268,32.2595789 18.8788732,32.3177002 16.8242958,31.8244086 C12.4491549,30.7739977 10.9064789,25.3704047 12.2296479,21.4697237 C13.0123944,19.1624125 15.1964789,17.087164 17.6241549,16.5630153 C18.8748592,15.7400172 20.5542254,15.4963303 21.9976056,15.6085573 C24.1533803,15.7765808 26.2766197,16.7084243 27.7204225,18.3449096 C28.2720423,18.9700838 28.7256338,19.6778959 29.0752817,20.4353753 C29.1927465,20.3428039 29.3296479,20.2732697 29.4842958,20.2369174 C29.7257746,20.1802755 29.9370423,20.1675945 30.1732394,20.2508665 C30.2909155,20.2925025 30.4605634,20.4396023 30.5626056,20.5351327 L30.7957405,20.8090379 C31.0815544,21.142265 31.3533275,21.4217295 31.8621127,21.6288705 C33.2805634,22.2064908 35.2043662,22.3318215 36.711338,22.2136767 C40.5564085,21.9127139 40.0721831,16.8176924 39.1250704,14.200119 C38.0032394,11.0991875 34.7877465,9.17019335 31.5164789,9.72097221 C30.1109155,9.95747319 28.77,10.7058646 27.7411268,11.6837824 C26.5926761,12.775618 26.1008451,14.0944438 25.4119014,15.4764634 C25.3711268,15.558256 25.2304225,15.5405025 25.2128873,15.450256 C24.6466901,12.5361581 27.3314789,9.49313659 29.8161972,8.43131272 Z M9.33678169,31.9255397 C9.2199507,31.7883734 9.37333099,31.5472227 9.54065493,31.6609292 C10.7662183,32.4938607 12.1291056,33.0949409 13.6107254,33.2574693 C14.3066408,33.3335554 15.0080493,33.3388391 15.7012183,33.2321072 C16.2917113,33.1408039 16.8238944,32.9607335 17.413331,33.1234732 C17.7270634,33.2101268 17.7841056,33.5742834 17.5924859,33.8025417 C16.701993,34.8628861 14.509669,34.5796767 13.3143169,34.2954106 C11.7684718,33.9280838 10.3671338,33.1365769 9.33678169,31.9255397 Z M50.5786268,29.9895499 C51.1803169,29.6165166 51.8965141,30.3551859 51.5407394,30.9518278 C50.6272183,32.482638 47.9794014,32.6073346 46.4432746,32.2408532 C46.3230634,32.2125323 46.3505282,32.0237965 46.4722183,32.0271781 C47.3551056,32.0489472 48.1530634,31.8792329 48.9136268,31.4184892 C49.5634859,31.0247436 49.951162,30.3784344 50.5786268,29.9895499 Z M21.2203014,17.7525122 L21.0997183,17.7535515 C19.6952113,17.7761659 18.4090141,18.3119389 17.0556338,18.5951483 C16.9434507,18.6188196 16.8308451,18.6067726 16.7292254,18.569575 C15.0809155,19.6696532 13.9447183,21.399344 13.790493,23.6753753 C13.6835915,25.2518372 14.0683099,26.969481 15.0040141,28.2631562 C16.0690383,29.735599 17.7846971,29.962811 19.4742802,30.0067251 L19.6459859,30.0106004 C22.8399296,30.0729487 26.3537324,29.8842129 27.4922535,26.3119703 C28.3347887,23.6681894 27.435,20.4586239 25.0880282,18.8749761 C23.948173,18.1058784 22.5868205,17.7512289 21.2203014,17.7525122 Z M46.9525352,19.6485182 L46.8588153,19.5390983 C45.6061029,18.1012424 43.6198592,16.7916415 41.6615493,17.5157824 L41.6672613,17.7579429 C41.6679577,17.7983342 41.6683803,17.8387256 41.6683099,17.8790935 C41.6623944,20.6558137 40.586831,23.2471796 37.9432394,24.061935 C38.6524648,25.0740916 39.2222535,26.197207 39.6785915,27.3628039 C39.8395775,27.2575515 40.0354225,27.1907648 40.2627465,27.1677276 C41.1933803,27.0734654 41.7266197,27.9478215 42.533662,28.273935 C43.2891549,28.5795476 44.1460563,28.6583812 44.9435915,28.5005025 C46.6882394,28.1553675 47.9123239,26.6503421 48.3411972,24.9802521 C48.8260563,23.0922599 48.185493,21.1129644 46.9525352,19.6485182 Z M20.3946127,21.9854395 C20.976413,21.0022925 22.411623,21.1445815 22.9869484,22.0113412 L23.0145423,22.0545511 L23.020669,22.0465198 C23.9789789,23.2888368 23.5158803,25.2510129 22.1244718,25.9495256 C21.0083451,26.5093926 19.588838,26.3625041 18.8468662,25.2725706 C18.6805986,25.0282497 18.5739085,24.7408133 18.5348239,24.449784 C18.5082042,24.2517487 18.5234155,24.0539249 18.5677817,23.8571577 L18.5565581,23.9032057 C18.5785563,23.8038975 18.6134155,23.648238 18.6225,23.611146 C18.7205282,23.2104258 18.955669,22.7805393 19.2499648,22.4903554 C19.5531338,22.1915061 19.9741901,22.0097448 20.3946127,21.9854395 Z M44.3033662,20.9641949 C44.8186479,20.9641949 45.275831,21.1797722 45.6480845,21.5215256 C46.1775211,22.0078427 46.2512535,22.7078348 46.1369577,23.3721088 C46.1018873,23.5747937 46.0537183,23.7707155 46.0032254,23.9702301 L45.9597512,24.1506763 C45.9521455,24.1806411 45.944,24.2103945 45.9347746,24.2397018 C45.9030845,24.3633417 45.8525915,24.4768368 45.7925915,24.5854708 C45.5722394,25.406144 44.6800563,25.8136274 43.893507,25.6346137 C43.5233662,25.5502849 43.1542817,25.2429816 42.965831,24.9208838 C42.9037183,24.8147859 42.8601972,24.7091108 42.8293521,24.6030129 L42.6761831,24.2397018 L42.6761831,24.2397018 C42.6474507,24.1526254 42.629493,24.0592086 42.6064648,23.9702301 C42.5551268,23.7709268 42.5056901,23.5745824 42.4699859,23.3721088 C42.348507,22.6856431 42.4452676,22.0351068 42.9588592,21.5215256 C43.3036479,21.1763906 43.8159718,20.9641949 44.3033662,20.9641949 Z M32.9535211,13.8451773 C33.8478169,13.7251303 34.7585915,14.1419131 35.2210563,14.9321519 C35.6228873,15.6190403 35.6211972,16.5432751 35.2210563,17.2301636 L35.1872535,17.2882849 L35.1872535,17.2882849 C34.4501408,18.5534278 32.7310563,18.7157448 31.6969014,17.7382497 L31.646831,17.6909072 L31.646831,17.6909072 C30.9817606,17.0625628 30.8319718,16.0203945 31.176338,15.2041597 C31.4911268,14.4576705 32.1511268,13.9531773 32.9535211,13.8451773 Z" id="ðŸ–-Ink"></path>
                    </g>
                    <g id="facial-hair/*-None" transform="translate(104.577451, 109.479380)"></g>
                    <g id="accessories/Glasses-3" transform="translate(88.521127, 88.978474)" fill="#000000" fill-rule="evenodd">
                        <path d="M77.5634366,20.7796016 C76.1409718,22.691265 73.5039296,23.3001652 71.0716056,23.0898716 C65.8256197,22.5847444 64.1745634,16.6244548 64.0025915,11.9918677 C67.5204085,12.9818325 63.7051268,5.97049785 75.7302676,5.19949198 C79.9693521,4.84611429 78.8006197,7.40725714 80.673507,9.27855264 C80.6350563,13.2058638 79.9816056,17.4732376 77.5634366,20.7796016 M52.5766056,16.2668501 C49.4794225,30.7766818 32.5192817,27.3253315 30.737662,14.2457072 C32.3828028,13.084126 31.949493,10.2158912 33.9932958,9.1766818 C37.2324507,7.10629432 41.2816056,7.1948501 44.9599859,7.24346067 C49.6617465,7.56661526 51.0016056,9.51505362 53.4168169,11.6408149 C53.3006197,13.0606661 52.9655493,14.7434372 52.5766056,16.2668501 M84.2819577,2.79643914 C84.1080845,2.76748415 83.934,2.74021996 83.7599155,2.71464658 C83.6240704,2.63750372 83.4645634,2.57811429 83.2790704,2.54239609 C82.8554789,2.43481879 82.4348451,2.36232564 82.0148451,2.32322583 C75.9869577,0.966145597 62.0418169,2.89302622 61.4663239,8.03898317 C59.5467465,8.68000861 57.8857606,8.10598121 55.6609014,8.16304579 C53.9673803,1.08175421 24.6892817,2.08122975 23.2811831,6.35050568 C23.2759014,6.34902622 23.2706197,6.34775812 23.2651268,6.34606732 C21.912169,5.92717104 19.9175915,6.02819648 18.369,5.96183249 C15.0624507,5.89250959 11.7520986,6.18734325 8.51695775,6.88501057 C2.45885915,7.84813386 -5.80909859,8.97568767 -1.59578873,16.543719 C-1.59494366,16.5449871 -1.59430986,16.5464665 -1.59325352,16.5477346 L-1.59261972,16.5471006 C-0.866492958,17.2916877 0.365830986,16.6920869 0.411676056,15.6841573 C-1.00487324,12.098811 2.19456338,11.6682904 4.65625352,10.6379577 C10.7815352,8.43653307 17.0177324,8.13134325 23.3528028,8.81231389 C23.8294225,9.37366027 24.5525915,9.86314755 25.3169577,10.1193041 C29.552662,10.8226779 27.3204085,13.9658795 29.9978028,14.4230301 C29.5059718,25.3798521 42.8033662,31.3606427 50.5080845,24.158036 C53.5843521,21.1492532 54.317662,16.6920869 55.0309014,12.6745292 C55.4080141,12.5897777 55.6478028,12.3834998 55.7878732,12.1104352 C56.6948451,11.2045879 57.2646338,10.3680634 59.0580845,10.1193041 C60.8515352,9.87075616 62.232169,10.3697542 62.4189296,10.5225605 C62.4660423,10.6174568 62.5165352,10.7125644 62.5752676,10.807672 C62.6572394,10.9494881 62.7687887,11.0625605 62.8955493,11.1515389 C61.124493,22.0622865 69.5914648,28.9624509 78.1391408,23.3035468 C81.8532254,19.808447 82.6380845,14.4574802 82.7931549,9.6813863 C83.2966056,9.37746458 83.6154085,8.78843131 83.4411127,8.04785988 C83.2009014,7.02703796 83.7641408,6.14317104 84.6611831,5.69933542 C85.8267465,5.12298317 85.6205493,3.0181456 84.2819577,2.79643914" id="ðŸ–-Ink"></path>
                    </g>
                </g>
            </g>
        </g>
    </g>
</svg>