<?xml version="1.0" encoding="UTF-8"?>
<svg width="240px" height="324px" viewBox="0 0 240 324" version="1.1" xmlns="http://www.w3.org/2000/svg" xmlns:xlink="http://www.w3.org/1999/xlink">
    <!-- Generator: Sketch 62 (91390) - https://sketch.com -->
    <title>peep-59</title>
    <desc>Created with Sketch.</desc>
    <g id="Introduction" stroke="none" stroke-width="1" fill="none" fill-rule="evenodd">
        <g id="variations" transform="translate(-2046.000000, -758.000000)">
            <g id="images" transform="translate(126.000000, 110.000000)">
                <g id="a-person/bust" transform="translate(1920.000000, 648.000000)">
                    <g id="body/Coffee" transform="translate(31.056338, 135.052838)" fill-rule="evenodd">
                        <path d="M83.2831268,0.670593346 C88.4982676,-3.30215812 101.591155,-5.08870215 107.157211,-1.26347319 C112.654817,2.5778184 113.254149,8.78971282 115.81598,14.5042021 C118.233092,13.3639672 122.224696,14.996973 122.925471,17.2406677 C123.794626,18.2988986 123.833662,21.2720393 124.433028,22.6946381 C150.512324,26.84746 154.471648,47.1875249 157.610662,70.2792352 C161.763338,93.7114309 171.19031,117.09248 167.097845,141.204589 C167.631085,141.976441 168.051507,142.726734 168.440239,143.617787 C169.371718,145.203337 168.17193,147.447666 166.293127,147.360801 C163.861225,147.147126 161.453408,146.855462 159.010099,146.76437 C152.236914,146.529055 145.457544,146.557111 138.681788,146.643229 L137.757845,146.655314 C103.610028,147.08055 69.4641127,147.918554 35.3148169,148.140794 C34.0759437,148.142586 33.4693944,147.031094 33.6348169,145.934609 C33.9679859,143.727055 34.2770704,141.518445 34.5996761,139.309834 C26.522493,141.444049 17.9357324,141.98109 9.8813662,139.534288 C9.31791549,138.960049 11.1941831,139.271368 11.4918592,139.184081 C4.07932394,134.116957 6.29298592,123.442288 6.94960563,115.753787 C11.0325634,89.4087616 12.4719296,60.2597519 28.2470704,37.7790552 C35.0716479,28.6047616 45.0770704,21.3410748 56.5740423,19.7067029 L56.8930027,19.6630145 C60.2547064,19.2146038 64.0012947,19.0701581 66.9405211,17.2406677 C70.2462702,14.6006261 71.6549763,9.72252824 75.1327636,9.67686276 C76.2811463,9.66178379 77.843364,11.1151389 79.5244648,12.1018967 C79.6499625,9.93119407 80.8193221,8.0993165 81.0775031,6.41625703 L81.0984028,6.2723246 C81.367809,4.31010979 80.9988476,2.54474154 83.2831268,0.670593346 Z M139.329946,70.9752595 C132.000919,65.8818221 113.068602,68.4410738 112.635195,68.7262859 C111.6809,69.3542077 111.269958,69.4097401 110.753831,70.2251295 C110.244254,70.2927616 109.735099,70.3629299 109.226366,70.4352117 C108.205732,70.7687225 108.96207,72.0245659 110.140944,71.5765033 C109.431877,74.6356503 111.518593,76.811223 112.349324,79.8355202 C112.619056,80.8174882 112.359059,82.583573 112.349324,83.5869065 C112.429886,84.8661886 113.843732,86.3772841 113.608092,87.6607331 C112.770352,92.2236155 108.224287,96.6746292 110.140944,101.099643 C111.410662,103.59886 115.229535,104.873263 117.768549,105.722891 C123.028901,107.742554 132.19458,105.646844 135.250988,101.099643 C136.881231,98.6742333 138.769943,92.5561327 139.741985,90.6584185 L139.957434,87.648033 C140.488759,80.1647916 140.961377,72.1090514 139.329946,70.9752595 Z" id="ðŸŽ¨-Background" fill="#FFFFFF"></path>
                        <path d="M73.855838,9.23558513 C74.3618239,8.78731115 75.1105563,9.35055969 74.789007,9.95607828 C74.0664718,11.3169628 73.3253451,12.606411 72.3556268,13.8094168 C71.767669,14.5387867 71.1378803,15.2286341 70.4996408,15.9108728 C72.1375986,17.3283992 73.5423169,19.0883131 74.8688662,20.7376908 C76.5651338,22.8471781 78.1688662,25.0460665 80.0730211,26.9763288 C81.9509294,28.8800013 84.0273658,30.2107338 86.5380303,31.0981128 L87.0451064,31.2743057 C89.5672627,32.1600914 92.2629231,33.3563141 93.6845704,35.7452524 C93.9649225,36.2163523 93.4004155,36.798411 92.9259085,36.5044227 C90.4555563,34.9742466 87.5529507,34.6665205 84.8639366,33.6554207 C82.2664014,32.678771 80.0020352,31.1756477 78.001331,29.2572211 C76.004007,27.3419648 74.3269648,25.1629432 72.577669,23.0299961 C70.8478099,20.9209315 68.9852746,19.119593 66.9391479,17.3351624 C63.7816423,19.4601599 60.1774267,20.384806 56.5125545,21.2929676 L56.1125282,21.3920313 C52.4432324,22.3008376 48.7935845,23.3563209 45.3511901,24.9389119 C42.3161197,26.3340352 39.3309085,28.0001096 36.8586549,30.2704344 C34.2342887,32.6798278 32.1917535,35.7570881 30.3222465,38.7665049 C26.1404155,45.4992798 23.2004155,52.8754051 20.6121761,60.3411429 C17.9202042,68.1065753 15.6685141,76.0275616 13.8507676,84.0425988 C12.9262606,88.119546 12.1754155,92.2254481 11.5583028,96.3600939 C11.2612606,98.3514364 10.9973873,100.347006 10.7656268,102.347014 C10.5182324,104.482708 10.4614014,106.679906 9.80647183,108.733386 C9.52569718,109.613448 8.86273944,109.978661 8.19914789,109.947593 L8.06436423,111.633908 C7.88563521,113.882242 7.71902113,116.13128 7.66273944,118.393573 C7.56937753,122.155186 7.61170932,125.90597 7.88218069,129.659612 L7.92048592,130.171491 C8.13302113,132.911014 8.6079507,135.989119 10.6671761,137.995045 C12.7997113,140.072618 16.0792183,140.725902 18.9535141,140.763311 C25.6479507,140.850599 32.0920352,137.686262 38.0159789,134.910176 C44.1169648,132.051241 50.0512606,128.877816 55.8433732,125.436188 C58.7930915,123.68346 61.7109085,121.872399 64.5915423,120.008501 C66.0051338,119.093566 67.4087958,118.163202 68.8018944,117.217832 C69.5998521,116.676352 70.3559789,116.082669 71.1683028,115.60227 C70.7702746,115.231562 70.5925986,114.648658 70.9259789,114.139726 C68.5777394,112.100618 67.6004155,108.4618 67.4861197,105.517479 C67.3937958,103.140845 67.7434437,100.770975 68.0193592,98.4167436 C68.1585845,97.229589 68.3305563,96.0445479 68.5090775,94.8626771 C68.5796408,94.3958043 68.6335141,93.8963836 68.7159085,93.4035147 C62.3751338,96.8893151 55.8566831,99.9936282 49.1656268,102.751538 C45.7359085,104.16526 42.2622465,105.436321 38.7406268,106.601072 L38.0268495,106.836013 C34.6901066,107.928669 31.2735282,108.960827 27.824007,109.58555 C27.6395704,109.618943 27.4897817,109.346513 27.6866831,109.259648 C31.0483732,107.775757 34.5264718,106.524141 37.9386549,105.15755 L38.4993592,104.92908 L38.4993592,104.92908 C38.4349225,104.925487 38.368162,104.916611 38.2984437,104.899914 C36.2973169,104.416767 34.3118239,103.67218 32.3491479,103.045315 C30.5275986,102.463468 28.4810493,102.098043 26.7784437,101.219671 C26.6474577,101.152039 26.7207676,100.969855 26.8483732,100.96119 C28.7620352,100.828462 30.8394296,101.386427 32.7156972,101.714654 L33.4205485,101.838167 C34.6013192,102.04645 35.8083028,102.270364 36.9833028,102.56238 C37.0257676,102.168634 37.2456972,101.773198 37.5585845,101.541346 C41.0016127,98.9905597 40.6519648,93.8386849 41.0202042,90.0396634 L41.2932653,87.2191883 C41.7735659,82.2830529 42.2816831,77.3475795 43.0536549,72.4483444 C43.0948521,72.1866928 43.4994296,72.2617221 43.5011197,72.5087906 C43.5409355,78.58186 43.082663,84.6269865 42.8529626,90.6905787 L42.8173941,91.6852909 C42.6904058,95.4267806 42.5908806,99.3118809 40.2353451,102.190826 C40.5647113,101.998286 41.0100634,101.998286 41.2768944,102.315734 C41.6047817,102.706098 41.7940775,103.144438 41.788162,103.574536 C43.9166831,102.681793 46.0359085,101.7658 48.1447817,100.831209 C54.924993,97.8262309 61.5630211,94.4634364 68.0254859,90.8248297 C68.7209789,90.4331977 69.3820352,90.7409237 69.7259789,91.2572524 L69.7756189,91.2501292 C69.7839131,91.2490098 69.7923169,91.2481644 69.8009789,91.247953 L69.8502042,91.2458395 C69.8521056,91.2458395 69.854007,91.2460509 69.8556972,91.2460509 C70.7654155,90.7459961 72.0047113,91.1021213 72.7853451,91.8314912 C72.8083732,91.8534716 72.8280211,91.8771429 72.8485141,91.9003914 C73.8368239,91.4565558 74.7596408,90.8573777 75.5971056,90.0979961 C77.3109085,88.5441487 78.7625282,86.6227632 80.0280211,84.6960939 C82.3585141,81.1475225 84.3380915,77.2014012 87.4861901,74.2803288 C90.044007,71.9070763 93.2151338,70.4295264 96.5419648,69.50191 C96.5280211,69.4046888 96.5652042,69.3011272 96.6323873,69.232227 C96.8033028,69.0570176 96.9252042,68.9963601 97.1459789,69.1026693 C97.1635141,69.1113346 97.1740775,69.1231703 97.1812606,69.1358513 L97.5058979,68.5809568 C97.6830975,68.2798668 97.8650537,67.9765803 97.9280915,67.8969159 C98.305838,67.4211663 98.6945704,66.9490098 99.0892183,66.4867867 C99.7583028,65.7041566 100.520768,64.9318826 101.403655,64.389135 C103.336754,63.201135 105.368937,63.8734403 107.356331,64.5227084 C108.557176,64.9151859 109.754007,65.3203444 110.952739,65.7187397 L111.076394,65.7591353 C111.970238,66.0464342 113.01619,66.2977315 113.415908,67.2451115 C113.574148,67.620047 113.598655,68.0091429 113.524923,68.3866145 C122.0145,66.2268258 131.443796,67.2191155 139.728232,69.7544736 C140.04619,69.8516947 140.363725,70.1133464 140.430697,70.457002 C141.379923,75.3267241 141.802669,80.3207202 141.373162,85.2735029 C141.002599,89.5486967 140.055697,93.7382935 138.271331,97.6522896 L138.169883,97.8732789 C136.492939,101.500579 133.835113,105.972047 129.776049,107.108947 C127.325134,107.795413 124.614359,107.390677 122.114641,107.264924 C119.685275,107.142552 117.202035,107.124798 114.795697,106.742677 C112.652599,106.402403 110.774852,105.441393 109.450415,103.698176 C108.30788,102.194207 107.70619,100.376595 107.213303,98.5684932 C106.987669,98.6403523 106.763514,98.7166497 106.542951,98.803092 C105.611894,99.1668258 104.823021,99.7539569 104.109782,100.444861 C102.603655,101.904023 101.435345,103.676196 99.8595,105.068571 C98.4330211,106.329065 96.8075282,107.309307 95.0639366,108.062982 C91.4509869,109.624683 87.5751261,110.248779 83.7534323,111.076447 L83.4868944,111.134536 C80.6098521,111.766051 77.6732324,112.541495 75.1337958,114.039969 C75.0841479,114.481057 74.8832324,114.896149 74.5612606,115.167945 C75.0091479,115.588744 75.1988662,116.255131 74.8052746,116.880305 C73.705865,118.625735 71.8121408,119.618852 70.1120619,120.735059 L70.0014718,120.808039 C68.3290775,121.917205 66.6421056,123.004391 64.9414014,124.069386 C61.484007,126.234881 57.9543592,128.281174 54.3748521,130.237432 C48.6175986,133.383804 42.7367535,136.351796 36.7494296,139.043977 C37.1087958,140.812661 36.9774847,142.636422 37.2475931,144.416916 L37.289007,144.670967 C37.4043944,145.33169 37.2485296,145.884581 36.7935504,146.316276 L36.7454155,146.360501 L36.7462606,146.354583 L36.7035845,146.393683 L36.6893203,146.405635 L36.6940775,146.401926 C36.6416303,146.449955 36.5875194,146.494656 36.5323686,146.532996 L36.4621056,146.578192 L36.4621056,146.578192 C36.0238897,146.844603 35.4597049,146.841535 35.011026,146.606356 L34.9597817,146.578192 L34.8735845,146.528736 C34.2807676,146.187616 33.8719648,145.342427 34.1178803,144.670967 C34.7223169,143.020744 34.9506972,141.259562 35.5088662,139.598348 L35.0660493,139.796384 L35.0660493,139.796384 L34.4824092,140.050864 C28.1701704,142.781455 21.15855,145.080902 14.2809085,143.219413 C11.2420352,142.396626 8.40175352,140.656368 6.88126056,137.819836 C5.38506338,135.028744 5.17358451,131.787898 5.09414789,128.683162 C4.99611972,124.85117 5.20147183,120.960634 5.70661268,117.161613 C6.04569718,114.61146 6.45576761,112.013119 7.08830282,109.489386 C6.7629507,109.20216 6.52379577,108.790239 6.46062676,108.280039 C6.16210563,105.869589 6.68457042,103.363609 7.00442958,100.965628 C7.31689437,98.6242896 7.66210563,96.2876008 8.05252817,93.9580978 C8.84076761,89.2536517 9.75661268,84.5591389 10.8228803,79.9098552 C12.7204859,71.6352798 15.226331,63.5078043 18.2432324,55.5745597 L18.5074309,54.8835238 C21.2952068,47.6323609 24.523032,40.535754 29.017669,34.1656204 C31.1677394,31.1179491 33.4405563,28.3547554 36.4785845,26.1586145 C39.3247817,24.100908 42.5352042,22.6193425 45.8483028,21.4869276 C49.164993,20.3536673 52.574007,19.5942857 56.0432324,19.1219178 C59.5665423,18.6421526 63.2854859,18.347953 66.5721761,16.902317 C66.1564014,16.1566732 66.5132324,15.1500117 67.2129507,14.6875773 C69.5677394,13.1311937 71.7452746,11.1064579 73.855838,9.23558513 Z M149.237324,76.9144509 C149.335986,76.7646035 149.570282,76.8592885 149.526972,77.0366114 C148.38169,81.73049 147.306549,86.4338795 146.604507,91.2173706 C145.337202,99.8509657 145.570318,108.597305 145.67392,117.294756 L145.679155,117.74458 C145.732394,122.429371 145.806338,127.114584 145.961197,131.797472 C146.039366,134.164173 146.194014,136.554122 146.10993,138.922091 C146.064085,140.206678 145.721831,141.421731 145.600563,142.690889 C145.494296,143.80069 145.588944,144.927609 145.641972,146.038889 C145.677465,146.77777 144.587324,146.746279 144.513169,146.038889 L144.418352,145.123921 C144.295172,143.966004 144.142923,142.815163 143.763592,141.706842 C143.307465,140.373856 143.088592,139.064752 142.930352,137.665191 C142.687975,135.520553 142.580187,133.354429 142.486642,131.194705 L142.422676,129.700877 C142.032047,120.675325 142.045739,111.60743 142.67814,102.591331 L142.724366,101.947414 C143.350563,93.4249245 144.437113,84.2166035 149.237324,76.9144509 Z M124.824317,23.2004712 C124.525162,23.0774654 124.629951,22.6249644 124.961218,22.703798 L125.563659,22.847558 C129.978005,23.9053049 134.312235,25.0513301 138.432486,27.019571 C142.555373,28.9889331 146.045937,31.929027 148.819458,35.5443851 C154.211007,42.5719937 156.4515,51.1126591 158.220232,59.6452932 C160.185866,69.1266787 161.975514,78.6427256 163.958261,88.1211523 L164.326452,89.8867172 C166.161102,98.7147357 167.893278,107.547758 169.169599,116.480346 L169.261282,117.128205 C170.548363,126.313807 171.322539,135.817479 169.91812,145.027007 C169.640303,146.849058 166.609458,146.395289 166.727979,144.595219 C167.070232,139.391141 167.315303,134.214326 167.078472,128.998624 C166.84143,123.781865 166.352345,118.587931 165.623261,113.416823 C165.009708,109.065058 164.095089,104.767463 163.28569,100.450288 L163.158824,99.7684556 C162.481077,96.0965401 161.782373,92.4282768 161.08521,88.75977 L160.043374,83.2672136 C158.481889,75.0429314 156.889859,66.8114419 155.090937,58.6388431 L154.984181,58.1579411 C153.223725,50.295259 150.62831,42.0590677 145.347697,35.8153362 C139.988894,29.4788431 132.317556,26.287665 124.824317,23.2004712 Z M105.352415,106.598811 C105.481289,106.311586 105.932134,106.343077 106.070725,106.598811 C106.613761,107.601133 106.674109,108.88054 106.776764,110.012063 L106.787556,110.128572 C106.91812,111.509324 107.033683,112.894725 107.104458,114.279915 C107.238613,116.908901 107.302838,119.534506 107.294599,122.166874 C107.286148,124.864549 107.231852,127.559054 107.0865,130.252713 L107.047055,130.974488 C106.914362,133.315329 106.691808,135.926324 105.579951,137.972705 C105.175796,138.71687 104.07657,138.498122 103.842486,137.745715 C103.075585,135.282216 103.469387,132.361355 103.666077,129.838255 L103.818811,127.869497 C103.970052,125.900522 104.114282,123.930803 104.228683,121.959539 C104.385444,119.262498 104.514739,116.563132 104.639176,113.864823 C104.679599,112.988423 104.723308,112.111742 104.769489,111.235343 L104.840514,109.921026 C104.901148,108.821582 104.896077,107.615195 105.352415,106.598811 Z M19.1240111,110.090215 L19.4635056,109.762141 C20.5056885,108.741851 21.8226901,107.170471 23.3633662,107.267925 C23.9777324,107.306813 24.3692113,107.817013 24.2418169,108.421686 C23.9697042,109.714305 22.6516056,110.38513 21.7028028,111.174312 C20.6633662,112.038524 19.6837183,112.962336 18.7059718,113.895025 C17.838554,114.722015 17.0043547,115.572551 16.1901682,116.449602 L15.8857606,116.779745 C15.5939122,117.098344 13.5156495,118.978875 13.7403561,119.466782 L13.7525915,119.488622 C13.8151268,119.582038 13.7109718,119.710539 13.6072394,119.67778 C12.7097746,119.394148 12.7657606,118.624622 13.1050563,117.84495 C13.7570282,116.346899 14.8987183,114.961076 15.8956901,113.681772 C16.8899683,112.405547 17.9661333,111.217184 19.1240111,110.090215 L19.1240111,110.090215 Z M108.6045,72.5221057 C107.910486,70.881182 105.353937,70.9156321 103.902528,71.0136986 C100.247599,71.2607671 96.2930915,72.1858474 93.0410493,73.8948258 C89.6695043,75.6665786 87.3984415,78.5054361 85.3663434,81.6445658 L85.2712606,81.7919295 C83.2906268,84.8719374 81.3830915,88.5179413 78.2816831,90.6356712 C76.7020352,91.7146145 74.8574577,92.6997182 72.940838,93.1264344 C72.8092183,93.357863 72.5960493,93.5411037 72.3165423,93.6076791 L72.1866107,93.6374237 C71.6407359,93.7579966 70.7926853,93.891425 70.0602042,93.8116321 C70.0650634,94.1700822 70.0612606,94.5257847 70.0703451,94.8654247 C70.0961197,95.8386928 70.1071056,96.8161879 70.1071056,97.79009 C70.1075282,99.8306771 69.9978803,101.87528 70.0830211,103.915656 C70.1584437,105.720376 70.4132324,107.606043 71.2794296,109.21928 C71.9147113,110.402841 72.7532324,111.186106 73.7654155,111.933863 C76.2554155,110.415734 79.0709789,109.490442 81.9285845,108.794677 C85.3845,107.953292 88.9230211,107.391734 92.3003451,106.250865 C93.925838,105.701566 95.4885845,104.982763 96.9045,104.006536 C98.4072465,102.969863 99.5550634,101.567342 100.736049,100.195468 L100.920644,99.9823254 C102.125897,98.599508 103.441006,97.2763181 105.144359,96.526638 C106.61119,95.8807515 108.5445,95.7657769 109.827106,94.7665127 C110.497669,94.2436321 110.553866,93.4848845 110.62443,92.7079609 C109.803021,92.8254716 108.933444,92.6371585 108.114782,92.5412055 L107.690622,92.4914003 C106.916493,92.3993882 106.160166,92.2982502 105.398092,92.1011742 C105.256542,92.0646106 105.256542,91.8511468 105.398092,91.8145832 C106.298725,91.5818865 107.191331,91.4827632 108.114782,91.3745519 L108.33168,91.3474922 C109.167093,91.2378884 110.045193,91.0724647 110.864641,91.256407 C111.011683,90.6967515 111.224007,90.1624579 111.521894,89.627319 C111.939993,88.875546 112.73119,88.0231703 112.838092,87.1450098 C112.869993,86.8827241 112.808937,86.5735186 112.685345,86.3416673 L112.642745,86.2626368 C112.590812,86.1692994 112.529265,86.0754364 112.439218,86.0172446 C112.429289,86.0288689 112.408162,86.042184 112.362317,86.0565558 C111.731683,86.255225 111.181542,85.9464423 110.88957,85.4704814 C109.650063,85.6243444 108.297317,85.5725636 107.134923,85.6239217 L105.959646,85.6807892 C104.703845,85.7383856 103.390991,85.7636024 102.210908,85.5097926 C102.04612,85.4744971 101.996261,85.2001644 102.161261,85.1295734 C103.612035,84.5088376 105.371894,84.3108023 106.925134,84.0723992 C107.792599,83.9390372 108.666401,83.837589 109.536401,83.7202896 C110.115697,83.64209 110.730486,83.512955 111.330697,83.4818865 C112.835556,81.6078434 112.024711,78.6514755 109.930415,77.8445401 C109.167528,78.179953 108.481542,77.9848767 107.648092,77.913229 C106.81612,77.8417926 105.982035,77.7933933 105.146683,77.7969863 C103.47281,77.8043836 101.699007,78.2448376 100.041401,78.0552564 C99.7718239,78.0241879 99.5212606,77.6653151 99.7893592,77.4463562 C101.058228,76.4105146 102.876679,76.0727702 104.487304,75.8520258 L104.82112,75.8073346 C105.36112,75.7365323 106.017739,75.633182 106.698866,75.5716791 C106.85288,75.2711389 107.129218,75.0439374 107.544359,74.9875068 C107.667739,74.9705988 107.791754,74.9606654 107.915556,74.9500978 L107.913655,74.9378395 L107.913655,74.9378395 C108.926049,74.889229 108.882106,73.1785597 108.6045,72.5221057 Z M39.2941479,104.525824 C39.2762606,104.55344 39.2566831,104.579742 39.2358537,104.605041 L39.2037254,104.642278 L39.3702042,104.574646 L39.2941479,104.525824 L39.2941479,104.525824 Z M126.27112,68.8553894 C122.009852,68.3973933 117.742458,68.4939804 113.468514,68.6169863 C113.126683,69.7354521 111.936824,70.6886419 110.783937,70.7245714 C111.686894,72.0994051 111.780063,73.9601331 111.146894,75.4182387 C112.49119,75.953589 113.649359,76.9152329 114.352458,78.2847828 C115.327458,80.1833425 115.199852,82.296 114.236261,84.0506301 C115.058725,84.7954286 115.544007,86.0049863 115.495415,87.1450098 C115.44112,88.4162818 114.683725,89.5021996 114.054359,90.5547241 C113.374289,91.6930568 113.351472,92.6952798 113.142528,93.9701448 C112.836824,95.8359452 111.578937,96.9675147 109.960415,97.6742701 L110.046459,98.0128436 C110.463736,99.6377253 110.982919,101.352234 112.175556,102.540399 C113.709755,104.068958 116.089827,104.054739 118.11684,104.151603 L118.214641,104.156384 C120.070754,104.249209 121.926055,104.357995 123.781519,104.463156 L125.173162,104.541041 C127.3095,104.658552 129.36112,104.672712 131.105134,103.259836 C133.952387,100.953581 135.904289,97.1368063 137.139782,93.7579491 C139.73288,86.6658787 139.763937,78.8829041 138.573655,71.4966341 C134.581754,70.2095108 130.439852,69.3034521 126.27112,68.8553894 Z M90.8333482,80.621549 L90.8646761,80.6238387 C91.7420704,80.7240188 92.3448169,81.4347898 92.5594648,82.2778661 C92.8712958,83.5032751 92.718338,84.6111734 93.4685493,85.7173808 C94.2403099,86.8548681 94.7148169,87.7655765 94.827,89.1708446 C94.8730563,89.749099 94.8519296,90.325874 94.9805915,90.8918701 L95.0738854,91.2884195 C95.1729576,91.7112598 95.2540215,92.1185347 95.2047465,92.5725276 C95.1597465,92.9865628 94.9581972,93.3090834 94.5430563,93.4418114 C93.1903099,93.8746568 92.1458028,92.8775061 91.7963662,91.6163789 C91.4944648,90.5270795 91.8975634,89.2289659 91.4716479,88.2060305 C91.235662,87.6389777 90.8004507,87.1647076 90.5545352,86.5938505 C90.3109437,86.0280658 90.1886197,85.436919 90.1495352,84.8218896 C90.0753803,83.6586176 91.103831,82.2609581 90.5300282,81.2069542 C90.4078426,80.9820775 90.5462202,80.6147512 90.8333482,80.621549 Z M72.8644648,68.6172611 C73.7805211,68.4310614 74.8197465,68.0043452 75.7231268,68.358991 C76.187493,68.5415977 76.4169296,69.1080164 76.0246056,69.501762 C75.3434427,70.1848341 74.3534592,70.2228989 73.4359943,70.3839704 L73.3552394,70.3985213 C72.2703803,70.5993041 71.1836197,70.7897307 70.0953803,70.9702239 C68.0479859,71.3094411 65.9957324,71.6093472 63.9362958,71.8642356 C61.8210845,72.1260986 59.6999577,72.359218 57.5758732,72.5346387 L56.7535736,72.6021311 C54.959323,72.7456828 53.0923521,72.8539609 51.3318592,72.5790223 C51.0760141,72.5390771 51.1172113,72.1664665 51.3318592,72.1011593 C53.2605211,71.5171984 55.3761549,71.3605879 57.3700986,71.1135194 C59.4899577,70.8503883 61.6062254,70.5724626 63.717,70.2427562 C65.8243944,69.9134724 67.9290423,69.5600947 70.0258732,69.1695194 C70.9736197,68.9932532 71.9198873,68.8091671 72.8644648,68.6172611 Z M105.918232,66.7423092 C105.114359,66.4576204 104.229993,66.0357652 103.358937,66.1769472 C101.856824,66.4204227 100.519923,67.8844462 99.3309085,68.8486262 L99.9279265,68.7325369 C102.982715,68.1451814 107.028061,67.5124432 109.592387,69.4554129 C109.598937,69.4442114 109.604007,69.4330098 109.611401,69.4218082 C109.818444,69.107319 110.058232,68.8619413 110.319993,68.5928924 C110.344993,68.5692916 110.369195,68.5449159 110.392998,68.5201409 L110.534218,68.3697065 L110.21121,68.2577667 C109.519359,68.0131205 108.699736,67.6971993 108.570167,67.6510861 L108.56119,67.6479452 C107.679148,67.3490959 106.796049,67.0536282 105.918232,66.7423092 Z M80.8192817,2.68746693 C80.6935775,1.07000313 83.2099859,1.0833182 83.3346338,2.68746693 C83.6065352,6.18954129 82.8187183,9.65843366 81.1230845,12.7287194 C81.1106197,12.7511225 81.0968873,12.7709894 81.0837887,12.7921245 C82.1443521,13.3441714 83.2169577,13.8738153 84.3134366,14.3472399 C85.7160423,14.9529699 87.1450563,15.5045941 88.5996338,15.9725237 C89.9154085,16.3960697 91.5364648,16.5632477 92.642662,17.4445785 C94.9752676,19.3027703 94.0989296,23.1590677 93.6501972,25.6587076 L93.5801903,26.0533057 C93.3567593,27.3395897 93.1951612,28.6592625 93.7372394,29.8937448 C94.3161127,31.2123593 95.4867465,32.1904885 96.5310423,33.1339562 L96.7419632,33.325275 C97.6671122,34.1684015 98.7242264,35.1929307 99.4028028,36.3359131 C100.022239,35.0547076 100.866676,34.0076783 101.759493,32.8289777 C102.396465,31.9878035 101.943085,31.7105119 101.485479,30.888782 C101.044986,30.0979092 100.829915,29.2548329 100.967662,28.3525785 C101.221817,26.6862928 102.553014,25.4826528 103.878085,24.5782849 C105.442944,23.5107546 107.189493,22.7198818 108.807169,21.7267468 C112.131254,19.686371 115.368507,17.3534865 118.285056,14.7625432 C118.365549,14.6908955 118.504986,14.784735 118.440549,14.8825902 C116.136676,18.3882575 113.435197,21.4175413 110.115127,23.988829 C108.76889,25.0314464 107.354693,25.8962943 105.931025,26.8054104 L105.521725,27.0681614 C104.950103,27.4385983 104.237108,27.9336895 103.978648,28.5643515 C103.718577,29.1986137 104.273155,29.6775335 104.571676,30.2029503 C105.519627,31.8714648 105.062278,33.4282574 103.938452,34.8432468 L103.886113,34.9084532 C102.769352,36.285189 101.923014,37.5655491 101.518225,39.3244063 C100.648472,43.1026688 101.859928,47.0382361 103.128072,50.585253 L103.178155,50.7250638 C103.864141,52.6369386 104.593225,54.5348642 105.189211,56.4773847 L105.353197,57.0144149 C105.8932,58.8017349 106.335396,60.5645536 105.729634,62.4019562 C105.523648,63.026919 104.671606,63.1746528 104.317732,62.586465 C103.069352,60.5122732 102.758155,58.0162262 101.97562,55.7357566 C101.212944,53.5131969 100.337239,51.3307937 99.6005493,49.099146 C98.6519577,46.2258387 98.0170986,43.1329386 98.3616761,40.1190834 C98.3515352,40.1015413 98.340338,40.085056 98.3318873,40.0664571 L98.0904134,39.5380555 C97.4319458,38.1072722 96.7959661,36.8577256 95.598507,35.7172908 C94.349493,34.5276 92.9937887,33.4744415 92.0109718,32.0343006 C89.8761897,28.9060631 91.1964559,25.4261833 91.4543141,22.0057235 L91.4838196,21.5862875 C91.5306603,20.8761094 91.5563297,19.9109564 91.0925915,19.4194356 C90.5709718,18.8661205 89.3477324,18.7249386 88.6556197,18.4799836 C86.8670282,17.8467781 85.1044225,17.1089542 83.4256901,16.2229738 C81.827662,15.3796861 80.2797042,14.448054 78.8384366,13.3566411 L78.1079262,12.8068698 C76.955331,11.9368761 75.7601558,10.9868324 74.987662,9.80257456 C74.898507,9.66625362 75.0499859,9.44623796 75.2113944,9.51154521 C76.5009718,10.0350599 77.6792113,10.86778 78.8857606,11.5922888 C78.9045634,11.5481166 78.9263239,11.5035217 78.9510423,11.4587155 C80.4438592,8.75596791 81.0578028,5.76155695 80.8192817,2.68746693 Z M122.012958,21.2049652 C122.526761,19.7954701 124.868451,19.9043155 124.77507,21.5790552 C124.703473,22.8656683 124.157425,24.0269731 123.65815,25.1951806 L123.604859,25.3203781 C123.089366,26.5375444 122.494014,27.6803155 121.78162,28.7958223 C120.420423,30.9283468 118.825986,32.9074309 117.122958,34.7751335 C115.579014,36.468472 113.552535,37.5038771 111.217394,37.331838 C110.233521,37.2593448 109.240352,37.0088947 108.378169,36.5172939 C107.354155,35.9331217 106.242042,34.1791256 104.935563,34.6039397 C104.809225,34.6449417 104.691338,34.4597988 104.800563,34.3720885 C106.308803,33.1570356 108.020704,35.0410121 109.464718,35.4949926 C111.640563,36.1787108 113.873451,35.4227108 115.273944,33.6630082 C116.736127,31.8257401 118.081901,29.7686677 119.310845,27.7682372 C119.93493,26.7524877 120.504296,25.6982724 120.996127,24.6117205 C121.492394,23.5150239 121.605211,22.3232196 122.012958,21.2049652 Z M118.505641,12.5306419 C118.442261,12.3359883 118.683951,12.1508454 118.854866,12.2620157 C119.845923,12.9074795 120.704725,13.7602779 121.61888,14.5078239 C122.633176,15.3371624 123.654866,16.149593 124.692401,16.9495538 C126.204866,18.1159961 124.450711,20.2633151 123.119303,18.9890841 C121.297331,17.2460783 119.301908,14.9668767 118.505641,12.5306419 Z M113.064423,5.70836008 C113.467046,4.15519538 115.848367,4.79569012 115.501342,6.33070698 L115.489986,6.37749511 C114.83272,8.91300092 115.768819,11.4943027 117.767177,13.138052 L117.840761,13.1977691 C119.104986,14.2099256 117.313859,15.9793503 116.062099,14.9769159 C113.329352,12.7890176 112.192521,9.0724227 113.064423,5.70836008 Z" id="ðŸ–-Ink" fill="#000000"></path>
                    </g>
                    <g id="head/Twists-2" transform="translate(78.591549, 38.043053)" fill-rule="evenodd">
                        <path d="M86.2127324,53.2740751 C85.428507,47.0136681 82.9651205,40.366821 80.3743458,34.5303827 C74.5488529,22.1904844 61.212169,20.4915311 49.2563239,17.9472963 C37.4582958,16.2290184 24.9649859,14.6774959 13.3448451,18.105809 C6.81223944,19.7067875 4.26076056,27.4899734 5.29174648,33.6320243 C5.88012676,37.4593667 7.62160563,41.0816994 9.10660563,44.6287914 C12.0582254,51.9131906 13.9309014,59.7118051 13.9340704,67.5985526 C13.7314648,72.7525409 13.0042817,78.635265 18.9248451,80.8183022 C24.5587183,83.6210184 25.0347042,91.2186387 32.0891408,95.5293393 C34.9416761,101.309559 42.7118873,101.818279 48.3043521,103.159085 C51.8390704,103.835829 55.4137183,104.333981 58.9980845,104.655656 C69.3768169,105.986106 77.6796338,102.977535 83.1125915,93.7284235 C86.7482958,88.0995311 89.4556901,81.6000869 88.7868169,74.7781221 C88.1206901,67.5943256 87.0109014,60.4481495 86.2127324,53.2740751 Z" id="ðŸŽ¨-Background" fill="#FFFFFF"></path>
                        <path d="M49.3459014,2.95021761 C49.9382958,2.27854638 50.8509718,2.5089182 51.4049155,3.04004149 C51.7655493,3.14635068 52.1149859,3.3044407 52.4449859,3.5136775 C53.1907606,3.41793581 53.972662,3.41793581 54.7040704,3.4447773 C54.8815352,3.34523131 55.0716761,3.25667554 55.2787183,3.18058943 C56.7575915,2.63974403 58.0672394,2.91449941 59.1474507,3.63858552 C59.6678028,3.14613933 60.3242113,2.83714521 61.1633662,2.88385362 C61.9123099,2.92570098 62.4459718,3.27823327 62.9033662,3.74256986 C63.359493,3.0846364 64.0968169,2.6152274 65.0154085,2.54992016 C66.2992817,2.45861683 67.533507,2.9736775 68.5564648,3.77110215 C69.1524507,3.0871726 69.9649859,2.69406106 70.8704789,2.69025675 C71.4662535,2.5820454 72.0949859,2.62473816 72.6630845,2.7963546 C73.4878732,3.04553659 74.2120986,3.51240939 74.7888592,4.11835068 C75.7013239,3.24420587 76.8182958,2.6152274 78.1061831,2.70695342 C79.7730845,2.82742309 81.1547746,4.05346614 81.7970282,5.56250724 C82.9251972,6.01458552 83.9667465,6.65941526 84.837169,7.57878904 C84.8836479,7.62718826 84.9280141,7.67791233 84.974493,7.72884775 C85.443507,7.90194364 85.8850563,8.14732133 86.2737887,8.47047593 C87.5054789,9.4957362 87.7801268,10.9794153 87.3723803,12.4332939 C87.4294225,12.6659906 87.4780141,12.9027029 87.5223803,13.1392039 C88.6759014,13.3146247 89.7237887,13.9805894 90.3195634,15.0648164 C91.1350563,16.5527225 90.974493,18.5138419 90.0913944,19.9343272 C89.7117465,20.5453409 89.2298451,21.0601902 88.6885775,21.5103663 C89.3006197,22.9010513 89.0069577,24.5605738 88.0201268,25.68538 C87.7797042,26.0732078 87.4845634,26.4232039 87.1524507,26.740018 C87.519,28.1778341 86.8670282,29.6613018 85.5656197,30.4295601 L85.4543052,30.7082763 C85.4355962,30.7545933 85.4166056,30.8006912 85.3970282,30.8463429 C85.382662,30.9055209 85.3649155,30.9627969 85.3473803,31.0204955 C85.3163239,31.5306951 85.1483662,32.031384 84.8149859,32.5031178 C84.1324648,33.4698904 83.2864817,34.1003288 82.8379073,35.2289092 L82.7929437,35.3474701 C82.6000563,35.8815523 81.9772394,36.2583898 81.4465352,36.0935366 C84.3930845,42.1468204 85.9378732,48.8823429 86.9984366,55.4832352 C87.5272658,58.776337 87.9354002,62.0807699 88.2663595,65.3979272 L88.5909732,68.7012067 C88.8764681,71.6373885 89.1306143,74.5832864 89.1322394,77.5291843 C89.1364648,84.1932705 87.230831,90.6033135 83.1406901,95.9063037 C79.2723803,100.919321 73.7984366,104.552433 67.6146338,105.983274 C61.2301268,107.458499 53.7406901,106.877286 48.015338,103.499908 C46.3273099,102.506773 47.8061831,100.118304 49.5237887,100.917419 C52.7751972,102.430687 56.0794225,103.555071 59.6836479,103.806578 C63.1970282,104.053646 66.7188592,103.614038 70.0505493,102.464292 C75.5625211,100.560237 80.252662,96.5720571 83.2674507,91.6053252 C84.752662,89.1576775 85.8280141,86.5012157 86.4005493,83.6942724 C87.1132254,80.1958333 87.0058534,76.5797944 86.7439875,73.0366144 L86.7259014,72.7951491 C86.2082958,65.9683233 85.5259014,59.0994387 84.4230845,52.3406677 C83.4482958,46.3638928 81.9493521,40.5082215 80.0033662,34.782108 C79.2411127,34.1108595 78.3884366,33.5554309 77.4759718,33.1335757 C70.7942113,32.854382 64.1004085,32.9359632 57.4273099,33.3971295 C51.7361977,33.7930105 46.0726583,34.4627572 40.4519043,35.4388993 L39.8498451,35.5446599 C38.6054789,35.7663663 37.2237887,35.8931765 36.0512535,36.3942881 C35.0456197,36.8254427 34.6378732,37.6539358 34.3843521,38.6724329 C33.7463239,41.248793 33.6491408,44.0684172 33.5413944,46.7102959 C33.4357606,49.2927851 33.674493,51.8968321 33.4674507,54.4708673 C33.2920986,56.6245268 32.7406901,58.8289104 31.1456197,60.3867734 C30.3111127,61.2023742 29.2843521,61.6483233 28.3209718,62.2675796 C27.6977324,62.6672431 27.4336479,63.0791648 27.5139296,63.8188908 C27.687169,65.4378341 28.9906901,67.4773644 27.5266056,68.8638223 C27.2688592,69.1068751 26.8230845,69.1385777 26.5695634,68.8638223 C25.965338,68.2067342 25.130831,67.7056227 24.4146338,67.1751335 C24.1146338,66.9555405 24.3639296,66.5286129 24.7040704,66.6805738 C25.1519577,66.8815679 25.6082958,67.1182802 26.0751972,67.3254035 C25.0442113,66.4757753 23.5780141,66.0592039 22.3568873,65.8119241 C21.7420986,65.6893409 21.0956197,65.6534114 20.4554789,65.7106873 C19.9822394,65.9366207 19.4984366,66.1460689 19.0146338,66.3508673 C18.3998451,66.608926 17.7787183,66.8433135 17.1533662,67.0654427 C14.9836479,68.8342333 13.9484366,71.7109221 14.4005493,74.5239945 C14.6477324,76.0772078 15.3639296,77.766108 16.7139296,78.6728008 C18.3132254,79.7464603 20.4554789,79.2855053 22.1836479,80.0825072 C23.8019577,80.8283624 24.7864648,82.3355014 25.5237887,83.8952665 L25.8311755,84.5446604 C26.5155284,85.982433 27.2189816,87.3820594 28.1540704,88.6905933 C29.2357606,90.205975 30.5604085,91.5670708 32.0054789,92.7360493 C32.7065352,93.3017636 33.4537477,93.8106481 34.2259613,94.2740985 L34.437169,94.3993761 C35.2188592,94.8580063 35.7787183,95.29529 35.8315352,96.2653879 C35.8484366,96.6035483 35.6350563,96.9121198 35.3604085,97.0875405 C34.1773099,97.8378341 33.0005493,96.8994387 32.0160423,96.2442528 C30.9533662,95.5383429 29.937169,94.7438771 28.9970282,93.8773409 C27.2097042,92.2330356 25.6632254,90.2801589 24.4737887,88.1601041 C23.5674507,86.5455992 23.0519577,84.2735836 21.6195634,83.0223898 C20.7449155,82.2592039 19.509,82.2530748 18.4167465,82.1133722 C17.4005493,81.9825464 16.4392817,81.7711961 15.5350563,81.2702959 C11.8568873,79.2265386 10.8174507,74.2788282 11.6899859,70.4555014 C11.8378732,69.8106716 12.0449155,69.1829613 12.3005493,68.5784994 C10.9315352,68.8067577 9.39350704,67.3909221 9.94914085,65.9619828 C9.99139437,65.8541941 10.0399859,65.7529573 10.0864648,65.6491843 C9.18435211,65.05529 8.47238028,64.1551491 8.13435211,62.9777166 C7.96111268,62.3690278 7.93576056,61.7539984 8.02660563,61.1601041 C7.58928169,60.8665386 7.22801408,60.4626481 6.99561972,59.965975 C6.26885915,59.629928 5.62449296,59.1271256 5.23998592,58.4085346 C4.70759155,57.4170904 4.77519718,56.5040571 5.18083099,55.6819045 C5.12378873,55.5785542 5.06885915,55.4728791 5.01604225,55.3648791 C3.52660563,54.4203546 2.48716901,52.792746 2.60547887,50.9878145 C2.64350704,50.3896932 2.79139437,49.8507499 3.01956338,49.3648556 C3.0005493,49.303564 2.98153521,49.2399476 2.9646338,49.178656 C1.71815493,48.5446051 0.687169014,47.5028595 0.31956338,46.1121746 C-0.0480422535,44.7128243 0.385056338,43.3179123 1.25125352,42.2442528 C-0.0163521127,41.3166364 -0.779028169,40.0210591 -0.316352113,38.0616305 C-0.128323944,37.2650513 0.24984507,36.5399084 0.761112676,35.9291061 C0.759,35.9102959 0.754774648,35.8912744 0.750549296,35.8720415 L0.631955217,35.7800261 C-0.932915443,34.5446849 -1.83248059,32.9704082 -0.871985915,31.0342333 C-0.441,30.1636814 0.173788732,29.5568947 0.896323944,29.1574427 L0.932239437,29.0433135 L0.932239437,29.0433135 C0.414633803,27.9337245 0.23928169,26.7015523 0.596323944,25.405975 C0.887873239,24.3388673 1.57871831,23.4890278 2.4618169,22.9249339 C2.40266197,22.4470708 2.41111268,21.937928 2.5061831,21.3860924 C2.6646338,20.4542489 3.12730986,19.6405503 3.8033662,19.063564 C3.82871831,18.9407695 3.86040845,18.8205112 3.89632394,18.6998301 C4.12449296,17.962429 4.55125352,17.1614114 5.04561972,16.5673057 C5.4533662,16.0748595 5.90970423,15.8952117 6.4674507,15.8761902 C6.43364789,15.4219984 6.45688732,14.9610434 6.54984507,14.4939593 C6.83505634,13.0527616 7.75195775,11.6977949 9.11040845,11.0827656 C9.66815493,10.8312587 10.2554789,10.7574975 10.8216761,10.8185777 C11.3033662,9.80409628 12.243507,9.06880861 13.3991408,8.91029589 C13.8491408,8.8468908 14.2674507,8.85090646 14.6519577,8.90818239 C14.8695634,8.8065229 15.0956197,8.71585362 15.3322394,8.63321566 C15.4885775,8.57826458 15.6470282,8.52754051 15.8054789,8.47702779 C16.3399859,7.81338787 17.043507,7.28268728 17.865338,6.96375969 C18.8139296,6.59389667 19.7794225,6.63172838 20.6350563,6.94241331 L20.9075915,6.88534873 L20.9075915,6.88534873 C21.3343521,6.1456227 22.0146338,5.57286341 23.0604085,5.31290254 C24.2477324,5.01912564 25.4667465,5.42914521 26.4005493,6.17542309 C26.4047746,6.17542309 26.409,6.17542309 26.415338,6.17309824 C26.9033662,5.08041722 27.7378732,4.31955616 29.1385775,4.37239374 C30.0111127,4.40620978 30.7991408,4.83968924 31.4075915,5.45683209 C31.7456197,5.41435068 32.0836479,5.37630763 32.4237887,5.33847593 C32.7829437,4.9176775 33.1822394,4.5247773 33.6237887,4.17182231 C34.3463239,3.59251115 35.2864648,3.63921957 35.8188592,4.45482035 C35.9350563,4.6323546 36.0428028,4.81200235 36.1505493,4.9916501 L36.6385775,4.95783405 L36.6385775,4.95783405 C37.2132254,4.18217847 37.9970282,3.65802975 39.0702676,3.61597104 C40.0547746,3.57560313 40.7561831,4.05769315 41.2906901,4.73168924 C41.7259014,4.72112172 42.1632254,4.71287906 42.6005493,4.7063272 C43.1097042,4.11665988 43.7097042,3.59673816 44.3942113,3.16558356 C44.9181549,2.8358771 45.6913944,2.94810411 46.1160423,3.38771272 C46.4029437,3.68656204 46.6699859,3.99851507 46.9182254,4.32145832 C47.5581549,3.60371272 48.4224507,3.13092211 49.3459014,2.95021761 Z M18.2519577,70.0644188 C19.2385775,69.502227 20.565338,70.1109159 21.5202676,70.5885675 C22.6843521,71.1697808 23.8399859,72.0468845 24.5519577,73.1459061 C25.5216761,74.6422661 23.2420986,75.8511898 22.2216761,74.5091155 C21.5942113,73.6827358 21.093507,72.8500157 20.3329437,72.1271977 C19.6378732,71.4635577 18.6301268,71.0197221 18.230831,70.1447319 C18.2160423,70.1151429 18.2202676,70.0813268 18.2519577,70.0644188 Z M18.9450534,33.7436864 L18.963507,33.6909065 C19.2440704,32.9230708 18.0195634,32.5920963 17.7413239,33.3535914 C17.3196338,34.5077753 17.8057606,35.762562 18.945338,36.260926 C19.2611831,36.3991491 19.6220282,36.3511726 19.8123803,36.0335131 C19.9723099,35.766155 19.8981549,35.3028751 19.5850563,35.1661315 C18.9438647,34.8856419 18.7291002,34.3905528 18.9450534,33.7436864 L18.9450534,33.7436864 Z M8.39611268,31.5966364 C9.009,31.0555796 8.1096338,30.1613566 7.49970423,30.7000885 C6.9305493,31.2026795 6.50843662,31.8853409 6.61808451,32.6705072 C6.72984507,33.4706795 7.33301408,34.0356188 7.99322535,34.4348595 C8.69294366,34.8581941 9.33076056,33.7621315 8.63294366,33.3398536 L8.55455274,33.2918826 C8.26163498,33.1098942 7.91878873,32.8596658 7.86921127,32.5016384 C7.81660563,32.1212078 8.1383662,31.8242607 8.39611268,31.5966364 Z M11.8751456,22.049552 L11.9185775,22.017607 C12.5768873,21.547564 11.9445634,20.4472744 11.2786479,20.9226012 C10.6680845,21.3586168 10.1783662,21.9250356 10.1268169,22.7061863 C10.0767465,23.4653566 10.4629437,24.1235014 10.9678732,24.6575836 C11.5296338,25.2516892 12.4249859,24.3538732 11.8642817,23.7610356 C11.3179481,23.1832391 11.211162,22.5527574 11.8751456,22.049552 L11.8751456,22.049552 Z" id="ðŸ–-Ink" fill="#000000"></path>
                    </g>
                    <g id="face/Cheeky" transform="translate(112.183099, 77.354207)" fill="#000000" fill-rule="evenodd">
                        <path d="M35.2698169,46.7828102 C35.5939014,46.2191389 36.3400986,45.6968924 37.0229155,45.7769941 C40.0818592,46.1358669 40.0765775,49.84591 38.8953803,52.0118278 C37.8481268,53.9323679 35.6807324,55.0597104 33.5114366,54.8950685 C31.232493,54.7219726 29.2907324,53.381589 28.4361549,51.2488532 C27.8710141,49.83809 27.6098873,47.2336204 29.1132676,46.2857143 C29.1411549,46.2679609 29.1872113,46.2723992 29.2093944,46.2979726 C29.9302394,47.1368219 29.9585493,48.3962583 30.5896056,49.3302153 C31.176507,50.198865 32.088338,50.9161879 33.156507,51.0269354 C33.9542535,51.1097847 34.7612958,50.8219256 35.073338,50.1054481 C35.2421601,49.7179086 35.2229364,49.507484 35.1594752,49.2407523 L35.101809,49.0089745 C34.9020002,48.1970744 34.8122656,47.5789063 35.2698169,46.7828102 Z M36.0875289,30.5120405 C37.6828906,31.482148 40.1137318,33.7442494 38.3974899,36.149264 C36.3773089,38.2698449 33.4687045,35.8384541 32.0353946,34.7388307 C30.7063626,33.8866164 29.2131206,36.0784478 30.4461973,37.0735516 C40.8033244,44.7445605 45.006466,30.7657101 36.8944406,29.3714319 C36.0012775,29.2177885 35.6695544,30.2119271 36.0875289,30.5120405 Z M19.2404577,23.8598841 C20.2196831,22.3901542 22.4548944,22.6065769 22.9942606,24.3506395 C23.2864437,25.2953753 22.8829225,26.1445808 22.903838,27.0880485 C22.9213732,27.8850505 22.8691901,28.7731444 22.6249648,29.5449957 C22.0680634,31.3051209 20.485669,32.5482834 18.6136268,32.4967139 C16.7477113,32.4453558 15.1042606,31.2639076 14.3227817,29.5999468 C13.5385563,27.9296454 13.7046127,26.2010114 14.2771479,24.5026004 C14.3046127,24.4210192 14.4115141,24.3814967 14.4759507,24.4501855 C15.1527113,25.1696571 15.6481338,25.9291973 16.1607707,26.7349213 L16.6861127,27.560668 C17.0875913,28.1824667 17.6710782,28.9767892 18.4207313,28.9268958 L18.533218,28.9157946 C18.7415462,28.8979061 18.7096235,28.9392658 18.8703169,28.655211 C18.9446831,28.5237511 18.931162,28.2794301 18.9670775,28.124299 L18.9795423,28.0718841 L18.9795423,28.0718841 L18.9727475,28.0436436 C18.9568908,27.9685134 18.9411521,27.8269419 18.9283633,27.5812734 L18.925669,27.5270231 C18.8713732,26.3779115 18.5466549,24.901207 19.2404577,23.8598841 Z M44.0626479,24.8383303 C43.8870845,22.9585808 46.5287746,22.541164 47.4070141,23.9320603 C47.8650641,24.6573926 47.9984252,25.568536 48.0997246,26.4317847 L48.1470845,26.8415084 C48.2510282,27.7281229 48.2922254,28.6504556 47.907507,29.4774693 C47.3015915,30.7800211 45.9839155,31.4686004 44.562507,31.3595436 C43.2051127,31.2551366 41.966662,30.4678568 41.3138451,29.2726708 C40.7318028,28.2061973 40.1531408,26.1239742 40.8600423,25.0116376 C40.9027183,24.9442168 40.9880704,24.9355515 41.0465915,24.9875436 C41.7146197,25.5808039 41.8234225,26.6629174 42.2206056,27.4358254 C42.6302535,28.2330387 43.2515915,29.0099624 44.1932113,29.1310661 C45.0940563,29.2468861 45.4382113,28.7546513 45.2083521,27.8955123 C44.9119437,26.786346 44.1741972,26.0318254 44.0626479,24.8383303 Z M19.953993,12.6843781 L20.3859989,12.5188511 C21.8661808,11.9594828 23.8983314,11.3129177 25.1017394,12.5169886 C25.8441338,13.2594622 25.9854718,14.3532 25.4556127,15.2592587 C24.8135704,16.3568008 23.6619507,16.3838536 22.549838,16.5455366 C21.2849789,16.7294114 19.9985704,17.0789847 18.8209648,17.5773487 C17.4944155,18.1389065 16.2633592,18.8388986 15.0572324,19.6206834 C13.9108944,20.3635796 12.7685704,21.5777871 11.3963873,21.8066795 C11.3404014,21.8159789 11.2768099,21.7918849 11.2622324,21.730382 C10.9506127,20.3883076 11.8165986,19.0675796 12.5894155,18.0205503 C13.5244859,16.7528712 14.6575141,15.7123937 15.9238521,14.7794935 C17.1460352,13.8789299 18.5425141,13.2281824 19.953993,12.6843781 Z M46.8414507,17.4559491 L46.9734003,17.4328177 C47.8709905,17.2833331 48.6843773,17.3177555 49.3608169,18.0289198 C49.8771549,18.571456 50.076169,19.2746184 49.8300423,19.9919413 C49.6029296,20.6536791 49.0950423,21.3259843 48.3579296,21.4646301 C45.8694085,21.9329824 43.113,21.8556282 40.6120141,21.5009824 C39.4677606,21.3386372 38.3132009,21.1400224 37.1986633,20.826781 L36.6858923,20.6780715 C35.7554275,20.4121878 34.6902023,20.1344106 34.014338,19.4498278 C33.7713803,19.203816 33.9114507,18.8517065 34.2021549,18.7377886 C35.3814507,18.2757769 36.9978592,18.5215773 38.2553239,18.4854364 C39.7181408,18.443589 41.1832817,18.3338982 42.6391268,18.1827828 C44.0618028,18.0348376 45.4384225,17.7133738 46.8414507,17.4559491 Z" id="ðŸ–-Ink"></path>
                    </g>
                    <g id="facial-hair/Full" transform="translate(104.577451, 109.479380)" fill="#000000" fill-rule="evenodd">
                        <path d="M24.8714257,20.1190753 C26.5818995,16.1103389 30.3151083,13.1641387 34.613341,12.0870037 C37.7697106,11.2980357 41.0822108,11.3232133 44.2997667,11.6363462 C45.9855551,11.79926 47.793716,11.9327646 49.3824502,12.5590305 C50.7390983,13.094107 51.8446716,14.1054418 52.6759615,15.2925964 C53.6654918,16.6993673 54.3385412,18.3094631 54.8111527,19.9597583 C54.8782466,20.1943964 54.9413318,20.4307272 55.0001973,20.6683274 C54.7946957,21.913454 54.358374,22.9732397 53.2055395,23.7560721 C52.0805554,24.5204973 50.7382544,24.8332071 49.4001731,24.9442846 C49.268939,24.8812349 49.1421356,24.8164925 49.0258817,24.7500576 C46.9406944,23.5559209 45.473067,20.733916 42.8412117,21.1158113 C40.4925014,21.4568723 38.9463867,24.4132281 37.5496509,26.1468844 C33.0661714,26.6694779 28.5860676,25.3217368 24.9380977,22.7570087 C24.7528508,21.8791786 24.7420905,20.9939433 24.8714257,20.1190753 M58.0474865,17.0780889 C57.6888081,16.0711973 57.2370843,15.0960421 56.7015987,14.1773777 C54.9314154,11.1393534 52.2138994,8.71870887 48.987904,7.33499979 C41.3564943,4.06614578 31.4822899,6.37042339 25.3193517,11.7315555 C23.2141207,13.5642296 21.0854701,16.2573844 20.4417479,19.1542873 C20.2495385,19.192371 20.0680894,19.2924466 19.9187104,19.4333564 C15.466035,16.6289124 10.8806486,13.9306797 7.29259907,10.0431766 C4.68690625,7.21863282 2.87452557,3.87593867 1.76473252,0.202762327 C1.67400799,-0.0995802223 1.18662739,-0.0553607732 1.2013965,0.279141375 C1.20561624,0.357424611 1.20983599,0.43549627 1.21405573,0.513779505 C1.16763853,0.369907613 0.94821177,0.443959322 0.931332788,0.583599688 C0.334238806,5.0457441 -0.412656141,9.77659043 0.275162369,14.2620082 C0.686587551,16.9384486 1.90187424,18.8978568 3.52647625,21.0136199 C5.26712125,23.2815064 7.23774238,25.3909222 9.25267083,27.4138033 C10.5312537,28.69786 11.8668031,30.1788941 13.4323287,31.1204087 C15.2531489,32.2142583 17.3187143,33.0459647 19.2619071,33.8899427 C21.2388578,34.7510582 23.2453468,35.5465852 25.2898135,36.2363239 C29.3766369,37.620033 33.6006021,38.576358 37.8984129,38.9952791 C41.3396153,39.3295696 45.2724181,39.6936925 48.5701492,38.3986339 C51.0977767,37.406341 53.1380236,35.6123854 54.756296,33.4540955 C56.5180397,31.1034826 57.9107667,28.4259844 58.6806593,25.6024985 C59.480723,22.6696277 58.2160653,17.550962 58.0474865,17.0780889" id="ðŸ–-Ink"></path>
                    </g>
                    <g id="accessories/*-None" transform="translate(88.521127, 88.978474)"></g>
                </g>
            </g>
        </g>
    </g>
</svg>