<?xml version="1.0" encoding="UTF-8"?>
<svg width="240px" height="324px" viewBox="0 0 240 324" version="1.1" xmlns="http://www.w3.org/2000/svg" xmlns:xlink="http://www.w3.org/1999/xlink">
    <!-- Generator: Sketch 62 (91390) - https://sketch.com -->
    <title>peep-40</title>
    <desc>Created with Sketch.</desc>
    <g id="Introduction" stroke="none" stroke-width="1" fill="none" fill-rule="evenodd">
        <g id="variations" transform="translate(-1326.000000, -1406.000000)">
            <g id="images" transform="translate(126.000000, 110.000000)">
                <g id="a-person/bust" transform="translate(1200.000000, 1296.000000)">
                    <g id="body/Striped-Tee" transform="translate(31.056338, 135.052838)" fill-rule="evenodd">
                        <path d="M10.0285775,125.217609 C9.39604225,131.01833 7.96322535,137.408294 10.694493,142.88121 C8.97435211,142.958353 10.3697746,143.456083 11.2980845,143.627277 C11.8281549,144.037719 12.5405493,144.200247 13.2104789,144.143183 C16.6887887,144.878682 20.279493,145.145195 23.8112535,145.561343 C67.9066056,149.225312 112.297521,148.252255 156.475268,146.673468 C157.912099,146.61112 158.876113,145.56705 158.986183,144.160725 C160.605338,123.464881 161.411113,102.704999 161.369915,81.9459616 C160.650549,74.6507836 166.16231,77.4974607 163.222099,67.8844039 C160.858437,57.7448736 157.360056,47.8754489 152.89893,38.4712063 C149.815268,32.3515585 146.909704,25.9123491 142.209634,20.8376172 C140.724423,20.6323961 139.459986,19.156537 138.204845,18.3322708 C136.933648,18.0845683 135.991394,17.0047796 134.703085,16.6727483 C132.247944,16.0338364 126.753718,14.6750654 124.662803,16.3092258 C124.580197,16.2866114 124.496535,16.2673785 124.41393,16.2439186 C124.004704,16.697899 123.442521,16.3574137 123.137239,15.9495076 C122.092521,15.1381339 117.526098,15.0546981 117.007858,13.8094222 C114.306168,11.3577588 113.583317,6.19799579 113.583317,3.17934247 C112.573035,2.04375734 112.503085,2.25464266 111.131746,1.65440783 C109.787239,-0.0421009785 108.163014,-1.51986223 106.350127,-2.68482505 C96.1478028,-9.38632016 81.3428028,-2.32468415 78.9544225,9.32346458 C75.1788592,12.3140712 71.2925915,15.3520204 66.6681549,16.9103061 C64.4113944,15.7489362 61.8404789,15.3782278 59.445338,15.3759029 C57.6599155,15.3110184 55.1927324,14.2781495 54.0324507,16.157899 C34.5119577,22.5506114 22.730831,41.143308 14.3536479,58.759989 C13.1794225,61.2682943 11.7747042,63.8945331 12.1340704,66.7522004 C12.3810423,70.1745957 16.0938592,72.2115898 15.3922394,75.8385722 C14.3724507,85.8155742 13.2123803,95.7824313 12.1507606,105.756474 C11.4432254,112.243449 10.7359014,118.730635 10.0285775,125.217609 Z" id="ðŸŽ¨-Background" fill="#FFFFFF"></path>
                        <path d="M152.834725,77.6228337 C151.572613,78.0799843 149.803458,78.5255108 148.900923,79.5583796 C148.796979,78.5958904 148.691768,77.6336125 148.586134,76.6711233 C151.230782,76.6083523 153.881134,76.5855264 156.527261,76.5115538 C155.278246,76.8171663 154.04381,77.1851272 152.834725,77.6228337 M147.024232,138.163703 C146.114092,138.172157 145.200993,138.235562 144.291486,138.271068 C142.539655,138.338912 140.787824,138.40591 139.035782,138.47164 C135.461768,138.605636 131.887754,138.734771 128.313317,138.859256 C121.235007,139.105479 114.155852,139.332681 107.076063,139.541284 C92.9166972,139.957855 78.7501479,140.210207 64.5926831,140.686591 C60.665007,140.818685 56.7375423,140.921401 52.8134577,141.135288 C50.780007,141.246035 48.7370493,141.341354 46.7133169,141.57701 C45.0060634,141.775679 43.3231056,142.110881 41.6253592,142.360697 C41.7392324,140.147648 41.8459225,137.934176 41.956838,135.721339 C42.061838,133.627703 42.1598662,131.533855 42.2572606,129.439796 C48.8845141,129.786622 55.5195845,129.926748 62.1557113,129.985926 C69.1752887,130.048697 76.1927535,130.222849 83.2127535,130.236376 C97.1101479,130.264063 111.00881,130.089065 124.905782,129.949573 C128.836204,129.90984 132.767049,129.870528 136.697683,129.831006 C138.662894,129.81135 140.628317,129.791483 142.593528,129.771616 C143.574655,129.761894 144.561486,129.782818 145.541556,129.742239 C146.587754,129.698701 147.223035,129.401119 147.982331,128.6969 C148.387331,128.321331 148.404232,127.556454 147.982331,127.183843 C147.373035,126.645534 146.807472,126.232556 145.962824,126.17211 C145.133387,126.11272 144.267824,126.194301 143.435852,126.205292 C141.610923,126.229174 139.785993,126.253479 137.961063,126.277362 C134.451486,126.323648 130.94212,126.369722 127.432542,126.415796 C120.413387,126.508157 113.394232,126.60263 106.3755,126.709573 C99.4966268,126.814614 92.6171197,126.892814 85.7395141,127.065699 C78.7171901,127.242599 71.7031056,127.561949 64.6824718,127.787671 C57.2095141,128.027765 49.7403592,128.314568 42.2843028,128.875491 C42.4634577,124.994043 42.6284577,121.11175 42.7837394,117.229033 C57.5883169,118.035123 72.4030352,118.608939 87.232331,118.63409 C102.681908,118.660509 118.130641,118.396321 133.574514,117.993065 C135.750782,117.936 137.927049,117.878513 140.102894,117.810247 C141.225993,117.774951 142.349092,117.742403 143.47219,117.701824 C144.297824,117.671812 145.146275,117.636517 145.892683,117.241503 C147.365641,116.462043 147.619796,114.186012 145.87219,113.563374 C144.916838,113.2231 143.903387,113.555765 143.670993,114.41744 C143.599585,114.424415 143.531556,114.430121 143.47219,114.432446 C142.629866,114.464149 141.787331,114.487609 140.945218,114.514239 C139.120077,114.572149 137.295148,114.631538 135.470007,114.688814 C132.1005,114.794278 128.730782,114.89171 125.360852,114.9809 C118.480711,115.163295 111.599725,115.311875 104.718106,115.426638 C91.0934577,115.653628 77.4698662,115.863499 63.8469085,116.175029 C56.8315563,116.335656 49.8183169,116.543836 42.8038099,116.721793 C42.9713451,112.501339 43.1295845,108.280885 43.2721901,104.060008 C43.2888803,103.565448 43.3070493,103.070466 43.325007,102.575695 C44.3302183,102.796767 45.3595141,102.919139 46.3835282,103.064125 C48.1605,103.315632 49.9429648,103.501832 51.7275423,103.690145 C55.0900775,104.045002 58.4635986,104.262693 61.8385986,104.449104 C68.7193732,104.828689 75.6020493,105.09647 82.490007,105.306341 C96.1152887,105.721432 109.757472,105.81189 123.388246,105.765182 C130.790007,105.740031 138.236768,105.837464 145.634937,105.514732 C146.090852,105.639429 146.560711,105.626536 147.015148,105.477957 C147.388246,112.076313 147.782261,118.67319 148.169514,125.270701 C148.430852,129.721949 148.661345,134.188204 148.982261,138.640932 C148.35543,138.332149 147.778458,138.157151 147.024232,138.163703 M18.7569085,71.1280391 C17.4588803,70.4927202 16.027331,69.9129863 14.8814155,69.0130568 C13.6288099,68.0290098 13.3212042,66.8737691 13.7061338,65.3296438 C13.7348662,65.2142466 13.768669,65.0994834 13.798669,64.9845088 C23.029162,65.0071233 32.2362042,64.6006967 41.4626831,64.3815264 C50.8366268,64.1589746 60.2071901,63.9719295 69.583669,63.919092 C88.2831761,63.8138395 106.980359,64.2356947 125.670993,64.7609002 C132.40219,64.9498474 139.133176,65.1362583 145.864585,65.3201331 C145.710993,66.9619022 145.770148,68.6440391 145.735289,70.274184 C145.704655,71.7060822 145.712683,73.1400939 145.734021,74.5738943 C142.212613,74.565229 138.692049,74.4891429 135.170218,74.449409 C126.451415,74.3511311 117.737261,74.6015812 109.02057,74.8010959 C91.5878239,75.2001252 74.1504296,75.5139804 56.7210634,76.0391859 C51.9871901,76.181636 47.2228944,76.2566654 42.4672606,76.4593503 C42.3037394,75.6858082 42.1222606,74.9160705 41.9175423,74.1514051 C41.5921901,72.9365636 41.225007,71.6879061 40.2521197,70.8439843 C40.2054296,70.8031937 40.1407817,70.8209472 40.1198662,70.8788571 C39.7503592,71.903272 39.8437394,72.9462857 39.9519085,74.0197339 C40.0374718,74.8676712 40.0953592,75.7179335 40.1382465,76.5692524 C37.1811338,76.7248063 34.2301479,76.9435538 31.2945845,77.2713581 C30.4552183,76.8564775 29.6154296,76.4424423 28.7743732,76.0305205 C25.4357113,74.3953033 22.095993,72.7621996 18.7569085,71.1280391 M125.918387,101.631804 C119.031275,101.687389 112.143739,101.693307 105.256838,101.649135 C91.6243732,101.561636 77.9963451,101.226223 64.366838,100.955272 C60.5735282,100.880243 56.7852887,100.805636 52.9913451,100.805425 C51.0271901,100.805425 49.0564859,100.818528 47.0944437,100.903703 C45.8595845,100.957386 44.6076127,100.965205 43.3784577,101.113573 C43.5267676,97.1412446 43.6812042,93.1649002 43.6763451,89.1906693 C56.6790211,91.1606654 69.8213451,91.7017221 82.9524718,92.0893386 C96.2557817,92.4820274 109.562261,92.6855577 122.871275,92.705002 C126.653599,92.7107084 130.435923,92.7022544 134.218035,92.6798513 C136.038951,92.6692838 137.860077,92.6553346 139.680993,92.6382153 C140.659796,92.6289159 141.644514,92.6487828 142.622472,92.6075695 C143.656627,92.5640313 144.281345,92.318865 145.003669,91.5829432 C145.373387,91.2065284 145.39219,90.5568376 145.003669,90.1819022 C143.714303,88.937683 142.197401,89.2077886 140.521415,89.228501 C138.84057,89.2494247 137.159725,89.2673894 135.478669,89.2826067 C132.116979,89.3132524 128.754866,89.3326967 125.392754,89.341362 C118.809021,89.3580587 112.225077,89.3326967 105.641556,89.2654873 C92.3359225,89.1293777 79.0332465,88.8334873 65.7307817,88.5217456 C58.3765563,88.3494951 51.0238099,88.3968376 43.6755,88.7535969 C43.6727535,88.0937613 43.6666268,87.4337143 43.6537394,86.7738787 C43.6053592,84.2748728 43.3619789,81.7758669 42.9812746,79.3045479 C46.5825423,79.2920783 50.1835986,79.2151468 53.7685986,79.1690724 C62.4861338,79.0572681 71.2017676,78.881636 79.9182465,78.706638 C88.5645845,78.5333307 97.2109225,78.3598121 105.857261,78.1862935 C114.498106,78.0129863 123.16557,78.0005166 131.796063,77.5338552 C136.453669,77.2819256 141.112965,76.9395382 145.774162,76.7596791 C145.783246,77.1876634 145.792331,77.6158591 145.801415,78.0436321 C145.913599,83.2946301 146.118739,88.5405558 146.383458,93.7860587 C146.510641,96.306411 146.644796,98.8267632 146.782754,101.346693 C146.715993,101.340141 146.647754,101.336125 146.577613,101.335491 C139.695993,101.28984 132.801275,101.576008 125.918387,101.631804 M16.9389507,56.0283288 C17.7274014,53.9989432 18.5838803,51.9832955 19.5096549,49.9949119 C23.4400775,51.1047123 27.6326831,51.6772603 31.6890211,52.0583249 C36.007331,52.4643288 40.3340915,52.6923757 44.6701479,52.7809315 C53.2184577,52.9555068 61.7667676,52.5499256 70.305993,52.1969706 C87.8699366,51.4714051 105.43219,50.9415499 123.012613,50.9075225 C127.922261,50.8978004 132.831697,50.9206262 137.740923,50.976 C140.19543,51.0036869 142.649937,51.0368689 145.104232,51.0789276 C146.366556,51.1006967 147.628669,51.1245793 148.890993,51.1505753 C149.449796,51.1619883 150.015359,51.2034129 150.573739,51.1865049 C151.32057,51.1638904 151.866063,50.939225 152.559232,50.668908 C153.355077,50.3588571 153.824514,49.027773 152.831345,48.5866849 C151.839232,48.1458082 151.043176,47.8875382 149.942683,47.8636556 C148.750711,47.8380822 147.558528,47.814411 146.366556,47.7924305 C144.192613,47.7526967 142.018669,47.7193033 139.844725,47.6922505 C135.426697,47.6370881 131.008035,47.6138395 126.589585,47.6144736 C117.892754,47.6155303 109.195923,47.7184579 100.501627,47.923045 C83.0466972,48.3336986 65.6308521,49.550865 48.1822606,50.0731115 C43.3729648,50.2172524 38.5545845,50.245362 33.7450775,50.1010098 C29.0866268,49.9613072 24.4381056,49.5690411 19.7853592,49.4039765 C21.3924718,46.0147632 23.2108521,42.7141057 25.2626831,39.5757652 C33.0189507,39.848407 40.7585282,39.6467789 48.5164859,39.4104892 C52.5874014,39.2864266 56.6583169,39.1606732 60.7288099,39.0209706 C62.764162,38.951225 64.7995141,38.8814795 66.8348662,38.8117339 C67.8174718,38.7779178 68.8000775,38.7443131 69.7826831,38.7107084 C70.8411338,38.6743562 71.9551479,38.7428337 72.9831761,38.4644853 C73.1693028,38.4139726 73.3171901,38.306184 73.4285282,38.1688063 C76.1648662,39.5770333 79.0590211,40.6878904 82.0351479,41.5110998 C88.4952887,43.2980665 95.4434577,43.9684697 102.124796,43.4185362 C107.486768,42.9772368 112.830359,41.6495342 117.544585,39.0499256 C128.190993,40.0303796 138.986556,39.569636 149.65557,39.4998904 C150.674937,39.4933386 151.098951,38.5591703 150.928458,37.7885871 C154.352472,45.1704188 156.620641,53.1731977 158.743669,60.957229 C160.062824,65.7948258 161.236204,70.6626458 162.353176,75.5480078 C162.306697,75.5520235 162.26043,75.5562505 162.214162,75.5606888 C162.343669,75.0255499 162.052542,74.3946693 161.320077,74.3777613 C157.00219,74.278638 152.670359,74.5267632 148.350782,74.5667084 C148.229303,73.485863 148.107824,72.4048063 147.979796,71.3243836 C147.804866,69.8525401 147.596556,68.3842896 147.418458,66.9126575 C147.354021,66.378998 147.294021,65.863726 147.220711,65.356908 C150.640711,65.4499022 154.0605,65.543953 157.4805,65.6341996 C159.700077,65.692955 159.696063,62.2542857 157.4805,62.1866536 C138.686979,61.6109354 119.892613,61.0292994 101.092754,60.7101605 C82.2814859,60.3905988 63.4053592,60.1936204 44.6084577,61.1584344 C34.3651479,61.6838513 24.1471901,62.386591 14.0312746,64.1200861 C14.8169789,61.377182 15.9130352,58.6689393 16.9389507,56.0283288 M32.9359225,29.8999374 C33.2762746,30.1552485 33.3852887,30.3162975 33.8940211,30.4056986 C34.4456408,30.5022857 35.0128944,30.5331429 35.5697958,30.5876712 C36.7613451,30.7043366 37.9558521,30.7478748 39.1514155,30.8045166 C41.5387394,30.9180117 43.9258521,31.0380587 46.3148662,31.1107632 C51.0571901,31.2546928 55.9011338,31.4586458 60.6413451,31.2477182 C61.800993,31.1961487 62.3285282,30.2395773 62.2231056,29.3679687 C63.1121197,30.4693151 64.084162,31.5032407 65.1193732,32.445863 C66.7837394,33.9610333 68.5803592,35.3041644 70.4743732,36.4894168 C69.2456408,36.5344344 67.9945141,36.6885088 66.8348662,36.7383875 C64.8696549,36.8225049 62.9044437,36.9068337 60.9392324,36.9913738 C56.7979648,37.1693307 52.6571197,37.3603914 48.5164859,37.5539883 C40.8531761,37.912227 33.2160634,38.3581761 25.5819085,39.0894481 C27.7621901,35.8116164 30.2044437,32.719773 32.9359225,29.8999374 M157.661979,45.821589 C154.424092,36.9305049 150.249655,27.6947084 142.737401,21.587953 C138.876063,18.4489785 134.574232,16.2775656 129.702401,15.2489237 C129.552824,15.2172211 129.493246,15.4302622 129.639232,15.4782387 C138.064162,18.2433346 144.29888,25.5598591 148.516415,33.0581448 C149.28057,34.4169159 149.988739,35.8082348 150.658458,37.2204775 C150.44043,36.9545988 150.106838,36.7776986 149.65557,36.7853072 C139.693035,36.9526967 129.613246,36.7838278 119.673106,37.7575186 C119.926838,37.5884384 120.18057,37.4195695 120.429444,37.2418239 C123.144866,35.3058552 125.588176,32.9370411 127.607894,30.2541605 C128.824373,30.5627319 130.105077,30.6379726 131.346275,30.7561174 C133.002824,30.9135734 134.670782,30.9856438 136.332613,31.075045 C137.991908,31.1640235 139.657542,31.1724775 141.318739,31.2126341 C142.46043,31.2403209 144.692049,31.4299022 144.693317,29.6828806 C144.694585,27.9339569 142.460641,28.1190998 141.318739,28.1419256 C139.657331,28.1746849 137.992542,28.179546 136.332613,28.2575342 C134.741345,28.3319295 133.14057,28.3921644 131.553951,28.5346145 C130.586134,28.6214795 129.59043,28.678544 128.617331,28.832407 C130.200782,26.4688767 131.461415,23.8944188 132.302894,21.1789902 C132.387613,20.9057143 132.4155,20.6504031 132.401556,20.4139022 C132.758599,20.0370646 132.986345,19.5207358 132.986345,19.0477339 C132.986345,17.9229276 132.110218,17.2639374 131.086204,17.146638 C127.033246,16.6831468 122.567894,16.0226771 119.301697,13.3569159 C117.827683,12.15391 116.642049,10.7317339 115.526134,9.20134638 C114.272261,7.48116634 113.80219,5.31398043 113.797331,3.20829746 C113.79712,3.09015264 113.601275,3.05443444 113.583317,3.17934247 C112.969585,7.44840705 113.854796,12.3217221 116.917542,15.5202975 C119.924725,18.6607515 124.009585,19.8371272 128.154866,20.524227 C126.445711,25.4078982 123.624655,29.6976751 119.664021,33.0710372 C115.250641,36.8299022 109.66388,38.8402661 103.968106,39.5990137 C97.8231761,40.4175734 91.3826831,40.0196008 85.3397958,38.6834442 C79.5185282,37.3958982 73.8240211,35.0934481 69.0861338,31.4191233 C66.6958521,29.5651585 64.4969789,27.3797965 62.580993,25.0409941 C60.9996549,23.1107319 59.7871901,20.9581292 58.4297958,18.8902779 C63.4940915,20.279272 69.6170493,18.3817691 73.8590915,15.7014247 C76.3577535,14.1230607 78.5466972,12.1524305 80.345007,9.80813307 C81.2319085,8.65183562 82.020993,7.43128767 82.6716972,6.12619961 C83.0101479,5.44734247 83.3143732,4.7490411 83.5943028,4.04418787 C83.767331,3.60880626 83.9369789,3.16158904 83.9369789,2.68288063 C83.9359225,2.33034834 83.8471901,2.00190998 83.6705704,1.69756556 C83.3076127,1.31227397 83.2353592,1.20068102 83.4538099,1.36215264 C83.0974014,0.632148728 82.0670493,0.446794521 81.4078944,0.825534247 C81.1621901,0.966927593 80.5843732,1.24062622 80.3002183,1.69756556 C80.1081761,2.00655969 80.0048662,2.376 79.8819085,2.71500587 C79.6877535,3.25014481 79.4921197,3.7791546 79.2483169,4.29442661 C78.6821197,5.49151468 78.0031056,6.6340742 77.2285986,7.70794521 C75.8128944,9.67096673 73.9932465,11.4460978 72.0111338,12.831499 C69.9303592,14.2858004 67.6877535,15.4746458 65.2554296,16.2171194 C62.6864155,17.0010176 60.1435986,17.2351937 57.4930352,17.5224188 C57.4647254,17.4831076 57.4372606,17.4435851 57.4089507,17.4044853 C57.3578239,17.3338943 57.247331,17.3567202 57.2428944,17.4495029 C57.2407817,17.4938865 57.241838,17.5380587 57.2405704,17.5824423 C56.8626127,17.7597652 56.8313451,18.2925793 57.2524014,18.4971663 C57.4085282,20.9498865 58.4665563,23.365409 59.6194437,25.488 C60.0996549,26.3720783 60.6421901,27.228681 61.2299366,28.0561174 C61.0560634,27.9897534 60.8606408,27.9476947 60.6413451,27.9392407 C55.8994437,27.7574795 51.0567676,27.9916556 46.3148662,28.1651742 C43.9957817,28.250137 41.6792324,28.3801174 39.3620493,28.5043914 C38.1677535,28.5682192 36.9705,28.6090098 35.7804296,28.7326497 C35.1852887,28.7945753 34.5865563,28.8431859 33.9945845,28.9323757 C33.9516972,28.9389276 33.9117676,28.9456908 33.874162,28.952454 C35.338669,27.5095656 36.8824014,26.1427632 38.5121197,24.8674755 C43.8584577,20.6835851 49.9987394,17.2747162 56.5501479,15.4207515 C56.6122606,15.4032094 56.6031761,15.2969002 56.5345141,15.3040861 C43.5039507,16.6370724 32.6496549,24.8516243 25.0566972,35.1657299 C20.8435986,40.8888845 17.6481761,47.2245323 14.8985282,53.7575812 C13.5126127,57.0506301 12.2012746,60.4022231 11.1031056,63.8034834 C10.5449366,65.5319061 10.2933169,67.3653699 11.0927535,69.0612446 C11.7058521,70.362317 12.8371901,71.3292446 14.0230352,72.0972916 C14.101838,72.1486497 14.1829648,72.1959922 14.2626127,72.2460822 C13.0503592,76.4709746 12.2382465,80.8061918 11.4590915,85.1283053 C10.6127535,89.8236634 9.87437324,94.5384658 9.24014789,99.2670059 C7.97254225,108.718802 7.00155634,118.190254 6.57754225,127.720039 C6.46028873,130.355789 6.38190845,132.99344 6.3476831,135.631726 C6.33057042,136.951397 6.33808803,138.270857 6.3561338,139.590528 C6.37662676,141.067233 6.17676761,142.73373 6.92824648,144.05171 C7.93240141,145.812681 9.88261268,145.206528 10.7403592,144.002254 C10.7528239,144.018528 10.7657113,144.035225 10.7783873,144.05171 C10.8561338,143.898693 10.9212042,143.745886 10.9767676,143.593292 C11.0690915,143.390184 11.1293028,143.177988 11.1512746,142.961566 C11.3128944,142.14364 11.2520493,141.313033 11.2455,140.424305 C11.235993,139.173957 11.2431761,137.923609 11.2467676,136.67326 C11.2537394,134.312689 11.2805704,131.952963 11.3477535,129.592814 C11.482331,124.874207 11.7451479,120.159616 12.1045141,115.452634 C12.8185986,106.102497 13.8719789,96.7952642 14.7734577,87.4635147 C15.232331,82.7121487 15.7858521,77.9485245 15.8813451,73.1717965 C16.9940915,73.7578708 18.142331,74.2889941 19.2529648,74.8545675 C21.313669,75.9039217 23.374162,76.9532759 25.4346549,78.0026301 C27.4330352,79.0202818 29.4343732,80.031593 31.4365563,81.0422701 C33.4554296,82.0609785 35.4607817,83.4081252 37.7321197,83.6587867 C38.9462746,83.7925714 39.3857113,82.1562975 38.6703592,81.3924775 C37.7361338,80.3944814 36.4955704,79.7743796 35.2484577,79.193589 C36.9054296,79.2542466 38.5645141,79.2867945 40.2244437,79.2994755 C40.2472606,81.3888845 40.1735282,83.4827319 40.0687394,85.5674912 C39.810993,90.6809002 39.4526831,95.7852211 39.1133873,100.893769 C38.4081761,111.512642 37.7255704,122.137221 37.1929648,132.766027 C37.0626127,135.369652 36.9320493,137.972642 36.8014859,140.575843 C36.7381056,141.841409 36.650007,143.108665 36.6140915,144.375288 C36.5739507,145.796407 36.6088099,147.577667 37.9235282,148.455194 C38.8522606,149.074661 39.8517676,148.782787 40.5489507,147.930622 C41.4812746,146.791233 41.4797958,145.140376 41.5547958,143.742082 C41.5721197,143.418928 41.5875423,143.095773 41.6042324,142.772618 C43.0281761,142.957127 44.4417676,143.212227 45.871838,143.351718 C47.6185986,143.522067 49.3763451,143.622458 51.1307113,143.667476 C54.7081056,143.759624 58.2797958,143.792595 61.8582465,143.792595 C68.9399366,143.792806 76.020993,143.671703 83.1016268,143.557362 C97.2633169,143.328681 111.423317,142.931977 125.580148,142.492368 C129.504866,142.370419 133.429373,142.242552 137.35388,142.10919 C139.386063,142.039867 141.418246,141.969276 143.450641,141.896994 C145.374232,141.828517 147.475711,142.077487 149.16881,141.078434 C149.217824,141.686489 149.267683,142.294755 149.321134,142.902176 C149.422754,144.053401 150.231697,145.042309 151.460218,145.042309 C152.614585,145.042309 153.606697,144.062912 153.599303,142.902176 C153.168106,132.401659 152.234937,121.900297 151.495711,111.417534 C150.816908,101.788838 150.18057,92.1468258 149.209796,82.5411663 C149.485289,82.7193346 149.821838,82.8296595 150.21881,82.8313503 C151.487049,82.8366341 152.752965,82.0497769 153.939444,81.6315147 C155.136697,81.2096595 156.353599,80.8444462 157.586979,80.5449628 C158.31712,80.3676399 159.050218,80.2190607 159.785641,80.0924618 C159.696697,81.5953738 159.719514,83.1116008 159.691627,84.6090176 C159.648739,86.9108337 159.577331,89.2118043 159.521345,91.5131977 C159.411275,96.0477182 159.37219,100.58245 159.28557,105.117182 C159.111063,114.258928 158.823739,123.395812 158.335289,132.526356 C158.201134,135.035295 158.050289,137.543389 157.882754,140.050215 C157.794444,141.373268 157.701486,142.696321 157.603669,144.018528 C157.507965,145.318333 157.284021,146.699507 157.773106,147.945417 C157.788739,147.936329 157.804162,147.927663 157.819585,147.918575 C158.160782,148.992744 159.66057,149.506027 160.369162,148.285057 C161.473458,146.381636 161.21888,143.653738 161.345641,141.512337 C161.481908,139.214748 161.604021,136.916102 161.71219,134.616822 C161.928528,130.017628 162.078528,125.417166 162.16557,120.813534 C162.339655,111.604791 162.310077,102.382732 161.747261,93.1875147 C161.593246,90.6732916 161.377754,88.1637182 161.156556,85.6549902 C160.990711,83.7743953 160.899232,81.8424423 160.605993,79.9607906 C162.040077,79.749229 163.485359,79.6264344 164.944585,79.5902935 C166.356908,79.554998 167.267683,78.2807671 166.968317,76.9321409 C164.62388,66.3682192 161.362331,55.9833112 157.661979,45.821589" id="ðŸ–-Ink" fill="#000000"></path>
                    </g>
                    <g id="head/Turban" transform="translate(78.591549, 38.043053)" fill-rule="evenodd">
                        <path d="M98.0009577,54.0112016 C96.0676479,43.4650333 91.3006056,33.4303327 83.9795493,25.5788806 C83.1346901,24.6466145 82.3756056,23.1760391 81.0864507,22.9410176 C79.7924366,20.3031546 77.3258873,18.438411 75.3541268,16.3082114 C71.0503944,12.0154755 66.9327887,7.21845793 61.3817324,4.50767906 C35.6347606,-6.08562035 10.8579296,24.1197182 5.60011268,46.8358591 C0.377788732,65.1043444 6.08159155,90.3053307 28.713,91.0446341 C31.9147606,95.2809393 36.3327887,98.2132133 40.8710282,100.832055 C47.0685634,104.801636 53.8291268,106.412971 60.9991268,104.203937 C68.1397606,106.070583 75.5419437,100.080493 79.8332113,94.8271703 C83.2251127,90.7580431 85.5499014,85.7919452 88.6523662,81.5799452 C92.3151127,81.4884305 95.4803239,78.3858082 95.9706761,74.7491037 C99.3917324,68.459953 99.2362394,60.9236243 98.0009577,54.0112016 L98.0009577,54.0112016 Z" id="ðŸŽ¨-Background" fill="#FFFFFF"></path>
                        <path d="M41.9186831,0.918486106 C46.6035423,-0.176519765 51.5165704,0.0504704501 56.1570634,1.25389902 C65.3545986,3.63940978 72.9224155,9.84275225 79.1972746,16.7591906 C85.3179085,23.505492 90.3653028,31.2392219 94.0517113,39.5704391 L94.23852,39.9942468 C96.8460534,45.9331017 99.1119831,52.1059789 99.2091761,58.6452258 C99.292838,64.2732728 98.7245282,70.1365526 96.906993,75.4896329 C95.287838,80.2583295 92.3095986,85.0635898 87.1857254,86.2067836 C84.2311479,93.7198638 78.4508662,100.226071 71.1695282,103.707433 C66.6534718,105.866799 61.6939648,106.830768 56.7008662,106.351425 C51.6065704,105.862784 46.8481901,103.414079 42.8668521,100.291378 C42.7576268,100.205782 42.8981197,100.039872 43.0107254,100.104545 C47.8041761,102.86795 53.473331,103.855801 58.9637535,103.67404 C67.9865704,103.375613 76.258331,98.5037777 81.0114296,90.8459225 C82.1941056,88.9399656 83.2479085,86.9296016 84.0885423,84.8382904 C84.0393169,84.6662513 84.0107958,84.4918873 84.0107958,84.3219616 C84.0107958,83.6014685 84.3526268,83.050901 84.8626268,82.6951984 C85.0990352,81.9561065 85.3081901,81.2085605 85.4829085,80.4525605 C85.8790352,78.7402004 86.1000211,77.0031123 86.233331,75.2520751 C86.3415,73.8294763 86.2815,72.3202239 86.4243169,70.8612728 C86.3723451,69.6922943 86.3000915,68.5243726 86.1942465,67.3589871 C85.8534718,63.6037151 85.1643169,59.8577425 83.8369225,56.3184705 C82.4922042,52.7335468 80.3685423,49.5721691 77.6892465,46.8510341 C71.9423924,41.0149018 64.7872176,36.7535953 59.1989454,30.7581222 L58.9062887,30.4409519 L58.8864296,30.4346114 C58.1930493,31.1458051 57.5000915,31.8569988 56.8052324,32.5667131 L53.6306173,35.8060562 C47.1511313,42.424726 40.7241612,49.1077064 35.0873451,56.4727562 C31.8416408,60.7139225 28.9255141,65.1596759 26.4129085,69.8740556 C25.2230493,72.1069093 24.1441663,74.3953664 23.1690379,76.7299119 L22.7852894,77.6592873 C22.3286763,78.771471 21.8352446,80.0164162 21.5611479,81.2723883 C22.3766408,82.0816485 22.9730493,83.2709166 23.6326268,84.189445 C24.3807254,85.2311906 25.2435423,86.2228462 26.1312887,87.1483491 C27.0298099,88.085265 28.0153732,88.9832924 29.0615704,89.7528188 L29.1872148,89.8435523 C30.3876296,90.6957393 31.765563,91.2843311 31.9455845,92.9065879 C32.0237535,93.6110184 31.3941761,94.1776485 30.8112887,94.3970301 C29.2155845,94.9966309 27.5626268,93.274126 26.4991056,92.2833159 C25.8359366,91.6653276 25.2262183,90.9993628 24.6608662,90.2962004 C24.1105141,90.3750341 23.5565704,90.4145566 23.008331,90.3494607 C22.1588239,90.2484352 21.3175563,90.099856 20.4900211,89.8821652 C13.6263592,88.0793472 8.54600704,82.3792297 5.80502113,76.030901 C2.12516197,67.507989 2.21072535,57.6833706 3.74051408,48.6705487 C6.53579577,32.2000204 15.5826972,16.8183687 29.2434718,7.08040391 C33.0693169,4.35313973 37.3117817,1.9951045 41.9186831,0.918486106 Z M49.3136831,3.12181292 C40.4886127,2.65663092 32.4426972,7.20911624 25.9874155,12.8760517 C14.2337535,23.194173 6.99403521,38.301492 5.53755634,53.8152376 C4.7636831,62.057899 5.34276761,70.9424313 9.63910563,78.2249284 C11.306007,81.0504705 13.4529085,83.51249 15.9870634,85.5883726 C18.3750211,87.5448423 21.096993,88.6723961 24.006993,89.4395977 C23.8745282,89.256991 23.7437535,89.0731162 23.6165704,88.8864939 C22.939669,87.8950497 22.401993,86.8412571 21.9515704,85.7371632 C21.9118521,85.7768971 21.8370634,85.7849284 21.7929085,85.7242708 C19.9561479,83.2030732 20.531007,80.1947131 21.4065,77.42222 C22.3244577,74.5142513 23.4879085,71.6846935 24.8157254,68.9398873 C29.6556549,58.9371006 36.8543873,50.2229166 44.3269225,42.0912141 C48.1432606,37.9383922 52.0861479,33.9058286 56.0144577,29.8595272 C57.9762887,27.8390184 59.932838,25.8125918 61.864669,23.7629166 C62.8261479,22.7425174 63.7817113,21.7168344 64.7286127,20.6829088 C65.6649507,19.6606074 66.5074859,18.5778599 67.6732606,17.8121378 C68.6026268,17.2019695 69.5303028,18.3682004 69.0959366,19.235582 C68.4279155,20.5696955 67.2789845,21.6273159 66.2623037,22.7121839 L66.1576268,22.8245213 C65.1665704,23.8947992 64.1662183,24.9564117 63.1599507,26.0123178 C62.0026268,27.2267366 60.8362183,28.4329127 59.6662183,29.6359186 C60.6640352,29.52031 61.6736831,29.4537346 62.6655845,29.3030419 C64.0126268,29.0984548 65.3415,28.7970693 66.6636127,28.469265 C68.0569225,28.1241299 69.4322746,27.6834646 70.759669,27.1356446 C72.0067817,26.621218 73.1854437,25.7969519 74.5576268,25.716216 C75.7191761,25.6477386 76.0819225,27.0864 75.4384014,27.8434568 C74.5514808,28.8866722 72.9569377,29.2972843 71.6602414,29.6846564 L71.4771338,29.7399029 C70.042838,30.1778207 68.575162,30.5064705 67.0916408,30.7260634 C65.1397394,31.0151906 62.8838239,31.1474959 60.7954437,30.8516055 C64.965831,33.297809 68.8034236,36.3293648 72.6301806,39.2859004 L73.3054437,39.8067288 C77.0442465,42.6844744 80.6932606,45.786674 83.3590352,49.7239186 C85.8473451,53.3995115 87.3498803,57.6787209 88.1930493,62.0145722 C88.6090352,64.1536485 88.8834718,66.3153393 89.0676972,68.4861182 C89.7541452,70.4107048 89.643897,72.6989401 89.4710122,74.8156762 L89.4093169,75.5462748 L89.4139648,75.760584 C89.4397394,77.0844822 89.9715,80.0321847 88.7191056,81.0318716 C88.6977676,81.1383922 88.6779085,81.2455468 88.6555141,81.3520673 C88.8114296,81.2556916 88.9654437,81.1565683 89.1181901,81.0546975 C89.1809366,81.0126387 89.2417817,80.966353 89.3032606,80.9209127 L89.4763205,80.7787033 C89.4829074,80.7731624 89.4886215,80.7682914 89.4931901,80.7643022 C89.8819225,80.4229714 90.2526972,80.0666348 90.598331,79.6813432 C91.236993,78.9693041 91.8441761,78.0645135 92.4192465,77.0221339 C93.682838,74.7310967 94.4900915,72.2405448 95.1143873,69.6654528 C96.2556549,64.957625 96.7265704,59.9010693 96.206007,55.0729832 C96.133331,54.3989871 95.9841761,53.5540086 95.752838,52.6870497 C95.2035423,50.6284978 94.5716408,48.5917151 93.8641056,46.5824078 C92.4488239,42.5627366 90.7138944,38.6631123 88.691007,34.9129127 C84.5826972,27.2958481 79.2967817,20.2536564 72.9634014,14.3440908 C66.5495282,8.35928454 58.2317113,3.59185597 49.3136831,3.12181292 Z M36.8682676,27.4587569 C37.1864366,27.2643147 37.5139014,27.6419977 37.3560845,27.9467648 C36.5919296,29.4217785 35.307,30.6670544 34.2396761,31.9309292 C33.1345352,33.2396102 32.0374225,34.5554771 30.9430563,35.8732462 C28.7146056,38.5563382 26.5396056,41.2886748 24.4503803,44.0818802 L23.898865,44.8207618 C22.0620908,47.2873515 20.2476338,49.7929879 18.642,52.4137315 C17.802,53.7847609 17.0617183,55.20271 16.3894648,56.6629292 C15.7495352,58.05298 15.4543944,59.73089 14.6853803,61.0366121 C14.637,61.1190387 14.487,61.1122755 14.4684085,61.0080798 C14.2174225,59.6021777 14.837493,57.9088391 15.2805211,56.5923382 C15.8072113,55.0266552 16.5567887,53.5353675 17.3591831,52.0950153 C19.0328451,49.0904595 21.0381972,46.2742168 23.0528451,43.4920016 C25.0989718,40.6668822 27.2232676,37.8994614 29.4519296,35.2157354 C30.4986901,33.9551483 31.5689875,32.7197772 32.6712793,31.5087313 L33.0861549,31.0557276 C34.2407324,29.8028431 35.4043944,28.3527687 36.8682676,27.4587569 Z M31.5179789,23.0908861 C32.0412887,22.7030583 32.4879085,23.4956219 32.1541056,23.9157863 C30.1599507,26.4253597 27.8909366,28.680256 25.7085423,31.0207491 C23.6127676,33.2684595 21.6095282,35.6002873 19.7193169,38.0238411 C15.865162,42.965845 12.7800211,48.3886708 10.1670634,54.0720916 C10.117838,54.1792462 9.96276761,54.0993558 9.98600704,53.9957941 C11.370037,47.8482878 14.605765,42.2648759 18.29004,37.2201181 L18.430162,37.0288039 C22.1567113,31.9557628 26.4403732,26.8560916 31.5179789,23.0908861 Z" id="ðŸ–-Ink" fill="#000000"></path>
                    </g>
                    <g id="face/Contempt" transform="translate(112.183099, 77.354207)" fill="#000000" fill-rule="evenodd">
                        <path d="M40.2635573,46.4595714 C39.566404,47.3714777 38.3040322,48.0698562 36.89033,48.4038583 C35.5431678,48.7221397 34.0543136,48.7091524 32.7694256,48.2193733 L32.659128,48.1754345 C31.6984621,47.7762988 30.7763275,46.9703563 30.4261642,46.129284 C30.2869422,45.7948807 30.2398401,45.4550197 30.3351207,45.1378513 C30.4208286,44.8525481 30.621763,44.5899626 30.9564452,44.3643724 C31.0615177,44.2935548 31.2024603,44.2884 31.3367357,44.3120857 C31.5033452,44.3414749 31.667563,44.4194575 31.7666401,44.5247681 C32.3163583,45.1095348 33.113869,45.6796355 34.0578347,45.6699354 C34.7861635,45.6624641 35.3809587,45.3747579 35.9577472,45.0496187 L36.3630508,44.8174041 C36.7541115,44.594186 37.150702,44.3844419 37.5994116,44.2886577 C38.4026252,44.1170694 39.3768431,44.4305475 39.970527,44.9478388 C40.229394,45.1733959 40.4174622,45.4385296 40.468571,45.7240749 C40.5114959,45.9638971 40.4512146,46.2141642 40.2635573,46.4595714 Z M36.0875289,30.5120405 C37.6828906,31.482148 40.1137318,33.7442494 38.3974899,36.149264 C36.3773089,38.2698449 33.4687045,35.8384541 32.0353946,34.7388307 C30.7063626,33.8866164 29.2131206,36.0784478 30.4461973,37.0735516 C40.8033244,44.7445605 45.006466,30.7657101 36.8944406,29.3714319 C36.0012775,29.2177885 35.6695544,30.2119271 36.0875289,30.5120405 Z M18.0893662,15.6021323 L18.547699,15.4764131 L19.0150352,15.3502347 L19.3310547,15.2666457 C21.5017942,14.6982436 23.8960736,14.1980201 26.048662,14.4422419 C26.8337324,14.5314317 27.4709155,14.9733652 27.5820423,15.7961519 C27.6756338,16.4904376 27.2271127,17.3861401 26.4638028,17.5095687 C23.9355634,17.9187429 21.3473239,17.7860149 18.8074648,18.2078701 C17.5426056,18.4177409 16.2874648,18.6783358 15.0274648,18.913146 C14.0693662,19.0919483 13.0793662,19.1547194 12.1130282,19.299283 L12.3350704,19.3301401 C12.4128169,19.3407076 12.3933803,19.4715335 12.3166901,19.4662497 C11.9981778,19.4344415 11.6791802,19.4294946 11.3596974,19.4518337 L11.2227465,19.4630795 C11.0142254,19.4924571 10.8912676,19.2434865 11.0771831,19.117099 C12.2545775,18.3179836 13.253662,17.4518701 14.5719718,16.8628368 C15.7121831,16.3534826 16.8857746,15.9335295 18.0893662,15.6021323 Z M37.8511479,14.3765542 C39.520162,12.6887108 43.0694577,13.3373448 45.0549507,14.1094074 C46.1881901,14.5502841 47.2656549,15.1076149 48.1631197,15.9413918 L48.2506083,16.0234153 L48.3853808,16.1530711 C48.9911792,16.746399 49.6667347,17.5628477 49.5705845,18.4182059 C49.556007,18.548609 49.4850211,18.697611 49.3377676,18.7238184 C48.5425563,18.864789 47.7615,18.4450474 47.0271338,18.1924838 L46.5407824,18.02553 C45.8104402,17.7766582 45.0754437,17.5388734 44.3224859,17.3671609 C43.3861479,17.1541198 42.431007,17.0309025 41.4697394,17.0431609 C40.4981197,17.0558419 39.4544577,17.3301746 38.5288944,16.9442489 C37.4966408,16.5141511 36.9615,15.2764838 37.8511479,14.3765542 Z M21.362547,27.9891182 C20.9366954,28.4241509 20.3743041,28.6696052 19.6545346,28.5235896 C19.0920877,28.4095896 18.0211955,27.8438236 17.1657173,26.972537 C16.5804557,26.3764604 16.0910956,25.6316329 15.9580665,24.768803 C15.9271721,24.5684205 15.8208769,24.4399611 15.6813069,24.3590624 C15.5710778,24.2951705 15.4257461,24.2630718 15.2674461,24.2791055 C15.1330501,24.292718 14.9903375,24.3414004 14.8800597,24.4059538 C14.6702824,24.5287513 14.5844921,24.7030842 14.5670515,24.8332627 C14.3987553,26.089449 14.8837986,27.3358749 15.6398555,28.3868183 C16.6602,29.8051299 18.158616,30.844463 19.0393269,31.0877272 C20.5464662,31.5042584 22.1345422,31.1726698 23.3054028,30.1232958 C24.2417136,29.2842487 24.721633,28.1911162 25.1669193,27.0670363 L25.2527845,26.849146 C25.3529351,26.5940824 25.4523277,26.3408945 25.5576303,26.0903914 C25.7686833,25.5884261 25.7010897,25.154539 25.4964501,24.8163542 C25.2697464,24.4417067 24.8512945,24.1779863 24.3854416,24.0969878 C23.954868,24.0221233 23.4940814,24.1040089 23.1303367,24.3671179 C22.8230591,24.5893824 22.57526,24.9415475 22.4872199,25.4623088 C22.3440476,26.3090957 22.0119165,27.2806725 21.4262681,27.9217201 L21.362547,27.9891182 Z M47.2057975,23.0880004 C46.854626,22.90495 46.5798898,22.8497593 46.1903367,22.9665182 C45.9749147,23.0312491 45.7620049,23.1553092 45.5953149,23.3220644 C45.430116,23.4873279 45.3109252,23.6928463 45.2645956,23.9208402 C45.1506491,24.4835235 44.842904,25.0102315 44.4043542,25.3535936 C44.0295178,25.6470713 43.5563894,25.8026214 43.0316008,25.7148661 C42.4653137,25.6202967 41.9257878,25.2569692 41.5541977,24.8286142 C41.4507009,24.7091681 41.3658455,24.5762129 41.283796,24.4416421 L41.2347764,24.360801 C41.0516902,24.0584236 40.8737374,23.7773563 40.6212345,23.5552944 C40.525519,23.4708065 40.3812902,23.4122898 40.2415987,23.4122898 C40.1848244,23.4122898 40.1272065,23.4215317 40.0723021,23.4386501 C39.5086645,24.004582 39.4002724,24.4338994 39.4184441,24.8597252 C39.4374998,25.3062665 39.6134808,25.7583851 39.8978673,26.1802252 C40.5649681,27.1697581 41.8315691,27.9810829 42.6862814,28.1648518 C43.8568041,28.4164922 45.0192729,28.1144146 45.9512868,27.4603945 C46.9102744,26.7874463 47.6208819,25.7426307 47.8424283,24.565175 C47.8957249,24.2815948 47.8730769,23.975502 47.7651208,23.7101063 C47.6596313,23.4507747 47.4757987,23.2286621 47.2057975,23.0880004 Z" id="ðŸ–-Ink"></path>
                    </g>
                    <g id="facial-hair/*-None" transform="translate(104.577451, 109.479380)"></g>
                    <g id="accessories/Sunglasses" transform="translate(88.521127, 88.978474)" fill="#000000" fill-rule="evenodd">
                        <path d="M71.3680491,3.1702544 C76.3269356,3.1702544 79.1568052,4.23707181 80.1938017,4.32017463 L80.2249868,4.32240913 C80.6563105,4.34999802 81.0432333,4.38607581 81.4491851,4.54312029 C82.9419037,5.11824266 83.1850519,6.68444304 82.313947,7.67148884 C82.2528428,9.713916 82.521363,12.1003555 82.06065,14.1493615 C81.4923175,22.7874448 77.431531,24.2451996 75.1233146,24.7772408 C73.9644491,25.0444286 72.5909789,25.150752 71.3600147,24.8687086 C69.2600599,24.7903986 67.1839971,24.1327218 65.4077466,22.9875704 C62.9339779,21.3914466 61.0966232,18.9381571 60.5003815,16.0266798 C60.2177929,14.6388685 60.0857253,13.1943522 60.2395124,11.7836899 L60.2623077,11.5893242 C59.4582272,11.2045653 58.526441,11.131773 57.5658998,11.0978175 C57.1070897,11.0814763 56.6548341,11.066833 56.2154759,11.0863575 C55.786055,11.1343197 55.3617085,11.1981986 54.9360934,11.2852097 C54.4713632,11.4254886 54.0324278,11.6570231 53.6271104,12.0237432 L53.5992012,12.5589678 C53.5230852,13.8959681 53.3475956,15.2370007 53.0769611,16.5487466 C52.6773523,18.4842137 52.0345953,20.3326697 50.6666224,21.7055356 C50.2035836,22.3973802 49.6305996,23.014947 48.9349843,23.5497472 C46.4081459,25.4960376 42.9751046,26.21059 39.8243268,25.9414922 C33.4278375,25.3954443 29.7305048,20.3156919 28.8784289,18.1444458 L28.8275239,18.0129005 C28.2119991,16.3987184 27.7214607,14.3043319 25.7764921,13.9575126 L25.3628246,13.883161 C24.4752804,13.7164979 23.6563102,13.4844691 23.1359026,12.6181778 C22.9077661,12.2399977 22.7904207,11.8170387 22.7616658,11.3858031 C22.4580477,11.4091475 22.1548524,11.4314309 21.8527144,11.4530775 C19.4424813,11.9629946 4.98596345,12.3953444 3.83204944,12.3953444 C3.83204944,12.3953444 1.61394912,13.3292972 0.677465773,12.6056567 C0.0283657826,12.1024777 -0.185181771,11.4318553 0.172140373,10.6720996 C0.71128711,9.52898231 3.19864834,8.84138978 4.30313196,8.62367284 C4.30313196,8.62367284 22.1266578,8.77176371 23.4094972,8.52844238 C24.2032175,7.70968885 25.6229916,7.82174221 26.8093434,7.69228662 C27.7914507,6.99174089 29.1653438,6.52251745 30.2506305,6.20842848 C30.4717896,6.12460068 30.6908345,6.04353177 30.9037477,5.96713175 C32.8933343,5.25830936 34.9613627,4.88288816 37.0608946,4.68127699 C39.2259708,4.47542139 41.3973899,4.56858697 43.5497801,4.86357593 C44.4568287,4.98666485 45.3554199,5.14583155 46.247668,5.3540216 C47.8453103,5.56471853 49.4336611,5.91176412 51.0318841,6.32346342 L51.351666,6.40664408 C53.0346745,6.84806641 54.7641982,7.22985428 56.506408,6.93062088 C57.9247725,6.68859906 59.2887664,6.14252462 60.5965287,5.55202796 L60.7667874,5.47477608 C63.6422792,4.16133242 68.1329094,3.1702544 71.3680491,3.1702544 Z M46.0747157,7.97263224 C45.0137438,7.73918774 44.5606424,9.3756337 45.6249972,9.60971487 C46.378691,9.77548242 47.0174738,10.155707 47.4490469,10.7998619 L47.4944898,10.8698907 C48.0736053,11.7917843 49.5379918,10.940773 48.954859,10.0129372 C48.2987817,8.9688036 47.2792507,8.23748564 46.0747157,7.97263224 Z M77.1492677,6.95799755 C76.7752423,6.69441749 76.2092356,6.89008642 75.9920937,7.26253652 C75.7531059,7.67267317 75.9097469,8.12931765 76.260044,8.39762278 L76.2957118,8.4238168 C76.6170226,8.65036832 76.9299546,9.056466 76.969253,9.47256193 L76.972721,9.52461373 C77.0147962,10.6135262 78.7064734,10.619044 78.6641867,9.52461373 C78.6229573,8.45395236 78.0032465,7.55943548 77.1492677,6.95799755 Z" id="ðŸ–-Ink"></path>
                    </g>
                </g>
            </g>
        </g>
    </g>
</svg>