<?xml version="1.0" encoding="UTF-8"?>
<svg width="240px" height="324px" viewBox="0 0 240 324" version="1.1" xmlns="http://www.w3.org/2000/svg" xmlns:xlink="http://www.w3.org/1999/xlink">
    <!-- Generator: Sketch 62 (91390) - https://sketch.com -->
    <title>peep-29</title>
    <desc>Created with Sketch.</desc>
    <g id="Introduction" stroke="none" stroke-width="1" fill="none" fill-rule="evenodd">
        <g id="variations" transform="translate(-1086.000000, -110.000000)">
            <g id="images" transform="translate(126.000000, 110.000000)">
                <g id="a-person/bust" transform="translate(960.000000, 0.000000)">
                    <g id="body/Gym-Shirt" transform="translate(31.056338, 135.052838)" fill-rule="evenodd">
                        <path d="M11.9520451,138.193359 C11.6645099,138.202658 11.7551437,138.118752 11.8607775,138.098463 C11.8912,138.129954 11.9216226,138.161868 11.9520451,138.193359 Z M20.4418338,144.507026 C28.4757071,145.459793 36.5195099,144.588185 44.5138761,143.714251 C60.7096507,142.513148 76.7915521,146.012263 93.0192282,144.945155 C113.299228,144.090243 133.634369,142.484827 153.846975,145.190322 C159.437749,145.318823 168.354932,146.828075 166.327397,138.170322 C163.664158,115.91112 160.103454,93.7641456 156.289228,71.6763491 C153.056623,59.2935467 152.822961,37.875308 143.97127,29.264263 C142.677045,28.0821808 138.035285,24.2584313 136.808031,23.7450614 C130.706834,21.4726231 119.70782,19.6993941 115.170003,14.8822982 C111.494369,8.66056827 113.204158,0.17041563 107.488735,-4.83858633 C102.47958,-8.92990531 91.5464817,-8.06505991 86.1910592,-4.99287204 C81.9657071,-2.25208143 81.3038057,3.07140976 78.6709888,7.00823168 C78.0215521,7.95148804 76.4788956,10.2253646 75.6078392,10.9589615 C73.4874205,13.0011906 66.0399956,15.1467473 63.8892914,15.5409156 C51.7526012,18.0289313 45.7009888,19.5662434 36.1552845,27.6343295 C11.2134535,53.1073237 14.7490169,98.1608657 7.84753806,131.47094 C7.56507327,135.132795 5.33979158,140.102063 9.30993242,142.459676 C12.7292986,144.098275 16.7497212,143.919895 20.4418338,144.507026 Z" id="ðŸŽ¨-Background" fill="#FFFFFF"></path>
                        <path d="M112.387606,6.41403757 C112.417394,6.32738395 112.55662,6.31258943 112.577746,6.41403757 C112.918099,7.97147789 113.555915,9.67939961 114.202394,11.1398301 C114.859437,12.6192822 115.757324,13.9782646 116.891831,15.1322372 C119.268592,17.5500845 122.325634,18.6533331 125.678451,18.6554466 L125.758732,18.6575601 C125.774225,18.5448399 125.791596,18.4321198 125.807715,18.3193996 L125.830563,18.1503194 C126.136901,15.8339202 128.885493,15.9015523 129.422113,17.6494192 C129.694648,17.7360728 129.967183,17.8227264 130.237606,17.913607 L130.291656,17.9330564 C130.746881,18.1063979 132.288924,18.8746213 132.572113,18.6702411 C133.195352,18.2219671 133.907324,18.7357597 134.143944,19.308519 C134.530651,20.2462978 134.595271,21.4053561 134.720849,22.4227745 L134.737606,22.5546481 L134.75662,22.7131609 C143.577042,25.0065229 148.527042,33.8346247 151.053803,41.967384 C152.422817,46.3761511 153.318592,50.9244094 154.218592,55.4473057 C155.181972,60.2851139 156.069507,65.1356031 157.009437,69.9755249 C158.862254,79.5135523 160.615775,89.0731374 162.139014,98.6684407 L162.580684,101.454959 C163.976156,110.278209 165.335392,119.096352 166.478451,127.959478 C167.095352,132.738108 167.674225,137.520965 168.231972,142.308049 C168.331972,143.161764 168.431033,144.015666 168.529218,144.870194 L168.675845,146.152511 C168.80662,147.302257 169.028451,148.439321 168.460141,149.515094 C167.228451,151.84819 163.497465,151.831282 163.286197,148.843 C163.244155,148.249106 163.444648,147.794703 163.776338,147.477677 L163.771745,147.427501 C163.768474,147.397599 163.765141,147.375525 163.763873,147.365662 C163.653803,146.771768 163.624225,146.144057 163.55662,145.543611 C163.408732,144.26304 163.26507,142.982257 163.119296,141.69936 C162.83831,139.25594 162.555211,136.812942 162.261549,134.371846 C161.668099,129.419908 161.040423,124.474312 160.375141,119.532942 L159.71561,114.647152 C157.509966,98.3611269 155.211165,82.0785955 152.186197,65.9218262 C151.362254,61.5236266 150.515282,57.1317675 149.646761,52.7420219 C148.822817,48.5847616 147.897465,44.4465229 146.515775,40.4329808 C144.259437,33.8768947 140.31507,27.7371687 134.839014,23.4340767 C134.923521,24.2562294 134.984789,25.082609 135.062958,25.9047616 C135.263662,28.0161511 135.477042,30.125427 135.692535,32.2347029 C136.476338,39.8771295 137.539014,47.5068751 139.35169,54.9800102 C140.249577,58.6830787 141.343944,62.3373252 142.677042,65.9070317 C143.334085,67.6654661 144.050282,69.4006521 144.836197,71.1041354 C145.613662,72.7885973 146.976549,74.5893018 147.058732,76.4660924 C147.096761,77.3347421 146.18831,78.1061706 145.347676,78.0131765 C145.740423,81.4708673 145.962254,84.9644877 146.196761,88.4137245 C146.539014,93.4098341 146.811549,98.4148204 147.210845,103.406914 C147.92493,112.349145 148.820704,121.278695 149.758732,130.199791 C149.944648,131.96837 150.146789,133.735597 150.346766,135.502553 L150.514189,136.986182 C150.626943,137.947969 150.797279,139.100642 150.286901,139.953607 C150.743239,141.054742 151.055915,142.185466 151.237817,143.364801 C151.467887,144.831572 150.629366,146.475877 148.917887,146.412472 C148.723521,146.40592 148.529155,146.389012 148.334789,146.368088 C146.748169,146.735838 145.165775,147.059204 143.517887,147.069771 C141.413662,147.084566 139.305211,147.042296 137.200986,147.027501 C133.13007,147.000026 129.058732,146.97255 124.987606,146.938734 C110.249577,146.820378 95.5052113,146.826719 80.7692958,146.590006 L74.8733834,146.496386 C69.468338,146.409419 64.0625352,146.309192 58.6601408,146.112355 C54.9397183,145.97709 51.219507,145.839713 47.5009859,145.689654 L46.7439349,145.660797 C43.4629937,145.541213 40.1781489,145.479813 36.9333803,144.977404 C36.8520423,144.963648 36.8168603,144.879211 36.8294618,144.805 L36.8340845,144.785075 L36.6925352,144.753372 C36.6101408,145.108441 34.8988732,143.616308 34.9115493,142.625075 C34.2016901,141.701474 34.5333803,140.226249 34.6094366,139.156816 C34.6833803,138.114859 34.776338,137.070789 34.8587324,136.028832 C35.0340845,133.803314 35.1840845,131.575681 35.363662,129.350163 C36.0883099,120.376229 36.713662,111.379047 37.1192958,102.386092 C37.3242254,97.8526286 37.4890141,93.3170513 37.6622535,88.7835875 C37.74026,86.719508 37.8488691,84.6536277 38.0512244,82.5990789 L38.1038028,82.0856853 C38.3256338,80.0019828 38.304507,77.7616697 39.0714085,75.7980141 C39.0819718,75.7707499 39.1178873,75.7707499 39.1284507,75.7980141 C39.9038028,77.7088321 39.9777465,79.9301237 40.1340845,82.0267186 C40.1615493,82.0182646 40.1890141,82.0140376 40.2185915,82.0076971 C41.2897183,81.4983429 42.3714085,81.0397127 43.385493,80.4098888 C43.5228169,80.3253487 43.6559155,80.2363703 43.7911268,80.149928 C45.3861972,75.2677362 47.2347887,70.4658575 48.935493,65.6153683 C54.4305634,49.931063 57.4643662,33.227838 58.1361972,16.6201432 C53.9446479,19.3233775 49.3796225,21.4264314 44.9419787,23.6847396 L44.526338,23.8969339 C40.1552113,26.13302 35.97,28.671337 32.8580282,32.5496149 C30.1453521,35.9269926 28.3728169,40.0419828 26.7143662,44.0090278 C24.9333803,48.2719632 23.3277465,52.6109847 21.8594366,56.9901628 C18.8805634,65.8753292 16.5735211,74.9781863 14.7735211,84.1740376 C12.9967606,93.2494192 11.7270423,102.392222 10.8777465,111.598852 C10.4446479,116.295055 10.0495775,120.995486 9.71788732,125.702257 C9.54887324,128.084175 9.39887324,130.468206 9.25943662,132.854351 C9.19183099,134.01255 9.14112676,135.172863 9.06507042,136.331063 C9.01859155,136.99893 9.01014085,137.687721 8.79042254,138.321771 C8.60661972,138.850147 8.28126761,139.292081 7.97704225,139.759165 C7.42140845,140.610906 6.01859155,140.765192 5.49676056,139.759165 L5.27080563,139.323445 C4.97171831,138.743162 4.69859155,138.15882 4.65802817,137.489263 C4.62,136.855212 4.69816901,136.193685 4.73408451,135.55731 C4.80380282,134.270398 4.88408451,132.981161 4.9643662,131.694038 C5.13338028,128.98664 5.32140845,126.279243 5.53267606,123.573959 C5.95309859,118.154938 6.49394366,112.750711 7.17422535,107.357051 C9.56788732,88.4137245 13.0242254,69.5697323 19.62,51.5922763 C21.2509859,47.1475796 23.07,42.7386012 25.1235211,38.4716501 C27.1094366,34.3460924 29.6214085,30.4509065 33.2678873,27.6103585 C36.624507,24.9950254 40.5262986,23.2445175 44.403168,21.5454316 L44.8876056,21.3332548 C49.2333803,19.4332157 53.5707042,17.3873448 58.1087324,15.9755249 C58.0073239,15.9882059 57.9080282,16.0008869 57.8216197,16.0304759 C57.7221127,16.0621785 57.663169,15.9332548 57.7244366,15.8635092 C57.9819718,15.5781863 58.0897183,15.2844094 58.3857042,15.0033135 C58.5900423,14.8088712 58.8026282,14.6252501 59.0212986,14.4481216 L59.3359821,14.1975946 C59.9116976,13.7404126 60.5170394,13.2732845 61.241831,13.1138419 C62.2666901,12.8898106 62.769507,13.8218654 62.4819718,14.5510239 C62.6298592,14.3586951 63.0270423,14.4157597 63.1305634,14.6799476 C66.5023944,23.3791256 68.7164789,32.5876579 73.254507,40.8070708 C76.6052113,46.8791648 81.1009859,52.4862881 87.0671831,56.1532157 C90.2721127,58.1230004 93.9399296,59.6362685 97.7277465,59.8750943 C101.129155,60.0885581 104.40169,59.2239241 107.294155,57.4382254 C112.901197,53.9784211 116.562465,47.9042137 119.173521,42.018108 C122.044648,35.538108 124.093944,28.6332939 125.298169,21.6333722 C121.482676,21.6862098 117.455915,19.9446834 114.918592,17.1062489 C113.58338,15.6120023 112.58831,13.7922763 112.08338,11.8520806 C111.574225,9.89497691 111.736901,8.28660117 112.387606,6.41403757 Z M80.3783873,1.33099961 C80.8433873,0.500392955 81.8743732,0.225637573 82.717331,0.563798043 C83.6530352,0.940001566 83.9342324,1.84880783 83.8011338,2.77240861 C83.6466972,3.85452211 82.9516268,5.02350059 82.410993,5.96802505 C81.8447958,6.95714442 81.1159225,7.86827554 80.3614859,8.71980587 C78.9419789,10.3260681 77.4227535,11.7738176 75.6208521,12.9575906 C73.8271901,14.1346004 71.7988099,15.0159311 69.7138099,15.5083773 L69.2181039,15.6240945 C67.5961608,15.995099 65.2885645,16.420122 63.9375423,15.5381777 C63.8722606,15.4956963 63.874162,15.4090427 63.9375423,15.3667726 C64.6685282,14.8574184 65.6469085,14.7665378 66.4875423,14.5258098 C67.4044437,14.2616219 68.323669,13.9615045 69.2002183,13.5850896 C70.9307113,12.8411366 72.5870493,11.8604712 74.0614859,10.6895906 C75.5426831,9.51469432 76.9748662,8.11344188 77.9659225,6.49640078 C78.4645141,5.68502701 78.889162,4.83307397 79.2966972,3.97520313 C79.7088803,3.11479609 79.9157113,2.15949276 80.3783873,1.33099961 Z" id="ðŸ–-Ink" fill="#000000"></path>
                    </g>
                    <g id="head/Medium-3" transform="translate(78.591549, 38.043053)" fill-rule="evenodd">
                        <path d="M83.2693732,44.2013143 C83.4996549,42.0613926 80.9956479,36.3525252 81.0560704,37.5105135 C77.0415634,31.3181613 69.2071268,28.8829832 62.4476197,26.8388031 C48.0981127,22.0999068 36.8929014,27.8230614 26.8107887,37.9663961 C20.8585352,43.5285018 15.1948732,49.7415663 12.2069155,57.4412689 C6.3288169,72.1296916 15.1397324,88.8783569 28.5389577,95.8951867 C29.6202254,96.480627 30.7984648,97.0364783 31.8281831,97.7436564 C37.3671972,100.944979 43.871493,102.052455 50.0436761,103.445887 C61.5907183,106.086286 76.0927606,104.827907 82.8976901,93.830083 C87.5132535,86.0249166 86.2870563,76.5629753 85.9257887,67.9009949 C85.3830423,60.3116172 84.4302887,51.7351068 83.2693732,44.2013143 Z" id="ðŸŽ¨-Background" fill="#FFFFFF"></path>
                        <path d="M21.5481761,22.5412908 C29.029162,15.5451734 40.0862746,12.1542693 50.1958521,12.7473182 C55.6712746,13.0685706 60.9483169,14.4410795 65.8966268,16.7991147 C67.444162,17.5365159 68.9521901,18.3996705 70.3427535,19.416054 C71.2807817,19.8539718 72.1978944,20.3278192 73.0862746,20.8430912 C77.5355704,23.4215648 80.975007,27.3271068 83.1764155,31.9599053 C84.2273015,34.1711066 85.0565873,36.5028502 85.5262196,38.905333 L85.6018043,39.3008254 C85.8414646,40.506411 86.3151479,42.0948035 85.7158521,43.2229738 C85.318669,43.9709425 84.4862746,44.442465 83.6982465,44.3790599 C83.8693732,45.0722888 84.0743028,45.7653065 84.2052887,46.4629738 L84.5620962,48.3651264 C84.6212512,48.6821519 84.6799366,48.9991773 84.7376831,49.3162027 C85.0820493,51.2056744 85.3989507,53.0928211 85.6524718,54.9970873 C86.1827535,58.9622301 86.662331,62.9356157 87.0848662,66.9153417 C87.3876831,69.7615256 87.6714272,72.610645 87.9471021,75.4590305 L88.1116268,77.1679444 C88.3947254,80.1097292 88.6165563,83.0772986 88.4240915,86.0319757 C88.1344437,90.4642027 86.7717676,94.5079679 84.1269085,97.7976352 C84.3789507,98.4039992 84.4638803,99.0866607 84.6535986,99.8405472 C84.9162042,100.883772 85.2582465,101.905228 85.6222606,102.917807 C85.7925423,103.31578 85.9632465,103.713964 86.1320493,104.112993 L86.5759225,105.169956 L86.5759225,105.169956 L86.9222898,105.862937 C87.2975388,106.616881 87.6605207,107.381737 87.8910634,108.162042 C89.3855704,108.960312 90.6060634,110.262653 90.6658521,112.047083 C90.718669,113.659686 89.8820493,115.367396 88.468669,116.189338 C87.0740915,117.001557 85.6383169,116.681784 84.3028944,116.061682 C83.1385986,116.400688 81.892331,116.443592 80.7390211,116.081549 C79.8510634,116.885526 78.7057817,117.440743 77.4362746,117.59059 C75.5223342,117.817998 73.7052451,117.282 71.9495135,116.577152 L71.8271197,116.52771 C71.7721901,116.506363 71.7172606,116.483115 71.6644437,116.460077 C69.6447254,116.362856 67.6334577,115.563741 66.2008521,114.147905 C65.734162,113.689275 65.3306408,113.165126 65.0052887,112.577573 C63.8240915,110.44061 63.6405,107.817753 64.8024718,105.698121 C64.5531761,105.708688 64.3017676,105.719044 64.0524718,105.725596 C60.728222,105.82041 57.3981733,105.650691 54.0824789,105.432108 L53.3007227,105.379046 C51.1551549,105.224463 47.9908521,104.860645 47.9306408,102.200273 C47.9219789,101.859999 48.2728944,101.604265 48.5940211,101.695146 C49.8130352,102.039436 51.0109225,102.580704 52.2743028,102.775146 C53.9264155,103.03088 55.6374718,103.058355 57.3066972,103.15135 L57.7866792,103.178076 C61.1525228,103.362276 64.6390275,103.474619 67.9503592,102.806849 C70.4219789,102.310175 72.9975423,101.405385 75.262331,100.285228 C77.4362746,99.207553 79.4116268,97.7978466 81.0045845,95.9569855 C84.5137394,91.9075139 84.9785282,86.1947155 84.8074014,81.0715843 C84.6003592,74.952782 83.881838,68.8428564 83.4764155,62.7327194 L83.2929391,59.9877535 C83.1416641,57.6987004 83.0034779,55.4064124 82.9461338,53.116281 C82.9038803,51.4445002 82.9311338,49.7684924 82.9395845,48.0967115 C82.9438099,47.2618779 82.9334577,46.4228172 82.9524718,45.5879836 C82.9630352,45.1187859 83.0179648,44.6601558 83.0581056,44.2013143 C82.8721901,44.1043045 82.6989507,43.968829 82.5426127,43.7893926 C82.4200775,43.6477879 82.325007,43.4977292 82.2595141,43.3455569 C81.4714859,43.1149738 81.105993,42.8085159 80.5947254,42.1133847 C80.1637394,41.5279444 79.6757113,40.9868877 79.1538803,40.479647 C78.0426127,39.4017605 76.7728944,38.5204297 75.4311338,37.7530168 C72.6574014,36.1659875 69.6193732,35.105009 66.555993,34.2342458 C61.8656408,32.9027389 56.9940211,32.217964 52.234162,31.1483202 C50.9221901,32.9786137 49.5320493,34.7541675 48.0785282,36.4724454 C43.5424014,41.8322888 38.3412042,46.6107076 32.7677535,50.8717409 C31.6334577,51.7403906 30.4839507,52.5963593 29.3179648,53.4267546 C27.7817852,55.7698368 26.2294305,58.1017537 24.6538239,60.4179746 L23.9771197,61.4096665 L23.9665563,61.4286881 C23.8735986,61.5702928 23.7846549,61.7118975 23.6961338,61.8535022 C23.5081056,62.1536196 23.296838,62.4431695 23.0728944,62.7242654 C22.9271197,62.9375178 22.7792324,63.1509816 22.6292324,63.3646568 C22.9165563,63.5187311 23.1785282,63.6922497 23.3834577,63.8845785 C23.8017676,64.2795922 23.731838,64.9075139 23.3834577,65.3090795 C22.2595141,66.6067703 20.4806408,64.9159679 19.1876831,64.4657918 C17.7869789,64.892508 16.618669,66.5602732 16.0376831,67.8345041 C15.2010634,69.6713495 14.8651479,71.8860892 15.2433169,73.8748955 C15.5895845,75.692508 16.5235986,77.2630521 18.0764155,78.2479444 C18.1313451,78.2815491 18.1902887,78.31769 18.2475423,78.3491812 C18.2496549,78.3536196 18.2496549,78.3536196 18.2517676,78.3512947 C18.3045845,78.3851108 18.3595141,78.4170247 18.4144437,78.4466137 C19.1433169,78.8481793 19.9440211,79.0848916 20.7740915,79.1417448 C21.2494437,79.1757722 21.7461338,79.1501988 22.2214859,79.2074748 C22.7095141,79.264328 23.1109225,79.4885706 23.5799366,79.6069268 C24.0975423,79.7398661 24.4313451,80.43542 24.1057817,80.9022928 C23.9454296,81.1326646 23.7933169,81.3526802 23.6304296,81.549236 C24.1651479,82.1790599 24.6297254,82.8744023 25.0503592,83.5357174 C25.6247958,84.4424102 26.134162,85.4042654 26.5989507,86.3849307 C27.0278239,86.949236 27.4376831,87.5241088 27.8348662,88.1116626 C30.0848662,91.4467703 31.8066972,95.1623084 32.8651479,99.044602 C33.9130352,102.884837 34.5679648,107.198496 33.5982465,111.119256 C32.7045845,114.724892 30.0954296,117.711271 26.2334577,117.9036 C25.4274718,117.943334 24.6347958,117.853299 23.8894437,117.6485 C22.2521197,118.660234 20.2231056,119.169166 18.4072606,119.228555 C16.9381056,119.276743 15.3299366,118.967326 14.1301479,118.078598 C12.706838,118.698277 11.1628944,119.049964 9.82028873,119.130066 C8.31796479,119.219678 6.74571127,118.810081 5.52099296,117.998919 C4.35564085,118.997549 3.09817606,119.840414 1.66937324,120.418668 C-0.787669014,121.411804 -3.71161268,121.28922 -5.96161268,119.803639 C-8.21583803,118.315733 -9.36302113,115.644265 -8.67428873,112.993721 C-8.04048592,110.550723 -6.04823239,108.758473 -4.17640141,107.215404 L-3.80655209,106.912173 C-1.95504632,105.400323 -0.0852042254,103.937176 1.10317606,101.807162 C2.36444366,99.547827 2.82500704,96.9228564 2.94965493,94.3655178 C3.22007746,88.735146 2.07500704,83.1554982 1.72641549,77.5547155 C1.36726056,71.7700579 1.56796479,65.968281 2.35599296,60.2258935 C3.8876831,49.0710364 7.91866901,38.1357722 15.2116268,29.4406098 C16.2666972,28.1824415 17.3961338,26.9832399 18.5864155,25.846598 C19.4961338,24.6562732 20.4793732,23.540555 21.5481761,22.5412908 Z M118.557275,86.2327162 C118.597415,86.2348297 118.635444,86.2369432 118.671359,86.2517378 C118.695444,86.2618826 118.715725,86.2781143 118.734486,86.2958677 L118.912204,86.4736556 C118.975585,86.5370607 118.971359,86.6342818 118.912204,86.6976869 C118.860348,86.7553279 118.766587,86.7570746 118.705524,86.7124544 L118.688261,86.6976869 L118.504221,86.5134469 C118.484092,86.4916457 118.466852,86.4680337 118.457979,86.437726 C118.449528,86.408137 118.449528,86.3743209 118.447415,86.3426184 C118.445303,86.2855538 118.500232,86.2327162 118.557275,86.2327162 Z M19.4347817,68.9654395 C21.1291479,68.451647 23.1615423,69.673463 24.1714014,70.9626998 C24.6784437,71.6094317 24.8221056,72.4949894 24.1714014,73.1311538 C23.6178803,73.6722106 22.5361901,73.7713339 22.0016831,73.1311538 C21.3953451,72.4019953 20.9009789,71.3915295 20.0347817,70.9246568 C19.0946408,70.417416 17.8354859,70.5442262 17.6136549,71.7804141 C17.5756268,71.9898622 17.2756268,71.9199053 17.2629507,71.7320149 C17.1805563,70.4808211 18.2770352,69.3139562 19.4347817,68.9654395 Z" id="ðŸ–-Ink" fill="#000000"></path>
                    </g>
                    <g id="face/Smiling" transform="translate(112.183099, 77.354207)" fill="#000000" fill-rule="evenodd">
                        <path d="M30.968993,50.9198978 C29.548794,50.3403012 28.2816173,49.3734958 27.3551889,48.1384646 C27.0331038,47.7091169 26.9495926,47.2557326 27.017159,46.8410547 C27.0931327,46.3747786 27.3688808,45.9521824 27.7449394,45.6687178 C28.1221628,45.3843752 28.5940214,45.2441445 29.0502103,45.3156301 C29.4466117,45.3777469 29.8412104,45.5948709 30.1535058,46.0451781 L30.2187521,46.1352289 C30.7695298,46.8806513 31.4872438,47.4922614 32.3050288,47.8864795 C33.0932406,48.2664417 33.9747757,48.4437847 34.8870208,48.3406561 C36.6244504,48.1443157 37.8219743,47.2043274 39.0948115,45.9278391 C39.2525834,45.7666792 39.4104563,45.6004672 39.5690946,45.4315797 C39.6692778,45.278484 39.8083069,45.1800892 39.962667,45.1284632 C40.1340565,45.0711416 40.327938,45.0743848 40.5055187,45.1363808 C40.6767961,45.1961763 40.8299095,45.309486 40.9325762,45.4602937 C41.0301525,45.6036243 41.0854754,45.7806897 41.0675245,45.9843589 C40.9510195,47.3072301 40.2596776,48.4878363 39.2776553,49.4148615 C38.1869942,50.4444414 36.7412431,51.1567117 35.3801317,51.4065272 C33.8805866,51.6817086 32.3525901,51.4845569 30.968993,50.9198978 L30.968993,50.9198978 Z M36.0875289,30.5120405 C37.6828906,31.482148 40.1137318,33.7442494 38.3974899,36.149264 C36.3773089,38.2698449 33.4687045,35.8384541 32.0353946,34.7388307 C30.7063626,33.8866164 29.2131206,36.0784478 30.4461973,37.0735516 C40.8033244,44.7445605 45.006466,30.7657101 36.8944406,29.3714319 C36.0012775,29.2177885 35.6695544,30.2119271 36.0875289,30.5120405 Z M17.5274577,21.5886716 C17.7037243,19.3998697 21.0359789,18.9028321 21.3674577,21.0687499 C21.6642887,23.0089456 21.3148521,24.7912626 20.4412606,26.5380728 C19.6065423,28.2068947 17.5085456,27.4283107 17.3498837,25.9087021 C17.1372039,23.8717299 17.4178099,22.9502317 17.5274577,21.5886716 Z M42.8930282,20.6196517 C43.3576056,20.0109628 44.0283803,19.5954481 44.8320423,19.8302583 C47.3429577,20.5642779 46.6028873,24.1303914 45.7210563,25.8662114 C45.2419014,26.8088337 43.6930986,27.0478708 42.993169,26.2178982 C41.8523239,24.864411 41.3059859,22.1614521 42.756338,20.8282544 C42.7956338,20.7593542 42.8393662,20.68982 42.8930282,20.6196517 Z M20.4058944,12.0111429 L20.802522,11.9416942 C22.0295218,11.7294045 23.5551549,11.5254176 24.4231479,12.5122544 C24.8835,13.0355577 25.0419507,14.0081918 24.4231479,14.509092 C23.3346972,15.3904227 22.1313169,15.0488806 20.8269507,15.1234873 C19.7520211,15.1852016 18.7189225,15.3631585 17.6835,15.6592603 C15.4119507,16.3087397 13.5610352,17.4944149 11.6209648,18.7963327 C11.3663873,18.9671037 11.1065282,18.6414129 11.228007,18.4032211 C12.3479366,16.208771 14.5182887,14.4061644 16.6922324,13.3073542 C17.8525141,12.7208571 19.1222324,12.2343288 20.4058944,12.0111429 Z M40.6041287,11.0281289 L40.9077055,11.0902829 C44.2113469,11.7811043 48.5035506,13.1610768 50.0679842,16.4073021 C50.1275964,16.8663298 50.0646105,16.9647086 50.0133917,17.0289838 L49.9963385,17.0503723 C49.9541341,17.1052595 49.9204583,17.1809212 49.7215736,17.2433957 C49.6663832,17.2302408 49.6106433,17.216308 49.5543131,17.2015401 C48.8372041,17.0135386 48.2698321,16.7545401 47.720556,16.4857982 L47.1250012,16.192275 C46.4340388,15.8533498 45.7369757,15.5267598 44.9982488,15.2856588 C43.4217423,14.7712438 41.8001698,14.4088706 40.1534741,14.2153715 C39.7965654,14.1734678 39.4528848,14.0529641 39.1817455,13.8464404 C38.92438,13.6504079 38.7277692,13.3789964 38.6381257,13.0182314 C38.5219478,12.5513438 38.5553348,12.1978716 38.8057421,11.7766707 C38.9940329,11.4603578 39.263447,11.2411116 39.5728025,11.115213 C39.888177,10.9868648 40.2472278,10.9566068 40.6041287,11.0281289 Z" id="ðŸ–-Ink"></path>
                    </g>
                    <g id="facial-hair/Moustache-5" transform="translate(104.577451, 109.479380)" fill="#000000" fill-rule="evenodd">
                        <path d="M62.1955141,6.91588885 C61.9138944,6.07429198 60.4648099,6.14763053 60.5539648,7.13822935 C60.656007,8.27001018 60.2687535,9.53219413 59.1849507,10.0817049 C58.0500211,10.6570004 56.7731197,10.1398262 56.0807958,9.15282035 C55.4788944,8.29494951 55.0637535,7.36183796 54.3063592,6.61365793 C53.6022042,5.91789276 52.7457254,5.38127436 51.8087535,5.06276947 C51.0790352,4.81485558 50.3220634,4.74891429 49.5879085,4.83028415 C47.758331,4.41667162 45.6384718,5.35739178 44.4982606,6.78442896 C44.4247394,6.87636634 44.3565,6.97083992 44.2905845,7.0661589 C44.1775563,6.91229589 44.0592465,6.75991233 43.9339648,6.60964227 C43.6109366,6.22244853 43.2099507,6.13938787 42.847838,6.24485166 C40.7856549,4.71065988 37.8957254,4.5073409 35.5536127,5.89189667 C33.6771338,7.00127436 32.1249507,8.63628023 29.8174859,8.76351311 C27.9898099,8.8643272 25.9990352,7.82110215 25.870162,5.81179491 C25.8025563,4.76265205 24.3735423,3.88808454 23.5717817,4.85945049 C21.8862887,6.90193973 21.5491056,9.61504344 22.4816408,12.0846716 C23.4657254,14.6904094 25.4706549,16.5259867 28.0092465,17.6057753 C30.7506549,18.7717949 33.9631901,19.1767421 36.9287535,19.084382 C39.8852324,18.9922333 42.5734014,17.8549573 44.3554437,15.4356305 C44.5681901,15.146926 44.755162,14.8535718 44.9191056,14.556836 C46.6493873,16.7607969 49.3616408,17.6871452 52.1241761,17.7537205 C55.0143169,17.8230434 58.4309366,17.3155914 60.4743169,15.0702059 C62.4435423,12.9059789 63.1231901,9.68753659 62.1955141,6.91588885" id="ðŸ–-Ink"></path>
                    </g>
                    <g id="accessories/*-None" transform="translate(88.521127, 88.978474)"></g>
                </g>
            </g>
        </g>
    </g>
</svg>