<?xml version="1.0" encoding="UTF-8"?>
<svg width="240px" height="324px" viewBox="0 0 240 324" version="1.1" xmlns="http://www.w3.org/2000/svg" xmlns:xlink="http://www.w3.org/1999/xlink">
    <!-- Generator: Sketch 62 (91390) - https://sketch.com -->
    <title>peep-44</title>
    <desc>Created with Sketch.</desc>
    <g id="Introduction" stroke="none" stroke-width="1" fill="none" fill-rule="evenodd">
        <g id="variations" transform="translate(-1566.000000, -434.000000)">
            <g id="images" transform="translate(126.000000, 110.000000)">
                <g id="a-person/bust" transform="translate(1440.000000, 324.000000)">
                    <g id="body/Whatever" transform="translate(31.056338, 135.052838)" fill-rule="evenodd">
                        <path d="M214.857423,59.8874148 C217.021437,58.7574195 219.134324,57.5296423 221.213831,56.2517043 C222.678549,55.3752648 221.381789,53.1675516 219.879887,53.9652576 C219.11193,54.3733173 218.34693,54.7853984 217.579183,55.1909183 C218.183408,54.6702612 218.743479,54.1034645 219.245662,53.4856604 L219.211014,53.4511616 C221.14707,51.7158495 218.660239,48.4416359 216.458408,49.8670935 C214.516648,51.2751958 212.557141,52.7118708 210.328268,53.6391061 C205.711648,55.5974965 200.619465,55.9215315 195.664394,55.9780418 C193.851085,55.8417397 192.119113,56.1560388 190.359676,56.5063183 C191.049465,53.7379463 192.775732,51.6474868 193.691366,48.9663144 C194.367,46.2593207 190.461085,44.4154326 189.076859,47.0174482 C188.737141,47.6564173 188.413268,48.302794 188.096577,48.9523455 C185.104606,51.6747896 180.108549,51.434991 177.091014,54.3580786 C175.372256,55.8841834 174.531021,57.9549368 174.198825,60.0331862 C173.97324,61.4444635 174.323926,62.8591975 173.470944,64.109182 C169.347211,69.9441398 162.831352,79.1669667 159.522267,85.5884045 C157.179309,70.3293414 150.923408,51.4557326 144.460521,37.5031802 C142.323338,33.0409795 139.878338,28.6807936 136.668761,24.8984102 C137.032563,23.6369807 135.748479,21.3979435 134.93193,22.0872851 C132.418479,19.0156197 127.975521,18.2204536 124.402986,16.6934043 C119.58038,14.6304593 115.579183,10.3424458 113.612282,5.46879891 C111.085099,-3.81201996 104.863901,-4.99090619 96.2359437,-4.58072997 C87.9787606,-4.59110079 81.8695352,-1.05804014 80.0678451,7.3507839 C76.4076338,13.7330665 67.7655211,12.6775718 61.5481268,14.3671676 C56.991507,15.4084819 52.5694648,17.0184976 48.3669296,19.0623942 C43.6917887,14.6260146 26.9477746,33.2447977 25.4258028,38.0365363 C26.3217887,38.2103003 27.2122817,38.4194098 28.0947465,38.6742355 C28.880662,38.9015467 28.550662,40.0891106 27.7579859,39.8990496 C26.7715775,39.6620024 25.778831,39.4988209 24.7814366,39.3855885 C24.7510141,39.4810423 24.7243944,39.5758612 24.7045352,39.6696218 C24.5925634,39.6620024 24.4808028,39.6524782 24.368831,39.6448588 C24.6170704,39.7741765 24.8560141,39.9242358 25.088831,40.1176832 C25.6516479,40.5852164 24.9189718,41.4874771 24.3208732,41.1149744 C23.7574225,40.6931575 23.0194648,40.759827 22.3436197,40.6182337 C22.3034789,42.0085575 17.3443944,40.4531473 16.5741127,39.9923869 C13.1505211,39.5640088 9.62847887,40.023711 6.43242254,38.3720003 C2.1798169,37.4760891 -2.10469014,36.4853591 -6.3095493,35.3443581 C-7.42271831,35.7784506 -8.46891549,37.331956 -7.58476056,38.4718988 C-7.08743662,38.9906511 -7.72673239,39.8376713 -8.35292958,39.4689783 C-10.4531408,38.2323119 -12.0773662,36.3018592 -13.4544085,34.2221938 C-14.1025775,33.5679861 -15.2531408,33.7087328 -16.1239859,33.4371868 C-16.2403944,33.6465079 -16.3090563,33.8797454 -16.308,34.118909 C-20.0020141,34.7271889 -17.3668732,38.7633398 -15.509831,40.0209595 C-16.4949718,40.66268 -16.5323662,41.9192415 -16.446169,42.9685984 C-16.6549014,43.3423709 -16.7246197,43.8056711 -16.5429296,44.2245249 C-15.8482817,45.825863 -14.3459577,47.174492 -13.2036338,48.4719018 C-11.9423662,49.9047671 -10.8177887,51.3454634 -9.28314085,52.5069944 C-3.43356338,56.9677136 3.62552113,59.4615765 10.8673521,60.4368562 C13.4386901,60.8320053 17.1373521,61.4366872 18.7294648,63.6118063 C18.338831,66.193292 17.6215775,68.6689531 16.9708732,71.1863091 C16.0609437,74.5276155 16.1228451,78.0257541 16.1108028,81.4322485 C15.9836197,81.3300219 15.7393944,81.3511868 15.7030563,81.5459041 C15.4913662,82.9580278 15.3339718,84.4018989 14.4760141,85.5884045 C13.7239014,87.7948477 13.2234085,90.1481755 12.9422113,92.4661579 C11.8157324,103.455409 11.5467887,114.768696 14.0866479,125.586723 C15.0667183,129.600016 16.6607324,133.414147 18.8325634,136.926254 C19.4800986,137.973706 20.5212254,138.280598 21.4560845,138.074874 C24.5849577,139.700976 28.5265775,140.222268 31.8990423,139.809128 C43.3964366,136.553117 39.3903803,144.393662 55.5107324,141.992713 C83.3361549,138.446742 111.456718,145.415082 139.222986,141.323902 C139.906859,146.608148 148.859113,145.092316 151.968761,142.858359 C161.292845,135.924095 165.922563,113.969932 170.60193,102.832737 C173.818479,94.0545854 179.204535,78.5068328 186.258127,72.616423 C188.373127,70.9615376 190.929676,70.0903894 193.487704,69.387079 C203.034465,66.9260217 212.617986,64.5987267 222.182915,62.2060321 C223.805028,61.8064384 223.513479,59.038913 221.778972,59.2164867 C219.477,59.4520523 217.167211,59.6653947 214.857423,59.8874148 Z" id="ðŸŽ¨-Background" fill="#FFFFFF"></path>
                        <path d="M2.33340845,58.2413354 C1.68692958,58.161128 1.05312676,57.9307562 0.423549296,57.7489949 C-0.53771831,57.467899 -1.47997183,57.1403061 -2.40743662,56.766216 C-4.32152113,55.9992258 -6.17856338,55.0923217 -7.91940845,53.9827327 C-10.7313803,52.1883687 -13.2158873,49.8888775 -15.089831,47.1201886 L-15.2184848,46.927094 C-16.2883099,45.2969052 -18.2617183,41.6770732 -16.0489859,40.4394059 C-17.4751056,39.2473268 -18.822993,37.1063483 -18.7469366,35.453589 C-18.6391901,33.1160548 -15.7744014,33.1479687 -14.2934155,34.1389902 C-13.3236972,34.7878356 -12.5969366,35.6966419 -11.8680634,36.590865 C-11.0610211,37.584 -10.1990493,38.5308493 -9.30327465,39.4417691 C-9.06559859,39.6827084 -8.82554577,39.9188924 -8.58133363,40.1512126 L-8.33569014,40.3822568 C-8.37369718,40.2914818 -8.4075,40.1984877 -8.43707746,40.1031687 C-8.93144366,38.5626364 -8.34200704,36.5569221 -6.8018662,35.8510121 C-5.85935503,35.418775 -4.88052369,35.6826284 -3.96719921,36.0495615 L-3.82721831,36.106746 C-2.59764085,36.6158888 -1.35327465,37.0662763 -0.0729929577,37.4276853 C5.1453169,38.9007969 10.5917958,39.1459632 15.9389789,39.8814622 C17.998838,40.1667851 20.0967254,40.5258693 22.1460211,41.054245 C22.927669,37.7339953 24.8438662,34.5512712 26.9227394,31.9326411 C36.877669,19.4056978 53.2952746,15.2655569 68.3142887,12.5856352 C69.6833028,12.3425824 70.8178944,14.1558834 71.6143732,13.7268423 C73.1249366,12.9152571 74.4538099,11.7655115 75.620007,10.5164313 C78.1066268,7.85130411 79.8707113,4.71697926 81.9432465,1.74750763 C82.9678944,0.280736595 85.3256408,1.59322192 84.3749366,3.1677816 L83.9092,3.93729014 C81.9915688,7.08931294 79.8680405,10.3376609 77.1178944,12.7821065 C75.6559225,14.0797973 74.0333873,15.1048462 72.1784577,15.7450262 C70.7735282,16.2292297 68.8024014,16.6371358 67.2643732,16.1677268 L67.0797879,15.8987562 C67.1408568,15.9886967 67.2023592,16.0784031 67.264331,16.1678748 C71.2783732,21.9863272 76.314993,26.910789 81.6220352,31.558382 C86.9788681,36.2469312 92.7577053,40.4454837 98.5712997,44.5505878 L99.055838,44.892472 C108.5269,37.9815761 116.527559,28.9673509 122.140934,18.6683392 C120.964373,18.5265652 119.800289,17.772256 118.794655,17.2098528 C117.584092,16.5295162 116.445359,15.7177198 115.558035,14.6356063 C113.624937,12.2790505 113.876345,9.24194677 113.527754,6.3823773 C113.506627,6.20484305 113.741134,6.16045949 113.84888,6.24922661 C114.896768,7.11998982 115.264373,8.54660431 115.701697,9.77877652 C116.183387,11.1335319 116.728458,12.2496728 117.833387,13.2026513 C118.862261,14.0905339 120.11719,14.7433949 121.336204,15.3246082 C121.964861,15.6228298 125.08559,16.3892302 125.44107,17.0239703 C130.832683,15.7579397 136.084796,17.9454153 140.079866,21.6355914 C143.939725,25.2010708 146.772824,29.8359828 149.274232,34.4117166 C151.942542,39.2939084 154.129162,44.3830121 156.013669,49.6139319 C157.923528,54.9232626 159.387613,60.3486247 160.192542,65.9367264 C160.871979,70.6479781 161.288565,75.4332463 161.558188,80.1971666 L161.591134,80.7925386 C165.579803,74.5301871 169.667831,68.3333965 173.840366,62.1915569 C172.891775,59.6574669 173.941775,57.0705393 175.718535,55.1134356 C177.687549,52.9470951 180.410789,51.9410677 183.015718,50.7701871 L183.358114,50.6152458 C184.613635,50.0423202 185.865014,49.4113808 186.949521,48.5531225 C187.993183,47.7246294 188.760085,46.5833378 189.858676,45.8203632 C191.455859,44.7086607 194.354451,44.945373 194.428394,47.3737879 C194.466423,48.7076196 193.893887,50.1699523 193.369944,51.3683084 C192.776282,52.7232751 191.975577,53.951009 191.024873,55.0796196 C190.98093,55.1322035 190.93293,55.1736958 190.884118,55.2065853 L190.84743,55.2296783 C192.161514,55.4473691 193.486162,55.6227898 194.836162,55.6840814 C197.559401,55.8087781 200.312218,55.6079953 202.978415,55.0331225 C205.707993,54.4455687 208.353063,53.4904767 210.807993,52.1587585 C212.90588,51.0216939 214.849542,49.5506959 217.232641,49.2040814 C217.452338,49.1703076 217.674169,49.1491726 217.902338,49.1364916 C218.28262,49.1153566 218.662901,49.5634192 218.512901,49.9394114 C218.430507,50.146746 218.343887,50.3517558 218.248817,50.5588791 C217.424894,52.3742671 216.161119,54.1354611 214.584793,55.4721773 L214.462923,55.5741581 C215.018599,55.3818716 215.565782,55.1662943 216.104514,54.9232415 C219.271415,53.496627 222.144655,51.340854 225.539725,50.4743178 C225.700289,50.4320266 225.862965,50.3939836 226.025641,50.358054 C227.075641,50.1319092 227.629162,51.2732008 227.012261,52.0551969 C226.912965,52.182007 226.813669,52.3067037 226.710148,52.4314004 C225.195359,54.3123546 223.524232,56.058108 221.681979,57.6263272 C221.050289,58.1631569 220.399585,58.6830787 219.736204,59.1799632 C219.456648,59.3904936 219.175532,59.5964696 218.891516,59.7991052 L218.751634,59.8983429 C219.083324,59.6639554 219.410789,59.4251295 219.736141,59.1799632 C221.815014,58.549928 223.86431,57.8038614 225.869239,56.9776932 C226.665718,56.6498888 227.284732,57.457247 227.369239,58.1208869 C227.652338,60.3445033 225.184732,61.9528791 223.579099,63.0221002 C221.969239,64.095971 220.196704,64.9117832 218.381915,65.5667577 C214.89261,66.8282683 211.227776,67.4011266 207.568682,67.9144971 L205.791469,68.1621294 C198.756932,69.1461563 191.409613,70.3226254 186.362197,75.7984368 C183.533324,78.8670317 181.619239,82.679791 179.867831,86.4312587 C178.118535,90.1787108 176.58262,94.0252861 175.124873,97.8929965 C173.61431,101.89576 172.298113,105.972707 170.899521,110.015838 C169.615014,113.728312 168.080731,117.39329 166.561129,121.021102 L166.321352,121.593607 C163.095296,129.303877 159.241775,136.565662 153.871352,143.003392 C152.986141,144.066484 151.555859,142.557654 152.373465,141.504918 C157.99107,134.25983 161.899521,125.710922 165.125577,117.182726 C166.593887,113.302546 167.823465,109.32895 169.234732,105.427423 L170.074496,103.10969 C171.195803,100.020026 172.326845,96.9343115 173.506563,93.8688869 C175.000225,89.9903977 176.641775,86.1586168 178.519944,82.4515327 L178.719194,82.0612221 C180.558021,78.484917 182.742664,74.9602957 185.749521,72.253881 C191.161606,67.3804772 198.363281,66.2112704 205.326343,65.2852305 L207.516872,64.9964495 C210.46073,64.605202 213.412901,64.1730787 216.275577,63.3856227 C217.92769,62.9335444 219.541775,62.3542333 221.058676,61.5553292 C221.662901,61.2383037 222.252338,60.8897871 222.822761,60.5093566 C221.196,60.9870082 219.546,61.3777949 217.866423,61.6842528 C217.044592,61.8343115 216.231211,61.9465386 215.419944,62.0247382 C213.330592,62.2315867 211.258056,62.2231327 209.117915,62.1113284 C208.936225,62.1005495 208.87707,61.815438 209.071437,61.7795084 C210.561834,61.5143599 212.053976,61.1828368 213.539929,60.8230491 L213.9855,60.714155 C213.993951,60.4670865 214.091134,60.2048008 214.293951,59.9556188 C215.033387,59.0552665 216.438317,58.5943115 217.412261,57.9581472 C218.432683,57.2923937 219.421415,56.5740141 220.363669,55.8044877 C221.225641,55.1009025 222.05381,54.3567382 222.850289,53.5791804 L223.089063,53.3444389 C223.00981,53.4229773 222.930218,53.5012063 222.850289,53.5790536 C220.699585,54.5726114 218.660852,55.8468423 216.415077,56.6332767 C214.629866,57.2607757 212.758035,57.6834763 210.869303,57.833535 L210.752049,57.8427816 L210.634796,57.8504431 C208.663648,57.9920689 206.679845,57.9350043 204.738296,58.3619319 C204.52069,58.4105425 204.453085,58.1188791 204.647451,58.0364524 C206.34393,57.3305425 208.108014,57.0579006 209.891113,56.7281941 C209.92912,56.5886395 210.026303,56.4639429 210.195317,56.3836297 L210.65153,56.165736 C212.010106,55.5129933 213.276444,54.8540877 214.40588,53.7945886 C215.403063,52.8583068 216.233345,51.7637237 216.856585,50.5503616 C214.361514,51.09778 212.170669,52.9893652 209.901655,54.0524571 C207.429824,55.2127703 204.814331,56.0454904 202.127007,56.5191264 L201.820834,56.5716004 C196.798888,57.4096093 190.759838,57.3027668 186.26081,54.690735 C186.117148,54.6061949 186.220669,54.4140775 186.368556,54.4371147 C187.644613,54.6463515 188.907993,54.8936313 190.171373,55.1134356 C189.924169,54.8872908 189.81431,54.4814982 190.099521,54.1560188 C191.234233,52.8551918 192.131515,51.3683062 192.705206,49.7413339 L192.814929,49.423177 C193.079146,48.6685179 193.525437,47.4965683 193.069944,46.8158231 C192.634732,46.1669777 191.610085,46.2557448 190.997408,46.5305002 C189.723465,47.105373 188.876282,48.5406528 187.803042,49.4069777 C186.63262,50.353827 185.301634,51.05551 183.938958,51.6832204 L183.651212,51.8140089 C181.29425,52.8746298 178.775992,53.7674658 176.922761,55.6396978 C175.925577,56.6457252 175.067831,57.9032595 174.780507,59.3129659 C174.649521,59.9596978 174.649521,60.6254513 174.822761,61.2658427 C174.960085,61.7667429 175.247408,62.0755256 175.08262,62.5846685 C174.867127,63.2419679 174.104451,64.028191 173.711493,64.6136313 C173.255155,65.2901636 172.80093,65.9683867 172.346704,66.6468211 C171.440366,68.00369 170.538254,69.3647859 169.636141,70.7237683 C167.831915,73.4459601 166.046704,76.1808329 164.276282,78.9241597 C163.700225,79.8174669 163.126047,80.7117135 162.553746,81.6068994 L161.696768,82.950425 L161.243863,83.6587127 L160.471394,84.8735225 C160.498859,84.9857495 160.496746,85.1041057 160.460831,85.207456 C160.329141,85.5827202 160.082499,85.8392172 159.776078,86.0251976 L159.721352,86.0572321 C155.212901,93.1860775 150.776282,100.36142 146.295296,107.507385 C146.056563,109.688245 145.83262,111.871494 145.638254,114.054742 C145.196704,118.996112 144.894592,123.950374 144.797408,128.910554 C144.75093,131.311705 144.943183,133.727227 145.046704,136.126053 C145.097408,137.270968 145.166739,138.414485 145.257356,139.55767 L145.324019,140.367965 C145.413277,141.481488 145.463887,142.586764 145.063606,143.648222 C144.708676,144.580065 143.626986,144.789302 142.986845,144.079376 C134.635458,143.743202 126.277711,143.487468 117.919965,143.328956 C102.960106,143.041519 87.9939085,143.085903 73.0319366,143.375453 C65.5171479,143.521285 58.0002465,143.726294 50.4875704,143.979915 C46.786162,144.102498 43.0826408,144.275805 39.3791197,144.326529 C37.3837817,144.35373 34.2433832,143.626925 34.0823782,141.381192 L34.0784155,141.312611 C33.8291197,141.380243 33.5713732,141.435194 33.3072887,141.47535 C33.1897203,141.493445 33.0767975,141.488302 32.9724976,141.463901 L32.920669,141.450115 C29.9462918,142.357021 26.1838642,141.063002 23.3575543,140.308896 L23.1242324,140.247363 C20.4263451,139.543566 18.2587394,138.537539 16.4904296,136.301453 C13.3953592,132.385343 12.3390211,127.126737 11.7897254,122.280474 C11.2742324,117.719535 11.2446549,113.074267 11.8721197,108.521782 C11.5023803,104.812605 11.8636479,100.985051 12.2840704,97.2967773 C12.4911127,95.4728243 12.7340704,93.6509847 13.0256197,91.8375992 C13.1882958,90.8252313 13.4016761,89.8234309 13.6192817,88.823744 C13.7061655,88.424292 13.7784916,87.9942569 13.8886273,87.5785222 L13.9382746,87.4013566 C13.6002465,87.4457401 13.2305282,87.3717675 12.8734859,87.1754231 C12.0241901,86.7083389 11.777007,85.7633918 11.7622183,84.8590239 C11.7157394,82.1323937 12.0410915,79.3279867 12.3284155,76.6184759 C12.6178521,73.9131922 13.0150352,71.1971295 13.5347535,68.5256618 L13.6692414,67.8368828 C14.0630456,65.8385125 14.513651,63.7755276 15.3072887,61.8977166 C12.3263662,61.3906661 9.35383099,60.8517229 6.46157746,59.9342513 C5.05030986,59.4840751 3.66016901,58.9242082 2.33340845,58.2413354 Z M157.923465,86.6151969 C157.877007,86.6258067 157.832641,86.6384877 157.788275,86.6511687 C156.596725,86.9851022 155.3925,87.2683115 154.1925,87.572656 C152.117852,88.0946912 150.089683,88.678018 148.16081,89.5847108 C147.756739,94.6867544 147.157722,99.7721644 146.588297,104.860187 L146.474873,105.877874 C147.349521,104.254492 148.245296,102.644003 149.181211,101.052747 C152.031211,96.2020462 154.946704,91.3896 157.923465,86.6151969 Z M14.6650352,87.120472 C14.6713944,87.726836 14.5446338,88.3568712 14.4770282,88.9399867 C14.367169,89.8870474 14.2784366,90.8381237 14.1664648,91.7847616 C13.9382958,93.6869143 13.7439296,95.5911804 13.6023803,97.5017871 C13.5115352,98.7214896 13.4523803,99.9452078 13.3995634,101.168926 C14.5974718,96.6901808 16.1840915,92.3091006 17.6925423,87.9212571 C17.4404014,87.8946411 17.1826455,87.8330724 16.9167582,87.7624204 L16.4691548,87.6418132 C16.2052272,87.5738177 15.3490452,87.3631519 14.6650352,87.120472 Z M161.696789,82.9504462 L161.705239,83.151229 C161.73693,83.8634795 161.310169,84.265045 160.792563,84.3686067 C161.092563,83.895182 161.394676,83.4217573 161.696789,82.9504462 Z M24.6263028,49.1936618 C25.8875704,49.3054661 27.1234859,49.5740924 28.3023592,50.039063 L28.4161091,50.0834796 C29.2880579,50.4201642 30.5629225,50.8432059 30.8481338,51.7742489 C30.9284155,52.0384368 30.7129225,52.2559162 30.4657394,52.2772626 C29.5192606,52.3533487 28.4037676,51.338656 27.527007,50.9962685 C26.5509507,50.615838 25.5284155,50.3326286 24.4932042,50.1825699 C22.1671479,49.8422959 19.7417958,50.1003546 17.5530634,50.9478693 C17.4241901,50.9985933 17.3439085,50.7933722 17.4601056,50.7320806 C19.6657394,49.531611 22.1185563,48.971744 24.6263028,49.1936618 Z M-2.10109859,55.2381534 C-2.24695775,55.1091663 -2.39273239,54.9739022 -2.53639437,54.8388493 C-3.66909054,53.7668504 -4.67213201,52.5158187 -5.41481165,51.1410895 L-5.61027258,50.7690181 C-6.21516415,49.5974596 -6.95794536,47.9283237 -5.53639437,47.0841957 C-4.68709859,46.5792798 -3.66456338,46.7058787 -2.71808451,47.0123366 C-2.6568169,47.0313581 -2.5955493,47.0527045 -2.53428169,47.0736282 C-2.11174648,47.2217847 -1.704,47.3991076 -1.34061972,47.5681879 C0.237549296,48.2931194 1.62980282,49.3477573 3.0875493,50.27791 C4.66706274,51.2860381 6.22671043,51.9306794 8.04966963,52.3079976 L8.22135211,52.342591 C9.93261972,52.6809628 11.7875493,52.8984423 12.9812113,54.3060352 C13.2812113,54.6613151 13.0065634,55.3268571 12.4889577,55.1514364 C9.18895775,54.0378317 5.69670423,53.792454 2.66712676,51.964274 C1.41219718,51.2076399 0.224873239,50.3392016 -1.05752113,49.6225127 C-1.73780282,49.2418004 -2.44016901,48.9089566 -3.18866729,48.680687 L-3.59757575,48.560074 C-3.83709207,48.4901155 -4.12301408,48.421045 -4.31526761,48.4898865 C-4.68123762,48.6166967 -4.56443587,48.8125861 -4.45120832,49.1545577 L-4.43991549,49.1892446 C-3.55047887,51.9412368 -1.01526761,54.2447436 1.33402817,55.7685793 C1.87276056,56.1194207 2.42416901,56.4408845 2.98614085,56.7388885 C6.79011761,58.7672338 11.0464654,59.7112605 15.2268675,60.8318906 C16.8382563,61.2818746 17.9108521,61.5914067 18.4446549,61.7604869 C19.3362042,61.6863029 20.3524014,62.0014262 21.0242324,62.3776297 C21.6770493,62.7430544 22.2031056,63.2335984 22.6002887,63.8105847 C22.6002887,63.8105847 22.9826831,64.1297237 23.0524014,64.6242834 C23.2531056,65.0829135 23.3883169,65.5772618 23.4559225,66.0931679 C23.4939507,66.3953988 23.4178944,66.6276728 23.2742324,66.792526 C23.7063501,73.427398 21.9149056,80.0249209 19.8952164,86.3304343 L19.6950951,86.9522002 L19.5664859,87.3463421 C17.3883169,94.0313941 14.8890211,100.668005 13.7735282,107.638126 C13.0277535,112.294173 13.050993,117.11296 13.5981761,121.790142 L13.6367545,122.112729 C14.1758912,126.534937 15.2132163,131.495709 18.0242324,135.054697 C19.4580226,136.870989 21.1567395,137.678127 23.3285396,138.26301 L23.4474718,138.294697 C25.4122606,138.812294 27.4404296,139.545891 29.4664859,139.767809 C31.3467676,139.972607 32.9228239,139.273249 34.6150775,138.617852 L34.6171479,138.615908 C38.1812535,135.460427 39.7995634,130.865671 40.995338,126.228434 C44.0946338,114.228176 43.7101268,101.77119 41.9523803,89.5952994 C41.0354789,83.2336556 39.789,76.9269628 38.5467465,70.6223836 C37.9256197,67.4711507 37.2559014,64.3262583 36.7002676,61.1644579 L36.3702693,59.3036177 C36.1881747,58.2698175 36.0120634,57.2351918 35.8615352,56.1956125 C35.6587183,54.7985871 35.5974507,53.4248102 35.5277324,52.0193307 C33.8206901,49.1893292 31.3425211,46.8581354 28.4713944,45.1863546 C26.4157606,43.9879984 24.2397042,43.1573918 21.9939296,42.5550434 C15.5734859,40.8240845 8.57419014,40.9466677 2.11362676,39.6151609 C-0.0567345377,39.1683847 -2.11691718,38.5050325 -4.17600729,37.7101876 L-4.45679577,37.6009926 C-5.40116197,37.2332431 -6.36454225,37.0282333 -6.83355634,38.1420493 C-7.16735915,38.9346129 -6.96876761,39.7588791 -6.46806338,40.4246325 C-5.24059859,42.0562568 -2.77299296,42.8128908 -0.915950704,43.4004446 C0.20165493,43.7555131 1.3425,44.036609 2.49602113,44.2458458 C3.64954225,44.4550826 4.80728873,44.5079202 5.91433099,44.9158262 C6.34109155,45.0722254 6.42559859,45.7506599 5.91433099,45.8709182 C4.51151408,46.1987225 3.10024648,45.9176266 1.70588028,45.6449847 C0.174190141,45.3425425 -1.33426056,44.9137127 -2.80045775,44.3705425 C-3.07088028,44.2707851 -3.35076761,44.1656172 -3.63579296,44.0538484 L-3.85045775,43.9688924 C-3.62862676,44.1297299 -3.40679577,44.2882427 -3.18285211,44.4467554 C-3.12369718,44.4888141 -3.15961268,44.6008297 -3.23778169,44.5733542 C-6.68525341,43.2867506 -9.82204081,40.9652861 -12.2520817,38.2185718 L-12.372993,38.0808845 C-13.2286268,37.1000078 -15.1786268,34.1326497 -16.8222887,34.9590294 C-18.3657254,35.7340932 -15.7347034,38.7218626 -14.7348355,39.9433943 L-14.6187254,40.0865566 C-13.4821056,40.1161456 -12.3814014,40.8239577 -11.4602746,41.3946035 C-9.86097887,42.3860477 -8.18985211,43.2399029 -6.48703521,44.0385957 C-3.10252817,45.6300634 0.491133803,46.7525448 3.83972535,48.4241143 C3.88409155,48.4475742 3.85028873,48.5044274 3.80803521,48.4982982 C1.67634507,48.1578129 -0.432105634,47.6146427 -2.49196479,46.9406466 L-2.5838662,46.9118237 L-2.67576761,46.8812571 C-3.96238732,46.4585566 -5.23210563,45.9811162 -6.48069718,45.4715507 C-7.86872535,44.9053432 -9.22506338,44.2691789 -10.5412606,43.5484744 C-11.7328099,42.8975155 -13.0553451,41.7245213 -14.4370352,41.5512141 C-14.5849225,41.5321926 -14.7159085,41.5298677 -14.829993,41.5406466 C-16.4165915,41.6736916 -15.1046197,44.3028892 -14.6609577,45.0891123 C-13.9363099,46.3804626 -13.061662,47.5724783 -12.0581408,48.6609323 C-10.0236338,50.8716564 -7.55814085,52.6237503 -4.88983099,53.9869597 C-3.97926761,54.4519303 -3.04757746,54.8619499 -2.10109859,55.2381534 Z" id="ðŸ–-Ink" fill="#000000"></path>
                    </g>
                    <g id="head/Shaved-2" transform="translate(78.591549, 38.043053)" fill-rule="evenodd">
                        <path d="M82.0598609,32.0848412 C80.5645088,26.6962541 80.7784014,26.1134278 78.5497394,20.9664141 C71.1595986,6.01338082 21.7738944,11.0200579 16.7336831,25.9464611 C13.9993333,34.0441391 14.6417113,45.4483867 13.9299507,52.4700775 C13.7121431,56.1929504 13.4981874,59.9160569 13.2765444,63.6386158 C13.1999992,64.9242136 13.1225372,66.2097462 13.0436831,67.4951812 C12.8900915,69.9975687 12.7407254,72.4999562 12.6012887,75.003189 C11.6727676,82.7145159 15.5465704,83.4988368 22.1911479,83.2705785 C23.947838,87.5104767 26.7929789,91.0497487 30.3074155,93.9293965 C29.4591761,96.2377644 32.5352324,97.4327389 34.1945282,98.3557057 C43.2226268,103.398524 54.3122746,106.474727 64.3122042,103.63904 C67.2504235,102.805847 79.3843567,99.9202001 83.1152324,90.9872983 C84.9473621,86.6005977 88.6717718,63.8835026 83.7602225,43.4484654 L82.0598609,32.0848412 Z" id="ðŸŽ¨-Background" fill="#FFFFFF"></path>
                        <path d="M50.4932324,-3.06331115 C51.8895,-3.31037965 53.4509789,-3.21527202 54.2514718,-1.84360861 C54.4247113,-1.54792955 54.5345704,-1.24971429 54.5873873,-0.955937378 C58.4028803,-1.81401957 62.3641479,-1.9070137 66.2620352,-1.34482192 C67.424007,-1.17806654 67.8317535,0.371131115 67.3204859,1.2569002 C67.267669,1.34778082 67.2148521,1.43633659 67.1578099,1.52320157 C68.3789366,1.62232485 69.5979507,1.83367515 70.8064014,2.15936595 C71.6662606,2.39185127 72.4690775,3.50566732 72.0868944,4.41870059 C72.0528803,4.4990137 72.0169648,4.57932681 71.9812606,4.65942857 C73.8803451,4.97877886 75.6951338,5.7248454 77.2817535,6.92954207 C77.4718944,7.07114677 77.6472465,7.25502153 77.7930211,7.46425832 C81.3402042,7.06459491 84.9930211,7.79819178 88.1599225,9.51012916 C89.0472465,9.98968297 89.4761197,11.3721252 88.874007,12.2344344 C88.6859789,12.5028493 88.4895,12.7585832 88.2782324,13.005863 C89.6556972,13.5152172 90.8747113,14.339272 91.6965423,15.6815577 C92.5902042,17.1377613 92.8648521,19.0124384 92.3852746,20.6144736 C93.3866831,21.6352955 93.9106268,23.1990763 93.5535845,24.7672955 C93.2282324,26.1983483 92.3514718,27.1069432 91.2275282,27.6524384 C91.4556972,28.3498943 91.2718944,29.1424579 90.7542887,29.6811898 C89.9599225,30.5075695 89.0092183,31.1416204 87.974007,31.5581918 C87.9718944,31.8266067 87.9042887,32.1034755 87.7690775,32.3613229 C86.8352746,34.153362 84.8218944,35.3434755 82.7747113,35.5231233 C83.4634437,38.4162975 84.0296408,41.3458239 84.5789366,44.2582309 C85.5552042,49.4384266 86.311331,54.6693464 86.7718944,59.9211898 L86.8277988,60.5706826 C87.5780599,69.4575957 87.7524779,78.7676528 85.945838,87.534317 C84.7944296,93.1160783 81.3042887,97.8207358 76.6479507,101.007898 C71.9134437,104.2498 66.1289366,105.862614 60.4373873,106.118137 C57.5345704,106.247272 54.6045,106.001894 51.760838,105.406098 C50.4106268,105.122888 49.1071056,104.721323 47.8247113,104.209855 C46.4451338,103.658231 45.3087254,102.844532 44.1423169,101.929386 C43.5359789,101.453847 43.882669,100.331577 44.6007676,100.189761 C45.1141479,100.086411 45.6211901,99.9743953 46.1324577,99.8814012 C46.6014718,99.7945362 47.1129507,100.263945 47.0155563,100.697213 L48.004762,100.95201 C48.3344746,101.037085 48.6639845,101.122896 48.9927507,101.211231 L49.4852746,101.345847 C50.8859789,101.737057 52.3183732,102.066552 53.754993,102.301362 C56.6789366,102.7769 59.7211901,102.787468 62.6599225,102.417605 C67.6014718,101.798348 72.6486549,100.035687 76.4916127,96.7872329 C78.3761197,95.1936517 79.945838,93.3062935 81.0845704,91.114591 C82.5317535,88.3308963 82.9690775,85.2303875 83.3324577,82.151225 C84.3824577,73.2470372 84.0592183,64.3301683 83.2437254,55.4238669 C82.8380915,50.9939648 82.2845704,46.5725166 81.6972465,42.161636 C81.3951338,39.9001879 81.0697817,37.6345127 80.8016831,35.3646106 C80.2035845,35.2039843 79.633162,34.937683 79.1218944,34.5509119 C78.7754155,34.2888376 78.5725986,33.9842818 78.4838662,33.6738082 C77.967581,33.5763845 77.472833,33.2930086 77.1162092,32.8138214 L77.0704859,32.7502074 C76.1345704,31.3952407 74.5164718,30.6197965 73.0183732,30.0554912 C72.1099225,29.7131037 71.1845704,29.4148885 70.2634437,29.1107554 C69.3042887,28.7916164 68.2902042,28.3203053 67.2824577,28.1977221 C66.1395,28.0624579 64.9880915,28.4069589 63.8345704,28.2843757 C62.7866831,28.1702466 61.8634437,27.7938317 61.1094296,27.041636 C60.8453451,26.7795616 60.6169648,26.4773307 60.4352746,26.1518513 C56.917669,26.904047 53.2225986,25.9552955 49.567669,26.1835538 C47.1634437,26.335726 45.0423169,27.8236321 42.6127394,27.7834755 C41.9493592,27.772908 41.3071056,27.5404227 40.8402042,27.1325166 C38.548162,27.5700117 36.217669,28.4109746 34.0627394,29.1337926 C31.933162,29.8483679 29.8838662,30.8100117 27.7796408,31.5898943 C27.7775282,31.5920078 27.7775282,31.5920078 27.7775282,31.5941213 C27.5028803,32.4839061 26.683162,32.8683523 25.8106268,32.7121644 C22.9564014,32.2028102 20.5521761,30.4018943 17.774007,29.7426928 C17.0092183,32.5304031 16.1873873,35.2819726 15.6256268,38.1248454 C15.0571056,40.9928689 14.6578099,43.8989354 14.3937254,46.8113425 C14.1275282,49.734317 14.0007676,52.6868806 13.9944296,55.6204227 C13.9923169,57.1167828 14.0303451,58.6171585 14.0810493,60.1135186 C14.1221291,61.3671487 14.3609055,62.9522001 13.9081876,64.1578184 L13.867669,64.2602114 L13.8655563,64.2602114 C13.8106268,64.4358434 13.5634437,64.5415186 13.424007,64.3787789 C12.5725986,63.3894481 12.3697817,61.8150998 12.133162,60.5721487 C11.845838,59.063319 11.6620352,57.5394834 11.5143592,56.0112094 C11.2183732,52.9445166 11.1528803,49.8907162 11.3092183,46.8113425 C11.6155563,40.749816 12.5873873,34.3478043 14.6620352,28.6183092 C14.024007,28.6772759 13.7387958,27.7369785 13.6965423,27.2064892 C13.6157094,26.1403648 13.7826468,25.0090375 13.9635656,23.9398002 L14.152714,22.8328982 C14.3320469,21.7880841 14.5218944,20.7705205 14.8775282,19.7542779 C15.7312606,17.3150841 16.9585141,15.0242583 18.4880915,12.9424579 C21.6085141,8.69643053 25.9333732,5.48158121 30.8578099,3.62825049 C31.1662606,3.51200783 31.4578099,3.51412133 31.7155563,3.6026771 C36.1965423,1.1871546 41.0134437,-0.672727984 45.9064014,-1.99578082 C47.4190775,-2.40368689 48.9507676,-2.78834442 50.4932324,-3.06331115 Z M13.2804085,65.0824697 C15.3149155,63.8061252 19.5128028,63.4721918 20.6473099,66.1920587 C20.6937887,66.3019609 20.5628028,66.399182 20.4656197,66.37382 L20.1880041,66.3036659 C19.1215832,66.0393148 18.2000526,65.8874251 17.1064648,66.3254207 C16.1451972,66.7100783 15.2113944,67.3122153 14.5754789,68.1407084 C13.0722596,70.1000263 12.9092615,72.7614446 13.0494492,75.1380848 L13.0564648,75.2528571 C13.1874507,77.3386732 13.7219577,79.8791037 15.7606901,80.9104932 C16.7937887,81.4325284 17.9113944,81.3944853 19.0332254,81.3860313 C20.3113944,81.3775773 21.6170282,81.5170685 22.8381549,81.9103914 C23.5205493,82.1299843 23.8416761,83.0345636 23.2754789,83.5652642 C23.0874507,83.7406849 22.8909718,83.9053268 22.6839296,84.053272 C23.3029437,84.7128963 23.9113944,85.3807632 24.500831,86.0845597 C25.5001268,87.2784775 26.5628028,88.4324501 27.6719577,89.5251311 C28.7451972,90.5797691 29.8818169,91.600591 31.107169,92.4755812 C32.3959014,93.3930528 33.9381549,94.0374599 35.0536479,95.1618434 C35.7804085,95.8933268 35.6557606,96.9139374 35.0536479,97.6536634 C33.5588873,99.4921066 31.014671,97.5594059 29.5854868,96.472325 L29.4128028,96.3411781 C27.9275915,95.2167945 26.5163239,94.0036438 25.3142113,92.5749159 C24.0888592,91.1165988 23.0282958,89.5652877 22.244493,87.8258748 C21.7839296,86.8029393 21.4902676,85.8372798 21.3318169,84.8270254 C18.7628028,85.942955 15.5240704,85.5876751 13.2212535,84.0173425 C10.1642113,81.9334286 9.30646479,78.1081996 9.29576448,74.6164814 L9.29607522,74.4094765 C9.31869634,71.0155162 10.2099718,67.0087162 13.2804085,65.0824697 Z M19.0762792,70.0016782 L19.1704859,70.002789 C20.3018944,70.0273057 21.3109038,70.4349628 22.2719406,70.9966661 L22.3711901,71.0553135 C23.304993,71.6111648 24.6444296,72.0569025 25.1387958,73.0969573 C25.4345704,73.7246677 25.4134437,74.4432587 24.8979507,74.9629691 C23.9641479,75.9058027 22.554993,75.7494035 21.5451338,75.0136932 C20.7909085,74.4622802 20.2944296,73.6359006 19.554993,73.0777245 C18.1648521,72.0254114 15.9718944,72.0845894 14.5249225,72.9955092 C14.4359789,73.0525738 14.3495704,72.9447851 14.3895,72.860245 C15.2781524,71.0410313 17.0393288,69.994646 19.0762792,70.0016782 L19.0762792,70.0016782 Z" id="ðŸ–-Ink" fill="#000000"></path>
                    </g>
                    <g id="face/Eyes-Closed" transform="translate(112.183099, 77.354207)" fill="#000000" fill-rule="evenodd">
                        <path d="M38.5022324,47.7578114 L38.6483595,47.7239991 C39.8155361,47.4486776 40.9386549,47.0742284 42.0257535,47.7977566 C43.0615986,48.4869699 43.2054718,49.7618348 42.3984296,50.6917761 C41.5689498,51.6478731 40.4669977,51.594373 39.3040769,51.6074863 L39.2313169,51.6084023 C38.2656127,51.6217174 37.2838521,51.6073456 36.3219507,51.5217487 C35.4252465,51.4418583 34.5227239,51.3142049 33.6362531,51.1466461 L33.1120563,51.0438477 C32.57645,50.9354201 32.0489313,50.7943867 31.7729366,50.2758387 C31.291669,49.3718935 34.8688521,48.662602 35.3034296,48.5385393 C36.3580775,48.2373652 37.4325845,48.0002301 38.5022324,47.7578114 Z M40.4860971,36.8583586 C39.9158655,37.4500012 39.162674,37.8540537 38.3171646,38.1055558 C36.1921796,38.7376462 33.4807651,38.400933 31.7451626,37.7568385 C31.3851066,37.6232358 31.0486135,37.3508907 30.8552771,37.0103214 C30.6786787,36.6992367 30.6189037,36.3333917 30.7533203,35.9602721 C30.7916023,35.8542875 30.838155,35.7502275 30.8849219,35.6477456 C31.0122416,35.3689561 31.2717165,35.1520654 31.5764872,35.0280314 C31.8930016,34.8992181 32.2529291,34.8729251 32.5415926,34.9637345 C32.580371,34.9759348 32.6201465,34.9884779 32.6608695,35.0013198 C33.7605356,35.3480979 35.5641657,35.9223733 37.0584293,35.8110697 C37.9550516,35.7442827 38.7437145,35.4273752 39.1516166,34.6065468 C39.3665807,34.1737351 39.3070443,33.7456796 39.1163794,33.3537661 C38.8289083,32.7628669 38.2531034,32.2487015 37.7679835,31.8944056 C37.0841526,31.3948406 36.3547845,31.1954052 35.6003906,30.9848385 C35.3161296,30.9054955 35.028219,30.8250543 34.7376159,30.7288095 C34.6418552,30.6971841 34.55791,30.6350504 34.4950532,30.5542797 C34.4329714,30.4745047 34.392222,30.3770903 34.3794486,30.2793506 C34.3662206,30.1781326 34.3825639,30.0771964 34.4294569,29.9902011 C34.4729549,29.909504 34.5425229,29.8386271 34.6464802,29.7920648 C36.1224326,29.1305523 38.0313496,29.5676772 39.4721611,30.6083696 C40.1922606,31.1284945 40.7928761,31.7966468 41.1630661,32.5432658 C41.5066184,33.2361606 41.6525805,33.9963801 41.5179814,34.7716354 C41.3672735,35.6395481 41.0000644,36.325093 40.4860971,36.8583586 Z M16.2963803,22.0977088 C16.7110986,21.9148908 17.0518732,22.7706481 17.1372254,23.0039789 L17.3137423,23.4880548 C17.6016858,24.2685761 17.9322399,25.0621153 18.5377183,25.6414192 C19.0445493,26.1264681 19.856662,26.5375444 20.4446197,25.9700689 C21.0023662,25.4317597 20.7304648,24.8253957 20.8126479,24.164926 C20.9609577,22.9703742 22.5891972,21.7764564 23.5682113,23.0230004 C25.7797606,25.8394544 22.3580704,29.756198 19.2063803,29.0690982 C17.6035148,28.7195285 16.3132468,27.4338407 15.7831531,25.9049272 L15.7559577,25.8242372 C15.4386338,24.8556188 15.1177183,22.6178419 16.2963803,22.0977088 Z M44.8351961,24.059205 L44.8199155,24.0234904 C43.7665352,21.6265667 47.5241408,20.5964454 47.8427324,22.7486254 L47.862898,22.893839 C48.1728002,25.2829982 47.5197972,28.495874 44.5947042,28.7340658 C41.3111831,29.0016352 39.9438592,25.3366098 40.2370986,22.6471773 C40.2897042,22.1657213 40.8736479,22.099146 41.0540704,22.5366411 L41.0924605,22.6321203 C41.6226109,23.9837277 42.1260547,26.5830892 43.9940704,26.5804063 C45.2421097,26.5785313 45.1825503,24.8931573 44.8351961,24.059205 L44.8351961,24.059205 Z M47.217507,17.1205151 C49.1049718,17.053517 49.1024366,20.0086168 47.217507,20.0530004 C40.9213099,20.2011569 34.6202535,20.3981354 28.3221549,20.4319515 L27.1774144,20.4389467 C21.2615306,20.4786061 15.3253367,20.5594725 9.42680282,20.0627225 C8.92335211,20.0204524 9.01694366,19.3132744 9.43757746,19.3418067 C15.6215915,18.4613213 21.8810282,18.2038967 28.1121549,17.8693292 C34.4749014,17.5275757 40.8499014,17.3466599 47.217507,17.1205151 Z" id="ðŸ–-Ink"></path>
                    </g>
                    <g id="facial-hair/*-None" transform="translate(104.577451, 109.479380)"></g>
                    <g id="accessories/Eyepatch" transform="translate(88.521127, 88.978474)" fill="#000000" fill-rule="evenodd">
                        <path d="M70.8584266,-12.5992383 C72.0795533,-13.0179232 73.053497,-11.7474966 72.81899,-10.6402324 C72.5422294,-9.3362011 71.181666,-8.28959445 70.2795533,-7.37043202 C69.3330745,-6.40244768 68.3675815,-5.45348486 67.3661731,-4.54045159 C65.4542012,-2.79448682 63.4725111,-1.15039288 61.3830745,0.381896745 L60.7441885,0.850227861 C58.8287857,2.25211436 56.9192012,3.62147404 54.8675815,4.83504743 C53.7563139,5.49023334 52.6344829,6.12428422 51.4978632,6.73508657 C51.0924407,6.95277737 50.5978632,7.28861299 50.0889195,7.53821768 C51.9499759,8.97539968 53.3823702,11.1692157 53.6929336,13.2129731 C54.4619477,18.2896071 51.1915252,22.9942647 46.5772294,24.8647147 C44.2767364,25.7967695 41.7161731,26.0672979 39.2570181,25.786202 C36.7556097,25.5006678 34.2203984,24.7609418 32.5957505,22.7110553 C31.1527928,20.8913292 30.6330745,18.5688009 30.5295533,16.2881198 C30.4809618,15.2060063 30.4915252,14.1405895 30.7196942,13.183384 C29.7246238,13.191838 28.7295533,13.187611 27.7429336,13.1981785 C25.3049054,13.2214271 22.8624407,13.2322059 20.4225111,13.1643625 C17.9063139,13.0925034 15.4027928,12.9804877 12.8950463,12.7566678 C11.7943421,12.6571218 10.6999759,12.4943821 9.6053984,12.3379829 C8.54293361,12.1879241 7.3703984,12.1308596 6.37744066,11.695478 C6.30983502,11.6680024 6.33809938,11.5707813 6.39645474,11.5515484 C7.45490545,11.2093723 8.65701812,11.2704525 9.75983502,11.2030318 L10.8347005,11.1378102 C11.7299701,11.0843133 12.6246238,11.0350989 13.5225111,11.0062647 C15.5966308,10.9380249 17.669133,10.9212424 19.7428483,10.8856893 L20.631666,10.8690983 C23.0718069,10.8204877 25.5119477,10.7930122 27.9520885,10.7148126 C28.9640604,10.6831101 29.9781449,10.623932 30.9943421,10.5689809 C31.1126519,10.3003547 31.2861026,10.0551883 31.4527928,9.81657385 C31.9513843,9.10220986 32.5851871,8.47238598 33.2422294,7.90174019 C34.5877928,6.72642121 36.1027928,5.85375585 37.7929336,5.26831553 C39.4677857,4.69013158 41.9174308,4.40330514 43.6893335,4.44062785 C45.4612362,4.47795057 47.9864195,4.72796328 48.7978632,6.17712179 C48.8823702,6.3271805 50.4267364,6.0376306 50.8851871,5.68657776 C51.9563139,4.86886348 53.0084266,4.02768931 54.0413139,3.16538011 C55.959835,1.56123138 57.9328632,-0.0175553093 59.7499759,-1.73371969 C61.6239195,-3.50483515 63.4830745,-5.30553965 65.2661731,-7.16542224 C66.1619477,-8.09747703 67.0556097,-9.03164533 67.9239195,-9.98694866 C68.8112435,-10.9612735 69.5739195,-12.1617432 70.8584266,-12.5992383 Z" id="ðŸ–-Ink"></path>
                    </g>
                </g>
            </g>
        </g>
    </g>
</svg>