<?xml version="1.0" encoding="UTF-8"?>
<svg width="240px" height="324px" viewBox="0 0 240 324" version="1.1" xmlns="http://www.w3.org/2000/svg" xmlns:xlink="http://www.w3.org/1999/xlink">
    <!-- Generator: Sketch 62 (91390) - https://sketch.com -->
    <title>peep-33</title>
    <desc>Created with Sketch.</desc>
    <g id="Introduction" stroke="none" stroke-width="1" fill="none" fill-rule="evenodd">
        <g id="variations" transform="translate(-1086.000000, -1406.000000)">
            <g id="images" transform="translate(126.000000, 110.000000)">
                <g id="a-person/bust" transform="translate(960.000000, 1296.000000)">
                    <g id="body/Tee-2" transform="translate(31.056338, 135.052838)" fill-rule="evenodd">
                        <path d="M10.1408304,74.1409423 L161.508208,86.1622614 L161.666702,87.191236 C164.203145,103.716755 165.484307,114.928125 165.510189,120.825346 L165.51059,121.00604 C165.51059,126.853358 167.304928,136.15308 170.893606,148.905205 L171.115563,149.690261 L9.9295628,149.971185 L8.02815435,111.587477 L10.1408304,74.1409423 Z M99.7541549,-8.22339274 C105.908856,-7.91955082 112.111656,-5.27997127 112.590761,-3.59296916 C113.657787,0.164193512 115.373739,16.2472869 121.016578,18.7182295 C126.659417,21.1891721 138.706225,18.9364862 142.150568,24.8373184 C145.594911,30.7381506 156.906256,54.7924801 156.906256,60.3973625 C156.906256,64.1339508 120.043856,65.4309817 46.3190579,64.2884552 C47.2602227,34.1918165 51.184016,18.3709976 58.0904377,16.8259986 L58.7069698,16.6896825 C68.6947802,14.5070641 74.6640267,14.4366955 78.0711847,10.9182676 C81.5478766,7.32803501 82.1787774,1.16536952 83.6211055,-3.59296916 C84.4158144,-6.2147681 92.2015741,-8.59624441 99.7541549,-8.22339274 Z" id="ðŸŽ¨-Background" fill="#FFFFFF"></path>
                        <path d="M113.251479,1.18286419 C113.274718,1.16536952 113.298169,1.15961566 113.32331,1.17229667 C113.802887,1.40266849 113.902183,1.86341213 114.066972,2.3431773 C114.307817,3.04486027 114.58669,3.72963523 114.844437,4.42497769 C115.358028,5.81988963 115.847958,7.21268806 116.420493,8.58435147 C117.007817,9.99617143 117.616268,11.3826294 118.313451,12.7458387 C118.649366,13.4052517 119.010634,14.0519836 119.378239,14.6944885 C119.631761,15.1404376 119.86838,15.7533534 120.202183,16.171827 C120.227535,16.0386763 120.263451,15.9118661 120.305704,15.79351 C120.261549,15.814645 120.219085,15.8378935 120.178944,15.8632556 C120.094437,15.9160932 119.993028,15.810418 120.043732,15.7279914 C120.225423,15.427874 120.462042,15.2249777 120.732465,15.0876 C121.480352,14.2569933 137.965352,18.2208681 142.471901,22.672962 C150.633803,30.7361871 156.143028,40.7053691 159.766268,51.3109268 C161.766972,57.1632164 163.609225,63.0725706 165.512746,68.9565628 C167.524014,75.1787155 169.624014,81.3733926 171.639507,87.5913182 C172.081056,88.9587546 171.117676,90.2014943 169.900775,90.6516705 C167.633873,91.4886176 165.35007,92.2769542 163.047254,93.0061127 C164.164859,97.2986372 164.946549,101.682042 165.508521,106.078128 C166.66838,115.142942 166.814155,124.391631 168.641831,133.361338 C169.061454,135.420041 169.592379,137.449586 170.153244,139.473664 L170.283169,139.940672 C170.616972,141.128461 170.921408,142.326817 171.331056,143.489244 C171.683873,144.488931 172.140211,145.497072 172.387394,146.528461 C172.676831,147.741612 172.25007,149.066778 171.115563,149.690261 C170.205,150.191162 168.901479,149.984038 168.352183,149.04353 C168.240211,148.851201 168.172606,148.641964 168.145141,148.430614 C168.062746,148.255193 167.98669,148.075545 167.919085,147.89167 C167.892676,147.820868 167.869437,147.747424 167.847254,147.673715 L167.781761,147.454175 C167.621197,146.930027 167.47331,146.401651 167.325423,145.873275 C167.084577,145.025459 166.84218,144.180747 166.574283,143.340473 L166.438099,142.920712 C165.774718,140.900203 165.181056,138.862786 164.663451,136.800007 C162.811092,129.403463 162.418117,121.745484 161.909584,114.165395 L161.883169,113.773393 C161.422606,106.980594 161.147958,100.20259 161.712042,93.4245863 L161.63493,93.4496841 L161.63493,93.4496841 L161.557817,93.4731969 C160.82493,93.6972282 160.089507,93.9170325 159.352183,94.1304963 C159.328944,94.1389503 159.307817,94.1474043 159.284577,94.1537448 C158.812746,94.2999288 158.327711,94.4387742 157.834362,94.5678348 L157.537394,94.6440775 L157.328239,94.7011421 L157.108063,94.7638105 C156.409393,94.9665185 155.697052,95.1996268 154.972606,95.1766802 C153.772606,95.369009 152.551479,95.4852517 151.351479,95.4894787 C151.721197,101.536211 152.147958,107.578715 152.657113,113.61488 C153.16838,119.682747 153.846549,125.727365 154.55007,131.771984 C154.896549,134.758363 155.26838,137.738402 155.678239,140.714214 C155.885282,142.223256 156.100775,143.723843 156.375423,145.220203 C156.658521,146.750379 157.159225,148.38623 156.857113,149.933314 C156.850775,149.931201 156.844437,149.929087 156.838099,149.929087 C156.73669,150.37715 156.466268,150.778715 155.995141,151.055584 C155.131056,151.560712 153.922606,151.264821 153.426127,150.381377 C153.383873,150.307404 153.343732,150.231318 153.305704,150.153119 C152.796761,150.370809 152.238803,150.45535 151.554296,150.46169 L142.271197,150.554684 L142.271197,150.554684 C138.052183,150.596954 133.833169,150.641338 129.612042,150.702629 C116.35946,150.898011 103.106878,151.123451 89.8542958,151.28395 L84.8845775,151.340907 C77.4310563,151.419107 69.9733099,151.573393 62.5197887,151.571279 C58.7911268,151.571279 55.0662676,151.558598 51.3373944,151.467717 C49.5310563,151.423334 47.7289437,151.353588 45.9247183,151.279616 L45.6061839,151.265049 C44.1658138,151.193935 42.636593,151.060467 41.2282394,151.383177 C40.839507,152.139811 39.8465493,152.296211 39.326831,151.522668 C38.1391613,149.752706 37.8150803,147.283214 37.5956665,145.120009 L37.5183803,144.340986 C37.2754225,141.916798 37.0620423,139.49261 36.9035915,137.064195 C36.3416197,128.460124 36.1366901,119.8476 36.3944366,111.226622 C36.5254225,106.832649 36.9289437,102.464038 37.4064085,98.0954278 C37.5564085,96.7322184 37.7127465,95.3711225 37.8817606,94.0121401 L37.8846655,93.5289405 C37.8849296,93.3743906 37.8838732,93.2269738 37.8796479,93.0885393 L37.8375264,91.7772759 C37.8025352,90.6842811 37.7700198,89.5906672 37.7564855,88.4969501 L37.7507746,87.8407115 L37.7444366,86.6191068 C36.7007746,86.5197722 35.5873944,86.1731577 34.6873944,86.006191 C33.2277465,85.7335491 31.7719014,85.4397722 30.320493,85.1290873 C27.4134507,84.5034904 24.5380986,83.7637644 21.6817606,82.9458387 L21.0742807,82.7712845 C18.4386519,82.0115518 15.7667203,81.201444 13.2733099,80.0651342 C12.2972535,79.6191851 11.3233099,79.1161714 10.4676761,78.4567585 C10.4169718,79.1499875 10.3388028,79.8411029 10.2923239,80.5279914 C10.1995775,81.8869738 10.089507,83.2417292 9.99866197,84.6007115 L9.91178795,85.893735 C9.76908451,88.0481871 9.64056338,90.2004376 9.58246479,92.3614943 C9.32471831,101.787717 9.28035211,111.254097 9.77894366,120.67398 C10.0261268,125.389205 10.3789437,130.10443 10.8880986,134.800633 C11.1373944,137.110692 11.4014789,139.427091 11.726831,141.728696 C12.0627465,144.093706 12.6690845,146.443921 12.855,148.825839 C13.0324648,151.123216 9.52119718,151.45715 8.94443662,149.356328 C8.25381791,146.837334 8.07788912,144.119852 7.71386277,141.529829 L7.67260563,141.24259 C7.26908451,138.490809 6.94584507,135.728461 6.66697183,132.961886 C5.70430572,123.41942 5.45429577,113.828344 5.95922535,104.249948 C6.19928795,99.6625511 6.76847592,95.0927924 7.45738541,90.5538832 L7.53739437,90.0303006 C7.85100939,87.9975804 8.14459311,85.9648603 8.49975454,83.9410464 L8.63598592,83.1825511 C8.955,81.4431382 9.20007042,79.551553 9.71767606,77.8121401 L9.56381708,77.6702055 C9.27616426,77.4021331 8.96442579,77.0919233 8.73739437,76.7575022 C7.95570423,76.651827 7.29021127,76.0896352 7.37260563,75.0688133 C7.64091549,71.7146841 8.86626761,68.3034904 9.95852113,65.137463 C11.055,61.9545276 12.326831,58.8307703 13.7676761,55.787326 C18.8359859,45.0908877 26.1352817,35.3793417 35.061338,27.5995374 C39.7958451,23.4718661 44.9845775,19.8112791 50.7183803,17.2053299 C53.5451408,15.9182067 56.4690845,14.9227468 59.5324648,14.385917 C61.0493662,14.1196157 62.5810563,13.9124924 64.1233099,13.8681088 C65.3745045,13.1291376 66.8600574,13.4400941 68.0715858,14.2503488 L68.1373944,14.2950364 L68.1397183,14.2950364 L68.4500704,14.356328 L68.4500704,14.356328 C68.5261268,14.3711225 68.5240141,14.4915922 68.4500704,14.5085002 C68.4458451,14.5085002 68.439507,14.5106137 68.4352817,14.5127272 C68.6338732,14.6691264 68.8219014,14.8360932 68.9972535,15.0157409 C69.5761268,15.6075217 69.5740141,16.3218857 69.2761268,16.898872 C71.048662,18.5431773 72.1683803,20.6545667 73.3409155,22.7828642 C74.5979577,25.0612204 76.2437324,27.0310051 78.2465493,28.6922184 C85.5880986,34.7833339 96.3859859,37.4780501 105.584577,34.6015726 C112.349366,32.4880697 118.127535,26.7668172 119.724718,19.8789112 C119.346549,20.0141753 118.93669,20.0353104 118.547958,19.8958192 C116.722471,19.2447932 116.026454,17.2489275 115.328228,15.5802149 L115.294437,15.4997331 C114.612042,13.8829033 114.039507,12.2407115 113.587394,10.5456822 C113.131268,8.83374481 112.862746,7.0266998 112.750775,5.25981135 C112.707561,4.56120256 112.726575,3.86259377 112.762689,3.16398498 L112.794761,2.58633159 C112.819438,2.06290802 112.811761,1.52806967 113.251479,1.18286419 Z M83.5494718,-3.52813386 C83.5748239,-3.59153894 83.6741197,-3.62535499 83.7121479,-3.54926888 C85.3281338,-0.214161252 84.2677817,4.35523209 82.7401056,7.53605401 C81.1410211,10.8627076 78.7325704,13.3862301 75.8783451,15.5694787 C75.4853873,15.8695961 75.0816549,16.1654865 74.672007,16.4550364 C72.2908099,18.1373847 70.1696831,13.6018074 72.9184859,12.7352712 C75.7832746,11.2790677 78.1114437,8.68368611 79.7295423,5.95726732 C80.6044014,4.48415577 81.3797535,2.94975264 81.9734155,1.33926341 C82.5649648,-0.266998826 82.9198944,-1.93877965 83.5494718,-3.52813386 Z" id="ðŸ–-Ink" fill="#000000"></path>
                    </g>
                    <g id="head/Twists" transform="translate(78.591549, 38.043053)" fill-rule="evenodd">
                        <path d="M14.3604718,21.6423757 C15.4561056,20.4662114 16.8574437,19.589953 18.3893451,19.3099139 C16.9890634,20.0096947 15.6202606,20.7390646 14.3604718,21.6423757 Z M12.2144155,31.7838082 C12.0206831,30.8874716 11.8905423,29.9824697 11.8495563,29.0776791 C12.0944155,29.4500783 12.4854718,29.6988376 12.9246972,29.8273386 C12.6409648,30.4628689 12.3996972,31.1176321 12.2144155,31.7838082 Z M85.5285319,45.8371895 C84.263884,40.5709742 78.3636321,30.4415557 76.9690772,28.491929 C75.454711,23.6644769 83.7139225,19.7930607 79.222162,16.0181331 C77.1885,14.3148611 74.5007535,13.71209 71.9794859,13.1080509 C54.5224437,8.91401566 35.7665282,11.0292094 19.5758239,18.741593 C17.1130775,18.2231507 14.5472324,19.236364 12.7563169,21.0159335 C4.34258451,29.475863 15.8089225,44.7400039 18.3162465,54.2773973 C22.6180775,64.91191 13.756669,66.7007789 14.7069507,75.6985949 C15.445331,80.3470333 20.1517394,81.5756125 24.1233592,82.2781409 C24.7599085,82.4271429 25.6108944,82.449546 25.8162465,83.1226967 C26.4597676,87.05191 28.6658239,90.7964031 31.6275845,93.3376791 C31.3685704,94.1053033 31.5663169,95.0371468 32.4796268,95.7113542 C40.7545563,101.863127 51.188454,104.941743 61.5092746,104.388341 C73.8088731,103.728836 80.1694859,96.6763796 81.7043451,94.8604579 C90.1907535,83.3953386 89.1767153,68.2681526 87.4455886,54.6045675 C86.2396513,45.0862424 87.7688415,55.1662312 85.5285319,45.8371895 Z" id="ðŸŽ¨-Background" fill="#FFFFFF"></path>
                        <path d="M47.6031761,2.01659883 C47.9897958,0.807675147 49.084162,0.080630137 50.3369789,0.230688845 C51.4461338,0.361726027 52.6334577,1.46286106 52.4982465,2.67812524 C52.4728944,2.91272407 52.4390915,3.13252838 52.3989507,3.33965166 L52.4042324,3.34150098 L52.4042324,3.34150098 L52.4095141,3.34176517 L52.3820493,3.42207828 C52.2996549,3.80884932 52.1855704,4.1554638 52.0165563,4.48305675 C51.8010634,5.11076712 51.5940211,5.740591 51.3890915,6.37252838 C51.6848662,6.35984736 51.9869789,6.37675538 52.2933169,6.43381996 C52.6102183,5.62223483 52.9292324,4.81276321 53.2461338,3.99906458 C53.5862746,3.13041487 53.825007,2.01448532 54.496838,1.34239139 C55.3566972,0.484309198 56.8482465,0.306774951 57.8961338,0.919690802 C59.0031761,1.5664227 59.3982465,2.7161683 59.1574014,3.94834051 C59.0350119,4.57685255 58.6152299,5.01424965 58.0958192,5.28906656 L58.0397958,5.31789041 L57.6405,6.26473973 C57.7630352,6.21190215 57.8897958,6.16329159 58.0271197,6.12313503 C58.2426127,6.05972994 58.4538803,6.01957339 58.6609225,6.00266536 C59.2313451,4.96916243 59.8588099,3.96524853 60.5074014,2.98035616 C61.2531761,1.84751859 62.7109225,1.36563992 63.934162,2.08211742 C65.0285282,2.72250881 65.6158521,4.40485714 64.8320493,5.51021918 C64.2362746,6.34927984 63.6721901,7.20524853 63.1165563,8.06967123 C63.2116268,8.08657926 63.3066972,8.10771429 63.3975423,8.13518982 C63.4397958,8.07812524 63.484162,8.02106067 63.5306408,7.96399609 C64.1369789,7.21158904 64.8426127,6.64728376 65.5672606,6.02168689 C66.2454296,5.43413307 66.5581056,4.51053229 67.4496549,4.06458317 C68.5714859,3.50450489 69.9235986,3.77291977 70.5912042,4.88884932 C72.0235986,7.27922114 69.6193732,9.02497456 68.0813451,10.4727241 C69.418669,9.63789041 70.8109225,8.87491585 72.2390915,8.21550294 C73.0419085,7.84563992 73.8574014,7.48845793 74.6855704,7.1798865 C75.9130352,6.72336986 76.905993,6.86941292 77.9137394,7.71882975 C78.3637394,8.09926027 78.5876831,8.93007828 78.3806408,9.4836047 C77.9792324,10.5445832 77.3454296,11.1892016 76.234162,11.4956595 C75.4524718,11.7112368 74.6517676,11.8570685 73.8700775,12.0832133 C72.5602183,12.4594168 71.2883873,12.918047 70.0545845,13.4908063 C70.1433169,13.5457573 70.2278239,13.6049354 70.305993,13.6725675 C71.2271197,13.3745636 72.1651479,13.1167162 73.1074014,12.8969119 C74.6701215,12.5303513 76.2606942,12.2826751 77.8582301,12.1277615 L78.3889553,12.0783363 C80.3041947,11.8944699 82.6072757,11.5551395 83.7827535,13.3893581 C84.1693732,13.99382 84.2116268,14.9913933 83.7827535,15.5895147 C82.9630352,16.7392603 82.1475423,16.9675186 80.7912042,16.9886536 C82.1264155,17.1302583 83.4595141,17.3056791 84.7862746,17.5106888 C85.7007616,17.65018 86.6152485,17.8083046 87.5257441,17.9837315 L87.9806408,18.0728806 C89.0897958,18.2947984 90.3278239,18.4237221 91.2806408,19.066227 C93.3595141,20.469593 92.3834577,23.2023523 90.0806408,23.4940157 C88.9672606,23.6335068 87.7313451,23.1621957 86.6390915,22.9423914 C85.5785282,22.7289276 84.5137394,22.5408258 83.4447254,22.3759726 C82.8912042,22.289319 82.3376831,22.2132329 81.7820493,22.1434873 C82.912331,22.306227 84.034162,22.5365988 85.1264155,22.8620783 L85.429814,22.9536668 C87.5413939,23.5974607 90.3916464,24.6228228 91.0503592,26.8798474 C91.4496549,28.2515108 90.3574014,29.4477534 89.0348662,29.5280665 C87.8052887,29.6020391 86.7806408,28.8686536 85.7369789,28.3275969 C84.9764155,27.9344853 84.2031761,27.6407084 83.3834577,27.3892016 C82.5362746,27.1292407 81.6721901,26.9136634 80.8017676,26.7382427 C81.537363,27.143651 82.2537522,27.5892333 82.9414116,28.0876928 L83.2575058,28.3213071 C85.0852682,29.683721 87.8724296,31.7930231 87.2285282,34.3468532 C87.0257113,35.1520978 86.1278239,35.9214129 85.2658521,35.8389863 C83.0221901,35.6297495 81.784162,33.2393777 80.0919085,31.9585949 C79.6503592,31.6246614 79.1665563,31.294955 78.6595141,30.9737025 C81.2243028,34.0340548 83.2651479,37.5720587 84.8179648,41.2263053 C88.2306696,49.2656176 89.2776156,56.7106704 89.3027238,65.354743 L89.3031761,65.6224697 C89.3074014,70.3905323 89.1996549,75.2452485 88.7348662,79.9921761 C88.3038803,84.3776947 87.5137394,88.7061487 85.5257113,92.6776321 C82.1940211,99.3370685 75.7017676,104.523605 68.5419085,106.497616 C60.575007,108.695659 51.6700775,106.977382 45.1440211,101.904975 C43.4792324,100.611511 45.6869789,97.8028767 47.3876831,98.9967945 C54.1799366,103.762744 62.9644437,105.271785 70.7602183,102.046579 C76.9440211,99.4892407 81.9235986,93.9877926 84.034162,87.6536243 C85.3775484,83.6239552 85.768658,79.3273017 86.2478487,75.1277334 L86.2799366,74.84791 C86.7869789,70.4560509 87.0806408,66.0346027 87.0764155,61.6131546 C87.0700775,53.4021957 85.8912042,46.6432133 82.2806408,39.195229 C80.5820493,35.6868141 78.3785282,32.4427984 75.7461338,29.5956986 C74.9475423,29.7584384 74.0982465,29.53018 73.2912042,29.4435264 C72.8792324,29.3991429 72.4672606,29.3568728 72.0552887,29.3188297 C72.4761338,29.5910489 72.8888662,29.8740892 73.2945676,30.1637304 L73.8266813,30.5475954 C75.4918114,31.7405586 77.6043967,33.0993699 77.1764155,35.4057182 C77.0602183,36.0292016 76.4390915,36.6019609 75.8369789,36.7435656 C73.6545845,37.2634873 72.1545845,35.1415303 70.6799366,33.8818826 C69.3975423,32.7870881 68.055993,31.8064227 66.6890915,30.8236438 C66.3785282,30.601726 66.0658521,30.3798082 65.7510634,30.1600039 C66.046838,30.5049276 66.3345,30.8552618 66.615131,31.2088424 L67.0300299,31.7349104 C68.2854842,33.3063719 70.0952872,35.3489684 68.9771197,37.3860705 C68.6602183,37.9609432 67.984162,38.3434873 67.3292324,38.3308063 C65.0771197,38.2843092 64.1813451,35.7269706 63.125007,34.1122544 C62.2165563,32.72791 61.2299366,31.4238787 60.2095141,30.1198474 C59.9285282,29.7626654 59.6454296,29.4054834 59.3581056,29.0483014 C54.6278239,29.2934677 49.9144437,29.9190646 45.2834577,30.9187515 C42.1017676,31.6056399 38.9728944,32.495636 35.8672606,33.4697495 L35.6091638,33.5518868 C33.9284184,34.0932467 32.1966663,34.786101 30.9848662,35.9742505 C30.8118803,36.7928524 30.9446713,37.6561761 31.11015,38.4737048 L31.2391225,39.0994587 C31.770507,41.7161202 32.1325775,44.2843327 31.8616268,46.9708063 C31.5806408,49.7416086 30.7461338,52.2334286 29.7278239,54.8076751 C29.2461338,56.0208258 28.7475423,55.8010215 28.5764155,57.1029393 C28.4453239,58.0945949 28.5264032,59.1183176 28.615954,60.1182954 L28.6907906,60.966026 C28.8786062,63.1866804 28.972916,65.6077792 27.5179648,67.4400822 C27.2919085,67.7211781 26.8081056,67.6091624 26.6475423,67.3280665 C26.584162,67.2160509 26.5165563,67.1082622 26.4426127,67.0047006 C25.7412042,65.9881057 24.6658521,65.4090059 23.4362746,65.1849746 C23.2799366,65.157499 23.3412042,64.9482622 23.4721901,64.9313542 C24.5116268,64.808771 25.4961338,65.0687319 26.3327535,65.6055616 C25.9360126,64.2331364 22.8645484,64.900573 21.8548501,65.1672778 L21.8200775,65.1765205 C20.5609225,65.514681 19.3693732,66.0641918 18.3193732,66.8419609 C16.2066972,68.405953 14.9855704,70.8449354 15.046838,73.4720196 C15.1081056,76.0547202 16.4412042,78.440865 18.7313451,79.6772642 C19.8362746,80.273272 21.0933169,80.5607084 22.3440211,80.5480274 C23.6496549,80.5353464 24.8116268,79.9625871 26.1193732,80.0429002 C26.8757113,80.0893973 27.4545845,80.9009824 27.0172606,81.6090059 C26.7257113,82.0824305 26.3454296,82.454407 25.905993,82.7397299 C26.9771197,85.2104149 28.3440211,87.5669706 29.9200775,89.7417652 C30.7926127,90.9485753 31.7813451,92.0623914 32.8693732,93.0789863 C33.718669,93.8736634 35.5588099,94.7930372 35.4552887,96.1182035 C35.4193732,96.5958552 35.1721901,96.8875186 34.7369789,97.0650528 C33.3839085,97.6184243 31.7386187,95.7129888 30.8336179,94.7943866 L30.7609225,94.7211781 C29.6327535,93.5967945 28.6038803,92.3540548 27.7081056,91.035229 C26.1193732,88.6934677 25.1327535,86.0537025 24.725007,83.2807867 C22.5552887,83.9338591 19.6820493,83.3209432 17.9116268,82.5199256 C12.346838,80.0048571 10.5278239,72.5082622 13.9102183,67.5161683 C14.5651479,66.5502975 15.3848662,65.7239178 16.318669,65.0560509 C16.1137394,64.9440352 15.9214859,64.800317 15.7503592,64.6185558 C14.8037178,63.6126097 14.1344432,62.2998773 13.4702022,61.0899582 L13.3905,60.9452877 C12.8008286,59.8800822 12.2445428,58.7981774 11.7231262,57.6995734 L11.5292324,57.2868141 C10.3651479,54.7823131 9.34472535,53.6875186 8.51444366,51.0540939 C7.71585211,48.5136634 7.08627465,45.9246223 6.67852817,43.2911977 L6.57017387,42.5941462 C6.33435915,41.066083 6.11134507,39.4320822 6.28345775,37.8806301 C5.09824648,38.2674012 3.90669718,38.506227 2.73416197,37.9250137 C1.96092254,37.5424697 1.53416197,36.4265401 1.79824648,35.6255225 C1.9905,35.0358552 2.31162676,34.572998 2.71937324,34.2094755 C2.47641549,34.0868924 2.24824648,33.9304932 2.04754225,33.7571859 L1.87219014,33.605225 L1.87219014,33.605225 C1.16233099,32.9878708 1.11162676,31.8148767 1.54261268,31.0413346 C1.5848662,30.967362 1.62711972,30.8912759 1.66726056,30.8173033 C2.07711972,30.0839178 2.92430282,29.6041526 3.76092254,29.6168337 C3.8961338,29.6189472 4.03134507,29.6189472 4.16866901,29.6168337 C3.77782394,29.53018 3.39542958,29.3970294 3.0320493,29.172998 C1.39261268,28.1648571 1.59965493,25.4320978 3.58345775,24.9502192 C4.41585211,24.7494364 5.3348662,24.831863 6.25176761,25.0474403 C6.21796479,25.0284188 6.18416197,25.0093973 6.15035915,24.9882622 C5.45740141,24.5634481 4.87641549,23.7328415 4.94190845,22.8810998 C5.01373944,21.9384775 5.31796479,21.2663836 6.15035915,20.7718239 C6.87289437,20.3448963 7.89542958,20.3047397 8.61373944,20.7718239 C9.23697887,21.1797299 9.84754225,21.6299061 10.4348662,22.1138982 C9.84542958,21.3889667 9.33416197,20.6006301 9.12711972,19.763683 C8.87148592,18.721726 9.29824648,17.586775 10.2362746,17.0372642 C10.984162,16.5997691 11.7743028,16.6483796 12.4799366,16.9865401 C12.4419085,16.4391429 12.575007,15.8811781 12.9383873,15.3866184 C13.6820493,14.3723483 15.034162,13.7888102 16.2109225,14.5285362 C16.3651479,14.6257573 16.5721901,14.7927241 16.7728944,14.9977339 C16.3820493,13.7528806 16.7348662,12.4467358 18.0679648,11.884544 C18.8813451,11.5400431 19.9820493,11.7133503 20.6876831,12.3072446 C20.2397958,9.88305675 23.8165563,8.10137378 25.2066972,10.6058748 C25.5221901,11.1732329 25.8343445,11.7706497 26.1134844,12.3817971 L26.2165563,12.611589 L26.2271197,12.607362 L26.156081,12.4393386 L26.156081,12.4393386 L26.0834577,12.2713151 C25.696838,11.3730763 25.2045845,10.438908 25.0693732,9.46458317 C24.8707817,8.02317417 25.5130352,6.65573777 27.0806408,6.44438748 C27.8897958,6.33448532 28.7897958,6.70223483 29.3327535,7.34495108 C29.0390915,5.10865362 31.5362746,3.48336986 33.334162,5.15303718 C34.1855704,5.94348728 34.6397958,7.09957339 35.1806408,8.11405479 C35.4869789,8.68681409 35.7996549,9.25745988 36.105993,9.83233268 C36.184162,9.73933855 36.268669,9.64634442 36.3574014,9.5554638 C35.9031761,8.19436791 35.5503592,6.79945597 35.2524718,5.39609002 C34.9693732,4.07303718 35.6306408,2.69926027 36.9954296,2.3253816 C38.2355704,1.98278278 39.7883873,2.74808219 40.0651479,4.06902153 C40.2595141,4.99875147 40.4897958,5.91833659 40.7433169,6.83327202 C40.9165563,6.79100196 41.0876831,6.76141292 41.2566972,6.74027789 C41.2707817,6.56837965 41.2867441,6.39554207 41.3045845,6.22364384 L41.3710807,5.61227044 C41.5188212,4.21536419 41.6678351,2.62072695 42.3975423,1.43327202 C43.6419085,-0.595690802 46.8320493,0.245483366 46.8658521,2.6443092 C46.8848662,3.88493542 46.3799366,5.11499413 46.2045845,6.34293933 C46.1285282,6.87765558 46.084162,7.41871233 46.0588099,7.95976908 C46.3989507,6.16329159 46.8658521,4.39006262 47.4066972,2.6443092 C47.4700775,2.43507241 47.5376831,2.22583562 47.6031761,2.01659883 Z M20.0792113,71.2930614 C22.878507,70.8597933 25.4369577,72.421672 27.0954085,74.6091476 C27.3975211,75.0085996 27.1989296,75.5729049 26.9263944,75.9089519 C26.7299155,76.1562317 26.465831,76.1858207 26.1679437,76.2238638 C25.8256901,76.2682474 25.3925915,75.9913785 25.2425915,75.6933746 C24.1756901,73.5629636 22.272169,72.2166622 20.0792113,71.3881691 C20.0390704,71.3733746 20.0263944,71.3015155 20.0792113,71.2930614 Z M23.9597369,33.1222551 L24.0445141,33.0311977 C24.6109225,32.4434325 23.7157817,31.5456164 23.1481056,32.1346497 C22.5504296,32.7547515 22.1532465,33.5080039 21.7712746,34.2714012 C21.4072606,34.9992916 22.5003592,35.6422192 22.8658521,34.9115812 L23.0322831,34.5794951 C23.2934913,34.0631298 23.5720596,33.5529867 23.9597369,33.1222551 L23.9597369,33.1222551 Z M16.0983169,31.9159022 C16.9011338,31.780638 16.5607817,30.5583992 15.7613451,30.6932407 C14.7257113,30.867816 13.6940915,31.066274 12.6582465,31.2410607 C11.8556408,31.3763249 12.195993,32.5985636 12.9954296,32.4639335 C14.0310634,32.2891468 15.0626831,32.0906888 16.0983169,31.9159022 Z M63.9225423,23.5715812 C63.1469789,23.3126771 62.8142324,24.5370294 63.5855704,24.794454 C64.6514155,25.1501566 65.7085986,25.5147358 66.7197254,26.0086614 C67.4500775,26.3654207 68.0933873,25.2721057 67.3594437,24.9136556 C66.2496549,24.3715421 65.0925423,23.9621566 63.9225423,23.5715812 Z M15.9157817,21.9281213 C15.1583873,21.625045 14.8294437,22.8510881 15.5788099,23.1509941 L18.316838,24.2464227 L18.316838,24.2464227 C19.0742324,24.549499 19.4031761,23.3236673 18.6538099,23.0237613 L15.9157817,21.9281213 L15.9157817,21.9281213 Z M73.4832385,18.9507178 L73.3833169,18.887636 C72.6966972,18.4425323 72.0605704,19.539863 72.7433873,19.9826419 C73.1442606,20.2424337 73.6316315,20.4186397 73.9986909,20.7281165 L74.0754296,20.7965519 C74.6682465,21.3566301 75.5663451,20.461773 74.971838,19.8997926 C74.5368908,19.4890465 73.9862623,19.2603423 73.4832385,18.9507178 L73.4832385,18.9507178 Z" id="ðŸ–-Ink" fill="#000000"></path>
                    </g>
                    <g id="face/Fear" transform="translate(112.183099, 77.354207)" fill="#000000" fill-rule="evenodd">
                        <path d="M42.1949366,43.5223303 L42.3692795,43.5133002 C43.5589843,43.4456548 44.7141652,43.2716492 45.7767676,43.9384791 C47.1893028,44.8246708 47.1956408,46.8401072 45.7767676,47.7246082 C44.6604296,48.4210074 43.447331,48.1923264 42.1949366,48.1597785 C41.1635282,48.132937 40.1319085,48.1143382 39.1002887,48.1033479 C37.0385282,48.0817902 34.9780352,48.0767178 32.9160634,48.087074 C31.0558257,48.0963205 29.1939705,48.0744986 27.3341777,48.0296787 L26.5372606,48.0090857 C24.6297254,47.9566708 22.6324014,48.0226121 20.7533873,47.6510583 L20.6726831,47.6371092 L20.675007,47.6330935 L20.675007,47.6330935 C20.3494437,47.5236141 20.1772606,47.0043264 20.5664155,46.8238333 C22.4308521,45.9591992 24.562331,45.5967335 26.5645141,45.1854458 C28.591838,44.7695084 30.6540211,44.4689683 32.7100775,44.2335241 C34.7633873,43.9989252 36.8316972,43.8332266 38.8943028,43.7015554 C39.9937394,43.6309644 41.0942324,43.5728431 42.1949366,43.5223303 Z M35.955507,16.9511389 L36.0914675,16.8600321 C37.5847882,15.8736429 39.7305627,14.9238701 41.4512113,15.672681 C41.5483944,15.7149511 41.6305775,15.7701135 41.7019859,15.8335186 C42.1243099,15.8417613 42.5493803,15.8768454 42.9757183,15.9410959 C46.3439577,16.4489706 49.4563521,18.6603288 50.9781127,21.7048297 C52.7077606,25.1652681 51.8861408,28.8119061 48.825507,31.1655029 C47.3217042,32.3218004 45.5544507,33.1543092 43.6519859,33.3419883 C43.0300141,33.4032798 42.3708592,33.4153268 41.7738169,33.2268023 C42.056493,33.828728 42.2715634,34.4579178 42.3822676,35.1215577 C42.7610704,37.3935734 41.8602254,39.2669824 39.7448028,40.2480705 C37.8858592,41.110591 35.3130423,41.4411429 33.4745915,40.3524775 C31.920507,39.432681 32.4294507,36.387546 34.4743099,36.6603992 C35.8547324,36.8444853 37.0990986,37.3054403 38.4632535,36.7166184 C39.5751549,36.2370646 38.9005775,34.6183327 38.565507,33.7668023 C38.0049768,32.3437435 37.1800126,31.0039962 36.5110492,29.6222793 L36.3875493,29.3626849 C35.9669155,28.4616986 35.4444507,27.5097769 35.0445211,26.5388337 C34.8243803,27.6792798 34.4295211,28.7983796 33.9643099,29.8344188 C32.8602254,32.2928454 30.7230423,33.7970254 28.1766338,34.501456 C25.5586056,35.2253307 22.4861408,35.3933542 19.7869859,35.3043757 C17.0417746,35.2141292 14.1516338,34.4944814 12.1431127,32.5039843 C8.46367606,28.8575577 9.52043662,22.4777378 13.392338,19.4298552 C15.8969155,17.4581683 19.4259296,16.1070059 22.6667746,16.457002 C24.2901549,16.0915773 26.1057887,16.2991233 27.7300141,16.6672955 C29.9276197,17.1654481 32.0257183,18.2317104 33.462338,19.92991 C33.5688169,19.6627632 33.6917746,19.406818 33.8324789,19.1624971 C33.7690986,19.1333307 33.7298028,19.0394912 33.792338,18.983272 C33.9068451,18.8803444 34.0245211,18.7816438 34.1421972,18.6827319 C34.6101549,18.0262779 35.2145915,17.4545753 35.955507,16.9511389 Z M9.33198592,34.0413252 C9.19973239,33.8536462 9.45832394,33.6101706 9.6438169,33.7295836 C11.1636761,34.7100376 12.7547324,35.6013018 14.4974789,36.1208008 C16.1998732,36.6282528 17.969662,36.575838 19.679662,37.0095288 C20.322338,37.1724798 20.2202958,38.0083703 19.679662,38.2131687 C17.7976901,38.9266873 15.6742394,38.3279319 13.8862817,37.5706638 C12.072338,36.8026168 10.4755775,35.6602685 9.33198592,34.0413252 Z M19.5324085,18.3790215 L19.577831,18.3242818 L19.577831,18.3242818 L19.467338,18.3610568 L19.467338,18.3610568 C17.337338,19.0783796 15.5833944,20.2610959 14.1577606,21.9876164 C11.7281831,24.9298239 11.6992394,29.6080626 15.3321972,31.5964462 C17.2908592,32.6682035 19.6029718,32.7187162 21.7777606,32.6052211 L22.217586,32.5816819 C24.1267912,32.4763697 26.0751097,32.3201096 27.9174085,31.8035695 C29.9267746,31.2401096 31.322831,30.0252681 32.0916338,28.0675303 L32.1554632,27.9024295 C32.9223498,25.8873537 33.3217099,23.6464147 31.8979014,21.8225519 C29.4860704,18.7332446 23.9130423,18.1161018 20.4685352,19.5928063 C19.6435352,19.9463953 18.9814225,19.0834521 19.5324085,18.3790215 Z M41.6377606,17.5501057 C41.580507,17.6059022 41.5192394,17.6568376 41.4512113,17.6980509 C40.7597324,18.1129315 39.9820563,18.1171585 39.2155775,18.3073738 C38.5095211,18.4825832 37.8184648,18.6964697 37.1686056,19.0272329 C36.1477606,19.5460978 35.0950141,20.1668337 34.1299437,20.8437886 C34.3367746,21.1743405 34.5218451,21.5232798 34.680507,21.8927202 C35.1186761,22.9137534 35.2663521,23.9888924 35.2202958,25.0684697 C35.8927606,25.6505284 36.4549437,26.3744031 37.0500845,27.0285323 L37.575057,27.6062295 C38.1872963,28.2818682 38.7954601,28.9650646 39.3651549,29.6742153 C39.7038169,30.0956477 40.0475493,30.527225 40.3777606,30.9714834 C40.4210704,30.8389667 40.4821268,30.7091977 40.5676901,30.5859804 C40.8894507,30.1218552 41.3861408,29.8874677 41.9538169,30.0216751 C42.4507183,30.1396086 42.782831,30.3644853 43.3019155,30.3678669 C43.9376197,30.3720939 44.5502958,30.2351389 45.1519859,30.0387945 C46.334662,29.6528689 47.4936761,28.9594286 48.3586056,28.0611898 C50.3107183,26.0332838 49.2807887,23.1756164 47.7579718,21.2438748 C46.215507,19.2869824 44.0003662,18.0163444 41.6377606,17.5501057 Z M24.2521056,22.4209268 C24.8787254,22.240011 25.8110493,22.5253339 26.0867535,23.1678387 L26.2845,23.6355569 C26.2783732,23.6216078 26.2735141,23.610829 26.2678099,23.5981479 C26.3377394,23.7638466 26.4047113,23.9238387 26.4583732,24.0937644 L26.6436549,24.2374826 L26.6436549,24.2374826 C26.8018944,24.4131147 26.9483028,24.5984689 27.082669,24.7939679 C27.4004155,25.3371382 27.4925282,26.032692 27.3298521,26.6413808 C27.061331,27.6471969 26.1380915,28.292872 25.1138662,28.299094 C22.1157676,28.3167546 21.3809789,23.2502654 24.2521056,22.4209268 Z M42.3387465,21.5105566 C43.7240282,21.4486309 44.6466338,22.6725605 44.7571268,23.9298834 C44.8200845,24.6455155 44.6753662,25.4279342 44.4702254,26.1122865 C44.1643099,27.1333198 43.1916338,27.7730771 42.1429014,27.6323178 C41.3081831,27.5200908 40.5708592,26.8851945 40.3627606,26.069171 C40.0885352,25.3962317 39.9336761,24.6558716 39.9203662,23.9298834 C39.8950141,22.5742826 41.0485352,21.5682552 42.3387465,21.5105566 Z M24.0581197,10.197081 C25.4630493,9.9705135 26.8052324,10.6535977 27.0095282,12.1641182 C27.2153028,13.6877425 26.0936831,14.6946153 24.6868521,14.8442513 C22.0345986,15.1261926 19.3265704,15.1931906 16.6616408,15.3096446 C15.5501318,15.3580136 14.4372258,15.3785879 13.3246524,15.3884037 L12.7684014,15.3924939 C11.7336127,15.3986231 10.3842465,15.6029988 9.44917606,15.0934333 C9.38833099,15.0604626 9.39065493,14.9854333 9.4293169,14.9380908 C10.0863885,14.1287072 11.4449835,13.7837929 12.4161342,13.4273084 L12.4984014,13.3967131 C13.7277676,12.9327992 14.9708662,12.4984744 16.2304437,12.1224822 L16.8704915,11.9325301 C19.2237521,11.2391642 21.6452852,10.5868814 24.0581197,10.197081 Z M32.9762958,9.45602348 C33.8446056,9.12948728 34.701507,9.33301761 35.292,9.88527593 C37.2667711,10.4352975 39.2990599,10.8567417 41.2866719,11.3382863 L41.8275634,11.4712485 C44.3192535,12.0932524 47.0572817,12.5725949 49.3744648,13.7128297 C49.6203803,13.8339335 49.4657324,14.148 49.2493944,14.1744188 C46.6681268,14.4880626 43.8872113,13.9894873 41.3209437,13.6893699 C38.6917183,13.3818552 36.0491831,12.8746145 33.4121408,12.6759452 C31.5193944,12.5332838 31.2443239,10.1076164 32.9762958,9.45602348 Z" id="ðŸ–-Ink"></path>
                    </g>
                    <g id="facial-hair/*-None" transform="translate(104.577451, 109.479380)"></g>
                    <g id="accessories/*-None" transform="translate(88.521127, 88.978474)"></g>
                </g>
            </g>
        </g>
    </g>
</svg>