<?xml version="1.0" encoding="UTF-8"?>
<svg width="240px" height="324px" viewBox="0 0 240 324" version="1.1" xmlns="http://www.w3.org/2000/svg" xmlns:xlink="http://www.w3.org/1999/xlink">
    <!-- Generator: Sketch 62 (91390) - https://sketch.com -->
    <title>peep-5</title>
    <desc>Created with Sketch.</desc>
    <g id="Introduction" stroke="none" stroke-width="1" fill="none" fill-rule="evenodd">
        <g id="variations" transform="translate(-126.000000, -1406.000000)">
            <g id="images" transform="translate(126.000000, 110.000000)">
                <g id="a-person/bust" transform="translate(0.000000, 1296.000000)">
                    <g id="body/Sweater-Dots" transform="translate(31.056338, 135.052838)" fill-rule="evenodd">
                        <path d="M24.9119215,152.753119 C31.9614243,152.774919 38.8112317,153.016339 45.8805383,153.039931 C74.6169435,153.135834 103.617783,152.996234 132.458423,151.830884 C140.609878,151.501511 142.644634,151.509615 150.760907,150.998518 C155.55309,150.981352 169.947978,150.584892 169.227344,144.055187 C168.909175,131.893552 165.899245,119.783413 164.951288,107.654661 C163.131851,84.8537412 161.582414,61.3397302 152.446147,40.0138 C150.331358,34.9208245 145.789527,31.5903089 141.293541,28.5954506 C136.784668,25.3646189 135.678106,21.7774763 131.516768,18.1276415 C130.636855,17.3558127 125.640149,17.0417296 122.951731,15.0841549 C119.038711,12.2348842 117.098184,7.56998909 115.63826,6.77585798 C114.563964,6.19161142 114.583622,2.16045402 112.430433,0.73365108 C109.541028,-1.18100267 100.333391,-2.60465811 96.9834791,-2.87093114 C93.7681796,-3.12650432 88.1757182,-2.58966651 85.1590153,-1.41185023 C80.1282454,0.552321601 78.1217209,4.2990663 75.9062173,9.12608026 C46.6357243,18.1760078 19.8818511,33.50064 11.5731187,64.411316 C4.40797787,90.3361455 4.14537223,118.129116 6.9134004,144.717609 C7.4671328,146.661857 7.07903421,149.709866 8.75861167,150.998518 C2.92171026,151.333555 24.1200905,152.53762 24.9119215,152.753119 Z" id="ðŸŽ¨-Background" fill="#FFFFFF"></path>
                        <path d="M158.045007,127.154804 C157.491063,126.878146 156.913669,126.561755 156.281134,126.539775 C155.194796,126.501943 155.193317,124.810929 156.281134,124.848972 C157.229937,124.882154 158.063176,125.277802 158.898106,125.694796 C159.872261,126.181324 159.015359,127.639219 158.045007,127.154804 M156.281134,79.562522 C157.022472,79.5631562 157.769725,79.6567843 158.339092,80.175438 C158.677542,80.4840094 158.650711,81.0590935 158.339092,81.3710466 C158.0055,81.704346 157.481134,81.6783499 157.143739,81.3710466 C157.25381,81.4710153 157.144796,81.371892 157.104866,81.3497002 C157.095359,81.3446278 157.090077,81.3410348 157.087542,81.33871 C157.079092,81.3365965 157.070641,81.3349057 157.056908,81.3313127 C156.968599,81.3091209 156.881345,81.2873519 156.791979,81.2712892 C156.7905,81.2755162 156.603317,81.2588196 156.559373,81.2571288 C156.466415,81.2537472 156.37388,81.2533245 156.281134,81.2533245 C155.822683,81.2531131 155.436063,80.8667648 155.436063,80.4079233 C155.436063,79.9514067 155.824373,79.5623108 156.281134,79.562522 M148.334303,98.5282521 C148.09219,99.5902873 146.463106,99.1379977 146.704585,98.07871 C147.055711,96.5386004 146.991697,94.9606591 146.704585,93.4150544 C146.506838,92.3498489 148.135923,91.8973479 148.334303,92.9657237 C148.678669,94.8196885 148.755782,96.6802051 148.334303,98.5282521 M146.199655,37.7629292 C144.940923,37.4638685 143.695923,37.4283616 142.408458,37.4279389 C141.319162,37.4275162 141.320852,35.7367139 142.408458,35.7371365 C143.844444,35.7375593 145.246204,35.7992736 146.649021,36.132573 C147.708317,36.3842912 147.257049,38.0140133 146.199655,37.7629292 M141.981908,78.9466474 C141.251979,78.5814341 140.521627,78.2162207 139.791697,77.8510074 C138.817331,77.363845 139.674444,75.9059507 140.644585,76.3909996 L142.835007,77.4868509 C143.808951,77.9740133 142.952049,79.4319076 141.981908,78.9466474 M141.677894,112.242984 C140.751908,113.578506 139.449866,114.408268 137.887331,114.822726 C136.833106,115.102342 136.387331,113.470929 137.437965,113.192369 C138.555359,112.896056 139.548106,112.356479 140.218458,111.389551 C140.834725,110.500612 142.299232,111.346859 141.677894,112.242984 M135.837824,52.7132149 C135.587261,52.2448626 135.210148,52.0470387 134.741979,52.0364712 C133.654373,52.0115319 133.654162,50.3207295 134.741979,50.3456689 C135.80888,50.3697628 136.787261,50.9057472 137.297049,51.8599937 C137.810218,52.8201581 136.35057,53.6733793 135.837824,52.7132149 M125.117683,64.2060211 C124.814725,64.5361503 124.22719,64.5279076 123.922542,64.2060211 C123.735993,64.0090427 123.579232,63.789027 123.455852,63.5478763 C123.408951,63.4563616 123.364796,63.3631562 123.313246,63.2741777 C123.290218,63.2346552 123.264655,63.195344 123.238458,63.157301 C123.229585,63.149481 123.211204,63.1304595 123.19219,63.1103812 C122.867472,62.766937 122.875711,62.2599076 123.19219,61.9147726 C123.495359,61.5846434 124.082894,61.5928861 124.387542,61.9147726 C124.57388,62.1117511 124.730852,62.3317667 124.854021,62.5729174 C124.900923,62.6644321 124.945077,62.7576376 124.996838,62.8468274 C125.019866,62.8863499 125.04543,62.9254497 125.071627,62.9634928 C125.0805,62.9713127 125.098669,62.9903342 125.117683,63.0104125 C125.442613,63.3538568 125.434373,63.8608861 125.117683,64.2060211 M124.216415,89.17262 C123.115711,89.6764791 121.908528,89.6764791 120.807824,89.17262 C120.390993,88.9817706 120.29212,88.3796337 120.504866,88.0158998 C120.751204,87.5944673 121.246204,87.5228196 121.660923,87.7126121 C122.160148,87.9410818 122.864937,87.9408705 123.363528,87.7126121 C123.780148,87.5219742 124.270289,87.5896063 124.519585,88.0158998 C124.733599,88.3819585 124.631556,88.982616 124.216415,89.17262 M121.214092,106.844675 C121.025007,107.292526 120.616627,107.530506 120.139162,107.548683 C119.666134,107.566647 119.313951,107.146906 119.294092,106.703281 C119.281415,106.41669 119.436275,106.171735 119.658739,106.019986 C119.658951,106.004346 119.659373,105.988706 119.659373,105.972855 C119.659585,105.499007 120.046415,105.147955 120.504444,105.127454 C120.96057,105.106953 121.349725,105.53071 121.349514,105.972855 C121.349303,106.271281 121.330923,106.567383 121.214092,106.844675 M116.853528,134.939681 C115.504796,134.96145 114.186908,135.282914 112.837965,135.304894 C111.748035,135.322436 111.751415,133.631634 112.837965,133.614092 C114.186697,133.592111 115.504585,133.270647 116.853528,133.248878 C117.943458,133.231125 117.940077,134.921927 116.853528,134.939681 M111.244796,26.5890505 C110.455289,27.3414575 109.480077,27.7121659 108.518387,28.182209 C107.544021,28.6583812 106.688176,27.1998528 107.665289,26.7222012 C108.479937,26.3240172 109.381838,26.0298176 110.049866,25.3936532 C110.837894,24.6427256 112.034303,25.8370661 111.244796,26.5890505 M109.12557,46.0776611 C108.571627,45.8010035 107.994232,45.4846121 107.361908,45.4626317 C106.275359,45.4245886 106.27388,43.7337863 107.361908,43.7718294 C108.3105,43.8048 109.143739,44.2006591 109.978669,44.6176532 C110.953246,45.1041816 110.096134,46.5620759 109.12557,46.0776611 M98.9655,124.295023 C98.7153592,123.826459 98.3382465,123.628636 97.8700775,123.618068 C96.7822606,123.59334 96.781838,121.902538 97.8700775,121.927266 C98.9369789,121.951571 99.9153592,122.487555 100.425148,123.441591 C100.938106,124.401966 99.478669,125.254976 98.9655,124.295023 M95.4470493,87.5794614 C95.1107113,87.2706787 95.134162,86.697074 95.4470493,86.3840642 C95.8121197,86.0188509 96.1771901,85.6536376 96.5424718,85.2884243 C96.8762746,84.9542795 97.400007,84.9785847 97.7374014,85.2884243 C98.0737394,85.597207 98.0502887,86.1708117 97.7374014,86.4840329 C97.3721197,86.8492462 97.0072606,87.2142481 96.6421901,87.5794614 C96.3079648,87.9138176 95.7844437,87.889301 95.4470493,87.5794614 M91.2985986,144.80044 C90.0793732,144.771908 88.9364155,144.421912 87.7883873,144.03979 C86.7597254,143.697403 87.2033873,142.064933 88.2377535,142.409434 C89.2355704,142.741465 90.2378239,143.08491 91.2985986,143.109638 C92.3864155,143.134788 92.386838,144.825591 91.2985986,144.80044 M85.8225423,108.644323 C84.720993,108.613677 83.8072606,108.052542 83.0346549,107.30098 C82.2531761,106.540964 83.4495845,105.346413 84.2297958,106.105583 C84.6719789,106.535469 85.1821901,106.935767 85.8225423,106.95352 C86.9099366,106.983743 86.9107817,108.674546 85.8225423,108.644323 M89.2231056,62.1472579 C89.2364155,62.5974341 89.4265563,63.0797354 89.7058521,63.3756258 C90.4526831,64.1669213 89.2590211,65.3640094 88.5107113,64.5712344 C87.8933873,63.9173166 87.5589507,63.0421151 87.5329648,62.1472579 C87.5016972,61.0571131 89.1920493,61.0617628 89.2231056,62.1472579 M76.3313451,25.3224282 C75.9776831,24.6296219 75.514162,23.8171914 74.809162,23.434436 C73.8516972,22.9147256 74.7058521,21.4553519 75.6622606,21.9744282 C76.6205704,22.4947726 77.3063451,23.5202442 77.7907817,24.4689957 C78.2851479,25.4371914 76.8261338,26.2916806 76.3313451,25.3224282 M74.1405,42.9061386 C73.7483873,42.894937 73.3592324,42.8277276 72.9810634,42.7252227 C72.8194437,42.6812618 72.6597254,42.6307491 72.4978944,42.5867883 C72.4285986,42.5679781 72.1343028,42.5312031 72.3151479,42.5409252 C71.8575423,42.5164086 71.4700775,42.1735984 71.4700775,41.6955241 C71.4700775,41.2561268 71.8588099,40.8256063 72.3151479,40.8501229 C72.9424014,40.8837276 73.5128239,41.1975828 74.1405,41.2153362 C75.2274718,41.245982 75.2283169,42.9367843 74.1405,42.9061386 M68.6644437,69.9317119 L66.8390915,69.9317119 C65.7497958,69.9317119 65.7516972,68.2409096 66.8390915,68.2409096 L68.6644437,68.2409096 C69.7537394,68.2409096 69.751838,69.9317119 68.6644437,69.9317119 M66.5352887,144.684831 C65.9817676,144.961912 65.3293732,145.224409 64.8810634,145.648377 C64.0905,146.396135 62.8938803,145.202005 63.6859225,144.452769 C64.2569789,143.912769 64.9871197,143.572917 65.6824014,143.225035 C66.0920493,143.020025 66.5957113,143.112596 66.838669,143.528323 C67.0581761,143.904103 66.9434577,144.480667 66.5352887,144.684831 M62.4567676,123.321544 C62.385993,123.301888 62.3112042,123.28815 62.2395845,123.278428 C61.9522606,123.23954 61.6516268,123.253066 61.3630352,123.252855 C60.2737394,123.252221 60.2754296,121.561418 61.3630352,121.562052 C62.2201479,121.562475 63.1121197,121.574522 63.7860634,122.174968 C64.1281056,122.479735 64.0949366,123.061371 63.7860634,123.370366 C63.4501479,123.706413 62.9314859,123.674076 62.5909225,123.370366 C62.626838,123.402702 62.503669,123.334647 62.4567676,123.321544 M61.3634577,94.5897393 C61.6089507,94.083344 61.6127535,93.7532149 61.6131761,93.190389 C61.6140211,92.1006669 63.304162,92.1023577 63.3033172,93.190389 C63.3028944,94.0074693 63.1814155,94.7032344 62.8228944,95.4431718 C62.6228239,95.8557276 62.0371901,95.9633049 61.666838,95.7464595 C61.2514859,95.503618 61.1646549,95.000393 61.3634577,94.5897393 M56.4766268,54.9279546 C55.4963451,55.2614654 54.6212746,55.7336219 53.7580352,56.3036337 C52.846838,56.9051366 52.0011338,55.4402677 52.9049366,54.8436258 C53.8900775,54.193301 54.9090211,53.678029 56.0272606,53.2973871 C57.0612042,52.9457002 57.5008521,54.579438 56.4766268,54.9279546 M50.775993,26.4715397 C50.0477535,26.4918294 49.2960634,26.7712344 48.6470493,27.0865691 C47.6716268,27.5604164 46.8157817,26.1018881 47.794162,25.6265613 C48.7212042,25.1759624 49.7355,24.8099037 50.775993,24.7807374 C51.8659225,24.7500916 51.8612746,26.4411053 50.775993,26.4715397 M48.2205,102.435696 C47.9340211,102.448589 47.689162,102.293669 47.5374718,102.070906 C47.5216268,102.070906 47.505993,102.070483 47.4903592,102.070483 C47.0166972,102.070272 46.665993,101.683289 46.6452887,101.225082 C46.6247958,100.768777 47.0483873,100.379469 47.4903592,100.379681 C47.788669,100.379892 48.0846549,100.398068 48.361838,100.515156 C48.8095141,100.704103 49.0474014,101.112643 49.0655704,101.590295 C49.0835282,102.06372 48.6639507,102.415829 48.2205,102.435696 M44.0642324,43.9715554 C43.0262746,44.3107726 42.5855704,42.6776689 43.6148662,42.3411992 C44.8231056,41.9461855 46.0577535,41.6403616 47.2657817,41.2453479 C48.3037394,40.9061307 48.7444437,42.5394458 47.7149366,42.8759155 C46.5071197,43.2707178 45.2722606,43.5765417 44.0642324,43.9715554 M40.2738803,75.885027 C39.9519085,76.9227569 38.3211338,76.4772305 38.6439507,75.4354849 C38.9557817,74.4298802 38.9781761,73.417935 38.9788099,72.3732305 C38.9794437,71.2835084 40.6695845,71.2854106 40.6689509,72.3732305 C40.6683169,73.5622873 40.6283873,74.7405652 40.2738803,75.885027 M28.9738099,114.108996 C28.912331,114.530005 28.5785282,114.833293 28.1416268,114.852949 C27.6969085,114.872816 27.2805,114.449904 27.2965563,114.007548 C27.3276127,113.15644 28.0212042,112.462788 28.8717676,112.43172 C29.345007,112.414389 29.6969789,112.832863 29.716838,113.277121 C29.7362746,113.70891 29.3758521,114.046013 28.9738099,114.108996 M23.2552183,65.5191405 C22.3621901,65.8173558 21.4078944,66.1011992 20.7077535,66.7625143 C19.9165563,67.5094262 18.7199366,66.3155084 19.5126127,65.5669057 C20.4358521,64.6950857 21.6233873,64.2835867 22.8060634,63.888573 C23.8416972,63.5428039 24.2817676,65.1763303 23.2552183,65.5191405 M19.3795141,98.3648783 C19.1340211,98.78462 18.6369085,98.8604947 18.2234577,98.6681659 C17.6690915,98.4103186 17.0570493,98.418984 16.4593732,98.4183499 C15.3702887,98.4175045 15.3719789,96.7267022 16.4593732,96.7275472 C17.3813451,96.728393 18.2319085,96.8152579 19.0765563,97.2081581 C19.4921197,97.401755 19.5933169,97.9992423 19.3795141,98.3648783 M17.1895141,138.2266 C16.7162746,138.243931 16.3643028,137.825246 16.3444437,137.381199 C16.325007,136.949411 16.6852183,136.612307 17.0876831,136.549324 C17.1489507,136.128315 17.4829648,135.824816 17.9196549,135.805371 C18.3645845,135.785293 18.780993,136.208205 18.7647254,136.650773 C18.733669,137.50188 18.0405,138.195321 17.1895141,138.2266 M171.166838,144.619524 C170.879725,143.586021 170.222683,142.751187 169.726204,141.821246 C169.559725,141.507814 169.501838,141.312949 169.411627,141.083422 C169.289092,141.3288 169.051204,141.513309 168.693528,141.51352 C168.007331,141.513732 167.204725,141.469559 166.564373,141.763336 C166.147965,141.954186 165.657401,141.886342 165.408317,141.460049 C165.194303,141.093778 165.296556,140.493544 165.711486,140.303328 C166.655218,139.870694 167.669725,139.823141 168.693528,139.822506 C168.946415,139.822506 169.137824,139.915712 169.273035,140.055626 C169.664303,134.695782 169.654585,129.332135 169.284444,123.968487 C168.889585,118.236667 167.980923,112.618976 167.030218,106.961129 C166.569866,104.217802 165.971979,101.447 166.088176,98.6529487 C166.204373,95.8779194 167.39381,93.2909918 166.550852,90.5075084 C166.212824,89.3915789 165.633951,88.3686434 165.257894,87.2653949 C164.854373,86.0776063 164.890289,84.9046121 165.074092,83.6745534 C165.452261,81.1700524 166.079514,78.6951405 165.075993,76.2498176 C164.632542,75.1655906 163.914021,74.1976063 163.567754,73.0774497 C163.136768,71.6846513 163.195923,70.1439076 163.124092,68.7003851 C162.978317,65.7879781 162.940289,62.8565495 162.699232,59.950483 C162.591697,58.6485652 162.35719,57.4142795 161.822683,56.2201503 C161.309092,55.0704047 160.546627,54.0242207 160.206486,52.8047295 C159.868458,51.6042599 159.83888,50.3382716 159.65719,49.1103264 C159.467049,47.8126356 159.169162,46.5339663 158.767754,45.2869996 C157.217049,40.4597589 154.3755,36.1228509 151.018458,32.3629292 C147.450148,28.3662951 143.184655,25.3566669 138.65719,22.5520485 C136.276415,21.0772462 133.895852,19.6024438 131.516768,18.1276415 C131.466063,18.404299 131.289655,18.6585534 130.950993,18.7718372 C130.057542,19.0702638 129.103669,19.3538959 128.403317,20.015211 C127.612331,20.7621229 126.4155,19.5682051 127.208176,18.8198137 C128.035077,18.038663 129.074303,17.6275867 130.131908,17.266389 C129.047894,16.5828822 127.952261,15.8750701 126.729021,15.4802677 C125.657683,15.1336532 124.077613,15.4358841 123.209092,14.6496611 C122.526908,14.0304047 122.311204,12.8827726 122.049444,12.0415984 C121.721979,10.997528 121.43888,9.89639295 121.022683,8.88191155 C120.739585,8.18868258 120.327613,7.52292916 119.807894,6.98609941 C119.579725,6.10688219 119.161204,5.30375108 118.421768,4.8155319 C116.486768,3.53474912 114.110007,4.80707789 113.258599,6.63314442 C112.555077,6.63103092 111.813528,6.78531663 111.129021,6.82758669 C109.721979,6.91635382 108.312824,6.95651037 106.903669,6.95228337 C104.146627,6.94382935 101.387472,6.7641816 98.653669,6.3985456 C93.7649366,5.74335969 89.0219789,4.42242035 84.2156408,3.39314442 C84.1881761,3.32973933 84.1564859,3.26633425 84.1184577,3.20292916 C83.0832465,1.46562975 80.503669,1.75940665 78.8788099,2.41670607 C78.181838,2.69780196 77.4719789,3.05287045 77.0726831,3.71228337 C76.6501479,3.99760626 76.2846549,4.34422074 76.0416972,4.70985675 C75.5388803,5.4643773 75.1501479,6.98609941 74.1297254,7.11290959 C73.4578944,7.1953362 72.7755,7.06641252 72.0931056,7.16363366 C71.2395845,7.28198982 70.4747958,7.58210724 69.6867676,7.92449472 C63.6867676,10.5304438 57.4839507,13.4280564 50.9724718,14.4383108 C49.4452183,14.6750231 47.8902887,14.9201894 46.5635282,15.7761581 C45.4860634,16.4715006 44.6534577,17.4268039 43.7642324,18.3334967 C42.8980352,19.2169409 42.1839507,19.6079389 40.9480352,19.7664517 C39.4480352,19.9587804 38.1487394,20.373027 37.0522606,21.4635945 C36.1416972,22.3702873 35.5480352,23.5284869 34.8339507,24.5810114 C34.1069789,25.6546708 33.0402887,26.2591327 31.9332465,26.882616 C29.3156408,28.3578411 26.8776127,30.1395241 24.7543732,32.2762755 C20.281838,36.7822638 17.5733873,42.5732618 14.8438099,48.2163147 C11.8924014,54.3201112 9.13324648,60.4978802 7.21916197,67.0159233 C5.34310563,73.4156102 4.22761268,79.9991718 3.71211972,86.644025 C3.16916197,93.6164712 3.09310563,100.616393 2.64099296,107.593066 C2.41493662,111.078232 2.24380986,114.567626 2.07057042,118.054906 C1.90155634,121.499915 1.65437324,124.951266 1.69430282,128.400503 C1.77057042,135.068604 3.10345775,141.757841 5.4339507,148.001129 C6.01493662,149.554553 6.65909155,151.086843 7.34571127,152.595884 C7.94803521,153.92105 10.0078944,153.773105 10.6543732,152.595884 C10.8022606,152.325356 10.9184577,152.046373 11.0156408,151.763164 C12.7057817,151.777959 14.4128239,151.646921 16.0924014,151.803321 C19.0585986,152.080189 22.0309225,152.234475 25.0055704,152.41835 C30.8916972,152.783986 36.7881761,153.027039 42.6762042,153.363086 C43.2474718,153.395634 43.8187394,153.428393 44.3897958,153.46242 C40.1938099,140.470084 40.7380352,126.423955 40.0740211,112.911908 C40.0205704,111.822608 41.7111338,111.828949 41.764162,112.911908 C42.4309225,126.481865 41.8632465,140.563923 46.2075423,153.577395 C47.8930352,153.691524 49.5762042,153.831015 51.253669,154.03518 C52.6097958,154.197919 53.9726831,154.390248 55.3416972,154.322616 C56.8945141,154.248643 58.4114155,153.893575 59.9262042,153.585004 C62.6790211,153.024925 65.3304296,153.278546 68.0938099,153.623047 C71.0494437,153.99291 74.0156408,154.197919 76.9902887,154.326843 C88.9015563,154.848878 100.893106,155.324416 112.800148,154.527626 C115.681838,154.335297 118.55719,154.064769 121.419866,153.697019 C124.369162,153.318702 127.286768,152.682538 130.233739,152.321129 C133.138669,151.96606 135.809303,152.940385 138.68043,153.120033 C141.608387,153.303908 144.614937,152.693105 147.515641,152.342264 C148.461908,152.227501 149.409232,152.115908 150.356768,152.00516 C149.136908,143.640972 148.443317,135.213802 147.769585,126.790013 C147.682754,125.703461 149.373528,125.712761 149.459725,126.790013 C150.127965,135.148072 150.806134,143.512471 152.024092,151.810718 C157.046979,151.226123 162.074725,150.634553 167.045218,149.723634 C168.460711,149.465786 169.867754,149.045199 170.714937,147.781324 C171.34219,146.845043 171.469162,145.697411 171.166838,144.619524" id="ðŸ–-Ink" fill="#000000"></path>
                    </g>
                    <g id="head/Turban" transform="translate(78.591549, 38.043053)" fill-rule="evenodd">
                        <path d="M98.0009577,54.0112016 C96.0676479,43.4650333 91.3006056,33.4303327 83.9795493,25.5788806 C83.1346901,24.6466145 82.3756056,23.1760391 81.0864507,22.9410176 C79.7924366,20.3031546 77.3258873,18.438411 75.3541268,16.3082114 C71.0503944,12.0154755 66.9327887,7.21845793 61.3817324,4.50767906 C35.6347606,-6.08562035 10.8579296,24.1197182 5.60011268,46.8358591 C0.377788732,65.1043444 6.08159155,90.3053307 28.713,91.0446341 C31.9147606,95.2809393 36.3327887,98.2132133 40.8710282,100.832055 C47.0685634,104.801636 53.8291268,106.412971 60.9991268,104.203937 C68.1397606,106.070583 75.5419437,100.080493 79.8332113,94.8271703 C83.2251127,90.7580431 85.5499014,85.7919452 88.6523662,81.5799452 C92.3151127,81.4884305 95.4803239,78.3858082 95.9706761,74.7491037 C99.3917324,68.459953 99.2362394,60.9236243 98.0009577,54.0112016 L98.0009577,54.0112016 Z" id="ðŸŽ¨-Background" fill="#FFFFFF"></path>
                        <path d="M41.9186831,0.918486106 C46.6035423,-0.176519765 51.5165704,0.0504704501 56.1570634,1.25389902 C65.3545986,3.63940978 72.9224155,9.84275225 79.1972746,16.7591906 C85.3179085,23.505492 90.3653028,31.2392219 94.0517113,39.5704391 L94.23852,39.9942468 C96.8460534,45.9331017 99.1119831,52.1059789 99.2091761,58.6452258 C99.292838,64.2732728 98.7245282,70.1365526 96.906993,75.4896329 C95.287838,80.2583295 92.3095986,85.0635898 87.1857254,86.2067836 C84.2311479,93.7198638 78.4508662,100.226071 71.1695282,103.707433 C66.6534718,105.866799 61.6939648,106.830768 56.7008662,106.351425 C51.6065704,105.862784 46.8481901,103.414079 42.8668521,100.291378 C42.7576268,100.205782 42.8981197,100.039872 43.0107254,100.104545 C47.8041761,102.86795 53.473331,103.855801 58.9637535,103.67404 C67.9865704,103.375613 76.258331,98.5037777 81.0114296,90.8459225 C82.1941056,88.9399656 83.2479085,86.9296016 84.0885423,84.8382904 C84.0393169,84.6662513 84.0107958,84.4918873 84.0107958,84.3219616 C84.0107958,83.6014685 84.3526268,83.050901 84.8626268,82.6951984 C85.0990352,81.9561065 85.3081901,81.2085605 85.4829085,80.4525605 C85.8790352,78.7402004 86.1000211,77.0031123 86.233331,75.2520751 C86.3415,73.8294763 86.2815,72.3202239 86.4243169,70.8612728 C86.3723451,69.6922943 86.3000915,68.5243726 86.1942465,67.3589871 C85.8534718,63.6037151 85.1643169,59.8577425 83.8369225,56.3184705 C82.4922042,52.7335468 80.3685423,49.5721691 77.6892465,46.8510341 C71.9423924,41.0149018 64.7872176,36.7535953 59.1989454,30.7581222 L58.9062887,30.4409519 L58.8864296,30.4346114 C58.1930493,31.1458051 57.5000915,31.8569988 56.8052324,32.5667131 L53.6306173,35.8060562 C47.1511313,42.424726 40.7241612,49.1077064 35.0873451,56.4727562 C31.8416408,60.7139225 28.9255141,65.1596759 26.4129085,69.8740556 C25.2230493,72.1069093 24.1441663,74.3953664 23.1690379,76.7299119 L22.7852894,77.6592873 C22.3286763,78.771471 21.8352446,80.0164162 21.5611479,81.2723883 C22.3766408,82.0816485 22.9730493,83.2709166 23.6326268,84.189445 C24.3807254,85.2311906 25.2435423,86.2228462 26.1312887,87.1483491 C27.0298099,88.085265 28.0153732,88.9832924 29.0615704,89.7528188 L29.1872148,89.8435523 C30.3876296,90.6957393 31.765563,91.2843311 31.9455845,92.9065879 C32.0237535,93.6110184 31.3941761,94.1776485 30.8112887,94.3970301 C29.2155845,94.9966309 27.5626268,93.274126 26.4991056,92.2833159 C25.8359366,91.6653276 25.2262183,90.9993628 24.6608662,90.2962004 C24.1105141,90.3750341 23.5565704,90.4145566 23.008331,90.3494607 C22.1588239,90.2484352 21.3175563,90.099856 20.4900211,89.8821652 C13.6263592,88.0793472 8.54600704,82.3792297 5.80502113,76.030901 C2.12516197,67.507989 2.21072535,57.6833706 3.74051408,48.6705487 C6.53579577,32.2000204 15.5826972,16.8183687 29.2434718,7.08040391 C33.0693169,4.35313973 37.3117817,1.9951045 41.9186831,0.918486106 Z M49.3136831,3.12181292 C40.4886127,2.65663092 32.4426972,7.20911624 25.9874155,12.8760517 C14.2337535,23.194173 6.99403521,38.301492 5.53755634,53.8152376 C4.7636831,62.057899 5.34276761,70.9424313 9.63910563,78.2249284 C11.306007,81.0504705 13.4529085,83.51249 15.9870634,85.5883726 C18.3750211,87.5448423 21.096993,88.6723961 24.006993,89.4395977 C23.8745282,89.256991 23.7437535,89.0731162 23.6165704,88.8864939 C22.939669,87.8950497 22.401993,86.8412571 21.9515704,85.7371632 C21.9118521,85.7768971 21.8370634,85.7849284 21.7929085,85.7242708 C19.9561479,83.2030732 20.531007,80.1947131 21.4065,77.42222 C22.3244577,74.5142513 23.4879085,71.6846935 24.8157254,68.9398873 C29.6556549,58.9371006 36.8543873,50.2229166 44.3269225,42.0912141 C48.1432606,37.9383922 52.0861479,33.9058286 56.0144577,29.8595272 C57.9762887,27.8390184 59.932838,25.8125918 61.864669,23.7629166 C62.8261479,22.7425174 63.7817113,21.7168344 64.7286127,20.6829088 C65.6649507,19.6606074 66.5074859,18.5778599 67.6732606,17.8121378 C68.6026268,17.2019695 69.5303028,18.3682004 69.0959366,19.235582 C68.4279155,20.5696955 67.2789845,21.6273159 66.2623037,22.7121839 L66.1576268,22.8245213 C65.1665704,23.8947992 64.1662183,24.9564117 63.1599507,26.0123178 C62.0026268,27.2267366 60.8362183,28.4329127 59.6662183,29.6359186 C60.6640352,29.52031 61.6736831,29.4537346 62.6655845,29.3030419 C64.0126268,29.0984548 65.3415,28.7970693 66.6636127,28.469265 C68.0569225,28.1241299 69.4322746,27.6834646 70.759669,27.1356446 C72.0067817,26.621218 73.1854437,25.7969519 74.5576268,25.716216 C75.7191761,25.6477386 76.0819225,27.0864 75.4384014,27.8434568 C74.5514808,28.8866722 72.9569377,29.2972843 71.6602414,29.6846564 L71.4771338,29.7399029 C70.042838,30.1778207 68.575162,30.5064705 67.0916408,30.7260634 C65.1397394,31.0151906 62.8838239,31.1474959 60.7954437,30.8516055 C64.965831,33.297809 68.8034236,36.3293648 72.6301806,39.2859004 L73.3054437,39.8067288 C77.0442465,42.6844744 80.6932606,45.786674 83.3590352,49.7239186 C85.8473451,53.3995115 87.3498803,57.6787209 88.1930493,62.0145722 C88.6090352,64.1536485 88.8834718,66.3153393 89.0676972,68.4861182 C89.7541452,70.4107048 89.643897,72.6989401 89.4710122,74.8156762 L89.4093169,75.5462748 L89.4139648,75.760584 C89.4397394,77.0844822 89.9715,80.0321847 88.7191056,81.0318716 C88.6977676,81.1383922 88.6779085,81.2455468 88.6555141,81.3520673 C88.8114296,81.2556916 88.9654437,81.1565683 89.1181901,81.0546975 C89.1809366,81.0126387 89.2417817,80.966353 89.3032606,80.9209127 L89.4763205,80.7787033 C89.4829074,80.7731624 89.4886215,80.7682914 89.4931901,80.7643022 C89.8819225,80.4229714 90.2526972,80.0666348 90.598331,79.6813432 C91.236993,78.9693041 91.8441761,78.0645135 92.4192465,77.0221339 C93.682838,74.7310967 94.4900915,72.2405448 95.1143873,69.6654528 C96.2556549,64.957625 96.7265704,59.9010693 96.206007,55.0729832 C96.133331,54.3989871 95.9841761,53.5540086 95.752838,52.6870497 C95.2035423,50.6284978 94.5716408,48.5917151 93.8641056,46.5824078 C92.4488239,42.5627366 90.7138944,38.6631123 88.691007,34.9129127 C84.5826972,27.2958481 79.2967817,20.2536564 72.9634014,14.3440908 C66.5495282,8.35928454 58.2317113,3.59185597 49.3136831,3.12181292 Z M36.8682676,27.4587569 C37.1864366,27.2643147 37.5139014,27.6419977 37.3560845,27.9467648 C36.5919296,29.4217785 35.307,30.6670544 34.2396761,31.9309292 C33.1345352,33.2396102 32.0374225,34.5554771 30.9430563,35.8732462 C28.7146056,38.5563382 26.5396056,41.2886748 24.4503803,44.0818802 L23.898865,44.8207618 C22.0620908,47.2873515 20.2476338,49.7929879 18.642,52.4137315 C17.802,53.7847609 17.0617183,55.20271 16.3894648,56.6629292 C15.7495352,58.05298 15.4543944,59.73089 14.6853803,61.0366121 C14.637,61.1190387 14.487,61.1122755 14.4684085,61.0080798 C14.2174225,59.6021777 14.837493,57.9088391 15.2805211,56.5923382 C15.8072113,55.0266552 16.5567887,53.5353675 17.3591831,52.0950153 C19.0328451,49.0904595 21.0381972,46.2742168 23.0528451,43.4920016 C25.0989718,40.6668822 27.2232676,37.8994614 29.4519296,35.2157354 C30.4986901,33.9551483 31.5689875,32.7197772 32.6712793,31.5087313 L33.0861549,31.0557276 C34.2407324,29.8028431 35.4043944,28.3527687 36.8682676,27.4587569 Z M31.5179789,23.0908861 C32.0412887,22.7030583 32.4879085,23.4956219 32.1541056,23.9157863 C30.1599507,26.4253597 27.8909366,28.680256 25.7085423,31.0207491 C23.6127676,33.2684595 21.6095282,35.6002873 19.7193169,38.0238411 C15.865162,42.965845 12.7800211,48.3886708 10.1670634,54.0720916 C10.117838,54.1792462 9.96276761,54.0993558 9.98600704,53.9957941 C11.370037,47.8482878 14.605765,42.2648759 18.29004,37.2201181 L18.430162,37.0288039 C22.1567113,31.9557628 26.4403732,26.8560916 31.5179789,23.0908861 Z" id="ðŸ–-Ink" fill="#000000"></path>
                    </g>
                    <g id="face/Happy-Grin" transform="translate(112.183099, 77.354207)" fill="#000000" fill-rule="evenodd">
                        <path d="M19.7211365,39.4118615 C23.3427017,38.9721514 26.8531681,40.0813242 30.39357,40.6404383 C32.2628533,40.9354736 34.1344555,41.1557498 36.0260851,41.237669 C36.4066034,41.2543055 36.7873326,41.2639926 37.1680618,41.2717844 C37.2034785,40.9365265 37.3911025,40.6286453 37.7975509,40.4441692 C38.6306859,40.0663724 39.297489,39.8960058 40.2122088,39.9324377 C41.04956,39.9655002 41.8898626,40.0516312 42.7143542,40.2026235 C44.2115517,40.4772317 45.7154952,41.1003649 46.8106713,42.1830034 C49.345282,44.6881713 48.9594933,48.7121078 47.0010359,51.4407108 C42.9548102,57.0790106 35.5698828,57.3406925 29.2449892,57.2671358 L28.6613154,57.2594981 C22.9023122,57.1771578 14.6628774,58.0361507 12.0464711,51.4813545 C11.0843182,49.0709516 11.217974,46.2770661 12.3959998,43.965219 C13.8010718,41.2077653 16.7587852,39.7715477 19.7211365,39.4118615 Z M37.7102741,48.7997129 L37.6586248,48.8018188 C35.0034288,48.9041651 32.3486544,48.9761865 29.6919827,49.0231479 C29.7714593,49.7056672 29.8526225,50.388397 29.9453805,51.0694422 C30.0181111,51.6053914 30.0961121,52.1407089 30.1772753,52.6753946 C30.2116379,52.9017779 30.3377044,53.2532511 30.3020769,53.4775285 L30.2892173,53.5661865 L30.2892173,53.5661865 C30.4256136,53.6278891 30.5493612,53.7272872 30.6414867,53.8715407 C30.6735303,53.9214503 30.6967198,53.9717811 30.7199093,54.0219013 C32.7825086,54.0381167 35.0021639,53.9981048 37.1048178,53.6230456 L37.109034,53.5773477 L37.109034,53.5773477 C37.1471913,53.3086361 37.2589224,53.12774 37.4073351,53.003703 C37.5551154,52.146816 37.5416233,51.2337017 37.5987538,50.3835535 C37.6343813,49.855396 37.6729601,49.3276597 37.7102741,48.7997129 Z M27.6629027,49.0593692 C25.7490909,49.0919403 23.8344463,49.1170239 21.9210416,49.0936505 L21.0524238,49.0802176 L21.0524238,49.0802176 C21.2358315,50.0647216 21.4354719,51.0458562 21.6013821,52.0368885 C21.77446,53.069828 20.865643,53.7264448 20.0790979,53.6999106 C20.1674287,53.7144413 20.2555488,53.7293931 20.3438796,53.7418178 C22.8013326,54.0895004 25.3530192,53.9972624 27.8469429,53.9945248 C27.7127601,53.2110912 27.7671242,52.3271177 27.7470493,51.6731982 L27.7432227,51.5719078 C27.7050654,50.7339737 27.6782921,49.8966715 27.6629027,49.0593692 Z M14.663299,48.8786838 C14.7297053,49.3906259 14.858934,49.8916174 15.0522499,50.3580722 C15.8691523,52.328765 17.7420194,53.2484076 19.7236663,53.6356809 C19.3798295,53.5169087 19.106826,53.2315604 19.03789,52.7427832 C18.866077,51.5274735 18.8043086,50.2919472 18.7996707,49.0578951 C17.4186315,49.0450492 16.0283164,49.0155667 14.663299,48.8786838 Z M44.9122957,48.4579268 C43.9290616,48.689996 42.7864524,48.5836485 41.8217698,48.627451 C40.9180124,48.6685159 40.0138333,48.704316 39.1100758,48.7409585 C39.1526601,49.3581952 39.1941904,49.9752212 39.2393045,50.5920367 C39.297489,51.389327 39.3029701,52.231894 39.4555991,53.0258149 C41.274498,52.4047876 42.9042972,51.4089118 44.1270155,49.816437 C44.431641,49.4196872 44.7044336,48.9540747 44.9122957,48.4579268 Z M19.3056231,42.6452465 C17.6688671,43.032941 16.1198095,43.851922 15.287307,45.3502634 C14.7931601,46.2393706 14.5758114,47.2931585 14.6175525,48.3315733 C16.0009107,48.1704727 17.4080908,48.1094018 18.8085249,48.0588604 C18.8131628,47.8065747 18.8191124,47.5545697 18.8266861,47.3030952 L18.8482617,46.6585603 C18.8864346,45.4292579 18.9056154,43.8855582 19.3056231,42.6452465 Z M27.7773744,42.7951859 L27.056853,42.7142256 C25.0555444,42.486111 23.0553101,42.2466464 21.0538995,42.3839054 C20.7642417,42.4039114 20.4701569,42.4354997 20.1754396,42.4786705 C20.5291847,43.7556828 20.49946,45.2554984 20.6472402,46.5196647 C20.7043707,47.008442 20.7764689,47.4932181 20.8563672,47.9760989 L21.2035771,47.9598836 L21.2035771,47.9598836 C23.3511342,47.8434278 25.5007995,47.7718275 27.6500431,47.6865389 C27.649885,47.2828396 27.6520985,46.8789034 27.6585514,46.4748191 L27.6664865,46.0706888 C27.6909409,45.0385916 27.6243238,43.8759292 27.7773744,42.7951859 Z M37.8272756,42.6313476 C35.731157,42.9697643 33.5648375,43.0417858 31.505822,43.0443128 C30.6834385,43.0453658 29.8614767,42.9948244 29.0399365,42.9219606 C29.0934831,43.3595647 29.1213105,43.802223 29.1615759,44.2337201 C29.2426969,45.1057274 29.3354211,45.976387 29.4361866,46.8462379 L29.5260724,47.6073574 L29.5260724,47.6073574 C32.1677764,47.4875322 34.8092696,47.3580199 37.4503411,47.2238747 L37.8230594,47.2038687 L37.8230594,47.2038687 L37.9275292,45.7411246 C37.9986436,44.7657383 38.0768788,43.7905704 38.1873451,42.8196143 L38.1044954,42.7897106 L38.1044954,42.7897106 C38.0070995,42.7496987 37.9147632,42.6945243 37.8272756,42.6313476 Z M38.7375683,42.9944032 C38.8530941,44.3735512 38.9169706,45.7583851 39.0019284,47.1398496 L40.7430293,47.0468004 C41.0331868,47.030975 41.3233364,47.0148299 41.6134861,46.9981231 C42.7417599,46.9330511 44.1915244,46.591265 45.3069386,46.9100969 C45.3921073,45.8956892 45.1022387,44.9073946 44.1870973,44.2259283 C42.5804876,43.0289398 40.5347534,43.4551722 38.7375683,42.9944032 Z M32.7889225,30.6655961 C35.3815986,29.1802262 41.8867394,27.6620971 42.2987113,32.3297683 C42.488174,34.4777135 40.8919247,36.2574498 39.0279579,37.0516053 L38.9579366,37.0809229 C37.2096972,37.7999366 34.1110352,38.6119444 32.5981479,37.0528133 C31.338993,35.7551225 33.0090634,33.4283671 34.5737113,34.4914591 C35.3778002,35.0375927 37.0703018,34.6351882 37.9675372,34.3753254 L38.0237113,34.3589425 C38.9919507,34.0742536 40.2827958,33.1631225 39.8824437,31.9704728 C39.5281479,30.9154121 38.0205423,30.7226607 37.0763873,30.6884219 C35.6670211,30.6379092 34.2954718,30.9652908 32.898993,31.0718114 C32.6777958,31.0887194 32.6095563,30.7683123 32.7889225,30.6655961 Z M43.5287113,23.1599765 C47.0475845,22.9951233 49.2365282,26.8387397 48.4273732,29.9880705 C48.2875141,30.5314521 47.6799085,31.0649002 47.0934296,31.00382 L46.9456572,30.9902158 C46.8705845,30.9829977 46.795162,30.9735123 46.7258239,30.954364 C46.1689225,30.8000783 45.6696972,30.2205558 45.7102606,29.6198982 L45.7210365,29.4448758 C45.8031384,27.9571532 45.641973,26.2430931 43.8745563,25.8828023 C42.3756127,25.5771898 41.5387817,27.020501 41.5210352,28.3490489 C41.5176549,28.5849159 41.2527254,28.7495577 41.0442042,28.6227476 C39.9606127,27.9631233 39.773007,26.6508493 40.1868803,25.5207593 C40.7114577,24.0888611 42.0242746,23.2303562 43.5287113,23.1599765 Z M17.4154014,23.9843272 C19.9761761,23.1296266 22.7389225,24.4951609 23.9788521,26.7599906 C24.4138521,26.8859554 24.8482183,27.2213683 24.7877958,27.7349495 C24.7005423,28.4738301 24.5691338,28.9396462 24.0570211,29.4999358 C23.2560186,30.3764272 21.7558318,29.9282778 21.4229027,28.849309 L21.4087817,28.8005777 C21.0306127,27.4058771 19.4959648,26.4856579 18.098007,26.9738771 C16.4649085,27.5441002 16.5122324,29.269564 15.3667394,30.274746 C15.232162,30.3928908 15.0707535,30.411701 14.9093451,30.3337127 C13.6926549,29.7455249 13.9113169,27.9752548 14.3450493,26.9620415 C14.913993,25.6324368 16.0197676,24.4499319 17.4154014,23.9843272 Z M13.9279014,16.2050935 C16.0029718,14.0869409 21.4139577,12.0372658 22.8334648,15.9487256 C23.1038873,16.6937354 22.5281831,17.6982834 21.752831,17.8527804 C20.4831127,18.1055554 19.3566338,17.5541425 18.0953662,17.6530544 C17.0743099,17.7335789 16.0093099,18.0749096 15.1929718,18.7076924 C12.9319859,20.460209 12.434662,23.4243969 10.8592394,25.6549879 C10.7825493,25.7636219 10.6336056,25.7179703 10.6194507,25.589892 C10.2607183,22.3424947 11.6550845,18.5248744 13.9279014,16.2050935 Z M40.9902676,14.1199327 C42.3673099,13.6334043 43.9266761,13.6750403 45.3109014,14.1066176 C46.7052676,14.5415765 47.985338,15.3675335 48.9715352,16.4466881 C49.419,16.936598 49.8330845,17.4772321 50.1651972,18.0527389 C50.3416056,18.3577174 50.5270986,18.9877526 50.7275915,19.3628994 C51.8123435,19.9894274 52.2759906,21.4171188 51.3048214,22.4328182 L51.2610423,22.4773573 L51.1311127,22.606281 C50.6090704,23.1232438 49.8218873,23.3472751 49.1092817,23.1407859 C47.5146338,22.6791969 47.3209014,21.4227194 46.7688592,20.089099 C46.4042113,19.208191 45.779493,18.4287311 45.0220986,17.8561832 C43.2320282,16.5035413 40.2968873,16.072598 38.1417465,16.7100305 C38.0270282,16.7440579 37.8922394,16.5978035 37.974,16.4917057 C38.3823803,15.9624845 38.6177324,15.5281597 39.164493,15.1012321 C39.719493,14.667964 40.3251972,14.3549542 40.9902676,14.1199327 Z" id="ðŸ–-Ink"></path>
                    </g>
                    <g id="facial-hair/*-None" transform="translate(104.577451, 109.479380)"></g>
                    <g id="accessories/*-None" transform="translate(88.521127, 88.978474)"></g>
                </g>
            </g>
        </g>
    </g>
</svg>