<?xml version="1.0" encoding="UTF-8"?>
<svg width="240px" height="324px" viewBox="0 0 240 324" version="1.1" xmlns="http://www.w3.org/2000/svg" xmlns:xlink="http://www.w3.org/1999/xlink">
    <!-- Generator: Sketch 62 (91390) - https://sketch.com -->
    <title>peep-78</title>
    <desc>Created with Sketch.</desc>
    <g id="Introduction" stroke="none" stroke-width="1" fill="none" fill-rule="evenodd">
        <g id="variations" transform="translate(-2766.000000, -110.000000)">
            <g id="images" transform="translate(126.000000, 110.000000)">
                <g id="a-person/bust" transform="translate(2640.000000, 0.000000)">
                    <g id="body/Device" transform="translate(31.056338, 135.052838)">
                        <path d="M157.123585,62.3330771 C156.459782,60.5099695 157.429077,58.6915115 157.966754,56.9277933 C159.876824,50.8111045 161.962246,44.6942043 164.91281,38.9898599 C166.030415,37.0817894 164.191754,34.7408736 162.06112,35.2789714 C158.413585,35.7900164 154.652387,35.3831671 150.998514,35.1576564 C149.662246,31.6991202 146.095838,30.2644744 143.288937,28.2727092 C140.103655,26.2839029 137.005204,23.999629 133.692528,22.255989 C133.508303,20.6085135 131.511401,20.2001847 130.290275,21.378674 C126.936401,19.2915898 122.9145,19.6792063 119.319359,18.3117699 C116.587544,13.8944389 116.382579,9.2495688 115.659294,4.98802928 C115.344015,3.13043572 115.678977,1.3380991 114.410134,-0.318124462 C110.14781,-6.31518904 93.3064014,-8.9154317 87.0970352,-5.36157652 C83.7545704,-7.44696986 83.6740775,-3.67014012 83.143162,-1.33915773 C82.5530915,-0.17292681 82.2338662,1.14780117 82.3325282,2.53933151 C78.7422465,10.0412102 70.5283732,13.4327483 63.1722465,16.1800908 C62.2494296,15.2917855 60.9304859,15.4040125 60.0524577,16.1390888 C53.6764014,17.5257581 47.488162,19.9632611 42.1460493,23.7692571 C36.0767535,25.5450223 31.8023873,30.4832219 28.7115423,35.7781808 C28.3709789,36.3363569 28.2906972,36.9055233 28.3902042,37.4281926 C18.8854859,51.3661104 14.3491479,68.0520047 13.7119648,84.9046544 C7.59978169,88.5743295 16.6171056,121.540326 18.7162606,128.384271 C18.7183732,128.383425 18.7204859,128.38258 18.7225986,128.381523 C20.0844296,130.793453 21.6306972,137.675864 25.0388662,137.143472 C27.3767535,139.787887 31.1024577,139.267966 34.2750634,139.471073 C33.7583028,141.453962 34.0122465,143.722807 34.6272465,145.682236 C35.3546408,148.014697 38.9242183,148.093742 39.4304155,145.550776 C71.0242183,151.691347 103.440908,146.791825 135.389852,147.713523 C144.627317,147.779042 153.863937,148.064999 163.079218,148.723355 C164.376824,148.815926 165.692387,147.489492 165.604077,146.197085 C163.62281,125.110243 161.762176,97.3703061 159.546613,76.4899538 C159.02119,71.7280204 158.605627,66.9138834 157.123585,62.3330771 Z" id="ðŸŽ¨-Background" fill="#FFFFFF"></path>
                        <path d="M83.6642324,-4.06010254 C83.7548662,-4.30738239 84.124162,-4.27462309 84.1311338,-3.99690881 C84.2766972,1.93210098 82.8012042,9.17740039 78.058669,13.1822771 C75.6241978,15.2380699 72.405587,16.1789162 69.4497852,17.2600198 L69.1163451,17.3830755 L63.8942324,19.329189 C62.509162,19.8453065 61.0150775,20.6393495 59.7916268,19.910191 C60.7816268,22.3660814 61.6127535,24.8896039 62.8184577,27.2565159 C64.3193028,30.2029503 66.1338803,32.8987233 68.3547254,35.350598 C77.1531761,45.0640462 91.0778239,48.0269659 103.573669,45.1809229 C110.008246,43.7152086 116.269585,40.9376431 120.659514,35.8715765 C123.995852,32.0207742 125.912683,26.8524141 126.364373,21.7544337 C126.232331,21.7755687 126.093951,21.7747233 125.951768,21.7434434 C124.370727,21.3984471 122.774617,20.5506404 121.383364,19.7192097 L121.249373,19.6388172 C119.910782,18.8327272 118.51557,17.9089151 117.554937,16.6564532 C116.918895,15.82727 116.267124,14.0602317 115.599624,11.3553382 C115.326852,9.83051282 115.070998,6.79273503 115.114796,5.25135734 C115.11881,5.10594834 115.76381,5.02014012 115.832683,5.17125558 C116.428656,6.47977808 116.621363,9.35487272 117.081403,10.7167772 L117.174232,10.9886724 C117.66543,12.4108485 118.086697,14.1424415 119.105218,15.2921871 C121.017401,17.4511303 123.902472,18.365009 126.477613,19.4477566 C126.662472,17.0077174 130.558246,17.0645706 130.50881,19.6094395 C130.506063,19.7474513 130.499937,19.884829 130.495077,20.022418 C130.802313,20.1913926 131.097784,20.3846196 131.374004,20.5710702 L131.643528,20.7541127 C132.663528,21.4481871 133.691345,22.1078114 134.777472,22.6966333 C136.880218,23.8368681 139.106345,24.7408133 141.260852,25.7757957 C143.4405,26.8230364 145.479021,28.0706372 147.382331,29.563827 C148.276275,30.264964 149.133471,31.0117424 149.946434,31.8053017 L150.167049,32.0228877 C150.940923,32.7938935 151.947824,33.6559914 152.388739,34.6692047 C152.485923,34.892602 152.972778,35.4122112 153.236962,35.429538 C157.330488,35.6980154 161.415279,36.0771291 165.483106,36.6455413 C166.536275,36.7926411 166.952559,37.335635 166.56328,38.2137605 C165.225534,41.23142 159.988458,53.282825 158.595782,56.5171186 C158.758458,58.8931186 158.538739,61.6903397 158.685359,64.0669738 C158.899796,67.5352321 159.18057,71.0022223 159.51712,74.4607585 C160.721345,86.8325706 162.546908,99.1441479 164.196486,111.461854 C165.02212,117.62652 165.774866,123.800273 166.517894,129.975295 C166.893106,133.095882 167.211486,136.219639 167.456556,139.353541 C167.558641,140.659348 167.651261,141.966101 167.732901,143.273369 L167.803262,144.432916 C167.900126,145.892161 168.123657,147.285704 167.220993,148.538191 C166.811768,149.106301 165.87712,149.426285 165.339021,148.780821 C164.662542,147.969447 164.411134,147.363295 164.346486,146.297455 C164.297049,145.481643 164.285218,144.662027 164.248035,143.845369 C164.167754,142.075099 164.066768,140.305674 163.948458,138.537306 C163.712472,135.002261 163.443106,131.46785 163.131063,127.938723 C162.037331,115.56353 159.958669,103.281541 158.5755,90.936782 C157.878317,84.7133613 157.383106,78.4783162 157.120923,72.2204454 C156.989725,69.09542 156.94219,65.9706059 156.973035,62.8428329 C156.984655,61.6744885 157.040007,60.5116391 157.120077,59.351326 C155.047965,64.0604219 152.869585,68.7240775 150.59212,73.3258074 L150.052289,74.4156302 C148.609003,77.3241716 147.1269,80.2436434 145.392316,82.9857159 L145.094202,83.4530865 C144.391355,84.566892 143.431353,86.3229973 142.149866,86.6744806 C141.257261,86.9194356 140.166486,86.7469738 139.251275,86.7294317 C138.343035,86.712101 137.433739,86.7082967 136.526134,86.6715217 C135.508035,86.6305198 134.536627,86.496735 133.552754,86.2312791 C133.389232,86.1873182 133.234585,86.139553 133.093669,86.0786841 C132.102401,87.7014317 130.418176,88.9374082 128.696134,89.6574787 C127.31679,90.2342425 125.871146,90.6296268 124.423064,90.9956242 L123.911979,91.123827 C122.359585,91.5108094 120.583669,91.6946841 119.708176,93.1944258 L119.504793,93.5420367 C118.853889,94.6483367 118.229402,95.619928 117.152049,96.4130795 C115.992401,97.267146 114.618528,97.8041871 113.249937,98.222238 C111.848599,98.650011 110.414596,98.9776215 108.991704,99.3284672 L108.603951,99.4248211 C107.664655,99.660054 106.716908,99.8758427 105.783106,100.131788 C105.384866,100.240845 104.979444,100.353283 104.588599,100.487702 C104.130993,100.644946 103.798458,100.890535 103.437401,101.157682 C103.112894,102.291788 101.725923,102.907663 100.5855,102.828618 C99.9865563,102.787193 99.4493028,102.583874 98.9604296,102.28587 C98.1071197,103.012492 97.1676127,103.663451 96.2978239,104.336602 C95.0798662,105.279224 93.8570493,106.215295 92.6274718,107.1427 C90.0922606,109.054363 87.5378239,110.940665 84.9567676,112.789768 C80.3754296,116.072038 75.695007,119.204038 70.9345141,122.220007 C68.9496549,123.477541 66.9514859,124.732962 64.933669,125.958371 L65.1490133,126.03823 L65.5761338,126.199733 C66.5857817,126.576782 67.7107817,127.186105 67.9064155,128.364383 C68.0614859,129.298974 67.5396549,129.943169 66.6172606,130.057299 C65.520993,130.192774 64.6678944,129.417964 63.9852887,128.678238 C63.6840211,128.352124 63.346838,128.049048 63.0582465,127.713213 C62.9405704,127.576046 62.8501479,127.417956 62.7705,127.252258 C60.7791891,128.42613 58.7666363,129.560563 56.7222071,130.621314 L56.2104296,130.884946 C51.1406408,133.478426 46.2060634,136.319819 41.0931761,138.839537 C39.7594437,139.496837 38.1333169,140.207819 36.4383169,140.693079 C36.8881056,142.437142 36.8811338,144.351976 36.8925423,146.122034 C36.9033169,147.847076 34.1629648,147.838833 34.2208521,146.122034 L34.2487365,145.293018 C34.2986338,143.898805 34.3801479,142.451584 34.7107817,141.095068 C29.7167113,141.923645 24.7277082,140.122902 23.7988099,139.582222 C22.7735282,138.985792 21.8428944,138.031334 21.0683873,137.145987 C19.410993,135.250809 18.2608521,132.979216 17.2404296,130.693886 C15.0546549,125.799858 13.5060634,120.568516 12.3738803,115.336751 C8.1998662,96.0476548 9.99521831,75.4025354 16.7737394,56.9123436 C18.4672606,52.2924376 20.4666972,47.7744023 22.7578944,43.4199523 L23.0423925,42.8816404 C25.3287429,38.5754772 27.8698521,34.2857223 31.0976831,30.6212125 C34.4597958,26.8044376 38.6071901,23.8360227 43.1228239,21.5318818 C45.3265563,20.4074982 47.5940915,19.432962 49.9116972,18.5693847 C50.2839507,18.4305276 50.6587394,18.3060423 51.0343732,18.1874748 C53.4495845,16.6471538 56.3807113,15.1736196 59.3128944,15.2315295 C59.5121197,15.2351225 59.6735282,15.3107859 59.7939507,15.4247037 C59.9352887,15.4494317 60.0766268,15.4794434 60.2181761,15.5206568 C60.5306408,15.611326 60.8606408,15.9539249 60.8158521,16.3058231 L60.8006442,16.4229044 C60.7923845,16.4800856 60.7819648,16.5353495 60.7640915,16.5892438 C60.8688803,16.6048838 60.9717676,16.6298231 61.0725423,16.6642732 C63.8779648,15.8717096 66.6381761,14.6596157 69.3757817,13.6819092 L69.999234,13.4616702 C72.2920962,12.6578334 74.6444437,11.8699503 76.5252887,10.2791695 C78.3964859,8.69657847 79.8035282,6.64669198 80.8207817,4.43068415 C82.0740211,1.70046106 82.6351479,-1.25717495 83.6642324,-4.06010254 Z M139.831669,139.937185 C140.387092,139.523784 141.043923,140.003549 141.25181,140.515228 C141.934204,142.194406 141.597021,144.803737 140.63512,146.288473 C139.638359,147.82668 137.252514,147.219471 137.194838,145.356207 C137.134627,143.413263 138.263641,141.104895 139.831669,139.937185 Z M145.569317,93.5696571 C145.619176,93.3513323 145.958049,93.3534458 146.008754,93.5696571 C146.471203,95.5400155 146.460413,97.6618935 146.5962,99.6821127 L146.611923,99.9061503 C146.77481,102.133994 146.911711,104.367966 147.009317,106.599614 C147.200937,110.990416 147.429951,115.38143 147.686641,119.768851 C147.814035,121.944491 147.950514,124.119919 148.096077,126.294714 C148.551993,126.040459 149.021641,125.817274 149.508401,125.620295 C150.237697,125.325461 150.947768,125.291645 151.731359,125.299677 C152.685655,125.309399 153.404176,126.149094 153.277838,127.084319 C153.140092,128.102816 152.243683,128.539254 151.312838,128.393845 C150.281852,128.232373 149.24643,127.982346 148.205514,127.878784 C148.3215,129.560287 148.441289,131.241368 148.568261,132.921391 C148.736641,135.145853 148.956148,137.367566 149.110373,139.592874 C149.125162,139.80507 149.141007,140.017688 149.157275,140.230941 C149.777979,139.907998 150.437134,139.742722 151.184176,139.539191 L151.378536,139.484665 C152.463137,139.173051 153.623496,138.742213 154.627415,139.471771 C155.302204,139.962315 155.436993,140.769673 154.877979,141.416616 C154.030405,142.39827 152.776294,142.207849 151.605499,142.157797 L150.975663,142.134812 C150.382036,142.111439 149.834375,142.073468 149.285725,141.923645 C149.3865,143.373297 149.439528,144.828444 149.261852,146.25696 C149.165725,147.029023 148.149739,147.231708 147.880796,146.443794 C147.178331,144.385454 147.03319,142.165641 146.776077,140.009657 C146.536001,137.996065 146.390034,135.967801 146.232782,133.94519 L146.185162,133.338596 C145.8315,128.888827 145.548613,124.436733 145.341993,119.977876 C145.135162,115.519653 145.010937,111.062276 144.9615,106.599614 C144.939029,104.573341 144.972605,102.539732 145.05191,100.513713 L145.077063,99.9061503 C145.168331,97.8224477 145.104528,95.611301 145.569317,93.5696571 Z M52.7333451,140.265687 C52.7603873,139.980998 52.9883451,139.627198 53.3274296,139.67137 C53.6398944,139.711949 53.9618662,139.692505 54.2709507,139.744074 C54.6789085,139.811706 55.0072183,140.052857 55.3866549,140.204607 C56.0033451,140.451252 56.6755986,140.578697 57.3083451,140.780536 C58.4954577,141.159487 59.1423592,142.409624 58.6507394,143.577123 C58.1337676,144.804434 56.8346831,145.082994 55.7122183,144.567933 C54.8274452,144.16211 54.1679663,143.513265 53.5730499,142.762377 L53.4044975,142.548251 C53.1481299,142.225635 52.8571727,141.865696 52.7496127,141.474822 C52.6450352,141.093969 52.6965845,140.653092 52.7333451,140.265687 Z M110.408831,134.495887 C111.88746,134.287629 113.150371,134.7933 114.518574,135.269959 L114.629746,135.308529 C116.022211,135.789351 118.053972,136.122228 118.767634,137.547997 C119.198197,138.40777 118.863761,139.549484 117.850521,139.80395 C116.245787,140.206485 114.806942,139.033173 113.480044,138.243332 L113.41031,138.202126 C112.129606,137.451621 110.807704,136.820741 109.989887,135.52622 C109.771648,135.180874 109.960944,134.559081 110.408831,134.495887 Z M58.7921197,16.8597722 C58.1997254,16.9925002 57.607331,17.1097996 57.0155704,17.2226607 C54.7645141,18.4296822 52.5795845,19.682144 50.2554296,20.7574943 C47.7895141,21.8985746 45.3326831,23.0770638 42.9903592,24.4573926 C38.2581761,27.2461597 34.3571197,30.8720853 31.1335986,35.3165706 C25.5654296,42.9938701 21.4235282,51.8475452 18.4592324,60.8309894 C17.6976127,63.1389346 17.0160634,65.4728759 16.4131056,67.8264728 C17.479162,66.840101 18.7412746,66.233737 20.1565563,65.7144493 C20.7563451,65.4944337 21.5029648,65.8668329 21.8069789,66.3863319 C21.943669,66.6196626 22.0207817,66.8504571 22.0066268,67.1241558 C21.9751479,67.7281949 21.5821901,68.4144493 20.9335986,68.5340736 C19.4215563,68.8128446 17.9513451,69.3555922 16.4933873,69.8332438 C16.2724014,69.905737 16.0824718,69.8782614 15.9307817,69.7928759 C14.4833873,75.9260501 13.5778944,82.1854004 13.2571901,88.4825824 C12.9859225,93.8136822 13.1532465,99.1866294 13.7435282,104.510332 C14.1971197,104.306379 14.6407817,104.115107 15.1381056,103.999287 C15.7831056,103.849228 16.4175423,103.666622 17.0466972,103.460344 C18.862331,102.864547 19.6905,105.863185 17.8347254,106.320124 C17.1440915,106.490261 16.4492324,106.631443 15.7455,106.734794 C15.1321901,106.824829 14.5896549,106.785095 14.0114155,106.690833 C14.4531761,110.012203 15.0565563,113.309479 15.8251479,116.559835 L15.9947462,117.271082 C16.9931258,121.422567 18.1567257,125.61275 19.8394437,129.535897 C20.6648662,131.460453 21.7577535,133.288211 23.1071197,134.892782 C23.7700775,135.681753 24.5059225,136.358074 25.3083169,136.998888 C25.9763451,137.532547 28.2471121,138.689681 30.9364648,138.689681 C33.6258175,138.689681 34.353875,138.435142 35.7107113,137.967929 C38.3940282,137.04406 40.941719,135.568983 43.4581718,134.25518 L43.7183873,134.119874 C44.8311338,133.543944 45.9396549,132.959772 47.0452183,132.370105 C46.9055704,131.242551 47.150007,130.29549 47.737331,129.253956 C48.3721822,128.127348 49.9452436,128.688489 50.0621865,129.840796 L50.0659225,129.884837 C50.083669,130.144586 50.1271901,130.409408 50.1812746,130.673385 C57.5737394,126.622434 64.8096549,122.287639 71.9304296,117.770661 C76.5172606,114.86079 81.0552887,111.864265 85.5269789,108.780031 C87.7624014,107.23823 89.9783873,105.668743 92.1724014,104.068398 C93.3216972,103.229972 94.4657113,102.384993 95.6044437,101.532618 C96.0787394,101.177549 96.5439507,100.804727 97.0193028,100.447757 C96.9037394,100.303193 96.7911338,100.158841 96.6821197,100.015968 C94.9070493,97.6911147 93.7554296,94.9198896 93.1816268,92.0609542 C92.8351479,90.3359131 92.6678239,88.5451421 92.6169085,86.7862849 L92.594518,86.0215961 C92.5594437,84.7330051 92.5502887,83.3845315 92.7876127,82.1361558 C92.4645845,82.31369 92.1345845,82.4878427 91.8056408,82.6742536 C90.6252887,83.3431773 89.4438803,84.0106215 88.2605704,84.6748955 C85.890993,86.0045002 83.5144437,87.3188877 81.1076831,88.5802262 C76.8088099,90.8334317 72.4676831,92.9765237 68.0093028,94.8972751 L65.8399469,95.8326934 C62.0749024,97.4528508 58.2791143,99.0436816 54.3645845,100.247819 C52.1566268,100.926888 49.9319789,101.507256 47.692331,102.025486 L48.5980352,103.086888 C49.2121901,103.806747 49.2229648,104.838982 48.4381056,105.444923 C47.6665563,106.040719 46.6313451,105.792594 46.117331,105.001721 L45.1803592,103.55989 C44.9800775,103.251741 44.8664155,102.963036 44.8019789,102.658903 C43.7703169,102.874819 42.7359507,103.082213 41.6987721,103.282708 L39.7380439,103.657164 C36.9382801,104.197761 34.2237315,105.268135 31.721167,106.638023 C30.8511866,107.114244 30.6087965,106.18905 31.5305701,105.544408 C34.2258158,103.659491 37.3697139,102.592859 40.6135511,101.697746 L40.7728944,101.653933 C41.9629648,101.327819 43.1509225,100.987968 44.3363451,100.635858 C44.205993,100.164124 44.1307817,99.6746372 44.1457817,99.1348485 C44.179162,97.9324767 44.2854296,96.7258779 44.3492324,95.5243515 C44.4831761,93.0025198 44.6540915,90.4887194 44.8543732,87.9715374 C44.9312746,87.0018622 45.0174718,86.0294395 45.1161338,85.0578622 C44.4804629,84.7168763 43.9322042,84.2643537 43.223462,84.0417333 L43.1038099,84.0068172 C42.3457817,83.8024415 42.6016268,82.8253691 43.2749366,82.7416744 C43.8848662,82.6662223 44.491838,82.7008838 45.0931056,82.8300188 C45.1862746,82.8503084 45.2743732,82.8729229 45.3584577,82.8984963 C45.4689507,81.9985667 45.5914859,81.100962 45.7307113,80.2084297 C46.0989507,77.8501832 46.3594437,75.3655491 47.1259225,73.0996626 C47.1827535,72.9318505 47.431838,72.871827 47.524162,73.0476705 C48.639208,75.1697087 48.6779925,77.7728346 48.8036607,80.1359277 L48.8192324,80.4183006 C48.967331,82.9963515 48.9757817,85.599553 48.9280352,88.1811969 C48.8790211,90.8416744 48.7879648,93.4953886 48.6685986,96.1535413 C48.6206408,97.2238192 48.6225423,98.3342536 48.4402183,99.3578231 C55.0757113,97.1999366 61.5939507,94.6170247 67.8417676,91.5585746 C72.2490211,89.4013221 76.6182465,87.1576274 80.9376127,84.8296039 C83.101838,83.663373 85.2762042,82.5159523 87.4381056,81.345283 C88.1955704,80.9349816 88.9524718,80.5233652 89.7090603,80.1110599 L90.8437394,79.4921636 C91.9055704,78.9124297 92.791838,78.3356548 94.0285986,78.2950755 C94.3972606,78.2828172 94.7278944,78.4557018 94.9626127,78.7171421 C95.6272606,78.2456196 96.3954296,77.9560697 97.2016268,77.9628329 C98.4151479,76.2859796 99.6472606,74.6228642 100.928387,72.9958896 L101.874853,71.791307 C103.513017,69.7131289 105.248294,67.6034245 107.33719,66.0215413 C108.269514,65.3158427 109.295007,64.7864102 110.364444,64.3489151 C110.112824,64.2874121 109.866486,64.1637722 109.646979,63.9600305 C108.6255,63.0125472 108.484796,61.2526333 108.277331,59.9304258 C108.062049,58.5593965 108.145289,57.3322967 108.357824,55.9657057 C108.44043,55.4345824 109.319725,55.3240462 109.534373,55.8118427 C109.986678,56.84035 110.465697,57.8260634 110.877303,58.8661625 L110.998669,59.1799209 C111.44043,60.3508016 112.381415,61.5825511 112.319303,62.8527663 C112.302401,63.2008603 112.185782,63.5041479 112.005782,63.7480462 C112.903458,63.4498309 113.814021,63.1839523 114.710641,62.9066607 C117.532542,62.034418 120.365218,61.186692 123.241415,60.5099483 C124.007049,60.3298779 124.776486,60.1626998 125.549092,60.0092595 C125.95388,58.0868172 126.543739,56.1998818 127.239232,54.3469738 C126.580711,54.0094474 126.154373,53.4436626 125.587331,52.9404376 C125.056627,52.4691264 124.691979,51.8953104 124.239232,51.3542536 C123.827049,50.8620188 124.058599,49.9726568 124.799303,50.0014004 L125.009162,50.0102159 C125.776517,50.0458691 126.519743,50.1252693 127.21557,50.4834904 L127.463441,50.611337 C127.803477,50.7879786 128.175613,50.9902661 128.507049,51.2293456 C128.940324,50.2319483 129.390911,49.2440912 129.846339,48.2662634 L130.43727,47.0017942 C131.96944,43.710664 133.497388,40.2942928 135.420993,37.2297135 C136.276204,35.8673495 137.414303,35.0166646 139.047824,34.8849933 C140.729937,34.7495178 142.47881,34.9245159 144.163246,34.9847507 C146.115993,35.0547076 148.068106,35.1375569 150.018951,35.2400618 C149.51888,34.7161245 149.062542,34.1327977 148.560359,33.6299953 C147.726697,32.7962184 146.845923,32.0057683 145.920148,31.2751303 C144.087824,29.829283 142.073176,28.6379014 139.98057,27.612007 C137.887542,26.5859014 135.733035,25.6912556 133.768246,24.4235765 C132.524937,23.6215022 131.413669,22.6120932 130.399796,21.5198348 C129.761556,28.4077409 126.436838,34.8070051 121.442049,39.6148016 C116.254162,44.6079523 109.085007,47.3512791 102.071768,48.518144 C94.9182465,49.7084689 87.4522606,49.2716078 80.6090915,46.7842262 C77.0807113,45.5015413 73.6966268,43.6691342 70.678669,41.3706998 C70.6455,41.5706372 70.6055704,41.7682497 70.5271901,41.9540266 C70.4220053,42.2036841 70.2933664,42.416286 70.1458026,42.635583 L69.8827476,43.0203881 C69.7167762,43.2622332 69.5476328,43.5021373 69.3593028,43.7266215 C68.9031761,44.2700031 68.2569085,44.5079836 67.5607817,44.5054474 C66.2278944,44.501009 65.2184577,43.1935961 65.5771901,41.900555 C65.8026127,41.0879131 66.2849366,40.5988485 67.0378944,40.2807663 C67.2758662,40.1801636 67.5184352,40.0959278 67.7623563,40.0130176 L67.9455,39.9508485 C68.1920493,39.8665198 68.4366972,39.7859953 68.6904296,39.7392869 C67.2614155,38.4775256 65.9355,37.1054395 64.7481761,35.6247194 C61.024162,30.9811421 57.3510634,24.4776822 58.5960634,18.310692 C58.6176127,18.2048055 58.7128944,18.1382301 58.8155704,18.1213221 C58.8878239,17.6884767 59.1181056,17.2697918 59.4335282,16.9882732 C59.2212042,16.9324767 59.0071901,16.8893613 58.7921197,16.8597722 Z M97.4622887,123.484896 C98.1998239,123.074665 98.9616549,124.049624 98.3622887,124.651761 L97.4674184,125.547387 C96.636923,126.382311 95.8285897,127.226197 95.1176408,128.177718 L94.9454975,128.410291 C93.9859048,129.716275 92.9625957,131.229525 91.3902465,131.717624 C89.4884155,132.307926 87.6607394,129.99047 88.7620775,128.297554 C89.7241901,126.818102 91.5767958,126.259926 93.1739789,125.648278 C94.6849648,125.069601 96.0497535,124.270485 97.4622887,123.484896 Z M36.1099859,116.65769 C36.5432958,116.090214 37.6731549,116.389064 37.377169,117.192195 C36.4156901,119.799835 36.0237887,123.355592 33.5954789,125.088031 C32.8120986,125.646629 31.5814648,125.389839 30.9364648,124.744798 C30.2035775,124.011623 30.1742113,122.979177 30.5933662,122.084743 C31.1045655,120.993635 32.3619014,120.202571 33.2432539,119.371441 L33.3223099,119.295764 C34.2704789,118.374488 35.2959718,117.723741 36.1099859,116.65769 Z M137.600242,119.658867 C138.373651,119.32536 140.389458,118.676895 140.986817,119.44447 C141.014704,119.47258 141.038577,119.503226 141.057803,119.537042 C141.204211,119.79193 141.225972,120.151014 141.057803,120.403789 C140.361684,121.450313 139.636687,122.23153 138.646971,122.976362 L138.535901,123.058983 C137.458437,123.851335 136.446254,124.782122 135.133437,125.139515 C133.313789,125.634921 132.042803,123.355719 133.320761,122.024846 C134.350338,120.952748 135.922073,120.396062 137.28633,119.798216 L137.600242,119.658867 Z M64.5261549,104.758859 C64.2217183,104.208714 64.8436901,103.53345 65.4069296,103.877739 C67.0136197,104.860095 68.8852394,105.597074 70.6898873,106.126506 C71.4202394,106.340816 72.0791831,107.081387 72.0248873,107.880503 L72.0163784,108.001499 C71.9948741,108.283832 71.9559613,108.564141 71.7766479,108.79882 C71.1481268,109.621184 70.2489718,109.937998 69.2887606,109.451258 C67.148831,108.366608 65.6841127,106.852283 64.5261549,104.758859 Z M111.486169,103.092235 C111.447085,102.860806 111.61631,102.682215 111.851451,102.72681 C113.209268,102.984235 114.463352,103.640266 115.629338,104.394364 C116.25469,104.798888 116.857859,105.243147 117.481732,105.651687 C118.252437,106.155969 118.541028,106.57254 118.654901,107.498254 C118.730113,108.109057 118.159901,108.667022 117.637014,108.835679 C116.211847,109.295375 114.579007,107.786838 113.613535,106.806722 L113.570113,106.762544 C112.559408,105.732 111.725746,104.513354 111.486169,103.092235 Z M152.267387,101.491193 C151.95788,100.655091 153.02457,99.9618622 153.722176,100.372516 C154.379007,100.759076 155.091613,101.079694 155.711261,101.522684 C156.28065,101.92998 156.799795,102.412422 157.345852,102.853932 L157.6157,103.067642 C158.617092,103.872937 160.270046,105.864782 158.838232,107.020117 C157.475468,108.119797 155.668677,106.71538 154.754003,105.688568 L154.690204,105.615905 C154.163937,105.00785 153.515134,104.347169 153.133373,103.636821 C152.774007,102.96832 152.530204,102.200907 152.267387,101.491193 Z M138.828528,36.7657996 C137.121697,37.0971969 136.425993,39.204782 135.707261,40.5785589 C134.010993,43.8206724 132.450993,47.1221753 130.884232,50.4279053 C130.401908,51.4447115 129.932261,52.4693378 129.458387,53.4920618 C129.429444,53.5721636 129.392261,53.6509973 129.348528,53.7289855 C128.377754,55.819874 127.378035,57.8970247 126.209514,59.8818153 C127.278951,59.6814552 128.35388,59.5106841 129.432824,59.3762654 C129.378393,58.359964 130.074011,56.9998555 130.418091,56.1443038 L130.446697,56.0722262 C130.875782,54.9757409 131.32557,53.2485863 132.430077,52.6796313 C132.798106,52.4902614 133.191697,52.7276078 133.220007,53.1329777 C133.303669,54.3397879 132.123739,55.720962 131.546979,56.7451656 C131.198176,57.3648446 130.858246,57.9872712 130.526979,58.6164611 C130.402754,58.8519053 130.299021,59.0833339 130.171627,59.2908798 C130.728106,59.230645 131.285218,59.176962 131.84381,59.1378622 L132.207831,59.1129447 C134.278706,58.9763736 136.478164,58.9373613 138.349162,59.9589581 C140.085148,60.9064415 140.972472,62.9292751 140.01881,64.771193 C138.830641,67.0658231 136.214303,67.3699562 133.913599,67.5559444 C131.039937,67.7877957 128.159725,68.2064806 125.306345,68.6148094 C122.354937,69.0370873 119.575711,70.1255413 116.668246,70.6849855 C116.397824,70.7369777 116.229444,70.3831773 116.477472,70.2320618 C118.77091,68.8355815 121.559075,68.0670699 124.123111,67.2842581 L124.3305,67.2207429 C125.721275,66.7933926 127.08057,66.3051734 128.519303,66.0627546 C129.915993,65.8275217 131.321345,65.6368838 132.730077,65.4918975 L132.866892,65.4792511 C134.417934,65.3491518 138.374835,65.3935815 138.207613,63.0962419 C138.096908,61.5757879 135.626345,61.3132908 134.498599,61.2951147 C129.328035,61.2122654 124.120289,62.5851969 119.206415,64.0561949 L118.109426,64.385238 C116.097284,64.9908935 114.082315,65.6140092 112.108035,66.3239836 C109.870711,67.1283828 108.108106,68.3827468 106.478599,70.0995452 C104.671838,72.0031773 102.921908,73.9497135 101.047542,75.7890951 C99.8659225,76.9487742 98.6690915,78.0877409 97.4625423,79.2174082 C97.190007,79.5703632 96.9719789,79.9543867 96.8209225,80.4525393 C96.5657113,81.2941362 96.6244437,82.0763436 96.7207817,82.9407663 C96.9637394,85.1238035 97.0174014,87.3294552 97.321838,89.5057292 C97.6040915,91.5217996 97.9987394,93.6118427 98.8355704,95.4820814 C99.1669305,96.2227321 99.5981887,96.950194 100.089307,97.6007293 L100.485709,98.1162608 C100.658512,98.3402039 100.851778,98.5852402 101.054725,98.8157096 C101.352613,98.4521871 101.783599,98.2156861 102.284514,98.2748642 C103.349092,98.4001949 104.185923,98.3701832 105.230218,98.1254395 C106.038528,97.936281 106.8405,97.7145746 107.645218,97.5093534 C109.225289,97.1060971 110.820148,96.739193 112.384162,96.2761245 L112.653035,96.195098 C113.818567,95.8374594 114.984489,95.38951 115.954585,94.6366802 C117.081697,93.7619014 117.428387,92.4999288 118.263317,91.4087272 C120.045993,89.0785902 123.898246,89.1274121 126.506556,88.4891342 C128.723233,87.9468744 130.856386,87.0911266 132.390396,85.4822359 L132.47991,85.3864063 C132.411908,85.0992869 132.52219,84.7752869 132.78881,84.6264963 L132.846908,84.5941597 C132.950852,84.5360384 133.062824,84.5119444 133.172683,84.5142693 C133.315077,84.3050325 133.452401,84.0890325 133.577261,83.8590834 C133.679937,83.6695022 133.936627,83.8089933 133.903035,83.9962497 C133.882965,84.108054 133.855077,84.2171108 133.828669,84.3263789 C135.31462,83.9440462 136.94653,84.0170583 138.45522,84.0180235 L140.413091,84.0111736 C140.751922,84.0070102 141.256944,83.9899998 141.301838,83.9696196 L141.347874,83.9491564 C141.469942,83.8961378 141.296633,83.9836648 141.381908,83.8704963 C141.475923,83.7455883 141.568035,83.6192008 141.65888,83.4917566 C141.983387,83.0375648 142.290359,82.5696352 142.591204,82.0974787 C139.312542,82.9329464 135.916204,83.4528681 132.568458,83.8863476 C128.976908,84.3519523 125.338035,84.6748955 121.714373,84.6782771 C120.7155,84.6793339 120.724585,83.1707155 121.714373,83.1328838 C125.551415,82.986418 129.368387,82.783099 133.179655,82.2912869 C135.15057,82.0366098 137.113246,81.7172595 139.064937,81.3435922 C139.818401,81.1997049 140.570108,81.0467549 141.31995,80.8851751 L141.881979,80.7623789 C142.234585,80.6843906 143.230923,80.5721636 143.716838,80.2460501 C143.812331,80.0818309 143.907824,79.9180344 144.002472,79.7540266 C143.955993,79.1780971 142.492331,79.2552399 142.149232,79.2543945 C141.176345,79.2524924 140.203246,79.2603123 139.230148,79.2628485 C137.284162,79.268555 135.338387,79.251647 133.39219,79.236007 C129.504021,79.2043045 125.601063,79.0686176 121.716063,79.2347389 C120.772965,79.2748955 120.277542,77.7618387 121.209655,77.3638661 C125.324725,75.6062771 129.892754,75.2243671 134.286697,74.6839444 C136.597331,74.400101 138.909232,74.0720853 141.168106,73.4972125 L141.726589,73.3550905 C143.145605,72.9911726 144.712567,72.5473919 145.907472,71.6802341 C144.111481,70.9534374 141.879072,71.0367295 140.017398,70.9338036 L139.874937,70.9255022 C137.268106,70.7652986 134.656627,70.6832947 132.044937,70.6794904 C126.701134,70.6720932 121.355641,70.861463 116.017754,71.114872 C115.88381,71.1212125 115.856134,70.9096509 115.986275,70.8813299 C121.472683,69.6838192 127.048669,69.1068329 132.663317,69.0180658 C135.278161,68.9766562 137.89428,69.013608 140.506938,69.1292596 L141.465565,69.1735956 C143.693135,69.2696237 146.164918,69.2955866 148.028599,70.641236 C148.312754,70.8462458 148.462542,71.1081088 148.485993,71.385189 C150.9855,66.4009151 153.294021,61.3124454 155.611838,56.2577918 C157.413739,52.3275217 159.148458,48.364281 161.016063,44.4646568 L161.620666,43.203095 C162.430263,41.5196849 163.259683,39.8360853 164.180641,38.2137605 C160.736768,37.7532282 157.273669,37.4334552 153.808458,37.1887115 C150.650965,36.9654129 140.348599,36.4709659 138.828528,36.7657996 Z M137.303535,90.7858568 C137.696282,90.5675319 138.297972,90.7454888 138.394732,91.2299037 C138.466775,91.5906787 138.589732,91.9911875 138.589732,92.3602051 C138.589732,92.8023499 138.431704,93.2827491 138.347408,93.7151718 C138.153676,94.7097863 137.915155,95.5179898 137.409592,96.4039703 C137.093324,96.9583421 136.454662,97.3347569 135.812831,97.3199624 C135.304521,97.3083382 134.854099,97.1718059 134.505296,96.7782716 C134.087408,96.3067491 133.800507,95.6133088 134.029732,94.9784125 C134.630155,93.3150857 135.733817,91.6578881 137.303535,90.7858568 Z M54.0013521,89.1264611 C54.9203662,87.5161832 57.0987465,86.077099 58.9997324,86.2195491 C61.854169,86.4334356 62.4366338,90.2783202 59.6730423,91.1957918 C58.0211408,91.7440344 55.7485352,91.1809973 54.3034648,90.2785315 C53.9138873,90.0354787 53.7710704,89.5299288 54.0013521,89.1264611 Z M24.6649225,83.6251609 C24.4561901,83.3216618 24.8011901,82.974836 25.1121761,83.0431022 C25.8019648,83.1946403 26.5456268,83.260793 27.2212606,83.4666481 C27.913162,83.677153 28.5828803,84.0263037 29.2682324,84.266609 C30.704007,84.7696227 32.2375986,85.0221863 33.6271056,85.629607 C34.1825282,85.8724485 34.6194296,86.6770591 34.5680915,87.2703194 L34.5549966,87.409062 C34.5242474,87.7034964 34.4732606,87.9603499 34.3086549,88.229427 C33.8664718,88.9518223 32.9903451,89.3250669 32.1634437,89.1027264 C30.6294296,88.6905933 29.1304859,87.631517 27.8225282,86.7516658 L27.5808314,86.5910354 C27.0093856,86.214301 26.3949137,85.8205356 25.9344296,85.3358301 C25.4537958,84.8296462 25.0587254,84.1983429 24.6649225,83.6251609 Z M77.3967887,77.768771 C77.220169,77.1326067 78.0113662,76.7122309 78.4725634,77.1421174 C79.3941127,78.001045 80.3577042,78.7974129 81.2602394,79.6781096 L81.3208384,79.7381333 C81.9671565,80.387845 82.907428,81.6399215 82.0668592,82.4806145 C80.9898169,83.5580783 79.4900282,81.9594247 78.9122113,81.1262818 C78.1793239,80.0695303 77.7396761,79.0045362 77.3967887,77.768771 Z M147.918951,72.5089386 C146.551838,73.9575335 144.4455,74.6234982 142.590993,75.1753339 C140.39212,75.8290403 138.126486,76.2196157 135.858528,76.5408681 C133.667049,76.8511303 131.492472,77.1286333 129.335852,77.4847585 C130.967261,77.5050481 132.598458,77.5170951 134.226063,77.5462614 C136.103176,77.5802888 137.979232,77.6208681 139.855711,77.6753965 C141.222401,77.7151303 142.825923,77.5276626 144.124585,78.0357487 C144.358669,78.1270521 144.577331,78.2538622 144.768317,78.4081479 C145.860148,76.4660501 146.906556,74.4971108 147.918951,72.5089386 Z M63.5934296,58.962674 C65.020331,58.5093276 66.3620915,57.9076133 67.8747676,58.0638012 C68.2768099,58.1050145 68.5647676,58.4966466 68.3452606,58.8834176 C67.6283873,60.1454687 66.4627375,60.8578476 65.315253,61.7019631 L65.2140634,61.7768031 C63.9580775,62.7113941 62.6095563,63.5629245 61.2437113,64.3299147 C58.8920915,65.6500086 56.7846972,61.8716994 59.1595563,60.7629558 C60.5885704,60.0957229 62.0896268,59.4407483 63.5934296,58.962674 Z M89.283507,55.6823906 C91.4665352,55.8261088 93.6482958,55.9237526 95.8340704,56.0120971 C98.3659014,56.114602 97.5147042,60.0121127 95.3997042,59.2233534 C93.3102676,58.4438935 91.2206197,57.6743671 89.1123803,56.9473221 C88.4706031,56.7261191 88.5222711,55.6716411 89.2427902,55.6807768 L89.283507,55.6823906 Z M33.291993,48.748537 C33.8577676,48.7088031 34.4284014,48.8324431 34.9950211,48.8873941 L35.5979444,48.9458952 C36.8408011,49.0696173 38.0061455,49.2221803 39.1914296,49.7281456 C41.3784718,50.6618912 40.2038239,54.1789714 38.008331,54.0982356 C36.3855845,54.0386348 34.9979789,53.3413902 33.6276972,52.5298051 C32.4298099,51.8203022 31.6954437,50.9326309 30.8865,49.8186035 C30.6186127,49.4495859 30.9919225,49.0359734 31.3567817,48.9987757 C31.9994577,48.9332571 32.6491056,48.7935546 33.291993,48.748537 Z M142.922451,41.566072 C142.560549,43.8251953 141.662239,45.9425025 140.308648,47.7858998 C139.628366,48.7122481 138.43407,48.7473323 137.759915,47.7858998 C136.806213,46.4258171 137.394277,44.8675905 138.112732,43.561248 L138.325303,43.1787408 C138.647027,42.605204 139.141125,41.7686549 139.70569,41.1909252 L139.715197,41.1317472 C140.017732,38.766526 143.295338,39.2386826 142.922451,41.566072 Z M54.6264296,27.0678646 C55.1706549,26.5775319 56.1729085,26.7248431 56.3495282,27.5229018 C56.5967113,28.6405221 56.7471338,29.8997472 56.5853028,31.0342755 C56.4976268,31.6490935 56.464669,32.339575 56.2229789,32.9125456 C55.9631197,33.5286317 55.4632606,34.0024791 54.9923451,34.4657589 C54.0522042,35.3906278 52.0703028,35.0848039 51.8184718,33.6275436 L51.7864872,33.4488015 C51.6598335,32.7592476 51.4978099,32.0222959 51.6853732,31.3388313 C51.8269507,30.823193 52.1433638,30.2972445 52.4051301,29.8188944 L52.4603028,29.7171405 C52.984669,28.7402795 53.8020634,27.8101268 54.6264296,27.0678646 Z M131.124592,29.4456377 L131.321423,29.4477322 C132.840507,29.4777497 135.617651,29.8476941 135.632466,31.7254755 C135.636,32.1680431 135.308324,32.6266732 134.869099,32.728544 C133.96107,32.9390489 133.374169,32.4024305 132.727056,31.8601057 C132.197831,31.4166928 131.58093,31.062681 130.940155,30.8077926 C130.248042,30.5324031 130.293254,29.4443718 131.124592,29.4456377 Z" id="ðŸ–-Ink" fill="#000000"></path>
                    </g>
                    <g id="head/Short-3" transform="translate(78.591549, 38.043053)">
                        <path d="M88.3994789,71.3525777 C87.0746197,61.7904564 84.0444085,52.5062607 83.6094085,42.8006325 C83.3506056,38.6473879 83.0918028,34.4939319 82.8332113,30.3402646 C82.7349718,27.7461511 79.3665211,26.8709495 78.0799014,29.1691726 C75.1553239,25.9245229 69.9184225,26.4023859 65.9231408,26.5008751 C42.4031408,27.3346521 20.0522958,43.2429886 11.978493,65.4239906 C11.784338,65.952789 11.8430704,66.5156149 12.0625775,67.0192626 C8.29926761,79.5734701 21.6080704,87.6574074 30.6849718,93.2548086 C34.3671549,97.1474583 38.6953944,100.381541 43.5826479,102.596492 C49.2046901,105.242386 55.4628592,106.717611 61.674338,106.858793 C63.0378592,106.890073 63.8569437,105.787247 63.9553944,104.645744 C65.9370845,104.184366 69.3281408,104.716969 70.3760282,102.68547 C82.3268028,97.4928047 90.113493,84.3315992 88.3994789,71.3525777 L88.3994789,71.3525777 Z" id="ðŸŽ¨-Background" fill="#FFFFFF"></path>
                        <path d="M82.8077113,37.4416556 C82.7739085,37.1316047 83.2213732,37.1220939 83.3134859,37.3731781 C84.0708803,39.4374364 84.856162,41.4875342 85.456162,43.6039961 C86.0346127,45.6437378 86.4512324,47.7297652 86.8731338,49.8069159 C87.5728521,53.2540391 88.1745423,56.7265245 88.6722887,60.2102114 C89.7360211,59.379182 91.1272183,59.3035186 92.4372887,59.9502505 C93.0520775,60.2535382 93.2874296,61.0556125 93.1399648,61.6778278 C93.0216549,62.1770372 92.8769366,62.6737104 92.7032746,63.1602387 C93.0744718,63.4888885 93.3898944,63.8942583 93.6189085,64.3596517 C94.2220775,65.5854834 94.0277113,66.872184 93.4866549,68.0415851 C93.5278521,68.1113307 93.5686268,68.181499 93.6070775,68.2558943 C94.3902465,69.7774051 93.9713028,71.1399804 93.3989789,72.6245049 C92.9705282,73.735362 93.2096831,74.9861331 92.2853873,75.824771 C91.9640493,76.8574286 91.4819366,77.8178043 90.7801056,78.6853973 C90.6208099,78.977272 90.3820775,79.2118708 90.0987676,79.384544 C90.0275704,81.0142661 89.8555986,82.6384932 89.5321479,84.2485597 C88.276162,90.50009 84.2899648,96.070227 79.3553873,99.9988063 C74.5266549,103.843268 68.8555986,106.140434 62.7364437,106.882908 C59.7651761,107.243683 56.7894718,107.129977 53.8425,106.614916 L53.4754171,106.549566 C50.7561395,106.056255 47.4654792,105.239375 45.5851056,103.187237 C44.5963732,102.108082 45.1744014,99.7329276 46.9226408,99.9571703 C47.848838,100.075738 48.6550352,100.224317 49.5271479,100.566282 C50.2072183,100.833006 50.8885563,101.090008 51.5867958,101.307699 C52.9241197,101.72427 54.3072887,102.049115 55.6957394,102.228763 C58.588838,102.602642 61.5951761,102.50373 64.4548944,101.939425 C69.6550352,100.913108 74.7070775,98.545773 78.6533451,94.9815616 C83.2405986,90.8384618 85.9296127,85.4762935 86.3253169,79.2917613 C86.7660211,72.4038552 85.9710211,65.3506732 85.3110211,58.4984853 C84.9677113,54.9340626 84.5318662,51.3768258 84.0070775,47.8345949 C83.494331,44.3735225 83.1869366,40.9173112 82.8077113,37.4416556 Z M42.2110436,15.2002719 L42.4333521,15.1661166 C51.264338,13.8217174 60.5558873,13.9170364 68.8565915,17.562829 C70.4474366,18.2621871 72.0044789,19.1054748 73.4706761,20.0840266 C74.5208873,19.9743358 75.5772254,19.8853573 76.6145493,19.8707742 C77.9199718,19.8536548 79.1939155,20.5320892 79.3544789,21.8530286 C80.5777183,22.0052008 81.7039859,22.4553769 82.4244085,23.3559405 C82.7051831,23.7065706 82.8932113,24.1123632 82.988493,24.5350638 C83.7403944,24.7128094 84.4777183,24.9852399 85.1770141,25.3445354 C86.0263099,25.7820305 86.5164507,26.9994082 86.2164507,27.8999718 C86.1471549,28.1043898 86.0683944,28.3035325 85.980169,28.4983738 L85.9122254,28.6437135 L85.9523662,28.6986646 C86.6305352,29.7892321 86.1594085,31.2200736 85.1199718,31.8710325 C84.3403944,32.3592517 83.4699718,32.7481362 82.5741972,32.936238 C82.6481408,33.2955335 82.7157465,33.6569425 82.7706761,34.0225785 C82.7918028,34.170735 82.6018732,34.2764102 82.5171549,34.1303671 C82.7312394,34.796825 82.9996197,35.4971695 83.3222958,36.2314004 C83.5122254,36.6644571 82.9037746,37.0491147 82.6715915,36.6116196 C82.0546901,35.4449659 81.6720845,34.2487233 81.1122254,33.0461401 C80.594831,33.0123241 80.0791268,32.8939679 79.5826479,32.6678231 C79.2572958,32.5198779 79.0103239,32.2704845 78.8328592,31.9724806 C78.8220845,31.9851616 78.8159577,31.9999562 78.8051831,32.0147507 C77.1382817,34.1599562 73.8805352,34.9123632 71.3622254,35.5907977 C68.6582113,36.3201675 65.8903944,36.7701323 63.1124366,37.1019523 C58.2615211,37.6789386 53.3727887,37.7867272 48.4990563,38.0109699 C48.1762394,38.025553 47.8540563,38.041827 47.531662,38.0574669 C45.5520845,39.7947663 43.0022958,40.8743436 40.3868028,41.2025706 C39.0615211,41.368692 37.4939155,41.3264219 36.0078592,40.9878387 C35.4699718,41.5373495 34.7903239,41.9444102 34.0483521,42.1534356 C33.914831,44.9219131 32.3717324,47.5430795 30.0389155,49.0709307 L30.0802921,49.2354929 C30.6599691,51.5995451 30.6524894,54.1836624 28.5744085,55.8267429 C28.2927887,56.0490834 27.9853944,56.2397213 27.6621549,56.3978114 L27.7331769,56.5611002 C28.8065548,59.0707203 29.1493485,61.8428694 27.131662,63.9252634 C26.3135368,64.7692787 24.877109,64.5694359 24.263683,63.6006737 L24.2337042,63.5515961 C24.1996901,63.4938975 24.1629296,63.4385237 24.1276479,63.3818818 C24.0729296,63.4938975 23.9892676,63.588371 23.8650423,63.6412086 C23.0981408,63.9711264 22.7918028,63.7278622 22.092507,63.3875883 C21.4460282,63.0705628 20.7636338,62.8338505 20.066662,62.6501871 C19.4981408,62.5020305 18.9319437,62.3963554 18.3615211,62.3350638 C14.7572958,63.7130677 12.4291268,67.9400736 12.9826479,71.9071186 C13.2826479,74.0671186 14.4680704,76.2059836 16.5340563,77.1021088 C17.4382817,77.4952204 18.5009577,77.6600736 19.4791268,77.5269229 C20.8037746,77.3472751 21.8220845,76.5126528 23.1932113,76.9900932 C23.7340563,77.1781949 24.0722958,77.6032204 24.101662,78.1844337 C24.1504648,79.0972556 23.8270141,79.7820305 23.2819437,80.2892712 C24.2432113,81.0924023 25.0185634,82.2083319 25.8530704,83.098328 C26.8969437,84.2119327 27.9551831,85.3257487 29.0833521,86.3529112 C30.1481408,87.327236 31.2807465,88.2318153 32.4805352,89.0351577 L32.6066062,89.1182042 C34.1100432,90.0974964 36.0043921,90.9673018 36.0763099,93.0148838 C36.0995493,93.6320266 35.7256056,94.1982341 35.2185634,94.513146 C33.3237042,95.6882536 31.2615211,94.1453965 29.7763099,93.0148838 C29.1784225,92.5602693 28.5974366,92.0889581 28.0375775,91.6007389 C27.6636338,91.630328 27.2558873,91.5692477 26.8312394,91.3809346 C26.5587042,91.2625785 26.292507,91.1230873 26.0305352,90.9751421 C25.1791268,91.1886059 24.3763099,91.0005041 23.7150423,90.554555 C22.7622254,90.7891538 21.7523662,90.8166294 20.8946197,90.6285276 C20.1110282,90.4552204 19.4115211,90.0853573 18.8347606,89.5886841 C17.6305352,89.9733417 16.2932113,89.9014826 15.1058873,89.1723241 C14.3939155,88.7350403 13.8382817,88.1113456 13.536169,87.3821871 C13.3823662,87.1413323 13.2839587,86.8603416 13.2765025,86.550728 L13.2763099,86.4332243 C12.2410986,86.4564728 11.2037746,86.1014043 10.4030704,85.2815765 C9.66785915,84.5289581 9.30891549,83.5907742 9.26856338,82.637373 C8.22701408,82.3416939 7.27419718,81.7346959 6.5495493,80.7986254 C5.3495493,79.2473143 5.18919718,77.3303671 5.80609859,75.6184297 C5.76574648,75.5275491 5.72983099,75.434555 5.69814085,75.3415609 C4.74109859,73.9910325 4.10940845,72.3615217 4.16011268,70.727784 C4.1664507,70.4741636 4.20025352,70.2249816 4.25095775,69.9777018 C3.30870423,69.4765902 2.61574648,68.597373 2.54180282,67.4793299 C2.48476056,66.6022262 2.7995493,65.744144 3.36785915,65.0952986 C3.09109859,64.4337722 2.96856338,63.7151812 3.05307042,62.9965902 C3.13969014,62.2589777 3.3995493,61.6185863 3.78004225,61.0840814 C3.77138028,60.8896391 3.78194366,60.692872 3.8136338,60.4920892 C3.77560563,60.2955335 3.74391549,60.0926372 3.72722535,59.8857252 C3.54743662,57.6198387 5.1108169,55.637373 7.01433803,54.591189 C7.51504225,54.3164337 8.05588732,54.0924023 8.59673239,53.9021871 C8.98969014,53.7626959 9.58123944,53.7161988 9.92771831,53.460465 C9.91292958,53.4498975 10.0565915,53.2641205 10.0819437,53.1645746 C10.1094085,53.0419914 10.1389859,52.9215217 10.1539859,52.796825 C10.2108169,52.2726763 10.1685634,51.7337331 10.158,51.2074708 C10.1115211,48.8192125 10.1854648,46.4203867 10.4368732,44.0448094 C10.9037746,39.6402693 12.0553944,35.3308368 14.2988451,31.4821479 C16.1812394,28.2569425 18.7587042,25.5326372 21.714338,23.2733025 C27.6014486,18.7751705 34.9480581,16.3294209 42.2110436,15.2002719 Z M14.9281479,69.9754614 C14.1618042,68.1329223 17.7696745,68.114704 18.7235823,68.2022951 L18.751669,68.20498 C20.8987817,68.4186552 24.2556127,69.4517354 25.1340634,71.6191327 C25.4976549,72.5163147 24.4212465,73.4887374 23.5599085,73.1936924 C22.7167394,72.9049879 22.2439225,72.2848861 21.5672324,71.7423499 C21.3897676,71.5998998 21.2046972,71.4669605 21.0162465,71.3386708 C21.1155121,71.6548358 21.2743454,71.9469456 21.4947764,72.1650808 L21.5467394,72.2140838 C22.5857535,73.1478294 20.7276549,74.6152344 20.0380775,73.3786239 C19.6708944,72.7206904 19.5238521,71.9987178 19.6383592,71.2515945 C19.6723732,71.0311562 19.7315282,70.829528 19.8175141,70.6371992 C19.7490634,70.6029605 19.681669,70.5657628 19.6123732,70.5327922 L19.4886685,70.4753445 C18.6617032,70.0999495 15.1330014,68.6261969 15.1615986,69.9439703 C15.1647676,70.089802 14.9756831,70.0900133 14.9281479,69.9754614 Z" id="ðŸ–-Ink" fill="#000000"></path>
                    </g>
                    <g id="face/Smiling" transform="translate(112.183099, 77.354207)" fill="#000000">
                        <path d="M30.968993,50.9198978 C29.548794,50.3403012 28.2816173,49.3734958 27.3551889,48.1384646 C27.0331038,47.7091169 26.9495926,47.2557326 27.017159,46.8410547 C27.0931327,46.3747786 27.3688808,45.9521824 27.7449394,45.6687178 C28.1221628,45.3843752 28.5940214,45.2441445 29.0502103,45.3156301 C29.4466117,45.3777469 29.8412104,45.5948709 30.1535058,46.0451781 L30.2187521,46.1352289 C30.7695298,46.8806513 31.4872438,47.4922614 32.3050288,47.8864795 C33.0932406,48.2664417 33.9747757,48.4437847 34.8870208,48.3406561 C36.6244504,48.1443157 37.8219743,47.2043274 39.0948115,45.9278391 C39.2525834,45.7666792 39.4104563,45.6004672 39.5690946,45.4315797 C39.6692778,45.278484 39.8083069,45.1800892 39.962667,45.1284632 C40.1340565,45.0711416 40.327938,45.0743848 40.5055187,45.1363808 C40.6767961,45.1961763 40.8299095,45.309486 40.9325762,45.4602937 C41.0301525,45.6036243 41.0854754,45.7806897 41.0675245,45.9843589 C40.9510195,47.3072301 40.2596776,48.4878363 39.2776553,49.4148615 C38.1869942,50.4444414 36.7412431,51.1567117 35.3801317,51.4065272 C33.8805866,51.6817086 32.3525901,51.4845569 30.968993,50.9198978 L30.968993,50.9198978 Z M36.0875289,30.5120405 C37.6828906,31.482148 40.1137318,33.7442494 38.3974899,36.149264 C36.3773089,38.2698449 33.4687045,35.8384541 32.0353946,34.7388307 C30.7063626,33.8866164 29.2131206,36.0784478 30.4461973,37.0735516 C40.8033244,44.7445605 45.006466,30.7657101 36.8944406,29.3714319 C36.0012775,29.2177885 35.6695544,30.2119271 36.0875289,30.5120405 Z M17.5274577,21.5886716 C17.7037243,19.3998697 21.0359789,18.9028321 21.3674577,21.0687499 C21.6642887,23.0089456 21.3148521,24.7912626 20.4412606,26.5380728 C19.6065423,28.2068947 17.5085456,27.4283107 17.3498837,25.9087021 C17.1372039,23.8717299 17.4178099,22.9502317 17.5274577,21.5886716 Z M42.8930282,20.6196517 C43.3576056,20.0109628 44.0283803,19.5954481 44.8320423,19.8302583 C47.3429577,20.5642779 46.6028873,24.1303914 45.7210563,25.8662114 C45.2419014,26.8088337 43.6930986,27.0478708 42.993169,26.2178982 C41.8523239,24.864411 41.3059859,22.1614521 42.756338,20.8282544 C42.7956338,20.7593542 42.8393662,20.68982 42.8930282,20.6196517 Z M20.4058944,12.0111429 L20.802522,11.9416942 C22.0295218,11.7294045 23.5551549,11.5254176 24.4231479,12.5122544 C24.8835,13.0355577 25.0419507,14.0081918 24.4231479,14.509092 C23.3346972,15.3904227 22.1313169,15.0488806 20.8269507,15.1234873 C19.7520211,15.1852016 18.7189225,15.3631585 17.6835,15.6592603 C15.4119507,16.3087397 13.5610352,17.4944149 11.6209648,18.7963327 C11.3663873,18.9671037 11.1065282,18.6414129 11.228007,18.4032211 C12.3479366,16.208771 14.5182887,14.4061644 16.6922324,13.3073542 C17.8525141,12.7208571 19.1222324,12.2343288 20.4058944,12.0111429 Z M40.6041287,11.0281289 L40.9077055,11.0902829 C44.2113469,11.7811043 48.5035506,13.1610768 50.0679842,16.4073021 C50.1275964,16.8663298 50.0646105,16.9647086 50.0133917,17.0289838 L49.9963385,17.0503723 C49.9541341,17.1052595 49.9204583,17.1809212 49.7215736,17.2433957 C49.6663832,17.2302408 49.6106433,17.216308 49.5543131,17.2015401 C48.8372041,17.0135386 48.2698321,16.7545401 47.720556,16.4857982 L47.1250012,16.192275 C46.4340388,15.8533498 45.7369757,15.5267598 44.9982488,15.2856588 C43.4217423,14.7712438 41.8001698,14.4088706 40.1534741,14.2153715 C39.7965654,14.1734678 39.4528848,14.0529641 39.1817455,13.8464404 C38.92438,13.6504079 38.7277692,13.3789964 38.6381257,13.0182314 C38.5219478,12.5513438 38.5553348,12.1978716 38.8057421,11.7766707 C38.9940329,11.4603578 39.263447,11.2411116 39.5728025,11.115213 C39.888177,10.9868648 40.2472278,10.9566068 40.6041287,11.0281289 Z" id="ðŸ–-Ink"></path>
                    </g>
                    <g id="accessories/Glasses-2" transform="translate(88.521127, 88.978474)" fill="#000000">
                        <path d="M78.6572746,20.1750129 C76.0922746,22.8264023 71.8103028,23.5872634 68.3976972,22.1652986 C59.635162,18.5028094 63.9241056,7.07932603 70.6819225,4.01157652 C71.5261479,3.80107162 72.6536831,3.30165088 73.6819225,3.18836712 C73.7748803,3.14271546 73.9772746,3.27480939 74.2225563,3.14990137 C81.6741761,3.98219883 83.3710775,15.5540501 78.6572746,20.1750129 M50.3943169,20.8536587 C47.5174859,24.6708564 42.1690352,25.8485002 37.7991761,24.0740031 C29.1663592,20.6729542 32.2282606,10.543146 38.134669,6.57187397 C50.6115,1.88179961 55.7636831,13.8154826 50.3943169,20.8536587 M31.6802324,12.3958427 C31.6722042,12.3920384 31.6641761,12.3901362 31.6559366,12.3863319 C31.7015704,12.3662536 31.7472042,12.3461753 31.7926268,12.3256744 C31.777838,12.3643515 31.7617817,12.4026059 31.7474155,12.441283 C31.7250211,12.4258544 31.7053732,12.4078896 31.6802324,12.3958427 M84.5964296,8.26965088 C83.8920634,8.27113033 82.8745986,8.38695029 82.2915,8.87580352 C80.8536127,4.02468023 75.5461479,-0.465034051 70.9303732,2.808782 C67.2955141,3.97818317 64.5982606,6.57166262 63.0653028,10.0196313 C60.3012887,8.37490333 55.9550915,9.07722035 53.5582606,11.2522262 C51.9885423,6.06336517 48.1253028,4.24638669 43.5270634,3.97818317 C38.5081901,3.15581918 33.5057958,8.0318818 31.9449507,11.943553 C30.6471338,11.7958192 28.7079085,11.3826294 27.486993,12.1838583 C19.5629789,10.1050168 5.70910563,8.95886419 4.09819014,10.1138935 C2.95016197,10.5545589 2.32016197,13.2653378 3.9236831,13.4115922 C5.32100704,13.2131342 3.76058451,11.4253221 5.16910563,11.2302458 C12.6739648,10.7648524 19.9595282,12.2768524 27.3849507,12.911326 C28.0479085,13.8034356 30.1899507,14.1018622 31.3326972,13.7434121 C29.5329085,20.3789659 33.4181197,24.8934082 39.2395986,26.2456274 C48.2537535,28.3170716 56.0962183,20.2502536 53.7391056,11.859647 C56.4697394,10.5006646 59.6106549,10.5589973 62.5853028,11.2748407 C57.6145986,29.5756626 87.0773451,28.7545667 82.4757254,9.50287984 C85.5380493,11.0267155 86.2031197,8.57716556 84.5964296,8.26965088" id="ðŸ–-Ink"></path>
                    </g>
                </g>
            </g>
        </g>
    </g>
</svg>