<?xml version="1.0" encoding="UTF-8"?>
<svg width="240px" height="324px" viewBox="0 0 240 324" version="1.1" xmlns="http://www.w3.org/2000/svg" xmlns:xlink="http://www.w3.org/1999/xlink">
    <!-- Generator: Sketch 62 (91390) - https://sketch.com -->
    <title>peep-36</title>
    <desc>Created with Sketch.</desc>
    <g id="Introduction" stroke="none" stroke-width="1" fill="none" fill-rule="evenodd">
        <g id="variations" transform="translate(-1326.000000, -110.000000)">
            <g id="images" transform="translate(126.000000, 110.000000)">
                <g id="a-person/bust" transform="translate(1200.000000, 0.000000)">
                    <g id="body/Blazer-Black-Tee" transform="translate(31.056338, 135.052838)" fill-rule="evenodd">
                        <path d="M155.399092,48.0676297 C152.466486,34.1688117 142.066099,23.3836485 128.078493,18.0109127 C125.389799,16.4896036 122.78349,9.96187896 119.170044,8.76641554 C118.590808,8.57478261 119.505081,10.0998734 119.170044,10.1909519 C117.975017,10.515815 116.636022,10.5497381 115.316599,9.37656994 C112.958495,7.27985531 112.218694,1.15424032 110.784955,-1.61433476 C103.223476,-16.2156811 84.3440915,-10.502609 81.8147958,5.63884697 C80.0512119,6.78878168 77.5581564,7.8017844 75.6384508,8.72843306 C73.6616671,9.68263351 71.9228442,11.9938122 69.8856864,12.8201065 C68.0680245,13.5573708 65.0730395,13.0350803 63.2414766,13.6778109 C54.8173757,16.6339896 47.6824192,20.3641573 42.088669,27.9219311 C40.910007,29.515935 39.5813451,31.475575 38.5087394,33.0858528 C32.9790211,39.4540485 29.1381761,46.5917706 25.6007113,54.2496258 C15.703669,76.7269409 13.0116972,101.614283 10.5964859,125.832068 C10.6514155,130.06943 7.84071127,141.819238 11.9978239,143.850737 C11.7493732,144.108373 11.8393732,144.62597 12.3003592,144.621532 C22.8411338,144.515011 33.3574014,145.45869 43.7346549,147.293422 C48.7414859,148.178769 53.7214859,149.392765 58.8214859,149.592279 C69.4083169,149.519152 79.9571197,147.744444 90.530007,149.423833 C103.240337,149.423833 118.687285,149.053328 132.827369,148.509541 C146.042668,148.001319 159.328783,149.149143 172.380359,146.900945 C173.413458,146.73736 173.917965,145.476867 173.701415,144.573555 C172.170148,138.991794 171.418458,133.24687 170.559232,127.533861 C170.730359,123.869469 170.424232,120.044029 169.069162,116.630933 C165.528739,93.5899468 160.98881,70.6992305 155.399092,48.0676297 Z" id="ðŸŽ¨-Background" fill="#FFFFFF"></path>
                        <path d="M151.134169,78.3534505 C150.855296,79.7082059 150.464451,81.0629613 149.944732,82.3460689 C149.444028,83.5843703 148.689803,84.6939593 148.170296,85.9176775 C148.100577,86.0825307 147.986493,86.2072274 147.848958,86.302335 L147.891819,86.6352117 L147.891819,86.6352117 L147.931352,86.9680885 C148.190487,89.2144401 148.481907,91.4545807 148.734301,93.7006219 L148.856915,94.8241902 C149.353183,99.5138419 150.136986,104.180456 150.745437,108.857638 C151.341211,113.437599 151.947761,118.01756 152.596141,122.59118 C153.265859,127.306405 153.948254,132.01529 154.744732,136.711494 C155.081,138.69484 155.431939,140.676572 155.797549,142.656689 L156.079944,144.172159 C158.986986,144.871728 159.781352,148.925427 156.821493,150.421787 C155.478042,151.098108 153.751986,150.935368 152.644732,149.872488 C151.494118,148.764777 151.446353,146.767153 151.179315,145.266799 L150.922063,143.872583 C148.997136,133.388851 147.326485,122.784355 146.545437,112.152589 C146.344732,109.40736 146.175718,106.659807 146.065859,103.909928 C145.961475,101.323529 146.011359,98.7373071 145.971417,96.1507747 L145.958113,95.4453487 C145.897056,92.6872274 145.947549,89.9333331 146.01938,87.1752117 C146.027831,86.8391648 146.04262,86.5031178 146.059521,86.1649573 C145.962549,86.0508282 145.89262,85.915564 145.863254,85.7845268 L145.825014,85.6112196 C145.729944,85.1652705 145.83769,84.6432352 146.180155,84.3240963 C146.327831,82.4451922 146.522197,80.5684016 146.575014,78.691611 C146.579239,78.5373252 146.80107,78.5417636 146.813958,78.691611 C146.938606,80.2894192 147.18769,81.8914544 147.436986,83.4913761 C149.040507,82.2021393 150.225718,80.0759554 150.925014,78.2963859 C150.975718,78.1674622 151.163958,78.2139593 151.134169,78.3534505 Z M113.19469,3.65790294 C113.460887,4.87528063 113.986944,5.96817299 114.692577,6.98476791 C115.028704,7.47087358 115.410887,7.92316321 115.869338,8.30148023 C116.262507,8.62463483 116.710394,8.83598513 117.128493,9.11729237 C117.736944,9.02197339 118.372859,9.25255656 118.79962,9.70040783 L118.732225,9.04543327 C118.710887,8.83408297 119.061803,8.79181292 119.101944,8.99661135 C120.950245,18.3217386 122.63595,27.652883 124.095094,37.0454778 L124.734683,41.1933915 L125.336493,45.0874098 C126.335717,51.5762214 127.302257,58.0624431 128.030113,64.5986466 C128.999831,73.3212845 129.815113,82.0669597 130.410887,90.8251045 C131.008775,99.6449636 131.376592,108.470741 131.638563,117.307508 C131.703845,119.53514 131.773775,121.760658 131.841169,123.988079 L132.292443,121.324923 C132.74282,118.661206 133.184461,115.995022 133.563,113.319328 C134.921451,103.743046 136.007577,94.0989205 136.537648,84.4404235 C137.023775,75.6017542 136.861099,66.5876642 134.613211,57.9770419 C134.046803,55.8107014 133.353845,53.6781769 132.517437,51.6006035 C131.705958,49.5803061 130.599127,47.7075311 129.72638,45.7168227 C128.712296,43.4004235 128.40807,41.2150614 128.930113,38.721128 C129.386451,36.548447 130.187155,34.5046896 130.330606,32.2686035 C130.599127,28.1176838 129.248915,24.0975898 127.34138,20.4646896 C126.838352,19.5072728 126.30807,18.562537 125.754549,17.6260438 C124.079408,14.7962748 122.190465,12.0696446 120.230113,9.45545284 C120.124479,9.31596164 120.348211,9.16167593 120.462507,9.27580509 C122.24962,11.0426935 124.203845,12.779993 125.811803,14.7096211 C126.593282,15.6480164 127.355958,16.6052219 128.078493,17.5882121 C136.005465,18.9133785 142.816732,23.8524235 147.472859,30.3749049 C152.756662,37.7763922 155.429197,46.684807 157.406873,55.4577464 C159.606169,65.2075468 161.461099,75.0459029 163.436451,84.8438912 C165.48131,94.9825761 167.515817,105.12105 169.573563,115.25741 C170.596099,120.289449 171.618845,125.321911 172.639056,130.356275 C173.156662,132.905159 173.699831,135.447703 174.26793,137.988134 C174.55969,139.290052 174.872366,140.589856 175.142789,141.896001 C175.446803,143.369112 175.163704,144.311523 174.166732,145.393848 C173.798915,145.795414 173.21793,145.789073 172.761592,145.575609 L172.618936,145.508414 L172.481059,145.441816 C171.916391,145.1642 171.47369,144.876521 171.122366,144.258686 C170.735535,143.580463 170.674268,142.828056 170.54138,142.073535 C170.296099,140.684752 170.053352,139.296392 169.808282,137.905707 C169.442102,135.82602 169.043955,133.752278 168.638708,131.67904 L166.605518,121.318038 C166.063352,118.555425 165.520394,115.793077 164.974268,113.031891 C163.024268,103.157605 161.072155,93.2854333 159.120254,83.4132611 C157.246099,73.933989 155.587648,64.3896211 153.454056,54.9653002 L153.332751,54.4343716 L153.209384,53.9041521 C151.301501,45.7797801 148.635799,37.9209029 143.798915,31.0364313 C140.07638,25.7421065 134.906873,21.0142004 128.81793,18.6215037 C129.247014,19.2388579 129.658986,19.8686818 130.051944,20.5111867 C132.519549,24.5437503 134.321451,29.3308344 133.898915,34.1327131 C133.692085,36.4787014 132.800535,38.7845331 132.884831,41.1495429 C132.963,43.2503648 134.262507,45.0954528 135.160394,46.9234215 C137.198915,51.0660986 138.673775,55.4685252 139.624479,59.9848697 C141.532225,69.0539108 141.525887,78.3852376 140.868634,87.591445 C140.154549,97.5990928 138.798423,107.604416 137.254056,117.51442 C136.461803,122.597394 135.407577,127.63831 134.600324,132.712831 C134.201239,135.215007 133.65807,137.711265 133.182718,140.200971 L132.956169,141.390459 C132.82933,142.050589 132.697731,142.708589 132.545723,143.359601 L132.451944,143.749332 L132.451944,143.819077 C132.447718,144.299054 132.316521,144.696392 132.105254,145.013418 C131.816028,145.941034 131.456873,146.845825 130.979408,147.714474 C130.734338,148.15831 130.379197,148.407492 129.992577,148.498584 C129.603845,149.388369 128.722859,150.072932 127.670958,150.068969 L113.834831,150.016079 C105.798211,149.984165 97.7615915,149.931328 89.7249718,149.886944 C87.6970141,149.876588 85.6709577,149.838545 83.6449014,149.785707 C81.7456056,149.73287 79.9244789,149.504611 78.0463099,149.267899 C75.9249718,149.001598 74.7758873,147.498897 75.0927887,145.379054 C75.162507,144.911758 75.2383521,144.446999 75.3103944,143.982028 C74.8878592,144.121519 74.3850423,144.056001 74.0449014,143.724181 L73.7260047,143.411959 C73.2839572,142.974489 72.8885936,142.544907 72.6082817,141.961308 C72.3188451,141.361285 72.0841268,140.727234 71.828493,140.114318 C71.2770845,138.795492 70.7406761,137.472439 70.2186338,136.143046 C69.1730704,133.484259 68.1272958,130.814905 67.1552535,128.128431 C65.2308169,122.808744 63.5277887,117.408744 62.0470141,111.947664 C59.406169,102.204416 57.4960986,92.2730654 56.2918732,82.2529479 L56.0039615,79.8647931 L55.9202464,79.1593603 C55.4635933,75.2756684 55.0792769,71.3316851 55.2608873,67.4563139 C55.3730704,65.0298012 55.7489155,62.5846896 56.6554648,60.3188031 C57.4918732,58.2287601 58.7827183,56.4407366 60.0101831,54.5724 L60.1506462,54.3567334 L60.2918604,54.135809 C61.3653401,52.4388327 62.2195003,50.6646937 62.2622958,48.6038677 C62.3056684,46.512528 61.6966344,44.4772108 61.0156753,42.5193301 L60.8459582,42.0364777 L60.7320493,41.7168916 C59.2833898,37.6704159 57.6347852,33.6811632 58.178493,29.2779969 C58.9815211,22.7937699 62.9108873,17.5670771 67.8547606,13.536627 C63.4580704,14.4073902 59.106169,16.1275703 55.2653239,18.3089166 C50.7291972,20.8873902 46.6453944,24.2901299 43.1235634,28.1303648 C36.4686338,35.3879225 31.7172254,44.0957659 27.828,53.0866074 C23.756662,62.4959225 20.7376479,72.3554137 18.462507,82.3438286 C16.1744789,92.389308 14.6427887,102.595414 13.5968028,112.841676 C13.0751831,117.941559 12.6651127,123.053911 12.3251831,128.168799 C12.1519437,130.789543 12.0209577,133.414514 11.8181408,136.03103 C11.6153239,138.645433 11.5242676,141.299782 10.8862394,143.84465 C10.5883521,145.030326 8.57919718,145.150795 8.36391549,143.84465 C7.88614002,140.927643 8.01966513,137.911086 8.1530081,134.957304 L8.16511268,134.688956 C8.29630986,131.74696 8.46743662,128.807077 8.67004225,125.867195 C9.08433803,119.858506 9.63764789,113.858271 10.3601831,107.877058 C12.8932817,86.8815194 17.5646197,65.9958834 26.7272958,46.8306387 C31.0413803,37.8038677 36.5787042,29.0328305 44.2815211,22.5147875 C47.9489155,19.4140673 52.0834225,16.9391554 56.5390563,15.1471162 C60.5237746,13.5429675 64.571662,12.78422 68.8054648,12.7863335 C70.9287042,11.1589362 73.2082817,9.74077573 75.4855352,8.5295272 C75.6228592,8.45576595 75.7665211,8.6333002 75.6526479,8.74742935 C75.593493,8.80449393 75.5362394,8.86346067 75.4772958,8.91862309 C75.7350423,8.93553112 76.0010282,9.05600078 76.2397606,9.30750763 C77.0765915,10.1844 77.7822254,11.2815194 78.4137042,12.4204861 C79.3749718,13.6211671 80.2918732,14.861582 81.2512394,16.0493706 C82.7869437,17.9515233 84.3587746,19.8262004 85.949831,21.686083 C88.6218102,24.8118203 91.3808224,27.8783749 94.2579441,30.8215922 L94.7385634,31.3109753 C96.2299014,32.8223413 97.7406761,34.6312885 99.5045493,35.8275311 L99.5987243,35.890197 C100.342918,36.3752256 100.870639,36.4633151 101.505254,35.7389753 C102.08221,35.0795624 102.562438,34.3144528 103.056054,33.5874825 L103.170254,33.4204626 C105.690676,29.757762 108.027296,25.9597973 110.142085,22.0498168 C111.106041,20.2704395 112.02303,18.465211 112.893051,16.6400067 L113.152648,16.0918521 C113.625887,15.0858247 114.139268,14.0988188 114.529901,13.062991 C114.620746,12.8201495 114.709479,12.5770967 114.796099,12.3361573 C113.465113,11.4632806 112.434338,9.573809 112.060394,8.09435695 C111.671662,6.55784031 111.868141,4.98095577 112.560887,3.57568767 C112.691873,3.3114998 113.13131,3.37680705 113.19469,3.65790294 Z M47.5352372,66.0971624 C47.3510493,71.9390959 47.2392887,77.7871585 46.9644296,83.6246536 L46.8695704,85.6174755 C47.2982324,86.0953386 47.5496408,86.6467515 47.3489366,87.4035969 C47.2709789,87.6931468 47.0404859,87.9552211 46.753162,88.0524423 L46.6635815,89.9053239 C46.2558614,98.2419842 45.777907,106.561335 44.9045704,114.877022 C43.8123169,125.28391 42.5489366,135.673679 41.2878803,146.061757 C41.1083028,147.532755 40.0855563,148.699198 38.4947113,148.483832 C36.8850634,148.26593 36.2322465,146.864677 36.4435141,145.404247 C37.2737958,139.674751 38.0721761,133.940607 38.7716831,128.19209 L39.5681432,121.64259 C40.566852,113.455494 41.5890478,105.26966 42.7667535,97.108591 C43.259007,93.6976086 43.7702746,90.2885284 44.2834437,86.8792368 L44.1040775,86.6467515 C43.3707676,85.693773 42.6123169,84.7617182 41.8623169,83.8233229 C40.4216831,82.0141644 38.9998521,80.219589 37.6794296,78.3258904 C37.6137254,78.2307828 37.7470352,78.0912916 37.8418944,78.163362 C39.6925986,79.5307984 41.4442183,80.9931311 43.2061901,82.479135 L44.7484437,83.7850685 C45.6357676,77.8947358 46.5146408,72.0022896 47.2982324,66.0971624 C47.3174577,65.9494286 47.5392887,65.9386497 47.5352372,66.0971624 Z M74.1568732,10.1909519 C73.0432817,11.2411515 71.9047606,12.2685252 70.7827183,13.3125957 L70.3717365,13.6968454 L69.9626554,14.0828637 C67.9907608,15.9535661 66.1015019,17.9008825 64.5272958,20.1370967 C61.6371549,24.2436329 59.9153239,29.25031 61.1172254,34.2637503 C62.1146197,38.4165722 64.4026479,42.1809323 65.0174366,46.4375272 C65.3256761,48.5700517 65.1758873,50.7131436 64.3728592,52.7271006 C63.5531408,54.7816368 62.2432817,56.5421847 61.0665211,58.3957268 C58.5101831,62.4240634 58.1615915,66.8455115 58.4153239,71.512126 C58.6815211,76.3858638 59.241169,81.2615037 59.9322254,86.0910693 C61.3306056,95.8765879 63.4390563,105.560658 66.2299014,115.043946 C67.6265915,119.792987 69.2763803,124.44058 70.9181408,129.107195 C71.7355352,131.429934 72.6885634,133.697723 73.6707465,135.954733 C74.1883521,137.142733 74.7188451,138.323969 75.2575775,139.503304 C75.0587746,137.838075 75.0587746,136.128251 74.9615915,134.473378 C74.8221549,132.102028 74.6446901,129.734905 74.4820141,127.365668 C74.1505352,122.557449 73.8547606,117.745003 73.5906761,112.932557 C72.6547606,95.7709127 71.9660282,78.5944744 72.0165211,61.405355 C72.0420845,52.8097386 72.2174366,44.2141221 72.5871549,35.6267483 C72.7604789,31.5829127 73.0961239,27.5429434 73.3994766,23.5047784 L73.4639155,22.6394841 C73.7322254,19.0148266 74.0533521,15.3817151 74.6045493,11.7887601 C74.4413568,11.420353 74.299698,11.0472702 74.1945591,10.6646131 L74.1568732,10.5206583 L74.184338,10.5248853 C74.1589859,10.4126583 74.1505352,10.300854 74.1568732,10.1909519 Z M83.786493,-4.57824892 C83.8095211,-4.67758356 83.9510704,-4.66912955 83.9764225,-4.57824892 C84.6038873,-2.46474599 84.3820563,-0.139892759 83.8414225,1.98629119 C83.5498732,3.13815029 83.1357887,4.25619335 82.6350845,5.33407984 L82.4598655,5.71129057 C82.0308574,6.62927093 81.5478054,7.57509746 80.712338,8.14715225 C80.3639577,8.38597808 79.740507,8.4007726 79.3919155,8.14715225 L79.2141377,8.01220117 C79.1848732,7.98934403 79.156,7.9660955 79.127831,7.94214247 C78.8026901,7.66950059 78.6419155,7.06715225 78.7919155,6.6698137 C79.1785352,5.64476477 80.055507,4.89235773 80.6616338,3.97932446 C81.1984648,3.16773933 81.6738169,2.31177065 82.0686761,1.42198591 C82.9200845,-0.503415264 83.3024789,-2.5471726 83.786493,-4.57824892 Z" id="ðŸ–-Ink" fill="#000000"></path>
                    </g>
                    <g id="head/No-Hair-3" transform="translate(78.591549, 38.043053)" fill-rule="evenodd">
                        <path d="M84.264364,40.5969618 C76.8317584,21.0350127 63.4337324,6.71244305 40.8466901,15.7083569 C40.1987324,15.2670575 39.3532394,15.1487014 38.5430282,15.6654528 C26.2390141,23.3943217 17.378662,35.7855781 13.5388732,49.7581573 C11.2020423,50.202627 8.93133803,50.9778599 6.90316901,52.2491319 C2.49528169,55.0121143 -0.47028169,59.4086231 -3.25014085,63.69058 C-4.08612676,64.9779147 -3.31204225,67.109171 -1.74105634,67.4014685 C-1.05866197,67.5287014 -0.382394366,67.6043648 0.290070423,67.6242317 C0.126338028,68.2187601 -0.0891549296,68.7932102 -0.363591549,69.3201065 C-1.3571831,71.2273315 0.519929577,73.2522787 2.27915493,72.7308775 C2.4743662,72.8342278 2.67887324,72.9191906 2.89077465,72.9830184 C2.91485915,74.0634411 3.46985915,75.5097112 4.56823944,75.728036 C6.34457746,76.1093119 8.70528169,74.7492728 8.28612676,72.7617346 C8.82274648,72.8562082 9.35746479,72.8680438 9.87866197,72.8025252 C9.93697183,73.8375076 9.91880282,74.9175076 10.0616197,75.8721769 C10.5285211,80.371402 15.0221831,83.3937112 19.3075352,82.0250067 C19.5703521,83.4268932 19.8790141,85.3966779 21.2592254,86.1571162 C22.8728873,90.685719 25.6592958,95.8538677 30.2230986,97.9172806 C29.816831,98.9586035 30.0371831,100.225437 31.2608451,100.922259 C39.6145775,105.686729 49.641338,107.298909 59.0858451,105.527582 C62.8603521,105.302705 66.5378873,104.449484 70.0677465,102.63166 C72.641831,101.306071 75.0082394,99.6226661 77.3182394,97.8872689 C79.629507,96.1512376 82.1007042,94.4608579 83.945493,92.206807 C85.9491549,89.7587366 86.8819014,86.8784548 87.4871831,83.8128188 C90.2609155,69.8977268 89.3028852,56.2345948 84.264364,42.9791271 C78.0274617,26.570928 90.49902,57.0060153 84.264364,40.5969618 Z" id="ðŸŽ¨-Background" fill="#FFFFFF"></path>
                        <path d="M48.3314789,11.8964008 C52.1353521,11.6277746 56.0085211,12.2692227 59.6309155,13.4166434 C65.4082394,15.2460916 70.7140141,18.4746787 75.0730986,22.677802 C79.5657042,27.0094262 82.8883099,32.3500368 84.908662,38.2486121 C87.345,45.3622403 87.7096479,52.9577472 88.3954225,60.3835397 C88.741838,64.1353667 89.312671,67.8299706 89.9061363,71.5454515 L90,72.1322912 C90.5797183,75.752299 90.9059155,79.4135202 90.105,83.0278215 C88.7735915,89.0348196 84.7823239,94.1338568 80.0446479,97.9015984 C70.3121831,105.641669 55.161338,110.360487 43.8295775,103.238193 C42.0764789,102.136213 43.7376761,99.3182795 45.4491549,100.466546 C46.6535915,101.27496 47.9296479,101.983618 49.2980282,102.472894 C55.0153521,104.516863 61.2944366,103.788761 66.945,101.887454 C72.5133803,100.013833 77.8565493,96.8480172 81.9652817,92.6235476 C86.2810563,88.1862481 88.6728169,82.705301 88.3271831,76.4687765 C88.1211972,72.7580994 87.2761268,69.1161112 86.8071127,65.4356571 C86.3916479,62.1759311 86.1425531,58.8985306 85.8554238,55.6256223 L85.7501825,54.4483827 C85.1414197,47.7801372 84.2670865,40.9289811 81.2342958,34.8760955 C78.6832394,29.7838215 74.9478169,25.253528 70.4562676,21.7548352 C65.7538732,18.0919233 60.1373239,15.5301464 54.2442254,14.5746317 C47.3142254,13.4510935 40.6804225,15.4942168 34.899507,19.2976767 C29.7724648,22.6708274 25.3645775,27.1785065 21.9847183,32.2931836 C20.3457042,34.7731679 18.9494366,37.4215984 17.7437324,40.1376611 C16.6075352,42.6966904 15.8241549,45.3787256 14.9104225,48.0163773 C15.6623239,47.9939742 16.4266901,48.0229292 17.2028873,48.1087374 C21.1840141,48.5500368 24.8932394,50.6140838 27.2545775,53.8686669 C30.1402817,57.8456454 29.3602817,62.7274145 30.4873944,67.2503108 C30.5746479,67.6013636 30.426338,67.9450192 30.1257042,68.1392501 C28.4167606,69.2441894 26.1295775,69.2809644 24.4755634,68.0367452 C23.04,66.9569566 22.3660563,65.0047139 22.9472535,63.2989057 C23.0230986,63.0765652 23.3467606,63.1158763 23.3558451,63.3542795 C23.4650704,66.2571757 26.1572535,68.4926278 28.7961972,67.1112423 C27.6642254,63.2111953 28.26,58.8554771 25.9447183,55.3326904 C21.8467606,49.0978568 13.3664789,48.8402207 7.41021127,52.3549761 C4.27552465,54.2044356 1.79434266,56.9853862 -0.0532217342,60.0959588 L-0.585496518,60.9989565 C-1.29369903,62.2054812 -2.04370246,63.5703851 -2.1906338,64.8990387 C-2.27535211,65.6658176 -1.99246479,66.3863108 -1.11316901,65.9999624 C-0.401830986,65.6875867 0.148943662,64.9586395 0.571478873,64.3319859 C1.29209677,63.2631807 2.94804554,64.1865577 2.35281726,65.3247084 L2.33260563,65.3618959 C1.46632394,66.8972169 0.932986203,68.5891027 0.835044591,70.3519171 L0.81015515,70.8400693 C0.793823999,71.1958468 0.782086268,71.7014932 0.857323944,71.7199468 C0.947535211,71.7421386 1.5743662,71.0182638 1.67873239,70.9180838 C2.1815493,70.434937 2.6993662,70.0401346 3.39929577,69.9114223 C4.31939718,69.7427197 5.24772545,70.8815701 4.44903403,71.6281835 L4.41570423,71.6582325 C3.70288732,72.2781229 3.73457746,73.5143108 4.52197183,74.0940446 C5.63325232,74.9122254 7.00139092,73.5767793 7.16267952,72.4772467 L7.16809859,72.4366356 C7.31070423,71.2486356 8.96007042,71.2065769 9.04964789,72.4366356 C9.24422535,75.1059898 6.06739437,77.343344 3.65028169,75.99662 C2.69450704,75.4644399 2.08690141,74.4899037 1.8965493,73.4454106 C1.59147887,73.6066708 1.26232394,73.7184751 0.914366197,73.7493323 C-0.218450704,73.8497237 -1.02380282,73.0529331 -1.20697183,71.9835006 C-1.42035211,70.7375906 -1.29380282,69.4035476 -0.965704225,68.1096611 C-1.58091549,68.258029 -2.22802817,68.2013871 -2.87852113,67.8258176 C-4.84647887,66.6898098 -4.28133803,64.1629057 -3.53830986,62.4568861 C-0.366126761,55.1750231 6.20598592,48.5675789 14.3482394,48.0430074 C14.3928169,46.758209 14.5669014,45.5435789 14.8516901,44.2570896 C17.6366197,31.6735045 26.6585915,20.0213401 38.4040141,14.5752658 C41.5426056,13.1199076 44.8711268,12.1409331 48.3314789,11.8964008 Z M17.5300141,62.1630669 L17.6416373,62.1379014 C18.9105757,61.8643956 22.2499606,61.543092 21.8474789,63.6792939 C21.8284648,63.7796853 21.6824789,63.767427 21.656493,63.6792939 C21.2622676,62.3361628 18.5842394,63.410245 17.802338,63.733611 C16.7244507,64.1791374 15.6611408,64.8364368 14.781,65.6004681 C12.8540282,67.273517 11.562338,69.6313409 11.3658592,72.1920611 C11.1710704,74.7322802 11.9077606,77.4760297 13.7394507,79.3135092 C14.637338,80.2140728 15.7834648,80.8255092 17.0709296,80.8705268 C18.2276197,80.9106834 19.5055775,80.0099084 20.5729014,80.5374387 C20.7833239,80.6414231 20.9500141,80.9269573 20.931,81.1619789 C20.8950845,81.6068712 20.6960704,81.9532744 20.3998732,82.2219006 C22.1867746,85.4794427 23.649169,88.9274114 25.9285352,91.8896971 C27.072338,93.3759123 28.3684648,94.7522254 29.8361408,95.9235288 C30.5337465,96.4804368 31.2921972,96.9695014 32.0743099,97.3991765 C32.9907887,97.903247 33.7838873,98.2185816 34.4379718,99.0724368 C34.9957183,99.8005386 34.4377606,101.208343 33.5183239,101.333885 C31.3530423,101.62893 29.2488169,99.8776814 27.6592394,98.5658301 C26.0711408,97.2550356 24.6985352,95.6382059 23.5642394,93.9226755 C21.3860704,90.6283585 19.896,86.7420493 19.3002254,82.8102998 C18.6085352,83.0296814 17.8298028,83.0966795 17.2439577,83.0979476 C15.6852254,83.1015405 14.1968451,82.5406168 12.9719155,81.5927108 C8.4875493,78.122973 7.98916901,70.9989886 11.1537465,66.5065268 C12.6681127,64.356883 14.9692394,62.7685855 17.5300141,62.1630669 Z M17.5581127,70.4255953 C18.5979718,70.334292 19.6369859,70.4985112 20.6143099,70.8531569 L21.0171997,70.9992687 C21.8682818,71.310571 22.7742079,71.6766141 23.3888873,72.3148556 C24.3279718,73.2904485 23.3929014,74.9808282 22.0551549,74.6069495 C20.5760704,74.1935483 19.3739577,72.947427 17.8952958,72.4247577 C16.5736056,71.9576736 15.0765634,72.0238262 13.9036056,72.8282254 C13.7487465,72.9345346 13.5450845,72.7248751 13.6462817,72.5705894 C14.5435352,71.2037871 15.9600845,70.5657205 17.5581127,70.4255953 Z" id="ðŸ–-Ink" fill="#000000"></path>
                    </g>
                    <g id="face/Happy-Grin" transform="translate(112.183099, 77.354207)" fill="#000000" fill-rule="evenodd">
                        <path d="M19.7211365,39.4118615 C23.3427017,38.9721514 26.8531681,40.0813242 30.39357,40.6404383 C32.2628533,40.9354736 34.1344555,41.1557498 36.0260851,41.237669 C36.4066034,41.2543055 36.7873326,41.2639926 37.1680618,41.2717844 C37.2034785,40.9365265 37.3911025,40.6286453 37.7975509,40.4441692 C38.6306859,40.0663724 39.297489,39.8960058 40.2122088,39.9324377 C41.04956,39.9655002 41.8898626,40.0516312 42.7143542,40.2026235 C44.2115517,40.4772317 45.7154952,41.1003649 46.8106713,42.1830034 C49.345282,44.6881713 48.9594933,48.7121078 47.0010359,51.4407108 C42.9548102,57.0790106 35.5698828,57.3406925 29.2449892,57.2671358 L28.6613154,57.2594981 C22.9023122,57.1771578 14.6628774,58.0361507 12.0464711,51.4813545 C11.0843182,49.0709516 11.217974,46.2770661 12.3959998,43.965219 C13.8010718,41.2077653 16.7587852,39.7715477 19.7211365,39.4118615 Z M37.7102741,48.7997129 L37.6586248,48.8018188 C35.0034288,48.9041651 32.3486544,48.9761865 29.6919827,49.0231479 C29.7714593,49.7056672 29.8526225,50.388397 29.9453805,51.0694422 C30.0181111,51.6053914 30.0961121,52.1407089 30.1772753,52.6753946 C30.2116379,52.9017779 30.3377044,53.2532511 30.3020769,53.4775285 L30.2892173,53.5661865 L30.2892173,53.5661865 C30.4256136,53.6278891 30.5493612,53.7272872 30.6414867,53.8715407 C30.6735303,53.9214503 30.6967198,53.9717811 30.7199093,54.0219013 C32.7825086,54.0381167 35.0021639,53.9981048 37.1048178,53.6230456 L37.109034,53.5773477 L37.109034,53.5773477 C37.1471913,53.3086361 37.2589224,53.12774 37.4073351,53.003703 C37.5551154,52.146816 37.5416233,51.2337017 37.5987538,50.3835535 C37.6343813,49.855396 37.6729601,49.3276597 37.7102741,48.7997129 Z M27.6629027,49.0593692 C25.7490909,49.0919403 23.8344463,49.1170239 21.9210416,49.0936505 L21.0524238,49.0802176 L21.0524238,49.0802176 C21.2358315,50.0647216 21.4354719,51.0458562 21.6013821,52.0368885 C21.77446,53.069828 20.865643,53.7264448 20.0790979,53.6999106 C20.1674287,53.7144413 20.2555488,53.7293931 20.3438796,53.7418178 C22.8013326,54.0895004 25.3530192,53.9972624 27.8469429,53.9945248 C27.7127601,53.2110912 27.7671242,52.3271177 27.7470493,51.6731982 L27.7432227,51.5719078 C27.7050654,50.7339737 27.6782921,49.8966715 27.6629027,49.0593692 Z M14.663299,48.8786838 C14.7297053,49.3906259 14.858934,49.8916174 15.0522499,50.3580722 C15.8691523,52.328765 17.7420194,53.2484076 19.7236663,53.6356809 C19.3798295,53.5169087 19.106826,53.2315604 19.03789,52.7427832 C18.866077,51.5274735 18.8043086,50.2919472 18.7996707,49.0578951 C17.4186315,49.0450492 16.0283164,49.0155667 14.663299,48.8786838 Z M44.9122957,48.4579268 C43.9290616,48.689996 42.7864524,48.5836485 41.8217698,48.627451 C40.9180124,48.6685159 40.0138333,48.704316 39.1100758,48.7409585 C39.1526601,49.3581952 39.1941904,49.9752212 39.2393045,50.5920367 C39.297489,51.389327 39.3029701,52.231894 39.4555991,53.0258149 C41.274498,52.4047876 42.9042972,51.4089118 44.1270155,49.816437 C44.431641,49.4196872 44.7044336,48.9540747 44.9122957,48.4579268 Z M19.3056231,42.6452465 C17.6688671,43.032941 16.1198095,43.851922 15.287307,45.3502634 C14.7931601,46.2393706 14.5758114,47.2931585 14.6175525,48.3315733 C16.0009107,48.1704727 17.4080908,48.1094018 18.8085249,48.0588604 C18.8131628,47.8065747 18.8191124,47.5545697 18.8266861,47.3030952 L18.8482617,46.6585603 C18.8864346,45.4292579 18.9056154,43.8855582 19.3056231,42.6452465 Z M27.7773744,42.7951859 L27.056853,42.7142256 C25.0555444,42.486111 23.0553101,42.2466464 21.0538995,42.3839054 C20.7642417,42.4039114 20.4701569,42.4354997 20.1754396,42.4786705 C20.5291847,43.7556828 20.49946,45.2554984 20.6472402,46.5196647 C20.7043707,47.008442 20.7764689,47.4932181 20.8563672,47.9760989 L21.2035771,47.9598836 L21.2035771,47.9598836 C23.3511342,47.8434278 25.5007995,47.7718275 27.6500431,47.6865389 C27.649885,47.2828396 27.6520985,46.8789034 27.6585514,46.4748191 L27.6664865,46.0706888 C27.6909409,45.0385916 27.6243238,43.8759292 27.7773744,42.7951859 Z M37.8272756,42.6313476 C35.731157,42.9697643 33.5648375,43.0417858 31.505822,43.0443128 C30.6834385,43.0453658 29.8614767,42.9948244 29.0399365,42.9219606 C29.0934831,43.3595647 29.1213105,43.802223 29.1615759,44.2337201 C29.2426969,45.1057274 29.3354211,45.976387 29.4361866,46.8462379 L29.5260724,47.6073574 L29.5260724,47.6073574 C32.1677764,47.4875322 34.8092696,47.3580199 37.4503411,47.2238747 L37.8230594,47.2038687 L37.8230594,47.2038687 L37.9275292,45.7411246 C37.9986436,44.7657383 38.0768788,43.7905704 38.1873451,42.8196143 L38.1044954,42.7897106 L38.1044954,42.7897106 C38.0070995,42.7496987 37.9147632,42.6945243 37.8272756,42.6313476 Z M38.7375683,42.9944032 C38.8530941,44.3735512 38.9169706,45.7583851 39.0019284,47.1398496 L40.7430293,47.0468004 C41.0331868,47.030975 41.3233364,47.0148299 41.6134861,46.9981231 C42.7417599,46.9330511 44.1915244,46.591265 45.3069386,46.9100969 C45.3921073,45.8956892 45.1022387,44.9073946 44.1870973,44.2259283 C42.5804876,43.0289398 40.5347534,43.4551722 38.7375683,42.9944032 Z M32.7889225,30.6655961 C35.3815986,29.1802262 41.8867394,27.6620971 42.2987113,32.3297683 C42.488174,34.4777135 40.8919247,36.2574498 39.0279579,37.0516053 L38.9579366,37.0809229 C37.2096972,37.7999366 34.1110352,38.6119444 32.5981479,37.0528133 C31.338993,35.7551225 33.0090634,33.4283671 34.5737113,34.4914591 C35.3778002,35.0375927 37.0703018,34.6351882 37.9675372,34.3753254 L38.0237113,34.3589425 C38.9919507,34.0742536 40.2827958,33.1631225 39.8824437,31.9704728 C39.5281479,30.9154121 38.0205423,30.7226607 37.0763873,30.6884219 C35.6670211,30.6379092 34.2954718,30.9652908 32.898993,31.0718114 C32.6777958,31.0887194 32.6095563,30.7683123 32.7889225,30.6655961 Z M43.5287113,23.1599765 C47.0475845,22.9951233 49.2365282,26.8387397 48.4273732,29.9880705 C48.2875141,30.5314521 47.6799085,31.0649002 47.0934296,31.00382 L46.9456572,30.9902158 C46.8705845,30.9829977 46.795162,30.9735123 46.7258239,30.954364 C46.1689225,30.8000783 45.6696972,30.2205558 45.7102606,29.6198982 L45.7210365,29.4448758 C45.8031384,27.9571532 45.641973,26.2430931 43.8745563,25.8828023 C42.3756127,25.5771898 41.5387817,27.020501 41.5210352,28.3490489 C41.5176549,28.5849159 41.2527254,28.7495577 41.0442042,28.6227476 C39.9606127,27.9631233 39.773007,26.6508493 40.1868803,25.5207593 C40.7114577,24.0888611 42.0242746,23.2303562 43.5287113,23.1599765 Z M17.4154014,23.9843272 C19.9761761,23.1296266 22.7389225,24.4951609 23.9788521,26.7599906 C24.4138521,26.8859554 24.8482183,27.2213683 24.7877958,27.7349495 C24.7005423,28.4738301 24.5691338,28.9396462 24.0570211,29.4999358 C23.2560186,30.3764272 21.7558318,29.9282778 21.4229027,28.849309 L21.4087817,28.8005777 C21.0306127,27.4058771 19.4959648,26.4856579 18.098007,26.9738771 C16.4649085,27.5441002 16.5122324,29.269564 15.3667394,30.274746 C15.232162,30.3928908 15.0707535,30.411701 14.9093451,30.3337127 C13.6926549,29.7455249 13.9113169,27.9752548 14.3450493,26.9620415 C14.913993,25.6324368 16.0197676,24.4499319 17.4154014,23.9843272 Z M13.9279014,16.2050935 C16.0029718,14.0869409 21.4139577,12.0372658 22.8334648,15.9487256 C23.1038873,16.6937354 22.5281831,17.6982834 21.752831,17.8527804 C20.4831127,18.1055554 19.3566338,17.5541425 18.0953662,17.6530544 C17.0743099,17.7335789 16.0093099,18.0749096 15.1929718,18.7076924 C12.9319859,20.460209 12.434662,23.4243969 10.8592394,25.6549879 C10.7825493,25.7636219 10.6336056,25.7179703 10.6194507,25.589892 C10.2607183,22.3424947 11.6550845,18.5248744 13.9279014,16.2050935 Z M40.9902676,14.1199327 C42.3673099,13.6334043 43.9266761,13.6750403 45.3109014,14.1066176 C46.7052676,14.5415765 47.985338,15.3675335 48.9715352,16.4466881 C49.419,16.936598 49.8330845,17.4772321 50.1651972,18.0527389 C50.3416056,18.3577174 50.5270986,18.9877526 50.7275915,19.3628994 C51.8123435,19.9894274 52.2759906,21.4171188 51.3048214,22.4328182 L51.2610423,22.4773573 L51.1311127,22.606281 C50.6090704,23.1232438 49.8218873,23.3472751 49.1092817,23.1407859 C47.5146338,22.6791969 47.3209014,21.4227194 46.7688592,20.089099 C46.4042113,19.208191 45.779493,18.4287311 45.0220986,17.8561832 C43.2320282,16.5035413 40.2968873,16.072598 38.1417465,16.7100305 C38.0270282,16.7440579 37.8922394,16.5978035 37.974,16.4917057 C38.3823803,15.9624845 38.6177324,15.5281597 39.164493,15.1012321 C39.719493,14.667964 40.3251972,14.3549542 40.9902676,14.1199327 Z" id="ðŸ–-Ink"></path>
                    </g>
                    <g id="facial-hair/*-None" transform="translate(104.577451, 109.479380)"></g>
                    <g id="accessories/Eyepatch" transform="translate(88.521127, 88.978474)" fill="#000000" fill-rule="evenodd">
                        <path d="M70.8584266,-12.5992383 C72.0795533,-13.0179232 73.053497,-11.7474966 72.81899,-10.6402324 C72.5422294,-9.3362011 71.181666,-8.28959445 70.2795533,-7.37043202 C69.3330745,-6.40244768 68.3675815,-5.45348486 67.3661731,-4.54045159 C65.4542012,-2.79448682 63.4725111,-1.15039288 61.3830745,0.381896745 L60.7441885,0.850227861 C58.8287857,2.25211436 56.9192012,3.62147404 54.8675815,4.83504743 C53.7563139,5.49023334 52.6344829,6.12428422 51.4978632,6.73508657 C51.0924407,6.95277737 50.5978632,7.28861299 50.0889195,7.53821768 C51.9499759,8.97539968 53.3823702,11.1692157 53.6929336,13.2129731 C54.4619477,18.2896071 51.1915252,22.9942647 46.5772294,24.8647147 C44.2767364,25.7967695 41.7161731,26.0672979 39.2570181,25.786202 C36.7556097,25.5006678 34.2203984,24.7609418 32.5957505,22.7110553 C31.1527928,20.8913292 30.6330745,18.5688009 30.5295533,16.2881198 C30.4809618,15.2060063 30.4915252,14.1405895 30.7196942,13.183384 C29.7246238,13.191838 28.7295533,13.187611 27.7429336,13.1981785 C25.3049054,13.2214271 22.8624407,13.2322059 20.4225111,13.1643625 C17.9063139,13.0925034 15.4027928,12.9804877 12.8950463,12.7566678 C11.7943421,12.6571218 10.6999759,12.4943821 9.6053984,12.3379829 C8.54293361,12.1879241 7.3703984,12.1308596 6.37744066,11.695478 C6.30983502,11.6680024 6.33809938,11.5707813 6.39645474,11.5515484 C7.45490545,11.2093723 8.65701812,11.2704525 9.75983502,11.2030318 L10.8347005,11.1378102 C11.7299701,11.0843133 12.6246238,11.0350989 13.5225111,11.0062647 C15.5966308,10.9380249 17.669133,10.9212424 19.7428483,10.8856893 L20.631666,10.8690983 C23.0718069,10.8204877 25.5119477,10.7930122 27.9520885,10.7148126 C28.9640604,10.6831101 29.9781449,10.623932 30.9943421,10.5689809 C31.1126519,10.3003547 31.2861026,10.0551883 31.4527928,9.81657385 C31.9513843,9.10220986 32.5851871,8.47238598 33.2422294,7.90174019 C34.5877928,6.72642121 36.1027928,5.85375585 37.7929336,5.26831553 C39.4677857,4.69013158 41.9174308,4.40330514 43.6893335,4.44062785 C45.4612362,4.47795057 47.9864195,4.72796328 48.7978632,6.17712179 C48.8823702,6.3271805 50.4267364,6.0376306 50.8851871,5.68657776 C51.9563139,4.86886348 53.0084266,4.02768931 54.0413139,3.16538011 C55.959835,1.56123138 57.9328632,-0.0175553093 59.7499759,-1.73371969 C61.6239195,-3.50483515 63.4830745,-5.30553965 65.2661731,-7.16542224 C66.1619477,-8.09747703 67.0556097,-9.03164533 67.9239195,-9.98694866 C68.8112435,-10.9612735 69.5739195,-12.1617432 70.8584266,-12.5992383 Z" id="ðŸ–-Ink"></path>
                    </g>
                </g>
            </g>
        </g>
    </g>
</svg>