<?xml version="1.0" encoding="UTF-8"?>
<svg width="240px" height="324px" viewBox="0 0 240 324" version="1.1" xmlns="http://www.w3.org/2000/svg" xmlns:xlink="http://www.w3.org/1999/xlink">
    <!-- Generator: Sketch 62 (91390) - https://sketch.com -->
    <title>peep-80</title>
    <desc>Created with Sketch.</desc>
    <g id="Introduction" stroke="none" stroke-width="1" fill="none" fill-rule="evenodd">
        <g id="variations" transform="translate(-2766.000000, -758.000000)">
            <g id="images" transform="translate(126.000000, 110.000000)">
                <g id="a-person/bust" transform="translate(2640.000000, 648.000000)">
                    <g id="body/Tee-2" transform="translate(31.056338, 135.052838)" fill-rule="evenodd">
                        <path d="M10.1408304,74.1409423 L161.508208,86.1622614 L161.666702,87.191236 C164.203145,103.716755 165.484307,114.928125 165.510189,120.825346 L165.51059,121.00604 C165.51059,126.853358 167.304928,136.15308 170.893606,148.905205 L171.115563,149.690261 L9.9295628,149.971185 L8.02815435,111.587477 L10.1408304,74.1409423 Z M99.7541549,-8.22339274 C105.908856,-7.91955082 112.111656,-5.27997127 112.590761,-3.59296916 C113.657787,0.164193512 115.373739,16.2472869 121.016578,18.7182295 C126.659417,21.1891721 138.706225,18.9364862 142.150568,24.8373184 C145.594911,30.7381506 156.906256,54.7924801 156.906256,60.3973625 C156.906256,64.1339508 120.043856,65.4309817 46.3190579,64.2884552 C47.2602227,34.1918165 51.184016,18.3709976 58.0904377,16.8259986 L58.7069698,16.6896825 C68.6947802,14.5070641 74.6640267,14.4366955 78.0711847,10.9182676 C81.5478766,7.32803501 82.1787774,1.16536952 83.6211055,-3.59296916 C84.4158144,-6.2147681 92.2015741,-8.59624441 99.7541549,-8.22339274 Z" id="ðŸŽ¨-Background" fill="#FFFFFF"></path>
                        <path d="M113.251479,1.18286419 C113.274718,1.16536952 113.298169,1.15961566 113.32331,1.17229667 C113.802887,1.40266849 113.902183,1.86341213 114.066972,2.3431773 C114.307817,3.04486027 114.58669,3.72963523 114.844437,4.42497769 C115.358028,5.81988963 115.847958,7.21268806 116.420493,8.58435147 C117.007817,9.99617143 117.616268,11.3826294 118.313451,12.7458387 C118.649366,13.4052517 119.010634,14.0519836 119.378239,14.6944885 C119.631761,15.1404376 119.86838,15.7533534 120.202183,16.171827 C120.227535,16.0386763 120.263451,15.9118661 120.305704,15.79351 C120.261549,15.814645 120.219085,15.8378935 120.178944,15.8632556 C120.094437,15.9160932 119.993028,15.810418 120.043732,15.7279914 C120.225423,15.427874 120.462042,15.2249777 120.732465,15.0876 C121.480352,14.2569933 137.965352,18.2208681 142.471901,22.672962 C150.633803,30.7361871 156.143028,40.7053691 159.766268,51.3109268 C161.766972,57.1632164 163.609225,63.0725706 165.512746,68.9565628 C167.524014,75.1787155 169.624014,81.3733926 171.639507,87.5913182 C172.081056,88.9587546 171.117676,90.2014943 169.900775,90.6516705 C167.633873,91.4886176 165.35007,92.2769542 163.047254,93.0061127 C164.164859,97.2986372 164.946549,101.682042 165.508521,106.078128 C166.66838,115.142942 166.814155,124.391631 168.641831,133.361338 C169.061454,135.420041 169.592379,137.449586 170.153244,139.473664 L170.283169,139.940672 C170.616972,141.128461 170.921408,142.326817 171.331056,143.489244 C171.683873,144.488931 172.140211,145.497072 172.387394,146.528461 C172.676831,147.741612 172.25007,149.066778 171.115563,149.690261 C170.205,150.191162 168.901479,149.984038 168.352183,149.04353 C168.240211,148.851201 168.172606,148.641964 168.145141,148.430614 C168.062746,148.255193 167.98669,148.075545 167.919085,147.89167 C167.892676,147.820868 167.869437,147.747424 167.847254,147.673715 L167.781761,147.454175 C167.621197,146.930027 167.47331,146.401651 167.325423,145.873275 C167.084577,145.025459 166.84218,144.180747 166.574283,143.340473 L166.438099,142.920712 C165.774718,140.900203 165.181056,138.862786 164.663451,136.800007 C162.811092,129.403463 162.418117,121.745484 161.909584,114.165395 L161.883169,113.773393 C161.422606,106.980594 161.147958,100.20259 161.712042,93.4245863 L161.63493,93.4496841 L161.63493,93.4496841 L161.557817,93.4731969 C160.82493,93.6972282 160.089507,93.9170325 159.352183,94.1304963 C159.328944,94.1389503 159.307817,94.1474043 159.284577,94.1537448 C158.812746,94.2999288 158.327711,94.4387742 157.834362,94.5678348 L157.537394,94.6440775 L157.328239,94.7011421 L157.108063,94.7638105 C156.409393,94.9665185 155.697052,95.1996268 154.972606,95.1766802 C153.772606,95.369009 152.551479,95.4852517 151.351479,95.4894787 C151.721197,101.536211 152.147958,107.578715 152.657113,113.61488 C153.16838,119.682747 153.846549,125.727365 154.55007,131.771984 C154.896549,134.758363 155.26838,137.738402 155.678239,140.714214 C155.885282,142.223256 156.100775,143.723843 156.375423,145.220203 C156.658521,146.750379 157.159225,148.38623 156.857113,149.933314 C156.850775,149.931201 156.844437,149.929087 156.838099,149.929087 C156.73669,150.37715 156.466268,150.778715 155.995141,151.055584 C155.131056,151.560712 153.922606,151.264821 153.426127,150.381377 C153.383873,150.307404 153.343732,150.231318 153.305704,150.153119 C152.796761,150.370809 152.238803,150.45535 151.554296,150.46169 L142.271197,150.554684 L142.271197,150.554684 C138.052183,150.596954 133.833169,150.641338 129.612042,150.702629 C116.35946,150.898011 103.106878,151.123451 89.8542958,151.28395 L84.8845775,151.340907 C77.4310563,151.419107 69.9733099,151.573393 62.5197887,151.571279 C58.7911268,151.571279 55.0662676,151.558598 51.3373944,151.467717 C49.5310563,151.423334 47.7289437,151.353588 45.9247183,151.279616 L45.6061839,151.265049 C44.1658138,151.193935 42.636593,151.060467 41.2282394,151.383177 C40.839507,152.139811 39.8465493,152.296211 39.326831,151.522668 C38.1391613,149.752706 37.8150803,147.283214 37.5956665,145.120009 L37.5183803,144.340986 C37.2754225,141.916798 37.0620423,139.49261 36.9035915,137.064195 C36.3416197,128.460124 36.1366901,119.8476 36.3944366,111.226622 C36.5254225,106.832649 36.9289437,102.464038 37.4064085,98.0954278 C37.5564085,96.7322184 37.7127465,95.3711225 37.8817606,94.0121401 L37.8846655,93.5289405 C37.8849296,93.3743906 37.8838732,93.2269738 37.8796479,93.0885393 L37.8375264,91.7772759 C37.8025352,90.6842811 37.7700198,89.5906672 37.7564855,88.4969501 L37.7507746,87.8407115 L37.7444366,86.6191068 C36.7007746,86.5197722 35.5873944,86.1731577 34.6873944,86.006191 C33.2277465,85.7335491 31.7719014,85.4397722 30.320493,85.1290873 C27.4134507,84.5034904 24.5380986,83.7637644 21.6817606,82.9458387 L21.0742807,82.7712845 C18.4386519,82.0115518 15.7667203,81.201444 13.2733099,80.0651342 C12.2972535,79.6191851 11.3233099,79.1161714 10.4676761,78.4567585 C10.4169718,79.1499875 10.3388028,79.8411029 10.2923239,80.5279914 C10.1995775,81.8869738 10.089507,83.2417292 9.99866197,84.6007115 L9.91178795,85.893735 C9.76908451,88.0481871 9.64056338,90.2004376 9.58246479,92.3614943 C9.32471831,101.787717 9.28035211,111.254097 9.77894366,120.67398 C10.0261268,125.389205 10.3789437,130.10443 10.8880986,134.800633 C11.1373944,137.110692 11.4014789,139.427091 11.726831,141.728696 C12.0627465,144.093706 12.6690845,146.443921 12.855,148.825839 C13.0324648,151.123216 9.52119718,151.45715 8.94443662,149.356328 C8.25381791,146.837334 8.07788912,144.119852 7.71386277,141.529829 L7.67260563,141.24259 C7.26908451,138.490809 6.94584507,135.728461 6.66697183,132.961886 C5.70430572,123.41942 5.45429577,113.828344 5.95922535,104.249948 C6.19928795,99.6625511 6.76847592,95.0927924 7.45738541,90.5538832 L7.53739437,90.0303006 C7.85100939,87.9975804 8.14459311,85.9648603 8.49975454,83.9410464 L8.63598592,83.1825511 C8.955,81.4431382 9.20007042,79.551553 9.71767606,77.8121401 L9.56381708,77.6702055 C9.27616426,77.4021331 8.96442579,77.0919233 8.73739437,76.7575022 C7.95570423,76.651827 7.29021127,76.0896352 7.37260563,75.0688133 C7.64091549,71.7146841 8.86626761,68.3034904 9.95852113,65.137463 C11.055,61.9545276 12.326831,58.8307703 13.7676761,55.787326 C18.8359859,45.0908877 26.1352817,35.3793417 35.061338,27.5995374 C39.7958451,23.4718661 44.9845775,19.8112791 50.7183803,17.2053299 C53.5451408,15.9182067 56.4690845,14.9227468 59.5324648,14.385917 C61.0493662,14.1196157 62.5810563,13.9124924 64.1233099,13.8681088 C65.3745045,13.1291376 66.8600574,13.4400941 68.0715858,14.2503488 L68.1373944,14.2950364 L68.1397183,14.2950364 L68.4500704,14.356328 L68.4500704,14.356328 C68.5261268,14.3711225 68.5240141,14.4915922 68.4500704,14.5085002 C68.4458451,14.5085002 68.439507,14.5106137 68.4352817,14.5127272 C68.6338732,14.6691264 68.8219014,14.8360932 68.9972535,15.0157409 C69.5761268,15.6075217 69.5740141,16.3218857 69.2761268,16.898872 C71.048662,18.5431773 72.1683803,20.6545667 73.3409155,22.7828642 C74.5979577,25.0612204 76.2437324,27.0310051 78.2465493,28.6922184 C85.5880986,34.7833339 96.3859859,37.4780501 105.584577,34.6015726 C112.349366,32.4880697 118.127535,26.7668172 119.724718,19.8789112 C119.346549,20.0141753 118.93669,20.0353104 118.547958,19.8958192 C116.722471,19.2447932 116.026454,17.2489275 115.328228,15.5802149 L115.294437,15.4997331 C114.612042,13.8829033 114.039507,12.2407115 113.587394,10.5456822 C113.131268,8.83374481 112.862746,7.0266998 112.750775,5.25981135 C112.707561,4.56120256 112.726575,3.86259377 112.762689,3.16398498 L112.794761,2.58633159 C112.819438,2.06290802 112.811761,1.52806967 113.251479,1.18286419 Z M83.5494718,-3.52813386 C83.5748239,-3.59153894 83.6741197,-3.62535499 83.7121479,-3.54926888 C85.3281338,-0.214161252 84.2677817,4.35523209 82.7401056,7.53605401 C81.1410211,10.8627076 78.7325704,13.3862301 75.8783451,15.5694787 C75.4853873,15.8695961 75.0816549,16.1654865 74.672007,16.4550364 C72.2908099,18.1373847 70.1696831,13.6018074 72.9184859,12.7352712 C75.7832746,11.2790677 78.1114437,8.68368611 79.7295423,5.95726732 C80.6044014,4.48415577 81.3797535,2.94975264 81.9734155,1.33926341 C82.5649648,-0.266998826 82.9198944,-1.93877965 83.5494718,-3.52813386 Z" id="ðŸ–-Ink" fill="#000000"></path>
                    </g>
                    <g id="head/Cornrows" transform="translate(78.591549, 38.043053)" fill-rule="evenodd">
                        <path d="M90.9607817,66.9685174 C92.2693732,57.5205252 89.4747254,48.4026622 85.8542324,39.7677346 C85.6554296,39.2418951 85.340007,38.7864352 84.9345845,38.4626466 C74.7170493,17.860854 59.7037394,15.995265 38.7588803,17.4140595 C38.1400775,17.4003217 38.1033169,17.4113119 37.6334577,17.2010184 C37.5557113,8.83196947 28.0011338,4.39889706 20.7303592,7.16018865 C-11.515838,22.1510536 -1.37626056,64.354537 5.04057042,91.907218 C7.3298662,102.573011 9.61979577,113.238169 11.9095141,123.903539 C11.9864155,124.260298 12.1484577,124.568658 12.3639507,124.828619 C12.0314155,124.954795 11.698669,125.073151 11.3722606,125.184322 C10.627331,125.437942 10.9233169,126.549011 11.698669,126.36894 C12.4585986,126.192463 13.1908521,125.955962 13.9152887,125.698326 C15.0447254,125.943492 15.9916268,125.205245 16.8783169,124.616423 C27.2612746,120.509042 31.6201479,107.009887 34.2833873,97.0652219 C45.1110634,104.707649 62.4124014,110.431437 74.7924718,103.559171 C86.3927535,96.5706622 90.5703592,81.9927757 89.7462042,69.1259812 C90.5927535,68.7362513 90.9343732,67.8866231 90.9565563,67.000854 L90.9616268,67.000854 C90.9614155,66.9900751 90.9607817,66.9792963 90.9607817,66.9685174 L90.9607817,66.9685174 Z" id="ðŸŽ¨-Background" fill="#FFFFFF"></path>
                        <path d="M17.7551197,7.94715147 C20.148993,6.39584031 23.2214577,5.81843131 26.0418803,5.93150372 C27.5461056,5.99173855 28.9504014,6.36688532 30.337162,6.93034521 C31.6225141,7.45280313 32.7557535,8.20330802 34.0073028,8.77522192 C34.0833592,8.80988337 34.0258944,8.91661526 33.9540634,8.90203209 C32.4719871,8.60280098 30.7319048,8.78356157 29.229162,8.99781143 L29.0796972,9.01933151 C27.6027254,9.23385205 26.0997676,9.34481096 24.6439225,9.68529628 C21.9620915,10.3123726 19.4676549,11.6787523 17.9957535,14.0553863 C16.0738521,17.1592767 15.5811761,21.1770458 15.7867394,24.7581652 C15.8906831,26.5700712 16.2477254,28.3525996 16.8037817,30.0799656 C17.1375845,31.1166387 17.9131479,32.1596524 18.2754718,33.2474724 C18.5511761,32.7326231 18.8357535,32.2228462 19.1304718,31.7191984 C17.7878662,31.0862043 17.4113873,29.3269245 17.3418803,27.7392611 C17.1350493,27.5393237 17.0019507,27.2499851 16.9975141,26.9843178 C16.9856831,26.2701652 17.1536408,25.6236446 17.4392746,25.0320751 C17.6023732,23.35649 17.948007,21.6859773 18.5429366,20.115856 C20.8780775,13.951402 27.0384296,8.39542544 34.0244155,8.94430215 C35.9444155,9.09520626 37.8126549,9.91080705 38.8054014,11.6447249 C39.6029366,13.0371006 39.6082183,14.7167014 39.0580775,16.1976329 C38.8949789,16.6372415 38.6828662,17.0341573 38.4335704,17.3962004 C39.1884296,17.204717 39.9445563,17.0210536 40.6994155,16.839081 C43.3182887,16.2075663 45.9504718,15.7127953 48.6318803,15.4376172 C52.2836408,15.0631045 56.0106127,15.6297346 59.3568803,17.0878403 C60.2746268,17.3239186 61.1879366,17.5775389 62.0957535,17.84849 C66.0906127,19.040083 70.1892042,20.5964665 73.4158944,23.3163335 C74.9004718,24.5677386 75.9629366,26.0235194 76.825331,27.622173 C80.0554014,30.5030888 83.1441338,33.7688736 85.3244155,37.5047014 C89.8165986,45.2018677 90.8894155,54.7229871 91.0740634,63.4735233 C91.2437113,71.5120204 90.5378662,79.632944 89.0319507,87.5313159 C88.3482887,91.1158168 87.2431479,94.4471202 85.0075141,97.3867914 C82.5179366,100.660396 79.1974437,103.239504 75.4715282,104.97004 C67.8859648,108.493249 58.4974437,109.005774 51.1242042,104.640756 C48.9065282,103.328059 50.9034296,99.9060869 53.1435,101.184968 C60.4227254,105.340326 69.7125845,104.391151 76.7165282,99.9857659 C79.675331,98.1248266 82.2251197,95.5799577 83.8449085,92.4635977 C85.027805,90.1873688 85.5353753,87.5772186 85.9749416,85.0357828 L86.2085704,83.6762865 C87.5655423,75.8609753 88.1790634,67.8446701 87.8526549,59.9162865 C87.5268803,52.0075585 86.273007,43.4415311 81.7949789,36.7178442 C79.433007,33.1713863 76.4209648,30.064537 73.2572324,27.2315977 C73.0349789,27.0325057 72.8123028,26.8342591 72.5894155,26.6366466 C71.3528662,25.8933276 70.0713169,25.2442708 68.8102606,24.6903217 L68.5419645,24.5742688 C67.8165662,24.2649511 66.8021457,23.8653809 65.8609648,23.5458599 C64.5156127,23.0891319 63.1485,22.6833393 61.7756831,22.3177033 C61.0561056,22.1260086 60.3331479,21.9501652 59.6082887,21.7821417 C59.8609648,22.013993 60.112162,22.2479577 60.3589225,22.4878403 C61.5280775,23.6242708 62.4555423,24.9747992 63.5640634,26.1663922 C63.6893451,26.300811 63.5313169,26.496944 63.3720211,26.4151515 C61.6863169,25.5498834 59.8170211,24.9898051 58.0569507,24.2887562 C56.3927958,23.6259616 54.7755423,22.8629871 53.1409648,22.1317151 C52.7315282,21.948263 52.3233592,21.7523413 51.9162465,21.5585331 C50.3087113,21.5750184 48.7011761,21.6128501 47.0972324,21.7043648 C49.0362465,23.0851162 50.8070915,24.7169519 52.2739225,26.5064548 C52.3949789,26.6537659 52.2849085,26.8898442 52.0812465,26.8376407 C49.010662,26.0511006 46.0904979,24.8951244 43.1719766,23.6837156 L41.7756127,23.1022356 L41.7756127,23.1022356 C40.7492746,23.0502434 39.7214577,23.0259382 38.6934296,23.0411554 L38.1952012,23.0494501 C37.1159864,23.0700531 36.0388662,23.1128172 34.9692042,23.2763883 C34.714838,23.3150654 34.4655423,23.3518403 34.2179366,23.3856564 C32.7126549,24.000263 31.2642042,24.7412571 29.9608944,25.7179068 L30.3004014,25.6978286 L30.3004014,25.6978286 C32.3611056,25.5805292 34.462162,25.7580634 36.4577958,26.2902434 C40.3354014,27.3248031 43.6440634,29.815989 46.051669,32.9923726 C46.1237113,33.0874802 45.9836408,33.2197855 45.8892042,33.1551123 C42.8602606,31.0807092 39.3470915,30.0357933 35.7477254,29.4683178 C34.0079366,29.1937738 32.2161761,29.0993002 30.4596972,29.2360438 C29.005331,29.3491162 27.5008944,29.8616407 26.0539225,29.6128814 C25.6594859,30.1042708 25.2806831,30.6104548 24.9160352,31.1278403 C25.1076549,31.115582 25.3001197,31.1043804 25.4938521,31.0952924 C27.5718803,30.9976485 29.6881479,31.1310106 31.717162,31.6095076 C35.7699085,32.5658677 39.1565282,34.9997777 42.2545563,37.6718795 C42.3158239,37.724717 42.2368099,37.8189793 42.1704718,37.7809362 C38.8106831,35.8411632 34.9056127,35.2614294 31.0996268,34.9114333 C29.183007,34.7351671 27.244838,34.6552767 25.323993,34.8082943 C24.4440634,34.8782513 23.5738521,35.0234489 22.6964577,35.1136955 C22.6254718,35.1210928 22.5517394,35.1229949 22.4786408,35.1263765 C21.8427254,36.3260008 21.2661761,37.5471828 20.7460352,38.7647718 C22.3335,38.3386896 24.0462465,38.115081 25.6852606,38.2254059 C29.0144155,38.4496485 32.3165282,39.9766544 34.9740634,41.9297425 C35.0573028,41.9908227 35.0108239,42.1535624 34.8977958,42.1108697 C32.0051197,41.0175546 29.1375845,41.0086779 26.1187817,41.4305331 C24.7035,41.6283569 23.3025845,41.8967718 21.9352606,42.3177816 C21.2477958,42.5295546 20.5681479,42.7605605 19.9157535,43.0646935 C19.6195563,43.2024939 19.3311761,43.3631202 19.0396268,43.5146583 C18.8063873,44.3067992 18.5978662,45.1063374 18.409838,45.9107366 C23.3442042,46.1890849 27.9927254,48.5190106 32.0382887,51.1930145 C32.1361056,51.2576877 32.0750493,51.4377581 31.9542042,51.3921065 C29.5392042,50.4805526 26.9120915,50.0591202 24.3504718,49.8137425 C22.1106127,49.5992219 19.9125845,49.7158873 17.6856127,49.778447 C17.5662465,50.6249049 17.4696972,51.473899 17.3997676,52.324584 C17.7578662,52.4249753 18.1092042,52.5331867 18.4470211,52.6348462 C19.5580775,52.9687796 20.6670211,53.4183217 21.7037113,53.9395115 C23.8096268,54.9981652 25.5160352,56.429218 27.233007,58.0200517 C27.3225845,58.1031123 27.2292042,58.2844509 27.1077254,58.2352063 C25.114838,57.4293276 22.9373028,56.9132102 20.8394155,56.4564822 C19.7537113,56.2201926 18.6675845,56.0020791 17.5742746,55.8019303 C17.4684296,55.7824861 17.3608944,55.7662121 17.2535704,55.7501495 C17.2432307,57.6895993 17.3528501,59.6296107 17.5945819,61.5537967 L17.6414577,61.9143922 C17.7724437,62.8882943 17.665331,63.8302826 17.0207535,64.5030106 C17.9123028,63.910173 18.9323028,63.4995194 20.0627958,63.3420634 C23.0397676,62.9276055 25.7963873,64.1175076 27.6696972,66.4191123 C27.7573732,66.5266896 27.622162,66.6678716 27.5156831,66.5731867 C25.6977254,64.9548775 22.8961056,64.6684978 20.6382887,65.4304157 C18.548007,66.1356916 16.9765986,67.8195194 16.3468099,69.9264705 C15.6775141,72.1655155 15.9840634,74.6374685 17.2045563,76.6334607 C17.8125845,77.6278638 18.6908239,78.5168031 19.789838,78.9540869 C19.9254718,79.0081926 20.0636408,79.0532102 20.2032887,79.09231 C20.866669,78.8496798 21.5805423,78.959582 22.2627254,79.2670967 L22.3512465,79.3087327 L22.3512465,79.3087327 C22.7864577,79.3061965 23.2197676,79.2928814 23.6408239,79.2966857 C24.460331,79.3045057 24.8543451,80.1748462 24.5104014,80.8226348 C24.7054014,81.1800282 24.8482183,81.5815937 25.0195563,81.9318012 C25.3290634,82.5637386 25.6531479,83.1916603 25.9789225,83.8155663 C26.4396972,84.3443648 26.8797676,84.891762 27.1785,85.5300399 C27.3010352,85.7919029 27.4168099,86.075535 27.5055423,86.3600125 C27.7615986,86.7453041 28.0218803,87.1284822 28.2885,87.5097581 C29.1504718,88.7415076 30.0582887,89.9083726 31.0649789,91.026627 C31.6700493,91.6987209 32.3661761,92.2987444 33.0067394,92.9429401 C33.2008944,92.9687249 33.3912465,93.1010301 33.4512465,93.2912454 L33.5036408,93.473218 L33.5036408,93.473218 C33.7100493,93.7059147 33.9075845,93.9455859 34.0854718,94.2008971 C34.4801197,94.7671045 34.3719507,95.3415546 34.0252606,95.7555898 C34.5743451,99.1828462 34.2004014,102.829061 33.4658239,106.152333 C32.9908944,108.299652 32.4363169,110.445069 31.6920211,112.516514 C31.3136408,113.569461 30.8554014,114.580983 30.2222324,115.505852 C29.8751197,116.01267 29.423007,116.602971 28.9159648,117.085273 C28.8388521,117.646619 28.7387113,118.203316 28.5952606,118.749022 C26.8943451,125.215707 19.9318099,127.184435 14.1020915,128.010392 C12.9768803,128.169539 11.8632887,127.897742 11.2504014,126.849234 C11.1088521,126.607238 11.0137817,126.34622 10.9626549,126.078016 C10.7087113,126.010384 10.4644859,125.891394 10.2454014,125.720412 C10.2088521,126.12557 10.1665986,126.532208 10.1131479,126.943285 C9.97983803,127.97087 8.59328873,128.279864 8.24575352,127.196059 C6.7791338,122.622016 5.98244366,117.799214 4.97744366,113.098995 C3.97455634,108.408709 2.85462676,103.743363 1.81835915,99.060263 L0.50625602,93.1499087 C-2.69533876,78.6774121 -5.69408873,64.019923 -4.9580493,49.1350967 C-4.55621831,41.009946 -3.06593662,32.9059303 0.12378169,25.3974998 C2.78089437,19.1425879 7.26526056,12.115402 14.5094155,10.8365213 C14.5592746,10.827856 14.6036408,10.8329284 14.6450493,10.8434959 C15.505331,9.72439609 16.5331479,8.73886967 17.7551197,7.94715147 Z M22.1262465,86.6170145 C22.7104014,88.5557307 23.1274437,90.5432689 23.3543451,92.5715977 C23.7323028,95.9521456 23.5449085,99.4151202 23.3807535,102.804756 C23.2296972,105.918791 22.8711761,109.059879 22.2608239,112.117695 C21.6749789,115.053774 20.7568099,117.932365 19.3918099,120.603198 C19.1710352,121.035198 18.9337817,121.455786 18.6844859,121.868341 C19.4393451,121.616623 20.1208944,121.323692 20.8307535,120.917476 C21.7242042,120.406009 22.5418099,119.746596 22.9890634,119.051042 C23.7069507,117.935324 23.9477958,116.695754 24.0527958,115.365938 C24.3227958,111.945868 24.4476549,108.515652 24.619838,105.089876 L24.6580369,104.34391 C24.9365401,98.9912753 25.3015892,93.5019194 24.7563169,88.1435977 C23.9892042,87.9419695 23.2970915,87.5461104 22.6584296,87.0494372 C22.4822324,86.9124822 22.3043451,86.7674959 22.1262465,86.6170145 Z M16.2920915,80.1353237 C16.4532887,81.7635663 16.6075141,83.3920204 16.747162,85.0217425 C17.2425845,90.8066114 17.5487113,96.6236055 17.2670915,102.428553 C17.1204718,105.451496 16.8259648,108.482893 16.3168099,111.467371 C16.0873099,112.812573 15.8098944,114.157433 15.4999648,115.488084 L15.3954718,115.931089 C15.0808944,117.249069 14.8804014,118.896333 13.8730775,119.854807 L13.8806831,120.053688 L13.8806831,120.053688 C14.5877958,118.980028 15.2418803,117.773007 15.7102606,116.649257 C17.7973732,111.64258 18.1787113,106.192279 18.5558239,100.853782 C18.7882183,97.5636916 18.9604014,94.2693746 19.2293451,90.9820321 L19.3599647,89.4000325 C19.5098198,87.558961 19.6388286,85.7315272 19.6212465,83.8920751 C19.2192042,83.2924744 18.8925845,82.6620164 18.6897676,82.0148618 C18.6572324,81.9106661 18.634838,81.8054137 18.6192042,81.7001613 C17.7690634,81.2971162 16.9685704,80.7469714 16.2920915,80.1353237 Z M27.7163873,91.5911436 C28.1357535,92.9871123 28.478007,94.4008344 28.7218099,95.8204744 C29.1101197,98.0802317 29.3431479,100.35415 29.4456127,102.635676 L29.659811,101.82959 C30.1992071,99.8135952 30.7724478,97.7946477 31.4828662,95.8382278 C30.3591338,95.0511593 29.4202606,93.8151828 28.6035,92.7821025 C28.2982183,92.3961769 28.0022324,91.9977816 27.7163873,91.5911436 Z M11.6241338,29.5093198 C11.1923028,30.903809 10.8147676,32.3141495 10.4247676,33.7200517 C9.50828873,37.0226114 8.91335915,40.415629 8.50054225,43.8149871 C6.85328873,57.3874802 8.22526056,71.0149245 10.0195563,84.4986505 C10.763007,90.0854841 11.5713169,95.6640751 12.2651197,101.257461 C12.2835,100.708584 12.2989225,100.159707 12.3088521,99.6114646 C12.5196972,87.7390732 10.522162,76.0328031 9.72230282,64.2217033 L9.67428243,63.5019883 C9.31177942,57.9795469 9.08998768,52.3539793 9.74617606,46.8516681 C10.0837979,44.0195742 10.6786678,41.2480559 11.4703089,38.5113723 L11.9415785,36.9039342 C12.2600752,35.8230992 12.5986207,34.7134886 13.000331,33.6374137 C12.946669,33.5342748 12.8955423,33.4302904 12.848007,33.3260947 C12.292162,32.1036446 11.905331,30.8186348 11.6241338,29.5093198 Z M13.0157535,13.5103139 C8.86941549,18.8581104 5.3900493,24.5389949 3.28497887,31.0731006 C-1.53276761,46.027402 -0.457204225,62.0183765 2.33469718,77.2613824 C3.65026056,84.4434881 5.34673944,91.541899 6.89469718,98.674126 C5.23772535,85.8665096 3.10096479,73.0870027 2.76082394,60.1561691 C2.57511972,53.0987601 2.93997887,46.0083804 4.23948592,39.0600282 L4.31639906,38.6514783 C4.87336802,35.7149472 5.56327465,32.6037511 6.97561268,29.9647796 C7.74251408,28.5318247 8.58906338,27.1946114 9.59300704,25.914674 C10.0163873,25.3748853 10.4917394,24.9420399 10.9960352,24.5461808 C10.8481479,20.8595977 11.4054718,16.8619068 13.0157535,13.5103139 Z M19.7805423,70.4897824 C21.8433592,70.5709409 23.9042746,71.1462364 25.5287113,72.4874654 C26.7994859,73.5363969 24.9872324,75.3092031 23.7268099,74.2898607 C22.3561056,73.1815397 21.1267394,71.922526 19.6656127,70.9143851 C19.4915282,70.7941268 19.5392746,70.4802716 19.7805423,70.4897824 Z M16.3584296,64.9914411 C15.8997676,65.2279421 15.4440634,65.2757072 14.9245563,65.1480517 C14.9055423,65.143402 14.8872559,65.1381182 14.8693294,65.1325292 L14.7631479,65.0979616 C14.8085704,65.5899851 14.8563169,66.0820086 14.9036408,66.5740321 C15.3227958,65.9835194 15.8089225,65.4488031 16.3584296,64.9914411 Z M14.3051197,35.298627 C14.1225845,36.8245761 14.0036408,38.3579225 13.9402606,39.8935937 C13.8787025,41.3896896 13.8530533,42.8903163 13.8460459,44.3915094 L13.8441338,45.034901 L13.8468803,45.0226427 C14.5561056,41.9956838 15.5592042,39.0167014 16.840331,36.1660086 C16.6197676,36.2027836 16.3958239,36.1968658 16.1752606,36.1702356 C15.6707535,36.1091554 15.1869507,35.8853354 14.7540634,35.6234724 C14.5962465,35.5279421 14.4481479,35.4165605 14.3051197,35.298627 Z M35.3463169,17.6117777 C34.4646972,18.0103843 33.6132887,18.4685918 32.7285,18.8581104 C30.9739225,19.630807 29.257162,20.5290458 27.6333592,21.548811 C25.9901197,22.5808344 24.4070915,23.6673863 22.9512465,24.9545096 C22.7807535,25.1054137 22.6117394,25.2580086 22.4429366,25.4103922 C22.4089225,25.7432689 22.3842042,26.0774137 22.373007,26.4143061 C22.3668803,26.5954333 22.366669,26.7848031 22.368993,26.9794568 C25.1161056,23.5752376 28.4374437,20.889398 32.6509648,19.1998638 C33.3813169,18.9069323 34.1237113,18.646126 34.8728662,18.404764 C35.0511761,18.1570614 35.2111056,17.8941417 35.3463169,17.6117777 Z M35.2679366,14.3462043 C34.778007,13.6956681 33.3696972,13.748717 32.4817394,13.8937033 C31.0459648,14.1283022 29.7813169,14.6304705 28.5506831,15.3575155 C27.0961056,16.2164431 25.8413873,17.3801378 24.8596268,18.7488423 C25.3427958,18.4762004 25.8350493,18.2189871 26.3376549,17.9801613 L26.6820052,17.8174783 C28.5857006,16.9247436 30.6477918,16.076028 32.7299789,15.7992376 C33.6933592,15.6711593 34.7294155,15.4858051 35.7027254,15.5902121 C35.6547676,15.1169988 35.5140634,14.6731632 35.2679366,14.3462043 Z" id="ðŸ–-Ink" fill="#000000"></path>
                    </g>
                    <g id="face/Solemn" transform="translate(112.183099, 77.354207)" fill="#000000" fill-rule="evenodd">
                        <path d="M38.4849719,46.0626208 C37.1447879,45.4173977 35.6118835,45.4620717 34.2064578,45.8887881 C32.5430027,46.3943144 31.0699868,47.4443626 29.759191,48.5621244 C29.2476691,48.9984979 28.7616269,49.4910343 28.2736582,49.9863091 C27.6538317,50.6154159 27.0317561,51.2507119 26.3411689,51.7658149 C26.5689478,49.8250129 27.9302735,47.8541178 29.0993636,46.4286516 C30.5337125,44.6800205 32.5309173,43.2628561 34.6901356,42.5773356 C36.9894783,41.84721 39.3621391,42.2485493 41.224233,43.4339955 C43.0692858,44.6085931 44.4133169,46.5540926 44.6841044,48.9333094 C44.7410373,49.4331071 44.5075123,49.8905311 44.1610491,50.2371599 C43.7568768,50.6415254 43.1893795,50.9076493 42.6601901,50.9076493 C42.1201238,50.9076493 41.6412347,50.6900117 41.2859661,50.3431248 C40.9133305,49.9792805 40.6754844,49.4743918 40.6414695,48.9259144 C40.6186397,48.3414158 40.4832525,47.8294027 39.9922809,47.2126783 C39.6624285,46.7987357 39.0423676,46.3309798 38.4849719,46.0626208 Z M41.8920471,25.6373057 C41.3358872,25.8395548 40.6899396,26.3278457 40.5021539,26.8625981 C40.4608154,26.9803167 40.4375936,27.1006813 40.4356905,27.2225543 C40.2546438,26.8545183 40.1857513,26.4211691 40.2093546,25.9922812 C40.2842984,24.6299177 41.5830697,23.6411317 42.6895949,23.0633747 C43.0827112,22.8580067 43.4866657,22.7215785 43.8892176,22.6497895 L45.3144133,22.3956275 L43.9763151,21.8429406 C42.74239,21.3332813 41.5853233,20.6321897 40.5527858,19.7740001 C39.566391,18.9547401 38.6546036,17.8952255 38.1193818,16.72615 C37.8777257,16.1981738 37.6880672,15.6816804 37.5550067,15.1237168 L37.5193606,14.9669773 C37.4540037,14.6663877 37.3825647,14.5130853 37.3023076,14.3429796 C37.2552161,14.2431686 37.2040183,14.1356888 37.1490446,13.9609409 C37.1181334,13.862821 37.1008898,13.7806727 37.1296566,13.716671 C37.1574895,13.6547469 37.2251723,13.6281713 37.2911902,13.6031809 C37.7280116,13.4378266 38.4315405,13.5504835 38.7304109,13.6699729 C39.4526998,13.9588093 40.0874865,14.588521 40.6985211,15.1782715 C40.9966879,15.4660523 41.2886648,15.7472416 41.5786981,15.9877598 C43.4292647,17.5225522 45.738983,18.3958052 47.9962033,18.6087649 L48.1318541,18.6207756 C48.7287826,18.6697919 49.2822747,18.9049859 49.6745118,19.2973766 C50.025167,19.6481691 50.2416127,20.1253798 50.2416127,20.6969213 C50.2416127,21.2535832 49.9912859,21.7895834 49.6022985,22.1787231 C49.230825,22.5503419 48.7283717,22.7911263 48.1828667,22.7718043 C47.7996666,22.7581351 47.4193287,22.7237895 47.0416371,22.6731933 L45.6366925,22.4849845 L46.7093268,23.4120187 C46.9222131,23.5960076 47.1224202,23.8071835 47.3024632,24.0522903 C48.2799007,25.3837087 48.6994276,27.4134214 48.6631259,29.0428197 C48.656202,29.3537955 48.5703422,29.6745457 48.4118709,29.9508997 C48.2734719,30.1922503 48.0788892,30.40058 47.8280477,30.5305831 C47.5277292,30.6864879 47.2736242,30.769638 46.9316357,30.7762981 C46.5598082,30.7835947 46.2448404,30.6658923 45.9860352,30.468785 C45.6623707,30.2222806 45.4245758,29.858633 45.2612858,29.4619848 C45.044276,28.9345644 45.0313573,28.3774895 45.0099016,27.820684 C44.995075,27.4359102 44.9790502,27.0504104 44.914942,26.6705377 C44.8235594,26.1854588 44.60429,25.5673613 44.327683,25.3722197 C43.9193327,25.0838472 42.8329088,25.3059095 42.1582213,25.5418004 L41.8920471,25.6373057 Z M36.0875289,30.5120405 C37.6828906,31.482148 40.1137318,33.7442494 38.3974899,36.149264 C36.3773089,38.2698449 33.4687045,35.8384541 32.0353946,34.7388307 C30.7063626,33.8866164 29.2131206,36.0784478 30.4461973,37.0735516 C40.8033244,44.7445605 45.006466,30.7657101 36.8944406,29.3714319 C36.0012775,29.2177885 35.6695544,30.2119271 36.0875289,30.5120405 Z M24.7718329,27.4323969 C24.3358515,26.9403733 23.9112757,26.4817371 23.2553936,26.2205586 C22.4794502,25.9111023 21.5392319,25.8778515 20.7321057,26.1097007 C19.8169864,26.372549 19.092432,26.9794359 18.5556404,27.7546281 C18.0840298,28.4356911 17.7592308,29.2463335 17.5740325,30.0456774 C17.2283291,29.6658639 17.0666605,29.2266576 16.9886095,28.7798543 C16.8601114,28.0442671 16.951174,27.2862841 17.201782,26.5654314 C17.7597156,24.9605835 19.1038345,23.5338045 20.6711242,22.9197012 C22.4606218,22.218499 24.674818,22.4525891 26.3186779,23.4398858 C27.1573326,23.94383 28.1239885,24.8181728 28.6108743,25.6734298 C28.9434653,26.2578924 28.9626616,26.8630224 28.7512472,27.3828649 C28.5185332,27.9550804 28.0163635,28.4197976 27.3752189,28.6530659 C27.0715056,28.7636194 26.758903,28.7547707 26.4623012,28.6763202 C26.0763218,28.5742294 25.7156854,28.356193 25.4215767,28.1022118 C25.1765183,27.8908671 24.9722358,27.65856 24.7718329,27.4323969 Z M27.4456404,17.3109246 C27.0783709,17.802546 26.5374355,18.0537503 25.9738595,18.0801268 C25.9160709,18.0828314 25.8582988,18.0831602 25.8007438,18.0810863 C25.7643943,18.1229101 25.7237996,18.1691228 25.6761119,18.2234488 C25.5660673,18.3488117 25.4939667,18.4311232 25.4189691,18.511013 C25.1480607,18.7996179 24.8632361,19.0751185 24.566449,19.3372364 C23.9055201,19.9213945 23.1936494,20.4338122 22.4237302,20.8637789 C21.0751234,21.6174716 19.5960451,22.2053204 18.075161,22.4859279 C16.5659364,22.7643001 15.0761368,22.8498704 13.5563757,22.6317975 L13.1877477,22.5788128 C12.3098342,22.4501429 11.1590172,22.2822517 10.4380976,21.7383071 C10.722008,21.6478275 11.0096074,21.6434061 11.2901856,21.6309937 C11.4748434,21.6228246 11.6583058,21.6145477 11.8372026,21.5981804 C12.6877755,21.5208451 13.5143346,21.3796163 14.3378459,21.1515481 C15.9386724,20.7083855 17.3893587,20.096359 18.8027087,19.2191973 C20.1884317,18.3594776 21.4608851,17.1893672 22.4746288,15.9076133 L22.5961058,15.7521931 C22.6478623,15.6852752 22.6988361,15.6186378 22.7494465,15.5524721 C23.1641105,15.01036 23.5449929,14.493741 24.1892418,14.1497365 C24.6997228,13.8773109 25.2162912,13.8036822 25.712969,13.8820743 C26.2892488,13.9730303 26.8363747,14.2632886 27.3212489,14.6694346 C27.6798078,14.9697205 27.8457382,15.402137 27.8721419,15.845643 C27.9032028,16.3673762 27.7444729,16.9108295 27.4456404,17.3109246 Z" id="ðŸ–-Ink"></path>
                    </g>
                    <g id="facial-hair/*-None" transform="translate(104.577451, 109.479380)"></g>
                    <g id="accessories/*-None" transform="translate(88.521127, 88.978474)"></g>
                </g>
            </g>
        </g>
    </g>
</svg>