<?xml version="1.0" encoding="UTF-8"?>
<svg width="240px" height="324px" viewBox="0 0 240 324" version="1.1" xmlns="http://www.w3.org/2000/svg" xmlns:xlink="http://www.w3.org/1999/xlink">
    <!-- Generator: Sketch 62 (91390) - https://sketch.com -->
    <title>peep-92</title>
    <desc>Created with Sketch.</desc>
    <g id="Introduction" stroke="none" stroke-width="1" fill="none" fill-rule="evenodd">
        <g id="variations" transform="translate(-3246.000000, -110.000000)">
            <g id="images" transform="translate(126.000000, 110.000000)">
                <g id="a-person/bust" transform="translate(3120.000000, 0.000000)">
                    <g id="body/Button-Shirt-1" transform="translate(31.056338, 135.052838)">
                        <path d="M16.4080469,150.998477 C44.0090737,155.192513 72.110794,155.40344 99.9411735,153.88045 C110.955378,153.05555 122.003343,152.906971 133.008686,153.961609 C139.511795,154.445389 168.024536,156.625679 170.354143,150.798963 C168.887932,119.771683 165.918373,88.4802153 156.808619,58.6396673 C153.062173,48.0440431 149.844462,39.2498092 142.532393,30.4817309 C140.227895,28.0877661 135.258036,23.066896 132.410433,21.4293539 C129.943256,20.0109821 128.912083,20.5169872 127.495455,18.1211203 C126.087716,15.4744421 125.049395,11.0542733 123.050542,9.18669838 C121.015362,7.28518299 117.999252,7.96550545 114.260904,8.57796948 C114.947698,-0.706782862 110.663571,-3.07144814 104.761589,-4.83706849 C94.3873354,-8.79798434 84.1416866,-6.80813577 81.5306104,5.82575073 C76.6891883,5.82575073 73.969679,7.91000614 71.0296751,9.91267429 C69.8278494,10.7313324 70.6638845,12.8170749 69.2283592,13.4605183 C66.5723897,14.4065213 61.8789101,14.1748053 59.3216229,15.3390557 C47.6926933,20.6333321 37.3352039,28.3107799 30.5331777,39.5232446 C15.2838599,63.462047 4.80874987,113.889382 6.62141697,142.262313 C5.82722782,143.508223 6.92546228,145.294767 7.20461006,146.634517 C7.55697347,147.799902 8.69804013,148.575135 9.88890185,148.442618 C11.5507068,150.230431 14.1210607,150.628403 16.4080469,150.998477 Z" id="ðŸŽ¨-Background" fill="#FFFFFF"></path>
                        <path d="M130.652958,20.7275037 C130.483521,20.6330301 130.632676,20.3908227 130.802958,20.4709245 C138.988521,24.3124274 145.268028,31.0521769 149.686479,38.8393785 C154.261708,46.9026765 156.869352,56.0575559 159.117487,65.0054314 L159.198592,65.3287562 C161.595845,74.900811 163.634155,84.5717777 165.469225,94.2664157 C167.327746,104.083848 168.819507,113.96215 170.019507,123.881241 C170.613169,128.785625 171.142394,133.698674 171.555211,138.621656 C171.761408,141.081774 171.948803,143.543793 172.117183,146.00687 C172.184451,146.991931 172.247797,147.976993 172.302139,148.96292 L172.341127,149.702541 C172.374718,150.373367 172.454366,151.045883 172.288732,151.707621 C172.145704,152.278056 171.843803,152.794596 171.578239,153.318322 C171.053028,154.353515 169.613239,154.182956 169.047254,153.318322 L168.882895,153.066456 C168.50757,152.48615 168.195713,151.946843 168.077958,151.224686 C167.964085,150.525328 167.959859,149.792576 167.908732,149.086243 C167.814718,147.78665 167.734648,146.485789 167.64338,145.185774 C167.451761,142.44921 167.236479,139.714337 166.998169,136.981578 C166.526831,131.58665 166.021268,126.196584 165.400352,120.816451 C164.297113,111.254964 162.912676,101.718838 161.280634,92.2334372 C159.686042,82.9673753 157.670161,73.7953212 155.567146,64.6348007 L155.349296,63.6871984 C151.667113,47.6934763 145.992042,29.2747209 130.652958,20.7275037 Z M43.4654789,83.3553299 C43.5256901,83.1953378 43.7847042,83.1585628 43.8284366,83.3553299 C44.3798451,85.8389072 44.4343521,88.3968798 44.5186479,90.9396352 C44.6016761,93.4479405 44.5982958,95.9676587 44.5617465,98.4774434 C44.4269577,107.701404 44.1738592,116.917545 43.9549859,126.140027 C43.8455493,130.753169 43.7428732,135.366946 43.6640704,139.980723 C43.6342817,141.711207 43.6092465,143.441571 43.58843,145.172084 L43.5629676,147.454431 C43.5503059,148.463512 43.5238212,149.460255 43.400831,150.468348 C43.3197042,151.131353 43.1468873,151.763714 42.7809718,152.332034 C42.5212867,152.73544 42.1511868,152.940208 41.790444,153.214346 L41.7229437,153.266625 C41.2628028,153.630359 40.7781549,153.632895 40.3224507,153.266625 L40.1901246,153.16188 C39.7548166,152.821333 39.3786031,152.555259 39.1006901,152.0167 C38.7140704,151.267886 38.652169,150.454398 38.5864648,149.629287 C38.4867465,148.378093 38.5528732,147.108512 38.5657606,145.853725 C38.5915352,143.336543 38.6263944,140.819784 38.6705493,138.302813 C38.8325915,129.072935 39.1528732,119.841365 39.7366056,110.627972 C40.0116015,106.288179 40.3844735,101.934346 40.8846361,97.6121079 L40.9799155,96.8020697 C41.1316056,95.530375 41.2699859,94.2360658 41.4259014,92.9375295 C39.0983662,91.2997761 37.0524507,89.3126607 35.3078028,87.0583984 C35.1793521,86.8924885 35.390831,86.6597918 35.5459014,86.820418 C37.3285775,88.6669855 39.3725915,90.1390403 41.6354789,91.2966059 C42.0062535,88.5784297 42.5160423,85.8748368 43.4654789,83.3553299 Z M82.3498099,1.07961957 C82.3817113,1.05489159 82.4315704,1.04411272 82.461993,1.07961957 C82.9622746,1.66310009 82.8608227,2.55521647 82.876946,3.29461384 L82.8788239,3.36347084 C82.9147394,4.44452759 82.9215,5.52220274 82.9179085,6.60389354 L82.9067113,10.0470012 L82.9067113,10.0470012 C82.9052089,10.5204258 82.8668156,11.0132217 82.8910943,11.4894666 L82.9037535,11.6737644 L82.9037535,11.6737644 C83.1665704,11.9430247 83.2886831,12.3321205 83.1995282,12.7229072 C83.1834718,13.2242301 82.9215,13.6424924 82.5393169,13.9054121 L83.3584278,15.0679444 L83.3584278,15.0679444 L84.178331,16.2298427 C85.8682606,18.6276117 87.5767817,21.0040344 89.3573451,23.3358622 C91.1729789,25.7133417 93.1098803,28.0012086 95.1367817,30.2009425 C96.126993,31.2758701 97.1341056,32.3357918 98.164669,33.3720423 C98.5834542,33.7932106 99.0126972,34.203917 99.4371569,34.6192303 L99.8594577,35.0366372 C100.108965,35.2862419 100.422908,35.533099 100.588542,35.8494904 C100.685937,36.0361127 100.70812,36.496011 100.742979,36.5720971 C101.055655,37.2596196 100.522204,38.3558935 99.6357254,38.012872 L99.675951,37.9860957 C99.8373505,37.8737995 99.7339284,37.872171 99.3655141,37.9813808 C99.1331197,37.9806123 98.9152173,37.9270935 98.711648,37.821142 L98.651007,37.787784 C98.3643332,37.6420498 98.1084418,37.3599909 97.8755232,37.1344374 L97.8177676,37.0793378 C97.285162,36.5801284 96.7774859,36.0506959 96.2670634,35.528872 C95.2016408,34.4402067 94.1603028,33.3282928 93.1521338,32.1865785 C91.1408662,29.908645 89.2341761,27.5383515 87.4284718,25.094508 C85.5891761,22.6054356 83.8795986,19.9884963 82.4093873,17.264191 C81.8514296,16.2302654 81.3399507,15.1764728 80.8495986,14.1104219 C79.8950915,13.803964 79.6734718,12.7884258 79.7400211,11.6443867 C79.387838,10.8239249 79.0705141,9.98655499 78.8829085,9.131009 C78.8573451,9.01370959 79.0079789,8.90317339 79.0981901,9.00567828 C79.4034718,9.35271546 79.6861479,9.72215577 79.957838,10.1011068 C80.1217817,9.29903249 80.3292465,8.56078591 80.4268521,8.09010881 L80.8500211,6.01295812 L80.8500211,6.01295812 C78.4654437,5.88868415 75.8524859,6.86871546 74.2086127,8.58445714 C74.1203028,9.03125166 73.7765704,9.35102466 73.4415,9.76865284 C73.0586831,10.2460932 72.724669,10.7818661 72.4755845,11.3421558 C71.9231197,12.5840501 72.2349507,14.4141323 71.1627676,15.3252634 C71.051007,15.4201597 70.9261479,15.486101 70.7972746,15.5268916 C71.3060433,18.0224555 71.0751579,20.7723126 71.0640669,23.3041072 L71.0636831,23.5269229 C71.0662183,26.3604963 70.9715704,29.1963945 70.8621338,32.0276431 L70.7507958,34.8297202 C70.6065254,38.5667789 70.5128239,42.3056501 70.8758662,46.0222027 C72.5332606,44.5537409 74.2470634,43.1522771 76.0198099,41.8171773 C77.1854437,40.9390873 78.3744473,40.0922249 79.5850403,39.277184 L80.5686891,38.61967 C81.7473929,37.8289489 82.9547333,37.0153262 84.2453028,36.4490912 C85.933331,35.7087311 87.5385423,35.9631969 89.1682606,36.7225785 C90.7912183,37.4790012 92.3657958,38.3575843 93.9576972,39.1774121 C95.5768521,40.0109777 97.1993873,40.8375687 98.8208662,41.6662732 C99.8949507,42.2153613 101.468894,42.7109777 102.256711,43.7216548 C102.306993,43.4980462 102.365514,43.2750716 102.433965,43.0529425 C102.355796,42.7141479 102.386007,42.3480892 102.575937,41.9991499 C105.22312,37.1332321 107.672345,32.1510716 110.104458,27.1750403 C111.335514,24.6568016 112.505937,22.1087624 113.739317,19.5920031 L114.938315,17.1408094 C115.13866,16.7324806 115.339599,16.3244571 115.541641,15.9170442 C115.844176,15.3070873 116.159176,14.7030481 116.465092,14.0945706 C116.594387,13.8375083 116.756434,13.582154 116.882315,13.3226516 L116.941923,13.1925276 C116.944802,13.1857366 117.235305,12.2718572 117.010909,12.3589673 L116.99157,12.3682614 C116.877063,12.433146 116.785373,12.2890051 116.859528,12.1970677 C117.176852,11.8045902 117.618824,12.1522614 117.79988,12.5155726 C118.298777,13.515416 117.384667,15.0849183 117.033043,16.0423159 L117.013754,16.0958466 C115.922556,19.1855765 114.687063,22.2173965 113.421148,25.2386489 C110.993894,31.0311264 108.38643,36.7346254 105.784669,42.4480579 L105.753824,42.5463358 L105.753824,42.5463358 C106.308613,42.1208877 106.901007,41.7347507 107.408261,41.3589699 C108.687908,40.4106411 110.004951,39.5090207 111.31988,38.6103593 C113.731302,36.9622233 116.208085,35.4227552 118.725857,33.9440645 L119.229951,33.6491225 C120.487627,32.9161597 121.733472,32.3218427 123.226289,32.5418583 C124.613183,32.7463679 125.902553,33.4916191 127.155467,34.0970108 L127.284951,34.1591108 L131.15643,36.0003945 C130.742556,34.349326 130.294458,32.7062888 129.826923,31.0693808 C128.915092,27.8765119 127.911782,24.7104845 126.823754,21.5727781 C125.807556,18.6411382 124.709021,15.7415717 123.547092,12.864941 L123.197205,12.0015982 C122.723465,10.8171951 122.25239,9.52567171 120.898331,9.16102074 C119.545162,8.79644149 117.992979,9.33707554 116.756218,8.56543562 C116.643824,8.49526732 116.657768,8.30991311 116.794035,8.27567436 L117.557177,8.08325809 C118.990051,7.72668065 120.669833,7.36797652 122.02481,7.71475068 C123.499246,8.09264501 124.719106,9.33052368 125.434458,10.6174356 C126.229849,12.0490168 126.790526,13.6511229 127.39417,15.1776753 L127.48988,15.4180462 C128.182627,17.1456235 128.848965,18.8835569 129.48657,20.6324806 C130.761359,24.1282145 131.921852,27.666007 132.972275,31.2357135 C133.478472,32.9561049 133.958683,34.6847389 134.420303,36.4176 C134.552979,36.915964 134.771852,37.5202145 134.95143,38.1504611 C135.157204,38.3512438 135.351993,38.5752751 135.534739,38.8307977 C135.837908,39.2547663 135.620303,39.7518622 135.243401,40.0056939 C135.228824,40.4393847 135.132486,40.8472908 134.902204,41.1968642 C134.003261,42.5619757 131.626711,42.2102888 131.723261,40.3751342 C131.737838,40.0942497 131.847275,39.8260462 132.012908,39.5994787 L132.008261,39.5627037 L132.008261,39.5627037 L131.989458,39.4954943 L131.989458,39.4954943 C131.576852,39.2976705 131.162556,39.0772321 130.725866,38.8614434 L126.662768,36.8529816 L126.662768,36.8529816 C125.486007,36.2711342 124.181641,35.3722614 122.873049,35.150555 C121.653091,34.9439084 120.365945,35.853179 119.317626,36.4017916 L119.249599,36.4370442 C116.715444,37.7364258 114.200092,39.0789229 111.694669,40.4324102 C110.471641,41.0933025 109.264458,41.7816705 108.046077,42.4503828 C107.027345,43.0096157 105.927908,43.8123241 104.782838,44.1278701 C104.293754,44.5083006 103.712768,44.4573652 103.245866,44.1697174 C103.459246,45.4917135 103.446148,46.848371 103.511641,48.1999562 C103.599716,50.0068603 103.613174,51.8187742 103.642231,53.6281275 L103.654035,54.3065002 C103.730937,58.3065159 103.772134,62.3075883 103.787345,66.3084493 C103.84143,80.5551499 103.684035,94.8060775 103.647275,109.052778 C103.628683,116.21079 103.486923,123.374931 103.301007,130.530195 C103.222172,133.562161 103.057419,136.590496 102.879449,139.617887 L102.7815,141.269115 C102.574246,144.753224 102.451923,148.2758 101.807134,151.712989 C101.723049,152.161263 100.964599,152.172676 100.890232,151.712989 C100.296835,148.029946 100.263832,144.266099 100.149744,140.539867 L100.125655,139.795158 C99.9885423,135.794297 99.9234718,131.795972 99.9374155,127.792997 C99.9881197,113.54059 100.358472,99.2970599 100.66143,85.0486685 C100.813754,77.8898114 100.916218,70.727784 101.152838,63.5712517 C101.271148,59.9903436 101.405092,56.4117605 101.563965,52.8323319 C101.634951,51.2341538 101.703187,49.6375939 101.809293,48.0418026 L101.857204,47.3579366 C101.890162,46.9117761 101.916782,46.4711108 101.949106,46.0344611 C100.507627,46.561146 99.1893169,45.5859757 97.8925563,44.9187429 C96.3980493,44.1496391 94.9041761,43.3792673 93.4090352,42.6116431 L91.912705,41.8453495 L91.912705,41.8453495 L88.9181197,40.3168016 C87.5698099,39.6284337 86.531007,38.9434474 85.0929085,39.7508055 C79.911993,42.6585628 75.1510775,46.5275413 70.8365704,50.5873691 C70.0092465,51.3659836 68.261007,51.1567468 68.0514296,49.8518701 C67.1562207,44.2773914 67.7006752,38.6222317 68.1577222,33.0308485 L68.3262066,30.9549806 C68.5303732,28.475602 68.7527324,25.9961988 69.0490352,23.5269229 C69.1815423,22.4223217 69.3135085,21.3183969 69.4595366,20.2159058 L69.5719225,19.3893182 C69.7544577,18.0825393 69.8736127,16.7835804 70.2627676,15.5302732 C70.1400211,15.4905393 70.0219225,15.4254434 69.9162887,15.3252634 C68.7462887,14.214829 69.3103732,12.2879483 69.8442465,10.967009 C70.3713592,9.66318904 71.1752324,8.52527906 72.1819225,7.5458818 C72.4014296,7.3319953 72.7109366,7.19440626 73.0219225,7.18722035 C75.4626972,5.56954521 78.1403028,4.76218708 80.9271338,5.64520861 C81.0054085,5.27080157 81.085228,4.89698894 81.1692663,4.5241274 L81.2548099,4.15159609 C81.4715704,3.22651585 81.5520634,1.69845323 82.3498099,1.07961957 Z M107.365099,147.168895 C108.122493,146.960503 108.951718,147.180096 109.506718,147.735314 C110.061507,148.290531 110.281225,149.119869 110.072493,149.87756 C109.968127,150.250593 109.779465,150.574382 109.506718,150.849349 C109.251688,151.102712 108.954214,151.283546 108.614464,151.39185 L108.53531,151.415556 L108.411507,151.467126 C108.031859,151.569208 107.652,151.569208 107.272563,151.467126 C106.909606,151.365255 106.594606,151.181591 106.327141,150.916135 C106.061577,150.648566 105.877986,150.333443 105.776155,149.970132 C105.674113,149.590335 105.674113,149.210539 105.776155,148.830742 L105.827915,148.706891 L105.827915,148.706891 C105.932282,148.333858 106.120944,148.009858 106.39369,147.735314 C106.668338,147.46246 106.992211,147.273513 107.365099,147.168895 Z M152.337486,71.6664117 C152.461923,71.5235389 152.663683,71.7065683 152.586359,71.8585292 C151.406641,74.1721808 150.091711,76.4693472 148.799387,78.7242434 C148.902908,79.3492063 149.005585,79.9690967 149.123683,80.5733472 C149.627134,83.1488618 150.243824,85.6778795 150.645866,88.2779108 C152.090937,97.6236094 152.841148,107.070756 153.48488,116.500361 C154.130514,125.963782 154.21312,135.431429 154.310092,144.913449 C154.318542,145.735179 153.686641,146.690271 152.83988,146.845191 C152.452204,146.915993 152.162134,146.902255 151.775303,146.845191 C150.894106,146.715422 150.342908,145.70559 150.305092,144.913449 C150.052415,139.614052 149.712486,134.321418 149.318683,129.030263 C148.620655,119.649692 148.194106,110.244604 147.630232,100.85431 L147.431645,97.5723814 C147.218527,94.0162124 147.023584,90.4575788 146.960092,86.8961025 C146.917838,84.5365879 147.043965,82.1777072 146.96643,79.8209401 C146.89481,77.6450888 146.674246,75.2792337 147.153824,73.1414254 C147.17157,73.0613237 147.29812,73.0410341 147.334669,73.1177542 C147.833261,74.1677425 148.149106,75.3090341 148.392486,76.4739969 C149.677415,74.8482904 150.986007,73.218991 152.337486,71.6664117 Z M68.1691901,14.1901552 C68.3496127,14.1772086 68.3424296,14.448371 68.1691901,14.4684493 C65.6475059,14.7610521 63.2114901,15.787616 60.8304678,16.6601559 L60.6265141,16.7345472 C58.2210211,17.6076352 55.8757394,18.622962 53.6187676,19.8331538 C49.2060211,22.1994317 45.1539085,25.2504845 41.5712324,28.7432595 C27.2673592,42.6864611 20.7486972,62.7930599 15.9721479,81.6881988 C13.3182042,92.1861793 11.4309507,102.861694 10.2077113,113.619001 C9.60285211,118.939111 9.17524648,124.27951 8.9259507,129.628152 C8.79834507,132.369365 8.71785211,135.113115 8.68426056,137.857076 C8.66693662,139.262555 8.6618662,140.668457 8.66355634,142.073937 C8.66440141,142.718132 8.77933099,143.529083 8.60714789,144.154469 C8.44742958,144.73378 7.99700704,145.24398 7.66383803,145.726704 C7.26897887,146.299463 6.55933099,146.26924 6.15897887,145.726704 L6.01134541,145.529247 C5.58436766,144.962672 5.16658936,144.420923 5.10559859,143.68041 C5.0403169,142.886578 5.08637324,142.06823 5.08341549,141.270805 C5.07665493,139.664332 5.09651408,138.057647 5.12862676,136.451596 C5.19052817,133.373068 5.31179577,130.295807 5.49200704,127.221929 C5.85792254,120.983925 6.46024648,114.758602 7.32264085,108.569631 C8.85559859,97.5688485 11.1533451,86.6731068 14.1630634,75.9821636 C17.0025,65.8967389 20.3663028,55.8411147 25.1582746,46.499009 C29.6075704,37.825193 35.4444718,29.7560501 43.1464437,23.694101 C46.7280634,20.8751108 50.627007,18.5257409 54.8305986,16.7565276 C56.950669,15.8642067 59.177007,15.1356822 61.441162,14.7203789 C63.6801761,14.3097252 65.9094718,14.3670012 68.1691901,14.1901552 Z M107.799169,129.342279 C108.199099,129.339321 108.645085,129.427242 108.988183,129.648526 L109.446634,130.00296 L109.446634,130.00296 C109.570859,130.16253 109.694451,130.322733 109.81762,130.48336 C110.10431,130.857027 110.142338,131.4617 110.082549,131.907015 C110.069028,132.204385 109.980718,132.480831 109.81762,132.737199 L109.468606,133.189277 L109.468606,133.189277 C109.133113,133.462976 108.853394,133.658264 108.447127,133.789935 C108.234739,133.858603 108.030224,133.873002 107.826342,133.862561 L107.758394,133.858201 L107.799169,133.863696 L107.727761,133.855665 L107.727761,133.855665 C107.661423,133.849959 107.594873,133.842773 107.528113,133.833685 C107.48269,133.827978 107.437056,133.824596 107.391634,133.818256 C107.347901,133.814663 107.305648,133.812972 107.261493,133.816988 C106.745155,133.86562 106.22607,133.572667 105.859521,133.236197 C105.52931,132.93291 105.232901,132.289771 105.278958,131.833888 L105.298603,131.643363 C105.333415,131.321948 105.361923,131.195494 105.498042,130.872667 C105.630296,130.5586 105.815155,130.28152 106.066775,130.047344 C106.548465,129.59907 107.138113,129.346929 107.799169,129.342279 Z M106.200866,105.822542 C106.886218,105.075419 108.06319,105.020468 108.91312,105.472335 C109.120162,105.58266 109.310303,105.75956 109.492838,105.907083 C109.952768,106.279059 110.133401,106.950096 110.158754,107.515458 C110.183894,108.07448 109.889176,108.738331 109.492838,109.124257 L109.396711,109.217462 L109.396711,109.217462 C109.15988,109.447834 108.820585,109.648194 108.489317,109.709063 C107.955021,109.807341 107.506289,109.804382 107.008754,109.5943 C106.581237,109.413896 106.21288,109.123852 105.962243,108.730278 L105.92157,108.663724 C105.904387,108.636108 105.888143,108.608022 105.872901,108.579341 L105.850796,108.535858 C105.374599,107.619865 105.502627,106.582981 106.200866,105.822542 Z M106.555838,82.1788908 C106.864923,82.081881 107.173796,82.0681432 107.48288,82.1374661 C107.692669,82.1378888 107.888303,82.1909378 108.06957,82.2959789 C108.266472,82.3511413 108.437599,82.4508986 108.582528,82.5952509 C108.757035,82.6983898 108.896261,82.8374583 108.99957,83.012245 C109.205134,83.2369104 109.343725,83.5004642 109.415768,83.8031178 L109.498585,84.4213174 L109.415768,85.0397284 L109.181261,85.5953683 L109.181261,85.5953683 C109.116824,85.6794857 109.051965,85.7636031 108.986472,85.8472978 C108.882951,86.0225072 108.743514,86.1622098 108.568373,86.2657714 C108.4545,86.3790552 108.323937,86.4638067 108.177951,86.522562 C107.660345,86.8936932 106.970768,87.0147969 106.357458,86.8457166 C105.993232,86.7438458 105.676965,86.559337 105.408866,86.2928243 C105.142458,86.0244094 104.958021,85.708018 104.85619,85.3438614 L104.814182,85.0530126 C104.760067,84.6628856 104.75144,84.4467947 104.861894,83.9508517 C104.910275,83.7327382 105.050768,83.4252235 105.124289,83.2956658 C105.438655,82.7427734 105.952246,82.3638223 106.555838,82.1788908 Z M133.393711,65.1689753 C134.281204,65.1627194 135.168697,65.164444 136.056082,65.1742574 L136.721599,65.1831358 C137.836035,65.2006779 138.790542,65.0857033 139.666669,65.8592454 C140.302585,66.4205918 140.022444,67.3623687 139.418852,67.7852806 C138.504275,68.425672 137.357092,68.1035742 136.305824,68.0329832 C135.197092,67.9585879 134.087514,67.8968736 132.977514,67.8469949 C130.828289,67.7508305 128.678218,67.6895389 126.52688,67.6800282 C124.38019,67.6709401 122.230331,67.6912297 120.083852,67.7258912 C117.899768,67.761398 115.625683,67.9649284 113.453852,67.7387836 C113.155542,67.7077151 113.088359,67.3152376 113.382866,67.2131554 C115.429415,66.5049205 117.731599,66.2753941 119.876387,66.0046544 C122.08857,65.725038 124.300754,65.5272141 126.52688,65.3989245 C128.81343,65.2676759 131.103359,65.185038 133.393711,65.1689753 Z M106.551771,58.2125993 L106.625007,58.214029 C107.015627,58.2150153 107.381217,58.3069517 107.722122,58.4898383 L107.794796,58.5304204 L108.26381,58.8926748 C108.550923,59.1822247 108.749725,59.5231327 108.859585,59.9158215 L108.942401,60.532119 L108.942401,60.532119 C108.954655,60.8512579 108.887894,61.1488391 108.742965,61.4252853 C108.649373,61.7127217 108.489655,61.9612697 108.26381,62.1713519 C108.05381,62.3972853 107.805148,62.5570661 107.518035,62.6506943 C107.262954,62.7845278 106.989871,62.8517297 106.698288,62.8518013 L106.625007,62.8504204 C106.206908,62.8489409 105.816908,62.7434771 105.455641,62.5338176 L104.986415,62.1713519 L104.986415,62.1713519 C104.699303,61.8820133 104.5005,61.5411053 104.390641,61.1484164 L104.307613,60.532119 L104.307613,60.532119 C104.295782,60.21298 104.36212,59.9149761 104.507472,59.6389526 C104.600852,59.3515162 104.76057,59.1027569 104.986415,58.8926748 C105.196415,58.6667413 105.444866,58.5069605 105.732401,58.4135436 C105.987288,58.279515 106.260355,58.2124782 106.551771,58.2125993 L106.551771,58.2125993 Z M113.42193,3.7538771 C113.921155,3.03042505 114.826014,3.67377534 114.696507,4.25541135 C114.730732,5.88893777 114.814183,7.47427632 115.185803,9.07440939 C115.355873,9.80694951 115.578761,10.540335 115.922493,11.2113722 L116.066861,11.4939403 C116.511811,12.3732986 116.857198,13.2026253 116.257986,14.1673174 C115.975521,14.6221432 115.465099,14.9636853 114.911789,14.9398027 C112.457915,14.8339162 112.120732,11.417016 111.971577,9.50957965 C111.817775,7.54507867 112.296085,5.38613542 113.42193,3.7538771 Z" id="ðŸ–-Ink" fill="#000000"></path>
                    </g>
                    <g id="head/Twists" transform="translate(78.591549, 38.043053)">
                        <path d="M14.3604718,21.6423757 C15.4561056,20.4662114 16.8574437,19.589953 18.3893451,19.3099139 C16.9890634,20.0096947 15.6202606,20.7390646 14.3604718,21.6423757 Z M12.2144155,31.7838082 C12.0206831,30.8874716 11.8905423,29.9824697 11.8495563,29.0776791 C12.0944155,29.4500783 12.4854718,29.6988376 12.9246972,29.8273386 C12.6409648,30.4628689 12.3996972,31.1176321 12.2144155,31.7838082 Z M85.5285319,45.8371895 C84.263884,40.5709742 78.3636321,30.4415557 76.9690772,28.491929 C75.454711,23.6644769 83.7139225,19.7930607 79.222162,16.0181331 C77.1885,14.3148611 74.5007535,13.71209 71.9794859,13.1080509 C54.5224437,8.91401566 35.7665282,11.0292094 19.5758239,18.741593 C17.1130775,18.2231507 14.5472324,19.236364 12.7563169,21.0159335 C4.34258451,29.475863 15.8089225,44.7400039 18.3162465,54.2773973 C22.6180775,64.91191 13.756669,66.7007789 14.7069507,75.6985949 C15.445331,80.3470333 20.1517394,81.5756125 24.1233592,82.2781409 C24.7599085,82.4271429 25.6108944,82.449546 25.8162465,83.1226967 C26.4597676,87.05191 28.6658239,90.7964031 31.6275845,93.3376791 C31.3685704,94.1053033 31.5663169,95.0371468 32.4796268,95.7113542 C40.7545563,101.863127 51.188454,104.941743 61.5092746,104.388341 C73.8088731,103.728836 80.1694859,96.6763796 81.7043451,94.8604579 C90.1907535,83.3953386 89.1767153,68.2681526 87.4455886,54.6045675 C86.2396513,45.0862424 87.7688415,55.1662312 85.5285319,45.8371895 Z" id="ðŸŽ¨-Background" fill="#FFFFFF"></path>
                        <path d="M47.6031761,2.01659883 C47.9897958,0.807675147 49.084162,0.080630137 50.3369789,0.230688845 C51.4461338,0.361726027 52.6334577,1.46286106 52.4982465,2.67812524 C52.4728944,2.91272407 52.4390915,3.13252838 52.3989507,3.33965166 L52.4042324,3.34150098 L52.4042324,3.34150098 L52.4095141,3.34176517 L52.3820493,3.42207828 C52.2996549,3.80884932 52.1855704,4.1554638 52.0165563,4.48305675 C51.8010634,5.11076712 51.5940211,5.740591 51.3890915,6.37252838 C51.6848662,6.35984736 51.9869789,6.37675538 52.2933169,6.43381996 C52.6102183,5.62223483 52.9292324,4.81276321 53.2461338,3.99906458 C53.5862746,3.13041487 53.825007,2.01448532 54.496838,1.34239139 C55.3566972,0.484309198 56.8482465,0.306774951 57.8961338,0.919690802 C59.0031761,1.5664227 59.3982465,2.7161683 59.1574014,3.94834051 C59.0350119,4.57685255 58.6152299,5.01424965 58.0958192,5.28906656 L58.0397958,5.31789041 L57.6405,6.26473973 C57.7630352,6.21190215 57.8897958,6.16329159 58.0271197,6.12313503 C58.2426127,6.05972994 58.4538803,6.01957339 58.6609225,6.00266536 C59.2313451,4.96916243 59.8588099,3.96524853 60.5074014,2.98035616 C61.2531761,1.84751859 62.7109225,1.36563992 63.934162,2.08211742 C65.0285282,2.72250881 65.6158521,4.40485714 64.8320493,5.51021918 C64.2362746,6.34927984 63.6721901,7.20524853 63.1165563,8.06967123 C63.2116268,8.08657926 63.3066972,8.10771429 63.3975423,8.13518982 C63.4397958,8.07812524 63.484162,8.02106067 63.5306408,7.96399609 C64.1369789,7.21158904 64.8426127,6.64728376 65.5672606,6.02168689 C66.2454296,5.43413307 66.5581056,4.51053229 67.4496549,4.06458317 C68.5714859,3.50450489 69.9235986,3.77291977 70.5912042,4.88884932 C72.0235986,7.27922114 69.6193732,9.02497456 68.0813451,10.4727241 C69.418669,9.63789041 70.8109225,8.87491585 72.2390915,8.21550294 C73.0419085,7.84563992 73.8574014,7.48845793 74.6855704,7.1798865 C75.9130352,6.72336986 76.905993,6.86941292 77.9137394,7.71882975 C78.3637394,8.09926027 78.5876831,8.93007828 78.3806408,9.4836047 C77.9792324,10.5445832 77.3454296,11.1892016 76.234162,11.4956595 C75.4524718,11.7112368 74.6517676,11.8570685 73.8700775,12.0832133 C72.5602183,12.4594168 71.2883873,12.918047 70.0545845,13.4908063 C70.1433169,13.5457573 70.2278239,13.6049354 70.305993,13.6725675 C71.2271197,13.3745636 72.1651479,13.1167162 73.1074014,12.8969119 C74.6701215,12.5303513 76.2606942,12.2826751 77.8582301,12.1277615 L78.3889553,12.0783363 C80.3041947,11.8944699 82.6072757,11.5551395 83.7827535,13.3893581 C84.1693732,13.99382 84.2116268,14.9913933 83.7827535,15.5895147 C82.9630352,16.7392603 82.1475423,16.9675186 80.7912042,16.9886536 C82.1264155,17.1302583 83.4595141,17.3056791 84.7862746,17.5106888 C85.7007616,17.65018 86.6152485,17.8083046 87.5257441,17.9837315 L87.9806408,18.0728806 C89.0897958,18.2947984 90.3278239,18.4237221 91.2806408,19.066227 C93.3595141,20.469593 92.3834577,23.2023523 90.0806408,23.4940157 C88.9672606,23.6335068 87.7313451,23.1621957 86.6390915,22.9423914 C85.5785282,22.7289276 84.5137394,22.5408258 83.4447254,22.3759726 C82.8912042,22.289319 82.3376831,22.2132329 81.7820493,22.1434873 C82.912331,22.306227 84.034162,22.5365988 85.1264155,22.8620783 L85.429814,22.9536668 C87.5413939,23.5974607 90.3916464,24.6228228 91.0503592,26.8798474 C91.4496549,28.2515108 90.3574014,29.4477534 89.0348662,29.5280665 C87.8052887,29.6020391 86.7806408,28.8686536 85.7369789,28.3275969 C84.9764155,27.9344853 84.2031761,27.6407084 83.3834577,27.3892016 C82.5362746,27.1292407 81.6721901,26.9136634 80.8017676,26.7382427 C81.537363,27.143651 82.2537522,27.5892333 82.9414116,28.0876928 L83.2575058,28.3213071 C85.0852682,29.683721 87.8724296,31.7930231 87.2285282,34.3468532 C87.0257113,35.1520978 86.1278239,35.9214129 85.2658521,35.8389863 C83.0221901,35.6297495 81.784162,33.2393777 80.0919085,31.9585949 C79.6503592,31.6246614 79.1665563,31.294955 78.6595141,30.9737025 C81.2243028,34.0340548 83.2651479,37.5720587 84.8179648,41.2263053 C88.2306696,49.2656176 89.2776156,56.7106704 89.3027238,65.354743 L89.3031761,65.6224697 C89.3074014,70.3905323 89.1996549,75.2452485 88.7348662,79.9921761 C88.3038803,84.3776947 87.5137394,88.7061487 85.5257113,92.6776321 C82.1940211,99.3370685 75.7017676,104.523605 68.5419085,106.497616 C60.575007,108.695659 51.6700775,106.977382 45.1440211,101.904975 C43.4792324,100.611511 45.6869789,97.8028767 47.3876831,98.9967945 C54.1799366,103.762744 62.9644437,105.271785 70.7602183,102.046579 C76.9440211,99.4892407 81.9235986,93.9877926 84.034162,87.6536243 C85.3775484,83.6239552 85.768658,79.3273017 86.2478487,75.1277334 L86.2799366,74.84791 C86.7869789,70.4560509 87.0806408,66.0346027 87.0764155,61.6131546 C87.0700775,53.4021957 85.8912042,46.6432133 82.2806408,39.195229 C80.5820493,35.6868141 78.3785282,32.4427984 75.7461338,29.5956986 C74.9475423,29.7584384 74.0982465,29.53018 73.2912042,29.4435264 C72.8792324,29.3991429 72.4672606,29.3568728 72.0552887,29.3188297 C72.4761338,29.5910489 72.8888662,29.8740892 73.2945676,30.1637304 L73.8266813,30.5475954 C75.4918114,31.7405586 77.6043967,33.0993699 77.1764155,35.4057182 C77.0602183,36.0292016 76.4390915,36.6019609 75.8369789,36.7435656 C73.6545845,37.2634873 72.1545845,35.1415303 70.6799366,33.8818826 C69.3975423,32.7870881 68.055993,31.8064227 66.6890915,30.8236438 C66.3785282,30.601726 66.0658521,30.3798082 65.7510634,30.1600039 C66.046838,30.5049276 66.3345,30.8552618 66.615131,31.2088424 L67.0300299,31.7349104 C68.2854842,33.3063719 70.0952872,35.3489684 68.9771197,37.3860705 C68.6602183,37.9609432 67.984162,38.3434873 67.3292324,38.3308063 C65.0771197,38.2843092 64.1813451,35.7269706 63.125007,34.1122544 C62.2165563,32.72791 61.2299366,31.4238787 60.2095141,30.1198474 C59.9285282,29.7626654 59.6454296,29.4054834 59.3581056,29.0483014 C54.6278239,29.2934677 49.9144437,29.9190646 45.2834577,30.9187515 C42.1017676,31.6056399 38.9728944,32.495636 35.8672606,33.4697495 L35.6091638,33.5518868 C33.9284184,34.0932467 32.1966663,34.786101 30.9848662,35.9742505 C30.8118803,36.7928524 30.9446713,37.6561761 31.11015,38.4737048 L31.2391225,39.0994587 C31.770507,41.7161202 32.1325775,44.2843327 31.8616268,46.9708063 C31.5806408,49.7416086 30.7461338,52.2334286 29.7278239,54.8076751 C29.2461338,56.0208258 28.7475423,55.8010215 28.5764155,57.1029393 C28.4453239,58.0945949 28.5264032,59.1183176 28.615954,60.1182954 L28.6907906,60.966026 C28.8786062,63.1866804 28.972916,65.6077792 27.5179648,67.4400822 C27.2919085,67.7211781 26.8081056,67.6091624 26.6475423,67.3280665 C26.584162,67.2160509 26.5165563,67.1082622 26.4426127,67.0047006 C25.7412042,65.9881057 24.6658521,65.4090059 23.4362746,65.1849746 C23.2799366,65.157499 23.3412042,64.9482622 23.4721901,64.9313542 C24.5116268,64.808771 25.4961338,65.0687319 26.3327535,65.6055616 C25.9360126,64.2331364 22.8645484,64.900573 21.8548501,65.1672778 L21.8200775,65.1765205 C20.5609225,65.514681 19.3693732,66.0641918 18.3193732,66.8419609 C16.2066972,68.405953 14.9855704,70.8449354 15.046838,73.4720196 C15.1081056,76.0547202 16.4412042,78.440865 18.7313451,79.6772642 C19.8362746,80.273272 21.0933169,80.5607084 22.3440211,80.5480274 C23.6496549,80.5353464 24.8116268,79.9625871 26.1193732,80.0429002 C26.8757113,80.0893973 27.4545845,80.9009824 27.0172606,81.6090059 C26.7257113,82.0824305 26.3454296,82.454407 25.905993,82.7397299 C26.9771197,85.2104149 28.3440211,87.5669706 29.9200775,89.7417652 C30.7926127,90.9485753 31.7813451,92.0623914 32.8693732,93.0789863 C33.718669,93.8736634 35.5588099,94.7930372 35.4552887,96.1182035 C35.4193732,96.5958552 35.1721901,96.8875186 34.7369789,97.0650528 C33.3839085,97.6184243 31.7386187,95.7129888 30.8336179,94.7943866 L30.7609225,94.7211781 C29.6327535,93.5967945 28.6038803,92.3540548 27.7081056,91.035229 C26.1193732,88.6934677 25.1327535,86.0537025 24.725007,83.2807867 C22.5552887,83.9338591 19.6820493,83.3209432 17.9116268,82.5199256 C12.346838,80.0048571 10.5278239,72.5082622 13.9102183,67.5161683 C14.5651479,66.5502975 15.3848662,65.7239178 16.318669,65.0560509 C16.1137394,64.9440352 15.9214859,64.800317 15.7503592,64.6185558 C14.8037178,63.6126097 14.1344432,62.2998773 13.4702022,61.0899582 L13.3905,60.9452877 C12.8008286,59.8800822 12.2445428,58.7981774 11.7231262,57.6995734 L11.5292324,57.2868141 C10.3651479,54.7823131 9.34472535,53.6875186 8.51444366,51.0540939 C7.71585211,48.5136634 7.08627465,45.9246223 6.67852817,43.2911977 L6.57017387,42.5941462 C6.33435915,41.066083 6.11134507,39.4320822 6.28345775,37.8806301 C5.09824648,38.2674012 3.90669718,38.506227 2.73416197,37.9250137 C1.96092254,37.5424697 1.53416197,36.4265401 1.79824648,35.6255225 C1.9905,35.0358552 2.31162676,34.572998 2.71937324,34.2094755 C2.47641549,34.0868924 2.24824648,33.9304932 2.04754225,33.7571859 L1.87219014,33.605225 L1.87219014,33.605225 C1.16233099,32.9878708 1.11162676,31.8148767 1.54261268,31.0413346 C1.5848662,30.967362 1.62711972,30.8912759 1.66726056,30.8173033 C2.07711972,30.0839178 2.92430282,29.6041526 3.76092254,29.6168337 C3.8961338,29.6189472 4.03134507,29.6189472 4.16866901,29.6168337 C3.77782394,29.53018 3.39542958,29.3970294 3.0320493,29.172998 C1.39261268,28.1648571 1.59965493,25.4320978 3.58345775,24.9502192 C4.41585211,24.7494364 5.3348662,24.831863 6.25176761,25.0474403 C6.21796479,25.0284188 6.18416197,25.0093973 6.15035915,24.9882622 C5.45740141,24.5634481 4.87641549,23.7328415 4.94190845,22.8810998 C5.01373944,21.9384775 5.31796479,21.2663836 6.15035915,20.7718239 C6.87289437,20.3448963 7.89542958,20.3047397 8.61373944,20.7718239 C9.23697887,21.1797299 9.84754225,21.6299061 10.4348662,22.1138982 C9.84542958,21.3889667 9.33416197,20.6006301 9.12711972,19.763683 C8.87148592,18.721726 9.29824648,17.586775 10.2362746,17.0372642 C10.984162,16.5997691 11.7743028,16.6483796 12.4799366,16.9865401 C12.4419085,16.4391429 12.575007,15.8811781 12.9383873,15.3866184 C13.6820493,14.3723483 15.034162,13.7888102 16.2109225,14.5285362 C16.3651479,14.6257573 16.5721901,14.7927241 16.7728944,14.9977339 C16.3820493,13.7528806 16.7348662,12.4467358 18.0679648,11.884544 C18.8813451,11.5400431 19.9820493,11.7133503 20.6876831,12.3072446 C20.2397958,9.88305675 23.8165563,8.10137378 25.2066972,10.6058748 C25.5221901,11.1732329 25.8343445,11.7706497 26.1134844,12.3817971 L26.2165563,12.611589 L26.2271197,12.607362 L26.156081,12.4393386 L26.156081,12.4393386 L26.0834577,12.2713151 C25.696838,11.3730763 25.2045845,10.438908 25.0693732,9.46458317 C24.8707817,8.02317417 25.5130352,6.65573777 27.0806408,6.44438748 C27.8897958,6.33448532 28.7897958,6.70223483 29.3327535,7.34495108 C29.0390915,5.10865362 31.5362746,3.48336986 33.334162,5.15303718 C34.1855704,5.94348728 34.6397958,7.09957339 35.1806408,8.11405479 C35.4869789,8.68681409 35.7996549,9.25745988 36.105993,9.83233268 C36.184162,9.73933855 36.268669,9.64634442 36.3574014,9.5554638 C35.9031761,8.19436791 35.5503592,6.79945597 35.2524718,5.39609002 C34.9693732,4.07303718 35.6306408,2.69926027 36.9954296,2.3253816 C38.2355704,1.98278278 39.7883873,2.74808219 40.0651479,4.06902153 C40.2595141,4.99875147 40.4897958,5.91833659 40.7433169,6.83327202 C40.9165563,6.79100196 41.0876831,6.76141292 41.2566972,6.74027789 C41.2707817,6.56837965 41.2867441,6.39554207 41.3045845,6.22364384 L41.3710807,5.61227044 C41.5188212,4.21536419 41.6678351,2.62072695 42.3975423,1.43327202 C43.6419085,-0.595690802 46.8320493,0.245483366 46.8658521,2.6443092 C46.8848662,3.88493542 46.3799366,5.11499413 46.2045845,6.34293933 C46.1285282,6.87765558 46.084162,7.41871233 46.0588099,7.95976908 C46.3989507,6.16329159 46.8658521,4.39006262 47.4066972,2.6443092 C47.4700775,2.43507241 47.5376831,2.22583562 47.6031761,2.01659883 Z M20.0792113,71.2930614 C22.878507,70.8597933 25.4369577,72.421672 27.0954085,74.6091476 C27.3975211,75.0085996 27.1989296,75.5729049 26.9263944,75.9089519 C26.7299155,76.1562317 26.465831,76.1858207 26.1679437,76.2238638 C25.8256901,76.2682474 25.3925915,75.9913785 25.2425915,75.6933746 C24.1756901,73.5629636 22.272169,72.2166622 20.0792113,71.3881691 C20.0390704,71.3733746 20.0263944,71.3015155 20.0792113,71.2930614 Z M23.9597369,33.1222551 L24.0445141,33.0311977 C24.6109225,32.4434325 23.7157817,31.5456164 23.1481056,32.1346497 C22.5504296,32.7547515 22.1532465,33.5080039 21.7712746,34.2714012 C21.4072606,34.9992916 22.5003592,35.6422192 22.8658521,34.9115812 L23.0322831,34.5794951 C23.2934913,34.0631298 23.5720596,33.5529867 23.9597369,33.1222551 L23.9597369,33.1222551 Z M16.0983169,31.9159022 C16.9011338,31.780638 16.5607817,30.5583992 15.7613451,30.6932407 C14.7257113,30.867816 13.6940915,31.066274 12.6582465,31.2410607 C11.8556408,31.3763249 12.195993,32.5985636 12.9954296,32.4639335 C14.0310634,32.2891468 15.0626831,32.0906888 16.0983169,31.9159022 Z M63.9225423,23.5715812 C63.1469789,23.3126771 62.8142324,24.5370294 63.5855704,24.794454 C64.6514155,25.1501566 65.7085986,25.5147358 66.7197254,26.0086614 C67.4500775,26.3654207 68.0933873,25.2721057 67.3594437,24.9136556 C66.2496549,24.3715421 65.0925423,23.9621566 63.9225423,23.5715812 Z M15.9157817,21.9281213 C15.1583873,21.625045 14.8294437,22.8510881 15.5788099,23.1509941 L18.316838,24.2464227 L18.316838,24.2464227 C19.0742324,24.549499 19.4031761,23.3236673 18.6538099,23.0237613 L15.9157817,21.9281213 L15.9157817,21.9281213 Z M73.4832385,18.9507178 L73.3833169,18.887636 C72.6966972,18.4425323 72.0605704,19.539863 72.7433873,19.9826419 C73.1442606,20.2424337 73.6316315,20.4186397 73.9986909,20.7281165 L74.0754296,20.7965519 C74.6682465,21.3566301 75.5663451,20.461773 74.971838,19.8997926 C74.5368908,19.4890465 73.9862623,19.2603423 73.4832385,18.9507178 L73.4832385,18.9507178 Z" id="ðŸ–-Ink" fill="#000000"></path>
                    </g>
                    <g id="face/Old" transform="translate(112.183099, 77.354207)" fill="#000000">
                        <path d="M37.1893753,50.6488622 C35.8389901,50.6599088 34.3209297,50.1529653 33.3059002,49.7560489 L33.0412214,49.65118 C32.162578,49.2991386 31.2601645,48.8949856 30.5871863,48.2168076 C30.3719791,47.9964076 30.1428478,47.7470046 30.0264681,47.4847284 C29.9582969,47.3310961 29.9299587,47.17204 29.9958221,47.0140192 C30.2392117,46.9900874 30.4698271,46.9589389 30.6882646,46.9189997 C30.7922745,46.8999825 30.8919067,46.8802624 30.9683183,46.8797523 C31.2498839,46.877957 31.5284074,46.9137959 31.8067259,46.9489909 C31.8470315,46.9540878 31.8873325,46.9591839 31.9276461,46.9641763 C32.1443338,46.9910008 32.3599673,47.0199794 32.5752044,47.048901 C33.2012873,47.1330282 33.8240754,47.2164546 34.4592374,47.2468403 C34.9178508,47.2688615 35.3986813,47.2430798 35.8837853,47.2166704 C37.1420034,47.1481721 38.4428203,47.0546779 39.4122548,47.9362863 C39.6661348,48.1671692 39.7722691,48.4580271 39.7722691,48.7542965 C39.7722691,49.114315 39.620783,49.480795 39.3897375,49.7683397 C38.8664136,50.4192751 38.061033,50.6417318 37.1893753,50.6488622 Z M44.5525855,39.2951339 C43.965157,40.176833 42.9864025,40.743782 41.6452932,40.6821813 C38.9798239,40.5602553 35.798639,39.5542116 33.566214,38.0994676 C32.9848424,37.7207354 32.6078687,37.115209 32.5402646,36.4664894 L32.4199907,35.3123573 L31.7700363,36.2734642 C31.7023182,36.3736009 31.6340125,36.4734588 31.5656741,36.5733662 C31.3774762,36.8485023 31.1894361,37.1235894 31.0119754,37.4055399 C30.3309387,38.4881001 29.7066385,39.5814074 29.1397017,40.7281241 C28.7383431,41.5400814 28.444889,42.4482504 28.1505916,43.364499 C27.6538046,44.9114627 27.1738795,46.4329049 26.1123913,47.5201529 C25.9518966,47.6846027 25.7051768,47.7434487 25.4793711,47.7143788 C25.2803301,47.6887544 25.0852722,47.5911287 24.9896698,47.3966426 C23.7213937,44.8165293 25.427254,41.707352 26.811039,39.5458254 L26.9573973,39.3201084 C28.2405306,37.3668052 30.3361397,34.7817952 32.7361175,34.4303843 L33.0108921,34.8687582 L33.4103698,34.6022255 C34.0637162,34.1663111 34.9261321,34.1865884 35.6811869,34.5276281 L36.4362866,34.8685615 C37.8418844,35.4995867 39.2283654,36.0818143 40.7491654,36.4007253 C40.8599898,36.4239651 40.9707234,36.4456418 41.0812872,36.4657954 C41.1856425,36.4848173 41.2906178,36.5026229 41.3961467,36.5191381 C41.3733958,36.4154226 41.3491012,36.312176 41.3247508,36.20921 C41.2989918,36.1002874 41.2730363,35.9911119 41.2452098,35.882274 C41.2164769,35.7698912 41.1858209,35.6581511 41.1552013,35.546842 C41.0333709,35.1030752 40.8957237,34.6632784 40.7325198,34.2326871 C40.1184865,32.6139343 39.1380765,31.0999836 38.1841639,29.6559479 L38.0719018,29.486077 C37.9351342,29.2791469 37.7853872,29.063253 37.6304412,28.8399349 C36.8865849,27.7683592 36.0616025,26.605391 36.0031529,25.4380021 C36.9905885,25.5001892 37.8168473,26.1138616 38.5441768,26.6481688 C39.542308,27.3809283 40.4673429,28.2188753 41.3064646,29.129262 C42.9340799,30.8953623 44.3948773,33.153231 45.0355059,35.4872746 C45.4022879,36.8238 45.2409499,38.2619355 44.5525855,39.2951339 L44.5525855,39.2951339 Z M18.5107028,25.9799984 L18.5104303,25.932384 C18.5133881,24.5846484 19.2980381,21.5074742 21.2374979,21.5074742 C22.4491129,21.5074742 23.1847181,23.601703 23.3120629,25.7605521 L23.316486,25.8485739 C23.3727209,27.1907594 23.0045415,30.1245429 21.2374979,30.1245429 C19.4517543,30.1245429 18.5290635,27.3458845 18.5107028,25.9799984 L18.5107028,25.9799984 Z M47.0646375,25.5572978 L47.0649099,25.5096835 C47.0619522,24.1619478 46.2773022,21.0847736 44.3378423,21.0847736 C43.1565178,21.0847736 42.4276999,23.0755998 42.2739666,25.1760907 L42.2632773,25.3378515 C42.1867783,26.6347218 42.5310899,29.7018423 44.3378423,29.7018423 C46.1235859,29.7018423 47.0462767,26.9231839 47.0646375,25.5572978 L47.0646375,25.5572978 Z M25.0424556,16.8590111 C24.7854417,16.8891467 24.5297031,16.9286401 24.2740942,16.9692628 C23.5283097,17.0881162 22.7865635,17.2307828 22.0498901,17.3970563 C20.6507302,17.7130577 19.2628036,18.1120347 17.9014046,18.5628972 C16.6274685,18.9849607 15.3733521,19.4619316 14.1195407,19.9388579 C14.0526336,19.9643081 13.9857273,19.989758 13.9187924,20.0152092 C13.4761018,20.1836051 13.0348879,20.3722663 12.5923158,20.5615732 C11.9187588,20.8496822 11.2421129,21.1397221 10.551624,21.3582764 C12.3707989,18.8419589 15.1740484,16.977462 17.8713222,15.6432421 C19.4102871,14.8820116 21.0429449,14.2681565 22.6852878,13.7651737 L23.5999053,13.4902321 C24.9466611,13.0927446 26.4191863,12.7255811 27.6842829,13.5181384 C28.1846465,13.8316142 28.5039337,14.31889 28.6044934,14.8456736 C28.7031098,15.362277 28.5906065,15.9161752 28.2340305,16.3784407 C27.9233299,16.7811401 27.5361828,17.0104845 27.1241274,17.0890864 C26.6693371,17.1758401 26.1873615,17.0805652 25.7486219,16.8461455 C25.3971271,16.8199549 25.2934006,16.8294198 25.1894139,16.8409874 L25.0424556,16.8590111 Z M45.3025626,17.115025 C44.4011825,16.9189961 43.5086349,16.8402949 42.5838728,16.8685118 C42.1656777,16.881083 41.7610987,16.9457089 41.3575937,17.010745 C40.7309147,17.1117517 40.1066474,17.2160745 39.4314912,17.0935246 C39.0792557,17.0295283 38.7792487,16.8234246 38.5475226,16.5543767 C38.2766153,16.2398371 38.0973821,15.8378337 38.0399101,15.4555923 C37.9805379,15.0607403 38.039609,14.7154323 38.1856418,14.4105102 C38.3581649,14.0502755 38.6488072,13.7466854 39.0000612,13.4807449 C40.0629383,12.6757821 41.8866119,12.8693784 43.1410095,13.0321243 C44.3805925,13.1933414 45.6133054,13.5778697 46.7091153,14.1885929 C47.790175,14.7914339 48.7299709,15.6034734 49.4633476,16.5960651 C50.0814606,17.4326981 50.3726368,18.3955997 50.6733247,19.3760399 C49.2588976,18.1890353 47.0943494,17.5041416 45.3025626,17.115025 Z" id="ðŸ–-Ink"></path>
                    </g>
                    <g id="facial-hair/Goatee-2" transform="translate(104.577451, 109.479380)" fill="#000000">
                        <path d="M50.1960211,13.9236094 C50.7748944,14.5175037 51.3305282,15.1536681 51.8544718,15.8109675 C52.0002465,16.855038 52.0340493,17.9117894 51.9009507,19.0023569 C51.7065845,20.5832571 51.2755986,22.1282278 50.6925,23.6119068 C50.3481338,23.5632963 50.007993,23.4660751 49.6763028,23.3139029 C48.6241901,22.8299108 48.0368662,21.8555859 47.3248944,20.9953902 C45.9072887,19.2855663 43.3213732,18.2753119 41.5129225,20.0485409 C40.727007,20.8199695 40.2241901,21.8872885 39.5227817,22.7348031 C38.7516549,23.6668579 37.8854577,24.5524157 36.9812324,25.3555468 C36.8692606,25.4569949 36.7530634,25.5668971 36.6326408,25.6746857 C36.1298239,25.0998129 35.6354577,24.5207131 35.1516549,23.9331593 C33.7129225,22.1831789 32.470669,20.2450967 31.8178521,18.0597346 C31.6108099,17.3665057 31.4819366,16.6436877 31.4312324,15.9145292 C32.0713732,15.1198521 32.8023592,14.3970341 33.6326408,13.7989127 C36.136162,11.9918677 39.0199648,11.6980908 42.0199648,11.5416916 C45.1234859,11.3810654 47.9185563,11.5924157 50.1960211,13.9236094 M57.7678521,22.3078755 C57.6474296,21.0989519 57.4615141,19.8414176 57.1868662,18.5859969 C56.1833451,13.9278364 54.0094014,9.28447045 49.6509507,7.15617299 C47.5889789,6.14803209 45.2460211,5.7929636 43.0234859,6.27906928 C39.1234859,4.81863875 34.7925,6.30865832 31.7227817,8.98012603 C28.1016549,12.1313589 26.4305282,17.0769558 25.8685563,21.7097542 C25.4777113,24.9328462 25.3304577,29.2391084 26.2446127,31.5776994 C27.1587676,33.9162904 32.9684155,40.1699342 41.2615141,40.2134724 C53.0734859,40.275398 55.9446127,32.3068579 56.2932042,31.609402 C57.748838,28.7096759 58.0868662,25.507719 57.7678521,22.3078755" id="ðŸ–-Ink"></path>
                    </g>
                    <g id="accessories/Glasses-4" transform="translate(88.521127, 88.978474)">
                        <path d="M78.2254709,19.8840932 C76.2860953,22.3080593 68.6938489,24.9986485 64.6530544,22.0778469 C60.6122598,19.1570452 59.0153826,17.1215372 58.4752593,13.471854 C58.4176668,13.0826941 57.7143038,12.8238467 57.4169522,13.1001463 C55.7519455,14.6472727 54.6741428,16.6177789 53.6063305,18.5933264 C52.4020101,20.8214259 51.2158177,23.063201 49.0272447,24.5715193 C45.1508251,26.6502179 38.1380357,26.9462623 36.0661853,26.0293353 C32.0973119,24.2728537 28.9577552,20.516308 28.2438141,15.3467378 C27.7596822,13.818 27.3055667,12.8927933 26.8814676,12.5711179 C26.2784252,12.1137156 22.9504092,11.7062336 22.5858273,11.63856 C16.0155922,10.4189943 7.70596602,9.64159611 1.85408603,13.932216 C1.06214693,14.4111065 -1.64902649,16.2102543 -1.68969837,15.7678647 C-1.71745479,14.0350029 0.24553597,10.1128517 4.70998065,8.24658535 C10.23079,5.9387281 18.4374903,5.80375595 23.1918306,6.31307379 C23.4309405,6.33868889 24.2460398,6.1383229 24.3036309,6.11337885 C31.5064744,2.99365872 39.7942575,3.82221274 47.5013004,5.13344482 C48.6056743,5.34783829 58.4922895,7.79681813 62.4249057,6.31307379 C68.9269163,3.65765266 75.8592565,1.73388835 82.8806724,2.49074692 C82.9393842,2.49707563 83.8257711,7.87939673 83.1352796,8.24658535 C82.5857882,8.53879308 81.6507546,9.28755652 81.3185887,9.69733558 C81.0216449,10.0636627 80.8345184,10.5190869 80.8511154,11.1500189 C80.9846459,14.7998655 79.943644,17.7366014 78.2254709,19.8840932 Z M51.491907,16.6273673 C52.3163579,15.434285 52.5765251,12.754156 52.231353,10.7989146 C52.0565815,9.80891451 51.7172246,9.02089459 51.2913522,8.6286287 C51.0082724,8.36788728 50.6852844,8.24514235 50.333047,8.26336012 C50.139924,8.27334848 49.9306641,8.32829687 49.7092628,8.44779243 C46.7106797,6.82512581 43.0780588,6.24088016 39.6346681,6.40890515 C36.8935144,6.40839168 34.9377618,7.05565675 33.611493,8.06321133 C32.0156436,9.27556397 31.2966626,11.0183876 31.2550637,12.9084738 C31.2057025,15.1512498 32.1266555,17.6048475 33.6373844,19.5462851 C35.0833704,21.4045216 37.0614176,22.782132 39.2073203,23.0999753 C41.6433647,23.5837372 44.1258305,23.1157177 46.2842154,21.9708712 C48.4979251,20.7966794 50.3678754,18.9108884 51.491907,16.6273673 Z M75.5297404,17.8926073 C76.9191622,16.2500785 77.8430382,14.113264 77.9836684,11.9960988 C78.111652,10.0693264 77.5959096,8.16075928 76.1699168,6.58350297 C74.8771514,5.47344447 72.5927593,5.45505194 70.1896831,6.07321124 C67.0823593,6.87252887 63.8677741,8.65882243 62.7961628,9.81247894 C62.5437419,9.94488037 62.3094523,10.1754438 62.1053464,10.6700039 L62.1038866,10.8463142 C61.7792617,12.3440585 61.9718782,13.8639497 62.5334248,15.266056 C63.1434088,16.7891036 64.1895759,18.1717244 65.4651742,19.2266546 C67.1599083,20.6232399 68.929012,21.0507709 70.584845,20.8252445 C72.4604381,20.5697865 74.2045306,19.4592268 75.5297404,17.8926073 Z" id="ðŸŽ¨-Background" fill="#FFFFFF"></path>
                        <path d="M62.2013239,5.71985753 C68.7854789,3.0306364 75.8234366,1.09234286 82.9486479,1.86038982 C83.5378732,1.63614716 84.2692817,1.82509432 84.5304085,2.65865988 C87.0683662,10.3930239 81.4087183,8.24211194 81.4847746,11.133384 C82.0780141,27.3445855 60.2973803,30.113063 57.8483662,13.5647577 L57.8033662,13.5913879 L57.8033662,13.5913879 C54.2798451,16.8806325 53.537662,22.2330787 49.3868873,25.0937049 C41.0137183,31.2196932 29.1442817,26.3660337 27.6197746,15.4603585 L27.5865234,15.3128216 C27.0747805,13.0871517 26.4629362,12.5352974 23.9390704,12.5462607 L23.5403464,12.4670115 C16.9827946,11.1745229 8.25045634,10.0130583 2.21061972,14.4579241 C0.896957746,15.2221667 0.835267606,17.1868791 -0.274732394,18.0405229 C-1.49078873,18.2768125 -2.23994366,16.8136344 -2.32233803,15.8010552 C-2.51501408,5.70633112 15.5420282,4.98013151 23.6289296,5.84645636 C23.7833662,5.68646419 24.1131549,5.70633112 24.2242817,5.90563444 C31.5379437,2.73791624 39.7775915,3.17625675 47.6084366,4.50839765 C52.4593521,5.44784971 57.2504789,7.58777143 62.2013239,5.71985753 Z M82.2930845,3.72407671 C78.342169,3.52646419 74.687662,3.74267554 70.8096338,4.69269511 C68.765831,5.18598669 67.1973803,5.80968141 65.2410423,6.5597636 C53.0386479,11.9680063 51.6311831,2.35473816 24.2787887,6.12311389 C24.632662,7.6393409 24.6977324,9.14056204 24.7167465,10.565063 C30.3016014,10.3399242 28.9866904,15.6747489 31.0790487,19.4219234 L31.143507,19.5349808 C34.1929437,25.0021902 41.3887183,27.5523429 47.1932958,23.9259945 C52.0359718,21.1023546 52.5083662,13.9407499 57.3299155,11.0985112 C61.5094225,10.9340806 59.8399859,16.5771335 62.114493,18.8964916 C65.3160423,23.1702059 72.1211831,23.7676932 76.1356901,19.7478106 C78.0191408,17.8135327 79.0201268,15.3576423 79.0754789,12.7191452 C79.1804789,11.0334153 78.8914648,9.32042114 80.1654085,8.13474599 C81.0584366,7.22720783 82.6450563,7.5300728 82.827169,6.15819804 C82.9429437,5.34703562 82.6057606,4.46718434 82.2930845,3.72407671 Z M39.3549296,5.93359609 C43.2796479,5.74021057 47.4323239,6.42202661 50.8022535,8.34763914 C53.2966901,6.36179178 53.9078873,14.2540344 52.2521831,16.536829 C49.8667606,21.4194434 44.313169,24.6296431 38.9657746,23.5635922 C30.623662,22.3542458 24.8112676,5.91901292 39.3549296,5.93359609 Z M50.5626761,8.87686027 L50.3492185,8.84565156 C46.7339243,8.29380188 36.8899099,5.73717558 33.093169,9.77235147 C29.4084507,16.4656039 38.7564085,27.7081714 48.4842254,18.7532595 C51.1916197,15.9957722 52.2409859,12.6519992 50.5626761,8.87686027 Z M62.0196127,9.73230059 C63.8918662,7.51460196 73.4337676,3.02256282 76.7597535,5.90516947 C82.8301056,12.7108603 73.2032746,26.4767389 65.1400352,19.7699601 C62.4544014,17.5281675 60.6875704,13.9563476 61.4608099,10.4976 L61.4619992,10.3526137 C61.4636737,10.3000579 61.4734859,10.3120344 61.5296831,10.2465159 C61.6291901,9.98507554 61.8083451,9.81810881 62.0196127,9.73230059 Z M76.6750352,13.8572243 C78.7222183,2.74928689 70.1660915,6.97206575 63.139331,9.93688767 C63.5164437,10.2816 63.5147535,10.7522771 63.4063732,11.1390481 C62.6652465,19.3808642 72.6786972,24.051283 76.6750352,13.8572243 Z M23.4869577,6.38624501 C20.5560423,7.37916869 1.16991549,5.60340352 -0.621,14.694425 C1.26942254,11.6304798 5.1846338,10.4145816 8.70435211,9.75474599 C13.4918873,8.85714129 18.2532254,9.37685166 22.9735775,10.3213761 L23.0710683,9.34408428 C23.1757598,8.30746013 23.2861417,7.33770673 23.4869577,6.38624501 Z" id="ðŸ–-Ink" fill="#000000"></path>
                    </g>
                </g>
            </g>
        </g>
    </g>
</svg>