<?xml version="1.0" encoding="UTF-8"?>
<svg width="240px" height="324px" viewBox="0 0 240 324" version="1.1" xmlns="http://www.w3.org/2000/svg" xmlns:xlink="http://www.w3.org/1999/xlink">
    <!-- Generator: Sketch 62 (91390) - https://sketch.com -->
    <title>peep-22</title>
    <desc>Created with Sketch.</desc>
    <g id="Introduction" stroke="none" stroke-width="1" fill="none" fill-rule="evenodd">
        <g id="variations" transform="translate(-846.000000, -110.000000)">
            <g id="images" transform="translate(126.000000, 110.000000)">
                <g id="a-person/bust" transform="translate(720.000000, 0.000000)">
                    <g id="body/Sporty-Tee" transform="translate(31.056338, 135.052838)" fill-rule="evenodd">
                        <path d="M24.1490915,150.426542 C26.6782013,150.582878 29.2071394,150.706398 31.7359206,150.800658 C64.8057553,152.033332 97.8487751,148.261985 130.898176,147.436781 C142.407401,147.133705 153.857683,147.285032 165.337331,148.209478 C166.46212,148.299936 167.748317,147.089321 167.610148,145.935771 C165.489232,127.621423 162.835923,109.355685 161.460782,90.9660963 C161.459725,89.9934622 161.585218,89.0223076 161.919444,88.1058928 C161.982401,88.0340337 162.309021,87.2283663 162.599514,87.1784877 C162.504655,87.248656 162.934585,87.1252274 162.660782,87.1463624 C164.3205,86.8745659 165.948317,85.0823155 164.74388,83.3672078 C152.335711,64.3420885 135.397542,46.9775483 129.948106,24.3803977 C128.660641,18.2711061 124.010218,17.8934231 119.055993,15.3730708 C117.510359,14.4534857 113.73057,11.9058693 113.115359,10.1347538 C111.645993,3.7513409 114.233599,-2.50230294 106.67381,-5.08521487 C101.683246,-6.46934795 92.8624014,-7.64043992 87.8128944,-6.18064344 C81.6533873,-4.12991155 82.1143732,2.813791 78.5416268,7.59094168 C76.6938602,10.3540673 73.5438342,14.1372645 70.6350659,14.5606247 C69.2252948,14.7658115 68.18693,11.9130412 66.7793028,12.1093996 C44.8383169,17.4402881 14.9452183,53.8064877 5.51507746,73.9376031 C3.38993662,80.2732509 10.2436056,78.3617988 9.8225493,84.7297832 C9.30346479,96.8107773 8.16817606,112.276546 8.84148592,124.371912 C9.47211972,131.392124 9.00542958,138.747748 11.1867676,145.503983 C10.5996549,146.217079 11.4432465,146.937572 12.1315563,147.247411 C12.9988099,148.722848 21.532331,150.222167 24.1490915,150.426542 Z" id="ðŸŽ¨-Background" fill="#FFFFFF"></path>
                        <path d="M81.2711408,-0.0176688845 C81.8415634,-2.5853636 85.9253662,-1.48422857 85.2260704,1.07289863 C84.1422676,5.02747397 81.8943803,8.76414716 78.7213521,11.3870043 C76.2704366,13.4117401 72.930507,15.2185738 69.6176197,15.5525072 C69.9281831,15.8549495 70.2260704,16.1783155 70.5387465,16.4866755 C71.2443803,17.1883585 71.9943803,17.8393174 72.7676197,18.4649143 C74.3565634,19.7499241 76.0084648,20.9060102 77.8126901,21.8739945 C85.0190282,25.7419162 93.1593803,26.6338145 101.208465,25.7332509 C105.028183,25.3063233 108.904944,24.5816031 112.496493,23.1843663 C114.161493,22.5378458 115.779592,21.6880063 117.207972,20.6145581 L117.581744,20.3338548 C118.332645,19.7665633 119.334764,18.9661539 119.804239,18.0910356 C118.37607,18.4120767 116.569732,16.8903546 115.578887,16.0050082 C114.495296,15.0327969 113.582408,13.7792783 112.908465,12.4942685 C111.588042,9.97307084 110.888746,6.72038982 111.996,4.01700822 C112.069732,3.83736047 112.306352,3.86716086 112.327479,4.06160313 C112.654944,7.21283601 113.504239,10.1675131 115.765014,12.5008204 C116.768535,13.5343233 117.970437,14.4008595 119.282408,15.0029965 L119.467087,15.0878479 C120.025982,15.3465274 120.61443,15.6499397 120.850014,16.2034661 C120.94107,16.1928986 121.031704,16.2013526 121.118324,16.2248125 C121.196493,16.2457362 121.268324,16.2691961 121.338042,16.2945581 C121.181704,15.9881002 121.099521,15.6266912 121.114099,15.1995523 C121.169239,13.5446795 123.440366,13.4941667 123.754944,14.9672783 C123.697901,14.772836 123.621845,14.9609378 123.765507,15.0201159 C123.763257,15.00295 123.759257,14.984013 123.754838,14.9671726 L123.759165,14.9827499 L123.759165,14.9827499 L123.767725,15.0200102 L123.765507,15.0201159 C123.771282,15.046746 123.77593,15.0745033 123.779013,15.1025112 L123.781965,15.1393627 L123.780127,15.1085065 C123.77818,15.0856939 123.775453,15.0652854 123.772396,15.0466998 L123.76762,15.0201159 C123.788746,15.030472 123.818324,15.0370239 123.852127,15.0370239 L123.86609,15.0425271 C123.919013,15.0653542 124.105676,15.1524211 124.160789,15.1744016 C124.538746,15.3138928 124.961282,15.358065 125.347901,15.4785346 C126.186845,15.7365933 126.926282,16.1635209 127.437549,16.8903546 C127.805155,17.4126012 128.009873,18.0107225 128.09438,18.631881 C131.806352,20.4180023 135.319732,22.7384172 138.262901,25.6108791 C144.831211,32.0188086 149.411282,40.0395523 153.169732,48.3416031 C155.082644,52.5680806 156.787346,56.8842076 158.454647,61.2120654 L158.71762,61.8954975 C160.504944,66.5471061 162.085437,71.2496501 162.473958,76.2504094 C162.509873,76.698472 162.361986,77.1190591 162.106352,77.4677871 C162.197197,77.8439906 162.243887,78.2201941 162.231,78.5877323 C162.228887,78.6450082 162.224873,78.7020728 162.220437,78.7591374 C162.820437,78.7485699 163.407761,79.0000767 163.965507,79.7059867 C164.191563,79.6341276 164.436634,79.6254622 164.677479,79.7036618 C166.145789,80.1728595 166.382408,81.7856736 166.659169,83.136202 C166.944592,84.5311139 167.069028,85.9598419 167.071141,87.382018 C167.071141,87.8915836 166.779592,88.5340885 166.285225,88.7517793 C165.355648,89.1615875 164.354451,89.4302137 163.392972,89.8021902 C162.670437,90.0811726 161.945789,90.3453605 161.214803,90.5926403 C161.620437,91.3004524 161.751423,92.2855562 161.971141,93.0316227 C162.315507,94.1961628 162.592268,95.3649299 162.824873,96.5569456 C164.400718,104.662229 165.492972,112.854167 166.96762,120.976359 C167.704944,125.044852 168.562901,129.085869 169.437338,133.126887 C169.868324,135.11358 170.326775,137.095834 170.819028,139.069846 C171.081211,140.12237 171.353535,141.175106 171.634521,142.221079 C171.716211,142.526832 171.79884,142.831646 171.882408,143.136147 L172.029592,143.66904 L172.029592,143.66904 C172.350718,143.846574 172.625366,144.114989 172.815507,144.482527 C173.510789,145.826926 173.111282,147.342308 171.778183,148.098942 C170.328887,148.923208 168.598817,148.145227 167.800014,146.80738 C167.238042,145.862856 167.054239,144.611662 166.777479,143.56104 C166.464803,142.381916 166.166915,141.196241 165.879592,140.010566 C163.927685,131.955466 162.620555,123.759221 161.635337,115.532122 L161.565507,114.944421 C161.064803,110.708961 160.581,106.462934 160.268324,102.208452 C160.114099,100.118198 159.991563,98.0279436 159.915507,95.9332509 C159.877479,94.8555757 159.938746,93.7713487 160.000014,92.6953644 C160.027479,92.2242646 160.06762,91.7506286 160.082408,91.2795288 L160.087162,91.2124379 C160.09107,91.1646907 160.096563,91.1018795 160.101,91.0359721 L160.105648,90.9561628 C158.647901,91.4126795 157.169028,91.79311 155.675577,92.1141511 C152.497901,92.8010395 149.246493,93.1837949 146.003535,92.9893526 C146.455648,98.3618771 147.045085,103.721509 147.869028,109.045423 C148.663394,114.172993 149.580296,119.289572 150.615507,124.374871 C151.133324,126.930096 151.692972,129.478981 152.282408,132.019411 C152.59931,133.37628 152.960577,134.724484 153.246,136.087905 C153.414803,136.899278 153.46762,137.577713 153.127479,138.336672 C153.501999,139.356917 153.834614,140.382403 154.161833,141.348024 L154.259873,141.63585 C154.838746,143.326652 155.937338,145.055286 154.790155,146.716711 C154.196704,147.574582 153.229099,148.065126 152.254944,148.094715 C152.238042,148.105071 152.219028,148.117963 152.200014,148.128319 C151.67607,148.409415 151.071845,148.464578 150.497197,148.344108 C149.624662,148.51509 148.750014,148.680155 147.873254,148.830214 C145.707761,149.204304 143.531704,149.512664 141.351423,149.772836 C137.200014,150.267184 133.021141,150.537924 128.844592,150.687983 C113.552831,151.239396 98.2443803,150.271411 82.9467042,150.550394 C75.152831,150.691998 67.359169,151.04284 59.5781831,151.508022 C55.6950845,151.740507 51.8098732,151.989901 47.924662,152.182229 L46.7220611,152.240748 C43.2475564,152.406978 39.7705338,152.535476 36.2986056,152.281564 C36.231,152.277126 36.1781831,152.24965 36.1422676,152.211818 C34.9443803,152.076554 33.7403662,150.973094 33.8605775,149.698863 C34.3781831,144.271177 34.8957887,138.843912 35.415507,133.414112 C36.3387465,123.74082 37.2704366,114.067317 38.2126901,104.395717 L38.3488628,102.999534 C38.665463,99.7406736 38.9677077,96.4742284 39.1211408,93.2026051 C38.3479014,93.1478654 37.5769859,93.0781198 36.8056479,92.9933683 C28.4488592,92.0781201 20.4375983,89.5495715 12.7454846,86.22808 L12.4338169,86.0929926 C11.7408592,85.7905503 10.9824085,85.4883194 10.2049437,85.1651648 C10.217831,86.642292 10.1690282,88.121744 10.1626901,89.5842881 C10.1521268,92.0129143 10.1711408,94.4413292 10.1774789,96.8674192 C10.1922676,101.867967 10.3824085,106.870629 10.6317042,111.862934 C11.0690282,120.680257 11.5824085,129.48511 12.3598732,138.281509 C12.5563521,140.494347 12.8227606,142.702957 13.0105775,144.915795 C13.1227606,146.219826 12.8542394,147.306378 11.6607887,147.991153 C11.0732535,148.329314 10.6190282,148.187709 10.0359296,147.915067 C8.61198592,147.246989 8.57184507,145.668413 8.4366338,144.294636 C8.33332394,143.258809 8.23804225,142.223404 8.14508451,141.185674 C7.94670423,138.972836 7.7753662,136.759787 7.63592958,134.542723 C7.08473239,125.733642 6.92395775,116.933227 7.30423944,108.11358 C7.48079879,103.988324 7.73568885,99.853774 8.07398418,95.7358207 L8.15353521,94.7858301 C8.43240845,91.4948947 8.61198592,88.0416423 9.18874648,84.7297832 C6.86269014,83.6983937 4.55776056,82.3859084 3.48874648,80.204562 C2.10304225,77.3724681 3.62607042,74.9506051 5.79578873,73.2828399 C5.77466197,73.001744 5.79578873,72.7227616 5.85494366,72.4693526 C6.4781831,69.770198 7.52184507,67.1029573 8.52959155,64.5289221 C9.54578873,61.9417832 10.6676197,59.3952235 11.9014225,56.9031922 C16.8535352,46.9211178 23.6183239,37.7994505 31.6824085,30.1145425 C35.6880423,26.2977675 40.0718451,22.7701198 44.7514225,19.8112157 C47.0711408,18.3467695 49.4500141,16.9939162 51.9133944,15.7894309 L52.2775941,15.6120132 C53.9924657,14.7794959 55.9158028,13.8943233 57.8227606,13.4307616 C58.0211408,13.2828164 58.2218451,13.1433252 58.424662,13.0101746 C59.174662,12.5111765 60.1929718,12.8725855 60.6366338,13.584836 C60.852338,13.4178693 61.1014225,13.2701354 61.3866338,13.1367734 L61.6685395,13.0080539 C63.379613,12.2373058 65.4341875,11.5165954 67.2915634,12.0231687 C68.4450845,12.3380806 69.3535352,13.1877088 69.761493,14.2698223 C70.6971972,13.7752626 71.6162113,13.2659084 72.5140986,12.642425 C73.9570563,11.6448517 75.2648028,10.4061276 76.4394507,9.10632329 C78.7950845,6.49213151 80.5063521,3.42966575 81.2711408,-0.0176688845 Z M163.008465,82.4089456 C162.847901,82.455654 162.678887,82.472562 162.503535,82.4512157 C162.820325,82.4884634 162.185716,82.6757904 162.01168,82.7656149 L161.998606,82.7726795 C161.681704,82.9542294 161.362901,83.1296501 161.039451,83.2989417 C160.285225,83.6960689 159.51431,84.0532509 158.730296,84.3895092 C157.18593,85.0468086 155.590859,85.5519358 153.953535,85.9217988 C152.352127,86.2829965 150.672549,86.4943468 149.031,86.5281628 C147.932408,86.5492978 146.628887,86.4987851 145.492268,86.1752078 C145.623465,88.1682411 145.769028,90.1591609 145.931704,92.1479671 L148.176452,91.6331178 C150.421352,91.1178326 152.663905,90.5899456 154.878887,89.9478106 C156.541563,89.4661432 158.181,88.901838 159.801423,88.2929378 C160.650718,87.9737988 161.493676,87.6358497 162.32607,87.2723272 C162.740319,87.0913409 163.128752,86.8760898 163.512541,86.6580969 L163.840859,86.4713096 C163.764803,85.5815249 163.625366,84.7086481 163.422761,83.8294309 C163.317127,83.3644603 163.137338,82.8868086 163.008465,82.4089456 Z M9.29438028,73.0228791 C9.00916901,73.9488047 8.57184507,74.8132274 7.57466197,75.0224642 C7.22184507,75.0964368 6.92628169,75.0562802 6.681,74.9358106 L6.62218377,75.0544826 C5.80229423,76.7379741 5.56151238,78.5148942 7.44790141,79.8116618 C8.29952113,80.3971022 9.22677465,80.9043429 10.1859296,81.3585346 C11.9011585,82.1750733 13.727798,82.8314893 15.44999,83.4991437 L15.7929718,83.6328751 C18.8732535,84.8417988 22.0021268,85.9429339 25.1795915,86.8642098 C28.4037465,87.7962646 31.6845211,88.5444446 35.0058592,89.0199828 C36.4063521,89.2188634 37.8176197,89.3583546 39.2312113,89.4492352 C39.2542394,87.5470826 39.2436761,85.6428164 39.237338,83.7406638 C38.7345211,83.6770474 38.2359296,83.6096266 37.7544507,83.5523507 C36.2880423,83.3813683 34.8260704,83.1721315 33.3725493,82.9121706 C30.3366338,82.3690004 27.3324085,81.6187068 24.4021268,80.6591765 C18.9725493,78.8774935 13.9211408,76.3305112 9.29438028,73.0228791 Z M68.8232535,14.7578301 C67.5894507,13.4518967 65.2295915,13.9232078 63.7403662,14.5572587 C63.2901549,14.7495875 62.8359296,14.9440297 62.4049437,15.1786286 L62.3214622,15.2253407 C61.819538,15.5145276 61.8220669,15.6863977 62.0671268,16.2626442 C62.3859296,17.0216031 62.8295915,17.7547773 63.2521268,18.4585738 C65.0607887,21.4789808 67.4415634,24.1081785 70.1605775,26.3292587 C79.7901549,34.1914896 93.6239577,36.9646168 105.666211,34.3311922 C111.445657,33.0686645 117.02052,30.5202715 121.275094,26.3404775 L121.662536,25.9548124 C123.378001,24.2375851 125.732802,21.7519618 125.56762,19.2069652 C125.489451,17.9830356 124.490155,17.91329 123.469732,17.676789 C123.051634,17.5795679 122.652127,17.4419789 122.305648,17.2477479 C122.584521,18.4503311 121.099521,20.2381432 120.332408,20.9886481 C118.724662,22.5629965 116.789451,23.7930552 114.742479,24.7126403 C110.846493,26.4647342 106.608676,27.2932274 102.389451,27.8171648 C97.6021268,28.413384 92.7112817,28.3605464 87.9598732,27.4792157 C83.8253662,26.7120141 79.7500141,25.2600376 76.1922676,22.9985894 C74.5612817,21.9627616 72.9535352,20.7813135 71.5929718,19.4056344 L71.3038146,19.1132898 C70.3215075,18.1176727 69.1785672,16.9141988 68.5908592,15.6076697 C68.3669155,15.6097832 68.1450845,15.6032313 67.9232535,15.5884368 C67.7669155,15.5801941 67.6826197,15.358065 67.8387465,15.2756384 C68.0140986,15.1826442 68.1894507,15.0898614 68.3648028,14.9989808 C68.3354366,14.9015483 68.3098732,14.8066521 68.2887465,14.7094309 C68.2718451,14.6270043 68.3584648,14.5509182 68.4345211,14.5974153 C68.5401549,14.660609 68.6415634,14.7284524 68.7408592,14.8001002 C68.7683239,14.7876305 68.7957887,14.772836 68.8232535,14.7578301 Z" id="ðŸ–-Ink" fill="#000000"></path>
                    </g>
                    <g id="head/Bangs-2" transform="translate(78.591549, 38.043053)" fill-rule="evenodd">
                        <path d="M82.2952606,34.1722779 C69.5913169,25.7599022 44.140331,26.6735695 30.1556831,31.8275577 C16.510331,36.1566458 11.7329366,48.2194638 9.46730282,61.2519569 C6.71342958,75.8991663 7.08357042,97.0136947 26.8865282,96.7581722 C29.6706127,98.1051076 32.7549085,98.6892798 35.6355423,99.8047867 C39.5782183,101.168419 43.443993,102.751432 47.4447676,103.945773 C55.3246268,106.484513 64.0930775,106.263652 71.5679366,102.548748 C75.6976707,100.553085 77.4069864,97.4452114 80.1076918,94.13357 C87.9647602,84.4991272 91.9182745,70.7110041 91.5642042,58.4604423 C90.9428662,49.83418 89.5165986,39.8483014 82.2952606,34.1722779 Z" id="ðŸŽ¨-Background" fill="#FFFFFF"></path>
                        <path d="M98.3712254,69.6811773 C97.0677042,61.5864611 96.7064366,53.3543671 94.9993944,45.323056 C93.3937606,37.7653808 90.3916479,30.6236431 85.1458732,24.8622341 C80.451507,19.7074004 74.3817887,15.9221166 67.8662958,13.5232908 C55.173338,8.85033581 40.5747465,9.90708728 28.2958732,15.3622497 C16.8029155,20.4661479 7.63601408,29.9092791 2.29305634,41.2418818 C-1.17807042,48.605326 -2.92314085,56.4337409 -3.69849296,64.5136626 C-4.55835211,73.4897096 -4.65130986,82.5587507 -5.00201408,91.5665002 C-5.04426761,92.6782027 -5.10553521,93.7899053 -5.12032394,94.9018192 C-5.13722535,96.1189855 -4.64497183,97.1863045 -4.24356338,98.3191421 C-4.21609859,98.3994552 -4.17595775,98.4757526 -4.1273662,98.5476117 C-4.42947887,98.5854434 -4.73159155,98.629827 -5.03370423,98.6784376 C-5.37173239,98.7312751 -5.35694366,99.2807859 -5.03370423,99.3463045 C-2.29778873,99.9042693 0.514183099,99.9824689 3.29657746,100.119847 C6.18038028,100.263565 9.06840845,100.341976 11.9564366,100.438986 C14.7726338,100.534093 17.588831,100.629201 20.4050282,100.724308 C21.8839014,100.775032 23.3627746,100.825757 24.8416479,100.874367 C25.545169,100.897616 26.2486901,100.923189 26.9543239,100.946226 C27.3050282,100.959119 27.6578451,100.969263 28.0085493,100.982156 C28.2937606,100.99061 28.7585493,101.172371 28.7881268,100.963134 C28.8409437,100.995048 28.8979859,101.022101 28.9592535,101.041334 C29.0268592,101.077263 29.0923521,101.119533 29.1557324,101.166031 C29.5000986,101.402743 30.0219296,101.373154 30.3705211,101.166031 C30.4022113,101.147009 30.4360141,101.125874 30.4698169,101.104739 C30.7296761,100.950453 30.9113662,100.726422 31.0127746,100.472802 C32.4578451,102.218555 35.0162958,100.257224 33.5374225,98.4100227 C32.7430563,97.4166763 24.8416479,73.062782 28.1120704,54.5104532 L41.2275634,52.7731538 C42.8261549,52.6111186 45.1127746,52.3687703 48.0874225,52.0461088 C48.8155915,49.6691225 49.2839014,48.0980853 49.4923521,47.3329973 C49.5155915,47.2484571 49.538831,47.1618035 49.5641831,47.0772634 C49.8768592,47.629099 50.1916479,48.1783984 50.5085493,48.7279092 L52.1268592,52.0186333 C68.0508028,51.7523319 77.9648873,51.6318622 81.8691127,51.6572243 C81.9684085,51.6572243 82.4395352,58.7797292 82.2261549,61.9161675 C81.795169,68.2144063 81.3367183,74.508418 80.6986901,80.7897487 C80.2914675,84.8118376 79.3099143,88.756242 77.8477434,92.4632769 C75.5380063,98.3191421 68.8318996,103.885115 62.2930563,103.885115 C58.2228459,103.885115 49.0254507,100.587353 47.6860141,99.9213886 C46.3465775,99.2554239 45.5484655,101.073036 46.7691127,101.800081 C49.2417414,103.272835 56.057599,106.39695 62.2930563,106.39695 C71.3485877,106.39695 78.1846056,97.8013339 79.023338,96.5691616 C87.2691127,96.1170834 95.7029155,96.3261088 103.938127,97.1440344 C104.628972,97.2116665 105.224746,96.3789464 105.002915,95.742782 C102.045169,87.2741871 99.795169,78.5390795 98.3712254,69.6811773 Z" id="ðŸ–-Ink" fill="#000000"></path>
                    </g>
                    <g id="face/Smiling" transform="translate(112.183099, 77.354207)" fill="#000000" fill-rule="evenodd">
                        <path d="M30.968993,50.9198978 C29.548794,50.3403012 28.2816173,49.3734958 27.3551889,48.1384646 C27.0331038,47.7091169 26.9495926,47.2557326 27.017159,46.8410547 C27.0931327,46.3747786 27.3688808,45.9521824 27.7449394,45.6687178 C28.1221628,45.3843752 28.5940214,45.2441445 29.0502103,45.3156301 C29.4466117,45.3777469 29.8412104,45.5948709 30.1535058,46.0451781 L30.2187521,46.1352289 C30.7695298,46.8806513 31.4872438,47.4922614 32.3050288,47.8864795 C33.0932406,48.2664417 33.9747757,48.4437847 34.8870208,48.3406561 C36.6244504,48.1443157 37.8219743,47.2043274 39.0948115,45.9278391 C39.2525834,45.7666792 39.4104563,45.6004672 39.5690946,45.4315797 C39.6692778,45.278484 39.8083069,45.1800892 39.962667,45.1284632 C40.1340565,45.0711416 40.327938,45.0743848 40.5055187,45.1363808 C40.6767961,45.1961763 40.8299095,45.309486 40.9325762,45.4602937 C41.0301525,45.6036243 41.0854754,45.7806897 41.0675245,45.9843589 C40.9510195,47.3072301 40.2596776,48.4878363 39.2776553,49.4148615 C38.1869942,50.4444414 36.7412431,51.1567117 35.3801317,51.4065272 C33.8805866,51.6817086 32.3525901,51.4845569 30.968993,50.9198978 L30.968993,50.9198978 Z M36.0875289,30.5120405 C37.6828906,31.482148 40.1137318,33.7442494 38.3974899,36.149264 C36.3773089,38.2698449 33.4687045,35.8384541 32.0353946,34.7388307 C30.7063626,33.8866164 29.2131206,36.0784478 30.4461973,37.0735516 C40.8033244,44.7445605 45.006466,30.7657101 36.8944406,29.3714319 C36.0012775,29.2177885 35.6695544,30.2119271 36.0875289,30.5120405 Z M17.5274577,21.5886716 C17.7037243,19.3998697 21.0359789,18.9028321 21.3674577,21.0687499 C21.6642887,23.0089456 21.3148521,24.7912626 20.4412606,26.5380728 C19.6065423,28.2068947 17.5085456,27.4283107 17.3498837,25.9087021 C17.1372039,23.8717299 17.4178099,22.9502317 17.5274577,21.5886716 Z M42.8930282,20.6196517 C43.3576056,20.0109628 44.0283803,19.5954481 44.8320423,19.8302583 C47.3429577,20.5642779 46.6028873,24.1303914 45.7210563,25.8662114 C45.2419014,26.8088337 43.6930986,27.0478708 42.993169,26.2178982 C41.8523239,24.864411 41.3059859,22.1614521 42.756338,20.8282544 C42.7956338,20.7593542 42.8393662,20.68982 42.8930282,20.6196517 Z M20.4058944,12.0111429 L20.802522,11.9416942 C22.0295218,11.7294045 23.5551549,11.5254176 24.4231479,12.5122544 C24.8835,13.0355577 25.0419507,14.0081918 24.4231479,14.509092 C23.3346972,15.3904227 22.1313169,15.0488806 20.8269507,15.1234873 C19.7520211,15.1852016 18.7189225,15.3631585 17.6835,15.6592603 C15.4119507,16.3087397 13.5610352,17.4944149 11.6209648,18.7963327 C11.3663873,18.9671037 11.1065282,18.6414129 11.228007,18.4032211 C12.3479366,16.208771 14.5182887,14.4061644 16.6922324,13.3073542 C17.8525141,12.7208571 19.1222324,12.2343288 20.4058944,12.0111429 Z M40.6041287,11.0281289 L40.9077055,11.0902829 C44.2113469,11.7811043 48.5035506,13.1610768 50.0679842,16.4073021 C50.1275964,16.8663298 50.0646105,16.9647086 50.0133917,17.0289838 L49.9963385,17.0503723 C49.9541341,17.1052595 49.9204583,17.1809212 49.7215736,17.2433957 C49.6663832,17.2302408 49.6106433,17.216308 49.5543131,17.2015401 C48.8372041,17.0135386 48.2698321,16.7545401 47.720556,16.4857982 L47.1250012,16.192275 C46.4340388,15.8533498 45.7369757,15.5267598 44.9982488,15.2856588 C43.4217423,14.7712438 41.8001698,14.4088706 40.1534741,14.2153715 C39.7965654,14.1734678 39.4528848,14.0529641 39.1817455,13.8464404 C38.92438,13.6504079 38.7277692,13.3789964 38.6381257,13.0182314 C38.5219478,12.5513438 38.5553348,12.1978716 38.8057421,11.7766707 C38.9940329,11.4603578 39.263447,11.2411116 39.5728025,11.115213 C39.888177,10.9868648 40.2472278,10.9566068 40.6041287,11.0281289 Z" id="ðŸ–-Ink"></path>
                    </g>
                    <g id="facial-hair/*-None" transform="translate(104.577451, 109.479380)"></g>
                    <g id="accessories/Sunglasses-2" transform="translate(88.521127, 88.978474)" fill="#000000" fill-rule="evenodd">
                        <path d="M84.2819577,2.79643914 C84.1080845,2.76748415 83.934,2.74021996 83.7599155,2.71464658 C83.6240704,2.63750372 83.4645634,2.57811429 83.2790704,2.54239609 C82.8554789,2.43481879 82.4348451,2.36232564 82.0148451,2.32322583 C75.9869577,0.966145597 62.0418169,2.89302622 61.4663239,8.03898317 C59.5467465,8.68000861 57.8857606,8.10598121 55.6609014,8.16304579 C53.9673803,1.08175421 24.6892817,2.08122975 23.2811831,6.35050568 C23.2759014,6.34902622 23.2706197,6.34775812 23.2651268,6.34606732 C21.912169,5.92717104 19.9175915,6.02819648 18.369,5.96183249 C15.0624507,5.89250959 11.7520986,6.18734325 8.51695775,6.88501057 C2.45885915,7.84813386 -5.80909859,8.97568767 -1.59578873,16.543719 C-1.59494366,16.5449871 -1.59430986,16.5464665 -1.59325352,16.5477346 L-1.59261972,16.5471006 C-0.866492958,17.2916877 0.365830986,16.6920869 0.411676056,15.6841573 C-1.00487324,12.098811 2.19456338,11.6682904 4.65625352,10.6379577 C10.7815352,8.43653307 17.0177324,8.13134325 23.3528028,8.81231389 C23.8294225,9.37366027 24.5525915,9.86314755 25.3169577,10.1193041 C29.552662,10.8226779 27.3204085,13.9658795 29.9978028,14.4230301 C29.5059718,25.3798521 42.8033662,31.3606427 50.5080845,24.158036 C53.5843521,21.1492532 54.317662,16.6920869 55.0309014,12.6745292 C55.4080141,12.5897777 55.6478028,12.3834998 55.7878732,12.1104352 C56.6948451,11.2045879 57.2646338,10.3680634 59.0580845,10.1193041 C60.8515352,9.87075616 62.232169,10.3697542 62.4189296,10.5225605 C62.4660423,10.6174568 62.5165352,10.7125644 62.5752676,10.807672 C62.6572394,10.9494881 62.7687887,11.0625605 62.8955493,11.1515389 C61.124493,22.0622865 69.5914648,28.9624509 78.1391408,23.3035468 C81.8532254,19.808447 82.6380845,14.4574802 82.7931549,9.6813863 C83.2966056,9.37746458 83.6154085,8.78843131 83.4411127,8.04785988 C83.2009014,7.02703796 83.7641408,6.14317104 84.6611831,5.69933542 C85.8267465,5.12298317 85.6205493,3.0181456 84.2819577,2.79643914 M47.5535889,7.97263224 C46.492617,7.73918774 46.0395156,9.3756337 47.1038704,9.60971487 C47.8575643,9.77548242 48.496347,10.155707 48.9279201,10.7998619 L48.973363,10.8698907 C49.5524786,11.7917843 51.0168651,10.940773 50.4337323,10.0129372 C49.777655,8.9688036 48.758124,8.23748564 47.5535889,7.97263224 Z M78.6281409,6.95799755 C78.2541156,6.69441749 77.6881088,6.89008642 77.4709669,7.26253652 C77.2319792,7.67267317 77.3886202,8.12931765 77.7389173,8.39762278 L77.774585,8.4238168 C78.0958959,8.65036832 78.4088279,9.056466 78.4481263,9.47256193 L78.4515942,9.52461373 C78.4936694,10.6135262 80.1853466,10.619044 80.14306,9.52461373 C80.1018305,8.45395236 79.4821197,7.55943548 78.6281409,6.95799755 Z" id="ðŸ–-Ink"></path>
                    </g>
                </g>
            </g>
        </g>
    </g>
</svg>