<?xml version="1.0" encoding="UTF-8"?>
<svg width="240px" height="324px" viewBox="0 0 240 324" version="1.1" xmlns="http://www.w3.org/2000/svg" xmlns:xlink="http://www.w3.org/1999/xlink">
    <!-- Generator: Sketch 62 (91390) - https://sketch.com -->
    <title>peep-57</title>
    <desc>Created with Sketch.</desc>
    <g id="Introduction" stroke="none" stroke-width="1" fill="none" fill-rule="evenodd">
        <g id="variations" transform="translate(-2046.000000, -110.000000)">
            <g id="images" transform="translate(126.000000, 110.000000)">
                <g id="a-person/bust" transform="translate(1920.000000, 0.000000)">
                    <g id="body/Explaining" transform="translate(31.056338, 135.052838)" fill-rule="evenodd">
                        <path d="M158.388106,84.73543 C156.97557,80.3932194 158.65799,75.3779444 157.558342,70.6969691 C157.181497,68.8454922 156.465211,61.9666945 155.745945,57.9443789 C155.343607,55.6944094 157.7506,54.995832 158.12043,54.0977659 C160.723669,46.0304342 141.733458,27.051868 140.574232,26.3526146 C138.83719,25.3483655 137.300134,24.4838757 135.60281,23.4579026 C130.651543,21.7180501 124.714246,16.877724 120.22557,19.9866345 C112.448387,8.40496856 115.525126,-5.86427054 111.305007,-7.56020501 C107.084888,-9.25613947 94.6226831,-12.6838328 87.4978944,-8.30677787 C83.227331,-5.14583439 83.5421197,0.295694534 81.5935986,4.78330509 C80.449842,6.89575864 79.8879267,9.95593963 78.5564789,11.3336974 C74.0325726,16.0149525 68.3911646,16.8221125 62.0843682,17.6166412 C61.6039984,17.6771581 61.09864,16.3701867 60.6318781,16.5315765 C49.9932765,20.2100293 37.6142516,21.2833271 25.5660634,41.8802978 C23.8645141,44.8259375 19.2743028,49.5520814 20.809162,52.9560751 C10.6962042,76.4814013 0.745421392,129.43215 28.4943651,142.637306 C29.3813564,143.204837 35.3987002,140.161383 36.379162,140.18959 C38.0135447,140.236608 34.8819708,144.206451 36.379162,143.499167 C47.3711699,144.333496 107.854402,142.181004 131.038458,144.333496 C146.981408,144.214122 157.07929,147.010466 160.760641,144.214122 C159.288951,140.65634 159.35719,136.845399 159.822401,133.083927 C163.2105,130.561797 159.02212,112.786652 159.376627,107.581721 C162.548176,103.778308 160.022894,89.5136254 158.388106,84.73543 Z" id="ðŸŽ¨-Background" fill="#FFFFFF"></path>
                        <path d="M153.333592,58.699247 C151.812676,60.9120845 150.415352,63.1902294 149.152183,65.5598888 C148.500845,66.7821276 147.893239,68.0286716 147.346268,69.3005777 C147.232606,66.5504877 147.207676,63.7678497 146.886338,61.0448125 C146.86331,60.8482568 146.535634,60.7527264 146.501197,60.9923977 C146.146268,63.4616031 146.087746,65.9946364 145.953592,68.4902607 C145.799155,68.4429182 145.628451,68.415654 145.440423,68.415654 C143.61507,68.415654 141.817183,68.56529 139.99838,68.7128125 C139.18331,68.7787538 138.330634,68.8292665 137.499296,68.959247 C138.16838,68.2199436 138.79162,67.4390043 139.366901,66.6244603 C139.953592,65.7936423 140.624155,64.4953174 139.601831,63.6972587 C138.472606,62.8157166 136.258099,63.9686325 135.165634,64.4169065 C134.612746,64.6438967 134.070423,64.8909652 133.536549,65.1536736 C132.862394,63.264202 130.795986,63.0137519 129.024507,63.2745581 C127.761549,63.4607577 126.535563,63.8929691 125.304718,64.2220415 C123.741972,64.6396697 122.172676,65.0327812 120.597676,65.4017988 C117.761408,66.0658614 114.905704,66.6464407 112.036479,67.1494544 C111.960634,67.0613213 111.855423,66.9917871 111.71493,66.9567029 C110.732535,66.7111139 109.648521,66.8992157 108.640775,66.9178145 C107.604718,66.9370474 106.568451,66.9355679 105.532394,66.9142215 C103.681479,66.8763898 101.832465,66.8609613 99.9819718,66.828836 C99.4559155,66.5099084 98.7889437,66.0521237 98.6256338,65.4516775 C98.4217606,64.7024407 99.0585211,63.8724681 99.3540845,63.2346129 C100.489225,60.7854857 100.886197,58.0446951 100.440845,55.3774544 C100.361408,54.9019162 100.197887,54.3819945 99.9616901,53.8948321 C101.989225,54.1118888 103.990352,54.2592 106.028873,54.3257753 C110.099366,54.458292 114.169648,54.5971491 118.242042,54.6273722 C126.384507,54.6880297 134.527183,54.6884524 142.669648,54.6288517 C147.273592,54.595247 151.866972,54.5529769 156.465211,54.317744 C156.090423,54.7928595 155.725986,55.2783311 155.370211,55.7712 C155.29669,55.7492196 155.200563,55.7887421 155.211761,55.8800454 C155.215352,55.9119593 155.219155,55.9436618 155.222958,55.9753644 C154.573732,56.8824798 153.948803,57.8039671 153.333592,58.699247 M144.279718,142.915364 C142.387394,142.85513 140.495493,142.794683 138.60338,142.734449 C134.889296,142.616304 131.175211,142.497948 127.461338,142.379803 C120.103521,142.145415 112.745915,141.919482 105.387042,141.716374 C98.0459155,141.513901 90.7011972,141.299591 83.3579577,141.528695 C75.9980282,141.758433 68.6569014,142.352539 61.3107042,142.829556 C57.2266901,143.094378 53.1397183,143.323905 49.0480986,143.433807 C45.1512676,143.538214 41.22,143.380124 37.3292958,143.658261 C37.1985211,142.695983 37.2946479,141.736452 37.280493,140.777979 C38.5567606,140.040578 39.8093662,139.256679 41.0473944,138.486519 C45.5609155,135.678096 49.8272535,132.500867 53.8514789,129.027748 C54.4700704,128.493877 55.0766197,127.948593 55.6770423,127.397603 C55.2591549,128.311059 55.5935915,129.488703 56.7912676,129.875474 C58.2517606,130.346785 59.7471127,130.179396 61.2640141,130.143677 C62.8043662,130.107537 64.3447183,130.073086 65.8852817,130.040539 C68.8960563,129.976711 71.9070423,129.919435 74.9180282,129.868922 C80.8001408,129.770433 86.6824648,129.697517 92.565,129.649752 C104.400211,129.554222 116.227183,129.715482 128.060493,129.928946 C131.387958,129.98918 134.712042,130.063787 138.039507,129.988335 C139.704296,129.950715 141.375845,129.938668 143.038732,129.849055 C144.370986,129.776985 145.711268,129.58846 147.04331,129.418957 C147.211268,131.739795 147.386831,134.059998 147.582465,136.378723 C147.711972,137.909744 147.84507,139.440766 147.976479,140.971787 C148.030352,141.60309 148.034366,142.24792 148.12331,142.847944 C146.844507,142.918112 145.573521,142.956366 144.279718,142.915364 M145.580915,77.3804994 C145.534437,79.1568986 145.509718,80.9345659 145.497042,82.7124446 C145.343451,82.6243115 145.170423,82.5600611 144.975423,82.530472 C142.906056,82.2145033 140.691761,82.4541746 138.598099,82.4894701 C136.574366,82.5232861 134.543662,82.5118732 132.521831,82.6074035 C130.495986,82.7031452 128.470986,82.8174857 126.445563,82.9223155 C125.495282,82.9719828 124.555352,83.0144642 123.612465,83.1431765 C122.966408,83.2313096 122.140141,83.2249691 121.44993,83.4088438 C124.345352,80.6035914 127.225141,77.7818536 130.112746,74.9687812 C130.199155,74.8842411 130.26169,74.7950513 130.305423,74.7041706 C132.230915,73.5305425 134.079085,72.2096031 135.752746,70.6969691 C137.080141,71.2088595 138.591127,71.2735327 139.99838,71.3876618 C141.817606,71.5353957 143.614437,71.6848204 145.440423,71.6848204 C145.563803,71.6848204 145.679366,71.6727734 145.788169,71.651427 C145.698803,73.5601315 145.630986,75.468836 145.580915,77.3804994 M70.4019718,111.891043 C74.8223239,113.303286 79.6115493,113.287435 84.2102113,113.570222 C89.1126761,113.871818 94.0077465,114.12248 98.9159155,114.313752 C108.718521,114.694605 118.514789,115.212413 128.315915,115.624335 C133.914296,115.859568 139.511408,116.118895 145.107465,116.400836 C145.504437,116.420703 145.883028,116.318832 146.217042,116.132421 C146.404859,119.819004 146.625,123.504108 146.881268,127.186887 C146.913169,127.647419 146.948662,128.107529 146.981408,128.568272 C144.347535,128.237721 141.733732,127.921329 139.080211,127.697298 C136.100493,127.445368 133.122254,127.233173 130.13831,127.035137 C124.323592,126.649634 118.499577,126.133094 112.674296,125.944993 C100.799366,125.560969 88.8982394,125.691584 77.0188732,125.776124 C73.6576056,125.800006 70.2965493,125.832554 66.935493,125.873133 C65.2550704,125.893634 63.5746479,125.916038 61.8942254,125.940343 C60.2053521,125.965282 58.3903521,125.789439 56.7912676,126.379106 C56.7760563,126.384601 56.763169,126.392844 56.748169,126.39855 C61.5724648,121.825775 65.8943662,116.772178 70.4019718,111.891043 M85.9411268,97.2717323 C93.3285211,98.6171883 100.83169,98.5250395 108.319859,98.6581902 C115.981901,98.7947225 123.654296,98.7042646 131.317606,98.7201159 C135.670775,98.7292039 140.061338,98.9204759 144.398873,98.5330708 C144.911408,98.4872078 145.308592,98.2927656 145.591901,98.0169534 C145.670915,102.631998 145.815634,107.245353 146.015282,111.856593 C145.733873,111.736969 145.42669,111.664265 145.107465,111.645454 C135.315211,111.069102 125.522324,110.546222 115.718028,110.226871 C105.921549,109.907521 96.1130282,109.528781 86.3112676,109.647349 C81.5279577,109.705259 76.4697887,109.399223 71.7521831,110.442026 C73.545,108.53628 75.3762676,106.66583 77.291831,104.874848 C80.0845775,102.264038 83.0647183,99.8185033 85.9411268,97.2717323 M91.5851408,91.8391843 C91.5950704,91.8279828 91.5999296,91.8155131 91.6073239,91.8038888 C91.6339437,91.8235444 91.6664789,91.8370708 91.7091549,91.8362254 C98.6243662,91.6802489 106.382324,93.8626521 112.85007,90.5131726 C115.737465,89.0180806 118.128592,86.654973 120.449789,84.3835914 C120.451056,84.4002881 120.452535,84.4171961 120.453803,84.4341041 C120.469014,84.6184016 120.546972,84.8403194 120.733732,84.9219006 C121.49662,85.2566795 122.39007,85.2786599 123.209155,85.3978614 C124.151197,85.5352391 125.076338,85.6155523 126.02662,85.6726168 C128.121761,85.7983703 130.21669,85.9315209 132.312465,86.0500885 C134.403592,86.1684446 136.504225,86.1781667 138.598099,86.2303703 C140.697676,86.2825738 142.897183,86.5368282 144.975423,86.2371335 C145.166197,86.2096579 145.335845,86.1496344 145.486479,86.0665738 C145.489648,88.7560063 145.514155,91.4452274 145.539296,94.1329691 C145.543521,94.5710982 145.551972,95.009016 145.557042,95.4467225 C145.276479,95.1897205 144.890915,95.0098614 144.398873,94.9665346 C140.545141,94.6271061 136.66162,94.7780102 132.794366,94.7911139 C128.996831,94.8035836 125.198873,94.8162646 121.401127,94.8289456 C113.732746,94.854519 106.070493,94.929337 98.4033803,95.07538 C94.6749296,95.1463937 90.9627465,95.4602489 87.2888028,96.063654 C88.776338,94.7080532 90.2224648,93.3125072 91.5851408,91.8391843 M31.4997887,140.738245 C30.0840845,141.171302 28.6787324,140.983411 27.2602817,141.280147 C27.1730282,141.298323 27.0925352,141.332139 27.0188028,141.376734 C22.7710563,139.561235 19.9396479,135.917979 18.0019014,131.835537 C15.9593662,127.532233 14.5514789,122.931983 13.6083803,118.26875 C11.6638732,108.655059 11.660493,98.6869339 12.6669718,88.961016 C13.6559155,79.4058693 15.6139437,69.9025033 18.408169,60.7132039 C20.3266901,54.4035523 22.7716901,48.029016 26.1665493,42.2758497 C30.0866197,44.9033566 33.1267606,48.6865268 35.9907042,52.3843115 C39.4130282,56.8034348 42.4971127,61.4797714 45.2577465,66.3387147 C44.9723239,67.1710121 44.9279577,68.2150826 44.7910563,68.9590356 C44.5271831,70.3936814 44.2888732,71.846292 44.1014789,73.2931961 C43.7011268,76.3858849 43.3170423,79.4802646 42.9078169,82.5716853 C42.0984507,88.6847812 41.1321127,94.7811804 40.0645775,100.85412 C39.978169,101.346566 40.116338,101.762503 40.370493,102.074668 C38.253169,103.19102 36.1635211,104.35704 34.1275352,105.620914 C29.6514085,108.399537 25.4680986,111.636366 22.1837324,115.787709 C22.0983803,115.895497 22.2321127,116.039638 22.3377465,115.941995 C29.3809859,109.43156 38.1312676,105.344045 46.7224648,101.304507 C51.1128169,99.2400376 55.4816197,97.1423859 59.6938732,94.7287656 C64.0988028,92.2052431 68.2996479,89.3532822 72.3259859,86.2624955 C76.9235915,82.7333683 81.2514085,78.8749573 85.3083803,74.7354505 C85.7862676,74.2474427 85.670493,73.6366403 85.3109155,73.2507147 C85.4323944,73.2130943 85.5304225,73.1074192 85.5367606,72.931153 C85.6341549,70.2277714 86.4456338,67.9246873 88.0343662,65.736789 C89.508169,63.7067695 91.3865493,62.0339319 93.0809155,60.1972978 C93.8338732,59.381063 94.5534507,58.5308008 95.1959155,57.6236853 C95.8573944,56.6901511 96.2602817,55.659607 96.8359859,54.6842254 C97.5084507,53.5444133 98.0805634,54.1266834 98.3921831,55.1584955 C98.7456338,56.328108 98.723662,57.6974466 98.5816901,58.8998184 C98.4314789,60.1721472 98.0442254,61.412562 97.4864789,62.562519 C96.9625352,63.6427303 96.3585211,64.7415405 96.7111268,65.9796305 C97.2906338,68.0142998 99.7751408,69.1925777 101.657324,69.6507851 C103.753099,70.1609847 105.945423,70.0618614 108.067606,69.7972509 C110.725352,69.4656423 113.370423,68.980382 115.997535,68.4642646 C119.04,67.8667773 122.064507,67.1771413 125.065352,66.3978928 C126.475986,66.0316227 127.87669,65.5499554 129.301056,65.2466677 C129.808944,65.1386677 130.748873,64.9763507 131.345704,65.2411726 C123.673521,69.8164838 115.309225,72.8645777 106.813944,75.5206168 C105.758451,75.8503233 106.191338,77.4449613 107.271549,77.1807734 C116.398099,74.9484916 124.984437,70.8053918 133.156056,66.267701 C133.281127,66.1979554 133.387183,66.0903781 133.465141,65.9631452 C134.287183,65.6738067 135.122958,65.4225112 135.975211,65.2151765 C136.356127,65.1226051 138.315423,64.4758732 138.560282,64.7244211 C138.907394,65.0763194 137.706338,66.2190904 137.406338,66.5513331 C135.270845,68.9178223 132.730775,70.8493526 129.981338,72.4461041 C127.192394,74.0654701 124.22493,75.356609 121.243521,76.5750434 C117.903803,77.9399436 114.373732,79.0127577 111.127394,80.581611 C109.837817,81.204883 110.742676,83.3219789 112.101338,82.8927264 C113.852324,82.3392 115.553662,81.5257127 117.255211,80.8345973 C118.700704,80.2478888 120.146408,79.6613918 121.583662,79.0546051 C122.585704,78.6314818 123.580986,78.194198 124.566549,77.7372587 C123.090211,79.1270982 121.613662,80.5169378 120.137535,81.9074114 C117.581197,84.3151139 115.152254,87.0578067 112.027183,88.7464955 C108.939718,90.4148947 105.417465,90.6089143 101.980775,90.5729847 C100.255352,90.5548086 98.5375352,90.5000689 96.8121127,90.5696031 C94.9962676,90.6427303 93.383662,90.9219241 91.6628873,91.4936266 C91.6311972,91.5041941 91.608169,91.5232157 91.5887324,91.5447734 C91.5285211,91.4714348 91.4264789,91.4346599 91.3210563,91.4970082 C86.6450704,94.2627382 82.3827465,97.8506207 78.2835211,101.396656 C74.0585915,105.051537 70.083169,108.938057 66.2953521,113.043537 C62.6697887,116.97275 59.073169,120.91718 55.1279577,124.532539 C51.2759155,128.062511 47.1593662,131.26785 42.8609155,134.234362 C40.5188028,135.850769 38.1188028,137.407364 35.6355634,138.798895 C34.3085915,139.542425 32.9609155,140.29145 31.4997887,140.738245 M31.8929577,34.3449299 C33.5674648,32.4632783 35.3697887,30.7192157 37.2769014,29.1057675 C38.1183803,29.3549495 39.0016901,29.4246951 39.8917606,29.4337832 C41.25,29.4473096 42.6111972,29.5039515 43.9694366,29.4900023 C46.5847183,29.4631609 49.1989437,29.3805229 51.8148592,29.3663624 C57.1635211,29.3371961 62.5138732,29.3357166 67.8625352,29.3822137 C68.5633099,29.3883429 69.0688732,29.0886481 69.3809155,28.6532665 C70.463662,29.8812117 71.5795775,31.080836 72.7047887,32.2614387 C74.5328873,34.179654 76.481831,36.0097362 78.5564789,37.6775014 C78.1525352,37.6802489 77.7488028,37.6838419 77.3471831,37.6810943 C75.4971127,37.6686247 73.646831,37.6570004 71.7969718,37.6470669 C68.0843662,37.6265659 64.3717606,37.6113487 60.6591549,37.6014153 C53.2783099,37.581971 45.8744366,37.643474 38.5030986,38.0215796 C36.4571831,38.1264094 34.3952113,38.1688908 32.3564789,38.3684055 C31.2507042,38.4766168 30.1461972,38.602793 29.0414789,38.7205151 C28.8154225,38.744609 28.598662,38.7748321 28.3859155,38.8088595 C29.4678169,37.253744 30.633169,35.7603429 31.8929577,34.3449299 M61.4541549,17.5728047 C61.4042958,17.6066207 61.3504225,17.6368438 61.3026761,17.6729847 C61.1940845,17.7545659 61.2111972,17.9020885 61.3392254,17.9515444 C61.509507,18.0181198 61.6884507,18.0684211 61.8726761,18.108155 C62.4321127,18.9199515 62.8692254,19.9234427 63.174507,20.4319515 C64.0514789,21.8932274 65.0598592,23.2851804 66.0857746,24.6441628 C66.2919718,24.917016 66.5021831,25.1869104 66.7132394,25.4561706 C61.7452817,25.444335 56.7798592,25.4696971 51.8148592,25.6575875 C49.2008451,25.7567108 46.5779577,25.8397714 43.9694366,26.0359045 C42.896831,26.1166403 41.8248592,26.2521159 40.7556338,26.3861119 C46.3204225,22.3620023 52.5785915,19.2891804 59.0617606,17.0078654 C59.0528873,17.0177988 59.0438028,17.0251961 59.0349296,17.0351295 C58.8921127,17.1936423 59.1052817,17.3990748 59.2660563,17.2663468 C60.1094366,16.5686795 60.8414789,16.8960611 61.4541549,17.5728047 M86.5561268,64.8723663 C86.415,65.0864642 86.2761972,65.3073252 86.1407746,65.5338928 C85.815,65.208836 85.3599296,64.9915679 84.773662,64.9733918 C78.2655634,64.7702841 71.7606338,64.5927499 65.2489437,64.5883115 C62.0376761,64.586198 58.7972535,64.4779867 55.59,64.6369221 C53.979507,64.7168125 52.3696479,64.8119202 50.76,64.9032235 C49.6345775,64.9670513 48.4390141,65.046519 47.34,65.3724211 C44.8071127,60.9404055 41.9953521,56.6793722 38.9247887,52.6051726 C45.8915493,53.4600845 52.9776761,53.3689926 59.9839437,53.6063389 C67.9219014,53.8753879 75.8642958,53.9332978 83.805,54.1213996 C85.983169,54.1729691 88.161338,54.229611 90.3390845,54.2904798 C91.4630282,54.321971 92.5871831,54.354519 93.711338,54.3885464 C94.0626761,54.3991139 94.4262676,54.408836 94.7902817,54.3993252 C94.7628169,54.4561785 94.7349296,54.5130317 94.7076761,54.5692509 C94.0947887,55.8356618 93.3240845,57.0012587 92.4259859,58.0829495 C90.5165493,60.3828634 88.2101408,62.3640611 86.5561268,64.8723663 M78.018169,78.5245386 C77.7771127,77.8541354 77.1897887,77.3384407 76.2540845,77.3811335 C70.9216901,77.6233409 65.5793662,77.7913644 60.2530986,78.1424172 C57.6585211,78.313611 55.0533803,78.4287969 52.4630282,78.6557871 C51.1269718,78.7730865 49.7932394,78.9909886 48.4628873,79.1642959 C47.5508451,79.2832861 46.5959155,79.4212978 45.7210563,79.7455092 C45.8907042,77.8718888 46.0402817,75.996789 46.1702113,74.1189417 C46.2743662,72.6103233 46.3060563,71.0879671 46.2980282,69.5755444 C46.2940141,68.8100337 46.2680282,68.0400845 46.2310563,67.2747851 C46.3096479,67.2906364 46.3884507,67.2984564 46.4657746,67.2889456 C46.6022535,67.2720376 46.7296479,67.255975 46.8479577,67.2242724 C48.0739437,67.7042489 49.4615493,67.8101354 50.76,67.9029182 C52.3001408,68.012609 53.8398592,68.1294857 55.38,68.2393879 C58.6569718,68.4733526 61.9647887,68.4581354 65.2489437,68.56529 C71.7139437,68.7760063 78.1802113,68.8985894 84.6464789,69.0716853 C84.3464789,70.3594427 84.3359155,71.6818614 84.8161268,72.9286168 C84.4816901,72.8176579 84.0965493,72.8692274 83.7678169,73.1940728 C81.9052817,75.0347225 79.9871831,76.810065 78.018169,78.5245386 M59.208169,92.2168673 C59.0765493,91.8527108 58.8280986,91.5181432 58.5340141,91.2913644 C57.4033099,90.4197558 55.3392254,90.9215014 53.9820423,90.9878654 C52.3753521,91.066699 50.7684507,91.1453213 49.1617606,91.2239436 C48.6741549,91.2476149 46.1854225,91.3746364 44.3575352,91.7643663 C44.7352817,88.910926 45.0779577,86.052836 45.3842958,83.1894622 C45.4485211,82.588382 45.5080986,81.9870904 45.5670423,81.3857988 C46.428169,81.6628791 47.3640845,81.7645386 48.2522535,81.8068086 C49.5832394,81.8702137 50.9203521,81.9775796 52.2526056,81.9985033 C54.9143662,82.0403507 57.5909155,81.9088908 60.2530986,81.8645072 C65.0471831,81.7848282 69.8419014,81.5559358 74.6338732,81.3667773 C69.8226761,85.2735875 64.7389437,88.8382215 59.4361268,92.0807577 C59.360493,92.1270434 59.2838028,92.1710043 59.208169,92.2168673 M44.0661972,93.9102059 C44.4711972,93.9641002 44.8728169,93.9816423 45.18,94.0129221 C46.7222535,94.1684759 48.2404225,94.3096579 49.790493,94.3322724 C51.3274648,94.3546755 52.8642254,94.3770787 54.4011972,94.3996932 C54.7280282,94.4041315 55.0548592,94.4092039 55.3816901,94.4138536 C51.3346479,96.6254231 47.1633803,98.606198 43.0510563,100.691803 C43.4133803,98.4345816 43.7516197,96.1739789 44.0661972,93.9102059 M88.1647183,43.5530395 C97.3878169,47.4737988 109.217746,47.8295014 117.143873,41.3165307 C117.931479,41.532108 118.802535,41.6037558 119.498028,41.6735014 C121.060563,41.8305346 122.608732,41.9748869 124.178873,42.0241315 C127.239085,42.1196618 130.302042,42.262746 133.363521,42.3005777 C139.556831,42.3770865 145.750563,42.4128047 151.944085,42.4679671 C152.471197,42.4728282 152.892887,42.312202 153.212746,42.0541432 C153.84,43.1178693 154.423521,44.2084368 154.956127,45.3266912 C155.732958,46.9576814 156.391268,48.6432 156.931901,50.3665503 C156.816127,50.346472 156.695704,50.3325229 156.566831,50.330198 C148.427324,50.1894387 140.28169,50.4236149 132.140704,50.4576423 C123.997817,50.4916697 115.855986,50.4567969 107.71331,50.5147068 C105.45993,50.5309808 103.223239,50.5314035 100.975563,50.6985816 C99.8057746,50.7856579 98.6220423,50.823701 97.4634507,51.0126481 C97.3339437,51.0335718 97.2021127,51.0521706 97.0692254,51.0707695 C95.5166197,50.16302 93.5892254,50.3526012 91.8145775,50.3192078 C89.7769014,50.2807421 87.7394366,50.2465033 85.7019718,50.2162802 C81.6971831,50.1568908 77.6919718,50.113564 73.6867606,50.0860885 C65.7378169,50.0315601 57.8083099,50.2346677 49.8644366,50.5117479 C45.9120423,50.649337 41.9746479,50.8833018 38.073169,51.4917793 C37.8111972,51.152562 37.5517606,50.811654 37.2864085,50.4751843 C34.5219718,46.9701511 31.2447887,42.482973 26.6957746,41.3968438 C26.8702817,41.1123663 27.0473239,40.8295796 27.2271127,40.5486951 C30.3788028,41.3801472 33.8556338,41.3380885 37.0757746,41.5122411 C40.7875352,41.7128125 44.4914789,41.8514583 48.2076761,41.9427616 C55.5946479,42.1243115 62.9801408,42.2382294 70.3685915,42.3504564 C72.4191549,42.3817362 74.4697183,42.4144955 76.5202817,42.4487342 C77.6262676,42.4671217 78.7324648,42.4884681 79.838662,42.5053761 C80.4566197,42.5148869 81.0090845,42.5131961 81.5978873,42.307975 C82.143169,42.117971 82.6747183,41.8328595 83.2020423,41.5967812 C83.3860563,41.5143546 83.5356338,41.3924055 83.6577465,41.2484759 C85.1057746,42.1139554 86.6061972,42.8904564 88.1647183,43.5530395 M124.204648,30.5152626 C125.364718,30.8373605 126.561972,30.8908321 127.78838,30.9834035 C129.398239,31.1053526 131.004296,31.1258536 132.61838,31.1362098 C135.191831,31.1526951 137.765915,31.1349417 140.338521,31.063928 C141.443662,31.0334935 142.089296,30.2935562 142.280915,29.4460415 C142.307535,29.4675992 142.335,29.4887342 142.36162,29.5107147 C145.492817,32.0915131 148.32993,35.0432313 150.734155,38.3104955 C144.944155,38.3286716 139.153521,38.3324759 133.363521,38.3713644 C130.302465,38.3920767 127.239085,38.5178301 124.178873,38.5966638 C122.677606,38.6351295 121.19831,38.7596149 119.70338,38.9016423 C119.673803,38.9046012 119.642535,38.9071374 119.612324,38.9098849 C119.770775,38.7270669 119.927958,38.5417127 120.081549,38.3510748 C121.868451,36.1359123 123.338239,33.4065346 124.204648,30.5152626 M161.849789,146.798292 C162.360634,145.392178 162.162254,143.884194 162.13331,142.405587 C162.103732,140.888515 162.087465,139.372288 162.082394,137.855004 C162.072465,134.889126 162.052394,131.923458 162.019648,128.95758 C161.95331,122.957768 161.884014,116.953306 161.648028,110.957298 C161.181549,99.1035053 160.283028,87.2786677 158.816408,75.5045542 C158.103592,69.7803429 157.218803,64.0692352 156.018169,58.425971 C156.03507,58.4033566 156.051549,58.380108 156.068451,58.3572822 C157.264014,56.7590513 158.623732,55.2817127 159.79838,53.6727029 C159.902535,53.5298301 159.946056,53.3468008 159.945,53.1618693 C159.987887,53.1409456 160.030986,53.1189652 160.074718,53.0940258 C161.049085,52.53902 160.169155,51.0259632 159.195,51.5883663 C159.307394,51.5236932 157.689507,47.3698145 157.518169,46.9515523 C156.902324,45.4492744 156.209789,43.9803898 155.428944,42.5567342 C154.957817,41.698018 154.453521,40.8572665 153.925352,40.0319436 C153.833028,39.4156462 153.500282,38.8443663 152.928592,38.5387538 C151.925493,37.1011491 150.841901,35.7193409 149.686901,34.4028399 C144.958521,29.0134074 139.052535,24.6627616 132.600211,21.5637323 C131.667887,21.1160924 130.707887,20.7428477 129.751268,20.3520611 C128.732958,19.9354896 127.788592,19.3910513 126.78507,18.9537675 C125.152183,18.2425738 123.54,18.2833644 121.936056,19.0364055 C121.798944,19.1008673 121.897183,19.3117949 122.03662,19.2754427 C123.069296,19.0061824 124.127113,18.9609534 125.162324,19.2534622 C126.17662,19.5400532 126.947746,20.1732587 127.833803,20.7016344 C129.411972,21.6432 131.176268,22.2569613 132.793944,23.1357558 C134.933028,24.2986051 137.023521,25.5753722 139.023169,26.9770474 C136.951268,27.0867382 134.877887,27.1659945 132.803873,27.2209456 C131.263521,27.2619476 129.723803,27.2689221 128.185563,27.3585346 C127.090775,27.4221511 125.952254,27.4041863 124.858099,27.5810865 C125.121972,25.7666442 125.122394,23.935928 124.792606,22.1684055 C124.792606,22.1677714 124.792394,22.1671374 124.792394,22.1665033 C124.712746,21.7406325 124.616197,21.3179319 124.497465,20.9000924 C124.244577,20.0109417 123.434366,19.8775796 122.846197,20.2140493 C122.787887,20.1711452 122.729155,20.1288751 122.672746,20.0830121 C121.968169,19.5106755 121.333944,18.8259006 120.782324,18.1062528 C119.63662,16.6109495 118.710634,14.8799906 118.009437,13.1352939 C117.299155,11.3684055 116.795915,9.51972446 116.303028,7.68287906 C116.055845,6.76202583 115.78838,5.84603366 115.536549,4.92581448 C115.317676,4.12585362 115.15838,3.24219804 114.756338,2.51325088 C114.680915,2.37671859 114.454014,2.40250333 114.417887,2.55763444 C114.20493,3.47066771 114.317535,4.51199061 114.35662,5.44298865 C114.399718,6.47628023 114.459085,7.50006106 114.59662,8.52553268 C114.88162,10.6534074 115.341338,12.7451413 116.078028,14.7656501 C116.784296,16.7033096 117.716408,18.5114114 118.982324,20.143881 C119.82338,21.2283194 121.017887,22.6638106 122.401479,23.2486168 C122.582324,25.2843429 122.56162,27.3221824 122.080986,29.3376188 C121.452254,31.9756932 120.248239,34.4833644 118.594014,36.6317401 C115.125423,41.1364603 109.759225,43.6817519 104.160845,44.2063233 C98.3687324,44.7488595 92.4414085,43.4530708 87.236831,40.904609 C81.4478873,38.0699789 76.6455634,33.6967186 72.3321127,28.9764211 C69.845493,26.2554975 67.2671831,23.5783233 64.9626761,20.6995209 C64.5542958,20.1893213 63.9006338,19.1534935 63.1252817,18.220382 C63.9143662,18.2131961 64.7241549,18.0950513 65.4226056,18.0054387 C66.8676761,17.8198732 68.28,17.5326481 69.6921127,17.1733526 C72.3323239,16.5016814 75.1164085,15.5670904 77.4234507,14.0886951 C82.3052113,10.9600767 84.2108451,6.99155225 84.8617606,1.52413151 C85.0675352,-0.204291194 82.08,-0.624032877 81.8017606,1.10967358 C81.3743662,3.77480078 80.7276761,5.07164618 79.8773239,7.63173229 C79.059507,10.0924838 77.8749296,11.00911 75.6107746,12.3655562 C73.4852113,13.639153 71.0695775,14.3788791 68.7278873,15.1433331 C67.4302817,15.5668791 66.1172535,15.9532274 64.808662,16.3425346 C63.9756338,16.5904485 62.9866901,16.8066599 62.1416197,17.1894153 C61.7007042,16.8024329 61.2407746,16.5105581 60.7776761,16.4000219 C60.8116901,16.342746 60.7675352,16.2537675 60.6821831,16.2706755 C60.5461268,16.2979397 60.410493,16.3279515 60.2744366,16.3560611 C60.1377465,16.3657832 60.0016901,16.392836 59.8658451,16.4418693 C51.7096479,18.2087577 43.8771127,21.971427 37.2352817,27.0970943 C36.9004225,27.2367969 36.5765493,27.408202 36.2683099,27.624836 C36.1096479,27.7362176 36.0044366,27.9131178 35.9742254,28.0963585 C34.9757746,28.9117479 34.0069014,29.7579945 33.0707746,30.6338301 C25.5314789,37.6880689 20.754507,47.0720219 17.4103521,56.7239671 C14.1160563,66.2328282 11.8861268,76.2041237 10.6599296,86.1876775 C9.40985915,96.3641941 9.26577465,106.752061 11.0788732,116.87109 C12.0523944,122.304484 13.6284507,127.644038 15.9547183,132.655576 C18.0437324,137.156492 21.4440845,142.28385 26.7849296,142.831881 C26.8020423,142.849 26.8180986,142.866965 26.8373239,142.883028 C28.9328873,144.609337 32.0528873,143.41711 34.2437324,142.385721 C34.5910563,142.222135 34.9356338,142.050096 35.2787324,141.87383 C35.0974648,142.57192 35.0157042,143.302769 34.9778873,143.987756 C34.8990845,145.410355 36.9042254,145.49109 37.2838732,144.310488 C40.5342254,144.88219 43.8906338,144.890222 47.178169,144.872045 C50.8514789,144.851756 54.5235211,144.724523 58.1926056,144.551638 C65.4724648,144.208194 72.743662,143.6832 80.0283803,143.444586 C94.778662,142.961439 109.569296,143.993885 124.307746,144.513807 C128.442254,144.65985 132.576761,144.80547 136.711268,144.951513 C140.935563,145.100515 145.155634,145.129047 149.345915,145.700539 C150.88669,145.910621 151.476972,144.4001 151.042394,143.458957 C151.150775,142.826809 151.042817,142.133791 150.983451,141.389204 C150.872746,139.997885 150.768169,138.606143 150.670141,137.213768 C150.478732,134.499184 150.293873,131.783544 150.118521,129.067693 C149.763169,123.564343 149.457465,118.056977 149.16,112.550245 C148.568662,101.601243 148.115915,90.6439984 147.782958,79.6842176 C147.70162,77.0127499 147.595563,74.3404368 147.46162,71.6708712 C147.621127,71.4178849 147.780211,71.1644759 147.934014,70.908108 C148.446127,70.0536188 148.94831,69.1936344 149.466972,68.3429495 C150.507465,66.6377753 151.554296,64.9438027 152.648239,63.2722333 C153.593028,61.8287108 154.567606,60.40738 155.585915,59.015427 C156.850141,69.6955914 157.973873,80.3865346 158.489789,91.1351765 C159.057887,102.973752 159.359366,114.830503 159.52331,126.681126 C159.569155,129.991928 159.6,133.302942 159.635282,136.613744 C159.653662,138.33794 159.672042,140.060867 159.657887,141.785063 C159.644155,143.433807 159.39507,145.237681 159.979859,146.798292 C160.320845,147.708366 161.513239,147.724429 161.849789,146.798292 Z" id="ðŸ–-Ink" fill="#000000"></path>
                    </g>
                    <g id="head/Long-Curly" transform="translate(78.591549, 38.043053)" fill-rule="evenodd">
                        <path d="M72.5508169,31.0088712 C58.6557465,19.7109299 36.3887746,16.0425229 21.5149014,27.4408556 C9.95771831,38.137928 5.17504225,68.5355953 7.22032394,83.8103037 C7.78905634,93.6074466 15.2710986,104.712002 26.2542676,101.613396 C28.119338,101.429732 29.9303239,100.714523 31.812507,100.564676 C34.0639859,100.305349 36.3325775,100.30091 38.5796197,100.61857 C43.4759577,101.311376 47.8164507,103.912041 52.5687042,105.12794 C61.3868028,107.383893 71.2257465,105.866398 78.816169,100.784691 C103.899338,84.28711 92.5373662,46.9763859 72.5508169,31.0088712 L72.5508169,31.0088712 Z" id="ðŸŽ¨-Background" fill="#FFFFFF"></path>
                        <path d="M70.7003451,105.39944 C70.9583028,105.310462 71.215838,105.217679 71.4714718,105.122571 C71.4883732,105.18175 71.515838,105.238603 71.5477394,105.293765 C71.5836549,105.382532 71.6195704,105.468975 71.6595,105.555628 C71.3385845,105.557953 71.0172465,105.500677 70.7003451,105.39944 M70.1850634,-4.0844501 C70.0709789,-4.3399726 69.9397817,-4.58513894 69.7918944,-4.82206262 C70.1510493,-4.70560861 70.5104155,-4.54498239 70.8357676,-4.3378591 C70.6160493,-4.2638865 70.4003451,-4.17934638 70.1850634,-4.0844501 M15.2998521,29.3429237 C15.2850634,29.3403875 15.2704859,29.338274 15.2559085,29.3357378 C15.4443592,28.8337808 15.7800634,28.3599335 16.150838,28.0177573 C16.2173873,27.9562544 16.2894296,27.8994012 16.3591479,27.8406458 C15.9655563,28.3096321 15.6085141,28.8098982 15.2998521,29.3429237 M115.725697,81.8315577 C115.539782,80.0688963 115.303162,78.3127867 114.996824,76.5668219 C114.703162,74.8952524 114.455979,73.107229 113.60457,71.6235499 C112.7595,70.1462114 111.912317,68.7109315 110.906894,67.4113386 C111.050345,66.7476986 111.240697,66.1242153 111.405275,65.6212016 C112.355979,62.7257025 113.292106,59.0482074 111.316542,56.3577182 C110.858092,55.7342348 110.298444,55.2565832 109.658092,54.8254286 C109.385556,54.6415538 108.933655,54.4745871 108.724289,54.2209667 C108.576401,54.041319 108.627317,54.1385401 108.620768,54.049773 C108.584852,53.5721213 109.70457,52.5639804 109.966542,52.1856634 C110.456894,51.4858826 110.822176,50.6977573 111.101049,49.8925127 C112.203866,46.7053503 111.453866,43.1948219 110.790697,40.0011076 C110.439993,38.3084031 110.053373,36.6112603 109.926401,34.8824149 C109.808092,33.2592446 110.029923,31.6741174 110.160908,30.0594012 C110.28788,28.4656086 110.254077,26.8215147 109.571472,25.3460783 C109.237669,24.6274873 108.732951,23.9934364 108.117951,23.4988767 C107.518162,23.0150959 106.770063,22.734 106.185063,22.2521213 C105.601754,21.7721448 105.768655,21.1235108 105.920979,20.4598708 C106.129923,19.5595186 106.394007,18.6655068 106.419359,17.7355656 C106.465838,16.1145088 105.80457,14.5355108 104.771683,13.3098904 C103.706683,12.0439022 102.185556,11.1877221 100.541894,10.9953933 C99.7897817,10.9066262 99.0503451,11.0568963 98.3024577,11.0040587 C97.5630211,10.9533346 97.402669,10.5834716 97.2630211,9.90715068 C96.9421056,8.35795303 97.0728803,6.82777691 96.3104155,5.3821409 C95.6343592,4.09713112 94.4320352,3.22615656 93.103162,2.71278669 C90.6674577,1.77016438 87.8343592,1.96460665 85.2651338,2.52024658 C83.7484437,-1.94326027 79.0139366,-4.87046184 74.3554859,-4.90639139 C73.6285141,-6.1406771 72.3968239,-7.06216438 70.9921056,-7.60343249 C68.668162,-8.50167123 66.2066831,-7.97731115 63.7857676,-7.97731115 L63.7752042,-7.97731115 C63.5320352,-7.99231703 63.2890775,-7.99844618 63.046331,-7.99633268 C62.8179507,-8.00922505 62.5897817,-8.02824658 62.3616127,-8.05339726 C59.6066831,-8.37908806 56.881331,-9.50769863 54.1517535,-8.40212524 C52.9348521,-7.90967906 51.9672465,-7.15093151 51.3547817,-6.18294716 C50.4315423,-5.93165166 49.5207676,-5.64400391 48.6273169,-5.31007045 C44.7545704,-5.20883366 40.9179507,-3.13126027 38.9597113,0.235761252 C36.202669,-0.077037182 33.2111197,0.453452055 31.387669,2.70644618 C30.9127394,3.2927319 30.5449225,3.9815225 30.3011197,4.71279452 C28.4419648,5.31429746 26.7216127,6.38605479 25.5957676,8.00034834 C24.5683732,9.47345988 24.3710493,11.3781487 25.0659085,12.9594716 C23.4061901,14.1622661 22.1092183,15.884137 21.4845,17.9173268 C21.1048521,19.1526693 21.0484437,20.4290137 21.292669,21.6449119 C19.5934437,22.0219609 17.968162,22.7208963 16.528162,23.7698278 C15.0190775,24.868638 13.1343592,26.6175616 13.0350634,28.6304618 C13.027669,28.7781957 13.0333732,28.9259295 13.0452042,29.0732407 C9.72302113,28.8396986 6.33555634,29.4027358 4.08999296,32.067229 C2.4038662,34.0663914 1.67097887,36.6408493 2.12097887,38.9847241 C-1.83183803,39.7878552 -5.56937324,41.8548611 -8.17641549,44.9109863 C-10.0712746,47.1322779 -11.7550775,49.9559178 -11.6538803,52.9801292 C-11.6221901,53.8912603 -11.4085986,54.8085205 -11.0388803,55.6560352 L-11.0388803,55.6579374 C-11.197331,55.9561526 -11.3602183,56.2879726 -11.5165563,56.6409276 C-13.9651479,58.3547671 -15.7440211,61.0412407 -16.7454296,64.0022583 C-17.5543732,66.4008728 -18.0635282,69.5163875 -17.1996549,71.9574834 C-17.0684577,72.3294599 -16.9015563,72.6803014 -16.7071901,73.0055695 C-16.8700775,73.1790881 -17.0240915,73.3523953 -17.1740915,73.527816 C-18.8243028,75.4572329 -20.4954296,77.8877613 -20.3811338,80.5444344 C-20.3346549,81.6140783 -19.9376831,82.6898513 -19.2888803,83.5730841 C-21.5707817,85.8875812 -23.4085986,88.8084423 -23.2271197,92.0695773 C-23.0707817,94.9080117 -21.5135282,97.7908297 -19.0735986,99.1540391 C-19.4811338,101.341515 -18.9360634,103.64946 -17.2334577,105.35717 C-16.3839507,106.211025 -15.3827535,106.773217 -14.3219789,107.073335 C-14.0853592,109.649695 -11.7996549,111.723041 -9.37219014,112.318838 C-8.9198662,112.431065 -8.46775352,112.498697 -8.01796479,112.530188 C-5.83345775,113.601945 -3.22852817,113.479151 -0.99965493,112.496372 C-0.342612676,113.331417 0.513021127,114.011965 1.51020423,114.500184 C1.91372535,114.698853 2.34069718,114.863706 2.78626056,114.996646 C5.93414789,115.928701 9.16252817,114.665037 11.9151338,113.189812 C12.0038662,113.143315 12.1665423,113.084137 12.3102042,113.018618 C12.6904859,113.443432 13.3834437,113.86402 13.7447113,114.071143 C14.9702746,114.774939 16.468162,115.102321 17.8752042,115.009538 C19.5252042,114.899636 20.9806268,114.354352 22.3285141,113.578697 C22.5252042,113.612513 22.7235845,113.631534 22.9223873,113.642102 C24.189993,113.709523 25.3200634,113.308168 26.3364718,112.674117 C27.0080915,112.762885 27.6968239,112.754431 28.394007,112.631847 C29.9301338,113.022634 31.4259085,112.401476 32.6278099,111.41447 C33.1604155,110.976975 33.6102042,110.463393 34.0921056,109.973061 C34.5925986,109.463495 34.9730915,109.34535 35.5580915,109.002963 C36.9421056,108.193491 37.1087958,106.14128 36.5087958,104.657389 C36.6228803,104.39764 36.6885845,104.10809 36.6885845,103.786838 C36.6841479,100.984333 35.3935141,98.4143131 33.809007,96.1718865 C33.1010493,95.1721996 32.3322465,94.1934364 31.4890775,93.3059765 C30.8109085,92.5935147 29.8583028,91.4376399 28.8547817,91.1478787 C28.7935141,91.1037065 28.7299225,91.0591115 28.6665423,91.0170528 C28.8611197,90.3362935 28.974993,89.6432759 28.9266127,88.9352524 C28.8756972,88.2079961 28.6411901,87.5189941 28.2653451,86.9316517 C29.5264014,84.4863288 30.059007,81.8042935 29.8054859,79.0060157 C30.8320352,77.5496008 31.6097113,75.9414364 32.0109085,74.178775 C32.2580915,73.0882074 32.3998521,71.9405753 32.3806268,70.8223209 C32.3721761,70.2857025 32.1756972,69.6070568 32.1716831,69.0514168 C32.2012606,69.2268376 32.4294296,68.5716517 32.518162,68.4087006 C33.5362606,66.5173268 34.844007,65.0421018 35.0618239,62.8123562 C35.1883732,61.5081135 34.8799225,60.0669159 34.0982324,58.9974834 C34.5989366,57.0234716 34.5925986,54.9034168 33.8045704,53.0204971 C33.5933028,52.5174834 33.3505563,52.0250372 33.0716831,51.557953 C33.2003451,51.1648415 33.3188662,50.7675029 33.4707676,50.4101096 C33.5301338,50.2685049 33.5890775,50.124998 33.6482324,49.9812798 C34.2207676,49.4759413 34.7533732,48.9245284 35.2012606,48.3832603 C36.194007,47.1851155 36.952669,45.8113386 37.0477394,44.2281135 C37.0942183,43.4355499 36.9083028,42.6768023 36.6780211,41.9246067 C36.5764014,41.5843327 36.5151338,41.2060157 36.3947113,40.8741957 C36.3273169,40.6901096 36.1644296,40.5022192 36.1075986,40.3289119 C36.0947113,40.2908689 36.0841479,40.2591663 36.0756972,40.2338043 C36.0841479,40.2084423 36.0906972,40.1556047 36.0906972,40.0560587 C36.0925986,39.2973112 36.1918944,38.5554716 36.196331,37.824411 C36.8914014,38.5260939 37.7280211,39.0500313 38.6787254,39.3567006 C40.5947113,39.9717299 42.5935141,39.6927476 44.2897817,38.7437847 C46.1153451,39.9949785 48.1665423,41.1276047 50.3174577,41.5822192 C51.5954155,41.8525362 52.8759085,41.7407319 54.1580915,41.9076986 C55.4320352,42.0746654 56.6639366,42.6305166 57.8637254,43.0637847 C60.5343592,44.0296556 63.1982324,45.0206771 65.8771056,45.9613973 C68.0404859,46.7201448 70.381331,47.3224932 72.646331,46.8955656 C73.2822465,47.8760196 74.1083028,48.7047241 75.1667535,49.3134129 C75.924993,49.746681 76.7573873,50.0402466 77.6172465,50.1862896 C78.3778099,50.3152133 79.2695704,50.2644892 79.8862606,50.7865245 C80.4883732,51.2937652 80.8644296,52.0501879 81.4052746,52.621045 C82.0075986,53.2593229 82.7510493,53.8130607 83.5306268,54.2103992 C84.1559789,54.5295382 84.7942183,54.7596986 85.4425986,54.9099687 C85.3857676,56.3534912 85.3306268,57.7949002 85.3137254,59.2405362 C85.2822465,62.3812016 85.2947113,65.5216556 85.252669,68.6625323 C85.2104155,71.7924188 85.1111197,74.922728 84.946331,78.0485988 C84.7897817,80.9821409 84.5700634,83.9260391 83.8707676,86.7879335 C81.5510493,96.2839022 72.8616127,103.083041 63.1348521,103.429656 C60.2470352,103.533217 57.3883732,103.127425 54.6271056,102.277585 C51.7667535,101.396466 49.2123169,99.5828689 46.2799225,99.0251155 C45.5130211,98.8811859 44.7904859,99.6528258 45.2299225,100.394454 C45.9864718,101.669108 46.9052746,102.446877 48.1623169,103.213867 C49.4787254,104.015096 50.9447113,104.60899 52.3918944,105.128912 C55.0538662,106.084004 57.8702746,106.637953 60.6949225,106.792239 C62.8496408,106.910384 65.0130211,106.76265 67.1235845,106.356857 C67.2716831,106.81126 67.5336549,107.252982 67.7320352,107.673569 C67.7616127,107.734861 67.8611197,107.692591 67.8421056,107.629186 C67.8102042,107.523511 67.7892887,107.430517 67.780838,107.354431 C68.4904859,108.280145 69.5869648,108.920325 70.7132324,109.231221 C71.5073873,109.451025 72.3505563,109.518446 73.168162,109.425663 C73.4322465,109.395863 73.6834437,109.351691 73.9329507,109.29674 C74.7651338,110.025898 75.8299225,110.512004 76.8989366,110.755057 C76.7153451,111.870986 77.2665423,113.088364 78.5449225,113.405389 C79.081331,113.53854 79.5968239,113.540654 80.1125282,113.492043 C80.5287254,113.686485 80.9766127,113.838658 81.4519648,113.942219 C82.0707676,114.077483 82.8102042,113.903965 83.2771056,113.456114 C83.5327394,113.635761 83.7714718,113.760458 84.0080915,114.045569 C84.9822465,115.220888 87.0820352,114.284607 87.174993,112.925624 C87.4834437,112.925624 87.794007,112.929851 88.1047817,112.940419 C88.1785141,112.974235 88.2524577,113.008051 88.3285141,113.04398 C89.6869648,113.675706 91.094007,114.227542 92.596331,113.730869 C92.8728803,113.639777 93.1264014,113.523746 93.3566831,113.388481 C94.4151338,113.483589 95.4587958,113.485703 96.5322465,113.139088 C97.1660493,112.933867 97.7616127,112.608599 98.2580915,112.181671 C99.9144296,112.667777 101.661824,112.887581 103.309711,112.285022 C104.543303,111.835057 105.536472,111.12492 106.235556,110.188427 C107.304782,110.226681 108.390486,109.968834 109.368655,109.459479 C111.041894,108.592943 112.21443,106.946313 113.032035,105.295879 C114.832246,101.654313 115.897035,97.7422192 116.315134,93.7075421 C116.727106,89.7341566 116.139782,85.7819061 115.725697,81.8315577" id="ðŸ–-Ink" fill="#000000"></path>
                    </g>
                    <g id="face/Old" transform="translate(112.183099, 77.354207)" fill="#000000" fill-rule="evenodd">
                        <path d="M37.1893753,50.6488622 C35.8389901,50.6599088 34.3209297,50.1529653 33.3059002,49.7560489 L33.0412214,49.65118 C32.162578,49.2991386 31.2601645,48.8949856 30.5871863,48.2168076 C30.3719791,47.9964076 30.1428478,47.7470046 30.0264681,47.4847284 C29.9582969,47.3310961 29.9299587,47.17204 29.9958221,47.0140192 C30.2392117,46.9900874 30.4698271,46.9589389 30.6882646,46.9189997 C30.7922745,46.8999825 30.8919067,46.8802624 30.9683183,46.8797523 C31.2498839,46.877957 31.5284074,46.9137959 31.8067259,46.9489909 C31.8470315,46.9540878 31.8873325,46.9591839 31.9276461,46.9641763 C32.1443338,46.9910008 32.3599673,47.0199794 32.5752044,47.048901 C33.2012873,47.1330282 33.8240754,47.2164546 34.4592374,47.2468403 C34.9178508,47.2688615 35.3986813,47.2430798 35.8837853,47.2166704 C37.1420034,47.1481721 38.4428203,47.0546779 39.4122548,47.9362863 C39.6661348,48.1671692 39.7722691,48.4580271 39.7722691,48.7542965 C39.7722691,49.114315 39.620783,49.480795 39.3897375,49.7683397 C38.8664136,50.4192751 38.061033,50.6417318 37.1893753,50.6488622 Z M44.5525855,39.2951339 C43.965157,40.176833 42.9864025,40.743782 41.6452932,40.6821813 C38.9798239,40.5602553 35.798639,39.5542116 33.566214,38.0994676 C32.9848424,37.7207354 32.6078687,37.115209 32.5402646,36.4664894 L32.4199907,35.3123573 L31.7700363,36.2734642 C31.7023182,36.3736009 31.6340125,36.4734588 31.5656741,36.5733662 C31.3774762,36.8485023 31.1894361,37.1235894 31.0119754,37.4055399 C30.3309387,38.4881001 29.7066385,39.5814074 29.1397017,40.7281241 C28.7383431,41.5400814 28.444889,42.4482504 28.1505916,43.364499 C27.6538046,44.9114627 27.1738795,46.4329049 26.1123913,47.5201529 C25.9518966,47.6846027 25.7051768,47.7434487 25.4793711,47.7143788 C25.2803301,47.6887544 25.0852722,47.5911287 24.9896698,47.3966426 C23.7213937,44.8165293 25.427254,41.707352 26.811039,39.5458254 L26.9573973,39.3201084 C28.2405306,37.3668052 30.3361397,34.7817952 32.7361175,34.4303843 L33.0108921,34.8687582 L33.4103698,34.6022255 C34.0637162,34.1663111 34.9261321,34.1865884 35.6811869,34.5276281 L36.4362866,34.8685615 C37.8418844,35.4995867 39.2283654,36.0818143 40.7491654,36.4007253 C40.8599898,36.4239651 40.9707234,36.4456418 41.0812872,36.4657954 C41.1856425,36.4848173 41.2906178,36.5026229 41.3961467,36.5191381 C41.3733958,36.4154226 41.3491012,36.312176 41.3247508,36.20921 C41.2989918,36.1002874 41.2730363,35.9911119 41.2452098,35.882274 C41.2164769,35.7698912 41.1858209,35.6581511 41.1552013,35.546842 C41.0333709,35.1030752 40.8957237,34.6632784 40.7325198,34.2326871 C40.1184865,32.6139343 39.1380765,31.0999836 38.1841639,29.6559479 L38.0719018,29.486077 C37.9351342,29.2791469 37.7853872,29.063253 37.6304412,28.8399349 C36.8865849,27.7683592 36.0616025,26.605391 36.0031529,25.4380021 C36.9905885,25.5001892 37.8168473,26.1138616 38.5441768,26.6481688 C39.542308,27.3809283 40.4673429,28.2188753 41.3064646,29.129262 C42.9340799,30.8953623 44.3948773,33.153231 45.0355059,35.4872746 C45.4022879,36.8238 45.2409499,38.2619355 44.5525855,39.2951339 L44.5525855,39.2951339 Z M18.5107028,25.9799984 L18.5104303,25.932384 C18.5133881,24.5846484 19.2980381,21.5074742 21.2374979,21.5074742 C22.4491129,21.5074742 23.1847181,23.601703 23.3120629,25.7605521 L23.316486,25.8485739 C23.3727209,27.1907594 23.0045415,30.1245429 21.2374979,30.1245429 C19.4517543,30.1245429 18.5290635,27.3458845 18.5107028,25.9799984 L18.5107028,25.9799984 Z M47.0646375,25.5572978 L47.0649099,25.5096835 C47.0619522,24.1619478 46.2773022,21.0847736 44.3378423,21.0847736 C43.1565178,21.0847736 42.4276999,23.0755998 42.2739666,25.1760907 L42.2632773,25.3378515 C42.1867783,26.6347218 42.5310899,29.7018423 44.3378423,29.7018423 C46.1235859,29.7018423 47.0462767,26.9231839 47.0646375,25.5572978 L47.0646375,25.5572978 Z M25.0424556,16.8590111 C24.7854417,16.8891467 24.5297031,16.9286401 24.2740942,16.9692628 C23.5283097,17.0881162 22.7865635,17.2307828 22.0498901,17.3970563 C20.6507302,17.7130577 19.2628036,18.1120347 17.9014046,18.5628972 C16.6274685,18.9849607 15.3733521,19.4619316 14.1195407,19.9388579 C14.0526336,19.9643081 13.9857273,19.989758 13.9187924,20.0152092 C13.4761018,20.1836051 13.0348879,20.3722663 12.5923158,20.5615732 C11.9187588,20.8496822 11.2421129,21.1397221 10.551624,21.3582764 C12.3707989,18.8419589 15.1740484,16.977462 17.8713222,15.6432421 C19.4102871,14.8820116 21.0429449,14.2681565 22.6852878,13.7651737 L23.5999053,13.4902321 C24.9466611,13.0927446 26.4191863,12.7255811 27.6842829,13.5181384 C28.1846465,13.8316142 28.5039337,14.31889 28.6044934,14.8456736 C28.7031098,15.362277 28.5906065,15.9161752 28.2340305,16.3784407 C27.9233299,16.7811401 27.5361828,17.0104845 27.1241274,17.0890864 C26.6693371,17.1758401 26.1873615,17.0805652 25.7486219,16.8461455 C25.3971271,16.8199549 25.2934006,16.8294198 25.1894139,16.8409874 L25.0424556,16.8590111 Z M45.3025626,17.115025 C44.4011825,16.9189961 43.5086349,16.8402949 42.5838728,16.8685118 C42.1656777,16.881083 41.7610987,16.9457089 41.3575937,17.010745 C40.7309147,17.1117517 40.1066474,17.2160745 39.4314912,17.0935246 C39.0792557,17.0295283 38.7792487,16.8234246 38.5475226,16.5543767 C38.2766153,16.2398371 38.0973821,15.8378337 38.0399101,15.4555923 C37.9805379,15.0607403 38.039609,14.7154323 38.1856418,14.4105102 C38.3581649,14.0502755 38.6488072,13.7466854 39.0000612,13.4807449 C40.0629383,12.6757821 41.8866119,12.8693784 43.1410095,13.0321243 C44.3805925,13.1933414 45.6133054,13.5778697 46.7091153,14.1885929 C47.790175,14.7914339 48.7299709,15.6034734 49.4633476,16.5960651 C50.0814606,17.4326981 50.3726368,18.3955997 50.6733247,19.3760399 C49.2588976,18.1890353 47.0943494,17.5041416 45.3025626,17.115025 Z" id="ðŸ–-Ink"></path>
                    </g>
                    <g id="facial-hair/*-None" transform="translate(104.577451, 109.479380)"></g>
                    <g id="accessories/*-None" transform="translate(88.521127, 88.978474)"></g>
                </g>
            </g>
        </g>
    </g>
</svg>