<?xml version="1.0" encoding="UTF-8"?>
<svg width="240px" height="324px" viewBox="0 0 240 324" version="1.1" xmlns="http://www.w3.org/2000/svg" xmlns:xlink="http://www.w3.org/1999/xlink">
    <!-- Generator: Sketch 62 (91390) - https://sketch.com -->
    <title>peep-6</title>
    <desc>Created with Sketch.</desc>
    <g id="Introduction" stroke="none" stroke-width="1" fill="none" fill-rule="evenodd">
        <g id="variations" transform="translate(-126.000000, -1730.000000)">
            <g id="images" transform="translate(126.000000, 110.000000)">
                <g id="a-person/bust" transform="translate(0.000000, 1620.000000)">
                    <g id="body/Tee-Arms-Crossed" transform="translate(31.056338, 135.052838)" fill-rule="evenodd">
                        <path d="M139.422507,46.0695663 C137.587859,45.4152258 135.819549,44.6594372 134.208423,43.5477346 C129.564127,40.0894098 126.535817,34.8849088 123.674408,29.9538951 C119.643845,22.7821456 116.772507,15.1401417 114.787648,7.16800861 C113.934761,3.74286575 113.645113,-0.228406262 111.707366,-3.26508728 C107.31469,-9.62356086 94.4339155,-8.79971742 87.5941268,-7.68357652 C83.0138451,-6.87283679 82.0671549,-1.74505597 81.0268732,2.04931585 C80.1606761,5.20202818 79.5936338,8.39045871 79.1176479,11.621582 C77.9852535,12.3663804 76.7068732,12.971265 75.4882817,13.4981613 C62.2082113,17.5719382 59.8741268,25.1243295 54.8018028,36.7904431 C46.2346901,53.7468658 22.9878592,60.3860125 19.4763803,80.4535115 C17.2139155,93.7020047 23.6476479,106.165966 30.2808169,117.179852 C36.4582817,129.210122 45.0824366,134.984212 58.8167324,132.141973 C71.6987746,129.251124 84.0790563,124.415218 96.7344085,120.678333 C102.863915,119.170772 108.983704,115.249378 115.43138,116.616604 C128.716944,119.601504 142.367155,121.00487 155.982507,120.617465 C175.098845,121.390795 175.095887,103.036079 173.133845,88.8221378 C171.759549,66.7020047 160.606732,52.4984196 139.422507,46.0695663 L139.422507,46.0695663 Z" id="ðŸŽ¨-Background" fill="#FFFFFF"></path>
                        <path d="M140.700549,78.0774481 C142.297944,79.1341996 143.641394,80.7364462 144.719915,82.4225988 C140.21738,81.9540352 135.722662,81.4138239 131.237873,80.7987945 C131.824986,80.4234364 132.417592,80.0563209 133.023718,79.7097065 C135.235056,78.4631624 138.231254,76.4441331 140.700549,78.0774481 Z M65.8938592,91.3920939 C65.0688592,91.0689393 64.7496338,89.8105597 64.4280845,89.0892211 C63.4199155,86.8271389 62.4998451,84.526591 61.5425915,82.2425284 C65.1772394,81.2060665 68.7117465,80.0561096 72.4769577,79.5036399 C76.5254789,78.9101683 80.6337887,78.7664501 84.7197042,78.8998121 C92.9959014,79.1699178 101.195197,80.5229824 109.331958,81.9739022 C117.459211,83.4231311 125.586042,84.8155068 133.770127,85.9081879 C141.788366,86.9786771 149.831958,87.7621526 157.890549,88.4498865 C159.456254,88.5836712 162.066887,89.1469198 163.326042,87.9143249 C164.323014,86.9380978 164.355338,85.1376047 163.107803,84.3439843 C162.330761,83.8492133 161.204915,83.8420274 160.317169,83.7278982 C159.199141,83.5839687 158.076676,83.488227 156.951887,83.4136204 C156.493648,83.3833973 156.035408,83.355499 155.576958,83.3276008 C159.256606,81.9396634 163.099775,81.182818 167.08893,81.3937456 C167.314563,82.764775 168.330972,84.1753268 168.887239,85.3060509 C169.858648,87.2800626 170.615831,89.2779569 171.112944,91.4244305 C172.151958,95.9109746 172.197169,100.567444 171.903718,105.143389 C171.634141,108.958685 171.055056,113.178928 168.063507,115.881041 C165.798507,117.926912 162.602873,118.684391 159.638155,118.922583 C156.19238,119.199452 152.693366,118.903773 149.276535,118.441761 C144.484141,117.79355 139.669352,116.936313 134.971183,115.787413 C125.871676,113.562317 117.149704,110.021777 109.102732,105.221589 C105.178437,102.880885 101.43393,100.24746 97.4557606,97.9957339 C93.402169,95.7008924 89.0889296,93.9206888 84.5597746,92.8153268 C79.4912535,91.5782935 74.192662,91.0503405 68.9832254,91.3555303 C68.0792113,91.4083679 66.7731549,91.7363836 65.8938592,91.3920939 Z M60.0201972,89.0951389 C60.5528028,90.8241957 60.960338,92.7984188 62.097169,94.2512407 C63.2232254,95.6909589 64.9220282,96.199045 66.6818873,96.3271233 C68.8038592,96.4811977 70.9507606,96.3824971 73.0773803,96.4615421 C77.439,96.6236477 81.740831,97.3323053 85.9104085,98.6323209 C89.7960423,99.8439922 93.4030141,101.733886 96.8775211,103.830481 C100.090479,105.769409 103.209211,107.850998 106.423225,109.784008 C105.567803,110.176274 104.722099,110.600665 103.871746,110.970106 C102.088225,111.744916 100.293718,112.492462 98.4911831,113.221409 C94.9366056,114.658591 91.3670282,116.0609 87.7609014,117.363663 C80.489493,119.990536 73.098507,122.285589 65.6185775,124.240579 C62.0511127,125.173057 58.4329437,126.262145 54.7266761,126.417276 C51.4401972,126.554654 48.3960423,125.625346 45.7454789,123.670568 C40.2478732,119.616023 35.874,113.763734 32.3382254,107.991123 C30.2375915,104.561542 28.4044225,100.95802 26.8881549,97.2321252 C26.1212535,95.3479374 25.4257606,93.4347945 24.7997746,91.4992485 C24.5061127,90.5904423 24.227662,89.6765636 23.964,88.7584579 C23.8480141,88.3547789 23.7368873,87.9498317 23.6268169,87.5444618 C29.2484366,85.8282975 34.9368169,84.2790998 40.7587183,83.4191155 C43.8670986,82.9598513 47.0168873,82.7273659 50.1592817,82.761182 C51.7190704,82.7778787 53.2780141,82.8622074 54.8295634,83.0232564 C55.6647042,83.10991 56.4964648,83.2215029 57.3246338,83.359726 C57.6668873,83.4165793 58.0186479,83.5006967 58.3714648,83.5626223 C58.9104085,85.4100352 59.4537887,87.2559687 60.0201972,89.0951389 Z M176.226254,81.7498708 C176.529211,81.1367436 176.657028,80.5335499 176.76562,79.8661057 C176.848437,79.3569628 177.068155,78.640274 176.87569,77.9791703 C176.660197,77.2388102 176.073085,76.5766497 175.651606,75.945135 C175.186183,75.2472564 174.721183,74.548955 174.256817,73.8502309 C173.327873,72.4529941 172.401042,71.0544892 171.47569,69.6549276 C167.696746,63.9398043 163.943577,58.2081957 160.184493,52.48018 C156.848577,47.3969941 153.568859,42.2681566 150.131324,37.2532368 C147.191958,32.9649393 143.988085,28.7474442 139.964704,25.4123366 C134.877592,21.1954755 128.820127,19.2089941 122.492873,17.6589511 C121.801817,16.9414168 120.878789,16.5495734 119.892169,16.6290411 C118.498225,15.0475068 117.390338,13.9427789 116.888155,11.9315695 C116.647521,10.9682348 116.722944,8.26147162 115.785127,7.69145988 C114.671113,7.01429354 114.08931,7.91055311 113.782099,8.92067319 C112.754282,12.3001644 113.934,16.843773 116.648789,20.2289706 C115.504986,24.183546 113.988507,29.803773 111.283225,32.9719139 C108.386324,36.3642975 104.380056,37.4202035 100.057521,37.4897378 C91.8142817,37.6224658 83.5797042,34.5576751 77.292169,29.2460196 C75.3810423,27.631726 73.6061831,25.8286967 72.000338,23.9111155 C70.7959014,22.472454 69.3711127,20.2522192 68.4288592,18.5740978 C68.4288592,17.9201328 67.657034,17.2362505 75.5147746,16.7078748 C83.3725153,16.179499 83.9684366,5.41606262 84.1431549,3.95119374 C84.2851268,2.76171429 84.8889296,0.915358121 84.0510423,-0.0545283757 C83.6954789,-0.466450098 82.9657606,-0.53281409 82.5149155,-0.252986301 C81.6647746,0.275178082 81.3854789,1.62570646 81.1182254,2.54275538 C80.7438592,3.82755382 79.5199859,11.8011663 77.2009014,12.7243444 C76.1151972,13.1565558 74.8699859,13.1645871 73.7215352,13.2444775 C72.3032958,13.3436008 70.8820986,13.4160939 69.4695634,13.5811585 C68.9485775,13.6420274 68.3802676,13.8106849 67.8662535,13.815546 C67.5318169,13.8187162 67.1868169,13.6561879 66.8635775,13.5420587 C65.7725915,13.1563444 64.6824507,13.445683 63.558507,13.5967984 C53.6213239,14.9327436 43.3894225,17.9818943 34.9133662,23.4683366 C27.4425211,28.3040313 22.1792113,35.2585127 18.7061831,43.3895812 C15.1625915,51.6876164 13.1314648,60.6609159 11.4292817,69.4945127 C10.8590704,72.4542622 10.3611127,75.4277495 9.93329577,78.4113816 C9.51984507,81.294411 9.00266197,84.2419022 8.87885915,87.1540978 C8.82984507,88.3063796 9.10512676,89.3768689 9.52871831,90.4293933 C10.0057606,91.6140117 11.1332958,92.0810959 12.2147746,92.6341996 C14.5887887,93.8490411 17.0931549,94.7912407 19.6733662,95.4584736 C21.2496338,98.3271311 22.5761831,101.307804 23.6422394,104.401339 C23.2467465,105.185237 23.238507,106.355906 23.1624507,107.117824 C22.9737887,109.015115 22.8930845,110.922341 22.8761831,112.828297 C22.842169,116.648454 23.0718169,120.464806 23.2518169,124.279045 C23.4343521,128.147601 24.0411127,143.411108 24.1399859,145.275006 C24.2168873,146.722967 24.1133662,148.748337 24.875831,150.033769 C26.0475211,152.009683 28.9393521,151.943108 30.2787887,150.341072 C63.558507,157.498197 126.114993,155.342466 151.309563,151.741479 C154.587631,151.272955 153.558296,151.792626 154.391958,150.964133 C155.017521,150.341918 155.549915,149.276501 155.722944,148.420321 C155.95407,147.277339 155.580972,146.24299 154.926887,145.318121 C154.239211,144.34591 154.11393,142.77135 153.858507,141.615264 C153.254493,138.882294 152.954282,126.87971 152.672028,125.549683 C152.584141,125.135225 152.499,124.697096 152.396324,124.258755 C157.017803,124.696673 161.833225,124.696673 166.229915,123.150434 C168.723085,122.273542 171.048296,120.896172 172.838155,118.929558 C175.005338,116.548274 176.211042,113.550481 176.831113,110.42144 C177.631183,106.386552 177.801042,102.2071 177.643859,98.1054247 C177.425408,93.2578943 176.621746,88.3420978 174.626958,83.891272 C175.283366,83.2815264 175.833507,82.545816 176.226254,81.7498708 Z" id="ðŸ–-Ink" fill="#000000"></path>
                    </g>
                    <g id="head/Hijab" transform="translate(78.591549, 38.043053)" fill-rule="evenodd">
                        <path d="M54.989192,22.228448 C86.7876603,23.2355512 88.7056191,38.3453798 88.7056191,63.6851773 C88.7056191,89.0249747 72.2099288,104.992685 66.1359719,107.780946 C60.062015,110.569208 44.0683828,122.545287 29.6350899,117.026365 C15.2017971,111.507443 19.3814811,88.1905608 19.3814811,78.172034 C19.3814811,68.1535073 23.1907237,21.2213448 54.989192,22.228448 Z" id="Path-2" fill="#FFFFFF"></path>
                        <path d="M67.8891972,99.4586583 C62.0497606,102.719793 55.3633521,102.846604 49.0821549,100.794392 C45.3152535,99.5666583 41.8612394,97.6685213 38.6286338,95.3986192 C35.816662,93.4224939 33.3068028,91.2307914 30.8201831,88.9036133 C28.773,84.3872689 26.9499718,79.8791671 26.0962394,74.9652728 C25.3314507,70.5543922 25.2300423,65.9744313 26.1173662,61.5720047 C32.6795493,56.1720047 39.2013803,50.7276211 45.7145493,45.2665409 C49.0314507,42.4849597 52.3568028,39.7185957 55.7222958,36.9961926 C57.4314507,35.6139616 59.1239155,34.2105957 60.8265211,32.8220243 C61.107507,32.5937659 61.3865915,32.3655076 61.6675775,32.1372493 C65.1828592,34.7114959 68.9518732,36.9182043 72.4422254,39.5345096 C74.2694789,40.906173 76.0462394,42.3666035 77.738493,43.9029088 C78.6258169,44.7083648 79.4922254,45.5389714 80.3372958,46.3907131 C81.1103239,47.1686935 81.8560986,48.2844117 82.9527887,48.5784 C83.1027887,48.6183452 83.2441268,48.6267992 83.3772254,48.6077777 C84.8434225,61.4494215 85.8849718,75.3161143 79.6039859,86.9784235 C76.8638451,92.065625 72.9788451,96.6138834 67.8891972,99.4586583 Z M29.9013803,104.178322 C29.0972958,103.441343 30.2956056,102.248694 31.0963099,102.982502 C36.1257465,107.591206 42.7008169,110.034204 49.3422254,111.164928 C50.4137746,111.347746 49.9568028,112.976623 48.8928592,112.795285 C41.9588451,111.614682 35.1437746,108.982103 29.9013803,104.178322 Z M23.8663099,111.249468 C22.9063099,110.734196 23.7608873,109.275245 24.7191972,109.789461 C28.6375775,111.891762 32.9353944,112.98402 37.2946901,113.721633 C38.3668732,113.902971 37.9094789,115.531848 36.8455352,115.351989 C32.3381408,114.589437 27.9152535,113.421727 23.8663099,111.249468 Z M39.8138451,40.0187131 C43.0652535,37.0997542 46.5596197,34.3224 50.2506761,31.9787366 C53.9856761,29.6073863 58.0652535,28.1892258 62.4744085,28.1554098 C62.1659577,28.4026896 61.8722958,28.677445 61.5744085,28.9329675 C60.7422254,29.6454294 59.9117324,30.3619068 59.0814507,31.0762708 C57.4208873,32.5071123 55.7560986,33.935629 54.116662,35.3899303 C50.888493,38.2558403 47.6497606,41.1069558 44.4279296,43.9792063 C38.2356761,49.4996759 32.1767324,55.1404039 26.2483521,60.9442943 C26.2802535,60.8026896 26.3140563,60.6610849 26.3476479,60.5196916 C28.3103239,52.3190888 33.6490563,45.5537659 39.8138451,40.0187131 Z M65.301169,28.5125918 C65.3222958,28.4491867 65.3372958,28.3876838 65.3457465,28.328717 C73.8070141,29.4319656 80.8739155,35.6602474 83.2103239,43.8608501 C83.007507,44.1440595 82.8955352,44.4801065 82.9377887,44.8370771 C82.9589155,45.0169362 82.9800423,45.1986975 83.001169,45.3783452 C82.7117324,45.0911202 82.4138451,44.8224939 82.1605352,44.5667601 C81.3173662,43.7129049 80.453493,42.8820869 79.5659577,42.0726153 C77.751169,40.4179538 75.8668732,38.8708697 73.8807465,37.4273472 C70.4267324,34.9165057 66.6870845,32.6085605 62.5694789,31.4038638 C62.8399014,31.181946 63.1105352,30.9600282 63.3830704,30.7402239 C64.1962394,30.0784861 64.9506761,29.5334137 65.301169,28.5125918 Z M80.4703944,19.7436681 C75.2753239,14.0646857 68.0814507,9.90531194 60.5056056,8.45967593 C53.2715915,7.07744501 45.7821549,7.98836477 38.9478592,10.674627 C24.6469437,16.2965448 13.3631408,28.6586348 8.07933803,42.9837464 C4.99905634,51.3299695 3.98919718,60.4793237 4.91476056,69.3137659 C5.83567606,78.1078403 8.48285915,87.1897738 13.2997606,94.6715742 C13.7413099,95.3565605 14.2251127,96.0136485 14.7321549,96.6498129 C14.5060986,99.2325135 13.6441268,101.76449 12.2877887,103.96676 C12.2149014,104.084694 12.138,104.200514 12.0619437,104.316545 C10.6730704,105.357022 9.23243662,106.333461 7.82602817,107.34139 C6.60722535,108.21469 5.40088732,109.110604 4.25476056,110.077954 C3.17285915,110.991198 1.9164507,112.008216 1.18398592,113.240811 C0.583774648,114.250431 0.338704225,115.623151 1.158,116.586063 C2.14525352,117.745954 3.81807042,117.336991 5.15539437,117.336991 C5.26990141,117.336991 5.38419718,117.339527 5.49849296,117.340795 C5.90011268,117.593359 6.31377465,117.821617 6.7145493,118.034024 C10.7645493,120.181555 14.829338,122.305625 18.8983521,124.419128 C27.0027887,128.631339 35.0732113,133.012842 43.3441268,136.890909 C47.1767324,138.6895 51.2795493,140.261735 55.5722958,140.255641 C59.5992676,140.249265 63.2391972,138.649343 66.3828592,136.216701 C69.9659577,133.445688 72.9619437,129.926917 75.8687746,126.477891 C77.0307465,125.097351 78.1694789,123.700537 79.2870845,122.28449 C81.4335634,121.568013 83.5631408,121.358776 85.4772254,122.741007 C87.0131408,123.850596 89.0370845,122.341555 89.073,120.675903 C89.0856761,120.084545 89.0605352,119.501007 88.9969437,118.926134 C88.6126479,115.375238 86.8758169,112.162924 84.9194789,109.183097 C83.8506761,107.553375 82.7246197,105.953241 81.5920141,104.368114 C81.3258169,103.994236 81.0638451,103.620146 80.8103239,103.239504 C85.3589155,96.5399108 88.9673662,89.1109479 91.1856761,81.3478403 C93.516169,73.1793628 94.3084225,64.7084431 93.7887042,56.2438638 C92.9899014,43.2711828 89.4323662,29.5418677 80.4703944,19.7436681 Z" id="ðŸ–-Ink" fill="#000000"></path>
                    </g>
                    <g id="face/Smiling" transform="translate(112.183099, 77.354207)" fill="#000000" fill-rule="evenodd">
                        <path d="M30.968993,50.9198978 C29.548794,50.3403012 28.2816173,49.3734958 27.3551889,48.1384646 C27.0331038,47.7091169 26.9495926,47.2557326 27.017159,46.8410547 C27.0931327,46.3747786 27.3688808,45.9521824 27.7449394,45.6687178 C28.1221628,45.3843752 28.5940214,45.2441445 29.0502103,45.3156301 C29.4466117,45.3777469 29.8412104,45.5948709 30.1535058,46.0451781 L30.2187521,46.1352289 C30.7695298,46.8806513 31.4872438,47.4922614 32.3050288,47.8864795 C33.0932406,48.2664417 33.9747757,48.4437847 34.8870208,48.3406561 C36.6244504,48.1443157 37.8219743,47.2043274 39.0948115,45.9278391 C39.2525834,45.7666792 39.4104563,45.6004672 39.5690946,45.4315797 C39.6692778,45.278484 39.8083069,45.1800892 39.962667,45.1284632 C40.1340565,45.0711416 40.327938,45.0743848 40.5055187,45.1363808 C40.6767961,45.1961763 40.8299095,45.309486 40.9325762,45.4602937 C41.0301525,45.6036243 41.0854754,45.7806897 41.0675245,45.9843589 C40.9510195,47.3072301 40.2596776,48.4878363 39.2776553,49.4148615 C38.1869942,50.4444414 36.7412431,51.1567117 35.3801317,51.4065272 C33.8805866,51.6817086 32.3525901,51.4845569 30.968993,50.9198978 L30.968993,50.9198978 Z M36.0875289,30.5120405 C37.6828906,31.482148 40.1137318,33.7442494 38.3974899,36.149264 C36.3773089,38.2698449 33.4687045,35.8384541 32.0353946,34.7388307 C30.7063626,33.8866164 29.2131206,36.0784478 30.4461973,37.0735516 C40.8033244,44.7445605 45.006466,30.7657101 36.8944406,29.3714319 C36.0012775,29.2177885 35.6695544,30.2119271 36.0875289,30.5120405 Z M17.5274577,21.5886716 C17.7037243,19.3998697 21.0359789,18.9028321 21.3674577,21.0687499 C21.6642887,23.0089456 21.3148521,24.7912626 20.4412606,26.5380728 C19.6065423,28.2068947 17.5085456,27.4283107 17.3498837,25.9087021 C17.1372039,23.8717299 17.4178099,22.9502317 17.5274577,21.5886716 Z M42.8930282,20.6196517 C43.3576056,20.0109628 44.0283803,19.5954481 44.8320423,19.8302583 C47.3429577,20.5642779 46.6028873,24.1303914 45.7210563,25.8662114 C45.2419014,26.8088337 43.6930986,27.0478708 42.993169,26.2178982 C41.8523239,24.864411 41.3059859,22.1614521 42.756338,20.8282544 C42.7956338,20.7593542 42.8393662,20.68982 42.8930282,20.6196517 Z M20.4058944,12.0111429 L20.802522,11.9416942 C22.0295218,11.7294045 23.5551549,11.5254176 24.4231479,12.5122544 C24.8835,13.0355577 25.0419507,14.0081918 24.4231479,14.509092 C23.3346972,15.3904227 22.1313169,15.0488806 20.8269507,15.1234873 C19.7520211,15.1852016 18.7189225,15.3631585 17.6835,15.6592603 C15.4119507,16.3087397 13.5610352,17.4944149 11.6209648,18.7963327 C11.3663873,18.9671037 11.1065282,18.6414129 11.228007,18.4032211 C12.3479366,16.208771 14.5182887,14.4061644 16.6922324,13.3073542 C17.8525141,12.7208571 19.1222324,12.2343288 20.4058944,12.0111429 Z M40.6041287,11.0281289 L40.9077055,11.0902829 C44.2113469,11.7811043 48.5035506,13.1610768 50.0679842,16.4073021 C50.1275964,16.8663298 50.0646105,16.9647086 50.0133917,17.0289838 L49.9963385,17.0503723 C49.9541341,17.1052595 49.9204583,17.1809212 49.7215736,17.2433957 C49.6663832,17.2302408 49.6106433,17.216308 49.5543131,17.2015401 C48.8372041,17.0135386 48.2698321,16.7545401 47.720556,16.4857982 L47.1250012,16.192275 C46.4340388,15.8533498 45.7369757,15.5267598 44.9982488,15.2856588 C43.4217423,14.7712438 41.8001698,14.4088706 40.1534741,14.2153715 C39.7965654,14.1734678 39.4528848,14.0529641 39.1817455,13.8464404 C38.92438,13.6504079 38.7277692,13.3789964 38.6381257,13.0182314 C38.5219478,12.5513438 38.5553348,12.1978716 38.8057421,11.7766707 C38.9940329,11.4603578 39.263447,11.2411116 39.5728025,11.115213 C39.888177,10.9868648 40.2472278,10.9566068 40.6041287,11.0281289 Z" id="ðŸ–-Ink"></path>
                    </g>
                    <g id="facial-hair/*-None" transform="translate(104.577451, 109.479380)"></g>
                    <g id="accessories/Glasses-2" transform="translate(88.521127, 88.978474)" fill="#000000" fill-rule="evenodd">
                        <path d="M78.6572746,20.1750129 C76.0922746,22.8264023 71.8103028,23.5872634 68.3976972,22.1652986 C59.635162,18.5028094 63.9241056,7.07932603 70.6819225,4.01157652 C71.5261479,3.80107162 72.6536831,3.30165088 73.6819225,3.18836712 C73.7748803,3.14271546 73.9772746,3.27480939 74.2225563,3.14990137 C81.6741761,3.98219883 83.3710775,15.5540501 78.6572746,20.1750129 M50.3943169,20.8536587 C47.5174859,24.6708564 42.1690352,25.8485002 37.7991761,24.0740031 C29.1663592,20.6729542 32.2282606,10.543146 38.134669,6.57187397 C50.6115,1.88179961 55.7636831,13.8154826 50.3943169,20.8536587 M31.6802324,12.3958427 C31.6722042,12.3920384 31.6641761,12.3901362 31.6559366,12.3863319 C31.7015704,12.3662536 31.7472042,12.3461753 31.7926268,12.3256744 C31.777838,12.3643515 31.7617817,12.4026059 31.7474155,12.441283 C31.7250211,12.4258544 31.7053732,12.4078896 31.6802324,12.3958427 M84.5964296,8.26965088 C83.8920634,8.27113033 82.8745986,8.38695029 82.2915,8.87580352 C80.8536127,4.02468023 75.5461479,-0.465034051 70.9303732,2.808782 C67.2955141,3.97818317 64.5982606,6.57166262 63.0653028,10.0196313 C60.3012887,8.37490333 55.9550915,9.07722035 53.5582606,11.2522262 C51.9885423,6.06336517 48.1253028,4.24638669 43.5270634,3.97818317 C38.5081901,3.15581918 33.5057958,8.0318818 31.9449507,11.943553 C30.6471338,11.7958192 28.7079085,11.3826294 27.486993,12.1838583 C19.5629789,10.1050168 5.70910563,8.95886419 4.09819014,10.1138935 C2.95016197,10.5545589 2.32016197,13.2653378 3.9236831,13.4115922 C5.32100704,13.2131342 3.76058451,11.4253221 5.16910563,11.2302458 C12.6739648,10.7648524 19.9595282,12.2768524 27.3849507,12.911326 C28.0479085,13.8034356 30.1899507,14.1018622 31.3326972,13.7434121 C29.5329085,20.3789659 33.4181197,24.8934082 39.2395986,26.2456274 C48.2537535,28.3170716 56.0962183,20.2502536 53.7391056,11.859647 C56.4697394,10.5006646 59.6106549,10.5589973 62.5853028,11.2748407 C57.6145986,29.5756626 87.0773451,28.7545667 82.4757254,9.50287984 C85.5380493,11.0267155 86.2031197,8.57716556 84.5964296,8.26965088" id="ðŸ–-Ink"></path>
                    </g>
                </g>
            </g>
        </g>
    </g>
</svg>