<?xml version="1.0" encoding="UTF-8"?>
<svg width="240px" height="324px" viewBox="0 0 240 324" version="1.1" xmlns="http://www.w3.org/2000/svg" xmlns:xlink="http://www.w3.org/1999/xlink">
    <!-- Generator: Sketch 62 (91390) - https://sketch.com -->
    <title>peep-17</title>
    <desc>Created with Sketch.</desc>
    <g id="Introduction" stroke="none" stroke-width="1" fill="none" fill-rule="evenodd">
        <g id="variations" transform="translate(-606.000000, -758.000000)">
            <g id="images" transform="translate(126.000000, 110.000000)">
                <g id="a-person/bust" transform="translate(480.000000, 648.000000)">
                    <g id="body/Shirt-and-Coat" transform="translate(31.056338, 135.052838)">
                        <path d="M169.19981,137.035472 C168.862838,130.772318 168.448754,124.514024 167.95312,118.261226 C166.965444,105.806353 165.672275,93.3417581 163.520303,81.0299695 C161.397275,68.8824 158.426007,57.0702434 154.145303,45.4947992 C152.159387,40.1243883 150.008683,35.5429479 146.888683,30.7152845 C143.938542,26.1507523 140.173965,23.0578521 135.483824,20.3024783 C131.258049,17.8199577 126.348824,13.5126387 122.295866,10.732537 C120.603824,9.57201252 117.122556,9.64936673 115.962275,7.9325683 C114.442838,5.68443523 115.427979,2.2434411 113.896289,0.00270528376 C112.145514,-2.55928297 109.692697,-4.54956869 106.926782,-5.99541605 C103.907979,-8.04044149 100.352345,-8.96615577 96.7872042,-8.83871155 C91.5300211,-9.15763914 86.2352324,-7.48332211 82.8600211,-3.20263327 C81.1757958,-1.0663045 80.1923451,1.39846262 80.0562887,4.12762896 C80.0207958,4.8375546 80.2487535,5.39721018 80.6239648,5.80131194 C80.4015,6.09889315 80.1800915,6.39668571 79.960162,6.69616908 C79.2697394,5.67323366 77.6560775,5.1296407 76.5807254,5.90170333 C73.0626972,8.42797339 69.2605141,10.4366466 65.2474859,11.9091241 C64.3086127,11.4646544 63.171993,11.6705096 62.3676972,12.3960751 C62.0412887,12.6902748 61.6950211,12.941993 61.3331197,13.1556681 C59.845162,13.5591358 58.3341761,13.8962395 56.8007958,14.1568344 C56.3207958,14.2382043 55.9141056,14.5108462 55.6056549,14.8783843 C55.1486831,14.4510341 54.5205845,14.2458129 53.8191761,14.5133824 C45.7202324,17.6018442 38.0719225,22.3997072 32.2584718,28.8999969 C25.8177676,36.1013354 22.4349507,45.0594176 19.8595986,54.2370928 C17.0717113,64.172036 15.2900915,74.3542591 13.7936831,84.5536016 C12.2774155,94.8879969 10.7839648,105.26276 9.74072535,115.656968 C9.15361268,121.506298 8.92966901,127.408678 9.19544366,133.283793 C9.32790845,136.219872 9.59600704,139.14665 10.0229789,142.054831 C10.1224859,142.735167 10.2266408,143.518854 10.3943873,144.301061 C9.88459859,144.201938 9.27741549,144.633093 9.38072535,145.323151 C10.1003028,150.129468 15.9088944,151.529453 19.9149507,152.082768 C26.467838,152.987981 33.0547394,153.489938 39.6705845,153.528615 C46.1719225,153.566447 52.6722042,153.14903 59.1600211,152.775151 C65.8115704,152.391973 72.4629085,152.006893 79.1142465,151.616741 C105.763331,150.053805 132.413894,148.507778 159.06319,146.944208 C161.497838,146.801335 164.277908,146.60795 166.363331,145.195285 C169.221993,143.25847 169.369035,140.180787 169.19981,137.035472 L169.19981,137.035472 Z" id="ðŸŽ¨-Background" fill="#FFFFFF"></path>
                        <path d="M39.2863521,83.2772571 C39.1938169,83.1039499 39.4084648,82.9481847 39.5508592,83.0730928 C42.786,85.913218 44.4797324,90.4743687 44.8348732,94.6903843 C45.2111408,99.1610771 44.6776901,103.78986 44.4738169,108.25865 C44.2469155,113.236373 44.0430423,118.215997 43.7660704,123.191394 C43.4848732,128.239285 43.1819155,133.285484 42.9222676,138.334431 L42.3381127,149.691973 L42.3381127,149.691973 C42.276,150.902377 42.4105775,152.390917 41.9462113,153.520584 C41.2266383,155.271819 39.0891832,155.000674 38.6399753,153.537031 L38.6259296,153.488881 L38.5849437,153.520584 C38.1886056,152.201547 38.4852254,150.635018 38.5524085,149.271175 L39.1644507,136.862165 L39.1644507,136.862165 C39.596831,128.091149 39.9824937,119.319962 40.4469602,110.550606 L40.6048732,107.627559 C40.8220141,103.692575 40.9885014,99.7675214 41.1222008,95.8337537 L41.1655775,94.5221495 C41.2925493,90.5724352 41.1917746,86.843582 39.2863521,83.2772571 Z M117.710958,10.4641432 C119.513282,10.2929495 120.874268,10.8908595 122.510535,11.5206834 C123.223352,11.7948047 123.898352,12.1116188 124.582225,12.4396344 C125.438359,12.8502945 125.988928,13.5763753 126.516172,14.3440502 L126.798,14.7577245 C128.993282,17.9753213 130.470042,21.6874779 132.13631,25.190609 C134.085465,29.2884798 136.054056,33.377474 137.961592,37.494789 L138.902969,39.5233057 C139.373556,40.537611 139.842752,41.5525503 140.304985,42.5706599 L141.103656,44.3426331 C141.905953,46.1397094 142.625251,48.0408373 141.481732,49.8947108 C140.418423,51.6189065 138.533282,52.9529495 137.040676,54.2857245 C135.795465,55.3978497 134.550042,56.5097636 133.304197,57.6214661 C135.879338,60.2012078 137.608141,63.4494505 138.624338,66.932926 C140.068141,66.3312117 141.830324,66.2158145 143.323141,65.9554309 C145.412789,65.591063 145.668845,68.7558223 143.696662,68.7171452 C142.240183,68.6886129 140.531451,68.8374035 139.037366,68.5305229 C139.297014,69.6751961 139.485465,70.8372 139.605254,72.0023742 C140.233054,78.1094142 138.861153,84.2518946 137.430277,90.1606736 L137.312577,90.6457949 C135.758704,97.0412548 134.285324,103.453411 132.967225,109.90192 C131.646169,116.364167 130.457789,122.853677 129.40293,129.364746 C128.329268,135.992057 127.569549,142.655932 126.753,149.318327 C126.629408,150.326679 125.995183,151.190891 124.88138,151.190891 C123.953493,151.190891 122.89293,150.324566 123.009549,149.318327 C123.852085,142.063094 125.047014,134.845905 126.234127,127.640339 C128.27884,115.231345 130.852261,102.930302 133.8129,90.7100334 L134.330073,88.5819373 C135.662078,83.0625996 136.870458,77.3755382 136.202366,71.6823898 C135.658145,67.0465395 133.720594,62.1037011 129.891172,59.2243133 L129.774549,59.1376932 C128.880042,58.4814505 128.535887,57.2264524 129.416873,56.3622411 C129.977507,55.8122372 130.538798,55.2628908 131.100418,54.7138888 L134.471451,51.4215053 L135.151079,50.7565418 C135.717757,50.203032 136.287145,49.6528958 136.873563,49.1196892 C137.228493,48.7971687 138.190817,48.1821393 138.261169,47.6516501 C138.306876,47.3053608 137.897076,46.6972284 137.731009,46.3783334 L136.970113,44.8419593 L136.970113,44.8419593 C136.53807,43.9659123 136.119338,43.0835249 135.697437,42.2024055 C134.823211,40.3771843 133.93631,38.5574583 133.081099,36.7231491 L127.942859,25.7092626 L127.942859,25.7092626 C126.493352,22.6019906 125.202085,19.3216227 123.307014,16.4489495 L122.933364,15.88908 C122.621468,15.4175692 122.345981,14.9636971 122.148845,14.387016 C121.959338,13.8322215 121.721451,13.22311 121.371169,12.7496853 C120.550394,11.6386168 118.981521,11.0083703 117.668915,10.7756736 C117.479197,10.7418575 117.54807,10.4797832 117.710958,10.4641432 Z M78.1926127,7.57132107 C78.3066972,7.57132107 78.3240211,7.73427945 78.2188099,7.765982 C76.6351479,8.24236556 75.121838,9.01104658 73.8871901,10.1206356 C73.2964859,10.6515476 72.7017676,11.2541072 72.3371197,11.9688939 C72.1975563,12.2424235 72.1202831,12.5313605 72.0637162,12.8309286 L72.0455704,12.9311718 C71.9515007,13.4723843 71.8168536,13.773641 71.541932,14.2069308 L71.4947958,14.2804321 C69.9257113,16.7044086 68.8260634,19.3968 67.8206408,22.092573 L65.6310898,27.9705417 L65.6310898,27.9705417 L63.4429648,33.8491444 C62.7379648,35.7432658 62.0325423,37.6375984 61.327331,39.5317198 C60.9377535,40.577481 60.5371901,41.6188039 60.136838,42.6603382 C59.9635986,43.111571 59.7772606,43.5594223 59.6188099,44.0161503 C59.5970493,44.0784986 59.5277535,44.4544908 59.4757817,44.5457941 L59.4935282,44.5768626 L59.4935282,44.5768626 C59.9348662,45.3195476 61.111838,45.940072 61.7790211,46.4796493 L64.0763451,48.3376297 L64.0763451,48.3376297 C65.7143028,49.6625847 67.3943028,50.9503421 68.9830352,52.3344751 C69.9810634,53.2035476 69.3601479,54.7599311 68.2471901,55.1228196 C66.3821197,55.730663 64.5548662,56.4581307 62.7176831,57.1458646 C61.9755634,57.4235789 61.202812,57.6653425 60.4693513,57.9716119 L60.0228642,58.1646447 C59.8484698,58.243088 59.9323118,58.2423563 59.9393028,58.5642364 C59.9462746,58.9019742 60.0419789,59.2538724 60.0969085,59.5856924 C60.7157113,63.3287061 61.3716972,67.0653793 62.0640211,70.7955006 C64.5130352,83.9860838 67.4388803,97.0802912 70.7758521,110.073896 C72.4613451,116.635688 74.2689507,123.165144 75.9914155,129.717215 C77.7096549,136.251743 79.9704296,142.692643 82.129162,149.092542 C82.7382465,150.897282 79.8774718,151.674397 79.2833873,149.877285 C76.7955,142.350256 74.5195141,134.757497 72.169162,127.187775 C67.9932465,113.737442 64.7025423,99.9950231 61.7921197,86.2194223 C60.3495845,79.3919624 59.0302183,72.5382951 57.8352887,65.6630701 C57.6090211,64.3615221 57.3871505,63.059142 57.1698552,61.7560188 L56.8531439,59.8392419 C56.6360384,58.4730107 56.512421,57.04987 57.5739507,55.9686434 C58.6105,54.9133261 60.389946,54.5393647 61.7539201,54.0443919 L61.8529648,54.0079468 C62.7208521,53.6839468 63.5950775,53.3717824 64.4659225,53.0498959 C63.1831056,52.0396415 61.9161338,51.006984 60.6364859,49.9973636 C59.6042324,49.1828196 58.5557113,48.3847609 57.5382465,47.551618 C56.6993028,46.8643068 56.0152183,45.9819194 55.9277535,44.864299 C55.8385194,43.7220233 56.3278362,42.6620618 56.7224854,41.6144721 L56.7603592,41.5131288 C57.1478239,40.4671562 57.5363451,39.4218176 57.9347958,38.3798607 L60.4002887,31.9296611 L60.4002887,31.9296611 C61.9670493,27.8309448 63.4676831,23.6990466 65.1155704,19.6322442 C65.7675423,18.0228117 66.4780352,16.4387413 67.3176127,14.9174419 C67.7224014,14.183845 68.1565563,13.4658881 68.6283169,12.7735045 C69.1569085,11.9970035 69.6366972,11.6184751 70.4557817,11.1900681 C71.7654296,10.5050818 72.7932465,9.35660431 74.1083873,8.65048297 C75.3992324,7.95725401 76.7272606,7.587391 78.1926127,7.57132107 Z M82.4442465,0.258925245 C82.4943169,0.172905675 82.626993,0.211154638 82.6286831,0.309015264 C82.6629085,2.34600939 82.1791056,4.42759843 81.8814296,6.44176673 C81.5824859,8.46312094 81.4865704,10.5967022 81.0541056,12.5964986 C81.0451479,12.6896618 81.027131,12.7814724 81.0016775,12.8716057 L80.981007,12.9401542 L80.981007,12.9401542 C80.7984718,13.5004438 80.3237535,13.9753479 79.7412887,14.1237159 C79.9244577,15.1390427 80.0970634,16.1560603 80.2422042,17.178573 C80.4915,18.9361016 80.7190223,20.6962183 80.9427873,22.4569203 L81.2106549,24.5699155 C81.4635423,26.5612579 81.7094577,28.5534458 81.9526268,30.545845 C82.571007,30.8045378 83.2020634,31.0180016 83.848331,31.2029331 C85.3367113,31.6290153 86.8612183,31.8023225 88.3971338,31.9530153 C91.5250493,32.2599523 94.6768897,32.4021112 97.8158965,32.5764156 L98.488331,32.6143303 C102.017345,32.8165926 105.565585,32.8525221 109.085725,32.4902677 C110.831218,32.31062 112.562979,32.0092344 114.265162,31.5820955 C115.130092,31.3650387 115.970725,31.0408274 116.833965,30.8286317 C117.120232,30.7582521 117.376077,30.595935 117.662979,30.4226278 C117.790373,30.2615789 117.969106,30.1396297 118.201923,30.0924986 L118.264986,30.0815084 L118.264986,30.0815084 L118.327415,30.0724204 L118.348965,30.0626982 L118.347275,30.0694614 C118.523894,30.0455789 118.691641,30.0457902 118.84988,30.0673479 C118.912838,28.5139233 118.981077,26.9604986 119.066641,25.4074967 C119.296289,21.2362873 119.930303,16.8850074 119.083965,12.7501503 C119.055655,12.6110818 119.244739,12.5620485 119.293965,12.6922403 C120.954739,17.0695162 120.76819,21.8559663 120.851852,26.46298 C120.933613,30.9683342 120.884176,35.4768587 120.861782,39.9832697 C121.184387,40.1206474 121.472134,40.306847 121.700092,40.5680759 C122.155373,41.0901112 122.286359,41.9976493 121.700092,42.5015084 C121.440232,42.7249057 121.152697,42.8800368 120.847627,42.9876141 C120.831359,46.9024556 120.803683,50.8177198 120.764387,54.7327726 C121.508683,55.3078568 121.57819,56.673391 120.736289,57.2408665 C120.596218,69.9193479 120.365937,82.5982521 120.174951,95.2748313 L119.77481,121.87073 L119.77481,121.87073 C119.72157,125.414229 119.633261,128.957516 119.60157,132.500593 L119.626711,132.510526 L119.626711,132.510526 L119.715273,132.5516 C119.864396,132.621626 120.086271,132.734888 120.132275,132.8508 C120.144317,132.881234 120.147486,132.901947 120.146007,132.917587 C120.390232,132.951825 120.632134,133.067223 120.8415,133.265892 C121.358261,133.75707 121.253261,134.49743 120.8415,134.997696 L120.73143,135.131481 L120.73143,135.131481 C120.474739,135.443223 119.987345,135.56327 119.589317,135.499865 C119.593331,137.711223 119.607486,139.923004 119.600514,142.134362 C119.598232,142.809753 119.588041,143.48522 119.576374,144.160672 L119.548532,145.780268 C119.530045,146.704462 119.448209,147.878959 118.501923,148.294166 C117.434387,148.76273 116.477134,148.378917 116.04488,147.294268 C115.927838,147.000491 115.952979,146.726792 115.995655,146.436397 C115.982345,145.999959 115.914106,145.494197 115.922556,145.08925 L115.957838,143.400773 L115.957838,143.400773 C115.963331,143.140389 115.973894,142.880217 115.981289,142.619833 L115.950444,142.623004 L115.950444,142.623004 C112.157234,142.807212 108.337478,142.717321 104.538061,142.715076 L102.848288,142.717533 C101.43839,142.718744 100.025474,142.711215 98.6175866,142.657304 L98.0898803,142.634839 C97.0358662,142.585383 95.9273451,142.569532 94.834669,142.47527 C94.9738944,143.597328 95.1040352,144.720232 95.2200211,145.844193 C95.3298803,146.910033 94.2302324,147.815669 93.2493169,147.815669 C92.0843873,147.815669 91.4180493,146.899677 91.2786127,145.844193 C90.6203028,140.865626 90.3509366,135.840561 89.721993,130.858823 C89.1586056,126.396754 88.6701718,121.924584 88.173678,117.454023 L88.0077676,115.963912 C86.1908012,99.6949463 84.4267592,83.4198582 82.7394036,67.1369848 L81.953761,59.5251818 C81.1602906,51.8531934 80.3621761,44.1807288 79.6891056,36.4974693 C79.3041761,32.1047648 78.9494577,27.7112149 78.6156549,23.3142834 C78.3707958,20.0840055 78.216993,16.8716924 78.1168521,13.647755 C77.721993,13.2413284 77.5240352,12.6478568 77.6989648,12.0349409 C77.8012183,11.6773362 77.920162,11.3216337 78.0456549,10.9665652 C78.037838,10.6176258 78.0295986,10.2688978 78.022838,9.91953581 C78.0165,9.58898395 78.351993,9.41884697 78.6205141,9.47358669 C79.1085423,8.2915045 79.646007,7.11956712 80.0945282,5.94889785 C80.8204437,4.05393112 81.4187535,2.01207593 82.4442465,0.258925245 Z M41.9030282,20.7390434 C49.4915493,15.9815483 58.524507,12.5580963 67.5716197,12.9266912 C67.7773944,12.9351452 67.8352817,13.248789 67.6216901,13.2963429 C62.7959155,14.3742294 57.9171127,15.6871374 53.3484507,17.5979554 C48.7664789,19.5144798 44.4097183,22.0950669 40.5293662,25.1962098 C33.3699296,30.9178849 27.8051408,38.3601628 24.1409155,46.74929 C21.9946479,51.663607 20.4902113,56.8518341 19.1765493,62.0419632 C17.7864085,67.534746 16.6407042,73.0867068 15.6880986,78.6720611 C13.8065493,89.7047577 12.7111268,100.858981 12.1282394,112.032437 C11.5352113,123.398433 11.7796479,134.77246 11.3566901,146.140147 C11.2835915,148.109721 8.46950704,148.071255 8.32647887,146.140147 C7.36816901,133.215865 7.89908451,120.085306 8.78535211,107.170112 C9.58225352,95.5597949 10.9738732,83.9737832 13.2147887,72.5502998 L13.4099845,71.5602612 C15.5048853,60.9913547 18.0317157,50.1663567 23.0961972,40.5949808 C27.42,32.4235444 34.0952113,25.6343389 41.9030282,20.7390434 Z M147.281049,71.2511718 C147.320556,71.1378881 147.470134,71.1393675 147.510063,71.2511718 C148.375204,73.67369 148.406272,76.4072244 148.636193,78.9608697 L148.654289,79.1569409 C148.874758,81.4861151 149.040809,83.8181281 149.195176,86.1520894 L149.252599,87.0274145 C149.872246,96.5487452 150.646754,106.059508 151.814007,115.530749 C152.977035,124.966272 154.5495,134.336064 156.249993,143.687258 C156.4395,144.728369 155.978514,145.788925 154.887106,146.088831 C153.924993,146.353231 152.689923,145.760393 152.486472,144.725411 C151.430768,139.357959 150.577035,133.983321 149.815415,128.569371 C148.474711,119.035994 147.474148,109.458655 146.830838,99.8527843 C146.508021,95.0282912 146.309218,90.2057002 146.230204,85.3708509 C146.193715,83.1276694 146.251952,80.8790209 146.371422,78.6381044 L146.400063,78.1211131 C146.531894,75.83071 146.518373,73.4354771 147.281049,71.2511718 Z M65.2823873,131.896553 C65.3837958,131.841602 65.5092887,131.954463 65.4450634,132.059293 C63.9756972,134.448186 61.9878803,136.508005 60.0666127,138.538236 C58.0580915,140.660405 56.0992183,142.846612 54.0501338,144.927144 C52.5695704,146.430056 50.1879507,144.005657 51.7504859,142.626596 C53.9474577,140.688092 56.2437254,138.845962 58.4797817,136.950573 L59.4576653,136.121364 C61.2910429,134.571924 63.1788022,133.036359 65.2823873,131.896553 Z M135.072803,130.700121 C134.963155,130.491095 135.213718,130.321592 135.384,130.460027 C136.569211,131.424207 137.631465,132.574375 138.775901,133.591815 C139.909352,134.599745 141.085056,135.539831 142.292873,136.456668 C143.505761,137.37731 144.745056,138.261177 146.017732,139.09749 C147.073437,139.791142 148.161465,140.346782 149.267028,140.922712 C149.77893,140.988653 150.253014,141.239948 150.632451,141.716543 C151.232451,142.470218 151.296254,143.891338 150.46407,144.545678 L150.314704,144.662978 L150.314704,144.662978 C149.343507,145.426586 148.19062,145.51958 147.234634,144.662978 C146.167156,143.706714 145.15817,142.654381 144.133073,141.643811 L143.824986,141.342031 C142.723437,140.270907 141.648718,139.165123 140.635479,138.00967 L139.718209,136.965841 C138.016538,135.024581 136.245322,132.932337 135.072803,130.700121 Z M129.613162,18.7829753 C129.416049,18.6523609 129.537528,18.300674 129.780908,18.38458 L130.227316,18.538929 C132.092323,19.1872595 134.012004,19.9062708 135.705275,20.9045096 C137.524923,21.9771123 139.205134,23.2549362 140.810345,24.6257542 C144.132951,27.4631319 146.959711,30.9523139 149.362035,34.5890184 C154.182317,41.8867327 157.163303,50.2443687 159.570063,58.6068658 C162.136331,67.5233119 164.112106,76.6316642 165.725345,85.7658012 C167.36457,95.0485174 168.629218,104.414928 169.460345,113.805011 C169.869782,118.430623 170.144641,123.058983 170.28281,127.700658 C170.354007,130.088494 170.351683,132.474639 170.331824,134.86332 C170.326754,135.477609 170.33082,136.091582 170.337792,136.705555 L170.36119,138.547789 C170.373655,139.712541 170.513092,140.93647 170.236331,142.07438 C169.790979,143.906153 166.763514,143.5644 166.863021,141.692259 C166.771754,141.06941 166.768162,140.425637 166.791824,139.780596 C166.777458,139.697324 166.761824,139.612784 166.7445,139.526341 C166.694852,139.27885 166.737106,139.049746 166.834289,138.852768 C166.849923,138.543351 166.864077,138.235836 166.869148,137.933605 C166.889007,136.703758 166.887739,135.478772 166.853725,134.249347 C166.782106,131.656924 166.679007,129.064502 166.574852,126.473347 C166.366754,121.295265 166.077317,116.114858 165.657739,110.949457 C164.19788,92.9698873 161.115275,74.8878129 155.937317,57.5902708 C153.532458,49.5576916 150.217035,41.6724235 145.462458,34.7312571 C143.351894,31.6497699 140.970697,28.8035155 138.330908,26.1618481 C135.67443,23.5036955 132.747106,20.8592806 129.613162,18.7829753 Z M93.7848803,134.687434 L94.1436668,137.283817 C94.3230127,138.582231 94.5006549,139.881072 94.6692465,141.180749 C95.8145282,141.023927 96.9862183,140.958197 98.0898803,140.860342 C100.021923,140.689148 101.967275,140.606299 103.905021,140.526197 C107.912134,140.360921 111.939317,140.074119 115.950444,140.094197 C115.991641,140.094409 116.030514,140.097156 116.069387,140.100326 L116.268401,134.977407 L116.268401,134.977407 L113.450092,134.972968 L113.450092,134.972968 C111.062345,134.969164 108.675021,134.948874 106.287275,134.928373 C104.136808,134.90988 101.985533,134.906921 99.8354302,134.862153 L98.9140352,134.84024 C97.2834718,134.796279 95.4830493,134.886949 93.7848803,134.687434 Z M116.50481,127.251497 C116.38988,127.265023 116.272838,127.276436 116.148401,127.28172 C115.590232,127.30518 115.027627,127.288906 114.469035,127.293555 C113.279599,127.303912 112.090373,127.311943 110.900725,127.311732 C108.521852,127.31152 106.14319,127.325892 103.764739,127.354636 C101.316148,127.384225 98.8692465,127.426706 96.4204437,127.431567 C95.2339648,127.433681 94.0512887,127.402189 92.8652324,127.369007 C93.0570634,129.05516 93.2575563,130.740045 93.4789648,132.420914 C95.320787,132.171987 97.3017278,132.297488 99.1017772,132.28029 L99.3355141,132.277195 C101.792345,132.235137 104.251289,132.266205 106.708754,132.269164 C109.236782,132.272123 111.764599,132.280366 114.292838,132.301078 L116.36981,132.318197 L116.36981,132.318197 L116.373824,132.213579 L116.373824,132.213579 C116.434669,130.561242 116.473965,128.906792 116.50481,127.251497 Z M91.9515,119.185101 C92.1817817,121.175387 92.3979085,123.169054 92.6182606,125.162088 C92.764669,125.139473 92.9129789,125.120029 93.0640352,125.104178 C94.2522042,124.979904 95.437838,124.873383 96.6302324,124.799411 C99.0072042,124.652099 101.383965,124.574323 103.764739,124.510495 C106.212908,124.444765 108.6615,124.394463 111.110514,124.359802 C112.300373,124.343105 113.489176,124.344796 114.679035,124.353039 C115.237204,124.356843 115.801077,124.339301 116.35819,124.37671 C116.424528,124.381148 116.48812,124.388123 116.551077,124.395309 L116.592908,121.402996 C116.600115,120.904366 116.607627,120.40579 116.615725,119.907285 C114.776762,120.02072 112.907194,119.977432 111.06961,119.977946 L110.646148,119.978933 C108.337204,119.989501 106.027415,119.957798 103.718894,119.909822 C101.337275,119.860154 98.9605141,119.782377 96.5831197,119.629782 C95.6199205,119.568189 94.6637061,119.486099 93.7058286,119.380451 L93.2267113,119.325649 C92.8098803,119.276405 92.3805845,119.236671 91.9515,119.185101 Z M116.805444,110.740812 C112.376671,111.092458 107.971468,111.239368 103.530888,111.283052 L102.864528,111.288843 C98.9404437,111.318643 94.9840352,111.480538 91.0506549,111.376553 C91.2857958,113.416295 91.5203028,115.456037 91.7567113,117.495356 C92.3199507,117.469148 92.8859366,117.468937 93.4365,117.44907 C94.5564296,117.408702 95.6725563,117.398557 96.7931197,117.396021 C99.1016408,117.390737 101.410162,117.410816 103.718894,117.406166 C106.09819,117.401094 108.477063,117.360937 110.855937,117.316131 C112.784599,117.27999 114.733754,117.134792 116.667697,117.140076 L116.805444,110.740812 L116.805444,110.740812 Z M116.992838,102.038675 C116.479632,102.209147 115.873789,102.220111 115.209481,102.25059 L113.495017,102.336014 C112.700396,102.374975 111.905683,102.411623 111.110514,102.440663 C108.461007,102.537673 105.8115,102.628342 103.16157,102.712671 C100.446148,102.798902 97.7176268,102.848992 95.0017817,102.763395 C93.6714296,102.721336 92.3522746,102.651591 91.0259366,102.540632 C90.6980493,102.513156 90.3638239,102.495191 90.0289648,102.47152 C90.3376268,105.174056 90.6475563,107.87617 90.9585423,110.578283 C94.8731197,110.097673 98.8179085,109.798401 102.727627,109.301305 L106.26284,108.849709 C109.79639,108.398641 113.327028,107.955955 116.873472,107.582816 L116.992838,102.038675 L116.992838,102.038675 Z M117.1815,93.2403734 C116.428493,93.4263616 115.57031,93.4170827 114.847202,93.4627464 L114.713261,93.4720133 C113.34319,93.5759977 111.969528,93.6279898 110.596289,93.6618059 C107.904739,93.7281699 105.2115,93.7613519 102.519106,93.7778372 L100.900071,93.7879059 C98.7417338,93.8005531 96.5846408,93.8060313 94.4256549,93.7556454 C93.0407958,93.7235202 91.6591056,93.6556767 90.2753028,93.5863538 C89.8607958,93.5654301 89.436993,93.5516924 89.0119225,93.530346 C89.3011479,96.0889526 89.593331,98.6469252 89.8848803,101.205109 C90.3395282,101.132827 90.7962887,101.077876 91.2317113,101.004326 C92.346993,100.815802 93.460162,100.665321 94.5834718,100.53069 C97.0164296,100.239027 99.4620634,100.029156 101.90643,99.8520446 C104.415866,99.670072 106.927415,99.516209 109.437275,99.3401542 L111.214827,99.2147971 C111.807327,99.173663 112.39988,99.1338763 112.992697,99.0975241 C114.005092,99.0353871 115.181852,99.1055554 116.186007,98.885117 C116.457908,98.7718333 116.75981,98.7458372 117.062134,98.8105104 L117.1815,93.2403734 L117.1815,93.2403734 Z M117.409458,82.9419076 C117.148965,83.2728822 116.75981,83.4464008 116.295866,83.5064243 C113.879153,83.8200094 111.400252,83.8704217 108.963102,84.0182041 L108.533472,84.0453675 C106.017063,84.2112775 103.499176,84.3414693 100.980866,84.475254 C98.3938944,84.6126317 95.8073451,84.7246474 93.2182606,84.8148939 C92.119088,84.8531748 91.0144159,84.8576362 89.9135854,84.8435699 L89.4420634,84.8364517 C88.9899507,84.8288431 88.5165,84.8298998 88.041993,84.8144712 C88.3045986,87.2069566 88.5697394,89.5992305 88.8386831,91.9908705 C89.3224859,91.9382442 89.8060775,91.8980877 90.2753028,91.8484204 C91.6582606,91.7021659 93.0395282,91.5576023 94.4256549,91.4483342 C97.0521338,91.241211 99.6805141,91.1167256 102.311852,90.9865339 C105.004035,90.8531718 107.697697,90.7644047 110.390303,90.6386513 C111.695725,90.577571 113.000725,90.5016963 114.302345,90.3816493 C115.214599,90.2977432 116.29819,89.9870583 117.249951,90.1011875 C117.301923,87.71462 117.356007,85.3282638 117.409458,82.9419076 Z M117.621782,73.7164673 C117.580585,73.7802951 117.532415,73.8420094 117.473894,73.8994967 C116.409904,74.9510616 115.098577,74.8699935 113.688648,74.9803121 L113.602204,74.9873166 C112.220303,75.1035593 110.837768,75.2140955 109.454387,75.3138528 C106.689106,75.5135789 103.918331,75.6532814 101.149035,75.7777667 C98.3148803,75.905211 95.4625563,75.9929213 92.6256549,75.9350114 C90.8089648,75.8978137 88.9062887,75.9043656 87.0532606,75.727254 C87.337838,78.3621581 87.6241056,80.9968509 87.9124859,83.6313323 C88.4334718,83.5330544 88.957838,83.4578137 89.4545282,83.3796141 C90.7062887,83.1826356 91.9593169,82.9846004 93.2182606,82.8396141 C95.7340352,82.5498528 98.2504437,82.2789018 100.771077,82.0343695 C102.926711,81.8253088 105.081612,81.6130192 107.238835,81.4219624 L108.533472,81.310072 C111.107345,81.093438 113.713754,80.736256 116.295866,80.6834184 C116.721359,80.674753 117.202627,80.906393 117.44643,81.272029 C117.503472,78.7533675 117.562627,76.2349174 117.621782,73.7164673 Z M117.800514,66.247982 C117.143261,66.3278724 116.435092,66.2824321 115.828542,66.302299 C114.294951,66.352389 112.761148,66.3988861 111.227345,66.4441151 L102.024317,66.7159115 L102.024317,66.7159115 C98.891007,66.8082716 95.7467113,66.8775945 92.6121338,66.833211 C91.2332324,66.813809 89.8483415,66.8115264 88.4699364,66.7365379 L88.0107254,66.7087256 C87.4434718,66.6708939 86.7473451,66.6656102 86.0674859,66.5964986 L86.8700915,74.0332814 L86.8700915,74.0332814 C88.7141479,73.7667828 90.6145197,73.6670874 92.4428961,73.5108091 L92.8335423,73.4763734 C95.530162,73.230573 98.239669,73.0680446 100.941148,72.8850153 C103.712345,72.6973362 106.479528,72.4695006 109.246923,72.2363812 C110.630092,72.1201386 112.013049,72.0041072 113.395162,71.8768744 L113.565899,71.8600573 C114.871488,71.723677 116.099167,71.4335495 117.255444,72.2036219 C117.424669,72.3160603 117.557134,72.4665417 117.647768,72.6349879 C117.698261,70.5060564 117.747697,68.3769135 117.800514,66.247982 Z M118.014951,57.5688822 C112.410232,57.7946043 106.804669,57.965798 101.195725,58.0410387 C98.0385423,58.0833088 94.8853732,58.0535084 91.7286127,57.9875671 C90.3597864,57.9588235 88.979609,57.8933414 87.6118214,57.7884491 L87.0995282,57.7472618 C86.4492465,57.6925221 85.766007,57.6527883 85.0857254,57.5872697 C85.3669225,60.1441855 85.6457958,62.7015241 85.9225563,65.2592853 C86.5917163,65.1348604 87.2911156,65.0774982 87.8774818,65.0024201 L88.0107254,64.9847413 C89.467838,64.7841699 90.9386831,64.6672932 92.4029789,64.5383695 C95.2542465,64.287074 98.119669,64.1251796 100.978542,63.9875906 C103.906077,63.84662 106.835092,63.727207 109.763049,63.5970153 L112.691265,63.4658841 C113.17927,63.4442795 113.667275,63.4230035 114.155303,63.4023616 C114.852697,63.372984 115.54988,63.3448744 116.247063,63.3159194 C116.591007,63.3017589 116.948472,63.2550505 117.292838,63.2728039 L117.390836,63.2596326 C117.436018,63.2538754 117.475923,63.2492595 117.512556,63.2453284 C117.606218,63.1739977 117.707069,63.1148489 117.813887,63.0699614 L117.878683,63.0447569 L118.014951,57.5688822 Z M84.1667113,49.3439742 C84.426993,51.6457902 84.6843169,53.9482403 84.9382606,56.2509018 C85.7376972,56.1595984 86.5466408,56.1090857 87.3099507,56.0403969 C88.8490352,55.9023851 90.3953028,55.7814928 91.9390352,55.7104791 L95.0243169,55.5671444 C97.0809836,55.4720055 99.1375563,55.3799977 101.195725,55.3048978 C106.828542,55.099254 112.461148,54.8635984 118.090585,54.5759507 C118.130303,53.0142834 118.171289,51.452616 118.21312,49.8909487 C117.942908,50.1804986 117.552486,50.3709252 117.039528,50.3696571 C111.129528,50.3538059 105.21488,50.3880446 99.3055141,50.2908235 C96.3475563,50.2420016 93.3929789,50.1703538 90.4384014,50.0186043 C88.9926972,49.9444204 87.5389648,49.7930935 86.1042465,49.5942129 C85.4924155,49.5094614 84.8229085,49.4490153 84.1667113,49.3439742 Z M83.2208662,41.1416806 C83.4986831,43.4995045 83.7712183,45.8581738 84.0393169,48.2172658 C84.7732606,48.0862286 85.5315,48.016483 86.2162183,47.9232775 C87.6874859,47.7231288 89.167838,47.5637706 90.649669,47.4800759 C93.5330493,47.3169135 96.4181197,47.2346982 99.3055141,47.1734067 C105.214458,47.0478646 111.129317,47.04871 117.039528,47.0020016 C117.594739,46.9975632 118.006923,47.2173675 118.277556,47.5453832 C118.318542,46.0729057 118.361852,44.6004282 118.40643,43.1277393 C117.835585,43.0675045 117.269599,42.982119 116.745866,42.9455554 C115.136218,42.833117 113.525937,42.7304008 111.915021,42.6380407 C108.553331,42.4450779 105.188472,42.280436 101.824458,42.1339703 C98.4595986,41.9875045 95.0936831,41.8444204 91.7277676,41.7197237 L90.2556979,41.6659446 C87.9149852,41.5788481 85.5345496,41.4688693 83.2208662,41.1416806 Z M82.1624155,32.2613753 C82.4516408,34.6494223 82.7364296,37.037892 83.0205845,39.4267843 L83.106993,40.1660877 L83.106993,40.1660877 C85.9221338,39.6186904 88.8889648,39.4582755 91.7277676,39.3375945 C95.0943169,39.194299 98.4549507,39.1205378 101.824458,39.1308939 C105.190585,39.1410387 108.551641,39.2207178 111.915021,39.3597863 C113.595655,39.4291092 115.276077,39.5094223 116.955655,39.6007256 C117.417486,39.625665 117.958965,39.6123499 118.516289,39.6203812 C118.528331,39.2450231 118.538683,38.869665 118.55157,38.4945182 C118.602697,36.9740642 118.652768,35.4536102 118.704951,33.9333675 C117.568926,34.5170701 116.091825,34.7525079 114.950155,35.00128 L114.819951,35.0300642 C112.93481,35.4536102 111.009951,35.7281542 109.085725,35.8959663 C105.306993,36.2256728 101.488965,36.1024556 97.7138239,35.7831053 L97.0525256,35.7265079 C93.7374119,35.4389544 90.3006285,35.0744742 87.0868521,34.2537746 C85.556007,33.8629879 83.9734014,33.3160133 82.6016408,32.5232384 C82.4590352,32.4408117 82.3117817,32.3535241 82.1624155,32.2613753 Z M114.082289,3.8821456 C114.115035,3.75301057 114.308345,3.72363288 114.371937,3.84431389 C114.818345,4.69267397 114.984401,5.71095969 115.294331,6.6199773 C115.627923,7.59726106 115.93912,8.58173072 116.307148,9.54717886 C117.075951,11.5643061 117.982923,13.5025996 119.06419,15.3711476 C120.135106,17.221308 117.136585,18.542036 116.348556,16.5164548 C115.534965,14.4262004 114.866303,12.2649323 114.461725,10.0561104 C114.26419,8.97843523 114.088204,7.88596556 114.031162,6.79095969 C113.981937,5.85045088 113.849683,4.79961722 114.082289,3.8821456 Z" id="ðŸ–-Ink" fill="#000000"></path>
                    </g>
                    <g id="head/hat-hip" transform="translate(78.591549, 38.043053)">
                        <path d="M88.4325423,59.8527335 C88.3484577,55.1180642 88.2555,50.28871 87.5519789,45.6001151 C86.8640915,41.0163499 84.9717676,36.8730387 81.7199366,33.544483 C74.8129648,26.4741816 64.800993,24.7472384 55.4815563,23.1646474 L39.5479648,20.4587295 C34.6869085,19.6334067 29.5009225,18.3141581 24.5895845,19.484616 C22.1695141,20.061391 20.1143028,21.4013519 18.2359225,22.9866904 C16.4253592,24.514753 14.4787394,26.1556767 13.2519085,28.211481 C12.0229648,30.2702442 11.6002183,32.67689 11.2007113,35.0053362 C10.7500775,37.6305182 10.400007,40.2762012 10.1513451,42.9282247 C9.65296479,48.241571 9.58493662,53.5948626 9.94641549,58.9191992 C10.1215563,61.5016885 10.4002183,64.0767804 10.755993,66.6404595 C10.9324014,67.9117315 11.131838,69.1798333 11.3570493,70.4434967 C11.4233873,70.8161072 11.4738803,71.228663 11.5419085,71.6454458 C11.0393028,73.0754419 10.753669,74.5563734 10.7766972,76.0309644 C10.8445141,80.3746356 14.5093732,83.1092971 18.2040211,84.5775476 C20.3462746,85.4288665 22.5859225,86.0073323 24.6907817,86.9584086 C26.9050775,87.9587295 28.4122606,89.5804204 29.9262042,91.4303695 C32.8135986,94.9586513 36.0719789,98.1297511 39.7926127,100.775434 C47.6809225,106.384882 57.6721901,109.037962 67.2434577,107.024217 C69.5399366,106.54107 71.8566972,105.790777 73.920993,104.660264 C76.1004296,103.466769 77.7392324,101.737289 79.1154296,99.6924751 C81.6707113,95.8964125 83.5032465,91.6218528 84.8895845,87.2720524 C86.3035986,82.8349644 87.307331,78.389845 87.8547254,73.7631757 C88.4002183,69.1515123 88.5151479,64.4929292 88.4325423,59.8527335 L88.4325423,59.8527335 Z" id="ðŸŽ¨-Background" fill="#FFFFFF"></path>
                        <path d="M37.586831,3.96573464 C44.180493,3.05840783 53.2812676,6.00737847 56.565,11.9535076 C72.2423239,8.2561456 92.015493,8.13504188 104.936831,20.4434489 C118.419718,35.0439499 101.484507,54.2947914 90.255,58.635081 C91.0726056,62.609946 89.7978169,88.0744861 80.7777465,99.4330849 C73.6191549,109.057132 56.948662,113.498658 49.2346479,102.003527 L49.1744756,101.908679 C48.3480316,100.581132 49.0597999,100.62376 49.908169,101.611261 C57.461831,108.256537 67.7321831,108.370032 75.6464789,101.357007 C90.4791549,88.5386114 88.9497887,57.1087092 81.8917606,38.9260321 C61.7938732,36.7178442 40.2754225,42.8117072 26.3940845,57.9462904 L27.3327465,63.5994881 C27.4926761,64.5626114 27.6743662,65.5248892 27.8129577,66.4913941 C27.9016901,67.1106505 27.9116197,67.7265252 27.4827465,68.2278481 C26.0666197,69.8827209 23.6799296,67.3959734 21.7161972,66.406854 C21.1364789,66.3252728 20.5557042,66.2937816 19.9861268,66.3339382 C10.551338,67.549625 12.4102817,85.858901 22.7797183,82.6495468 C23.6509859,82.1065879 24.399507,82.2722865 24.7375352,83.0602004 C27.2091549,85.3250301 28.8388732,89.3643569 32.9452817,93.2548932 C34.3941549,94.7142669 35.7126761,95.9352376 37.3423944,97.1059068 C38.2996479,98.0743139 41.1880986,99.0617425 40.2724648,100.71894 C38.5409155,104.489852 28.3301408,92.6447249 26.5248592,89.3690067 C20.8685915,91.603402 14.6002817,90.8444431 8.73866197,90.2983139 C-22.1845775,88.6899382 -18.0564085,56.0807014 7.2906338,35.4928579 C12.0619014,31.9789479 17.3260563,29.1124039 22.7980986,26.9065409 C23.5451408,26.6053667 23.2187324,25.3782669 22.4611268,25.6836681 C18.8404225,27.1434646 15.3107746,28.8809753 11.9461268,30.8919734 L11.9410329,29.6896896 C11.9361033,27.6646896 11.9678521,25.5564705 12.3194366,23.7062748 C12.4952113,22.4242239 12.7907746,21.0548853 13.2458451,20.024764 C13.8084507,16.8665566 22.6214789,6.0259773 37.586831,3.96573464 Z M19.5734366,70.5373996 C20.0509014,70.0836305 20.9422394,70.6246873 21.3673099,70.6111609 C22.4542817,70.7599515 23.4869577,71.2192157 24.2923099,71.7860571 C24.8240704,72.0840611 25.1967465,72.3638888 25.5081549,72.6213135 L25.5166056,72.6189886 C25.5142817,72.6189886 25.5113239,72.6213135 25.5087887,72.6219476 L25.5381,72.6417614 C25.9915376,72.9640533 27.6514411,74.77939 26.6027324,74.2911922 C26.5245634,74.1895327 26.444493,74.0918888 26.3637887,73.9961472 C26.3551268,74.0092509 26.3430845,74.0221432 26.3287183,74.0346129 L26.387625,74.122067 C27.2789615,75.4633988 25.7400535,74.0502528 25.5032958,73.6748947 C25.4920986,73.6839828 25.4794225,73.6901119 25.4669577,73.6966638 L25.7752888,74.0720727 C25.8183948,74.1253714 25.8522835,74.1679221 25.8804085,74.2039045 L25.945426,74.2666956 C26.9759912,75.2800555 27.0081869,76.1920426 25.8109014,74.6938145 C25.8580141,74.7644055 25.895831,74.8392235 25.9011127,74.9055875 L25.9720666,74.9960724 C26.912131,76.2079083 26.1475002,75.7775357 25.6803678,75.2599649 L25.6412775,75.2154462 L25.6492759,75.2275339 C26.0838492,75.8972591 25.2215971,75.4273439 25.0692326,75.0691011 L25.0628028,75.0528986 C24.8967746,74.9173808 24.7946075,74.7652932 24.759565,74.726887 L24.7530845,74.7204446 C23.9447746,73.8919515 22.7730845,73.1909025 21.7778028,72.8723977 C21.633507,72.8449221 21.4875211,72.8229417 21.3400563,72.8073018 C20.7415352,72.6737284 20.1364648,72.5822137 19.5250563,72.5327577 C19.4502676,72.523881 19.3744225,72.4689299 19.3178028,72.3979162 C18.39326,72.3667242 18.6786544,71.9876128 19.0622401,71.9172123 L19.0689535,71.9160568 L18.9928545,71.9096487 C18.3995214,71.8517198 17.9943094,71.6387496 18.5942451,71.508036 L18.6702676,71.4929143 C18.6609718,71.4783311 18.6527324,71.4637479 18.6447042,71.4491648 C18.1309014,71.3927342 18.4661831,70.8931022 18.7513944,71.0139945 C18.6313944,70.621517 19.1798451,70.8174387 19.2482958,70.7591061 C19.3004789,70.7011961 19.365338,70.6500493 19.4027324,70.6473018 C19.5679437,70.5306364 19.4878732,70.5412039 19.5734366,70.5373996 Z M22.7171831,64.1830262 L22.5967606,64.2534059 C22.4993662,64.3102591 22.3992254,64.3480908 22.298662,64.3702826 C22.4406338,64.4307288 22.5809155,64.496036 22.7197183,64.5657816 C22.7174648,64.480537 22.7158685,64.3953863 22.7158685,64.3103922 L22.7171831,64.1830262 Z" id="ðŸ–-Ink" fill="#000000"></path>
                    </g>
                    <g id="face/Calm" transform="translate(112.183099, 77.354207)" fill="#000000">
                        <path d="M36.1355807,50.7576477 C34.5792518,51.2085912 32.9087172,51.248911 31.3223041,50.7832029 C29.8834014,50.360756 28.4059706,49.4311146 27.3469701,48.2009743 C26.4062119,47.1081848 25.7969355,45.7801752 25.8208659,44.3626205 C25.8235881,44.200724 25.8814539,44.0655898 25.9704694,43.960699 C26.0662981,43.8477797 26.2001424,43.770241 26.3435243,43.7365861 C26.4909826,43.7019744 26.6468689,43.7142451 26.7796083,43.7745639 C26.8997736,43.8291689 27.0027261,43.9219168 27.0671023,44.0574747 C27.2298518,44.271353 27.3919691,44.4820638 27.5547228,44.6869305 C28.8633068,46.3034013 30.1305682,47.5114248 32.0982932,47.9447089 C33.1659227,48.1798436 34.2322094,48.0755764 35.2105654,47.7168291 C36.2578485,47.3328074 37.20456,46.6576063 37.9464279,45.7935679 C38.281691,45.4030846 38.6775074,45.243703 39.0645477,45.2410241 C39.5031488,45.2379884 39.9366673,45.4418724 40.2632619,45.7677405 C40.5842915,46.088056 40.7992466,46.5233339 40.8187288,46.9786674 C40.8358275,47.3782965 40.7055112,47.7957375 40.3588211,48.1681599 C39.2168736,49.3949406 37.7369013,50.2936679 36.1355807,50.7576477 Z M36.0875289,30.5120405 C37.6828906,31.482148 40.1137318,33.7442494 38.3974899,36.149264 C36.3773089,38.2698449 33.4687045,35.8384541 32.0353946,34.7388307 C30.7063626,33.8866164 29.2131206,36.0784478 30.4461973,37.0735516 C40.8033244,44.7445605 45.006466,30.7657101 36.8944406,29.3714319 C36.0012775,29.2177885 35.6695544,30.2119271 36.0875289,30.5120405 Z M21.1637235,26.2433841 C20.6509637,25.9153345 20.0477929,25.8027312 19.3793045,26.1069807 C18.8569075,26.3446314 17.940682,27.1368895 17.3030499,28.1783611 C16.8668241,28.8908671 16.5574904,29.7267298 16.6218894,30.5973822 C16.6368454,30.7995814 16.5621603,30.9486689 16.4443587,31.0589029 C16.3513216,31.1459632 16.2169326,31.2099444 16.0590844,31.2299454 C15.9250721,31.2469262 15.7750703,31.2316074 15.6531033,31.1935253 C15.4210899,31.1210832 15.2982973,30.9705246 15.2520315,30.8476073 C14.8055787,29.6614902 14.9979153,28.3378565 15.4982762,27.1437063 C16.1735435,25.5321285 17.3998475,24.1822314 18.2032848,23.7470076 C19.5781337,23.0019868 21.2000694,22.9676976 22.5768864,23.7266868 C23.7489015,24.3726733 24.4817361,25.4155943 25.2105921,26.4786834 C25.3655302,26.7046719 25.519308,26.9290034 25.6782406,27.1493889 C25.9967578,27.5909936 26.0284618,28.0289715 25.9051123,28.4045405 C25.7684635,28.8206031 25.4200374,29.1717323 24.9843378,29.35549 C24.5816341,29.5253316 24.1142443,29.5492397 23.7006589,29.3747309 C23.3512777,29.2273126 23.0306409,28.9399379 22.8277572,28.4523361 C22.4860607,27.6311552 21.9167617,26.725157 21.1637235,26.2433841 L21.1637235,26.2433841 Z M47.2057975,28.0703558 C46.854626,28.2534063 46.5798898,28.3085969 46.1903367,28.191838 C45.9749147,28.1271071 45.7620049,28.0030471 45.5953149,27.8362919 C45.430116,27.6710283 45.3109252,27.46551 45.2645956,27.237516 C45.1506491,26.6748327 44.842904,26.1481247 44.4043542,25.8047626 C44.0295178,25.5112849 43.5563894,25.3557348 43.0316008,25.4434901 C42.4653137,25.5380595 41.9257878,25.9013871 41.5541977,26.329742 C41.4300015,26.4730774 41.332649,26.6358657 41.2347764,26.7975552 C41.0516902,27.0999327 40.8737374,27.3809999 40.6212345,27.6030618 C40.525519,27.6875497 40.3812902,27.7460664 40.2415987,27.7460664 C40.1848244,27.7460664 40.1272065,27.7368245 40.0723021,27.7197062 C39.5086645,27.1537742 39.4002724,26.7244568 39.4184441,26.298631 C39.4374998,25.8520897 39.6134808,25.3999711 39.8978673,24.9781311 C40.5649681,23.9885981 41.8315691,23.1772733 42.6862814,22.9935044 C43.8568041,22.741864 45.0192729,23.0439416 45.9512868,23.6979617 C46.9102744,24.3709099 47.6208819,25.4157255 47.8424283,26.5931812 C47.8957249,26.8767614 47.8730769,27.1828542 47.7651208,27.4482499 C47.6596313,27.7075815 47.4757987,27.9296941 47.2057975,28.0703558 Z M23.7452657,15.6933191 C23.0428108,16.3779875 22.2113939,16.4840404 21.3702793,16.5783674 C20.9029351,16.6312713 20.5298547,16.6739192 20.1627273,16.7567903 C19.1536405,16.9846614 18.1561922,17.3278598 17.246184,17.8221314 C16.294917,18.3388343 15.2582521,18.9619766 14.5124493,19.76027 C14.3351058,19.9502351 14.1679314,20.1495633 14.0005235,20.3493278 C13.8478707,20.5314882 13.7008186,20.7068549 13.5458401,20.8759439 C13.3678581,21.0701644 13.1988448,21.2737207 13.03073,21.4767452 C12.9267758,21.6480566 12.9062409,21.6901906 12.8853068,21.7340522 C12.8538048,21.7999604 12.817161,21.8737194 12.7753087,21.9528481 C12.7179906,22.0612175 12.6508527,22.1798459 12.580538,22.2874003 C12.4635502,22.4839907 12.4007768,22.5381415 12.3465338,22.5623625 C12.2565262,22.6024644 12.1711667,22.6222192 12.0883542,22.6115215 C12.010706,22.6014909 11.9375528,22.5641827 11.8653131,22.5031082 C11.5046675,22.1982812 11.3983041,21.6980217 11.4092058,21.1669949 C11.4257489,20.3611671 11.7228526,19.4689689 11.9967373,18.9205127 C12.6335735,17.6461341 13.5167793,16.3213355 14.578782,15.3702043 C15.790623,14.2845054 17.1164173,13.4625756 18.6392285,12.8962099 C19.5855664,12.5441215 20.6812594,12.2209389 21.7122583,12.2617615 C22.4543706,12.2911455 23.1628225,12.5118308 23.7478918,13.0629393 C24.1071586,13.4012492 24.2796163,13.8824603 24.2796163,14.3633306 C24.2796163,14.8537795 24.1004995,15.3471245 23.7452657,15.6933191 Z M48.6344331,21.9630113 C48.5897609,22.0362559 48.52793,22.0867313 48.4591307,22.1170463 C48.3870082,22.1488257 48.306492,22.1579791 48.2292252,22.1449547 C48.1523004,22.131988 48.0791787,22.0971039 48.0211758,22.0437919 C47.9655812,21.9926933 47.9232469,21.9249248 47.9043176,21.8419028 C47.4379426,19.7927507 46.5323587,18.2681511 44.599502,17.2849986 C43.648701,16.8013523 42.5553699,16.4940619 41.5203553,16.2490617 C41.2195854,16.1778585 40.9017767,16.1317238 40.5817237,16.0849743 C39.5786546,15.9384579 38.5683479,15.770662 37.914432,14.9595487 C37.5204151,14.4709632 37.3550515,13.8461151 37.4485474,13.2746647 C37.5365789,12.7366129 37.8508666,12.2432575 38.4221896,11.9476055 C39.8445457,11.2119052 41.6121007,11.9338197 43.048451,12.5487917 C43.1549986,12.5944099 43.2595897,12.6391915 43.3619269,12.6824007 C44.7665657,13.2755401 46.0476705,14.0584708 47.1007622,15.1781503 C47.9363407,16.0664316 48.7105159,17.3795935 49.0223132,18.7304738 C49.2817173,19.8543575 49.2207229,21.0016883 48.6344331,21.9630113 Z" id="ðŸ–-Ink"></path>
                    </g>
                    <g id="facial-hair/Goatee-1" transform="translate(104.577451, 109.479380)" fill="#000000">
                        <path d="M43.9255563,6.62122427 C41.5760493,5.56257065 37.3570352,6.48638278 35.8253451,6.85370959 C32.2644296,7.70798748 28.6821761,9.55413229 27.5751338,12.4464611 C26.3275986,15.7061166 28.8167535,16.7322223 29.1828803,16.5646215 C31.6479507,16.7383515 34.5835141,15.1880971 37.1666831,14.788011 C39.2637254,14.460418 41.4759085,14.1744611 43.4406972,13.0597996 C44.8752042,13.849193 48.1152042,14.2759092 50.7300634,14.9661793 C52.9570352,15.5537331 53.9218944,16.827964 55.9864014,16.5570129 C58.4607676,16.2323789 57.4479507,11.0261871 54.6902746,8.9171225 C51.6721056,6.60896595 46.5674577,5.6728955 43.9255563,6.62122427 Z M48.5776268,28.8817573 C46.5220761,29.3831108 46.3840352,24.8760352 46.1537535,23.2837221 C45.9738469,22.0397339 44.9592008,18.8316443 42.3868521,18.9700626 C39.8145035,19.108481 38.8475561,21.796294 38.9780493,23.4680196 C39.0626709,24.5520924 40.0612712,30.0433492 36.8738239,30.738047 C34.8416408,30.7308611 32.4906549,30.5936947 30.3538944,30.1995264 C27.8389648,29.629726 24.5687141,27.6347621 23.7048803,31.5635812 C23.393986,32.9775653 34.4723451,37.1785245 39.388331,37.5585323 C44.3739031,38.5692259 50.2070662,37.0151109 53.756631,33.1996929 C54.5641562,32.3316861 56.8385145,28.7288625 57.0005829,27.8461124 C57.3410764,25.9915219 56.5527386,24.798077 54.2588239,25.4517534 C52.6384014,26.3174442 49.8995426,28.5593391 48.5776268,28.8817573 Z" id="ðŸ–-Ink"></path>
                    </g>
                    <g id="accessories/Glasses-5" transform="translate(88.521127, 88.978474)" fill="#000000">
                        <path d="M74.5743803,22.486699 C71.4036761,24.0143389 66.9801549,21.7611335 64.8482535,19.4009847 C64.0722676,18.5416344 63.4735352,16.0829965 63.7720563,14.523654 C64.5805775,10.3006638 67.6186056,7.76615108 70.8258592,6.90067162 C75.2717746,5.70062466 79.746,8.74068728 79.2243803,12.3281472 C78.7298028,15.7281393 77.9804366,20.6599984 74.5743803,22.486699 M52.9931831,14.3746521 C52.7390282,18.9768047 49.0445915,23.0049299 44.6290986,24.198425 C37.5148732,26.1842724 33.9989577,21.1813996 32.4064225,15.7917558 C32.2481831,15.2561941 31.8761408,13.621611 32.8743803,12.2195131 C36.8003662,6.7043272 46.3524085,7.64441331 51.1232535,9.15852681 C52.5197324,10.494472 53.0905775,12.4226207 52.9931831,14.3746521 M78.0193099,6.43696908 C78.0171972,6.43971663 78.014662,6.44204149 78.0125493,6.44478904 C77.9962817,6.43485558 77.9802254,6.42471076 77.9635352,6.41498865 C77.9819155,6.42259726 78.0013521,6.42914912 78.0193099,6.43696908 M83.9715634,6.96893777 C83.5583239,2.28330176 68.8619155,4.0774544 67.1436761,4.46147789 C62.4543803,5.8411726 58.404169,9.59475382 53.1613521,7.94474207 C47.7290282,1.88680861 29.4355775,3.62410802 25.6006479,6.71003366 C24.8747324,6.42513346 23.9920563,6.57793973 23.0567746,6.8467773 C18.2538169,6.67325871 -3.67238028,8.32961096 0.812408451,14.4619397 C1.49311268,14.9343076 2.1731831,14.4536971 2.19198592,13.4806403 C25.571493,5.03783014 23.3052254,12.9459241 26.0779014,12.0223233 C26.5012817,12.1442724 26.9430423,12.2214153 27.3294507,12.3025738 C29.475507,12.9932665 30.204169,12.7798027 30.4868451,15.1898301 C32.4290282,33.7994348 57.2012113,27.3764994 55.1694507,12.1119358 C57.1811408,12.0011883 58.9407887,11.1310591 61.0680423,11.9806873 C62.5450141,26.3603272 74.1121268,26.9406951 77.5931831,21.9559984 C80.2181831,18.4961941 79.1772676,13.2749965 82.785507,10.5532274 C84.2098732,11.7456658 84.3015634,7.72113346 83.9715634,6.96893777" id="ðŸ–-Ink"></path>
                    </g>
                </g>
            </g>
        </g>
    </g>
</svg>