<?xml version="1.0" encoding="UTF-8"?>
<svg width="240px" height="324px" viewBox="0 0 240 324" version="1.1" xmlns="http://www.w3.org/2000/svg" xmlns:xlink="http://www.w3.org/1999/xlink">
    <!-- Generator: Sketch 62 (91390) - https://sketch.com -->
    <title>peep-45</title>
    <desc>Created with Sketch.</desc>
    <g id="Introduction" stroke="none" stroke-width="1" fill="none" fill-rule="evenodd">
        <g id="variations" transform="translate(-1566.000000, -758.000000)">
            <g id="images" transform="translate(126.000000, 110.000000)">
                <g id="a-person/bust" transform="translate(1440.000000, 648.000000)">
                    <g id="body/Device" transform="translate(31.056338, 135.052838)" fill-rule="evenodd">
                        <path d="M157.123585,62.3330771 C156.459782,60.5099695 157.429077,58.6915115 157.966754,56.9277933 C159.876824,50.8111045 161.962246,44.6942043 164.91281,38.9898599 C166.030415,37.0817894 164.191754,34.7408736 162.06112,35.2789714 C158.413585,35.7900164 154.652387,35.3831671 150.998514,35.1576564 C149.662246,31.6991202 146.095838,30.2644744 143.288937,28.2727092 C140.103655,26.2839029 137.005204,23.999629 133.692528,22.255989 C133.508303,20.6085135 131.511401,20.2001847 130.290275,21.378674 C126.936401,19.2915898 122.9145,19.6792063 119.319359,18.3117699 C116.587544,13.8944389 116.382579,9.2495688 115.659294,4.98802928 C115.344015,3.13043572 115.678977,1.3380991 114.410134,-0.318124462 C110.14781,-6.31518904 93.3064014,-8.9154317 87.0970352,-5.36157652 C83.7545704,-7.44696986 83.6740775,-3.67014012 83.143162,-1.33915773 C82.5530915,-0.17292681 82.2338662,1.14780117 82.3325282,2.53933151 C78.7422465,10.0412102 70.5283732,13.4327483 63.1722465,16.1800908 C62.2494296,15.2917855 60.9304859,15.4040125 60.0524577,16.1390888 C53.6764014,17.5257581 47.488162,19.9632611 42.1460493,23.7692571 C36.0767535,25.5450223 31.8023873,30.4832219 28.7115423,35.7781808 C28.3709789,36.3363569 28.2906972,36.9055233 28.3902042,37.4281926 C18.8854859,51.3661104 14.3491479,68.0520047 13.7119648,84.9046544 C7.59978169,88.5743295 16.6171056,121.540326 18.7162606,128.384271 C18.7183732,128.383425 18.7204859,128.38258 18.7225986,128.381523 C20.0844296,130.793453 21.6306972,137.675864 25.0388662,137.143472 C27.3767535,139.787887 31.1024577,139.267966 34.2750634,139.471073 C33.7583028,141.453962 34.0122465,143.722807 34.6272465,145.682236 C35.3546408,148.014697 38.9242183,148.093742 39.4304155,145.550776 C71.0242183,151.691347 103.440908,146.791825 135.389852,147.713523 C144.627317,147.779042 153.863937,148.064999 163.079218,148.723355 C164.376824,148.815926 165.692387,147.489492 165.604077,146.197085 C163.62281,125.110243 161.762176,97.3703061 159.546613,76.4899538 C159.02119,71.7280204 158.605627,66.9138834 157.123585,62.3330771 Z" id="ðŸŽ¨-Background" fill="#FFFFFF"></path>
                        <path d="M83.6642324,-4.06010254 C83.7548662,-4.30738239 84.124162,-4.27462309 84.1311338,-3.99690881 C84.2766972,1.93210098 82.8012042,9.17740039 78.058669,13.1822771 C75.6241978,15.2380699 72.405587,16.1789162 69.4497852,17.2600198 L69.1163451,17.3830755 L63.8942324,19.329189 C62.509162,19.8453065 61.0150775,20.6393495 59.7916268,19.910191 C60.7816268,22.3660814 61.6127535,24.8896039 62.8184577,27.2565159 C64.3193028,30.2029503 66.1338803,32.8987233 68.3547254,35.350598 C77.1531761,45.0640462 91.0778239,48.0269659 103.573669,45.1809229 C110.008246,43.7152086 116.269585,40.9376431 120.659514,35.8715765 C123.995852,32.0207742 125.912683,26.8524141 126.364373,21.7544337 C126.232331,21.7755687 126.093951,21.7747233 125.951768,21.7434434 C124.370727,21.3984471 122.774617,20.5506404 121.383364,19.7192097 L121.249373,19.6388172 C119.910782,18.8327272 118.51557,17.9089151 117.554937,16.6564532 C116.918895,15.82727 116.267124,14.0602317 115.599624,11.3553382 C115.326852,9.83051282 115.070998,6.79273503 115.114796,5.25135734 C115.11881,5.10594834 115.76381,5.02014012 115.832683,5.17125558 C116.428656,6.47977808 116.621363,9.35487272 117.081403,10.7167772 L117.174232,10.9886724 C117.66543,12.4108485 118.086697,14.1424415 119.105218,15.2921871 C121.017401,17.4511303 123.902472,18.365009 126.477613,19.4477566 C126.662472,17.0077174 130.558246,17.0645706 130.50881,19.6094395 C130.506063,19.7474513 130.499937,19.884829 130.495077,20.022418 C130.802313,20.1913926 131.097784,20.3846196 131.374004,20.5710702 L131.643528,20.7541127 C132.663528,21.4481871 133.691345,22.1078114 134.777472,22.6966333 C136.880218,23.8368681 139.106345,24.7408133 141.260852,25.7757957 C143.4405,26.8230364 145.479021,28.0706372 147.382331,29.563827 C148.276275,30.264964 149.133471,31.0117424 149.946434,31.8053017 L150.167049,32.0228877 C150.940923,32.7938935 151.947824,33.6559914 152.388739,34.6692047 C152.485923,34.892602 152.972778,35.4122112 153.236962,35.429538 C157.330488,35.6980154 161.415279,36.0771291 165.483106,36.6455413 C166.536275,36.7926411 166.952559,37.335635 166.56328,38.2137605 C165.225534,41.23142 159.988458,53.282825 158.595782,56.5171186 C158.758458,58.8931186 158.538739,61.6903397 158.685359,64.0669738 C158.899796,67.5352321 159.18057,71.0022223 159.51712,74.4607585 C160.721345,86.8325706 162.546908,99.1441479 164.196486,111.461854 C165.02212,117.62652 165.774866,123.800273 166.517894,129.975295 C166.893106,133.095882 167.211486,136.219639 167.456556,139.353541 C167.558641,140.659348 167.651261,141.966101 167.732901,143.273369 L167.803262,144.432916 C167.900126,145.892161 168.123657,147.285704 167.220993,148.538191 C166.811768,149.106301 165.87712,149.426285 165.339021,148.780821 C164.662542,147.969447 164.411134,147.363295 164.346486,146.297455 C164.297049,145.481643 164.285218,144.662027 164.248035,143.845369 C164.167754,142.075099 164.066768,140.305674 163.948458,138.537306 C163.712472,135.002261 163.443106,131.46785 163.131063,127.938723 C162.037331,115.56353 159.958669,103.281541 158.5755,90.936782 C157.878317,84.7133613 157.383106,78.4783162 157.120923,72.2204454 C156.989725,69.09542 156.94219,65.9706059 156.973035,62.8428329 C156.984655,61.6744885 157.040007,60.5116391 157.120077,59.351326 C155.047965,64.0604219 152.869585,68.7240775 150.59212,73.3258074 L150.052289,74.4156302 C148.609003,77.3241716 147.1269,80.2436434 145.392316,82.9857159 L145.094202,83.4530865 C144.391355,84.566892 143.431353,86.3229973 142.149866,86.6744806 C141.257261,86.9194356 140.166486,86.7469738 139.251275,86.7294317 C138.343035,86.712101 137.433739,86.7082967 136.526134,86.6715217 C135.508035,86.6305198 134.536627,86.496735 133.552754,86.2312791 C133.389232,86.1873182 133.234585,86.139553 133.093669,86.0786841 C132.102401,87.7014317 130.418176,88.9374082 128.696134,89.6574787 C127.31679,90.2342425 125.871146,90.6296268 124.423064,90.9956242 L123.911979,91.123827 C122.359585,91.5108094 120.583669,91.6946841 119.708176,93.1944258 L119.504793,93.5420367 C118.853889,94.6483367 118.229402,95.619928 117.152049,96.4130795 C115.992401,97.267146 114.618528,97.8041871 113.249937,98.222238 C111.848599,98.650011 110.414596,98.9776215 108.991704,99.3284672 L108.603951,99.4248211 C107.664655,99.660054 106.716908,99.8758427 105.783106,100.131788 C105.384866,100.240845 104.979444,100.353283 104.588599,100.487702 C104.130993,100.644946 103.798458,100.890535 103.437401,101.157682 C103.112894,102.291788 101.725923,102.907663 100.5855,102.828618 C99.9865563,102.787193 99.4493028,102.583874 98.9604296,102.28587 C98.1071197,103.012492 97.1676127,103.663451 96.2978239,104.336602 C95.0798662,105.279224 93.8570493,106.215295 92.6274718,107.1427 C90.0922606,109.054363 87.5378239,110.940665 84.9567676,112.789768 C80.3754296,116.072038 75.695007,119.204038 70.9345141,122.220007 C68.9496549,123.477541 66.9514859,124.732962 64.933669,125.958371 L65.1490133,126.03823 L65.5761338,126.199733 C66.5857817,126.576782 67.7107817,127.186105 67.9064155,128.364383 C68.0614859,129.298974 67.5396549,129.943169 66.6172606,130.057299 C65.520993,130.192774 64.6678944,129.417964 63.9852887,128.678238 C63.6840211,128.352124 63.346838,128.049048 63.0582465,127.713213 C62.9405704,127.576046 62.8501479,127.417956 62.7705,127.252258 C60.7791891,128.42613 58.7666363,129.560563 56.7222071,130.621314 L56.2104296,130.884946 C51.1406408,133.478426 46.2060634,136.319819 41.0931761,138.839537 C39.7594437,139.496837 38.1333169,140.207819 36.4383169,140.693079 C36.8881056,142.437142 36.8811338,144.351976 36.8925423,146.122034 C36.9033169,147.847076 34.1629648,147.838833 34.2208521,146.122034 L34.2487365,145.293018 C34.2986338,143.898805 34.3801479,142.451584 34.7107817,141.095068 C29.7167113,141.923645 24.7277082,140.122902 23.7988099,139.582222 C22.7735282,138.985792 21.8428944,138.031334 21.0683873,137.145987 C19.410993,135.250809 18.2608521,132.979216 17.2404296,130.693886 C15.0546549,125.799858 13.5060634,120.568516 12.3738803,115.336751 C8.1998662,96.0476548 9.99521831,75.4025354 16.7737394,56.9123436 C18.4672606,52.2924376 20.4666972,47.7744023 22.7578944,43.4199523 L23.0423925,42.8816404 C25.3287429,38.5754772 27.8698521,34.2857223 31.0976831,30.6212125 C34.4597958,26.8044376 38.6071901,23.8360227 43.1228239,21.5318818 C45.3265563,20.4074982 47.5940915,19.432962 49.9116972,18.5693847 C50.2839507,18.4305276 50.6587394,18.3060423 51.0343732,18.1874748 C53.4495845,16.6471538 56.3807113,15.1736196 59.3128944,15.2315295 C59.5121197,15.2351225 59.6735282,15.3107859 59.7939507,15.4247037 C59.9352887,15.4494317 60.0766268,15.4794434 60.2181761,15.5206568 C60.5306408,15.611326 60.8606408,15.9539249 60.8158521,16.3058231 L60.8006442,16.4229044 C60.7923845,16.4800856 60.7819648,16.5353495 60.7640915,16.5892438 C60.8688803,16.6048838 60.9717676,16.6298231 61.0725423,16.6642732 C63.8779648,15.8717096 66.6381761,14.6596157 69.3757817,13.6819092 L69.999234,13.4616702 C72.2920962,12.6578334 74.6444437,11.8699503 76.5252887,10.2791695 C78.3964859,8.69657847 79.8035282,6.64669198 80.8207817,4.43068415 C82.0740211,1.70046106 82.6351479,-1.25717495 83.6642324,-4.06010254 Z M139.831669,139.937185 C140.387092,139.523784 141.043923,140.003549 141.25181,140.515228 C141.934204,142.194406 141.597021,144.803737 140.63512,146.288473 C139.638359,147.82668 137.252514,147.219471 137.194838,145.356207 C137.134627,143.413263 138.263641,141.104895 139.831669,139.937185 Z M145.569317,93.5696571 C145.619176,93.3513323 145.958049,93.3534458 146.008754,93.5696571 C146.471203,95.5400155 146.460413,97.6618935 146.5962,99.6821127 L146.611923,99.9061503 C146.77481,102.133994 146.911711,104.367966 147.009317,106.599614 C147.200937,110.990416 147.429951,115.38143 147.686641,119.768851 C147.814035,121.944491 147.950514,124.119919 148.096077,126.294714 C148.551993,126.040459 149.021641,125.817274 149.508401,125.620295 C150.237697,125.325461 150.947768,125.291645 151.731359,125.299677 C152.685655,125.309399 153.404176,126.149094 153.277838,127.084319 C153.140092,128.102816 152.243683,128.539254 151.312838,128.393845 C150.281852,128.232373 149.24643,127.982346 148.205514,127.878784 C148.3215,129.560287 148.441289,131.241368 148.568261,132.921391 C148.736641,135.145853 148.956148,137.367566 149.110373,139.592874 C149.125162,139.80507 149.141007,140.017688 149.157275,140.230941 C149.777979,139.907998 150.437134,139.742722 151.184176,139.539191 L151.378536,139.484665 C152.463137,139.173051 153.623496,138.742213 154.627415,139.471771 C155.302204,139.962315 155.436993,140.769673 154.877979,141.416616 C154.030405,142.39827 152.776294,142.207849 151.605499,142.157797 L150.975663,142.134812 C150.382036,142.111439 149.834375,142.073468 149.285725,141.923645 C149.3865,143.373297 149.439528,144.828444 149.261852,146.25696 C149.165725,147.029023 148.149739,147.231708 147.880796,146.443794 C147.178331,144.385454 147.03319,142.165641 146.776077,140.009657 C146.536001,137.996065 146.390034,135.967801 146.232782,133.94519 L146.185162,133.338596 C145.8315,128.888827 145.548613,124.436733 145.341993,119.977876 C145.135162,115.519653 145.010937,111.062276 144.9615,106.599614 C144.939029,104.573341 144.972605,102.539732 145.05191,100.513713 L145.077063,99.9061503 C145.168331,97.8224477 145.104528,95.611301 145.569317,93.5696571 Z M52.7333451,140.265687 C52.7603873,139.980998 52.9883451,139.627198 53.3274296,139.67137 C53.6398944,139.711949 53.9618662,139.692505 54.2709507,139.744074 C54.6789085,139.811706 55.0072183,140.052857 55.3866549,140.204607 C56.0033451,140.451252 56.6755986,140.578697 57.3083451,140.780536 C58.4954577,141.159487 59.1423592,142.409624 58.6507394,143.577123 C58.1337676,144.804434 56.8346831,145.082994 55.7122183,144.567933 C54.8274452,144.16211 54.1679663,143.513265 53.5730499,142.762377 L53.4044975,142.548251 C53.1481299,142.225635 52.8571727,141.865696 52.7496127,141.474822 C52.6450352,141.093969 52.6965845,140.653092 52.7333451,140.265687 Z M110.408831,134.495887 C111.88746,134.287629 113.150371,134.7933 114.518574,135.269959 L114.629746,135.308529 C116.022211,135.789351 118.053972,136.122228 118.767634,137.547997 C119.198197,138.40777 118.863761,139.549484 117.850521,139.80395 C116.245787,140.206485 114.806942,139.033173 113.480044,138.243332 L113.41031,138.202126 C112.129606,137.451621 110.807704,136.820741 109.989887,135.52622 C109.771648,135.180874 109.960944,134.559081 110.408831,134.495887 Z M58.7921197,16.8597722 C58.1997254,16.9925002 57.607331,17.1097996 57.0155704,17.2226607 C54.7645141,18.4296822 52.5795845,19.682144 50.2554296,20.7574943 C47.7895141,21.8985746 45.3326831,23.0770638 42.9903592,24.4573926 C38.2581761,27.2461597 34.3571197,30.8720853 31.1335986,35.3165706 C25.5654296,42.9938701 21.4235282,51.8475452 18.4592324,60.8309894 C17.6976127,63.1389346 17.0160634,65.4728759 16.4131056,67.8264728 C17.479162,66.840101 18.7412746,66.233737 20.1565563,65.7144493 C20.7563451,65.4944337 21.5029648,65.8668329 21.8069789,66.3863319 C21.943669,66.6196626 22.0207817,66.8504571 22.0066268,67.1241558 C21.9751479,67.7281949 21.5821901,68.4144493 20.9335986,68.5340736 C19.4215563,68.8128446 17.9513451,69.3555922 16.4933873,69.8332438 C16.2724014,69.905737 16.0824718,69.8782614 15.9307817,69.7928759 C14.4833873,75.9260501 13.5778944,82.1854004 13.2571901,88.4825824 C12.9859225,93.8136822 13.1532465,99.1866294 13.7435282,104.510332 C14.1971197,104.306379 14.6407817,104.115107 15.1381056,103.999287 C15.7831056,103.849228 16.4175423,103.666622 17.0466972,103.460344 C18.862331,102.864547 19.6905,105.863185 17.8347254,106.320124 C17.1440915,106.490261 16.4492324,106.631443 15.7455,106.734794 C15.1321901,106.824829 14.5896549,106.785095 14.0114155,106.690833 C14.4531761,110.012203 15.0565563,113.309479 15.8251479,116.559835 L15.9947462,117.271082 C16.9931258,121.422567 18.1567257,125.61275 19.8394437,129.535897 C20.6648662,131.460453 21.7577535,133.288211 23.1071197,134.892782 C23.7700775,135.681753 24.5059225,136.358074 25.3083169,136.998888 C25.9763451,137.532547 28.2471121,138.689681 30.9364648,138.689681 C33.6258175,138.689681 34.353875,138.435142 35.7107113,137.967929 C38.3940282,137.04406 40.941719,135.568983 43.4581718,134.25518 L43.7183873,134.119874 C44.8311338,133.543944 45.9396549,132.959772 47.0452183,132.370105 C46.9055704,131.242551 47.150007,130.29549 47.737331,129.253956 C48.3721822,128.127348 49.9452436,128.688489 50.0621865,129.840796 L50.0659225,129.884837 C50.083669,130.144586 50.1271901,130.409408 50.1812746,130.673385 C57.5737394,126.622434 64.8096549,122.287639 71.9304296,117.770661 C76.5172606,114.86079 81.0552887,111.864265 85.5269789,108.780031 C87.7624014,107.23823 89.9783873,105.668743 92.1724014,104.068398 C93.3216972,103.229972 94.4657113,102.384993 95.6044437,101.532618 C96.0787394,101.177549 96.5439507,100.804727 97.0193028,100.447757 C96.9037394,100.303193 96.7911338,100.158841 96.6821197,100.015968 C94.9070493,97.6911147 93.7554296,94.9198896 93.1816268,92.0609542 C92.8351479,90.3359131 92.6678239,88.5451421 92.6169085,86.7862849 L92.594518,86.0215961 C92.5594437,84.7330051 92.5502887,83.3845315 92.7876127,82.1361558 C92.4645845,82.31369 92.1345845,82.4878427 91.8056408,82.6742536 C90.6252887,83.3431773 89.4438803,84.0106215 88.2605704,84.6748955 C85.890993,86.0045002 83.5144437,87.3188877 81.1076831,88.5802262 C76.8088099,90.8334317 72.4676831,92.9765237 68.0093028,94.8972751 L65.8399469,95.8326934 C62.0749024,97.4528508 58.2791143,99.0436816 54.3645845,100.247819 C52.1566268,100.926888 49.9319789,101.507256 47.692331,102.025486 L48.5980352,103.086888 C49.2121901,103.806747 49.2229648,104.838982 48.4381056,105.444923 C47.6665563,106.040719 46.6313451,105.792594 46.117331,105.001721 L45.1803592,103.55989 C44.9800775,103.251741 44.8664155,102.963036 44.8019789,102.658903 C43.7703169,102.874819 42.7359507,103.082213 41.6987721,103.282708 L39.7380439,103.657164 C36.9382801,104.197761 34.2237315,105.268135 31.721167,106.638023 C30.8511866,107.114244 30.6087965,106.18905 31.5305701,105.544408 C34.2258158,103.659491 37.3697139,102.592859 40.6135511,101.697746 L40.7728944,101.653933 C41.9629648,101.327819 43.1509225,100.987968 44.3363451,100.635858 C44.205993,100.164124 44.1307817,99.6746372 44.1457817,99.1348485 C44.179162,97.9324767 44.2854296,96.7258779 44.3492324,95.5243515 C44.4831761,93.0025198 44.6540915,90.4887194 44.8543732,87.9715374 C44.9312746,87.0018622 45.0174718,86.0294395 45.1161338,85.0578622 C44.4804629,84.7168763 43.9322042,84.2643537 43.223462,84.0417333 L43.1038099,84.0068172 C42.3457817,83.8024415 42.6016268,82.8253691 43.2749366,82.7416744 C43.8848662,82.6662223 44.491838,82.7008838 45.0931056,82.8300188 C45.1862746,82.8503084 45.2743732,82.8729229 45.3584577,82.8984963 C45.4689507,81.9985667 45.5914859,81.100962 45.7307113,80.2084297 C46.0989507,77.8501832 46.3594437,75.3655491 47.1259225,73.0996626 C47.1827535,72.9318505 47.431838,72.871827 47.524162,73.0476705 C48.639208,75.1697087 48.6779925,77.7728346 48.8036607,80.1359277 L48.8192324,80.4183006 C48.967331,82.9963515 48.9757817,85.599553 48.9280352,88.1811969 C48.8790211,90.8416744 48.7879648,93.4953886 48.6685986,96.1535413 C48.6206408,97.2238192 48.6225423,98.3342536 48.4402183,99.3578231 C55.0757113,97.1999366 61.5939507,94.6170247 67.8417676,91.5585746 C72.2490211,89.4013221 76.6182465,87.1576274 80.9376127,84.8296039 C83.101838,83.663373 85.2762042,82.5159523 87.4381056,81.345283 C88.1955704,80.9349816 88.9524718,80.5233652 89.7090603,80.1110599 L90.8437394,79.4921636 C91.9055704,78.9124297 92.791838,78.3356548 94.0285986,78.2950755 C94.3972606,78.2828172 94.7278944,78.4557018 94.9626127,78.7171421 C95.6272606,78.2456196 96.3954296,77.9560697 97.2016268,77.9628329 C98.4151479,76.2859796 99.6472606,74.6228642 100.928387,72.9958896 L101.874853,71.791307 C103.513017,69.7131289 105.248294,67.6034245 107.33719,66.0215413 C108.269514,65.3158427 109.295007,64.7864102 110.364444,64.3489151 C110.112824,64.2874121 109.866486,64.1637722 109.646979,63.9600305 C108.6255,63.0125472 108.484796,61.2526333 108.277331,59.9304258 C108.062049,58.5593965 108.145289,57.3322967 108.357824,55.9657057 C108.44043,55.4345824 109.319725,55.3240462 109.534373,55.8118427 C109.986678,56.84035 110.465697,57.8260634 110.877303,58.8661625 L110.998669,59.1799209 C111.44043,60.3508016 112.381415,61.5825511 112.319303,62.8527663 C112.302401,63.2008603 112.185782,63.5041479 112.005782,63.7480462 C112.903458,63.4498309 113.814021,63.1839523 114.710641,62.9066607 C117.532542,62.034418 120.365218,61.186692 123.241415,60.5099483 C124.007049,60.3298779 124.776486,60.1626998 125.549092,60.0092595 C125.95388,58.0868172 126.543739,56.1998818 127.239232,54.3469738 C126.580711,54.0094474 126.154373,53.4436626 125.587331,52.9404376 C125.056627,52.4691264 124.691979,51.8953104 124.239232,51.3542536 C123.827049,50.8620188 124.058599,49.9726568 124.799303,50.0014004 L125.009162,50.0102159 C125.776517,50.0458691 126.519743,50.1252693 127.21557,50.4834904 L127.463441,50.611337 C127.803477,50.7879786 128.175613,50.9902661 128.507049,51.2293456 C128.940324,50.2319483 129.390911,49.2440912 129.846339,48.2662634 L130.43727,47.0017942 C131.96944,43.710664 133.497388,40.2942928 135.420993,37.2297135 C136.276204,35.8673495 137.414303,35.0166646 139.047824,34.8849933 C140.729937,34.7495178 142.47881,34.9245159 144.163246,34.9847507 C146.115993,35.0547076 148.068106,35.1375569 150.018951,35.2400618 C149.51888,34.7161245 149.062542,34.1327977 148.560359,33.6299953 C147.726697,32.7962184 146.845923,32.0057683 145.920148,31.2751303 C144.087824,29.829283 142.073176,28.6379014 139.98057,27.612007 C137.887542,26.5859014 135.733035,25.6912556 133.768246,24.4235765 C132.524937,23.6215022 131.413669,22.6120932 130.399796,21.5198348 C129.761556,28.4077409 126.436838,34.8070051 121.442049,39.6148016 C116.254162,44.6079523 109.085007,47.3512791 102.071768,48.518144 C94.9182465,49.7084689 87.4522606,49.2716078 80.6090915,46.7842262 C77.0807113,45.5015413 73.6966268,43.6691342 70.678669,41.3706998 C70.6455,41.5706372 70.6055704,41.7682497 70.5271901,41.9540266 C70.4220053,42.2036841 70.2933664,42.416286 70.1458026,42.635583 L69.8827476,43.0203881 C69.7167762,43.2622332 69.5476328,43.5021373 69.3593028,43.7266215 C68.9031761,44.2700031 68.2569085,44.5079836 67.5607817,44.5054474 C66.2278944,44.501009 65.2184577,43.1935961 65.5771901,41.900555 C65.8026127,41.0879131 66.2849366,40.5988485 67.0378944,40.2807663 C67.2758662,40.1801636 67.5184352,40.0959278 67.7623563,40.0130176 L67.9455,39.9508485 C68.1920493,39.8665198 68.4366972,39.7859953 68.6904296,39.7392869 C67.2614155,38.4775256 65.9355,37.1054395 64.7481761,35.6247194 C61.024162,30.9811421 57.3510634,24.4776822 58.5960634,18.310692 C58.6176127,18.2048055 58.7128944,18.1382301 58.8155704,18.1213221 C58.8878239,17.6884767 59.1181056,17.2697918 59.4335282,16.9882732 C59.2212042,16.9324767 59.0071901,16.8893613 58.7921197,16.8597722 Z M97.4622887,123.484896 C98.1998239,123.074665 98.9616549,124.049624 98.3622887,124.651761 L97.4674184,125.547387 C96.636923,126.382311 95.8285897,127.226197 95.1176408,128.177718 L94.9454975,128.410291 C93.9859048,129.716275 92.9625957,131.229525 91.3902465,131.717624 C89.4884155,132.307926 87.6607394,129.99047 88.7620775,128.297554 C89.7241901,126.818102 91.5767958,126.259926 93.1739789,125.648278 C94.6849648,125.069601 96.0497535,124.270485 97.4622887,123.484896 Z M36.1099859,116.65769 C36.5432958,116.090214 37.6731549,116.389064 37.377169,117.192195 C36.4156901,119.799835 36.0237887,123.355592 33.5954789,125.088031 C32.8120986,125.646629 31.5814648,125.389839 30.9364648,124.744798 C30.2035775,124.011623 30.1742113,122.979177 30.5933662,122.084743 C31.1045655,120.993635 32.3619014,120.202571 33.2432539,119.371441 L33.3223099,119.295764 C34.2704789,118.374488 35.2959718,117.723741 36.1099859,116.65769 Z M137.600242,119.658867 C138.373651,119.32536 140.389458,118.676895 140.986817,119.44447 C141.014704,119.47258 141.038577,119.503226 141.057803,119.537042 C141.204211,119.79193 141.225972,120.151014 141.057803,120.403789 C140.361684,121.450313 139.636687,122.23153 138.646971,122.976362 L138.535901,123.058983 C137.458437,123.851335 136.446254,124.782122 135.133437,125.139515 C133.313789,125.634921 132.042803,123.355719 133.320761,122.024846 C134.350338,120.952748 135.922073,120.396062 137.28633,119.798216 L137.600242,119.658867 Z M64.5261549,104.758859 C64.2217183,104.208714 64.8436901,103.53345 65.4069296,103.877739 C67.0136197,104.860095 68.8852394,105.597074 70.6898873,106.126506 C71.4202394,106.340816 72.0791831,107.081387 72.0248873,107.880503 L72.0163784,108.001499 C71.9948741,108.283832 71.9559613,108.564141 71.7766479,108.79882 C71.1481268,109.621184 70.2489718,109.937998 69.2887606,109.451258 C67.148831,108.366608 65.6841127,106.852283 64.5261549,104.758859 Z M111.486169,103.092235 C111.447085,102.860806 111.61631,102.682215 111.851451,102.72681 C113.209268,102.984235 114.463352,103.640266 115.629338,104.394364 C116.25469,104.798888 116.857859,105.243147 117.481732,105.651687 C118.252437,106.155969 118.541028,106.57254 118.654901,107.498254 C118.730113,108.109057 118.159901,108.667022 117.637014,108.835679 C116.211847,109.295375 114.579007,107.786838 113.613535,106.806722 L113.570113,106.762544 C112.559408,105.732 111.725746,104.513354 111.486169,103.092235 Z M152.267387,101.491193 C151.95788,100.655091 153.02457,99.9618622 153.722176,100.372516 C154.379007,100.759076 155.091613,101.079694 155.711261,101.522684 C156.28065,101.92998 156.799795,102.412422 157.345852,102.853932 L157.6157,103.067642 C158.617092,103.872937 160.270046,105.864782 158.838232,107.020117 C157.475468,108.119797 155.668677,106.71538 154.754003,105.688568 L154.690204,105.615905 C154.163937,105.00785 153.515134,104.347169 153.133373,103.636821 C152.774007,102.96832 152.530204,102.200907 152.267387,101.491193 Z M138.828528,36.7657996 C137.121697,37.0971969 136.425993,39.204782 135.707261,40.5785589 C134.010993,43.8206724 132.450993,47.1221753 130.884232,50.4279053 C130.401908,51.4447115 129.932261,52.4693378 129.458387,53.4920618 C129.429444,53.5721636 129.392261,53.6509973 129.348528,53.7289855 C128.377754,55.819874 127.378035,57.8970247 126.209514,59.8818153 C127.278951,59.6814552 128.35388,59.5106841 129.432824,59.3762654 C129.378393,58.359964 130.074011,56.9998555 130.418091,56.1443038 L130.446697,56.0722262 C130.875782,54.9757409 131.32557,53.2485863 132.430077,52.6796313 C132.798106,52.4902614 133.191697,52.7276078 133.220007,53.1329777 C133.303669,54.3397879 132.123739,55.720962 131.546979,56.7451656 C131.198176,57.3648446 130.858246,57.9872712 130.526979,58.6164611 C130.402754,58.8519053 130.299021,59.0833339 130.171627,59.2908798 C130.728106,59.230645 131.285218,59.176962 131.84381,59.1378622 L132.207831,59.1129447 C134.278706,58.9763736 136.478164,58.9373613 138.349162,59.9589581 C140.085148,60.9064415 140.972472,62.9292751 140.01881,64.771193 C138.830641,67.0658231 136.214303,67.3699562 133.913599,67.5559444 C131.039937,67.7877957 128.159725,68.2064806 125.306345,68.6148094 C122.354937,69.0370873 119.575711,70.1255413 116.668246,70.6849855 C116.397824,70.7369777 116.229444,70.3831773 116.477472,70.2320618 C118.77091,68.8355815 121.559075,68.0670699 124.123111,67.2842581 L124.3305,67.2207429 C125.721275,66.7933926 127.08057,66.3051734 128.519303,66.0627546 C129.915993,65.8275217 131.321345,65.6368838 132.730077,65.4918975 L132.866892,65.4792511 C134.417934,65.3491518 138.374835,65.3935815 138.207613,63.0962419 C138.096908,61.5757879 135.626345,61.3132908 134.498599,61.2951147 C129.328035,61.2122654 124.120289,62.5851969 119.206415,64.0561949 L118.109426,64.385238 C116.097284,64.9908935 114.082315,65.6140092 112.108035,66.3239836 C109.870711,67.1283828 108.108106,68.3827468 106.478599,70.0995452 C104.671838,72.0031773 102.921908,73.9497135 101.047542,75.7890951 C99.8659225,76.9487742 98.6690915,78.0877409 97.4625423,79.2174082 C97.190007,79.5703632 96.9719789,79.9543867 96.8209225,80.4525393 C96.5657113,81.2941362 96.6244437,82.0763436 96.7207817,82.9407663 C96.9637394,85.1238035 97.0174014,87.3294552 97.321838,89.5057292 C97.6040915,91.5217996 97.9987394,93.6118427 98.8355704,95.4820814 C99.1669305,96.2227321 99.5981887,96.950194 100.089307,97.6007293 L100.485709,98.1162608 C100.658512,98.3402039 100.851778,98.5852402 101.054725,98.8157096 C101.352613,98.4521871 101.783599,98.2156861 102.284514,98.2748642 C103.349092,98.4001949 104.185923,98.3701832 105.230218,98.1254395 C106.038528,97.936281 106.8405,97.7145746 107.645218,97.5093534 C109.225289,97.1060971 110.820148,96.739193 112.384162,96.2761245 L112.653035,96.195098 C113.818567,95.8374594 114.984489,95.38951 115.954585,94.6366802 C117.081697,93.7619014 117.428387,92.4999288 118.263317,91.4087272 C120.045993,89.0785902 123.898246,89.1274121 126.506556,88.4891342 C128.723233,87.9468744 130.856386,87.0911266 132.390396,85.4822359 L132.47991,85.3864063 C132.411908,85.0992869 132.52219,84.7752869 132.78881,84.6264963 L132.846908,84.5941597 C132.950852,84.5360384 133.062824,84.5119444 133.172683,84.5142693 C133.315077,84.3050325 133.452401,84.0890325 133.577261,83.8590834 C133.679937,83.6695022 133.936627,83.8089933 133.903035,83.9962497 C133.882965,84.108054 133.855077,84.2171108 133.828669,84.3263789 C135.31462,83.9440462 136.94653,84.0170583 138.45522,84.0180235 L140.413091,84.0111736 C140.751922,84.0070102 141.256944,83.9899998 141.301838,83.9696196 L141.347874,83.9491564 C141.469942,83.8961378 141.296633,83.9836648 141.381908,83.8704963 C141.475923,83.7455883 141.568035,83.6192008 141.65888,83.4917566 C141.983387,83.0375648 142.290359,82.5696352 142.591204,82.0974787 C139.312542,82.9329464 135.916204,83.4528681 132.568458,83.8863476 C128.976908,84.3519523 125.338035,84.6748955 121.714373,84.6782771 C120.7155,84.6793339 120.724585,83.1707155 121.714373,83.1328838 C125.551415,82.986418 129.368387,82.783099 133.179655,82.2912869 C135.15057,82.0366098 137.113246,81.7172595 139.064937,81.3435922 C139.818401,81.1997049 140.570108,81.0467549 141.31995,80.8851751 L141.881979,80.7623789 C142.234585,80.6843906 143.230923,80.5721636 143.716838,80.2460501 C143.812331,80.0818309 143.907824,79.9180344 144.002472,79.7540266 C143.955993,79.1780971 142.492331,79.2552399 142.149232,79.2543945 C141.176345,79.2524924 140.203246,79.2603123 139.230148,79.2628485 C137.284162,79.268555 135.338387,79.251647 133.39219,79.236007 C129.504021,79.2043045 125.601063,79.0686176 121.716063,79.2347389 C120.772965,79.2748955 120.277542,77.7618387 121.209655,77.3638661 C125.324725,75.6062771 129.892754,75.2243671 134.286697,74.6839444 C136.597331,74.400101 138.909232,74.0720853 141.168106,73.4972125 L141.726589,73.3550905 C143.145605,72.9911726 144.712567,72.5473919 145.907472,71.6802341 C144.111481,70.9534374 141.879072,71.0367295 140.017398,70.9338036 L139.874937,70.9255022 C137.268106,70.7652986 134.656627,70.6832947 132.044937,70.6794904 C126.701134,70.6720932 121.355641,70.861463 116.017754,71.114872 C115.88381,71.1212125 115.856134,70.9096509 115.986275,70.8813299 C121.472683,69.6838192 127.048669,69.1068329 132.663317,69.0180658 C135.278161,68.9766562 137.89428,69.013608 140.506938,69.1292596 L141.465565,69.1735956 C143.693135,69.2696237 146.164918,69.2955866 148.028599,70.641236 C148.312754,70.8462458 148.462542,71.1081088 148.485993,71.385189 C150.9855,66.4009151 153.294021,61.3124454 155.611838,56.2577918 C157.413739,52.3275217 159.148458,48.364281 161.016063,44.4646568 L161.620666,43.203095 C162.430263,41.5196849 163.259683,39.8360853 164.180641,38.2137605 C160.736768,37.7532282 157.273669,37.4334552 153.808458,37.1887115 C150.650965,36.9654129 140.348599,36.4709659 138.828528,36.7657996 Z M137.303535,90.7858568 C137.696282,90.5675319 138.297972,90.7454888 138.394732,91.2299037 C138.466775,91.5906787 138.589732,91.9911875 138.589732,92.3602051 C138.589732,92.8023499 138.431704,93.2827491 138.347408,93.7151718 C138.153676,94.7097863 137.915155,95.5179898 137.409592,96.4039703 C137.093324,96.9583421 136.454662,97.3347569 135.812831,97.3199624 C135.304521,97.3083382 134.854099,97.1718059 134.505296,96.7782716 C134.087408,96.3067491 133.800507,95.6133088 134.029732,94.9784125 C134.630155,93.3150857 135.733817,91.6578881 137.303535,90.7858568 Z M54.0013521,89.1264611 C54.9203662,87.5161832 57.0987465,86.077099 58.9997324,86.2195491 C61.854169,86.4334356 62.4366338,90.2783202 59.6730423,91.1957918 C58.0211408,91.7440344 55.7485352,91.1809973 54.3034648,90.2785315 C53.9138873,90.0354787 53.7710704,89.5299288 54.0013521,89.1264611 Z M24.6649225,83.6251609 C24.4561901,83.3216618 24.8011901,82.974836 25.1121761,83.0431022 C25.8019648,83.1946403 26.5456268,83.260793 27.2212606,83.4666481 C27.913162,83.677153 28.5828803,84.0263037 29.2682324,84.266609 C30.704007,84.7696227 32.2375986,85.0221863 33.6271056,85.629607 C34.1825282,85.8724485 34.6194296,86.6770591 34.5680915,87.2703194 L34.5549966,87.409062 C34.5242474,87.7034964 34.4732606,87.9603499 34.3086549,88.229427 C33.8664718,88.9518223 32.9903451,89.3250669 32.1634437,89.1027264 C30.6294296,88.6905933 29.1304859,87.631517 27.8225282,86.7516658 L27.5808314,86.5910354 C27.0093856,86.214301 26.3949137,85.8205356 25.9344296,85.3358301 C25.4537958,84.8296462 25.0587254,84.1983429 24.6649225,83.6251609 Z M77.3967887,77.768771 C77.220169,77.1326067 78.0113662,76.7122309 78.4725634,77.1421174 C79.3941127,78.001045 80.3577042,78.7974129 81.2602394,79.6781096 L81.3208384,79.7381333 C81.9671565,80.387845 82.907428,81.6399215 82.0668592,82.4806145 C80.9898169,83.5580783 79.4900282,81.9594247 78.9122113,81.1262818 C78.1793239,80.0695303 77.7396761,79.0045362 77.3967887,77.768771 Z M147.918951,72.5089386 C146.551838,73.9575335 144.4455,74.6234982 142.590993,75.1753339 C140.39212,75.8290403 138.126486,76.2196157 135.858528,76.5408681 C133.667049,76.8511303 131.492472,77.1286333 129.335852,77.4847585 C130.967261,77.5050481 132.598458,77.5170951 134.226063,77.5462614 C136.103176,77.5802888 137.979232,77.6208681 139.855711,77.6753965 C141.222401,77.7151303 142.825923,77.5276626 144.124585,78.0357487 C144.358669,78.1270521 144.577331,78.2538622 144.768317,78.4081479 C145.860148,76.4660501 146.906556,74.4971108 147.918951,72.5089386 Z M63.5934296,58.962674 C65.020331,58.5093276 66.3620915,57.9076133 67.8747676,58.0638012 C68.2768099,58.1050145 68.5647676,58.4966466 68.3452606,58.8834176 C67.6283873,60.1454687 66.4627375,60.8578476 65.315253,61.7019631 L65.2140634,61.7768031 C63.9580775,62.7113941 62.6095563,63.5629245 61.2437113,64.3299147 C58.8920915,65.6500086 56.7846972,61.8716994 59.1595563,60.7629558 C60.5885704,60.0957229 62.0896268,59.4407483 63.5934296,58.962674 Z M89.283507,55.6823906 C91.4665352,55.8261088 93.6482958,55.9237526 95.8340704,56.0120971 C98.3659014,56.114602 97.5147042,60.0121127 95.3997042,59.2233534 C93.3102676,58.4438935 91.2206197,57.6743671 89.1123803,56.9473221 C88.4706031,56.7261191 88.5222711,55.6716411 89.2427902,55.6807768 L89.283507,55.6823906 Z M33.291993,48.748537 C33.8577676,48.7088031 34.4284014,48.8324431 34.9950211,48.8873941 L35.5979444,48.9458952 C36.8408011,49.0696173 38.0061455,49.2221803 39.1914296,49.7281456 C41.3784718,50.6618912 40.2038239,54.1789714 38.008331,54.0982356 C36.3855845,54.0386348 34.9979789,53.3413902 33.6276972,52.5298051 C32.4298099,51.8203022 31.6954437,50.9326309 30.8865,49.8186035 C30.6186127,49.4495859 30.9919225,49.0359734 31.3567817,48.9987757 C31.9994577,48.9332571 32.6491056,48.7935546 33.291993,48.748537 Z M142.922451,41.566072 C142.560549,43.8251953 141.662239,45.9425025 140.308648,47.7858998 C139.628366,48.7122481 138.43407,48.7473323 137.759915,47.7858998 C136.806213,46.4258171 137.394277,44.8675905 138.112732,43.561248 L138.325303,43.1787408 C138.647027,42.605204 139.141125,41.7686549 139.70569,41.1909252 L139.715197,41.1317472 C140.017732,38.766526 143.295338,39.2386826 142.922451,41.566072 Z M54.6264296,27.0678646 C55.1706549,26.5775319 56.1729085,26.7248431 56.3495282,27.5229018 C56.5967113,28.6405221 56.7471338,29.8997472 56.5853028,31.0342755 C56.4976268,31.6490935 56.464669,32.339575 56.2229789,32.9125456 C55.9631197,33.5286317 55.4632606,34.0024791 54.9923451,34.4657589 C54.0522042,35.3906278 52.0703028,35.0848039 51.8184718,33.6275436 L51.7864872,33.4488015 C51.6598335,32.7592476 51.4978099,32.0222959 51.6853732,31.3388313 C51.8269507,30.823193 52.1433638,30.2972445 52.4051301,29.8188944 L52.4603028,29.7171405 C52.984669,28.7402795 53.8020634,27.8101268 54.6264296,27.0678646 Z M131.124592,29.4456377 L131.321423,29.4477322 C132.840507,29.4777497 135.617651,29.8476941 135.632466,31.7254755 C135.636,32.1680431 135.308324,32.6266732 134.869099,32.728544 C133.96107,32.9390489 133.374169,32.4024305 132.727056,31.8601057 C132.197831,31.4166928 131.58093,31.062681 130.940155,30.8077926 C130.248042,30.5324031 130.293254,29.4443718 131.124592,29.4456377 Z" id="ðŸ–-Ink" fill="#000000"></path>
                    </g>
                    <g id="head/Afro" transform="translate(78.591549, 38.043053)" fill-rule="evenodd">
                        <path d="M41.2807516,17.4727681 C73.302566,15.8974193 87.752586,38.4522883 88.6872626,48.5264802 C89.3360741,55.5195428 85.2059658,63.5798475 85.2059658,69.8287286 C85.2059658,73.0183935 89.1097978,79.8662272 87.2924216,84.5151557 C83.2473506,94.8626259 74.6825522,106.346395 63.7684029,106.346395 C52.8542535,106.346395 38.6502019,109.365888 26.5905399,92.091848 C25.4590001,90.471051 11.1469381,81.2592089 9.75651008,72.5058517 C6.29306859,50.7019613 18.4318308,18.5968462 41.2807516,17.4727681 Z" id="ðŸŽ¨-Background" fill="#FFFFFF"></path>
                        <path d="M39.7711056,3.43596399 C40.9161761,2.12559217 42.8492746,1.60144344 44.5668803,1.70289159 C47.0619507,1.85083679 49.2318803,3.39158043 51.7142746,3.50570959 C54.3168803,3.62617926 56.8288521,2.7237135 59.438007,3.14218708 C61.0373028,3.40003444 62.6218099,4.14187397 63.6464577,5.39306771 C67.1957535,4.3764728 71.0492746,5.72277417 73.309838,8.66265675 C76.0985704,8.22938865 79.1323732,10.0768016 79.9858944,12.7649659 C83.5288521,12.8790951 86.8732183,15.7259836 87.2682887,19.2935765 C88.683993,19.6676665 89.9133592,20.6443162 90.6675845,21.9354552 C91.5443451,23.4318153 91.6901197,25.1479796 91.531669,26.834555 C93.1985704,27.6862967 94.0457535,29.5165902 94.2675845,31.4525589 C95.7908239,32.5896235 96.4520915,34.6333808 96.1415282,36.563009 C97.3077254,37.2203084 97.9100493,38.7504845 97.9035,40.1158074 C97.897162,41.3902497 97.5593451,42.5190716 98.0346972,43.748919 C98.4581501,44.8443079 98.6101718,45.7572174 98.3772467,46.9046105 L98.3535,47.0163945 C98.3123028,47.2034395 98.2776549,47.3828759 98.2465986,47.5597761 C98.5620211,47.836645 98.8288521,48.1836822 99.0291338,48.5873613 C99.7596972,50.0625863 99.6508944,51.745146 99.0937817,53.2412947 C99.3377958,54.1940618 99.3067394,55.2005119 98.9461056,56.1162928 C99.6215282,57.0895609 99.976669,58.2832673 99.8723028,59.52178 C99.7552606,60.9084493 99.1223028,62.1501323 98.1625141,63.068238 C98.4181479,64.9623593 97.6482887,67.0088642 96.2562465,68.3424845 C96.4537817,69.4763789 96.2832887,70.6648016 95.6632183,71.7397292 C95.2212465,72.505874 94.6263169,73.0765198 93.9399085,73.474281 C93.9625141,74.1068524 93.8769507,74.7537957 93.6665282,75.402007 C93.3743451,76.3015139 92.8795563,77.1302184 92.2284296,77.7976626 C92.6169507,80.2827194 91.1296268,83.0402067 88.5118099,83.7374513 C88.2918803,83.7959953 88.0820915,83.8228368 87.8811761,83.8270638 C87.6211056,86.2172243 87.0532183,88.5742027 86.1739225,90.8126137 C83.9387113,96.5125198 79.8739225,101.49616 74.5732183,104.605123 C71.9513873,106.141639 69.0063169,107.194164 65.9999789,107.633772 C63.8365986,107.950798 61.7556127,107.872598 59.583993,107.657021 C56.8584296,107.384379 54.1204014,106.976473 51.4711056,106.27479 L51.0449848,106.161466 C49.9467152,105.867131 48.7887627,105.527504 47.8373028,104.934829 C46.7725141,104.271189 46.2192042,103.248254 45.9741338,102.043557 C45.8373952,101.373048 46.2619407,100.65188 46.9956844,100.637996 L47.0429366,100.638077 C47.2035,100.641459 47.3627113,100.635372 47.5239237,100.625227 L47.6452606,100.616942 L47.6513873,100.616942 C47.659838,100.614829 47.6642746,100.614829 47.6725141,100.614829 C47.7443451,100.604261 47.8140634,100.583126 47.8837817,100.572559 C48.690993,100.436618 49.396958,100.571423 50.1549481,100.823641 L50.2499789,100.855768 C51.5260352,101.295377 52.7915282,101.703283 54.109838,102.005514 C55.4725141,102.316199 56.8520915,102.563479 58.2358944,102.757921 L58.3732183,102.774829 L58.4154718,102.781169 L58.4365986,102.783283 L58.4365986,102.783283 C58.4408239,102.783283 58.4450493,102.783283 58.4492746,102.785396 L58.8570211,102.836121 L58.8570211,102.836121 C59.1783592,102.874164 59.4992746,102.90798 59.8204014,102.941796 C60.4119507,103.000974 61.0035,103.047471 61.5950493,103.081287 C71.8056127,103.65616 80.3809648,95.614281 82.968993,85.9724806 C83.9070211,82.4830873 83.9682887,79.0021479 83.6915282,75.5190951 C83.6027958,75.2654748 83.5499789,74.9843789 83.5520915,74.6758074 C83.5520915,74.5151812 83.5607535,74.3566685 83.5711056,74.1960423 C83.2269507,70.8271186 82.6290634,67.4560814 82.2549085,64.0744767 C81.8177958,60.1243397 81.5746268,56.1511656 81.6633592,52.1754552 C81.7077254,50.212011 81.9168803,48.2675883 82.1915282,46.3233769 L82.2908239,45.6248642 L82.2908239,45.6248642 C81.0496268,45.3824454 79.8956831,44.7936235 78.9768803,43.9412477 C76.9829366,45.0931068 74.4023028,45.195189 72.4341338,43.9788681 C70.2285,45.3625785 67.1469507,45.4881205 64.9258944,44.1352673 C63.5835,45.0939523 61.8920915,45.5075648 60.2317394,45.1436196 C59.4849085,44.9800344 58.7423028,44.6260227 58.1063873,44.1359014 C57.6523732,44.2160031 57.1924437,44.2470716 56.7350493,44.223189 L56.6406127,44.2760266 L56.6406127,44.2760266 C55.5863873,44.8318779 54.4185,45.1977252 53.2165986,45.1569346 C52.3267394,45.1269229 51.4100493,44.9512908 50.5613873,44.6190481 C49.654838,45.1664454 48.6627254,45.5401127 47.6013169,45.6741088 C46.0512465,45.8696078 44.3784296,45.5265863 43.0892746,44.6469464 C40.7334296,45.9894434 37.8356831,46.196144 35.2928662,45.294101 C34.7720915,46.1764885 34.0514577,46.9373495 33.2076549,47.5238466 C33.3587113,48.065326 33.4068803,48.642735 33.3549085,49.1979523 C33.2695563,50.1118309 33.0405423,50.931236 32.6659648,51.6671577 C33.0608239,52.4888877 33.1795563,53.497874 32.9585704,54.5106646 C32.6435704,55.9550325 31.8035704,57.21151 30.7159648,58.1900618 C30.6200493,60.4950481 29.3564577,62.6563162 27.2999789,63.8569973 C27.1958239,63.9176548 27.0923028,63.9671108 26.988993,64.0117057 C26.8981479,64.1359796 26.7895563,64.2452477 26.6655423,64.3373965 C25.3577958,65.5461088 23.2882183,65.4499444 21.648993,64.7670716 C21.6173028,64.7685511 21.5858239,64.7712986 21.5537113,64.7719327 C20.9682887,64.7867272 20.5692042,64.5584689 20.3323732,64.2224219 C20.0938521,64.2353143 19.8570211,64.260465 19.6185,64.3048485 C18.7478662,64.4675883 17.7929366,64.7803867 17.0049085,65.1863906 C14.959838,66.2387037 14.0133592,68.0985863 13.7302606,70.3346724 C13.4220211,72.7736548 14.1232183,75.2591342 16.0100493,76.90978 C16.9267394,77.7129112 18.0992746,78.2159249 19.2908239,78.4272751 C20.6070211,78.661874 22.0140634,78.0848877 22.9858944,79.2156117 C23.1802606,79.4396431 23.3133592,79.7524415 23.2077254,80.0546724 C22.8781479,80.9972947 22.3351901,81.3587037 21.4858944,81.4897409 C22.7133592,82.9459444 23.9725141,84.3535374 25.3668803,85.6617957 C26.875331,87.0799562 28.4344859,88.4537331 29.7952606,90.0177252 C31.2337817,91.672598 32.5330775,93.4268055 33.4351901,95.4346333 C33.9506831,96.5886059 34.3647676,97.778508 34.8107535,98.9599562 L34.890398,99.1657901 C35.3876476,100.421051 36.0490804,101.631059 35.2837817,102.941796 C34.9795563,103.45749 34.2908239,103.956277 33.6570211,103.87385 C31.8720211,103.645592 31.2741338,102.438782 30.7246268,100.866336 C30.3105423,99.6785472 29.9936408,98.4569425 29.5480775,97.2797213 C29.4646268,97.0618192 29.3737817,96.8460305 29.2785,96.63151 C28.2492042,96.9185237 27.1174437,96.6906881 26.1988521,96.1035569 C25.2173028,96.5387272 24.1299085,96.755784 23.0796972,96.7373965 C21.6735,96.7126685 20.3887817,96.3218818 19.2842746,95.6170286 C19.1963873,95.59378 19.1080775,95.5713769 19.0204014,95.5462262 C17.3401901,96.1899992 15.3724437,96.0750247 13.8511056,95.0315883 C12.8659648,94.3559014 12.1924437,93.4540697 11.8096268,92.4499444 C10.5367394,92.4256391 9.27758451,91.9741949 8.36554225,91.0708838 C7.52807746,90.2415452 7.03857042,89.1714787 6.89321831,88.0595648 C5.79758451,87.842508 4.77040141,87.3126528 3.96483803,86.4201205 C3.29216197,85.6746881 2.88335915,84.7253025 2.74519014,83.7395648 C1.41082394,83.3587115 0.207443662,82.4871029 -0.449809859,81.2718387 C-1.06142958,80.1404806 -1.14973944,78.9131695 -0.850584507,77.7968172 L-0.928119718,77.6852243 L-0.928119718,77.6852243 C-2.30262676,76.9655765 -3.35157042,75.78751 -3.4593169,74.1047389 C-3.48973944,73.6256078 -3.43819014,73.1462654 -3.30826056,72.6927076 C-3.35516197,72.1856783 -3.32516197,71.6788603 -3.19227465,71.1885276 C-5.0408662,69.3899366 -5.71058451,66.5007781 -4.70706338,64.1125198 C-6.51340141,62.1680971 -6.9908662,59.0929503 -5.66621831,56.7852164 C-6.57466901,55.6859836 -7.04157042,54.2847311 -6.96340141,52.788371 C-6.86621831,50.9202458 -6.01058451,49.2884102 -4.98593662,47.7772556 C-5.7465,46.9360814 -6.1521338,45.7630873 -6.12234507,44.6302497 C-6.08030282,42.9880579 -5.20776761,41.5741245 -4.11530282,40.4032438 C-5.06833099,37.5119718 -4.00354225,34.3755335 -1.66480986,32.5452399 C-2.1380493,31.7653573 -2.31340141,30.7994865 -2.15896479,29.8209346 C-1.88875352,28.1111108 -0.606359155,26.9465706 0.777443662,26.0250834 C0.488007042,25.0826724 0.56406338,24.0658661 1.02462676,23.0915413 C1.63941549,21.791737 2.79927465,20.9674708 4.00983803,20.2700149 C4.32251408,17.3871969 7.54223239,14.9249659 10.2422324,16.412872 C9.57251408,14.2676665 11.5015986,11.9512673 13.7199085,11.706101 C14.8056127,8.41326341 18.5513873,6.33780352 21.918993,7.15572916 C23.6408239,4.80128689 26.8457535,3.89480548 29.5668803,4.90484853 C32.5586408,2.61169785 36.2704014,2.27142387 39.7711056,3.43596399 Z M18.4605423,68.090238 C20.5626549,67.9761088 22.1387113,69.6922732 23.2459648,71.2626059 C24.2851901,72.7357174 21.618993,74.2912556 20.8415282,72.6680853 C20.5626549,72.0889855 20.2457535,71.4760697 19.8211056,70.968829 C19.7498028,71.068692 19.6868187,71.1721215 19.6241316,71.278226 L19.5612465,71.385189 C19.5147676,71.4633886 19.4661761,71.5437018 19.4260352,71.6261284 C19.4302606,71.6409229 19.3668803,71.8353652 19.3647676,71.8438192 C19.1915282,72.3700814 18.8133592,72.7082419 18.2980775,72.8900031 C17.6323732,73.1224885 17.0027958,72.6215883 16.7894155,72.0340344 C16.4494859,71.0956391 17.2394155,70.2777135 18.0612465,69.905737 C17.2542042,69.7746998 16.459838,70.0494552 15.8767394,70.670825 C15.796669,70.7574787 15.6612465,70.6877331 15.6572324,70.5799444 C15.5894155,69.1068329 17.1295563,68.1620971 18.4605423,68.090238 Z" id="ðŸ–-Ink" fill="#000000"></path>
                    </g>
                    <g id="face/Angry-with-Fang" transform="translate(112.183099, 77.354207)" fill="#000000" fill-rule="evenodd">
                        <path d="M41.5240986,39.2929573 C41.8366672,38.8844853 42.5971776,40.6626772 42.7523233,40.880086 L42.7598028,40.8899202 C43.4367042,41.7093252 43.9893803,42.9641119 44.0675493,44.0162137 C44.0698732,44.0477049 44.0698732,44.0781393 44.0698732,44.1085738 C45.1549437,43.9595718 46.2402254,43.8078223 47.3250845,43.6412783 C47.744662,43.3257323 48.3317746,43.4235875 48.8998732,43.7108125 C50.1668451,44.3505699 49.5501549,46.3831256 48.1851549,46.3505777 C44.4943099,46.262656 40.724662,46.7367147 37.064662,47.1634309 C35.1818451,47.3830239 33.3030423,47.6159319 31.4303662,47.9137245 C29.6808592,48.1916501 27.8920563,48.5843389 26.1214225,48.6609301 C26.0248732,48.6648634 25.9845211,48.5209339 26.0715634,48.4761276 C27.6326197,47.6740532 29.4157183,47.1883703 31.1012113,46.7185386 C32.9250845,46.2102411 34.7624789,45.7330121 36.6127606,45.3301785 C38.2731127,44.9685581 39.9421268,44.6980297 41.6149437,44.4543429 C41.6020563,44.4215836 41.5895915,44.3881902 41.5790282,44.3531061 C41.3668658,43.6409799 41.3723514,42.8240123 41.3270551,42.0736498 L41.3008223,41.6753284 C41.2596038,40.9889927 41.2183564,39.692973 41.5240986,39.2929573 Z M36.0875289,30.5120405 C37.6828906,31.482148 40.1137318,33.7442494 38.3974899,36.149264 C36.3773089,38.2698449 33.4687045,35.8384541 32.0353946,34.7388307 C30.7063626,33.8866164 29.2131206,36.0784478 30.4461973,37.0735516 C40.8033244,44.7445605 45.006466,30.7657101 36.8944406,29.3714319 C36.0012775,29.2177885 35.6695544,30.2119271 36.0875289,30.5120405 Z M10.4369577,21.973456 C13.0915352,21.5682975 15.8107606,21.5218004 18.4930141,21.6557965 C19.8875915,21.7253307 21.2804789,21.8288924 22.6701972,21.9666928 C23.3956901,22.0387632 24.1205493,22.119499 24.8439296,22.2101683 C25.3628028,22.2752642 26.1639296,22.5724227 26.6570282,22.4371585 C28.1637887,22.0243914 29.5942817,23.4507945 29.1787183,24.960047 C28.7665352,26.4576751 27.0001268,26.8526888 25.8639296,25.953182 C25.3251972,25.7631781 24.7832958,25.5831076 24.2382254,25.4148728 C24.1966056,25.5867006 24.1355493,25.7566262 24.0493521,25.9208454 C23.9525915,26.1047202 23.8594225,26.289863 23.7711127,26.4777534 C23.7901268,26.4477417 23.6441408,26.7979491 23.6401268,26.8080939 L23.5233941,27.1130774 C23.3200339,27.63895 23.092119,28.1376782 22.5396338,28.4101292 C21.7801268,28.7846419 20.5885775,28.5781526 20.2816056,27.6845636 C19.8021036,26.7447845 20.1194539,25.4318004 20.3942619,24.4583241 L20.4155493,24.3834834 C17.102662,23.5953581 13.7348451,23.0044227 10.4369577,22.202771 C10.3292113,22.1765636 10.3182254,21.9916321 10.4369577,21.973456 Z M49.8368028,18.4383053 C50.0091972,18.0931703 50.4000423,18.0916908 50.6326479,18.4159022 C51.1496484,19.1356574 49.9917412,20.1664984 49.5085885,20.6454909 L49.4603239,20.6938356 C48.3741972,21.7962387 47.0495493,22.6847554 45.7363099,23.4880978 C45.4608169,23.656544 45.1810986,23.8171703 44.9003239,23.9754716 C44.9522958,24.08009 44.9996197,24.1868219 45.0382817,24.2956673 C45.2370845,24.8574364 45.2408873,25.5284736 45.0617324,26.0961605 C44.6886338,27.2799335 43.6958873,28.225726 42.4084225,28.2244605 C41.7294085,28.2238239 40.9255352,27.5815303 41.0174366,26.8329276 C41.0501831,26.5664149 41.0770141,26.2827828 41.1177887,25.999362 C40.2122958,26.3007476 39.1003944,25.9475812 38.5244789,25.2008806 C37.7235634,24.1629393 37.9439155,22.4617808 39.1701127,21.8171624 C40.0718028,21.3433151 41.0670845,21.2236908 42.0437746,20.9732407 C43.0130704,20.7251155 43.9756056,20.4400039 44.9244085,20.121499 C45.8601127,19.8074325 46.7913803,19.4709628 47.721169,19.1385088 C48.1810986,18.9738669 48.636169,18.8221174 49.104338,18.6826262 C49.313493,18.6204892 49.6145493,18.4571155 49.8368028,18.4383053 Z" id="ðŸ–-Ink"></path>
                    </g>
                    <g id="facial-hair/Full-2" transform="translate(104.577451, 109.479380)" fill="#000000" fill-rule="evenodd">
                        <path d="M52.4221901,23.6127945 C51.6848662,23.3714325 50.9606408,23.0905479 50.2330352,22.8198082 C46.5128239,20.9504149 42.0189507,20.611409 38.1174718,22.1857573 C36.2025423,22.958454 34.4169085,24.3468141 32.4954296,25.2566771 C32.0390915,25.4270254 31.5789507,25.5817339 31.1137394,25.7115029 C30.8285282,25.6121683 30.5433169,25.5064932 30.2602183,25.400818 C28.2221197,24.6323483 26.3050775,23.6844423 24.4438099,22.6416399 C24.2452183,22.3620235 24.0392324,22.090227 23.8178239,21.8292094 C25.1646549,21.6379374 26.4833873,21.3200665 27.6764155,20.9920509 C31.3397958,19.988137 34.7919085,18.3522857 38.4426127,17.3039883 C41.8419085,16.3254364 45.5306408,15.7907202 48.9447254,17.0059843 C50.5651479,17.5829706 51.9912042,18.593225 53.5672606,19.273773 C54.3827535,19.6246145 55.3609225,19.9691155 56.3137394,20.0198395 C55.6989507,21.4929511 54.9214859,22.8688415 53.8588099,24.0143601 C53.3728944,23.9107984 52.8912042,23.7649667 52.4221901,23.6127945 Z M60.349162,12.0747593 C60.0229648,12.3459217 58.6767676,13.2209119 58.2400775,13.7425245 C58.1272606,13.6996204 58.0150775,13.6556595 57.9035282,13.6104305 C57.7114859,13.3745636 57.4285986,13.271002 57.1402183,13.2773425 C55.1270493,12.340638 53.3348662,11.0169511 51.7355704,9.35721722 C50.5989507,8.17999609 49.4348662,6.94782387 47.9158521,6.26516243 C46.1264155,5.45780431 44.3665563,5.82978082 42.4862746,5.95236399 C40.4855704,6.08551468 38.5102183,5.51698239 36.5116268,5.78962427 C35.0496549,5.99040705 33.6806408,6.60966341 32.4975423,7.48254012 C30.0827535,9.26422309 28.4179648,11.7666106 26.3771197,13.9244971 C24.0616268,16.3719335 21.2137394,17.9359256 18.046838,18.7348297 C18.0088099,18.7094677 17.968669,18.6841057 17.9285282,18.6608571 C15.5940211,16.5473542 13.4855704,14.1612094 11.6200775,11.6186654 C9.7989507,9.13529941 4.99683803,-2.04301761 3.83697887,-3.02368297 C3.35528873,-3.43158904 2.82711972,-3.60700978 2.32219014,-3.59221526 C1.40740141,-3.57108023 0.562330986,-2.93491585 0.184161972,-1.93311546 C-0.458091549,-0.229632094 -0.136964789,1.97263796 -0.0862605634,3.75432094 C-0.0228802817,5.93545597 0.12078169,8.1144775 0.348950704,10.285045 C0.575007042,12.4302505 0.875007042,14.5691155 1.2489507,16.6931859 C1.43697887,17.7668454 1.6461338,18.8383914 1.87641549,19.9057104 C1.94824648,20.2417573 2.03909155,20.5418748 2.1489507,20.8208571 C2.26092254,21.3471194 2.38134507,21.8712681 2.51021831,22.3911898 C3.35106338,25.7960431 4.67782394,29.2051233 7.21092254,31.7180783 C9.84754225,34.3367084 13.4306408,36.0761213 16.7581056,37.6316595 C19.9271197,39.113225 23.2482465,40.4299374 26.655993,41.4613268 C29.6158521,42.8034012 32.7848662,43.8643796 35.9665563,44.4223444 C39.4693732,45.0373738 43.1517676,45.0754168 46.534162,43.8580391 C48.196838,43.2599178 49.768669,42.4250841 51.1947254,41.3852407 C53.2165563,40.3348297 55.0355704,38.8913072 56.525007,36.9807006 C59.192706,33.5565513 60.4660235,29.4012411 61.0231856,25.1164508 C61.1657905,24.0197643 61.7019307,19.8165841 61.7440898,19.1621818 C61.8802406,17.0488169 62.0163914,14.9355171 62.1525423,12.8220939 C62.2167676,11.8247319 60.9931056,11.5400431 60.349162,12.0747593 Z" id="ðŸ–-Ink"></path>
                    </g>
                    <g id="accessories/*-None" transform="translate(88.521127, 88.978474)"></g>
                </g>
            </g>
        </g>
    </g>
</svg>