<?xml version="1.0" encoding="UTF-8"?>
<svg width="240px" height="324px" viewBox="0 0 240 324" version="1.1" xmlns="http://www.w3.org/2000/svg" xmlns:xlink="http://www.w3.org/1999/xlink">
    <!-- Generator: Sketch 62 (91390) - https://sketch.com -->
    <title>peep-51</title>
    <desc>Created with Sketch.</desc>
    <g id="Introduction" stroke="none" stroke-width="1" fill="none" fill-rule="evenodd">
        <g id="variations" transform="translate(-1806.000000, -434.000000)">
            <g id="images" transform="translate(126.000000, 110.000000)">
                <g id="a-person/bust" transform="translate(1680.000000, 324.000000)">
                    <g id="body/Hoodie" transform="translate(31.056338, 135.052838)" fill-rule="evenodd">
                        <path d="M167.059479,151.260467 C171.142437,151.063277 169.500254,143.918581 169.207225,141.294667 C165.97462,131.711199 166.734549,121.255277 165.463141,111.210221 C164.671099,101.833031 163.653423,92.4850074 162.797366,83.1150035 C161.116099,64.0947452 149.042791,25.3745564 135.264908,19.1474067 C133.529345,11.529074 126.360844,4.4175111 117.291139,4.4175111 C111.105224,-2.90767872 103.659549,-8.06299256 94.1096197,-7.02209237 C90.1631408,-6.84244462 86.3358592,-2.6551726 82.5543803,-1.84654638 C80.4370563,-1.55446027 61.6468732,-2.30623327 57.8829296,-0.0699358121 C55.2610986,1.27678826 52.8942676,3.76543796 53.6651831,6.93379022 C54.8951831,10.7723342 51.0727183,6.61887828 43.0988451,10.7159037 C26.8390133,20.4851814 36.5552104,33.5543397 36.9857738,33.9592869 C26.8390133,48.0823475 17.9702535,59.5401464 13.8668028,76.8026043 C11.2073662,89.6186748 11.5067324,102.848992 9.27849296,115.730792 C8.49173239,120.197469 7.28476056,124.51134 5.97870423,128.848882 C4.56321127,134.52554 3.8749352,148.674104 3.09472393,148.800492 C1.67352675,149.153658 3.91609859,152.072898 5.42201408,152.075223 C47.1735634,159.003497 89.583,152.362236 131.558915,151.277164 C143.388423,150.865665 155.230606,150.770769 167.059479,151.260467 Z" id="ðŸŽ¨-Background" fill="#FFFFFF"></path>
                        <path d="M103.778768,35.2058654 C103.798204,35.0145933 104.055951,35.015016 104.07581,35.2058654 L104.370581,38.052574 C104.72923,41.5293022 105.074502,44.9992643 105.324824,48.4921902 C105.636866,52.8479084 105.845599,57.2025699 105.946162,61.5680102 C106.296866,76.7719162 106.366585,91.9838536 106.396162,107.191564 C108.452007,107.049114 110.508063,106.911948 112.565176,106.77922 C113.96081,106.689043 115.356538,106.602531 116.752422,106.517427 L120.311725,106.301515 L120.311725,106.301515 L121.777077,106.211533 C122.767289,106.150241 123.892289,105.900848 124.584613,106.778374 C124.861796,107.129638 125.00081,107.586155 124.74243,108.003149 C124.146444,108.965004 123.231021,108.9314 122.195599,108.973036 C121.218697,109.012558 120.241796,109.051235 119.264894,109.088856 C117.171444,109.170225 115.078204,109.246946 112.98412,109.305701 C110.786514,109.367415 108.589965,109.417505 106.393204,109.454914 C106.370975,115.875001 106.105449,122.287097 105.818329,128.700097 L105.688415,131.586038 C105.337077,139.390359 104.95912,147.201443 104.422289,154.995407 C104.378134,155.633474 103.47581,155.632206 103.432077,154.995407 C102.82743,146.218241 102.428556,137.422265 102.033063,128.633263 C101.746162,122.26084 101.579261,115.886726 101.499824,109.511768 C101.209331,109.51367 100.919049,109.517685 100.628768,109.518742 C92.3836268,109.554672 84.1405986,109.590601 75.8954577,109.513247 C75.9091901,109.529521 75.9227113,109.545795 75.9317958,109.567353 C76.5284155,110.976425 76.5852465,112.774593 76.570669,114.286805 C76.5539789,116.021145 76.3205282,117.734351 75.9212324,119.420926 C74.4906554,125.463063 70.8007292,130.874783 66.598102,135.348974 L66.4608803,135.494539 C65.4696127,136.542413 64.3323592,137.595149 63.7236972,138.929826 C63.1019757,140.292613 62.8861756,141.886661 62.5793871,143.350939 L62.5435563,143.519298 L61.3439789,149.062171 C60.9628521,150.822719 60.8546831,153.390413 59.4615845,154.660629 C58.1618662,155.845881 56.4400352,155.226836 55.8284155,153.700887 C55.3507394,152.509928 55.8265141,151.201881 56.1094014,150.011556 L58.3258371,140.691001 C58.6900299,139.171041 59.087976,137.641107 59.8739789,136.275689 C60.6791197,134.877184 61.8594718,133.863337 63.0639085,132.82603 C65.3445423,130.86174 67.4382042,128.612973 69.208838,126.178218 C70.978838,123.744308 72.4915141,121.061427 73.5522887,118.240323 C74.0834155,116.828081 74.5186268,115.360887 74.818838,113.881858 C75.1042606,112.47828 75.1017254,111.024613 75.407007,109.636041 C75.4279225,109.540088 75.508838,109.474359 75.6015845,109.445192 C75.5796127,109.383267 75.6132042,109.299572 75.6998239,109.294077 L82.4429669,108.860613 C88.4370012,108.473788 94.4307714,108.077064 100.419401,107.623775 L101.477641,107.547267 L101.477641,107.547267 C101.395458,99.041474 101.465176,90.5339906 101.618768,82.0250278 C101.759472,74.2221863 101.76243,66.4172313 101.994401,58.6154466 C102.109754,54.7432978 102.358415,50.8802372 102.635176,47.0161198 C102.918275,43.064292 103.371444,39.1458575 103.778768,35.2058654 Z M40.4635352,80.4485871 C40.3917042,80.015319 40.9365634,79.7469041 41.1877606,80.1431859 C44.0590986,84.6707319 45.4435352,89.5886419 46.0270563,94.8869824 C46.5425493,99.5631076 46.3906479,104.306654 46.1339577,108.995037 C45.8601549,113.995585 45.5407183,118.994865 45.2176901,123.992665 L44.7213961,131.656887 L44.7213961,131.656887 L43.476,150.870505 C43.3868451,152.244916 43.0750141,153.49463 41.8921268,154.133542 C41.742338,154.258661 41.5862113,154.370888 41.4043099,154.46811 C40.7652254,154.809863 39.9176197,154.63719 39.5481127,153.981159 L39.6962687,154.078657 C39.8253211,154.159944 39.6804085,154.046423 39.2614225,153.738528 L38.9058592,153.278207 L38.9058592,153.278207 C38.6474789,152.889746 38.4824789,152.507836 38.4161408,152.046035 C38.3130423,151.328501 38.4465634,150.541432 38.4934648,149.820305 L39.3098028,137.221292 L39.3098028,137.221292 C39.944662,127.426685 40.686,117.634826 41.2448028,107.835147 C41.5050845,103.267867 41.6874085,98.6961487 41.5640282,94.1208376 C41.4410704,89.5708885 41.2093099,84.9437965 40.4635352,80.4485871 Z M65.3031003,-3.89187415 L65.4624085,-3.91862466 C71.1655775,-4.86631937 77.3671268,-4.68899648 82.5793099,-1.93869511 C82.6224085,-1.91608063 82.6027606,-1.84443288 82.5543803,-1.84654638 L80.8767279,-1.9135722 C75.5656862,-2.12163484 70.2710905,-2.24479072 65.0489577,-0.996495499 L64.5143623,-0.867666213 C62.6337249,-0.408721144 60.669812,0.153020369 59.1592394,1.39556712 C57.7154366,2.58335577 56.996493,4.41555147 56.3052254,6.10233816 L56.2127729,6.32493212 C55.511401,7.99086354 54.6236611,9.57082132 53.0863521,10.6125534 C51.0951549,11.9616023 48.7004366,11.7963264 46.4172676,11.9795671 C42.3972676,12.3027217 39.1105775,15.2172423 37.4753662,18.7837785 C36.4851549,20.9433558 36.062831,23.3645847 35.979169,25.7262129 C35.9362817,26.9285847 35.9301549,28.1778763 36.0902958,29.3722168 C36.1414225,29.7541268 36.6133944,31.1454458 36.8540282,31.1120524 C37.3887465,31.0378685 37.8776197,31.3168509 38.0443099,31.7444125 C39.3651549,30.4678568 40.7240282,29.2280759 42.1266338,28.03289 C45.6229014,25.0543303 49.3887465,22.354753 53.354662,20.0349722 C56.381493,18.2642795 59.574169,16.510072 62.8802958,15.1838489 C62.6183239,15.1783538 62.3599437,15.230346 62.1100141,15.3603264 C62.0005775,15.4176023 61.8917746,15.2802247 61.9781831,15.189344 C63.0195211,14.0932814 64.2668451,13.9373049 65.5243099,14.2296023 C65.7926197,14.1442168 66.0611408,14.0615789 66.3307183,13.9831679 C66.4648732,13.9440681 66.5316338,14.1289996 66.4221972,14.200436 L66.1133239,14.3978372 L66.1133239,14.3978372 C67.4850845,14.8575241 68.8319155,15.7610466 69.8981831,16.4741425 C72.9611408,18.5219155 75.6571268,21.0253597 78.3900845,23.4818841 L78.8869898,23.9272208 C81.2926002,26.0759768 83.7594916,28.1640363 86.4926197,29.8879115 C87.9233239,30.7901659 89.4260704,31.6247883 91.002338,32.2455241 C92.3542394,32.7783382 94.5554366,33.1137511 95.1886056,34.5431131 C95.7514225,35.2270427 95.5162817,36.0999194 94.8571268,36.5602403 C93.7454366,37.7841699 91.5216338,36.9935084 90.1969859,36.4837315 C88.6000141,35.8691249 87.0529014,35.1304556 85.5774085,34.2641307 C82.712831,32.5817824 80.0715634,30.4900485 77.6111408,28.2649526 C75.041493,25.9409448 72.6176197,23.472162 70.1183239,21.0752384 C69.0354266,20.036663 67.9775191,18.9737091 66.8929809,17.9366865 L66.3482535,17.4205691 C65.7947324,16.9012814 65.0060704,16.0918098 64.1629014,15.6018998 C62.5743803,16.5498059 60.9613521,17.4586121 59.3871972,18.4310348 C57.1898028,19.7883264 55.0570563,21.2434732 52.9572676,22.7465965 C48.9148732,25.6401933 45.084169,28.8810387 41.5279014,32.3547922 C35.0056479,38.7253127 29.4488873,45.9999898 24.5945915,53.7028626 L24.22596,54.2898877 C21.4674828,58.6987782 18.8588648,63.2498657 17.0092394,68.1216023 C14.9740986,73.4825025 13.9843099,79.1198489 13.4466338,84.8104556 C12.9129718,90.4602716 12.7329718,96.13862 12.1365634,101.783152 C11.5249437,107.572248 10.3198732,113.233477 8.94916901,118.884139 L8.62226223,120.22381 C7.38199255,125.284481 6.10185839,130.345157 5.46430986,135.525227 C5.12395775,138.292225 4.91923944,141.097054 4.96550704,143.886456 C5.01198592,146.692131 5.45269014,149.435669 5.80825352,152.211755 C5.94452113,153.27527 4.89832394,154.162941 3.96219718,154.303912 C2.88557746,154.465595 1.96064789,153.778495 1.626,152.777962 C0.582760563,149.659066 0.393253521,146.211309 0.426,142.937704 C0.458957746,139.614221 0.882971831,136.312506 1.47959155,133.046299 C2.65297183,126.621673 4.46374648,120.329986 5.97853521,113.982291 C7.31353521,108.387426 8.20952113,102.782839 8.69247887,97.0512305 C9.1938169,91.1046787 9.49402817,85.1382599 10.4086056,79.2346121 C11.3113521,73.4064164 13.0099437,67.8394497 15.5715634,62.5250466 C17.9039577,57.686393 20.8114225,53.1320055 23.8595915,48.7175319 C27.5612113,43.3570544 31.6266338,38.2561151 36.171,33.6085221 C35.762831,33.5907687 35.3436761,33.4588861 34.9587465,33.2187922 C33.7811408,32.4839272 33.2326901,31.0465339 33.0640986,29.7340485 C32.6694507,26.6637628 32.7647324,23.4584243 33.5540282,20.456616 C34.827338,15.6141581 38.1319859,11.3114888 42.9214225,9.56594677 C44.154169,9.11661605 45.464662,8.95260822 46.7711408,8.92027162 C48.0108592,8.88941448 49.3648732,9.05109746 50.5610704,8.65798591 C52.4650877,8.03187668 53.2812163,5.78856774 53.9961018,4.08806185 L54.0290282,4.00997025 C54.9457183,1.84299569 56.046,-0.0143506849 58.031493,-1.36741526 C60.1498028,-2.81128562 62.8038746,-3.46791603 65.3031003,-3.89187415 L65.3031003,-3.89187415 Z M119.492725,4.67794286 C121.206528,4.08320313 123.349204,4.62299178 125.02519,5.1424908 C126.892373,5.72159061 128.617796,6.78806419 130.097092,8.0546865 C131.657725,9.39042035 132.947514,11.039798 133.858711,12.8823499 L133.945829,13.0598615 C134.778108,14.7690343 135.725959,17.1154276 135.306317,18.9931209 C135.294275,19.0463812 135.280542,19.0977393 135.264908,19.1474067 C138.665261,20.821935 141.805542,22.9193753 144.54019,25.5777393 C147.724415,28.6729644 150.420613,32.195117 152.702303,36.0002677 C161.764365,51.1134031 163.359325,69.2641392 164.42962,86.4995242 L164.696556,90.8696329 C165.277665,100.306197 165.957835,109.720418 167.724486,119.026694 L167.853385,119.698562 C169.741826,129.442335 172.445092,139.260571 172.171246,149.256127 C172.089063,152.25096 167.664697,152.230671 167.536458,149.256127 C167.0535,138.060268 164.44181,127.250546 162.673289,116.229685 C159.561528,96.8401973 161.120683,76.8506865 156.711528,57.6554301 C154.981246,50.122483 152.300894,42.8154693 148.473359,36.0913597 C146.582725,32.7695671 144.419556,29.5597902 141.885613,26.6940916 C139.705542,24.2282677 137.439697,21.8552266 134.892021,19.7823029 C134.077796,20.5981151 132.451246,20.182389 132.026176,18.9931209 C131.734204,18.1758294 131.819345,17.2203147 131.631951,16.3641346 C131.458077,15.5696689 131.218289,14.7819663 130.898852,14.0337863 C130.262092,12.54271 129.327444,11.1108117 128.2485,9.90400157 C127.082937,8.59954755 125.743289,7.51574325 124.244345,6.62088611 C122.735049,5.7198998 121.084415,5.45085088 119.492725,4.79249472 C119.439063,4.77030294 119.433993,4.69844384 119.492725,4.67794286 Z M126.151099,108.301914 C126.153634,108.223292 126.24638,108.186094 126.303423,108.23872 C126.904268,108.791824 127.267437,109.585656 127.70962,110.265992 C128.21962,111.050524 128.755183,111.818994 129.316732,112.567597 C130.441944,114.067339 131.694549,115.480849 132.957085,116.865828 C134.13131,118.153796 135.382859,119.387448 136.681099,120.550297 C138.087718,121.810579 139.663986,122.934751 140.941944,124.330086 C143.608519,127.241662 144.039419,131.237752 144.602003,134.989912 L144.663634,135.395753 C145.006732,137.62254 145.314127,139.855245 145.59131,142.091119 C145.726099,143.178728 145.860465,144.267393 145.970324,145.35775 L146.003878,145.703202 C146.101816,146.770664 146.128234,147.853601 145.515465,148.786274 C144.859479,149.784059 143.368141,150.133843 142.481451,149.177061 C140.958,147.533389 141.243634,144.613796 141.045465,142.499237 C140.881763,140.750706 140.69602,139.004348 140.488103,137.260564 L140.382296,136.388888 C140.137225,134.405155 139.938211,132.381898 139.48462,130.432614 C139.08469,128.716027 138.322648,127.42045 137.072366,126.176865 C135.812789,124.924192 134.503986,123.754791 133.34138,122.405742 C132.108211,120.9749 130.995887,119.440708 129.993634,117.839519 C129.136399,116.469969 128.449248,114.979587 127.819729,113.490933 L127.715324,113.242861 C127.106873,111.791096 126.103563,109.901202 126.151099,108.301914 Z M148.146655,45.9441722 C148.159965,45.7416986 148.45912,45.7385284 148.463556,45.9441722 C148.501373,47.6856986 148.537711,49.427225 148.573838,51.1689628 C148.864542,65.203045 148.685387,79.2703092 150.092852,93.2562035 C150.756655,99.850544 151.979049,106.347875 153.393486,112.818153 C154.117289,116.128955 154.876585,119.431937 155.598063,122.743162 C156.301162,125.97027 157.055176,129.213018 157.612923,132.470137 C158.160995,135.671345 158.651828,138.897205 158.872146,142.139531 L158.899331,142.562536 C158.99419,144.13308 159.446937,146.443139 158.58243,147.835303 C157.645669,149.343499 155.852218,149.370552 154.848486,147.930834 C153.906021,146.579249 154.140317,144.174928 153.973838,142.562536 C153.804613,140.91971 153.625669,139.275616 153.42243,137.636595 C153.02588,134.439499 152.503415,131.249589 151.960035,128.074262 C150.828275,121.461534 149.186725,114.932078 147.975106,108.329918 C146.733275,101.564806 145.850599,94.7512955 145.813415,87.8633894 C145.776444,80.9169393 146.511444,73.9840157 146.88243,67.0527828 C147.259331,60.0131272 147.687782,52.9787554 148.146655,45.9441722 Z M81.876169,2.29321409 C82.2528592,1.02447828 83.5821549,0.231280626 84.8789155,0.587617221 C86.0672958,0.914364775 87.0484225,2.35725323 86.5838451,3.59175029 C86.0768028,4.93889706 85.1907465,6.08758591 84.4437042,7.31193816 C83.7537042,8.44329628 82.7472254,9.33413777 82.044338,10.4454176 L82.8188924,11.2807822 C83.2064197,11.6974906 83.5950423,12.1117033 83.988,12.518764 L85.3389507,13.9187103 C86.3911099,15.0066697 87.4498944,16.0888297 88.538493,17.1390928 C91.7396197,20.2279773 94.9914507,23.2154137 98.5764507,25.860674 C99.3925775,26.4625996 100.215042,27.0611436 101.060535,27.6216446 L101.3758,27.8306433 C101.955862,28.2105759 102.603046,28.584048 103.303775,28.519672 C105.006508,28.3632692 106.544984,26.5542688 107.715068,25.4283242 L107.77631,25.3697072 C110.675958,22.6096838 113.360958,19.5920243 115.708352,16.3473746 C116.229549,15.6264587 116.734268,14.8932845 117.225676,14.151445 C116.090746,12.8252219 116.361803,10.2363922 116.299268,8.62801644 C116.255113,7.49708102 116.251732,6.36593425 116.245606,5.23415342 L116.242515,5.0059297 C116.22869,4.27339276 116.19568,3.57082001 116.670887,2.96805558 C116.698563,2.93318278 116.755817,2.93423953 116.791099,2.95262701 C117.441965,3.29381683 117.642521,3.86508845 117.920241,4.50588494 L117.949268,4.57241566 C118.287296,5.34151937 118.610958,6.117809 118.938423,6.89135108 C119.28131,7.7012454 119.595676,8.52297534 119.914268,9.34259178 C120.062577,9.72386771 120.204127,10.1066231 120.342507,10.491492 C120.426803,10.7372924 120.514056,10.9818247 120.603634,11.2259342 L120.624761,11.2447444 C120.74307,11.3451358 120.843423,11.4512337 120.929831,11.5607131 C121.293,11.7424744 121.581592,12.0736603 121.717014,12.5601886 C122.011732,13.619265 121.401803,14.4828423 120.857789,15.3233824 C118.64793,18.7388031 116.128775,21.9933863 113.328634,24.9457386 C111.937648,26.4125096 110.47462,27.8133393 108.95138,29.1420986 L108.685092,29.3728302 C107.316737,30.5491807 105.831143,31.6634904 104.003704,31.9386857 C101.865131,32.2606199 100.124646,31.1966153 98.4875709,29.9710575 L98.3241972,29.8480086 C96.7722254,28.6726896 95.2515211,27.4561573 93.7781408,26.1836172 C90.7741268,23.589081 87.9163099,20.8032728 85.3800423,17.7469362 C82.9128592,14.774083 80.4741972,11.4499656 78.953493,7.87286184 C78.8607465,7.65495969 79.1045493,7.42691272 79.2955352,7.60888532 C80.0383521,8.31627476 80.7530704,9.06212994 81.459338,9.81749589 C81.4789859,8.705582 81.2738451,7.58415734 81.3879296,6.46526888 C81.5271549,5.10522975 81.4870141,3.60274051 81.876169,2.29321409 Z" id="ðŸ–-Ink" fill="#000000"></path>
                    </g>
                    <g id="head/No-Hair-1" transform="translate(78.591549, 38.043053)" fill-rule="evenodd">
                        <path d="M84.9435732,47.3890709 C83.0314877,39.3253229 78.8510905,31.8210772 72.1584085,25.7563303 C52.0186901,5.83741057 15.0335493,16.6490348 15.2010845,46.6654262 C14.4787606,50.1713049 14.1855211,53.7760955 14.4246761,57.3515084 C14.5235493,58.8770348 15.1835493,61.0059663 14.2968592,62.3788978 C12.2967887,64.947438 11.1343944,66.8407139 11.8150986,70.2574027 C12.383831,73.2406121 14.4132676,75.3541151 17.1521408,76.4776532 C18.7947465,76.9491757 20.3532676,77.9763382 20.9617183,79.5420211 C24.6179155,86.2384438 27.3265775,91.8083695 33.0905915,96.3720564 C34.5779155,97.5469526 49.8326771,104.593794 54.8589718,104.593794 C69.5740208,104.593794 88.1203099,99.2614262 88.4281268,82.8183734 C88.4813662,79.2068196 87.8477746,75.553207 87.4503803,71.9701855 C86.4830201,63.7934533 86.8243089,55.3206091 84.9435732,47.3890709 Z" id="ðŸŽ¨-Background" fill="#FFFFFF"></path>
                        <path d="M84.6124648,43.355744 C84.6171127,43.2559867 84.7599296,43.2335836 84.7876056,43.3320728 C85.3345775,45.2733252 85.644507,47.2509299 86.0723239,49.2224055 C86.4842958,51.1213879 86.8732394,53.0258654 87.1969014,54.9415444 C87.8076923,58.5570001 88.3223552,62.1818202 88.8010428,65.816171 L88.92,66.7249573 C89.7519718,73.1197832 91.1260563,79.7817558 89.9245775,86.2139906 C88.8992958,91.7025464 85.4617606,96.126108 81.0316901,99.3692783 C76.8369718,102.439987 71.7511268,104.410617 66.7014085,105.530985 C61.2815493,106.733779 54.8573239,107.092652 50.4475352,103.11673 C48.6821831,101.524629 51.0887324,98.3657871 53.0038732,99.8025464 C57.5009134,103.175443 63.2216981,102.181115 68.2960786,100.83899 L68.4496479,100.798218 C72.9033803,99.6114857 77.3866901,97.8126834 80.9224648,94.7781159 C84.8315493,91.4229299 86.7644366,86.7664603 86.9877465,81.6593918 C87.1130357,78.7900625 86.8456283,75.924074 86.5571871,73.0716598 L86.5250704,72.7547812 C86.1940141,69.4928008 85.8466901,66.2322998 85.5261972,62.9690513 C85.2337746,59.99338 84.9814723,57.0004025 84.8481318,54.0114263 L84.7859087,52.5038855 C84.6563278,49.4644407 84.4818739,46.3805802 84.6124648,43.355744 Z M31.8710915,18.1010959 C39.1889789,14.289816 47.5991197,12.9257613 55.7430634,14.2048532 C63.5722183,15.4344892 70.7574296,19.4759295 76.1280634,25.2709432 C78.7501056,28.1002896 81.0774296,31.3730489 82.5647535,34.9484618 C83.3035563,36.7246497 83.882007,38.5775577 84.1900352,40.4805558 C84.3484859,41.4588963 84.5041901,42.4725323 84.5339789,43.4643992 C84.5614437,44.3827162 84.2918662,45.2439687 84.3237676,46.1775029 C84.3286268,46.323546 84.1048944,46.3516556 84.0708803,46.2117417 C83.8165141,45.1708415 83.2036268,44.383773 82.8191197,43.3950763 C82.5317254,42.6568297 82.2057342,41.9360992 81.8738499,41.2175705 L81.5886972,40.6018708 C80.7609507,38.8123679 79.7715845,37.0964149 78.7927817,35.386591 C76.8218662,31.9428493 74.292993,28.8131742 71.3318662,26.1723523 C66.1327817,21.5357495 59.4628521,18.542818 52.5013732,18.0038748 C45.2758099,17.4442192 37.9469366,19.1671468 31.7762324,22.9837104 C25.6059507,26.8000626 20.9403169,32.7326654 18.5179225,39.5632955 C17.2957394,43.0102074 16.6207394,46.601683 16.4637676,50.2533933 C16.384331,52.101863 16.4584859,53.9657613 16.587993,55.810638 L16.6523211,56.6903966 C16.7276996,57.7454264 16.7793647,58.7963928 16.6217958,59.8258708 C17.7347535,59.4786223 18.9013732,59.3346928 20.0722183,59.5065205 C21.812007,59.7618317 22.8514437,60.4753503 23.6318662,62.0304658 C23.6726408,62.1116243 23.5908803,62.1927828 23.5099648,62.1524149 C22.4982042,61.6472877 20.8613028,61.9131663 19.7897535,62.1779883 C18.6746831,62.453589 17.6703169,62.9329315 16.7227817,63.5809315 C14.9698944,64.7790763 13.5958099,66.6357886 13.2586268,68.7659883 C12.9326408,70.8236947 13.7770775,72.9071859 15.1955282,74.3819883 C15.925669,75.1415812 16.7984155,75.7982466 17.7755282,76.2074207 C18.9613732,76.7043053 20.1351761,76.6888767 21.184331,77.5091272 C21.8329225,78.0161566 21.676162,78.8837495 21.2363028,79.4467867 C23.4497535,81.8747789 25.4126408,84.5310294 27.6258803,86.9685323 C28.6517958,88.098364 29.6695318,89.2295316 30.6525284,90.3957307 L31.0194718,90.8347632 C32.0010211,92.0198043 33.5627113,93.2716321 34.0112324,94.7620744 C34.2903169,95.6892681 33.2977817,96.9019961 32.2944718,96.4795068 C30.7554637,95.831228 29.6568196,94.1445712 28.6168636,92.8509346 L28.5491197,92.7671389 C27.4585563,91.426544 26.4903169,90.0113425 25.6051056,88.5282975 L25.3140415,88.0397304 C23.7133465,85.346632 22.1264155,82.5535515 21.1057394,79.5949432 C21.0383451,79.6642661 20.9669366,79.7274599 20.8917254,79.7809315 C19.4213028,80.8269041 17.2836972,80.0227162 15.8151761,79.3434364 C14.428838,78.702411 13.1578521,77.7377987 12.1672183,76.5751703 C10.0127113,74.046998 9.01954225,70.7727593 9.73911972,67.491546 C10.3486268,64.7120783 12.274331,62.0084853 14.7989789,60.6025832 C13.6336268,59.2605088 13.1510915,57.4513503 12.8299648,55.6825597 C12.4201056,53.4247045 12.3383451,51.1108415 12.4496831,48.8212838 C12.6717254,44.2609785 13.8448944,39.7657691 15.6584155,35.58991 C18.9030634,28.1180431 24.6394014,21.8679922 31.8710915,18.1010959 Z M16.4694085,67.960955 C18.0053239,67.6730959 19.436662,67.6035616 20.9180704,68.2536751 C22.5249718,68.9593738 23.6558873,70.1243366 24.7071549,71.4892368 C25.903312,73.0417738 22.8376905,74.7378618 22.0647287,72.6768079 L22.0420141,72.6131977 C21.8349718,72.0030294 21.4641972,71.4131507 20.9945493,70.8701918 C20.8536338,71.0861918 20.6651831,71.276407 20.4437746,71.3852524 C20.1756761,71.517135 19.7662394,71.4258317 19.7018028,71.0832329 C19.6303944,70.7030137 19.7094085,70.2422701 19.9287042,69.9203836 L19.9587042,69.8764227 L19.9587042,69.8764227 C18.8930704,69.0185519 17.6113099,68.3918982 16.4694085,68.1902701 C16.3553239,68.1699804 16.3565915,67.98209 16.4694085,67.960955 Z" id="ðŸ–-Ink" fill="#000000"></path>
                    </g>
                    <g id="face/Smiling" transform="translate(112.183099, 77.354207)" fill="#000000" fill-rule="evenodd">
                        <path d="M30.968993,50.9198978 C29.548794,50.3403012 28.2816173,49.3734958 27.3551889,48.1384646 C27.0331038,47.7091169 26.9495926,47.2557326 27.017159,46.8410547 C27.0931327,46.3747786 27.3688808,45.9521824 27.7449394,45.6687178 C28.1221628,45.3843752 28.5940214,45.2441445 29.0502103,45.3156301 C29.4466117,45.3777469 29.8412104,45.5948709 30.1535058,46.0451781 L30.2187521,46.1352289 C30.7695298,46.8806513 31.4872438,47.4922614 32.3050288,47.8864795 C33.0932406,48.2664417 33.9747757,48.4437847 34.8870208,48.3406561 C36.6244504,48.1443157 37.8219743,47.2043274 39.0948115,45.9278391 C39.2525834,45.7666792 39.4104563,45.6004672 39.5690946,45.4315797 C39.6692778,45.278484 39.8083069,45.1800892 39.962667,45.1284632 C40.1340565,45.0711416 40.327938,45.0743848 40.5055187,45.1363808 C40.6767961,45.1961763 40.8299095,45.309486 40.9325762,45.4602937 C41.0301525,45.6036243 41.0854754,45.7806897 41.0675245,45.9843589 C40.9510195,47.3072301 40.2596776,48.4878363 39.2776553,49.4148615 C38.1869942,50.4444414 36.7412431,51.1567117 35.3801317,51.4065272 C33.8805866,51.6817086 32.3525901,51.4845569 30.968993,50.9198978 L30.968993,50.9198978 Z M36.0875289,30.5120405 C37.6828906,31.482148 40.1137318,33.7442494 38.3974899,36.149264 C36.3773089,38.2698449 33.4687045,35.8384541 32.0353946,34.7388307 C30.7063626,33.8866164 29.2131206,36.0784478 30.4461973,37.0735516 C40.8033244,44.7445605 45.006466,30.7657101 36.8944406,29.3714319 C36.0012775,29.2177885 35.6695544,30.2119271 36.0875289,30.5120405 Z M17.5274577,21.5886716 C17.7037243,19.3998697 21.0359789,18.9028321 21.3674577,21.0687499 C21.6642887,23.0089456 21.3148521,24.7912626 20.4412606,26.5380728 C19.6065423,28.2068947 17.5085456,27.4283107 17.3498837,25.9087021 C17.1372039,23.8717299 17.4178099,22.9502317 17.5274577,21.5886716 Z M42.8930282,20.6196517 C43.3576056,20.0109628 44.0283803,19.5954481 44.8320423,19.8302583 C47.3429577,20.5642779 46.6028873,24.1303914 45.7210563,25.8662114 C45.2419014,26.8088337 43.6930986,27.0478708 42.993169,26.2178982 C41.8523239,24.864411 41.3059859,22.1614521 42.756338,20.8282544 C42.7956338,20.7593542 42.8393662,20.68982 42.8930282,20.6196517 Z M20.4058944,12.0111429 L20.802522,11.9416942 C22.0295218,11.7294045 23.5551549,11.5254176 24.4231479,12.5122544 C24.8835,13.0355577 25.0419507,14.0081918 24.4231479,14.509092 C23.3346972,15.3904227 22.1313169,15.0488806 20.8269507,15.1234873 C19.7520211,15.1852016 18.7189225,15.3631585 17.6835,15.6592603 C15.4119507,16.3087397 13.5610352,17.4944149 11.6209648,18.7963327 C11.3663873,18.9671037 11.1065282,18.6414129 11.228007,18.4032211 C12.3479366,16.208771 14.5182887,14.4061644 16.6922324,13.3073542 C17.8525141,12.7208571 19.1222324,12.2343288 20.4058944,12.0111429 Z M40.6041287,11.0281289 L40.9077055,11.0902829 C44.2113469,11.7811043 48.5035506,13.1610768 50.0679842,16.4073021 C50.1275964,16.8663298 50.0646105,16.9647086 50.0133917,17.0289838 L49.9963385,17.0503723 C49.9541341,17.1052595 49.9204583,17.1809212 49.7215736,17.2433957 C49.6663832,17.2302408 49.6106433,17.216308 49.5543131,17.2015401 C48.8372041,17.0135386 48.2698321,16.7545401 47.720556,16.4857982 L47.1250012,16.192275 C46.4340388,15.8533498 45.7369757,15.5267598 44.9982488,15.2856588 C43.4217423,14.7712438 41.8001698,14.4088706 40.1534741,14.2153715 C39.7965654,14.1734678 39.4528848,14.0529641 39.1817455,13.8464404 C38.92438,13.6504079 38.7277692,13.3789964 38.6381257,13.0182314 C38.5219478,12.5513438 38.5553348,12.1978716 38.8057421,11.7766707 C38.9940329,11.4603578 39.263447,11.2411116 39.5728025,11.115213 C39.888177,10.9868648 40.2472278,10.9566068 40.6041287,11.0281289 Z" id="ðŸ–-Ink"></path>
                    </g>
                    <g id="facial-hair/Full-3" transform="translate(104.577451, 109.479380)" fill="#000000" fill-rule="evenodd">
                        <path d="M48.1678099,22.0460971 C46.2002746,20.2925237 43.9948521,16.7672008 41.1683028,19.556602 C40.4692183,20.3447272 40.1861197,22.1116157 39.1171056,22.4582301 C37.6973873,22.9189738 36.2903451,21.4162732 35.8065423,20.2623006 C33.8269648,13.8505667 42.0102042,12.0919209 46.6720352,13.1277487 C48.9495,14.0633965 50.6269648,17.8296587 50.7283732,19.7952164 C50.7938662,21.1161558 49.6762606,23.058465 48.1678099,22.0460971 M63.0114718,12.1633573 C62.9922465,12.0781832 62.9654155,12.0012517 62.9330915,11.9312947 C62.0628803,11.6022223 61.3743592,11.9378466 60.9488662,12.5647115 C60.9628099,12.7204767 61.0092887,12.8783554 61.0386549,13.0328524 C60.7103451,13.7248133 60.4141479,14.5809933 59.9692183,15.1789033 C59.881331,15.1856665 59.7902746,15.1763671 59.7028099,15.1510051 C52.3268239,15.9215883 55.9278803,8.20117339 48.4466831,6.28359217 C42.6636549,5.32913425 32.2114014,6.42244932 29.4833028,12.4440305 C27.3317535,22.0621597 16.3916831,15.3602419 12.7997113,10.3582145 C8.96710563,5.80594051 6.48893662,0.243200783 4.0995,-5.15468571 C3.59457042,-6.29703405 2.01872535,-5.48016517 2.19006338,-4.38410254 C-0.018528169,0.0481244618 0.0549929577,5.37203836 -0.491978873,10.2276 C-1.42240141,19.9148407 -2.3289507,33.5000149 6.66830282,39.4150755 C18.3909085,52.6703319 47.6637254,57.3479366 61.1844296,45.1686646 C65.8648521,35.1020501 65.2878803,22.8211186 63.0114718,12.1633573" id="ðŸ–-Ink"></path>
                    </g>
                    <g id="accessories/*-None" transform="translate(88.521127, 88.978474)"></g>
                </g>
            </g>
        </g>
    </g>
</svg>