<?xml version="1.0" encoding="UTF-8"?>
<svg width="240px" height="324px" viewBox="0 0 240 324" version="1.1" xmlns="http://www.w3.org/2000/svg" xmlns:xlink="http://www.w3.org/1999/xlink">
    <!-- Generator: Sketch 62 (91390) - https://sketch.com -->
    <title>peep-23</title>
    <desc>Created with Sketch.</desc>
    <g id="Introduction" stroke="none" stroke-width="1" fill="none" fill-rule="evenodd">
        <g id="variations" transform="translate(-846.000000, -434.000000)">
            <g id="images" transform="translate(126.000000, 110.000000)">
                <g id="a-person/bust" transform="translate(720.000000, 324.000000)">
                    <g id="body/Tee-Selena" transform="translate(31.056338, 135.052838)" fill-rule="evenodd">
                        <path d="M108.981739,151.709016 C91.837162,151.757204 81.5685,151.55621 62.1758239,151.275748 C39.7305423,150.681642 33.6815282,151.750018 21.1073028,149.280178 C19.1847676,148.871427 17.722162,148.252593 16.2386408,147.38965 C15.7068803,147.99073 14.8054014,148.884953 13.9493451,148.292961 C12.3724437,147.250582 13.0954014,143.608593 12.7043451,141.552155 C12.0570211,123.442816 11.0215986,104.793055 14.5611761,86.9028869 C12.415331,86.2050082 -0.158471831,81.030519 -0.845091549,79.2970239 C10.5255423,49.5534857 35.4690634,14.7472626 68.287162,16.0580571 C68.947162,16.8721785 69.5342746,18.0770865 70.2667394,18.9060023 C74.7287113,17.2346442 80.9224437,15.5594818 81.2281479,9.12407671 C82.0007535,4.8292274 82.5574437,0.819278278 82.9294859,-3.1278998 C82.9968803,-3.57934403 83.5381479,-3.73447515 83.8706831,-3.92680391 C84.0120211,-4.94741448 84.3365282,-5.99063953 85.0408944,-6.69042035 C90.7924437,-7.20738317 103.921669,-4.83455342 107.367021,-3.85684697 C112.067303,-3.0522364 111.57843,1.99396321 112.453923,5.81940352 C113.841951,10.5483663 114.808077,15.4563429 116.870894,20.0764603 C117.337585,20.1407108 118.644908,20.368335 119.12681,20.4526638 C119.151951,19.9291491 118.906458,18.3753018 119.386246,18.0582763 C120.275472,17.1642646 120.480613,18.864789 120.678148,19.4193722 C140.100401,15.7503311 152.801176,32.2379789 157.057162,50.6550434 C160.139345,59.9170474 164.223782,69.2904329 169.555542,79.3430982 C172.899063,85.5846951 163.293148,86.7443742 159.266387,89.2353487 C163.421599,105.409141 163.92188,121.880515 164.603852,138.181963 C164.783852,140.689423 165.0285,144.099137 164.140542,145.34695 C163.719275,145.674542 163.426458,145.665454 162.999275,145.689337 C162.17512,146.579122 160.761317,146.519944 159.571246,146.773987 C155.808993,147.45855 151.95357,147.915701 148.331387,147.984813 C138.164345,154.27967 122.489979,150.759631 108.981739,151.709016" id="ðŸŽ¨-Background" fill="#FFFFFF"></path>
                        <path d="M81.5150493,-3.14011585 C82.0491338,-5.81475382 86.4620915,-5.19507476 86.2615986,-2.49761096 C84.033993,7.54152798 85.3901197,19.762436 71.3097676,18.7743734 C80.2478662,34.5022168 107.848711,44.0679311 116.77012,23.4187961 C112.374063,22.8940133 111.504275,12.4979037 110.973359,8.86035382 L110.951583,8.53520778 C110.833804,6.66448198 110.873226,4.93056026 111.997585,3.33058474 C113.119415,4.17070215 113.570261,5.69221292 113.95012,7.07972759 L114.228274,8.19104666 C115.158237,11.8942261 116.131343,15.5807167 117.606951,19.1150701 L117.659134,19.1235241 L117.659134,19.1235241 C117.585401,16.726389 120.661669,15.6305378 121.424134,18.1984438 C142.238007,15.3310544 153.623641,32.5136219 158.115824,50.483892 C161.392162,60.3207687 165.66357,69.7846121 170.515542,78.9322755 C174.177232,86.0799311 165.28519,87.7159937 160.581739,90.0941072 C164.199275,104.592949 164.909345,119.613825 165.579908,134.484643 C165.357444,137.658279 166.791739,144.168503 164.876176,146.444323 C162.039486,148.664769 160.511176,144.858773 160.947866,142.418311 C161.35519,125.163039 159.558993,107.984276 159.043077,90.7564791 C155.49188,92.2572775 151.897373,93.6401425 148.262725,94.9247295 C148.447796,111.091125 150.369275,127.257309 151.054627,143.341066 C151.953782,144.049935 152.450472,145.278726 151.682725,146.349638 C147.570613,152.08653 140.136317,152.943344 133.595049,153.025559 C118.028218,153.220847 102.44512,153.160842 86.8772324,153.114115 C71.5852606,152.767712 56.1601901,153.747321 40.9489225,151.993959 C37.9679366,154.233849 37.3582183,149.405551 37.7575141,147.345943 L37.9091573,143.220573 C38.0111761,140.470295 38.1192042,137.720205 38.2582183,134.971806 L38.6048214,128.270216 C39.185108,117.101933 39.8001901,105.939497 40.7758944,94.7930583 C31.939838,93.5845573 23.2307535,91.4393519 14.7992746,88.5444869 C15.4932887,107.894663 14.0695563,127.452385 16.4435704,146.704072 C18.0101197,148.83089 14.8683592,150.827516 13.0343451,149.495164 C10.759838,147.760189 11.7352606,144.365904 11.2810352,141.868166 L11.2227626,140.253481 C10.5861186,122.839145 9.71638521,105.058911 12.9610352,87.8838059 L11.5653772,87.3420889 C7.31096233,85.6805037 -3.63006761,81.2370526 -2.19530282,79.0447139 C9.22688028,49.1039859 34.7777958,13.2927922 68.618007,14.9945847 C69.475331,15.5897472 69.9130775,16.7492149 70.548993,17.5802442 L71.5555996,17.2147564 C75.4546399,15.7870381 79.688962,13.9768739 79.8044155,9.1758998 C80.5425845,5.08500352 81.128007,0.99326184 81.5150493,-3.14011585 Z M137.282725,71.4885182 C142.130261,64.7058646 108.509556,75.4255515 106.119063,76.1331523 L105.218983,76.4612863 C90.4934805,81.8164188 74.6188014,86.9950229 62.8770211,97.6695358 C62.6302606,97.9398528 62.9374437,98.3133088 63.256669,98.1617706 L63.2976194,98.1376161 C63.7647655,97.8776156 65.7873239,97.1552508 64.3544155,97.4288078 C81.3202606,86.7256063 101.030894,80.8460524 120.290683,75.7036885 C123.089556,75.0267335 125.901739,74.4043068 128.724908,73.8376767 C131.572796,73.1452932 134.786387,73.1529018 137.282725,71.4885182 Z M84.1561056,69.2809644 C84.5708239,67.590162 87.3570211,52.0518998 82.7294155,56.3146239 C81.4956127,58.5504986 81.0219507,61.1412305 80.7999085,63.6588352 C80.2030775,66.5940681 81.7094155,69.7573479 80.2446972,72.4632658 C78.9333592,75.9974654 74.1137113,80.1261933 73.7917394,73.5599624 C81.6770915,73.2904908 79.309838,63.2953127 73.9413169,66.3854654 C71.0017394,68.902436 70.493007,73.6419663 71.9646972,77.1142403 C69.5881479,74.5264673 65.7346268,74.517802 62.9839225,72.5649252 C58.0163873,67.1932462 66.3599789,61.6032423 70.9032887,59.6685417 C71.1591338,59.3868117 74.8837817,58.0882755 74.0944859,57.9312423 C70.5278662,57.9642129 66.9536408,58.7233832 63.8756831,60.5999624 C57.5051197,63.7091366 55.3368803,73.3355084 62.6243451,76.7090818 C64.2001901,77.4686748 65.9247676,77.8770035 67.4849789,78.6613245 C71.416669,80.7000094 70.1463169,83.262209 66.0874437,83.3374497 C64.418007,83.7022403 58.9087817,82.1735436 59.5256831,85.1005339 C60.5222324,86.9304047 62.6923732,87.2030466 64.5935704,87.2541933 C69.6749789,87.60271 75.9935704,84.7313049 73.1218099,78.751571 C76.5882887,81.7058254 80.9169507,77.575618 82.4025845,74.3658411 C84.2129366,77.9171601 88.7636408,76.8477276 91.3318099,74.7462716 C95.2558944,77.8376924 100.179697,74.4015593 101.927725,70.5638607 C101.96343,71.3623421 101.999134,72.1606121 102.037796,72.9590935 C102.11681,74.5955789 104.652021,75.1209957 105.02681,73.3638294 C105.59681,70.6923616 106.382725,68.0506943 107.463782,65.5396415 C109.950824,58.9385378 111.471528,61.914984 111.558148,67.0877824 C111.864486,69.0298802 112.836739,70.7701386 114.982585,70.9009644 C115.580683,70.937528 116.360894,70.4053479 116.454275,69.7801738 L116.577831,68.9530436 C116.839224,67.2198323 117.142045,65.4350595 117.796246,63.8065691 C118.426458,69.1972697 125.483641,69.1712736 127.451176,64.7014262 C131.533462,67.1522168 135.816806,63.7283915 137.719941,60.1873742 L137.77688,60.0800407 C138.441951,58.8690035 136.752021,57.404346 135.785894,58.5433127 L135.450572,58.8926466 C133.628561,60.7791615 130.729661,63.5145633 128.333852,61.1847687 C128.4135,60.1341464 128.381387,59.0609096 128.316739,58.0274067 C128.239204,56.7948117 126.5385,55.6983264 125.571528,56.8005182 C124.208641,55.6421072 122.515542,55.8088626 121.089908,56.6170661 C117.396951,57.6609252 115.070683,61.2572618 114.269556,64.831618 C114.184415,61.9756415 113.250401,58.8770348 110.114134,58.6084086 C106.900965,58.5811444 105.670965,62.1747335 104.57512,64.5932149 C104.511528,63.5100446 104.450261,62.4270857 104.39512,61.3437041 C104.300591,59.4798037 101.716013,59.4992904 101.504373,61.2885883 L101.498641,61.3439155 C101.091528,65.2109918 98.950331,74.4744751 93.5473732,72.6617237 C95.8256831,70.1510935 99.9468803,62.5006356 96.0289225,60.1176611 C89.9991338,58.5995319 86.9061761,68.1147335 89.4777254,72.5427335 L89.3442528,72.6363622 C87.8752475,73.6501431 85.4475718,74.7787097 84.6274437,72.5063812 L84.5344897,72.2968146 C84.1133282,71.336083 83.7415122,70.2954026 84.1561056,69.2809644 Z M75.5305563,68.2085307 C76.6722465,67.5419319 77.0785141,69.7496971 76.7871761,70.4906912 C76.3202746,71.6793252 75.0467535,72.3414857 73.7774577,72.7946207 L73.7818072,72.660167 C73.8378675,71.3027341 74.290412,68.9338156 75.5305563,68.2085307 Z M94.7485141,62.697593 C94.7742887,62.8567397 94.7322465,63.0509706 94.7269648,63.1987045 C94.5317535,65.8010607 93.3744296,68.2998552 91.7647817,70.3307202 C90.838162,67.5715421 92.0324577,63.9253268 94.7485141,62.697593 Z M122.196972,59.4430098 C122.936831,59.2479335 123.721056,59.3026732 124.483732,59.5089511 C124.42838,60.3763327 124.61662,61.2439256 124.994155,62.0400822 C123.025352,67.9549315 118.396901,63.4018121 122.196972,59.4430098 Z" id="ðŸ–-Ink" fill="#000000"></path>
                    </g>
                    <g id="head/Long-Curly" transform="translate(78.591549, 38.043053)" fill-rule="evenodd">
                        <path d="M72.5508169,31.0088712 C58.6557465,19.7109299 36.3887746,16.0425229 21.5149014,27.4408556 C9.95771831,38.137928 5.17504225,68.5355953 7.22032394,83.8103037 C7.78905634,93.6074466 15.2710986,104.712002 26.2542676,101.613396 C28.119338,101.429732 29.9303239,100.714523 31.812507,100.564676 C34.0639859,100.305349 36.3325775,100.30091 38.5796197,100.61857 C43.4759577,101.311376 47.8164507,103.912041 52.5687042,105.12794 C61.3868028,107.383893 71.2257465,105.866398 78.816169,100.784691 C103.899338,84.28711 92.5373662,46.9763859 72.5508169,31.0088712 L72.5508169,31.0088712 Z" id="ðŸŽ¨-Background" fill="#FFFFFF"></path>
                        <path d="M70.7003451,105.39944 C70.9583028,105.310462 71.215838,105.217679 71.4714718,105.122571 C71.4883732,105.18175 71.515838,105.238603 71.5477394,105.293765 C71.5836549,105.382532 71.6195704,105.468975 71.6595,105.555628 C71.3385845,105.557953 71.0172465,105.500677 70.7003451,105.39944 M70.1850634,-4.0844501 C70.0709789,-4.3399726 69.9397817,-4.58513894 69.7918944,-4.82206262 C70.1510493,-4.70560861 70.5104155,-4.54498239 70.8357676,-4.3378591 C70.6160493,-4.2638865 70.4003451,-4.17934638 70.1850634,-4.0844501 M15.2998521,29.3429237 C15.2850634,29.3403875 15.2704859,29.338274 15.2559085,29.3357378 C15.4443592,28.8337808 15.7800634,28.3599335 16.150838,28.0177573 C16.2173873,27.9562544 16.2894296,27.8994012 16.3591479,27.8406458 C15.9655563,28.3096321 15.6085141,28.8098982 15.2998521,29.3429237 M115.725697,81.8315577 C115.539782,80.0688963 115.303162,78.3127867 114.996824,76.5668219 C114.703162,74.8952524 114.455979,73.107229 113.60457,71.6235499 C112.7595,70.1462114 111.912317,68.7109315 110.906894,67.4113386 C111.050345,66.7476986 111.240697,66.1242153 111.405275,65.6212016 C112.355979,62.7257025 113.292106,59.0482074 111.316542,56.3577182 C110.858092,55.7342348 110.298444,55.2565832 109.658092,54.8254286 C109.385556,54.6415538 108.933655,54.4745871 108.724289,54.2209667 C108.576401,54.041319 108.627317,54.1385401 108.620768,54.049773 C108.584852,53.5721213 109.70457,52.5639804 109.966542,52.1856634 C110.456894,51.4858826 110.822176,50.6977573 111.101049,49.8925127 C112.203866,46.7053503 111.453866,43.1948219 110.790697,40.0011076 C110.439993,38.3084031 110.053373,36.6112603 109.926401,34.8824149 C109.808092,33.2592446 110.029923,31.6741174 110.160908,30.0594012 C110.28788,28.4656086 110.254077,26.8215147 109.571472,25.3460783 C109.237669,24.6274873 108.732951,23.9934364 108.117951,23.4988767 C107.518162,23.0150959 106.770063,22.734 106.185063,22.2521213 C105.601754,21.7721448 105.768655,21.1235108 105.920979,20.4598708 C106.129923,19.5595186 106.394007,18.6655068 106.419359,17.7355656 C106.465838,16.1145088 105.80457,14.5355108 104.771683,13.3098904 C103.706683,12.0439022 102.185556,11.1877221 100.541894,10.9953933 C99.7897817,10.9066262 99.0503451,11.0568963 98.3024577,11.0040587 C97.5630211,10.9533346 97.402669,10.5834716 97.2630211,9.90715068 C96.9421056,8.35795303 97.0728803,6.82777691 96.3104155,5.3821409 C95.6343592,4.09713112 94.4320352,3.22615656 93.103162,2.71278669 C90.6674577,1.77016438 87.8343592,1.96460665 85.2651338,2.52024658 C83.7484437,-1.94326027 79.0139366,-4.87046184 74.3554859,-4.90639139 C73.6285141,-6.1406771 72.3968239,-7.06216438 70.9921056,-7.60343249 C68.668162,-8.50167123 66.2066831,-7.97731115 63.7857676,-7.97731115 L63.7752042,-7.97731115 C63.5320352,-7.99231703 63.2890775,-7.99844618 63.046331,-7.99633268 C62.8179507,-8.00922505 62.5897817,-8.02824658 62.3616127,-8.05339726 C59.6066831,-8.37908806 56.881331,-9.50769863 54.1517535,-8.40212524 C52.9348521,-7.90967906 51.9672465,-7.15093151 51.3547817,-6.18294716 C50.4315423,-5.93165166 49.5207676,-5.64400391 48.6273169,-5.31007045 C44.7545704,-5.20883366 40.9179507,-3.13126027 38.9597113,0.235761252 C36.202669,-0.077037182 33.2111197,0.453452055 31.387669,2.70644618 C30.9127394,3.2927319 30.5449225,3.9815225 30.3011197,4.71279452 C28.4419648,5.31429746 26.7216127,6.38605479 25.5957676,8.00034834 C24.5683732,9.47345988 24.3710493,11.3781487 25.0659085,12.9594716 C23.4061901,14.1622661 22.1092183,15.884137 21.4845,17.9173268 C21.1048521,19.1526693 21.0484437,20.4290137 21.292669,21.6449119 C19.5934437,22.0219609 17.968162,22.7208963 16.528162,23.7698278 C15.0190775,24.868638 13.1343592,26.6175616 13.0350634,28.6304618 C13.027669,28.7781957 13.0333732,28.9259295 13.0452042,29.0732407 C9.72302113,28.8396986 6.33555634,29.4027358 4.08999296,32.067229 C2.4038662,34.0663914 1.67097887,36.6408493 2.12097887,38.9847241 C-1.83183803,39.7878552 -5.56937324,41.8548611 -8.17641549,44.9109863 C-10.0712746,47.1322779 -11.7550775,49.9559178 -11.6538803,52.9801292 C-11.6221901,53.8912603 -11.4085986,54.8085205 -11.0388803,55.6560352 L-11.0388803,55.6579374 C-11.197331,55.9561526 -11.3602183,56.2879726 -11.5165563,56.6409276 C-13.9651479,58.3547671 -15.7440211,61.0412407 -16.7454296,64.0022583 C-17.5543732,66.4008728 -18.0635282,69.5163875 -17.1996549,71.9574834 C-17.0684577,72.3294599 -16.9015563,72.6803014 -16.7071901,73.0055695 C-16.8700775,73.1790881 -17.0240915,73.3523953 -17.1740915,73.527816 C-18.8243028,75.4572329 -20.4954296,77.8877613 -20.3811338,80.5444344 C-20.3346549,81.6140783 -19.9376831,82.6898513 -19.2888803,83.5730841 C-21.5707817,85.8875812 -23.4085986,88.8084423 -23.2271197,92.0695773 C-23.0707817,94.9080117 -21.5135282,97.7908297 -19.0735986,99.1540391 C-19.4811338,101.341515 -18.9360634,103.64946 -17.2334577,105.35717 C-16.3839507,106.211025 -15.3827535,106.773217 -14.3219789,107.073335 C-14.0853592,109.649695 -11.7996549,111.723041 -9.37219014,112.318838 C-8.9198662,112.431065 -8.46775352,112.498697 -8.01796479,112.530188 C-5.83345775,113.601945 -3.22852817,113.479151 -0.99965493,112.496372 C-0.342612676,113.331417 0.513021127,114.011965 1.51020423,114.500184 C1.91372535,114.698853 2.34069718,114.863706 2.78626056,114.996646 C5.93414789,115.928701 9.16252817,114.665037 11.9151338,113.189812 C12.0038662,113.143315 12.1665423,113.084137 12.3102042,113.018618 C12.6904859,113.443432 13.3834437,113.86402 13.7447113,114.071143 C14.9702746,114.774939 16.468162,115.102321 17.8752042,115.009538 C19.5252042,114.899636 20.9806268,114.354352 22.3285141,113.578697 C22.5252042,113.612513 22.7235845,113.631534 22.9223873,113.642102 C24.189993,113.709523 25.3200634,113.308168 26.3364718,112.674117 C27.0080915,112.762885 27.6968239,112.754431 28.394007,112.631847 C29.9301338,113.022634 31.4259085,112.401476 32.6278099,111.41447 C33.1604155,110.976975 33.6102042,110.463393 34.0921056,109.973061 C34.5925986,109.463495 34.9730915,109.34535 35.5580915,109.002963 C36.9421056,108.193491 37.1087958,106.14128 36.5087958,104.657389 C36.6228803,104.39764 36.6885845,104.10809 36.6885845,103.786838 C36.6841479,100.984333 35.3935141,98.4143131 33.809007,96.1718865 C33.1010493,95.1721996 32.3322465,94.1934364 31.4890775,93.3059765 C30.8109085,92.5935147 29.8583028,91.4376399 28.8547817,91.1478787 C28.7935141,91.1037065 28.7299225,91.0591115 28.6665423,91.0170528 C28.8611197,90.3362935 28.974993,89.6432759 28.9266127,88.9352524 C28.8756972,88.2079961 28.6411901,87.5189941 28.2653451,86.9316517 C29.5264014,84.4863288 30.059007,81.8042935 29.8054859,79.0060157 C30.8320352,77.5496008 31.6097113,75.9414364 32.0109085,74.178775 C32.2580915,73.0882074 32.3998521,71.9405753 32.3806268,70.8223209 C32.3721761,70.2857025 32.1756972,69.6070568 32.1716831,69.0514168 C32.2012606,69.2268376 32.4294296,68.5716517 32.518162,68.4087006 C33.5362606,66.5173268 34.844007,65.0421018 35.0618239,62.8123562 C35.1883732,61.5081135 34.8799225,60.0669159 34.0982324,58.9974834 C34.5989366,57.0234716 34.5925986,54.9034168 33.8045704,53.0204971 C33.5933028,52.5174834 33.3505563,52.0250372 33.0716831,51.557953 C33.2003451,51.1648415 33.3188662,50.7675029 33.4707676,50.4101096 C33.5301338,50.2685049 33.5890775,50.124998 33.6482324,49.9812798 C34.2207676,49.4759413 34.7533732,48.9245284 35.2012606,48.3832603 C36.194007,47.1851155 36.952669,45.8113386 37.0477394,44.2281135 C37.0942183,43.4355499 36.9083028,42.6768023 36.6780211,41.9246067 C36.5764014,41.5843327 36.5151338,41.2060157 36.3947113,40.8741957 C36.3273169,40.6901096 36.1644296,40.5022192 36.1075986,40.3289119 C36.0947113,40.2908689 36.0841479,40.2591663 36.0756972,40.2338043 C36.0841479,40.2084423 36.0906972,40.1556047 36.0906972,40.0560587 C36.0925986,39.2973112 36.1918944,38.5554716 36.196331,37.824411 C36.8914014,38.5260939 37.7280211,39.0500313 38.6787254,39.3567006 C40.5947113,39.9717299 42.5935141,39.6927476 44.2897817,38.7437847 C46.1153451,39.9949785 48.1665423,41.1276047 50.3174577,41.5822192 C51.5954155,41.8525362 52.8759085,41.7407319 54.1580915,41.9076986 C55.4320352,42.0746654 56.6639366,42.6305166 57.8637254,43.0637847 C60.5343592,44.0296556 63.1982324,45.0206771 65.8771056,45.9613973 C68.0404859,46.7201448 70.381331,47.3224932 72.646331,46.8955656 C73.2822465,47.8760196 74.1083028,48.7047241 75.1667535,49.3134129 C75.924993,49.746681 76.7573873,50.0402466 77.6172465,50.1862896 C78.3778099,50.3152133 79.2695704,50.2644892 79.8862606,50.7865245 C80.4883732,51.2937652 80.8644296,52.0501879 81.4052746,52.621045 C82.0075986,53.2593229 82.7510493,53.8130607 83.5306268,54.2103992 C84.1559789,54.5295382 84.7942183,54.7596986 85.4425986,54.9099687 C85.3857676,56.3534912 85.3306268,57.7949002 85.3137254,59.2405362 C85.2822465,62.3812016 85.2947113,65.5216556 85.252669,68.6625323 C85.2104155,71.7924188 85.1111197,74.922728 84.946331,78.0485988 C84.7897817,80.9821409 84.5700634,83.9260391 83.8707676,86.7879335 C81.5510493,96.2839022 72.8616127,103.083041 63.1348521,103.429656 C60.2470352,103.533217 57.3883732,103.127425 54.6271056,102.277585 C51.7667535,101.396466 49.2123169,99.5828689 46.2799225,99.0251155 C45.5130211,98.8811859 44.7904859,99.6528258 45.2299225,100.394454 C45.9864718,101.669108 46.9052746,102.446877 48.1623169,103.213867 C49.4787254,104.015096 50.9447113,104.60899 52.3918944,105.128912 C55.0538662,106.084004 57.8702746,106.637953 60.6949225,106.792239 C62.8496408,106.910384 65.0130211,106.76265 67.1235845,106.356857 C67.2716831,106.81126 67.5336549,107.252982 67.7320352,107.673569 C67.7616127,107.734861 67.8611197,107.692591 67.8421056,107.629186 C67.8102042,107.523511 67.7892887,107.430517 67.780838,107.354431 C68.4904859,108.280145 69.5869648,108.920325 70.7132324,109.231221 C71.5073873,109.451025 72.3505563,109.518446 73.168162,109.425663 C73.4322465,109.395863 73.6834437,109.351691 73.9329507,109.29674 C74.7651338,110.025898 75.8299225,110.512004 76.8989366,110.755057 C76.7153451,111.870986 77.2665423,113.088364 78.5449225,113.405389 C79.081331,113.53854 79.5968239,113.540654 80.1125282,113.492043 C80.5287254,113.686485 80.9766127,113.838658 81.4519648,113.942219 C82.0707676,114.077483 82.8102042,113.903965 83.2771056,113.456114 C83.5327394,113.635761 83.7714718,113.760458 84.0080915,114.045569 C84.9822465,115.220888 87.0820352,114.284607 87.174993,112.925624 C87.4834437,112.925624 87.794007,112.929851 88.1047817,112.940419 C88.1785141,112.974235 88.2524577,113.008051 88.3285141,113.04398 C89.6869648,113.675706 91.094007,114.227542 92.596331,113.730869 C92.8728803,113.639777 93.1264014,113.523746 93.3566831,113.388481 C94.4151338,113.483589 95.4587958,113.485703 96.5322465,113.139088 C97.1660493,112.933867 97.7616127,112.608599 98.2580915,112.181671 C99.9144296,112.667777 101.661824,112.887581 103.309711,112.285022 C104.543303,111.835057 105.536472,111.12492 106.235556,110.188427 C107.304782,110.226681 108.390486,109.968834 109.368655,109.459479 C111.041894,108.592943 112.21443,106.946313 113.032035,105.295879 C114.832246,101.654313 115.897035,97.7422192 116.315134,93.7075421 C116.727106,89.7341566 116.139782,85.7819061 115.725697,81.8315577" id="ðŸ–-Ink" fill="#000000"></path>
                    </g>
                    <g id="face/Smiling" transform="translate(112.183099, 77.354207)" fill="#000000" fill-rule="evenodd">
                        <path d="M30.968993,50.9198978 C29.548794,50.3403012 28.2816173,49.3734958 27.3551889,48.1384646 C27.0331038,47.7091169 26.9495926,47.2557326 27.017159,46.8410547 C27.0931327,46.3747786 27.3688808,45.9521824 27.7449394,45.6687178 C28.1221628,45.3843752 28.5940214,45.2441445 29.0502103,45.3156301 C29.4466117,45.3777469 29.8412104,45.5948709 30.1535058,46.0451781 L30.2187521,46.1352289 C30.7695298,46.8806513 31.4872438,47.4922614 32.3050288,47.8864795 C33.0932406,48.2664417 33.9747757,48.4437847 34.8870208,48.3406561 C36.6244504,48.1443157 37.8219743,47.2043274 39.0948115,45.9278391 C39.2525834,45.7666792 39.4104563,45.6004672 39.5690946,45.4315797 C39.6692778,45.278484 39.8083069,45.1800892 39.962667,45.1284632 C40.1340565,45.0711416 40.327938,45.0743848 40.5055187,45.1363808 C40.6767961,45.1961763 40.8299095,45.309486 40.9325762,45.4602937 C41.0301525,45.6036243 41.0854754,45.7806897 41.0675245,45.9843589 C40.9510195,47.3072301 40.2596776,48.4878363 39.2776553,49.4148615 C38.1869942,50.4444414 36.7412431,51.1567117 35.3801317,51.4065272 C33.8805866,51.6817086 32.3525901,51.4845569 30.968993,50.9198978 L30.968993,50.9198978 Z M36.0875289,30.5120405 C37.6828906,31.482148 40.1137318,33.7442494 38.3974899,36.149264 C36.3773089,38.2698449 33.4687045,35.8384541 32.0353946,34.7388307 C30.7063626,33.8866164 29.2131206,36.0784478 30.4461973,37.0735516 C40.8033244,44.7445605 45.006466,30.7657101 36.8944406,29.3714319 C36.0012775,29.2177885 35.6695544,30.2119271 36.0875289,30.5120405 Z M17.5274577,21.5886716 C17.7037243,19.3998697 21.0359789,18.9028321 21.3674577,21.0687499 C21.6642887,23.0089456 21.3148521,24.7912626 20.4412606,26.5380728 C19.6065423,28.2068947 17.5085456,27.4283107 17.3498837,25.9087021 C17.1372039,23.8717299 17.4178099,22.9502317 17.5274577,21.5886716 Z M42.8930282,20.6196517 C43.3576056,20.0109628 44.0283803,19.5954481 44.8320423,19.8302583 C47.3429577,20.5642779 46.6028873,24.1303914 45.7210563,25.8662114 C45.2419014,26.8088337 43.6930986,27.0478708 42.993169,26.2178982 C41.8523239,24.864411 41.3059859,22.1614521 42.756338,20.8282544 C42.7956338,20.7593542 42.8393662,20.68982 42.8930282,20.6196517 Z M20.4058944,12.0111429 L20.802522,11.9416942 C22.0295218,11.7294045 23.5551549,11.5254176 24.4231479,12.5122544 C24.8835,13.0355577 25.0419507,14.0081918 24.4231479,14.509092 C23.3346972,15.3904227 22.1313169,15.0488806 20.8269507,15.1234873 C19.7520211,15.1852016 18.7189225,15.3631585 17.6835,15.6592603 C15.4119507,16.3087397 13.5610352,17.4944149 11.6209648,18.7963327 C11.3663873,18.9671037 11.1065282,18.6414129 11.228007,18.4032211 C12.3479366,16.208771 14.5182887,14.4061644 16.6922324,13.3073542 C17.8525141,12.7208571 19.1222324,12.2343288 20.4058944,12.0111429 Z M40.6041287,11.0281289 L40.9077055,11.0902829 C44.2113469,11.7811043 48.5035506,13.1610768 50.0679842,16.4073021 C50.1275964,16.8663298 50.0646105,16.9647086 50.0133917,17.0289838 L49.9963385,17.0503723 C49.9541341,17.1052595 49.9204583,17.1809212 49.7215736,17.2433957 C49.6663832,17.2302408 49.6106433,17.216308 49.5543131,17.2015401 C48.8372041,17.0135386 48.2698321,16.7545401 47.720556,16.4857982 L47.1250012,16.192275 C46.4340388,15.8533498 45.7369757,15.5267598 44.9982488,15.2856588 C43.4217423,14.7712438 41.8001698,14.4088706 40.1534741,14.2153715 C39.7965654,14.1734678 39.4528848,14.0529641 39.1817455,13.8464404 C38.92438,13.6504079 38.7277692,13.3789964 38.6381257,13.0182314 C38.5219478,12.5513438 38.5553348,12.1978716 38.8057421,11.7766707 C38.9940329,11.4603578 39.263447,11.2411116 39.5728025,11.115213 C39.888177,10.9868648 40.2472278,10.9566068 40.6041287,11.0281289 Z" id="ðŸ–-Ink"></path>
                    </g>
                    <g id="accessories/*-None" transform="translate(88.521127, 88.978474)"></g>
                </g>
            </g>
        </g>
    </g>
</svg>