<?xml version="1.0" encoding="UTF-8"?>
<svg width="240px" height="324px" viewBox="0 0 240 324" version="1.1" xmlns="http://www.w3.org/2000/svg" xmlns:xlink="http://www.w3.org/1999/xlink">
    <!-- Generator: Sketch 62 (91390) - https://sketch.com -->
    <title>peep-83</title>
    <desc>Created with Sketch.</desc>
    <g id="Introduction" stroke="none" stroke-width="1" fill="none" fill-rule="evenodd">
        <g id="variations" transform="translate(-2766.000000, -1730.000000)">
            <g id="images" transform="translate(126.000000, 110.000000)">
                <g id="a-person/bust" transform="translate(2640.000000, 1620.000000)">
                    <g id="body/Shirt-and-Coat" transform="translate(31.056338, 135.052838)" fill-rule="evenodd">
                        <path d="M169.19981,137.035472 C168.862838,130.772318 168.448754,124.514024 167.95312,118.261226 C166.965444,105.806353 165.672275,93.3417581 163.520303,81.0299695 C161.397275,68.8824 158.426007,57.0702434 154.145303,45.4947992 C152.159387,40.1243883 150.008683,35.5429479 146.888683,30.7152845 C143.938542,26.1507523 140.173965,23.0578521 135.483824,20.3024783 C131.258049,17.8199577 126.348824,13.5126387 122.295866,10.732537 C120.603824,9.57201252 117.122556,9.64936673 115.962275,7.9325683 C114.442838,5.68443523 115.427979,2.2434411 113.896289,0.00270528376 C112.145514,-2.55928297 109.692697,-4.54956869 106.926782,-5.99541605 C103.907979,-8.04044149 100.352345,-8.96615577 96.7872042,-8.83871155 C91.5300211,-9.15763914 86.2352324,-7.48332211 82.8600211,-3.20263327 C81.1757958,-1.0663045 80.1923451,1.39846262 80.0562887,4.12762896 C80.0207958,4.8375546 80.2487535,5.39721018 80.6239648,5.80131194 C80.4015,6.09889315 80.1800915,6.39668571 79.960162,6.69616908 C79.2697394,5.67323366 77.6560775,5.1296407 76.5807254,5.90170333 C73.0626972,8.42797339 69.2605141,10.4366466 65.2474859,11.9091241 C64.3086127,11.4646544 63.171993,11.6705096 62.3676972,12.3960751 C62.0412887,12.6902748 61.6950211,12.941993 61.3331197,13.1556681 C59.845162,13.5591358 58.3341761,13.8962395 56.8007958,14.1568344 C56.3207958,14.2382043 55.9141056,14.5108462 55.6056549,14.8783843 C55.1486831,14.4510341 54.5205845,14.2458129 53.8191761,14.5133824 C45.7202324,17.6018442 38.0719225,22.3997072 32.2584718,28.8999969 C25.8177676,36.1013354 22.4349507,45.0594176 19.8595986,54.2370928 C17.0717113,64.172036 15.2900915,74.3542591 13.7936831,84.5536016 C12.2774155,94.8879969 10.7839648,105.26276 9.74072535,115.656968 C9.15361268,121.506298 8.92966901,127.408678 9.19544366,133.283793 C9.32790845,136.219872 9.59600704,139.14665 10.0229789,142.054831 C10.1224859,142.735167 10.2266408,143.518854 10.3943873,144.301061 C9.88459859,144.201938 9.27741549,144.633093 9.38072535,145.323151 C10.1003028,150.129468 15.9088944,151.529453 19.9149507,152.082768 C26.467838,152.987981 33.0547394,153.489938 39.6705845,153.528615 C46.1719225,153.566447 52.6722042,153.14903 59.1600211,152.775151 C65.8115704,152.391973 72.4629085,152.006893 79.1142465,151.616741 C105.763331,150.053805 132.413894,148.507778 159.06319,146.944208 C161.497838,146.801335 164.277908,146.60795 166.363331,145.195285 C169.221993,143.25847 169.369035,140.180787 169.19981,137.035472 L169.19981,137.035472 Z" id="ðŸŽ¨-Background" fill="#FFFFFF"></path>
                        <path d="M39.2863521,83.2772571 C39.1938169,83.1039499 39.4084648,82.9481847 39.5508592,83.0730928 C42.786,85.913218 44.4797324,90.4743687 44.8348732,94.6903843 C45.2111408,99.1610771 44.6776901,103.78986 44.4738169,108.25865 C44.2469155,113.236373 44.0430423,118.215997 43.7660704,123.191394 C43.4848732,128.239285 43.1819155,133.285484 42.9222676,138.334431 L42.3381127,149.691973 L42.3381127,149.691973 C42.276,150.902377 42.4105775,152.390917 41.9462113,153.520584 C41.2266383,155.271819 39.0891832,155.000674 38.6399753,153.537031 L38.6259296,153.488881 L38.5849437,153.520584 C38.1886056,152.201547 38.4852254,150.635018 38.5524085,149.271175 L39.1644507,136.862165 L39.1644507,136.862165 C39.596831,128.091149 39.9824937,119.319962 40.4469602,110.550606 L40.6048732,107.627559 C40.8220141,103.692575 40.9885014,99.7675214 41.1222008,95.8337537 L41.1655775,94.5221495 C41.2925493,90.5724352 41.1917746,86.843582 39.2863521,83.2772571 Z M117.710958,10.4641432 C119.513282,10.2929495 120.874268,10.8908595 122.510535,11.5206834 C123.223352,11.7948047 123.898352,12.1116188 124.582225,12.4396344 C125.438359,12.8502945 125.988928,13.5763753 126.516172,14.3440502 L126.798,14.7577245 C128.993282,17.9753213 130.470042,21.6874779 132.13631,25.190609 C134.085465,29.2884798 136.054056,33.377474 137.961592,37.494789 L138.902969,39.5233057 C139.373556,40.537611 139.842752,41.5525503 140.304985,42.5706599 L141.103656,44.3426331 C141.905953,46.1397094 142.625251,48.0408373 141.481732,49.8947108 C140.418423,51.6189065 138.533282,52.9529495 137.040676,54.2857245 C135.795465,55.3978497 134.550042,56.5097636 133.304197,57.6214661 C135.879338,60.2012078 137.608141,63.4494505 138.624338,66.932926 C140.068141,66.3312117 141.830324,66.2158145 143.323141,65.9554309 C145.412789,65.591063 145.668845,68.7558223 143.696662,68.7171452 C142.240183,68.6886129 140.531451,68.8374035 139.037366,68.5305229 C139.297014,69.6751961 139.485465,70.8372 139.605254,72.0023742 C140.233054,78.1094142 138.861153,84.2518946 137.430277,90.1606736 L137.312577,90.6457949 C135.758704,97.0412548 134.285324,103.453411 132.967225,109.90192 C131.646169,116.364167 130.457789,122.853677 129.40293,129.364746 C128.329268,135.992057 127.569549,142.655932 126.753,149.318327 C126.629408,150.326679 125.995183,151.190891 124.88138,151.190891 C123.953493,151.190891 122.89293,150.324566 123.009549,149.318327 C123.852085,142.063094 125.047014,134.845905 126.234127,127.640339 C128.27884,115.231345 130.852261,102.930302 133.8129,90.7100334 L134.330073,88.5819373 C135.662078,83.0625996 136.870458,77.3755382 136.202366,71.6823898 C135.658145,67.0465395 133.720594,62.1037011 129.891172,59.2243133 L129.774549,59.1376932 C128.880042,58.4814505 128.535887,57.2264524 129.416873,56.3622411 C129.977507,55.8122372 130.538798,55.2628908 131.100418,54.7138888 L134.471451,51.4215053 L135.151079,50.7565418 C135.717757,50.203032 136.287145,49.6528958 136.873563,49.1196892 C137.228493,48.7971687 138.190817,48.1821393 138.261169,47.6516501 C138.306876,47.3053608 137.897076,46.6972284 137.731009,46.3783334 L136.970113,44.8419593 L136.970113,44.8419593 C136.53807,43.9659123 136.119338,43.0835249 135.697437,42.2024055 C134.823211,40.3771843 133.93631,38.5574583 133.081099,36.7231491 L127.942859,25.7092626 L127.942859,25.7092626 C126.493352,22.6019906 125.202085,19.3216227 123.307014,16.4489495 L122.933364,15.88908 C122.621468,15.4175692 122.345981,14.9636971 122.148845,14.387016 C121.959338,13.8322215 121.721451,13.22311 121.371169,12.7496853 C120.550394,11.6386168 118.981521,11.0083703 117.668915,10.7756736 C117.479197,10.7418575 117.54807,10.4797832 117.710958,10.4641432 Z M78.1926127,7.57132107 C78.3066972,7.57132107 78.3240211,7.73427945 78.2188099,7.765982 C76.6351479,8.24236556 75.121838,9.01104658 73.8871901,10.1206356 C73.2964859,10.6515476 72.7017676,11.2541072 72.3371197,11.9688939 C72.1975563,12.2424235 72.1202831,12.5313605 72.0637162,12.8309286 L72.0455704,12.9311718 C71.9515007,13.4723843 71.8168536,13.773641 71.541932,14.2069308 L71.4947958,14.2804321 C69.9257113,16.7044086 68.8260634,19.3968 67.8206408,22.092573 L65.6310898,27.9705417 L65.6310898,27.9705417 L63.4429648,33.8491444 C62.7379648,35.7432658 62.0325423,37.6375984 61.327331,39.5317198 C60.9377535,40.577481 60.5371901,41.6188039 60.136838,42.6603382 C59.9635986,43.111571 59.7772606,43.5594223 59.6188099,44.0161503 C59.5970493,44.0784986 59.5277535,44.4544908 59.4757817,44.5457941 L59.4935282,44.5768626 L59.4935282,44.5768626 C59.9348662,45.3195476 61.111838,45.940072 61.7790211,46.4796493 L64.0763451,48.3376297 L64.0763451,48.3376297 C65.7143028,49.6625847 67.3943028,50.9503421 68.9830352,52.3344751 C69.9810634,53.2035476 69.3601479,54.7599311 68.2471901,55.1228196 C66.3821197,55.730663 64.5548662,56.4581307 62.7176831,57.1458646 C61.9755634,57.4235789 61.202812,57.6653425 60.4693513,57.9716119 L60.0228642,58.1646447 C59.8484698,58.243088 59.9323118,58.2423563 59.9393028,58.5642364 C59.9462746,58.9019742 60.0419789,59.2538724 60.0969085,59.5856924 C60.7157113,63.3287061 61.3716972,67.0653793 62.0640211,70.7955006 C64.5130352,83.9860838 67.4388803,97.0802912 70.7758521,110.073896 C72.4613451,116.635688 74.2689507,123.165144 75.9914155,129.717215 C77.7096549,136.251743 79.9704296,142.692643 82.129162,149.092542 C82.7382465,150.897282 79.8774718,151.674397 79.2833873,149.877285 C76.7955,142.350256 74.5195141,134.757497 72.169162,127.187775 C67.9932465,113.737442 64.7025423,99.9950231 61.7921197,86.2194223 C60.3495845,79.3919624 59.0302183,72.5382951 57.8352887,65.6630701 C57.6090211,64.3615221 57.3871505,63.059142 57.1698552,61.7560188 L56.8531439,59.8392419 C56.6360384,58.4730107 56.512421,57.04987 57.5739507,55.9686434 C58.6105,54.9133261 60.389946,54.5393647 61.7539201,54.0443919 L61.8529648,54.0079468 C62.7208521,53.6839468 63.5950775,53.3717824 64.4659225,53.0498959 C63.1831056,52.0396415 61.9161338,51.006984 60.6364859,49.9973636 C59.6042324,49.1828196 58.5557113,48.3847609 57.5382465,47.551618 C56.6993028,46.8643068 56.0152183,45.9819194 55.9277535,44.864299 C55.8385194,43.7220233 56.3278362,42.6620618 56.7224854,41.6144721 L56.7603592,41.5131288 C57.1478239,40.4671562 57.5363451,39.4218176 57.9347958,38.3798607 L60.4002887,31.9296611 L60.4002887,31.9296611 C61.9670493,27.8309448 63.4676831,23.6990466 65.1155704,19.6322442 C65.7675423,18.0228117 66.4780352,16.4387413 67.3176127,14.9174419 C67.7224014,14.183845 68.1565563,13.4658881 68.6283169,12.7735045 C69.1569085,11.9970035 69.6366972,11.6184751 70.4557817,11.1900681 C71.7654296,10.5050818 72.7932465,9.35660431 74.1083873,8.65048297 C75.3992324,7.95725401 76.7272606,7.587391 78.1926127,7.57132107 Z M82.4442465,0.258925245 C82.4943169,0.172905675 82.626993,0.211154638 82.6286831,0.309015264 C82.6629085,2.34600939 82.1791056,4.42759843 81.8814296,6.44176673 C81.5824859,8.46312094 81.4865704,10.5967022 81.0541056,12.5964986 C81.0451479,12.6896618 81.027131,12.7814724 81.0016775,12.8716057 L80.981007,12.9401542 L80.981007,12.9401542 C80.7984718,13.5004438 80.3237535,13.9753479 79.7412887,14.1237159 C79.9244577,15.1390427 80.0970634,16.1560603 80.2422042,17.178573 C80.4915,18.9361016 80.7190223,20.6962183 80.9427873,22.4569203 L81.2106549,24.5699155 C81.4635423,26.5612579 81.7094577,28.5534458 81.9526268,30.545845 C82.571007,30.8045378 83.2020634,31.0180016 83.848331,31.2029331 C85.3367113,31.6290153 86.8612183,31.8023225 88.3971338,31.9530153 C91.5250493,32.2599523 94.6768897,32.4021112 97.8158965,32.5764156 L98.488331,32.6143303 C102.017345,32.8165926 105.565585,32.8525221 109.085725,32.4902677 C110.831218,32.31062 112.562979,32.0092344 114.265162,31.5820955 C115.130092,31.3650387 115.970725,31.0408274 116.833965,30.8286317 C117.120232,30.7582521 117.376077,30.595935 117.662979,30.4226278 C117.790373,30.2615789 117.969106,30.1396297 118.201923,30.0924986 L118.264986,30.0815084 L118.264986,30.0815084 L118.327415,30.0724204 L118.348965,30.0626982 L118.347275,30.0694614 C118.523894,30.0455789 118.691641,30.0457902 118.84988,30.0673479 C118.912838,28.5139233 118.981077,26.9604986 119.066641,25.4074967 C119.296289,21.2362873 119.930303,16.8850074 119.083965,12.7501503 C119.055655,12.6110818 119.244739,12.5620485 119.293965,12.6922403 C120.954739,17.0695162 120.76819,21.8559663 120.851852,26.46298 C120.933613,30.9683342 120.884176,35.4768587 120.861782,39.9832697 C121.184387,40.1206474 121.472134,40.306847 121.700092,40.5680759 C122.155373,41.0901112 122.286359,41.9976493 121.700092,42.5015084 C121.440232,42.7249057 121.152697,42.8800368 120.847627,42.9876141 C120.831359,46.9024556 120.803683,50.8177198 120.764387,54.7327726 C121.508683,55.3078568 121.57819,56.673391 120.736289,57.2408665 C120.596218,69.9193479 120.365937,82.5982521 120.174951,95.2748313 L119.77481,121.87073 L119.77481,121.87073 C119.72157,125.414229 119.633261,128.957516 119.60157,132.500593 L119.626711,132.510526 L119.626711,132.510526 L119.715273,132.5516 C119.864396,132.621626 120.086271,132.734888 120.132275,132.8508 C120.144317,132.881234 120.147486,132.901947 120.146007,132.917587 C120.390232,132.951825 120.632134,133.067223 120.8415,133.265892 C121.358261,133.75707 121.253261,134.49743 120.8415,134.997696 L120.73143,135.131481 L120.73143,135.131481 C120.474739,135.443223 119.987345,135.56327 119.589317,135.499865 C119.593331,137.711223 119.607486,139.923004 119.600514,142.134362 C119.598232,142.809753 119.588041,143.48522 119.576374,144.160672 L119.548532,145.780268 C119.530045,146.704462 119.448209,147.878959 118.501923,148.294166 C117.434387,148.76273 116.477134,148.378917 116.04488,147.294268 C115.927838,147.000491 115.952979,146.726792 115.995655,146.436397 C115.982345,145.999959 115.914106,145.494197 115.922556,145.08925 L115.957838,143.400773 L115.957838,143.400773 C115.963331,143.140389 115.973894,142.880217 115.981289,142.619833 L115.950444,142.623004 L115.950444,142.623004 C112.157234,142.807212 108.337478,142.717321 104.538061,142.715076 L102.848288,142.717533 C101.43839,142.718744 100.025474,142.711215 98.6175866,142.657304 L98.0898803,142.634839 C97.0358662,142.585383 95.9273451,142.569532 94.834669,142.47527 C94.9738944,143.597328 95.1040352,144.720232 95.2200211,145.844193 C95.3298803,146.910033 94.2302324,147.815669 93.2493169,147.815669 C92.0843873,147.815669 91.4180493,146.899677 91.2786127,145.844193 C90.6203028,140.865626 90.3509366,135.840561 89.721993,130.858823 C89.1586056,126.396754 88.6701718,121.924584 88.173678,117.454023 L88.0077676,115.963912 C86.1908012,99.6949463 84.4267592,83.4198582 82.7394036,67.1369848 L81.953761,59.5251818 C81.1602906,51.8531934 80.3621761,44.1807288 79.6891056,36.4974693 C79.3041761,32.1047648 78.9494577,27.7112149 78.6156549,23.3142834 C78.3707958,20.0840055 78.216993,16.8716924 78.1168521,13.647755 C77.721993,13.2413284 77.5240352,12.6478568 77.6989648,12.0349409 C77.8012183,11.6773362 77.920162,11.3216337 78.0456549,10.9665652 C78.037838,10.6176258 78.0295986,10.2688978 78.022838,9.91953581 C78.0165,9.58898395 78.351993,9.41884697 78.6205141,9.47358669 C79.1085423,8.2915045 79.646007,7.11956712 80.0945282,5.94889785 C80.8204437,4.05393112 81.4187535,2.01207593 82.4442465,0.258925245 Z M41.9030282,20.7390434 C49.4915493,15.9815483 58.524507,12.5580963 67.5716197,12.9266912 C67.7773944,12.9351452 67.8352817,13.248789 67.6216901,13.2963429 C62.7959155,14.3742294 57.9171127,15.6871374 53.3484507,17.5979554 C48.7664789,19.5144798 44.4097183,22.0950669 40.5293662,25.1962098 C33.3699296,30.9178849 27.8051408,38.3601628 24.1409155,46.74929 C21.9946479,51.663607 20.4902113,56.8518341 19.1765493,62.0419632 C17.7864085,67.534746 16.6407042,73.0867068 15.6880986,78.6720611 C13.8065493,89.7047577 12.7111268,100.858981 12.1282394,112.032437 C11.5352113,123.398433 11.7796479,134.77246 11.3566901,146.140147 C11.2835915,148.109721 8.46950704,148.071255 8.32647887,146.140147 C7.36816901,133.215865 7.89908451,120.085306 8.78535211,107.170112 C9.58225352,95.5597949 10.9738732,83.9737832 13.2147887,72.5502998 L13.4099845,71.5602612 C15.5048853,60.9913547 18.0317157,50.1663567 23.0961972,40.5949808 C27.42,32.4235444 34.0952113,25.6343389 41.9030282,20.7390434 Z M147.281049,71.2511718 C147.320556,71.1378881 147.470134,71.1393675 147.510063,71.2511718 C148.375204,73.67369 148.406272,76.4072244 148.636193,78.9608697 L148.654289,79.1569409 C148.874758,81.4861151 149.040809,83.8181281 149.195176,86.1520894 L149.252599,87.0274145 C149.872246,96.5487452 150.646754,106.059508 151.814007,115.530749 C152.977035,124.966272 154.5495,134.336064 156.249993,143.687258 C156.4395,144.728369 155.978514,145.788925 154.887106,146.088831 C153.924993,146.353231 152.689923,145.760393 152.486472,144.725411 C151.430768,139.357959 150.577035,133.983321 149.815415,128.569371 C148.474711,119.035994 147.474148,109.458655 146.830838,99.8527843 C146.508021,95.0282912 146.309218,90.2057002 146.230204,85.3708509 C146.193715,83.1276694 146.251952,80.8790209 146.371422,78.6381044 L146.400063,78.1211131 C146.531894,75.83071 146.518373,73.4354771 147.281049,71.2511718 Z M65.2823873,131.896553 C65.3837958,131.841602 65.5092887,131.954463 65.4450634,132.059293 C63.9756972,134.448186 61.9878803,136.508005 60.0666127,138.538236 C58.0580915,140.660405 56.0992183,142.846612 54.0501338,144.927144 C52.5695704,146.430056 50.1879507,144.005657 51.7504859,142.626596 C53.9474577,140.688092 56.2437254,138.845962 58.4797817,136.950573 L59.4576653,136.121364 C61.2910429,134.571924 63.1788022,133.036359 65.2823873,131.896553 Z M135.072803,130.700121 C134.963155,130.491095 135.213718,130.321592 135.384,130.460027 C136.569211,131.424207 137.631465,132.574375 138.775901,133.591815 C139.909352,134.599745 141.085056,135.539831 142.292873,136.456668 C143.505761,137.37731 144.745056,138.261177 146.017732,139.09749 C147.073437,139.791142 148.161465,140.346782 149.267028,140.922712 C149.77893,140.988653 150.253014,141.239948 150.632451,141.716543 C151.232451,142.470218 151.296254,143.891338 150.46407,144.545678 L150.314704,144.662978 L150.314704,144.662978 C149.343507,145.426586 148.19062,145.51958 147.234634,144.662978 C146.167156,143.706714 145.15817,142.654381 144.133073,141.643811 L143.824986,141.342031 C142.723437,140.270907 141.648718,139.165123 140.635479,138.00967 L139.718209,136.965841 C138.016538,135.024581 136.245322,132.932337 135.072803,130.700121 Z M129.613162,18.7829753 C129.416049,18.6523609 129.537528,18.300674 129.780908,18.38458 L130.227316,18.538929 C132.092323,19.1872595 134.012004,19.9062708 135.705275,20.9045096 C137.524923,21.9771123 139.205134,23.2549362 140.810345,24.6257542 C144.132951,27.4631319 146.959711,30.9523139 149.362035,34.5890184 C154.182317,41.8867327 157.163303,50.2443687 159.570063,58.6068658 C162.136331,67.5233119 164.112106,76.6316642 165.725345,85.7658012 C167.36457,95.0485174 168.629218,104.414928 169.460345,113.805011 C169.869782,118.430623 170.144641,123.058983 170.28281,127.700658 C170.354007,130.088494 170.351683,132.474639 170.331824,134.86332 C170.326754,135.477609 170.33082,136.091582 170.337792,136.705555 L170.36119,138.547789 C170.373655,139.712541 170.513092,140.93647 170.236331,142.07438 C169.790979,143.906153 166.763514,143.5644 166.863021,141.692259 C166.771754,141.06941 166.768162,140.425637 166.791824,139.780596 C166.777458,139.697324 166.761824,139.612784 166.7445,139.526341 C166.694852,139.27885 166.737106,139.049746 166.834289,138.852768 C166.849923,138.543351 166.864077,138.235836 166.869148,137.933605 C166.889007,136.703758 166.887739,135.478772 166.853725,134.249347 C166.782106,131.656924 166.679007,129.064502 166.574852,126.473347 C166.366754,121.295265 166.077317,116.114858 165.657739,110.949457 C164.19788,92.9698873 161.115275,74.8878129 155.937317,57.5902708 C153.532458,49.5576916 150.217035,41.6724235 145.462458,34.7312571 C143.351894,31.6497699 140.970697,28.8035155 138.330908,26.1618481 C135.67443,23.5036955 132.747106,20.8592806 129.613162,18.7829753 Z M93.7848803,134.687434 L94.1436668,137.283817 C94.3230127,138.582231 94.5006549,139.881072 94.6692465,141.180749 C95.8145282,141.023927 96.9862183,140.958197 98.0898803,140.860342 C100.021923,140.689148 101.967275,140.606299 103.905021,140.526197 C107.912134,140.360921 111.939317,140.074119 115.950444,140.094197 C115.991641,140.094409 116.030514,140.097156 116.069387,140.100326 L116.268401,134.977407 L116.268401,134.977407 L113.450092,134.972968 L113.450092,134.972968 C111.062345,134.969164 108.675021,134.948874 106.287275,134.928373 C104.136808,134.90988 101.985533,134.906921 99.8354302,134.862153 L98.9140352,134.84024 C97.2834718,134.796279 95.4830493,134.886949 93.7848803,134.687434 Z M116.50481,127.251497 C116.38988,127.265023 116.272838,127.276436 116.148401,127.28172 C115.590232,127.30518 115.027627,127.288906 114.469035,127.293555 C113.279599,127.303912 112.090373,127.311943 110.900725,127.311732 C108.521852,127.31152 106.14319,127.325892 103.764739,127.354636 C101.316148,127.384225 98.8692465,127.426706 96.4204437,127.431567 C95.2339648,127.433681 94.0512887,127.402189 92.8652324,127.369007 C93.0570634,129.05516 93.2575563,130.740045 93.4789648,132.420914 C95.320787,132.171987 97.3017278,132.297488 99.1017772,132.28029 L99.3355141,132.277195 C101.792345,132.235137 104.251289,132.266205 106.708754,132.269164 C109.236782,132.272123 111.764599,132.280366 114.292838,132.301078 L116.36981,132.318197 L116.36981,132.318197 L116.373824,132.213579 L116.373824,132.213579 C116.434669,130.561242 116.473965,128.906792 116.50481,127.251497 Z M91.9515,119.185101 C92.1817817,121.175387 92.3979085,123.169054 92.6182606,125.162088 C92.764669,125.139473 92.9129789,125.120029 93.0640352,125.104178 C94.2522042,124.979904 95.437838,124.873383 96.6302324,124.799411 C99.0072042,124.652099 101.383965,124.574323 103.764739,124.510495 C106.212908,124.444765 108.6615,124.394463 111.110514,124.359802 C112.300373,124.343105 113.489176,124.344796 114.679035,124.353039 C115.237204,124.356843 115.801077,124.339301 116.35819,124.37671 C116.424528,124.381148 116.48812,124.388123 116.551077,124.395309 L116.592908,121.402996 C116.600115,120.904366 116.607627,120.40579 116.615725,119.907285 C114.776762,120.02072 112.907194,119.977432 111.06961,119.977946 L110.646148,119.978933 C108.337204,119.989501 106.027415,119.957798 103.718894,119.909822 C101.337275,119.860154 98.9605141,119.782377 96.5831197,119.629782 C95.6199205,119.568189 94.6637061,119.486099 93.7058286,119.380451 L93.2267113,119.325649 C92.8098803,119.276405 92.3805845,119.236671 91.9515,119.185101 Z M116.805444,110.740812 C112.376671,111.092458 107.971468,111.239368 103.530888,111.283052 L102.864528,111.288843 C98.9404437,111.318643 94.9840352,111.480538 91.0506549,111.376553 C91.2857958,113.416295 91.5203028,115.456037 91.7567113,117.495356 C92.3199507,117.469148 92.8859366,117.468937 93.4365,117.44907 C94.5564296,117.408702 95.6725563,117.398557 96.7931197,117.396021 C99.1016408,117.390737 101.410162,117.410816 103.718894,117.406166 C106.09819,117.401094 108.477063,117.360937 110.855937,117.316131 C112.784599,117.27999 114.733754,117.134792 116.667697,117.140076 L116.805444,110.740812 L116.805444,110.740812 Z M116.992838,102.038675 C116.479632,102.209147 115.873789,102.220111 115.209481,102.25059 L113.495017,102.336014 C112.700396,102.374975 111.905683,102.411623 111.110514,102.440663 C108.461007,102.537673 105.8115,102.628342 103.16157,102.712671 C100.446148,102.798902 97.7176268,102.848992 95.0017817,102.763395 C93.6714296,102.721336 92.3522746,102.651591 91.0259366,102.540632 C90.6980493,102.513156 90.3638239,102.495191 90.0289648,102.47152 C90.3376268,105.174056 90.6475563,107.87617 90.9585423,110.578283 C94.8731197,110.097673 98.8179085,109.798401 102.727627,109.301305 L106.26284,108.849709 C109.79639,108.398641 113.327028,107.955955 116.873472,107.582816 L116.992838,102.038675 L116.992838,102.038675 Z M117.1815,93.2403734 C116.428493,93.4263616 115.57031,93.4170827 114.847202,93.4627464 L114.713261,93.4720133 C113.34319,93.5759977 111.969528,93.6279898 110.596289,93.6618059 C107.904739,93.7281699 105.2115,93.7613519 102.519106,93.7778372 L100.900071,93.7879059 C98.7417338,93.8005531 96.5846408,93.8060313 94.4256549,93.7556454 C93.0407958,93.7235202 91.6591056,93.6556767 90.2753028,93.5863538 C89.8607958,93.5654301 89.436993,93.5516924 89.0119225,93.530346 C89.3011479,96.0889526 89.593331,98.6469252 89.8848803,101.205109 C90.3395282,101.132827 90.7962887,101.077876 91.2317113,101.004326 C92.346993,100.815802 93.460162,100.665321 94.5834718,100.53069 C97.0164296,100.239027 99.4620634,100.029156 101.90643,99.8520446 C104.415866,99.670072 106.927415,99.516209 109.437275,99.3401542 L111.214827,99.2147971 C111.807327,99.173663 112.39988,99.1338763 112.992697,99.0975241 C114.005092,99.0353871 115.181852,99.1055554 116.186007,98.885117 C116.457908,98.7718333 116.75981,98.7458372 117.062134,98.8105104 L117.1815,93.2403734 L117.1815,93.2403734 Z M117.409458,82.9419076 C117.148965,83.2728822 116.75981,83.4464008 116.295866,83.5064243 C113.879153,83.8200094 111.400252,83.8704217 108.963102,84.0182041 L108.533472,84.0453675 C106.017063,84.2112775 103.499176,84.3414693 100.980866,84.475254 C98.3938944,84.6126317 95.8073451,84.7246474 93.2182606,84.8148939 C92.119088,84.8531748 91.0144159,84.8576362 89.9135854,84.8435699 L89.4420634,84.8364517 C88.9899507,84.8288431 88.5165,84.8298998 88.041993,84.8144712 C88.3045986,87.2069566 88.5697394,89.5992305 88.8386831,91.9908705 C89.3224859,91.9382442 89.8060775,91.8980877 90.2753028,91.8484204 C91.6582606,91.7021659 93.0395282,91.5576023 94.4256549,91.4483342 C97.0521338,91.241211 99.6805141,91.1167256 102.311852,90.9865339 C105.004035,90.8531718 107.697697,90.7644047 110.390303,90.6386513 C111.695725,90.577571 113.000725,90.5016963 114.302345,90.3816493 C115.214599,90.2977432 116.29819,89.9870583 117.249951,90.1011875 C117.301923,87.71462 117.356007,85.3282638 117.409458,82.9419076 Z M117.621782,73.7164673 C117.580585,73.7802951 117.532415,73.8420094 117.473894,73.8994967 C116.409904,74.9510616 115.098577,74.8699935 113.688648,74.9803121 L113.602204,74.9873166 C112.220303,75.1035593 110.837768,75.2140955 109.454387,75.3138528 C106.689106,75.5135789 103.918331,75.6532814 101.149035,75.7777667 C98.3148803,75.905211 95.4625563,75.9929213 92.6256549,75.9350114 C90.8089648,75.8978137 88.9062887,75.9043656 87.0532606,75.727254 C87.337838,78.3621581 87.6241056,80.9968509 87.9124859,83.6313323 C88.4334718,83.5330544 88.957838,83.4578137 89.4545282,83.3796141 C90.7062887,83.1826356 91.9593169,82.9846004 93.2182606,82.8396141 C95.7340352,82.5498528 98.2504437,82.2789018 100.771077,82.0343695 C102.926711,81.8253088 105.081612,81.6130192 107.238835,81.4219624 L108.533472,81.310072 C111.107345,81.093438 113.713754,80.736256 116.295866,80.6834184 C116.721359,80.674753 117.202627,80.906393 117.44643,81.272029 C117.503472,78.7533675 117.562627,76.2349174 117.621782,73.7164673 Z M117.800514,66.247982 C117.143261,66.3278724 116.435092,66.2824321 115.828542,66.302299 C114.294951,66.352389 112.761148,66.3988861 111.227345,66.4441151 L102.024317,66.7159115 L102.024317,66.7159115 C98.891007,66.8082716 95.7467113,66.8775945 92.6121338,66.833211 C91.2332324,66.813809 89.8483415,66.8115264 88.4699364,66.7365379 L88.0107254,66.7087256 C87.4434718,66.6708939 86.7473451,66.6656102 86.0674859,66.5964986 L86.8700915,74.0332814 L86.8700915,74.0332814 C88.7141479,73.7667828 90.6145197,73.6670874 92.4428961,73.5108091 L92.8335423,73.4763734 C95.530162,73.230573 98.239669,73.0680446 100.941148,72.8850153 C103.712345,72.6973362 106.479528,72.4695006 109.246923,72.2363812 C110.630092,72.1201386 112.013049,72.0041072 113.395162,71.8768744 L113.565899,71.8600573 C114.871488,71.723677 116.099167,71.4335495 117.255444,72.2036219 C117.424669,72.3160603 117.557134,72.4665417 117.647768,72.6349879 C117.698261,70.5060564 117.747697,68.3769135 117.800514,66.247982 Z M118.014951,57.5688822 C112.410232,57.7946043 106.804669,57.965798 101.195725,58.0410387 C98.0385423,58.0833088 94.8853732,58.0535084 91.7286127,57.9875671 C90.3597864,57.9588235 88.979609,57.8933414 87.6118214,57.7884491 L87.0995282,57.7472618 C86.4492465,57.6925221 85.766007,57.6527883 85.0857254,57.5872697 C85.3669225,60.1441855 85.6457958,62.7015241 85.9225563,65.2592853 C86.5917163,65.1348604 87.2911156,65.0774982 87.8774818,65.0024201 L88.0107254,64.9847413 C89.467838,64.7841699 90.9386831,64.6672932 92.4029789,64.5383695 C95.2542465,64.287074 98.119669,64.1251796 100.978542,63.9875906 C103.906077,63.84662 106.835092,63.727207 109.763049,63.5970153 L112.691265,63.4658841 C113.17927,63.4442795 113.667275,63.4230035 114.155303,63.4023616 C114.852697,63.372984 115.54988,63.3448744 116.247063,63.3159194 C116.591007,63.3017589 116.948472,63.2550505 117.292838,63.2728039 L117.390836,63.2596326 C117.436018,63.2538754 117.475923,63.2492595 117.512556,63.2453284 C117.606218,63.1739977 117.707069,63.1148489 117.813887,63.0699614 L117.878683,63.0447569 L118.014951,57.5688822 Z M84.1667113,49.3439742 C84.426993,51.6457902 84.6843169,53.9482403 84.9382606,56.2509018 C85.7376972,56.1595984 86.5466408,56.1090857 87.3099507,56.0403969 C88.8490352,55.9023851 90.3953028,55.7814928 91.9390352,55.7104791 L95.0243169,55.5671444 C97.0809836,55.4720055 99.1375563,55.3799977 101.195725,55.3048978 C106.828542,55.099254 112.461148,54.8635984 118.090585,54.5759507 C118.130303,53.0142834 118.171289,51.452616 118.21312,49.8909487 C117.942908,50.1804986 117.552486,50.3709252 117.039528,50.3696571 C111.129528,50.3538059 105.21488,50.3880446 99.3055141,50.2908235 C96.3475563,50.2420016 93.3929789,50.1703538 90.4384014,50.0186043 C88.9926972,49.9444204 87.5389648,49.7930935 86.1042465,49.5942129 C85.4924155,49.5094614 84.8229085,49.4490153 84.1667113,49.3439742 Z M83.2208662,41.1416806 C83.4986831,43.4995045 83.7712183,45.8581738 84.0393169,48.2172658 C84.7732606,48.0862286 85.5315,48.016483 86.2162183,47.9232775 C87.6874859,47.7231288 89.167838,47.5637706 90.649669,47.4800759 C93.5330493,47.3169135 96.4181197,47.2346982 99.3055141,47.1734067 C105.214458,47.0478646 111.129317,47.04871 117.039528,47.0020016 C117.594739,46.9975632 118.006923,47.2173675 118.277556,47.5453832 C118.318542,46.0729057 118.361852,44.6004282 118.40643,43.1277393 C117.835585,43.0675045 117.269599,42.982119 116.745866,42.9455554 C115.136218,42.833117 113.525937,42.7304008 111.915021,42.6380407 C108.553331,42.4450779 105.188472,42.280436 101.824458,42.1339703 C98.4595986,41.9875045 95.0936831,41.8444204 91.7277676,41.7197237 L90.2556979,41.6659446 C87.9149852,41.5788481 85.5345496,41.4688693 83.2208662,41.1416806 Z M82.1624155,32.2613753 C82.4516408,34.6494223 82.7364296,37.037892 83.0205845,39.4267843 L83.106993,40.1660877 L83.106993,40.1660877 C85.9221338,39.6186904 88.8889648,39.4582755 91.7277676,39.3375945 C95.0943169,39.194299 98.4549507,39.1205378 101.824458,39.1308939 C105.190585,39.1410387 108.551641,39.2207178 111.915021,39.3597863 C113.595655,39.4291092 115.276077,39.5094223 116.955655,39.6007256 C117.417486,39.625665 117.958965,39.6123499 118.516289,39.6203812 C118.528331,39.2450231 118.538683,38.869665 118.55157,38.4945182 C118.602697,36.9740642 118.652768,35.4536102 118.704951,33.9333675 C117.568926,34.5170701 116.091825,34.7525079 114.950155,35.00128 L114.819951,35.0300642 C112.93481,35.4536102 111.009951,35.7281542 109.085725,35.8959663 C105.306993,36.2256728 101.488965,36.1024556 97.7138239,35.7831053 L97.0525256,35.7265079 C93.7374119,35.4389544 90.3006285,35.0744742 87.0868521,34.2537746 C85.556007,33.8629879 83.9734014,33.3160133 82.6016408,32.5232384 C82.4590352,32.4408117 82.3117817,32.3535241 82.1624155,32.2613753 Z M114.082289,3.8821456 C114.115035,3.75301057 114.308345,3.72363288 114.371937,3.84431389 C114.818345,4.69267397 114.984401,5.71095969 115.294331,6.6199773 C115.627923,7.59726106 115.93912,8.58173072 116.307148,9.54717886 C117.075951,11.5643061 117.982923,13.5025996 119.06419,15.3711476 C120.135106,17.221308 117.136585,18.542036 116.348556,16.5164548 C115.534965,14.4262004 114.866303,12.2649323 114.461725,10.0561104 C114.26419,8.97843523 114.088204,7.88596556 114.031162,6.79095969 C113.981937,5.85045088 113.849683,4.79961722 114.082289,3.8821456 Z" id="ðŸ–-Ink" fill="#000000"></path>
                    </g>
                    <g id="head/No-Hair-1" transform="translate(78.591549, 38.043053)" fill-rule="evenodd">
                        <path d="M84.9435732,47.3890709 C83.0314877,39.3253229 78.8510905,31.8210772 72.1584085,25.7563303 C52.0186901,5.83741057 15.0335493,16.6490348 15.2010845,46.6654262 C14.4787606,50.1713049 14.1855211,53.7760955 14.4246761,57.3515084 C14.5235493,58.8770348 15.1835493,61.0059663 14.2968592,62.3788978 C12.2967887,64.947438 11.1343944,66.8407139 11.8150986,70.2574027 C12.383831,73.2406121 14.4132676,75.3541151 17.1521408,76.4776532 C18.7947465,76.9491757 20.3532676,77.9763382 20.9617183,79.5420211 C24.6179155,86.2384438 27.3265775,91.8083695 33.0905915,96.3720564 C34.5779155,97.5469526 49.8326771,104.593794 54.8589718,104.593794 C69.5740208,104.593794 88.1203099,99.2614262 88.4281268,82.8183734 C88.4813662,79.2068196 87.8477746,75.553207 87.4503803,71.9701855 C86.4830201,63.7934533 86.8243089,55.3206091 84.9435732,47.3890709 Z" id="ðŸŽ¨-Background" fill="#FFFFFF"></path>
                        <path d="M84.6124648,43.355744 C84.6171127,43.2559867 84.7599296,43.2335836 84.7876056,43.3320728 C85.3345775,45.2733252 85.644507,47.2509299 86.0723239,49.2224055 C86.4842958,51.1213879 86.8732394,53.0258654 87.1969014,54.9415444 C87.8076923,58.5570001 88.3223552,62.1818202 88.8010428,65.816171 L88.92,66.7249573 C89.7519718,73.1197832 91.1260563,79.7817558 89.9245775,86.2139906 C88.8992958,91.7025464 85.4617606,96.126108 81.0316901,99.3692783 C76.8369718,102.439987 71.7511268,104.410617 66.7014085,105.530985 C61.2815493,106.733779 54.8573239,107.092652 50.4475352,103.11673 C48.6821831,101.524629 51.0887324,98.3657871 53.0038732,99.8025464 C57.5009134,103.175443 63.2216981,102.181115 68.2960786,100.83899 L68.4496479,100.798218 C72.9033803,99.6114857 77.3866901,97.8126834 80.9224648,94.7781159 C84.8315493,91.4229299 86.7644366,86.7664603 86.9877465,81.6593918 C87.1130357,78.7900625 86.8456283,75.924074 86.5571871,73.0716598 L86.5250704,72.7547812 C86.1940141,69.4928008 85.8466901,66.2322998 85.5261972,62.9690513 C85.2337746,59.99338 84.9814723,57.0004025 84.8481318,54.0114263 L84.7859087,52.5038855 C84.6563278,49.4644407 84.4818739,46.3805802 84.6124648,43.355744 Z M31.8710915,18.1010959 C39.1889789,14.289816 47.5991197,12.9257613 55.7430634,14.2048532 C63.5722183,15.4344892 70.7574296,19.4759295 76.1280634,25.2709432 C78.7501056,28.1002896 81.0774296,31.3730489 82.5647535,34.9484618 C83.3035563,36.7246497 83.882007,38.5775577 84.1900352,40.4805558 C84.3484859,41.4588963 84.5041901,42.4725323 84.5339789,43.4643992 C84.5614437,44.3827162 84.2918662,45.2439687 84.3237676,46.1775029 C84.3286268,46.323546 84.1048944,46.3516556 84.0708803,46.2117417 C83.8165141,45.1708415 83.2036268,44.383773 82.8191197,43.3950763 C82.5317254,42.6568297 82.2057342,41.9360992 81.8738499,41.2175705 L81.5886972,40.6018708 C80.7609507,38.8123679 79.7715845,37.0964149 78.7927817,35.386591 C76.8218662,31.9428493 74.292993,28.8131742 71.3318662,26.1723523 C66.1327817,21.5357495 59.4628521,18.542818 52.5013732,18.0038748 C45.2758099,17.4442192 37.9469366,19.1671468 31.7762324,22.9837104 C25.6059507,26.8000626 20.9403169,32.7326654 18.5179225,39.5632955 C17.2957394,43.0102074 16.6207394,46.601683 16.4637676,50.2533933 C16.384331,52.101863 16.4584859,53.9657613 16.587993,55.810638 L16.6523211,56.6903966 C16.7276996,57.7454264 16.7793647,58.7963928 16.6217958,59.8258708 C17.7347535,59.4786223 18.9013732,59.3346928 20.0722183,59.5065205 C21.812007,59.7618317 22.8514437,60.4753503 23.6318662,62.0304658 C23.6726408,62.1116243 23.5908803,62.1927828 23.5099648,62.1524149 C22.4982042,61.6472877 20.8613028,61.9131663 19.7897535,62.1779883 C18.6746831,62.453589 17.6703169,62.9329315 16.7227817,63.5809315 C14.9698944,64.7790763 13.5958099,66.6357886 13.2586268,68.7659883 C12.9326408,70.8236947 13.7770775,72.9071859 15.1955282,74.3819883 C15.925669,75.1415812 16.7984155,75.7982466 17.7755282,76.2074207 C18.9613732,76.7043053 20.1351761,76.6888767 21.184331,77.5091272 C21.8329225,78.0161566 21.676162,78.8837495 21.2363028,79.4467867 C23.4497535,81.8747789 25.4126408,84.5310294 27.6258803,86.9685323 C28.6517958,88.098364 29.6695318,89.2295316 30.6525284,90.3957307 L31.0194718,90.8347632 C32.0010211,92.0198043 33.5627113,93.2716321 34.0112324,94.7620744 C34.2903169,95.6892681 33.2977817,96.9019961 32.2944718,96.4795068 C30.7554637,95.831228 29.6568196,94.1445712 28.6168636,92.8509346 L28.5491197,92.7671389 C27.4585563,91.426544 26.4903169,90.0113425 25.6051056,88.5282975 L25.3140415,88.0397304 C23.7133465,85.346632 22.1264155,82.5535515 21.1057394,79.5949432 C21.0383451,79.6642661 20.9669366,79.7274599 20.8917254,79.7809315 C19.4213028,80.8269041 17.2836972,80.0227162 15.8151761,79.3434364 C14.428838,78.702411 13.1578521,77.7377987 12.1672183,76.5751703 C10.0127113,74.046998 9.01954225,70.7727593 9.73911972,67.491546 C10.3486268,64.7120783 12.274331,62.0084853 14.7989789,60.6025832 C13.6336268,59.2605088 13.1510915,57.4513503 12.8299648,55.6825597 C12.4201056,53.4247045 12.3383451,51.1108415 12.4496831,48.8212838 C12.6717254,44.2609785 13.8448944,39.7657691 15.6584155,35.58991 C18.9030634,28.1180431 24.6394014,21.8679922 31.8710915,18.1010959 Z M16.4694085,67.960955 C18.0053239,67.6730959 19.436662,67.6035616 20.9180704,68.2536751 C22.5249718,68.9593738 23.6558873,70.1243366 24.7071549,71.4892368 C25.903312,73.0417738 22.8376905,74.7378618 22.0647287,72.6768079 L22.0420141,72.6131977 C21.8349718,72.0030294 21.4641972,71.4131507 20.9945493,70.8701918 C20.8536338,71.0861918 20.6651831,71.276407 20.4437746,71.3852524 C20.1756761,71.517135 19.7662394,71.4258317 19.7018028,71.0832329 C19.6303944,70.7030137 19.7094085,70.2422701 19.9287042,69.9203836 L19.9587042,69.8764227 L19.9587042,69.8764227 C18.8930704,69.0185519 17.6113099,68.3918982 16.4694085,68.1902701 C16.3553239,68.1699804 16.3565915,67.98209 16.4694085,67.960955 Z" id="ðŸ–-Ink" fill="#000000"></path>
                    </g>
                    <g id="face/Awe" transform="translate(112.183099, 77.354207)" fill="#000000" fill-rule="evenodd">
                        <path d="M19.9288732,39.964375 C19.9732394,39.923373 20.0433803,39.9090012 20.096831,39.9426059 C21.0109859,40.5208603 21.1191549,42.4654943 21.129507,43.5886098 C21.5076761,43.687099 21.8811972,43.7991147 22.2344366,43.8773143 C22.9845211,44.0433511 23.7387972,44.1881514 24.4915318,44.3408241 L25.0557042,44.4572595 C26.9414789,44.8548094 28.8625352,45.149009 30.7842254,45.2963202 C32.6492958,45.439193 34.5684507,45.4913965 36.4282394,45.2510912 C37.226831,45.1477409 38.0207746,44.9752791 38.7925352,44.7451186 C39.7047887,44.4728994 40.431338,44.0216665 41.2797887,43.6264415 C43.4038732,42.6366881 45.1840141,45.5370481 43.1397887,46.8097996 C41.385,47.9018466 38.9909155,48.2955922 36.9652817,48.4646724 C34.8948592,48.6373456 32.8324648,48.4477644 30.7869718,48.1201714 C28.5756338,47.765737 26.4097183,47.22151 24.3124648,46.432328 C23.4256866,46.0987115 22.5674897,45.6942355 21.7295749,45.251947 L21.5015493,45.1304102 C21.3623239,45.0555922 21.2171831,44.9797174 21.0711972,44.9027859 C20.9142254,46.3034043 20.4619014,47.6562575 19.9153521,48.9566959 L19.9024648,48.9338701 C19.6035211,49.9597644 18.5235211,50.5944493 17.4490141,50.1413143 C16.187805,49.6098301 16.092005,48.2144991 16.8258402,47.2240956 L16.8608451,47.1779718 C17.723662,46.0675374 18.2642958,44.6899562 18.7341549,43.3768368 C18.9752113,42.7036861 19.1983099,42.0142614 19.391831,41.3256822 C19.5319014,40.8275295 19.5369718,40.326418 19.9288732,39.964375 Z M52.4285797,28.8108977 C51.6810471,31.0709693 50.0506498,32.8113985 47.7794858,33.5766183 C45.5286407,34.3351334 43.0252653,34.058632 40.7244726,33.6485532 C40.2211742,33.5588484 39.7109851,33.4597958 39.2017609,33.3442852 C39.618502,33.6025254 39.9866387,33.9660159 40.3389247,34.3503725 C40.8597561,34.9186182 41.3321703,35.5174474 41.4754504,36.2287556 C41.617647,36.9344868 41.3936428,37.47141 40.9850876,37.876636 C40.356612,38.4999904 39.3428168,38.8357471 38.4841179,39.0213183 C36.561246,39.4371097 34.6350248,39.3724027 32.7215957,38.9462102 C32.2330383,38.8374263 31.9017528,38.5753196 31.7157941,38.2335338 C31.4898643,37.8182823 31.4713902,37.3019286 31.6010046,36.8315974 C31.7305263,36.3616022 32.0104693,35.928259 32.4167557,35.688394 C32.7511656,35.4909638 33.1694607,35.4367937 33.6442181,35.5948171 C34.5970813,35.9119739 35.5431305,36.122105 36.5495748,36.1463873 C36.9755634,36.1562724 37.4044024,36.1436714 37.8297292,36.1045709 C38.0702216,36.0824622 38.3102746,36.0518186 38.5488836,36.0135555 C38.4083197,35.8263346 38.2718181,35.6356328 38.1384118,35.4429565 C37.9807683,35.2152747 37.8272244,34.9845142 37.6806672,34.7500548 C37.2568397,34.0710077 36.9038771,33.3729589 36.5937772,32.636158 C36.4942893,32.4001429 36.4020605,32.1630817 36.3135123,31.9252088 C36.3007575,31.8909448 36.2880716,31.8566437 36.2753654,31.8222475 C36.2480292,31.7994097 36.2209046,31.7763415 36.1939893,31.7530477 C35.5874158,31.2280894 35.0788521,30.5813546 34.7191265,29.7803615 C33.7452276,27.6106609 33.9037924,24.9174592 34.4947685,22.6645732 C34.9683232,20.8587544 36.0137139,19.1884783 37.3947991,18.0537659 C37.6359883,17.6568493 37.7951551,17.4160737 37.9902761,17.2133047 C38.7839924,16.3871897 39.8915581,15.8300266 40.972422,15.4911039 C43.3864569,14.73381 46.0155693,15.2771248 48.0619069,16.718998 C49.9513441,18.0503098 51.4304886,20.0469255 52.2297932,22.2676038 C52.9867466,24.3706193 53.1344485,26.6773243 52.4285797,28.8108977 Z M19.5469014,15.0758489 C22.4178169,15.0513323 25.3388028,15.8992697 27.6684507,17.5962012 C29.8973239,19.2200055 31.6470423,21.6173519 31.6449353,24.4729057 C31.6428169,27.2532188 30.1571831,29.9868235 28.509507,32.1394262 C26.6600704,34.5560055 24.243169,35.7211796 21.2042958,35.7480211 C19.62471,35.7621443 18.0335214,35.622188 16.4652523,35.4299982 L15.6238641,35.3238517 C14.4651874,35.1743553 13.2944846,34.997401 12.1962676,34.5991209 C6.96866197,32.7022521 6.80683099,25.8570387 8.74288732,21.4814536 C10.2378169,18.1032305 14.0214085,14.8087022 17.7942254,15.2041386 C18.3627465,15.1244595 18.9464789,15.0811327 19.5469014,15.0758489 Z M24.3957042,18.2949252 C20.8005634,16.6806317 16.4323944,17.1639898 12.945,18.8867061 C11.5635211,20.3944791 10.5538732,22.2947295 10.1452817,24.0392149 C9.70901408,25.9014223 9.7728169,27.9073479 10.4288028,29.7122795 C11.2297183,31.9156063 13.2019014,32.4613127 15.3293662,32.7998959 L16.1553382,32.9296467 L16.5018568,32.9821811 C18.5922852,33.2941167 20.8776953,33.5367409 22.8866197,33.146299 C25.1255103,32.7107483 26.5473856,30.9013617 27.666494,29.0462263 L27.7187324,28.9592384 C28.8809155,27.0154497 29.8538028,24.6514967 28.8790141,22.4242873 C28.0502113,20.5312227 26.2398592,19.1229957 24.3957042,18.2949252 Z M45.6155704,18.8574129 C44.3817676,18.1734834 42.9745141,18.0492094 41.6422606,18.5069941 C41.0690418,18.7039229 40.5737874,19.0231094 40.0935106,19.3809254 L39.9020493,19.5259139 C39.3114595,19.97941 38.7598695,20.2091034 38.3168224,20.8215954 L38.2596549,20.9037065 C38.0361338,21.2376399 37.6450775,21.3712133 37.2888803,21.3268297 C36.8737394,22.4717143 36.7024014,23.7098043 36.6989491,24.9286614 L36.6992914,25.0901659 L36.7014033,25.2549084 C36.7280219,26.6956049 36.9792827,28.4580906 38.1124014,29.4236595 C39.1459479,30.3042336 40.7109271,30.5156026 42.1080725,30.6382113 L43.1848466,30.7280436 L43.4710294,30.7496553 C44.94368,30.8521439 46.5574014,30.8171914 47.7916268,29.9450607 C48.8665563,29.1854677 49.3735986,27.8962309 49.505007,26.6232681 C49.8157817,23.6159648 48.2942324,20.3421487 45.6155704,18.8574129 Z M18.7595493,19.1352329 C20.739338,18.1241331 23.1175775,18.3775421 24.7946197,19.6447984 C24.6456761,19.6739648 24.4990563,19.7111624 24.3528592,19.784501 C23.9723662,19.9753503 23.736169,20.3574716 23.646169,20.7641096 C23.5447606,21.2237965 23.7828592,21.6589667 24.2364507,21.803953 C24.6310986,21.9299178 25.0990563,21.9876164 25.4656056,21.7477339 C25.6576479,21.6221918 25.7918028,21.4567045 25.8799014,21.2483131 L25.8923662,21.2176673 L25.9078534,21.1951766 L25.9137283,21.1846538 C25.9150788,21.1806471 25.9081408,21.1882661 25.8972254,21.205409 C25.9084225,21.1794129 25.9187746,21.1534168 25.9291268,21.126998 C25.9445493,21.0955068 25.959338,21.0638043 25.9713803,21.031045 C25.9927183,21.0126575 26.0121549,20.9921566 26.0318028,20.9716556 C26.3364507,21.4406419 26.5756056,21.9702857 26.727507,22.5595303 C27.7022958,26.3416438 23.7051127,30.2666301 20.1340563,30.659319 C18.7844789,30.8076869 17.5538451,30.4862231 16.5325775,29.8525949 C16.5418732,29.8401252 16.5522254,29.8289237 16.5606761,29.81582 C16.9709577,29.8895812 17.4606761,29.7059178 17.6096197,29.2481331 C17.9896901,28.0804227 17.5999014,26.7144658 16.3280704,26.3329785 C15.5096197,26.0873894 14.6721549,26.3587632 14.0871549,26.9184188 C13.6447606,25.8352485 13.4865211,24.6157573 13.6958873,23.394364 C13.9912394,21.671225 15.0302535,20.1184344 16.6472958,19.4015342 C17.4346901,19.0521722 18.1132817,18.9788337 18.7595493,19.1352329 Z M39.6088732,21.4687092 L39.6691457,21.373732 C40.2809262,20.4319062 41.4503787,19.2765736 42.6623239,19.5942434 C42.8326056,19.6388384 42.999507,19.7106975 43.1499296,19.8039029 C43.8158451,19.713445 44.5130282,19.8647718 45.0855634,20.2170928 L45.0699922,20.2566074 C45.0675117,20.2632141 45.0652817,20.2699303 45.0635915,20.2769049 C45.0114085,20.5060086 45.041831,20.7177816 45.1487324,20.9282865 C45.2647183,21.1563335 45.4301408,21.3725448 45.6540845,21.5033706 C45.8076761,21.5929832 45.9883099,21.6401143 46.1653521,21.6365213 C46.425,21.6318716 46.6535915,21.5175311 46.8411972,21.3429558 C46.9432394,21.2482708 47.0144366,21.1094137 47.0537324,20.9665409 C47.1462676,21.055308 47.2360563,21.15422 47.3216197,21.266447 C48.7267606,23.1149166 48.5326056,26.0852337 46.8840845,27.7329205 C46.8175352,27.7992845 46.7467606,27.859308 46.676831,27.9205996 C46.0075352,28.8422982 44.9759155,29.4678951 43.736831,29.5944939 C42.5896479,29.7117933 41.4424648,29.3723648 40.5627465,28.6765996 C40.6335211,28.6389793 40.6996479,28.5901573 40.7566901,28.5254841 C40.9069014,28.3553472 41.030493,28.187535 41.1217606,27.9797777 C41.1447183,27.9275037 41.166831,27.874854 41.1877856,27.8217033 L41.2183099,27.7415859 C41.2236066,27.7268669 41.2704369,27.59169 41.2579857,27.6154357 L41.2551152,27.6209201 L41.2717255,27.5819677 C41.4291745,27.1888165 41.3655452,26.739377 40.9918618,26.4927771 L40.9506338,26.4671436 C40.8285211,26.3959186 40.6772535,26.3623139 40.5240845,26.3618912 C40.1425352,25.8945957 39.5746479,25.7874411 39.0416197,25.9239734 L39.022903,25.7731006 C39.0200704,25.7479186 39.0176056,25.7226975 39.0158451,25.6974059 C38.6028169,24.3276446 38.8020423,22.7710497 39.6088732,21.4687092 Z M21.2715423,7.67810254 L21.4087039,7.65675091 C22.4456565,7.50683175 23.1507148,7.6794499 23.8249225,8.56598513 C24.1462606,8.98847436 24.0471761,9.6265409 23.8249225,10.0583295 C23.1070352,11.4534528 21.1321056,11.1649597 19.8019648,11.4420399 C18.5033028,11.7123569 17.2078099,12.0803178 15.9925986,12.6158795 C14.752669,13.1624313 13.5887958,13.8089519 12.4538662,14.5471984 C11.4273169,15.2152767 10.4962606,16.219402 9.32351408,16.6080751 C9.27069718,16.6256172 9.20710563,16.5782748 9.21029329,16.5222669 C9.29393662,15.1880125 10.4079507,13.9632376 11.2707676,13.0130067 C12.2687958,11.9141965 13.4825282,10.9386035 14.7465423,10.1629479 C16.0509085,9.36277573 17.4609085,8.70399687 18.9207676,8.24452133 C19.6895704,8.00252524 20.4761197,7.81019648 21.2715423,7.67810254 Z M37.0693521,9.48975499 C38.3749859,7.57978239 41.6206901,7.94605245 43.535831,8.45646341 C45.9370986,9.09600939 48.5390704,10.3896845 50.2228732,12.2622481 C51.7311127,13.9397354 49.4745634,16.1191796 47.778507,14.707571 L47.3258774,14.3320817 L47.0362039,14.0940718 C45.7341761,13.0302316 44.4447855,12.0674189 42.8580845,11.3580916 C40.997662,10.5268509 39.1125211,10.1219037 37.1462535,9.6789135 C37.0689296,9.66158278 37.023507,9.55675303 37.0693521,9.48975499 Z" id="ðŸ–-Ink"></path>
                    </g>
                    <g id="facial-hair/Full" transform="translate(104.577451, 109.479380)" fill="#000000" fill-rule="evenodd">
                        <path d="M24.8714257,20.1190753 C26.5818995,16.1103389 30.3151083,13.1641387 34.613341,12.0870037 C37.7697106,11.2980357 41.0822108,11.3232133 44.2997667,11.6363462 C45.9855551,11.79926 47.793716,11.9327646 49.3824502,12.5590305 C50.7390983,13.094107 51.8446716,14.1054418 52.6759615,15.2925964 C53.6654918,16.6993673 54.3385412,18.3094631 54.8111527,19.9597583 C54.8782466,20.1943964 54.9413318,20.4307272 55.0001973,20.6683274 C54.7946957,21.913454 54.358374,22.9732397 53.2055395,23.7560721 C52.0805554,24.5204973 50.7382544,24.8332071 49.4001731,24.9442846 C49.268939,24.8812349 49.1421356,24.8164925 49.0258817,24.7500576 C46.9406944,23.5559209 45.473067,20.733916 42.8412117,21.1158113 C40.4925014,21.4568723 38.9463867,24.4132281 37.5496509,26.1468844 C33.0661714,26.6694779 28.5860676,25.3217368 24.9380977,22.7570087 C24.7528508,21.8791786 24.7420905,20.9939433 24.8714257,20.1190753 M58.0474865,17.0780889 C57.6888081,16.0711973 57.2370843,15.0960421 56.7015987,14.1773777 C54.9314154,11.1393534 52.2138994,8.71870887 48.987904,7.33499979 C41.3564943,4.06614578 31.4822899,6.37042339 25.3193517,11.7315555 C23.2141207,13.5642296 21.0854701,16.2573844 20.4417479,19.1542873 C20.2495385,19.192371 20.0680894,19.2924466 19.9187104,19.4333564 C15.466035,16.6289124 10.8806486,13.9306797 7.29259907,10.0431766 C4.68690625,7.21863282 2.87452557,3.87593867 1.76473252,0.202762327 C1.67400799,-0.0995802223 1.18662739,-0.0553607732 1.2013965,0.279141375 C1.20561624,0.357424611 1.20983599,0.43549627 1.21405573,0.513779505 C1.16763853,0.369907613 0.94821177,0.443959322 0.931332788,0.583599688 C0.334238806,5.0457441 -0.412656141,9.77659043 0.275162369,14.2620082 C0.686587551,16.9384486 1.90187424,18.8978568 3.52647625,21.0136199 C5.26712125,23.2815064 7.23774238,25.3909222 9.25267083,27.4138033 C10.5312537,28.69786 11.8668031,30.1788941 13.4323287,31.1204087 C15.2531489,32.2142583 17.3187143,33.0459647 19.2619071,33.8899427 C21.2388578,34.7510582 23.2453468,35.5465852 25.2898135,36.2363239 C29.3766369,37.620033 33.6006021,38.576358 37.8984129,38.9952791 C41.3396153,39.3295696 45.2724181,39.6936925 48.5701492,38.3986339 C51.0977767,37.406341 53.1380236,35.6123854 54.756296,33.4540955 C56.5180397,31.1034826 57.9107667,28.4259844 58.6806593,25.6024985 C59.480723,22.6696277 58.2160653,17.550962 58.0474865,17.0780889" id="ðŸ–-Ink"></path>
                    </g>
                    <g id="accessories/*-None" transform="translate(88.521127, 88.978474)"></g>
                </g>
            </g>
        </g>
    </g>
</svg>