<?xml version="1.0" encoding="UTF-8"?>
<svg width="240px" height="324px" viewBox="0 0 240 324" version="1.1" xmlns="http://www.w3.org/2000/svg" xmlns:xlink="http://www.w3.org/1999/xlink">
    <!-- Generator: Sketch 62 (91390) - https://sketch.com -->
    <title>peep-7</title>
    <desc>Created with Sketch.</desc>
    <g id="Introduction" stroke="none" stroke-width="1" fill="none" fill-rule="evenodd">
        <g id="variations" transform="translate(-126.000000, -2054.000000)">
            <g id="images" transform="translate(126.000000, 110.000000)">
                <g id="a-person/bust" transform="translate(0.000000, 1944.000000)">
                    <g id="body/Whatever" transform="translate(31.056338, 135.052838)">
                        <path d="M214.857423,59.8874148 C217.021437,58.7574195 219.134324,57.5296423 221.213831,56.2517043 C222.678549,55.3752648 221.381789,53.1675516 219.879887,53.9652576 C219.11193,54.3733173 218.34693,54.7853984 217.579183,55.1909183 C218.183408,54.6702612 218.743479,54.1034645 219.245662,53.4856604 L219.211014,53.4511616 C221.14707,51.7158495 218.660239,48.4416359 216.458408,49.8670935 C214.516648,51.2751958 212.557141,52.7118708 210.328268,53.6391061 C205.711648,55.5974965 200.619465,55.9215315 195.664394,55.9780418 C193.851085,55.8417397 192.119113,56.1560388 190.359676,56.5063183 C191.049465,53.7379463 192.775732,51.6474868 193.691366,48.9663144 C194.367,46.2593207 190.461085,44.4154326 189.076859,47.0174482 C188.737141,47.6564173 188.413268,48.302794 188.096577,48.9523455 C185.104606,51.6747896 180.108549,51.434991 177.091014,54.3580786 C175.372256,55.8841834 174.531021,57.9549368 174.198825,60.0331862 C173.97324,61.4444635 174.323926,62.8591975 173.470944,64.109182 C169.347211,69.9441398 162.831352,79.1669667 159.522267,85.5884045 C157.179309,70.3293414 150.923408,51.4557326 144.460521,37.5031802 C142.323338,33.0409795 139.878338,28.6807936 136.668761,24.8984102 C137.032563,23.6369807 135.748479,21.3979435 134.93193,22.0872851 C132.418479,19.0156197 127.975521,18.2204536 124.402986,16.6934043 C119.58038,14.6304593 115.579183,10.3424458 113.612282,5.46879891 C111.085099,-3.81201996 104.863901,-4.99090619 96.2359437,-4.58072997 C87.9787606,-4.59110079 81.8695352,-1.05804014 80.0678451,7.3507839 C76.4076338,13.7330665 67.7655211,12.6775718 61.5481268,14.3671676 C56.991507,15.4084819 52.5694648,17.0184976 48.3669296,19.0623942 C43.6917887,14.6260146 26.9477746,33.2447977 25.4258028,38.0365363 C26.3217887,38.2103003 27.2122817,38.4194098 28.0947465,38.6742355 C28.880662,38.9015467 28.550662,40.0891106 27.7579859,39.8990496 C26.7715775,39.6620024 25.778831,39.4988209 24.7814366,39.3855885 C24.7510141,39.4810423 24.7243944,39.5758612 24.7045352,39.6696218 C24.5925634,39.6620024 24.4808028,39.6524782 24.368831,39.6448588 C24.6170704,39.7741765 24.8560141,39.9242358 25.088831,40.1176832 C25.6516479,40.5852164 24.9189718,41.4874771 24.3208732,41.1149744 C23.7574225,40.6931575 23.0194648,40.759827 22.3436197,40.6182337 C22.3034789,42.0085575 17.3443944,40.4531473 16.5741127,39.9923869 C13.1505211,39.5640088 9.62847887,40.023711 6.43242254,38.3720003 C2.1798169,37.4760891 -2.10469014,36.4853591 -6.3095493,35.3443581 C-7.42271831,35.7784506 -8.46891549,37.331956 -7.58476056,38.4718988 C-7.08743662,38.9906511 -7.72673239,39.8376713 -8.35292958,39.4689783 C-10.4531408,38.2323119 -12.0773662,36.3018592 -13.4544085,34.2221938 C-14.1025775,33.5679861 -15.2531408,33.7087328 -16.1239859,33.4371868 C-16.2403944,33.6465079 -16.3090563,33.8797454 -16.308,34.118909 C-20.0020141,34.7271889 -17.3668732,38.7633398 -15.509831,40.0209595 C-16.4949718,40.66268 -16.5323662,41.9192415 -16.446169,42.9685984 C-16.6549014,43.3423709 -16.7246197,43.8056711 -16.5429296,44.2245249 C-15.8482817,45.825863 -14.3459577,47.174492 -13.2036338,48.4719018 C-11.9423662,49.9047671 -10.8177887,51.3454634 -9.28314085,52.5069944 C-3.43356338,56.9677136 3.62552113,59.4615765 10.8673521,60.4368562 C13.4386901,60.8320053 17.1373521,61.4366872 18.7294648,63.6118063 C18.338831,66.193292 17.6215775,68.6689531 16.9708732,71.1863091 C16.0609437,74.5276155 16.1228451,78.0257541 16.1108028,81.4322485 C15.9836197,81.3300219 15.7393944,81.3511868 15.7030563,81.5459041 C15.4913662,82.9580278 15.3339718,84.4018989 14.4760141,85.5884045 C13.7239014,87.7948477 13.2234085,90.1481755 12.9422113,92.4661579 C11.8157324,103.455409 11.5467887,114.768696 14.0866479,125.586723 C15.0667183,129.600016 16.6607324,133.414147 18.8325634,136.926254 C19.4800986,137.973706 20.5212254,138.280598 21.4560845,138.074874 C24.5849577,139.700976 28.5265775,140.222268 31.8990423,139.809128 C43.3964366,136.553117 39.3903803,144.393662 55.5107324,141.992713 C83.3361549,138.446742 111.456718,145.415082 139.222986,141.323902 C139.906859,146.608148 148.859113,145.092316 151.968761,142.858359 C161.292845,135.924095 165.922563,113.969932 170.60193,102.832737 C173.818479,94.0545854 179.204535,78.5068328 186.258127,72.616423 C188.373127,70.9615376 190.929676,70.0903894 193.487704,69.387079 C203.034465,66.9260217 212.617986,64.5987267 222.182915,62.2060321 C223.805028,61.8064384 223.513479,59.038913 221.778972,59.2164867 C219.477,59.4520523 217.167211,59.6653947 214.857423,59.8874148 Z" id="ðŸŽ¨-Background" fill="#FFFFFF"></path>
                        <path d="M2.33340845,58.2413354 C1.68692958,58.161128 1.05312676,57.9307562 0.423549296,57.7489949 C-0.53771831,57.467899 -1.47997183,57.1403061 -2.40743662,56.766216 C-4.32152113,55.9992258 -6.17856338,55.0923217 -7.91940845,53.9827327 C-10.7313803,52.1883687 -13.2158873,49.8888775 -15.089831,47.1201886 L-15.2184848,46.927094 C-16.2883099,45.2969052 -18.2617183,41.6770732 -16.0489859,40.4394059 C-17.4751056,39.2473268 -18.822993,37.1063483 -18.7469366,35.453589 C-18.6391901,33.1160548 -15.7744014,33.1479687 -14.2934155,34.1389902 C-13.3236972,34.7878356 -12.5969366,35.6966419 -11.8680634,36.590865 C-11.0610211,37.584 -10.1990493,38.5308493 -9.30327465,39.4417691 C-9.06559859,39.6827084 -8.82554577,39.9188924 -8.58133363,40.1512126 L-8.33569014,40.3822568 C-8.37369718,40.2914818 -8.4075,40.1984877 -8.43707746,40.1031687 C-8.93144366,38.5626364 -8.34200704,36.5569221 -6.8018662,35.8510121 C-5.85935503,35.418775 -4.88052369,35.6826284 -3.96719921,36.0495615 L-3.82721831,36.106746 C-2.59764085,36.6158888 -1.35327465,37.0662763 -0.0729929577,37.4276853 C5.1453169,38.9007969 10.5917958,39.1459632 15.9389789,39.8814622 C17.998838,40.1667851 20.0967254,40.5258693 22.1460211,41.054245 C22.927669,37.7339953 24.8438662,34.5512712 26.9227394,31.9326411 C36.877669,19.4056978 53.2952746,15.2655569 68.3142887,12.5856352 C69.6833028,12.3425824 70.8178944,14.1558834 71.6143732,13.7268423 C73.1249366,12.9152571 74.4538099,11.7655115 75.620007,10.5164313 C78.1066268,7.85130411 79.8707113,4.71697926 81.9432465,1.74750763 C82.9678944,0.280736595 85.3256408,1.59322192 84.3749366,3.1677816 L83.9092,3.93729014 C81.9915688,7.08931294 79.8680405,10.3376609 77.1178944,12.7821065 C75.6559225,14.0797973 74.0333873,15.1048462 72.1784577,15.7450262 C70.7735282,16.2292297 68.8024014,16.6371358 67.2643732,16.1677268 L67.0797879,15.8987562 C67.1408568,15.9886967 67.2023592,16.0784031 67.264331,16.1678748 C71.2783732,21.9863272 76.314993,26.910789 81.6220352,31.558382 C86.9788681,36.2469312 92.7577053,40.4454837 98.5712997,44.5505878 L99.055838,44.892472 C108.5269,37.9815761 116.527559,28.9673509 122.140934,18.6683392 C120.964373,18.5265652 119.800289,17.772256 118.794655,17.2098528 C117.584092,16.5295162 116.445359,15.7177198 115.558035,14.6356063 C113.624937,12.2790505 113.876345,9.24194677 113.527754,6.3823773 C113.506627,6.20484305 113.741134,6.16045949 113.84888,6.24922661 C114.896768,7.11998982 115.264373,8.54660431 115.701697,9.77877652 C116.183387,11.1335319 116.728458,12.2496728 117.833387,13.2026513 C118.862261,14.0905339 120.11719,14.7433949 121.336204,15.3246082 C121.964861,15.6228298 125.08559,16.3892302 125.44107,17.0239703 C130.832683,15.7579397 136.084796,17.9454153 140.079866,21.6355914 C143.939725,25.2010708 146.772824,29.8359828 149.274232,34.4117166 C151.942542,39.2939084 154.129162,44.3830121 156.013669,49.6139319 C157.923528,54.9232626 159.387613,60.3486247 160.192542,65.9367264 C160.871979,70.6479781 161.288565,75.4332463 161.558188,80.1971666 L161.591134,80.7925386 C165.579803,74.5301871 169.667831,68.3333965 173.840366,62.1915569 C172.891775,59.6574669 173.941775,57.0705393 175.718535,55.1134356 C177.687549,52.9470951 180.410789,51.9410677 183.015718,50.7701871 L183.358114,50.6152458 C184.613635,50.0423202 185.865014,49.4113808 186.949521,48.5531225 C187.993183,47.7246294 188.760085,46.5833378 189.858676,45.8203632 C191.455859,44.7086607 194.354451,44.945373 194.428394,47.3737879 C194.466423,48.7076196 193.893887,50.1699523 193.369944,51.3683084 C192.776282,52.7232751 191.975577,53.951009 191.024873,55.0796196 C190.98093,55.1322035 190.93293,55.1736958 190.884118,55.2065853 L190.84743,55.2296783 C192.161514,55.4473691 193.486162,55.6227898 194.836162,55.6840814 C197.559401,55.8087781 200.312218,55.6079953 202.978415,55.0331225 C205.707993,54.4455687 208.353063,53.4904767 210.807993,52.1587585 C212.90588,51.0216939 214.849542,49.5506959 217.232641,49.2040814 C217.452338,49.1703076 217.674169,49.1491726 217.902338,49.1364916 C218.28262,49.1153566 218.662901,49.5634192 218.512901,49.9394114 C218.430507,50.146746 218.343887,50.3517558 218.248817,50.5588791 C217.424894,52.3742671 216.161119,54.1354611 214.584793,55.4721773 L214.462923,55.5741581 C215.018599,55.3818716 215.565782,55.1662943 216.104514,54.9232415 C219.271415,53.496627 222.144655,51.340854 225.539725,50.4743178 C225.700289,50.4320266 225.862965,50.3939836 226.025641,50.358054 C227.075641,50.1319092 227.629162,51.2732008 227.012261,52.0551969 C226.912965,52.182007 226.813669,52.3067037 226.710148,52.4314004 C225.195359,54.3123546 223.524232,56.058108 221.681979,57.6263272 C221.050289,58.1631569 220.399585,58.6830787 219.736204,59.1799632 C219.456648,59.3904936 219.175532,59.5964696 218.891516,59.7991052 L218.751634,59.8983429 C219.083324,59.6639554 219.410789,59.4251295 219.736141,59.1799632 C221.815014,58.549928 223.86431,57.8038614 225.869239,56.9776932 C226.665718,56.6498888 227.284732,57.457247 227.369239,58.1208869 C227.652338,60.3445033 225.184732,61.9528791 223.579099,63.0221002 C221.969239,64.095971 220.196704,64.9117832 218.381915,65.5667577 C214.89261,66.8282683 211.227776,67.4011266 207.568682,67.9144971 L205.791469,68.1621294 C198.756932,69.1461563 191.409613,70.3226254 186.362197,75.7984368 C183.533324,78.8670317 181.619239,82.679791 179.867831,86.4312587 C178.118535,90.1787108 176.58262,94.0252861 175.124873,97.8929965 C173.61431,101.89576 172.298113,105.972707 170.899521,110.015838 C169.615014,113.728312 168.080731,117.39329 166.561129,121.021102 L166.321352,121.593607 C163.095296,129.303877 159.241775,136.565662 153.871352,143.003392 C152.986141,144.066484 151.555859,142.557654 152.373465,141.504918 C157.99107,134.25983 161.899521,125.710922 165.125577,117.182726 C166.593887,113.302546 167.823465,109.32895 169.234732,105.427423 L170.074496,103.10969 C171.195803,100.020026 172.326845,96.9343115 173.506563,93.8688869 C175.000225,89.9903977 176.641775,86.1586168 178.519944,82.4515327 L178.719194,82.0612221 C180.558021,78.484917 182.742664,74.9602957 185.749521,72.253881 C191.161606,67.3804772 198.363281,66.2112704 205.326343,65.2852305 L207.516872,64.9964495 C210.46073,64.605202 213.412901,64.1730787 216.275577,63.3856227 C217.92769,62.9335444 219.541775,62.3542333 221.058676,61.5553292 C221.662901,61.2383037 222.252338,60.8897871 222.822761,60.5093566 C221.196,60.9870082 219.546,61.3777949 217.866423,61.6842528 C217.044592,61.8343115 216.231211,61.9465386 215.419944,62.0247382 C213.330592,62.2315867 211.258056,62.2231327 209.117915,62.1113284 C208.936225,62.1005495 208.87707,61.815438 209.071437,61.7795084 C210.561834,61.5143599 212.053976,61.1828368 213.539929,60.8230491 L213.9855,60.714155 C213.993951,60.4670865 214.091134,60.2048008 214.293951,59.9556188 C215.033387,59.0552665 216.438317,58.5943115 217.412261,57.9581472 C218.432683,57.2923937 219.421415,56.5740141 220.363669,55.8044877 C221.225641,55.1009025 222.05381,54.3567382 222.850289,53.5791804 L223.089063,53.3444389 C223.00981,53.4229773 222.930218,53.5012063 222.850289,53.5790536 C220.699585,54.5726114 218.660852,55.8468423 216.415077,56.6332767 C214.629866,57.2607757 212.758035,57.6834763 210.869303,57.833535 L210.752049,57.8427816 L210.634796,57.8504431 C208.663648,57.9920689 206.679845,57.9350043 204.738296,58.3619319 C204.52069,58.4105425 204.453085,58.1188791 204.647451,58.0364524 C206.34393,57.3305425 208.108014,57.0579006 209.891113,56.7281941 C209.92912,56.5886395 210.026303,56.4639429 210.195317,56.3836297 L210.65153,56.165736 C212.010106,55.5129933 213.276444,54.8540877 214.40588,53.7945886 C215.403063,52.8583068 216.233345,51.7637237 216.856585,50.5503616 C214.361514,51.09778 212.170669,52.9893652 209.901655,54.0524571 C207.429824,55.2127703 204.814331,56.0454904 202.127007,56.5191264 L201.820834,56.5716004 C196.798888,57.4096093 190.759838,57.3027668 186.26081,54.690735 C186.117148,54.6061949 186.220669,54.4140775 186.368556,54.4371147 C187.644613,54.6463515 188.907993,54.8936313 190.171373,55.1134356 C189.924169,54.8872908 189.81431,54.4814982 190.099521,54.1560188 C191.234233,52.8551918 192.131515,51.3683062 192.705206,49.7413339 L192.814929,49.423177 C193.079146,48.6685179 193.525437,47.4965683 193.069944,46.8158231 C192.634732,46.1669777 191.610085,46.2557448 190.997408,46.5305002 C189.723465,47.105373 188.876282,48.5406528 187.803042,49.4069777 C186.63262,50.353827 185.301634,51.05551 183.938958,51.6832204 L183.651212,51.8140089 C181.29425,52.8746298 178.775992,53.7674658 176.922761,55.6396978 C175.925577,56.6457252 175.067831,57.9032595 174.780507,59.3129659 C174.649521,59.9596978 174.649521,60.6254513 174.822761,61.2658427 C174.960085,61.7667429 175.247408,62.0755256 175.08262,62.5846685 C174.867127,63.2419679 174.104451,64.028191 173.711493,64.6136313 C173.255155,65.2901636 172.80093,65.9683867 172.346704,66.6468211 C171.440366,68.00369 170.538254,69.3647859 169.636141,70.7237683 C167.831915,73.4459601 166.046704,76.1808329 164.276282,78.9241597 C163.700225,79.8174669 163.126047,80.7117135 162.553746,81.6068994 L161.696768,82.950425 L161.243863,83.6587127 L160.471394,84.8735225 C160.498859,84.9857495 160.496746,85.1041057 160.460831,85.207456 C160.329141,85.5827202 160.082499,85.8392172 159.776078,86.0251976 L159.721352,86.0572321 C155.212901,93.1860775 150.776282,100.36142 146.295296,107.507385 C146.056563,109.688245 145.83262,111.871494 145.638254,114.054742 C145.196704,118.996112 144.894592,123.950374 144.797408,128.910554 C144.75093,131.311705 144.943183,133.727227 145.046704,136.126053 C145.097408,137.270968 145.166739,138.414485 145.257356,139.55767 L145.324019,140.367965 C145.413277,141.481488 145.463887,142.586764 145.063606,143.648222 C144.708676,144.580065 143.626986,144.789302 142.986845,144.079376 C134.635458,143.743202 126.277711,143.487468 117.919965,143.328956 C102.960106,143.041519 87.9939085,143.085903 73.0319366,143.375453 C65.5171479,143.521285 58.0002465,143.726294 50.4875704,143.979915 C46.786162,144.102498 43.0826408,144.275805 39.3791197,144.326529 C37.3837817,144.35373 34.2433832,143.626925 34.0823782,141.381192 L34.0784155,141.312611 C33.8291197,141.380243 33.5713732,141.435194 33.3072887,141.47535 C33.1897203,141.493445 33.0767975,141.488302 32.9724976,141.463901 L32.920669,141.450115 C29.9462918,142.357021 26.1838642,141.063002 23.3575543,140.308896 L23.1242324,140.247363 C20.4263451,139.543566 18.2587394,138.537539 16.4904296,136.301453 C13.3953592,132.385343 12.3390211,127.126737 11.7897254,122.280474 C11.2742324,117.719535 11.2446549,113.074267 11.8721197,108.521782 C11.5023803,104.812605 11.8636479,100.985051 12.2840704,97.2967773 C12.4911127,95.4728243 12.7340704,93.6509847 13.0256197,91.8375992 C13.1882958,90.8252313 13.4016761,89.8234309 13.6192817,88.823744 C13.7061655,88.424292 13.7784916,87.9942569 13.8886273,87.5785222 L13.9382746,87.4013566 C13.6002465,87.4457401 13.2305282,87.3717675 12.8734859,87.1754231 C12.0241901,86.7083389 11.777007,85.7633918 11.7622183,84.8590239 C11.7157394,82.1323937 12.0410915,79.3279867 12.3284155,76.6184759 C12.6178521,73.9131922 13.0150352,71.1971295 13.5347535,68.5256618 L13.6692414,67.8368828 C14.0630456,65.8385125 14.513651,63.7755276 15.3072887,61.8977166 C12.3263662,61.3906661 9.35383099,60.8517229 6.46157746,59.9342513 C5.05030986,59.4840751 3.66016901,58.9242082 2.33340845,58.2413354 Z M157.923465,86.6151969 C157.877007,86.6258067 157.832641,86.6384877 157.788275,86.6511687 C156.596725,86.9851022 155.3925,87.2683115 154.1925,87.572656 C152.117852,88.0946912 150.089683,88.678018 148.16081,89.5847108 C147.756739,94.6867544 147.157722,99.7721644 146.588297,104.860187 L146.474873,105.877874 C147.349521,104.254492 148.245296,102.644003 149.181211,101.052747 C152.031211,96.2020462 154.946704,91.3896 157.923465,86.6151969 Z M14.6650352,87.120472 C14.6713944,87.726836 14.5446338,88.3568712 14.4770282,88.9399867 C14.367169,89.8870474 14.2784366,90.8381237 14.1664648,91.7847616 C13.9382958,93.6869143 13.7439296,95.5911804 13.6023803,97.5017871 C13.5115352,98.7214896 13.4523803,99.9452078 13.3995634,101.168926 C14.5974718,96.6901808 16.1840915,92.3091006 17.6925423,87.9212571 C17.4404014,87.8946411 17.1826455,87.8330724 16.9167582,87.7624204 L16.4691548,87.6418132 C16.2052272,87.5738177 15.3490452,87.3631519 14.6650352,87.120472 Z M161.696789,82.9504462 L161.705239,83.151229 C161.73693,83.8634795 161.310169,84.265045 160.792563,84.3686067 C161.092563,83.895182 161.394676,83.4217573 161.696789,82.9504462 Z M24.6263028,49.1936618 C25.8875704,49.3054661 27.1234859,49.5740924 28.3023592,50.039063 L28.4161091,50.0834796 C29.2880579,50.4201642 30.5629225,50.8432059 30.8481338,51.7742489 C30.9284155,52.0384368 30.7129225,52.2559162 30.4657394,52.2772626 C29.5192606,52.3533487 28.4037676,51.338656 27.527007,50.9962685 C26.5509507,50.615838 25.5284155,50.3326286 24.4932042,50.1825699 C22.1671479,49.8422959 19.7417958,50.1003546 17.5530634,50.9478693 C17.4241901,50.9985933 17.3439085,50.7933722 17.4601056,50.7320806 C19.6657394,49.531611 22.1185563,48.971744 24.6263028,49.1936618 Z M-2.10109859,55.2381534 C-2.24695775,55.1091663 -2.39273239,54.9739022 -2.53639437,54.8388493 C-3.66909054,53.7668504 -4.67213201,52.5158187 -5.41481165,51.1410895 L-5.61027258,50.7690181 C-6.21516415,49.5974596 -6.95794536,47.9283237 -5.53639437,47.0841957 C-4.68709859,46.5792798 -3.66456338,46.7058787 -2.71808451,47.0123366 C-2.6568169,47.0313581 -2.5955493,47.0527045 -2.53428169,47.0736282 C-2.11174648,47.2217847 -1.704,47.3991076 -1.34061972,47.5681879 C0.237549296,48.2931194 1.62980282,49.3477573 3.0875493,50.27791 C4.66706274,51.2860381 6.22671043,51.9306794 8.04966963,52.3079976 L8.22135211,52.342591 C9.93261972,52.6809628 11.7875493,52.8984423 12.9812113,54.3060352 C13.2812113,54.6613151 13.0065634,55.3268571 12.4889577,55.1514364 C9.18895775,54.0378317 5.69670423,53.792454 2.66712676,51.964274 C1.41219718,51.2076399 0.224873239,50.3392016 -1.05752113,49.6225127 C-1.73780282,49.2418004 -2.44016901,48.9089566 -3.18866729,48.680687 L-3.59757575,48.560074 C-3.83709207,48.4901155 -4.12301408,48.421045 -4.31526761,48.4898865 C-4.68123762,48.6166967 -4.56443587,48.8125861 -4.45120832,49.1545577 L-4.43991549,49.1892446 C-3.55047887,51.9412368 -1.01526761,54.2447436 1.33402817,55.7685793 C1.87276056,56.1194207 2.42416901,56.4408845 2.98614085,56.7388885 C6.79011761,58.7672338 11.0464654,59.7112605 15.2268675,60.8318906 C16.8382563,61.2818746 17.9108521,61.5914067 18.4446549,61.7604869 C19.3362042,61.6863029 20.3524014,62.0014262 21.0242324,62.3776297 C21.6770493,62.7430544 22.2031056,63.2335984 22.6002887,63.8105847 C22.6002887,63.8105847 22.9826831,64.1297237 23.0524014,64.6242834 C23.2531056,65.0829135 23.3883169,65.5772618 23.4559225,66.0931679 C23.4939507,66.3953988 23.4178944,66.6276728 23.2742324,66.792526 C23.7063501,73.427398 21.9149056,80.0249209 19.8952164,86.3304343 L19.6950951,86.9522002 L19.5664859,87.3463421 C17.3883169,94.0313941 14.8890211,100.668005 13.7735282,107.638126 C13.0277535,112.294173 13.050993,117.11296 13.5981761,121.790142 L13.6367545,122.112729 C14.1758912,126.534937 15.2132163,131.495709 18.0242324,135.054697 C19.4580226,136.870989 21.1567395,137.678127 23.3285396,138.26301 L23.4474718,138.294697 C25.4122606,138.812294 27.4404296,139.545891 29.4664859,139.767809 C31.3467676,139.972607 32.9228239,139.273249 34.6150775,138.617852 L34.6171479,138.615908 C38.1812535,135.460427 39.7995634,130.865671 40.995338,126.228434 C44.0946338,114.228176 43.7101268,101.77119 41.9523803,89.5952994 C41.0354789,83.2336556 39.789,76.9269628 38.5467465,70.6223836 C37.9256197,67.4711507 37.2559014,64.3262583 36.7002676,61.1644579 L36.3702693,59.3036177 C36.1881747,58.2698175 36.0120634,57.2351918 35.8615352,56.1956125 C35.6587183,54.7985871 35.5974507,53.4248102 35.5277324,52.0193307 C33.8206901,49.1893292 31.3425211,46.8581354 28.4713944,45.1863546 C26.4157606,43.9879984 24.2397042,43.1573918 21.9939296,42.5550434 C15.5734859,40.8240845 8.57419014,40.9466677 2.11362676,39.6151609 C-0.0567345377,39.1683847 -2.11691718,38.5050325 -4.17600729,37.7101876 L-4.45679577,37.6009926 C-5.40116197,37.2332431 -6.36454225,37.0282333 -6.83355634,38.1420493 C-7.16735915,38.9346129 -6.96876761,39.7588791 -6.46806338,40.4246325 C-5.24059859,42.0562568 -2.77299296,42.8128908 -0.915950704,43.4004446 C0.20165493,43.7555131 1.3425,44.036609 2.49602113,44.2458458 C3.64954225,44.4550826 4.80728873,44.5079202 5.91433099,44.9158262 C6.34109155,45.0722254 6.42559859,45.7506599 5.91433099,45.8709182 C4.51151408,46.1987225 3.10024648,45.9176266 1.70588028,45.6449847 C0.174190141,45.3425425 -1.33426056,44.9137127 -2.80045775,44.3705425 C-3.07088028,44.2707851 -3.35076761,44.1656172 -3.63579296,44.0538484 L-3.85045775,43.9688924 C-3.62862676,44.1297299 -3.40679577,44.2882427 -3.18285211,44.4467554 C-3.12369718,44.4888141 -3.15961268,44.6008297 -3.23778169,44.5733542 C-6.68525341,43.2867506 -9.82204081,40.9652861 -12.2520817,38.2185718 L-12.372993,38.0808845 C-13.2286268,37.1000078 -15.1786268,34.1326497 -16.8222887,34.9590294 C-18.3657254,35.7340932 -15.7347034,38.7218626 -14.7348355,39.9433943 L-14.6187254,40.0865566 C-13.4821056,40.1161456 -12.3814014,40.8239577 -11.4602746,41.3946035 C-9.86097887,42.3860477 -8.18985211,43.2399029 -6.48703521,44.0385957 C-3.10252817,45.6300634 0.491133803,46.7525448 3.83972535,48.4241143 C3.88409155,48.4475742 3.85028873,48.5044274 3.80803521,48.4982982 C1.67634507,48.1578129 -0.432105634,47.6146427 -2.49196479,46.9406466 L-2.5838662,46.9118237 L-2.67576761,46.8812571 C-3.96238732,46.4585566 -5.23210563,45.9811162 -6.48069718,45.4715507 C-7.86872535,44.9053432 -9.22506338,44.2691789 -10.5412606,43.5484744 C-11.7328099,42.8975155 -13.0553451,41.7245213 -14.4370352,41.5512141 C-14.5849225,41.5321926 -14.7159085,41.5298677 -14.829993,41.5406466 C-16.4165915,41.6736916 -15.1046197,44.3028892 -14.6609577,45.0891123 C-13.9363099,46.3804626 -13.061662,47.5724783 -12.0581408,48.6609323 C-10.0236338,50.8716564 -7.55814085,52.6237503 -4.88983099,53.9869597 C-3.97926761,54.4519303 -3.04757746,54.8619499 -2.10109859,55.2381534 Z" id="ðŸ–-Ink" fill="#000000"></path>
                    </g>
                    <g id="head/Flat-Top-Long" transform="translate(78.591549, 38.043053)">
                        <path d="M51.1354565,15.9061419 C63.1313673,15.9061419 80.6897479,23.9197818 82.0101761,31.6297127 C83.5662661,40.7156644 87.0224189,74.8811768 85.1408216,86.0614272 C83.2592243,97.2416776 75.922239,105.502635 59.6972051,105.502635 C43.4721713,105.502635 31.3619694,96.6510448 28.581369,93.6117924 C26.7276354,91.5856241 24.6776677,87.4199458 22.4314658,81.1147575 C16.5092607,80.1104977 13.5344303,77.2469675 13.5069746,72.5241669 C13.479519,67.8013662 14.9670446,64.7102074 17.9695515,63.2506904 C16.3491133,43.6586985 17.2418356,31.4364602 20.6477187,26.5839757 C25.7565432,19.305249 39.1395457,15.9061419 51.1354565,15.9061419 Z" id="ðŸŽ¨-Background" fill="#FFFFFF"></path>
                        <path d="M47.6707394,-0.630584736 C49.876162,-0.594655186 52.0989085,-0.512228571 54.3127817,-0.330467319 C54.4165141,-0.341034834 54.5221479,-0.349488845 54.625669,-0.36005636 C58.7918662,-0.759719765 62.9517254,-0.400424266 67.1158099,-0.224792172 C71.0832042,-0.0578254403 75.2726408,0.352194129 78.8348239,2.25202192 C79.2928521,2.49592016 79.6809507,2.77321174 80.012007,3.08220587 C80.476162,3.14751311 80.9187676,3.27918434 81.3165845,3.5004681 C82.4633451,3.26861683 83.7436268,3.78262074 84.0148944,5.11391624 C84.4099648,7.06467945 84.5599648,9.03213933 84.3233451,11.0105894 C84.3172183,11.0568751 84.3127817,11.1056971 84.3064437,11.1564211 C84.7853873,12.9917871 84.7534859,14.9962333 84.3554577,16.8064485 C84.5232042,19.0936814 84.6189085,21.3874661 84.6322183,23.6774466 C84.6415141,25.261517 84.7120775,26.8743311 84.5648239,28.4537519 C84.4351056,29.8423233 83.863838,30.9411335 82.9648944,31.9957714 C82.7954577,32.1944407 82.5091901,32.2274114 82.2710915,32.1792235 C82.2094014,32.1667538 82.1557394,32.1498458 82.1071479,32.1297675 C82.6490493,33.2919828 83.0775,34.5250004 83.5165141,35.7026442 C84.2136972,37.5752078 84.8897535,39.479474 85.3691197,41.4196697 C86.341162,45.3315523 86.9810915,49.3178301 87.3531338,53.3313722 C88.0099648,60.4728986 88.2571479,67.6757166 88.3841197,74.8447186 C88.5066549,81.637517 87.9087676,88.7219789 84.0402465,94.5298849 C80.6580634,99.610746 75.5073592,103.298809 69.7712324,105.289728 C66.5071479,106.424679 62.8925704,106.845267 59.4446831,106.948828 C57.6636972,107.001666 55.8784859,106.92558 54.1080634,106.741705 C52.3904577,106.562057 50.6136972,106.581079 49.3585563,105.279161 C49.0141901,104.921979 49.0186268,104.188593 49.5277817,103.956108 C50.4975,103.514386 51.154331,103.467889 52.2172183,103.613721 C53.097993,103.733979 53.9813028,103.829298 54.8684155,103.890589 C56.7698239,104.02374 58.6841197,104.027967 60.5855282,103.882135 C64.0798944,103.613721 67.6545423,102.626503 70.8275704,101.130355 C75.8029225,98.7801393 80.0770775,94.9291256 82.3841197,89.8759515 C85.0651056,84.0109808 84.8918662,77.2160689 84.7672183,70.9136031 C84.6296831,64.0024485 84.3742606,57.112429 83.7742606,50.2245229 C83.4827113,46.8851883 83.0327113,43.5691022 82.6270775,40.244562 C82.4134859,38.4776736 82.1327113,36.7190278 81.7881338,34.9734857 C81.6066549,34.0496736 81.3700352,33.1389652 81.175669,32.2217049 C81.0341197,32.2447421 80.8902465,32.2576344 80.7425704,32.2637636 C79.8592606,32.293564 78.8939789,32.0779867 78.238838,31.4502763 C77.9876408,31.6214701 77.6684155,31.7292587 77.2841197,31.7482802 C73.6524296,31.9277166 69.9636972,31.7060102 66.325669,31.7038967 C62.6749648,31.7017832 59.0221479,31.7038967 55.3691197,31.7144642 C51.7207394,31.7248204 48.0615845,31.7588477 44.4151056,31.6616266 C41.0200352,31.570746 37.510669,31.6447186 34.1601761,31.0233487 C33.0341197,35.0263233 33.0740493,39.4245229 35.4214437,43.0005699 C36.0846127,44.0087108 35.5458803,45.1964994 34.682007,45.8263233 C33.7986972,46.4690395 32.2110211,47.4545659 30.8525704,47.5558027 C30.7209507,47.8514818 30.5857394,48.1456814 30.4572887,48.4390356 C29.8089085,49.9170082 29.2247535,51.4042802 28.8159507,52.9691178 C28.6053169,53.7756305 28.4240493,54.5954583 28.2715141,55.4203585 C28.2839789,55.5647108 28.2968662,55.7088517 28.3122887,55.8527812 C28.3122887,55.8675757 28.3144014,55.8821589 28.3165141,55.8990669 C28.3249648,55.9584564 28.3355282,56.0260885 28.3418662,56.0641315 C28.4200352,56.4783781 28.4958803,56.8926247 28.5784859,57.3047577 C28.7749648,58.3086716 28.9268662,59.3210395 29.0348239,60.3374231 C29.2313028,62.197517 29.2122887,64.6153644 27.3996127,65.7164994 C26.4298944,66.3061667 25.2679225,66.2448751 24.2430634,65.8494387 C23.5545423,65.5833487 22.969331,65.2071452 22.3355282,64.8372822 C21.9594718,64.6172665 21.5663028,64.4378301 21.1986972,64.2095718 C21.0975,64.1461667 21.0003169,64.0700806 20.9094718,63.9897675 C20.2228521,64.1355992 19.5529225,64.4082411 19.1770775,64.5942294 C18.1691197,65.0951295 17.2841197,65.8200611 16.5317958,66.6527812 C14.9327113,68.4260102 14.4531338,70.9241706 14.6770775,73.2426834 C14.8860211,75.4005699 15.7334155,77.8794975 17.4381338,79.3147773 C18.1796831,79.9401628 19.1052465,80.3060102 20.0834155,80.2954427 C20.5648944,80.2912157 21.0087676,80.1897675 21.4735563,80.0671843 C21.932007,79.9467147 22.4982042,79.9826442 22.9207394,79.813564 C23.547993,79.5620571 24.3214437,80.3292587 24.0658099,80.9590826 C23.8733451,81.4325072 23.7636972,81.8509808 23.5226408,82.2208438 C25.2721479,85.0782998 27.1883451,87.8469886 29.2268662,90.5036618 C31.0648944,92.8961472 33.2284859,94.908202 35.2733451,97.0999045 C36.175669,98.0678888 36.5517254,99.9742685 34.9186268,100.388304 C33.2897535,100.804875 32.0728521,99.0548947 31.1367254,97.9918027 C27.2601761,93.5809221 24.3298944,88.5167577 22.9585563,82.7999436 C22.3397535,83.2395523 21.6296831,83.4783781 20.8817958,83.5819397 C19.3923592,83.7869495 17.8862324,83.4931726 16.5805986,82.7386521 C11.6367254,79.8833096 10.4409507,72.1669104 12.7564437,67.3312157 C13.3148239,66.1668869 14.1396127,65.1274661 15.1450352,64.3203194 C15.0658099,64.1687812 15.0345423,63.991247 15.0854577,63.8003977 C15.1748239,63.4662528 15.2730634,63.1361237 15.376162,62.8072626 C15.2635563,62.7571726 15.181162,62.653611 15.1967958,62.4997479 C15.2897535,61.5486716 15.3803873,60.5975953 15.4714437,59.646519 C15.4395423,58.209337 15.3698239,56.7742685 15.3867254,55.3286325 C15.4122887,53.0249143 15.5517254,50.7233096 15.5601761,48.4195914 C15.5876408,40.3840532 15.9148944,32.3569691 15.9383451,24.3214309 C15.9508099,20.3922176 15.9592606,16.4570865 15.8557394,12.530198 C15.8536268,12.4773605 15.8536268,12.4266364 15.8517254,12.3737988 C15.767007,9.23101996 14.9348239,5.02514912 18.0066549,2.99174795 C18.5115845,2.65802583 19.141162,2.65379883 19.6904577,2.86937613 C21.2707394,1.7682411 23.2524296,1.23754051 25.1475,0.931082583 C28.7580634,0.347967123 32.4003169,0.0666598826 36.0362324,-0.303203131 C37.9332042,-0.495531898 39.9296831,-0.569293151 41.8395423,-0.527023092 C43.7707394,-0.484753033 45.7270775,-0.660173777 47.6707394,-0.630584736 Z M18.3868732,69.7025448 C19.077507,69.0452454 20.1087042,69.1972063 20.9558873,69.3538168 C22.1347606,69.5715076 23.279831,70.0872023 24.2727887,70.7487288 C25.3418028,71.4609793 26.6622254,72.4479851 26.873493,73.7985135 C27.0657465,75.0391397 25.8319437,76.4065761 24.5622254,75.5759695 C23.3854648,74.8045409 22.8129296,73.3906074 21.8009577,72.4226231 C21.3042676,71.9491984 20.7676479,71.5328384 20.1995493,71.1521965 C19.9418028,70.9791006 19.6882817,70.7867718 19.4072958,70.6536211 C19.379831,70.6407288 18.2220845,70.2647366 18.4460282,70.7614098 C18.5220845,70.926263 18.323493,71.1101378 18.1819437,70.9643061 C17.7805352,70.5564 18.0044789,70.0660673 18.3868732,69.7025448 Z" id="ðŸ–-Ink" fill="#000000"></path>
                    </g>
                    <g id="face/Cheeky" transform="translate(112.183099, 77.354207)" fill="#000000">
                        <path d="M35.2698169,46.7828102 C35.5939014,46.2191389 36.3400986,45.6968924 37.0229155,45.7769941 C40.0818592,46.1358669 40.0765775,49.84591 38.8953803,52.0118278 C37.8481268,53.9323679 35.6807324,55.0597104 33.5114366,54.8950685 C31.232493,54.7219726 29.2907324,53.381589 28.4361549,51.2488532 C27.8710141,49.83809 27.6098873,47.2336204 29.1132676,46.2857143 C29.1411549,46.2679609 29.1872113,46.2723992 29.2093944,46.2979726 C29.9302394,47.1368219 29.9585493,48.3962583 30.5896056,49.3302153 C31.176507,50.198865 32.088338,50.9161879 33.156507,51.0269354 C33.9542535,51.1097847 34.7612958,50.8219256 35.073338,50.1054481 C35.2421601,49.7179086 35.2229364,49.507484 35.1594752,49.2407523 L35.101809,49.0089745 C34.9020002,48.1970744 34.8122656,47.5789063 35.2698169,46.7828102 Z M36.0875289,30.5120405 C37.6828906,31.482148 40.1137318,33.7442494 38.3974899,36.149264 C36.3773089,38.2698449 33.4687045,35.8384541 32.0353946,34.7388307 C30.7063626,33.8866164 29.2131206,36.0784478 30.4461973,37.0735516 C40.8033244,44.7445605 45.006466,30.7657101 36.8944406,29.3714319 C36.0012775,29.2177885 35.6695544,30.2119271 36.0875289,30.5120405 Z M19.2404577,23.8598841 C20.2196831,22.3901542 22.4548944,22.6065769 22.9942606,24.3506395 C23.2864437,25.2953753 22.8829225,26.1445808 22.903838,27.0880485 C22.9213732,27.8850505 22.8691901,28.7731444 22.6249648,29.5449957 C22.0680634,31.3051209 20.485669,32.5482834 18.6136268,32.4967139 C16.7477113,32.4453558 15.1042606,31.2639076 14.3227817,29.5999468 C13.5385563,27.9296454 13.7046127,26.2010114 14.2771479,24.5026004 C14.3046127,24.4210192 14.4115141,24.3814967 14.4759507,24.4501855 C15.1527113,25.1696571 15.6481338,25.9291973 16.1607707,26.7349213 L16.6861127,27.560668 C17.0875913,28.1824667 17.6710782,28.9767892 18.4207313,28.9268958 L18.533218,28.9157946 C18.7415462,28.8979061 18.7096235,28.9392658 18.8703169,28.655211 C18.9446831,28.5237511 18.931162,28.2794301 18.9670775,28.124299 L18.9795423,28.0718841 L18.9795423,28.0718841 L18.9727475,28.0436436 C18.9568908,27.9685134 18.9411521,27.8269419 18.9283633,27.5812734 L18.925669,27.5270231 C18.8713732,26.3779115 18.5466549,24.901207 19.2404577,23.8598841 Z M44.0626479,24.8383303 C43.8870845,22.9585808 46.5287746,22.541164 47.4070141,23.9320603 C47.8650641,24.6573926 47.9984252,25.568536 48.0997246,26.4317847 L48.1470845,26.8415084 C48.2510282,27.7281229 48.2922254,28.6504556 47.907507,29.4774693 C47.3015915,30.7800211 45.9839155,31.4686004 44.562507,31.3595436 C43.2051127,31.2551366 41.966662,30.4678568 41.3138451,29.2726708 C40.7318028,28.2061973 40.1531408,26.1239742 40.8600423,25.0116376 C40.9027183,24.9442168 40.9880704,24.9355515 41.0465915,24.9875436 C41.7146197,25.5808039 41.8234225,26.6629174 42.2206056,27.4358254 C42.6302535,28.2330387 43.2515915,29.0099624 44.1932113,29.1310661 C45.0940563,29.2468861 45.4382113,28.7546513 45.2083521,27.8955123 C44.9119437,26.786346 44.1741972,26.0318254 44.0626479,24.8383303 Z M19.953993,12.6843781 L20.3859989,12.5188511 C21.8661808,11.9594828 23.8983314,11.3129177 25.1017394,12.5169886 C25.8441338,13.2594622 25.9854718,14.3532 25.4556127,15.2592587 C24.8135704,16.3568008 23.6619507,16.3838536 22.549838,16.5455366 C21.2849789,16.7294114 19.9985704,17.0789847 18.8209648,17.5773487 C17.4944155,18.1389065 16.2633592,18.8388986 15.0572324,19.6206834 C13.9108944,20.3635796 12.7685704,21.5777871 11.3963873,21.8066795 C11.3404014,21.8159789 11.2768099,21.7918849 11.2622324,21.730382 C10.9506127,20.3883076 11.8165986,19.0675796 12.5894155,18.0205503 C13.5244859,16.7528712 14.6575141,15.7123937 15.9238521,14.7794935 C17.1460352,13.8789299 18.5425141,13.2281824 19.953993,12.6843781 Z M46.8414507,17.4559491 L46.9734003,17.4328177 C47.8709905,17.2833331 48.6843773,17.3177555 49.3608169,18.0289198 C49.8771549,18.571456 50.076169,19.2746184 49.8300423,19.9919413 C49.6029296,20.6536791 49.0950423,21.3259843 48.3579296,21.4646301 C45.8694085,21.9329824 43.113,21.8556282 40.6120141,21.5009824 C39.4677606,21.3386372 38.3132009,21.1400224 37.1986633,20.826781 L36.6858923,20.6780715 C35.7554275,20.4121878 34.6902023,20.1344106 34.014338,19.4498278 C33.7713803,19.203816 33.9114507,18.8517065 34.2021549,18.7377886 C35.3814507,18.2757769 36.9978592,18.5215773 38.2553239,18.4854364 C39.7181408,18.443589 41.1832817,18.3338982 42.6391268,18.1827828 C44.0618028,18.0348376 45.4384225,17.7133738 46.8414507,17.4559491 Z" id="ðŸ–-Ink"></path>
                    </g>
                    <g id="facial-hair/Moustache-4" transform="translate(104.577451, 109.479380)" fill="#000000">
                        <path d="M64.4933662,2.7485683 C63.7932254,1.80827084 62.5347042,0.574196477 61.2616056,0.64056047 C61.0987183,0.649014481 61.037662,0.825491977 61.1354789,0.944904892 C61.5518873,1.45362505 62.120831,1.81545675 62.5380845,2.33474442 C63.0318169,2.94935108 63.3882254,3.69055656 63.6199859,4.44021605 C63.9567465,5.52930411 64.0497042,6.76189902 63.749493,7.86937456 C63.2204789,9.82140587 61.5478732,11.2522474 59.7229437,11.9828853 C57.9166056,12.706126 55.7430845,12.9531945 54.0347746,11.8934841 C51.5132958,10.3290693 49.3746338,8.07396164 46.2054085,8.02936673 C45.4640704,8.01901057 44.9416056,8.35865049 44.6304085,8.84348806 C44.3177324,8.37598121 43.8018169,8.045218 43.0790704,8.03697534 C39.5261831,7.99703014 36.8743521,10.4438325 33.8923099,11.9691476 C31.8770282,13.0001143 29.2693521,12.6801299 27.1902676,11.9989479 C25.2290704,11.3566544 23.1001268,10.0667836 22.3602676,8.03000078 C21.9518873,6.90519452 22.0433662,5.5918638 22.4627324,4.48312016 C22.7384366,3.75396164 23.1641408,3.04953112 23.690831,2.47656047 C24.2369577,1.88224344 24.9548451,1.50857613 25.5142817,0.945116243 C25.6285775,0.829930333 25.5383662,0.650916634 25.3881549,0.64056047 C23.0122394,0.479300196 20.8668169,3.31731194 20.4182958,5.3762865 C19.9765352,7.40398121 20.6352676,9.42639217 21.9685775,10.9736877 C24.6797746,14.1194254 29.6999155,15.156944 33.6070986,14.2324978 C36.7695634,13.4845292 39.7731549,11.7616016 43.0790704,12.0088814 C43.8037183,12.0631984 44.3238592,11.7609675 44.6378028,11.3027601 C44.952169,11.7742826 45.4756901,12.0826427 46.2054085,12.0120517 C49.2865352,11.7134137 52.0366056,13.8962395 55.0273099,14.429265 C57.408507,14.853445 59.9806901,14.2813198 62.0211127,12.9980008 C64.1538592,11.6565605 65.6551268,9.50480313 65.754,6.93943327 C65.810831,5.46357417 65.3779437,3.9365683 64.4933662,2.7485683" id="ðŸ–-Ink"></path>
                    </g>
                    <g id="accessories/Glasses-5" transform="translate(88.521127, 88.978474)" fill="#000000">
                        <path d="M74.5743803,22.486699 C71.4036761,24.0143389 66.9801549,21.7611335 64.8482535,19.4009847 C64.0722676,18.5416344 63.4735352,16.0829965 63.7720563,14.523654 C64.5805775,10.3006638 67.6186056,7.76615108 70.8258592,6.90067162 C75.2717746,5.70062466 79.746,8.74068728 79.2243803,12.3281472 C78.7298028,15.7281393 77.9804366,20.6599984 74.5743803,22.486699 M52.9931831,14.3746521 C52.7390282,18.9768047 49.0445915,23.0049299 44.6290986,24.198425 C37.5148732,26.1842724 33.9989577,21.1813996 32.4064225,15.7917558 C32.2481831,15.2561941 31.8761408,13.621611 32.8743803,12.2195131 C36.8003662,6.7043272 46.3524085,7.64441331 51.1232535,9.15852681 C52.5197324,10.494472 53.0905775,12.4226207 52.9931831,14.3746521 M78.0193099,6.43696908 C78.0171972,6.43971663 78.014662,6.44204149 78.0125493,6.44478904 C77.9962817,6.43485558 77.9802254,6.42471076 77.9635352,6.41498865 C77.9819155,6.42259726 78.0013521,6.42914912 78.0193099,6.43696908 M83.9715634,6.96893777 C83.5583239,2.28330176 68.8619155,4.0774544 67.1436761,4.46147789 C62.4543803,5.8411726 58.404169,9.59475382 53.1613521,7.94474207 C47.7290282,1.88680861 29.4355775,3.62410802 25.6006479,6.71003366 C24.8747324,6.42513346 23.9920563,6.57793973 23.0567746,6.8467773 C18.2538169,6.67325871 -3.67238028,8.32961096 0.812408451,14.4619397 C1.49311268,14.9343076 2.1731831,14.4536971 2.19198592,13.4806403 C25.571493,5.03783014 23.3052254,12.9459241 26.0779014,12.0223233 C26.5012817,12.1442724 26.9430423,12.2214153 27.3294507,12.3025738 C29.475507,12.9932665 30.204169,12.7798027 30.4868451,15.1898301 C32.4290282,33.7994348 57.2012113,27.3764994 55.1694507,12.1119358 C57.1811408,12.0011883 58.9407887,11.1310591 61.0680423,11.9806873 C62.5450141,26.3603272 74.1121268,26.9406951 77.5931831,21.9559984 C80.2181831,18.4961941 79.1772676,13.2749965 82.785507,10.5532274 C84.2098732,11.7456658 84.3015634,7.72113346 83.9715634,6.96893777" id="ðŸ–-Ink"></path>
                    </g>
                </g>
            </g>
        </g>
    </g>
</svg>