<?xml version="1.0" encoding="UTF-8"?>
<svg width="240px" height="324px" viewBox="0 0 240 324" version="1.1" xmlns="http://www.w3.org/2000/svg" xmlns:xlink="http://www.w3.org/1999/xlink">
    <!-- Generator: Sketch 62 (91390) - https://sketch.com -->
    <title>peep-42</title>
    <desc>Created with Sketch.</desc>
    <g id="Introduction" stroke="none" stroke-width="1" fill="none" fill-rule="evenodd">
        <g id="variations" transform="translate(-1326.000000, -2054.000000)">
            <g id="images" transform="translate(126.000000, 110.000000)">
                <g id="a-person/bust" transform="translate(1200.000000, 1944.000000)">
                    <g id="body/Fur-Jacket" transform="translate(31.056338, 135.052838)">
                        <path d="M18.1058873,150.310469 C19.2199014,152.003596 21.411169,151.743213 22.3519437,150.431784 C33.0644789,152.928676 44.0468028,151.944629 54.9082817,151.332559 C85.5152535,150.086649 116.294831,153.99198 146.778,149.906578 C150.011662,149.259635 153.775394,149.568841 156.42131,147.325146 C160.653211,142.364121 159.741803,134.831807 159.067648,128.789303 C153.664056,94.7272438 145.98173,60.3528348 142.149547,26.0718172 C141.935533,22.8064552 143.280676,18.7491382 144.486592,15.6794865 C144.784479,15.108418 146.667085,14.5487624 147.643986,13.8899836 C150.642085,11.7371695 150.155958,7.87918121 147.556944,5.61540822 C139.141944,-0.318462622 127.427593,1.75503608 118.500908,3.94430372 C116.790197,-2.48346428 114.867218,-6.71098957 111.610028,-7.12964853 C105.410465,-7.92650193 90.3717939,-10.3615595 85.7394358,-7.12964853 C83.5233246,-5.58350854 82.1008944,-0.135500637 80.5056761,2.51849237 C68.8718028,2.31179178 45.2599014,-13.2592297 40.4056056,4.27502466 C36.461662,4.54745519 32.5553239,7.99204227 33.3097606,12.1256313 C28.1947606,16.6472595 32.2291268,23.4271656 32.1583521,29.0552125 C31.4858873,40.9962928 25.0270141,51.6754004 22.3399014,63.2104767 C16.1977183,85.582962 9.24574648,126.27825 16.8638451,148.116019 C16.6999014,148.030422 16.3418028,148.159346 16.5737746,148.340895 C17.4363803,148.584371 17.5485634,149.671346 18.1058873,150.310469 Z" id="ðŸŽ¨-Background" fill="#FFFFFF"></path>
                        <path d="M151.859852,144.620961 C150.431049,133.145908 149.437458,119.293376 149.426049,107.722582 C149.424993,106.632859 151.115134,106.634762 151.11619,107.722582 C151.127599,119.293376 152.12119,133.145908 153.549993,144.620961 C153.684359,145.699693 151.992528,145.686378 151.859852,144.620961 M141.275345,73.4709417 C139.067599,74.8216814 136.168373,73.8847656 133.983444,72.9903311 C132.988585,72.5830591 133.426754,70.9480532 134.432599,71.359975 C136.095486,72.0407342 138.525908,73.0429573 140.280908,72.0935718 C142.032528,71.1458771 142.111542,68.5390826 142.124641,66.8189025 C142.13288,65.7296031 143.82281,65.7304485 143.81481,66.8189025 C143.797035,69.1591843 143.484148,72.1191452 141.275345,73.4709417 M137.188796,125.982613 C134.961401,124.840476 133.060838,123.27902 131.531261,121.296977 C130.866401,120.435302 132.335345,119.594339 132.990697,120.443544 C134.336894,122.18803 136.090838,123.522284 138.041894,124.522816 C139.01119,125.019912 138.154923,126.478229 137.188796,125.982613 M126.482599,66.9731883 C122.660768,82.2941824 120.095979,97.8895092 118.838937,113.630879 C118.583303,116.826495 118.403725,120.017885 118.302317,123.211388 C118.200908,124.044108 118.103725,124.878942 118.01288,125.713775 C117.668514,128.871137 117.40443,132.079646 117.427669,135.258355 C117.438232,136.684969 117.482599,138.105243 117.579782,139.527419 C117.410768,139.051881 117.25443,138.574441 117.102317,138.098903 C116.791754,137.124578 116.586824,136.114323 116.269923,135.146339 C116.007951,134.345321 115.669923,133.57812 115.355134,132.802464 L115.355134,132.800351 C115.450204,129.623756 115.234711,126.417572 115.124852,123.255771 C114.983303,119.159803 114.807951,115.068061 114.717106,110.969979 C114.535415,102.773814 114.626261,94.5713096 114.922035,86.3795836 C115.515697,69.8729143 117.015697,53.4448673 118.528373,37.0058301 C118.948796,32.4343233 119.400908,27.8649299 119.713585,23.2847577 C120.028373,18.6563977 120.155134,14.0193722 120.191049,9.37833112 C120.193162,9.0441863 119.68612,8.95563053 119.593162,9.27878513 C119.510768,8.1776501 119.364993,7.07862857 119.122035,6.01553659 C122.766401,8.34038982 126.609359,10.3503311 130.376261,12.4638341 C132.360063,13.5776501 134.335415,14.7104877 136.380486,15.7080611 C137.50443,16.2573605 138.638937,16.762699 139.796683,17.2403507 C140.996683,17.7349104 142.143866,18.4154583 143.464289,18.070746 C143.578373,18.0413683 143.68612,17.9990982 143.789641,17.9441472 C143.639641,18.2292587 143.489641,18.5126795 143.345979,18.8003272 C142.847387,19.7913487 142.372035,20.7868086 141.911472,21.7907225 C141.788937,21.8816031 141.68119,22.0065112 141.596683,22.1690395 C141.372739,22.6065346 141.155134,23.0482568 140.943866,23.496108 C140.901613,23.4561628 140.859359,23.4160063 140.817106,23.3758497 C140.639641,23.208883 140.39457,23.4601785 140.550908,23.6421511 C140.622739,23.7243663 140.692458,23.8048908 140.762176,23.8873174 C139.384711,26.852562 138.264993,29.9699789 137.111472,33.0136344 C135.693866,36.7543233 134.350204,40.522699 133.084711,44.3164368 C130.589641,51.7792157 128.388232,59.3392157 126.482599,66.9731883 M71.8424577,122.574167 C64.7985845,126.347826 58.216331,130.857619 51.8854859,135.721846 C51.0224577,136.384852 50.1816127,134.915333 51.0323873,134.261838 C57.3632324,129.397822 63.9456972,124.887818 70.9895704,121.113948 C71.9491479,120.600155 72.8018239,122.060163 71.8424577,122.574167 M48.0516127,78.377016 C47.6854859,78.3497519 47.3297113,78.1373448 47.2367535,77.7564916 C46.6661197,75.41938 46.2192887,72.8734544 46.749993,70.4896344 C46.9866127,69.4263311 48.6156972,69.8788321 48.3797113,70.9389652 C47.9611901,72.8187147 48.2937254,74.8506364 48.7283028,76.7251022 C54.8717535,76.9941511 60.9328099,74.7887108 66.8104859,73.3077793 C67.8674577,73.0414779 68.3138662,74.6726795 67.2598521,74.9381354 C61.0249225,76.5088908 54.5757676,78.8601628 48.0516127,78.377016 M170.35443,140.717533 C170.360768,140.702738 170.367106,140.68583 170.371331,140.671036 C170.732599,139.576241 170.741049,138.303912 170.78119,137.156492 C170.850908,135.114636 170.776965,133.068766 170.593162,131.033462 C170.20443,126.749392 169.36781,122.535067 168.368514,118.35646 C166.388937,110.080194 163.591754,102.027748 162.072739,93.6392548 C159.091754,77.1729534 159.7995,60.0282176 153.9495,44.1454544 C151.51781,37.5426599 148.04457,31.1958106 143.324852,25.9500963 C143.669218,24.9017988 144.005134,23.8513879 144.332599,22.7967499 C144.905134,20.9622294 145.490345,19.0685307 145.843162,17.1790591 C145.851613,17.128335 145.862176,17.0754975 145.868514,17.0226599 C147.877669,16.1561237 149.705134,14.5223859 150.01781,12.3497049 C150.153021,11.4113096 149.996683,10.3714661 149.591049,9.46477339 C150.419218,8.69968532 150.951613,7.70633894 150.824852,6.37483209 C150.588232,3.86821761 147.662176,3.22338787 145.625556,2.73326654 C143.310063,2.17741526 140.907951,2.02312955 138.539641,2.28520391 C137.343866,2.4162411 136.160768,2.6360454 135.005134,2.96575186 C134.001613,3.25107476 132.909359,3.54485166 132.10443,4.23385362 C132.009359,4.31416673 132.087528,4.47056595 132.201613,4.47056595 C133.830486,4.46443679 135.453021,3.86610411 137.098796,3.78769315 C138.822739,3.70759139 140.542458,3.84919609 142.232599,4.20426458 C143.884711,4.55087906 145.532599,5.05811977 147.034711,5.84222935 C147.457246,6.06414716 148.076261,6.21420587 147.579782,6.66226849 C147.216401,6.98986145 146.502317,7.01754834 146.035415,7.06594755 C145.002317,7.1737362 144.110768,7.77819804 143.979782,8.88144658 C143.863585,9.85577143 144.44457,10.95902 145.479782,11.1788243 C145.536824,11.1917166 145.589641,11.2062998 145.63612,11.2253213 C145.663585,11.2781589 145.705838,11.3225425 145.701613,11.2506834 C145.701613,11.2506834 145.703725,11.2485699 145.703725,11.2506834 C145.729077,11.4049691 145.737528,11.4660493 145.737528,11.4768282 C145.73119,11.4641472 145.720627,11.4113096 145.712176,11.3690395 C145.718514,11.4070826 145.73119,11.4683742 145.748092,11.5592548 C145.724852,11.4599202 145.743866,11.7031843 145.724852,11.741016 C145.175556,12.7554975 143.550908,13.0410317 142.60443,13.4783155 C142.420627,13.5626442 142.262176,13.6621902 142.126965,13.7739945 C141.903021,13.6960063 141.674852,13.6178067 141.44457,13.531153 C140.310063,13.1063389 139.177669,12.6942059 138.028373,12.3114505 C135.810063,11.5698223 133.564289,10.9082959 131.345979,10.1643429 C127.145979,8.7567499 123.085415,6.97929393 118.963585,5.3688047 C118.832599,4.88269902 118.680486,4.40716086 118.500908,3.94430372 C118.464993,3.84729393 118.291754,3.81538004 118.272739,3.94430372 C118.209359,4.35432329 118.158655,4.76645636 118.116401,5.18070294 C118.0995,5.21874599 118.095275,5.26101605 118.103725,5.3011726 C117.864993,7.71056595 117.928373,10.1770239 117.805838,12.5843037 C117.653725,15.5854779 117.229077,18.565517 117.108655,21.5688047 L117.108655,21.6237558 C116.664993,24.1874348 116.263585,26.7595679 115.900204,29.340155 C115.492458,29.2133448 115.025556,29.2387068 114.548092,29.4944407 C111.172035,31.2972587 107.377669,32.3011726 103.560063,32.5252039 C101.637528,32.6370082 99.734007,32.5740258 97.8220352,32.3518967 C96.564993,32.2081785 95.3269648,31.9461041 94.0868239,31.6967108 C94.7396408,28.9597245 95.4410493,26.2354192 96.2333028,23.5388008 C96.8861197,21.3215249 97.6128803,19.1150278 98.5107676,16.9825033 C99.4171056,14.8288438 100.545275,12.7724055 101.595275,10.6842646 C102.079077,9.71839374 101.508655,8.24105519 100.251613,8.34250333 C99.8797817,8.37209237 99.5079507,8.3953409 99.134007,8.41224892 C95.4959789,8.58576751 91.7121761,8.17997495 88.1206268,7.8183546 C84.0325986,7.40410802 79.8896408,6.97485558 75.8375282,6.30085949 C75.5375282,6.25224892 75.414993,6.66015499 75.7107676,6.75948963 C77.6333028,7.40622153 79.5325986,8.13728219 81.5037254,8.62148571 C83.5318944,9.12238591 85.5727394,9.57890254 87.6304859,9.93608454 C89.6016127,10.2765699 91.5811901,10.5616814 93.5671056,10.8026207 C94.8621761,10.9611335 96.1720352,11.0414466 97.4755563,11.1471217 C95.7199225,13.9538536 94.5093592,17.1196697 93.4551338,20.2370865 C92.1009085,24.2402724 91.105838,28.3594896 90.1318944,32.4702528 C88.0487958,41.2814466 86.3311901,50.1814074 84.9875282,59.1363194 C84.0241479,65.5571413 83.2445704,72.0033252 82.6593592,78.4664172 C82.4861197,76.502973 82.2748521,74.5458693 82.0361197,72.5908791 C81.2375282,66.1001002 80.071331,59.6520141 78.5121761,53.3009378 C78.6516127,53.0557714 78.7171056,52.7619945 78.6706268,52.4766716 C78.3896408,50.7309182 77.6502042,49.2113096 77.0016127,47.5923663 C76.3572465,45.3309182 75.6621761,43.0842646 74.9142887,40.854519 C74.064993,37.8174153 73.1121761,34.8268086 71.893162,31.9059476 C70.9614718,29.680429 69.8987958,27.5117636 68.7156972,25.4090395 C67.3023169,22.4691569 65.7495,19.5928908 64.0445704,16.8430121 C63.955838,16.5872783 63.8121761,16.3484524 63.6072465,16.1476697 C63.2966831,15.657337 62.9818944,15.1733448 62.6607676,14.6935796 C62.4516127,14.3807812 61.8516127,14.5709965 62.0100634,14.968335 C62.084007,15.1545346 62.1579507,15.3403115 62.234007,15.5243977 C55.2896408,13.7868869 48.4804859,16.4435601 41.8656972,18.4048908 C40.1966831,18.901564 38.5107676,19.3496266 36.7995,19.6729926 C35.4537254,19.9266129 33.8861197,20.2351843 32.5445704,19.9559906 C31.6466831,19.7702137 31.2495,19.3623076 31.6868239,18.4027773 C32.1389366,17.4096423 33.3727394,16.7563585 34.4438662,16.3169613 C34.8473873,16.2300963 35.2445704,16.0758106 35.6269648,15.8433252 C36.5185141,15.3022685 36.9093592,14.1736579 36.4889366,13.2120141 C36.1065423,12.3433644 34.9910493,11.5951843 34.0044296,11.9925229 C33.8628803,12.0495875 33.7234437,12.1045386 33.584007,12.1594896 C33.5692183,12.1383546 33.5523169,12.1087656 33.5375282,12.0664955 C33.3959789,11.6797245 33.3347113,12.142793 33.3959789,11.5888438 C33.4973873,10.6842646 34.4544296,9.86211194 35.1093592,9.34430372 C36.7382324,8.05295342 39.0917535,7.0976501 41.1938662,7.58586928 C41.3523169,7.62179883 41.5107676,7.66618239 41.6671056,7.72113346 C43.8325986,8.47142701 44.8868239,5.35189667 43.1565423,4.18947006 C43.0509085,4.11972446 42.9178099,4.03095734 42.7720352,3.92739569 C42.0516127,3.4264955 40.9973873,2.58320783 41.2847113,1.82255812 C41.6396408,0.877610959 43.7333028,0.334440705 44.5255563,0.0131882583 C47.3903451,-1.14923836 50.4854155,-1.80865127 53.5741479,-1.94391546 C56.6818944,-2.07917965 59.8297817,-1.73679217 62.827669,-0.897942857 C64.2980915,-0.487711937 65.8086549,0.135771429 67.1987958,0.765806654 C68.4473873,1.32990059 71.1642887,2.07596712 71.3375282,3.65686732 C71.3755563,4.00580665 71.8720352,4.12395147 71.9797817,3.74352094 C72.8311901,0.708530724 69.5269648,-1.2506865 67.3466831,-2.50399374 C65.9164014,-3.32847123 64.2938662,-3.8418411 62.7241479,-4.3469683 C61.2199225,-4.83307397 59.684007,-5.19025597 58.1164014,-5.40604462 C54.7509085,-5.86657691 51.3452746,-5.80739883 48.0072465,-5.16066693 C44.9671056,-4.57078826 41.5847113,-3.56497221 39.127669,-1.60786849 C37.6192183,-0.407398826 36.9368239,1.50320783 37.543162,3.36731742 C37.5642887,3.428609 37.5854155,3.49201409 37.6065423,3.55330568 C34.8917535,4.03941135 32.3227394,5.59494951 30.6051338,7.76340352 C29.1938662,9.5450865 28.4544296,12.0242254 29.7178099,14.0977832 C29.664993,14.1356149 29.6121761,14.1757714 29.5614718,14.2180415 C28.3572465,15.1817988 27.4614718,16.5811491 27.1952746,18.1111139 C26.6734437,21.1291961 28.4966831,23.2405855 31.0466831,24.0479436 C30.414993,24.6652978 29.8086549,25.3202724 29.214993,25.9754583 C27.8861197,27.4443429 26.6164014,29.0440532 25.4966831,30.6758888 C23.227669,33.9814074 21.2882324,37.5807029 19.5917535,41.207474 C16.1037254,48.6554583 13.9044296,56.671975 12.7382324,64.8005072 C12.1509085,68.8964759 11.7579507,73.0135796 11.6079507,77.1475914 C11.4347113,81.8607029 11.6100634,86.575928 11.5192183,91.291153 C11.4304859,95.8225033 10.9297817,100.243951 9.91780986,104.661384 C8.94809155,108.886065 7.6551338,113.026417 6.48471127,117.196359 C5.16428873,121.892562 3.71076761,126.567631 3.01358451,131.409666 C2.66076761,133.873799 2.40724648,136.344695 2.60372535,138.836515 C2.8023169,141.374832 3.72344366,143.5454 4.57273944,145.906182 C4.78823239,146.508742 5.44527465,146.751584 5.97133099,146.62266 C6.08964085,147.753384 6.51640141,148.856632 7.1523169,149.811936 C8.5023169,151.836672 10.5811901,153.128022 12.9621761,153.59722 C15.6452746,154.123482 18.4107676,153.998785 21.127669,153.901564 C24.0748521,153.795889 27.0241479,153.700781 29.971331,153.578198 C33.0568944,153.450754 36.1422465,153.319717 39.2278099,153.188045 C39.1257676,150.024343 39.0040775,146.861697 38.8665423,143.699474 C38.122669,126.604617 36.9511901,109.499615 36.9201338,92.3823546 C36.8603451,92.3472705 36.8016127,92.3056344 36.7454155,92.2511061 C35.356331,90.907975 33.6509789,90.0257988 32.0487254,88.9745425 C31.1419648,88.3795914 31.9895704,86.916202 32.9018239,87.514746 C34.252669,88.4009378 35.6603451,89.188429 36.9262606,90.181564 C36.9336549,88.3996697 36.9492887,86.6179867 36.9845704,84.835881 C37.0061197,83.7476384 38.6962606,83.7476384 38.6747113,84.835881 C38.5686549,90.2065033 38.6041479,95.5783937 38.7256268,100.948382 C39.1187958,118.350542 40.3547113,135.720366 40.9175282,153.115764 C49.1992183,152.761752 57.481331,152.405204 65.7642887,152.102762 C72.5016127,151.857807 79.2389366,151.61264 85.9762606,151.367474 C87.3896408,151.316961 88.184007,150.306284 88.3572465,148.985345 C88.6741479,146.554816 88.0783732,144.042073 86.7304859,141.998315 C86.5910493,141.786965 86.4262606,141.598863 86.2424577,141.438237 C86.2741479,139.982034 86.3333028,138.523505 86.2509085,137.067513 C86.1283732,134.844108 85.9445704,132.620703 85.784007,130.399411 C85.4586549,125.950488 85.2072465,121.49311 85.1079507,117.033619 C84.9051338,108.114636 85.0530211,99.1872 85.5579507,90.2808986 C86.5699225,72.4873174 88.9255563,54.8078654 92.7811901,37.4031687 C93.0621761,36.1350669 93.3452746,34.8669652 93.6389366,33.6009769 C96.6368239,35.1586286 100.283303,35.7184955 103.560063,35.7398419 C107.667106,35.7652039 111.683303,34.8202568 115.393162,33.1024016 C115.36781,33.294519 115.342458,33.4847342 115.319218,33.677063 C114.284007,41.9197245 113.411472,50.1790826 112.650908,58.4494309 C111.134007,74.9368673 110.20443,91.4919358 110.333303,108.053133 C110.369218,112.64176 110.54457,117.21538 110.762176,121.797454 C110.984007,126.457728 111.324148,131.38219 112.621331,135.877611 C112.764993,136.374073 113.084007,136.659607 113.451613,136.763169 C113.470627,137.418355 113.51288,138.075654 113.559359,138.722386 C113.709359,140.825321 114.138232,145.193932 115.055134,147.1001 C115.948796,148.960194 117.438232,150.435419 119.337528,151.247216 C121.750204,152.27628 124.359359,151.98039 126.907246,151.815537 C137.98612,151.092719 149.056542,150.124734 160.129077,149.275106 C161.671331,149.15675 163.213585,149.040507 164.753725,148.920038 C166.124852,148.814362 167.542458,148.721157 168.759359,148.009118 C170.143162,147.199646 171.222739,143.224147 170.745275,141.579842 C170.658655,141.279724 170.527669,140.983834 170.35443,140.717533" id="ðŸ–-Ink" fill="#000000"></path>
                    </g>
                    <g id="head/No-Hair-3" transform="translate(78.591549, 38.043053)">
                        <path d="M84.264364,40.5969618 C76.8317584,21.0350127 63.4337324,6.71244305 40.8466901,15.7083569 C40.1987324,15.2670575 39.3532394,15.1487014 38.5430282,15.6654528 C26.2390141,23.3943217 17.378662,35.7855781 13.5388732,49.7581573 C11.2020423,50.202627 8.93133803,50.9778599 6.90316901,52.2491319 C2.49528169,55.0121143 -0.47028169,59.4086231 -3.25014085,63.69058 C-4.08612676,64.9779147 -3.31204225,67.109171 -1.74105634,67.4014685 C-1.05866197,67.5287014 -0.382394366,67.6043648 0.290070423,67.6242317 C0.126338028,68.2187601 -0.0891549296,68.7932102 -0.363591549,69.3201065 C-1.3571831,71.2273315 0.519929577,73.2522787 2.27915493,72.7308775 C2.4743662,72.8342278 2.67887324,72.9191906 2.89077465,72.9830184 C2.91485915,74.0634411 3.46985915,75.5097112 4.56823944,75.728036 C6.34457746,76.1093119 8.70528169,74.7492728 8.28612676,72.7617346 C8.82274648,72.8562082 9.35746479,72.8680438 9.87866197,72.8025252 C9.93697183,73.8375076 9.91880282,74.9175076 10.0616197,75.8721769 C10.5285211,80.371402 15.0221831,83.3937112 19.3075352,82.0250067 C19.5703521,83.4268932 19.8790141,85.3966779 21.2592254,86.1571162 C22.8728873,90.685719 25.6592958,95.8538677 30.2230986,97.9172806 C29.816831,98.9586035 30.0371831,100.225437 31.2608451,100.922259 C39.6145775,105.686729 49.641338,107.298909 59.0858451,105.527582 C62.8603521,105.302705 66.5378873,104.449484 70.0677465,102.63166 C72.641831,101.306071 75.0082394,99.6226661 77.3182394,97.8872689 C79.629507,96.1512376 82.1007042,94.4608579 83.945493,92.206807 C85.9491549,89.7587366 86.8819014,86.8784548 87.4871831,83.8128188 C90.2609155,69.8977268 89.3028852,56.2345948 84.264364,42.9791271 C78.0274617,26.570928 90.49902,57.0060153 84.264364,40.5969618 Z" id="ðŸŽ¨-Background" fill="#FFFFFF"></path>
                        <path d="M48.3314789,11.8964008 C52.1353521,11.6277746 56.0085211,12.2692227 59.6309155,13.4166434 C65.4082394,15.2460916 70.7140141,18.4746787 75.0730986,22.677802 C79.5657042,27.0094262 82.8883099,32.3500368 84.908662,38.2486121 C87.345,45.3622403 87.7096479,52.9577472 88.3954225,60.3835397 C88.741838,64.1353667 89.312671,67.8299706 89.9061363,71.5454515 L90,72.1322912 C90.5797183,75.752299 90.9059155,79.4135202 90.105,83.0278215 C88.7735915,89.0348196 84.7823239,94.1338568 80.0446479,97.9015984 C70.3121831,105.641669 55.161338,110.360487 43.8295775,103.238193 C42.0764789,102.136213 43.7376761,99.3182795 45.4491549,100.466546 C46.6535915,101.27496 47.9296479,101.983618 49.2980282,102.472894 C55.0153521,104.516863 61.2944366,103.788761 66.945,101.887454 C72.5133803,100.013833 77.8565493,96.8480172 81.9652817,92.6235476 C86.2810563,88.1862481 88.6728169,82.705301 88.3271831,76.4687765 C88.1211972,72.7580994 87.2761268,69.1161112 86.8071127,65.4356571 C86.3916479,62.1759311 86.1425531,58.8985306 85.8554238,55.6256223 L85.7501825,54.4483827 C85.1414197,47.7801372 84.2670865,40.9289811 81.2342958,34.8760955 C78.6832394,29.7838215 74.9478169,25.253528 70.4562676,21.7548352 C65.7538732,18.0919233 60.1373239,15.5301464 54.2442254,14.5746317 C47.3142254,13.4510935 40.6804225,15.4942168 34.899507,19.2976767 C29.7724648,22.6708274 25.3645775,27.1785065 21.9847183,32.2931836 C20.3457042,34.7731679 18.9494366,37.4215984 17.7437324,40.1376611 C16.6075352,42.6966904 15.8241549,45.3787256 14.9104225,48.0163773 C15.6623239,47.9939742 16.4266901,48.0229292 17.2028873,48.1087374 C21.1840141,48.5500368 24.8932394,50.6140838 27.2545775,53.8686669 C30.1402817,57.8456454 29.3602817,62.7274145 30.4873944,67.2503108 C30.5746479,67.6013636 30.426338,67.9450192 30.1257042,68.1392501 C28.4167606,69.2441894 26.1295775,69.2809644 24.4755634,68.0367452 C23.04,66.9569566 22.3660563,65.0047139 22.9472535,63.2989057 C23.0230986,63.0765652 23.3467606,63.1158763 23.3558451,63.3542795 C23.4650704,66.2571757 26.1572535,68.4926278 28.7961972,67.1112423 C27.6642254,63.2111953 28.26,58.8554771 25.9447183,55.3326904 C21.8467606,49.0978568 13.3664789,48.8402207 7.41021127,52.3549761 C4.27552465,54.2044356 1.79434266,56.9853862 -0.0532217342,60.0959588 L-0.585496518,60.9989565 C-1.29369903,62.2054812 -2.04370246,63.5703851 -2.1906338,64.8990387 C-2.27535211,65.6658176 -1.99246479,66.3863108 -1.11316901,65.9999624 C-0.401830986,65.6875867 0.148943662,64.9586395 0.571478873,64.3319859 C1.29209677,63.2631807 2.94804554,64.1865577 2.35281726,65.3247084 L2.33260563,65.3618959 C1.46632394,66.8972169 0.932986203,68.5891027 0.835044591,70.3519171 L0.81015515,70.8400693 C0.793823999,71.1958468 0.782086268,71.7014932 0.857323944,71.7199468 C0.947535211,71.7421386 1.5743662,71.0182638 1.67873239,70.9180838 C2.1815493,70.434937 2.6993662,70.0401346 3.39929577,69.9114223 C4.31939718,69.7427197 5.24772545,70.8815701 4.44903403,71.6281835 L4.41570423,71.6582325 C3.70288732,72.2781229 3.73457746,73.5143108 4.52197183,74.0940446 C5.63325232,74.9122254 7.00139092,73.5767793 7.16267952,72.4772467 L7.16809859,72.4366356 C7.31070423,71.2486356 8.96007042,71.2065769 9.04964789,72.4366356 C9.24422535,75.1059898 6.06739437,77.343344 3.65028169,75.99662 C2.69450704,75.4644399 2.08690141,74.4899037 1.8965493,73.4454106 C1.59147887,73.6066708 1.26232394,73.7184751 0.914366197,73.7493323 C-0.218450704,73.8497237 -1.02380282,73.0529331 -1.20697183,71.9835006 C-1.42035211,70.7375906 -1.29380282,69.4035476 -0.965704225,68.1096611 C-1.58091549,68.258029 -2.22802817,68.2013871 -2.87852113,67.8258176 C-4.84647887,66.6898098 -4.28133803,64.1629057 -3.53830986,62.4568861 C-0.366126761,55.1750231 6.20598592,48.5675789 14.3482394,48.0430074 C14.3928169,46.758209 14.5669014,45.5435789 14.8516901,44.2570896 C17.6366197,31.6735045 26.6585915,20.0213401 38.4040141,14.5752658 C41.5426056,13.1199076 44.8711268,12.1409331 48.3314789,11.8964008 Z M17.5300141,62.1630669 L17.6416373,62.1379014 C18.9105757,61.8643956 22.2499606,61.543092 21.8474789,63.6792939 C21.8284648,63.7796853 21.6824789,63.767427 21.656493,63.6792939 C21.2622676,62.3361628 18.5842394,63.410245 17.802338,63.733611 C16.7244507,64.1791374 15.6611408,64.8364368 14.781,65.6004681 C12.8540282,67.273517 11.562338,69.6313409 11.3658592,72.1920611 C11.1710704,74.7322802 11.9077606,77.4760297 13.7394507,79.3135092 C14.637338,80.2140728 15.7834648,80.8255092 17.0709296,80.8705268 C18.2276197,80.9106834 19.5055775,80.0099084 20.5729014,80.5374387 C20.7833239,80.6414231 20.9500141,80.9269573 20.931,81.1619789 C20.8950845,81.6068712 20.6960704,81.9532744 20.3998732,82.2219006 C22.1867746,85.4794427 23.649169,88.9274114 25.9285352,91.8896971 C27.072338,93.3759123 28.3684648,94.7522254 29.8361408,95.9235288 C30.5337465,96.4804368 31.2921972,96.9695014 32.0743099,97.3991765 C32.9907887,97.903247 33.7838873,98.2185816 34.4379718,99.0724368 C34.9957183,99.8005386 34.4377606,101.208343 33.5183239,101.333885 C31.3530423,101.62893 29.2488169,99.8776814 27.6592394,98.5658301 C26.0711408,97.2550356 24.6985352,95.6382059 23.5642394,93.9226755 C21.3860704,90.6283585 19.896,86.7420493 19.3002254,82.8102998 C18.6085352,83.0296814 17.8298028,83.0966795 17.2439577,83.0979476 C15.6852254,83.1015405 14.1968451,82.5406168 12.9719155,81.5927108 C8.4875493,78.122973 7.98916901,70.9989886 11.1537465,66.5065268 C12.6681127,64.356883 14.9692394,62.7685855 17.5300141,62.1630669 Z M17.5581127,70.4255953 C18.5979718,70.334292 19.6369859,70.4985112 20.6143099,70.8531569 L21.0171997,70.9992687 C21.8682818,71.310571 22.7742079,71.6766141 23.3888873,72.3148556 C24.3279718,73.2904485 23.3929014,74.9808282 22.0551549,74.6069495 C20.5760704,74.1935483 19.3739577,72.947427 17.8952958,72.4247577 C16.5736056,71.9576736 15.0765634,72.0238262 13.9036056,72.8282254 C13.7487465,72.9345346 13.5450845,72.7248751 13.6462817,72.5705894 C14.5435352,71.2037871 15.9600845,70.5657205 17.5581127,70.4255953 Z" id="ðŸ–-Ink" fill="#000000"></path>
                    </g>
                    <g id="face/Eating-Happy" transform="translate(112.183099, 77.354207)" fill="#000000">
                        <path d="M26.651385,41.4864172 C27.8332398,39.5415711 30.3523572,44.3057979 30.6200098,45.1249997 C30.8570644,45.850687 31.0135488,46.5940725 31.0930874,47.3460616 C32.0093391,47.5515032 32.9607994,47.5518825 33.8996301,47.3718474 C35.2949741,47.1040359 36.147956,46.3536048 37.3606685,45.7092415 C38.1982987,45.2639875 39.253962,45.7861206 39.6895539,46.524568 C40.2019297,47.3937571 39.8755006,48.2959069 39.201613,48.9438883 C37.923659,50.1726203 35.409214,50.4548999 33.7410515,50.1285895 C32.7852837,49.9417094 31.9093184,49.5831419 31.1357638,49.0620417 C31.1306364,49.159284 31.1272121,49.2565522 31.1195448,49.3536508 L31.1047743,49.5220861 C30.9766029,50.8848667 30.6021836,52.5984609 29.5440832,53.4852118 C27.8086691,54.9398049 25.6669327,52.142372 27.3531919,50.6894243 L27.4054668,50.6458128 C28.4536,49.7986046 28.6822644,47.525525 28.6258217,46.2735213 C28.5888138,45.4563605 28.4400203,44.6287353 28.1821129,43.8504618 L28.1290773,43.6954828 C28.0514434,43.4756328 27.2049692,41.3901568 26.8990933,41.6557485 L26.8844918,41.6707244 C26.758361,41.8213851 26.5545245,41.6458886 26.651385,41.4864172 Z M36.0875289,30.5120405 C37.6828906,31.482148 40.1137318,33.7442494 38.3974899,36.149264 C36.3773089,38.2698449 33.4687045,35.8384541 32.0353946,34.7388307 C30.7063626,33.8866164 29.2131206,36.0784478 30.4461973,37.0735516 C40.8033244,44.7445605 45.006466,30.7657101 36.8944406,29.3714319 C36.0012775,29.2177885 35.6695544,30.2119271 36.0875289,30.5120405 Z M19.051838,21.5451123 C20.610993,21.2684548 22.2081761,21.6562826 23.4983873,22.5688932 L23.5961707,22.6392476 C24.8391675,23.5486603 26.2298987,25.1455025 25.5166268,26.7130497 C25.2303592,27.3424509 24.3730352,27.4411515 23.8290211,27.1558286 C22.9233169,26.6807131 22.759162,25.5117346 21.9510634,24.8647914 C21.2883169,24.3345135 20.3959225,24.0128384 19.5424014,24.0904039 C17.5372606,24.2725879 16.3038803,26.251038 15.6810634,27.9560008 C15.6014155,28.1741143 15.2813451,28.2588658 15.1562746,28.0246896 C13.6877535,25.2788266 16.2871901,22.0358677 19.051838,21.5451123 Z M44.0259085,20.5088618 C47.0125986,20.2626387 50.5084437,23.3601886 49.7221056,26.5139577 C49.344993,28.0272258 47.1011197,27.983899 46.7022465,26.5139577 C46.4827394,25.7051202 46.5047113,24.9894881 45.922669,24.3178168 C45.4422465,23.7632337 44.7596408,23.4411358 44.0259085,23.4905918 C43.2171761,23.5451202 42.4711901,23.9494333 41.9043592,24.5177542 C41.3924577,25.0309127 41.086331,25.7818403 40.5560493,26.2360321 C40.4254859,26.347625 40.2507676,26.354811 40.1218944,26.2360321 C39.2092183,25.3942239 39.7570352,23.6417072 40.3356972,22.7629127 C41.1638662,21.5053785 42.5123873,20.6337699 44.0259085,20.5088618 Z M13.3643239,15.9516845 C15.2803099,14.2549644 18.7617887,12.6163656 21.3453803,13.4514106 C22.8308028,13.9313871 23.478338,16.3257746 21.8200986,17.0847335 C19.8998873,17.963528 17.6860141,17.6059233 15.7315775,18.5168431 C14.9108028,18.8995984 14.138831,19.3778841 13.5673521,20.0793558 C13.1171408,20.6322481 12.6591127,21.3597159 12.0079859,21.6784321 C11.8368592,21.7623382 11.6050986,21.7644517 11.4679859,21.6088978 C10.040662,19.9937589 12.1180563,17.0551444 13.3643239,15.9516845 Z M40.7327324,13.3671875 C41.9168873,13.0347335 43.2305493,13.0414967 44.433507,13.2503108 C45.6360423,13.4591249 46.8569577,13.9577002 47.8387183,14.6849566 L47.9526883,14.7701118 C49.0244692,15.5780701 50.3034536,16.7536241 50.2349155,18.1849174 C50.177662,19.3801033 48.920831,20.1885182 47.8357606,19.5620759 C46.9511831,19.0512423 46.5349859,18.0278841 45.7860423,17.3464908 C45.1680845,16.7840877 44.442169,16.3406748 43.667662,16.0299898 C42.8073803,15.6848548 41.9456197,15.5231718 41.0223803,15.5077432 C40.3114648,15.4959076 39.5963239,15.7292384 38.8987183,15.803845 C38.9561831,15.9217785 38.4047746,15.8668274 38.0887183,15.762209 C37.8546338,15.6624517 37.8533662,15.3663499 37.934493,15.1742325 C38.3369577,14.2225221 39.8012535,13.6284164 40.7327324,13.3671875 Z" id="ðŸ–-Ink"></path>
                    </g>
                    <g id="facial-hair/Moustache-5" transform="translate(104.577451, 109.479380)" fill="#000000">
                        <path d="M62.1955141,6.91588885 C61.9138944,6.07429198 60.4648099,6.14763053 60.5539648,7.13822935 C60.656007,8.27001018 60.2687535,9.53219413 59.1849507,10.0817049 C58.0500211,10.6570004 56.7731197,10.1398262 56.0807958,9.15282035 C55.4788944,8.29494951 55.0637535,7.36183796 54.3063592,6.61365793 C53.6022042,5.91789276 52.7457254,5.38127436 51.8087535,5.06276947 C51.0790352,4.81485558 50.3220634,4.74891429 49.5879085,4.83028415 C47.758331,4.41667162 45.6384718,5.35739178 44.4982606,6.78442896 C44.4247394,6.87636634 44.3565,6.97083992 44.2905845,7.0661589 C44.1775563,6.91229589 44.0592465,6.75991233 43.9339648,6.60964227 C43.6109366,6.22244853 43.2099507,6.13938787 42.847838,6.24485166 C40.7856549,4.71065988 37.8957254,4.5073409 35.5536127,5.89189667 C33.6771338,7.00127436 32.1249507,8.63628023 29.8174859,8.76351311 C27.9898099,8.8643272 25.9990352,7.82110215 25.870162,5.81179491 C25.8025563,4.76265205 24.3735423,3.88808454 23.5717817,4.85945049 C21.8862887,6.90193973 21.5491056,9.61504344 22.4816408,12.0846716 C23.4657254,14.6904094 25.4706549,16.5259867 28.0092465,17.6057753 C30.7506549,18.7717949 33.9631901,19.1767421 36.9287535,19.084382 C39.8852324,18.9922333 42.5734014,17.8549573 44.3554437,15.4356305 C44.5681901,15.146926 44.755162,14.8535718 44.9191056,14.556836 C46.6493873,16.7607969 49.3616408,17.6871452 52.1241761,17.7537205 C55.0143169,17.8230434 58.4309366,17.3155914 60.4743169,15.0702059 C62.4435423,12.9059789 63.1231901,9.68753659 62.1955141,6.91588885" id="ðŸ–-Ink"></path>
                    </g>
                    <g id="accessories/Glasses-5" transform="translate(88.521127, 88.978474)" fill="#000000">
                        <path d="M74.5743803,22.486699 C71.4036761,24.0143389 66.9801549,21.7611335 64.8482535,19.4009847 C64.0722676,18.5416344 63.4735352,16.0829965 63.7720563,14.523654 C64.5805775,10.3006638 67.6186056,7.76615108 70.8258592,6.90067162 C75.2717746,5.70062466 79.746,8.74068728 79.2243803,12.3281472 C78.7298028,15.7281393 77.9804366,20.6599984 74.5743803,22.486699 M52.9931831,14.3746521 C52.7390282,18.9768047 49.0445915,23.0049299 44.6290986,24.198425 C37.5148732,26.1842724 33.9989577,21.1813996 32.4064225,15.7917558 C32.2481831,15.2561941 31.8761408,13.621611 32.8743803,12.2195131 C36.8003662,6.7043272 46.3524085,7.64441331 51.1232535,9.15852681 C52.5197324,10.494472 53.0905775,12.4226207 52.9931831,14.3746521 M78.0193099,6.43696908 C78.0171972,6.43971663 78.014662,6.44204149 78.0125493,6.44478904 C77.9962817,6.43485558 77.9802254,6.42471076 77.9635352,6.41498865 C77.9819155,6.42259726 78.0013521,6.42914912 78.0193099,6.43696908 M83.9715634,6.96893777 C83.5583239,2.28330176 68.8619155,4.0774544 67.1436761,4.46147789 C62.4543803,5.8411726 58.404169,9.59475382 53.1613521,7.94474207 C47.7290282,1.88680861 29.4355775,3.62410802 25.6006479,6.71003366 C24.8747324,6.42513346 23.9920563,6.57793973 23.0567746,6.8467773 C18.2538169,6.67325871 -3.67238028,8.32961096 0.812408451,14.4619397 C1.49311268,14.9343076 2.1731831,14.4536971 2.19198592,13.4806403 C25.571493,5.03783014 23.3052254,12.9459241 26.0779014,12.0223233 C26.5012817,12.1442724 26.9430423,12.2214153 27.3294507,12.3025738 C29.475507,12.9932665 30.204169,12.7798027 30.4868451,15.1898301 C32.4290282,33.7994348 57.2012113,27.3764994 55.1694507,12.1119358 C57.1811408,12.0011883 58.9407887,11.1310591 61.0680423,11.9806873 C62.5450141,26.3603272 74.1121268,26.9406951 77.5931831,21.9559984 C80.2181831,18.4961941 79.1772676,13.2749965 82.785507,10.5532274 C84.2098732,11.7456658 84.3015634,7.72113346 83.9715634,6.96893777" id="ðŸ–-Ink"></path>
                    </g>
                </g>
            </g>
        </g>
    </g>
</svg>