<?xml version="1.0" encoding="UTF-8"?>
<svg width="240px" height="324px" viewBox="0 0 240 324" version="1.1" xmlns="http://www.w3.org/2000/svg" xmlns:xlink="http://www.w3.org/1999/xlink">
    <!-- Generator: Sketch 62 (91390) - https://sketch.com -->
    <title>peep-31</title>
    <desc>Created with Sketch.</desc>
    <g id="Introduction" stroke="none" stroke-width="1" fill="none" fill-rule="evenodd">
        <g id="variations" transform="translate(-1086.000000, -758.000000)">
            <g id="images" transform="translate(126.000000, 110.000000)">
                <g id="a-person/bust" transform="translate(960.000000, 648.000000)">
                    <g id="body/Tee-1" transform="translate(31.056338, 135.052838)" fill-rule="evenodd">
                        <path d="M163.580535,116.881512 C162.728915,112.07037 161.948282,107.246318 161.238845,102.411896 C160.902085,100.116693 160.573563,97.8193746 160.278211,95.5182464 C160.07138,93.9059964 159.75638,92.0624272 160.852859,90.8683717 C162.395746,89.1877629 163.797296,87.7492668 163.986169,85.3418968 C164.163845,83.0767469 163.398211,80.607579 162.919479,78.408883 C161.915535,73.7981611 160.665676,69.2443696 159.28462,64.7337519 C157.881592,60.1509661 156.343141,55.6113542 154.782507,51.0804194 C153.323493,46.8440833 151.920887,42.5696524 150.020535,38.5051654 C146.413986,30.7918463 140.312577,25.0797659 132.772014,21.2656453 C130.896592,20.3170887 127.071493,16.930898 125.112197,16.1728145 C123.310929,15.4756825 123.317366,17.5112064 121.54462,16.7444458 C120.127437,16.1315453 118.807859,15.3142036 118.014338,13.945336 C117.152789,12.4590099 114.992223,10.3801664 114.66328,8.65003464 C113.966308,4.98279012 114.72131,1.86150285 112.104972,-0.898665838 C109.782296,-3.34963299 106.660394,-5.0287603 103.430113,-5.93012193 C96.3239155,-7.91294822 86.8468732,-6.5267264 82.5594085,0.0790967238 C80.5115915,3.23375663 79.7960282,7.04681898 77.0328592,9.62138209 C74.6199718,11.8693894 75.1599467,13.4062967 72.0348763,14.5647972 C71.8578341,14.6306163 67.0604789,13.6011899 66.8834366,13.667009 C63.4647042,12.9351685 60.1971549,14.9838383 57.0606761,16.1728145 C52.3846901,17.9448504 47.9328592,20.2514812 43.7503944,22.9928142 C35.3168028,28.5207705 28.0935634,35.6988599 22.1385634,43.8216964 C16.134338,52.0114102 11.4756761,61.1909499 8.15856338,70.7848747 C7.353,73.1152088 6.62940845,75.4739023 5.99116901,77.8556641 C5.63391549,79.1885535 5.25215493,80.5711774 5.68715493,81.9358123 C6.04292958,83.052197 6.83433803,83.8835068 7.76370423,84.5533377 C9.02349296,85.4614717 11.5504648,86.0517271 11.5012394,87.8781537 C11.4636338,89.2669151 10.9927183,90.7282681 10.7628592,92.1005218 C10.4892676,93.7347821 10.2644789,95.3785661 10.0396901,97.020022 C9.01715493,104.491228 8.22130986,112.004551 7.86933803,119.539248 C7.52285915,126.957969 7.23532394,134.528433 7.74976056,141.945037 C7.78377465,142.43413 7.9295493,142.883012 8.16469014,143.262477 C7.9451831,143.346497 7.92828169,143.755803 8.2014507,143.813791 C8.39285915,143.854425 8.58384507,143.894848 8.77525352,143.935482 C9.17285915,144.23643 9.66870423,144.420977 10.239338,144.438967 C10.626169,144.451242 11.0127887,144.468596 11.3991972,144.48849 C15.4768732,145.341175 19.5539155,146.146665 23.684831,146.756602 C28.7062394,147.497967 33.7424366,148.102402 38.7942676,148.593823 C49.1749014,149.603331 59.4737746,149.268521 69.8681408,148.724403 C80.2464507,148.180919 90.6186338,148.053937 101.007718,148.324197 C111.405887,148.594881 121.800254,149.04736 132.200746,149.232543 C143.820254,149.4391 155.422014,149.121645 167.00793,148.197638 C168.596451,148.071079 169.579268,146.80676 169.265958,145.228372 C167.388845,135.772012 165.261592,126.378719 163.580535,116.881512 Z" id="ðŸŽ¨-Background" fill="#FFFFFF"></path>
                        <path d="M63.6413239,13.4343123 C64.715831,13.3876039 65.8114648,13.5615452 66.8834366,13.667009 C66.9768169,13.6760971 67.0123099,13.820238 66.9070986,13.8422184 C64.9886303,14.2431499 63.0911897,14.7916568 61.2069925,15.3486993 L60.4002676,15.5875491 C58.2755493,16.2163162 56.2131549,16.8649503 54.1562535,17.7035883 C50.0568169,19.3749464 46.1633662,21.6308994 42.5800563,24.2226881 C28.7817465,34.2028603 18.7951268,49.3131382 12.4930141,64.9574982 C10.7815352,69.2060618 9.33139437,73.5603006 8.15674648,77.9878779 C7.87111268,79.0651303 7.60238028,80.1466098 7.34759155,81.2314708 C7.27280282,81.549553 6.9468169,82.3640971 7.1255493,82.6895765 C7.28357746,82.9772243 7.89794366,83.1549699 8.1833662,83.3046059 L9.14698228,83.8044493 C11.026604,84.7735821 14.1575601,86.3665725 14.4715352,86.52178 L14.9612138,86.7629923 C22.970505,90.6909542 31.5283606,94.0218115 40.5413239,94.2523397 L40.6118873,93.4823906 L40.6118873,93.4823906 C41.0137183,89.2255843 41.5410423,84.9461636 42.6920282,80.8201832 C42.7539296,80.5984767 43.0359718,80.6732947 43.0617465,80.8702732 C43.7029437,85.7547898 43.4980141,90.6773495 43.2742817,95.5844806 C42.8781549,104.275627 42.3520986,112.961913 41.8845634,121.649678 C41.6504789,125.995674 41.3479437,130.338712 41.0747746,134.682383 C40.8011831,139.034719 40.712662,143.491674 40.0879437,147.808081 C39.9487183,148.770148 38.8222394,149.293451 37.9691408,149.192003 C37.0251972,149.079565 36.2990704,148.247901 36.2946338,147.2945 C36.2832254,144.779854 36.5990704,142.23562 36.7746338,139.727314 C36.9413239,137.344128 37.1202676,134.962211 37.3036479,132.580293 C37.9737887,123.887244 38.7447042,115.20434 39.4577324,106.515095 C39.7104085,103.433185 39.9833662,100.354023 40.2643521,97.2750716 C30.7165352,96.9671342 21.7966056,93.4293417 13.287169,89.2957526 C13.164,92.0933965 12.8665352,94.8859679 12.5785775,97.6719875 C11.7747042,105.446719 11.0659014,113.218492 10.5354085,121.017318 C10.2675211,124.956254 10.0725211,128.90005 9.90266197,132.844269 C9.81921127,134.782774 9.7511831,136.721702 9.699,138.661263 C9.68153521,139.307714 9.66576056,139.954258 9.65180125,140.600833 L9.62277405,142.082063 C9.5990243,143.020561 9.50365554,143.889909 8.71428169,144.573154 C7.91252113,145.267017 6.82956338,145.304003 6.03604225,144.573154 C4.97378873,143.594602 5.16160563,142.261404 5.19308451,140.947228 C5.21928169,139.838696 5.25076056,138.730375 5.28730986,137.622265 C5.36061972,135.405835 5.45421127,133.190038 5.56808451,130.975299 C5.96656247,123.23231 6.76273357,115.5202 7.80322649,107.839158 L8.2093983,104.874102 C8.96790662,99.3620622 9.80064457,93.7246478 11.4962535,88.4148446 C10.8360423,88.0864063 10.1777324,87.7556431 9.52195775,87.4234004 C8.35871831,86.8341558 7.15597183,86.2812634 6.02526761,85.6309386 C5.12822535,85.1150325 4.35456338,84.4074317 4.10484507,83.3631499 C3.82634608,82.1996484 4.25221293,80.9270502 4.5351332,79.7921891 L4.55970423,79.692418 C4.83709859,78.5494356 5.13583099,77.4115256 5.45104225,76.2784767 C6.72921127,71.6839327 8.30970423,67.1790012 10.1593521,62.7839718 C13.8628732,53.9850364 18.6432254,45.6259209 24.4824507,38.0678231 C29.7385775,31.2644571 35.9477324,25.0947194 43.2250563,20.467416 C46.7828028,18.2051225 50.5742113,16.3475648 54.5838592,15.0342341 C56.4580141,14.4204728 58.497169,13.886602 60.4594225,13.6667977 C61.5178732,13.5484415 62.5778028,13.480598 63.6413239,13.4343123 Z M82.6794085,-0.508403131 C83.9563099,-1.88006654 86.4932113,-0.460637965 85.8801127,1.35570646 C84.438,5.62899804 82.1415211,9.52693151 78.5575775,12.3349315 C75.1887042,14.9746967 71.1714507,16.6889589 66.8451127,16.3231115 C66.8117324,16.3201526 66.7827887,16.3116986 66.7572254,16.2996517 L67.1300556,16.8055511 C70.0571184,20.7664722 73.1450351,24.6726817 76.8668028,27.91018 C84.449831,34.5066341 94.7744789,38.0645049 104.744197,35.5335851 C112.588141,33.542454 119.498704,27.3374207 121.531099,19.4295382 C121.239761,19.5601526 120.893493,19.6047476 120.513423,19.5221096 C118.887296,19.1689432 117.277437,17.4580626 116.228704,16.2313855 C115.094197,14.904317 114.208141,13.471362 113.558704,11.8515734 C112.370113,8.88717417 111.988986,5.07039922 113.611944,2.19878278 C113.812225,1.84477104 114.274056,2.04322896 114.313352,2.38878669 L114.375143,2.92817968 C114.688032,5.61937583 115.077771,8.22266243 116.346169,10.6760431 C116.966873,11.8765127 117.710958,13.0482387 118.616662,14.0536321 C119.10131,14.5915186 119.626732,15.1055225 120.193986,15.556544 C120.746761,15.9959537 121.415753,16.3136725 121.911219,16.8178812 L122.002014,16.914681 L122.004549,16.8973503 C122.129831,15.8319335 122.876662,15.3625245 123.607437,15.3919022 C124.314638,15.4203322 125.145294,15.7317346 125.466986,15.8808968 L125.497435,15.8952558 C130.430953,18.2644404 134.974756,21.3525226 139.250746,24.7786027 C148.093563,31.86391 154.719127,41.1263366 157.929338,52.0337025 C159.504938,57.3869199 160.409049,62.9029688 161.363415,68.3932924 L161.950955,71.7571824 C162.841744,76.825724 163.836781,81.9939549 165.847648,86.7088885 C166.367789,87.928591 165.966803,89.0724188 164.69138,89.5519726 C163.098845,90.1509393 161.500394,90.7308845 159.899408,91.3036438 C160.685535,94.6774286 161.164901,98.16809 161.753915,101.558571 C163.005887,108.765405 164.539901,115.926164 165.855254,123.123487 C166.527718,126.803519 167.134479,130.495808 167.80631,134.176262 C168.129761,135.948646 168.467366,137.718493 168.795676,139.490031 C168.972507,140.445335 169.132859,141.403597 169.301662,142.360168 L169.331039,142.518914 C169.427732,143.02356 169.549237,143.545531 169.410465,144.050548 C169.252225,144.626477 168.802859,145.033327 168.401662,145.446305 C168.071451,145.786368 167.594197,145.788481 167.18962,145.602916 L167.056548,145.541328 C166.333952,145.203229 165.767885,144.865974 165.511521,144.050548 C165.349268,143.534219 165.290746,142.952583 165.18469,142.420614 C164.981239,141.400849 164.788352,140.379816 164.606239,139.355824 C164.242014,137.307205 163.886239,135.257108 163.538915,133.205319 L163.214504,131.284113 C162.101053,124.662697 161.043665,118.001015 160.509127,111.30964 C160.272,108.341098 160.020676,105.375127 159.767054,102.408587 L159.576592,100.183526 C159.335746,97.3672838 159.041451,94.479816 158.999831,91.6255303 L158.042498,91.9655401 L158.042498,91.9655401 L153.371239,93.6175068 L153.371239,93.6175068 C152.21307,94.0268924 150.738423,94.865953 149.491944,94.7133581 C148.881803,94.6385401 148.416592,94.4464227 148.057437,94.097272 C148.487577,100.17 149.069831,106.23216 149.845817,112.263464 C150.551873,117.751386 151.33462,123.23191 152.259127,128.687495 C152.716944,131.388975 153.187437,134.087918 153.698493,136.779675 C153.953915,138.125765 154.217577,139.469953 154.489268,140.812873 C154.62469,141.482853 154.785887,142.153468 154.891521,142.828943 C155.012366,143.602485 154.799408,144.078446 154.367366,144.714822 C154.012648,145.237491 153.303,145.505906 152.727718,145.145131 C151.965887,144.666845 151.568493,144.252599 151.344338,143.381624 C151.140676,142.59054 151.016873,141.764583 150.859268,140.963354 C150.568352,139.484325 150.287155,138.003605 150.015676,136.520771 C149.448,133.41984 148.92469,130.311299 148.457366,127.19346 C146.810535,116.209796 145.765606,105.134196 145.237859,94.0406301 C144.977366,88.5672916 144.896873,83.089092 144.943141,77.610047 C144.966803,74.8016243 145.058493,71.9851703 145.257085,69.1837221 C145.458211,66.3480352 145.876521,63.5689902 146.250042,60.7605675 C146.263141,60.6616556 146.402577,60.6559491 146.408493,60.7605675 C146.585324,63.9092642 146.862507,67.0543679 146.998352,70.2113072 C147.12807,73.223683 147.184901,76.2407084 147.288,79.2541409 C147.423423,83.2152681 147.611239,87.1787202 147.859901,91.1394247 C148.310113,90.6467671 148.988704,90.3627123 149.667718,90.4736712 C150.65138,90.267182 151.710254,89.7508532 152.64807,89.4374207 L156.183423,88.2559726 L156.183423,88.2559726 C158.041944,87.6350254 159.900465,87.0183053 161.765535,86.420184 C160.098037,80.808125 158.955761,75.1124438 157.980376,69.3337199 L157.545373,66.7348328 C156.68431,61.619303 155.755897,56.5013559 154.196239,51.5475969 C152.556592,46.3395029 150.10293,41.4974677 146.84793,37.1125832 C143.639408,32.7911037 139.735817,28.985953 135.716662,25.4268141 C132.275746,22.3799883 128.594831,19.6290528 125.085254,16.6659217 C125.122014,16.8622661 125.129831,17.0784775 125.097507,17.3160352 C124.35131,22.7794403 121.502366,27.8672759 117.532014,31.6515029 C109.555606,39.2539843 97.748493,40.8312916 87.5396197,37.2662348 C77.664338,33.8178434 68.9332817,25.6508454 65.8485634,15.5447084 C65.7957465,15.3718239 66.0272958,15.303135 66.1202535,15.4301566 C66.2913803,15.6647554 66.4633521,15.8993542 66.6355352,16.133953 C66.6239155,16.0407476 66.6722958,15.9392994 66.7872254,15.8949159 C70.3863803,14.5046536 73.9206761,12.5329667 76.6185634,9.74377691 C77.933493,8.38416047 79.0810986,6.84383953 79.9870141,5.18262622 C80.4209577,4.38689237 80.8107465,3.56283757 81.1217324,2.71130724 L81.2007668,2.49100266 C81.5776499,1.42432911 81.8926138,0.336629884 82.6794085,-0.508403131 Z" id="ðŸ–-Ink" fill="#000000"></path>
                    </g>
                    <g id="head/Cornrows-2" transform="translate(78.591549, 38.043053)" fill-rule="evenodd">
                        <path d="M32.5378042,12.5408519 L34.362507,14.7117558 C33.3521104,15.4240455 32.3983252,16.1397668 31.5011513,16.8589197 L31.500317,16.85676 C35.6561266,14.1442521 40.2586953,12.5408519 45.2307527,12.5408519 C54.8071453,12.5408519 74.2589814,20.7701859 78.65622,26.7060067 C80.8384203,29.6517532 84.8936105,38.6949361 86.9971217,48.5264802 C88.6872626,56.4259836 91.201055,78.7432573 88.6872626,87.1290694 C85.470031,97.8614988 74.8852981,107.780946 63.9711488,107.780946 C53.0569995,107.780946 36.1125435,99.8984542 24.0528815,82.6244143 C23.5014375,81.8345359 17.1689361,80.9189519 12.6515,77.9542773 L13.8375512,91.0258609 L14.7389865,98.629713 L14.5400611,99.1708711 C11.304651,107.924343 8.7407885,112.491062 6.84847363,112.871028 C4.91754009,113.258748 0.985183677,110.092277 -4.94859562,103.371615 L-5.70679734,100.187966 C-7.63263214,92.0667247 -8.59554954,87.7074622 -8.59554954,87.1101782 L-8.59421906,87.0013895 C-8.5658293,85.6269384 -8.09252043,77.8473911 -8.08276752,75.7538479 L-8.08261466,44.3759319 C-1.7010369,23.1525452 4.38877181,12.5408519 10.1868115,12.5408519 L32.5378042,12.5408519 Z" id="Path" fill="#FFFFFF"></path>
                        <path d="M17.4167324,5.31300822 C19.293,4.58596321 21.4667324,4.7233409 23.2477183,5.81813542 C26.7444085,5.66807671 30.2218732,7.71394755 32.0449014,10.7003272 C32.0829296,10.7425973 32.1232817,10.7848673 32.1591972,10.8271374 L32.5455664,11.277628 C32.9114357,11.7078209 33.2973239,12.1819773 33.603,12.6715914 C32.1055352,12.7058301 30.858,13.3164211 29.9871549,14.5496501 C29.3658194,15.4295934 30.789173,16.2657784 31.4242502,15.4335183 L31.4465915,15.4030826 C31.9694789,14.6627225 32.7587746,14.3759202 33.6374366,14.3609143 C33.8896901,14.3566873 34.0810986,14.2601002 34.2163099,14.1176501 C34.2701831,14.3139945 34.3183521,14.5124524 34.362507,14.7117558 C38.7868732,12.9903076 43.5564507,12.534425 48.3068028,12.9427538 C48.098493,13.2800689 47.9244085,13.6414779 47.7904648,14.0212744 C47.6385634,14.4517949 47.9626479,14.9461432 48.3807465,15.0611178 C48.8328526,15.1853984 49.2415376,14.9203232 49.4051241,14.5106901 L49.4201831,14.4706051 C49.6027183,13.9532196 49.9008169,13.5091726 50.3009577,13.164883 C52.5372254,13.4681706 54.7576479,13.950472 56.9237746,14.5722646 C59.5272254,15.3202333 62.106169,16.2330552 64.6282817,17.2781824 C64.2010986,17.4457832 63.8320141,17.7289926 63.5736338,18.2017832 C63.0578063,19.145505 64.4759417,19.9907988 65.0140103,19.0885895 L65.0330704,19.0552157 C65.0858404,18.9584642 65.1326009,18.9002881 65.1668234,18.8671794 L65.1790563,18.8559123 L65.2534225,18.8216736 L65.3920141,18.7819397 L65.3920141,18.7819397 L65.445225,18.7688723 C65.4921712,18.7582923 65.5116728,18.7589676 65.6351831,18.7521393 C65.7995493,18.7428399 65.9641268,18.7436853 66.1287042,18.743474 C66.5157465,18.7432626 66.7627183,18.527474 66.8744789,18.2514505 C68.1190563,18.8134309 69.3477887,19.4052117 70.5547606,20.0251022 L70.8417042,20.173702 C74.5672264,22.1210102 78.0966972,24.6782959 80.1441972,28.4410708 C80.2796197,28.6925777 80.321662,28.9673331 80.2880704,29.2294074 C80.7251831,29.7535562 81.1477183,30.2946129 81.5533521,30.8441237 C82.7913803,32.526472 83.6977183,34.4391922 84.5554648,36.3350043 C86.2815211,40.1477636 87.443493,44.0640845 88.349831,48.1473722 C89.2268028,52.0827147 89.934338,56.0603272 90.5915915,60.0379397 C91.3202535,64.4572744 91.9265915,68.9146521 92.0535634,73.3973918 C92.277507,81.3885464 90.7160282,89.426198 86.2308169,96.1534779 C82.2296197,102.155826 76.2042676,106.921775 69.0589859,108.447724 C61.7913803,109.999036 54.1012394,108.485768 48.3739859,103.641619 C47.4505352,102.861736 47.577507,101.287177 48.3739859,100.488272 C49.2760986,99.5879202 50.6068732,99.7126168 51.5258873,100.488272 C56.9195493,105.051325 64.7702535,105.755122 71.2690563,103.430268 C77.277507,101.278723 81.984338,96.3162176 84.8723662,90.7429104 C88.3963099,83.9458849 88.9901831,76.1386051 88.4491268,68.6187616 C88.1535634,64.4889769 87.5385634,60.3930082 86.9047606,56.30338 L86.5221979,53.8416468 C86.1048086,51.1752613 85.6663223,48.5125109 85.0944085,45.8732431 L84.9605282,45.2583495 C84.2615417,42.0756431 83.4428015,38.8113252 82.1768028,35.8193096 C81.5132113,34.2489769 80.714831,32.7357088 79.8972254,31.2414622 C79.7387746,30.9519123 79.5758873,30.6581354 79.4089859,30.362245 C79.1850423,30.4404446 78.9294085,30.4531256 78.6610986,30.3685855 C76.3519437,29.6499945 73.9794085,29.1681159 71.564831,29.0074896 C70.4647606,28.9339397 69.363,28.9225268 68.262507,28.9654309 C66.3786338,28.8557401 64.4421549,29.0214387 62.6476479,29.5992705 C62.4720845,29.4485777 62.2941972,29.3010552 62.1160986,29.1535327 C62.0681408,29.1497284 62.0201831,29.144656 61.9720141,29.1351452 C61.5141972,29.04511 61.1922254,28.7196305 60.9982817,28.3085542 C60.9881408,28.2867851 60.9790563,28.265016 60.9703944,28.243247 C60.7407465,28.0676149 60.5091972,27.8947303 60.2755352,27.7241706 C59.7059577,27.8719045 59.2069437,27.3978458 59.0725775,26.8783468 C58.9458169,26.7927499 58.8169437,26.7099006 58.6889155,26.6259945 C58.5885634,26.6505112 58.4888451,26.6708008 58.391662,26.6779867 C57.9722958,26.7082098 57.5672958,26.6439593 57.1956761,26.4438106 C56.7251831,26.1904016 56.4245493,25.7816501 56.2234225,25.3173135 C55.5118732,25.361063 54.7918732,25.1300571 54.1557465,24.712429 C53.6394085,24.3736344 53.2439155,23.9059162 52.8507465,23.4390434 C48.0596197,21.3012352 42.8514507,20.0390513 37.6310282,19.7156853 C37.1168028,19.8145973 36.606169,19.9323194 36.1018732,20.0692744 C35.982507,20.1018223 35.8130704,20.1656501 35.6180704,20.2421589 C36.7819437,20.1013996 37.9608169,20.0874505 39.1563803,20.259701 C44.8297606,21.0803742 49.2484225,25.3297832 53.0514507,29.3410004 C53.9560986,29.1581824 54.8704648,30.3301198 54.0332113,31.106198 L47.5056761,37.1573683 L47.5056761,37.1573683 C47.6658169,37.8341119 46.8900423,38.5011335 46.2103944,38.3386051 C45.0708169,38.0646951 43.929338,37.7983937 42.7870141,37.5365307 C41.5954648,38.1133057 40.0973662,38.0146051 39.0165211,37.1785033 C38.9662394,37.1396149 38.8570141,37.0774779 38.7621549,37.0157636 C38.6734225,37.0891022 38.5540563,37.1626521 38.5065211,37.1939319 C38.1222254,37.4483977 37.6540563,37.5232157 37.2051127,37.4517793 C36.7432817,37.3784407 36.3264507,37.1440532 35.9670845,36.8521785 C35.7383021,36.6662584 35.2052153,35.8904929 34.9085487,35.833358 L34.8796901,35.8300885 C35.0776479,35.8357949 34.4413099,36.4273644 34.2703944,36.5497362 C33.8715211,36.834425 33.4306056,36.9840611 32.934338,36.9295327 C32.0694032,36.8343299 31.3257734,36.04577 30.9027888,35.3176452 L30.8708873,35.2617675 L30.8575775,35.2271061 L30.8463412,35.2646012 C30.8442441,35.2712313 30.8418732,35.2783233 30.8389859,35.2862841 C30.7756056,35.4576892 30.5765915,35.6525542 30.4413803,35.7723898 C30.0560282,36.1132978 29.5789859,36.2631452 29.0694085,36.1741667 C28.6380951,36.099074 28.2754225,35.8383877 27.9839267,35.5229388 L27.938493,35.4726951 C27.8522446,35.3753459 27.284053,34.6116373 27.373755,34.4286151 L27.3841268,34.4131961 L27.3558169,34.4072783 C27.0101831,34.4922411 26.7201127,34.4070669 26.5075775,34.2288986 C25.3215211,33.9689378 24.1508873,33.6660728 23.0176479,33.2809926 C22.9289155,33.5303859 22.8420845,33.7797793 22.7577887,34.0312861 C23.3765915,34.4138301 23.9491268,34.9591139 24.4751831,35.3479984 C25.4725775,36.0834975 26.4695493,36.8189965 27.4646197,37.556609 L31.4072958,40.4660571 L31.4072958,40.4660571 L31.8581408,40.3449534 L31.8581408,40.3449534 C32.4342852,40.1902274 32.9285552,40.5257411 33.1400093,41.0386021 L33.1574366,41.0829886 C33.2413099,41.307654 33.3422958,41.5154114 33.4610282,41.714292 C34.4465915,41.6749808 35.2810986,42.2802881 35.5508873,43.1485151 C35.7942676,43.14302 36.0401831,43.1523194 36.2915915,43.1800063 C36.9800986,43.2556415 37.4442033,43.767123 37.3195298,44.4694626 L37.3101127,44.5176423 L37.2934225,44.5958419 C37.692507,44.7653448 37.9819437,45.0927264 38.046169,45.5877088 C38.1530704,45.7485464 38.2392676,45.9235444 38.2944085,46.1184094 C38.5823933,47.1295309 38.022158,48.3794268 37.7237415,49.3480515 L37.7007465,49.423928 C37.5092113,50.0605151 37.3109831,50.6940587 37.1104428,51.327298 L36.6109175,52.8994962 C35.225825,57.2812452 33.8754056,61.9010886 34.9963099,66.4946912 C35.2352535,67.4669025 33.9927887,67.9065112 33.4540563,67.1456501 C32.148,65.3035209 30.7369437,63.567701 29.2553239,61.9014153 L29.183493,61.8900023 L29.183493,61.8900023 C28.1459577,61.6813996 27.7430704,60.9482254 27.2668732,60.2008908 C26.9863099,60.2835288 26.6846197,60.302973 26.3930704,60.2467538 C25.9709577,60.165384 25.5927887,59.9242333 25.2942676,59.6196775 C25.0413803,59.3614074 24.8096197,58.6990356 24.5106761,58.5348164 C24.1367324,58.3295953 23.3850423,58.6229495 22.9384225,58.5570082 C22.5752535,58.5035366 22.236169,58.3788399 21.9072254,58.2222294 C21.3025775,59.0467068 20.9018028,60.0159593 20.8035634,61.0608751 C20.7653239,61.4582137 20.6470141,61.7942607 20.4758873,62.0732431 C21.1054648,62.0499945 21.7371549,62.0943781 22.3606056,62.2106207 C24.6676479,62.6396618 26.3218732,64.0641628 27.2514507,66.1861198 C27.2913803,66.2791139 27.1709577,66.3552 27.1160282,66.2664329 C25.736662,64.1423624 22.734338,64.0345738 20.5540563,64.7827538 C18.2385634,65.5774309 16.9392676,67.6169613 16.4768028,69.943928 C15.9697606,72.494926 16.6202535,75.2445933 18.008493,77.4172744 C18.6526479,78.4275288 19.5317324,79.349016 20.699831,79.7209926 C22.0880704,80.1627147 23.3702535,79.3722646 24.7920845,79.7801706 C25.7596901,80.0570395 26.186662,80.9933213 26.0110986,81.9296031 C25.9413803,82.2973526 25.812507,82.6186051 25.6392676,82.8975875 C26.1507465,83.9120689 26.6237746,84.9561393 27.2258873,85.9156697 C28.1554648,87.3972352 29.2796197,88.6230669 30.5047606,89.8594661 C31.7702535,91.1360219 33.0589859,92.3872157 34.4132113,93.5707773 C35.7106056,94.7057284 37.1979296,95.5130865 38.558493,96.5529299 C39.5134225,97.2820885 39.9864507,98.3050239 39.5153239,99.4759045 C39.1268028,100.443889 37.8167324,101.268155 36.756169,100.83066 C34.7258873,99.9937127 32.9491268,98.5692117 31.3310282,97.1024407 C29.8310282,95.7413448 28.5251831,94.1139476 27.5385634,92.3470591 C26.6078366,90.6812806 25.9220478,88.7895569 25.3434397,86.9673307 L25.271662,86.7399358 C24.9991268,85.8733996 24.7120141,84.8990748 24.5260986,83.9162959 C23.4127183,84.5249847 21.9019437,84.6137519 20.7106056,84.4488986 C18.7857465,84.1847108 17.0301127,83.2146129 15.7033521,81.8006795 C15.0849718,81.142746 14.5384225,80.3922411 14.0664507,79.5787538 C14.109338,80.0739476 14.1349014,80.5530787 14.1623662,80.9890943 C15.2653944,82.1975953 15.7077887,83.9416579 15.3163099,85.5329143 C16.2391268,86.4831452 16.4977183,87.9095483 16.0160282,89.1239671 C17.0260986,90.1261902 16.9880704,91.7210395 16.5513803,93.1694231 C17.7454648,94.5045229 17.858493,96.5844211 16.926169,98.090926 L16.8980704,98.1991374 L16.8980704,98.1991374 C17.8394789,99.7749652 17.6271549,101.811537 16.4476479,103.203067 C17.2532113,104.766214 17.1285634,106.868726 15.1153944,107.475302 C14.381662,107.696163 13.6705352,107.507638 13.1383521,107.096351 C13.6242676,109.513987 13.841662,111.968398 13.1937042,114.397235 C12.9357465,115.360993 11.993493,116.064789 11.0026479,116.064789 C10.1744789,116.064789 9.5723662,115.648429 9.15638028,115.035513 C9.20497183,116.255004 9.13102817,117.480836 8.87116901,118.717235 C8.71440845,119.463936 8.02208451,120.046206 7.28708451,120.226488 C7.55222535,120.525548 7.65785915,120.958182 7.40370423,121.40857 C6.32602817,123.317063 3.72215493,122.525556 3.54616901,120.697165 C2.81074648,120.148077 2.46891549,119.246456 2.3273662,118.272343 C2.12116901,116.851646 2.04638028,115.454409 1.81271831,114.051889 L1.72339124,114.135474 L1.72339124,114.135474 L1.67729577,114.175317 L1.66250704,114.276766 C1.52856338,114.969995 1.13771831,115.455466 0.630464789,115.745016 C0.740746479,116.954362 0.536661972,118.185901 -0.230239437,119.104218 C-0.741084507,119.716288 -1.61129577,119.957227 -2.35728169,119.824499 C-2.4041831,119.826824 -2.45214085,119.826613 -2.502,119.820061 C-4.19150704,119.595396 -5.16904225,117.992304 -4.72432394,116.520883 C-5.40460563,115.686895 -5.69108451,114.628664 -5.48974648,113.582903 C-6.80615493,112.710871 -6.77932394,110.795615 -6.32340845,109.257196 C-7.70340845,108.167685 -8.22249296,106.130903 -7.52911268,104.512171 C-8.77284507,102.966989 -8.94587324,100.813752 -8.10080282,99.0542607 C-9.4691831,97.9296658 -9.4613662,95.7584642 -8.1041831,94.6082959 C-8.82692958,93.173016 -9.26277465,91.4532587 -8.5404507,90.1397166 C-9.05002817,89.5771022 -9.32974648,88.7752391 -9.27080282,88.000429 C-9.18439437,86.862519 -8.43185915,86.0762959 -7.49805634,85.5523585 L-7.43340845,85.1964446 L-7.43340845,85.1964446 C-7.21411268,85.2237088 -6.9804507,85.1624172 -6.77446479,84.9645933 C-6.57059155,84.7686716 -6.36080282,84.610793 -6.14383099,84.4806012 C-5.89812676,84.4774309 -5.68664789,84.3679515 -5.53791549,84.1995053 C-5.13101408,84.0612822 -4.69347887,84.000202 -4.20819718,83.9947068 C-3.16009859,83.9832939 -3.12312676,82.4152861 -4.0985493,82.3136266 C-4.25256338,82.1582841 -4.46467606,82.060429 -4.69474648,82.060429 L-4.87490163,82.0611542 C-5.29610321,82.0651678 -5.72134859,82.0911276 -6.11214085,82.2586755 C-6.36608451,82.3673096 -6.56192958,82.5311061 -6.70538028,82.7314661 C-6.73221127,83.0345425 -6.897,83.3367734 -7.25383099,83.5863781 C-7.66601408,83.8746599 -8.22967606,83.9082646 -8.67080282,83.6474583 C-9.28833803,83.282245 -9.29467606,82.7122333 -9.22347887,82.0925542 C-9.06756338,80.7369534 -9.84671831,79.4612431 -9.66122535,78.0743624 C-9.57904225,77.4612352 -9.37495775,76.9318027 -9.04221127,76.5042411 C-9.74383099,75.4536188 -9.8676338,74.097384 -9.32742254,72.9440454 C-10.4528451,71.7327969 -10.6474225,69.8657284 -9.92974648,68.4080454 C-9.91939437,68.3727499 -9.9113662,68.336609 -9.90016901,68.3017362 C-9.81904225,68.0540337 -9.70728169,67.8306364 -9.58411268,67.6169613 C-10.2141127,66.5251256 -10.2094648,65.1853761 -9.56911268,64.0981902 C-10.5390423,62.9670434 -10.5698873,61.166973 -9.70728169,59.9483272 C-9.70221127,59.8473018 -9.69164789,59.7462763 -9.68298592,59.6452509 C-10.0789014,58.6170317 -9.98383099,57.4480532 -9.48164789,56.4919045 C-9.66080282,56.0787147 -9.79897183,55.6338223 -9.88728169,55.159975 C-10.1135493,53.9383703 -9.99714085,52.7505816 -9.65911268,51.5585659 C-9.60439437,51.3704642 -9.54312676,51.1823624 -9.4776338,50.9942607 C-9.46664789,50.1778145 -9.43559155,49.3649613 -9.39460563,48.5535875 C-9.55524824,47.8667519 -9.58115163,47.1119539 -9.58469284,46.4112427 L-9.58570604,45.9568666 C-9.5935734,44.8005422 -9.67413615,43.1074474 -8.94333803,42.1245229 C-9.41256338,41.062699 -9.21967606,39.7248517 -8.43650704,38.8832548 C-8.98622535,37.9374622 -9.10157746,36.7760924 -8.54911268,35.7267382 C-8.46038028,35.5578693 -8.35749296,35.4006247 -8.24467606,35.2518341 C-8.29030986,34.2908243 -8.08812676,33.2998027 -7.57622535,32.3447108 C-7.24369014,31.7229182 -6.747,31.184609 -6.15650704,30.7538771 C-6.16643662,30.6264329 -6.17256338,30.4992 -6.1704507,30.3738693 C-6.16009859,29.8146364 -6.03608451,29.2530787 -5.82735211,28.7291413 C-6.20192958,28.0895953 -6.37559155,27.3686795 -6.15650704,26.5917558 C-5.91143662,25.7125386 -5.26685915,24.9559045 -4.46214085,24.5289769 C-4.39728169,23.7000611 -4.26777465,22.8760063 -4.08270423,22.0629417 C-4.57728169,20.9611726 -4.18347887,19.5070826 -3.06566197,18.8580258 C-3.21143662,17.9775405 -3.08002817,17.0645072 -2.43946479,16.3767734 C-2.19671831,16.1161785 -1.91066197,15.9185659 -1.60284507,15.7875288 C-1.75115493,14.9021824 -1.58383099,13.9811178 -0.971788732,13.260202 C-0.471929577,12.6715914 0.268774648,12.3139867 1.02257746,12.2613605 C1.31285915,10.7214622 2.78349296,9.57002583 4.33504225,9.66175186 C4.52898592,8.98374012 4.99229577,8.39259335 5.71102817,8.09289863 C5.89504225,8.01617847 6.08095775,7.96566575 6.26623944,7.93755616 C7.52792958,6.664382 9.40630986,5.80143875 11.0324366,5.35950528 C12.6635684,4.91798446 14.3170475,4.87524713 15.7175304,5.38858164 L15.8195493,5.42713738 L15.9336338,5.41234286 C16.4282113,5.35739178 16.9223662,5.32568924 17.4167324,5.31300822 Z M5.02166197,109.664257 C4.58602817,109.528359 4.10011268,109.825094 3.98201408,110.254558 C3.8573662,110.708539 4.13497183,111.158292 4.57229577,111.294613 C5.11715493,111.464539 5.68947887,111.50702 6.2573662,111.507443 C6.71391549,111.507865 7.10243662,111.118558 7.10243662,110.662041 C7.10243662,110.2032 6.71560563,109.817063 6.2573662,109.81664 C5.79553521,109.816218 5.4545493,109.79931 5.02166197,109.664257 Z M1.14638028,100.686307 C0.495042254,100.686942 -0.0635492958,100.842495 -0.546507042,101.299012 C-0.868478873,101.603568 -0.876507042,102.191756 -0.546507042,102.494832 C-0.213199611,102.800722 0.270379629,102.818559 0.612529374,102.52723 L0.678422535,102.468123 C0.68634507,102.46091 0.692471831,102.455204 0.69743662,102.450449 C0.724901408,102.432695 0.752577465,102.414519 0.781732394,102.399302 L0.726610285,102.435335 C0.684655546,102.46565 0.781995771,102.416159 0.836581004,102.392773 L0.853774648,102.385775 L0.859267606,102.384507 L0.903,102.381126 C0.983915493,102.376899 1.06525352,102.37711 1.14638028,102.37711 C1.58835211,102.376687 2.01173239,101.988648 1.9914507,101.531708 C1.97074648,101.073924 1.62004225,100.685885 1.14638028,100.686307 Z M13.437507,95.3226599 C14.3522606,94.7615223 13.5351933,93.3262943 12.6178187,93.8431167 L12.5846197,93.8626521 C12.114338,94.1513566 11.5358873,94.1122568 11.0030704,94.1124681 C9.91567606,94.1131022 9.91377465,95.8039045 11.0030704,95.8032708 L11.1831083,95.8026058 C11.9641893,95.7966129 12.7542223,95.7420543 13.437507,95.3226599 Z M6.23856338,89.1514427 C5.54745145,89.0212954 4.77328852,88.905185 4.04612994,88.9844337 L3.92539437,88.9994818 L3.70166197,88.9994818 C3.50729577,88.9994818 3.31905634,89.0776814 3.168,89.2006873 C2.92884507,89.3000219 2.7023662,89.4331726 2.49574648,89.6121863 C1.67243662,90.3263389 2.87222535,91.5179319 3.69088732,90.8080063 C3.73635211,90.7684415 3.78911831,90.7359105 3.84777972,90.7092228 L3.89285915,90.6902841 L4.79687324,90.6902841 C4.87905634,90.6902841 4.95912676,90.6731648 5.03708451,90.6484368 C5.33053521,90.6888047 5.60391549,90.746926 5.78919718,90.7817988 C6.85229577,90.9819476 7.30778873,89.3526481 6.23856338,89.1514427 Z M5.46680282,72.9239671 C4.14215493,72.3093605 2.67511268,72.3137988 1.44997183,73.1672313 C0.573922121,73.7775314 1.38768108,75.2167604 2.27127526,74.6483962 L2.30285915,74.6272391 C2.41271831,74.5507303 2.52553521,74.4866912 2.63961972,74.4285699 C3.26159155,74.608429 3.88763798,74.6168936 4.48893767,74.3957405 L4.56722535,74.3655875 L4.61391549,74.3837636 C5.59419718,74.8385894 6.4536338,73.3817519 5.46680282,72.9239671 Z M19.8915423,70.2747546 C18.5533732,70.1246959 18.5425986,68.0099249 19.8915423,68.1612517 C22.7396408,68.4808133 25.3238662,69.7474356 27.2166127,71.9226528 C28.0969734,72.9343134 26.6471756,74.4143414 25.7502985,73.4477875 L25.7227394,73.4171108 C24.217669,71.68742 22.1865423,70.5321793 19.8915423,70.2747546 Z M4.9001831,59.4172039 C4.60271831,59.384656 4.30588732,59.368382 4.01370423,59.3825425 C3.31187324,59.4163585 2.45708451,59.8847108 2.76511268,60.7309573 C3.01208451,61.4089691 3.82166197,61.4358106 4.22138028,61.0741902 C4.38764789,61.0782059 4.55370423,61.0891961 4.71912676,61.1061041 C5.16046479,61.1515444 5.59757746,61.2356618 6.03257746,61.3214701 C7.09504225,61.5304955 7.54990141,59.9011961 6.48194366,59.6909025 L6.0095757,59.5974065 C5.85041197,59.5662587 5.68979577,59.5357714 5.52849296,59.5078732 C5.43197384,59.4598665 5.32846996,59.4275428 5.21784827,59.4192872 L5.16194366,59.4172039 L4.9001831,59.4172039 Z M-3.49664789,46.2997479 L-3.59591152,46.2862892 C-5.02302039,46.1036364 -7.31389169,46.2717064 -7.48707042,48.0890395 C-7.58277465,49.0954896 -6.12925352,49.1586834 -5.84235211,48.298065 C-4.7885493,48.1080611 -3.72608451,48.0717088 -2.67946479,48.1871061 C-2.28016901,47.7813135 -2.277,47.0012196 -2.94164789,46.8065659 C-3.0354507,46.5542137 -3.23129577,46.3380023 -3.49664789,46.2997479 Z M29.1241268,43.2303076 C28.794338,42.9274427 28.253493,42.8872861 27.9289859,43.2303076 C27.7420141,43.4277088 27.5858873,43.6470904 27.4622958,43.8884524 L27.3800579,44.051427 C27.3661221,44.0784798 27.3518732,44.1053683 27.3370141,44.131928 C27.309338,44.1811726 27.2782817,44.2280924 27.2480704,44.2758575 L27.2277359,44.2958301 C27.2196549,44.30402 27.2101479,44.3139006 27.1988451,44.3259476 C26.894831,44.6474114 26.856169,45.2068556 27.1988451,45.5215562 C27.5286338,45.8244211 28.0692676,45.8645777 28.3939859,45.5215562 C28.5807465,45.324155 28.7368732,45.1049847 28.8606761,44.8634114 L28.9427574,44.7005933 C28.956662,44.6735718 28.9708873,44.6467068 28.9857465,44.6201472 C29.0134225,44.5706912 29.0446901,44.5237714 29.0746901,44.4760063 L29.108351,44.4424214 C29.1131805,44.4374216 29.1184225,44.4319397 29.1241268,44.4259162 C29.4281408,44.1046638 29.4665915,43.5450082 29.1241268,43.2303076 Z M11.7946901,41.0286716 C10.6039859,40.1845386 9.18807042,40.1452274 8.09349296,41.1607656 C7.30356092,41.8937702 8.46415434,43.0681942 9.26067621,42.3813909 L9.2886338,42.3563742 C9.31757746,42.3293213 9.34694366,42.3056501 9.37609859,42.2830356 C9.51891549,42.4047734 9.70039437,42.4819162 9.90785915,42.4821276 C9.96208451,42.4822685 10.016216,42.4821276 10.0703161,42.4832705 L10.1514507,42.4861432 L10.1949718,42.4897362 L10.2004648,42.490793 L10.2384768,42.5069558 C10.3079748,42.5383196 10.4038879,42.5867276 10.2722958,42.5043194 C10.301662,42.5197479 10.3291268,42.5379241 10.3570141,42.5556775 L10.4056056,42.5998497 C10.7241972,42.9012352 11.2753944,42.9409691 11.591662,42.6076697 C12.1517324,42.4182998 12.4489859,41.4921628 11.7946901,41.0286716 Z M23.4361044,38.2589808 L23.4577183,38.2521628 C24.5018028,37.9539476 24.0579296,36.3221119 23.0083521,36.6215953 C21.8947606,36.9396775 21.363,37.9763507 21.1403239,39.0381746 C21.0467324,39.4847577 21.2713099,39.9520532 21.7306056,40.0782294 C22.1501831,40.1934153 22.6760282,39.9366247 22.7702535,39.4877166 C22.8363227,39.1720362 22.9125187,38.9042152 23.0331269,38.6556713 L23.1061189,38.5137953 C23.1402607,38.4491273 23.152165,38.4383926 23.2673662,38.3377597 C23.2867089,38.3208517 23.3746588,38.2798967 23.4361044,38.2589808 Z M5.75180282,29.7434114 L5.58850429,29.7061522 C4.57135229,29.483256 3.22132686,29.3668544 2.60708451,30.3755601 C2.04722535,31.2945112 3.4595493,32.1310356 4.04116901,31.2623859 C4.05004225,31.2621041 4.06023005,31.262198 4.07210798,31.2631687 L4.09123944,31.2653448 L4.35194366,31.2442098 C4.67666197,31.2418849 4.98743662,31.2993722 5.30243662,31.3739789 C6.36004225,31.624429 6.81152113,29.9944955 5.75180282,29.7434114 Z M42.2664507,23.2435444 C43.0365211,22.4731726 41.8418028,21.2771413 41.0715211,22.0481472 C40.4624366,22.6574701 39.8749014,23.27102 39.4789859,24.0451961 C39.2713099,24.4514114 39.3729296,24.9624564 39.7821549,25.2019162 C40.1596901,25.4227773 40.7296901,25.3065346 40.9384225,24.8986286 C41.2815211,24.2275914 41.7146197,23.7960141 42.2664507,23.2435444 Z M32.5494085,21.2213448 C31.7886338,21.6719436 31.296169,22.4142059 30.9972254,23.2733448 C30.8472254,23.7044994 31.1681408,24.1980023 31.587507,24.3131883 C32.0381805,24.4370593 32.449993,24.1729631 32.6120477,23.7628151 L32.6269437,23.7226755 C32.7070141,23.4929378 32.8350423,23.221564 32.9932817,23.0167656 C33.128493,22.8419789 33.3387042,22.6669808 33.4971549,22.6088595 C33.8780704,22.4689456 34.1480704,22.1235992 34.1127887,21.7203429 C33.4863803,21.9369769 32.9047606,21.676382 32.5494085,21.2213448 Z M9.77539437,17.5438497 C9.00785915,16.8311765 7.97814085,16.7367029 7.04771831,17.1680689 C6.63342254,17.359975 6.52969014,17.9574622 6.7445493,18.324789 C6.993,18.7498145 7.48504225,18.8208282 7.90060563,18.6280767 C7.79391549,18.6775327 7.98659155,18.6122254 8.06983099,18.5883429 C8.08047887,18.5932885 8.21998521,18.5869353 8.26810986,18.5876181 L8.32599296,18.5912753 C8.32646831,18.5916716 8.31226056,18.5914074 8.28342254,18.5904564 C8.32398592,18.5996149 8.36407981,18.6105581 8.40357903,18.6231609 L8.45393277,18.6406002 C8.42856019,18.6353159 8.54273559,18.7097653 8.57448977,18.7344843 L8.58025352,18.739247 C9.37673239,19.4787616 10.574831,18.2859006 9.77539437,17.5438497 Z" id="ðŸ–-Ink" fill="#000000"></path>
                    </g>
                    <g id="face/Cute" transform="translate(112.183099, 77.354207)" fill="#000000" fill-rule="evenodd">
                        <path d="M37.5070775,43.3980564 C38.2319366,42.1185417 40.3948944,42.3265104 40.7255282,43.8188548 C41.3963028,46.8441229 37.7901761,49.6377511 35.0513028,49.7074967 C32.3295423,49.7766082 29.275669,47.4591523 29.6696831,44.5319507 C29.7670775,43.8078646 30.733838,43.8957863 31.0634155,44.3497667 L31.1913706,44.5239266 C32.0865256,45.7269681 33.2676744,46.9721687 34.9289789,46.678847 C35.6175,46.5575319 36.2428521,46.1272227 36.6590493,45.5732736 C37.1610211,44.9047726 37.1058803,44.1065025 37.5070775,43.3980564 Z M20.2003099,21.2653268 C20.5691831,21.1636673 20.9414366,21.2029785 21.2682676,21.342047 C21.9979859,21.4758317 22.607493,22.0845205 22.8217183,22.7794403 C22.8386197,22.8396047 22.857493,22.8990176 22.8782754,22.9578043 L22.9108732,23.0455303 L22.8234085,22.8227671 C22.8637606,23.0421487 23.0422817,23.2727319 23.106507,23.4929589 C23.1855211,23.7636986 23.2047465,24.0712133 23.1781268,24.3692172 C23.4100986,24.3715421 23.6420704,24.379362 23.8736197,24.3994403 L24.0973742,24.4194999 C25.3487071,24.5358404 26.7224956,24.749241 27.4643239,25.8309159 C27.8809437,26.4387593 27.4898873,27.5331311 26.7244648,27.6502192 C25.5462254,27.830501 24.5312958,27.178274 23.3570704,27.0476595 C22.2470704,26.9240196 21.0855211,26.9948219 19.9898873,27.1953933 C17.7278704,27.6090989 15.6492649,28.5263118 13.4449116,29.1018409 L13.1448169,29.1780705 L13.1448169,29.1780705 L13.1452394,29.176591 C12.767493,29.2678943 12.3386197,28.7424775 12.7123521,28.4351742 C14.478338,26.9838317 16.7393239,25.8076673 18.9667183,25.0914012 C18.6422113,24.5750724 18.5418592,23.8949472 18.7636901,23.3405753 C18.7980423,23.2256853 18.8406845,23.1139909 18.8856389,23.0026161 L18.9793944,22.7735225 L18.9793944,22.7735225 C18.9884789,22.6655225 19.0091831,22.5587906 19.0391831,22.4541722 L19.0440423,22.4222583 L19.0440423,22.4222583 L19.0467887,22.4241605 L19.0467887,22.4241605 C19.2126338,21.8850059 19.6457324,21.4183444 20.2003099,21.2653268 Z M42.7309437,21.3487679 C43.2139459,20.8653709 43.8926359,20.9368065 44.3966638,21.3172489 L44.4635493,21.3696916 L44.4635493,21.3696916 C44.9386901,21.5808305 45.3318592,22.0422082 45.5900282,22.4697699 C45.8581268,22.9138168 46.0362254,23.3661065 46.0431972,23.8549597 C47.2123521,23.858764 48.3322817,24.2096055 49.190662,25.1539186 C49.4678451,25.4586857 49.6571408,25.9287288 49.5046056,26.3419186 L49.4137606,26.587719 L49.4137606,26.587719 C49.1255189,27.3681068 47.8296599,27.8173376 47.3892207,26.8996047 L47.3689014,26.8548658 C46.9009437,25.7651436 45.1045352,25.8794841 44.1498169,25.9908658 C43.4843239,26.068854 42.8270704,26.2343413 42.1843944,26.4196955 C41.9579683,26.4850027 41.7335625,26.5558976 41.5093944,26.6282784 L41.2852394,26.7010027 C41.165662,26.7396798 40.5428451,27.0780517 40.9303099,26.9979499 C41.0344648,26.9763922 41.1128451,27.1281417 41.0065775,27.1790771 C40.5447465,27.3999382 40.0520704,26.9601182 40.0829155,26.4638677 C40.1363324,25.602442 41.5037388,25.1301304 42.1617045,24.8330929 L42.2010845,24.8151241 C42.453338,24.6984587 42.7176338,24.5866544 42.9903803,24.4828814 C42.837,24.2546231 42.7102394,24.0010027 42.6048169,23.7287836 C42.5050986,23.4717816 42.4385493,23.2219656 42.402,22.9486896 C42.3660845,22.8151162 42.3660845,22.6815429 42.402,22.5477581 L42.407493,22.5095037 L42.407493,22.5095037 C42.3889014,22.4211593 42.3800282,22.329856 42.3812958,22.2379186 L42.377493,22.2022004 L42.3812958,22.2022004 C42.3941831,21.8803139 42.522,21.5577933 42.7309437,21.3487679 Z M35.0137183,30.5223851 C36.8692817,31.0959898 39.9305493,32.6585025 38.9635775,35.0702207 C37.6133662,37.2851718 34.0325915,35.6573519 32.2974507,34.9417198 C30.738507,34.4251796 29.9268169,36.610753 31.4342113,37.2695319 C43.890338,42.1992775 43.844493,29.1887648 35.4654085,29.3798254 C34.5428028,29.4007491 34.5138592,30.3317472 35.0137183,30.5223851 Z M18.53381,13.5578869 L18.850331,13.4654865 C20.4950493,12.9888916 22.173993,12.1658935 23.6342746,13.4500579 C24.2076549,13.9543397 24.3257535,15.0022145 23.9154718,15.631193 C22.9808239,17.0643593 21.5946972,16.8454004 20.0851901,16.9675609 C18.9358944,17.060555 17.8037113,17.3982928 16.7308944,17.8203593 C15.8541338,18.1654943 15.0409648,18.6513886 14.2732183,19.1932908 C13.518993,19.7261049 13.0037113,20.5590364 12.2300493,21.0385902 C11.9465282,21.2144337 11.6190634,21.0335178 11.5172324,20.7484063 C11.1563873,19.7370951 11.7661056,18.477236 12.2820211,17.6155609 C12.9118099,16.5643045 13.8684296,15.7045315 14.8970915,15.0539953 C16.0235054,14.3415172 17.2690892,13.930142 18.53381,13.5578869 L18.53381,13.5578869 Z M42.4995211,12.4697089 C45.2795915,12.4688642 47.954662,14.015737 49.5095915,16.2833143 C50.0379718,17.0536861 49.6507183,18.1949777 48.8922676,18.638602 C48.0413977,19.1365184 47.1316392,18.7779826 46.5709117,18.0644799 L46.5376901,18.0212477 C45.6459296,16.8332477 44.4964225,15.8976 43.1337465,15.2884885 C42.4688873,14.9911186 41.7336761,14.7499679 41.0145211,14.6275961 L40.7821048,14.587754 C40.4563606,14.5331479 40.0784789,14.4810035 39.7838873,14.5320658 C39.6260704,14.5527781 39.4811408,14.6049816 39.3476197,14.6844493 C39.4118451,14.8247859 39.246,14.9938661 39.092831,14.9097487 C38.4019859,14.5301636 38.4867042,13.8529973 39.057338,13.326735 C39.8645915,12.5821479 41.4569155,12.4699209 42.4995211,12.4697089 Z" id="ðŸ–-Ink"></path>
                    </g>
                    <g id="facial-hair/*-None" transform="translate(104.577451, 109.479380)"></g>
                    <g id="accessories/*-None" transform="translate(88.521127, 88.978474)"></g>
                </g>
            </g>
        </g>
    </g>
</svg>