<?xml version="1.0" encoding="UTF-8"?>
<svg width="240px" height="324px" viewBox="0 0 240 324" version="1.1" xmlns="http://www.w3.org/2000/svg" xmlns:xlink="http://www.w3.org/1999/xlink">
    <!-- Generator: Sketch 62 (91390) - https://sketch.com -->
    <title>peep-14</title>
    <desc>Created with Sketch.</desc>
    <g id="Introduction" stroke="none" stroke-width="1" fill="none" fill-rule="evenodd">
        <g id="variations" transform="translate(-366.000000, -2054.000000)">
            <g id="images" transform="translate(126.000000, 110.000000)">
                <g id="a-person/bust" transform="translate(240.000000, 1944.000000)">
                    <g id="body/Striped-Pocket-Tee" transform="translate(31.056338, 135.052838)" fill-rule="evenodd">
                        <path d="M86.4419577,-6.19333437 C97.7777324,-7.00539689 113.319423,-4.7575689 116.598085,8.17278598 C117.614915,12.8779655 119.618366,14.9431482 122.984282,18.0203932 C144.349352,45.3767626 69.8063239,49.9748523 65.9743521,23.2989054 C57.9013944,26.2402776 49.113507,26.863134 41.0356901,29.8360404 C36.6546338,31.4550861 32.6819577,34.0097921 28.8751268,36.6809 C13.3513944,47.7109397 -1.95261972,59.0558996 -17.421,70.1650927 C-11.4351549,72.9225497 -0.0545915493,83.450791 -4.69191549,90.5254915 C-5.77217157,91.9035883 -7.37569154,92.8536197 -8.79414698,93.860923 L-9.5421324,94.3951864 C-11.1512707,95.5487527 -13.8600581,97.5149541 -15.3579718,98.5834713 L-15.634221,98.7846702 C-15.7425352,98.8630865 -15.8647283,98.9511522 -15.9750845,99.0300316 C-5.17297183,114.829166 7.46907042,129.406926 21.492169,142.422361 C22.6862535,143.532835 22.197169,146.015795 20.469,146.304896 L18.410146,146.607166 C11.7622757,147.57577 4.98808891,148.447525 -1.71114085,147.921613 C-8.23571831,147.211561 -12.1674085,141.43379 -16.6276901,137.248399 C-25.5345211,128.140896 -33.8257183,118.425987 -41.3776901,108.163142 L-41.5349378,107.946622 C-43.8853486,104.733454 -47.0050744,101.449595 -47.2333944,97.3005099 C-47.6498028,96.053104 -46.5539577,94.2655929 -45.501,93.4152235 L-45.1415247,92.8962069 C-39.4940448,84.7708528 -33.1024525,76.9349126 -25.094662,71.0505942 C-25.1244507,70.1737699 -24.7192394,69.2520779 -23.9168451,68.6711262 L9.5496338,44.4427954 L9.5496338,44.4427954 C18.1845634,38.4980406 26.2104085,31.511594 35.5699859,26.7111765 C45.1404085,22.1014465 55.9406197,21.9202827 65.7482958,18.0730916 C65.9561831,15.3001848 71.7835775,14.5924608 71.5995634,15.0206085 C77.7480845,11.3080203 80.9132958,6.89067111 81.8895634,2.8307818 C82.8656197,-1.22910752 81.6525211,-4.93153694 86.4419577,-6.19333437 Z M169.201965,80.7921275 C179.550275,65.215215 189.414148,82.4496917 193.722317,92.8369808 C198.812387,107.05199 188.271401,124.537895 181.461824,136.792484 C178.953655,140.195654 175.654923,147.373847 171.233937,147.894269 C160.095908,147.848767 148.942458,147.064217 137.797669,146.830567 C130.601472,145.044537 140.697951,134.226138 147.672317,138.177667 C149.785415,138.968566 150.84112,141.368563 152.901613,142.138509 C153.652348,142.29884 153.704124,141.963849 154.009506,141.215957 L154.05281,141.11142 C154.597246,139.817242 155.125204,138.51608 155.661401,137.218515 C160.198796,126.040327 164.995627,114.960552 169.765204,103.885645 C170.784148,101.481203 169.355134,99.5000416 167.497458,98.0689322 C166.074993,96.8977167 159.960275,94.0382492 165.721542,95.2968721 C163.503021,90.1455555 166.168796,84.9169903 169.201965,80.7921275 Z M143.509923,59.4689573 C144.506261,59.344513 145.785908,60.3489563 145.939289,61.3220768 C147.210197,69.3883863 145.794182,77.3632227 144.096639,85.2537341 L143.784164,86.6985363 C143.158007,89.5764758 142.458353,92.5109262 140.896754,95.0333592 C139.303162,97.6077476 136.892387,99.5478511 134.124782,100.727321 C125.246261,104.266787 114.20457,100.766474 107.673232,94.1491274 C103.494782,88.4236316 107.168092,81.2310476 107.869289,74.9557113 C107.206437,73.2648301 106.962174,71.3090076 106.578875,69.5655732 L106.532176,69.3574111 L105.042951,62.8537152 C104.714641,61.4192195 105.75957,59.4562589 107.476754,59.6532957 C119.449711,61.0270507 131.551542,60.9652518 143.509923,59.4689573 Z" id="ðŸŽ¨-Background" fill="#FFFFFF"></path>
                        <path d="M185.323901,78.7541495 C185.287986,78.5937346 185.480239,78.4709401 185.604887,78.5916211 C187.711225,80.6224861 189.198549,83.2178677 190.831648,85.6230341 C192.386577,87.9140712 194.078831,90.1163413 195.23869,92.6443022 C196.316155,94.9943061 197.011225,97.3783374 197.218268,99.961038 C197.42531,102.524928 197.157,105.094948 196.704887,107.620373 C195.815451,112.595559 193.914042,117.306557 191.826718,121.882502 C189.79733,126.330816 187.504249,130.652507 185.082701,134.895676 L184.214849,136.410547 C183.156233,138.254929 182.085982,140.095841 180.940099,141.88258 C179.514042,144.105985 178.212634,146.401249 176.332352,148.256905 C174.997141,149.577844 172.480944,148.256905 173.089394,146.369335 C173.353479,145.547394 173.560521,144.773641 173.97038,144.010666 C174.280944,143.429453 174.631648,142.865148 174.961225,142.2926 C175.62038,141.147081 176.273197,139.997335 176.932352,138.851817 C178.316155,136.444537 179.773901,134.081641 181.145028,131.665907 C183.523901,127.476944 185.769676,123.20957 187.755592,118.817923 L187.989319,118.299545 C189.816614,114.232749 191.54819,110.020307 192.350662,105.620999 C193.195732,100.986298 192.439394,96.6176877 190.79362,92.2615468 C189.942211,90.0085526 188.985169,87.8062826 187.990099,85.6124665 L187.798843,85.1934656 C186.837848,83.0995033 185.81906,81.0169186 185.323901,78.7541495 Z M83.038669,-1.41534951 C83.0576831,-1.49756477 83.1971197,-1.50390528 83.2097958,-1.41534951 C83.8013451,2.52041566 82.4851479,6.68380509 80.3407817,9.95762114 C79.1703592,11.7456446 77.7274014,13.3603609 76.0266972,14.6580517 L75.8942697,14.7580544 C74.156893,16.0573968 71.8094261,17.3121411 69.6527535,16.469535 C69.5851479,16.4437503 69.5217676,16.4143726 69.4626127,16.3807679 C69.7055704,16.7567601 69.9295141,17.1519851 70.1576831,17.5472102 C70.8358521,18.7244313 71.4443028,19.9439225 72.1055704,21.1317112 C73.288669,23.2557816 74.6978239,25.1558207 76.4788099,26.8191476 C83.6005352,33.468902 93.6004415,35.0494181 102.991602,34.9737255 L103.654991,34.9674447 C107.780132,34.9384077 113.17519,35.1490819 116.359796,32.1622943 C118.071063,30.5581456 119.013317,28.2774646 119.864725,26.1364861 C120.701345,24.0377777 121.27388,21.8714372 121.968951,19.7367992 C120.517542,18.7415507 119.186556,17.5262865 118.140782,16.1058012 C117.050641,14.6263491 116.226697,12.9609088 115.751345,11.1834528 L115.681228,10.9178892 C115.313628,9.50049835 114.944049,7.62549746 115.535852,6.28646654 C115.603458,6.13218082 115.856979,6.14274834 115.92881,6.28646654 C116.247824,6.92685793 116.309092,7.64967593 116.50557,8.33445088 C116.733739,9.13124149 116.991486,9.92380509 117.331627,10.6783256 C117.988669,12.1408697 118.856979,13.5315546 119.898528,14.7489323 C120.758387,15.7568618 121.690077,16.6827875 122.754866,17.4605566 C123.382331,16.3763295 124.837965,16.2304978 126.056979,16.5876798 C127.691002,17.0651994 129.302743,17.6783217 130.878275,18.3260412 L131.192894,18.4560164 C132.749937,19.1027483 134.509796,19.6966427 135.967542,20.5779734 C136.852754,21.000674 137.702049,21.4254881 138.500641,21.8016916 C142.479796,23.671719 146.400059,25.6558943 150.302654,27.6786099 L151.138669,28.1126114 C152.77388,28.964353 154.394303,29.8245487 155.816134,31.0123374 C157.263317,32.2212611 158.387261,33.8740204 159.443599,35.423218 C161.858387,38.9654489 164.133739,42.609128 166.521063,46.1703804 C171.34219,53.3562904 176.163317,60.5422004 181.011908,67.7112023 C182.184444,69.4465996 183.506979,71.1393041 184.559092,72.9484626 C185.566838,74.6775194 185.539373,76.4526505 185.342894,78.3822787 L185.306086,78.7366923 C184.929368,82.2762418 184.281649,85.6757046 182.296415,88.7109675 C179.171768,93.4832571 174.249232,96.4548423 169.041486,98.5005018 C169.677401,98.9741378 170.275289,99.4856055 171.033739,99.8112963 C172.199937,100.309872 173.444303,100.56793 174.70557,100.671281 C176.051345,100.779281 177.568246,100.443022 178.658387,101.358169 C179.095711,101.723594 179.108387,102.603022 178.658387,102.968658 C177.610334,103.82442 176.255655,103.579145 174.978578,103.43576 L174.902049,103.427288 C173.716838,103.296251 172.548528,103.076447 171.435148,102.641065 C171.1605,102.533065 170.887965,102.412807 170.62388,102.279656 C170.632331,102.302905 170.636556,102.330592 170.632331,102.359969 C170.442098,103.816081 170.029839,105.192866 169.594449,106.584451 L169.318246,107.466193 C168.756275,109.266897 168.190077,111.063375 167.606979,112.859852 C166.497336,116.279825 165.288686,119.667382 164.075742,123.050784 L163.028866,125.970269 C161.953441,128.965398 160.864505,131.956368 159.661204,134.901574 C158.917542,136.718975 158.169655,138.536799 157.42388,140.352298 C156.695007,142.125527 156.088669,144.040361 155.184444,145.72905 C154.440782,147.119735 152.412613,146.124063 152.737965,144.695547 C153.164725,142.821081 153.969655,140.960987 154.584444,139.137034 C155.209796,137.285605 155.822472,135.432063 156.458387,133.58465 C157.564303,130.375691 158.789232,127.209434 160.020404,124.04612 L161.240589,120.910305 C162.437573,117.837966 163.648637,114.768361 164.942894,111.73568 L165.084337,111.403289 C166.429154,108.231105 167.817351,104.664089 170.2605,102.205895 C170.29219,102.172079 170.336556,102.15496 170.380923,102.150733 C169.780923,101.825253 169.218951,101.430028 168.724585,100.962944 L168.700491,100.938602 C168.505088,100.731643 167.697824,99.7117552 167.437965,99.1009479 C167.099937,99.2214176 166.761908,99.3376603 166.42388,99.4515781 C165.834444,99.6504587 165.346415,99.5067405 165.002049,99.1918286 L164.34609,99.597854 C163.644817,100.026231 162.890782,100.432775 162.116134,100.45359 C161.140077,100.478952 160.373176,99.9400086 159.851345,99.1453315 C159.382331,98.4351945 159.103458,97.667993 158.509796,97.0318286 C157.926134,96.4065135 157.250453,95.8787765 156.560049,95.3749001 L155.74628,94.7825895 C154.25391,93.6927732 152.807138,92.5915634 151.60557,91.1520634 C151.001345,90.4250184 150.19219,89.5627092 149.824585,88.6896211 C149.752754,88.5209636 149.708387,88.3624509 149.699937,88.2079538 C149.619655,88.7532376 149.537261,89.3006348 149.454866,89.8459186 C148.301345,97.5200477 147.369655,105.247014 147.071768,113.007797 C146.925993,116.83514 146.8605,120.667132 147.031627,124.496588 C147.116134,126.409519 147.25557,128.320126 147.447824,130.226506 C147.542894,131.181809 147.64219,132.134999 147.758387,133.086075 L147.78521,133.306366 C147.81881,133.597813 147.840782,133.879738 147.81543,134.147054 C148.745007,134.605472 149.279514,135.763883 149.651345,136.668463 C149.934444,137.357465 149.714725,138.027445 149.258387,138.511437 C149.803458,139.00811 150.289373,139.591437 150.69712,140.259093 C150.779514,140.394568 150.602049,140.500243 150.496415,140.415703 C149.826697,139.883101 149.106275,139.445605 148.354162,139.109559 C147.959092,139.259617 147.528106,139.299774 147.130923,139.189872 C146.699937,139.071515 146.328106,138.784079 146.059796,138.418654 C143.92388,138.067602 141.703458,138.496643 139.780923,139.83449 C139.381627,140.113472 139.020359,140.428384 138.675993,140.77056 C138.616838,140.830161 138.55557,140.906036 138.494303,140.980009 L138.913721,141.14122 C139.087491,141.207102 139.230118,141.258689 139.284444,141.269559 C139.650641,141.344236 140.022472,141.384157 140.394303,141.416251 L140.951345,141.461887 C143.091486,141.639422 145.225289,141.6986 147.21543,142.594725 C147.633739,142.782827 147.487965,143.427445 147.092894,143.535022 C145.639655,143.929543 144.197458,143.898954 142.718208,143.793458 L142.400641,143.769832 C141.025289,143.664157 139.548528,143.670498 138.206979,143.290067 C138.528106,144.169073 138.090782,145.316917 136.749232,145.496564 C132.720359,146.033394 128.666134,145.779985 124.633035,145.424705 C120.559796,145.06541 116.488669,144.725136 112.404866,144.511883 C99.195067,143.816667 85.9650228,143.950131 72.7433781,144.138874 L65.2717649,144.247104 C59.3132468,144.331159 53.3536826,144.39664 47.3953389,144.350929 L44.6063517,144.324928 C43.427627,144.313493 42.2482833,144.299149 41.0708997,144.264505 L40.3647254,144.241144 C38.9619085,144.19042 37.1048662,144.40177 35.8858521,143.570952 C34.8802183,142.886388 34.6562746,141.630968 35.2626127,140.618811 C35.4379648,140.326936 35.6788099,140.066975 35.9302183,139.813355 C36.4457113,135.406913 36.7351479,130.978913 37.0309225,126.553238 C38.0576831,111.065699 37.4576831,95.6580517 35.0893732,80.3267014 C28.7344437,82.2692219 22.4766972,84.7058795 16.3795141,87.3202826 C13.0816268,88.734216 9.80064085,90.2009871 6.5576831,91.7396172 C3.59782394,93.1450967 0.625288732,94.9014176 -2.53738732,95.8144509 C-2.82488732,96.0696564 -3.22686429,96.1911237 -3.58340619,96.0778457 L-3.62964085,96.0617307 L-3.63175352,96.0617307 C-3.95710563,96.1378168 -4.31837324,96.0913198 -4.67330282,95.877856 C-4.7451338,95.8343178 -4.81696479,95.7905918 -4.88879577,95.7456133 L-4.99654225,95.6770732 C-6.10992254,94.9753902 -7.22964085,94.1109675 -8.01766901,93.054216 C-8.97471127,93.9418873 -10.0035845,94.7557973 -11.0155563,95.5798521 C-12.1141479,96.4759773 -13.2085141,97.3763295 -14.2944296,98.2851358 C-14.7254155,98.6465448 -15.2007676,98.9910458 -15.5810493,99.4074059 L-15.6362919,99.4685252 C-15.6451338,99.4784665 -15.6535845,99.488353 -15.661331,99.4982865 C-14.0155563,100.563492 -12.5747113,102.180322 -11.2838662,103.585801 C-9.89773944,105.094208 -8.55952817,106.650721 -7.23226901,108.213276 L-5.94738067,109.728929 C3.13846479,120.462073 12.3172606,131.584305 24.0802183,139.473081 C25.9393732,140.720048 24.166838,143.757151 22.3203592,142.482709 C18.825993,140.075429 15.5196549,137.401848 12.3443028,134.588564 C6.77951408,129.6622 1.77247183,124.13539 -2.91555634,118.376095 C-5.28809155,115.461363 -7.59090845,112.475406 -9.84724648,109.469793 L-10.6130493,108.450324 C-11.6335563,107.090581 -12.6486549,105.72678 -13.6204859,104.331868 L-13.8238227,104.039516 C-14.6762617,102.808986 -15.5827707,101.426584 -16.1324577,100.009754 C-16.3437254,100.223218 -16.5824577,100.402654 -16.9310493,100.53813 C-17.5268239,100.770615 -18.2578099,100.282396 -18.4035845,99.7011828 C-18.7585141,98.2914763 -17.533162,97.4524157 -16.5359789,96.7040243 C-15.3254155,95.7996564 -14.0916127,94.9267796 -12.8556972,94.0581299 L-12.41423,93.7458839 C-10.8686914,92.6493943 -9.31503582,91.523948 -7.6310493,90.6575037 C-7.58034507,90.5898716 -7.51907746,90.5264665 -7.44935915,90.4715155 C-7.36907746,90.4081104 -7.29090845,90.3468188 -7.21062676,90.2855272 C-9.22189437,87.0222787 -11.4275282,83.8858403 -13.8887958,80.9224978 C-15.7395,78.693175 -17.7042887,76.5646661 -19.783162,74.5483843 L-20.7170505,73.6438178 C-22.1296641,72.2790411 -23.5984629,70.8947142 -25.1662606,69.7084626 L-25.6570606,70.2651424 C-26.3124296,71.0066607 -26.9742887,71.7424978 -27.674007,72.4391084 C-29.0514718,73.8086583 -30.4099225,75.2058951 -31.7620352,76.6027092 C-34.007508,78.9269586 -36.1769245,81.3226357 -38.3394671,83.721729 L-39.4204859,84.9212454 C-41.6725986,87.4215194 -44.0852746,89.8755076 -46.1324577,92.546764 L-46.2346951,92.6819758 C-47.1284508,93.8811442 -47.7646729,95.2082982 -47.3493592,96.7317112 C-46.9486322,98.2002548 -45.9958835,99.5025333 -45.1746779,100.770716 L-45.0930211,100.897425 C-41.7402042,106.122005 -38.1486549,111.213433 -34.3014718,116.085269 C-26.5965423,125.843312 -17.8078099,135.091789 -7.32048592,141.876134 C-5.86696479,142.816643 -7.22541549,145.154177 -8.6810493,144.203101 C-14.8056972,140.198013 -20.4317535,135.387891 -25.6078099,130.222279 C-30.3592183,125.481692 -34.6648521,120.261339 -38.7000634,114.903609 C-40.6669648,112.289206 -42.5514718,109.619852 -44.3578099,106.891531 C-46.1092183,104.243101 -48.1352746,101.519007 -49.404993,98.5979342 C-50.0698553,97.0614176 -50.3155563,95.3980908 -49.7704859,93.7791476 C-49.270614,92.2912415 -48.2820445,91.0557292 -47.2536232,89.8933876 L-47.1571056,89.784627 C-44.7930211,87.1279538 -42.3866831,84.5029832 -39.9592183,81.9033746 C-37.5233028,79.2953119 -34.9754155,76.7802434 -32.3747113,74.3391476 C-30.3317535,72.4179734 -28.2021761,70.7248462 -25.9247113,69.1568384 C-26.1296408,69.0110067 -26.3345704,68.8715155 -26.5437254,68.7362513 C-27.1796408,68.3220047 -27.3402042,67.436447 -26.7824577,66.8742552 C-25.2592183,65.3354137 -23.5035845,63.9975663 -21.8514718,62.5967366 C-20.2986549,61.2798129 -18.745838,59.9609871 -17.1930211,58.6421613 C-14.0324577,55.9622395 -10.8718944,53.2802043 -7.71133099,50.5981691 C-2.03457042,45.7814959 3.6105,40.9310067 9.26824648,36.0931984 C11.6274014,34.0765644 14.0085634,32.0848814 16.3836123,30.0875722 L20.6033013,26.5350771 L20.6033013,26.5350771 L22.6671365,24.80172 C23.7245659,23.9157179 24.8044988,23.0395611 26.0069789,22.3638834 C28.8363573,20.7739319 32.2379105,20.0860646 35.3552224,19.2436874 L35.5626127,19.1872885 C39.0590915,18.230083 42.5745845,17.3295194 46.1090915,16.5263883 C49.6478239,15.7232571 53.2013451,14.9919851 56.7696549,14.3302474 C59.9766972,13.7344509 63.2597958,13.2229832 66.5302183,13.1468971 C67.3414859,12.8383256 68.3597958,12.730537 69.1583873,13.0602434 C69.4879648,13.1976211 69.832331,13.3984039 70.138669,13.6520243 C71.7379648,13.0898325 73.3161338,12.8214176 74.8097958,11.8703413 C76.3013451,10.9215898 77.6217676,9.67441174 78.7330352,8.30063483 C81.0295141,5.45585988 82.2316268,2.09539022 83.038669,-1.41534951 Z M119.801345,94.9162121 C118.533739,94.8276564 117.392894,95.3515937 116.2605,95.9095585 C116.898528,96.1864274 117.536556,96.4611828 118.174585,96.7338247 L122.421063,98.5472102 L122.421063,98.5472102 C123.82388,99.1453315 125.309092,99.6652532 126.64219,100.402654 C126.737261,100.455492 126.813317,100.519108 126.870359,100.593081 C128.256275,99.7056211 129.722472,98.9130575 131.127401,98.0695585 C131.448528,97.8772297 131.771768,97.684901 132.095007,97.4925722 C130.421768,98.0526505 128.706275,98.3337464 126.889373,97.8074841 C124.466134,97.1079147 122.361908,95.0958599 119.801345,94.9162121 Z M123.274585,90.6638442 L123.046884,90.5089884 C121.817357,89.6653245 120.350268,88.5808006 118.856979,89.3386779 C118.153458,89.6958599 117.576697,90.2728462 116.883739,90.6575037 C116.186556,91.0463883 115.419655,91.3443922 114.64219,91.5240399 C113.351345,91.8220438 111.872472,91.8664274 110.484444,91.5787796 L110.50557,93.4557816 L110.50557,93.4557816 C111.55557,93.8890497 112.599232,94.3330967 113.642894,94.7809479 C114.320487,94.5492312 114.972623,94.2708252 115.658316,93.9654089 L116.121063,93.7580125 C117.441486,93.1639068 118.774585,92.766991 120.234444,92.9548814 C122.983035,93.3078364 125.059796,95.3515937 127.687965,96.0321417 C130.909796,96.8693002 133.816838,94.4639225 136.861204,93.8700282 C137.363176,93.7711162 137.880549,93.7132908 138.394842,93.7042556 L138.566134,93.7030614 L138.64219,93.6586779 C139.29712,93.2740204 140.277401,92.9064822 140.733739,92.2595389 C141.230218,91.557856 141.272472,90.3827483 141.435148,89.5584822 C141.452049,89.4760556 141.468951,89.3915155 141.483739,89.3090888 C141.196415,89.3090888 140.904866,89.323672 140.609092,89.3788344 C139.679514,89.5500282 138.804866,89.8797346 137.938669,90.2476955 C136.301345,90.9428266 134.699937,91.7353902 132.975993,92.1982474 C131.287965,92.6524391 129.52388,92.8682278 127.785148,92.6167209 C126.088669,92.3713432 124.679514,91.6064665 123.274585,90.6638442 Z M123.539093,84.0651883 L123.284584,83.901217 C122.613124,83.472632 121.843035,83.0286458 121.020359,83.1862708 C120.285148,83.3278755 119.653458,83.9133159 119.013317,84.2747249 C117.608387,85.0672885 116.032331,85.5005566 114.424585,85.6104587 C113.087261,85.7013393 111.699232,85.5385996 110.412613,85.1412611 L110.456979,89.2966192 L110.456979,89.2966192 C110.928106,89.4464665 111.416134,89.5542552 111.929514,89.5922982 C113.488669,89.7085409 115.009796,89.3344509 116.317542,88.4742552 L116.979117,88.0348693 C118.111197,87.2907549 119.173465,86.7001921 120.671768,86.9717659 C122.154866,87.242083 123.399232,88.1931593 124.611908,89.0216524 L124.810761,89.1552342 C126.203426,90.074976 127.615077,90.6687437 129.323176,90.6828658 C131.167542,90.6974489 132.990782,90.1840791 134.708387,89.5521417 C136.413317,88.9267562 138.033739,88.1762513 139.856979,87.9458795 C140.414725,87.8761339 141.095007,87.8549988 141.735148,87.964901 C141.819655,87.4935898 141.899937,87.0246035 141.975993,86.553081 C142.140782,85.5407131 142.282331,84.5304587 142.404866,83.5180908 C139.170359,82.6473276 136.183035,85.464627 133.17881,86.3332767 C131.435852,86.8362904 129.538669,86.8301613 127.795711,86.3438442 C126.182947,85.8936087 124.915172,84.959009 123.539093,84.0651883 Z M123.54712,77.0676798 C122.856275,76.9345292 122.17388,77.2536681 121.586556,77.5812611 C120.088669,78.4120791 118.795711,79.5679538 117.099232,80.0054489 C114.916838,80.5676407 112.529514,80.0836485 110.361908,79.1642748 C110.370359,80.4469597 110.380923,81.7300673 110.391486,83.0129636 C110.799232,83.1674607 111.217542,83.291946 111.644303,83.3912806 C113.161204,83.7378951 114.768951,83.691398 116.262613,83.2539029 C117.785852,82.8077425 118.954162,81.6032571 120.481627,81.2270536 C122.043547,80.8410896 123.51586,81.5919651 124.774594,82.4455229 L125.153452,82.7041054 C126.592284,83.6808681 127.987683,84.5296133 129.787965,84.6953119 C131.691486,84.8707327 133.345711,84.2747249 135.046415,83.4844861 L135.442305,83.3011595 C137.595509,82.3117487 140.390616,81.1854052 142.540077,82.3112806 C142.709092,80.7134724 142.831627,79.1158755 142.914021,77.5157425 C142.618246,77.4058403 142.311908,77.3255272 141.959092,77.3234137 C141.116134,77.319398 140.230923,77.5854881 139.445007,77.8623569 C137.727401,78.4689323 136.128106,79.3733002 134.427401,80.0223569 C132.81543,80.6394998 131.030218,80.9607523 129.3105,80.6840947 C127.717542,80.4281495 126.521768,79.5954294 125.421063,78.4541378 L125.261182,78.285438 C124.778472,77.7716665 124.262049,77.206537 123.54712,77.0676798 Z M124.808387,71.1350771 C124.011908,70.7147014 123.04219,70.323492 122.121063,70.4460751 C121.24219,70.5620159 120.656477,71.1585033 120.115268,71.796019 L119.822169,72.1450003 C118.854024,73.2909084 117.901067,74.2543617 116.408387,74.7259186 C114.861908,75.2120243 113.222472,75.021809 111.783739,74.3095585 C111.272472,74.0559382 110.79712,73.7410262 110.319655,73.4303413 L110.345007,76.8011671 L110.345007,76.8011671 C111.299937,77.2767053 112.271768,77.7059577 113.338669,77.9659186 C115.307683,78.4456838 116.980923,78.0906153 118.664725,77.0042748 L118.841506,76.8891555 C120.109761,76.0559842 121.410124,75.0639851 122.976697,74.9710849 C124.505477,74.8795663 125.652791,75.727409 126.659588,76.7651179 L126.777401,76.8880321 C128.04712,78.2277816 129.329514,78.8810654 131.218246,78.7267796 C133.049377,78.5770317 134.763085,77.7682604 136.4405,77.0715124 L136.592894,77.0085018 C138.126697,76.3784665 139.895007,75.7298325 141.57881,75.9707718 C141.982331,76.0278364 142.504162,76.1525331 142.968951,76.3702239 C143.036556,74.7933393 143.068246,73.214764 143.074585,71.6338638 C142.117542,70.8034685 140.628106,70.6658795 139.430218,71.0061534 C137.554162,71.5387562 136.018246,72.9125331 134.226697,73.6585996 C132.637965,74.320126 130.981627,74.4680712 129.361204,73.842263 C127.687965,73.1957425 126.375993,71.9635703 124.808387,71.1350771 Z M142.968951,64.4944509 C140.16543,64.591672 137.423176,66.415625 134.746415,67.1109675 C131.756255,67.8871732 129.315851,66.8290415 126.652154,65.6543429 L126.308387,65.5028031 C124.941486,64.9025683 123.473176,64.3634137 121.958387,64.60858 C120.481627,64.8497307 119.175993,65.667445 117.906275,66.407171 L117.662937,66.5473382 C115.34987,67.8646384 112.994625,68.7664063 110.294303,68.5415977 C110.309092,69.3893237 110.302754,70.2347249 110.304866,71.063218 C110.748528,71.3168384 111.175289,71.6042748 111.580923,71.8663491 L111.726503,71.9586522 C113.013882,72.7639373 114.340961,73.2932326 115.875993,72.7962904 C117.359092,72.3144117 118.056275,71.0230614 119.074585,69.9599695 C120.0105,68.9835311 121.231627,68.3898481 122.600641,68.4467014 C124.073176,68.5056681 125.46543,69.1547249 126.682331,69.9472885 C127.899232,70.7398521 129.075993,71.7646896 130.499937,72.1622395 C133.694303,73.0496994 136.430218,69.6704196 139.451345,69.1441573 C140.718951,68.9222395 142.117542,69.2033354 143.074585,69.9682121 C143.064021,68.146584 143.02388,66.3205174 142.968951,64.4944509 Z M118.837965,63.7293628 C118.442894,63.7441573 118.047824,63.7610654 117.652754,63.7779734 C116.190782,63.8413785 114.72881,63.9132376 113.266838,63.9956642 C112.254866,64.0504039 111.0105,64.3613002 110.017542,64.0527288 C109.99219,64.1541769 109.958387,64.2516094 109.914021,64.3465057 C110.064021,65.0946857 110.156979,65.8682278 110.214021,66.6502239 C111.130923,66.7495585 112.062613,66.7157425 112.966838,66.5276407 C115.136556,66.0774646 116.898528,64.7079147 118.837965,63.7293628 Z M142.926697,63.1016524 C137.588127,63.4694832 132.208538,63.3429388 126.861179,63.4585466 L126.219655,63.473629 C126.194303,63.473629 126.168951,63.4759538 126.143599,63.4759538 C126.756803,63.7137229 127.365254,63.9858496 127.971625,64.2630884 L128.577401,64.5409479 C130.009796,65.2003609 131.467542,65.7393041 133.071063,65.6230614 C134.788669,65.4983648 136.406979,64.7968932 138.012613,64.230263 C139.544303,63.6892063 141.308387,63.3256838 142.941486,63.5623961 C142.937261,63.4081104 142.933035,63.2559382 142.926697,63.1016524 Z" id="ðŸ–-Ink" fill="#000000"></path>
                    </g>
                    <g id="head/Buns" transform="translate(78.591549, 38.043053)" fill-rule="evenodd">
                        <path d="M83.9167142,36.707576 C76.9503841,26.8364026 59.4443588,25.7244291 48.3804625,25.786987 C26.5310254,25.6049411 21.9560047,50.7292226 20.8149587,68.3346407 C18.4844201,68.731202 16.2180521,69.5440229 14.680296,71.3761709 C12.8076632,73.6072613 12.160858,77.4367189 13.9164114,79.9318949 C15.0825307,81.5887074 16.9237157,82.1424213 18.8496823,82.2346348 C25.2278532,81.6257227 26.5359126,87.3133039 29.6772951,91.5780699 C37.7383494,102.47225 51.7030949,106.006235 64.511283,106.060351 C68.8617067,106.176159 74.1024438,106.502803 76.8885509,102.407961 C85.6882041,87.1492245 85.8798658,66.9122584 86.4223407,49.620496 C86.4969231,45.1935988 86.4780119,40.5071617 83.9167142,36.707576 L83.9167142,36.707576 Z" id="ðŸŽ¨-Background" fill="#FFFFFF"></path>
                        <path d="M45.3421901,-4.68886967 C46.1297958,-5.87961722 47.8579648,-6.34120626 49.0560634,-5.45797339 C50.053669,-6.07553894 51.3085986,-5.94534716 52.2052183,-5.19441957 C53.2894437,-5.83544501 54.6358521,-5.57675225 55.4862042,-4.68295186 C56.848669,-5.42775029 58.6469789,-4.87760548 59.3764859,-3.46641957 C60.7514155,-3.61901448 62.0471197,-2.71866223 62.413669,-1.41547632 C62.4785282,-1.3628501 62.5425423,-1.30853307 62.6065563,-1.2544274 C63.4302887,-1.21490489 64.2130352,-0.891961644 64.6746549,-0.125605479 C64.9053592,0.257149902 65.011838,0.706903327 64.9962042,1.14756869 C65.488669,1.41387006 65.8864859,1.85073112 66.0569789,2.41693855 C66.2166972,2.94785049 66.1564859,3.47305597 65.9464859,3.93062935 C66.6322606,4.66042192 66.8135282,5.7979092 66.3276127,6.71453542 C66.5287394,7.0594591 66.6333169,7.46715382 66.616838,7.89091115 C66.5925423,8.51841018 66.3016268,9.02417143 65.9059225,9.45596008 C66.4034577,10.3541988 66.2095141,11.5064806 65.4007817,12.1363045 C64.9362042,13.7839914 63.7602887,14.8802654 61.9585986,15.552782 C61.0537394,15.8905198 60.1070493,16.150692 59.1421901,16.3417526 C63.0031056,16.861463 66.8014859,17.774919 70.4500775,19.1368603 C70.648669,19.2110442 70.8170493,19.1820892 70.9457113,19.095647 L70.9457113,19.095647 L71.1861338,19.2201323 C72.1917676,19.7717566 73.1762746,20.3698779 74.1354296,21.0102693 C74.1354296,20.9045941 74.1375423,20.798919 74.1417676,20.6911303 C74.1231761,19.8214239 74.2146549,18.9648211 74.4455704,18.1390755 C74.1434577,17.7271538 73.9174014,17.2575335 73.7944437,16.7735413 C73.4874718,15.5658857 74.0714155,13.8473965 75.1203592,13.4348407 C75.4879648,12.4148642 76.3239507,11.676829 77.3485986,11.3864337 C77.4299366,11.3130951 77.5163451,11.2418701 77.6128944,11.1757174 C77.8285986,11.0273495 78.0645845,10.9261127 78.3071197,10.8673573 C78.4332465,10.3146763 78.7414859,9.80595616 79.2527535,9.44898552 C79.9742324,8.94491507 80.8275423,8.89017534 81.5771197,9.16514207 C81.7197254,9.11716556 81.8644437,9.07552955 82.0104296,9.03938865 C83.2171901,8.01180352 85.0981056,8.08746693 86.1599366,9.28983875 C86.8888099,8.95653933 87.7478239,8.94174481 88.4940211,9.39023014 C89.0910634,9.74910294 89.4626831,10.32778 89.6080352,10.9628877 C90.7383169,10.9975491 91.7722606,11.7478427 92.0982465,12.8675765 C93.1397958,12.98551 93.991838,13.8008994 94.1726831,14.8272164 C94.8371197,14.9197879 95.4508521,15.2321636 95.824162,15.8533221 C95.9967676,16.1405472 96.0903592,16.454825 96.1146549,16.7695256 C96.4505704,16.9307859 96.751838,17.1748955 96.9793732,17.4938231 C97.3778239,18.0526333 97.4547254,18.7050716 97.3083169,19.3190442 L97.3083169,19.3190442 L97.4107817,19.5223632 C97.519162,19.7531577 97.6062042,20.0006489 97.6837394,20.2519444 C98.0340211,20.757283 98.1958521,21.3750599 98.1637394,21.9955843 C98.2381056,22.2580814 98.3101479,22.5212125 98.3699366,22.7856117 C98.6065563,23.8233417 98.6952887,24.9287037 98.5326127,25.9854552 C98.452331,26.4969229 98.3361338,26.9999366 98.1713451,27.4881558 C98.1544437,27.5811499 98.1269789,27.6678035 98.0952887,27.7502301 C98.0044437,28.1348877 97.8882465,28.5132047 97.7403592,28.8830677 C97.3854296,29.3543789 97.0135986,29.813009 96.6227535,30.2568446 C96.2931761,30.7514043 95.9171197,31.2079209 95.4924718,31.6263945 C95.1861338,31.9286254 94.8502183,32.2097213 94.4931761,32.4633417 C93.7843732,33.0316626 92.9912746,33.4748642 92.1451479,33.763146 C91.9940915,33.7314434 91.8421901,33.7067155 91.6900775,33.6824102 C90.7292324,34.2116313 89.2174014,34.2714434 88.2928944,34.2678505 C87.274162,34.2640462 86.3412042,34.0066215 85.5654296,33.5203045 C85.6554296,33.6993182 85.7452183,33.8785432 85.835007,34.058191 C85.8126127,34.0710834 85.7885282,34.0827076 85.7690915,34.0977135 C85.6013451,33.8197879 85.414162,33.5729307 85.1935986,33.3953965 C84.8925423,33.152555 84.4070493,33.1307859 84.1983169,33.5236861 C84.1945141,33.5304493 84.1909225,33.5374239 84.187331,33.5443984 C84.075993,33.7538466 84.0916268,33.9548407 84.1765563,34.1188485 C84.2076127,34.1634434 84.2384577,34.2084611 84.2693028,34.2532673 C84.2802887,34.2659483 84.2908521,34.2794748 84.3028944,34.2913104 L84.3028944,34.2913104 C84.5857817,34.5242184 84.8697254,35.0931734 85.1388803,35.6462771 C85.320993,35.9694317 85.4942324,36.297236 85.6566972,36.6307468 C85.7515563,36.7706607 85.9199366,36.8934552 86.0990915,36.9291734 C86.0640211,37.1954748 86.1865563,37.4708642 86.3876831,37.6073965 C86.4405,37.5008759 86.5047254,37.3918192 86.587331,37.2793808 C87.4953592,36.0455178 89.2793028,35.5131264 90.6227535,36.077009 C90.8906408,36.03178 91.1597958,35.994371 91.4314859,35.9730247 C92.3183873,35.9144806 93.217331,35.9842262 94.0932465,36.1678896 C94.3651479,36.3310521 94.625007,36.5147155 94.8671197,36.7241636 C95.0720493,36.9016978 95.2621901,37.0876861 95.4396549,37.2800149 C95.5769789,37.3829425 95.7119789,37.4919992 95.8444437,37.6057057 C96.3814859,37.8946215 96.7759225,38.448782 97.1071901,39.0004063 C97.370007,39.3721714 97.5996549,39.7671851 97.7984577,40.1856587 C98.7195845,41.7623319 99.7824718,43.7198583 98.9519789,45.2701127 C99.0402887,45.4372908 99.1055704,45.6224337 99.1416972,45.8238505 C99.2564155,46.4631851 99.0208521,46.9520384 98.7117676,47.4267311 C98.752331,47.7577057 98.7749366,48.0785354 98.7924718,48.3606881 C98.8909225,49.9449699 98.5279648,52.1165941 97.1316972,52.763326 C97.1099366,52.7895335 97.0877535,52.8155295 97.0647254,52.8415256 C96.9569789,53.0169464 96.7926127,53.1686959 96.5764859,53.2794434 C96.5228239,53.3168524 96.4685282,53.3523593 96.4135986,53.3827937 C96.3888803,53.4041401 96.360993,53.4214708 96.3354296,53.4417605 L96.3354296,53.4417605 L96.4216268,53.3481323 C95.6492324,53.656281 94.9032465,53.7198975 94.1069789,53.6262693 C93.6147254,53.8042262 93.1214155,53.9371656 92.705007,54.0400932 C91.4055,54.3611342 89.7297254,54.6181362 88.4631761,54.0707389 C88.0940915,53.9113808 87.7879648,53.7002419 87.5578944,53.4485237 C87.5769085,54.429189 87.6056408,55.4096431 87.6481056,56.3903084 C87.7347254,58.8694474 87.7305,61.3464728 87.7114859,63.8277252 C87.6903592,66.6196626 87.6121901,69.4137135 87.4621901,72.2035374 C87.3924718,73.6047898 87.2805,75.0039288 87.1305,76.3988407 C87.0037394,77.7578231 86.8558521,79.114692 86.6847254,80.4673339 C86.2812042,83.2487037 85.6157113,86.0512086 84.8044437,88.7395843 C84.4516268,89.906238 84.065007,91.0876861 83.6255704,92.2416587 C83.4396549,92.7721479 83.2431761,93.2962967 83.0297958,93.8162184 C81.9037394,96.5405237 80.5009225,99.1697213 78.6058521,101.439623 C77.5706408,102.678136 76.4276831,103.791952 75.1516268,104.728234 C74.1269789,105.527138 73.0178239,106.203459 71.7988099,106.736062 C69.1790915,107.88158 66.2551479,108.139428 63.4220493,108.097158 C62.3192324,108.082363 61.1488099,107.883694 60.058669,107.701933 C59.2220493,107.564555 58.3748662,107.38068 57.5361338,107.165103 C56.7924718,106.991796 56.0572606,106.791013 55.3326127,106.556414 C54.4600775,106.326042 53.6234577,105.994222 52.8269789,105.565181 L52.8269789,105.565181 L51.4157113,105.034692 C50.8262746,104.812774 50.2537394,104.548586 49.6981056,104.246355 L49.6981056,104.246355 L48.1643028,103.529878 C47.5283873,103.22342 46.9093732,102.887373 46.3051479,102.51751 C46.2417676,102.483694 46.1699366,102.426629 46.1424718,102.363224 C45.9861338,102.276571 45.8276831,102.194144 45.6713451,102.105377 C45.645993,102.092696 45.665007,102.018723 45.6988099,101.946864 C45.6713451,101.8898 45.6755704,101.826395 45.7516268,101.76933 C45.808669,101.724946 45.8995141,101.737627 45.9945845,101.767216 C45.9861338,101.760876 45.9797958,101.754535 45.9734577,101.748195 C45.8678239,101.69113 45.7643028,101.636179 45.6607817,101.579115 C45.5551479,101.52205 45.5382465,101.374105 45.6375423,101.295905 C45.665007,101.27477 45.6966972,101.264203 45.7283873,101.262089 C45.7262746,101.262089 45.724162,101.259976 45.7220493,101.259976 C45.7030352,101.247295 45.7178239,101.188117 45.7452887,101.122598 C45.6924718,101.054966 45.6755704,100.972539 45.7685282,100.90068 C45.9058521,100.792892 46.2269789,100.991561 46.3431761,101.057079 C46.4762746,101.131052 46.6114859,101.200798 46.7445845,101.272657 C46.7530352,101.253635 46.7699366,101.236727 46.7974014,101.219819 C46.6009225,101.116258 46.4065563,101.010582 46.2121901,100.904907 C46.0917676,100.841502 45.9354296,100.708351 46.0938803,100.583655 C46.2206408,100.482207 46.5481056,100.655514 46.7044437,100.744281 C46.7234577,100.729486 46.7445845,100.723146 46.7699366,100.718919 C46.702331,100.680876 46.6305,100.644946 46.5628944,100.60479 C46.3727535,100.499115 46.5016268,100.169408 46.6981056,100.27931 L46.6981056,100.27931 L46.7678239,100.32158 C46.9093732,100.308899 47.1079648,100.425142 47.1988099,100.475866 C47.8600775,100.892226 48.5488099,101.255749 49.2628944,101.568547 C49.7445845,101.796805 50.2283873,102.02295 50.7143028,102.242755 C51.1917676,102.479467 51.6840211,102.684477 52.1889507,102.857784 C53.458669,103.352344 54.7410634,103.813087 56.0361338,104.240015 C57.8509225,104.736688 59.7290915,105.13614 61.6135986,105.292539 C61.858669,105.311561 62.1037394,105.328469 62.3488099,105.336923 C62.8854296,105.332696 63.4220493,105.330582 63.9565563,105.326355 C64.9981056,105.218567 66.0396549,105.112892 67.0790915,105.007216 C67.4424718,104.956492 67.7974014,104.893087 68.1481056,104.819115 C68.3319085,104.774731 68.5157113,104.728234 68.6974014,104.675396 C68.7607817,104.666942 68.824162,104.654261 68.8875423,104.643694 C69.3333169,104.525338 69.7706408,104.383733 70.2079648,104.21888 C70.4826127,104.106864 70.7551479,103.988508 71.0255704,103.863811 C71.9192324,103.447451 72.7981056,102.897941 73.6262746,102.268117 L73.6262746,102.268117 L76.7382465,99.1697213 L77.686838,97.8762575 C78.9121901,96.1241636 79.8819085,94.1712869 80.686838,92.1782536 L80.686838,92.1782536 L81.9671197,88.4880775 C82.1002183,88.0442419 82.2269789,87.6004063 82.3474014,87.1544571 C82.5903592,86.1568838 82.8333169,85.1593104 83.0762746,84.1638505 C83.1565563,83.7982145 83.2347254,83.434692 83.3107817,83.0711695 C83.7776831,80.8076078 84.0354296,78.5102301 84.2572606,76.2128524 C84.6628944,72.0323436 84.7727535,67.8391538 84.802331,63.641737 C84.8213451,61.133009 84.8002183,58.624281 84.7495141,56.1176665 C84.7199366,54.6635765 84.6988099,53.2094865 84.6776831,51.7553965 C84.6502183,50.2125393 84.6206408,48.6675687 84.5805,47.1247115 C84.5783873,47.0908955 84.5910634,47.0613065 84.6079648,47.0359444 C84.6037394,46.8541832 84.6016268,46.6724219 84.5995141,46.4885472 C84.5974014,46.3680775 84.6438803,46.3152399 84.7114859,46.3046724 C84.6988099,45.2035374 84.6903592,44.1045159 84.6882465,43.0054943 C84.6882465,42.9336352 84.7220493,42.8871382 84.7664155,42.8596626 L84.7664155,42.8596626 L84.7664155,42.5806802 C84.5826127,41.8155922 84.3333169,41.0652986 84.0100775,40.3509346 C83.9002183,40.0930873 83.7776831,39.8415804 83.6424718,39.5964141 C83.4755704,39.2286646 83.2579648,38.8947311 82.9917676,38.5882732 C82.7699366,38.2141832 82.4974014,37.8823632 82.1805,37.5864728 C82.0516268,37.4934787 81.9206408,37.4004845 81.7917676,37.3074904 C81.6840211,37.2504258 81.5255704,37.1510912 81.3861338,37.036962 C81.1347254,36.8826763 80.8854296,36.7262771 80.6340211,36.5719914 C80.4882465,36.4959053 80.5833169,36.30569 80.686838,36.2549659 L80.686838,36.2549659 C80.6635986,36.2380579 80.6382465,36.2253769 80.6107817,36.2021284 C80.3065563,35.914692 79.9896549,35.6441636 79.6600775,35.3905432 C79.6009225,35.4137918 79.5312042,35.4053378 79.4783873,35.3609542 C79.2840211,35.179193 79.0854296,35.0037722 78.8826127,34.834692 C78.4283873,34.5366881 77.9530352,34.2640462 77.4565563,34.0231068 C76.6600775,33.6469033 75.8445845,33.3235374 75.0079648,33.048782 C74.8275423,32.9893926 74.6458521,32.9363436 74.4652183,32.882872 C74.2078944,32.8706137 73.950993,32.8566646 73.6938803,32.845463 C64.1207113,32.4252986 54.5224014,32.6017761 44.970993,33.3725706 C42.6178944,33.5625746 40.2677535,33.7889307 37.9216268,34.0512164 C35.8571197,34.2822223 33.3825423,34.274191 31.4847254,35.2201949 C31.4044437,35.2603515 31.3279648,35.3028329 31.2533873,35.3465824 C31.4014859,36.2963906 31.7887394,37.2237957 32.1261338,38.1192869 C32.6464859,39.5006724 33.1127535,40.9086881 33.0664859,42.4046254 C33.0339507,43.4478505 32.8097958,44.450919 32.4869789,45.4311616 C32.3215563,46.8288211 31.8861338,48.1787155 31.4238803,49.5049386 C29.149162,56.0301675 27.9109225,62.7109503 28.0381056,69.6375335 C28.0414859,69.823099 27.9988099,69.9849933 27.9252887,70.1227937 C27.9669085,70.4256587 28.0083169,70.728735 28.057331,71.0307546 C28.2470493,72.1980423 26.7083873,72.7786215 26.1774718,72.0048681 C26.1417676,72.0401636 26.092331,72.0644689 26.0466972,72.0682732 C25.9114859,72.0809542 25.6896549,71.8590364 25.6262746,71.7575883 C25.5438803,71.605416 25.4572606,71.4574708 25.3643028,71.3158661 C25.3516268,71.3095256 25.3410634,71.3052986 25.3305,71.3010716 C25.3875423,71.4194278 25.4466972,71.5398975 25.5016268,71.6540266 C25.5945845,71.8400149 25.2375423,71.9308955 25.1319085,71.7597018 C25.036838,71.6096431 24.9417676,71.4659249 24.8466972,71.3285472 C24.7917676,71.3687037 24.7305,71.3792712 24.6903592,71.3137526 C24.3502183,70.7515609 23.9572606,70.2696822 23.5262746,69.8596626 C22.8481056,69.3059249 22.1065563,68.9698779 21.2635986,68.7733221 C20.6002183,68.6782145 19.9199366,68.6739875 19.2628944,68.7500736 C18.508669,68.8388407 17.7143028,69.0269425 17.0319085,69.3714434 C16.4762746,69.7539875 15.9185282,70.1365315 15.3607817,70.5190755 C15.2234577,70.6627937 15.0924718,70.8128524 14.9699366,70.9692517 C14.5833169,71.4701519 14.2727535,72.0048681 14.0171197,72.5734004 C14.0065563,72.6093299 13.995993,72.6452595 13.9854296,72.6790755 C13.8290915,73.1567272 13.7276831,73.6470599 13.6833169,74.1500736 C13.6769789,74.786238 13.6727535,75.4202888 13.6664155,76.0564532 C13.7509225,76.8828329 13.9621901,77.685964 14.2854296,78.4489386 C14.4375423,78.8991147 14.6762746,79.3006802 14.9995141,79.6557487 C15.1727535,79.9558661 15.3692324,80.228508 15.5889507,80.4821284 C16.0347254,80.7780188 16.5206408,81.0295256 17.0382465,81.2281949 C17.165007,81.262011 17.2917676,81.295827 17.4206408,81.321189 C18.0861338,81.5769229 18.7748662,81.7143006 19.486838,81.7333221 C20.386838,81.7946137 21.2678239,81.7164141 22.1297958,81.4987233 C22.6621901,81.4036157 23.1776831,81.2493299 23.6762746,81.0358661 C24.1537394,80.7949268 24.6037394,80.5053769 25.024162,80.1672164 C25.0706408,80.1376274 25.1403592,80.1545354 25.2164155,80.1925785 C25.3093732,80.1249464 25.402331,80.0594278 25.4931761,79.9854552 C25.5354296,79.9558661 25.5734577,79.9917957 25.5924718,80.0298387 C25.6009225,80.0234982 25.6093732,80.0171577 25.6178239,80.0108172 C25.7847254,79.8966881 26.2431761,80.2538701 26.0361338,80.4652204 C26.1248662,80.5201714 26.2135986,80.58569 26.2938803,80.6533221 C26.6614859,80.6681166 27.4030352,81.3444376 27.2635986,81.4501127 C27.0565563,81.6297605 26.8389507,81.7946137 26.6171197,81.9510129 C26.8135986,82.0968446 27.0713451,82.3229894 26.9509225,82.4138701 C26.7354296,82.6188798 26.5009225,82.7964141 26.2516268,82.9485863 C26.0826127,83.07751 25.9093732,83.2000932 25.7276831,83.3121088 C25.5312042,83.4283515 25.3305,83.5276861 25.1234577,83.6206802 C25.4847254,84.3202497 25.8290915,85.0261597 26.1502183,85.7447507 C26.3635986,86.2541049 26.6107817,86.7465511 26.895993,87.2199757 C27.2593732,87.9406802 27.6945845,88.6170012 28.2037394,89.246825 C28.6178239,89.944281 29.1037394,90.5846724 29.6593732,91.1701127 C30.345993,91.9521088 31.0833169,92.6876078 31.8671197,93.3681558 C32.1797958,93.5900736 32.4988099,93.8056509 32.8305,94.0043202 C33.6776831,94.642598 34.5797958,95.1899953 35.536838,95.6465119 C35.6488099,95.7078035 35.7375423,95.8430677 35.6065563,95.9487429 C35.602331,95.9508564 35.5981056,95.9508564 35.5938803,95.9550834 C35.9065563,96.1326176 36.2213451,96.3080384 36.5382465,96.4813456 C36.6628944,96.5489777 36.9185282,96.6800149 36.7283873,96.8343006 C36.6058521,96.9357487 36.2276831,96.7539875 36.0016268,96.6356313 C36.0333169,96.6525393 36.0671197,96.6715609 36.1009225,96.6905824 C36.1706408,96.7286254 36.5720493,96.9315217 36.3248662,97.0604454 C36.2002183,97.0815804 36.0819085,97.0604454 35.9678239,96.9991538 C35.8495141,96.9547703 35.7312042,96.9061597 35.615007,96.8554356 C35.6192324,96.8934787 35.5981056,96.9294082 35.536838,96.9589973 C35.4882465,96.9674513 35.4417676,96.9674513 35.3952887,96.9632243 C35.6530352,97.109056 35.9107817,97.2527742 36.1706408,97.3943789 C36.2466972,97.4345354 36.6058521,97.6332047 36.3692324,97.7557879 C36.2530352,97.7790364 36.1410634,97.7600149 36.0333169,97.7008368 C35.836838,97.6268642 35.6424718,97.5402106 35.4544437,97.4451029 C35.4100775,97.4197409 35.3657113,97.3964924 35.3213451,97.3711303 C35.2875423,97.3711303 35.2537394,97.3669033 35.2199366,97.3605628 C35.4269789,97.4725785 35.6361338,97.5803671 35.8474014,97.6860423 C35.9720493,97.7536744 36.1812042,97.8910521 36.0016268,98.0305432 C35.8769789,98.1256509 35.5410634,97.9544571 35.3424718,97.8424415 C35.3297958,97.857236 35.315007,97.874144 35.2938803,97.8910521 C35.145993,98.0030677 34.7657113,97.7557879 34.6452887,97.6902693 C33.5974014,97.1280775 32.5854296,96.5468642 31.6114859,95.8811108 C31.0157113,95.4985667 30.4347254,95.0970012 29.8664155,94.6595061 C28.7783873,93.8183319 27.7896549,92.83978 26.8833169,91.8083906 C26.2643028,91.1024806 25.9283873,90.7051421 25.3283873,89.8491734 C24.365007,88.4711695 23.6382465,87.0339875 22.9389507,85.5101519 C22.9283873,85.4869033 22.9495141,85.4277252 22.9812042,85.3685472 C22.8375423,85.0155922 22.6981056,84.6584102 22.558669,84.2885472 C22.1952887,84.3371577 21.8297958,84.3709738 21.4685282,84.3921088 C20.6171197,84.4407194 19.7910634,84.3646333 18.9903592,84.1892125 C18.0206408,84.0645159 17.0614859,83.7897605 16.2121901,83.3586059 C15.7030352,83.102872 15.2128944,82.8302301 14.7481056,82.5258857 C14.3319085,82.3039679 13.9305,82.0503476 13.545993,81.7544571 C11.908669,80.5032634 11.0192324,78.5609542 10.8016268,76.5446724 C10.6347254,75.6570012 10.5988099,74.7439679 10.6981056,73.8626372 C10.7699366,73.2222458 10.9135986,72.5881949 11.1227535,71.9773926 C11.5093732,70.6226372 12.2297958,69.3693299 13.2734577,68.4203671 C13.4488099,68.2407194 13.6326127,68.0695256 13.8290915,67.9088994 C14.4100775,67.4333613 15.0692324,67.0508172 15.7706408,66.7718348 C15.9058521,66.7063162 16.0431761,66.6450247 16.1805,66.5879601 L16.1805,66.5879601 L16.0135986,66.2033025 C15.9544437,66.2202106 15.7495141,66.1863945 15.724162,66.1145354 C15.6565563,65.9306607 15.5931761,65.7425589 15.5276831,65.5586841 C15.4896549,65.5819327 15.4410634,65.5946137 15.3882465,65.5967272 L15.3882465,65.5967272 L15.3882465,65.810191 C15.3903592,65.8714826 15.274162,66.2519131 15.2107817,66.0532438 C15.1452887,65.8714826 15.0861338,65.6854943 15.0227535,65.5016196 C14.9699366,65.4678035 14.9297958,65.427647 14.915007,65.3811499 C14.908669,65.3621284 14.902331,65.3431068 14.8938803,65.3240853 C14.8896549,65.3219718 14.8833169,65.3219718 14.8790915,65.3198583 L14.8790915,65.3198583 L14.8790915,65.3853769 C14.8812042,65.4255335 14.7755704,65.7298779 14.7565563,65.6706998 C14.3910634,64.6646724 14.0931761,63.63751 13.8607817,62.5934395 C13.702331,62.0185667 13.5776831,61.4373534 13.4826127,60.8476861 C13.3790915,60.3171969 13.2882465,59.7845941 13.2100775,59.2477644 C13.2037394,59.2033808 13.1974014,59.1589973 13.1910634,59.1146137 L13.1910634,59.1146137 L13.1847254,59.0850247 C13.1783873,59.0279601 13.1720493,58.968782 13.1635986,58.9117174 C13.0790915,58.3051421 13.0093732,57.6964532 12.9565563,57.0835374 C12.8445845,55.8238896 12.8002183,54.5579014 12.8128944,53.2940266 C12.7854296,53.3045941 12.7600775,53.3193886 12.7326127,53.3320697 C12.1837394,53.5658231 11.6038099,53.7568838 11.0137394,53.909056 C9.99859859,55.3766724 8.37796479,56.3698074 6.43578169,56.4742145 C5.77810563,56.5097213 5.08852817,56.4296196 4.45007746,56.2438427 C4.38373944,56.2590599 4.31528873,56.2713182 4.24430282,56.2806176 C3.7239507,56.3486724 3.3620493,56.1366881 2.8755,56.0720149 C2.09655634,55.9688759 1.4361338,55.9181519 0.932049296,55.4656509 C0.77634507,55.4692438 0.627612676,55.4466294 0.486274648,55.4043593 C-0.850415493,55.7249777 -2.27076761,55.0182223 -2.74083803,53.5370795 C-3.54259859,53.0670364 -4.18147183,52.3697918 -4.61097887,51.5607429 C-5.43830282,50.4997644 -6.09978169,49.1989033 -6.51006338,47.832101 C-6.51640141,47.8192086 -6.52337324,47.8067389 -6.5295,47.7934239 C-6.73759859,47.3419796 -6.8366831,46.8577761 -6.8451338,46.3720932 C-7.06654225,44.9885941 -7.00823239,43.6034043 -6.58717606,42.3858153 C-6.60492254,41.7257683 -6.44985211,41.0378231 -6.16590845,40.4137057 C-5.82175352,39.6568603 -5.29696479,38.7867311 -4.6160493,38.2820266 C-4.61435915,37.506371 -4.28119014,36.6525159 -3.8445,36.0738387 C-2.97302113,34.917964 -1.70921831,34.3069503 -0.341471831,34.2186059 C0.354021127,32.4350207 2.46141549,32.0184493 4.27916197,32.6121323 C5.03423239,31.840281 6.14021831,31.4716861 7.24409155,31.6029346 C8.17747183,31.7138935 8.97521831,32.1604767 9.63564085,32.7759288 C9.80972535,32.8255961 9.98317606,32.8773769 10.1564155,32.9312712 C10.7346549,32.6774395 11.4092324,32.6199523 12.0263451,32.779099 C13.095993,33.0549112 13.7938099,33.8656509 14.2765563,34.7955922 C14.4305704,34.90169 14.580993,35.0111695 14.7278239,35.12551 C14.8890211,35.1977918 15.0354296,35.2943789 15.1683169,35.4080853 C15.3614155,35.5110129 15.5253592,35.6803045 15.6252887,35.9258935 C15.8978239,36.2069894 16.1513451,36.5043593 16.3757113,36.8232869 C16.543669,36.4346137 16.7169085,36.0486881 16.8958521,35.66551 C17.1871901,35.7532204 17.5393732,35.6397252 17.685993,35.250418 C18.6155704,32.7829033 20.3076127,28.2619092 21.9020493,26.1786294 C20.0412042,27.4460971 17.7692324,28.1141753 15.5124718,28.0469659 C15.4159225,28.044007 15.3185282,28.0399914 15.2202887,28.0347076 C14.0071901,28.2439444 12.7748662,28.2633886 11.6435282,28.0363984 C10.8816972,27.7597409 10.1393028,27.4300344 9.41993662,27.0570012 C9.24500704,26.9661205 9.07155634,26.8705902 8.89873944,26.7742145 C8.8233169,26.710598 8.75338732,26.6395843 8.68134507,26.5715295 C8.53261268,26.5823084 8.37690845,26.5706841 8.21127465,26.5267233 C7.58866901,26.3620814 7.01254225,25.9476235 6.65127465,25.4150207 C6.58409155,25.3158975 6.53000704,25.2138153 6.48183803,25.1108877 C6.08993662,24.7274982 5.75042958,24.2931734 5.50092254,23.7852986 C5.20726056,23.1914043 5.0276831,22.5235374 5.00866901,21.8556705 C4.8861338,21.2004845 4.89458451,20.5262771 5.12275352,19.9006802 C5.14810563,19.8330481 5.1776831,19.7675295 5.20514789,19.6998975 C5.21782394,19.6576274 5.22627465,19.6132438 5.24106338,19.5709738 C5.30782394,19.3479992 5.39275352,19.1493299 5.49585211,18.9612282 C5.53409155,18.7678427 5.59662676,18.5761479 5.68493662,18.3895256 C5.6948662,18.2992791 5.70711972,18.2090325 5.72169718,18.1192086 C5.05028873,16.8521636 5.28817606,15.1951773 6.29317606,14.1652673 C6.15416197,13.4995139 6.29571127,12.7936039 6.70071127,12.2028798 C6.99817606,11.7687663 7.41162676,11.4261675 7.88000704,11.1883984 C7.92880986,11.1636705 8.05810563,11.121189 8.21275352,11.0723671 C8.38599296,10.9191382 8.56873944,10.7741519 8.76880986,10.6464963 C8.81866901,9.34817143 10.1743732,8.62577613 11.2759225,7.98601879 C11.9904296,7.57113816 12.3026831,6.78470372 13.0385282,6.38694247 C13.8434577,5.95219491 14.8733873,5.92619883 15.7630352,5.81904423 C17.8602887,5.56626928 20.0935986,5.3709816 22.2014155,5.59945127 C23.3716268,5.72626145 24.3407113,6.29162348 24.7414859,7.21776047 C25.7481761,7.33675068 26.6454296,8.06337299 27.3552887,8.81070763 C28.2413451,9.74339648 28.9957817,10.7363202 29.2558521,11.9619405 C29.4290915,12.0555687 29.5864859,12.1701205 29.728669,12.2994669 C29.7233873,13.1613534 29.610993,14.0247194 29.3731056,14.8382067 C29.4430352,15.3245237 29.2966268,15.7888603 29.0490211,16.2098701 C29.086838,16.6084767 29.0597958,17.0009542 28.9763451,17.3921636 C29.4580352,18.2470755 29.0071901,19.5390599 28.3324014,20.3867859 C28.3307113,20.546144 28.3290211,20.7055022 28.327331,20.8648603 C28.3674718,20.8439366 28.4065563,20.8192086 28.4431056,20.7881401 C31.5047958,18.1817683 34.6520493,18.5535335 38.3714155,17.0622458 C41.7259225,16.4144571 45.1497254,16.0021127 48.5857817,15.8649464 C48.5403592,15.8581832 48.4949366,15.8533221 48.4497254,15.8459249 C46.7181761,15.5622928 45.0550775,14.8498309 43.6247958,13.8262614 C43.2462042,13.7303084 42.8872606,13.559326 42.5659225,13.2733691 C42.253669,12.9956548 42.0375423,12.6752477 41.9133169,12.3315922 C41.8566972,12.2709346 41.8007113,12.2098544 41.7455704,12.1477174 C40.6719085,11.8839523 39.8543028,10.954645 39.9912042,9.73304031 C39.3113451,8.92800705 39.0612042,7.93402661 39.2912746,6.89904423 C38.9114155,6.25717339 38.8782465,5.44791311 39.1617676,4.77011272 C38.5647254,4.04475851 38.5182465,3.01505988 38.9864155,2.19438669 C38.5590211,1.5867546 38.4645845,0.78150998 38.9919085,0.0618622309 C39.2407817,-0.277989041 39.5855704,-0.492298239 39.9612042,-0.595859883 C40.0672606,-0.987491977 40.2829648,-1.35122583 40.621838,-1.63211037 C40.7961338,-1.77646262 40.978669,-1.88361722 41.1652183,-1.96350763 C41.2353592,-2.36782074 41.4637394,-2.75121018 41.9031761,-3.05280705 C42.1026127,-3.18955068 42.3066972,-3.27789511 42.5095141,-3.32692838 C42.7015563,-3.80246654 43.0366268,-4.21946067 43.5079648,-4.49020039 C44.0771197,-4.81673659 44.7390211,-4.86006341 45.3421901,-4.68886967 Z M18.225507,72.1781965 C18.6670563,72.171856 19.0917042,72.176083 19.5142394,72.2204665 C19.5311408,72.2077855 19.5480423,72.201445 19.562831,72.2035585 C19.6325493,72.2204665 19.6959296,72.2352611 19.7635352,72.2521691 C19.9980423,72.2859851 20.2325493,72.3345957 20.4712817,72.4043413 C21.0353662,72.571308 21.5994507,72.8354959 22.0874789,73.1630888 C22.5480423,73.4716603 23.006493,73.7929127 23.4079014,74.1775703 C23.5494507,74.2980399 23.6825493,74.4290771 23.8093099,74.5643413 C24.0142394,74.7334215 24.212831,74.9067288 24.4029718,75.0779225 C24.6353662,75.2913863 24.8614225,75.5111906 25.0769155,75.7394489 C25.4149437,76.130447 25.6790282,76.5658286 25.869169,77.0455937 C25.9452254,77.1998795 25.8522676,77.2928736 25.6959296,77.265398 C25.6262113,77.2548305 25.5311408,77.2041065 25.4339577,77.1364744 C25.4487465,77.1724039 25.4656479,77.2041065 25.4804366,77.240036 C25.562831,77.4027757 25.4931127,77.5190184 25.3050845,77.4577268 C25.2945211,77.4513863 25.2839577,77.4450458 25.275507,77.4387053 C25.3726901,77.6120125 25.4614225,77.7895468 25.5374789,77.975535 C25.6198732,78.1403883 25.5459296,78.2545174 25.3600141,78.1911123 C25.262831,78.1361613 25.1698732,78.0727562 25.0811408,78.0030106 C25.1212817,78.0917777 25.1635352,78.1784313 25.1994507,78.2693119 C25.2839577,78.4362787 25.1867746,78.5229323 25.0219859,78.4848892 C24.8804366,78.4066896 24.7494507,78.3136955 24.6269155,78.2059068 C24.6079014,78.1911123 24.591,78.1742043 24.5740986,78.1594098 C24.6290282,78.2967875 24.525507,78.3813276 24.3881831,78.3538521 C24.1938169,78.315809 23.8283239,77.988216 23.7395915,77.8149088 C23.7332535,77.8043413 23.7290282,77.7937738 23.7226901,77.7832063 C23.619169,77.7134607 23.5071972,77.6162395 23.4226901,77.5232454 C23.3550845,77.6204665 23.2240986,77.6923256 23.1649437,77.5739695 C22.9874789,77.0899773 22.7107183,76.6757307 22.3325493,76.3270027 C22.1170563,76.0120908 21.8550845,75.7436759 21.5487465,75.5217581 C21.3839577,75.3822669 21.212831,75.2491162 21.0374789,75.1223061 C20.7269155,74.9807014 20.4036761,74.8729127 20.0656479,74.8010536 C19.9980423,74.7799186 19.9283239,74.7672376 19.8607183,74.748216 C19.7107183,74.7207405 19.562831,74.693265 19.412831,74.6721299 C18.8022676,74.5875898 18.1895915,74.5727953 17.5769155,74.6277464 C17.4670563,74.6319734 17.3614225,74.5474333 17.3149437,74.4502121 C17.1776197,74.4565526 17.0424085,74.4628932 16.9050845,74.4755742 C16.6790282,74.4840282 16.7276197,74.1648892 16.8987465,74.1331867 C17.1142394,74.0930301 17.3297324,74.0634411 17.541,74.0380791 C17.5367746,74.0190575 17.534662,73.9979225 17.5388873,73.9810145 C17.1522676,73.961993 16.7677606,73.970447 16.3790282,74.0106035 C16.2100141,74.0190575 16.4107183,73.7062591 16.5036761,73.6893511 C16.5459296,73.6808971 16.5881831,73.6766701 16.6325493,73.668216 C16.6283239,73.6618755 16.6262113,73.6576485 16.6240986,73.651308 L16.6240986,73.651308 L16.6135352,73.651308 C16.3811408,73.6618755 16.2226901,73.2920125 16.5015634,73.2412885 C16.5712817,73.2286074 16.6388873,73.2201534 16.706493,73.2074724 C16.6938169,73.1715429 16.6917042,73.1398403 16.7043803,73.1102513 C16.5839577,73.1081378 16.4656479,73.1081378 16.3452254,73.1081378 C16.4107183,73.1039108 16.4593099,72.8207014 16.5374789,72.8101339 C16.5987465,72.8016798 16.6621268,72.7932258 16.7233944,72.7847718 C16.7276197,72.7065722 16.8459296,72.524811 16.8966338,72.5142434 C17.2980423,72.4466114 17.691,72.4001143 18.0797324,72.3853198 C18.1177606,72.2965526 18.1726901,72.1781965 18.225507,72.1781965 Z" id="ðŸ–-Ink" fill="#000000"></path>
                    </g>
                    <g id="face/Smiling" transform="translate(112.183099, 77.354207)" fill="#000000" fill-rule="evenodd">
                        <path d="M30.968993,50.9198978 C29.548794,50.3403012 28.2816173,49.3734958 27.3551889,48.1384646 C27.0331038,47.7091169 26.9495926,47.2557326 27.017159,46.8410547 C27.0931327,46.3747786 27.3688808,45.9521824 27.7449394,45.6687178 C28.1221628,45.3843752 28.5940214,45.2441445 29.0502103,45.3156301 C29.4466117,45.3777469 29.8412104,45.5948709 30.1535058,46.0451781 L30.2187521,46.1352289 C30.7695298,46.8806513 31.4872438,47.4922614 32.3050288,47.8864795 C33.0932406,48.2664417 33.9747757,48.4437847 34.8870208,48.3406561 C36.6244504,48.1443157 37.8219743,47.2043274 39.0948115,45.9278391 C39.2525834,45.7666792 39.4104563,45.6004672 39.5690946,45.4315797 C39.6692778,45.278484 39.8083069,45.1800892 39.962667,45.1284632 C40.1340565,45.0711416 40.327938,45.0743848 40.5055187,45.1363808 C40.6767961,45.1961763 40.8299095,45.309486 40.9325762,45.4602937 C41.0301525,45.6036243 41.0854754,45.7806897 41.0675245,45.9843589 C40.9510195,47.3072301 40.2596776,48.4878363 39.2776553,49.4148615 C38.1869942,50.4444414 36.7412431,51.1567117 35.3801317,51.4065272 C33.8805866,51.6817086 32.3525901,51.4845569 30.968993,50.9198978 L30.968993,50.9198978 Z M36.0875289,30.5120405 C37.6828906,31.482148 40.1137318,33.7442494 38.3974899,36.149264 C36.3773089,38.2698449 33.4687045,35.8384541 32.0353946,34.7388307 C30.7063626,33.8866164 29.2131206,36.0784478 30.4461973,37.0735516 C40.8033244,44.7445605 45.006466,30.7657101 36.8944406,29.3714319 C36.0012775,29.2177885 35.6695544,30.2119271 36.0875289,30.5120405 Z M17.5274577,21.5886716 C17.7037243,19.3998697 21.0359789,18.9028321 21.3674577,21.0687499 C21.6642887,23.0089456 21.3148521,24.7912626 20.4412606,26.5380728 C19.6065423,28.2068947 17.5085456,27.4283107 17.3498837,25.9087021 C17.1372039,23.8717299 17.4178099,22.9502317 17.5274577,21.5886716 Z M42.8930282,20.6196517 C43.3576056,20.0109628 44.0283803,19.5954481 44.8320423,19.8302583 C47.3429577,20.5642779 46.6028873,24.1303914 45.7210563,25.8662114 C45.2419014,26.8088337 43.6930986,27.0478708 42.993169,26.2178982 C41.8523239,24.864411 41.3059859,22.1614521 42.756338,20.8282544 C42.7956338,20.7593542 42.8393662,20.68982 42.8930282,20.6196517 Z M20.4058944,12.0111429 L20.802522,11.9416942 C22.0295218,11.7294045 23.5551549,11.5254176 24.4231479,12.5122544 C24.8835,13.0355577 25.0419507,14.0081918 24.4231479,14.509092 C23.3346972,15.3904227 22.1313169,15.0488806 20.8269507,15.1234873 C19.7520211,15.1852016 18.7189225,15.3631585 17.6835,15.6592603 C15.4119507,16.3087397 13.5610352,17.4944149 11.6209648,18.7963327 C11.3663873,18.9671037 11.1065282,18.6414129 11.228007,18.4032211 C12.3479366,16.208771 14.5182887,14.4061644 16.6922324,13.3073542 C17.8525141,12.7208571 19.1222324,12.2343288 20.4058944,12.0111429 Z M40.6041287,11.0281289 L40.9077055,11.0902829 C44.2113469,11.7811043 48.5035506,13.1610768 50.0679842,16.4073021 C50.1275964,16.8663298 50.0646105,16.9647086 50.0133917,17.0289838 L49.9963385,17.0503723 C49.9541341,17.1052595 49.9204583,17.1809212 49.7215736,17.2433957 C49.6663832,17.2302408 49.6106433,17.216308 49.5543131,17.2015401 C48.8372041,17.0135386 48.2698321,16.7545401 47.720556,16.4857982 L47.1250012,16.192275 C46.4340388,15.8533498 45.7369757,15.5267598 44.9982488,15.2856588 C43.4217423,14.7712438 41.8001698,14.4088706 40.1534741,14.2153715 C39.7965654,14.1734678 39.4528848,14.0529641 39.1817455,13.8464404 C38.92438,13.6504079 38.7277692,13.3789964 38.6381257,13.0182314 C38.5219478,12.5513438 38.5553348,12.1978716 38.8057421,11.7766707 C38.9940329,11.4603578 39.263447,11.2411116 39.5728025,11.115213 C39.888177,10.9868648 40.2472278,10.9566068 40.6041287,11.0281289 Z" id="ðŸ–-Ink"></path>
                    </g>
                    <g id="facial-hair/*-None" transform="translate(104.577451, 109.479380)"></g>
                    <g id="accessories/*-None" transform="translate(88.521127, 88.978474)"></g>
                </g>
            </g>
        </g>
    </g>
</svg>