<?xml version="1.0" encoding="UTF-8"?>
<svg width="240px" height="324px" viewBox="0 0 240 324" version="1.1" xmlns="http://www.w3.org/2000/svg" xmlns:xlink="http://www.w3.org/1999/xlink">
    <!-- Generator: Sketch 62 (91390) - https://sketch.com -->
    <title>peep-1</title>
    <desc>Created with Sketch.</desc>
    <g id="Introduction" stroke="none" stroke-width="1" fill="none" fill-rule="evenodd">
        <g id="variations" transform="translate(-126.000000, -110.000000)">
            <g id="images" transform="translate(126.000000, 110.000000)">
                <g id="a-person/bust">
                    <g id="body/Dress" transform="translate(31.056338, 135.052838)" fill-rule="evenodd">
                        <path d="M161.739486,136.423804 C161.226951,131.66187 160.911106,126.866543 160.729838,122.080516 C160.548782,117.300195 160.785613,112.461119 160.889556,107.678895 C161.101458,97.9506528 161.445824,88.199373 160.671528,78.4859249 C159.939908,69.3059249 158.26012,60.189964 155.609345,51.3694708 C154.3185,47.0737761 152.958148,42.6051969 150.83512,38.6360384 C148.700261,34.6453221 145.318711,31.9878035 141.604204,29.5507233 C137.649486,26.9559757 133.726458,24.3121949 129.787162,21.6933534 C126.480401,19.495099 120.529647,16.9365879 117.816548,13.997762 C114.961689,10.9054959 114.425036,3.2404227 112.523839,-0.422700587 C110.67229,-3.99071624 105.431162,-6.31822011 101.395648,-6.31822011 C94.7158947,-6.31822011 89.6547676,-6.65971115 84.1622324,-0.478349119 C81.4218803,2.60588571 83.6022444,5.72378026 80.72985,8.68395248 C78.089005,11.4055102 71.335331,14.202465 67.9315986,15.7816744 C63.8549789,17.6730481 59.6754718,19.3429268 55.435331,20.8304102 C51.1100493,22.3479053 46.6757535,23.4788407 42.3261761,24.9109503 C38.1570211,26.2836705 32.7130211,31.9417203 29.4764014,34.9354972 C26.4673169,37.7189806 25.7205423,37.4072477 23.4329366,40.7886411 C18.4123732,48.2093613 13.3863169,55.7152556 9.38828873,63.749737 C7.39688028,67.7518661 5.46864085,71.9617526 4.74610563,76.4064493 C3.97540141,81.1470364 4.73955634,85.7282654 5.98941549,90.3181597 C7.26166901,94.9892125 11.3017365,99.4365088 12.6179337,104.095726 C13.224483,106.242834 11.1424437,108.586011 12.1001197,110.609479 C12.5784296,111.619944 13.1807535,112.519663 13.8665282,113.400148 C14.3949085,114.078582 16.4554742,113.928237 16.7220939,114.758632 C16.9914601,115.59727 15.5006831,117.337604 15.4785,118.20562 C15.4470211,119.447725 15.3975845,120.689831 15.3568099,121.931937 L15.1159648,129.275303 C14.9577254,134.100852 14.7994859,138.926614 14.6412465,143.752164 C14.5894859,145.327357 14.5140634,146.86641 14.8915986,148.361079 C14.755331,148.234692 14.6258239,148.097103 14.5075141,147.942606 C14.1612465,147.490316 13.4268803,147.873706 13.7207535,148.402715 C14.2113169,149.285526 14.9167394,149.906895 15.7455423,150.353267 C16.7087113,151.773753 162.572937,154.946543 163.290613,150.79351 C163.693289,148.463373 162.960401,145.968805 162.667373,143.653674 C162.362303,141.242379 161.999768,138.84144 161.739486,136.423804 Z" id="ðŸŽ¨-Background" fill="#FFFFFF"></path>
                        <path d="M13.5693592,76.4147554 C13.9261901,75.3922427 15.5584437,75.8347082 15.1990775,76.8640861 C13.3517535,82.1575656 14.6622465,87.9179178 16.6593592,92.971092 C17.0601338,93.9849393 15.4249225,94.4205323 15.0296408,93.4204227 C12.9287958,88.1049628 11.6290775,81.9739022 13.5693592,76.4147554 M25.9557676,106.650951 C31.1656268,107.384125 36.3797113,107.836415 41.6254859,108.202051 C41.859993,108.218959 42.0628099,108.183241 42.238162,108.106943 C42.0818239,110.509996 41.9550634,112.915162 41.8557676,115.320329 C40.4254859,115.280384 38.9656268,115.37528 37.5480211,115.337237 C35.6952042,115.286513 33.8445,115.193519 31.9959085,115.052125 C28.4170352,114.781386 24.8445,114.350231 21.3057676,113.754223 C19.9832324,113.532305 18.3036549,113.397041 16.7973169,112.957432 C15.3733732,112.541284 14.1057676,111.85207 13.4402746,110.55438 C12.8740775,109.455358 12.7705563,108.109268 12.7705563,106.894004 C12.7705563,106.056845 12.9142183,105.207217 13.000838,104.36393 C13.1085845,104.288055 13.2057676,104.196963 13.2839366,104.095726 C14.8557676,104.592188 16.4867535,104.941127 18.0839366,105.279076 C20.6846408,105.832814 23.3233732,106.281088 25.9557676,106.650951 M23.0174577,87.1088689 C23.0461901,88.7242192 23.4930211,90.1916243 24.3623873,91.5516634 C24.9505563,92.4720939 23.4871056,93.3189746 22.9029507,92.4050959 C21.8795704,90.8036947 21.3611197,89.0061605 21.3273169,87.1088689 C21.3078803,86.0185127 22.9980211,86.0221057 23.0174577,87.1088689 M156.565627,104.731679 C157.271049,104.771202 157.980908,104.795295 158.688444,104.832916 C159.312528,105.366787 160.176613,105.640485 160.965697,105.47056 C160.992951,105.538826 161.017669,105.615546 161.040275,105.70389 C161.179711,106.247061 161.24943,106.830387 161.329711,107.384125 C161.409993,107.929409 161.471261,108.479131 161.513514,109.028642 C161.534641,109.305299 161.667739,109.930896 161.498725,110.172047 C161.346613,110.389526 161.010697,110.370505 160.778303,110.39798 C160.152951,110.465613 159.519148,110.497526 158.88957,110.550364 C157.700134,110.653714 156.510697,110.757276 155.323373,110.860838 C154.159289,110.962497 152.88112,110.930795 151.742387,111.237252 C151.548021,108.952344 151.370556,106.667859 151.205768,104.380838 C152.969852,104.64101 154.814218,104.634458 156.565627,104.731679 M8.6529507,100.94238 C9.36280986,102.313832 10.0177394,103.662247 11.3761901,104.486513 C11.5536549,104.592188 11.7522465,104.649252 11.9550634,104.664047 C11.8029507,105.317119 11.7078803,105.984986 11.6233732,106.602129 C11.4374577,107.961323 11.3973169,109.366591 11.7374577,110.706552 C12.0691479,112.010583 12.6184437,113.175335 13.6959085,114.010168 C14.1966127,114.399053 14.7437958,114.694732 15.3184437,114.929331 C15.2212606,115.201973 15.1642183,115.472712 15.1937958,115.770716 C15.0564718,116.46162 14.9656268,117.165628 14.866331,117.839624 C14.6487254,119.335984 14.4311197,120.834458 14.259993,122.339272 C13.9177394,125.331992 13.6494296,128.324712 13.4233732,131.328 C13.1973169,134.322834 13.0346408,137.322106 12.8994296,140.32328 C12.8297113,141.857683 12.7684437,143.391875 12.7114014,144.928391 C12.6543592,146.507389 12.3987254,148.121894 13.0959085,149.586763 C13.6578803,150.770325 15.5571761,150.702481 16.1402746,149.586763 C16.8797113,148.168391 16.6621056,146.48393 16.6811197,144.928391 C16.7001338,143.463734 16.7254859,141.997174 16.7571761,140.532305 C16.8205563,137.533456 16.9135141,134.536297 16.9874577,131.537448 C17.0592887,128.610247 17.1480211,125.684947 17.2071761,122.757746 C17.2367535,121.225456 17.2388662,119.693166 17.2473169,118.160877 C17.2515423,117.311249 17.2874577,116.404767 17.2240775,115.518998 C17.7522465,115.643695 18.2846408,115.74937 18.8106972,115.857159 C22.8268944,116.681425 26.8853451,117.281659 30.9691479,117.653636 C33.0205563,117.839624 35.0783028,117.970661 37.1360493,118.044845 C38.6487254,118.099585 40.216331,118.20526 41.7522465,118.148407 C41.6318239,121.817237 41.5768944,125.488391 41.5832324,129.159757 C41.5874577,131.807765 41.6233732,134.455984 41.6888662,137.104204 C41.7247817,138.497002 41.7543592,139.8898 41.7966127,141.282599 C41.8156268,141.908407 41.8156268,142.540133 41.8578803,143.163616 C41.8705563,143.358059 41.8980211,143.546372 41.9339366,143.73236 C41.7945,144.127585 41.6783028,144.518372 41.5832324,144.884219 C41.1184437,146.65935 41.1184437,148.365159 41.3254859,150.174106 C41.5029507,151.708509 42.7937958,153.130896 44.4987254,152.592164 C44.7754859,152.505299 45.0522465,152.414419 45.3268944,152.321425 C47.8367535,152.606748 50.3614014,152.672477 52.9071761,152.720877 C56.6275986,152.792947 60.3501338,152.815984 64.072669,152.835006 C71.3740775,152.87326 78.6775986,152.892282 85.9811197,152.913205 C100.65788,152.955476 115.334641,152.995632 130.011401,153.037902 C134.084641,153.050795 138.15788,153.061151 142.23112,153.074043 C144.33957,153.080172 146.443796,153.082286 148.550134,153.16281 C149.532528,153.200853 150.517035,153.253691 151.49943,153.268485 C152.638162,153.287507 153.645908,152.959703 154.733937,152.66191 C155.348725,152.490505 155.591683,151.873362 155.460697,151.351538 C156.445204,151.585926 157.638866,151.08735 157.974782,149.977761 C158.219852,149.172305 158.129007,148.299429 157.763514,147.553362 L157.763514,147.551249 C157.05788,143.093871 156.162106,138.657628 155.458585,134.198137 C154.687458,129.313832 153.945908,124.41917 153.293092,119.515843 C152.802951,115.812775 152.39943,118.437746 152.050838,114.71798 C153.569852,114.836337 155.287458,114.373691 156.791683,114.176924 C157.871261,114.037644 158.959289,113.925417 160.040979,113.777472 C159.960697,114.868039 159.983937,115.979742 159.954359,117.025926 C159.897317,119.103499 159.922669,121.172618 159.975486,123.250403 C160.076894,127.259507 160.302951,124.9262 160.664218,128.918607 C161.029711,132.940603 161.477599,136.947804 162.020556,140.95099 C162.29943,143.011656 162.597317,145.069996 162.912106,147.126434 C163.05788,148.085965 163.20788,149.043593 163.362106,150.003123 C163.545908,151.133636 163.605063,152.205393 164.452246,153.05481 C165.096613,153.699429 166.41281,153.644477 166.83957,152.746239 C167.380415,151.611288 167.135345,150.639076 166.934641,149.447272 C166.771965,148.489644 166.615627,147.532227 166.461401,146.575022 C166.131824,144.522599 165.819148,142.468274 165.525486,140.412047 C164.959289,136.449229 164.424782,132.479859 163.947317,128.506685 C163.465627,124.501386 162.967035,126.841033 162.493796,122.836157 C162.255063,120.815436 162.016331,118.799155 161.737458,116.785198 C161.595908,115.74937 161.507176,114.646333 161.321261,113.578802 C161.380415,113.57056 161.43957,113.559781 161.498725,113.549213 C162.783232,113.314614 163.879711,112.589683 164.202951,111.26663 C164.511401,110.000642 164.143796,108.544438 163.883937,107.30191 C163.662106,106.243468 163.461613,104.892305 162.780486,103.985401 C165.180486,100.927162 166.741542,97.0788963 167.737246,93.3792094 C168.821894,89.3485479 169.275908,85.1411977 169.372035,80.9759061 C169.483585,76.1503562 169.119993,71.3527045 168.293303,66.6345205 C168.273866,65.6346223 168.22781,64.6351468 168.153655,63.636728 C167.426894,53.8387397 164.37619,42.2419491 154.704359,37.6638904 C154.666331,37.6450802 154.62619,37.6279609 154.586049,37.6110528 C153.827599,36.7043601 152.88112,35.8885479 152.116331,35.1257847 C150.762106,33.7729315 149.346613,32.4794677 147.846613,31.2874521 C144.87619,28.9268806 141.618444,27.041636 138.231824,25.3442818 C134.807176,23.6260039 131.331824,22.0136125 127.985345,20.1387241 C125.069852,18.5028728 122.445908,16.5330881 119.955063,14.309683 C117.155768,11.809409 115.163514,8.43837182 114.381824,4.75876321 C114.341683,4.56664579 114.056472,4.61948337 114.052246,4.80314677 C113.847317,11.5473346 118.398021,17.5074129 123.635345,21.2779022 C129.897317,25.7819883 137.458585,27.9143014 143.809289,32.2810098 C145.387458,33.3652368 146.864218,34.588955 148.269148,35.8885479 C146.116331,35.6687436 143.925486,35.8082348 141.90788,36.4042427 C141.113514,36.3556321 140.314923,36.3410489 139.518444,36.3027945 C137.697317,36.2119139 135.874077,36.1275851 134.050838,36.0470607 C130.334641,35.8824188 126.616331,35.7323601 122.898021,35.6013229 C115.602951,35.3432642 108.305768,35.1488219 101.008585,35.0201096 C86.3445,34.7599374 71.6614014,34.7092133 56.9994296,35.1342387 C53.0233732,35.2483679 32.116331,34.4558043 30.1811197,34.6796243 C33.0268944,32.2152798 36.1494296,30.2034364 39.5825282,28.5483523 C43.8775986,26.4834599 48.316331,25.105456 52.9029507,23.8458082 C62.3487254,21.2525401 72.1578803,18.7522661 79.7170352,12.1644775 C81.5952042,10.5265127 83.2642183,8.64359295 84.6311197,6.55756556 C85.9367535,4.56664579 87.388162,2.0175499 87.4240775,-0.410864971 C87.4494296,-2.13527202 85.0494296,-2.76319374 84.1959085,-1.28585519 C83.6656268,-0.370708415 83.4036549,0.633205479 82.9705563,1.59273581 C82.5395704,2.54381213 82.0283028,3.46107241 81.459993,4.33838748 C80.3423873,6.06300587 78.9564718,7.60142466 77.4480211,8.98999609 C74.2325282,11.9531272 70.3367535,14.1236947 66.3057676,15.7658865 C57.1536549,19.4919922 47.1437958,21.0644384 38.4712606,25.9764305 C34.6768944,28.1256517 31.0452042,31.0911076 28.7656268,34.8740665 C28.3980211,34.9313425 28.0325282,34.9987632 27.6670352,35.0748493 C27.9395704,34.7303483 28.2142183,34.3860587 28.4909789,34.0434599 C28.672669,33.8194286 28.3916831,33.5237495 28.1698521,33.7222074 C23.8578803,37.5603288 19.8860493,41.704908 16.2860493,46.2235773 C12.8423873,50.5478043 9.63111972,55.0793659 7.35788028,60.143319 C3.27196479,69.2398356 2.37196479,79.6443992 4.48252817,89.3709511 C5.05717606,92.0210724 5.86844366,94.616454 6.90154225,97.125182 C7.43393662,98.4207593 8.01069718,99.6973151 8.6529507,100.94238" id="ðŸ–-Ink" fill="#000000"></path>
                    </g>
                    <g id="head/Bangs" transform="translate(78.591549, 38.043053)" fill-rule="evenodd">
                        <path d="M91.1867204,89.7909012 C90.3492556,88.551976 88.3327063,79.5611531 87.0446077,78.1782925 C87.1417908,72.8670108 88.6094698,54.478054 84.4173079,46.2117417 C85.2991388,45.319674 87.642495,37.6360911 87.0446077,34.731419 C89.0195373,28.6483275 76.3322838,18.986788 71.5037626,16.3760101 C49.0627063,4.3377697 16.5439739,17.6259434 6.33826967,39.9265969 C0.205382343,53.3568368 0.0923541742,68.3936293 -0.601026108,82.8447103 C-0.682997939,85.9379732 -0.967152868,89.0553291 -0.963983854,92.1448534 C-0.52053315,94.8596885 1.63119718,97.6243816 -2.65565347e-13,99.8818632 C-1.80190141,101.128681 -5.44370216,104.166063 -3.82222329,105.888511 C-2.8719416,106.680053 -1.35398385,106.22083 -0.322786671,106.981839 C0.202213329,107.275734 0.529678118,107.919601 1.14362178,108.017635 C6.75193164,107.804536 10.7094961,107.786283 16.3351299,107.558853 C18.7978764,107.478265 22.5479362,108.520266 25.3747485,106.445768 C35.2489445,111.939951 31.1187167,103.968886 33.1154068,98.2937157 C39.1956885,100.350352 51.3076359,106.908729 57.7886922,107.120582 C63.0553823,107.771719 67.9802415,104.70338 73.157988,105.401872 C79.5904528,107.792489 87.1289035,108.323991 93.0209457,104.279259 C94.4913683,103.219785 96.127284,104.447064 97.9805234,103.303057 C101.582425,101.579777 93.0044669,91.7025638 91.1867204,89.7909012 Z" id="ðŸŽ¨-Background" fill="#FFFFFF"></path>
                        <path d="M83.8357606,45.5063601 C83.7559014,45.0475186 84.3878028,44.7053425 84.6322394,45.1703131 C86.4079437,48.5479022 87.1192817,52.4595734 87.7482254,56.1903288 C88.383507,59.9603953 88.8032958,63.7461018 88.8265352,67.5732329 C88.8442817,70.5171311 88.5770282,73.4950568 88.0752676,76.4410685 L88.1363239,76.650728 L88.1363239,76.650728 C88.249,77.0358082 88.3627089,77.4206067 88.4776385,77.8051233 L88.6509718,78.3816869 C88.9860423,79.4887397 89.3033662,80.600865 89.6475211,81.7051703 C90.3660423,84.0099452 91.1225915,86.321272 92.0492113,88.5516517 C92.9534366,90.728137 94.0530845,92.8270568 95.3601972,94.7888102 C96.6199859,96.6799726 98.6192113,98.2790489 99.5067465,100.379448 C99.8160423,101.111354 99.3586479,102.078916 98.5042817,101.962039 C98.4487183,102.029037 98.364,102.077648 98.2490704,102.087793 C97.5856901,102.145703 96.9639296,102.09054 96.3020282,102.028403 C95.9325211,101.993742 95.9331549,101.488403 96.3020282,101.453742 C96.5832254,101.427323 96.8570282,101.404074 97.1306197,101.388223 C95.237662,100.266164 93.8872394,98.0750959 92.8074507,96.2813659 C91.4198451,93.9768023 90.3717465,91.458775 89.5173803,88.9124266 C88.6399859,86.2980235 88.0186479,83.629092 87.5194225,80.9191585 C87.462169,80.6072055 87.407662,80.2950411 87.3552676,79.982454 C86.7244225,82.6651233 85.9120986,85.2987593 84.9493521,87.8298904 L84.814442,88.1821972 C82.595026,93.9379573 79.5890789,99.7490663 74.5894225,103.553507 C74.3625211,103.725969 74.1307606,103.889765 73.8970986,104.049969 L74.1815242,104.213085 C74.4646162,104.374788 74.7434894,104.529892 75.0161831,104.657178 C76.0264648,105.128701 77.1231549,105.488207 78.2080141,105.742885 C80.4487183,106.269358 82.8018169,106.118454 85.0877324,106.191793 C85.8375211,106.215886 86.2640704,107.340481 85.4975915,107.705695 C82.9727324,108.908489 80.2456901,108.653178 77.639493,107.806932 C76.3499155,107.387824 75.1397746,106.801327 74.0202676,106.035605 C73.5573803,105.719213 73.0199155,105.328638 72.5661127,104.877194 C67.5660423,107.675894 61.3513944,107.989115 55.7861831,106.98816 C52.8941408,106.467816 50.0916761,105.517796 47.6259718,103.892724 C45.2542817,102.33 43.5637183,100.351339 42.3567465,97.7878708 C42.2496338,97.5606693 42.5473099,97.2776712 42.7300563,97.4998004 C46.5212535,102.10618 53.0456197,104.0282 58.785338,104.393836 C61.8478732,104.589123 64.9807606,104.426806 67.9251972,103.51018 C70.7183662,102.640262 73.1149859,101.045836 75.1161127,98.9253581 C79.1722394,94.6271272 81.602662,88.77991 83.3481549,83.2152681 C85.2470282,77.1615616 86.1512535,70.7923092 86.3378028,64.4568728 C86.4322394,61.2470959 86.3132958,58.0102661 85.8094225,54.8359961 C85.3095634,51.6879335 84.3818873,48.6411076 83.8357606,45.5063601 Z M26.9940211,18.2356838 C27.2625423,18.0991515 27.4516268,18.4544313 27.2238803,18.629218 C22.4963451,22.2562004 18.2625423,26.8551828 14.8357817,31.7227914 C8.5161338,40.7003178 4.46317606,51.0890301 2.59683803,61.8839577 C1.4948662,68.2589166 1.20711972,74.7304626 1.31719014,81.1903843 C1.36079577,83.7565151 1.50729718,86.3148005 1.67026732,88.8738975 L1.85424848,91.7106348 C1.93968393,93.0322652 2.01103536,94.3426488 1.9558777,95.670706 L1.94085211,95.9775076 C1.85338732,97.522901 2.00528873,99.080764 1.61782394,100.588326 C1.41902113,101.361445 0.329091549,101.483183 -0.065556338,100.808341 C-0.142880282,100.676247 -0.215133803,100.539926 -0.285274648,100.402337 C-1.21020423,101.911378 -2.40809155,103.260427 -3.73717606,104.465547 C-3.10189437,104.330283 -2.46048592,104.244052 -1.80196479,104.322885 C-0.758091549,104.448005 0.178246479,104.851261 0.84078169,105.558016 C1.49845775,105.261492 2.17472535,105.057328 2.95240141,105.053101 C3.52514789,105.050142 3.95465493,105.727519 3.62782394,106.230744 C2.97585211,107.235081 2.0661338,107.798118 1.03240141,108.354604 C0.299799917,108.749124 -0.574540125,108.411719 -0.845055943,107.631769 L-0.860556338,107.584443 C-1.16499296,106.59786 -2.78414789,106.757218 -3.54809155,106.909813 L-3.77291345,106.955737 C-5.19494102,107.251738 -6.58356338,107.630665 -8.03224648,107.239942 C-8.9666831,106.987801 -9.21090845,105.580631 -8.31006338,105.113547 C-5.46428873,103.638322 -3.07527465,101.656701 -0.620133803,99.6670497 C-1.16224648,98.337445 -1.47006338,96.8518638 -1.82499296,95.499856 C-2.32464085,93.5968579 -2.47062676,91.5492963 -2.6510493,89.5945174 C-2.99393662,85.8779225 -3.12471127,82.1209597 -3.0879507,78.3897816 C-2.96351408,65.7873863 -0.809007042,53.1458912 4.69430282,41.7340321 C7.10528873,36.7349636 10.2726127,32.1091397 14.0164859,28.0146505 C17.7381761,23.9442552 22.085007,20.7300399 26.9940211,18.2356838 Z M22.5880141,79.9528861 C22.4420282,79.7504125 22.7270282,79.4826317 22.9268873,79.6138802 C27.2538592,82.4571757 30.2566056,86.7746395 32.1941408,91.5175515 C34.1120282,96.2131209 35.2896338,101.964596 33.3981549,106.86116 C33.0970986,107.641043 31.6551972,107.930593 31.5075211,106.86116 C30.8481549,102.085489 30.7456901,97.3030544 29.2957606,92.6601112 C27.8582958,88.0575358 25.3987183,83.8427883 22.5880141,79.9528861 Z M19.233,95.4568885 C19.256662,95.3725597 19.3944085,95.3871429 19.388493,95.4780235 C19.2801127,97.1620626 19.2065915,98.8666027 18.9949014,100.541342 C18.8920141,101.355252 18.7559577,102.163879 18.6401831,102.975886 C18.5214507,103.808607 18.5394085,104.649358 18.0553944,105.360552 C17.4139859,106.303386 15.7099014,106.038141 15.7671549,104.740661 C15.806662,103.845593 16.2177887,103.271143 16.6029296,102.485554 C16.8499718,101.981836 17.065277,101.461209 17.27282,100.938204 L17.5813099,100.153726 C18.1944085,98.5979765 18.7810986,97.0684344 19.233,95.4568885 Z M11.4848028,90.9958333 C11.511,90.8633166 11.7245915,90.8952305 11.7182535,91.0273245 C11.6026901,93.4109391 11.3339577,95.7677002 10.9131127,98.116436 C10.7212289,99.1870045 10.49748,100.251586 10.2608314,101.313153 L10.1586761,101.767935 C9.90557746,102.885978 9.74226761,104.200366 9.17522535,105.199207 C8.60860563,106.197414 7.26325352,105.472483 7.4375493,104.466244 C7.64121127,103.291559 8.36184507,102.1099 8.78078873,100.981712 C9.16740845,99.9401777 9.50543662,98.880256 9.82128169,97.8152618 C10.4861408,95.5734693 11.0314225,93.289618 11.4848028,90.9958333 Z M25.9135945,97.613211 L25.9639648,97.5615147 C26.1608662,97.3474168 26.4545282,97.4900783 26.5485423,97.7160117 C26.9334718,98.6419374 26.7407958,99.733773 26.713331,100.716763 L26.7082275,100.931127 C26.6877441,101.926901 26.702007,102.859573 26.2506549,103.778806 C25.7026268,104.894947 24.2586127,104.201718 24.1468521,103.208795 C24.0247394,102.125202 24.5370634,101.064434 24.8679085,100.04953 C25.0781197,99.4044892 25.2312887,98.7336634 25.5509366,98.1482231 C25.2775563,98.1953542 25.0045986,98.2898278 24.754669,98.3580939 C24.6426972,98.388317 24.6004437,98.2238865 24.7073451,98.1858434 C25.1205951,98.0394728 25.5870417,97.9295342 25.9135945,97.613211 L25.9135945,97.613211 Z M83.5175704,100.899074 C83.3855282,100.75134 83.5501056,100.554573 83.7214437,100.634463 C85.7791901,101.595896 87.703838,102.221281 89.974331,102.42608 C90.9582042,102.514847 90.964331,104.061086 89.974331,103.971473 C87.6047535,103.758009 85.1213028,102.695129 83.5175704,100.899074 Z M11.1213803,68.4159288 C12.933,64.339193 18.6642676,60.7227781 22.5074366,64.5139796 C22.5794789,64.584782 22.506169,64.7392791 22.4015915,64.6959523 C20.0110986,63.7049307 17.0846197,64.9654239 15.4301831,66.7682419 C14.1175775,68.198238 13.3289155,70.0344493 13.1723662,71.969784 C13.0158169,73.9068094 13.4787042,75.9285863 14.7646901,77.4268485 C15.4392676,78.2128603 16.3502535,78.9568133 17.4222254,79.0512869 C18.5045493,79.1466059 19.406662,78.384054 20.429831,78.1769307 C21.201169,78.0209542 21.7834225,78.5051577 21.8590563,79.2658074 C22.0257465,80.9445628 20.3550423,82.0712712 18.9068028,82.3449699 C17.3489155,82.6391695 15.7589155,82.3177057 14.4165211,81.4731499 C10.0808873,78.745463 9.14560563,72.8625276 11.1213803,68.4159288 Z M51.7999648,28.4575562 C52.5877817,27.7043037 53.9278521,28.4531178 53.6371479,29.5276227 C53.0189789,31.8144329 51.7051056,33.7472313 50.2494718,35.5817519 C48.8489789,37.3467382 47.3485563,39.0428243 45.7403873,40.6213996 C44.1427817,42.1896188 42.407007,43.6407499 40.5827113,44.9369613 L40.0332797,45.3262871 C38.7403488,46.2380601 37.3708891,47.1601286 35.9236268,47.8168204 C35.5741901,50.828562 34.8905282,53.8001472 33.856162,56.6451335 C32.8600352,59.384656 31.5924296,62.0322411 30.0565141,64.5099006 L29.8359778,64.8647488 C28.424588,67.1275612 26.7274331,69.6564705 24.3324296,70.8969065 C24.2605986,70.9343155 24.1885563,70.9571413 24.1175704,70.9704564 C24.6533451,71.3278497 25.1060915,71.7773918 25.3752465,72.4232783 C25.6701761,73.1304564 25.0536972,73.7976892 24.4627817,74.0312313 C23.2131338,74.5251569 21.9941197,73.6890552 20.8708099,72.7971569 C20.8232746,72.9041002 20.7784859,73.0121002 20.7400352,73.1209456 C20.488838,73.8331961 20.4148944,74.5610865 19.7671479,75.0336658 C19.459331,75.2583311 19.0801056,75.057337 18.8863732,74.8028712 C18.2513028,73.9680376 18.9087676,72.8307616 19.4671479,72.1485229 C19.5444718,72.0542607 19.624331,71.9646481 19.7065141,71.8786286 C19.4705282,71.70511 19.2402465,71.551247 19.0171479,71.4331022 C17.7053873,70.7381824 15.7608803,70.6149652 15.0055986,72.153384 C14.9477113,72.2715288 14.7658097,72.2104485 14.7658097,72.0882881 C14.7677113,70.1986051 16.7027113,69.1722881 18.3818662,69.0327969 C19.6087096,68.9309509 20.7953171,69.3613625 21.8995925,69.862553 L22.105669,69.9572431 C22.5165845,70.1480924 22.9399648,70.3281628 23.3451761,70.5295796 C23.2792606,70.3556384 23.2803169,70.1510513 23.3840493,69.948155 C24.6539789,67.4671139 26.8346831,65.449564 28.4073592,63.1517636 C29.9669366,60.8721393 31.3059507,58.4325229 32.3747535,55.8851178 C33.4120775,53.4125307 34.2248239,50.8623781 34.7931338,48.26129 C34.6059507,48.2999671 34.3948944,48.1332117 34.4082042,47.9377127 C34.4398944,47.4647108 34.6712324,47.0386286 35.0775,46.8570787 C35.5249648,44.4104877 35.7533451,41.922472 35.7400352,39.4143781 C35.7389789,39.2199358 36.0205986,39.2269104 36.0370775,39.4143781 C36.2348239,41.644335 36.2508803,43.8960611 36.0846127,46.1346834 C37.1413732,45.1620493 38.2558099,44.2373918 39.2732746,43.238973 C40.804331,41.7366951 42.2855282,40.1942607 43.714331,38.5945503 C45.1720775,36.9625033 46.5499648,35.2704329 47.8099648,33.4800845 L48.4693598,32.5411795 C49.4831829,31.101816 50.5246102,29.6775078 51.7999648,28.4575562 Z M49.8120423,12.3894387 C58.5069718,11.8464798 67.7930282,12.9154896 75.603169,16.9985659 C79.8925352,19.2407812 83.2079577,22.6297832 85.5769014,26.8472783 C86.991338,29.3657284 88.0643662,32.1544955 88.4708451,35.0216736 C88.8883099,37.9676853 88.398169,40.5945581 86.5178873,42.9363194 C85.7710563,43.8662607 84.513169,42.827474 84.6971831,41.875975 C85.8228169,36.0545425 83.9970423,30.3028556 80.7589437,25.4834348 C76.0601408,18.4898536 67.8542958,15.3832157 59.8647887,13.9973918 C55.9394366,13.3168438 51.9580986,13.0323663 47.9757042,13.1708008 C44.9395775,13.2764759 41.8250704,13.559474 38.9438028,14.5813526 C38.8223239,14.6244681 38.7739437,14.4350982 38.8909859,14.3905033 C42.3278873,13.077384 46.164507,12.6172744 49.8120423,12.3894387 Z M62.7073944,25.5529479 C63.1550704,25.2691045 63.7026761,25.5603452 63.8564789,26.0208775 C64.3990141,27.6444705 63.2619718,29.7894646 62.5014085,31.1945213 C61.6407042,32.7845096 60.5338732,34.2711476 59.3909155,35.6675389 C57.1043662,38.4603217 54.0990845,40.7906701 50.8011972,42.2553276 C50.5992254,42.3451515 50.3638732,42.1012532 50.5491549,41.9287914 C53.1008451,39.5517346 55.4144366,37.0032728 57.4172535,34.1443374 C58.401338,32.739492 59.2221127,31.2575037 60.0059155,29.7351476 C60.7073239,28.3727836 61.3669014,26.4029988 62.7073944,25.5529479 Z M77.3308521,27.4655624 C77.6169085,26.4662982 79.2462042,26.6364352 79.1788099,27.7158012 C79.0045141,30.5041456 77.6895845,33.3030575 76.2607817,35.6661652 C74.7895141,38.0994411 72.9263451,40.2678951 70.7906408,42.1406701 C70.6854296,42.2330301 70.5413451,42.0907914 70.6366268,41.9865957 C72.4793028,39.9686231 73.9676831,37.6699773 75.0698662,35.1684352 C76.1707817,32.6704861 76.5863451,30.0641143 77.3308521,27.4655624 Z M69.2330915,27.0140971 C69.5447113,26.145236 71.0362606,26.2096978 70.9447817,27.2459483 C70.6933732,30.0945276 69.0222465,33.0798505 67.4745,35.432602 C65.8321056,37.9288603 63.7356972,40.1279601 61.3927394,41.9749503 C61.3050634,42.0440618 61.1810493,41.92951 61.2666127,41.8487742 C63.3710493,39.8652517 65.077669,37.5740031 66.4287254,35.0183554 C67.1183028,33.7143241 67.6967535,32.3563984 68.1535141,30.9536665 C68.5760493,29.6559757 68.7744296,28.293189 69.2330915,27.0140971 Z" id="ðŸ–-Ink" fill="#000000"></path>
                    </g>
                    <g id="face/Monster" transform="translate(112.183099, 77.354207)" fill="#000000" fill-rule="evenodd">
                        <path d="M21.3723169,44.5256102 C22.9045739,44.2297198 24.8108537,44.8742816 26.3389908,45.1567196 L26.4528803,45.1772031 C28.3059085,45.5009918 30.1549225,45.8924125 32.0284437,46.0834732 C33.8170352,46.2662912 35.6436549,46.2990505 37.4324577,46.0934067 C38.2914718,45.9944947 39.1430915,45.8262599 39.9775986,45.6005378 C40.3346408,45.5039507 40.6887254,45.396162 41.0385845,45.2765378 L41.0781433,45.2613897 C41.3351747,45.1552347 42.030229,44.7551937 42.0220352,44.9781112 C42.2174577,44.7526004 42.4866127,44.5926082 42.7821761,44.5148313 C43.1992183,44.4051405 43.7345704,44.5080681 44.0835845,44.8031131 C44.5375986,44.4433949 45.2187254,44.7014536 45.523162,45.1321855 C46.0452706,45.8708971 45.8753742,46.7366555 45.8079129,47.593644 L45.8022465,47.6692344 C45.7449401,48.4770153 45.6572245,49.2792944 45.5490068,50.0810274 L45.5014014,50.4246082 C45.3330211,51.6104947 45.2867535,53.5663303 43.8503451,53.9550035 C42.7142535,54.2626943 41.6746995,53.0932814 40.9423394,52.1653313 L40.5414718,51.6512853 C40.0667535,51.0487256 39.6357676,50.4284125 39.2884437,49.7434262 C39.1302042,49.4316845 38.9772465,49.1123342 38.8447817,48.7887569 C38.8280915,48.7479663 38.815838,48.7114027 38.803162,48.6746278 C36.6964014,48.9582599 34.5397817,48.9176806 32.4275282,48.6391209 C31.0902042,48.4626434 29.7727394,48.207755 28.4751338,47.8653675 L27.8897133,48.9239762 C27.2046278,50.1584947 26.5097582,51.3892344 25.7793592,52.5958098 L25.7226839,52.6877235 C25.0389698,53.7759201 23.8941199,54.8657901 22.5406268,54.0507452 C21.3294296,53.321164 21.2778803,51.6616415 21.1502746,50.4233401 C21.0650546,49.5961415 20.9960097,48.7632793 20.962813,47.9315499 L20.950838,47.5751836 C20.9290775,46.7686708 20.7978803,45.8338685 21.1078099,45.0795593 C21.1528099,44.9696571 21.3106268,44.885117 21.4056972,45.0007256 C22.0532324,45.7882168 22.2490775,47.0087648 22.5287958,47.9752697 C22.8402042,49.05062 23.2912606,50.2250935 23.4530915,51.3406004 L23.4983028,51.2619781 L23.4983028,51.2619781 C23.6577042,50.9590074 23.8203275,50.6576748 23.983743,50.3567648 L24.4739366,49.4540877 C24.9135845,48.6391209 25.3612606,47.8292266 25.8129507,47.0212344 C25.2971761,46.8273558 24.7861901,46.6191053 24.2772387,46.4073793 L23.1221976,45.9243235 C22.4624167,45.6455319 21.7896761,45.3308548 21.2937254,44.8236141 C21.205838,44.7337902 21.2364718,44.5516063 21.3723169,44.5256102 Z M43.2845704,47.5031131 C42.1464718,47.9659703 40.9692887,48.2999037 39.7707676,48.5213988 C39.8480915,48.6006552 39.9252042,48.6799115 39.9970352,48.7631836 C40.2790775,49.0897198 40.5782852,49.4033401 40.8792535,49.7134624 L41.0599225,49.8991914 C41.5209085,50.3724047 42.2134437,51.1516532 42.9201338,51.6045769 L42.9583353,51.4001161 C42.9645891,51.3648793 42.9694912,51.3342863 42.9721056,51.3105886 L43.0473795,50.6382599 C43.0595704,50.5261738 43.0714014,50.4140407 43.0825986,50.3018137 C43.1434437,49.6954497 43.1918239,49.0878176 43.2425282,48.4806082 C43.2691479,48.1606239 43.2754859,47.8319742 43.2845704,47.5031131 Z M29.8161972,8.43131272 C32.5267606,7.27311311 35.7437324,7.81992935 38.0784507,9.56943405 C40.4674648,11.3597824 41.5121831,14.2704986 41.6503521,17.1744517 C43.5397183,15.5605808 46.2606338,16.7821855 47.8519014,18.2943969 C49.6882394,20.0395162 50.6169718,22.6731523 50.1889437,25.1725808 C49.7623944,27.6635554 47.960493,29.8611757 45.5226761,30.6019585 C44.3562676,30.956393 43.056338,30.9644243 41.8829577,30.6347178 C41.484507,30.5224908 40.9962676,30.3487609 40.5452113,30.1067648 C40.5709859,30.2103264 40.5971831,30.3140994 40.6216901,30.4174497 C41.2071127,32.8963773 41.5390141,35.6828196 40.6605634,38.1342716 C39.248662,42.0736297 34.2338028,44.2788587 31.1028169,40.7822795 C29.8734507,39.4095593 28.9178873,37.2597041 28.9922535,35.3881973 C29.031338,34.4047843 29.5882394,33.2670857 30.7379577,33.3336611 C31.6294752,33.385087 32.0522237,34.1314983 31.8240294,34.9213634 L31.8101408,34.9669761 C31.3267606,36.477074 32.1519718,38.6590544 33.3475352,39.6889644 C35.1809155,41.2683851 37.6969014,39.8939742 38.6993662,38.0419115 C39.8676761,35.883391 39.725493,33.1159703 39.3519718,30.7676571 C38.9852113,28.4618254 38.1673944,26.3527609 37.2992958,24.2191796 C37.2071831,24.2358763 37.1138028,24.2513049 37.0183099,24.2641973 C35.291831,24.4985847 31.7790845,24.5869292 29.8715493,23.3357354 C30.0764789,25.2668431 29.6744366,27.2548039 28.5777465,28.8900211 C27.3557746,30.7122834 25.5147887,31.6766748 23.3721127,31.9721425 C21.2911268,32.2595789 18.8788732,32.3177002 16.8242958,31.8244086 C12.4491549,30.7739977 10.9064789,25.3704047 12.2296479,21.4697237 C13.0123944,19.1624125 15.1964789,17.087164 17.6241549,16.5630153 C18.8748592,15.7400172 20.5542254,15.4963303 21.9976056,15.6085573 C24.1533803,15.7765808 26.2766197,16.7084243 27.7204225,18.3449096 C28.2720423,18.9700838 28.7256338,19.6778959 29.0752817,20.4353753 C29.1927465,20.3428039 29.3296479,20.2732697 29.4842958,20.2369174 C29.7257746,20.1802755 29.9370423,20.1675945 30.1732394,20.2508665 C30.2909155,20.2925025 30.4605634,20.4396023 30.5626056,20.5351327 L30.7957405,20.8090379 C31.0815544,21.142265 31.3533275,21.4217295 31.8621127,21.6288705 C33.2805634,22.2064908 35.2043662,22.3318215 36.711338,22.2136767 C40.5564085,21.9127139 40.0721831,16.8176924 39.1250704,14.200119 C38.0032394,11.0991875 34.7877465,9.17019335 31.5164789,9.72097221 C30.1109155,9.95747319 28.77,10.7058646 27.7411268,11.6837824 C26.5926761,12.775618 26.1008451,14.0944438 25.4119014,15.4764634 C25.3711268,15.558256 25.2304225,15.5405025 25.2128873,15.450256 C24.6466901,12.5361581 27.3314789,9.49313659 29.8161972,8.43131272 Z M9.33678169,31.9255397 C9.2199507,31.7883734 9.37333099,31.5472227 9.54065493,31.6609292 C10.7662183,32.4938607 12.1291056,33.0949409 13.6107254,33.2574693 C14.3066408,33.3335554 15.0080493,33.3388391 15.7012183,33.2321072 C16.2917113,33.1408039 16.8238944,32.9607335 17.413331,33.1234732 C17.7270634,33.2101268 17.7841056,33.5742834 17.5924859,33.8025417 C16.701993,34.8628861 14.509669,34.5796767 13.3143169,34.2954106 C11.7684718,33.9280838 10.3671338,33.1365769 9.33678169,31.9255397 Z M50.5786268,29.9895499 C51.1803169,29.6165166 51.8965141,30.3551859 51.5407394,30.9518278 C50.6272183,32.482638 47.9794014,32.6073346 46.4432746,32.2408532 C46.3230634,32.2125323 46.3505282,32.0237965 46.4722183,32.0271781 C47.3551056,32.0489472 48.1530634,31.8792329 48.9136268,31.4184892 C49.5634859,31.0247436 49.951162,30.3784344 50.5786268,29.9895499 Z M21.2203014,17.7525122 L21.0997183,17.7535515 C19.6952113,17.7761659 18.4090141,18.3119389 17.0556338,18.5951483 C16.9434507,18.6188196 16.8308451,18.6067726 16.7292254,18.569575 C15.0809155,19.6696532 13.9447183,21.399344 13.790493,23.6753753 C13.6835915,25.2518372 14.0683099,26.969481 15.0040141,28.2631562 C16.0690383,29.735599 17.7846971,29.962811 19.4742802,30.0067251 L19.6459859,30.0106004 C22.8399296,30.0729487 26.3537324,29.8842129 27.4922535,26.3119703 C28.3347887,23.6681894 27.435,20.4586239 25.0880282,18.8749761 C23.948173,18.1058784 22.5868205,17.7512289 21.2203014,17.7525122 Z M46.9525352,19.6485182 L46.8588153,19.5390983 C45.6061029,18.1012424 43.6198592,16.7916415 41.6615493,17.5157824 L41.6672613,17.7579429 C41.6679577,17.7983342 41.6683803,17.8387256 41.6683099,17.8790935 C41.6623944,20.6558137 40.586831,23.2471796 37.9432394,24.061935 C38.6524648,25.0740916 39.2222535,26.197207 39.6785915,27.3628039 C39.8395775,27.2575515 40.0354225,27.1907648 40.2627465,27.1677276 C41.1933803,27.0734654 41.7266197,27.9478215 42.533662,28.273935 C43.2891549,28.5795476 44.1460563,28.6583812 44.9435915,28.5005025 C46.6882394,28.1553675 47.9123239,26.6503421 48.3411972,24.9802521 C48.8260563,23.0922599 48.185493,21.1129644 46.9525352,19.6485182 Z M20.3946127,21.9854395 C20.976413,21.0022925 22.411623,21.1445815 22.9869484,22.0113412 L23.0145423,22.0545511 L23.020669,22.0465198 C23.9789789,23.2888368 23.5158803,25.2510129 22.1244718,25.9495256 C21.0083451,26.5093926 19.588838,26.3625041 18.8468662,25.2725706 C18.6805986,25.0282497 18.5739085,24.7408133 18.5348239,24.449784 C18.5082042,24.2517487 18.5234155,24.0539249 18.5677817,23.8571577 L18.5565581,23.9032057 C18.5785563,23.8038975 18.6134155,23.648238 18.6225,23.611146 C18.7205282,23.2104258 18.955669,22.7805393 19.2499648,22.4903554 C19.5531338,22.1915061 19.9741901,22.0097448 20.3946127,21.9854395 Z M44.3033662,20.9641949 C44.8186479,20.9641949 45.275831,21.1797722 45.6480845,21.5215256 C46.1775211,22.0078427 46.2512535,22.7078348 46.1369577,23.3721088 C46.1018873,23.5747937 46.0537183,23.7707155 46.0032254,23.9702301 L45.9597512,24.1506763 C45.9521455,24.1806411 45.944,24.2103945 45.9347746,24.2397018 C45.9030845,24.3633417 45.8525915,24.4768368 45.7925915,24.5854708 C45.5722394,25.406144 44.6800563,25.8136274 43.893507,25.6346137 C43.5233662,25.5502849 43.1542817,25.2429816 42.965831,24.9208838 C42.9037183,24.8147859 42.8601972,24.7091108 42.8293521,24.6030129 L42.6761831,24.2397018 L42.6761831,24.2397018 C42.6474507,24.1526254 42.629493,24.0592086 42.6064648,23.9702301 C42.5551268,23.7709268 42.5056901,23.5745824 42.4699859,23.3721088 C42.348507,22.6856431 42.4452676,22.0351068 42.9588592,21.5215256 C43.3036479,21.1763906 43.8159718,20.9641949 44.3033662,20.9641949 Z M32.9535211,13.8451773 C33.8478169,13.7251303 34.7585915,14.1419131 35.2210563,14.9321519 C35.6228873,15.6190403 35.6211972,16.5432751 35.2210563,17.2301636 L35.1872535,17.2882849 L35.1872535,17.2882849 C34.4501408,18.5534278 32.7310563,18.7157448 31.6969014,17.7382497 L31.646831,17.6909072 L31.646831,17.6909072 C30.9817606,17.0625628 30.8319718,16.0203945 31.176338,15.2041597 C31.4911268,14.4576705 32.1511268,13.9531773 32.9535211,13.8451773 Z" id="ðŸ–-Ink"></path>
                    </g>
                    <g id="facial-hair/*-None" transform="translate(104.577451, 109.479380)"></g>
                    <g id="accessories/Glasses-3" transform="translate(88.521127, 88.978474)" fill="#000000" fill-rule="evenodd">
                        <path d="M77.5634366,20.7796016 C76.1409718,22.691265 73.5039296,23.3001652 71.0716056,23.0898716 C65.8256197,22.5847444 64.1745634,16.6244548 64.0025915,11.9918677 C67.5204085,12.9818325 63.7051268,5.97049785 75.7302676,5.19949198 C79.9693521,4.84611429 78.8006197,7.40725714 80.673507,9.27855264 C80.6350563,13.2058638 79.9816056,17.4732376 77.5634366,20.7796016 M52.5766056,16.2668501 C49.4794225,30.7766818 32.5192817,27.3253315 30.737662,14.2457072 C32.3828028,13.084126 31.949493,10.2158912 33.9932958,9.1766818 C37.2324507,7.10629432 41.2816056,7.1948501 44.9599859,7.24346067 C49.6617465,7.56661526 51.0016056,9.51505362 53.4168169,11.6408149 C53.3006197,13.0606661 52.9655493,14.7434372 52.5766056,16.2668501 M84.2819577,2.79643914 C84.1080845,2.76748415 83.934,2.74021996 83.7599155,2.71464658 C83.6240704,2.63750372 83.4645634,2.57811429 83.2790704,2.54239609 C82.8554789,2.43481879 82.4348451,2.36232564 82.0148451,2.32322583 C75.9869577,0.966145597 62.0418169,2.89302622 61.4663239,8.03898317 C59.5467465,8.68000861 57.8857606,8.10598121 55.6609014,8.16304579 C53.9673803,1.08175421 24.6892817,2.08122975 23.2811831,6.35050568 C23.2759014,6.34902622 23.2706197,6.34775812 23.2651268,6.34606732 C21.912169,5.92717104 19.9175915,6.02819648 18.369,5.96183249 C15.0624507,5.89250959 11.7520986,6.18734325 8.51695775,6.88501057 C2.45885915,7.84813386 -5.80909859,8.97568767 -1.59578873,16.543719 C-1.59494366,16.5449871 -1.59430986,16.5464665 -1.59325352,16.5477346 L-1.59261972,16.5471006 C-0.866492958,17.2916877 0.365830986,16.6920869 0.411676056,15.6841573 C-1.00487324,12.098811 2.19456338,11.6682904 4.65625352,10.6379577 C10.7815352,8.43653307 17.0177324,8.13134325 23.3528028,8.81231389 C23.8294225,9.37366027 24.5525915,9.86314755 25.3169577,10.1193041 C29.552662,10.8226779 27.3204085,13.9658795 29.9978028,14.4230301 C29.5059718,25.3798521 42.8033662,31.3606427 50.5080845,24.158036 C53.5843521,21.1492532 54.317662,16.6920869 55.0309014,12.6745292 C55.4080141,12.5897777 55.6478028,12.3834998 55.7878732,12.1104352 C56.6948451,11.2045879 57.2646338,10.3680634 59.0580845,10.1193041 C60.8515352,9.87075616 62.232169,10.3697542 62.4189296,10.5225605 C62.4660423,10.6174568 62.5165352,10.7125644 62.5752676,10.807672 C62.6572394,10.9494881 62.7687887,11.0625605 62.8955493,11.1515389 C61.124493,22.0622865 69.5914648,28.9624509 78.1391408,23.3035468 C81.8532254,19.808447 82.6380845,14.4574802 82.7931549,9.6813863 C83.2966056,9.37746458 83.6154085,8.78843131 83.4411127,8.04785988 C83.2009014,7.02703796 83.7641408,6.14317104 84.6611831,5.69933542 C85.8267465,5.12298317 85.6205493,3.0181456 84.2819577,2.79643914" id="ðŸ–-Ink"></path>
                    </g>
                </g>
            </g>
        </g>
    </g>
</svg>