<?xml version="1.0" encoding="UTF-8"?>
<svg width="240px" height="324px" viewBox="0 0 240 324" version="1.1" xmlns="http://www.w3.org/2000/svg" xmlns:xlink="http://www.w3.org/1999/xlink">
    <!-- Generator: Sketch 62 (91390) - https://sketch.com -->
    <title>peep-50</title>
    <desc>Created with Sketch.</desc>
    <g id="Introduction" stroke="none" stroke-width="1" fill="none" fill-rule="evenodd">
        <g id="variations" transform="translate(-1806.000000, -110.000000)">
            <g id="images" transform="translate(126.000000, 110.000000)">
                <g id="a-person/bust" transform="translate(1680.000000, 0.000000)">
                    <g id="body/Shirt-and-Coat" transform="translate(31.056338, 135.052838)" fill-rule="evenodd">
                        <path d="M169.19981,137.035472 C168.862838,130.772318 168.448754,124.514024 167.95312,118.261226 C166.965444,105.806353 165.672275,93.3417581 163.520303,81.0299695 C161.397275,68.8824 158.426007,57.0702434 154.145303,45.4947992 C152.159387,40.1243883 150.008683,35.5429479 146.888683,30.7152845 C143.938542,26.1507523 140.173965,23.0578521 135.483824,20.3024783 C131.258049,17.8199577 126.348824,13.5126387 122.295866,10.732537 C120.603824,9.57201252 117.122556,9.64936673 115.962275,7.9325683 C114.442838,5.68443523 115.427979,2.2434411 113.896289,0.00270528376 C112.145514,-2.55928297 109.692697,-4.54956869 106.926782,-5.99541605 C103.907979,-8.04044149 100.352345,-8.96615577 96.7872042,-8.83871155 C91.5300211,-9.15763914 86.2352324,-7.48332211 82.8600211,-3.20263327 C81.1757958,-1.0663045 80.1923451,1.39846262 80.0562887,4.12762896 C80.0207958,4.8375546 80.2487535,5.39721018 80.6239648,5.80131194 C80.4015,6.09889315 80.1800915,6.39668571 79.960162,6.69616908 C79.2697394,5.67323366 77.6560775,5.1296407 76.5807254,5.90170333 C73.0626972,8.42797339 69.2605141,10.4366466 65.2474859,11.9091241 C64.3086127,11.4646544 63.171993,11.6705096 62.3676972,12.3960751 C62.0412887,12.6902748 61.6950211,12.941993 61.3331197,13.1556681 C59.845162,13.5591358 58.3341761,13.8962395 56.8007958,14.1568344 C56.3207958,14.2382043 55.9141056,14.5108462 55.6056549,14.8783843 C55.1486831,14.4510341 54.5205845,14.2458129 53.8191761,14.5133824 C45.7202324,17.6018442 38.0719225,22.3997072 32.2584718,28.8999969 C25.8177676,36.1013354 22.4349507,45.0594176 19.8595986,54.2370928 C17.0717113,64.172036 15.2900915,74.3542591 13.7936831,84.5536016 C12.2774155,94.8879969 10.7839648,105.26276 9.74072535,115.656968 C9.15361268,121.506298 8.92966901,127.408678 9.19544366,133.283793 C9.32790845,136.219872 9.59600704,139.14665 10.0229789,142.054831 C10.1224859,142.735167 10.2266408,143.518854 10.3943873,144.301061 C9.88459859,144.201938 9.27741549,144.633093 9.38072535,145.323151 C10.1003028,150.129468 15.9088944,151.529453 19.9149507,152.082768 C26.467838,152.987981 33.0547394,153.489938 39.6705845,153.528615 C46.1719225,153.566447 52.6722042,153.14903 59.1600211,152.775151 C65.8115704,152.391973 72.4629085,152.006893 79.1142465,151.616741 C105.763331,150.053805 132.413894,148.507778 159.06319,146.944208 C161.497838,146.801335 164.277908,146.60795 166.363331,145.195285 C169.221993,143.25847 169.369035,140.180787 169.19981,137.035472 L169.19981,137.035472 Z" id="ðŸŽ¨-Background" fill="#FFFFFF"></path>
                        <path d="M39.2863521,83.2772571 C39.1938169,83.1039499 39.4084648,82.9481847 39.5508592,83.0730928 C42.786,85.913218 44.4797324,90.4743687 44.8348732,94.6903843 C45.2111408,99.1610771 44.6776901,103.78986 44.4738169,108.25865 C44.2469155,113.236373 44.0430423,118.215997 43.7660704,123.191394 C43.4848732,128.239285 43.1819155,133.285484 42.9222676,138.334431 L42.3381127,149.691973 L42.3381127,149.691973 C42.276,150.902377 42.4105775,152.390917 41.9462113,153.520584 C41.2266383,155.271819 39.0891832,155.000674 38.6399753,153.537031 L38.6259296,153.488881 L38.5849437,153.520584 C38.1886056,152.201547 38.4852254,150.635018 38.5524085,149.271175 L39.1644507,136.862165 L39.1644507,136.862165 C39.596831,128.091149 39.9824937,119.319962 40.4469602,110.550606 L40.6048732,107.627559 C40.8220141,103.692575 40.9885014,99.7675214 41.1222008,95.8337537 L41.1655775,94.5221495 C41.2925493,90.5724352 41.1917746,86.843582 39.2863521,83.2772571 Z M117.710958,10.4641432 C119.513282,10.2929495 120.874268,10.8908595 122.510535,11.5206834 C123.223352,11.7948047 123.898352,12.1116188 124.582225,12.4396344 C125.438359,12.8502945 125.988928,13.5763753 126.516172,14.3440502 L126.798,14.7577245 C128.993282,17.9753213 130.470042,21.6874779 132.13631,25.190609 C134.085465,29.2884798 136.054056,33.377474 137.961592,37.494789 L138.902969,39.5233057 C139.373556,40.537611 139.842752,41.5525503 140.304985,42.5706599 L141.103656,44.3426331 C141.905953,46.1397094 142.625251,48.0408373 141.481732,49.8947108 C140.418423,51.6189065 138.533282,52.9529495 137.040676,54.2857245 C135.795465,55.3978497 134.550042,56.5097636 133.304197,57.6214661 C135.879338,60.2012078 137.608141,63.4494505 138.624338,66.932926 C140.068141,66.3312117 141.830324,66.2158145 143.323141,65.9554309 C145.412789,65.591063 145.668845,68.7558223 143.696662,68.7171452 C142.240183,68.6886129 140.531451,68.8374035 139.037366,68.5305229 C139.297014,69.6751961 139.485465,70.8372 139.605254,72.0023742 C140.233054,78.1094142 138.861153,84.2518946 137.430277,90.1606736 L137.312577,90.6457949 C135.758704,97.0412548 134.285324,103.453411 132.967225,109.90192 C131.646169,116.364167 130.457789,122.853677 129.40293,129.364746 C128.329268,135.992057 127.569549,142.655932 126.753,149.318327 C126.629408,150.326679 125.995183,151.190891 124.88138,151.190891 C123.953493,151.190891 122.89293,150.324566 123.009549,149.318327 C123.852085,142.063094 125.047014,134.845905 126.234127,127.640339 C128.27884,115.231345 130.852261,102.930302 133.8129,90.7100334 L134.330073,88.5819373 C135.662078,83.0625996 136.870458,77.3755382 136.202366,71.6823898 C135.658145,67.0465395 133.720594,62.1037011 129.891172,59.2243133 L129.774549,59.1376932 C128.880042,58.4814505 128.535887,57.2264524 129.416873,56.3622411 C129.977507,55.8122372 130.538798,55.2628908 131.100418,54.7138888 L134.471451,51.4215053 L135.151079,50.7565418 C135.717757,50.203032 136.287145,49.6528958 136.873563,49.1196892 C137.228493,48.7971687 138.190817,48.1821393 138.261169,47.6516501 C138.306876,47.3053608 137.897076,46.6972284 137.731009,46.3783334 L136.970113,44.8419593 L136.970113,44.8419593 C136.53807,43.9659123 136.119338,43.0835249 135.697437,42.2024055 C134.823211,40.3771843 133.93631,38.5574583 133.081099,36.7231491 L127.942859,25.7092626 L127.942859,25.7092626 C126.493352,22.6019906 125.202085,19.3216227 123.307014,16.4489495 L122.933364,15.88908 C122.621468,15.4175692 122.345981,14.9636971 122.148845,14.387016 C121.959338,13.8322215 121.721451,13.22311 121.371169,12.7496853 C120.550394,11.6386168 118.981521,11.0083703 117.668915,10.7756736 C117.479197,10.7418575 117.54807,10.4797832 117.710958,10.4641432 Z M78.1926127,7.57132107 C78.3066972,7.57132107 78.3240211,7.73427945 78.2188099,7.765982 C76.6351479,8.24236556 75.121838,9.01104658 73.8871901,10.1206356 C73.2964859,10.6515476 72.7017676,11.2541072 72.3371197,11.9688939 C72.1975563,12.2424235 72.1202831,12.5313605 72.0637162,12.8309286 L72.0455704,12.9311718 C71.9515007,13.4723843 71.8168536,13.773641 71.541932,14.2069308 L71.4947958,14.2804321 C69.9257113,16.7044086 68.8260634,19.3968 67.8206408,22.092573 L65.6310898,27.9705417 L65.6310898,27.9705417 L63.4429648,33.8491444 C62.7379648,35.7432658 62.0325423,37.6375984 61.327331,39.5317198 C60.9377535,40.577481 60.5371901,41.6188039 60.136838,42.6603382 C59.9635986,43.111571 59.7772606,43.5594223 59.6188099,44.0161503 C59.5970493,44.0784986 59.5277535,44.4544908 59.4757817,44.5457941 L59.4935282,44.5768626 L59.4935282,44.5768626 C59.9348662,45.3195476 61.111838,45.940072 61.7790211,46.4796493 L64.0763451,48.3376297 L64.0763451,48.3376297 C65.7143028,49.6625847 67.3943028,50.9503421 68.9830352,52.3344751 C69.9810634,53.2035476 69.3601479,54.7599311 68.2471901,55.1228196 C66.3821197,55.730663 64.5548662,56.4581307 62.7176831,57.1458646 C61.9755634,57.4235789 61.202812,57.6653425 60.4693513,57.9716119 L60.0228642,58.1646447 C59.8484698,58.243088 59.9323118,58.2423563 59.9393028,58.5642364 C59.9462746,58.9019742 60.0419789,59.2538724 60.0969085,59.5856924 C60.7157113,63.3287061 61.3716972,67.0653793 62.0640211,70.7955006 C64.5130352,83.9860838 67.4388803,97.0802912 70.7758521,110.073896 C72.4613451,116.635688 74.2689507,123.165144 75.9914155,129.717215 C77.7096549,136.251743 79.9704296,142.692643 82.129162,149.092542 C82.7382465,150.897282 79.8774718,151.674397 79.2833873,149.877285 C76.7955,142.350256 74.5195141,134.757497 72.169162,127.187775 C67.9932465,113.737442 64.7025423,99.9950231 61.7921197,86.2194223 C60.3495845,79.3919624 59.0302183,72.5382951 57.8352887,65.6630701 C57.6090211,64.3615221 57.3871505,63.059142 57.1698552,61.7560188 L56.8531439,59.8392419 C56.6360384,58.4730107 56.512421,57.04987 57.5739507,55.9686434 C58.6105,54.9133261 60.389946,54.5393647 61.7539201,54.0443919 L61.8529648,54.0079468 C62.7208521,53.6839468 63.5950775,53.3717824 64.4659225,53.0498959 C63.1831056,52.0396415 61.9161338,51.006984 60.6364859,49.9973636 C59.6042324,49.1828196 58.5557113,48.3847609 57.5382465,47.551618 C56.6993028,46.8643068 56.0152183,45.9819194 55.9277535,44.864299 C55.8385194,43.7220233 56.3278362,42.6620618 56.7224854,41.6144721 L56.7603592,41.5131288 C57.1478239,40.4671562 57.5363451,39.4218176 57.9347958,38.3798607 L60.4002887,31.9296611 L60.4002887,31.9296611 C61.9670493,27.8309448 63.4676831,23.6990466 65.1155704,19.6322442 C65.7675423,18.0228117 66.4780352,16.4387413 67.3176127,14.9174419 C67.7224014,14.183845 68.1565563,13.4658881 68.6283169,12.7735045 C69.1569085,11.9970035 69.6366972,11.6184751 70.4557817,11.1900681 C71.7654296,10.5050818 72.7932465,9.35660431 74.1083873,8.65048297 C75.3992324,7.95725401 76.7272606,7.587391 78.1926127,7.57132107 Z M82.4442465,0.258925245 C82.4943169,0.172905675 82.626993,0.211154638 82.6286831,0.309015264 C82.6629085,2.34600939 82.1791056,4.42759843 81.8814296,6.44176673 C81.5824859,8.46312094 81.4865704,10.5967022 81.0541056,12.5964986 C81.0451479,12.6896618 81.027131,12.7814724 81.0016775,12.8716057 L80.981007,12.9401542 L80.981007,12.9401542 C80.7984718,13.5004438 80.3237535,13.9753479 79.7412887,14.1237159 C79.9244577,15.1390427 80.0970634,16.1560603 80.2422042,17.178573 C80.4915,18.9361016 80.7190223,20.6962183 80.9427873,22.4569203 L81.2106549,24.5699155 C81.4635423,26.5612579 81.7094577,28.5534458 81.9526268,30.545845 C82.571007,30.8045378 83.2020634,31.0180016 83.848331,31.2029331 C85.3367113,31.6290153 86.8612183,31.8023225 88.3971338,31.9530153 C91.5250493,32.2599523 94.6768897,32.4021112 97.8158965,32.5764156 L98.488331,32.6143303 C102.017345,32.8165926 105.565585,32.8525221 109.085725,32.4902677 C110.831218,32.31062 112.562979,32.0092344 114.265162,31.5820955 C115.130092,31.3650387 115.970725,31.0408274 116.833965,30.8286317 C117.120232,30.7582521 117.376077,30.595935 117.662979,30.4226278 C117.790373,30.2615789 117.969106,30.1396297 118.201923,30.0924986 L118.264986,30.0815084 L118.264986,30.0815084 L118.327415,30.0724204 L118.348965,30.0626982 L118.347275,30.0694614 C118.523894,30.0455789 118.691641,30.0457902 118.84988,30.0673479 C118.912838,28.5139233 118.981077,26.9604986 119.066641,25.4074967 C119.296289,21.2362873 119.930303,16.8850074 119.083965,12.7501503 C119.055655,12.6110818 119.244739,12.5620485 119.293965,12.6922403 C120.954739,17.0695162 120.76819,21.8559663 120.851852,26.46298 C120.933613,30.9683342 120.884176,35.4768587 120.861782,39.9832697 C121.184387,40.1206474 121.472134,40.306847 121.700092,40.5680759 C122.155373,41.0901112 122.286359,41.9976493 121.700092,42.5015084 C121.440232,42.7249057 121.152697,42.8800368 120.847627,42.9876141 C120.831359,46.9024556 120.803683,50.8177198 120.764387,54.7327726 C121.508683,55.3078568 121.57819,56.673391 120.736289,57.2408665 C120.596218,69.9193479 120.365937,82.5982521 120.174951,95.2748313 L119.77481,121.87073 L119.77481,121.87073 C119.72157,125.414229 119.633261,128.957516 119.60157,132.500593 L119.626711,132.510526 L119.626711,132.510526 L119.715273,132.5516 C119.864396,132.621626 120.086271,132.734888 120.132275,132.8508 C120.144317,132.881234 120.147486,132.901947 120.146007,132.917587 C120.390232,132.951825 120.632134,133.067223 120.8415,133.265892 C121.358261,133.75707 121.253261,134.49743 120.8415,134.997696 L120.73143,135.131481 L120.73143,135.131481 C120.474739,135.443223 119.987345,135.56327 119.589317,135.499865 C119.593331,137.711223 119.607486,139.923004 119.600514,142.134362 C119.598232,142.809753 119.588041,143.48522 119.576374,144.160672 L119.548532,145.780268 C119.530045,146.704462 119.448209,147.878959 118.501923,148.294166 C117.434387,148.76273 116.477134,148.378917 116.04488,147.294268 C115.927838,147.000491 115.952979,146.726792 115.995655,146.436397 C115.982345,145.999959 115.914106,145.494197 115.922556,145.08925 L115.957838,143.400773 L115.957838,143.400773 C115.963331,143.140389 115.973894,142.880217 115.981289,142.619833 L115.950444,142.623004 L115.950444,142.623004 C112.157234,142.807212 108.337478,142.717321 104.538061,142.715076 L102.848288,142.717533 C101.43839,142.718744 100.025474,142.711215 98.6175866,142.657304 L98.0898803,142.634839 C97.0358662,142.585383 95.9273451,142.569532 94.834669,142.47527 C94.9738944,143.597328 95.1040352,144.720232 95.2200211,145.844193 C95.3298803,146.910033 94.2302324,147.815669 93.2493169,147.815669 C92.0843873,147.815669 91.4180493,146.899677 91.2786127,145.844193 C90.6203028,140.865626 90.3509366,135.840561 89.721993,130.858823 C89.1586056,126.396754 88.6701718,121.924584 88.173678,117.454023 L88.0077676,115.963912 C86.1908012,99.6949463 84.4267592,83.4198582 82.7394036,67.1369848 L81.953761,59.5251818 C81.1602906,51.8531934 80.3621761,44.1807288 79.6891056,36.4974693 C79.3041761,32.1047648 78.9494577,27.7112149 78.6156549,23.3142834 C78.3707958,20.0840055 78.216993,16.8716924 78.1168521,13.647755 C77.721993,13.2413284 77.5240352,12.6478568 77.6989648,12.0349409 C77.8012183,11.6773362 77.920162,11.3216337 78.0456549,10.9665652 C78.037838,10.6176258 78.0295986,10.2688978 78.022838,9.91953581 C78.0165,9.58898395 78.351993,9.41884697 78.6205141,9.47358669 C79.1085423,8.2915045 79.646007,7.11956712 80.0945282,5.94889785 C80.8204437,4.05393112 81.4187535,2.01207593 82.4442465,0.258925245 Z M41.9030282,20.7390434 C49.4915493,15.9815483 58.524507,12.5580963 67.5716197,12.9266912 C67.7773944,12.9351452 67.8352817,13.248789 67.6216901,13.2963429 C62.7959155,14.3742294 57.9171127,15.6871374 53.3484507,17.5979554 C48.7664789,19.5144798 44.4097183,22.0950669 40.5293662,25.1962098 C33.3699296,30.9178849 27.8051408,38.3601628 24.1409155,46.74929 C21.9946479,51.663607 20.4902113,56.8518341 19.1765493,62.0419632 C17.7864085,67.534746 16.6407042,73.0867068 15.6880986,78.6720611 C13.8065493,89.7047577 12.7111268,100.858981 12.1282394,112.032437 C11.5352113,123.398433 11.7796479,134.77246 11.3566901,146.140147 C11.2835915,148.109721 8.46950704,148.071255 8.32647887,146.140147 C7.36816901,133.215865 7.89908451,120.085306 8.78535211,107.170112 C9.58225352,95.5597949 10.9738732,83.9737832 13.2147887,72.5502998 L13.4099845,71.5602612 C15.5048853,60.9913547 18.0317157,50.1663567 23.0961972,40.5949808 C27.42,32.4235444 34.0952113,25.6343389 41.9030282,20.7390434 Z M147.281049,71.2511718 C147.320556,71.1378881 147.470134,71.1393675 147.510063,71.2511718 C148.375204,73.67369 148.406272,76.4072244 148.636193,78.9608697 L148.654289,79.1569409 C148.874758,81.4861151 149.040809,83.8181281 149.195176,86.1520894 L149.252599,87.0274145 C149.872246,96.5487452 150.646754,106.059508 151.814007,115.530749 C152.977035,124.966272 154.5495,134.336064 156.249993,143.687258 C156.4395,144.728369 155.978514,145.788925 154.887106,146.088831 C153.924993,146.353231 152.689923,145.760393 152.486472,144.725411 C151.430768,139.357959 150.577035,133.983321 149.815415,128.569371 C148.474711,119.035994 147.474148,109.458655 146.830838,99.8527843 C146.508021,95.0282912 146.309218,90.2057002 146.230204,85.3708509 C146.193715,83.1276694 146.251952,80.8790209 146.371422,78.6381044 L146.400063,78.1211131 C146.531894,75.83071 146.518373,73.4354771 147.281049,71.2511718 Z M65.2823873,131.896553 C65.3837958,131.841602 65.5092887,131.954463 65.4450634,132.059293 C63.9756972,134.448186 61.9878803,136.508005 60.0666127,138.538236 C58.0580915,140.660405 56.0992183,142.846612 54.0501338,144.927144 C52.5695704,146.430056 50.1879507,144.005657 51.7504859,142.626596 C53.9474577,140.688092 56.2437254,138.845962 58.4797817,136.950573 L59.4576653,136.121364 C61.2910429,134.571924 63.1788022,133.036359 65.2823873,131.896553 Z M135.072803,130.700121 C134.963155,130.491095 135.213718,130.321592 135.384,130.460027 C136.569211,131.424207 137.631465,132.574375 138.775901,133.591815 C139.909352,134.599745 141.085056,135.539831 142.292873,136.456668 C143.505761,137.37731 144.745056,138.261177 146.017732,139.09749 C147.073437,139.791142 148.161465,140.346782 149.267028,140.922712 C149.77893,140.988653 150.253014,141.239948 150.632451,141.716543 C151.232451,142.470218 151.296254,143.891338 150.46407,144.545678 L150.314704,144.662978 L150.314704,144.662978 C149.343507,145.426586 148.19062,145.51958 147.234634,144.662978 C146.167156,143.706714 145.15817,142.654381 144.133073,141.643811 L143.824986,141.342031 C142.723437,140.270907 141.648718,139.165123 140.635479,138.00967 L139.718209,136.965841 C138.016538,135.024581 136.245322,132.932337 135.072803,130.700121 Z M129.613162,18.7829753 C129.416049,18.6523609 129.537528,18.300674 129.780908,18.38458 L130.227316,18.538929 C132.092323,19.1872595 134.012004,19.9062708 135.705275,20.9045096 C137.524923,21.9771123 139.205134,23.2549362 140.810345,24.6257542 C144.132951,27.4631319 146.959711,30.9523139 149.362035,34.5890184 C154.182317,41.8867327 157.163303,50.2443687 159.570063,58.6068658 C162.136331,67.5233119 164.112106,76.6316642 165.725345,85.7658012 C167.36457,95.0485174 168.629218,104.414928 169.460345,113.805011 C169.869782,118.430623 170.144641,123.058983 170.28281,127.700658 C170.354007,130.088494 170.351683,132.474639 170.331824,134.86332 C170.326754,135.477609 170.33082,136.091582 170.337792,136.705555 L170.36119,138.547789 C170.373655,139.712541 170.513092,140.93647 170.236331,142.07438 C169.790979,143.906153 166.763514,143.5644 166.863021,141.692259 C166.771754,141.06941 166.768162,140.425637 166.791824,139.780596 C166.777458,139.697324 166.761824,139.612784 166.7445,139.526341 C166.694852,139.27885 166.737106,139.049746 166.834289,138.852768 C166.849923,138.543351 166.864077,138.235836 166.869148,137.933605 C166.889007,136.703758 166.887739,135.478772 166.853725,134.249347 C166.782106,131.656924 166.679007,129.064502 166.574852,126.473347 C166.366754,121.295265 166.077317,116.114858 165.657739,110.949457 C164.19788,92.9698873 161.115275,74.8878129 155.937317,57.5902708 C153.532458,49.5576916 150.217035,41.6724235 145.462458,34.7312571 C143.351894,31.6497699 140.970697,28.8035155 138.330908,26.1618481 C135.67443,23.5036955 132.747106,20.8592806 129.613162,18.7829753 Z M93.7848803,134.687434 L94.1436668,137.283817 C94.3230127,138.582231 94.5006549,139.881072 94.6692465,141.180749 C95.8145282,141.023927 96.9862183,140.958197 98.0898803,140.860342 C100.021923,140.689148 101.967275,140.606299 103.905021,140.526197 C107.912134,140.360921 111.939317,140.074119 115.950444,140.094197 C115.991641,140.094409 116.030514,140.097156 116.069387,140.100326 L116.268401,134.977407 L116.268401,134.977407 L113.450092,134.972968 L113.450092,134.972968 C111.062345,134.969164 108.675021,134.948874 106.287275,134.928373 C104.136808,134.90988 101.985533,134.906921 99.8354302,134.862153 L98.9140352,134.84024 C97.2834718,134.796279 95.4830493,134.886949 93.7848803,134.687434 Z M116.50481,127.251497 C116.38988,127.265023 116.272838,127.276436 116.148401,127.28172 C115.590232,127.30518 115.027627,127.288906 114.469035,127.293555 C113.279599,127.303912 112.090373,127.311943 110.900725,127.311732 C108.521852,127.31152 106.14319,127.325892 103.764739,127.354636 C101.316148,127.384225 98.8692465,127.426706 96.4204437,127.431567 C95.2339648,127.433681 94.0512887,127.402189 92.8652324,127.369007 C93.0570634,129.05516 93.2575563,130.740045 93.4789648,132.420914 C95.320787,132.171987 97.3017278,132.297488 99.1017772,132.28029 L99.3355141,132.277195 C101.792345,132.235137 104.251289,132.266205 106.708754,132.269164 C109.236782,132.272123 111.764599,132.280366 114.292838,132.301078 L116.36981,132.318197 L116.36981,132.318197 L116.373824,132.213579 L116.373824,132.213579 C116.434669,130.561242 116.473965,128.906792 116.50481,127.251497 Z M91.9515,119.185101 C92.1817817,121.175387 92.3979085,123.169054 92.6182606,125.162088 C92.764669,125.139473 92.9129789,125.120029 93.0640352,125.104178 C94.2522042,124.979904 95.437838,124.873383 96.6302324,124.799411 C99.0072042,124.652099 101.383965,124.574323 103.764739,124.510495 C106.212908,124.444765 108.6615,124.394463 111.110514,124.359802 C112.300373,124.343105 113.489176,124.344796 114.679035,124.353039 C115.237204,124.356843 115.801077,124.339301 116.35819,124.37671 C116.424528,124.381148 116.48812,124.388123 116.551077,124.395309 L116.592908,121.402996 C116.600115,120.904366 116.607627,120.40579 116.615725,119.907285 C114.776762,120.02072 112.907194,119.977432 111.06961,119.977946 L110.646148,119.978933 C108.337204,119.989501 106.027415,119.957798 103.718894,119.909822 C101.337275,119.860154 98.9605141,119.782377 96.5831197,119.629782 C95.6199205,119.568189 94.6637061,119.486099 93.7058286,119.380451 L93.2267113,119.325649 C92.8098803,119.276405 92.3805845,119.236671 91.9515,119.185101 Z M116.805444,110.740812 C112.376671,111.092458 107.971468,111.239368 103.530888,111.283052 L102.864528,111.288843 C98.9404437,111.318643 94.9840352,111.480538 91.0506549,111.376553 C91.2857958,113.416295 91.5203028,115.456037 91.7567113,117.495356 C92.3199507,117.469148 92.8859366,117.468937 93.4365,117.44907 C94.5564296,117.408702 95.6725563,117.398557 96.7931197,117.396021 C99.1016408,117.390737 101.410162,117.410816 103.718894,117.406166 C106.09819,117.401094 108.477063,117.360937 110.855937,117.316131 C112.784599,117.27999 114.733754,117.134792 116.667697,117.140076 L116.805444,110.740812 L116.805444,110.740812 Z M116.992838,102.038675 C116.479632,102.209147 115.873789,102.220111 115.209481,102.25059 L113.495017,102.336014 C112.700396,102.374975 111.905683,102.411623 111.110514,102.440663 C108.461007,102.537673 105.8115,102.628342 103.16157,102.712671 C100.446148,102.798902 97.7176268,102.848992 95.0017817,102.763395 C93.6714296,102.721336 92.3522746,102.651591 91.0259366,102.540632 C90.6980493,102.513156 90.3638239,102.495191 90.0289648,102.47152 C90.3376268,105.174056 90.6475563,107.87617 90.9585423,110.578283 C94.8731197,110.097673 98.8179085,109.798401 102.727627,109.301305 L106.26284,108.849709 C109.79639,108.398641 113.327028,107.955955 116.873472,107.582816 L116.992838,102.038675 L116.992838,102.038675 Z M117.1815,93.2403734 C116.428493,93.4263616 115.57031,93.4170827 114.847202,93.4627464 L114.713261,93.4720133 C113.34319,93.5759977 111.969528,93.6279898 110.596289,93.6618059 C107.904739,93.7281699 105.2115,93.7613519 102.519106,93.7778372 L100.900071,93.7879059 C98.7417338,93.8005531 96.5846408,93.8060313 94.4256549,93.7556454 C93.0407958,93.7235202 91.6591056,93.6556767 90.2753028,93.5863538 C89.8607958,93.5654301 89.436993,93.5516924 89.0119225,93.530346 C89.3011479,96.0889526 89.593331,98.6469252 89.8848803,101.205109 C90.3395282,101.132827 90.7962887,101.077876 91.2317113,101.004326 C92.346993,100.815802 93.460162,100.665321 94.5834718,100.53069 C97.0164296,100.239027 99.4620634,100.029156 101.90643,99.8520446 C104.415866,99.670072 106.927415,99.516209 109.437275,99.3401542 L111.214827,99.2147971 C111.807327,99.173663 112.39988,99.1338763 112.992697,99.0975241 C114.005092,99.0353871 115.181852,99.1055554 116.186007,98.885117 C116.457908,98.7718333 116.75981,98.7458372 117.062134,98.8105104 L117.1815,93.2403734 L117.1815,93.2403734 Z M117.409458,82.9419076 C117.148965,83.2728822 116.75981,83.4464008 116.295866,83.5064243 C113.879153,83.8200094 111.400252,83.8704217 108.963102,84.0182041 L108.533472,84.0453675 C106.017063,84.2112775 103.499176,84.3414693 100.980866,84.475254 C98.3938944,84.6126317 95.8073451,84.7246474 93.2182606,84.8148939 C92.119088,84.8531748 91.0144159,84.8576362 89.9135854,84.8435699 L89.4420634,84.8364517 C88.9899507,84.8288431 88.5165,84.8298998 88.041993,84.8144712 C88.3045986,87.2069566 88.5697394,89.5992305 88.8386831,91.9908705 C89.3224859,91.9382442 89.8060775,91.8980877 90.2753028,91.8484204 C91.6582606,91.7021659 93.0395282,91.5576023 94.4256549,91.4483342 C97.0521338,91.241211 99.6805141,91.1167256 102.311852,90.9865339 C105.004035,90.8531718 107.697697,90.7644047 110.390303,90.6386513 C111.695725,90.577571 113.000725,90.5016963 114.302345,90.3816493 C115.214599,90.2977432 116.29819,89.9870583 117.249951,90.1011875 C117.301923,87.71462 117.356007,85.3282638 117.409458,82.9419076 Z M117.621782,73.7164673 C117.580585,73.7802951 117.532415,73.8420094 117.473894,73.8994967 C116.409904,74.9510616 115.098577,74.8699935 113.688648,74.9803121 L113.602204,74.9873166 C112.220303,75.1035593 110.837768,75.2140955 109.454387,75.3138528 C106.689106,75.5135789 103.918331,75.6532814 101.149035,75.7777667 C98.3148803,75.905211 95.4625563,75.9929213 92.6256549,75.9350114 C90.8089648,75.8978137 88.9062887,75.9043656 87.0532606,75.727254 C87.337838,78.3621581 87.6241056,80.9968509 87.9124859,83.6313323 C88.4334718,83.5330544 88.957838,83.4578137 89.4545282,83.3796141 C90.7062887,83.1826356 91.9593169,82.9846004 93.2182606,82.8396141 C95.7340352,82.5498528 98.2504437,82.2789018 100.771077,82.0343695 C102.926711,81.8253088 105.081612,81.6130192 107.238835,81.4219624 L108.533472,81.310072 C111.107345,81.093438 113.713754,80.736256 116.295866,80.6834184 C116.721359,80.674753 117.202627,80.906393 117.44643,81.272029 C117.503472,78.7533675 117.562627,76.2349174 117.621782,73.7164673 Z M117.800514,66.247982 C117.143261,66.3278724 116.435092,66.2824321 115.828542,66.302299 C114.294951,66.352389 112.761148,66.3988861 111.227345,66.4441151 L102.024317,66.7159115 L102.024317,66.7159115 C98.891007,66.8082716 95.7467113,66.8775945 92.6121338,66.833211 C91.2332324,66.813809 89.8483415,66.8115264 88.4699364,66.7365379 L88.0107254,66.7087256 C87.4434718,66.6708939 86.7473451,66.6656102 86.0674859,66.5964986 L86.8700915,74.0332814 L86.8700915,74.0332814 C88.7141479,73.7667828 90.6145197,73.6670874 92.4428961,73.5108091 L92.8335423,73.4763734 C95.530162,73.230573 98.239669,73.0680446 100.941148,72.8850153 C103.712345,72.6973362 106.479528,72.4695006 109.246923,72.2363812 C110.630092,72.1201386 112.013049,72.0041072 113.395162,71.8768744 L113.565899,71.8600573 C114.871488,71.723677 116.099167,71.4335495 117.255444,72.2036219 C117.424669,72.3160603 117.557134,72.4665417 117.647768,72.6349879 C117.698261,70.5060564 117.747697,68.3769135 117.800514,66.247982 Z M118.014951,57.5688822 C112.410232,57.7946043 106.804669,57.965798 101.195725,58.0410387 C98.0385423,58.0833088 94.8853732,58.0535084 91.7286127,57.9875671 C90.3597864,57.9588235 88.979609,57.8933414 87.6118214,57.7884491 L87.0995282,57.7472618 C86.4492465,57.6925221 85.766007,57.6527883 85.0857254,57.5872697 C85.3669225,60.1441855 85.6457958,62.7015241 85.9225563,65.2592853 C86.5917163,65.1348604 87.2911156,65.0774982 87.8774818,65.0024201 L88.0107254,64.9847413 C89.467838,64.7841699 90.9386831,64.6672932 92.4029789,64.5383695 C95.2542465,64.287074 98.119669,64.1251796 100.978542,63.9875906 C103.906077,63.84662 106.835092,63.727207 109.763049,63.5970153 L112.691265,63.4658841 C113.17927,63.4442795 113.667275,63.4230035 114.155303,63.4023616 C114.852697,63.372984 115.54988,63.3448744 116.247063,63.3159194 C116.591007,63.3017589 116.948472,63.2550505 117.292838,63.2728039 L117.390836,63.2596326 C117.436018,63.2538754 117.475923,63.2492595 117.512556,63.2453284 C117.606218,63.1739977 117.707069,63.1148489 117.813887,63.0699614 L117.878683,63.0447569 L118.014951,57.5688822 Z M84.1667113,49.3439742 C84.426993,51.6457902 84.6843169,53.9482403 84.9382606,56.2509018 C85.7376972,56.1595984 86.5466408,56.1090857 87.3099507,56.0403969 C88.8490352,55.9023851 90.3953028,55.7814928 91.9390352,55.7104791 L95.0243169,55.5671444 C97.0809836,55.4720055 99.1375563,55.3799977 101.195725,55.3048978 C106.828542,55.099254 112.461148,54.8635984 118.090585,54.5759507 C118.130303,53.0142834 118.171289,51.452616 118.21312,49.8909487 C117.942908,50.1804986 117.552486,50.3709252 117.039528,50.3696571 C111.129528,50.3538059 105.21488,50.3880446 99.3055141,50.2908235 C96.3475563,50.2420016 93.3929789,50.1703538 90.4384014,50.0186043 C88.9926972,49.9444204 87.5389648,49.7930935 86.1042465,49.5942129 C85.4924155,49.5094614 84.8229085,49.4490153 84.1667113,49.3439742 Z M83.2208662,41.1416806 C83.4986831,43.4995045 83.7712183,45.8581738 84.0393169,48.2172658 C84.7732606,48.0862286 85.5315,48.016483 86.2162183,47.9232775 C87.6874859,47.7231288 89.167838,47.5637706 90.649669,47.4800759 C93.5330493,47.3169135 96.4181197,47.2346982 99.3055141,47.1734067 C105.214458,47.0478646 111.129317,47.04871 117.039528,47.0020016 C117.594739,46.9975632 118.006923,47.2173675 118.277556,47.5453832 C118.318542,46.0729057 118.361852,44.6004282 118.40643,43.1277393 C117.835585,43.0675045 117.269599,42.982119 116.745866,42.9455554 C115.136218,42.833117 113.525937,42.7304008 111.915021,42.6380407 C108.553331,42.4450779 105.188472,42.280436 101.824458,42.1339703 C98.4595986,41.9875045 95.0936831,41.8444204 91.7277676,41.7197237 L90.2556979,41.6659446 C87.9149852,41.5788481 85.5345496,41.4688693 83.2208662,41.1416806 Z M82.1624155,32.2613753 C82.4516408,34.6494223 82.7364296,37.037892 83.0205845,39.4267843 L83.106993,40.1660877 L83.106993,40.1660877 C85.9221338,39.6186904 88.8889648,39.4582755 91.7277676,39.3375945 C95.0943169,39.194299 98.4549507,39.1205378 101.824458,39.1308939 C105.190585,39.1410387 108.551641,39.2207178 111.915021,39.3597863 C113.595655,39.4291092 115.276077,39.5094223 116.955655,39.6007256 C117.417486,39.625665 117.958965,39.6123499 118.516289,39.6203812 C118.528331,39.2450231 118.538683,38.869665 118.55157,38.4945182 C118.602697,36.9740642 118.652768,35.4536102 118.704951,33.9333675 C117.568926,34.5170701 116.091825,34.7525079 114.950155,35.00128 L114.819951,35.0300642 C112.93481,35.4536102 111.009951,35.7281542 109.085725,35.8959663 C105.306993,36.2256728 101.488965,36.1024556 97.7138239,35.7831053 L97.0525256,35.7265079 C93.7374119,35.4389544 90.3006285,35.0744742 87.0868521,34.2537746 C85.556007,33.8629879 83.9734014,33.3160133 82.6016408,32.5232384 C82.4590352,32.4408117 82.3117817,32.3535241 82.1624155,32.2613753 Z M114.082289,3.8821456 C114.115035,3.75301057 114.308345,3.72363288 114.371937,3.84431389 C114.818345,4.69267397 114.984401,5.71095969 115.294331,6.6199773 C115.627923,7.59726106 115.93912,8.58173072 116.307148,9.54717886 C117.075951,11.5643061 117.982923,13.5025996 119.06419,15.3711476 C120.135106,17.221308 117.136585,18.542036 116.348556,16.5164548 C115.534965,14.4262004 114.866303,12.2649323 114.461725,10.0561104 C114.26419,8.97843523 114.088204,7.88596556 114.031162,6.79095969 C113.981937,5.85045088 113.849683,4.79961722 114.082289,3.8821456 Z" id="ðŸ–-Ink" fill="#000000"></path>
                    </g>
                    <g id="head/Short-4" transform="translate(78.591549, 38.043053)" fill-rule="evenodd">
                        <path d="M90.9306761,30.4017464 C90.8596901,27.8744196 87.1851127,26.8250654 86.123493,29.3280869 C86.0575775,29.3950849 85.9859577,29.4595468 85.9187746,29.5172454 C86.2510986,29.2321339 85.5562394,29.7038677 85.4432113,29.7622004 C85.3464507,29.8120791 85.2475775,29.8570967 85.1489155,29.9035937 C84.4660986,23.5009479 82.1480704,16.5986701 76.1582113,13.3848775 C67.8038451,9.33202427 58.1503944,8.54094012 48.9849718,8.94356243 C44.3419437,9.21916321 38.9803944,9.96184814 34.8553944,7.61205558 C33.5700423,6.87993816 32.5396901,5.72744501 31.0872254,5.27494403 C26.5020845,4.03410646 24.4223662,8.7442591 25.0468732,12.6176759 C23.091169,12.6331045 21.1510986,13.7162748 20.3070845,15.4996485 C19.8114507,16.5551319 19.8201127,17.6940986 19.3927183,18.7533863 C18.0813803,21.4396485 16.2051127,23.3705448 17.2658873,26.6274528 C15.4001831,28.7513119 16.4639155,31.966584 17.9694085,33.9999851 C18.7128592,35.057582 19.5982817,36.0729088 20.1429296,37.2566818 C20.6715211,38.3901534 19.8735634,39.7343413 19.4294789,40.8088462 C16.1463803,48.5968932 16.3339859,57.1736994 18.1006056,65.2971593 C14.5555352,66.8360008 13.4915915,71.6463335 15.8032817,74.6751945 C16.5987042,75.7458951 17.5690563,76.1432337 18.6695493,76.8020125 C20.0622254,77.5687914 18.9247606,80.6401339 19.3707465,82.1233902 C19.976662,85.7444548 23.2724366,87.9744117 26.5312394,85.6229284 C28.5991268,85.3099186 30.2670845,91.3289636 31.7687746,92.8396955 C32.6939155,94.0570732 33.7210986,95.1501769 34.8378592,96.1589519 C38.1653239,104.723923 55.2158873,109.067171 63.6458873,108.571343 C72.4737042,107.646686 78.4291268,100.146709 83.388,93.4904431 C85.9344085,89.9437738 87.5905352,85.9741926 88.1928592,81.6446818 C88.7979296,77.293402 88.5332113,72.9343022 88.1241972,68.5777386 C87.2649718,59.3214411 85.9094789,45.986083 85.0341972,36.6298168 C88.1972958,36.3692219 91.0265915,33.6751397 90.9306761,30.4017464 L90.9306761,30.4017464 Z" id="ðŸŽ¨-Background" fill="#FFFFFF"></path>
                        <path d="M21.9755282,24.8366607 C21.9725704,24.8497644 21.977007,24.8596978 21.9799648,24.873647 C21.9805986,24.8696313 21.9812324,24.8675178 21.9822887,24.8626568 C21.9797535,24.8520892 21.9778521,24.8451147 21.9755282,24.8366607" id="Fill-4" fill="#4F66AF"></path>
                        <path d="M21.9747042,24.9712274 C21.9630845,24.9589691 21.9466056,24.949881 21.9301268,24.9376227 C21.9297042,24.9380454 21.929493,24.9384681 21.9292817,24.9388908 C21.9447042,24.9490356 21.959493,24.9606599 21.9747042,24.9712274" id="Fill-6" fill="#4F66AF"></path>
                        <path d="M90.4275634,31.5977777 C91.4665775,30.7342004 93.1032676,31.5293002 92.7512958,32.9510536 C92.3682676,34.4994059 90.7093944,35.5574254 89.3399577,36.1935898 C87.9303803,36.8481417 86.5573521,36.9743178 85.0195352,36.9028814 L85.0005211,36.8986544 L85.0005211,36.8986544 C85.427493,38.6112258 85.6696056,40.3914294 85.9962254,42.1143569 C86.4107324,44.3001417 86.8184789,46.4869832 87.2200986,48.6748814 C87.6086197,50.7896524 88.0998169,52.907171 88.398338,55.0325096 C88.6993944,57.1779264 88.9884085,59.3248227 89.2841831,61.4708736 C89.777781,65.0551824 90.1762213,68.6559102 90.5963279,72.2505087 L90.7965569,73.9519496 C91.2172608,77.5533321 91.5559974,81.1590565 90.7586197,84.7428658 C90.0113662,88.1016446 88.3279859,91.2347014 86.3754507,94.0384744 C84.4632676,96.7839147 82.3271408,99.4236798 79.9822817,101.811727 C75.4592535,106.417261 69.8817887,110.105958 63.3417887,110.790099 C60.5258028,111.084721 57.5181972,110.756917 54.8708028,109.732924 L54.6950151,109.664222 C52.0151588,108.605737 48.7333607,106.793408 48.0358732,103.819343 C47.6076338,101.994968 49.4868592,100.570678 51.1345352,101.436369 C51.897939,101.837582 52.471955,102.295917 53.0986311,102.870662 L53.2098169,102.973308 C53.7219296,103.449058 53.9190423,103.595312 54.5099577,103.9675 C55.722,104.730263 56.6304507,105.091249 58.0070704,105.437864 C60.5452394,106.076564 63.2845352,105.975539 65.8611549,105.220173 C71.3317183,103.616447 75.575662,99.4317112 79.2113662,95.2357738 C81.1854507,92.9572063 83.0591831,90.5670458 84.5042535,87.9114294 C86.0205211,85.1251984 86.7204507,82.199899 86.6784085,79.0296446 C86.6308732,75.4525409 86.1367183,71.8614881 85.8124225,68.3012924 C85.482,64.6717738 85.176507,61.0435233 84.9073521,57.4089323 C84.6552229,54.0004737 84.6308474,50.5766633 84.542722,47.1575884 L84.5253803,46.5165722 C84.4736197,44.7014959 84.4377042,42.8857855 84.396507,41.0702865 C84.3557324,39.2600712 84.212493,37.4268188 84.398831,35.6242121 C84.4121408,35.4929636 84.5889718,35.4597816 84.6320704,35.5925096 C84.7419296,35.9302474 84.8380563,36.2732689 84.9289014,36.6181926 C84.9428451,36.607625 84.9584789,36.5981143 84.977493,36.5915624 C86.1825634,36.1773159 87.2923521,35.3503022 88.1965775,34.4584039 C89.0593944,33.6072963 89.5100282,32.3605409 90.4275634,31.5977777 Z M24.4958451,6.23627084 C25.2528169,3.12603992 28.6592958,2.43133151 31.1782394,3.92917104 C32.3898592,4.64945284 33.36,5.68823953 34.4917606,6.51377378 C35.6169718,7.33465832 36.860493,7.99385988 38.1726761,8.45946458 C40.779507,9.38433346 43.5293662,9.72059178 46.284507,9.73263875 C52.9901408,9.76201644 59.558662,7.87677182 66.2742254,8.08706536 C71.4705634,8.24980509 76.9859155,9.78611037 80.7551408,13.5439186 C82.7856338,15.5682317 84.0940141,18.1707992 84.7958451,20.9337816 C85.1238624,22.2250994 85.3683528,23.547752 85.5612204,24.8673294 L85.6083803,25.1971397 C85.716338,25.9683569 85.8895775,26.7848031 85.9056338,27.564263 C85.9202113,28.2642552 85.743169,28.9967953 85.6472535,29.6896016 C85.4450704,31.1500321 83.1838732,30.9836994 82.8589437,29.6896016 C82.1190845,26.7431671 82.4288028,23.7022591 81.5245775,20.7659695 C80.7228169,18.1621339 79.1689437,15.8854685 76.9174648,14.3284509 C67.4190845,7.75968376 55.2384507,13.2604978 44.7730986,12.7494528 C42.2152817,12.6245448 39.6198592,12.2291084 37.2071831,11.347989 C35.9630282,10.8935859 34.7380986,10.3394254 33.6101408,9.64239217 C32.5766461,9.00418033 31.6813006,8.20231649 30.7246096,7.46441114 L30.3025551,7.14351501 C29.6467003,6.64988961 28.5302113,5.87813604 27.8685211,6.5311045 C27.580578,6.81533421 27.5631565,7.4579924 27.5684306,7.94874446 L27.5716901,8.17054873 C27.6016901,10.2540399 28.0261268,12.3337268 27.2467606,14.346627 C26.8912008,15.2647542 25.9031326,15.8436278 24.9633515,15.3236789 L24.9147887,15.2958012 C22.9269803,14.1127764 20.3152899,16.4899427 21.842314,18.4572925 L21.8898592,18.5167796 C22.7489975,19.5613076 22.2909517,21.4007074 20.7532634,21.3961119 L20.6978873,21.3951593 C17.9581669,21.3095814 16.74264,24.7348944 19.104104,26.2315375 L19.1767606,26.2762943 C21.0940141,27.4241378 19.4123239,30.1837386 17.4473239,29.2362552 C17.6138028,29.3165683 17.3243662,29.3155115 17.1587324,29.5378521 C16.9996479,29.7513159 16.9878169,29.936036 17.0256338,30.205719 C17.1403521,31.0227992 17.858662,31.7113785 18.440493,32.2283413 C19.7621831,33.4028149 21.4005634,34.2137659 23.0888028,34.7074802 C29.8514789,36.6852963 36.789507,34.2659695 43.3785211,32.8049049 C50.2478873,31.2817033 58.0064789,30.6681534 63.9971831,34.9904783 C64.0683803,35.041625 64.0060563,35.1559656 63.9272535,35.1103139 C59.6279577,32.6125761 54.3623239,32.8342826 49.6626761,33.8582748 C43.5,35.2011945 37.3911972,37.7008344 31.0795775,38.359402 C32.8514789,41.4886544 33.5930282,45.184537 33.1197887,48.7637542 C32.7939336,51.2276055 31.8137657,53.3647765 30.6560753,55.5305424 L30.4351457,55.9432885 C29.402931,57.8872991 28.6033891,59.723808 28.5906338,61.9758951 C28.578169,64.2134607 25.2530282,64.6851945 24.6893662,62.5042708 C23.4097183,57.5512767 28.0715493,53.6499616 29.9735915,49.5656172 C31.5992958,46.0741104 31.6493662,42.0032924 30.3338028,38.4283022 C28.8494366,38.5477151 27.3534507,38.5601847 25.8424648,38.4253432 C24.5446479,38.3093119 23.2094366,38.0753472 21.9080282,37.7050614 L21.3873786,39.8946133 C20.6976254,42.8110986 20.0585493,45.725636 19.8648592,48.7548775 C19.7222535,50.9808188 19.7298592,53.2177503 19.946831,55.4381965 C20.1344366,57.355989 20.5303521,59.2055155 20.9332394,61.0778677 C21.2788732,61.5339616 21.455493,62.2320517 21.3583099,62.7881143 C23.6019718,63.4344235 25.3666901,65.2055389 26.0114789,67.5513159 C26.0507746,67.6941886 25.8509155,67.7745018 25.7761268,67.6506505 C24.246338,65.1114881 20.3070423,64.1771084 17.8151408,65.8545957 C15.4354225,67.4562082 14.4967606,70.6898677 15.8438028,73.2497425 C16.5523402,74.5957078 17.6028533,75.5415756 18.9574288,76.1929189 L19.2297847,76.3208688 C19.9396403,76.6569055 20.5912425,77.0231151 21.0477465,77.6980321 C21.6399537,78.573439 21.659896,79.4988236 21.6039298,80.4991639 L21.5797295,80.904573 C21.5423155,81.575118 21.5338732,82.2653331 21.7335211,82.910353 L21.7788848,83.0537146 C21.8315441,83.2146583 21.8869014,83.3564665 21.9830282,83.5101652 C22.0117606,83.5558168 22.281338,83.8204274 22.3692254,83.9161691 L22.4799296,83.9495624 L22.4799296,83.9495624 L22.6037324,83.9546348 L22.6037324,83.9546348 C22.7410747,83.9567575 22.9215671,83.8972131 22.8623486,83.938481 L22.8784694,83.9292489 C22.9305733,83.8967901 22.9785046,83.8624688 23.0188831,83.8319386 L23.0955634,83.7720282 C23.2749296,83.5127014 23.4997183,83.2983922 23.7754225,83.1350184 L24.0388732,83.017719 L24.0388732,83.017719 C24.723169,82.294901 25.8957042,82.6746975 26.3862676,83.3947679 C26.7392958,83.9125761 26.9292254,84.4390497 26.9448592,84.9583374 C27,84.8697816 27.1225352,84.8213824 27.200493,84.9205057 L27.6656241,85.5134348 C29.4451984,87.7881433 31.1941521,90.0770555 33.216338,92.1505879 C34.3303521,93.2931476 35.528662,94.366807 36.7812676,95.3557151 C37.8507042,96.2000595 39.8792958,97.01249 39.9103521,98.5504861 C39.9200704,99.0496955 39.5657746,99.4032845 39.1322535,99.5727875 C37.7213057,100.124103 35.9777544,98.2486447 34.9586484,97.3360538 L34.8754225,97.2623061 C33.6280986,96.1694137 32.4897887,94.9697894 31.4393662,93.6868932 C29.3991549,91.1948618 27.693169,88.326627 26.9412676,85.1713785 C26.9059859,85.721946 26.6697887,86.2615233 26.2100704,86.7706661 C25.5980282,87.4482552 24.7603521,87.9233706 23.8656338,88.119081 C21.8385211,88.5622826 19.8593662,87.83249 18.6532394,86.1427444 C17.6338028,84.7141882 17.3336443,82.8278777 17.4651758,81.1020717 L17.4813799,80.8949829 C17.4998638,80.6181867 17.5234176,80.1103098 17.595,79.894173 L16.9567606,79.5435429 L16.9567606,79.5435429 C16.1742254,79.1269714 15.4489437,78.5808423 14.7980282,77.9806074 C12.1819014,75.5678325 10.8692958,71.6466505 12.0652817,68.2153785 C12.8133803,66.0689049 14.3854225,64.2012023 16.3983803,63.2304705 C16.0619311,62.4525901 15.9494161,61.5288395 15.8224606,60.7115239 L15.8011268,60.5763335 C15.5858451,59.2355272 15.4056338,57.8778129 15.3369718,56.520944 C15.2085211,53.986854 15.3646479,51.4290928 15.7626761,48.9243804 C16.4091549,44.8560986 17.7475352,40.5415937 20.2007746,37.1287092 C18.3291549,36.3851789 16.6064789,35.3087718 15.2767606,33.8141025 C13.8872535,32.2522239 13.0014085,30.0161378 14.0759155,28.0326153 C14.3497183,27.5270654 14.7065493,27.1020399 15.1166197,26.7645135 C14.405493,25.421171 14.1754225,23.8335076 14.6142254,22.3160125 C15.1385915,20.5017816 16.5623239,19.0867914 18.2822535,18.4261104 C17.8645775,16.7071984 18.2059859,14.8583061 19.4822535,13.4257738 C20.748169,12.0046544 22.7140141,11.4870575 24.5334507,11.8119029 C24.6321127,9.9837229 24.056831,8.0393002 24.4958451,6.23627084 Z M19.3926761,70.4233127 C21.0608451,69.6066552 23.0378873,69.7364243 24.7041549,70.510389 L24.8170548,70.5640006 C26.6362672,71.4465077 29.0456999,73.5084275 28.4674648,75.7013636 C28.1290141,76.9838372 26.7046479,77.421755 25.6001408,76.8682286 C24.6775352,76.4055828 24.4671127,75.5785691 24.0042254,74.7477511 C23.6769718,74.1601973 23.2723944,73.7009331 22.7972535,73.2285652 C21.7956338,72.2333166 20.6706338,71.4940133 19.3926761,70.9024438 C19.2084507,70.8170583 19.2147887,70.5106004 19.3926761,70.4233127 Z M61.4252958,26.0969636 C61.2689577,26.0255272 61.3824085,25.7805722 61.5398028,25.8253785 C65.7315634,27.0228892 69.6398028,29.7108423 71.9751549,33.441809 C72.1175493,33.6694333 72.1393099,34.0441573 71.9751549,34.2694568 L71.8995763,34.3717086 C71.7924629,34.5115816 71.6867879,34.6148295 71.4854366,34.646083 C71.1068451,34.7048384 70.7779014,34.6061378 70.5598732,34.2694568 C68.259169,30.7132767 65.3115634,27.875265 61.4252958,26.0969636 Z M89.487,26.8011405 C89.8421408,26.1994262 90.7837606,26.3205299 90.9711549,26.9951601 L90.998276,27.0538732 C91.0994903,27.2838654 91.0534476,27.3309409 90.8646761,27.2008039 C91.332,27.5858841 91.5434789,28.1594888 91.400662,28.776209 C90.6291127,32.1070896 86.8577746,34.4856258 83.5700282,34.1582442 C83.2831268,34.1297119 83.2440423,33.7769683 83.5041127,33.6717159 C84.7689718,33.1594027 85.8916479,32.3273166 86.7943944,31.3062834 C87.6717887,30.3137824 88.0408732,29.1781973 88.5128451,27.9796297 C88.6898873,27.529665 88.9653803,27.205665 89.3534789,27.0287648 C89.4048169,26.9577511 89.4496056,26.8820877 89.487,26.8011405 Z M70.7904104,24.6606057 L70.8131408,24.6620431 C72.5024366,24.8803679 73.9637746,25.7143562 75.1500423,26.9363836 C76.2925775,28.113182 77.7344789,30.0550685 77.6108873,31.7820117 C77.5291268,32.9268963 75.9019437,33.5814481 75.2947606,32.4097221 C74.9324366,31.7105753 74.8502535,30.9442192 74.5965211,30.2049159 C74.3637042,29.5273268 74.0421549,28.8839765 73.6572254,28.2805714 C72.8647606,27.037409 71.7750423,25.9842505 70.6591268,25.0340196 C70.528537,24.9228229 70.619528,24.6611951 70.7904104,24.6606057 L70.7904104,24.6606057 Z M27.4625915,24.1532595 C27.0880141,23.7965002 27.4775915,23.1882341 27.954,23.3087037 C30.4666056,23.9450795 32.9549155,24.7190442 35.5672394,24.7959757 C36.8720282,24.8342301 38.1694225,24.7313025 39.4619577,24.5624337 L40.116369,24.4754982 C41.1242924,24.3438956 42.1495307,24.2405547 43.145831,24.4476705 C43.8100563,24.5856822 43.9397746,25.4416509 43.5259014,25.8882341 C41.5714648,27.9972986 37.8016056,27.7956705 35.2095634,27.4401793 C32.3948451,27.0538309 29.5547746,26.1471382 27.4625915,24.1532595 Z M72.8355,17.5793566 C72.6635282,17.3407421 72.9529648,16.9641159 73.2267676,17.0700023 C75.7237394,18.0354505 78.3407113,20.5490395 79.0285986,23.1788712 C79.2102887,23.8735796 78.3345845,24.3981511 77.8203592,23.8824564 C76.8620493,22.9214466 76.1855704,21.7862841 75.3755704,20.7060728 C74.5683169,19.6292431 73.6237394,18.672883 72.8355,17.5793566 Z M31.9229366,18.7538301 C31.7226549,18.5536814 31.9242042,18.1550748 32.2119507,18.2569456 C33.8376549,18.8328751 35.4756127,19.3312391 37.1835,19.5926795 C38.9327958,19.8602489 40.6985704,19.6569299 42.4569507,19.7653526 C43.1682887,19.8091022 43.6527254,20.916155 42.8619507,21.260656 C39.3481479,22.7910434 34.5756127,21.4033174 31.9229366,18.7538301 Z M36.4116761,15.3211632 C36.1323803,15.1144626 36.2912535,14.5471984 36.6713239,14.7054998 C38.219493,15.3503295 39.7851972,15.5088423 41.4466056,15.4424783 C42.060338,15.4177503 42.1894225,16.3825644 41.5913239,16.5127562 C39.7547746,16.9124196 37.9125211,16.431175 36.4116761,15.3211632 Z" id="ðŸ–-Ink" fill="#000000"></path>
                    </g>
                    <g id="face/Smiling" transform="translate(112.183099, 77.354207)" fill="#000000" fill-rule="evenodd">
                        <path d="M30.968993,50.9198978 C29.548794,50.3403012 28.2816173,49.3734958 27.3551889,48.1384646 C27.0331038,47.7091169 26.9495926,47.2557326 27.017159,46.8410547 C27.0931327,46.3747786 27.3688808,45.9521824 27.7449394,45.6687178 C28.1221628,45.3843752 28.5940214,45.2441445 29.0502103,45.3156301 C29.4466117,45.3777469 29.8412104,45.5948709 30.1535058,46.0451781 L30.2187521,46.1352289 C30.7695298,46.8806513 31.4872438,47.4922614 32.3050288,47.8864795 C33.0932406,48.2664417 33.9747757,48.4437847 34.8870208,48.3406561 C36.6244504,48.1443157 37.8219743,47.2043274 39.0948115,45.9278391 C39.2525834,45.7666792 39.4104563,45.6004672 39.5690946,45.4315797 C39.6692778,45.278484 39.8083069,45.1800892 39.962667,45.1284632 C40.1340565,45.0711416 40.327938,45.0743848 40.5055187,45.1363808 C40.6767961,45.1961763 40.8299095,45.309486 40.9325762,45.4602937 C41.0301525,45.6036243 41.0854754,45.7806897 41.0675245,45.9843589 C40.9510195,47.3072301 40.2596776,48.4878363 39.2776553,49.4148615 C38.1869942,50.4444414 36.7412431,51.1567117 35.3801317,51.4065272 C33.8805866,51.6817086 32.3525901,51.4845569 30.968993,50.9198978 L30.968993,50.9198978 Z M36.0875289,30.5120405 C37.6828906,31.482148 40.1137318,33.7442494 38.3974899,36.149264 C36.3773089,38.2698449 33.4687045,35.8384541 32.0353946,34.7388307 C30.7063626,33.8866164 29.2131206,36.0784478 30.4461973,37.0735516 C40.8033244,44.7445605 45.006466,30.7657101 36.8944406,29.3714319 C36.0012775,29.2177885 35.6695544,30.2119271 36.0875289,30.5120405 Z M17.5274577,21.5886716 C17.7037243,19.3998697 21.0359789,18.9028321 21.3674577,21.0687499 C21.6642887,23.0089456 21.3148521,24.7912626 20.4412606,26.5380728 C19.6065423,28.2068947 17.5085456,27.4283107 17.3498837,25.9087021 C17.1372039,23.8717299 17.4178099,22.9502317 17.5274577,21.5886716 Z M42.8930282,20.6196517 C43.3576056,20.0109628 44.0283803,19.5954481 44.8320423,19.8302583 C47.3429577,20.5642779 46.6028873,24.1303914 45.7210563,25.8662114 C45.2419014,26.8088337 43.6930986,27.0478708 42.993169,26.2178982 C41.8523239,24.864411 41.3059859,22.1614521 42.756338,20.8282544 C42.7956338,20.7593542 42.8393662,20.68982 42.8930282,20.6196517 Z M20.4058944,12.0111429 L20.802522,11.9416942 C22.0295218,11.7294045 23.5551549,11.5254176 24.4231479,12.5122544 C24.8835,13.0355577 25.0419507,14.0081918 24.4231479,14.509092 C23.3346972,15.3904227 22.1313169,15.0488806 20.8269507,15.1234873 C19.7520211,15.1852016 18.7189225,15.3631585 17.6835,15.6592603 C15.4119507,16.3087397 13.5610352,17.4944149 11.6209648,18.7963327 C11.3663873,18.9671037 11.1065282,18.6414129 11.228007,18.4032211 C12.3479366,16.208771 14.5182887,14.4061644 16.6922324,13.3073542 C17.8525141,12.7208571 19.1222324,12.2343288 20.4058944,12.0111429 Z M40.6041287,11.0281289 L40.9077055,11.0902829 C44.2113469,11.7811043 48.5035506,13.1610768 50.0679842,16.4073021 C50.1275964,16.8663298 50.0646105,16.9647086 50.0133917,17.0289838 L49.9963385,17.0503723 C49.9541341,17.1052595 49.9204583,17.1809212 49.7215736,17.2433957 C49.6663832,17.2302408 49.6106433,17.216308 49.5543131,17.2015401 C48.8372041,17.0135386 48.2698321,16.7545401 47.720556,16.4857982 L47.1250012,16.192275 C46.4340388,15.8533498 45.7369757,15.5267598 44.9982488,15.2856588 C43.4217423,14.7712438 41.8001698,14.4088706 40.1534741,14.2153715 C39.7965654,14.1734678 39.4528848,14.0529641 39.1817455,13.8464404 C38.92438,13.6504079 38.7277692,13.3789964 38.6381257,13.0182314 C38.5219478,12.5513438 38.5553348,12.1978716 38.8057421,11.7766707 C38.9940329,11.4603578 39.263447,11.2411116 39.5728025,11.115213 C39.888177,10.9868648 40.2472278,10.9566068 40.6041287,11.0281289 Z" id="ðŸ–-Ink"></path>
                    </g>
                    <g id="facial-hair/*-None" transform="translate(104.577451, 109.479380)"></g>
                    <g id="accessories/Eyepatch" transform="translate(88.521127, 88.978474)" fill="#000000" fill-rule="evenodd">
                        <path d="M70.8584266,-12.5992383 C72.0795533,-13.0179232 73.053497,-11.7474966 72.81899,-10.6402324 C72.5422294,-9.3362011 71.181666,-8.28959445 70.2795533,-7.37043202 C69.3330745,-6.40244768 68.3675815,-5.45348486 67.3661731,-4.54045159 C65.4542012,-2.79448682 63.4725111,-1.15039288 61.3830745,0.381896745 L60.7441885,0.850227861 C58.8287857,2.25211436 56.9192012,3.62147404 54.8675815,4.83504743 C53.7563139,5.49023334 52.6344829,6.12428422 51.4978632,6.73508657 C51.0924407,6.95277737 50.5978632,7.28861299 50.0889195,7.53821768 C51.9499759,8.97539968 53.3823702,11.1692157 53.6929336,13.2129731 C54.4619477,18.2896071 51.1915252,22.9942647 46.5772294,24.8647147 C44.2767364,25.7967695 41.7161731,26.0672979 39.2570181,25.786202 C36.7556097,25.5006678 34.2203984,24.7609418 32.5957505,22.7110553 C31.1527928,20.8913292 30.6330745,18.5688009 30.5295533,16.2881198 C30.4809618,15.2060063 30.4915252,14.1405895 30.7196942,13.183384 C29.7246238,13.191838 28.7295533,13.187611 27.7429336,13.1981785 C25.3049054,13.2214271 22.8624407,13.2322059 20.4225111,13.1643625 C17.9063139,13.0925034 15.4027928,12.9804877 12.8950463,12.7566678 C11.7943421,12.6571218 10.6999759,12.4943821 9.6053984,12.3379829 C8.54293361,12.1879241 7.3703984,12.1308596 6.37744066,11.695478 C6.30983502,11.6680024 6.33809938,11.5707813 6.39645474,11.5515484 C7.45490545,11.2093723 8.65701812,11.2704525 9.75983502,11.2030318 L10.8347005,11.1378102 C11.7299701,11.0843133 12.6246238,11.0350989 13.5225111,11.0062647 C15.5966308,10.9380249 17.669133,10.9212424 19.7428483,10.8856893 L20.631666,10.8690983 C23.0718069,10.8204877 25.5119477,10.7930122 27.9520885,10.7148126 C28.9640604,10.6831101 29.9781449,10.623932 30.9943421,10.5689809 C31.1126519,10.3003547 31.2861026,10.0551883 31.4527928,9.81657385 C31.9513843,9.10220986 32.5851871,8.47238598 33.2422294,7.90174019 C34.5877928,6.72642121 36.1027928,5.85375585 37.7929336,5.26831553 C39.4677857,4.69013158 41.9174308,4.40330514 43.6893335,4.44062785 C45.4612362,4.47795057 47.9864195,4.72796328 48.7978632,6.17712179 C48.8823702,6.3271805 50.4267364,6.0376306 50.8851871,5.68657776 C51.9563139,4.86886348 53.0084266,4.02768931 54.0413139,3.16538011 C55.959835,1.56123138 57.9328632,-0.0175553093 59.7499759,-1.73371969 C61.6239195,-3.50483515 63.4830745,-5.30553965 65.2661731,-7.16542224 C66.1619477,-8.09747703 67.0556097,-9.03164533 67.9239195,-9.98694866 C68.8112435,-10.9612735 69.5739195,-12.1617432 70.8584266,-12.5992383 Z" id="ðŸ–-Ink"></path>
                    </g>
                </g>
            </g>
        </g>
    </g>
</svg>