<?xml version="1.0" encoding="UTF-8"?>
<svg width="240px" height="324px" viewBox="0 0 240 324" version="1.1" xmlns="http://www.w3.org/2000/svg" xmlns:xlink="http://www.w3.org/1999/xlink">
    <!-- Generator: Sketch 62 (91390) - https://sketch.com -->
    <title>peep-77</title>
    <desc>Created with Sketch.</desc>
    <g id="Introduction" stroke="none" stroke-width="1" fill="none" fill-rule="evenodd">
        <g id="variations" transform="translate(-2526.000000, -2054.000000)">
            <g id="images" transform="translate(126.000000, 110.000000)">
                <g id="a-person/bust" transform="translate(2400.000000, 1944.000000)">
                    <g id="body/Killer" transform="translate(31.056338, 135.052838)" fill-rule="evenodd">
                        <path d="M121.824887,19.89751 C116.593479,15.0320149 118.273056,10.3389816 116.524606,4.41039452 C113.144535,-2.92494012 106.171225,-10.1493159 98.0967887,-11.7141534 C94.0649577,-14.0762043 88.7948873,-12.7373002 86.040169,-9.0333863 C83.4527746,-8.3475546 83.3672113,-4.76854873 82.5022817,-2.65124149 C80.9036197,1.50728689 79.6814366,5.74422622 78.6791831,10.0644376 C47.5349577,16.5507781 23.6471408,37.7644297 18.6669296,69.9393417 C17.8155211,74.6150442 17.1187606,79.3220266 16.4642535,84.029009 C16.0808028,88.0839757 14.0505211,94.5187468 18.2241127,97.1426607 C18.3434789,100.051475 18.692493,102.989032 19.7995352,105.727287 C20.2246056,108.455819 20.5681268,111.202316 21.4664366,113.832571 C23.4468592,118.386747 23.7521408,123.382434 25.9761549,127.922238 C27.5302394,131.271295 29.8117183,133.959882 32.6331972,136.301854 C33.825169,137.34677 35.4622817,138.480453 35.7126338,140.115459 C35.6378451,142.579804 37.5069296,146.14169 40.4589718,144.984336 C42.5541127,145.772461 44.8041127,145.977471 47.0234789,145.961408 C84.6335493,144.334856 122.322423,144.197267 159.933761,146.015937 C161.252704,146.07744 162.505099,144.811874 162.450169,143.498121 C161.850803,129.175757 160.370028,114.894183 158.04038,100.749776 C152.842352,71.4602184 147.289394,38.6994434 121.824887,19.89751 L121.824887,19.89751 Z" id="ðŸŽ¨-Background" fill="#FFFFFF"></path>
                        <path d="M81.5871947,5.34583051 L81.7278803,4.95789746 C82.5795,2.60345519 83.6229507,2.42803444 83.1201338,4.71061761 L83.0440815,5.05450411 C82.6086191,7.00746367 82.0876338,9.02565088 81.0203451,10.734101 C79.1802042,13.6805354 74.3588662,14.7730051 71.1435845,15.8210912 C71.1539366,15.8952751 71.1539366,15.9694591 71.1454859,16.0392047 C73.1102746,16.3393221 75.1278803,17.2859601 76.7736549,18.3471499 C78.279993,19.3212634 79.6405563,20.4139444 80.6546408,21.8659209 L85.6154155,19.7101479 C87.2527394,19.000011 88.9025282,18.1546098 90.6814014,17.8692869 C93.1891479,17.4677213 97.0553451,18.8119092 96.7597817,21.9760344 C96.7215423,22.4027507 96.4532324,22.7197761 96.1238662,22.8761753 C96.3750634,22.8552517 96.6287958,22.8484885 96.879993,22.8571538 C98.5574577,22.9142184 100.92788,24.400011 100.051331,26.3592282 C99.8271761,26.864144 99.1809085,26.5325354 99.129993,26.1098348 C98.7983028,23.3307898 95.9271761,23.9838622 93.9351338,24.438054 C92.1328099,24.8480736 90.3520352,25.3510873 88.6090775,25.9659053 C86.7454859,26.623416 84.9433732,27.4603632 83.2806972,28.5361362 C81.5654155,29.6476274 79.9618944,30.9962536 80.0675282,33.2154317 C80.0715423,33.2619288 79.9978099,33.2851773 79.9764718,33.2405824 C79.0912606,31.3513221 80.8152042,29.3582888 82.2161197,28.2698348 C84.2440775,26.6954865 86.6189366,25.5624376 89.0187254,24.6789933 C90.2526791,24.225647 91.5248873,23.8688855 92.8016887,23.5528668 L93.0964014,23.4806372 C93.8464014,23.2988759 94.6236549,23.0896391 95.4053451,22.962829 C95.1165698,22.8920726 94.8643275,22.682282 94.7521574,22.3031232 L94.7377394,22.2503671 C93.6095704,17.7805198 87.5630915,21.3757996 85.1147113,22.4555883 C83.3630915,23.2270168 81.5905563,23.9667429 79.8583732,24.7846685 L79.6351607,24.8910901 C78.2921681,25.5357782 76.8925208,26.2975139 75.9898521,27.5110873 C73.6743592,30.6179366 75.7532324,34.8132399 76.4842183,38.0933965 C76.6933732,39.0339053 76.8940775,40.0314787 76.9067535,40.9975609 C76.9169611,41.7882557 76.6746026,42.5338047 76.4784102,43.2945886 L76.364007,43.7427898 L76.364007,43.7427898 C76.4652042,43.7451147 76.5687254,43.8507898 76.5349225,43.9583671 C75.7133028,46.6425159 74.3229507,49.1873847 72.9687254,51.6348211 C71.5870352,54.1327703 70.1652042,56.6184611 68.6398521,59.0297566 C63.2145,67.6063515 57.0032324,75.7031812 50.1898521,83.2209112 C46.9236549,86.824645 43.3912606,90.1870168 40.2032324,93.8621871 C38.7201338,95.5722223 37.3323169,97.3644728 36.1743592,99.3173495 C35.549007,100.371987 34.9870352,101.466782 34.5137958,102.601733 L34.4203821,102.826443 C34.0324302,103.753888 33.6511197,104.571674 32.9292887,105.313357 C32.5703451,105.68322 31.8518239,105.526821 31.7377394,104.998445 C31.2074577,102.512966 32.9654155,99.8288172 34.2414718,97.7998544 C35.6187254,95.6102654 37.2285845,93.5686215 38.9398521,91.6305393 C39.4236549,91.0810286 39.9159085,90.5401832 40.4145,90.0050442 C38.1837254,90.6181714 35.8342183,90.7806998 33.5609789,91.1824767 C31.2328099,91.5924963 28.9194296,92.0807155 26.6633028,92.7908524 C24.5905563,93.4418114 22.6173169,94.302007 20.7309085,95.3798935 C19.8264718,95.8977018 18.9414718,96.4662341 18.1133028,97.1023984 C18.0349225,97.1615765 17.9588662,97.2249816 17.8828099,97.2864845 C19.2349225,100.684997 20.2743592,104.210109 21.3602746,107.695486 C22.1016429,110.078189 22.8263166,112.467103 23.5462402,114.857614 L25.1630915,120.237013 C26.3295,124.115079 27.3011197,128.333631 29.3569648,131.861279 C30.2442887,133.38279 31.4440775,134.758469 32.8173169,135.861929 C33.4830211,136.398759 34.207669,136.806665 34.9595704,137.20189 C35.4328099,137.451283 35.8511197,137.774649 36.2905563,138.070328 C36.5798421,137.740372 37.0186236,137.535995 37.5570807,137.622255 L37.6173169,137.633044 C39.3180211,137.966978 41.0717535,137.364629 42.5842183,136.620676 C44.1602746,135.842907 45.7302042,134.929874 47.0630915,133.78034 C49.6849225,131.516567 51.8588662,128.69504 53.9780915,125.972849 C61.5328099,116.259189 67.9661197,105.619815 73.2095704,94.4901088 C75.8736549,88.8301479 78.3604859,83.0750795 80.6968944,77.271189 C81.8654155,74.3718857 83.0166127,71.4658192 84.1384437,68.5468603 L84.2865155,68.1566506 C85.2915535,65.4784186 86.1714767,62.5709061 87.7870352,60.2090912 C87.7997113,60.1877448 87.8168239,60.1710481 87.8356268,60.1585785 C87.8398521,60.090735 87.8611901,60.0273299 87.894993,59.9723789 C88.3956972,59.1713613 89.3546408,58.9365511 90.1851338,58.5647859 C91.120838,58.1439875 92.0546408,57.7257252 92.9884437,57.307463 C93.7238662,56.9775452 94.8011197,56.6985628 95.3525282,56.0731773 C95.9778803,55.3693808 96.1872465,54.1158622 96.4912606,53.245099 C97.1802042,51.2774278 97.9257676,49.3330051 98.6715423,47.3864689 C99.3264718,45.676645 99.8928803,43.8421245 100.811683,42.2487546 C101.596179,40.8894037 102.717236,40.1725366 104.013232,39.3896399 L104.294537,39.2198048 C104.836077,38.889553 105.413725,38.4939053 105.628585,37.8757057 C105.979289,36.8654513 105.199711,35.8993691 104.371542,35.4177018 C102.531401,34.3501714 100.32788,35.5823436 98.714007,36.5232751 C97.0912606,37.4699131 95.5090775,38.6069777 93.7743592,39.3405746 C93.736331,39.3551577 93.7088662,39.2980932 93.736331,39.2727311 C95.1306972,37.9948747 96.8348692,36.9421252 98.4362526,35.9033668 L98.8342183,35.6438466 C99.8968944,34.9482928 101.107669,34.2700697 102.387739,34.0819679 C102.121754,33.9932008 102.203937,33.6486998 102.457458,33.6172086 C104.975768,33.310328 107.532317,33.7036509 110.025275,33.1160971 C112.249711,32.5919483 114.191261,31.3344141 115.74619,29.6795413 C117.212387,28.1197761 118.374359,26.3148446 119.458162,24.4763084 C120.087951,23.4066646 120.702739,22.3287781 121.340556,21.2633613 C121.435627,21.1029464 121.530908,20.9254121 121.628092,20.7349855 C120.487035,20.4707977 119.325063,19.6213808 118.549711,18.9619679 C117.345486,17.9390325 116.466613,16.5568016 115.854148,15.1153926 C114.417528,11.7316744 114.531401,7.86185049 115.606965,4.39993268 C115.672246,4.18858239 115.985134,4.17801487 116.046401,4.39993268 C116.872246,7.3651773 116.94619,10.5800266 118.243373,13.4076822 C118.763092,14.5405198 119.487951,15.5592282 120.379289,16.4257644 C120.831401,16.8632595 121.287739,17.2307977 121.841261,17.5353534 C122.434923,17.8629464 123.068725,17.9705237 123.539852,18.4906568 C123.567317,18.5202458 123.592669,18.5498348 123.615908,18.5815374 C123.891965,18.5442552 124.129557,18.5839308 124.319582,18.7027981 L124.35957,18.7294826 L124.368021,18.7170129 C123.516613,18.1357996 122.660979,17.5607155 121.754641,17.0534748 C121.514007,16.9182106 121.689359,16.5948446 121.929993,16.6371147 L122.526299,16.7426167 C124.51858,17.0977186 126.548495,17.5015374 128.367317,18.3870951 C130.385134,19.3719875 132.311683,20.5090521 134.149711,21.7961753 C137.770838,24.3279405 141.066613,27.3187585 143.950415,30.6644337 C149.270134,36.8379757 153.030697,44.260598 155.356754,52.0425159 C158.263796,61.7667429 159.387739,71.9813025 160.615415,82.0265706 C161.202018,86.8353358 161.728439,91.652803 162.196308,96.4758792 L162.322458,97.7914004 C162.556754,100.272653 162.810275,102.749678 163.049007,105.22459 C163.471542,105.88823 163.501331,106.676567 163.251824,107.361553 C163.435627,109.367056 163.600627,111.374884 163.731613,113.389052 C164.065415,118.586156 164.280697,123.800168 164.373866,129.009952 C164.466613,134.29371 164.274359,139.569013 164.213092,144.85277 C164.187951,147.076387 160.820134,147.067721 160.767317,144.85277 C160.632317,139.015275 160.213796,133.175667 159.915908,127.342398 C159.624359,121.648622 159.353937,115.957169 159.005556,110.26762 C158.971542,109.726351 158.939852,109.183181 158.910275,108.642124 C158.419029,108.829413 157.810593,108.90685 157.294339,109.009249 L157.167317,109.035447 C156.129289,109.256115 155.089485,109.414802 154.035051,109.511347 L153.693524,109.540128 C152.736974,109.606218 147.833514,109.711553 144.934923,109.183181 C145.165204,112.90506 145.397599,116.626939 145.653232,120.346704 C145.944782,124.588504 145.999711,128.836645 146.213303,133.082672 C146.320838,135.204629 146.449711,137.311792 146.720134,139.421068 C146.843454,140.381202 146.969568,141.342734 147.120294,142.299407 L147.19781,142.77731 C147.333021,143.599463 147.501824,144.303259 147.153232,145.036645 C147.457458,145.977154 146.984218,147.162829 145.737951,147.067721 C137.747599,146.4696 129.738444,146.21598 121.727176,146.180261 C107.895963,146.114607 94.072862,146.668883 80.2477251,147.049309 L76.5114141,147.150505 C63.5614644,147.504904 50.5475885,147.883352 37.657669,146.450578 C37.629993,148.101224 34.5454859,148.082414 34.7102746,146.241342 L34.7507368,145.797459 C34.9363001,143.794272 35.1769356,141.71932 35.7983028,139.790931 C35.2828099,139.805725 34.7652042,139.784802 34.2792887,139.623964 C33.5886549,139.398031 32.9250634,138.9878 32.3250634,138.582007 C30.9898521,137.681655 29.8616831,136.572066 28.8879507,135.291283 C26.9757676,132.778328 25.7060493,129.800614 24.7025282,126.826704 C23.6355211,123.657204 22.659232,120.451257 21.7471037,117.234246 L20.7654252,113.750126 C19.5192573,109.318991 18.2956207,104.820488 17.5532324,100.272653 C17.473162,100.378328 17.3630915,100.469209 17.2175282,100.534727 C13.2454859,102.31007 9.84830282,98.6685041 9.17647183,94.986782 C8.78094973,92.8155586 8.87331106,90.5933055 8.90695951,88.3955447 L8.91027465,88.1601675 C8.94407746,85.6284023 8.95464085,83.0962145 9.08372535,80.5663515 C9.51027465,72.1081127 11.4814014,63.9121597 14.5468944,56.0328094 C17.4349225,48.6163162 20.9250634,41.1410677 25.4210493,34.5532791 C27.5567535,31.4252947 30.0201338,28.4198935 32.9884437,26.0422027 C36.1194296,23.5377018 39.6393592,21.6332243 43.3259789,20.0821245 C47.0928803,18.4969973 50.999007,17.24369 54.9097817,16.0601284 C59.2238662,14.7541949 63.5886549,13.6317135 68.0273873,12.8433769 C68.3504155,12.7863123 68.6673169,12.88142 68.8471056,13.1773104 C69.0032324,13.4372712 69.149007,13.7035726 69.2905563,13.974101 C69.8968944,13.5936705 70.8285845,13.5006763 71.4351338,13.3146881 C73.3384437,12.7250207 76.7630915,12.3720658 78.2717535,11.0278779 C79.9917969,9.4963605 80.8187063,7.45438838 81.5871947,5.34583051 Z M17.2130915,97.8759405 C16.944993,98.1211068 16.6764718,98.3662732 16.3999225,98.596645 C16.7609789,98.4444728 17.0884437,98.5459209 17.3292887,98.7699523 C17.2872465,98.4719483 17.249007,98.1739444 17.2130915,97.8759405 Z M104.534218,40.716465 C104.124359,40.969874 103.718725,41.2234943 103.349007,41.5278387 C102.020926,42.6267282 101.57194,44.4206583 101.018499,45.9850189 L100.983021,46.0845511 C100.302528,47.9782497 99.6159085,49.8761753 98.8954859,51.7550795 C98.6696408,52.3447468 98.4583732,52.9766841 98.2321056,53.6128485 C101.278585,56.5419523 104.39288,59.4397761 107.652528,62.1302654 C113.618725,67.0526137 120.11943,71.3282301 127.02788,74.811283 C130.5795,76.6035335 134.246894,78.2351577 138.020134,79.501146 C139.383021,79.9576626 140.770838,80.3592282 142.180204,80.6572321 L142.182317,80.6358857 L142.182317,80.6358857 C142.188444,80.585373 142.271049,80.5621245 142.2795,80.623416 L142.287951,80.6804806 L142.287951,80.6804806 C142.891965,80.8051773 143.500627,80.9108524 144.11119,80.9932791 C145.268725,81.1475648 146.439148,81.217099 147.607458,81.2069542 C148.332106,81.2004023 149.050415,81.1114239 149.7645,81.1475648 C146.602035,78.2964493 143.422246,75.4664689 140.234218,72.6491695 C134.191965,67.3062341 128.11612,62.0055687 122.029289,56.7133573 C119.326941,54.3631421 116.594547,52.0413156 113.903476,49.6751432 L111.311957,47.3853078 C109.021678,45.3591971 106.745682,43.3007882 104.761814,40.9848449 L104.534218,40.716465 Z M77.5278592,56.4238708 C77.3440563,56.197726 77.6231408,55.9102896 77.8491972,56.1026184 C79.1991972,57.2458121 80.724338,57.7469237 82.3447606,58.361953 C82.7229296,58.5056712 82.6935634,59.1080196 82.2456761,59.1016791 C80.3630704,59.067863 78.6665915,57.8504853 77.5278592,56.4238708 Z M96.4406831,28.2718215 L96.5756702,28.2178703 C98.4792578,27.4711657 100.948888,27.0999136 102.447021,28.8321112 C103.532937,30.0896454 103.809486,32.4694497 102.394204,33.5663577 C102.054063,33.8305456 101.33343,33.6044008 101.549134,33.0739115 C102.170049,31.5585299 102.301246,29.5737393 100.347021,28.9906239 C98.6519264,28.4843452 96.6690898,29.4719155 95.1254825,30.1588789 L94.6838758,30.3538895 C91.6732053,31.6909031 88.6832204,33.3110907 86.8385704,36.1425065 C86.7899789,36.2143656 86.6608944,36.1680798 86.6927958,36.0812149 C88.1651197,32.0023656 92.6737817,29.8062247 96.4406831,28.2718215 Z M74.1372465,19.5368407 L73.4053715,19.2599615 C71.54406,18.5648356 69.2262887,17.858973 68.0717535,19.8602067 C67.6390958,20.6082029 67.2667465,21.534101 67.1057619,22.3955979 L67.0851338,22.5126528 C67.0407676,22.7787429 66.9835141,23.0642771 67.1738662,23.2692869 C67.4673169,23.5905393 68.4222465,23.7467272 68.8067535,23.8864297 L71.2246408,24.7647076 L71.2246408,24.7647076 L72.4321056,25.2052556 C72.9814014,25.4060384 73.6912606,25.6068211 74.0968944,26.0485432 C75.5166127,24.1844337 77.7750634,23.1234552 79.9067535,22.1914004 C77.986331,21.2973886 76.1252746,20.2852321 74.1372465,19.5368407 Z" id="ðŸ–-Ink" fill="#000000"></path>
                    </g>
                    <g id="head/Afro" transform="translate(78.591549, 38.043053)" fill-rule="evenodd">
                        <path d="M41.2807516,17.4727681 C73.302566,15.8974193 87.752586,38.4522883 88.6872626,48.5264802 C89.3360741,55.5195428 85.2059658,63.5798475 85.2059658,69.8287286 C85.2059658,73.0183935 89.1097978,79.8662272 87.2924216,84.5151557 C83.2473506,94.8626259 74.6825522,106.346395 63.7684029,106.346395 C52.8542535,106.346395 38.6502019,109.365888 26.5905399,92.091848 C25.4590001,90.471051 11.1469381,81.2592089 9.75651008,72.5058517 C6.29306859,50.7019613 18.4318308,18.5968462 41.2807516,17.4727681 Z" id="ðŸŽ¨-Background" fill="#FFFFFF"></path>
                        <path d="M39.7711056,3.43596399 C40.9161761,2.12559217 42.8492746,1.60144344 44.5668803,1.70289159 C47.0619507,1.85083679 49.2318803,3.39158043 51.7142746,3.50570959 C54.3168803,3.62617926 56.8288521,2.7237135 59.438007,3.14218708 C61.0373028,3.40003444 62.6218099,4.14187397 63.6464577,5.39306771 C67.1957535,4.3764728 71.0492746,5.72277417 73.309838,8.66265675 C76.0985704,8.22938865 79.1323732,10.0768016 79.9858944,12.7649659 C83.5288521,12.8790951 86.8732183,15.7259836 87.2682887,19.2935765 C88.683993,19.6676665 89.9133592,20.6443162 90.6675845,21.9354552 C91.5443451,23.4318153 91.6901197,25.1479796 91.531669,26.834555 C93.1985704,27.6862967 94.0457535,29.5165902 94.2675845,31.4525589 C95.7908239,32.5896235 96.4520915,34.6333808 96.1415282,36.563009 C97.3077254,37.2203084 97.9100493,38.7504845 97.9035,40.1158074 C97.897162,41.3902497 97.5593451,42.5190716 98.0346972,43.748919 C98.4581501,44.8443079 98.6101718,45.7572174 98.3772467,46.9046105 L98.3535,47.0163945 C98.3123028,47.2034395 98.2776549,47.3828759 98.2465986,47.5597761 C98.5620211,47.836645 98.8288521,48.1836822 99.0291338,48.5873613 C99.7596972,50.0625863 99.6508944,51.745146 99.0937817,53.2412947 C99.3377958,54.1940618 99.3067394,55.2005119 98.9461056,56.1162928 C99.6215282,57.0895609 99.976669,58.2832673 99.8723028,59.52178 C99.7552606,60.9084493 99.1223028,62.1501323 98.1625141,63.068238 C98.4181479,64.9623593 97.6482887,67.0088642 96.2562465,68.3424845 C96.4537817,69.4763789 96.2832887,70.6648016 95.6632183,71.7397292 C95.2212465,72.505874 94.6263169,73.0765198 93.9399085,73.474281 C93.9625141,74.1068524 93.8769507,74.7537957 93.6665282,75.402007 C93.3743451,76.3015139 92.8795563,77.1302184 92.2284296,77.7976626 C92.6169507,80.2827194 91.1296268,83.0402067 88.5118099,83.7374513 C88.2918803,83.7959953 88.0820915,83.8228368 87.8811761,83.8270638 C87.6211056,86.2172243 87.0532183,88.5742027 86.1739225,90.8126137 C83.9387113,96.5125198 79.8739225,101.49616 74.5732183,104.605123 C71.9513873,106.141639 69.0063169,107.194164 65.9999789,107.633772 C63.8365986,107.950798 61.7556127,107.872598 59.583993,107.657021 C56.8584296,107.384379 54.1204014,106.976473 51.4711056,106.27479 L51.0449848,106.161466 C49.9467152,105.867131 48.7887627,105.527504 47.8373028,104.934829 C46.7725141,104.271189 46.2192042,103.248254 45.9741338,102.043557 C45.8373952,101.373048 46.2619407,100.65188 46.9956844,100.637996 L47.0429366,100.638077 C47.2035,100.641459 47.3627113,100.635372 47.5239237,100.625227 L47.6452606,100.616942 L47.6513873,100.616942 C47.659838,100.614829 47.6642746,100.614829 47.6725141,100.614829 C47.7443451,100.604261 47.8140634,100.583126 47.8837817,100.572559 C48.690993,100.436618 49.396958,100.571423 50.1549481,100.823641 L50.2499789,100.855768 C51.5260352,101.295377 52.7915282,101.703283 54.109838,102.005514 C55.4725141,102.316199 56.8520915,102.563479 58.2358944,102.757921 L58.3732183,102.774829 L58.4154718,102.781169 L58.4365986,102.783283 L58.4365986,102.783283 C58.4408239,102.783283 58.4450493,102.783283 58.4492746,102.785396 L58.8570211,102.836121 L58.8570211,102.836121 C59.1783592,102.874164 59.4992746,102.90798 59.8204014,102.941796 C60.4119507,103.000974 61.0035,103.047471 61.5950493,103.081287 C71.8056127,103.65616 80.3809648,95.614281 82.968993,85.9724806 C83.9070211,82.4830873 83.9682887,79.0021479 83.6915282,75.5190951 C83.6027958,75.2654748 83.5499789,74.9843789 83.5520915,74.6758074 C83.5520915,74.5151812 83.5607535,74.3566685 83.5711056,74.1960423 C83.2269507,70.8271186 82.6290634,67.4560814 82.2549085,64.0744767 C81.8177958,60.1243397 81.5746268,56.1511656 81.6633592,52.1754552 C81.7077254,50.212011 81.9168803,48.2675883 82.1915282,46.3233769 L82.2908239,45.6248642 L82.2908239,45.6248642 C81.0496268,45.3824454 79.8956831,44.7936235 78.9768803,43.9412477 C76.9829366,45.0931068 74.4023028,45.195189 72.4341338,43.9788681 C70.2285,45.3625785 67.1469507,45.4881205 64.9258944,44.1352673 C63.5835,45.0939523 61.8920915,45.5075648 60.2317394,45.1436196 C59.4849085,44.9800344 58.7423028,44.6260227 58.1063873,44.1359014 C57.6523732,44.2160031 57.1924437,44.2470716 56.7350493,44.223189 L56.6406127,44.2760266 L56.6406127,44.2760266 C55.5863873,44.8318779 54.4185,45.1977252 53.2165986,45.1569346 C52.3267394,45.1269229 51.4100493,44.9512908 50.5613873,44.6190481 C49.654838,45.1664454 48.6627254,45.5401127 47.6013169,45.6741088 C46.0512465,45.8696078 44.3784296,45.5265863 43.0892746,44.6469464 C40.7334296,45.9894434 37.8356831,46.196144 35.2928662,45.294101 C34.7720915,46.1764885 34.0514577,46.9373495 33.2076549,47.5238466 C33.3587113,48.065326 33.4068803,48.642735 33.3549085,49.1979523 C33.2695563,50.1118309 33.0405423,50.931236 32.6659648,51.6671577 C33.0608239,52.4888877 33.1795563,53.497874 32.9585704,54.5106646 C32.6435704,55.9550325 31.8035704,57.21151 30.7159648,58.1900618 C30.6200493,60.4950481 29.3564577,62.6563162 27.2999789,63.8569973 C27.1958239,63.9176548 27.0923028,63.9671108 26.988993,64.0117057 C26.8981479,64.1359796 26.7895563,64.2452477 26.6655423,64.3373965 C25.3577958,65.5461088 23.2882183,65.4499444 21.648993,64.7670716 C21.6173028,64.7685511 21.5858239,64.7712986 21.5537113,64.7719327 C20.9682887,64.7867272 20.5692042,64.5584689 20.3323732,64.2224219 C20.0938521,64.2353143 19.8570211,64.260465 19.6185,64.3048485 C18.7478662,64.4675883 17.7929366,64.7803867 17.0049085,65.1863906 C14.959838,66.2387037 14.0133592,68.0985863 13.7302606,70.3346724 C13.4220211,72.7736548 14.1232183,75.2591342 16.0100493,76.90978 C16.9267394,77.7129112 18.0992746,78.2159249 19.2908239,78.4272751 C20.6070211,78.661874 22.0140634,78.0848877 22.9858944,79.2156117 C23.1802606,79.4396431 23.3133592,79.7524415 23.2077254,80.0546724 C22.8781479,80.9972947 22.3351901,81.3587037 21.4858944,81.4897409 C22.7133592,82.9459444 23.9725141,84.3535374 25.3668803,85.6617957 C26.875331,87.0799562 28.4344859,88.4537331 29.7952606,90.0177252 C31.2337817,91.672598 32.5330775,93.4268055 33.4351901,95.4346333 C33.9506831,96.5886059 34.3647676,97.778508 34.8107535,98.9599562 L34.890398,99.1657901 C35.3876476,100.421051 36.0490804,101.631059 35.2837817,102.941796 C34.9795563,103.45749 34.2908239,103.956277 33.6570211,103.87385 C31.8720211,103.645592 31.2741338,102.438782 30.7246268,100.866336 C30.3105423,99.6785472 29.9936408,98.4569425 29.5480775,97.2797213 C29.4646268,97.0618192 29.3737817,96.8460305 29.2785,96.63151 C28.2492042,96.9185237 27.1174437,96.6906881 26.1988521,96.1035569 C25.2173028,96.5387272 24.1299085,96.755784 23.0796972,96.7373965 C21.6735,96.7126685 20.3887817,96.3218818 19.2842746,95.6170286 C19.1963873,95.59378 19.1080775,95.5713769 19.0204014,95.5462262 C17.3401901,96.1899992 15.3724437,96.0750247 13.8511056,95.0315883 C12.8659648,94.3559014 12.1924437,93.4540697 11.8096268,92.4499444 C10.5367394,92.4256391 9.27758451,91.9741949 8.36554225,91.0708838 C7.52807746,90.2415452 7.03857042,89.1714787 6.89321831,88.0595648 C5.79758451,87.842508 4.77040141,87.3126528 3.96483803,86.4201205 C3.29216197,85.6746881 2.88335915,84.7253025 2.74519014,83.7395648 C1.41082394,83.3587115 0.207443662,82.4871029 -0.449809859,81.2718387 C-1.06142958,80.1404806 -1.14973944,78.9131695 -0.850584507,77.7968172 L-0.928119718,77.6852243 L-0.928119718,77.6852243 C-2.30262676,76.9655765 -3.35157042,75.78751 -3.4593169,74.1047389 C-3.48973944,73.6256078 -3.43819014,73.1462654 -3.30826056,72.6927076 C-3.35516197,72.1856783 -3.32516197,71.6788603 -3.19227465,71.1885276 C-5.0408662,69.3899366 -5.71058451,66.5007781 -4.70706338,64.1125198 C-6.51340141,62.1680971 -6.9908662,59.0929503 -5.66621831,56.7852164 C-6.57466901,55.6859836 -7.04157042,54.2847311 -6.96340141,52.788371 C-6.86621831,50.9202458 -6.01058451,49.2884102 -4.98593662,47.7772556 C-5.7465,46.9360814 -6.1521338,45.7630873 -6.12234507,44.6302497 C-6.08030282,42.9880579 -5.20776761,41.5741245 -4.11530282,40.4032438 C-5.06833099,37.5119718 -4.00354225,34.3755335 -1.66480986,32.5452399 C-2.1380493,31.7653573 -2.31340141,30.7994865 -2.15896479,29.8209346 C-1.88875352,28.1111108 -0.606359155,26.9465706 0.777443662,26.0250834 C0.488007042,25.0826724 0.56406338,24.0658661 1.02462676,23.0915413 C1.63941549,21.791737 2.79927465,20.9674708 4.00983803,20.2700149 C4.32251408,17.3871969 7.54223239,14.9249659 10.2422324,16.412872 C9.57251408,14.2676665 11.5015986,11.9512673 13.7199085,11.706101 C14.8056127,8.41326341 18.5513873,6.33780352 21.918993,7.15572916 C23.6408239,4.80128689 26.8457535,3.89480548 29.5668803,4.90484853 C32.5586408,2.61169785 36.2704014,2.27142387 39.7711056,3.43596399 Z M18.4605423,68.090238 C20.5626549,67.9761088 22.1387113,69.6922732 23.2459648,71.2626059 C24.2851901,72.7357174 21.618993,74.2912556 20.8415282,72.6680853 C20.5626549,72.0889855 20.2457535,71.4760697 19.8211056,70.968829 C19.7498028,71.068692 19.6868187,71.1721215 19.6241316,71.278226 L19.5612465,71.385189 C19.5147676,71.4633886 19.4661761,71.5437018 19.4260352,71.6261284 C19.4302606,71.6409229 19.3668803,71.8353652 19.3647676,71.8438192 C19.1915282,72.3700814 18.8133592,72.7082419 18.2980775,72.8900031 C17.6323732,73.1224885 17.0027958,72.6215883 16.7894155,72.0340344 C16.4494859,71.0956391 17.2394155,70.2777135 18.0612465,69.905737 C17.2542042,69.7746998 16.459838,70.0494552 15.8767394,70.670825 C15.796669,70.7574787 15.6612465,70.6877331 15.6572324,70.5799444 C15.5894155,69.1068329 17.1295563,68.1620971 18.4605423,68.090238 Z" id="ðŸ–-Ink" fill="#000000"></path>
                    </g>
                    <g id="face/Awe" transform="translate(112.183099, 77.354207)" fill="#000000" fill-rule="evenodd">
                        <path d="M19.9288732,39.964375 C19.9732394,39.923373 20.0433803,39.9090012 20.096831,39.9426059 C21.0109859,40.5208603 21.1191549,42.4654943 21.129507,43.5886098 C21.5076761,43.687099 21.8811972,43.7991147 22.2344366,43.8773143 C22.9845211,44.0433511 23.7387972,44.1881514 24.4915318,44.3408241 L25.0557042,44.4572595 C26.9414789,44.8548094 28.8625352,45.149009 30.7842254,45.2963202 C32.6492958,45.439193 34.5684507,45.4913965 36.4282394,45.2510912 C37.226831,45.1477409 38.0207746,44.9752791 38.7925352,44.7451186 C39.7047887,44.4728994 40.431338,44.0216665 41.2797887,43.6264415 C43.4038732,42.6366881 45.1840141,45.5370481 43.1397887,46.8097996 C41.385,47.9018466 38.9909155,48.2955922 36.9652817,48.4646724 C34.8948592,48.6373456 32.8324648,48.4477644 30.7869718,48.1201714 C28.5756338,47.765737 26.4097183,47.22151 24.3124648,46.432328 C23.4256866,46.0987115 22.5674897,45.6942355 21.7295749,45.251947 L21.5015493,45.1304102 C21.3623239,45.0555922 21.2171831,44.9797174 21.0711972,44.9027859 C20.9142254,46.3034043 20.4619014,47.6562575 19.9153521,48.9566959 L19.9024648,48.9338701 C19.6035211,49.9597644 18.5235211,50.5944493 17.4490141,50.1413143 C16.187805,49.6098301 16.092005,48.2144991 16.8258402,47.2240956 L16.8608451,47.1779718 C17.723662,46.0675374 18.2642958,44.6899562 18.7341549,43.3768368 C18.9752113,42.7036861 19.1983099,42.0142614 19.391831,41.3256822 C19.5319014,40.8275295 19.5369718,40.326418 19.9288732,39.964375 Z M52.4285797,28.8108977 C51.6810471,31.0709693 50.0506498,32.8113985 47.7794858,33.5766183 C45.5286407,34.3351334 43.0252653,34.058632 40.7244726,33.6485532 C40.2211742,33.5588484 39.7109851,33.4597958 39.2017609,33.3442852 C39.618502,33.6025254 39.9866387,33.9660159 40.3389247,34.3503725 C40.8597561,34.9186182 41.3321703,35.5174474 41.4754504,36.2287556 C41.617647,36.9344868 41.3936428,37.47141 40.9850876,37.876636 C40.356612,38.4999904 39.3428168,38.8357471 38.4841179,39.0213183 C36.561246,39.4371097 34.6350248,39.3724027 32.7215957,38.9462102 C32.2330383,38.8374263 31.9017528,38.5753196 31.7157941,38.2335338 C31.4898643,37.8182823 31.4713902,37.3019286 31.6010046,36.8315974 C31.7305263,36.3616022 32.0104693,35.928259 32.4167557,35.688394 C32.7511656,35.4909638 33.1694607,35.4367937 33.6442181,35.5948171 C34.5970813,35.9119739 35.5431305,36.122105 36.5495748,36.1463873 C36.9755634,36.1562724 37.4044024,36.1436714 37.8297292,36.1045709 C38.0702216,36.0824622 38.3102746,36.0518186 38.5488836,36.0135555 C38.4083197,35.8263346 38.2718181,35.6356328 38.1384118,35.4429565 C37.9807683,35.2152747 37.8272244,34.9845142 37.6806672,34.7500548 C37.2568397,34.0710077 36.9038771,33.3729589 36.5937772,32.636158 C36.4942893,32.4001429 36.4020605,32.1630817 36.3135123,31.9252088 C36.3007575,31.8909448 36.2880716,31.8566437 36.2753654,31.8222475 C36.2480292,31.7994097 36.2209046,31.7763415 36.1939893,31.7530477 C35.5874158,31.2280894 35.0788521,30.5813546 34.7191265,29.7803615 C33.7452276,27.6106609 33.9037924,24.9174592 34.4947685,22.6645732 C34.9683232,20.8587544 36.0137139,19.1884783 37.3947991,18.0537659 C37.6359883,17.6568493 37.7951551,17.4160737 37.9902761,17.2133047 C38.7839924,16.3871897 39.8915581,15.8300266 40.972422,15.4911039 C43.3864569,14.73381 46.0155693,15.2771248 48.0619069,16.718998 C49.9513441,18.0503098 51.4304886,20.0469255 52.2297932,22.2676038 C52.9867466,24.3706193 53.1344485,26.6773243 52.4285797,28.8108977 Z M19.5469014,15.0758489 C22.4178169,15.0513323 25.3388028,15.8992697 27.6684507,17.5962012 C29.8973239,19.2200055 31.6470423,21.6173519 31.6449353,24.4729057 C31.6428169,27.2532188 30.1571831,29.9868235 28.509507,32.1394262 C26.6600704,34.5560055 24.243169,35.7211796 21.2042958,35.7480211 C19.62471,35.7621443 18.0335214,35.622188 16.4652523,35.4299982 L15.6238641,35.3238517 C14.4651874,35.1743553 13.2944846,34.997401 12.1962676,34.5991209 C6.96866197,32.7022521 6.80683099,25.8570387 8.74288732,21.4814536 C10.2378169,18.1032305 14.0214085,14.8087022 17.7942254,15.2041386 C18.3627465,15.1244595 18.9464789,15.0811327 19.5469014,15.0758489 Z M24.3957042,18.2949252 C20.8005634,16.6806317 16.4323944,17.1639898 12.945,18.8867061 C11.5635211,20.3944791 10.5538732,22.2947295 10.1452817,24.0392149 C9.70901408,25.9014223 9.7728169,27.9073479 10.4288028,29.7122795 C11.2297183,31.9156063 13.2019014,32.4613127 15.3293662,32.7998959 L16.1553382,32.9296467 L16.5018568,32.9821811 C18.5922852,33.2941167 20.8776953,33.5367409 22.8866197,33.146299 C25.1255103,32.7107483 26.5473856,30.9013617 27.666494,29.0462263 L27.7187324,28.9592384 C28.8809155,27.0154497 29.8538028,24.6514967 28.8790141,22.4242873 C28.0502113,20.5312227 26.2398592,19.1229957 24.3957042,18.2949252 Z M45.6155704,18.8574129 C44.3817676,18.1734834 42.9745141,18.0492094 41.6422606,18.5069941 C41.0690418,18.7039229 40.5737874,19.0231094 40.0935106,19.3809254 L39.9020493,19.5259139 C39.3114595,19.97941 38.7598695,20.2091034 38.3168224,20.8215954 L38.2596549,20.9037065 C38.0361338,21.2376399 37.6450775,21.3712133 37.2888803,21.3268297 C36.8737394,22.4717143 36.7024014,23.7098043 36.6989491,24.9286614 L36.6992914,25.0901659 L36.7014033,25.2549084 C36.7280219,26.6956049 36.9792827,28.4580906 38.1124014,29.4236595 C39.1459479,30.3042336 40.7109271,30.5156026 42.1080725,30.6382113 L43.1848466,30.7280436 L43.4710294,30.7496553 C44.94368,30.8521439 46.5574014,30.8171914 47.7916268,29.9450607 C48.8665563,29.1854677 49.3735986,27.8962309 49.505007,26.6232681 C49.8157817,23.6159648 48.2942324,20.3421487 45.6155704,18.8574129 Z M18.7595493,19.1352329 C20.739338,18.1241331 23.1175775,18.3775421 24.7946197,19.6447984 C24.6456761,19.6739648 24.4990563,19.7111624 24.3528592,19.784501 C23.9723662,19.9753503 23.736169,20.3574716 23.646169,20.7641096 C23.5447606,21.2237965 23.7828592,21.6589667 24.2364507,21.803953 C24.6310986,21.9299178 25.0990563,21.9876164 25.4656056,21.7477339 C25.6576479,21.6221918 25.7918028,21.4567045 25.8799014,21.2483131 L25.8923662,21.2176673 L25.9078534,21.1951766 L25.9137283,21.1846538 C25.9150788,21.1806471 25.9081408,21.1882661 25.8972254,21.205409 C25.9084225,21.1794129 25.9187746,21.1534168 25.9291268,21.126998 C25.9445493,21.0955068 25.959338,21.0638043 25.9713803,21.031045 C25.9927183,21.0126575 26.0121549,20.9921566 26.0318028,20.9716556 C26.3364507,21.4406419 26.5756056,21.9702857 26.727507,22.5595303 C27.7022958,26.3416438 23.7051127,30.2666301 20.1340563,30.659319 C18.7844789,30.8076869 17.5538451,30.4862231 16.5325775,29.8525949 C16.5418732,29.8401252 16.5522254,29.8289237 16.5606761,29.81582 C16.9709577,29.8895812 17.4606761,29.7059178 17.6096197,29.2481331 C17.9896901,28.0804227 17.5999014,26.7144658 16.3280704,26.3329785 C15.5096197,26.0873894 14.6721549,26.3587632 14.0871549,26.9184188 C13.6447606,25.8352485 13.4865211,24.6157573 13.6958873,23.394364 C13.9912394,21.671225 15.0302535,20.1184344 16.6472958,19.4015342 C17.4346901,19.0521722 18.1132817,18.9788337 18.7595493,19.1352329 Z M39.6088732,21.4687092 L39.6691457,21.373732 C40.2809262,20.4319062 41.4503787,19.2765736 42.6623239,19.5942434 C42.8326056,19.6388384 42.999507,19.7106975 43.1499296,19.8039029 C43.8158451,19.713445 44.5130282,19.8647718 45.0855634,20.2170928 L45.0699922,20.2566074 C45.0675117,20.2632141 45.0652817,20.2699303 45.0635915,20.2769049 C45.0114085,20.5060086 45.041831,20.7177816 45.1487324,20.9282865 C45.2647183,21.1563335 45.4301408,21.3725448 45.6540845,21.5033706 C45.8076761,21.5929832 45.9883099,21.6401143 46.1653521,21.6365213 C46.425,21.6318716 46.6535915,21.5175311 46.8411972,21.3429558 C46.9432394,21.2482708 47.0144366,21.1094137 47.0537324,20.9665409 C47.1462676,21.055308 47.2360563,21.15422 47.3216197,21.266447 C48.7267606,23.1149166 48.5326056,26.0852337 46.8840845,27.7329205 C46.8175352,27.7992845 46.7467606,27.859308 46.676831,27.9205996 C46.0075352,28.8422982 44.9759155,29.4678951 43.736831,29.5944939 C42.5896479,29.7117933 41.4424648,29.3723648 40.5627465,28.6765996 C40.6335211,28.6389793 40.6996479,28.5901573 40.7566901,28.5254841 C40.9069014,28.3553472 41.030493,28.187535 41.1217606,27.9797777 C41.1447183,27.9275037 41.166831,27.874854 41.1877856,27.8217033 L41.2183099,27.7415859 C41.2236066,27.7268669 41.2704369,27.59169 41.2579857,27.6154357 L41.2551152,27.6209201 L41.2717255,27.5819677 C41.4291745,27.1888165 41.3655452,26.739377 40.9918618,26.4927771 L40.9506338,26.4671436 C40.8285211,26.3959186 40.6772535,26.3623139 40.5240845,26.3618912 C40.1425352,25.8945957 39.5746479,25.7874411 39.0416197,25.9239734 L39.022903,25.7731006 C39.0200704,25.7479186 39.0176056,25.7226975 39.0158451,25.6974059 C38.6028169,24.3276446 38.8020423,22.7710497 39.6088732,21.4687092 Z M21.2715423,7.67810254 L21.4087039,7.65675091 C22.4456565,7.50683175 23.1507148,7.6794499 23.8249225,8.56598513 C24.1462606,8.98847436 24.0471761,9.6265409 23.8249225,10.0583295 C23.1070352,11.4534528 21.1321056,11.1649597 19.8019648,11.4420399 C18.5033028,11.7123569 17.2078099,12.0803178 15.9925986,12.6158795 C14.752669,13.1624313 13.5887958,13.8089519 12.4538662,14.5471984 C11.4273169,15.2152767 10.4962606,16.219402 9.32351408,16.6080751 C9.27069718,16.6256172 9.20710563,16.5782748 9.21029329,16.5222669 C9.29393662,15.1880125 10.4079507,13.9632376 11.2707676,13.0130067 C12.2687958,11.9141965 13.4825282,10.9386035 14.7465423,10.1629479 C16.0509085,9.36277573 17.4609085,8.70399687 18.9207676,8.24452133 C19.6895704,8.00252524 20.4761197,7.81019648 21.2715423,7.67810254 Z M37.0693521,9.48975499 C38.3749859,7.57978239 41.6206901,7.94605245 43.535831,8.45646341 C45.9370986,9.09600939 48.5390704,10.3896845 50.2228732,12.2622481 C51.7311127,13.9397354 49.4745634,16.1191796 47.778507,14.707571 L47.3258774,14.3320817 L47.0362039,14.0940718 C45.7341761,13.0302316 44.4447855,12.0674189 42.8580845,11.3580916 C40.997662,10.5268509 39.1125211,10.1219037 37.1462535,9.6789135 C37.0689296,9.66158278 37.023507,9.55675303 37.0693521,9.48975499 Z" id="ðŸ–-Ink"></path>
                    </g>
                    <g id="facial-hair/*-None" transform="translate(104.577451, 109.479380)"></g>
                    <g id="accessories/*-None" transform="translate(88.521127, 88.978474)"></g>
                </g>
            </g>
        </g>
    </g>
</svg>