<?xml version="1.0" encoding="UTF-8"?>
<svg width="240px" height="324px" viewBox="0 0 240 324" version="1.1" xmlns="http://www.w3.org/2000/svg" xmlns:xlink="http://www.w3.org/1999/xlink">
    <!-- Generator: Sketch 62 (91390) - https://sketch.com -->
    <title>peep-67</title>
    <desc>Created with Sketch.</desc>
    <g id="Introduction" stroke="none" stroke-width="1" fill="none" fill-rule="evenodd">
        <g id="variations" transform="translate(-2286.000000, -1082.000000)">
            <g id="images" transform="translate(126.000000, 110.000000)">
                <g id="a-person/bust" transform="translate(2160.000000, 972.000000)">
                    <g id="body/Paper" transform="translate(31.056338, 135.052838)" fill-rule="evenodd">
                        <path d="M150.022562,41.5444811 C148.181113,34.4008449 146.487633,31.3720117 143.21645,28.8890928 C140.156716,26.5666686 135.690221,24.616104 129.173087,23.1912768 C122.385153,22.0042412 122.192712,18.475584 120.490732,12.8041914 C119.994215,11.0992146 117.533743,10.6455451 116.471812,11.8744515 C116.322113,11.7128304 116.166034,11.5648173 116.004427,11.4310403 C116.149023,10.6179104 114.965332,8.28732303 115.004881,7.50952316 C115.417681,-0.609005215 112.762711,-4.68584742 106.136171,-6.20135908 C104.695101,-6.53109121 94.9065863,-6.72516212 93.5014529,-6.33660159 C87.3586723,-4.63790541 81.3115461,0.755465435 82.2369609,7.25254916 C80.30873,9.77295874 78.4215729,11.31129 75.4467217,12.1233731 C68.8263488,12.9641377 62.2066138,13.7117399 55.5845398,14.3517342 C42.6219288,16.385187 30.4684177,23.2478023 22.1617996,33.2563762 C21.3956532,34.1802542 21.1742936,35.4342831 21.8504928,36.4195018 C21.3208035,38.6886869 18.3391477,44.1930152 20.6852187,45.7487228 C16.8272684,54.977454 7.95072329,72.8155543 7.93257791,77.9116861 C7.86411145,99.3206175 10.1762752,127.187115 31.2981439,139.034652 C32.1438182,139.866205 32.264811,140.786315 32.6309793,142.023595 C33.5595837,145.921134 36.932074,148.706647 40.6233136,148.479289 C58.8071994,148.883469 76.4194747,146.664642 94.6037662,146.557151 C102.622991,146.509747 112.266923,147.706921 119.233171,148.504559 C126.19942,149.302197 133.231558,148.596675 139.916787,146.557151 C140.480499,147.44481 141.620256,147.961914 142.776386,147.706921 C149.70679,146.329792 155.311163,142.058139 160.192343,137.389341 C161.684021,134.675279 167.509329,126.942381 165.193878,124.25072 C167.29286,115.375587 167.183775,105.839315 163.453835,97.3881237 C163.982573,95.8389543 163.018842,94.1364726 163.453835,92.5367037 C163.768621,91.3790161 164.574809,90.9001986 164.980599,89.753827 C165.551618,88.1406772 164.930621,85.9765462 164.287719,84.3304236 C164.024256,83.5099664 164.772636,82.6269138 164.980599,81.7897082 C165.967042,77.8410875 163.708257,78.1891262 162.07985,75.5493849 C162.104091,75.5412202 162.527569,73.6567356 162.525656,73.6661565 C162.774982,72.320747 162.150366,70.5970822 161.605521,69.4740158 C161.237274,68.7149621 160.44844,68.2399026 159.664657,68.3269857 C160.453982,65.6468392 161.452242,63.4167123 162.525656,60.8345433 C164.424117,56.2829839 166.827176,51.9244485 169.553236,47.8045764 C170.669603,46.117604 169.17027,44.1630776 167.363669,44.0481424 C161.516248,43.6765395 155.732831,42.8345188 150.022562,41.5444811 Z" id="ðŸŽ¨-Background" fill="#FFFFFF"></path>
                        <path d="M132.956958,75.9647272 C130.618225,75.0474669 128.099915,74.5404376 125.56893,74.3436705 C126.931606,74.1048446 128.298296,73.8744728 129.675972,73.7561166 C130.637239,73.67369 131.528577,73.682144 132.251113,74.4115139 C132.733014,74.8974082 132.95907,75.5230051 133.275972,76.0978779 C133.172451,76.0513808 133.064704,76.0069973 132.956958,75.9647272 Z M158.059775,67.3881323 C154.229493,67.5827859 150.394986,68.4937057 146.930197,70.1441401 C145.512592,70.8204611 144.228085,71.7968994 143.852028,73.4031616 C143.661887,74.2234121 143.708366,75.0709268 143.809563,75.89942 C143.885831,76.526919 143.904845,77.3279366 144.449915,77.7527507 C144.542873,77.8246098 144.642169,77.8795609 144.74569,77.9197174 C143.467521,78.4967037 142.250408,79.190144 141.168718,79.9042967 C140.180197,80.5573691 139.164,81.5633965 138.707662,82.6983476 C138.669634,82.5694239 138.631606,82.4491656 138.593577,82.334825 C137.816113,80.0355452 136.618225,78.1524141 134.731606,76.8862145 C135.065408,76.7363671 135.29569,76.3810873 135.187944,75.8909659 C134.740056,73.8427703 132.849,72.0632008 130.713296,72.190011 C128.374563,72.3273886 125.862592,73.1791303 123.747592,74.2549033 C122.976676,74.2379953 122.207451,74.2485628 121.447099,74.2823789 C121.316113,74.2866059 121.322451,74.4643515 121.447099,74.4789346 C122.064,74.5573456 122.680901,74.6437879 123.297803,74.745236 C124.764,74.9800462 126.225972,75.2778387 127.656042,75.6477018 C129.371746,76.0917487 131.146394,76.5374865 132.749915,77.3131421 C135.859563,78.820281 137.784423,82.7598505 137.389352,86.1877409 C137.323859,86.7499327 137.106254,88.449189 136.326465,88.2737683 C135.667521,88.1258231 135.405549,86.7499327 135.175268,86.2405785 C134.558366,84.8879366 133.447099,84.0044924 132.114,83.406371 C130.548507,82.7025746 128.873155,82.2270364 127.250408,81.67351 C126.331606,81.358598 125.412592,81.0434748 124.491465,80.7306763 C123.549211,80.4075217 122.653437,79.9613613 121.649915,80.1875061 C121.043577,80.3248838 120.973859,81.0477018 121.314,81.4621597 C121.831606,82.0938857 122.60062,82.279874 123.346394,82.5398348 C124.330901,82.8822223 125.313296,83.2248211 126.29569,83.5669973 C127.814493,84.095373 129.405549,84.5413221 130.886324,85.188054 L130.840056,85.2937292 C130.719423,85.2599131 130.577873,85.3803828 130.601324,85.528328 C130.823155,86.8957644 131.131606,88.4766646 130.789141,89.8464258 C130.51893,90.932555 129.565901,92.1353495 128.328085,91.8159992 C128.522451,91.638465 128.594282,91.332007 128.463296,91.0487977 C127.972944,90.0005002 121.55062,85.8622614 120.978085,87.3989894 C120.95907,87.4537292 121.018014,87.4938857 121.064704,87.4856431 C121.552732,87.3839836 122.370338,88.2167037 122.760972,88.4808916 C123.325056,88.8615335 123.897592,89.2332986 124.455549,89.6242967 C125.066113,90.0514356 125.661887,90.4994982 126.242873,90.962144 C126.699211,91.3258779 127.043577,91.7039836 127.56731,91.8880697 C127.292873,92.0188955 127.075056,92.2619483 126.98231,92.5726333 C126.74569,93.3821049 126.289352,94.0689933 125.497099,94.4263867 C124.666817,94.7981519 123.730901,94.563553 122.856254,94.654645 C121.664704,94.7749033 120.625268,95.3415335 119.756958,96.1510051 C117.933718,97.8542771 117.01893,100.855663 114.46893,101.660696 C112.94569,102.140672 111.255549,101.83823 109.713296,101.620539 C107.991465,101.377486 106.314,101.185158 104.579493,101.438778 C102.91893,101.682042 101.349211,102.256704 99.8323099,102.958387 C98.4104789,103.615686 96.8386479,104.35985 95.5773803,105.340305 C95.3175211,104.539287 95.0555493,103.746723 94.8567465,102.928798 C94.3879437,100.995154 94.1344225,99.0251577 94.0729437,97.038465 C94.0161127,95.1470912 94.1217465,93.2470521 94.2842113,91.3637096 C94.3647042,90.4232008 94.4914648,89.486919 94.5717465,88.5464102 C94.592662,88.3096978 94.6351268,88.0560775 94.6668169,87.8026685 C96.9189296,86.4730638 99.2849155,85.4545667 101.670127,84.4062693 C101.676676,84.4041558 101.683014,84.3997174 101.689352,84.3978153 C101.763296,84.3637879 101.835127,84.3322967 101.90907,84.3005941 C101.906958,84.2961558 101.904845,84.2921401 101.90062,84.2877018 C102.173155,84.1209464 102.363296,83.8988172 102.47738,83.6494239 C105.914704,81.3689542 108.787944,78.2559757 110.930197,74.6247663 C111.828085,73.1030442 112.692169,71.5242575 113.866817,70.1908485 C115.117521,68.7682497 116.602732,67.9228485 118.440761,67.4832399 C120.589352,66.9677566 122.803437,66.6589738 125.004845,66.483553 C126.206958,66.3886568 127.550408,66.2405002 128.860479,66.2470521 C129.773155,66.2531812 130.666606,66.3313808 131.486535,66.5575256 C132.701324,66.8914591 133.411183,67.8152712 134.173859,68.7492282 C134.902732,69.6455648 135.62738,70.5438035 136.307662,71.4779718 C136.951817,72.3633182 137.560479,73.278465 138.088648,74.2379953 C138.405549,74.8128681 138.699211,75.4048603 138.946394,76.0154513 C139.033014,76.2312399 139.147099,76.4761949 139.199915,76.7002262 C139.252732,76.926371 139.155549,77.1654082 139.40907,77.1654082 C138.363296,77.1799914 138.373859,78.8517722 139.413296,78.7904806 C143.48231,78.5537683 137.653437,70.6072086 136.801817,69.4995217 C135.595479,67.9313025 134.351324,65.8854317 132.420338,65.1562732 C132.392873,65.1457057 132.363296,65.1353495 132.335831,65.1266841 C132.897803,64.5940814 133.341465,63.9560149 133.766113,63.3069581 C134.203437,62.6390912 134.725056,61.8740031 134.86893,61.0814395 C134.959775,60.5765237 134.33231,60.2888759 134.034423,60.730598 C133.601324,61.3752164 133.392169,62.1910286 133.06893,62.8992634 C132.739352,63.6176431 132.337944,64.2960775 132.021042,65.021009 C131.258366,64.7864102 130.434423,64.6788329 129.59569,64.6429033 C130.654141,63.2099483 132.46238,60.4452751 132.680197,60.0902067 C133.681606,58.4459014 134.634423,56.7510834 135.544986,55.0537292 C136.529282,53.2149816 137.372451,51.3001479 138.314704,49.4402654 C138.849211,48.3858387 139.387944,47.3225354 139.981606,46.2996 C140.186535,45.9487585 140.406254,45.597917 140.655549,45.2787781 C140.704141,45.2155843 140.765408,45.1627468 140.822451,45.1033573 C140.887944,45.0674278 140.955549,45.0272712 140.993577,45.0063476 C141.33562,44.8097918 141.456254,44.3532751 141.696887,44.0635139 C142.081606,43.5966411 142.533718,43.54169 143.112592,43.5351382 C144.346183,43.5224571 145.584423,43.5710677 146.816113,43.6048838 C148.626676,43.6556078 150.435127,43.7274669 152.243577,43.8225746 C152.790761,43.8521636 153.335831,43.8817526 153.883014,43.9155687 C156.513296,44.0721793 159.141465,44.2769777 161.763296,44.5286959 C164.083014,44.7504023 166.402732,45.1120227 168.724563,45.2853299 C165.580901,52.7565628 162.094986,60.0925315 158.148296,67.1727663 C158.108366,67.2444141 158.078577,67.3162732 158.059775,67.3881323 Z M140.617521,86.6358035 C140.110479,86.8685002 139.618225,87.1578387 139.159775,87.4877566 C139.235831,86.9741753 139.254845,86.4329072 139.233718,85.889737 C139.611887,86.2955295 140.09569,86.5280149 140.617521,86.6358035 Z M162.261887,73.7838035 C162.225972,73.7878192 162.192169,73.8068407 162.175268,73.8427703 C161.473859,75.2905198 161.76731,76.9073495 162.912592,78.0423006 C163.512592,78.6340814 164.820338,79.3019483 164.777873,80.2741597 C164.741958,81.0603828 163.886535,81.7197957 163.521042,82.3686411 C163.180901,82.9731029 163.054141,83.6367429 163.326676,84.2921401 C163.675268,85.1309894 164.649211,85.4649229 164.983014,86.2894004 C165.405549,87.335373 164.71893,88.5973456 164.237239,89.508054 C163.789352,90.3513417 163.210268,91.1946294 162.825972,92.0865276 C160.25062,93.4203593 157.94569,95.4662301 155.964,97.5438035 C153.794282,99.8158192 151.933014,102.489189 148.487239,102.421768 C148.142873,102.415216 147.880901,102.597189 147.724563,102.848485 C146.765408,102.892868 145.804141,102.91189 144.844986,102.916328 C143.15907,102.924571 141.473155,102.907663 139.789352,102.854825 C139.671042,102.446919 139.757662,101.893393 139.751113,101.54868 C139.730197,100.439091 139.719634,99.3316157 139.673155,98.2220266 C139.660479,97.9136665 139.647803,97.6027703 139.635127,97.2941988 C140.241465,98.3911068 141.424563,98.8898935 142.772451,98.8138074 C144.940056,98.6872086 147.120338,98.3319288 149.266606,98.0127898 C150.397099,97.8458231 151.525268,97.6556078 152.651324,97.4527115 C153.576676,97.2878583 154.88231,97.3303397 155.528789,96.5882888 C155.680901,96.415193 155.689352,96.0981675 155.45062,95.9817135 C154.810479,95.6668016 154.406958,95.8422223 153.703225,95.9776978 C152.84569,96.1444532 151.985831,96.3029659 151.123648,96.4511225 C149.469423,96.7383476 147.811183,97.0046489 146.148507,97.2392477 C145.202028,97.3723984 144.253437,97.5034356 143.304845,97.6069973 C142.476676,97.6957644 141.542873,97.8162341 140.875268,97.192962 C139.529493,95.9331029 140.283718,93.8217135 141.135127,92.5493847 C141.152028,92.5242341 141.152028,92.5007742 141.14569,92.4796391 C141.948507,92.2915374 142.749211,92.0717331 143.547803,91.9174474 C145.083718,91.6215569 146.630197,91.372375 148.178789,91.1504571 C151.360479,90.6958427 154.563296,90.3957252 157.761676,90.0937057 C158.55393,90.0174082 158.56238,88.7706528 157.761676,88.8446254 C153.166606,89.2652125 148.548507,89.6644532 144.014704,90.5502223 C142.878085,90.7698153 141.749704,91.0192086 140.628085,91.3003045 C140.097803,91.431553 139.529493,91.6365628 138.973859,91.6429033 C138.940056,91.6429033 138.906042,91.6429033 138.872451,91.6405785 C137.784423,91.6069738 137.625972,90.674919 138.223859,89.8992634 C138.297803,89.8039444 138.373859,89.7088368 138.452028,89.6181675 C139.508366,88.3583084 140.824352,87.5171342 142.18069,86.646371 C143.699915,86.4392477 145.214704,85.9785041 146.702028,85.6403436 C150.373859,84.8033965 154.04569,83.9664493 157.719634,83.1316157 C158.439845,82.9667624 158.133718,81.8592869 157.413296,82.0220266 C154.624563,82.6541753 151.835831,83.2859014 149.046887,83.9178387 L144.965408,84.8437644 C144.149915,85.0274278 143.131394,85.3972908 142.172239,85.5306528 C141.699211,85.5959601 141.240761,85.6044141 140.826676,85.5074043 C139.489352,85.1903789 139.421746,83.5183867 139.998507,82.5250403 C140.644986,81.4093221 141.866113,80.7116548 142.949915,80.0797174 C144.828085,78.9828094 146.826676,78.1944728 148.778789,77.2856665 C149.125268,77.2095804 149.471746,77.1334943 149.818225,77.0574082 C151.833718,76.6135726 154.136535,76.3958818 156.033718,75.5823945 C156.602028,75.3412438 156.291254,74.4451186 155.729493,74.4577996 C154.256958,74.4897135 152.716817,75.0136509 151.278085,75.3243358 C149.721042,75.6624963 148.161887,75.9985432 146.604845,76.3345902 C146.448507,76.3684063 145.523155,76.6642967 145.383718,76.5987781 C145.294986,76.556508 145.263296,76.2481479 145.233718,76.0450403 C145.138437,75.3771734 145.06893,74.6757018 145.172451,74.00551 C145.40062,72.5028094 146.653437,71.7968994 147.921042,71.2199131 C150.743577,69.9370168 153.838648,69.1340971 156.91893,68.8126333 C157.628789,68.7386607 158.338648,68.692375 159.052732,68.6689151 C159.891254,68.643553 160.58231,68.4956078 161.006958,69.3219875 C161.674563,70.6239053 162.042169,72.298011 162.261887,73.7838035 Z M158.342028,120.987623 C157.727028,118.859749 157.894352,116.587733 157.473085,114.417377 C157.25569,113.297643 156.958859,112.186786 156.634775,111.093682 C156.373225,110.210661 155.936958,109.27142 155.887521,108.349933 C155.884563,108.28843 155.957028,108.252923 156.006887,108.281244 C156.874563,108.77834 157.540901,109.853056 158.03569,110.696344 C158.628085,111.705541 159.080408,112.762293 159.445268,113.873361 C160.172451,116.086833 160.769493,118.756821 159.831676,120.987623 C159.552592,121.651686 158.57231,121.784625 158.342028,120.987623 Z M139.335127,92.8030051 C139.854845,92.7524924 140.374563,92.6529464 140.894282,92.5367037 C140.313296,93.1033339 139.776676,93.785784 139.478577,94.5426294 C139.43231,93.961416 139.372944,93.3821049 139.294986,92.8053299 C139.307662,92.8053299 139.322451,92.8053299 139.335127,92.8030051 Z M134.340338,137.095897 C133.423859,136.45614 132.756042,135.561706 131.978789,134.772312 C131.214423,133.996023 132.409352,132.800414 133.17393,133.576915 C133.837099,134.250066 134.412803,135.09124 135.193225,135.63589 C135.568859,135.897753 135.742732,136.371389 135.496606,136.79261 C135.279,137.164375 134.714915,137.357338 134.340338,137.095897 Z M129.229352,112.505925 C130.90238,111.782261 132.547732,110.994136 134.298718,110.472946 C135.345127,110.161205 135.788155,111.793463 134.748085,112.103091 C133.135479,112.58349 131.623014,113.299545 130.082451,113.965721 C129.093296,114.393494 128.233648,112.936445 129.229352,112.505925 Z M111.561042,111.99953 C111.151817,110.989698 112.787662,110.554528 113.190761,111.550199 C113.654915,112.69614 114.186887,113.812704 114.651042,114.958645 C115.059845,115.968477 113.424423,116.403858 113.021324,115.408187 C112.557169,114.262246 112.024986,113.145682 111.561042,111.99953 Z M94.1219577,132.166363 C93.8494225,132.529886 93.3949859,132.726864 92.9656901,132.469862 C92.6061127,132.254285 92.3866056,131.681103 92.6625211,131.313142 C93.4680845,130.23906 94.2842113,129.17787 95.2283662,128.220242 C95.9937887,127.443952 97.1882958,128.640406 96.423507,129.41585 C95.580338,130.270974 94.8415352,131.207044 94.1219577,132.166363 Z M91.6283662,19.0113182 C92.4041408,19.5413847 93.0837887,20.1853691 93.7465352,20.8479523 C94.5170282,21.6183241 93.3216761,22.8137213 92.5511831,22.0433495 C91.9928028,21.484962 91.4295634,20.9181205 90.7752676,20.471326 C90.3973099,20.213056 90.227662,19.7326568 90.4720986,19.3146059 C90.6911831,18.9400932 91.2512535,18.7538935 91.6283662,19.0113182 Z M116.999704,46.2199209 C116.561113,47.0985041 116.166254,47.9597566 116.141324,48.9583867 C116.114704,50.0462067 114.424563,50.0468407 114.451394,48.9583867 C114.483718,47.6516078 114.965408,46.5183476 115.540268,45.3664885 C116.026606,44.3915295 117.48393,45.2489777 116.999704,46.2199209 Z M126.308577,24.36778 C127.217239,23.7618387 128.062521,25.2271303 127.161887,25.8277879 C126.431746,26.3145276 125.701394,26.80169 124.971254,27.2886411 C124.063014,27.894371 123.217732,26.4292908 124.118155,25.8286333 C124.848296,25.3416822 125.578437,24.8547311 126.308577,24.36778 Z M85.932169,62.5742067 C85.7770986,63.6487115 84.1486479,63.1890247 84.3022394,62.1248759 C84.5399155,60.4801479 84.8299859,58.857189 85.2759718,57.2551538 C85.5679437,56.2068564 87.1978732,56.654919 86.9056901,57.7046959 C86.4597042,59.3067311 86.1696338,60.92969 85.932169,62.5742067 Z M80.0063239,81.9423476 C78.918507,81.9193104 78.9182958,80.228508 80.0063239,80.2515452 C80.990831,80.2724689 81.9586479,80.5315843 82.9082958,80.7687194 C83.9646338,81.0326959 83.5142113,82.6628407 82.4589296,82.3990755 C81.6561127,82.1985041 80.8387183,81.960101 80.0063239,81.9423476 Z M77.8188592,120.957612 C77.4451268,121.139584 77.0616761,121.303381 76.6839296,121.476265 C75.9273803,121.822246 75.1712535,122.168649 74.415338,122.515897 C72.8405493,123.239138 71.2666056,123.964704 69.6941408,124.692805 C66.5462535,126.150488 63.3740704,127.556813 60.2185775,128.998645 C57.0007606,130.46922 53.7913944,131.95924 50.5860423,133.456868 C49.0759014,134.162144 47.5543521,134.841635 46.0357606,135.528524 C44.7373099,136.115866 43.1323099,137.142183 41.7068873,137.23877 C41.6335775,137.243843 41.6090704,137.15106 41.6509014,137.103506 C42.1894225,136.490802 43.0484366,136.134465 43.7561831,135.736281 C44.4791408,135.32922 45.2156197,134.946465 45.9487183,134.558214 C47.4770282,133.748109 49.0072394,132.944555 50.550338,132.162982 C53.6369577,130.600469 56.729493,129.049158 59.822662,127.499749 C62.9773099,125.919483 66.1279437,124.328649 69.3102676,122.804602 C70.8085775,122.086856 72.3083662,121.371436 73.809,120.658128 C74.6219577,120.27178 75.435338,119.886066 76.2487183,119.500986 C76.6000563,119.334653 76.9478028,119.155216 77.3069577,119.006426 C77.7842113,118.808813 78.1469577,118.849181 78.6392113,118.727443 C79.4420282,118.529197 79.7895634,119.550441 79.1732958,119.995123 C78.665831,120.361393 78.3987887,120.674614 77.8188592,120.957612 Z M66.5356901,138.294888 C66.3622394,137.873244 66.7254085,137.360508 67.1259718,137.254833 C67.6057606,137.128445 67.9904789,137.420109 68.1656197,137.845346 C68.6289296,138.972899 69.2889296,140.007459 70.1384366,140.881181 C70.8977324,141.661909 69.7032254,142.857941 68.9432958,142.07679 C67.8787183,140.981573 67.1139296,139.701635 66.5356901,138.294888 Z M58.2347746,111.155185 C57.4642817,110.384602 58.6596338,109.189205 59.4299155,109.959788 L61.620338,112.150856 C62.390831,112.921651 61.1952676,114.117048 60.4251972,113.346465 L58.2347746,111.155185 Z M35.7622394,107.582731 C34.1874507,108.044743 32.3506901,108.469557 31.2770282,109.813533 C31.2246338,109.879263 31.1365352,109.794935 31.1680141,109.729416 C32.5425211,106.878723 36.4843521,105.878825 39.213507,104.880195 C41.1438592,104.173651 43.124493,103.587788 45.1218169,103.064485 C44.922169,100.785072 45.4727324,98.3420736 45.6641408,96.0738622 C45.8684366,93.6522106 46.0347042,91.2242184 46.1200563,88.7949581 C46.2073099,86.3168759 46.2284366,83.8220971 46.1468873,81.3433808 C46.0657606,78.8737526 45.7452676,76.4343476 45.6049859,73.972962 C45.5914648,73.7349816 45.9227324,73.7235687 45.9941408,73.9203358 C46.8235775,76.2043984 47.1778732,78.7344728 47.4478732,81.1428094 C47.7259014,83.6238505 47.8182254,86.0977057 47.7827324,88.5931186 C47.7459718,91.1589112 47.5968169,93.7185746 47.3920986,96.2761245 C47.2951268,97.4884297 47.1825211,98.6990442 47.0762535,99.9105041 C46.9951268,100.83495 46.9575211,101.751999 46.7690704,102.647068 C47.9737183,102.351389 49.1811127,102.071561 50.3847042,101.799553 C54.2225915,100.933228 58.0765352,100.129252 61.8983662,99.1923358 C63.7744225,98.7326489 65.6236479,98.1818701 67.4912535,97.6928055 C69.2498451,97.2322732 71.1060423,96.6738857 72.9115352,96.4684532 C73.5559014,96.3949033 73.6378732,97.2766568 73.2113239,97.5759288 C71.7438592,98.6066841 69.7949155,99.3244297 68.0999155,99.901416 C66.3987887,100.480305 64.6304789,100.896876 62.8868873,101.325706 C59.2507606,102.220351 55.5801972,102.951835 51.9151268,103.713753 C48.2551268,104.474825 44.5881549,105.230191 40.9693521,106.16922 C39.2266056,106.62151 37.4897746,107.07549 35.7622394,107.582731 Z M27.1325915,62.3489072 C26.1916056,62.9015883 25.3420986,61.4396783 26.2797042,60.8888994 C27.5065352,60.1686176 28.8140704,59.6273495 30.132169,59.0993965 C31.1437183,58.6944493 31.5789296,60.3303006 30.5815352,60.729964 C29.3969577,61.2042341 28.2349859,61.7017526 27.1325915,62.3489072 Z M23.7252676,125.165385 C22.7817465,125.712782 21.9316056,124.251083 22.8723803,123.705588 C24.1936479,122.939443 25.6406197,122.428187 27.0098451,121.757784 C27.984,121.280555 28.8396338,122.739506 27.8627324,123.217792 C26.4937183,123.888195 25.0465352,124.39924 23.7252676,125.165385 Z M22.1927324,89.5078427 C23.1049859,90.3748016 24.3225211,90.782919 25.4705493,91.2383789 C26.4715352,91.6350834 26.0325211,93.2696665 25.0211831,92.868735 C23.5909014,92.3012595 22.134,91.7832399 20.9975915,90.7032399 C20.2070282,89.952101 21.4042817,88.7586059 22.1927324,89.5078427 Z M32.2851972,41.0822067 C33.2880845,41.4757409 32.8488592,43.1103241 31.835831,42.7127742 C30.7123099,42.2718975 29.5520282,41.9362732 28.428507,41.4953965 C27.425831,41.1018622 27.8648451,39.4674904 28.8778732,39.864829 C30.0013944,40.3057057 31.1616761,40.6413299 32.2851972,41.0822067 Z M50.0893521,21.8476391 C51.1549859,21.6679914 51.6087887,23.2975022 50.5387183,23.4782067 C49.2111127,23.7024493 47.9037887,23.964735 46.6446338,24.4521088 C45.6278028,24.8456431 45.1915352,23.2102145 46.1952676,22.8217526 C47.4546338,22.3343789 48.7619577,22.0718818 50.0893521,21.8476391 Z M55.9720986,68.6792712 C54.9949859,68.1986607 55.8523099,66.741189 56.8249859,67.2194748 C57.8500563,67.7235452 58.9120986,68.1132751 60.0305493,68.3514669 C61.0955493,68.5784571 60.6419577,70.2081793 59.5811831,69.9820344 C58.3224507,69.7136196 57.1247746,69.2463241 55.9720986,68.6792712 Z M61.5282254,42.2995843 C62.580338,42.0113025 63.0252676,43.6427155 61.9775915,43.9301519 C60.1342817,44.4352791 58.2364648,44.6979875 56.3796338,45.1475295 C55.3213944,45.4036861 54.8737183,43.7729072 55.9302676,43.5171734 C57.7870986,43.06742 59.6851268,42.8051342 61.5282254,42.2995843 Z M85.098507,34.021416 C86.1683662,34.2194513 85.7124507,35.8487507 84.6493521,35.6519836 C83.5175915,35.4425354 82.3706197,35.4391538 81.2232254,35.4385198 C80.1339296,35.4380971 80.135831,33.7472947 81.2232254,33.7477173 C82.5267465,33.7483515 83.8135775,33.783647 85.098507,34.021416 Z M161.970338,42.8548016 C159.20907,42.5906137 156.443577,42.3792634 153.673859,42.2207507 C153.544775,42.2141988 153.418225,42.2059562 153.289141,42.1994043 C153.274563,42.1700266 153.255549,42.1423397 153.236324,42.1127507 C152.33231,40.7854708 151.666817,39.4584023 151.090056,37.9576039 C150.538648,36.5288759 150.004141,35.0559757 149.154845,33.7667389 C148.186183,32.2978544 146.878437,31.1485315 145.445197,30.1524376 C144.575831,30.7372438 143.769,31.4220188 143.030831,32.1477957 C142.254,32.9114043 141.058648,31.716007 141.83569,30.9521871 C142.491676,30.307146 143.191817,29.7113495 143.931887,29.1730403 C143.07731,28.6535413 142.205408,28.1653221 141.354845,27.6796391 C138.166606,25.8601245 134.902732,24.1775648 131.571042,22.639146 C130.022451,21.9224571 128.454845,21.2862928 126.876676,20.6416744 C126.027169,20.2952712 125.188648,19.8491108 124.339352,19.4477566 C124.40062,18.8473104 124.221042,18.1752164 123.760479,17.7799914 C123.420338,17.4904415 123.156254,17.3826528 122.75062,17.1778544 C122.659775,17.1459405 122.604845,17.126919 122.579493,17.1163515 C122.598507,17.1205785 122.653437,17.1374865 122.74407,17.1670755 C122.959775,17.2666215 122.976676,17.2368211 122.794986,17.0804219 C122.784423,16.7382458 122.110268,16.0154278 121.956254,15.6624728 C121.419634,14.4512243 121.252732,13.1704415 120.460479,12.067193 C119.368225,10.5475843 117.534423,9.9729229 115.825056,10.4884063 C115.647803,8.66022622 115.601324,6.75194442 114.912592,5.12010881 C114.893577,5.07593659 114.83231,5.05670372 114.804845,5.10531429 C114.086535,6.32924384 114.025268,7.69224188 113.970338,9.10406184 C113.917521,10.4292282 113.968014,11.7839836 114.141465,13.1006959 C114.031606,13.185236 113.919634,13.2657605 113.803437,13.3437487 C113.258366,13.7030442 112.671042,13.9799131 112.054141,14.1851342 C110.879493,14.5738074 109.647803,14.7428877 108.416113,14.8020658 C105.236535,14.954238 101.959775,14.6329855 98.8330141,14.0877018 C95.670338,13.5360775 90.8217465,12.7075843 88.007662,11.1245706 C86.1504085,10.0807115 84.4372394,8.80605793 82.7004085,7.57177221 C83.3301972,5.54280939 83.4907606,3.36167436 82.8569577,1.64762348 C82.7809014,1.4426137 82.4597746,1.40457065 82.398507,1.64762348 C82.0013239,3.28347476 81.8851268,4.92778004 81.3569577,6.54460978 C81.348507,6.56785832 81.3400563,6.5934317 81.3316056,6.61646888 C81.1668169,6.50466458 81.0020282,6.39455108 80.8372394,6.28464892 C80.4569577,6.03314207 79.9393521,6.22145519 79.7111831,6.58053933 C76.0623803,12.3313808 70.2844225,12.6610873 64.2168169,13.6884611 C57.5764648,14.8126333 50.9027324,16.025784 44.5182254,18.2259405 C38.4125915,20.3312008 32.5773803,23.39578 27.9548451,27.9736274 C26.9084366,29.0100892 25.9298451,30.1143945 25.0061831,31.2673104 C25.8998451,31.3799601 26.7861127,31.5553808 27.6609718,31.8303476 C28.6968169,32.155827 28.2516761,33.7876626 27.2116056,33.4607037 C26.0872394,33.107326 24.9504085,32.9325393 23.8019577,32.845463 C20.6610423,37.1439053 18.2120282,42.0178544 16.0942817,46.8152947 C12.0322394,56.0134708 9.38822535,65.8091342 8.17153521,75.7821205 C8.83956338,75.3816117 9.5196338,75.0001245 10.2166056,74.6452673 C11.1850563,74.1526098 12.0392113,75.6117722 11.0697042,76.1052751 C9.99308451,76.6530951 8.94730986,77.2569229 7.93407042,77.9116861 C7.49146479,82.2771264 7.31991549,86.6706763 7.42385915,91.0572517 C7.67104225,101.514864 9.08230986,112.278935 12.2745634,122.256782 C13.8400563,127.153768 15.9147042,132.010809 19.0055493,136.149048 C20.4041408,138.023514 21.9928732,139.714316 23.8647042,141.124023 C24.7710423,141.808798 25.7301972,142.419811 26.742169,142.935295 C28.0456901,143.603162 29.7442817,143.822966 30.8682254,144.767702 C31.2379437,145.078598 31.5231549,145.488406 31.7386479,145.951263 C31.614,146.830481 31.5992113,147.711811 31.8400563,148.591029 C31.9161127,148.865995 32.1231549,149.089815 32.3787887,149.197604 C32.3830141,149.27369 32.3830141,149.347663 32.3830141,149.419522 C32.3830141,149.453338 32.4337183,149.461792 32.4400563,149.428187 C32.4506197,149.362457 32.4611831,149.296939 32.4717465,149.229518 C32.5541408,149.256782 32.6407606,149.269674 32.729493,149.269674 C35.9386479,149.281721 39.1518169,149.203522 42.3651972,149.094465 C42.1167465,148.33297 41.8475915,147.578027 41.5892113,146.816532 C41.2382958,145.782183 42.8711831,145.342363 43.2189296,146.367201 C43.5212535,147.257408 43.8373099,148.139796 44.118507,149.033173 C47.5615352,148.905095 51.003507,148.751232 54.4393521,148.637737 C61.7470986,148.394473 69.0527324,148.31416 76.3623803,148.160085 C87.714,147.919357 99.1482254,147.426488 110.51738,147.908578 C110.910549,147.073745 111.35062,146.258144 111.767873,145.434723 C112.260127,144.462935 113.717873,145.319537 113.22731,146.288156 C112.937239,146.860281 112.636817,147.42522 112.351394,147.996289 C114.654,148.115913 116.954282,148.274003 119.249704,148.489792 C123.166606,148.85733 127.04569,149.510402 130.958366,149.916406 C134.936324,150.330441 138.828085,150.25668 142.774563,149.599381 C143.484423,149.481025 143.902732,149.051772 144.075972,148.519169 C144.082099,148.517056 144.086535,148.51304 144.090549,148.506488 C144.293366,148.269776 144.483718,148.073432 144.679986,147.902027 C144.914704,147.750066 145.168225,147.620931 145.466113,147.506802 C146.021746,147.295451 146.60062,147.166528 147.187944,147.079874 C147.834423,146.982864 148.489352,146.974199 149.135831,146.894097 C149.68069,146.824351 150.213296,146.720578 150.745479,146.59398 C151.702732,146.365721 152.611183,146.067717 153.515408,145.672281 C154.303437,145.327991 155.015197,144.833432 155.687239,144.294277 C157.07738,143.277682 158.281394,141.980203 159.333718,140.631577 C159.946394,139.84324 160.523155,139.025314 161.047099,138.173784 C161.959775,136.698348 162.737239,135.166058 163.523155,133.621087 C163.808366,133.163303 164.068648,132.694528 164.306535,132.215819 C162.77062,131.763107 161.219915,131.394089 159.591676,131.367882 C158.503225,131.35034 158.503437,129.659537 159.591676,129.677079 C161.45907,129.70688 163.225479,130.143318 164.980479,130.66324 C165.066042,130.436038 165.148014,130.207146 165.223859,129.975295 C165.433014,129.491514 165.606254,128.994629 165.749915,128.491616 C165.834211,128.263357 165.91893,128.035099 166.003437,127.806841 C166.193577,127.016391 166.383718,126.223827 166.575972,125.431263 C166.958366,124.163162 167.260268,122.876038 167.48231,121.572007 C167.668225,120.713925 167.811887,119.849502 167.90907,118.974512 C168.204845,116.854668 168.44569,114.739052 168.462592,112.59596 C168.437239,111.275021 168.352732,109.956195 168.20907,108.64371 C168.147803,107.751811 168.044282,106.86414 167.904845,105.982809 C167.723155,104.672438 167.543577,103.374958 167.241465,102.081283 C167.015408,101.206504 166.789352,100.331303 166.563296,99.4563123 C165.999211,97.6325706 165.333718,95.8443358 164.566606,94.0964689 C164.524563,93.9867781 164.310972,93.7456274 164.18231,93.7435139 C164.085127,93.7414004 163.949704,93.8301675 163.99407,93.948735 C163.998507,93.9590912 164.002521,93.9717722 164.006958,93.9823397 C163.962592,93.8830051 163.920338,93.7815569 163.875972,93.6822223 C163.837944,93.5892282 163.690056,93.4034513 163.575972,93.4055648 C163.569634,93.4055648 163.563085,93.4055648 163.554845,93.4074669 C163.584423,93.3865432 163.611887,93.3588564 163.639352,93.3273652 C164.397803,92.4291264 164.890056,91.2474669 165.433014,90.2076235 C165.883014,89.3495413 166.307662,88.444962 166.430197,87.4748642 C166.537732,86.6233339 166.392169,85.7840618 165.857662,85.0950599 C165.249211,84.3109503 164.104141,83.9432008 164.740056,82.8103632 C165.462592,81.5211264 166.525268,80.4030834 165.466817,78.9384258 C164.928085,78.1923593 164.074563,77.7825511 163.440761,77.1334943 C162.711887,76.3832008 162.365197,75.3792869 162.384423,74.354238 C162.428789,74.3796 162.487944,74.3671303 162.50907,74.3035139 C163.121746,72.4520853 162.678085,70.4191068 162.05062,68.6160775 C161.708366,67.637737 160.983507,67.3691108 160.140761,67.3207115 C163.791254,60.1876391 167.207451,52.9402262 170.252028,45.5260579 C170.353437,45.2830051 170.452732,45.0401636 170.551817,44.7968994 C170.699915,44.4333769 170.387239,43.9495961 170.025972,43.8690716 C167.393577,43.2920853 164.651324,43.1082106 161.970338,42.8548016 Z" id="ðŸ–-Ink" fill="#000000"></path>
                    </g>
                    <g id="head/Medium-1" transform="translate(78.591549, 38.043053)" fill-rule="evenodd">
                        <path d="M41.2807516,17.4727681 C73.302566,15.8974193 75.5390849,25.2080901 79.9363235,31.1439108 C82.1185239,34.0896574 87.752586,38.4522883 88.6872626,48.5264802 C89.3360741,55.5195428 85.2059658,63.5798475 85.2059658,69.8287286 C85.2059658,73.0183935 89.1097978,79.8662272 87.2924216,84.5151557 C83.2473506,94.8626259 74.6825522,106.346395 63.7684029,106.346395 C52.8542535,106.346395 32.7073806,100.328897 20.6477187,83.0548573 C16.6976066,77.3967887 9.25893721,19.0481169 41.2807516,17.4727681 Z" id="ðŸŽ¨-Background" fill="#FFFFFF"></path>
                        <path d="M87.8892975,70.4526338 C87.1900017,69.6812053 86.647044,69.0471544 86.4653538,67.9861759 C86.3892975,67.5442424 86.3554947,67.0900507 86.3407059,66.633534 C89.1484524,62.7066456 91.8780299,53.4311152 91.8780299,48.3578628 C91.8780299,41.2004851 89.2392975,34.3138471 84.9083116,28.6179567 C76.466058,17.5239685 62.4125369,11.8365321 48.6590158,12.2826925 C35.4885933,12.7072953 21.4798609,17.564125 13.2640862,27.9460742 C-13.9945053,62.3908882 8.88324115,100.014622 25.6392975,107.842403 C27.097889,108.523796 31.8087341,108.287084 31.1523257,106.831937 C29.2669735,102.65164 27.781551,94.9523599 27.4350721,93.2190761 C27.9716919,93.5806965 28.5125369,93.9336514 29.0554947,94.2992875 C30.0167623,94.9436945 31.3054947,95.681307 32.5139454,95.4678432 C32.5709876,95.4574871 32.6069031,95.3961955 32.6090158,95.3433579 C32.6639454,94.2081955 31.8526778,93.0415419 31.1385933,92.2320702 C30.1477482,91.1076867 29.2054947,89.9558276 28.1385933,88.9011896 C27.6843679,88.4510135 27.2238045,88.0050644 26.7632411,87.5591152 C26.7040862,84.8834205 26.8836637,82.1952561 27.3632411,79.5047669 C28.1935228,74.8402659 29.6259172,70.2962346 31.2716919,65.8240624 C32.647044,64.8093696 33.9822552,63.742262 35.2181707,62.575397 C38.1949313,59.7665516 40.466058,56.3302072 42.4139454,52.7161172 C42.4371848,52.7053383 42.4625369,52.6926573 42.4857764,52.6823012 C46.2611285,50.9257689 50.0047904,49.1020272 53.7188749,47.2210096 C55.6350721,46.2507004 57.5385933,45.257354 59.4421144,44.264219 C60.4773257,43.7229509 61.5442271,43.2305047 62.6026778,42.7211505 C62.3174665,44.1836945 61.9329595,45.6251035 61.466058,47.043264 C61.081551,48.2080154 62.2561989,49.0679998 63.2956355,48.875671 C66.8343679,48.2206965 70.2547904,46.9039841 73.3329595,45.0398745 C74.8583116,44.1162738 76.30972,43.0489548 77.6554947,41.8778628 C79.0012693,43.8835771 80.6364806,45.7645947 82.2864806,47.3837493 C83.3998609,48.4764303 84.5639454,49.5160624 85.7723961,50.5011661 C85.225213,54.2695419 84.7561989,58.0461603 84.1625369,61.8062933 C83.8519735,63.7718511 83.4780299,65.7371974 83.2435228,67.7133227 C82.987889,69.8669822 83.6998609,71.4013853 85.1174665,72.975945 C87.0991566,75.1763129 87.097044,78.359037 86.3385933,81.0920076 C86.2456355,81.4299567 86.1294383,81.7598745 86.0090158,82.0872561 C85.9836637,82.1548882 85.90972,82.338763 85.8822552,82.4108334 C85.8822552,82.4129469 85.8822552,82.4150605 85.8801426,82.4190761 C85.8801426,82.4211896 85.8780299,82.4235145 85.8780299,82.4254166 C85.8759172,82.4254166 85.8759172,82.4275301 85.8738045,82.429855 L85.8738045,82.4338706 L85.8738045,82.4359841 L85.8716919,82.4380976 C85.7829595,82.6452209 85.687889,82.8481172 85.5928186,83.0510135 C85.15972,83.9661603 84.6759172,84.8603833 84.1731003,85.7396006 C81.7012693,90.0805242 78.5787341,94.0517963 75.0209876,97.5559841 C73.3646496,99.1876084 71.6428186,100.705315 69.697044,101.948055 C69.2871848,102.208015 68.8688749,102.459311 68.4400017,102.689683 C68.20972,102.814379 67.9731003,102.930833 67.7364806,103.048978 C67.3900017,103.220172 67.5336637,103.15254 67.3223961,103.23708 C66.9400017,103.38735 66.5491566,103.518176 66.1498609,103.621738 C65.9364806,103.676689 65.7209876,103.723397 65.503382,103.763342 C65.5012693,103.763342 65.497044,103.765456 65.4907059,103.765456 C65.4885933,103.765456 65.4864806,103.767569 65.4843679,103.765456 C65.4822552,103.767569 65.4780299,103.767569 65.4738045,103.767569 C65.3935228,103.77391 65.2498609,103.786591 65.2223961,103.786591 C62.1885933,103.79737 59.1801426,103.389464 56.2435228,102.634943 C54.6526778,102.224923 53.0639454,101.728039 51.5681707,101.045589 C50.8076073,100.696861 50.0639454,100.31009 49.3519735,99.8723833 C49.0329595,99.6760389 48.7308468,99.4391152 48.3949313,99.2681329 C47.8921144,99.0100742 47.3998609,99.037761 46.8569031,99.0145125 C46.0287341,98.9804851 45.4414102,99.8472327 45.6442271,100.608094 C45.8914102,101.53571 46.2801426,102.083107 47.0787341,102.634943 C47.7167623,103.074552 48.3928186,103.463225 49.081551,103.81618 C50.581551,104.58782 52.1681707,105.215319 53.7738045,105.7289 C56.7801426,106.68843 59.9449313,107.278098 63.0928186,107.493886 C65.3850721,107.650286 67.3709876,107.343616 69.4583116,106.377745 C71.6618327,105.356923 73.6371848,103.833088 75.4646496,102.252188 C79.5569031,98.7141837 83.1167623,94.4216593 86.1357764,89.9431466 C88.9731003,85.7330487 91.1745088,81.1488608 90.4498609,75.9221681 C90.1604242,73.8255732 89.3069031,72.020853 87.8892975,70.4526338" id="ðŸ–-Ink" fill="#000000"></path>
                    </g>
                    <g id="face/Smiling" transform="translate(112.183099, 77.354207)" fill="#000000" fill-rule="evenodd">
                        <path d="M30.968993,50.9198978 C29.548794,50.3403012 28.2816173,49.3734958 27.3551889,48.1384646 C27.0331038,47.7091169 26.9495926,47.2557326 27.017159,46.8410547 C27.0931327,46.3747786 27.3688808,45.9521824 27.7449394,45.6687178 C28.1221628,45.3843752 28.5940214,45.2441445 29.0502103,45.3156301 C29.4466117,45.3777469 29.8412104,45.5948709 30.1535058,46.0451781 L30.2187521,46.1352289 C30.7695298,46.8806513 31.4872438,47.4922614 32.3050288,47.8864795 C33.0932406,48.2664417 33.9747757,48.4437847 34.8870208,48.3406561 C36.6244504,48.1443157 37.8219743,47.2043274 39.0948115,45.9278391 C39.2525834,45.7666792 39.4104563,45.6004672 39.5690946,45.4315797 C39.6692778,45.278484 39.8083069,45.1800892 39.962667,45.1284632 C40.1340565,45.0711416 40.327938,45.0743848 40.5055187,45.1363808 C40.6767961,45.1961763 40.8299095,45.309486 40.9325762,45.4602937 C41.0301525,45.6036243 41.0854754,45.7806897 41.0675245,45.9843589 C40.9510195,47.3072301 40.2596776,48.4878363 39.2776553,49.4148615 C38.1869942,50.4444414 36.7412431,51.1567117 35.3801317,51.4065272 C33.8805866,51.6817086 32.3525901,51.4845569 30.968993,50.9198978 L30.968993,50.9198978 Z M36.0875289,30.5120405 C37.6828906,31.482148 40.1137318,33.7442494 38.3974899,36.149264 C36.3773089,38.2698449 33.4687045,35.8384541 32.0353946,34.7388307 C30.7063626,33.8866164 29.2131206,36.0784478 30.4461973,37.0735516 C40.8033244,44.7445605 45.006466,30.7657101 36.8944406,29.3714319 C36.0012775,29.2177885 35.6695544,30.2119271 36.0875289,30.5120405 Z M17.5274577,21.5886716 C17.7037243,19.3998697 21.0359789,18.9028321 21.3674577,21.0687499 C21.6642887,23.0089456 21.3148521,24.7912626 20.4412606,26.5380728 C19.6065423,28.2068947 17.5085456,27.4283107 17.3498837,25.9087021 C17.1372039,23.8717299 17.4178099,22.9502317 17.5274577,21.5886716 Z M42.8930282,20.6196517 C43.3576056,20.0109628 44.0283803,19.5954481 44.8320423,19.8302583 C47.3429577,20.5642779 46.6028873,24.1303914 45.7210563,25.8662114 C45.2419014,26.8088337 43.6930986,27.0478708 42.993169,26.2178982 C41.8523239,24.864411 41.3059859,22.1614521 42.756338,20.8282544 C42.7956338,20.7593542 42.8393662,20.68982 42.8930282,20.6196517 Z M20.4058944,12.0111429 L20.802522,11.9416942 C22.0295218,11.7294045 23.5551549,11.5254176 24.4231479,12.5122544 C24.8835,13.0355577 25.0419507,14.0081918 24.4231479,14.509092 C23.3346972,15.3904227 22.1313169,15.0488806 20.8269507,15.1234873 C19.7520211,15.1852016 18.7189225,15.3631585 17.6835,15.6592603 C15.4119507,16.3087397 13.5610352,17.4944149 11.6209648,18.7963327 C11.3663873,18.9671037 11.1065282,18.6414129 11.228007,18.4032211 C12.3479366,16.208771 14.5182887,14.4061644 16.6922324,13.3073542 C17.8525141,12.7208571 19.1222324,12.2343288 20.4058944,12.0111429 Z M40.6041287,11.0281289 L40.9077055,11.0902829 C44.2113469,11.7811043 48.5035506,13.1610768 50.0679842,16.4073021 C50.1275964,16.8663298 50.0646105,16.9647086 50.0133917,17.0289838 L49.9963385,17.0503723 C49.9541341,17.1052595 49.9204583,17.1809212 49.7215736,17.2433957 C49.6663832,17.2302408 49.6106433,17.216308 49.5543131,17.2015401 C48.8372041,17.0135386 48.2698321,16.7545401 47.720556,16.4857982 L47.1250012,16.192275 C46.4340388,15.8533498 45.7369757,15.5267598 44.9982488,15.2856588 C43.4217423,14.7712438 41.8001698,14.4088706 40.1534741,14.2153715 C39.7965654,14.1734678 39.4528848,14.0529641 39.1817455,13.8464404 C38.92438,13.6504079 38.7277692,13.3789964 38.6381257,13.0182314 C38.5219478,12.5513438 38.5553348,12.1978716 38.8057421,11.7766707 C38.9940329,11.4603578 39.263447,11.2411116 39.5728025,11.115213 C39.888177,10.9868648 40.2472278,10.9566068 40.6041287,11.0281289 Z" id="ðŸ–-Ink"></path>
                    </g>
                    <g id="facial-hair/*-None" transform="translate(104.577451, 109.479380)"></g>
                    <g id="accessories/*-None" transform="translate(88.521127, 88.978474)"></g>
                </g>
            </g>
        </g>
    </g>
</svg>