<?xml version="1.0" encoding="UTF-8"?>
<svg width="240px" height="324px" viewBox="0 0 240 324" version="1.1" xmlns="http://www.w3.org/2000/svg" xmlns:xlink="http://www.w3.org/1999/xlink">
    <!-- Generator: Sketch 62 (91390) - https://sketch.com -->
    <title>peep-68</title>
    <desc>Created with Sketch.</desc>
    <g id="Introduction" stroke="none" stroke-width="1" fill="none" fill-rule="evenodd">
        <g id="variations" transform="translate(-2286.000000, -1406.000000)">
            <g id="images" transform="translate(126.000000, 110.000000)">
                <g id="a-person/bust" transform="translate(2160.000000, 1296.000000)">
                    <g id="body/Whatever" transform="translate(31.056338, 135.052838)" fill-rule="evenodd">
                        <path d="M214.857423,59.8874148 C217.021437,58.7574195 219.134324,57.5296423 221.213831,56.2517043 C222.678549,55.3752648 221.381789,53.1675516 219.879887,53.9652576 C219.11193,54.3733173 218.34693,54.7853984 217.579183,55.1909183 C218.183408,54.6702612 218.743479,54.1034645 219.245662,53.4856604 L219.211014,53.4511616 C221.14707,51.7158495 218.660239,48.4416359 216.458408,49.8670935 C214.516648,51.2751958 212.557141,52.7118708 210.328268,53.6391061 C205.711648,55.5974965 200.619465,55.9215315 195.664394,55.9780418 C193.851085,55.8417397 192.119113,56.1560388 190.359676,56.5063183 C191.049465,53.7379463 192.775732,51.6474868 193.691366,48.9663144 C194.367,46.2593207 190.461085,44.4154326 189.076859,47.0174482 C188.737141,47.6564173 188.413268,48.302794 188.096577,48.9523455 C185.104606,51.6747896 180.108549,51.434991 177.091014,54.3580786 C175.372256,55.8841834 174.531021,57.9549368 174.198825,60.0331862 C173.97324,61.4444635 174.323926,62.8591975 173.470944,64.109182 C169.347211,69.9441398 162.831352,79.1669667 159.522267,85.5884045 C157.179309,70.3293414 150.923408,51.4557326 144.460521,37.5031802 C142.323338,33.0409795 139.878338,28.6807936 136.668761,24.8984102 C137.032563,23.6369807 135.748479,21.3979435 134.93193,22.0872851 C132.418479,19.0156197 127.975521,18.2204536 124.402986,16.6934043 C119.58038,14.6304593 115.579183,10.3424458 113.612282,5.46879891 C111.085099,-3.81201996 104.863901,-4.99090619 96.2359437,-4.58072997 C87.9787606,-4.59110079 81.8695352,-1.05804014 80.0678451,7.3507839 C76.4076338,13.7330665 67.7655211,12.6775718 61.5481268,14.3671676 C56.991507,15.4084819 52.5694648,17.0184976 48.3669296,19.0623942 C43.6917887,14.6260146 26.9477746,33.2447977 25.4258028,38.0365363 C26.3217887,38.2103003 27.2122817,38.4194098 28.0947465,38.6742355 C28.880662,38.9015467 28.550662,40.0891106 27.7579859,39.8990496 C26.7715775,39.6620024 25.778831,39.4988209 24.7814366,39.3855885 C24.7510141,39.4810423 24.7243944,39.5758612 24.7045352,39.6696218 C24.5925634,39.6620024 24.4808028,39.6524782 24.368831,39.6448588 C24.6170704,39.7741765 24.8560141,39.9242358 25.088831,40.1176832 C25.6516479,40.5852164 24.9189718,41.4874771 24.3208732,41.1149744 C23.7574225,40.6931575 23.0194648,40.759827 22.3436197,40.6182337 C22.3034789,42.0085575 17.3443944,40.4531473 16.5741127,39.9923869 C13.1505211,39.5640088 9.62847887,40.023711 6.43242254,38.3720003 C2.1798169,37.4760891 -2.10469014,36.4853591 -6.3095493,35.3443581 C-7.42271831,35.7784506 -8.46891549,37.331956 -7.58476056,38.4718988 C-7.08743662,38.9906511 -7.72673239,39.8376713 -8.35292958,39.4689783 C-10.4531408,38.2323119 -12.0773662,36.3018592 -13.4544085,34.2221938 C-14.1025775,33.5679861 -15.2531408,33.7087328 -16.1239859,33.4371868 C-16.2403944,33.6465079 -16.3090563,33.8797454 -16.308,34.118909 C-20.0020141,34.7271889 -17.3668732,38.7633398 -15.509831,40.0209595 C-16.4949718,40.66268 -16.5323662,41.9192415 -16.446169,42.9685984 C-16.6549014,43.3423709 -16.7246197,43.8056711 -16.5429296,44.2245249 C-15.8482817,45.825863 -14.3459577,47.174492 -13.2036338,48.4719018 C-11.9423662,49.9047671 -10.8177887,51.3454634 -9.28314085,52.5069944 C-3.43356338,56.9677136 3.62552113,59.4615765 10.8673521,60.4368562 C13.4386901,60.8320053 17.1373521,61.4366872 18.7294648,63.6118063 C18.338831,66.193292 17.6215775,68.6689531 16.9708732,71.1863091 C16.0609437,74.5276155 16.1228451,78.0257541 16.1108028,81.4322485 C15.9836197,81.3300219 15.7393944,81.3511868 15.7030563,81.5459041 C15.4913662,82.9580278 15.3339718,84.4018989 14.4760141,85.5884045 C13.7239014,87.7948477 13.2234085,90.1481755 12.9422113,92.4661579 C11.8157324,103.455409 11.5467887,114.768696 14.0866479,125.586723 C15.0667183,129.600016 16.6607324,133.414147 18.8325634,136.926254 C19.4800986,137.973706 20.5212254,138.280598 21.4560845,138.074874 C24.5849577,139.700976 28.5265775,140.222268 31.8990423,139.809128 C43.3964366,136.553117 39.3903803,144.393662 55.5107324,141.992713 C83.3361549,138.446742 111.456718,145.415082 139.222986,141.323902 C139.906859,146.608148 148.859113,145.092316 151.968761,142.858359 C161.292845,135.924095 165.922563,113.969932 170.60193,102.832737 C173.818479,94.0545854 179.204535,78.5068328 186.258127,72.616423 C188.373127,70.9615376 190.929676,70.0903894 193.487704,69.387079 C203.034465,66.9260217 212.617986,64.5987267 222.182915,62.2060321 C223.805028,61.8064384 223.513479,59.038913 221.778972,59.2164867 C219.477,59.4520523 217.167211,59.6653947 214.857423,59.8874148 Z" id="ðŸŽ¨-Background" fill="#FFFFFF"></path>
                        <path d="M2.33340845,58.2413354 C1.68692958,58.161128 1.05312676,57.9307562 0.423549296,57.7489949 C-0.53771831,57.467899 -1.47997183,57.1403061 -2.40743662,56.766216 C-4.32152113,55.9992258 -6.17856338,55.0923217 -7.91940845,53.9827327 C-10.7313803,52.1883687 -13.2158873,49.8888775 -15.089831,47.1201886 L-15.2184848,46.927094 C-16.2883099,45.2969052 -18.2617183,41.6770732 -16.0489859,40.4394059 C-17.4751056,39.2473268 -18.822993,37.1063483 -18.7469366,35.453589 C-18.6391901,33.1160548 -15.7744014,33.1479687 -14.2934155,34.1389902 C-13.3236972,34.7878356 -12.5969366,35.6966419 -11.8680634,36.590865 C-11.0610211,37.584 -10.1990493,38.5308493 -9.30327465,39.4417691 C-9.06559859,39.6827084 -8.82554577,39.9188924 -8.58133363,40.1512126 L-8.33569014,40.3822568 C-8.37369718,40.2914818 -8.4075,40.1984877 -8.43707746,40.1031687 C-8.93144366,38.5626364 -8.34200704,36.5569221 -6.8018662,35.8510121 C-5.85935503,35.418775 -4.88052369,35.6826284 -3.96719921,36.0495615 L-3.82721831,36.106746 C-2.59764085,36.6158888 -1.35327465,37.0662763 -0.0729929577,37.4276853 C5.1453169,38.9007969 10.5917958,39.1459632 15.9389789,39.8814622 C17.998838,40.1667851 20.0967254,40.5258693 22.1460211,41.054245 C22.927669,37.7339953 24.8438662,34.5512712 26.9227394,31.9326411 C36.877669,19.4056978 53.2952746,15.2655569 68.3142887,12.5856352 C69.6833028,12.3425824 70.8178944,14.1558834 71.6143732,13.7268423 C73.1249366,12.9152571 74.4538099,11.7655115 75.620007,10.5164313 C78.1066268,7.85130411 79.8707113,4.71697926 81.9432465,1.74750763 C82.9678944,0.280736595 85.3256408,1.59322192 84.3749366,3.1677816 L83.9092,3.93729014 C81.9915688,7.08931294 79.8680405,10.3376609 77.1178944,12.7821065 C75.6559225,14.0797973 74.0333873,15.1048462 72.1784577,15.7450262 C70.7735282,16.2292297 68.8024014,16.6371358 67.2643732,16.1677268 L67.0797879,15.8987562 C67.1408568,15.9886967 67.2023592,16.0784031 67.264331,16.1678748 C71.2783732,21.9863272 76.314993,26.910789 81.6220352,31.558382 C86.9788681,36.2469312 92.7577053,40.4454837 98.5712997,44.5505878 L99.055838,44.892472 C108.5269,37.9815761 116.527559,28.9673509 122.140934,18.6683392 C120.964373,18.5265652 119.800289,17.772256 118.794655,17.2098528 C117.584092,16.5295162 116.445359,15.7177198 115.558035,14.6356063 C113.624937,12.2790505 113.876345,9.24194677 113.527754,6.3823773 C113.506627,6.20484305 113.741134,6.16045949 113.84888,6.24922661 C114.896768,7.11998982 115.264373,8.54660431 115.701697,9.77877652 C116.183387,11.1335319 116.728458,12.2496728 117.833387,13.2026513 C118.862261,14.0905339 120.11719,14.7433949 121.336204,15.3246082 C121.964861,15.6228298 125.08559,16.3892302 125.44107,17.0239703 C130.832683,15.7579397 136.084796,17.9454153 140.079866,21.6355914 C143.939725,25.2010708 146.772824,29.8359828 149.274232,34.4117166 C151.942542,39.2939084 154.129162,44.3830121 156.013669,49.6139319 C157.923528,54.9232626 159.387613,60.3486247 160.192542,65.9367264 C160.871979,70.6479781 161.288565,75.4332463 161.558188,80.1971666 L161.591134,80.7925386 C165.579803,74.5301871 169.667831,68.3333965 173.840366,62.1915569 C172.891775,59.6574669 173.941775,57.0705393 175.718535,55.1134356 C177.687549,52.9470951 180.410789,51.9410677 183.015718,50.7701871 L183.358114,50.6152458 C184.613635,50.0423202 185.865014,49.4113808 186.949521,48.5531225 C187.993183,47.7246294 188.760085,46.5833378 189.858676,45.8203632 C191.455859,44.7086607 194.354451,44.945373 194.428394,47.3737879 C194.466423,48.7076196 193.893887,50.1699523 193.369944,51.3683084 C192.776282,52.7232751 191.975577,53.951009 191.024873,55.0796196 C190.98093,55.1322035 190.93293,55.1736958 190.884118,55.2065853 L190.84743,55.2296783 C192.161514,55.4473691 193.486162,55.6227898 194.836162,55.6840814 C197.559401,55.8087781 200.312218,55.6079953 202.978415,55.0331225 C205.707993,54.4455687 208.353063,53.4904767 210.807993,52.1587585 C212.90588,51.0216939 214.849542,49.5506959 217.232641,49.2040814 C217.452338,49.1703076 217.674169,49.1491726 217.902338,49.1364916 C218.28262,49.1153566 218.662901,49.5634192 218.512901,49.9394114 C218.430507,50.146746 218.343887,50.3517558 218.248817,50.5588791 C217.424894,52.3742671 216.161119,54.1354611 214.584793,55.4721773 L214.462923,55.5741581 C215.018599,55.3818716 215.565782,55.1662943 216.104514,54.9232415 C219.271415,53.496627 222.144655,51.340854 225.539725,50.4743178 C225.700289,50.4320266 225.862965,50.3939836 226.025641,50.358054 C227.075641,50.1319092 227.629162,51.2732008 227.012261,52.0551969 C226.912965,52.182007 226.813669,52.3067037 226.710148,52.4314004 C225.195359,54.3123546 223.524232,56.058108 221.681979,57.6263272 C221.050289,58.1631569 220.399585,58.6830787 219.736204,59.1799632 C219.456648,59.3904936 219.175532,59.5964696 218.891516,59.7991052 L218.751634,59.8983429 C219.083324,59.6639554 219.410789,59.4251295 219.736141,59.1799632 C221.815014,58.549928 223.86431,57.8038614 225.869239,56.9776932 C226.665718,56.6498888 227.284732,57.457247 227.369239,58.1208869 C227.652338,60.3445033 225.184732,61.9528791 223.579099,63.0221002 C221.969239,64.095971 220.196704,64.9117832 218.381915,65.5667577 C214.89261,66.8282683 211.227776,67.4011266 207.568682,67.9144971 L205.791469,68.1621294 C198.756932,69.1461563 191.409613,70.3226254 186.362197,75.7984368 C183.533324,78.8670317 181.619239,82.679791 179.867831,86.4312587 C178.118535,90.1787108 176.58262,94.0252861 175.124873,97.8929965 C173.61431,101.89576 172.298113,105.972707 170.899521,110.015838 C169.615014,113.728312 168.080731,117.39329 166.561129,121.021102 L166.321352,121.593607 C163.095296,129.303877 159.241775,136.565662 153.871352,143.003392 C152.986141,144.066484 151.555859,142.557654 152.373465,141.504918 C157.99107,134.25983 161.899521,125.710922 165.125577,117.182726 C166.593887,113.302546 167.823465,109.32895 169.234732,105.427423 L170.074496,103.10969 C171.195803,100.020026 172.326845,96.9343115 173.506563,93.8688869 C175.000225,89.9903977 176.641775,86.1586168 178.519944,82.4515327 L178.719194,82.0612221 C180.558021,78.484917 182.742664,74.9602957 185.749521,72.253881 C191.161606,67.3804772 198.363281,66.2112704 205.326343,65.2852305 L207.516872,64.9964495 C210.46073,64.605202 213.412901,64.1730787 216.275577,63.3856227 C217.92769,62.9335444 219.541775,62.3542333 221.058676,61.5553292 C221.662901,61.2383037 222.252338,60.8897871 222.822761,60.5093566 C221.196,60.9870082 219.546,61.3777949 217.866423,61.6842528 C217.044592,61.8343115 216.231211,61.9465386 215.419944,62.0247382 C213.330592,62.2315867 211.258056,62.2231327 209.117915,62.1113284 C208.936225,62.1005495 208.87707,61.815438 209.071437,61.7795084 C210.561834,61.5143599 212.053976,61.1828368 213.539929,60.8230491 L213.9855,60.714155 C213.993951,60.4670865 214.091134,60.2048008 214.293951,59.9556188 C215.033387,59.0552665 216.438317,58.5943115 217.412261,57.9581472 C218.432683,57.2923937 219.421415,56.5740141 220.363669,55.8044877 C221.225641,55.1009025 222.05381,54.3567382 222.850289,53.5791804 L223.089063,53.3444389 C223.00981,53.4229773 222.930218,53.5012063 222.850289,53.5790536 C220.699585,54.5726114 218.660852,55.8468423 216.415077,56.6332767 C214.629866,57.2607757 212.758035,57.6834763 210.869303,57.833535 L210.752049,57.8427816 L210.634796,57.8504431 C208.663648,57.9920689 206.679845,57.9350043 204.738296,58.3619319 C204.52069,58.4105425 204.453085,58.1188791 204.647451,58.0364524 C206.34393,57.3305425 208.108014,57.0579006 209.891113,56.7281941 C209.92912,56.5886395 210.026303,56.4639429 210.195317,56.3836297 L210.65153,56.165736 C212.010106,55.5129933 213.276444,54.8540877 214.40588,53.7945886 C215.403063,52.8583068 216.233345,51.7637237 216.856585,50.5503616 C214.361514,51.09778 212.170669,52.9893652 209.901655,54.0524571 C207.429824,55.2127703 204.814331,56.0454904 202.127007,56.5191264 L201.820834,56.5716004 C196.798888,57.4096093 190.759838,57.3027668 186.26081,54.690735 C186.117148,54.6061949 186.220669,54.4140775 186.368556,54.4371147 C187.644613,54.6463515 188.907993,54.8936313 190.171373,55.1134356 C189.924169,54.8872908 189.81431,54.4814982 190.099521,54.1560188 C191.234233,52.8551918 192.131515,51.3683062 192.705206,49.7413339 L192.814929,49.423177 C193.079146,48.6685179 193.525437,47.4965683 193.069944,46.8158231 C192.634732,46.1669777 191.610085,46.2557448 190.997408,46.5305002 C189.723465,47.105373 188.876282,48.5406528 187.803042,49.4069777 C186.63262,50.353827 185.301634,51.05551 183.938958,51.6832204 L183.651212,51.8140089 C181.29425,52.8746298 178.775992,53.7674658 176.922761,55.6396978 C175.925577,56.6457252 175.067831,57.9032595 174.780507,59.3129659 C174.649521,59.9596978 174.649521,60.6254513 174.822761,61.2658427 C174.960085,61.7667429 175.247408,62.0755256 175.08262,62.5846685 C174.867127,63.2419679 174.104451,64.028191 173.711493,64.6136313 C173.255155,65.2901636 172.80093,65.9683867 172.346704,66.6468211 C171.440366,68.00369 170.538254,69.3647859 169.636141,70.7237683 C167.831915,73.4459601 166.046704,76.1808329 164.276282,78.9241597 C163.700225,79.8174669 163.126047,80.7117135 162.553746,81.6068994 L161.696768,82.950425 L161.243863,83.6587127 L160.471394,84.8735225 C160.498859,84.9857495 160.496746,85.1041057 160.460831,85.207456 C160.329141,85.5827202 160.082499,85.8392172 159.776078,86.0251976 L159.721352,86.0572321 C155.212901,93.1860775 150.776282,100.36142 146.295296,107.507385 C146.056563,109.688245 145.83262,111.871494 145.638254,114.054742 C145.196704,118.996112 144.894592,123.950374 144.797408,128.910554 C144.75093,131.311705 144.943183,133.727227 145.046704,136.126053 C145.097408,137.270968 145.166739,138.414485 145.257356,139.55767 L145.324019,140.367965 C145.413277,141.481488 145.463887,142.586764 145.063606,143.648222 C144.708676,144.580065 143.626986,144.789302 142.986845,144.079376 C134.635458,143.743202 126.277711,143.487468 117.919965,143.328956 C102.960106,143.041519 87.9939085,143.085903 73.0319366,143.375453 C65.5171479,143.521285 58.0002465,143.726294 50.4875704,143.979915 C46.786162,144.102498 43.0826408,144.275805 39.3791197,144.326529 C37.3837817,144.35373 34.2433832,143.626925 34.0823782,141.381192 L34.0784155,141.312611 C33.8291197,141.380243 33.5713732,141.435194 33.3072887,141.47535 C33.1897203,141.493445 33.0767975,141.488302 32.9724976,141.463901 L32.920669,141.450115 C29.9462918,142.357021 26.1838642,141.063002 23.3575543,140.308896 L23.1242324,140.247363 C20.4263451,139.543566 18.2587394,138.537539 16.4904296,136.301453 C13.3953592,132.385343 12.3390211,127.126737 11.7897254,122.280474 C11.2742324,117.719535 11.2446549,113.074267 11.8721197,108.521782 C11.5023803,104.812605 11.8636479,100.985051 12.2840704,97.2967773 C12.4911127,95.4728243 12.7340704,93.6509847 13.0256197,91.8375992 C13.1882958,90.8252313 13.4016761,89.8234309 13.6192817,88.823744 C13.7061655,88.424292 13.7784916,87.9942569 13.8886273,87.5785222 L13.9382746,87.4013566 C13.6002465,87.4457401 13.2305282,87.3717675 12.8734859,87.1754231 C12.0241901,86.7083389 11.777007,85.7633918 11.7622183,84.8590239 C11.7157394,82.1323937 12.0410915,79.3279867 12.3284155,76.6184759 C12.6178521,73.9131922 13.0150352,71.1971295 13.5347535,68.5256618 L13.6692414,67.8368828 C14.0630456,65.8385125 14.513651,63.7755276 15.3072887,61.8977166 C12.3263662,61.3906661 9.35383099,60.8517229 6.46157746,59.9342513 C5.05030986,59.4840751 3.66016901,58.9242082 2.33340845,58.2413354 Z M157.923465,86.6151969 C157.877007,86.6258067 157.832641,86.6384877 157.788275,86.6511687 C156.596725,86.9851022 155.3925,87.2683115 154.1925,87.572656 C152.117852,88.0946912 150.089683,88.678018 148.16081,89.5847108 C147.756739,94.6867544 147.157722,99.7721644 146.588297,104.860187 L146.474873,105.877874 C147.349521,104.254492 148.245296,102.644003 149.181211,101.052747 C152.031211,96.2020462 154.946704,91.3896 157.923465,86.6151969 Z M14.6650352,87.120472 C14.6713944,87.726836 14.5446338,88.3568712 14.4770282,88.9399867 C14.367169,89.8870474 14.2784366,90.8381237 14.1664648,91.7847616 C13.9382958,93.6869143 13.7439296,95.5911804 13.6023803,97.5017871 C13.5115352,98.7214896 13.4523803,99.9452078 13.3995634,101.168926 C14.5974718,96.6901808 16.1840915,92.3091006 17.6925423,87.9212571 C17.4404014,87.8946411 17.1826455,87.8330724 16.9167582,87.7624204 L16.4691548,87.6418132 C16.2052272,87.5738177 15.3490452,87.3631519 14.6650352,87.120472 Z M161.696789,82.9504462 L161.705239,83.151229 C161.73693,83.8634795 161.310169,84.265045 160.792563,84.3686067 C161.092563,83.895182 161.394676,83.4217573 161.696789,82.9504462 Z M24.6263028,49.1936618 C25.8875704,49.3054661 27.1234859,49.5740924 28.3023592,50.039063 L28.4161091,50.0834796 C29.2880579,50.4201642 30.5629225,50.8432059 30.8481338,51.7742489 C30.9284155,52.0384368 30.7129225,52.2559162 30.4657394,52.2772626 C29.5192606,52.3533487 28.4037676,51.338656 27.527007,50.9962685 C26.5509507,50.615838 25.5284155,50.3326286 24.4932042,50.1825699 C22.1671479,49.8422959 19.7417958,50.1003546 17.5530634,50.9478693 C17.4241901,50.9985933 17.3439085,50.7933722 17.4601056,50.7320806 C19.6657394,49.531611 22.1185563,48.971744 24.6263028,49.1936618 Z M-2.10109859,55.2381534 C-2.24695775,55.1091663 -2.39273239,54.9739022 -2.53639437,54.8388493 C-3.66909054,53.7668504 -4.67213201,52.5158187 -5.41481165,51.1410895 L-5.61027258,50.7690181 C-6.21516415,49.5974596 -6.95794536,47.9283237 -5.53639437,47.0841957 C-4.68709859,46.5792798 -3.66456338,46.7058787 -2.71808451,47.0123366 C-2.6568169,47.0313581 -2.5955493,47.0527045 -2.53428169,47.0736282 C-2.11174648,47.2217847 -1.704,47.3991076 -1.34061972,47.5681879 C0.237549296,48.2931194 1.62980282,49.3477573 3.0875493,50.27791 C4.66706274,51.2860381 6.22671043,51.9306794 8.04966963,52.3079976 L8.22135211,52.342591 C9.93261972,52.6809628 11.7875493,52.8984423 12.9812113,54.3060352 C13.2812113,54.6613151 13.0065634,55.3268571 12.4889577,55.1514364 C9.18895775,54.0378317 5.69670423,53.792454 2.66712676,51.964274 C1.41219718,51.2076399 0.224873239,50.3392016 -1.05752113,49.6225127 C-1.73780282,49.2418004 -2.44016901,48.9089566 -3.18866729,48.680687 L-3.59757575,48.560074 C-3.83709207,48.4901155 -4.12301408,48.421045 -4.31526761,48.4898865 C-4.68123762,48.6166967 -4.56443587,48.8125861 -4.45120832,49.1545577 L-4.43991549,49.1892446 C-3.55047887,51.9412368 -1.01526761,54.2447436 1.33402817,55.7685793 C1.87276056,56.1194207 2.42416901,56.4408845 2.98614085,56.7388885 C6.79011761,58.7672338 11.0464654,59.7112605 15.2268675,60.8318906 C16.8382563,61.2818746 17.9108521,61.5914067 18.4446549,61.7604869 C19.3362042,61.6863029 20.3524014,62.0014262 21.0242324,62.3776297 C21.6770493,62.7430544 22.2031056,63.2335984 22.6002887,63.8105847 C22.6002887,63.8105847 22.9826831,64.1297237 23.0524014,64.6242834 C23.2531056,65.0829135 23.3883169,65.5772618 23.4559225,66.0931679 C23.4939507,66.3953988 23.4178944,66.6276728 23.2742324,66.792526 C23.7063501,73.427398 21.9149056,80.0249209 19.8952164,86.3304343 L19.6950951,86.9522002 L19.5664859,87.3463421 C17.3883169,94.0313941 14.8890211,100.668005 13.7735282,107.638126 C13.0277535,112.294173 13.050993,117.11296 13.5981761,121.790142 L13.6367545,122.112729 C14.1758912,126.534937 15.2132163,131.495709 18.0242324,135.054697 C19.4580226,136.870989 21.1567395,137.678127 23.3285396,138.26301 L23.4474718,138.294697 C25.4122606,138.812294 27.4404296,139.545891 29.4664859,139.767809 C31.3467676,139.972607 32.9228239,139.273249 34.6150775,138.617852 L34.6171479,138.615908 C38.1812535,135.460427 39.7995634,130.865671 40.995338,126.228434 C44.0946338,114.228176 43.7101268,101.77119 41.9523803,89.5952994 C41.0354789,83.2336556 39.789,76.9269628 38.5467465,70.6223836 C37.9256197,67.4711507 37.2559014,64.3262583 36.7002676,61.1644579 L36.3702693,59.3036177 C36.1881747,58.2698175 36.0120634,57.2351918 35.8615352,56.1956125 C35.6587183,54.7985871 35.5974507,53.4248102 35.5277324,52.0193307 C33.8206901,49.1893292 31.3425211,46.8581354 28.4713944,45.1863546 C26.4157606,43.9879984 24.2397042,43.1573918 21.9939296,42.5550434 C15.5734859,40.8240845 8.57419014,40.9466677 2.11362676,39.6151609 C-0.0567345377,39.1683847 -2.11691718,38.5050325 -4.17600729,37.7101876 L-4.45679577,37.6009926 C-5.40116197,37.2332431 -6.36454225,37.0282333 -6.83355634,38.1420493 C-7.16735915,38.9346129 -6.96876761,39.7588791 -6.46806338,40.4246325 C-5.24059859,42.0562568 -2.77299296,42.8128908 -0.915950704,43.4004446 C0.20165493,43.7555131 1.3425,44.036609 2.49602113,44.2458458 C3.64954225,44.4550826 4.80728873,44.5079202 5.91433099,44.9158262 C6.34109155,45.0722254 6.42559859,45.7506599 5.91433099,45.8709182 C4.51151408,46.1987225 3.10024648,45.9176266 1.70588028,45.6449847 C0.174190141,45.3425425 -1.33426056,44.9137127 -2.80045775,44.3705425 C-3.07088028,44.2707851 -3.35076761,44.1656172 -3.63579296,44.0538484 L-3.85045775,43.9688924 C-3.62862676,44.1297299 -3.40679577,44.2882427 -3.18285211,44.4467554 C-3.12369718,44.4888141 -3.15961268,44.6008297 -3.23778169,44.5733542 C-6.68525341,43.2867506 -9.82204081,40.9652861 -12.2520817,38.2185718 L-12.372993,38.0808845 C-13.2286268,37.1000078 -15.1786268,34.1326497 -16.8222887,34.9590294 C-18.3657254,35.7340932 -15.7347034,38.7218626 -14.7348355,39.9433943 L-14.6187254,40.0865566 C-13.4821056,40.1161456 -12.3814014,40.8239577 -11.4602746,41.3946035 C-9.86097887,42.3860477 -8.18985211,43.2399029 -6.48703521,44.0385957 C-3.10252817,45.6300634 0.491133803,46.7525448 3.83972535,48.4241143 C3.88409155,48.4475742 3.85028873,48.5044274 3.80803521,48.4982982 C1.67634507,48.1578129 -0.432105634,47.6146427 -2.49196479,46.9406466 L-2.5838662,46.9118237 L-2.67576761,46.8812571 C-3.96238732,46.4585566 -5.23210563,45.9811162 -6.48069718,45.4715507 C-7.86872535,44.9053432 -9.22506338,44.2691789 -10.5412606,43.5484744 C-11.7328099,42.8975155 -13.0553451,41.7245213 -14.4370352,41.5512141 C-14.5849225,41.5321926 -14.7159085,41.5298677 -14.829993,41.5406466 C-16.4165915,41.6736916 -15.1046197,44.3028892 -14.6609577,45.0891123 C-13.9363099,46.3804626 -13.061662,47.5724783 -12.0581408,48.6609323 C-10.0236338,50.8716564 -7.55814085,52.6237503 -4.88983099,53.9869597 C-3.97926761,54.4519303 -3.04757746,54.8619499 -2.10109859,55.2381534 Z" id="ðŸ–-Ink" fill="#000000"></path>
                    </g>
                    <g id="head/Flat-Top" transform="translate(78.591549, 38.043053)" fill-rule="evenodd">
                        <path d="M51.1354565,15.9061419 C63.1313673,15.9061419 78.6158953,23.4339799 79.9363235,31.1439108 C81.4924135,40.2298625 89.824978,75.0936943 87.9433807,86.2739447 C86.0617834,97.4541951 75.922239,105.502635 59.6972051,105.502635 C43.4721713,105.502635 31.3619694,96.6510448 28.581369,93.6117924 C26.7276354,91.5856241 24.0830853,86.9555555 20.6477187,79.7215866 C14.8562307,78.9510627 11.9465629,76.2044004 11.9187155,71.4815998 C11.8916516,66.7587992 13.7745471,63.5382528 17.5674018,61.8199609 C16.2150634,43.1817886 17.2418356,31.4364602 20.6477187,26.5839757 C25.7565432,19.305249 39.1395457,15.9061419 51.1354565,15.9061419 Z" id="ðŸŽ¨-Background" fill="#FFFFFF"></path>
                        <path d="M79.2021972,29.899874 C79.1935352,29.7373456 79.4301549,29.7183241 79.4745211,29.8620423 C82.0625493,38.4153886 83.657831,45.0811656 85.3371972,53.8503006 L85.8331408,56.4298962 C87.1585196,63.3100005 88.4975493,70.2001245 89.6282535,77.1136274 L89.6946271,77.5263918 C90.2610316,81.1050545 90.5875649,84.7185589 89.8775493,88.3046254 C89.214169,91.6566411 87.401493,94.7296744 85.0479718,97.1771108 C80.4993803,101.907342 74.1780423,104.861807 67.8190986,106.182747 C64.6036056,106.850614 61.2867042,107.108461 58.0099437,106.875976 C56.3766338,106.761635 54.7458592,106.531263 53.1465634,106.191201 L52.9700024,106.153436 C51.3579458,105.805271 49.9271898,105.389953 49.071,103.872477 C48.8557183,103.490144 48.942338,102.834958 49.3944507,102.638402 C50.2479718,102.270441 50.8754366,102.116367 51.8069155,102.222042 C52.6963521,102.323279 53.5648732,102.591905 54.4437465,102.758872 C56.1233239,103.078011 57.8303662,103.238426 59.5395211,103.27668 C62.8965634,103.350653 66.2620563,102.930066 69.4712113,101.928265 C74.9850845,100.20576 80.5881127,96.9108094 83.8099437,91.9821205 C87.599831,86.1841691 86.0907593,79.147494 85.0864834,72.7444115 L85.0562113,72.5505746 C84.0394859,66.0058485 83.0342449,59.4611225 82.058463,52.9121488 L81.6421268,50.1051734 C80.5479718,42.6888916 79.5148732,37.3945667 79.2021972,29.899874 Z M23.2183521,11.7471875 C25.9704215,9.93256637 29.3901944,9.48665877 32.6226071,9.51169958 L33.0273809,9.51680494 C37.1663961,9.57991609 58.0009269,10.0759175 64.9765247,10.2285431 L66.6359577,10.2635084 C68.8323283,10.3049656 73.2620873,10.3482525 75.5443574,10.3899794 L75.6760986,10.3924321 C76.7958169,10.4135671 77.9155352,10.4220211 79.0352535,10.4579507 L79.1993823,10.4638647 C80.0381558,10.4996878 80.7360858,10.625244 81.393,11.2166982 C81.7270669,11.5164634 81.8574036,11.9736475 81.8267773,12.4091161 L81.8218732,12.4657785 L83.4845493,12.6116102 C84.6135231,12.711448 85.2105008,13.7244259 84.7619987,14.7494806 L84.7394789,14.7990857 C83.943,16.4983421 83.3345493,21.4439389 82.9077887,23.272119 C82.6838451,24.2337628 82.5040563,25.2102012 82.3984225,26.19298 C82.3141268,26.9667335 82.3056761,27.7421777 81.8746901,28.4227256 C80.9554648,29.8747022 78.3697606,29.8620211 78.3232817,27.8055828 C78.321169,27.7400642 78.3232817,27.6766591 78.3296197,27.6153675 C71.8225775,27.3300446 62.9387746,27.3575202 56.4401831,27.7464047 C50.3704648,28.1099272 44.3282113,28.9341933 38.3810282,30.1959546 C36.8746901,30.5150935 35.3725775,30.8638215 33.8810282,31.2421386 C32.6577887,31.55071 31.1556761,31.7345847 30.0613099,32.3961112 C28.8359577,33.1400642 28.8591972,34.4736845 28.9922958,35.7438998 C29.1351549,37.0902012 29.3733777,36.3965453 29.7109411,37.6234533 L29.7317324,37.7010035 C30.0803239,39.0325104 30.5113099,40.3492227 31.0817324,41.6004164 C31.4070845,42.3147804 31.9312394,43.0016689 31.7324366,43.8238215 C31.6204648,44.2866787 31.2547606,44.7812384 30.9190563,45.1046043 C29.3892676,46.5734888 26.8035634,45.637207 25.7641268,47.6492618 C24.6763017,49.7532134 24.6492854,52.6032744 24.5569651,54.9313247 L24.5514507,55.0676571 C24.4840563,56.6718059 24.5028592,58.2801816 24.608493,59.8801033 C24.7035634,61.338209 25.0920845,62.7819429 24.5937042,64.1831953 C24.2301127,65.2019037 23.043,65.2970114 22.4218732,64.4685182 C22.3505704,64.3734106 22.2852095,64.2759252 22.2240079,64.1778455 L22.1641268,64.0796337 L22.1601127,64.0817472 C22.2190563,64.1747413 22.2739859,64.2700603 22.3268028,64.3670701 C22.3838451,64.4748587 22.2422958,64.5932149 22.1556761,64.5002207 C20.6937042,62.908753 18.5577887,63.2257785 16.9035634,64.3395945 C15.2282113,65.4724321 14.5669437,67.6239781 14.4803239,69.5538176 C14.3831408,71.6943734 14.5732817,74.2035241 15.464831,76.1815515 C15.8408873,77.0184986 16.3772958,77.7878137 17.2669437,78.1069526 C17.6706761,78.2506708 18.0549718,78.2316493 18.4753944,78.2654654 C18.912507,78.2990701 19.4387746,78.5190857 19.8632113,78.4894967 C20.4150331,78.4502131 20.9104461,79.0804135 20.7537171,79.6084282 L20.7422958,79.6434693 C20.7340563,79.6688313 20.7253944,79.6941933 20.7171549,79.7174419 C20.7380704,79.7364634 20.7591972,79.7597119 20.7739859,79.793528 C22.3796197,83.075798 24.5810282,85.9966591 27.014831,88.7061699 C28.2340563,90.0609252 29.5859577,91.3057785 30.999338,92.4576376 C31.6965211,93.0261699 32.4317324,93.5949135 33.2070845,94.0533323 C33.464831,94.2031796 33.7012394,94.3048391 33.9910986,94.3874771 C34.1260986,94.4253088 34.2803239,94.4443303 34.4113099,94.4887139 L34.5473324,94.5353124 C34.556662,94.5383389 34.5655352,94.5411288 34.5739859,94.543665 C34.9627183,94.5880485 35.2901831,94.8458959 35.4190563,95.249575 C35.7549718,96.3020994 35.1444085,97.2320407 34.1007465,97.5215906 C32.9700285,97.8379269 31.904413,97.2825181 31.0081337,96.6448418 L30.9486338,96.6022168 C29.121169,95.2857159 27.4373662,93.8081659 25.9796197,92.0835476 C23.0958169,88.6786943 21.2892676,84.7370114 20.4530704,80.3768548 C20.2458169,80.8228039 19.9669437,81.2116885 19.4831408,81.4822168 C18.7310282,81.9049174 17.8331408,81.9049174 17.0091972,81.7633127 C15.3507465,81.4822168 13.9373662,80.4698489 12.993,79.100299 C12.012507,77.680025 11.6472254,75.9554067 11.4253944,74.2751718 C11.2056761,72.5926121 11.0979296,70.9041346 11.3176479,69.2175593 C11.6326479,66.7954849 12.6486338,64.4008861 14.6239859,63.0736063 C13.1451127,59.8505143 12.8852535,56.2364243 12.9908873,52.7068744 C13.1197606,48.3615123 13.8697606,43.9675397 14.4465211,39.6623342 L16.086169,27.4230387 L16.086169,27.4230387 L16.1532509,26.9296273 C16.5489224,24.0503095 17.0306094,21.15576 18.1077887,18.4427648 C19.1704648,15.7691836 20.7845493,13.3513362 23.2183521,11.7471875 Z M16.3183944,69.6486716 C19.0268451,68.3340728 21.9529014,69.54511 23.4106479,72.096108 C24.6781268,74.314018 20.9096172,75.7799937 20.2808448,73.4938175 L20.2627606,73.4233879 C19.8486761,71.692429 18.1625493,70.1960689 16.4029014,69.9635836 C16.2571268,69.9426599 16.149169,69.7313096 16.3183944,69.6486716 Z" id="ðŸ–-Ink" fill="#000000"></path>
                    </g>
                    <g id="face/Smiling" transform="translate(112.183099, 77.354207)" fill="#000000" fill-rule="evenodd">
                        <path d="M30.968993,50.9198978 C29.548794,50.3403012 28.2816173,49.3734958 27.3551889,48.1384646 C27.0331038,47.7091169 26.9495926,47.2557326 27.017159,46.8410547 C27.0931327,46.3747786 27.3688808,45.9521824 27.7449394,45.6687178 C28.1221628,45.3843752 28.5940214,45.2441445 29.0502103,45.3156301 C29.4466117,45.3777469 29.8412104,45.5948709 30.1535058,46.0451781 L30.2187521,46.1352289 C30.7695298,46.8806513 31.4872438,47.4922614 32.3050288,47.8864795 C33.0932406,48.2664417 33.9747757,48.4437847 34.8870208,48.3406561 C36.6244504,48.1443157 37.8219743,47.2043274 39.0948115,45.9278391 C39.2525834,45.7666792 39.4104563,45.6004672 39.5690946,45.4315797 C39.6692778,45.278484 39.8083069,45.1800892 39.962667,45.1284632 C40.1340565,45.0711416 40.327938,45.0743848 40.5055187,45.1363808 C40.6767961,45.1961763 40.8299095,45.309486 40.9325762,45.4602937 C41.0301525,45.6036243 41.0854754,45.7806897 41.0675245,45.9843589 C40.9510195,47.3072301 40.2596776,48.4878363 39.2776553,49.4148615 C38.1869942,50.4444414 36.7412431,51.1567117 35.3801317,51.4065272 C33.8805866,51.6817086 32.3525901,51.4845569 30.968993,50.9198978 L30.968993,50.9198978 Z M36.0875289,30.5120405 C37.6828906,31.482148 40.1137318,33.7442494 38.3974899,36.149264 C36.3773089,38.2698449 33.4687045,35.8384541 32.0353946,34.7388307 C30.7063626,33.8866164 29.2131206,36.0784478 30.4461973,37.0735516 C40.8033244,44.7445605 45.006466,30.7657101 36.8944406,29.3714319 C36.0012775,29.2177885 35.6695544,30.2119271 36.0875289,30.5120405 Z M17.5274577,21.5886716 C17.7037243,19.3998697 21.0359789,18.9028321 21.3674577,21.0687499 C21.6642887,23.0089456 21.3148521,24.7912626 20.4412606,26.5380728 C19.6065423,28.2068947 17.5085456,27.4283107 17.3498837,25.9087021 C17.1372039,23.8717299 17.4178099,22.9502317 17.5274577,21.5886716 Z M42.8930282,20.6196517 C43.3576056,20.0109628 44.0283803,19.5954481 44.8320423,19.8302583 C47.3429577,20.5642779 46.6028873,24.1303914 45.7210563,25.8662114 C45.2419014,26.8088337 43.6930986,27.0478708 42.993169,26.2178982 C41.8523239,24.864411 41.3059859,22.1614521 42.756338,20.8282544 C42.7956338,20.7593542 42.8393662,20.68982 42.8930282,20.6196517 Z M20.4058944,12.0111429 L20.802522,11.9416942 C22.0295218,11.7294045 23.5551549,11.5254176 24.4231479,12.5122544 C24.8835,13.0355577 25.0419507,14.0081918 24.4231479,14.509092 C23.3346972,15.3904227 22.1313169,15.0488806 20.8269507,15.1234873 C19.7520211,15.1852016 18.7189225,15.3631585 17.6835,15.6592603 C15.4119507,16.3087397 13.5610352,17.4944149 11.6209648,18.7963327 C11.3663873,18.9671037 11.1065282,18.6414129 11.228007,18.4032211 C12.3479366,16.208771 14.5182887,14.4061644 16.6922324,13.3073542 C17.8525141,12.7208571 19.1222324,12.2343288 20.4058944,12.0111429 Z M40.6041287,11.0281289 L40.9077055,11.0902829 C44.2113469,11.7811043 48.5035506,13.1610768 50.0679842,16.4073021 C50.1275964,16.8663298 50.0646105,16.9647086 50.0133917,17.0289838 L49.9963385,17.0503723 C49.9541341,17.1052595 49.9204583,17.1809212 49.7215736,17.2433957 C49.6663832,17.2302408 49.6106433,17.216308 49.5543131,17.2015401 C48.8372041,17.0135386 48.2698321,16.7545401 47.720556,16.4857982 L47.1250012,16.192275 C46.4340388,15.8533498 45.7369757,15.5267598 44.9982488,15.2856588 C43.4217423,14.7712438 41.8001698,14.4088706 40.1534741,14.2153715 C39.7965654,14.1734678 39.4528848,14.0529641 39.1817455,13.8464404 C38.92438,13.6504079 38.7277692,13.3789964 38.6381257,13.0182314 C38.5219478,12.5513438 38.5553348,12.1978716 38.8057421,11.7766707 C38.9940329,11.4603578 39.263447,11.2411116 39.5728025,11.115213 C39.888177,10.9868648 40.2472278,10.9566068 40.6041287,11.0281289 Z" id="ðŸ–-Ink"></path>
                    </g>
                    <g id="facial-hair/*-None" transform="translate(104.577451, 109.479380)"></g>
                    <g id="accessories/*-None" transform="translate(88.521127, 88.978474)"></g>
                </g>
            </g>
        </g>
    </g>
</svg>