<?xml version="1.0" encoding="UTF-8"?>
<svg width="240px" height="324px" viewBox="0 0 240 324" version="1.1" xmlns="http://www.w3.org/2000/svg" xmlns:xlink="http://www.w3.org/1999/xlink">
    <!-- Generator: Sketch 62 (91390) - https://sketch.com -->
    <title>peep-79</title>
    <desc>Created with Sketch.</desc>
    <g id="Introduction" stroke="none" stroke-width="1" fill="none" fill-rule="evenodd">
        <g id="variations" transform="translate(-2766.000000, -434.000000)">
            <g id="images" transform="translate(126.000000, 110.000000)">
                <g id="a-person/bust" transform="translate(2640.000000, 324.000000)">
                    <g id="body/Hoodie" transform="translate(31.056338, 135.052838)" fill-rule="evenodd">
                        <path d="M167.059479,151.260467 C171.142437,151.063277 169.500254,143.918581 169.207225,141.294667 C165.97462,131.711199 166.734549,121.255277 165.463141,111.210221 C164.671099,101.833031 163.653423,92.4850074 162.797366,83.1150035 C161.116099,64.0947452 149.042791,25.3745564 135.264908,19.1474067 C133.529345,11.529074 126.360844,4.4175111 117.291139,4.4175111 C111.105224,-2.90767872 103.659549,-8.06299256 94.1096197,-7.02209237 C90.1631408,-6.84244462 86.3358592,-2.6551726 82.5543803,-1.84654638 C80.4370563,-1.55446027 61.6468732,-2.30623327 57.8829296,-0.0699358121 C55.2610986,1.27678826 52.8942676,3.76543796 53.6651831,6.93379022 C54.8951831,10.7723342 51.0727183,6.61887828 43.0988451,10.7159037 C26.8390133,20.4851814 36.5552104,33.5543397 36.9857738,33.9592869 C26.8390133,48.0823475 17.9702535,59.5401464 13.8668028,76.8026043 C11.2073662,89.6186748 11.5067324,102.848992 9.27849296,115.730792 C8.49173239,120.197469 7.28476056,124.51134 5.97870423,128.848882 C4.56321127,134.52554 3.8749352,148.674104 3.09472393,148.800492 C1.67352675,149.153658 3.91609859,152.072898 5.42201408,152.075223 C47.1735634,159.003497 89.583,152.362236 131.558915,151.277164 C143.388423,150.865665 155.230606,150.770769 167.059479,151.260467 Z" id="ðŸŽ¨-Background" fill="#FFFFFF"></path>
                        <path d="M103.778768,35.2058654 C103.798204,35.0145933 104.055951,35.015016 104.07581,35.2058654 L104.370581,38.052574 C104.72923,41.5293022 105.074502,44.9992643 105.324824,48.4921902 C105.636866,52.8479084 105.845599,57.2025699 105.946162,61.5680102 C106.296866,76.7719162 106.366585,91.9838536 106.396162,107.191564 C108.452007,107.049114 110.508063,106.911948 112.565176,106.77922 C113.96081,106.689043 115.356538,106.602531 116.752422,106.517427 L120.311725,106.301515 L120.311725,106.301515 L121.777077,106.211533 C122.767289,106.150241 123.892289,105.900848 124.584613,106.778374 C124.861796,107.129638 125.00081,107.586155 124.74243,108.003149 C124.146444,108.965004 123.231021,108.9314 122.195599,108.973036 C121.218697,109.012558 120.241796,109.051235 119.264894,109.088856 C117.171444,109.170225 115.078204,109.246946 112.98412,109.305701 C110.786514,109.367415 108.589965,109.417505 106.393204,109.454914 C106.370975,115.875001 106.105449,122.287097 105.818329,128.700097 L105.688415,131.586038 C105.337077,139.390359 104.95912,147.201443 104.422289,154.995407 C104.378134,155.633474 103.47581,155.632206 103.432077,154.995407 C102.82743,146.218241 102.428556,137.422265 102.033063,128.633263 C101.746162,122.26084 101.579261,115.886726 101.499824,109.511768 C101.209331,109.51367 100.919049,109.517685 100.628768,109.518742 C92.3836268,109.554672 84.1405986,109.590601 75.8954577,109.513247 C75.9091901,109.529521 75.9227113,109.545795 75.9317958,109.567353 C76.5284155,110.976425 76.5852465,112.774593 76.570669,114.286805 C76.5539789,116.021145 76.3205282,117.734351 75.9212324,119.420926 C74.4906554,125.463063 70.8007292,130.874783 66.598102,135.348974 L66.4608803,135.494539 C65.4696127,136.542413 64.3323592,137.595149 63.7236972,138.929826 C63.1019757,140.292613 62.8861756,141.886661 62.5793871,143.350939 L62.5435563,143.519298 L61.3439789,149.062171 C60.9628521,150.822719 60.8546831,153.390413 59.4615845,154.660629 C58.1618662,155.845881 56.4400352,155.226836 55.8284155,153.700887 C55.3507394,152.509928 55.8265141,151.201881 56.1094014,150.011556 L58.3258371,140.691001 C58.6900299,139.171041 59.087976,137.641107 59.8739789,136.275689 C60.6791197,134.877184 61.8594718,133.863337 63.0639085,132.82603 C65.3445423,130.86174 67.4382042,128.612973 69.208838,126.178218 C70.978838,123.744308 72.4915141,121.061427 73.5522887,118.240323 C74.0834155,116.828081 74.5186268,115.360887 74.818838,113.881858 C75.1042606,112.47828 75.1017254,111.024613 75.407007,109.636041 C75.4279225,109.540088 75.508838,109.474359 75.6015845,109.445192 C75.5796127,109.383267 75.6132042,109.299572 75.6998239,109.294077 L82.4429669,108.860613 C88.4370012,108.473788 94.4307714,108.077064 100.419401,107.623775 L101.477641,107.547267 L101.477641,107.547267 C101.395458,99.041474 101.465176,90.5339906 101.618768,82.0250278 C101.759472,74.2221863 101.76243,66.4172313 101.994401,58.6154466 C102.109754,54.7432978 102.358415,50.8802372 102.635176,47.0161198 C102.918275,43.064292 103.371444,39.1458575 103.778768,35.2058654 Z M40.4635352,80.4485871 C40.3917042,80.015319 40.9365634,79.7469041 41.1877606,80.1431859 C44.0590986,84.6707319 45.4435352,89.5886419 46.0270563,94.8869824 C46.5425493,99.5631076 46.3906479,104.306654 46.1339577,108.995037 C45.8601549,113.995585 45.5407183,118.994865 45.2176901,123.992665 L44.7213961,131.656887 L44.7213961,131.656887 L43.476,150.870505 C43.3868451,152.244916 43.0750141,153.49463 41.8921268,154.133542 C41.742338,154.258661 41.5862113,154.370888 41.4043099,154.46811 C40.7652254,154.809863 39.9176197,154.63719 39.5481127,153.981159 L39.6962687,154.078657 C39.8253211,154.159944 39.6804085,154.046423 39.2614225,153.738528 L38.9058592,153.278207 L38.9058592,153.278207 C38.6474789,152.889746 38.4824789,152.507836 38.4161408,152.046035 C38.3130423,151.328501 38.4465634,150.541432 38.4934648,149.820305 L39.3098028,137.221292 L39.3098028,137.221292 C39.944662,127.426685 40.686,117.634826 41.2448028,107.835147 C41.5050845,103.267867 41.6874085,98.6961487 41.5640282,94.1208376 C41.4410704,89.5708885 41.2093099,84.9437965 40.4635352,80.4485871 Z M65.3031003,-3.89187415 L65.4624085,-3.91862466 C71.1655775,-4.86631937 77.3671268,-4.68899648 82.5793099,-1.93869511 C82.6224085,-1.91608063 82.6027606,-1.84443288 82.5543803,-1.84654638 L80.8767279,-1.9135722 C75.5656862,-2.12163484 70.2710905,-2.24479072 65.0489577,-0.996495499 L64.5143623,-0.867666213 C62.6337249,-0.408721144 60.669812,0.153020369 59.1592394,1.39556712 C57.7154366,2.58335577 56.996493,4.41555147 56.3052254,6.10233816 L56.2127729,6.32493212 C55.511401,7.99086354 54.6236611,9.57082132 53.0863521,10.6125534 C51.0951549,11.9616023 48.7004366,11.7963264 46.4172676,11.9795671 C42.3972676,12.3027217 39.1105775,15.2172423 37.4753662,18.7837785 C36.4851549,20.9433558 36.062831,23.3645847 35.979169,25.7262129 C35.9362817,26.9285847 35.9301549,28.1778763 36.0902958,29.3722168 C36.1414225,29.7541268 36.6133944,31.1454458 36.8540282,31.1120524 C37.3887465,31.0378685 37.8776197,31.3168509 38.0443099,31.7444125 C39.3651549,30.4678568 40.7240282,29.2280759 42.1266338,28.03289 C45.6229014,25.0543303 49.3887465,22.354753 53.354662,20.0349722 C56.381493,18.2642795 59.574169,16.510072 62.8802958,15.1838489 C62.6183239,15.1783538 62.3599437,15.230346 62.1100141,15.3603264 C62.0005775,15.4176023 61.8917746,15.2802247 61.9781831,15.189344 C63.0195211,14.0932814 64.2668451,13.9373049 65.5243099,14.2296023 C65.7926197,14.1442168 66.0611408,14.0615789 66.3307183,13.9831679 C66.4648732,13.9440681 66.5316338,14.1289996 66.4221972,14.200436 L66.1133239,14.3978372 L66.1133239,14.3978372 C67.4850845,14.8575241 68.8319155,15.7610466 69.8981831,16.4741425 C72.9611408,18.5219155 75.6571268,21.0253597 78.3900845,23.4818841 L78.8869898,23.9272208 C81.2926002,26.0759768 83.7594916,28.1640363 86.4926197,29.8879115 C87.9233239,30.7901659 89.4260704,31.6247883 91.002338,32.2455241 C92.3542394,32.7783382 94.5554366,33.1137511 95.1886056,34.5431131 C95.7514225,35.2270427 95.5162817,36.0999194 94.8571268,36.5602403 C93.7454366,37.7841699 91.5216338,36.9935084 90.1969859,36.4837315 C88.6000141,35.8691249 87.0529014,35.1304556 85.5774085,34.2641307 C82.712831,32.5817824 80.0715634,30.4900485 77.6111408,28.2649526 C75.041493,25.9409448 72.6176197,23.472162 70.1183239,21.0752384 C69.0354266,20.036663 67.9775191,18.9737091 66.8929809,17.9366865 L66.3482535,17.4205691 C65.7947324,16.9012814 65.0060704,16.0918098 64.1629014,15.6018998 C62.5743803,16.5498059 60.9613521,17.4586121 59.3871972,18.4310348 C57.1898028,19.7883264 55.0570563,21.2434732 52.9572676,22.7465965 C48.9148732,25.6401933 45.084169,28.8810387 41.5279014,32.3547922 C35.0056479,38.7253127 29.4488873,45.9999898 24.5945915,53.7028626 L24.22596,54.2898877 C21.4674828,58.6987782 18.8588648,63.2498657 17.0092394,68.1216023 C14.9740986,73.4825025 13.9843099,79.1198489 13.4466338,84.8104556 C12.9129718,90.4602716 12.7329718,96.13862 12.1365634,101.783152 C11.5249437,107.572248 10.3198732,113.233477 8.94916901,118.884139 L8.62226223,120.22381 C7.38199255,125.284481 6.10185839,130.345157 5.46430986,135.525227 C5.12395775,138.292225 4.91923944,141.097054 4.96550704,143.886456 C5.01198592,146.692131 5.45269014,149.435669 5.80825352,152.211755 C5.94452113,153.27527 4.89832394,154.162941 3.96219718,154.303912 C2.88557746,154.465595 1.96064789,153.778495 1.626,152.777962 C0.582760563,149.659066 0.393253521,146.211309 0.426,142.937704 C0.458957746,139.614221 0.882971831,136.312506 1.47959155,133.046299 C2.65297183,126.621673 4.46374648,120.329986 5.97853521,113.982291 C7.31353521,108.387426 8.20952113,102.782839 8.69247887,97.0512305 C9.1938169,91.1046787 9.49402817,85.1382599 10.4086056,79.2346121 C11.3113521,73.4064164 13.0099437,67.8394497 15.5715634,62.5250466 C17.9039577,57.686393 20.8114225,53.1320055 23.8595915,48.7175319 C27.5612113,43.3570544 31.6266338,38.2561151 36.171,33.6085221 C35.762831,33.5907687 35.3436761,33.4588861 34.9587465,33.2187922 C33.7811408,32.4839272 33.2326901,31.0465339 33.0640986,29.7340485 C32.6694507,26.6637628 32.7647324,23.4584243 33.5540282,20.456616 C34.827338,15.6141581 38.1319859,11.3114888 42.9214225,9.56594677 C44.154169,9.11661605 45.464662,8.95260822 46.7711408,8.92027162 C48.0108592,8.88941448 49.3648732,9.05109746 50.5610704,8.65798591 C52.4650877,8.03187668 53.2812163,5.78856774 53.9961018,4.08806185 L54.0290282,4.00997025 C54.9457183,1.84299569 56.046,-0.0143506849 58.031493,-1.36741526 C60.1498028,-2.81128562 62.8038746,-3.46791603 65.3031003,-3.89187415 L65.3031003,-3.89187415 Z M119.492725,4.67794286 C121.206528,4.08320313 123.349204,4.62299178 125.02519,5.1424908 C126.892373,5.72159061 128.617796,6.78806419 130.097092,8.0546865 C131.657725,9.39042035 132.947514,11.039798 133.858711,12.8823499 L133.945829,13.0598615 C134.778108,14.7690343 135.725959,17.1154276 135.306317,18.9931209 C135.294275,19.0463812 135.280542,19.0977393 135.264908,19.1474067 C138.665261,20.821935 141.805542,22.9193753 144.54019,25.5777393 C147.724415,28.6729644 150.420613,32.195117 152.702303,36.0002677 C161.764365,51.1134031 163.359325,69.2641392 164.42962,86.4995242 L164.696556,90.8696329 C165.277665,100.306197 165.957835,109.720418 167.724486,119.026694 L167.853385,119.698562 C169.741826,129.442335 172.445092,139.260571 172.171246,149.256127 C172.089063,152.25096 167.664697,152.230671 167.536458,149.256127 C167.0535,138.060268 164.44181,127.250546 162.673289,116.229685 C159.561528,96.8401973 161.120683,76.8506865 156.711528,57.6554301 C154.981246,50.122483 152.300894,42.8154693 148.473359,36.0913597 C146.582725,32.7695671 144.419556,29.5597902 141.885613,26.6940916 C139.705542,24.2282677 137.439697,21.8552266 134.892021,19.7823029 C134.077796,20.5981151 132.451246,20.182389 132.026176,18.9931209 C131.734204,18.1758294 131.819345,17.2203147 131.631951,16.3641346 C131.458077,15.5696689 131.218289,14.7819663 130.898852,14.0337863 C130.262092,12.54271 129.327444,11.1108117 128.2485,9.90400157 C127.082937,8.59954755 125.743289,7.51574325 124.244345,6.62088611 C122.735049,5.7198998 121.084415,5.45085088 119.492725,4.79249472 C119.439063,4.77030294 119.433993,4.69844384 119.492725,4.67794286 Z M126.151099,108.301914 C126.153634,108.223292 126.24638,108.186094 126.303423,108.23872 C126.904268,108.791824 127.267437,109.585656 127.70962,110.265992 C128.21962,111.050524 128.755183,111.818994 129.316732,112.567597 C130.441944,114.067339 131.694549,115.480849 132.957085,116.865828 C134.13131,118.153796 135.382859,119.387448 136.681099,120.550297 C138.087718,121.810579 139.663986,122.934751 140.941944,124.330086 C143.608519,127.241662 144.039419,131.237752 144.602003,134.989912 L144.663634,135.395753 C145.006732,137.62254 145.314127,139.855245 145.59131,142.091119 C145.726099,143.178728 145.860465,144.267393 145.970324,145.35775 L146.003878,145.703202 C146.101816,146.770664 146.128234,147.853601 145.515465,148.786274 C144.859479,149.784059 143.368141,150.133843 142.481451,149.177061 C140.958,147.533389 141.243634,144.613796 141.045465,142.499237 C140.881763,140.750706 140.69602,139.004348 140.488103,137.260564 L140.382296,136.388888 C140.137225,134.405155 139.938211,132.381898 139.48462,130.432614 C139.08469,128.716027 138.322648,127.42045 137.072366,126.176865 C135.812789,124.924192 134.503986,123.754791 133.34138,122.405742 C132.108211,120.9749 130.995887,119.440708 129.993634,117.839519 C129.136399,116.469969 128.449248,114.979587 127.819729,113.490933 L127.715324,113.242861 C127.106873,111.791096 126.103563,109.901202 126.151099,108.301914 Z M148.146655,45.9441722 C148.159965,45.7416986 148.45912,45.7385284 148.463556,45.9441722 C148.501373,47.6856986 148.537711,49.427225 148.573838,51.1689628 C148.864542,65.203045 148.685387,79.2703092 150.092852,93.2562035 C150.756655,99.850544 151.979049,106.347875 153.393486,112.818153 C154.117289,116.128955 154.876585,119.431937 155.598063,122.743162 C156.301162,125.97027 157.055176,129.213018 157.612923,132.470137 C158.160995,135.671345 158.651828,138.897205 158.872146,142.139531 L158.899331,142.562536 C158.99419,144.13308 159.446937,146.443139 158.58243,147.835303 C157.645669,149.343499 155.852218,149.370552 154.848486,147.930834 C153.906021,146.579249 154.140317,144.174928 153.973838,142.562536 C153.804613,140.91971 153.625669,139.275616 153.42243,137.636595 C153.02588,134.439499 152.503415,131.249589 151.960035,128.074262 C150.828275,121.461534 149.186725,114.932078 147.975106,108.329918 C146.733275,101.564806 145.850599,94.7512955 145.813415,87.8633894 C145.776444,80.9169393 146.511444,73.9840157 146.88243,67.0527828 C147.259331,60.0131272 147.687782,52.9787554 148.146655,45.9441722 Z M81.876169,2.29321409 C82.2528592,1.02447828 83.5821549,0.231280626 84.8789155,0.587617221 C86.0672958,0.914364775 87.0484225,2.35725323 86.5838451,3.59175029 C86.0768028,4.93889706 85.1907465,6.08758591 84.4437042,7.31193816 C83.7537042,8.44329628 82.7472254,9.33413777 82.044338,10.4454176 L82.8188924,11.2807822 C83.2064197,11.6974906 83.5950423,12.1117033 83.988,12.518764 L85.3389507,13.9187103 C86.3911099,15.0066697 87.4498944,16.0888297 88.538493,17.1390928 C91.7396197,20.2279773 94.9914507,23.2154137 98.5764507,25.860674 C99.3925775,26.4625996 100.215042,27.0611436 101.060535,27.6216446 L101.3758,27.8306433 C101.955862,28.2105759 102.603046,28.584048 103.303775,28.519672 C105.006508,28.3632692 106.544984,26.5542688 107.715068,25.4283242 L107.77631,25.3697072 C110.675958,22.6096838 113.360958,19.5920243 115.708352,16.3473746 C116.229549,15.6264587 116.734268,14.8932845 117.225676,14.151445 C116.090746,12.8252219 116.361803,10.2363922 116.299268,8.62801644 C116.255113,7.49708102 116.251732,6.36593425 116.245606,5.23415342 L116.242515,5.0059297 C116.22869,4.27339276 116.19568,3.57082001 116.670887,2.96805558 C116.698563,2.93318278 116.755817,2.93423953 116.791099,2.95262701 C117.441965,3.29381683 117.642521,3.86508845 117.920241,4.50588494 L117.949268,4.57241566 C118.287296,5.34151937 118.610958,6.117809 118.938423,6.89135108 C119.28131,7.7012454 119.595676,8.52297534 119.914268,9.34259178 C120.062577,9.72386771 120.204127,10.1066231 120.342507,10.491492 C120.426803,10.7372924 120.514056,10.9818247 120.603634,11.2259342 L120.624761,11.2447444 C120.74307,11.3451358 120.843423,11.4512337 120.929831,11.5607131 C121.293,11.7424744 121.581592,12.0736603 121.717014,12.5601886 C122.011732,13.619265 121.401803,14.4828423 120.857789,15.3233824 C118.64793,18.7388031 116.128775,21.9933863 113.328634,24.9457386 C111.937648,26.4125096 110.47462,27.8133393 108.95138,29.1420986 L108.685092,29.3728302 C107.316737,30.5491807 105.831143,31.6634904 104.003704,31.9386857 C101.865131,32.2606199 100.124646,31.1966153 98.4875709,29.9710575 L98.3241972,29.8480086 C96.7722254,28.6726896 95.2515211,27.4561573 93.7781408,26.1836172 C90.7741268,23.589081 87.9163099,20.8032728 85.3800423,17.7469362 C82.9128592,14.774083 80.4741972,11.4499656 78.953493,7.87286184 C78.8607465,7.65495969 79.1045493,7.42691272 79.2955352,7.60888532 C80.0383521,8.31627476 80.7530704,9.06212994 81.459338,9.81749589 C81.4789859,8.705582 81.2738451,7.58415734 81.3879296,6.46526888 C81.5271549,5.10522975 81.4870141,3.60274051 81.876169,2.29321409 Z" id="ðŸ–-Ink" fill="#000000"></path>
                    </g>
                    <g id="head/Bun-2" transform="translate(78.591549, 38.043053)" fill-rule="evenodd">
                        <path d="M83.9792324,51.518029 C83.4772606,45.0202755 84.2551479,38.2097237 81.7507817,32.0336454 C77.3843028,21.7863264 65.1400775,18.3696376 55.6476127,14.4683225 C51.8447611,13.3442291 39.0486032,13.1871104 34.5959155,11.6993378 C24.5183786,8.33213934 22.1106103,4.32017126 14.1031056,10.731438 C12.7514155,11.8266552 11.9057113,13.01698 11.2888099,14.6433205 L11.314162,14.6502951 C11.1379648,15.3283068 11.326838,16.0048391 11.7238099,16.5215906 C8.25183803,20.0718528 6.7989507,25.3944986 8.58035915,30.1205025 C14.3938099,42.4187648 14.1204296,49.0684791 12.247331,62.289708 C9.80127465,74.6325652 15.3907817,79.141301 24.6476831,85.8571679 C24.2707817,86.5882286 24.1926127,87.5598059 24.6840211,88.204847 C35.3883169,103.252777 55.5713248,110.437498 72.8642122,102.799721 C79.8835784,99.6742733 83.017331,92.1959859 84.8057113,85.4482051 C86.8890211,77.8926434 87.529162,69.9310779 85.8331056,62.2345456 C85.1490211,58.674984 84.2578944,55.141207 83.9792324,51.518029 Z" id="ðŸŽ¨-Background" fill="#FFFFFF"></path>
                        <path d="M22.2346479,-20.4719812 C23.5339807,-20.6671651 24.5151988,-19.8607111 24.9819667,-18.7240285 L25.0064789,-18.6628227 C25.1564789,-18.2760517 25.3233803,-17.8998481 25.5029577,-17.5299851 C28.7543662,-19.1256798 33.3938028,-18.7156603 35.4515493,-15.4841143 C36.9198592,-13.1761691 36.0240845,-10.4370693 35.4705634,-7.98963288 L35.1071831,-6.37703014 C35.8095951,-5.92986575 36.3392879,-5.12909119 36.3144215,-4.29988718 L36.3114085,-4.23605166 L36.1635211,-1.98728454 C36.6325352,-2.4628227 37.0614085,-2.98063092 37.4438028,-3.53225519 C37.7078873,-4.01624736 37.9930986,-4.49178552 38.2994366,-4.95252916 C40.1015493,-7.66415342 44.1473239,-5.30759765 42.66,-2.40364462 C42.3747887,-1.84356634 42.053662,-1.3130771 41.7092958,-0.801609393 C41.3205634,-0.0470888454 41.0015493,0.728566732 40.7564789,1.52535734 C41.46,1.83181526 42.0008451,2.51236321 42.0578873,3.53952564 C42.1909859,5.93835147 40.931831,7.93983875 38.9290141,9.19737299 C38.3395775,9.56723601 37.7311268,9.63909511 37.1797183,9.50171742 C37.0825352,9.6327546 36.9853521,9.76379178 36.8923944,9.89694247 C37.6909859,10.5457879 38.4114085,11.2855139 39.0304225,12.105553 C40.8938028,11.8265706 42.7677465,11.6955335 44.6416901,11.6913065 C46.931831,10.5690364 49.6740845,10.5922849 52.1353521,11.012872 C53.7198592,11.2834004 55.2409859,11.8096626 56.8001408,12.1879796 C58.4438028,12.5853182 60.1128169,12.6001127 61.775493,12.8706411 C63.8712676,13.2109151 65.7092958,14.1788994 66.8649296,15.7238701 C68.1346479,15.7619131 69.4698592,16.2818348 70.5769014,16.9877448 C73.1543662,18.6320501 75.7170423,20.2996039 78.288169,21.9544767 C79.2749208,22.5898045 79.6438753,23.6040612 79.4624669,24.73534 L79.4501408,24.8077057 L79.3635211,25.2769033 L79.5669365,25.5656921 C80.3537713,26.6772766 81.2099155,27.8415969 81.7191549,29.0685276 C82.6614085,30.42751 83.5128169,31.852011 84.2670423,33.3208955 C85.2832394,35.2949072 86.1219718,37.3872751 86.6902817,39.5345941 C86.831831,40.0777644 86.9733803,40.6251616 87.066338,41.1788994 C87.1994366,41.9608955 86.994507,42.5674708 86.8825352,43.3177644 C86.7430986,44.2688407 86.6923944,45.232598 86.544507,46.1857879 C86.4452113,46.8177252 85.9085915,47.1284102 85.3466197,47.1453182 C85.5578873,48.7536939 85.71,50.3726372 85.8557746,51.9788994 C86.0607042,54.2741636 86.2001408,56.5757683 86.3205634,58.877373 C86.9416901,59.7798387 88.2114085,60.4942027 89.1283099,60.7414826 C90.3980282,61.0817566 91.7290141,60.7118935 92.9290141,60.2786254 C93.6832394,60.0059836 94.3022535,60.9549464 93.9346479,61.5889973 C92.7790141,63.579917 90.3071831,63.571463 88.4353521,62.6901323 C87.6430986,62.3181558 86.9480282,61.7792125 86.4325352,61.0775295 C86.4642254,61.7453965 86.4980282,62.4132634 86.531831,63.0832438 L86.5633139,63.6900899 C86.9439234,70.7770778 87.7656338,78.1078427 86.4346479,85.1249659 C84.1297183,97.2797213 74.0749724,106.534642 61.7923944,107.253342 C55.3470357,107.630484 49.9796967,105.726004 47.3106934,104.663606 C44.6416901,103.601209 45.6790407,101.435044 47.5318732,102.054258 C50.7236874,103.120957 56.5872399,104.710152 61.8346479,104.023909 C74.2022535,102.406506 84.6895775,96.2225963 83.6121127,69.5886059 C83.4593178,65.8116489 82.9888732,62.0328329 82.8874648,58.2560031 C82.7902817,54.5637135 82.8261972,50.8693104 82.6635211,47.1791342 L82.6092755,45.9200779 C82.545759,44.4489059 82.4778404,42.9709151 82.3677465,41.4980384 C82.2346479,40.9273926 82.1247887,40.3482928 81.9621127,39.7882145 C81.5205634,38.2643789 80.9438028,36.7828133 80.2276056,35.3688798 C80.0691549,35.4893495 79.8916901,35.5760031 79.6994366,35.6098192 C78.2395775,35.8718935 76.8705634,35.7979209 75.503662,35.1892321 C74.8656338,34.9081362 74.303662,34.5340462 73.7797183,34.071189 C73.5304225,33.8534982 73.3635211,33.6421479 73.2325352,33.4223436 C72.5712676,33.4329112 71.91,33.2342419 71.4959155,32.7587037 C71.0236302,32.2166925 70.9450808,31.6568671 71.1300646,31.138608 L71.1494366,31.0869229 L71.1029577,31.0700149 C70.5452113,32.5135374 69.4339437,33.7837526 68.2149296,34.6418348 C66.288169,36.0029307 63.8776056,36.3960423 61.566338,36.4319718 C59.0142254,36.4700149 56.3226761,36.0769033 53.8043662,35.6753378 C53.1388732,35.5696626 52.4776056,35.449193 51.8290141,35.2864532 C51.803662,35.3118153 51.7783099,35.3414043 51.7508451,35.3667663 C49.5895775,37.4358857 46.5494366,37.9684885 43.8071831,36.7870403 C42.2226761,36.1043789 40.8938028,35.0053573 39.7191549,33.7457096 C39.7022535,34.4051225 39.6684507,35.0645354 39.6114085,35.7176078 L39.5877865,35.9769406 C39.4708263,37.193265 39.2457746,38.4834787 38.3269014,39.3612869 C36.8416901,40.7836744 34.6867606,40.2130286 32.9733803,39.2873143 C32.975493,39.3316978 32.975493,39.3781949 32.975493,39.424692 C33.438169,40.9971382 33.9029577,42.5716978 34.3677465,44.1462575 L34.4678581,44.4816725 C34.8058387,45.5997013 35.1765173,46.7191592 35.2783099,47.8892712 C35.4726761,50.1253573 33.9853521,52.3339679 31.5008451,51.5836744 C30.1976258,51.191529 29.1535844,50.0953404 28.1518089,49.2173454 L27.5205634,48.6712673 C29.153662,54.0120892 30.2860563,59.5431264 30.3916901,65.1164337 C30.3980282,65.4186646 30.138169,65.6469229 29.8508451,65.6574904 C29.1790141,65.6849659 28.4564789,65.5518153 27.7804225,65.2834004 C27.7423944,65.2812869 27.7043662,65.2791734 27.6642254,65.2728329 C26.5107042,65.1058661 25.4395775,64.6895061 24.4952113,64.0744767 C24.7128169,64.7655922 24.81,65.5074317 24.7529577,66.2830873 C24.738169,66.471189 24.444507,66.5367076 24.4022535,66.3295843 C23.8571831,63.6475491 20.7198592,61.6206998 18.0156338,62.134281 C15.1128169,62.6859053 12.9747887,65.1840658 12.4508451,68.0267272 C11.8888732,71.0807389 12.9642254,74.6124023 14.9564789,76.9689581 C15.8733803,78.0552986 17.0797183,78.9619914 18.5121127,79.1902497 C19.1670423,79.2938114 19.8473239,79.2578818 20.4832394,79.0718935 C20.753662,78.9915804 21.0071831,78.8795648 21.2649296,78.7738896 C21.6409859,78.6217174 22.0804225,78.5984689 22.4353521,78.4378427 C23.2402817,78.0764337 24.0494366,78.8182732 23.6416901,79.6446528 C23.2867606,80.3653573 22.9677465,80.851463 22.3783099,81.2234395 C22.8557746,81.8067663 23.2888732,82.6183515 23.4494366,82.8360423 C24.2691549,83.9435178 25.1015493,84.9897018 26.0353521,86.0020697 C26.9860563,87.0292321 28.0233803,87.9676274 29.1198592,88.8362771 L29.5807403,89.2005922 C30.6368926,90.0385631 31.5565669,90.8150442 32.3015493,92.017099 C32.8888732,92.9660618 32.1283099,94.2531851 31.0276056,94.2383906 C27.5839437,94.18978 25.0804225,91.1632438 23.2973239,88.5192517 C23.0438028,88.1409346 22.8050704,87.7414826 22.5832394,87.331463 C22.5029577,87.4603867 22.4142254,87.5808564 22.3149296,87.6907585 L22.5114085,88.2191342 C23.094507,89.7746724 20.5825352,90.7912673 19.853662,89.3392908 C19.3233803,88.2867663 18.7085915,87.2849659 18.0240845,86.3381166 C17.6205634,86.2810521 17.225493,86.0358857 17.0057746,85.7188603 C16.4501408,84.9136157 15.8269014,84.099917 15.3008451,83.2418348 C15.0092958,82.9649659 14.7092958,82.6986646 14.4029577,82.4387037 C14.3142254,82.5169033 14.2233803,82.5951029 14.1367606,82.6775295 C13.7522535,83.5546333 13.2769014,84.3556509 12.6874648,85.1101714 L12.5610893,85.2711401 C11.4318843,86.694834 9.96103713,88.1519633 8.14098592,88.5002301 C7.58535211,88.6059053 7.05084507,87.9147898 7.54309859,87.4730677 C8.81704225,86.3275491 10.3233803,85.5476665 11.4980282,84.2689973 C12.0767505,83.6390224 12.6081101,82.9452651 13.0650425,82.2181846 L13.1691549,82.0498192 C13.2452113,81.9251225 13.3233803,81.8004258 13.403662,81.6736157 C12.8733803,81.3122067 12.3430986,80.9486841 11.8128169,80.5851616 C10.3530259,81.8328102 8.45201316,82.4035219 6.83738288,83.4370178 L6.67690141,83.5419523 C5.21704225,84.5183906 3.67901408,82.3583906 4.84943662,81.1727155 C6.13964789,79.8705863 7.21669014,78.3177957 8.35964789,76.8704689 C7.8221831,75.8800814 7.5678169,74.7089894 7.47253521,73.5254278 C7.43492958,73.1904376 7.40556338,72.855236 7.37619718,72.5200344 C6.55647887,72.5327155 5.73253521,72.2516196 5.03535211,71.7676274 L4.77126761,71.5795256 C3.92408451,71.850054 3.03464789,71.9810912 2.18323944,71.9578427 C0.180422535,71.8986646 -0.639295775,69.6097409 0.613521127,68.1619914 C1.89169014,66.6825393 4.12901408,66.3591734 5.9015493,67.0777644 C5.95859155,67.0481753 6.01774648,67.0164728 6.07478873,66.9847703 C5.99028169,66.5958857 6.00908451,66.2431421 6.10521127,65.9333025 L6.07732394,65.7443554 C5.68753521,65.1460227 5.43126761,64.4629386 5.33408451,63.7411773 C5.2571831,63.1694748 5.2728169,62.6028446 5.40507042,62.038328 C5.44901408,61.8504376 5.54049296,61.655784 5.61042254,61.4598622 C5.46633803,61.095917 5.38161972,60.7197135 5.35542254,60.3413965 C5.31507042,60.29342 5.27492958,60.2441753 5.23690141,60.1909151 C4.35739437,58.9555726 4.53507042,57.4670325 5.37211268,56.4673456 C5.37591549,56.4037292 5.38183099,56.3401127 5.39049296,56.276919 C5.34147887,56.1665941 5.29647887,56.0552125 5.25549296,55.9425628 C4.43767606,55.1172399 3.83725352,54.1241049 3.94922535,52.8934121 C4.01492958,52.169326 4.31239437,51.5175217 4.76260563,51.0303593 C4.68274648,50.7940697 4.67514085,50.520371 4.77190141,50.2919014 C4.05338028,48.3800266 4.14422535,46.0773652 4.66140845,43.9391342 C4.54732394,43.6136548 4.48816901,43.2606998 4.50084507,42.8866098 C4.56,41.2993691 5.93323944,39.8410521 7.56,39.8600736 C7.75584507,39.8617644 7.93922535,39.8873378 8.11542254,39.9247468 L8.11774648,39.8869151 C8.18007042,39.4105315 8.31105634,38.9702888 8.50225352,38.5752751 C8.40823944,38.5412477 8.32119718,38.4924258 8.24492958,38.4275413 C7.20253521,38.9838153 6.09950704,39.4090521 4.94302817,39.6988133 C4.09267606,39.9118544 3.22161972,38.9449268 3.75021127,38.1464454 C3.99549296,37.7759483 4.26612676,37.443283 4.55767606,37.1393613 C4.14316901,37.1416861 3.72232394,37.1697957 3.29661972,37.2245354 C2.53183099,37.3238701 1.67830986,36.8018348 1.18183099,36.0959249 C0.564929577,36.6961597 -0.054084507,37.294281 -0.673098592,37.8924023 C-2.24070423,39.412011 -4.60901408,38.2939679 -4.85619718,36.2903671 C-5.32309859,36.1656705 -5.75830986,35.9543202 -6.14070423,35.6520892 C-8.61253521,36.7257487 -11.2723944,37.315416 -13.9914085,37.4274317 C-15.9435211,37.5077448 -17.0843662,35.2336157 -16.1716901,33.6273534 C-15.5590141,32.5494669 -14.7984507,31.5814826 -13.9216901,30.7403084 C-15.2822535,31.1566685 -16.6871831,31.4567859 -18.1216901,31.6491147 C-18.8970423,31.7526763 -19.9935211,31.1101714 -20.3040845,30.3979209 C-21.4914085,27.6588211 -21.39,24.8034787 -20.0230986,22.1383515 C-19.9702817,22.0326763 -19.9111268,21.9312282 -19.8540845,21.82978 C-19.7125352,21.476825 -19.5583099,21.1280971 -19.3914085,20.7857096 C-21.0730986,19.0315022 -21.2188732,16.4234395 -20.3125352,14.240191 C-20.6759155,13.6505237 -20.8153521,12.9403867 -20.568169,12.2978818 C-19.8646479,10.4485667 -18.8505634,8.74085636 -17.5702817,7.27408532 C-17.6928169,7.03737299 -17.8005634,6.78586614 -17.8914085,6.51533777 C-18.611831,4.32786223 -17.7773239,1.68809706 -16.0935211,0.164261448 C-15.0350704,-0.795268885 -13.818169,-1.37014168 -12.5188732,-1.73789119 C-11.9716901,-2.70587554 -11.268169,-3.57875225 -10.4484507,-4.31425127 C-10.4167606,-4.38399687 -10.3850704,-4.45374247 -10.3491549,-4.52348806 C-9.07309859,-6.9286544 -6.74915493,-8.21789119 -4.25830986,-8.51589511 C-4.16112676,-9.45640391 -3.52732394,-10.3546427 -2.60619718,-10.6463061 C-2.35267606,-11.4600047 -1.97450704,-12.2377738 -1.45478873,-12.9436838 C-0.637183099,-14.0553863 0.721267606,-14.579535 2.0015493,-13.8503765 C2.70295775,-13.4509245 3.37478873,-12.9922943 4.0043662,-12.4850536 C4.28713976,-12.6177166 4.60771648,-12.7035573 4.9694197,-12.7309395 L5.06070423,-12.7365605 L7.14380282,-12.8422356 C8.01633803,-13.2290067 8.88676056,-13.6347992 9.75929577,-14.0300243 C10.2832394,-14.4632924 10.8684507,-14.8247014 11.5064789,-15.0931162 C12.2290141,-15.3953472 12.9684507,-15.5665409 13.71,-15.6236055 C14.3121127,-15.8201613 14.9184507,-15.9934685 15.5353521,-16.1287327 C16.9846479,-16.4457581 18.5015493,-16.6232924 20.0057746,-16.6084978 C20.0365594,-16.9979862 20.0518224,-17.392133 20.0489028,-17.790938 L20.0459155,-17.9907288 C20.0121127,-19.269398 21.0325352,-20.29022 22.2346479,-20.4719812 Z M20.7747887,81.8321284 C20.5677465,81.8765119 20.3585915,81.9124415 20.1494366,81.9378035 C20.2128169,82.0942027 20.2761972,82.250602 20.3374648,82.4070012 C20.5064789,82.5021088 20.6776056,82.5929894 20.8487324,82.6775295 C20.7980282,82.3900932 20.7684507,82.1005432 20.7747887,81.8321284 Z M9.92049296,78.6054434 L9.78003912,78.8641675 C9.757277,78.9065002 9.73485915,78.9483241 9.7128169,78.9894669 C10.0107042,78.9662184 10.3107042,78.9725589 10.6064789,79.006375 L10.6056338,78.9748838 C10.5676056,78.9619914 10.5295775,78.9501558 10.4932394,78.9324023 C10.2891549,78.8343358 10.0994366,78.7244337 9.92049296,78.6054434 Z M15.7867606,66.8009166 C17.655892,66.9098207 19.2394617,67.1965217 20.9393529,68.0145043 L21.0853521,68.0859264 C22.5874648,68.831993 25.0719718,70.2099969 24.8628169,72.1861221 C24.803662,72.7483139 24.3959155,73.3400947 23.753662,73.2957112 C21.9938028,73.1752415 20.988169,71.399899 19.7966197,70.2924235 C18.594507,69.1764939 17.1177465,68.0288618 15.6621127,67.2616603 C15.4563531,67.1536452 15.5374055,66.8117672 15.7613026,66.8007505 L15.7867606,66.8009166 Z M7.31070423,40.7646528 C6.8628169,40.7794474 7.0128169,41.214829 7.24309859,40.8513065 C7.26211268,40.8217174 7.28535211,40.7921284 7.31070423,40.7646528 Z M31.4873239,11.6993378 C27.245493,11.8109307 22.9764085,14.3164885 19.7987324,16.849099 C17.0342958,19.0524258 14.6471831,21.6731695 12.5334507,24.4978661 C11.9896479,25.9046137 11.5227465,27.3407389 11.1283099,28.7874317 C10.8684507,29.742735 10.7057746,30.7086059 10.488169,31.6723632 L10.4205634,31.9678309 C10.2496479,32.2873926 10.1226761,32.6312595 10.0301408,32.9865393 C10.4152817,33.3728877 10.9149296,33.6495452 11.4650704,33.7807937 C11.6423239,33.8230638 11.7895775,33.9145785 11.9059859,34.0358935 C12.3488028,33.2965902 12.7358451,32.5162849 12.9610563,31.6890599 L12.9692958,31.6508055 C13.820493,30.2561049 14.745,28.9047311 15.7360563,27.5996431 C18.4698592,23.9961205 21.4804225,20.711737 25.0994366,17.9789777 C27.8438028,15.9077448 30.9114085,14.2845746 34.1733803,13.2299366 C33.375,12.5855295 32.4682394,12.0757526 31.4873239,11.6993378 Z" id="ðŸ–-Ink" fill="#000000"></path>
                    </g>
                    <g id="face/Smiling" transform="translate(112.183099, 77.354207)" fill="#000000" fill-rule="evenodd">
                        <path d="M30.968993,50.9198978 C29.548794,50.3403012 28.2816173,49.3734958 27.3551889,48.1384646 C27.0331038,47.7091169 26.9495926,47.2557326 27.017159,46.8410547 C27.0931327,46.3747786 27.3688808,45.9521824 27.7449394,45.6687178 C28.1221628,45.3843752 28.5940214,45.2441445 29.0502103,45.3156301 C29.4466117,45.3777469 29.8412104,45.5948709 30.1535058,46.0451781 L30.2187521,46.1352289 C30.7695298,46.8806513 31.4872438,47.4922614 32.3050288,47.8864795 C33.0932406,48.2664417 33.9747757,48.4437847 34.8870208,48.3406561 C36.6244504,48.1443157 37.8219743,47.2043274 39.0948115,45.9278391 C39.2525834,45.7666792 39.4104563,45.6004672 39.5690946,45.4315797 C39.6692778,45.278484 39.8083069,45.1800892 39.962667,45.1284632 C40.1340565,45.0711416 40.327938,45.0743848 40.5055187,45.1363808 C40.6767961,45.1961763 40.8299095,45.309486 40.9325762,45.4602937 C41.0301525,45.6036243 41.0854754,45.7806897 41.0675245,45.9843589 C40.9510195,47.3072301 40.2596776,48.4878363 39.2776553,49.4148615 C38.1869942,50.4444414 36.7412431,51.1567117 35.3801317,51.4065272 C33.8805866,51.6817086 32.3525901,51.4845569 30.968993,50.9198978 L30.968993,50.9198978 Z M36.0875289,30.5120405 C37.6828906,31.482148 40.1137318,33.7442494 38.3974899,36.149264 C36.3773089,38.2698449 33.4687045,35.8384541 32.0353946,34.7388307 C30.7063626,33.8866164 29.2131206,36.0784478 30.4461973,37.0735516 C40.8033244,44.7445605 45.006466,30.7657101 36.8944406,29.3714319 C36.0012775,29.2177885 35.6695544,30.2119271 36.0875289,30.5120405 Z M17.5274577,21.5886716 C17.7037243,19.3998697 21.0359789,18.9028321 21.3674577,21.0687499 C21.6642887,23.0089456 21.3148521,24.7912626 20.4412606,26.5380728 C19.6065423,28.2068947 17.5085456,27.4283107 17.3498837,25.9087021 C17.1372039,23.8717299 17.4178099,22.9502317 17.5274577,21.5886716 Z M42.8930282,20.6196517 C43.3576056,20.0109628 44.0283803,19.5954481 44.8320423,19.8302583 C47.3429577,20.5642779 46.6028873,24.1303914 45.7210563,25.8662114 C45.2419014,26.8088337 43.6930986,27.0478708 42.993169,26.2178982 C41.8523239,24.864411 41.3059859,22.1614521 42.756338,20.8282544 C42.7956338,20.7593542 42.8393662,20.68982 42.8930282,20.6196517 Z M20.4058944,12.0111429 L20.802522,11.9416942 C22.0295218,11.7294045 23.5551549,11.5254176 24.4231479,12.5122544 C24.8835,13.0355577 25.0419507,14.0081918 24.4231479,14.509092 C23.3346972,15.3904227 22.1313169,15.0488806 20.8269507,15.1234873 C19.7520211,15.1852016 18.7189225,15.3631585 17.6835,15.6592603 C15.4119507,16.3087397 13.5610352,17.4944149 11.6209648,18.7963327 C11.3663873,18.9671037 11.1065282,18.6414129 11.228007,18.4032211 C12.3479366,16.208771 14.5182887,14.4061644 16.6922324,13.3073542 C17.8525141,12.7208571 19.1222324,12.2343288 20.4058944,12.0111429 Z M40.6041287,11.0281289 L40.9077055,11.0902829 C44.2113469,11.7811043 48.5035506,13.1610768 50.0679842,16.4073021 C50.1275964,16.8663298 50.0646105,16.9647086 50.0133917,17.0289838 L49.9963385,17.0503723 C49.9541341,17.1052595 49.9204583,17.1809212 49.7215736,17.2433957 C49.6663832,17.2302408 49.6106433,17.216308 49.5543131,17.2015401 C48.8372041,17.0135386 48.2698321,16.7545401 47.720556,16.4857982 L47.1250012,16.192275 C46.4340388,15.8533498 45.7369757,15.5267598 44.9982488,15.2856588 C43.4217423,14.7712438 41.8001698,14.4088706 40.1534741,14.2153715 C39.7965654,14.1734678 39.4528848,14.0529641 39.1817455,13.8464404 C38.92438,13.6504079 38.7277692,13.3789964 38.6381257,13.0182314 C38.5219478,12.5513438 38.5553348,12.1978716 38.8057421,11.7766707 C38.9940329,11.4603578 39.263447,11.2411116 39.5728025,11.115213 C39.888177,10.9868648 40.2472278,10.9566068 40.6041287,11.0281289 Z" id="ðŸ–-Ink"></path>
                    </g>
                    <g id="facial-hair/Full" transform="translate(104.577451, 109.479380)" fill="#000000" fill-rule="evenodd">
                        <path d="M24.8714257,20.1190753 C26.5818995,16.1103389 30.3151083,13.1641387 34.613341,12.0870037 C37.7697106,11.2980357 41.0822108,11.3232133 44.2997667,11.6363462 C45.9855551,11.79926 47.793716,11.9327646 49.3824502,12.5590305 C50.7390983,13.094107 51.8446716,14.1054418 52.6759615,15.2925964 C53.6654918,16.6993673 54.3385412,18.3094631 54.8111527,19.9597583 C54.8782466,20.1943964 54.9413318,20.4307272 55.0001973,20.6683274 C54.7946957,21.913454 54.358374,22.9732397 53.2055395,23.7560721 C52.0805554,24.5204973 50.7382544,24.8332071 49.4001731,24.9442846 C49.268939,24.8812349 49.1421356,24.8164925 49.0258817,24.7500576 C46.9406944,23.5559209 45.473067,20.733916 42.8412117,21.1158113 C40.4925014,21.4568723 38.9463867,24.4132281 37.5496509,26.1468844 C33.0661714,26.6694779 28.5860676,25.3217368 24.9380977,22.7570087 C24.7528508,21.8791786 24.7420905,20.9939433 24.8714257,20.1190753 M58.0474865,17.0780889 C57.6888081,16.0711973 57.2370843,15.0960421 56.7015987,14.1773777 C54.9314154,11.1393534 52.2138994,8.71870887 48.987904,7.33499979 C41.3564943,4.06614578 31.4822899,6.37042339 25.3193517,11.7315555 C23.2141207,13.5642296 21.0854701,16.2573844 20.4417479,19.1542873 C20.2495385,19.192371 20.0680894,19.2924466 19.9187104,19.4333564 C15.466035,16.6289124 10.8806486,13.9306797 7.29259907,10.0431766 C4.68690625,7.21863282 2.87452557,3.87593867 1.76473252,0.202762327 C1.67400799,-0.0995802223 1.18662739,-0.0553607732 1.2013965,0.279141375 C1.20561624,0.357424611 1.20983599,0.43549627 1.21405573,0.513779505 C1.16763853,0.369907613 0.94821177,0.443959322 0.931332788,0.583599688 C0.334238806,5.0457441 -0.412656141,9.77659043 0.275162369,14.2620082 C0.686587551,16.9384486 1.90187424,18.8978568 3.52647625,21.0136199 C5.26712125,23.2815064 7.23774238,25.3909222 9.25267083,27.4138033 C10.5312537,28.69786 11.8668031,30.1788941 13.4323287,31.1204087 C15.2531489,32.2142583 17.3187143,33.0459647 19.2619071,33.8899427 C21.2388578,34.7510582 23.2453468,35.5465852 25.2898135,36.2363239 C29.3766369,37.620033 33.6006021,38.576358 37.8984129,38.9952791 C41.3396153,39.3295696 45.2724181,39.6936925 48.5701492,38.3986339 C51.0977767,37.406341 53.1380236,35.6123854 54.756296,33.4540955 C56.5180397,31.1034826 57.9107667,28.4259844 58.6806593,25.6024985 C59.480723,22.6696277 58.2160653,17.550962 58.0474865,17.0780889" id="ðŸ–-Ink"></path>
                    </g>
                    <g id="accessories/*-None" transform="translate(88.521127, 88.978474)"></g>
                </g>
            </g>
        </g>
    </g>
</svg>