<?xml version="1.0" encoding="UTF-8"?>
<svg width="240px" height="324px" viewBox="0 0 240 324" version="1.1" xmlns="http://www.w3.org/2000/svg" xmlns:xlink="http://www.w3.org/1999/xlink">
    <!-- Generator: Sketch 62 (91390) - https://sketch.com -->
    <title>peep-26</title>
    <desc>Created with Sketch.</desc>
    <g id="Introduction" stroke="none" stroke-width="1" fill="none" fill-rule="evenodd">
        <g id="variations" transform="translate(-846.000000, -1406.000000)">
            <g id="images" transform="translate(126.000000, 110.000000)">
                <g id="a-person/bust" transform="translate(720.000000, 1296.000000)">
                    <g id="body/Sweater-Dots" transform="translate(31.056338, 135.052838)" fill-rule="evenodd">
                        <path d="M24.9119215,152.753119 C31.9614243,152.774919 38.8112317,153.016339 45.8805383,153.039931 C74.6169435,153.135834 103.617783,152.996234 132.458423,151.830884 C140.609878,151.501511 142.644634,151.509615 150.760907,150.998518 C155.55309,150.981352 169.947978,150.584892 169.227344,144.055187 C168.909175,131.893552 165.899245,119.783413 164.951288,107.654661 C163.131851,84.8537412 161.582414,61.3397302 152.446147,40.0138 C150.331358,34.9208245 145.789527,31.5903089 141.293541,28.5954506 C136.784668,25.3646189 135.678106,21.7774763 131.516768,18.1276415 C130.636855,17.3558127 125.640149,17.0417296 122.951731,15.0841549 C119.038711,12.2348842 117.098184,7.56998909 115.63826,6.77585798 C114.563964,6.19161142 114.583622,2.16045402 112.430433,0.73365108 C109.541028,-1.18100267 100.333391,-2.60465811 96.9834791,-2.87093114 C93.7681796,-3.12650432 88.1757182,-2.58966651 85.1590153,-1.41185023 C80.1282454,0.552321601 78.1217209,4.2990663 75.9062173,9.12608026 C46.6357243,18.1760078 19.8818511,33.50064 11.5731187,64.411316 C4.40797787,90.3361455 4.14537223,118.129116 6.9134004,144.717609 C7.4671328,146.661857 7.07903421,149.709866 8.75861167,150.998518 C2.92171026,151.333555 24.1200905,152.53762 24.9119215,152.753119 Z" id="ðŸŽ¨-Background" fill="#FFFFFF"></path>
                        <path d="M158.045007,127.154804 C157.491063,126.878146 156.913669,126.561755 156.281134,126.539775 C155.194796,126.501943 155.193317,124.810929 156.281134,124.848972 C157.229937,124.882154 158.063176,125.277802 158.898106,125.694796 C159.872261,126.181324 159.015359,127.639219 158.045007,127.154804 M156.281134,79.562522 C157.022472,79.5631562 157.769725,79.6567843 158.339092,80.175438 C158.677542,80.4840094 158.650711,81.0590935 158.339092,81.3710466 C158.0055,81.704346 157.481134,81.6783499 157.143739,81.3710466 C157.25381,81.4710153 157.144796,81.371892 157.104866,81.3497002 C157.095359,81.3446278 157.090077,81.3410348 157.087542,81.33871 C157.079092,81.3365965 157.070641,81.3349057 157.056908,81.3313127 C156.968599,81.3091209 156.881345,81.2873519 156.791979,81.2712892 C156.7905,81.2755162 156.603317,81.2588196 156.559373,81.2571288 C156.466415,81.2537472 156.37388,81.2533245 156.281134,81.2533245 C155.822683,81.2531131 155.436063,80.8667648 155.436063,80.4079233 C155.436063,79.9514067 155.824373,79.5623108 156.281134,79.562522 M148.334303,98.5282521 C148.09219,99.5902873 146.463106,99.1379977 146.704585,98.07871 C147.055711,96.5386004 146.991697,94.9606591 146.704585,93.4150544 C146.506838,92.3498489 148.135923,91.8973479 148.334303,92.9657237 C148.678669,94.8196885 148.755782,96.6802051 148.334303,98.5282521 M146.199655,37.7629292 C144.940923,37.4638685 143.695923,37.4283616 142.408458,37.4279389 C141.319162,37.4275162 141.320852,35.7367139 142.408458,35.7371365 C143.844444,35.7375593 145.246204,35.7992736 146.649021,36.132573 C147.708317,36.3842912 147.257049,38.0140133 146.199655,37.7629292 M141.981908,78.9466474 C141.251979,78.5814341 140.521627,78.2162207 139.791697,77.8510074 C138.817331,77.363845 139.674444,75.9059507 140.644585,76.3909996 L142.835007,77.4868509 C143.808951,77.9740133 142.952049,79.4319076 141.981908,78.9466474 M141.677894,112.242984 C140.751908,113.578506 139.449866,114.408268 137.887331,114.822726 C136.833106,115.102342 136.387331,113.470929 137.437965,113.192369 C138.555359,112.896056 139.548106,112.356479 140.218458,111.389551 C140.834725,110.500612 142.299232,111.346859 141.677894,112.242984 M135.837824,52.7132149 C135.587261,52.2448626 135.210148,52.0470387 134.741979,52.0364712 C133.654373,52.0115319 133.654162,50.3207295 134.741979,50.3456689 C135.80888,50.3697628 136.787261,50.9057472 137.297049,51.8599937 C137.810218,52.8201581 136.35057,53.6733793 135.837824,52.7132149 M125.117683,64.2060211 C124.814725,64.5361503 124.22719,64.5279076 123.922542,64.2060211 C123.735993,64.0090427 123.579232,63.789027 123.455852,63.5478763 C123.408951,63.4563616 123.364796,63.3631562 123.313246,63.2741777 C123.290218,63.2346552 123.264655,63.195344 123.238458,63.157301 C123.229585,63.149481 123.211204,63.1304595 123.19219,63.1103812 C122.867472,62.766937 122.875711,62.2599076 123.19219,61.9147726 C123.495359,61.5846434 124.082894,61.5928861 124.387542,61.9147726 C124.57388,62.1117511 124.730852,62.3317667 124.854021,62.5729174 C124.900923,62.6644321 124.945077,62.7576376 124.996838,62.8468274 C125.019866,62.8863499 125.04543,62.9254497 125.071627,62.9634928 C125.0805,62.9713127 125.098669,62.9903342 125.117683,63.0104125 C125.442613,63.3538568 125.434373,63.8608861 125.117683,64.2060211 M124.216415,89.17262 C123.115711,89.6764791 121.908528,89.6764791 120.807824,89.17262 C120.390993,88.9817706 120.29212,88.3796337 120.504866,88.0158998 C120.751204,87.5944673 121.246204,87.5228196 121.660923,87.7126121 C122.160148,87.9410818 122.864937,87.9408705 123.363528,87.7126121 C123.780148,87.5219742 124.270289,87.5896063 124.519585,88.0158998 C124.733599,88.3819585 124.631556,88.982616 124.216415,89.17262 M121.214092,106.844675 C121.025007,107.292526 120.616627,107.530506 120.139162,107.548683 C119.666134,107.566647 119.313951,107.146906 119.294092,106.703281 C119.281415,106.41669 119.436275,106.171735 119.658739,106.019986 C119.658951,106.004346 119.659373,105.988706 119.659373,105.972855 C119.659585,105.499007 120.046415,105.147955 120.504444,105.127454 C120.96057,105.106953 121.349725,105.53071 121.349514,105.972855 C121.349303,106.271281 121.330923,106.567383 121.214092,106.844675 M116.853528,134.939681 C115.504796,134.96145 114.186908,135.282914 112.837965,135.304894 C111.748035,135.322436 111.751415,133.631634 112.837965,133.614092 C114.186697,133.592111 115.504585,133.270647 116.853528,133.248878 C117.943458,133.231125 117.940077,134.921927 116.853528,134.939681 M111.244796,26.5890505 C110.455289,27.3414575 109.480077,27.7121659 108.518387,28.182209 C107.544021,28.6583812 106.688176,27.1998528 107.665289,26.7222012 C108.479937,26.3240172 109.381838,26.0298176 110.049866,25.3936532 C110.837894,24.6427256 112.034303,25.8370661 111.244796,26.5890505 M109.12557,46.0776611 C108.571627,45.8010035 107.994232,45.4846121 107.361908,45.4626317 C106.275359,45.4245886 106.27388,43.7337863 107.361908,43.7718294 C108.3105,43.8048 109.143739,44.2006591 109.978669,44.6176532 C110.953246,45.1041816 110.096134,46.5620759 109.12557,46.0776611 M98.9655,124.295023 C98.7153592,123.826459 98.3382465,123.628636 97.8700775,123.618068 C96.7822606,123.59334 96.781838,121.902538 97.8700775,121.927266 C98.9369789,121.951571 99.9153592,122.487555 100.425148,123.441591 C100.938106,124.401966 99.478669,125.254976 98.9655,124.295023 M95.4470493,87.5794614 C95.1107113,87.2706787 95.134162,86.697074 95.4470493,86.3840642 C95.8121197,86.0188509 96.1771901,85.6536376 96.5424718,85.2884243 C96.8762746,84.9542795 97.400007,84.9785847 97.7374014,85.2884243 C98.0737394,85.597207 98.0502887,86.1708117 97.7374014,86.4840329 C97.3721197,86.8492462 97.0072606,87.2142481 96.6421901,87.5794614 C96.3079648,87.9138176 95.7844437,87.889301 95.4470493,87.5794614 M91.2985986,144.80044 C90.0793732,144.771908 88.9364155,144.421912 87.7883873,144.03979 C86.7597254,143.697403 87.2033873,142.064933 88.2377535,142.409434 C89.2355704,142.741465 90.2378239,143.08491 91.2985986,143.109638 C92.3864155,143.134788 92.386838,144.825591 91.2985986,144.80044 M85.8225423,108.644323 C84.720993,108.613677 83.8072606,108.052542 83.0346549,107.30098 C82.2531761,106.540964 83.4495845,105.346413 84.2297958,106.105583 C84.6719789,106.535469 85.1821901,106.935767 85.8225423,106.95352 C86.9099366,106.983743 86.9107817,108.674546 85.8225423,108.644323 M89.2231056,62.1472579 C89.2364155,62.5974341 89.4265563,63.0797354 89.7058521,63.3756258 C90.4526831,64.1669213 89.2590211,65.3640094 88.5107113,64.5712344 C87.8933873,63.9173166 87.5589507,63.0421151 87.5329648,62.1472579 C87.5016972,61.0571131 89.1920493,61.0617628 89.2231056,62.1472579 M76.3313451,25.3224282 C75.9776831,24.6296219 75.514162,23.8171914 74.809162,23.434436 C73.8516972,22.9147256 74.7058521,21.4553519 75.6622606,21.9744282 C76.6205704,22.4947726 77.3063451,23.5202442 77.7907817,24.4689957 C78.2851479,25.4371914 76.8261338,26.2916806 76.3313451,25.3224282 M74.1405,42.9061386 C73.7483873,42.894937 73.3592324,42.8277276 72.9810634,42.7252227 C72.8194437,42.6812618 72.6597254,42.6307491 72.4978944,42.5867883 C72.4285986,42.5679781 72.1343028,42.5312031 72.3151479,42.5409252 C71.8575423,42.5164086 71.4700775,42.1735984 71.4700775,41.6955241 C71.4700775,41.2561268 71.8588099,40.8256063 72.3151479,40.8501229 C72.9424014,40.8837276 73.5128239,41.1975828 74.1405,41.2153362 C75.2274718,41.245982 75.2283169,42.9367843 74.1405,42.9061386 M68.6644437,69.9317119 L66.8390915,69.9317119 C65.7497958,69.9317119 65.7516972,68.2409096 66.8390915,68.2409096 L68.6644437,68.2409096 C69.7537394,68.2409096 69.751838,69.9317119 68.6644437,69.9317119 M66.5352887,144.684831 C65.9817676,144.961912 65.3293732,145.224409 64.8810634,145.648377 C64.0905,146.396135 62.8938803,145.202005 63.6859225,144.452769 C64.2569789,143.912769 64.9871197,143.572917 65.6824014,143.225035 C66.0920493,143.020025 66.5957113,143.112596 66.838669,143.528323 C67.0581761,143.904103 66.9434577,144.480667 66.5352887,144.684831 M62.4567676,123.321544 C62.385993,123.301888 62.3112042,123.28815 62.2395845,123.278428 C61.9522606,123.23954 61.6516268,123.253066 61.3630352,123.252855 C60.2737394,123.252221 60.2754296,121.561418 61.3630352,121.562052 C62.2201479,121.562475 63.1121197,121.574522 63.7860634,122.174968 C64.1281056,122.479735 64.0949366,123.061371 63.7860634,123.370366 C63.4501479,123.706413 62.9314859,123.674076 62.5909225,123.370366 C62.626838,123.402702 62.503669,123.334647 62.4567676,123.321544 M61.3634577,94.5897393 C61.6089507,94.083344 61.6127535,93.7532149 61.6131761,93.190389 C61.6140211,92.1006669 63.304162,92.1023577 63.3033172,93.190389 C63.3028944,94.0074693 63.1814155,94.7032344 62.8228944,95.4431718 C62.6228239,95.8557276 62.0371901,95.9633049 61.666838,95.7464595 C61.2514859,95.503618 61.1646549,95.000393 61.3634577,94.5897393 M56.4766268,54.9279546 C55.4963451,55.2614654 54.6212746,55.7336219 53.7580352,56.3036337 C52.846838,56.9051366 52.0011338,55.4402677 52.9049366,54.8436258 C53.8900775,54.193301 54.9090211,53.678029 56.0272606,53.2973871 C57.0612042,52.9457002 57.5008521,54.579438 56.4766268,54.9279546 M50.775993,26.4715397 C50.0477535,26.4918294 49.2960634,26.7712344 48.6470493,27.0865691 C47.6716268,27.5604164 46.8157817,26.1018881 47.794162,25.6265613 C48.7212042,25.1759624 49.7355,24.8099037 50.775993,24.7807374 C51.8659225,24.7500916 51.8612746,26.4411053 50.775993,26.4715397 M48.2205,102.435696 C47.9340211,102.448589 47.689162,102.293669 47.5374718,102.070906 C47.5216268,102.070906 47.505993,102.070483 47.4903592,102.070483 C47.0166972,102.070272 46.665993,101.683289 46.6452887,101.225082 C46.6247958,100.768777 47.0483873,100.379469 47.4903592,100.379681 C47.788669,100.379892 48.0846549,100.398068 48.361838,100.515156 C48.8095141,100.704103 49.0474014,101.112643 49.0655704,101.590295 C49.0835282,102.06372 48.6639507,102.415829 48.2205,102.435696 M44.0642324,43.9715554 C43.0262746,44.3107726 42.5855704,42.6776689 43.6148662,42.3411992 C44.8231056,41.9461855 46.0577535,41.6403616 47.2657817,41.2453479 C48.3037394,40.9061307 48.7444437,42.5394458 47.7149366,42.8759155 C46.5071197,43.2707178 45.2722606,43.5765417 44.0642324,43.9715554 M40.2738803,75.885027 C39.9519085,76.9227569 38.3211338,76.4772305 38.6439507,75.4354849 C38.9557817,74.4298802 38.9781761,73.417935 38.9788099,72.3732305 C38.9794437,71.2835084 40.6695845,71.2854106 40.6689509,72.3732305 C40.6683169,73.5622873 40.6283873,74.7405652 40.2738803,75.885027 M28.9738099,114.108996 C28.912331,114.530005 28.5785282,114.833293 28.1416268,114.852949 C27.6969085,114.872816 27.2805,114.449904 27.2965563,114.007548 C27.3276127,113.15644 28.0212042,112.462788 28.8717676,112.43172 C29.345007,112.414389 29.6969789,112.832863 29.716838,113.277121 C29.7362746,113.70891 29.3758521,114.046013 28.9738099,114.108996 M23.2552183,65.5191405 C22.3621901,65.8173558 21.4078944,66.1011992 20.7077535,66.7625143 C19.9165563,67.5094262 18.7199366,66.3155084 19.5126127,65.5669057 C20.4358521,64.6950857 21.6233873,64.2835867 22.8060634,63.888573 C23.8416972,63.5428039 24.2817676,65.1763303 23.2552183,65.5191405 M19.3795141,98.3648783 C19.1340211,98.78462 18.6369085,98.8604947 18.2234577,98.6681659 C17.6690915,98.4103186 17.0570493,98.418984 16.4593732,98.4183499 C15.3702887,98.4175045 15.3719789,96.7267022 16.4593732,96.7275472 C17.3813451,96.728393 18.2319085,96.8152579 19.0765563,97.2081581 C19.4921197,97.401755 19.5933169,97.9992423 19.3795141,98.3648783 M17.1895141,138.2266 C16.7162746,138.243931 16.3643028,137.825246 16.3444437,137.381199 C16.325007,136.949411 16.6852183,136.612307 17.0876831,136.549324 C17.1489507,136.128315 17.4829648,135.824816 17.9196549,135.805371 C18.3645845,135.785293 18.780993,136.208205 18.7647254,136.650773 C18.733669,137.50188 18.0405,138.195321 17.1895141,138.2266 M171.166838,144.619524 C170.879725,143.586021 170.222683,142.751187 169.726204,141.821246 C169.559725,141.507814 169.501838,141.312949 169.411627,141.083422 C169.289092,141.3288 169.051204,141.513309 168.693528,141.51352 C168.007331,141.513732 167.204725,141.469559 166.564373,141.763336 C166.147965,141.954186 165.657401,141.886342 165.408317,141.460049 C165.194303,141.093778 165.296556,140.493544 165.711486,140.303328 C166.655218,139.870694 167.669725,139.823141 168.693528,139.822506 C168.946415,139.822506 169.137824,139.915712 169.273035,140.055626 C169.664303,134.695782 169.654585,129.332135 169.284444,123.968487 C168.889585,118.236667 167.980923,112.618976 167.030218,106.961129 C166.569866,104.217802 165.971979,101.447 166.088176,98.6529487 C166.204373,95.8779194 167.39381,93.2909918 166.550852,90.5075084 C166.212824,89.3915789 165.633951,88.3686434 165.257894,87.2653949 C164.854373,86.0776063 164.890289,84.9046121 165.074092,83.6745534 C165.452261,81.1700524 166.079514,78.6951405 165.075993,76.2498176 C164.632542,75.1655906 163.914021,74.1976063 163.567754,73.0774497 C163.136768,71.6846513 163.195923,70.1439076 163.124092,68.7003851 C162.978317,65.7879781 162.940289,62.8565495 162.699232,59.950483 C162.591697,58.6485652 162.35719,57.4142795 161.822683,56.2201503 C161.309092,55.0704047 160.546627,54.0242207 160.206486,52.8047295 C159.868458,51.6042599 159.83888,50.3382716 159.65719,49.1103264 C159.467049,47.8126356 159.169162,46.5339663 158.767754,45.2869996 C157.217049,40.4597589 154.3755,36.1228509 151.018458,32.3629292 C147.450148,28.3662951 143.184655,25.3566669 138.65719,22.5520485 C136.276415,21.0772462 133.895852,19.6024438 131.516768,18.1276415 C131.466063,18.404299 131.289655,18.6585534 130.950993,18.7718372 C130.057542,19.0702638 129.103669,19.3538959 128.403317,20.015211 C127.612331,20.7621229 126.4155,19.5682051 127.208176,18.8198137 C128.035077,18.038663 129.074303,17.6275867 130.131908,17.266389 C129.047894,16.5828822 127.952261,15.8750701 126.729021,15.4802677 C125.657683,15.1336532 124.077613,15.4358841 123.209092,14.6496611 C122.526908,14.0304047 122.311204,12.8827726 122.049444,12.0415984 C121.721979,10.997528 121.43888,9.89639295 121.022683,8.88191155 C120.739585,8.18868258 120.327613,7.52292916 119.807894,6.98609941 C119.579725,6.10688219 119.161204,5.30375108 118.421768,4.8155319 C116.486768,3.53474912 114.110007,4.80707789 113.258599,6.63314442 C112.555077,6.63103092 111.813528,6.78531663 111.129021,6.82758669 C109.721979,6.91635382 108.312824,6.95651037 106.903669,6.95228337 C104.146627,6.94382935 101.387472,6.7641816 98.653669,6.3985456 C93.7649366,5.74335969 89.0219789,4.42242035 84.2156408,3.39314442 C84.1881761,3.32973933 84.1564859,3.26633425 84.1184577,3.20292916 C83.0832465,1.46562975 80.503669,1.75940665 78.8788099,2.41670607 C78.181838,2.69780196 77.4719789,3.05287045 77.0726831,3.71228337 C76.6501479,3.99760626 76.2846549,4.34422074 76.0416972,4.70985675 C75.5388803,5.4643773 75.1501479,6.98609941 74.1297254,7.11290959 C73.4578944,7.1953362 72.7755,7.06641252 72.0931056,7.16363366 C71.2395845,7.28198982 70.4747958,7.58210724 69.6867676,7.92449472 C63.6867676,10.5304438 57.4839507,13.4280564 50.9724718,14.4383108 C49.4452183,14.6750231 47.8902887,14.9201894 46.5635282,15.7761581 C45.4860634,16.4715006 44.6534577,17.4268039 43.7642324,18.3334967 C42.8980352,19.2169409 42.1839507,19.6079389 40.9480352,19.7664517 C39.4480352,19.9587804 38.1487394,20.373027 37.0522606,21.4635945 C36.1416972,22.3702873 35.5480352,23.5284869 34.8339507,24.5810114 C34.1069789,25.6546708 33.0402887,26.2591327 31.9332465,26.882616 C29.3156408,28.3578411 26.8776127,30.1395241 24.7543732,32.2762755 C20.281838,36.7822638 17.5733873,42.5732618 14.8438099,48.2163147 C11.8924014,54.3201112 9.13324648,60.4978802 7.21916197,67.0159233 C5.34310563,73.4156102 4.22761268,79.9991718 3.71211972,86.644025 C3.16916197,93.6164712 3.09310563,100.616393 2.64099296,107.593066 C2.41493662,111.078232 2.24380986,114.567626 2.07057042,118.054906 C1.90155634,121.499915 1.65437324,124.951266 1.69430282,128.400503 C1.77057042,135.068604 3.10345775,141.757841 5.4339507,148.001129 C6.01493662,149.554553 6.65909155,151.086843 7.34571127,152.595884 C7.94803521,153.92105 10.0078944,153.773105 10.6543732,152.595884 C10.8022606,152.325356 10.9184577,152.046373 11.0156408,151.763164 C12.7057817,151.777959 14.4128239,151.646921 16.0924014,151.803321 C19.0585986,152.080189 22.0309225,152.234475 25.0055704,152.41835 C30.8916972,152.783986 36.7881761,153.027039 42.6762042,153.363086 C43.2474718,153.395634 43.8187394,153.428393 44.3897958,153.46242 C40.1938099,140.470084 40.7380352,126.423955 40.0740211,112.911908 C40.0205704,111.822608 41.7111338,111.828949 41.764162,112.911908 C42.4309225,126.481865 41.8632465,140.563923 46.2075423,153.577395 C47.8930352,153.691524 49.5762042,153.831015 51.253669,154.03518 C52.6097958,154.197919 53.9726831,154.390248 55.3416972,154.322616 C56.8945141,154.248643 58.4114155,153.893575 59.9262042,153.585004 C62.6790211,153.024925 65.3304296,153.278546 68.0938099,153.623047 C71.0494437,153.99291 74.0156408,154.197919 76.9902887,154.326843 C88.9015563,154.848878 100.893106,155.324416 112.800148,154.527626 C115.681838,154.335297 118.55719,154.064769 121.419866,153.697019 C124.369162,153.318702 127.286768,152.682538 130.233739,152.321129 C133.138669,151.96606 135.809303,152.940385 138.68043,153.120033 C141.608387,153.303908 144.614937,152.693105 147.515641,152.342264 C148.461908,152.227501 149.409232,152.115908 150.356768,152.00516 C149.136908,143.640972 148.443317,135.213802 147.769585,126.790013 C147.682754,125.703461 149.373528,125.712761 149.459725,126.790013 C150.127965,135.148072 150.806134,143.512471 152.024092,151.810718 C157.046979,151.226123 162.074725,150.634553 167.045218,149.723634 C168.460711,149.465786 169.867754,149.045199 170.714937,147.781324 C171.34219,146.845043 171.469162,145.697411 171.166838,144.619524" id="ðŸ–-Ink" fill="#000000"></path>
                    </g>
                    <g id="head/Hijab" transform="translate(78.591549, 38.043053)" fill-rule="evenodd">
                        <path d="M54.989192,22.228448 C86.7876603,23.2355512 88.7056191,38.3453798 88.7056191,63.6851773 C88.7056191,89.0249747 72.2099288,104.992685 66.1359719,107.780946 C60.062015,110.569208 44.0683828,122.545287 29.6350899,117.026365 C15.2017971,111.507443 19.3814811,88.1905608 19.3814811,78.172034 C19.3814811,68.1535073 23.1907237,21.2213448 54.989192,22.228448 Z" id="Path-2" fill="#FFFFFF"></path>
                        <path d="M67.8891972,99.4586583 C62.0497606,102.719793 55.3633521,102.846604 49.0821549,100.794392 C45.3152535,99.5666583 41.8612394,97.6685213 38.6286338,95.3986192 C35.816662,93.4224939 33.3068028,91.2307914 30.8201831,88.9036133 C28.773,84.3872689 26.9499718,79.8791671 26.0962394,74.9652728 C25.3314507,70.5543922 25.2300423,65.9744313 26.1173662,61.5720047 C32.6795493,56.1720047 39.2013803,50.7276211 45.7145493,45.2665409 C49.0314507,42.4849597 52.3568028,39.7185957 55.7222958,36.9961926 C57.4314507,35.6139616 59.1239155,34.2105957 60.8265211,32.8220243 C61.107507,32.5937659 61.3865915,32.3655076 61.6675775,32.1372493 C65.1828592,34.7114959 68.9518732,36.9182043 72.4422254,39.5345096 C74.2694789,40.906173 76.0462394,42.3666035 77.738493,43.9029088 C78.6258169,44.7083648 79.4922254,45.5389714 80.3372958,46.3907131 C81.1103239,47.1686935 81.8560986,48.2844117 82.9527887,48.5784 C83.1027887,48.6183452 83.2441268,48.6267992 83.3772254,48.6077777 C84.8434225,61.4494215 85.8849718,75.3161143 79.6039859,86.9784235 C76.8638451,92.065625 72.9788451,96.6138834 67.8891972,99.4586583 Z M29.9013803,104.178322 C29.0972958,103.441343 30.2956056,102.248694 31.0963099,102.982502 C36.1257465,107.591206 42.7008169,110.034204 49.3422254,111.164928 C50.4137746,111.347746 49.9568028,112.976623 48.8928592,112.795285 C41.9588451,111.614682 35.1437746,108.982103 29.9013803,104.178322 Z M23.8663099,111.249468 C22.9063099,110.734196 23.7608873,109.275245 24.7191972,109.789461 C28.6375775,111.891762 32.9353944,112.98402 37.2946901,113.721633 C38.3668732,113.902971 37.9094789,115.531848 36.8455352,115.351989 C32.3381408,114.589437 27.9152535,113.421727 23.8663099,111.249468 Z M39.8138451,40.0187131 C43.0652535,37.0997542 46.5596197,34.3224 50.2506761,31.9787366 C53.9856761,29.6073863 58.0652535,28.1892258 62.4744085,28.1554098 C62.1659577,28.4026896 61.8722958,28.677445 61.5744085,28.9329675 C60.7422254,29.6454294 59.9117324,30.3619068 59.0814507,31.0762708 C57.4208873,32.5071123 55.7560986,33.935629 54.116662,35.3899303 C50.888493,38.2558403 47.6497606,41.1069558 44.4279296,43.9792063 C38.2356761,49.4996759 32.1767324,55.1404039 26.2483521,60.9442943 C26.2802535,60.8026896 26.3140563,60.6610849 26.3476479,60.5196916 C28.3103239,52.3190888 33.6490563,45.5537659 39.8138451,40.0187131 Z M65.301169,28.5125918 C65.3222958,28.4491867 65.3372958,28.3876838 65.3457465,28.328717 C73.8070141,29.4319656 80.8739155,35.6602474 83.2103239,43.8608501 C83.007507,44.1440595 82.8955352,44.4801065 82.9377887,44.8370771 C82.9589155,45.0169362 82.9800423,45.1986975 83.001169,45.3783452 C82.7117324,45.0911202 82.4138451,44.8224939 82.1605352,44.5667601 C81.3173662,43.7129049 80.453493,42.8820869 79.5659577,42.0726153 C77.751169,40.4179538 75.8668732,38.8708697 73.8807465,37.4273472 C70.4267324,34.9165057 66.6870845,32.6085605 62.5694789,31.4038638 C62.8399014,31.181946 63.1105352,30.9600282 63.3830704,30.7402239 C64.1962394,30.0784861 64.9506761,29.5334137 65.301169,28.5125918 Z M80.4703944,19.7436681 C75.2753239,14.0646857 68.0814507,9.90531194 60.5056056,8.45967593 C53.2715915,7.07744501 45.7821549,7.98836477 38.9478592,10.674627 C24.6469437,16.2965448 13.3631408,28.6586348 8.07933803,42.9837464 C4.99905634,51.3299695 3.98919718,60.4793237 4.91476056,69.3137659 C5.83567606,78.1078403 8.48285915,87.1897738 13.2997606,94.6715742 C13.7413099,95.3565605 14.2251127,96.0136485 14.7321549,96.6498129 C14.5060986,99.2325135 13.6441268,101.76449 12.2877887,103.96676 C12.2149014,104.084694 12.138,104.200514 12.0619437,104.316545 C10.6730704,105.357022 9.23243662,106.333461 7.82602817,107.34139 C6.60722535,108.21469 5.40088732,109.110604 4.25476056,110.077954 C3.17285915,110.991198 1.9164507,112.008216 1.18398592,113.240811 C0.583774648,114.250431 0.338704225,115.623151 1.158,116.586063 C2.14525352,117.745954 3.81807042,117.336991 5.15539437,117.336991 C5.26990141,117.336991 5.38419718,117.339527 5.49849296,117.340795 C5.90011268,117.593359 6.31377465,117.821617 6.7145493,118.034024 C10.7645493,120.181555 14.829338,122.305625 18.8983521,124.419128 C27.0027887,128.631339 35.0732113,133.012842 43.3441268,136.890909 C47.1767324,138.6895 51.2795493,140.261735 55.5722958,140.255641 C59.5992676,140.249265 63.2391972,138.649343 66.3828592,136.216701 C69.9659577,133.445688 72.9619437,129.926917 75.8687746,126.477891 C77.0307465,125.097351 78.1694789,123.700537 79.2870845,122.28449 C81.4335634,121.568013 83.5631408,121.358776 85.4772254,122.741007 C87.0131408,123.850596 89.0370845,122.341555 89.073,120.675903 C89.0856761,120.084545 89.0605352,119.501007 88.9969437,118.926134 C88.6126479,115.375238 86.8758169,112.162924 84.9194789,109.183097 C83.8506761,107.553375 82.7246197,105.953241 81.5920141,104.368114 C81.3258169,103.994236 81.0638451,103.620146 80.8103239,103.239504 C85.3589155,96.5399108 88.9673662,89.1109479 91.1856761,81.3478403 C93.516169,73.1793628 94.3084225,64.7084431 93.7887042,56.2438638 C92.9899014,43.2711828 89.4323662,29.5418677 80.4703944,19.7436681 Z" id="ðŸ–-Ink" fill="#000000"></path>
                    </g>
                    <g id="face/Smiling" transform="translate(112.183099, 77.354207)" fill="#000000" fill-rule="evenodd">
                        <path d="M30.968993,50.9198978 C29.548794,50.3403012 28.2816173,49.3734958 27.3551889,48.1384646 C27.0331038,47.7091169 26.9495926,47.2557326 27.017159,46.8410547 C27.0931327,46.3747786 27.3688808,45.9521824 27.7449394,45.6687178 C28.1221628,45.3843752 28.5940214,45.2441445 29.0502103,45.3156301 C29.4466117,45.3777469 29.8412104,45.5948709 30.1535058,46.0451781 L30.2187521,46.1352289 C30.7695298,46.8806513 31.4872438,47.4922614 32.3050288,47.8864795 C33.0932406,48.2664417 33.9747757,48.4437847 34.8870208,48.3406561 C36.6244504,48.1443157 37.8219743,47.2043274 39.0948115,45.9278391 C39.2525834,45.7666792 39.4104563,45.6004672 39.5690946,45.4315797 C39.6692778,45.278484 39.8083069,45.1800892 39.962667,45.1284632 C40.1340565,45.0711416 40.327938,45.0743848 40.5055187,45.1363808 C40.6767961,45.1961763 40.8299095,45.309486 40.9325762,45.4602937 C41.0301525,45.6036243 41.0854754,45.7806897 41.0675245,45.9843589 C40.9510195,47.3072301 40.2596776,48.4878363 39.2776553,49.4148615 C38.1869942,50.4444414 36.7412431,51.1567117 35.3801317,51.4065272 C33.8805866,51.6817086 32.3525901,51.4845569 30.968993,50.9198978 L30.968993,50.9198978 Z M36.0875289,30.5120405 C37.6828906,31.482148 40.1137318,33.7442494 38.3974899,36.149264 C36.3773089,38.2698449 33.4687045,35.8384541 32.0353946,34.7388307 C30.7063626,33.8866164 29.2131206,36.0784478 30.4461973,37.0735516 C40.8033244,44.7445605 45.006466,30.7657101 36.8944406,29.3714319 C36.0012775,29.2177885 35.6695544,30.2119271 36.0875289,30.5120405 Z M17.5274577,21.5886716 C17.7037243,19.3998697 21.0359789,18.9028321 21.3674577,21.0687499 C21.6642887,23.0089456 21.3148521,24.7912626 20.4412606,26.5380728 C19.6065423,28.2068947 17.5085456,27.4283107 17.3498837,25.9087021 C17.1372039,23.8717299 17.4178099,22.9502317 17.5274577,21.5886716 Z M42.8930282,20.6196517 C43.3576056,20.0109628 44.0283803,19.5954481 44.8320423,19.8302583 C47.3429577,20.5642779 46.6028873,24.1303914 45.7210563,25.8662114 C45.2419014,26.8088337 43.6930986,27.0478708 42.993169,26.2178982 C41.8523239,24.864411 41.3059859,22.1614521 42.756338,20.8282544 C42.7956338,20.7593542 42.8393662,20.68982 42.8930282,20.6196517 Z M20.4058944,12.0111429 L20.802522,11.9416942 C22.0295218,11.7294045 23.5551549,11.5254176 24.4231479,12.5122544 C24.8835,13.0355577 25.0419507,14.0081918 24.4231479,14.509092 C23.3346972,15.3904227 22.1313169,15.0488806 20.8269507,15.1234873 C19.7520211,15.1852016 18.7189225,15.3631585 17.6835,15.6592603 C15.4119507,16.3087397 13.5610352,17.4944149 11.6209648,18.7963327 C11.3663873,18.9671037 11.1065282,18.6414129 11.228007,18.4032211 C12.3479366,16.208771 14.5182887,14.4061644 16.6922324,13.3073542 C17.8525141,12.7208571 19.1222324,12.2343288 20.4058944,12.0111429 Z M40.6041287,11.0281289 L40.9077055,11.0902829 C44.2113469,11.7811043 48.5035506,13.1610768 50.0679842,16.4073021 C50.1275964,16.8663298 50.0646105,16.9647086 50.0133917,17.0289838 L49.9963385,17.0503723 C49.9541341,17.1052595 49.9204583,17.1809212 49.7215736,17.2433957 C49.6663832,17.2302408 49.6106433,17.216308 49.5543131,17.2015401 C48.8372041,17.0135386 48.2698321,16.7545401 47.720556,16.4857982 L47.1250012,16.192275 C46.4340388,15.8533498 45.7369757,15.5267598 44.9982488,15.2856588 C43.4217423,14.7712438 41.8001698,14.4088706 40.1534741,14.2153715 C39.7965654,14.1734678 39.4528848,14.0529641 39.1817455,13.8464404 C38.92438,13.6504079 38.7277692,13.3789964 38.6381257,13.0182314 C38.5219478,12.5513438 38.5553348,12.1978716 38.8057421,11.7766707 C38.9940329,11.4603578 39.263447,11.2411116 39.5728025,11.115213 C39.888177,10.9868648 40.2472278,10.9566068 40.6041287,11.0281289 Z" id="ðŸ–-Ink"></path>
                    </g>
                    <g id="facial-hair/*-None" transform="translate(104.577451, 109.479380)"></g>
                    <g id="accessories/Glasses-2" transform="translate(88.521127, 88.978474)" fill="#000000" fill-rule="evenodd">
                        <path d="M78.6572746,20.1750129 C76.0922746,22.8264023 71.8103028,23.5872634 68.3976972,22.1652986 C59.635162,18.5028094 63.9241056,7.07932603 70.6819225,4.01157652 C71.5261479,3.80107162 72.6536831,3.30165088 73.6819225,3.18836712 C73.7748803,3.14271546 73.9772746,3.27480939 74.2225563,3.14990137 C81.6741761,3.98219883 83.3710775,15.5540501 78.6572746,20.1750129 M50.3943169,20.8536587 C47.5174859,24.6708564 42.1690352,25.8485002 37.7991761,24.0740031 C29.1663592,20.6729542 32.2282606,10.543146 38.134669,6.57187397 C50.6115,1.88179961 55.7636831,13.8154826 50.3943169,20.8536587 M31.6802324,12.3958427 C31.6722042,12.3920384 31.6641761,12.3901362 31.6559366,12.3863319 C31.7015704,12.3662536 31.7472042,12.3461753 31.7926268,12.3256744 C31.777838,12.3643515 31.7617817,12.4026059 31.7474155,12.441283 C31.7250211,12.4258544 31.7053732,12.4078896 31.6802324,12.3958427 M84.5964296,8.26965088 C83.8920634,8.27113033 82.8745986,8.38695029 82.2915,8.87580352 C80.8536127,4.02468023 75.5461479,-0.465034051 70.9303732,2.808782 C67.2955141,3.97818317 64.5982606,6.57166262 63.0653028,10.0196313 C60.3012887,8.37490333 55.9550915,9.07722035 53.5582606,11.2522262 C51.9885423,6.06336517 48.1253028,4.24638669 43.5270634,3.97818317 C38.5081901,3.15581918 33.5057958,8.0318818 31.9449507,11.943553 C30.6471338,11.7958192 28.7079085,11.3826294 27.486993,12.1838583 C19.5629789,10.1050168 5.70910563,8.95886419 4.09819014,10.1138935 C2.95016197,10.5545589 2.32016197,13.2653378 3.9236831,13.4115922 C5.32100704,13.2131342 3.76058451,11.4253221 5.16910563,11.2302458 C12.6739648,10.7648524 19.9595282,12.2768524 27.3849507,12.911326 C28.0479085,13.8034356 30.1899507,14.1018622 31.3326972,13.7434121 C29.5329085,20.3789659 33.4181197,24.8934082 39.2395986,26.2456274 C48.2537535,28.3170716 56.0962183,20.2502536 53.7391056,11.859647 C56.4697394,10.5006646 59.6106549,10.5589973 62.5853028,11.2748407 C57.6145986,29.5756626 87.0773451,28.7545667 82.4757254,9.50287984 C85.5380493,11.0267155 86.2031197,8.57716556 84.5964296,8.26965088" id="ðŸ–-Ink"></path>
                    </g>
                </g>
            </g>
        </g>
    </g>
</svg>