<?xml version="1.0" encoding="UTF-8"?>
<svg width="240px" height="324px" viewBox="0 0 240 324" version="1.1" xmlns="http://www.w3.org/2000/svg" xmlns:xlink="http://www.w3.org/1999/xlink">
    <!-- Generator: Sketch 62 (91390) - https://sketch.com -->
    <title>peep-4</title>
    <desc>Created with Sketch.</desc>
    <g id="Introduction" stroke="none" stroke-width="1" fill="none" fill-rule="evenodd">
        <g id="variations" transform="translate(-126.000000, -1082.000000)">
            <g id="images" transform="translate(126.000000, 110.000000)">
                <g id="a-person/bust" transform="translate(0.000000, 972.000000)">
                    <g id="body/Explaining" transform="translate(31.056338, 135.052838)" fill-rule="evenodd">
                        <path d="M158.388106,84.73543 C156.97557,80.3932194 158.65799,75.3779444 157.558342,70.6969691 C157.181497,68.8454922 156.465211,61.9666945 155.745945,57.9443789 C155.343607,55.6944094 157.7506,54.995832 158.12043,54.0977659 C160.723669,46.0304342 141.733458,27.051868 140.574232,26.3526146 C138.83719,25.3483655 137.300134,24.4838757 135.60281,23.4579026 C130.651543,21.7180501 124.714246,16.877724 120.22557,19.9866345 C112.448387,8.40496856 115.525126,-5.86427054 111.305007,-7.56020501 C107.084888,-9.25613947 94.6226831,-12.6838328 87.4978944,-8.30677787 C83.227331,-5.14583439 83.5421197,0.295694534 81.5935986,4.78330509 C80.449842,6.89575864 79.8879267,9.95593963 78.5564789,11.3336974 C74.0325726,16.0149525 68.3911646,16.8221125 62.0843682,17.6166412 C61.6039984,17.6771581 61.09864,16.3701867 60.6318781,16.5315765 C49.9932765,20.2100293 37.6142516,21.2833271 25.5660634,41.8802978 C23.8645141,44.8259375 19.2743028,49.5520814 20.809162,52.9560751 C10.6962042,76.4814013 0.745421392,129.43215 28.4943651,142.637306 C29.3813564,143.204837 35.3987002,140.161383 36.379162,140.18959 C38.0135447,140.236608 34.8819708,144.206451 36.379162,143.499167 C47.3711699,144.333496 107.854402,142.181004 131.038458,144.333496 C146.981408,144.214122 157.07929,147.010466 160.760641,144.214122 C159.288951,140.65634 159.35719,136.845399 159.822401,133.083927 C163.2105,130.561797 159.02212,112.786652 159.376627,107.581721 C162.548176,103.778308 160.022894,89.5136254 158.388106,84.73543 Z" id="ðŸŽ¨-Background" fill="#FFFFFF"></path>
                        <path d="M153.333592,58.699247 C151.812676,60.9120845 150.415352,63.1902294 149.152183,65.5598888 C148.500845,66.7821276 147.893239,68.0286716 147.346268,69.3005777 C147.232606,66.5504877 147.207676,63.7678497 146.886338,61.0448125 C146.86331,60.8482568 146.535634,60.7527264 146.501197,60.9923977 C146.146268,63.4616031 146.087746,65.9946364 145.953592,68.4902607 C145.799155,68.4429182 145.628451,68.415654 145.440423,68.415654 C143.61507,68.415654 141.817183,68.56529 139.99838,68.7128125 C139.18331,68.7787538 138.330634,68.8292665 137.499296,68.959247 C138.16838,68.2199436 138.79162,67.4390043 139.366901,66.6244603 C139.953592,65.7936423 140.624155,64.4953174 139.601831,63.6972587 C138.472606,62.8157166 136.258099,63.9686325 135.165634,64.4169065 C134.612746,64.6438967 134.070423,64.8909652 133.536549,65.1536736 C132.862394,63.264202 130.795986,63.0137519 129.024507,63.2745581 C127.761549,63.4607577 126.535563,63.8929691 125.304718,64.2220415 C123.741972,64.6396697 122.172676,65.0327812 120.597676,65.4017988 C117.761408,66.0658614 114.905704,66.6464407 112.036479,67.1494544 C111.960634,67.0613213 111.855423,66.9917871 111.71493,66.9567029 C110.732535,66.7111139 109.648521,66.8992157 108.640775,66.9178145 C107.604718,66.9370474 106.568451,66.9355679 105.532394,66.9142215 C103.681479,66.8763898 101.832465,66.8609613 99.9819718,66.828836 C99.4559155,66.5099084 98.7889437,66.0521237 98.6256338,65.4516775 C98.4217606,64.7024407 99.0585211,63.8724681 99.3540845,63.2346129 C100.489225,60.7854857 100.886197,58.0446951 100.440845,55.3774544 C100.361408,54.9019162 100.197887,54.3819945 99.9616901,53.8948321 C101.989225,54.1118888 103.990352,54.2592 106.028873,54.3257753 C110.099366,54.458292 114.169648,54.5971491 118.242042,54.6273722 C126.384507,54.6880297 134.527183,54.6884524 142.669648,54.6288517 C147.273592,54.595247 151.866972,54.5529769 156.465211,54.317744 C156.090423,54.7928595 155.725986,55.2783311 155.370211,55.7712 C155.29669,55.7492196 155.200563,55.7887421 155.211761,55.8800454 C155.215352,55.9119593 155.219155,55.9436618 155.222958,55.9753644 C154.573732,56.8824798 153.948803,57.8039671 153.333592,58.699247 M144.279718,142.915364 C142.387394,142.85513 140.495493,142.794683 138.60338,142.734449 C134.889296,142.616304 131.175211,142.497948 127.461338,142.379803 C120.103521,142.145415 112.745915,141.919482 105.387042,141.716374 C98.0459155,141.513901 90.7011972,141.299591 83.3579577,141.528695 C75.9980282,141.758433 68.6569014,142.352539 61.3107042,142.829556 C57.2266901,143.094378 53.1397183,143.323905 49.0480986,143.433807 C45.1512676,143.538214 41.22,143.380124 37.3292958,143.658261 C37.1985211,142.695983 37.2946479,141.736452 37.280493,140.777979 C38.5567606,140.040578 39.8093662,139.256679 41.0473944,138.486519 C45.5609155,135.678096 49.8272535,132.500867 53.8514789,129.027748 C54.4700704,128.493877 55.0766197,127.948593 55.6770423,127.397603 C55.2591549,128.311059 55.5935915,129.488703 56.7912676,129.875474 C58.2517606,130.346785 59.7471127,130.179396 61.2640141,130.143677 C62.8043662,130.107537 64.3447183,130.073086 65.8852817,130.040539 C68.8960563,129.976711 71.9070423,129.919435 74.9180282,129.868922 C80.8001408,129.770433 86.6824648,129.697517 92.565,129.649752 C104.400211,129.554222 116.227183,129.715482 128.060493,129.928946 C131.387958,129.98918 134.712042,130.063787 138.039507,129.988335 C139.704296,129.950715 141.375845,129.938668 143.038732,129.849055 C144.370986,129.776985 145.711268,129.58846 147.04331,129.418957 C147.211268,131.739795 147.386831,134.059998 147.582465,136.378723 C147.711972,137.909744 147.84507,139.440766 147.976479,140.971787 C148.030352,141.60309 148.034366,142.24792 148.12331,142.847944 C146.844507,142.918112 145.573521,142.956366 144.279718,142.915364 M145.580915,77.3804994 C145.534437,79.1568986 145.509718,80.9345659 145.497042,82.7124446 C145.343451,82.6243115 145.170423,82.5600611 144.975423,82.530472 C142.906056,82.2145033 140.691761,82.4541746 138.598099,82.4894701 C136.574366,82.5232861 134.543662,82.5118732 132.521831,82.6074035 C130.495986,82.7031452 128.470986,82.8174857 126.445563,82.9223155 C125.495282,82.9719828 124.555352,83.0144642 123.612465,83.1431765 C122.966408,83.2313096 122.140141,83.2249691 121.44993,83.4088438 C124.345352,80.6035914 127.225141,77.7818536 130.112746,74.9687812 C130.199155,74.8842411 130.26169,74.7950513 130.305423,74.7041706 C132.230915,73.5305425 134.079085,72.2096031 135.752746,70.6969691 C137.080141,71.2088595 138.591127,71.2735327 139.99838,71.3876618 C141.817606,71.5353957 143.614437,71.6848204 145.440423,71.6848204 C145.563803,71.6848204 145.679366,71.6727734 145.788169,71.651427 C145.698803,73.5601315 145.630986,75.468836 145.580915,77.3804994 M70.4019718,111.891043 C74.8223239,113.303286 79.6115493,113.287435 84.2102113,113.570222 C89.1126761,113.871818 94.0077465,114.12248 98.9159155,114.313752 C108.718521,114.694605 118.514789,115.212413 128.315915,115.624335 C133.914296,115.859568 139.511408,116.118895 145.107465,116.400836 C145.504437,116.420703 145.883028,116.318832 146.217042,116.132421 C146.404859,119.819004 146.625,123.504108 146.881268,127.186887 C146.913169,127.647419 146.948662,128.107529 146.981408,128.568272 C144.347535,128.237721 141.733732,127.921329 139.080211,127.697298 C136.100493,127.445368 133.122254,127.233173 130.13831,127.035137 C124.323592,126.649634 118.499577,126.133094 112.674296,125.944993 C100.799366,125.560969 88.8982394,125.691584 77.0188732,125.776124 C73.6576056,125.800006 70.2965493,125.832554 66.935493,125.873133 C65.2550704,125.893634 63.5746479,125.916038 61.8942254,125.940343 C60.2053521,125.965282 58.3903521,125.789439 56.7912676,126.379106 C56.7760563,126.384601 56.763169,126.392844 56.748169,126.39855 C61.5724648,121.825775 65.8943662,116.772178 70.4019718,111.891043 M85.9411268,97.2717323 C93.3285211,98.6171883 100.83169,98.5250395 108.319859,98.6581902 C115.981901,98.7947225 123.654296,98.7042646 131.317606,98.7201159 C135.670775,98.7292039 140.061338,98.9204759 144.398873,98.5330708 C144.911408,98.4872078 145.308592,98.2927656 145.591901,98.0169534 C145.670915,102.631998 145.815634,107.245353 146.015282,111.856593 C145.733873,111.736969 145.42669,111.664265 145.107465,111.645454 C135.315211,111.069102 125.522324,110.546222 115.718028,110.226871 C105.921549,109.907521 96.1130282,109.528781 86.3112676,109.647349 C81.5279577,109.705259 76.4697887,109.399223 71.7521831,110.442026 C73.545,108.53628 75.3762676,106.66583 77.291831,104.874848 C80.0845775,102.264038 83.0647183,99.8185033 85.9411268,97.2717323 M91.5851408,91.8391843 C91.5950704,91.8279828 91.5999296,91.8155131 91.6073239,91.8038888 C91.6339437,91.8235444 91.6664789,91.8370708 91.7091549,91.8362254 C98.6243662,91.6802489 106.382324,93.8626521 112.85007,90.5131726 C115.737465,89.0180806 118.128592,86.654973 120.449789,84.3835914 C120.451056,84.4002881 120.452535,84.4171961 120.453803,84.4341041 C120.469014,84.6184016 120.546972,84.8403194 120.733732,84.9219006 C121.49662,85.2566795 122.39007,85.2786599 123.209155,85.3978614 C124.151197,85.5352391 125.076338,85.6155523 126.02662,85.6726168 C128.121761,85.7983703 130.21669,85.9315209 132.312465,86.0500885 C134.403592,86.1684446 136.504225,86.1781667 138.598099,86.2303703 C140.697676,86.2825738 142.897183,86.5368282 144.975423,86.2371335 C145.166197,86.2096579 145.335845,86.1496344 145.486479,86.0665738 C145.489648,88.7560063 145.514155,91.4452274 145.539296,94.1329691 C145.543521,94.5710982 145.551972,95.009016 145.557042,95.4467225 C145.276479,95.1897205 144.890915,95.0098614 144.398873,94.9665346 C140.545141,94.6271061 136.66162,94.7780102 132.794366,94.7911139 C128.996831,94.8035836 125.198873,94.8162646 121.401127,94.8289456 C113.732746,94.854519 106.070493,94.929337 98.4033803,95.07538 C94.6749296,95.1463937 90.9627465,95.4602489 87.2888028,96.063654 C88.776338,94.7080532 90.2224648,93.3125072 91.5851408,91.8391843 M31.4997887,140.738245 C30.0840845,141.171302 28.6787324,140.983411 27.2602817,141.280147 C27.1730282,141.298323 27.0925352,141.332139 27.0188028,141.376734 C22.7710563,139.561235 19.9396479,135.917979 18.0019014,131.835537 C15.9593662,127.532233 14.5514789,122.931983 13.6083803,118.26875 C11.6638732,108.655059 11.660493,98.6869339 12.6669718,88.961016 C13.6559155,79.4058693 15.6139437,69.9025033 18.408169,60.7132039 C20.3266901,54.4035523 22.7716901,48.029016 26.1665493,42.2758497 C30.0866197,44.9033566 33.1267606,48.6865268 35.9907042,52.3843115 C39.4130282,56.8034348 42.4971127,61.4797714 45.2577465,66.3387147 C44.9723239,67.1710121 44.9279577,68.2150826 44.7910563,68.9590356 C44.5271831,70.3936814 44.2888732,71.846292 44.1014789,73.2931961 C43.7011268,76.3858849 43.3170423,79.4802646 42.9078169,82.5716853 C42.0984507,88.6847812 41.1321127,94.7811804 40.0645775,100.85412 C39.978169,101.346566 40.116338,101.762503 40.370493,102.074668 C38.253169,103.19102 36.1635211,104.35704 34.1275352,105.620914 C29.6514085,108.399537 25.4680986,111.636366 22.1837324,115.787709 C22.0983803,115.895497 22.2321127,116.039638 22.3377465,115.941995 C29.3809859,109.43156 38.1312676,105.344045 46.7224648,101.304507 C51.1128169,99.2400376 55.4816197,97.1423859 59.6938732,94.7287656 C64.0988028,92.2052431 68.2996479,89.3532822 72.3259859,86.2624955 C76.9235915,82.7333683 81.2514085,78.8749573 85.3083803,74.7354505 C85.7862676,74.2474427 85.670493,73.6366403 85.3109155,73.2507147 C85.4323944,73.2130943 85.5304225,73.1074192 85.5367606,72.931153 C85.6341549,70.2277714 86.4456338,67.9246873 88.0343662,65.736789 C89.508169,63.7067695 91.3865493,62.0339319 93.0809155,60.1972978 C93.8338732,59.381063 94.5534507,58.5308008 95.1959155,57.6236853 C95.8573944,56.6901511 96.2602817,55.659607 96.8359859,54.6842254 C97.5084507,53.5444133 98.0805634,54.1266834 98.3921831,55.1584955 C98.7456338,56.328108 98.723662,57.6974466 98.5816901,58.8998184 C98.4314789,60.1721472 98.0442254,61.412562 97.4864789,62.562519 C96.9625352,63.6427303 96.3585211,64.7415405 96.7111268,65.9796305 C97.2906338,68.0142998 99.7751408,69.1925777 101.657324,69.6507851 C103.753099,70.1609847 105.945423,70.0618614 108.067606,69.7972509 C110.725352,69.4656423 113.370423,68.980382 115.997535,68.4642646 C119.04,67.8667773 122.064507,67.1771413 125.065352,66.3978928 C126.475986,66.0316227 127.87669,65.5499554 129.301056,65.2466677 C129.808944,65.1386677 130.748873,64.9763507 131.345704,65.2411726 C123.673521,69.8164838 115.309225,72.8645777 106.813944,75.5206168 C105.758451,75.8503233 106.191338,77.4449613 107.271549,77.1807734 C116.398099,74.9484916 124.984437,70.8053918 133.156056,66.267701 C133.281127,66.1979554 133.387183,66.0903781 133.465141,65.9631452 C134.287183,65.6738067 135.122958,65.4225112 135.975211,65.2151765 C136.356127,65.1226051 138.315423,64.4758732 138.560282,64.7244211 C138.907394,65.0763194 137.706338,66.2190904 137.406338,66.5513331 C135.270845,68.9178223 132.730775,70.8493526 129.981338,72.4461041 C127.192394,74.0654701 124.22493,75.356609 121.243521,76.5750434 C117.903803,77.9399436 114.373732,79.0127577 111.127394,80.581611 C109.837817,81.204883 110.742676,83.3219789 112.101338,82.8927264 C113.852324,82.3392 115.553662,81.5257127 117.255211,80.8345973 C118.700704,80.2478888 120.146408,79.6613918 121.583662,79.0546051 C122.585704,78.6314818 123.580986,78.194198 124.566549,77.7372587 C123.090211,79.1270982 121.613662,80.5169378 120.137535,81.9074114 C117.581197,84.3151139 115.152254,87.0578067 112.027183,88.7464955 C108.939718,90.4148947 105.417465,90.6089143 101.980775,90.5729847 C100.255352,90.5548086 98.5375352,90.5000689 96.8121127,90.5696031 C94.9962676,90.6427303 93.383662,90.9219241 91.6628873,91.4936266 C91.6311972,91.5041941 91.608169,91.5232157 91.5887324,91.5447734 C91.5285211,91.4714348 91.4264789,91.4346599 91.3210563,91.4970082 C86.6450704,94.2627382 82.3827465,97.8506207 78.2835211,101.396656 C74.0585915,105.051537 70.083169,108.938057 66.2953521,113.043537 C62.6697887,116.97275 59.073169,120.91718 55.1279577,124.532539 C51.2759155,128.062511 47.1593662,131.26785 42.8609155,134.234362 C40.5188028,135.850769 38.1188028,137.407364 35.6355634,138.798895 C34.3085915,139.542425 32.9609155,140.29145 31.4997887,140.738245 M31.8929577,34.3449299 C33.5674648,32.4632783 35.3697887,30.7192157 37.2769014,29.1057675 C38.1183803,29.3549495 39.0016901,29.4246951 39.8917606,29.4337832 C41.25,29.4473096 42.6111972,29.5039515 43.9694366,29.4900023 C46.5847183,29.4631609 49.1989437,29.3805229 51.8148592,29.3663624 C57.1635211,29.3371961 62.5138732,29.3357166 67.8625352,29.3822137 C68.5633099,29.3883429 69.0688732,29.0886481 69.3809155,28.6532665 C70.463662,29.8812117 71.5795775,31.080836 72.7047887,32.2614387 C74.5328873,34.179654 76.481831,36.0097362 78.5564789,37.6775014 C78.1525352,37.6802489 77.7488028,37.6838419 77.3471831,37.6810943 C75.4971127,37.6686247 73.646831,37.6570004 71.7969718,37.6470669 C68.0843662,37.6265659 64.3717606,37.6113487 60.6591549,37.6014153 C53.2783099,37.581971 45.8744366,37.643474 38.5030986,38.0215796 C36.4571831,38.1264094 34.3952113,38.1688908 32.3564789,38.3684055 C31.2507042,38.4766168 30.1461972,38.602793 29.0414789,38.7205151 C28.8154225,38.744609 28.598662,38.7748321 28.3859155,38.8088595 C29.4678169,37.253744 30.633169,35.7603429 31.8929577,34.3449299 M61.4541549,17.5728047 C61.4042958,17.6066207 61.3504225,17.6368438 61.3026761,17.6729847 C61.1940845,17.7545659 61.2111972,17.9020885 61.3392254,17.9515444 C61.509507,18.0181198 61.6884507,18.0684211 61.8726761,18.108155 C62.4321127,18.9199515 62.8692254,19.9234427 63.174507,20.4319515 C64.0514789,21.8932274 65.0598592,23.2851804 66.0857746,24.6441628 C66.2919718,24.917016 66.5021831,25.1869104 66.7132394,25.4561706 C61.7452817,25.444335 56.7798592,25.4696971 51.8148592,25.6575875 C49.2008451,25.7567108 46.5779577,25.8397714 43.9694366,26.0359045 C42.896831,26.1166403 41.8248592,26.2521159 40.7556338,26.3861119 C46.3204225,22.3620023 52.5785915,19.2891804 59.0617606,17.0078654 C59.0528873,17.0177988 59.0438028,17.0251961 59.0349296,17.0351295 C58.8921127,17.1936423 59.1052817,17.3990748 59.2660563,17.2663468 C60.1094366,16.5686795 60.8414789,16.8960611 61.4541549,17.5728047 M86.5561268,64.8723663 C86.415,65.0864642 86.2761972,65.3073252 86.1407746,65.5338928 C85.815,65.208836 85.3599296,64.9915679 84.773662,64.9733918 C78.2655634,64.7702841 71.7606338,64.5927499 65.2489437,64.5883115 C62.0376761,64.586198 58.7972535,64.4779867 55.59,64.6369221 C53.979507,64.7168125 52.3696479,64.8119202 50.76,64.9032235 C49.6345775,64.9670513 48.4390141,65.046519 47.34,65.3724211 C44.8071127,60.9404055 41.9953521,56.6793722 38.9247887,52.6051726 C45.8915493,53.4600845 52.9776761,53.3689926 59.9839437,53.6063389 C67.9219014,53.8753879 75.8642958,53.9332978 83.805,54.1213996 C85.983169,54.1729691 88.161338,54.229611 90.3390845,54.2904798 C91.4630282,54.321971 92.5871831,54.354519 93.711338,54.3885464 C94.0626761,54.3991139 94.4262676,54.408836 94.7902817,54.3993252 C94.7628169,54.4561785 94.7349296,54.5130317 94.7076761,54.5692509 C94.0947887,55.8356618 93.3240845,57.0012587 92.4259859,58.0829495 C90.5165493,60.3828634 88.2101408,62.3640611 86.5561268,64.8723663 M78.018169,78.5245386 C77.7771127,77.8541354 77.1897887,77.3384407 76.2540845,77.3811335 C70.9216901,77.6233409 65.5793662,77.7913644 60.2530986,78.1424172 C57.6585211,78.313611 55.0533803,78.4287969 52.4630282,78.6557871 C51.1269718,78.7730865 49.7932394,78.9909886 48.4628873,79.1642959 C47.5508451,79.2832861 46.5959155,79.4212978 45.7210563,79.7455092 C45.8907042,77.8718888 46.0402817,75.996789 46.1702113,74.1189417 C46.2743662,72.6103233 46.3060563,71.0879671 46.2980282,69.5755444 C46.2940141,68.8100337 46.2680282,68.0400845 46.2310563,67.2747851 C46.3096479,67.2906364 46.3884507,67.2984564 46.4657746,67.2889456 C46.6022535,67.2720376 46.7296479,67.255975 46.8479577,67.2242724 C48.0739437,67.7042489 49.4615493,67.8101354 50.76,67.9029182 C52.3001408,68.012609 53.8398592,68.1294857 55.38,68.2393879 C58.6569718,68.4733526 61.9647887,68.4581354 65.2489437,68.56529 C71.7139437,68.7760063 78.1802113,68.8985894 84.6464789,69.0716853 C84.3464789,70.3594427 84.3359155,71.6818614 84.8161268,72.9286168 C84.4816901,72.8176579 84.0965493,72.8692274 83.7678169,73.1940728 C81.9052817,75.0347225 79.9871831,76.810065 78.018169,78.5245386 M59.208169,92.2168673 C59.0765493,91.8527108 58.8280986,91.5181432 58.5340141,91.2913644 C57.4033099,90.4197558 55.3392254,90.9215014 53.9820423,90.9878654 C52.3753521,91.066699 50.7684507,91.1453213 49.1617606,91.2239436 C48.6741549,91.2476149 46.1854225,91.3746364 44.3575352,91.7643663 C44.7352817,88.910926 45.0779577,86.052836 45.3842958,83.1894622 C45.4485211,82.588382 45.5080986,81.9870904 45.5670423,81.3857988 C46.428169,81.6628791 47.3640845,81.7645386 48.2522535,81.8068086 C49.5832394,81.8702137 50.9203521,81.9775796 52.2526056,81.9985033 C54.9143662,82.0403507 57.5909155,81.9088908 60.2530986,81.8645072 C65.0471831,81.7848282 69.8419014,81.5559358 74.6338732,81.3667773 C69.8226761,85.2735875 64.7389437,88.8382215 59.4361268,92.0807577 C59.360493,92.1270434 59.2838028,92.1710043 59.208169,92.2168673 M44.0661972,93.9102059 C44.4711972,93.9641002 44.8728169,93.9816423 45.18,94.0129221 C46.7222535,94.1684759 48.2404225,94.3096579 49.790493,94.3322724 C51.3274648,94.3546755 52.8642254,94.3770787 54.4011972,94.3996932 C54.7280282,94.4041315 55.0548592,94.4092039 55.3816901,94.4138536 C51.3346479,96.6254231 47.1633803,98.606198 43.0510563,100.691803 C43.4133803,98.4345816 43.7516197,96.1739789 44.0661972,93.9102059 M88.1647183,43.5530395 C97.3878169,47.4737988 109.217746,47.8295014 117.143873,41.3165307 C117.931479,41.532108 118.802535,41.6037558 119.498028,41.6735014 C121.060563,41.8305346 122.608732,41.9748869 124.178873,42.0241315 C127.239085,42.1196618 130.302042,42.262746 133.363521,42.3005777 C139.556831,42.3770865 145.750563,42.4128047 151.944085,42.4679671 C152.471197,42.4728282 152.892887,42.312202 153.212746,42.0541432 C153.84,43.1178693 154.423521,44.2084368 154.956127,45.3266912 C155.732958,46.9576814 156.391268,48.6432 156.931901,50.3665503 C156.816127,50.346472 156.695704,50.3325229 156.566831,50.330198 C148.427324,50.1894387 140.28169,50.4236149 132.140704,50.4576423 C123.997817,50.4916697 115.855986,50.4567969 107.71331,50.5147068 C105.45993,50.5309808 103.223239,50.5314035 100.975563,50.6985816 C99.8057746,50.7856579 98.6220423,50.823701 97.4634507,51.0126481 C97.3339437,51.0335718 97.2021127,51.0521706 97.0692254,51.0707695 C95.5166197,50.16302 93.5892254,50.3526012 91.8145775,50.3192078 C89.7769014,50.2807421 87.7394366,50.2465033 85.7019718,50.2162802 C81.6971831,50.1568908 77.6919718,50.113564 73.6867606,50.0860885 C65.7378169,50.0315601 57.8083099,50.2346677 49.8644366,50.5117479 C45.9120423,50.649337 41.9746479,50.8833018 38.073169,51.4917793 C37.8111972,51.152562 37.5517606,50.811654 37.2864085,50.4751843 C34.5219718,46.9701511 31.2447887,42.482973 26.6957746,41.3968438 C26.8702817,41.1123663 27.0473239,40.8295796 27.2271127,40.5486951 C30.3788028,41.3801472 33.8556338,41.3380885 37.0757746,41.5122411 C40.7875352,41.7128125 44.4914789,41.8514583 48.2076761,41.9427616 C55.5946479,42.1243115 62.9801408,42.2382294 70.3685915,42.3504564 C72.4191549,42.3817362 74.4697183,42.4144955 76.5202817,42.4487342 C77.6262676,42.4671217 78.7324648,42.4884681 79.838662,42.5053761 C80.4566197,42.5148869 81.0090845,42.5131961 81.5978873,42.307975 C82.143169,42.117971 82.6747183,41.8328595 83.2020423,41.5967812 C83.3860563,41.5143546 83.5356338,41.3924055 83.6577465,41.2484759 C85.1057746,42.1139554 86.6061972,42.8904564 88.1647183,43.5530395 M124.204648,30.5152626 C125.364718,30.8373605 126.561972,30.8908321 127.78838,30.9834035 C129.398239,31.1053526 131.004296,31.1258536 132.61838,31.1362098 C135.191831,31.1526951 137.765915,31.1349417 140.338521,31.063928 C141.443662,31.0334935 142.089296,30.2935562 142.280915,29.4460415 C142.307535,29.4675992 142.335,29.4887342 142.36162,29.5107147 C145.492817,32.0915131 148.32993,35.0432313 150.734155,38.3104955 C144.944155,38.3286716 139.153521,38.3324759 133.363521,38.3713644 C130.302465,38.3920767 127.239085,38.5178301 124.178873,38.5966638 C122.677606,38.6351295 121.19831,38.7596149 119.70338,38.9016423 C119.673803,38.9046012 119.642535,38.9071374 119.612324,38.9098849 C119.770775,38.7270669 119.927958,38.5417127 120.081549,38.3510748 C121.868451,36.1359123 123.338239,33.4065346 124.204648,30.5152626 M161.849789,146.798292 C162.360634,145.392178 162.162254,143.884194 162.13331,142.405587 C162.103732,140.888515 162.087465,139.372288 162.082394,137.855004 C162.072465,134.889126 162.052394,131.923458 162.019648,128.95758 C161.95331,122.957768 161.884014,116.953306 161.648028,110.957298 C161.181549,99.1035053 160.283028,87.2786677 158.816408,75.5045542 C158.103592,69.7803429 157.218803,64.0692352 156.018169,58.425971 C156.03507,58.4033566 156.051549,58.380108 156.068451,58.3572822 C157.264014,56.7590513 158.623732,55.2817127 159.79838,53.6727029 C159.902535,53.5298301 159.946056,53.3468008 159.945,53.1618693 C159.987887,53.1409456 160.030986,53.1189652 160.074718,53.0940258 C161.049085,52.53902 160.169155,51.0259632 159.195,51.5883663 C159.307394,51.5236932 157.689507,47.3698145 157.518169,46.9515523 C156.902324,45.4492744 156.209789,43.9803898 155.428944,42.5567342 C154.957817,41.698018 154.453521,40.8572665 153.925352,40.0319436 C153.833028,39.4156462 153.500282,38.8443663 152.928592,38.5387538 C151.925493,37.1011491 150.841901,35.7193409 149.686901,34.4028399 C144.958521,29.0134074 139.052535,24.6627616 132.600211,21.5637323 C131.667887,21.1160924 130.707887,20.7428477 129.751268,20.3520611 C128.732958,19.9354896 127.788592,19.3910513 126.78507,18.9537675 C125.152183,18.2425738 123.54,18.2833644 121.936056,19.0364055 C121.798944,19.1008673 121.897183,19.3117949 122.03662,19.2754427 C123.069296,19.0061824 124.127113,18.9609534 125.162324,19.2534622 C126.17662,19.5400532 126.947746,20.1732587 127.833803,20.7016344 C129.411972,21.6432 131.176268,22.2569613 132.793944,23.1357558 C134.933028,24.2986051 137.023521,25.5753722 139.023169,26.9770474 C136.951268,27.0867382 134.877887,27.1659945 132.803873,27.2209456 C131.263521,27.2619476 129.723803,27.2689221 128.185563,27.3585346 C127.090775,27.4221511 125.952254,27.4041863 124.858099,27.5810865 C125.121972,25.7666442 125.122394,23.935928 124.792606,22.1684055 C124.792606,22.1677714 124.792394,22.1671374 124.792394,22.1665033 C124.712746,21.7406325 124.616197,21.3179319 124.497465,20.9000924 C124.244577,20.0109417 123.434366,19.8775796 122.846197,20.2140493 C122.787887,20.1711452 122.729155,20.1288751 122.672746,20.0830121 C121.968169,19.5106755 121.333944,18.8259006 120.782324,18.1062528 C119.63662,16.6109495 118.710634,14.8799906 118.009437,13.1352939 C117.299155,11.3684055 116.795915,9.51972446 116.303028,7.68287906 C116.055845,6.76202583 115.78838,5.84603366 115.536549,4.92581448 C115.317676,4.12585362 115.15838,3.24219804 114.756338,2.51325088 C114.680915,2.37671859 114.454014,2.40250333 114.417887,2.55763444 C114.20493,3.47066771 114.317535,4.51199061 114.35662,5.44298865 C114.399718,6.47628023 114.459085,7.50006106 114.59662,8.52553268 C114.88162,10.6534074 115.341338,12.7451413 116.078028,14.7656501 C116.784296,16.7033096 117.716408,18.5114114 118.982324,20.143881 C119.82338,21.2283194 121.017887,22.6638106 122.401479,23.2486168 C122.582324,25.2843429 122.56162,27.3221824 122.080986,29.3376188 C121.452254,31.9756932 120.248239,34.4833644 118.594014,36.6317401 C115.125423,41.1364603 109.759225,43.6817519 104.160845,44.2063233 C98.3687324,44.7488595 92.4414085,43.4530708 87.236831,40.904609 C81.4478873,38.0699789 76.6455634,33.6967186 72.3321127,28.9764211 C69.845493,26.2554975 67.2671831,23.5783233 64.9626761,20.6995209 C64.5542958,20.1893213 63.9006338,19.1534935 63.1252817,18.220382 C63.9143662,18.2131961 64.7241549,18.0950513 65.4226056,18.0054387 C66.8676761,17.8198732 68.28,17.5326481 69.6921127,17.1733526 C72.3323239,16.5016814 75.1164085,15.5670904 77.4234507,14.0886951 C82.3052113,10.9600767 84.2108451,6.99155225 84.8617606,1.52413151 C85.0675352,-0.204291194 82.08,-0.624032877 81.8017606,1.10967358 C81.3743662,3.77480078 80.7276761,5.07164618 79.8773239,7.63173229 C79.059507,10.0924838 77.8749296,11.00911 75.6107746,12.3655562 C73.4852113,13.639153 71.0695775,14.3788791 68.7278873,15.1433331 C67.4302817,15.5668791 66.1172535,15.9532274 64.808662,16.3425346 C63.9756338,16.5904485 62.9866901,16.8066599 62.1416197,17.1894153 C61.7007042,16.8024329 61.2407746,16.5105581 60.7776761,16.4000219 C60.8116901,16.342746 60.7675352,16.2537675 60.6821831,16.2706755 C60.5461268,16.2979397 60.410493,16.3279515 60.2744366,16.3560611 C60.1377465,16.3657832 60.0016901,16.392836 59.8658451,16.4418693 C51.7096479,18.2087577 43.8771127,21.971427 37.2352817,27.0970943 C36.9004225,27.2367969 36.5765493,27.408202 36.2683099,27.624836 C36.1096479,27.7362176 36.0044366,27.9131178 35.9742254,28.0963585 C34.9757746,28.9117479 34.0069014,29.7579945 33.0707746,30.6338301 C25.5314789,37.6880689 20.754507,47.0720219 17.4103521,56.7239671 C14.1160563,66.2328282 11.8861268,76.2041237 10.6599296,86.1876775 C9.40985915,96.3641941 9.26577465,106.752061 11.0788732,116.87109 C12.0523944,122.304484 13.6284507,127.644038 15.9547183,132.655576 C18.0437324,137.156492 21.4440845,142.28385 26.7849296,142.831881 C26.8020423,142.849 26.8180986,142.866965 26.8373239,142.883028 C28.9328873,144.609337 32.0528873,143.41711 34.2437324,142.385721 C34.5910563,142.222135 34.9356338,142.050096 35.2787324,141.87383 C35.0974648,142.57192 35.0157042,143.302769 34.9778873,143.987756 C34.8990845,145.410355 36.9042254,145.49109 37.2838732,144.310488 C40.5342254,144.88219 43.8906338,144.890222 47.178169,144.872045 C50.8514789,144.851756 54.5235211,144.724523 58.1926056,144.551638 C65.4724648,144.208194 72.743662,143.6832 80.0283803,143.444586 C94.778662,142.961439 109.569296,143.993885 124.307746,144.513807 C128.442254,144.65985 132.576761,144.80547 136.711268,144.951513 C140.935563,145.100515 145.155634,145.129047 149.345915,145.700539 C150.88669,145.910621 151.476972,144.4001 151.042394,143.458957 C151.150775,142.826809 151.042817,142.133791 150.983451,141.389204 C150.872746,139.997885 150.768169,138.606143 150.670141,137.213768 C150.478732,134.499184 150.293873,131.783544 150.118521,129.067693 C149.763169,123.564343 149.457465,118.056977 149.16,112.550245 C148.568662,101.601243 148.115915,90.6439984 147.782958,79.6842176 C147.70162,77.0127499 147.595563,74.3404368 147.46162,71.6708712 C147.621127,71.4178849 147.780211,71.1644759 147.934014,70.908108 C148.446127,70.0536188 148.94831,69.1936344 149.466972,68.3429495 C150.507465,66.6377753 151.554296,64.9438027 152.648239,63.2722333 C153.593028,61.8287108 154.567606,60.40738 155.585915,59.015427 C156.850141,69.6955914 157.973873,80.3865346 158.489789,91.1351765 C159.057887,102.973752 159.359366,114.830503 159.52331,126.681126 C159.569155,129.991928 159.6,133.302942 159.635282,136.613744 C159.653662,138.33794 159.672042,140.060867 159.657887,141.785063 C159.644155,143.433807 159.39507,145.237681 159.979859,146.798292 C160.320845,147.708366 161.513239,147.724429 161.849789,146.798292 Z" id="ðŸ–-Ink" fill="#000000"></path>
                    </g>
                    <g id="head/No-Hair-2" transform="translate(78.591549, 38.043053)" fill-rule="evenodd">
                        <path d="M49.9547315,18.3508179 C56.8252448,18.3508179 66.8895314,22.3333818 80.1475911,30.2985097 C86.3727471,56.3962163 88.858126,73.1718197 87.6037279,80.6253199 C85.7221306,91.8055703 75.922239,105.502635 59.6972051,105.502635 C43.4721713,105.502635 39.0641795,99.7759495 35.1614039,97.1731541 C32.5595536,95.4379571 28.6365997,90.6220125 23.3925423,82.7253201 C19.8341761,83.8338828 17.5327755,84.067436 16.4883404,83.4259797 C14.2635689,82.0596011 14.5336405,78.4661766 13.8305237,74.9912429 C13.3123858,72.4305093 11.5480482,69.9177309 11.5480482,68.4919869 C11.5480482,63.3194456 15.2225769,63.6890895 17.0733502,62.449502 C13.0179155,58.4532601 14.085241,44.5944016 19.1940655,37.3156748 C24.3028901,30.0369481 39.6489616,18.3508179 49.9547315,18.3508179 Z" id="ðŸŽ¨-Background" fill="#FFFFFF"></path>
                        <path d="M68.4917746,9.52213386 C69.3932535,9.3777816 70.1176901,10.6454607 69.1633944,11.1155037 C65.1007183,13.117625 60.8356479,14.6239186 56.6994507,16.4489284 C58.812338,16.7025487 60.9670563,17.1032689 63.0490986,17.723582 C65.4448732,16.7384783 67.9050845,15.9404196 70.4383944,15.3763256 L71.2412975,15.1981777 C73.8206148,14.6321953 76.7241087,14.096811 79.229662,14.9641926 C80.0905775,15.2619851 80.0377606,16.3495937 79.229662,16.664717 C77.7752958,17.2319812 76.1679718,17.3807718 74.6286761,17.5587288 C73.0786056,17.7377425 71.5454366,17.9562787 70.0177606,18.2787992 C68.9048028,18.5136094 67.797338,18.7864626 66.7000141,19.0965135 C67.3883239,19.4179773 68.0595211,19.7702982 68.7068451,20.1606622 C72.194662,22.2644431 75.3695915,24.6664391 78.0262817,27.783856 C80.6050141,30.8093354 82.6340282,34.2357464 84.0148732,37.9652337 C84.3763521,38.941672 84.6083239,39.979402 84.7581127,41.0097346 C84.8783239,41.8348462 84.8035352,42.6432611 84.8238169,43.457171 C84.8671268,43.4740791 84.9043099,43.5068384 84.9165634,43.5562943 C85.410507,45.5182591 85.4732535,47.6503609 85.629169,49.6674881 C85.791,51.759856 85.9570563,53.8515898 86.0954366,55.9458599 C86.2333944,58.0293511 86.2116338,60.2035115 86.6014225,62.256991 C86.955507,64.1221573 88.0076197,65.7782982 88.5998028,67.5836524 C92.1529014,78.4157777 88.6847324,91.3956446 80.0443099,98.876811 C75.6818451,102.653852 70.2427606,105.048028 64.5362113,105.837422 C61.569169,106.247652 58.6232535,106.237085 55.6598028,105.799801 C54.2531831,105.592467 52.8632535,105.280514 51.5058592,104.857179 L51.0025727,104.70103 C50.4390065,104.524885 49.8669588,104.334445 49.3469155,104.074971 C48.6051549,103.704897 48.2838169,103.082259 48.0235352,102.325202 C47.865507,101.865727 48.120507,101.16024 48.5785352,100.960091 L48.7275992,100.896143 C49.5126034,100.566482 50.1453828,100.424852 51.0019859,100.747895 C51.6921972,101.008279 52.3929718,101.238862 53.1026197,101.440067 C54.510507,101.839308 55.9543099,102.136044 57.411,102.278917 C60.3465634,102.567198 63.3165634,102.420099 66.1961408,101.774846 C71.3702958,100.615378 76.1094507,98.012811 79.697831,94.087402 C83.2042394,90.2518168 85.4005775,85.3592689 86.2424789,80.2505096 C86.6599437,77.7155742 86.694169,75.055308 86.3586761,72.508537 C86.1843803,71.1869636 85.8883944,69.8759577 85.5049437,68.600036 C85.2883944,67.8797542 85.0095211,67.1818755 84.7830423,66.4658207 C84.577841,65.817398 84.5152746,65.1239631 84.4214539,64.4472809 L84.399169,64.2914489 C84.1445915,62.5708462 84.2322676,60.8185409 84.2339577,59.0848344 C84.2356479,57.3409832 84.2259296,55.5967092 84.2432535,53.8528579 L84.2602606,51.8811182 C84.2662289,51.2237131 84.2734648,50.5662552 84.2848732,49.9090614 C84.044662,49.9473159 83.7459296,49.7704157 83.7229014,49.484036 C83.6379718,48.4243256 83.3983944,47.3952611 83.2657183,46.3414685 L83.2304838,46.0642659 C83.1052648,45.0957595 82.9529688,44.1462281 82.5484648,43.2502591 C81.7270563,41.4311671 81.1486056,39.5116838 80.3700845,37.674627 C78.8229718,34.0250301 76.5171972,30.6573746 73.662338,27.9085526 C70.2351549,24.6085292 65.9888873,22.2650771 61.4379718,20.9280751 C61.2932535,20.9887327 61.1474789,21.0466427 61.0033944,21.1085683 C58.121493,22.3525761 55.3855775,23.9531319 52.787831,25.711355 C51.4488169,26.617625 50.1602958,27.5959656 48.930507,28.6461652 C48.3317746,29.1574215 47.7315634,29.6682552 47.1463521,30.1953628 C46.896,30.4206622 46.6481831,30.6491319 46.4031127,30.8805605 C46.2395915,31.0344235 46.0777606,31.1897659 45.9167746,31.3463765 C45.5464225,31.6067601 45.5383944,31.9732415 45.8926901,32.4449753 C46.0188169,32.3929832 46.1003662,32.6007405 45.984169,32.6624548 C45.2825493,33.0352767 44.7311408,32.2384861 44.8802958,31.5780164 C44.9983117,31.0550255 45.4830099,30.5749631 45.8240893,30.1642791 L45.869662,30.1087092 C46.3999437,29.4533119 46.9433239,28.8025644 47.519662,28.1866896 C50.5555775,24.9424626 54.1386761,22.2600047 58.0232535,20.1234646 C56.3901549,19.8307444 54.7350845,19.6625096 53.0802254,19.6210849 C52.1276197,19.597625 51.1786056,19.6130536 50.2342394,19.6658912 C48.7619155,20.4664861 47.3081831,21.3000517 45.8821268,22.1845526 C44.6920563,22.9227992 43.5193099,23.6893667 42.3668451,24.4851006 C41.7664225,24.8995585 41.1729718,25.3235272 40.5818451,25.7508775 C40.2839577,25.9666661 39.8286761,26.2226114 39.5895211,26.4933511 L39.5713861,26.5155926 C39.4040971,26.7343884 38.9203848,27.689191 39.5493803,27.6627523 C39.6165634,27.6600047 39.6294507,27.763989 39.5650141,27.779629 C38.9914225,27.9191202 38.9168451,27.3275507 39.0150845,26.8813902 C39.2603168,25.7687254 40.7448821,24.8696477 41.5796143,24.1756371 L41.6331127,24.1306661 C43.3224085,22.6949636 45.0674789,21.3243569 46.860507,20.0199029 C41.2724789,20.8784078 35.9550845,23.0732806 31.3329718,26.4441065 C25.3931831,30.775308 20.9288873,36.8801613 17.9544507,43.5577738 C16.5410704,46.7309871 15.3689577,50.1125918 14.9495915,53.571128 C14.5737465,56.6707914 14.9738873,60.0707836 17.3912113,62.2618521 C17.522831,62.2489597 17.6544507,62.2356446 17.7860704,62.2265566 L17.9911379,62.2141097 C19.7127766,62.1220555 23.3033577,62.2388994 23.1875493,64.6097425 C23.1826901,64.7084431 23.0326901,64.7697346 22.9845211,64.6646935 C22.4199528,63.4378817 20.7710325,63.6582917 19.5959156,63.852257 L18.9347138,63.9612126 C17.561839,64.1893645 16.1588873,64.4827414 14.9519155,65.1970849 C13.794169,65.8824939 12.7798732,66.9781339 12.5563521,68.3500086 C12.3357887,69.7020164 13.2326197,70.7217816 14.0054366,71.7161847 C14.8815634,72.8437386 15.5859296,74.0101808 15.6700141,75.4742043 C15.7540986,76.9479499 15.0321972,78.431629 15.2415634,79.8886779 C15.7086761,83.1443178 20.4438169,82.0953863 22.4793803,81.5951202 C23.0897324,81.4452728 23.931,81.6783922 24.2124085,82.3006074 C25.5592394,85.2783217 27.390507,87.9958638 29.6969155,90.3141652 C30.837338,91.4605292 32.0713521,92.509038 33.4052958,93.4227053 C34.7538169,94.3463061 36.0630423,95.1044196 36.9875493,96.5005996 C37.3458592,97.0420791 36.8595211,97.6463295 36.3034648,97.6932493 C34.481493,97.846901 32.9956479,96.9501417 31.5579718,95.936717 C30.1101549,94.9161065 28.7394507,93.7784078 27.4919155,92.5202395 C25.2636761,90.2733746 23.4072676,87.6716524 22.0198732,84.8306818 L21.8289603,84.8666081 C18.7035279,85.4419178 15.2379718,85.4389353 13.2089577,82.5800125 C12.3064225,81.3083178 12.2058592,79.8182982 12.4395211,78.3198247 C12.6670563,76.8602395 13.2000845,75.4928031 12.3761408,74.1298051 C11.6282535,72.8925605 10.5636761,71.8736407 10.1367042,70.4540008 C9.72409859,69.0823374 9.95776056,67.6278247 10.5736056,66.3584548 C11.7520563,63.9304626 14.1835352,62.7327405 16.7288873,62.3434333 C13.6638169,60.4972885 12.636,56.7206701 12.6307183,53.2688971 C12.6239577,48.9459382 14.1514225,44.5773276 15.8831831,40.6772806 C19.1500141,33.3201769 24.6615634,26.8376407 31.3870563,22.4227444 C37.6285352,18.3259303 45.1526197,16.1181652 52.6272676,16.1845292 C54.5472676,15.0333041 56.5186056,13.9674646 58.5248028,12.9755977 L58.9536166,12.7652934 C62.0261986,11.2713279 65.0915446,10.0672157 68.4917746,9.52213386 Z M16.0236761,69.3755225 C16.3957183,68.4673503 18.0311408,68.4703092 18.8031127,68.500955 L18.9449562,68.5074634 C21.2939394,68.6307089 25.1872986,69.5897725 25.6684648,72.2173386 C25.7489577,72.6563131 25.4675493,73.2352016 24.9332535,73.182998 C24.1602254,73.107546 23.5739577,72.966364 22.9388873,72.5111155 L22.6173635,72.281362 C22.0827195,71.9011761 21.5504718,71.5370372 20.9643803,71.2244149 C20.2456479,70.8414481 19.5045211,70.5647906 18.7221972,70.3435068 C18.401493,70.2530489 18.0784648,70.1585753 17.7562817,70.0734012 C17.5431127,70.017182 17.3284648,69.967726 17.1125493,69.9248219 C16.8592394,69.7686341 16.6944507,69.8654325 16.6186056,70.2147945 C16.7181127,70.2490333 16.7090282,70.4219178 16.5921972,70.4094481 C16.1284648,70.3602035 15.8430423,69.8159765 16.0236761,69.3755225 Z M23.4876127,65.563038 C23.4876127,65.5522168 23.5011338,65.5501879 23.5065423,65.5566264 L23.5087394,65.563038 L23.5087394,66.5369401 C23.5087394,66.5479303 23.4952183,66.5501284 23.4898099,66.5435342 L23.4876127,66.5369401 L23.4876127,65.563038 Z" id="ðŸ–-Ink" fill="#000000"></path>
                    </g>
                    <g id="face/Smiling" transform="translate(112.183099, 77.354207)" fill="#000000" fill-rule="evenodd">
                        <path d="M30.968993,50.9198978 C29.548794,50.3403012 28.2816173,49.3734958 27.3551889,48.1384646 C27.0331038,47.7091169 26.9495926,47.2557326 27.017159,46.8410547 C27.0931327,46.3747786 27.3688808,45.9521824 27.7449394,45.6687178 C28.1221628,45.3843752 28.5940214,45.2441445 29.0502103,45.3156301 C29.4466117,45.3777469 29.8412104,45.5948709 30.1535058,46.0451781 L30.2187521,46.1352289 C30.7695298,46.8806513 31.4872438,47.4922614 32.3050288,47.8864795 C33.0932406,48.2664417 33.9747757,48.4437847 34.8870208,48.3406561 C36.6244504,48.1443157 37.8219743,47.2043274 39.0948115,45.9278391 C39.2525834,45.7666792 39.4104563,45.6004672 39.5690946,45.4315797 C39.6692778,45.278484 39.8083069,45.1800892 39.962667,45.1284632 C40.1340565,45.0711416 40.327938,45.0743848 40.5055187,45.1363808 C40.6767961,45.1961763 40.8299095,45.309486 40.9325762,45.4602937 C41.0301525,45.6036243 41.0854754,45.7806897 41.0675245,45.9843589 C40.9510195,47.3072301 40.2596776,48.4878363 39.2776553,49.4148615 C38.1869942,50.4444414 36.7412431,51.1567117 35.3801317,51.4065272 C33.8805866,51.6817086 32.3525901,51.4845569 30.968993,50.9198978 L30.968993,50.9198978 Z M36.0875289,30.5120405 C37.6828906,31.482148 40.1137318,33.7442494 38.3974899,36.149264 C36.3773089,38.2698449 33.4687045,35.8384541 32.0353946,34.7388307 C30.7063626,33.8866164 29.2131206,36.0784478 30.4461973,37.0735516 C40.8033244,44.7445605 45.006466,30.7657101 36.8944406,29.3714319 C36.0012775,29.2177885 35.6695544,30.2119271 36.0875289,30.5120405 Z M17.5274577,21.5886716 C17.7037243,19.3998697 21.0359789,18.9028321 21.3674577,21.0687499 C21.6642887,23.0089456 21.3148521,24.7912626 20.4412606,26.5380728 C19.6065423,28.2068947 17.5085456,27.4283107 17.3498837,25.9087021 C17.1372039,23.8717299 17.4178099,22.9502317 17.5274577,21.5886716 Z M42.8930282,20.6196517 C43.3576056,20.0109628 44.0283803,19.5954481 44.8320423,19.8302583 C47.3429577,20.5642779 46.6028873,24.1303914 45.7210563,25.8662114 C45.2419014,26.8088337 43.6930986,27.0478708 42.993169,26.2178982 C41.8523239,24.864411 41.3059859,22.1614521 42.756338,20.8282544 C42.7956338,20.7593542 42.8393662,20.68982 42.8930282,20.6196517 Z M20.4058944,12.0111429 L20.802522,11.9416942 C22.0295218,11.7294045 23.5551549,11.5254176 24.4231479,12.5122544 C24.8835,13.0355577 25.0419507,14.0081918 24.4231479,14.509092 C23.3346972,15.3904227 22.1313169,15.0488806 20.8269507,15.1234873 C19.7520211,15.1852016 18.7189225,15.3631585 17.6835,15.6592603 C15.4119507,16.3087397 13.5610352,17.4944149 11.6209648,18.7963327 C11.3663873,18.9671037 11.1065282,18.6414129 11.228007,18.4032211 C12.3479366,16.208771 14.5182887,14.4061644 16.6922324,13.3073542 C17.8525141,12.7208571 19.1222324,12.2343288 20.4058944,12.0111429 Z M40.6041287,11.0281289 L40.9077055,11.0902829 C44.2113469,11.7811043 48.5035506,13.1610768 50.0679842,16.4073021 C50.1275964,16.8663298 50.0646105,16.9647086 50.0133917,17.0289838 L49.9963385,17.0503723 C49.9541341,17.1052595 49.9204583,17.1809212 49.7215736,17.2433957 C49.6663832,17.2302408 49.6106433,17.216308 49.5543131,17.2015401 C48.8372041,17.0135386 48.2698321,16.7545401 47.720556,16.4857982 L47.1250012,16.192275 C46.4340388,15.8533498 45.7369757,15.5267598 44.9982488,15.2856588 C43.4217423,14.7712438 41.8001698,14.4088706 40.1534741,14.2153715 C39.7965654,14.1734678 39.4528848,14.0529641 39.1817455,13.8464404 C38.92438,13.6504079 38.7277692,13.3789964 38.6381257,13.0182314 C38.5219478,12.5513438 38.5553348,12.1978716 38.8057421,11.7766707 C38.9940329,11.4603578 39.263447,11.2411116 39.5728025,11.115213 C39.888177,10.9868648 40.2472278,10.9566068 40.6041287,11.0281289 Z" id="ðŸ–-Ink"></path>
                    </g>
                    <g id="facial-hair/Goatee-1" transform="translate(104.577451, 109.479380)" fill="#000000" fill-rule="evenodd">
                        <path d="M43.9255563,6.62122427 C41.5760493,5.56257065 37.3570352,6.48638278 35.8253451,6.85370959 C32.2644296,7.70798748 28.6821761,9.55413229 27.5751338,12.4464611 C26.3275986,15.7061166 28.8167535,16.7322223 29.1828803,16.5646215 C31.6479507,16.7383515 34.5835141,15.1880971 37.1666831,14.788011 C39.2637254,14.460418 41.4759085,14.1744611 43.4406972,13.0597996 C44.8752042,13.849193 48.1152042,14.2759092 50.7300634,14.9661793 C52.9570352,15.5537331 53.9218944,16.827964 55.9864014,16.5570129 C58.4607676,16.2323789 57.4479507,11.0261871 54.6902746,8.9171225 C51.6721056,6.60896595 46.5674577,5.6728955 43.9255563,6.62122427 Z M48.5776268,28.8817573 C46.5220761,29.3831108 46.3840352,24.8760352 46.1537535,23.2837221 C45.9738469,22.0397339 44.9592008,18.8316443 42.3868521,18.9700626 C39.8145035,19.108481 38.8475561,21.796294 38.9780493,23.4680196 C39.0626709,24.5520924 40.0612712,30.0433492 36.8738239,30.738047 C34.8416408,30.7308611 32.4906549,30.5936947 30.3538944,30.1995264 C27.8389648,29.629726 24.5687141,27.6347621 23.7048803,31.5635812 C23.393986,32.9775653 34.4723451,37.1785245 39.388331,37.5585323 C44.3739031,38.5692259 50.2070662,37.0151109 53.756631,33.1996929 C54.5641562,32.3316861 56.8385145,28.7288625 57.0005829,27.8461124 C57.3410764,25.9915219 56.5527386,24.798077 54.2588239,25.4517534 C52.6384014,26.3174442 49.8995426,28.5593391 48.5776268,28.8817573 Z" id="ðŸ–-Ink"></path>
                    </g>
                    <g id="accessories/*-None" transform="translate(88.521127, 88.978474)"></g>
                </g>
            </g>
        </g>
    </g>
</svg>