<?xml version="1.0" encoding="UTF-8"?>
<svg width="240px" height="324px" viewBox="0 0 240 324" version="1.1" xmlns="http://www.w3.org/2000/svg" xmlns:xlink="http://www.w3.org/1999/xlink">
    <!-- Generator: Sketch 62 (91390) - https://sketch.com -->
    <title>peep-69</title>
    <desc>Created with Sketch.</desc>
    <g id="Introduction" stroke="none" stroke-width="1" fill="none" fill-rule="evenodd">
        <g id="variations" transform="translate(-2286.000000, -1730.000000)">
            <g id="images" transform="translate(126.000000, 110.000000)">
                <g id="a-person/bust" transform="translate(2160.000000, 1620.000000)">
                    <g id="body/Sporty-Tee" transform="translate(31.056338, 135.052838)" fill-rule="evenodd">
                        <path d="M24.1490915,150.426542 C26.6782013,150.582878 29.2071394,150.706398 31.7359206,150.800658 C64.8057553,152.033332 97.8487751,148.261985 130.898176,147.436781 C142.407401,147.133705 153.857683,147.285032 165.337331,148.209478 C166.46212,148.299936 167.748317,147.089321 167.610148,145.935771 C165.489232,127.621423 162.835923,109.355685 161.460782,90.9660963 C161.459725,89.9934622 161.585218,89.0223076 161.919444,88.1058928 C161.982401,88.0340337 162.309021,87.2283663 162.599514,87.1784877 C162.504655,87.248656 162.934585,87.1252274 162.660782,87.1463624 C164.3205,86.8745659 165.948317,85.0823155 164.74388,83.3672078 C152.335711,64.3420885 135.397542,46.9775483 129.948106,24.3803977 C128.660641,18.2711061 124.010218,17.8934231 119.055993,15.3730708 C117.510359,14.4534857 113.73057,11.9058693 113.115359,10.1347538 C111.645993,3.7513409 114.233599,-2.50230294 106.67381,-5.08521487 C101.683246,-6.46934795 92.8624014,-7.64043992 87.8128944,-6.18064344 C81.6533873,-4.12991155 82.1143732,2.813791 78.5416268,7.59094168 C76.6938602,10.3540673 73.5438342,14.1372645 70.6350659,14.5606247 C69.2252948,14.7658115 68.18693,11.9130412 66.7793028,12.1093996 C44.8383169,17.4402881 14.9452183,53.8064877 5.51507746,73.9376031 C3.38993662,80.2732509 10.2436056,78.3617988 9.8225493,84.7297832 C9.30346479,96.8107773 8.16817606,112.276546 8.84148592,124.371912 C9.47211972,131.392124 9.00542958,138.747748 11.1867676,145.503983 C10.5996549,146.217079 11.4432465,146.937572 12.1315563,147.247411 C12.9988099,148.722848 21.532331,150.222167 24.1490915,150.426542 Z" id="ðŸŽ¨-Background" fill="#FFFFFF"></path>
                        <path d="M81.2711408,-0.0176688845 C81.8415634,-2.5853636 85.9253662,-1.48422857 85.2260704,1.07289863 C84.1422676,5.02747397 81.8943803,8.76414716 78.7213521,11.3870043 C76.2704366,13.4117401 72.930507,15.2185738 69.6176197,15.5525072 C69.9281831,15.8549495 70.2260704,16.1783155 70.5387465,16.4866755 C71.2443803,17.1883585 71.9943803,17.8393174 72.7676197,18.4649143 C74.3565634,19.7499241 76.0084648,20.9060102 77.8126901,21.8739945 C85.0190282,25.7419162 93.1593803,26.6338145 101.208465,25.7332509 C105.028183,25.3063233 108.904944,24.5816031 112.496493,23.1843663 C114.161493,22.5378458 115.779592,21.6880063 117.207972,20.6145581 L117.581744,20.3338548 C118.332645,19.7665633 119.334764,18.9661539 119.804239,18.0910356 C118.37607,18.4120767 116.569732,16.8903546 115.578887,16.0050082 C114.495296,15.0327969 113.582408,13.7792783 112.908465,12.4942685 C111.588042,9.97307084 110.888746,6.72038982 111.996,4.01700822 C112.069732,3.83736047 112.306352,3.86716086 112.327479,4.06160313 C112.654944,7.21283601 113.504239,10.1675131 115.765014,12.5008204 C116.768535,13.5343233 117.970437,14.4008595 119.282408,15.0029965 L119.467087,15.0878479 C120.025982,15.3465274 120.61443,15.6499397 120.850014,16.2034661 C120.94107,16.1928986 121.031704,16.2013526 121.118324,16.2248125 C121.196493,16.2457362 121.268324,16.2691961 121.338042,16.2945581 C121.181704,15.9881002 121.099521,15.6266912 121.114099,15.1995523 C121.169239,13.5446795 123.440366,13.4941667 123.754944,14.9672783 C123.697901,14.772836 123.621845,14.9609378 123.765507,15.0201159 C123.763257,15.00295 123.759257,14.984013 123.754838,14.9671726 L123.759165,14.9827499 L123.759165,14.9827499 L123.767725,15.0200102 L123.765507,15.0201159 C123.771282,15.046746 123.77593,15.0745033 123.779013,15.1025112 L123.781965,15.1393627 L123.780127,15.1085065 C123.77818,15.0856939 123.775453,15.0652854 123.772396,15.0466998 L123.76762,15.0201159 C123.788746,15.030472 123.818324,15.0370239 123.852127,15.0370239 L123.86609,15.0425271 C123.919013,15.0653542 124.105676,15.1524211 124.160789,15.1744016 C124.538746,15.3138928 124.961282,15.358065 125.347901,15.4785346 C126.186845,15.7365933 126.926282,16.1635209 127.437549,16.8903546 C127.805155,17.4126012 128.009873,18.0107225 128.09438,18.631881 C131.806352,20.4180023 135.319732,22.7384172 138.262901,25.6108791 C144.831211,32.0188086 149.411282,40.0395523 153.169732,48.3416031 C155.082644,52.5680806 156.787346,56.8842076 158.454647,61.2120654 L158.71762,61.8954975 C160.504944,66.5471061 162.085437,71.2496501 162.473958,76.2504094 C162.509873,76.698472 162.361986,77.1190591 162.106352,77.4677871 C162.197197,77.8439906 162.243887,78.2201941 162.231,78.5877323 C162.228887,78.6450082 162.224873,78.7020728 162.220437,78.7591374 C162.820437,78.7485699 163.407761,79.0000767 163.965507,79.7059867 C164.191563,79.6341276 164.436634,79.6254622 164.677479,79.7036618 C166.145789,80.1728595 166.382408,81.7856736 166.659169,83.136202 C166.944592,84.5311139 167.069028,85.9598419 167.071141,87.382018 C167.071141,87.8915836 166.779592,88.5340885 166.285225,88.7517793 C165.355648,89.1615875 164.354451,89.4302137 163.392972,89.8021902 C162.670437,90.0811726 161.945789,90.3453605 161.214803,90.5926403 C161.620437,91.3004524 161.751423,92.2855562 161.971141,93.0316227 C162.315507,94.1961628 162.592268,95.3649299 162.824873,96.5569456 C164.400718,104.662229 165.492972,112.854167 166.96762,120.976359 C167.704944,125.044852 168.562901,129.085869 169.437338,133.126887 C169.868324,135.11358 170.326775,137.095834 170.819028,139.069846 C171.081211,140.12237 171.353535,141.175106 171.634521,142.221079 C171.716211,142.526832 171.79884,142.831646 171.882408,143.136147 L172.029592,143.66904 L172.029592,143.66904 C172.350718,143.846574 172.625366,144.114989 172.815507,144.482527 C173.510789,145.826926 173.111282,147.342308 171.778183,148.098942 C170.328887,148.923208 168.598817,148.145227 167.800014,146.80738 C167.238042,145.862856 167.054239,144.611662 166.777479,143.56104 C166.464803,142.381916 166.166915,141.196241 165.879592,140.010566 C163.927685,131.955466 162.620555,123.759221 161.635337,115.532122 L161.565507,114.944421 C161.064803,110.708961 160.581,106.462934 160.268324,102.208452 C160.114099,100.118198 159.991563,98.0279436 159.915507,95.9332509 C159.877479,94.8555757 159.938746,93.7713487 160.000014,92.6953644 C160.027479,92.2242646 160.06762,91.7506286 160.082408,91.2795288 L160.087162,91.2124379 C160.09107,91.1646907 160.096563,91.1018795 160.101,91.0359721 L160.105648,90.9561628 C158.647901,91.4126795 157.169028,91.79311 155.675577,92.1141511 C152.497901,92.8010395 149.246493,93.1837949 146.003535,92.9893526 C146.455648,98.3618771 147.045085,103.721509 147.869028,109.045423 C148.663394,114.172993 149.580296,119.289572 150.615507,124.374871 C151.133324,126.930096 151.692972,129.478981 152.282408,132.019411 C152.59931,133.37628 152.960577,134.724484 153.246,136.087905 C153.414803,136.899278 153.46762,137.577713 153.127479,138.336672 C153.501999,139.356917 153.834614,140.382403 154.161833,141.348024 L154.259873,141.63585 C154.838746,143.326652 155.937338,145.055286 154.790155,146.716711 C154.196704,147.574582 153.229099,148.065126 152.254944,148.094715 C152.238042,148.105071 152.219028,148.117963 152.200014,148.128319 C151.67607,148.409415 151.071845,148.464578 150.497197,148.344108 C149.624662,148.51509 148.750014,148.680155 147.873254,148.830214 C145.707761,149.204304 143.531704,149.512664 141.351423,149.772836 C137.200014,150.267184 133.021141,150.537924 128.844592,150.687983 C113.552831,151.239396 98.2443803,150.271411 82.9467042,150.550394 C75.152831,150.691998 67.359169,151.04284 59.5781831,151.508022 C55.6950845,151.740507 51.8098732,151.989901 47.924662,152.182229 L46.7220611,152.240748 C43.2475564,152.406978 39.7705338,152.535476 36.2986056,152.281564 C36.231,152.277126 36.1781831,152.24965 36.1422676,152.211818 C34.9443803,152.076554 33.7403662,150.973094 33.8605775,149.698863 C34.3781831,144.271177 34.8957887,138.843912 35.415507,133.414112 C36.3387465,123.74082 37.2704366,114.067317 38.2126901,104.395717 L38.3488628,102.999534 C38.665463,99.7406736 38.9677077,96.4742284 39.1211408,93.2026051 C38.3479014,93.1478654 37.5769859,93.0781198 36.8056479,92.9933683 C28.4488592,92.0781201 20.4375983,89.5495715 12.7454846,86.22808 L12.4338169,86.0929926 C11.7408592,85.7905503 10.9824085,85.4883194 10.2049437,85.1651648 C10.217831,86.642292 10.1690282,88.121744 10.1626901,89.5842881 C10.1521268,92.0129143 10.1711408,94.4413292 10.1774789,96.8674192 C10.1922676,101.867967 10.3824085,106.870629 10.6317042,111.862934 C11.0690282,120.680257 11.5824085,129.48511 12.3598732,138.281509 C12.5563521,140.494347 12.8227606,142.702957 13.0105775,144.915795 C13.1227606,146.219826 12.8542394,147.306378 11.6607887,147.991153 C11.0732535,148.329314 10.6190282,148.187709 10.0359296,147.915067 C8.61198592,147.246989 8.57184507,145.668413 8.4366338,144.294636 C8.33332394,143.258809 8.23804225,142.223404 8.14508451,141.185674 C7.94670423,138.972836 7.7753662,136.759787 7.63592958,134.542723 C7.08473239,125.733642 6.92395775,116.933227 7.30423944,108.11358 C7.48079879,103.988324 7.73568885,99.853774 8.07398418,95.7358207 L8.15353521,94.7858301 C8.43240845,91.4948947 8.61198592,88.0416423 9.18874648,84.7297832 C6.86269014,83.6983937 4.55776056,82.3859084 3.48874648,80.204562 C2.10304225,77.3724681 3.62607042,74.9506051 5.79578873,73.2828399 C5.77466197,73.001744 5.79578873,72.7227616 5.85494366,72.4693526 C6.4781831,69.770198 7.52184507,67.1029573 8.52959155,64.5289221 C9.54578873,61.9417832 10.6676197,59.3952235 11.9014225,56.9031922 C16.8535352,46.9211178 23.6183239,37.7994505 31.6824085,30.1145425 C35.6880423,26.2977675 40.0718451,22.7701198 44.7514225,19.8112157 C47.0711408,18.3467695 49.4500141,16.9939162 51.9133944,15.7894309 L52.2775941,15.6120132 C53.9924657,14.7794959 55.9158028,13.8943233 57.8227606,13.4307616 C58.0211408,13.2828164 58.2218451,13.1433252 58.424662,13.0101746 C59.174662,12.5111765 60.1929718,12.8725855 60.6366338,13.584836 C60.852338,13.4178693 61.1014225,13.2701354 61.3866338,13.1367734 L61.6685395,13.0080539 C63.379613,12.2373058 65.4341875,11.5165954 67.2915634,12.0231687 C68.4450845,12.3380806 69.3535352,13.1877088 69.761493,14.2698223 C70.6971972,13.7752626 71.6162113,13.2659084 72.5140986,12.642425 C73.9570563,11.6448517 75.2648028,10.4061276 76.4394507,9.10632329 C78.7950845,6.49213151 80.5063521,3.42966575 81.2711408,-0.0176688845 Z M163.008465,82.4089456 C162.847901,82.455654 162.678887,82.472562 162.503535,82.4512157 C162.820325,82.4884634 162.185716,82.6757904 162.01168,82.7656149 L161.998606,82.7726795 C161.681704,82.9542294 161.362901,83.1296501 161.039451,83.2989417 C160.285225,83.6960689 159.51431,84.0532509 158.730296,84.3895092 C157.18593,85.0468086 155.590859,85.5519358 153.953535,85.9217988 C152.352127,86.2829965 150.672549,86.4943468 149.031,86.5281628 C147.932408,86.5492978 146.628887,86.4987851 145.492268,86.1752078 C145.623465,88.1682411 145.769028,90.1591609 145.931704,92.1479671 L148.176452,91.6331178 C150.421352,91.1178326 152.663905,90.5899456 154.878887,89.9478106 C156.541563,89.4661432 158.181,88.901838 159.801423,88.2929378 C160.650718,87.9737988 161.493676,87.6358497 162.32607,87.2723272 C162.740319,87.0913409 163.128752,86.8760898 163.512541,86.6580969 L163.840859,86.4713096 C163.764803,85.5815249 163.625366,84.7086481 163.422761,83.8294309 C163.317127,83.3644603 163.137338,82.8868086 163.008465,82.4089456 Z M9.29438028,73.0228791 C9.00916901,73.9488047 8.57184507,74.8132274 7.57466197,75.0224642 C7.22184507,75.0964368 6.92628169,75.0562802 6.681,74.9358106 L6.62218377,75.0544826 C5.80229423,76.7379741 5.56151238,78.5148942 7.44790141,79.8116618 C8.29952113,80.3971022 9.22677465,80.9043429 10.1859296,81.3585346 C11.9011585,82.1750733 13.727798,82.8314893 15.44999,83.4991437 L15.7929718,83.6328751 C18.8732535,84.8417988 22.0021268,85.9429339 25.1795915,86.8642098 C28.4037465,87.7962646 31.6845211,88.5444446 35.0058592,89.0199828 C36.4063521,89.2188634 37.8176197,89.3583546 39.2312113,89.4492352 C39.2542394,87.5470826 39.2436761,85.6428164 39.237338,83.7406638 C38.7345211,83.6770474 38.2359296,83.6096266 37.7544507,83.5523507 C36.2880423,83.3813683 34.8260704,83.1721315 33.3725493,82.9121706 C30.3366338,82.3690004 27.3324085,81.6187068 24.4021268,80.6591765 C18.9725493,78.8774935 13.9211408,76.3305112 9.29438028,73.0228791 Z M68.8232535,14.7578301 C67.5894507,13.4518967 65.2295915,13.9232078 63.7403662,14.5572587 C63.2901549,14.7495875 62.8359296,14.9440297 62.4049437,15.1786286 L62.3214622,15.2253407 C61.819538,15.5145276 61.8220669,15.6863977 62.0671268,16.2626442 C62.3859296,17.0216031 62.8295915,17.7547773 63.2521268,18.4585738 C65.0607887,21.4789808 67.4415634,24.1081785 70.1605775,26.3292587 C79.7901549,34.1914896 93.6239577,36.9646168 105.666211,34.3311922 C111.445657,33.0686645 117.02052,30.5202715 121.275094,26.3404775 L121.662536,25.9548124 C123.378001,24.2375851 125.732802,21.7519618 125.56762,19.2069652 C125.489451,17.9830356 124.490155,17.91329 123.469732,17.676789 C123.051634,17.5795679 122.652127,17.4419789 122.305648,17.2477479 C122.584521,18.4503311 121.099521,20.2381432 120.332408,20.9886481 C118.724662,22.5629965 116.789451,23.7930552 114.742479,24.7126403 C110.846493,26.4647342 106.608676,27.2932274 102.389451,27.8171648 C97.6021268,28.413384 92.7112817,28.3605464 87.9598732,27.4792157 C83.8253662,26.7120141 79.7500141,25.2600376 76.1922676,22.9985894 C74.5612817,21.9627616 72.9535352,20.7813135 71.5929718,19.4056344 L71.3038146,19.1132898 C70.3215075,18.1176727 69.1785672,16.9141988 68.5908592,15.6076697 C68.3669155,15.6097832 68.1450845,15.6032313 67.9232535,15.5884368 C67.7669155,15.5801941 67.6826197,15.358065 67.8387465,15.2756384 C68.0140986,15.1826442 68.1894507,15.0898614 68.3648028,14.9989808 C68.3354366,14.9015483 68.3098732,14.8066521 68.2887465,14.7094309 C68.2718451,14.6270043 68.3584648,14.5509182 68.4345211,14.5974153 C68.5401549,14.660609 68.6415634,14.7284524 68.7408592,14.8001002 C68.7683239,14.7876305 68.7957887,14.772836 68.8232535,14.7578301 Z" id="ðŸ–-Ink" fill="#000000"></path>
                    </g>
                    <g id="head/Cornrows-2" transform="translate(78.591549, 38.043053)" fill-rule="evenodd">
                        <path d="M32.5378042,12.5408519 L34.362507,14.7117558 C33.3521104,15.4240455 32.3983252,16.1397668 31.5011513,16.8589197 L31.500317,16.85676 C35.6561266,14.1442521 40.2586953,12.5408519 45.2307527,12.5408519 C54.8071453,12.5408519 74.2589814,20.7701859 78.65622,26.7060067 C80.8384203,29.6517532 84.8936105,38.6949361 86.9971217,48.5264802 C88.6872626,56.4259836 91.201055,78.7432573 88.6872626,87.1290694 C85.470031,97.8614988 74.8852981,107.780946 63.9711488,107.780946 C53.0569995,107.780946 36.1125435,99.8984542 24.0528815,82.6244143 C23.5014375,81.8345359 17.1689361,80.9189519 12.6515,77.9542773 L13.8375512,91.0258609 L14.7389865,98.629713 L14.5400611,99.1708711 C11.304651,107.924343 8.7407885,112.491062 6.84847363,112.871028 C4.91754009,113.258748 0.985183677,110.092277 -4.94859562,103.371615 L-5.70679734,100.187966 C-7.63263214,92.0667247 -8.59554954,87.7074622 -8.59554954,87.1101782 L-8.59421906,87.0013895 C-8.5658293,85.6269384 -8.09252043,77.8473911 -8.08276752,75.7538479 L-8.08261466,44.3759319 C-1.7010369,23.1525452 4.38877181,12.5408519 10.1868115,12.5408519 L32.5378042,12.5408519 Z" id="Path" fill="#FFFFFF"></path>
                        <path d="M17.4167324,5.31300822 C19.293,4.58596321 21.4667324,4.7233409 23.2477183,5.81813542 C26.7444085,5.66807671 30.2218732,7.71394755 32.0449014,10.7003272 C32.0829296,10.7425973 32.1232817,10.7848673 32.1591972,10.8271374 L32.5455664,11.277628 C32.9114357,11.7078209 33.2973239,12.1819773 33.603,12.6715914 C32.1055352,12.7058301 30.858,13.3164211 29.9871549,14.5496501 C29.3658194,15.4295934 30.789173,16.2657784 31.4242502,15.4335183 L31.4465915,15.4030826 C31.9694789,14.6627225 32.7587746,14.3759202 33.6374366,14.3609143 C33.8896901,14.3566873 34.0810986,14.2601002 34.2163099,14.1176501 C34.2701831,14.3139945 34.3183521,14.5124524 34.362507,14.7117558 C38.7868732,12.9903076 43.5564507,12.534425 48.3068028,12.9427538 C48.098493,13.2800689 47.9244085,13.6414779 47.7904648,14.0212744 C47.6385634,14.4517949 47.9626479,14.9461432 48.3807465,15.0611178 C48.8328526,15.1853984 49.2415376,14.9203232 49.4051241,14.5106901 L49.4201831,14.4706051 C49.6027183,13.9532196 49.9008169,13.5091726 50.3009577,13.164883 C52.5372254,13.4681706 54.7576479,13.950472 56.9237746,14.5722646 C59.5272254,15.3202333 62.106169,16.2330552 64.6282817,17.2781824 C64.2010986,17.4457832 63.8320141,17.7289926 63.5736338,18.2017832 C63.0578063,19.145505 64.4759417,19.9907988 65.0140103,19.0885895 L65.0330704,19.0552157 C65.0858404,18.9584642 65.1326009,18.9002881 65.1668234,18.8671794 L65.1790563,18.8559123 L65.2534225,18.8216736 L65.3920141,18.7819397 L65.3920141,18.7819397 L65.445225,18.7688723 C65.4921712,18.7582923 65.5116728,18.7589676 65.6351831,18.7521393 C65.7995493,18.7428399 65.9641268,18.7436853 66.1287042,18.743474 C66.5157465,18.7432626 66.7627183,18.527474 66.8744789,18.2514505 C68.1190563,18.8134309 69.3477887,19.4052117 70.5547606,20.0251022 L70.8417042,20.173702 C74.5672264,22.1210102 78.0966972,24.6782959 80.1441972,28.4410708 C80.2796197,28.6925777 80.321662,28.9673331 80.2880704,29.2294074 C80.7251831,29.7535562 81.1477183,30.2946129 81.5533521,30.8441237 C82.7913803,32.526472 83.6977183,34.4391922 84.5554648,36.3350043 C86.2815211,40.1477636 87.443493,44.0640845 88.349831,48.1473722 C89.2268028,52.0827147 89.934338,56.0603272 90.5915915,60.0379397 C91.3202535,64.4572744 91.9265915,68.9146521 92.0535634,73.3973918 C92.277507,81.3885464 90.7160282,89.426198 86.2308169,96.1534779 C82.2296197,102.155826 76.2042676,106.921775 69.0589859,108.447724 C61.7913803,109.999036 54.1012394,108.485768 48.3739859,103.641619 C47.4505352,102.861736 47.577507,101.287177 48.3739859,100.488272 C49.2760986,99.5879202 50.6068732,99.7126168 51.5258873,100.488272 C56.9195493,105.051325 64.7702535,105.755122 71.2690563,103.430268 C77.277507,101.278723 81.984338,96.3162176 84.8723662,90.7429104 C88.3963099,83.9458849 88.9901831,76.1386051 88.4491268,68.6187616 C88.1535634,64.4889769 87.5385634,60.3930082 86.9047606,56.30338 L86.5221979,53.8416468 C86.1048086,51.1752613 85.6663223,48.5125109 85.0944085,45.8732431 L84.9605282,45.2583495 C84.2615417,42.0756431 83.4428015,38.8113252 82.1768028,35.8193096 C81.5132113,34.2489769 80.714831,32.7357088 79.8972254,31.2414622 C79.7387746,30.9519123 79.5758873,30.6581354 79.4089859,30.362245 C79.1850423,30.4404446 78.9294085,30.4531256 78.6610986,30.3685855 C76.3519437,29.6499945 73.9794085,29.1681159 71.564831,29.0074896 C70.4647606,28.9339397 69.363,28.9225268 68.262507,28.9654309 C66.3786338,28.8557401 64.4421549,29.0214387 62.6476479,29.5992705 C62.4720845,29.4485777 62.2941972,29.3010552 62.1160986,29.1535327 C62.0681408,29.1497284 62.0201831,29.144656 61.9720141,29.1351452 C61.5141972,29.04511 61.1922254,28.7196305 60.9982817,28.3085542 C60.9881408,28.2867851 60.9790563,28.265016 60.9703944,28.243247 C60.7407465,28.0676149 60.5091972,27.8947303 60.2755352,27.7241706 C59.7059577,27.8719045 59.2069437,27.3978458 59.0725775,26.8783468 C58.9458169,26.7927499 58.8169437,26.7099006 58.6889155,26.6259945 C58.5885634,26.6505112 58.4888451,26.6708008 58.391662,26.6779867 C57.9722958,26.7082098 57.5672958,26.6439593 57.1956761,26.4438106 C56.7251831,26.1904016 56.4245493,25.7816501 56.2234225,25.3173135 C55.5118732,25.361063 54.7918732,25.1300571 54.1557465,24.712429 C53.6394085,24.3736344 53.2439155,23.9059162 52.8507465,23.4390434 C48.0596197,21.3012352 42.8514507,20.0390513 37.6310282,19.7156853 C37.1168028,19.8145973 36.606169,19.9323194 36.1018732,20.0692744 C35.982507,20.1018223 35.8130704,20.1656501 35.6180704,20.2421589 C36.7819437,20.1013996 37.9608169,20.0874505 39.1563803,20.259701 C44.8297606,21.0803742 49.2484225,25.3297832 53.0514507,29.3410004 C53.9560986,29.1581824 54.8704648,30.3301198 54.0332113,31.106198 L47.5056761,37.1573683 L47.5056761,37.1573683 C47.6658169,37.8341119 46.8900423,38.5011335 46.2103944,38.3386051 C45.0708169,38.0646951 43.929338,37.7983937 42.7870141,37.5365307 C41.5954648,38.1133057 40.0973662,38.0146051 39.0165211,37.1785033 C38.9662394,37.1396149 38.8570141,37.0774779 38.7621549,37.0157636 C38.6734225,37.0891022 38.5540563,37.1626521 38.5065211,37.1939319 C38.1222254,37.4483977 37.6540563,37.5232157 37.2051127,37.4517793 C36.7432817,37.3784407 36.3264507,37.1440532 35.9670845,36.8521785 C35.7383021,36.6662584 35.2052153,35.8904929 34.9085487,35.833358 L34.8796901,35.8300885 C35.0776479,35.8357949 34.4413099,36.4273644 34.2703944,36.5497362 C33.8715211,36.834425 33.4306056,36.9840611 32.934338,36.9295327 C32.0694032,36.8343299 31.3257734,36.04577 30.9027888,35.3176452 L30.8708873,35.2617675 L30.8575775,35.2271061 L30.8463412,35.2646012 C30.8442441,35.2712313 30.8418732,35.2783233 30.8389859,35.2862841 C30.7756056,35.4576892 30.5765915,35.6525542 30.4413803,35.7723898 C30.0560282,36.1132978 29.5789859,36.2631452 29.0694085,36.1741667 C28.6380951,36.099074 28.2754225,35.8383877 27.9839267,35.5229388 L27.938493,35.4726951 C27.8522446,35.3753459 27.284053,34.6116373 27.373755,34.4286151 L27.3841268,34.4131961 L27.3558169,34.4072783 C27.0101831,34.4922411 26.7201127,34.4070669 26.5075775,34.2288986 C25.3215211,33.9689378 24.1508873,33.6660728 23.0176479,33.2809926 C22.9289155,33.5303859 22.8420845,33.7797793 22.7577887,34.0312861 C23.3765915,34.4138301 23.9491268,34.9591139 24.4751831,35.3479984 C25.4725775,36.0834975 26.4695493,36.8189965 27.4646197,37.556609 L31.4072958,40.4660571 L31.4072958,40.4660571 L31.8581408,40.3449534 L31.8581408,40.3449534 C32.4342852,40.1902274 32.9285552,40.5257411 33.1400093,41.0386021 L33.1574366,41.0829886 C33.2413099,41.307654 33.3422958,41.5154114 33.4610282,41.714292 C34.4465915,41.6749808 35.2810986,42.2802881 35.5508873,43.1485151 C35.7942676,43.14302 36.0401831,43.1523194 36.2915915,43.1800063 C36.9800986,43.2556415 37.4442033,43.767123 37.3195298,44.4694626 L37.3101127,44.5176423 L37.2934225,44.5958419 C37.692507,44.7653448 37.9819437,45.0927264 38.046169,45.5877088 C38.1530704,45.7485464 38.2392676,45.9235444 38.2944085,46.1184094 C38.5823933,47.1295309 38.022158,48.3794268 37.7237415,49.3480515 L37.7007465,49.423928 C37.5092113,50.0605151 37.3109831,50.6940587 37.1104428,51.327298 L36.6109175,52.8994962 C35.225825,57.2812452 33.8754056,61.9010886 34.9963099,66.4946912 C35.2352535,67.4669025 33.9927887,67.9065112 33.4540563,67.1456501 C32.148,65.3035209 30.7369437,63.567701 29.2553239,61.9014153 L29.183493,61.8900023 L29.183493,61.8900023 C28.1459577,61.6813996 27.7430704,60.9482254 27.2668732,60.2008908 C26.9863099,60.2835288 26.6846197,60.302973 26.3930704,60.2467538 C25.9709577,60.165384 25.5927887,59.9242333 25.2942676,59.6196775 C25.0413803,59.3614074 24.8096197,58.6990356 24.5106761,58.5348164 C24.1367324,58.3295953 23.3850423,58.6229495 22.9384225,58.5570082 C22.5752535,58.5035366 22.236169,58.3788399 21.9072254,58.2222294 C21.3025775,59.0467068 20.9018028,60.0159593 20.8035634,61.0608751 C20.7653239,61.4582137 20.6470141,61.7942607 20.4758873,62.0732431 C21.1054648,62.0499945 21.7371549,62.0943781 22.3606056,62.2106207 C24.6676479,62.6396618 26.3218732,64.0641628 27.2514507,66.1861198 C27.2913803,66.2791139 27.1709577,66.3552 27.1160282,66.2664329 C25.736662,64.1423624 22.734338,64.0345738 20.5540563,64.7827538 C18.2385634,65.5774309 16.9392676,67.6169613 16.4768028,69.943928 C15.9697606,72.494926 16.6202535,75.2445933 18.008493,77.4172744 C18.6526479,78.4275288 19.5317324,79.349016 20.699831,79.7209926 C22.0880704,80.1627147 23.3702535,79.3722646 24.7920845,79.7801706 C25.7596901,80.0570395 26.186662,80.9933213 26.0110986,81.9296031 C25.9413803,82.2973526 25.812507,82.6186051 25.6392676,82.8975875 C26.1507465,83.9120689 26.6237746,84.9561393 27.2258873,85.9156697 C28.1554648,87.3972352 29.2796197,88.6230669 30.5047606,89.8594661 C31.7702535,91.1360219 33.0589859,92.3872157 34.4132113,93.5707773 C35.7106056,94.7057284 37.1979296,95.5130865 38.558493,96.5529299 C39.5134225,97.2820885 39.9864507,98.3050239 39.5153239,99.4759045 C39.1268028,100.443889 37.8167324,101.268155 36.756169,100.83066 C34.7258873,99.9937127 32.9491268,98.5692117 31.3310282,97.1024407 C29.8310282,95.7413448 28.5251831,94.1139476 27.5385634,92.3470591 C26.6078366,90.6812806 25.9220478,88.7895569 25.3434397,86.9673307 L25.271662,86.7399358 C24.9991268,85.8733996 24.7120141,84.8990748 24.5260986,83.9162959 C23.4127183,84.5249847 21.9019437,84.6137519 20.7106056,84.4488986 C18.7857465,84.1847108 17.0301127,83.2146129 15.7033521,81.8006795 C15.0849718,81.142746 14.5384225,80.3922411 14.0664507,79.5787538 C14.109338,80.0739476 14.1349014,80.5530787 14.1623662,80.9890943 C15.2653944,82.1975953 15.7077887,83.9416579 15.3163099,85.5329143 C16.2391268,86.4831452 16.4977183,87.9095483 16.0160282,89.1239671 C17.0260986,90.1261902 16.9880704,91.7210395 16.5513803,93.1694231 C17.7454648,94.5045229 17.858493,96.5844211 16.926169,98.090926 L16.8980704,98.1991374 L16.8980704,98.1991374 C17.8394789,99.7749652 17.6271549,101.811537 16.4476479,103.203067 C17.2532113,104.766214 17.1285634,106.868726 15.1153944,107.475302 C14.381662,107.696163 13.6705352,107.507638 13.1383521,107.096351 C13.6242676,109.513987 13.841662,111.968398 13.1937042,114.397235 C12.9357465,115.360993 11.993493,116.064789 11.0026479,116.064789 C10.1744789,116.064789 9.5723662,115.648429 9.15638028,115.035513 C9.20497183,116.255004 9.13102817,117.480836 8.87116901,118.717235 C8.71440845,119.463936 8.02208451,120.046206 7.28708451,120.226488 C7.55222535,120.525548 7.65785915,120.958182 7.40370423,121.40857 C6.32602817,123.317063 3.72215493,122.525556 3.54616901,120.697165 C2.81074648,120.148077 2.46891549,119.246456 2.3273662,118.272343 C2.12116901,116.851646 2.04638028,115.454409 1.81271831,114.051889 L1.72339124,114.135474 L1.72339124,114.135474 L1.67729577,114.175317 L1.66250704,114.276766 C1.52856338,114.969995 1.13771831,115.455466 0.630464789,115.745016 C0.740746479,116.954362 0.536661972,118.185901 -0.230239437,119.104218 C-0.741084507,119.716288 -1.61129577,119.957227 -2.35728169,119.824499 C-2.4041831,119.826824 -2.45214085,119.826613 -2.502,119.820061 C-4.19150704,119.595396 -5.16904225,117.992304 -4.72432394,116.520883 C-5.40460563,115.686895 -5.69108451,114.628664 -5.48974648,113.582903 C-6.80615493,112.710871 -6.77932394,110.795615 -6.32340845,109.257196 C-7.70340845,108.167685 -8.22249296,106.130903 -7.52911268,104.512171 C-8.77284507,102.966989 -8.94587324,100.813752 -8.10080282,99.0542607 C-9.4691831,97.9296658 -9.4613662,95.7584642 -8.1041831,94.6082959 C-8.82692958,93.173016 -9.26277465,91.4532587 -8.5404507,90.1397166 C-9.05002817,89.5771022 -9.32974648,88.7752391 -9.27080282,88.000429 C-9.18439437,86.862519 -8.43185915,86.0762959 -7.49805634,85.5523585 L-7.43340845,85.1964446 L-7.43340845,85.1964446 C-7.21411268,85.2237088 -6.9804507,85.1624172 -6.77446479,84.9645933 C-6.57059155,84.7686716 -6.36080282,84.610793 -6.14383099,84.4806012 C-5.89812676,84.4774309 -5.68664789,84.3679515 -5.53791549,84.1995053 C-5.13101408,84.0612822 -4.69347887,84.000202 -4.20819718,83.9947068 C-3.16009859,83.9832939 -3.12312676,82.4152861 -4.0985493,82.3136266 C-4.25256338,82.1582841 -4.46467606,82.060429 -4.69474648,82.060429 L-4.87490163,82.0611542 C-5.29610321,82.0651678 -5.72134859,82.0911276 -6.11214085,82.2586755 C-6.36608451,82.3673096 -6.56192958,82.5311061 -6.70538028,82.7314661 C-6.73221127,83.0345425 -6.897,83.3367734 -7.25383099,83.5863781 C-7.66601408,83.8746599 -8.22967606,83.9082646 -8.67080282,83.6474583 C-9.28833803,83.282245 -9.29467606,82.7122333 -9.22347887,82.0925542 C-9.06756338,80.7369534 -9.84671831,79.4612431 -9.66122535,78.0743624 C-9.57904225,77.4612352 -9.37495775,76.9318027 -9.04221127,76.5042411 C-9.74383099,75.4536188 -9.8676338,74.097384 -9.32742254,72.9440454 C-10.4528451,71.7327969 -10.6474225,69.8657284 -9.92974648,68.4080454 C-9.91939437,68.3727499 -9.9113662,68.336609 -9.90016901,68.3017362 C-9.81904225,68.0540337 -9.70728169,67.8306364 -9.58411268,67.6169613 C-10.2141127,66.5251256 -10.2094648,65.1853761 -9.56911268,64.0981902 C-10.5390423,62.9670434 -10.5698873,61.166973 -9.70728169,59.9483272 C-9.70221127,59.8473018 -9.69164789,59.7462763 -9.68298592,59.6452509 C-10.0789014,58.6170317 -9.98383099,57.4480532 -9.48164789,56.4919045 C-9.66080282,56.0787147 -9.79897183,55.6338223 -9.88728169,55.159975 C-10.1135493,53.9383703 -9.99714085,52.7505816 -9.65911268,51.5585659 C-9.60439437,51.3704642 -9.54312676,51.1823624 -9.4776338,50.9942607 C-9.46664789,50.1778145 -9.43559155,49.3649613 -9.39460563,48.5535875 C-9.55524824,47.8667519 -9.58115163,47.1119539 -9.58469284,46.4112427 L-9.58570604,45.9568666 C-9.5935734,44.8005422 -9.67413615,43.1074474 -8.94333803,42.1245229 C-9.41256338,41.062699 -9.21967606,39.7248517 -8.43650704,38.8832548 C-8.98622535,37.9374622 -9.10157746,36.7760924 -8.54911268,35.7267382 C-8.46038028,35.5578693 -8.35749296,35.4006247 -8.24467606,35.2518341 C-8.29030986,34.2908243 -8.08812676,33.2998027 -7.57622535,32.3447108 C-7.24369014,31.7229182 -6.747,31.184609 -6.15650704,30.7538771 C-6.16643662,30.6264329 -6.17256338,30.4992 -6.1704507,30.3738693 C-6.16009859,29.8146364 -6.03608451,29.2530787 -5.82735211,28.7291413 C-6.20192958,28.0895953 -6.37559155,27.3686795 -6.15650704,26.5917558 C-5.91143662,25.7125386 -5.26685915,24.9559045 -4.46214085,24.5289769 C-4.39728169,23.7000611 -4.26777465,22.8760063 -4.08270423,22.0629417 C-4.57728169,20.9611726 -4.18347887,19.5070826 -3.06566197,18.8580258 C-3.21143662,17.9775405 -3.08002817,17.0645072 -2.43946479,16.3767734 C-2.19671831,16.1161785 -1.91066197,15.9185659 -1.60284507,15.7875288 C-1.75115493,14.9021824 -1.58383099,13.9811178 -0.971788732,13.260202 C-0.471929577,12.6715914 0.268774648,12.3139867 1.02257746,12.2613605 C1.31285915,10.7214622 2.78349296,9.57002583 4.33504225,9.66175186 C4.52898592,8.98374012 4.99229577,8.39259335 5.71102817,8.09289863 C5.89504225,8.01617847 6.08095775,7.96566575 6.26623944,7.93755616 C7.52792958,6.664382 9.40630986,5.80143875 11.0324366,5.35950528 C12.6635684,4.91798446 14.3170475,4.87524713 15.7175304,5.38858164 L15.8195493,5.42713738 L15.9336338,5.41234286 C16.4282113,5.35739178 16.9223662,5.32568924 17.4167324,5.31300822 Z M5.02166197,109.664257 C4.58602817,109.528359 4.10011268,109.825094 3.98201408,110.254558 C3.8573662,110.708539 4.13497183,111.158292 4.57229577,111.294613 C5.11715493,111.464539 5.68947887,111.50702 6.2573662,111.507443 C6.71391549,111.507865 7.10243662,111.118558 7.10243662,110.662041 C7.10243662,110.2032 6.71560563,109.817063 6.2573662,109.81664 C5.79553521,109.816218 5.4545493,109.79931 5.02166197,109.664257 Z M1.14638028,100.686307 C0.495042254,100.686942 -0.0635492958,100.842495 -0.546507042,101.299012 C-0.868478873,101.603568 -0.876507042,102.191756 -0.546507042,102.494832 C-0.213199611,102.800722 0.270379629,102.818559 0.612529374,102.52723 L0.678422535,102.468123 C0.68634507,102.46091 0.692471831,102.455204 0.69743662,102.450449 C0.724901408,102.432695 0.752577465,102.414519 0.781732394,102.399302 L0.726610285,102.435335 C0.684655546,102.46565 0.781995771,102.416159 0.836581004,102.392773 L0.853774648,102.385775 L0.859267606,102.384507 L0.903,102.381126 C0.983915493,102.376899 1.06525352,102.37711 1.14638028,102.37711 C1.58835211,102.376687 2.01173239,101.988648 1.9914507,101.531708 C1.97074648,101.073924 1.62004225,100.685885 1.14638028,100.686307 Z M13.437507,95.3226599 C14.3522606,94.7615223 13.5351933,93.3262943 12.6178187,93.8431167 L12.5846197,93.8626521 C12.114338,94.1513566 11.5358873,94.1122568 11.0030704,94.1124681 C9.91567606,94.1131022 9.91377465,95.8039045 11.0030704,95.8032708 L11.1831083,95.8026058 C11.9641893,95.7966129 12.7542223,95.7420543 13.437507,95.3226599 Z M6.23856338,89.1514427 C5.54745145,89.0212954 4.77328852,88.905185 4.04612994,88.9844337 L3.92539437,88.9994818 L3.70166197,88.9994818 C3.50729577,88.9994818 3.31905634,89.0776814 3.168,89.2006873 C2.92884507,89.3000219 2.7023662,89.4331726 2.49574648,89.6121863 C1.67243662,90.3263389 2.87222535,91.5179319 3.69088732,90.8080063 C3.73635211,90.7684415 3.78911831,90.7359105 3.84777972,90.7092228 L3.89285915,90.6902841 L4.79687324,90.6902841 C4.87905634,90.6902841 4.95912676,90.6731648 5.03708451,90.6484368 C5.33053521,90.6888047 5.60391549,90.746926 5.78919718,90.7817988 C6.85229577,90.9819476 7.30778873,89.3526481 6.23856338,89.1514427 Z M5.46680282,72.9239671 C4.14215493,72.3093605 2.67511268,72.3137988 1.44997183,73.1672313 C0.573922121,73.7775314 1.38768108,75.2167604 2.27127526,74.6483962 L2.30285915,74.6272391 C2.41271831,74.5507303 2.52553521,74.4866912 2.63961972,74.4285699 C3.26159155,74.608429 3.88763798,74.6168936 4.48893767,74.3957405 L4.56722535,74.3655875 L4.61391549,74.3837636 C5.59419718,74.8385894 6.4536338,73.3817519 5.46680282,72.9239671 Z M19.8915423,70.2747546 C18.5533732,70.1246959 18.5425986,68.0099249 19.8915423,68.1612517 C22.7396408,68.4808133 25.3238662,69.7474356 27.2166127,71.9226528 C28.0969734,72.9343134 26.6471756,74.4143414 25.7502985,73.4477875 L25.7227394,73.4171108 C24.217669,71.68742 22.1865423,70.5321793 19.8915423,70.2747546 Z M4.9001831,59.4172039 C4.60271831,59.384656 4.30588732,59.368382 4.01370423,59.3825425 C3.31187324,59.4163585 2.45708451,59.8847108 2.76511268,60.7309573 C3.01208451,61.4089691 3.82166197,61.4358106 4.22138028,61.0741902 C4.38764789,61.0782059 4.55370423,61.0891961 4.71912676,61.1061041 C5.16046479,61.1515444 5.59757746,61.2356618 6.03257746,61.3214701 C7.09504225,61.5304955 7.54990141,59.9011961 6.48194366,59.6909025 L6.0095757,59.5974065 C5.85041197,59.5662587 5.68979577,59.5357714 5.52849296,59.5078732 C5.43197384,59.4598665 5.32846996,59.4275428 5.21784827,59.4192872 L5.16194366,59.4172039 L4.9001831,59.4172039 Z M-3.49664789,46.2997479 L-3.59591152,46.2862892 C-5.02302039,46.1036364 -7.31389169,46.2717064 -7.48707042,48.0890395 C-7.58277465,49.0954896 -6.12925352,49.1586834 -5.84235211,48.298065 C-4.7885493,48.1080611 -3.72608451,48.0717088 -2.67946479,48.1871061 C-2.28016901,47.7813135 -2.277,47.0012196 -2.94164789,46.8065659 C-3.0354507,46.5542137 -3.23129577,46.3380023 -3.49664789,46.2997479 Z M29.1241268,43.2303076 C28.794338,42.9274427 28.253493,42.8872861 27.9289859,43.2303076 C27.7420141,43.4277088 27.5858873,43.6470904 27.4622958,43.8884524 L27.3800579,44.051427 C27.3661221,44.0784798 27.3518732,44.1053683 27.3370141,44.131928 C27.309338,44.1811726 27.2782817,44.2280924 27.2480704,44.2758575 L27.2277359,44.2958301 C27.2196549,44.30402 27.2101479,44.3139006 27.1988451,44.3259476 C26.894831,44.6474114 26.856169,45.2068556 27.1988451,45.5215562 C27.5286338,45.8244211 28.0692676,45.8645777 28.3939859,45.5215562 C28.5807465,45.324155 28.7368732,45.1049847 28.8606761,44.8634114 L28.9427574,44.7005933 C28.956662,44.6735718 28.9708873,44.6467068 28.9857465,44.6201472 C29.0134225,44.5706912 29.0446901,44.5237714 29.0746901,44.4760063 L29.108351,44.4424214 C29.1131805,44.4374216 29.1184225,44.4319397 29.1241268,44.4259162 C29.4281408,44.1046638 29.4665915,43.5450082 29.1241268,43.2303076 Z M11.7946901,41.0286716 C10.6039859,40.1845386 9.18807042,40.1452274 8.09349296,41.1607656 C7.30356092,41.8937702 8.46415434,43.0681942 9.26067621,42.3813909 L9.2886338,42.3563742 C9.31757746,42.3293213 9.34694366,42.3056501 9.37609859,42.2830356 C9.51891549,42.4047734 9.70039437,42.4819162 9.90785915,42.4821276 C9.96208451,42.4822685 10.016216,42.4821276 10.0703161,42.4832705 L10.1514507,42.4861432 L10.1949718,42.4897362 L10.2004648,42.490793 L10.2384768,42.5069558 C10.3079748,42.5383196 10.4038879,42.5867276 10.2722958,42.5043194 C10.301662,42.5197479 10.3291268,42.5379241 10.3570141,42.5556775 L10.4056056,42.5998497 C10.7241972,42.9012352 11.2753944,42.9409691 11.591662,42.6076697 C12.1517324,42.4182998 12.4489859,41.4921628 11.7946901,41.0286716 Z M23.4361044,38.2589808 L23.4577183,38.2521628 C24.5018028,37.9539476 24.0579296,36.3221119 23.0083521,36.6215953 C21.8947606,36.9396775 21.363,37.9763507 21.1403239,39.0381746 C21.0467324,39.4847577 21.2713099,39.9520532 21.7306056,40.0782294 C22.1501831,40.1934153 22.6760282,39.9366247 22.7702535,39.4877166 C22.8363227,39.1720362 22.9125187,38.9042152 23.0331269,38.6556713 L23.1061189,38.5137953 C23.1402607,38.4491273 23.152165,38.4383926 23.2673662,38.3377597 C23.2867089,38.3208517 23.3746588,38.2798967 23.4361044,38.2589808 Z M5.75180282,29.7434114 L5.58850429,29.7061522 C4.57135229,29.483256 3.22132686,29.3668544 2.60708451,30.3755601 C2.04722535,31.2945112 3.4595493,32.1310356 4.04116901,31.2623859 C4.05004225,31.2621041 4.06023005,31.262198 4.07210798,31.2631687 L4.09123944,31.2653448 L4.35194366,31.2442098 C4.67666197,31.2418849 4.98743662,31.2993722 5.30243662,31.3739789 C6.36004225,31.624429 6.81152113,29.9944955 5.75180282,29.7434114 Z M42.2664507,23.2435444 C43.0365211,22.4731726 41.8418028,21.2771413 41.0715211,22.0481472 C40.4624366,22.6574701 39.8749014,23.27102 39.4789859,24.0451961 C39.2713099,24.4514114 39.3729296,24.9624564 39.7821549,25.2019162 C40.1596901,25.4227773 40.7296901,25.3065346 40.9384225,24.8986286 C41.2815211,24.2275914 41.7146197,23.7960141 42.2664507,23.2435444 Z M32.5494085,21.2213448 C31.7886338,21.6719436 31.296169,22.4142059 30.9972254,23.2733448 C30.8472254,23.7044994 31.1681408,24.1980023 31.587507,24.3131883 C32.0381805,24.4370593 32.449993,24.1729631 32.6120477,23.7628151 L32.6269437,23.7226755 C32.7070141,23.4929378 32.8350423,23.221564 32.9932817,23.0167656 C33.128493,22.8419789 33.3387042,22.6669808 33.4971549,22.6088595 C33.8780704,22.4689456 34.1480704,22.1235992 34.1127887,21.7203429 C33.4863803,21.9369769 32.9047606,21.676382 32.5494085,21.2213448 Z M9.77539437,17.5438497 C9.00785915,16.8311765 7.97814085,16.7367029 7.04771831,17.1680689 C6.63342254,17.359975 6.52969014,17.9574622 6.7445493,18.324789 C6.993,18.7498145 7.48504225,18.8208282 7.90060563,18.6280767 C7.79391549,18.6775327 7.98659155,18.6122254 8.06983099,18.5883429 C8.08047887,18.5932885 8.21998521,18.5869353 8.26810986,18.5876181 L8.32599296,18.5912753 C8.32646831,18.5916716 8.31226056,18.5914074 8.28342254,18.5904564 C8.32398592,18.5996149 8.36407981,18.6105581 8.40357903,18.6231609 L8.45393277,18.6406002 C8.42856019,18.6353159 8.54273559,18.7097653 8.57448977,18.7344843 L8.58025352,18.739247 C9.37673239,19.4787616 10.574831,18.2859006 9.77539437,17.5438497 Z" id="ðŸ–-Ink" fill="#000000"></path>
                    </g>
                    <g id="face/Cyclops" transform="translate(112.183099, 77.354207)" fill="#000000" fill-rule="evenodd">
                        <path d="M42.9166268,39.6978622 C42.9677535,39.5376587 43.1902183,39.5380814 43.2413451,39.6978622 C43.7057113,41.1458231 43.9784577,42.5637722 44.671838,43.9252908 C44.8431761,44.1017683 44.9659225,44.3238975 45.0316268,44.56378 C45.3555,45.1020892 45.7163451,45.6131342 46.1200775,46.0969151 C46.6279648,46.7056039 46.9974718,47.2773065 46.7283169,48.1081245 C46.5956408,48.51751 46.2529648,48.779373 45.8211338,48.7990286 C44.6355,48.8527115 43.9600775,47.7215648 43.5407113,46.5422301 C40.6066268,47.5169777 37.3759225,48.0688133 34.3007113,47.8263945 C31.800993,47.6289933 29.0779648,47.0025511 26.8397958,45.7255726 C26.8531056,46.207874 26.8714859,46.690598 26.8883873,47.1735335 C26.9196549,48.0666998 27.1598662,49.0441949 27.0669085,49.9212986 C26.9747958,50.7916391 26.4808521,51.4650012 25.5857113,51.5998427 C24.8152183,51.7156626 23.8615563,51.2010247 23.7113451,50.3754904 C23.5372606,49.4172282 23.8596549,48.7478818 24.1247958,47.8433025 C24.3590915,47.0439757 24.5428944,46.2273182 24.7448662,45.419326 C24.9485282,44.6035139 25.1152183,43.7807272 25.2662746,42.9541362 C25.3769789,42.3490403 25.2971197,41.6672243 25.5113451,41.0972125 C25.5282465,41.0526176 25.5717676,41.0207037 25.620993,41.0348642 C26.760799,41.3624918 26.8254738,43.198346 26.8208545,44.183426 L26.8205704,44.2319601 C26.8188803,44.4327429 26.8207817,44.6335256 26.8228944,44.8340971 L27.2584053,44.9294671 C29.6492419,45.446971 31.9715161,45.8401426 34.4853592,45.697463 C37.4342324,45.5302849 40.027331,44.4517644 42.8257817,43.7126724 C42.5933873,42.3830677 42.5219789,40.9325706 42.9166268,39.6978622 Z M33.0552042,13.4969777 C34.3637958,13.0487037 35.7784437,12.8369307 37.1546408,12.9047742 C40.1043592,13.0506059 42.9144296,14.3964845 44.8483732,16.6391225 C46.6743592,18.7562184 47.6666831,21.4114121 47.6538381,24.2126489 C47.6398521,27.0901832 46.8843592,30.3306059 45.4616831,32.8494787 C42.4724577,38.1419014 35.4904859,38.1786763 30.4728803,36.068555 C25.1183028,33.816829 22.9397113,28.1380579 24.2295,22.6478114 C25.1992183,18.518872 28.5070352,13.5646098 33.0552042,13.4969777 Z M41.7788662,17.5844924 C40.199007,16.3157566 38.2095,15.7457448 36.1992887,15.8898857 C35.2006268,15.9615335 34.1859085,16.2238192 33.2793592,16.6501127 C32.7974577,16.8766802 32.3666831,17.1930716 31.8921761,17.4289386 C31.4690775,17.6389738 31.011091,17.7615048 30.5746011,17.9382899 L30.4120352,18.0074043 C29.6952042,18.3278114 28.9733028,17.8693926 28.9373873,17.2013143 C27.3780211,19.3900579 26.6383732,22.3580501 26.6501296,24.9910521 C26.6592887,26.9299796 27.1209085,28.9441479 28.2334437,30.5584415 C29.469993,32.3525941 31.5216127,33.2990207 33.5793592,33.8016117 C35.5500634,34.2828564 37.6988662,34.4498231 39.6742183,33.9030599 C41.7245704,33.3357957 43.049007,31.7792008 43.8028099,29.8387937 C45.4380211,25.6297526 45.5730211,20.6315295 41.7788662,17.5844924 Z M34.7380986,22.8037667 C35.6328169,21.5819507 37.2378169,21.5170661 38.121338,22.8037667 C38.6773944,23.6136611 38.5956338,24.3939663 38.5514789,25.3260211 L38.5429519,25.5356099 C38.5168569,26.2732788 38.5203123,27.0498401 38.2440845,27.7316102 C37.8893662,28.6068117 37.2,29.1675241 36.2235211,29.0514928 C35.648662,28.9828039 35.1671831,28.639571 34.8878873,28.1661464 L34.878169,28.1716415 L34.878169,28.1716415 C34.4865211,27.3894002 34.3854507,26.5957102 34.3193068,25.741857 L34.2737534,25.1156733 C34.2183443,24.2924644 34.2154284,23.5175554 34.7380986,22.8037667 Z" id="ðŸ–-Ink"></path>
                    </g>
                    <g id="facial-hair/*-None" transform="translate(104.577451, 109.479380)"></g>
                    <g id="accessories/*-None" transform="translate(88.521127, 88.978474)"></g>
                </g>
            </g>
        </g>
    </g>
</svg>