<?xml version="1.0" encoding="UTF-8"?>
<svg width="240px" height="324px" viewBox="0 0 240 324" version="1.1" xmlns="http://www.w3.org/2000/svg" xmlns:xlink="http://www.w3.org/1999/xlink">
    <!-- Generator: Sketch 62 (91390) - https://sketch.com -->
    <title>peep-73</title>
    <desc>Created with Sketch.</desc>
    <g id="Introduction" stroke="none" stroke-width="1" fill="none" fill-rule="evenodd">
        <g id="variations" transform="translate(-2526.000000, -758.000000)">
            <g id="images" transform="translate(126.000000, 110.000000)">
                <g id="a-person/bust" transform="translate(2400.000000, 648.000000)">
                    <g id="body/Blazer-Black-Tee" transform="translate(31.056338, 135.052838)" fill-rule="evenodd">
                        <path d="M155.399092,48.0676297 C152.466486,34.1688117 142.066099,23.3836485 128.078493,18.0109127 C125.389799,16.4896036 122.78349,9.96187896 119.170044,8.76641554 C118.590808,8.57478261 119.505081,10.0998734 119.170044,10.1909519 C117.975017,10.515815 116.636022,10.5497381 115.316599,9.37656994 C112.958495,7.27985531 112.218694,1.15424032 110.784955,-1.61433476 C103.223476,-16.2156811 84.3440915,-10.502609 81.8147958,5.63884697 C80.0512119,6.78878168 77.5581564,7.8017844 75.6384508,8.72843306 C73.6616671,9.68263351 71.9228442,11.9938122 69.8856864,12.8201065 C68.0680245,13.5573708 65.0730395,13.0350803 63.2414766,13.6778109 C54.8173757,16.6339896 47.6824192,20.3641573 42.088669,27.9219311 C40.910007,29.515935 39.5813451,31.475575 38.5087394,33.0858528 C32.9790211,39.4540485 29.1381761,46.5917706 25.6007113,54.2496258 C15.703669,76.7269409 13.0116972,101.614283 10.5964859,125.832068 C10.6514155,130.06943 7.84071127,141.819238 11.9978239,143.850737 C11.7493732,144.108373 11.8393732,144.62597 12.3003592,144.621532 C22.8411338,144.515011 33.3574014,145.45869 43.7346549,147.293422 C48.7414859,148.178769 53.7214859,149.392765 58.8214859,149.592279 C69.4083169,149.519152 79.9571197,147.744444 90.530007,149.423833 C103.240337,149.423833 118.687285,149.053328 132.827369,148.509541 C146.042668,148.001319 159.328783,149.149143 172.380359,146.900945 C173.413458,146.73736 173.917965,145.476867 173.701415,144.573555 C172.170148,138.991794 171.418458,133.24687 170.559232,127.533861 C170.730359,123.869469 170.424232,120.044029 169.069162,116.630933 C165.528739,93.5899468 160.98881,70.6992305 155.399092,48.0676297 Z" id="ðŸŽ¨-Background" fill="#FFFFFF"></path>
                        <path d="M151.134169,78.3534505 C150.855296,79.7082059 150.464451,81.0629613 149.944732,82.3460689 C149.444028,83.5843703 148.689803,84.6939593 148.170296,85.9176775 C148.100577,86.0825307 147.986493,86.2072274 147.848958,86.302335 L147.891819,86.6352117 L147.891819,86.6352117 L147.931352,86.9680885 C148.190487,89.2144401 148.481907,91.4545807 148.734301,93.7006219 L148.856915,94.8241902 C149.353183,99.5138419 150.136986,104.180456 150.745437,108.857638 C151.341211,113.437599 151.947761,118.01756 152.596141,122.59118 C153.265859,127.306405 153.948254,132.01529 154.744732,136.711494 C155.081,138.69484 155.431939,140.676572 155.797549,142.656689 L156.079944,144.172159 C158.986986,144.871728 159.781352,148.925427 156.821493,150.421787 C155.478042,151.098108 153.751986,150.935368 152.644732,149.872488 C151.494118,148.764777 151.446353,146.767153 151.179315,145.266799 L150.922063,143.872583 C148.997136,133.388851 147.326485,122.784355 146.545437,112.152589 C146.344732,109.40736 146.175718,106.659807 146.065859,103.909928 C145.961475,101.323529 146.011359,98.7373071 145.971417,96.1507747 L145.958113,95.4453487 C145.897056,92.6872274 145.947549,89.9333331 146.01938,87.1752117 C146.027831,86.8391648 146.04262,86.5031178 146.059521,86.1649573 C145.962549,86.0508282 145.89262,85.915564 145.863254,85.7845268 L145.825014,85.6112196 C145.729944,85.1652705 145.83769,84.6432352 146.180155,84.3240963 C146.327831,82.4451922 146.522197,80.5684016 146.575014,78.691611 C146.579239,78.5373252 146.80107,78.5417636 146.813958,78.691611 C146.938606,80.2894192 147.18769,81.8914544 147.436986,83.4913761 C149.040507,82.2021393 150.225718,80.0759554 150.925014,78.2963859 C150.975718,78.1674622 151.163958,78.2139593 151.134169,78.3534505 Z M113.19469,3.65790294 C113.460887,4.87528063 113.986944,5.96817299 114.692577,6.98476791 C115.028704,7.47087358 115.410887,7.92316321 115.869338,8.30148023 C116.262507,8.62463483 116.710394,8.83598513 117.128493,9.11729237 C117.736944,9.02197339 118.372859,9.25255656 118.79962,9.70040783 L118.732225,9.04543327 C118.710887,8.83408297 119.061803,8.79181292 119.101944,8.99661135 C120.950245,18.3217386 122.63595,27.652883 124.095094,37.0454778 L124.734683,41.1933915 L125.336493,45.0874098 C126.335717,51.5762214 127.302257,58.0624431 128.030113,64.5986466 C128.999831,73.3212845 129.815113,82.0669597 130.410887,90.8251045 C131.008775,99.6449636 131.376592,108.470741 131.638563,117.307508 C131.703845,119.53514 131.773775,121.760658 131.841169,123.988079 L132.292443,121.324923 C132.74282,118.661206 133.184461,115.995022 133.563,113.319328 C134.921451,103.743046 136.007577,94.0989205 136.537648,84.4404235 C137.023775,75.6017542 136.861099,66.5876642 134.613211,57.9770419 C134.046803,55.8107014 133.353845,53.6781769 132.517437,51.6006035 C131.705958,49.5803061 130.599127,47.7075311 129.72638,45.7168227 C128.712296,43.4004235 128.40807,41.2150614 128.930113,38.721128 C129.386451,36.548447 130.187155,34.5046896 130.330606,32.2686035 C130.599127,28.1176838 129.248915,24.0975898 127.34138,20.4646896 C126.838352,19.5072728 126.30807,18.562537 125.754549,17.6260438 C124.079408,14.7962748 122.190465,12.0696446 120.230113,9.45545284 C120.124479,9.31596164 120.348211,9.16167593 120.462507,9.27580509 C122.24962,11.0426935 124.203845,12.779993 125.811803,14.7096211 C126.593282,15.6480164 127.355958,16.6052219 128.078493,17.5882121 C136.005465,18.9133785 142.816732,23.8524235 147.472859,30.3749049 C152.756662,37.7763922 155.429197,46.684807 157.406873,55.4577464 C159.606169,65.2075468 161.461099,75.0459029 163.436451,84.8438912 C165.48131,94.9825761 167.515817,105.12105 169.573563,115.25741 C170.596099,120.289449 171.618845,125.321911 172.639056,130.356275 C173.156662,132.905159 173.699831,135.447703 174.26793,137.988134 C174.55969,139.290052 174.872366,140.589856 175.142789,141.896001 C175.446803,143.369112 175.163704,144.311523 174.166732,145.393848 C173.798915,145.795414 173.21793,145.789073 172.761592,145.575609 L172.618936,145.508414 L172.481059,145.441816 C171.916391,145.1642 171.47369,144.876521 171.122366,144.258686 C170.735535,143.580463 170.674268,142.828056 170.54138,142.073535 C170.296099,140.684752 170.053352,139.296392 169.808282,137.905707 C169.442102,135.82602 169.043955,133.752278 168.638708,131.67904 L166.605518,121.318038 C166.063352,118.555425 165.520394,115.793077 164.974268,113.031891 C163.024268,103.157605 161.072155,93.2854333 159.120254,83.4132611 C157.246099,73.933989 155.587648,64.3896211 153.454056,54.9653002 L153.332751,54.4343716 L153.209384,53.9041521 C151.301501,45.7797801 148.635799,37.9209029 143.798915,31.0364313 C140.07638,25.7421065 134.906873,21.0142004 128.81793,18.6215037 C129.247014,19.2388579 129.658986,19.8686818 130.051944,20.5111867 C132.519549,24.5437503 134.321451,29.3308344 133.898915,34.1327131 C133.692085,36.4787014 132.800535,38.7845331 132.884831,41.1495429 C132.963,43.2503648 134.262507,45.0954528 135.160394,46.9234215 C137.198915,51.0660986 138.673775,55.4685252 139.624479,59.9848697 C141.532225,69.0539108 141.525887,78.3852376 140.868634,87.591445 C140.154549,97.5990928 138.798423,107.604416 137.254056,117.51442 C136.461803,122.597394 135.407577,127.63831 134.600324,132.712831 C134.201239,135.215007 133.65807,137.711265 133.182718,140.200971 L132.956169,141.390459 C132.82933,142.050589 132.697731,142.708589 132.545723,143.359601 L132.451944,143.749332 L132.451944,143.819077 C132.447718,144.299054 132.316521,144.696392 132.105254,145.013418 C131.816028,145.941034 131.456873,146.845825 130.979408,147.714474 C130.734338,148.15831 130.379197,148.407492 129.992577,148.498584 C129.603845,149.388369 128.722859,150.072932 127.670958,150.068969 L113.834831,150.016079 C105.798211,149.984165 97.7615915,149.931328 89.7249718,149.886944 C87.6970141,149.876588 85.6709577,149.838545 83.6449014,149.785707 C81.7456056,149.73287 79.9244789,149.504611 78.0463099,149.267899 C75.9249718,149.001598 74.7758873,147.498897 75.0927887,145.379054 C75.162507,144.911758 75.2383521,144.446999 75.3103944,143.982028 C74.8878592,144.121519 74.3850423,144.056001 74.0449014,143.724181 L73.7260047,143.411959 C73.2839572,142.974489 72.8885936,142.544907 72.6082817,141.961308 C72.3188451,141.361285 72.0841268,140.727234 71.828493,140.114318 C71.2770845,138.795492 70.7406761,137.472439 70.2186338,136.143046 C69.1730704,133.484259 68.1272958,130.814905 67.1552535,128.128431 C65.2308169,122.808744 63.5277887,117.408744 62.0470141,111.947664 C59.406169,102.204416 57.4960986,92.2730654 56.2918732,82.2529479 L56.0039615,79.8647931 L55.9202464,79.1593603 C55.4635933,75.2756684 55.0792769,71.3316851 55.2608873,67.4563139 C55.3730704,65.0298012 55.7489155,62.5846896 56.6554648,60.3188031 C57.4918732,58.2287601 58.7827183,56.4407366 60.0101831,54.5724 L60.1506462,54.3567334 L60.2918604,54.135809 C61.3653401,52.4388327 62.2195003,50.6646937 62.2622958,48.6038677 C62.3056684,46.512528 61.6966344,44.4772108 61.0156753,42.5193301 L60.8459582,42.0364777 L60.7320493,41.7168916 C59.2833898,37.6704159 57.6347852,33.6811632 58.178493,29.2779969 C58.9815211,22.7937699 62.9108873,17.5670771 67.8547606,13.536627 C63.4580704,14.4073902 59.106169,16.1275703 55.2653239,18.3089166 C50.7291972,20.8873902 46.6453944,24.2901299 43.1235634,28.1303648 C36.4686338,35.3879225 31.7172254,44.0957659 27.828,53.0866074 C23.756662,62.4959225 20.7376479,72.3554137 18.462507,82.3438286 C16.1744789,92.389308 14.6427887,102.595414 13.5968028,112.841676 C13.0751831,117.941559 12.6651127,123.053911 12.3251831,128.168799 C12.1519437,130.789543 12.0209577,133.414514 11.8181408,136.03103 C11.6153239,138.645433 11.5242676,141.299782 10.8862394,143.84465 C10.5883521,145.030326 8.57919718,145.150795 8.36391549,143.84465 C7.88614002,140.927643 8.01966513,137.911086 8.1530081,134.957304 L8.16511268,134.688956 C8.29630986,131.74696 8.46743662,128.807077 8.67004225,125.867195 C9.08433803,119.858506 9.63764789,113.858271 10.3601831,107.877058 C12.8932817,86.8815194 17.5646197,65.9958834 26.7272958,46.8306387 C31.0413803,37.8038677 36.5787042,29.0328305 44.2815211,22.5147875 C47.9489155,19.4140673 52.0834225,16.9391554 56.5390563,15.1471162 C60.5237746,13.5429675 64.571662,12.78422 68.8054648,12.7863335 C70.9287042,11.1589362 73.2082817,9.74077573 75.4855352,8.5295272 C75.6228592,8.45576595 75.7665211,8.6333002 75.6526479,8.74742935 C75.593493,8.80449393 75.5362394,8.86346067 75.4772958,8.91862309 C75.7350423,8.93553112 76.0010282,9.05600078 76.2397606,9.30750763 C77.0765915,10.1844 77.7822254,11.2815194 78.4137042,12.4204861 C79.3749718,13.6211671 80.2918732,14.861582 81.2512394,16.0493706 C82.7869437,17.9515233 84.3587746,19.8262004 85.949831,21.686083 C88.6218102,24.8118203 91.3808224,27.8783749 94.2579441,30.8215922 L94.7385634,31.3109753 C96.2299014,32.8223413 97.7406761,34.6312885 99.5045493,35.8275311 L99.5987243,35.890197 C100.342918,36.3752256 100.870639,36.4633151 101.505254,35.7389753 C102.08221,35.0795624 102.562438,34.3144528 103.056054,33.5874825 L103.170254,33.4204626 C105.690676,29.757762 108.027296,25.9597973 110.142085,22.0498168 C111.106041,20.2704395 112.02303,18.465211 112.893051,16.6400067 L113.152648,16.0918521 C113.625887,15.0858247 114.139268,14.0988188 114.529901,13.062991 C114.620746,12.8201495 114.709479,12.5770967 114.796099,12.3361573 C113.465113,11.4632806 112.434338,9.573809 112.060394,8.09435695 C111.671662,6.55784031 111.868141,4.98095577 112.560887,3.57568767 C112.691873,3.3114998 113.13131,3.37680705 113.19469,3.65790294 Z M47.5352372,66.0971624 C47.3510493,71.9390959 47.2392887,77.7871585 46.9644296,83.6246536 L46.8695704,85.6174755 C47.2982324,86.0953386 47.5496408,86.6467515 47.3489366,87.4035969 C47.2709789,87.6931468 47.0404859,87.9552211 46.753162,88.0524423 L46.6635815,89.9053239 C46.2558614,98.2419842 45.777907,106.561335 44.9045704,114.877022 C43.8123169,125.28391 42.5489366,135.673679 41.2878803,146.061757 C41.1083028,147.532755 40.0855563,148.699198 38.4947113,148.483832 C36.8850634,148.26593 36.2322465,146.864677 36.4435141,145.404247 C37.2737958,139.674751 38.0721761,133.940607 38.7716831,128.19209 L39.5681432,121.64259 C40.566852,113.455494 41.5890478,105.26966 42.7667535,97.108591 C43.259007,93.6976086 43.7702746,90.2885284 44.2834437,86.8792368 L44.1040775,86.6467515 C43.3707676,85.693773 42.6123169,84.7617182 41.8623169,83.8233229 C40.4216831,82.0141644 38.9998521,80.219589 37.6794296,78.3258904 C37.6137254,78.2307828 37.7470352,78.0912916 37.8418944,78.163362 C39.6925986,79.5307984 41.4442183,80.9931311 43.2061901,82.479135 L44.7484437,83.7850685 C45.6357676,77.8947358 46.5146408,72.0022896 47.2982324,66.0971624 C47.3174577,65.9494286 47.5392887,65.9386497 47.5352372,66.0971624 Z M74.1568732,10.1909519 C73.0432817,11.2411515 71.9047606,12.2685252 70.7827183,13.3125957 L70.3717365,13.6968454 L69.9626554,14.0828637 C67.9907608,15.9535661 66.1015019,17.9008825 64.5272958,20.1370967 C61.6371549,24.2436329 59.9153239,29.25031 61.1172254,34.2637503 C62.1146197,38.4165722 64.4026479,42.1809323 65.0174366,46.4375272 C65.3256761,48.5700517 65.1758873,50.7131436 64.3728592,52.7271006 C63.5531408,54.7816368 62.2432817,56.5421847 61.0665211,58.3957268 C58.5101831,62.4240634 58.1615915,66.8455115 58.4153239,71.512126 C58.6815211,76.3858638 59.241169,81.2615037 59.9322254,86.0910693 C61.3306056,95.8765879 63.4390563,105.560658 66.2299014,115.043946 C67.6265915,119.792987 69.2763803,124.44058 70.9181408,129.107195 C71.7355352,131.429934 72.6885634,133.697723 73.6707465,135.954733 C74.1883521,137.142733 74.7188451,138.323969 75.2575775,139.503304 C75.0587746,137.838075 75.0587746,136.128251 74.9615915,134.473378 C74.8221549,132.102028 74.6446901,129.734905 74.4820141,127.365668 C74.1505352,122.557449 73.8547606,117.745003 73.5906761,112.932557 C72.6547606,95.7709127 71.9660282,78.5944744 72.0165211,61.405355 C72.0420845,52.8097386 72.2174366,44.2141221 72.5871549,35.6267483 C72.7604789,31.5829127 73.0961239,27.5429434 73.3994766,23.5047784 L73.4639155,22.6394841 C73.7322254,19.0148266 74.0533521,15.3817151 74.6045493,11.7887601 C74.4413568,11.420353 74.299698,11.0472702 74.1945591,10.6646131 L74.1568732,10.5206583 L74.184338,10.5248853 C74.1589859,10.4126583 74.1505352,10.300854 74.1568732,10.1909519 Z M83.786493,-4.57824892 C83.8095211,-4.67758356 83.9510704,-4.66912955 83.9764225,-4.57824892 C84.6038873,-2.46474599 84.3820563,-0.139892759 83.8414225,1.98629119 C83.5498732,3.13815029 83.1357887,4.25619335 82.6350845,5.33407984 L82.4598655,5.71129057 C82.0308574,6.62927093 81.5478054,7.57509746 80.712338,8.14715225 C80.3639577,8.38597808 79.740507,8.4007726 79.3919155,8.14715225 L79.2141377,8.01220117 C79.1848732,7.98934403 79.156,7.9660955 79.127831,7.94214247 C78.8026901,7.66950059 78.6419155,7.06715225 78.7919155,6.6698137 C79.1785352,5.64476477 80.055507,4.89235773 80.6616338,3.97932446 C81.1984648,3.16773933 81.6738169,2.31177065 82.0686761,1.42198591 C82.9200845,-0.503415264 83.3024789,-2.5471726 83.786493,-4.57824892 Z" id="ðŸ–-Ink" fill="#000000"></path>
                    </g>
                    <g id="head/hat-beanie" transform="translate(78.591549, 38.043053)" fill-rule="evenodd">
                        <path d="M51.7185372,12.4075623 C61.1773122,12.4075623 72.5261313,16.9948296 73.4910373,17.0865749 L73.5170858,17.0879697 C74.0247475,17.0879697 76.0083955,18.5998047 79.4680297,21.6234749 L75.7208552,28.9349282 L76.0240988,29.2246001 C77.4752121,30.6164137 78.714028,31.8850112 79.6918691,32.8850476 C87.6760202,41.0504247 89.1110361,73.1100521 87.2294388,84.2903025 C85.3478415,95.4705529 81.862756,106.410634 65.6377222,106.410634 C49.4126883,106.410634 31.3619694,96.6510448 28.581369,93.6117924 C26.7276354,91.5856241 24.6454088,90.614914 22.3346891,90.6996621 C22.2397193,90.5797811 22.1455157,90.4602512 22.0520783,90.3410724 L21.7120996,90.2928919 C18.514111,89.8295513 16.2226766,89.2059005 14.8378832,88.4221476 C12.1329919,86.8912577 9.15998878,78.8431922 9.15998878,77.0703055 C9.15998878,75.3151477 4.72067039,62.5469812 4.63188402,61.1958146 L4.63053425,61.1583879 C4.63053425,60.0288611 -1.16898899,54.8365017 -1.16898899,53.1875104 C-1.16898899,51.5385191 -2.33797797,51.6385642 -1.16898899,45.8277744 L-0.829364528,44.1207341 C0.414623318,37.9339543 2.84944751,27.6895419 12.1329919,23.2380361 C22.3346891,18.3462714 42.1642191,12.4075623 51.7185372,12.4075623 Z" id="Path" fill="#FFFFFF"></path>
                        <path d="M10.5582887,23.008227 C15.6461915,17.6057331 44.5310604,9.24935967 59.1447173,11.0207121 L59.5831479,11.0775029 C60.7493451,11.2254481 61.8986408,11.4494795 63.0329366,11.7538239 C66.6992746,12.6104266 70.4864577,13.9074834 73.5158239,16.0740352 C76.0449085,17.8464188 84.023007,20.7408611 81.6715986,25.3774638 C82.5435,27.0300117 82.8688521,29.0716556 82.2796268,30.6992642 C82.2054718,31.261456 82.0322324,31.7792642 81.8106127,32.3160939 C83.6733592,35.0659726 85.1482183,38.1757808 86.3420915,41.1336282 C88.4283592,48.5775969 89.7265986,56.3244305 89.9167394,63.9193033 C90.5492746,78.3486106 88.9677254,95.5844384 76.405331,104.915131 C68.8163873,110.827656 56.9287817,111.026325 48.4005423,103.695429 C47.9165282,103.122458 45.6405423,101.576219 46.4000493,101.305057 C46.6261056,101.543883 46.8585,101.776368 47.0951197,102.004626 C47.0843451,101.979264 47.0822324,101.953902 47.086669,101.926427 L46.8641141,101.724804 C46.4450174,101.336936 45.9020777,100.774384 46.5204718,100.88447 C46.5477254,100.916172 46.5775141,100.943648 46.6068803,100.97535 C46.737853,101.053946 46.8367989,101.122085 46.9137866,101.18216 L46.9533888,101.213866 L46.9411537,101.201134 C46.5849376,100.82114 46.3713786,100.433564 46.9039807,100.681094 L46.9744859,100.715389 C47.2113169,100.964783 47.4519507,101.203609 47.6970211,101.436094 C47.693007,101.408618 47.6970211,101.381143 47.7120211,101.351554 L47.4835246,101.13073 C47.2604763,100.912076 47.2945191,100.911143 47.4035704,100.734411 C46.9294859,100.069714 47.8144859,100.464517 47.8765986,100.723843 C48.430331,100.592806 48.9164577,101.63265 49.2730775,101.75946 C64.906669,113.783178 87.5940634,103.114427 87.226669,69.6101213 L87.2210589,68.9545949 C87.113608,58.2413582 86.2123986,47.2301458 81.7829366,37.5322192 C81.352162,36.5980509 80.8702606,35.6892446 80.3401901,34.8100274 C79.9746972,34.1506145 79.5838521,33.5081096 79.1634296,32.8825127 C77.9864577,32.7874051 76.8244859,32.5718278 75.6796268,32.2378943 C75.2864577,32.1385597 74.8977254,32.0286575 74.5092042,31.8997339 C68.830331,32.2095734 63.278007,32.5466771 57.5832887,32.8662387 L55.8045153,32.9770686 C50.9804102,33.2873268 45.9913648,33.7842578 42.0984296,36.7692446 C38.2787113,39.4867867 38.2613873,44.8455734 34.9915986,47.8292055 C30.3289225,50.9950215 30.2949085,53.8497299 29.3970211,58.5150763 C29.4635704,62.0319452 31.9011761,67.1417613 27.428007,68.6218474 C28.1826549,69.6982544 27.1307535,69.1810802 27.0479366,68.8036086 C27.0394859,68.8057221 27.0310352,68.8078356 27.0246972,68.8078356 C27.697162,70.0583953 26.7086408,69.2709041 26.6211761,68.8691272 C26.5683592,68.8543327 26.5155423,68.8162896 26.4627254,68.7634521 C27.1402606,69.859092 26.0450493,69.0918904 26.1099085,68.8923757 C24.8006831,66.8792642 22.1061761,66.5666771 20.2068803,67.1001252 C20.1836408,67.1719843 20.0993451,67.1783249 20.0465282,67.1402818 C11.9704014,68.8911076 14.0541338,85.6165245 22.330331,83.9996947 C22.6846268,83.9274129 22.6761761,84.0975499 22.7465282,84.1138239 C22.555331,83.6116556 23.0942746,83.8160313 23.0885704,83.9214951 L23.1214093,83.9199 C23.1474306,83.9176047 23.1367864,83.9147554 23.1561761,83.9214951 C22.9713169,82.894544 24.0115986,84.3824501 23.9294155,84.4435303 C23.9613169,84.4245088 23.9972324,84.4139413 24.0289225,84.4097143 L23.9931125,84.3122287 C23.8204664,83.8521113 23.835267,84.0433546 23.8364577,83.7798904 C23.7067394,83.4541996 23.6972324,83.5966497 23.7276549,83.384454 C24.1835704,83.0310763 24.3181479,84.103045 24.4702606,84.181456 C24.2095563,83.8179335 24.4168099,83.5209863 24.6627254,83.7183875 C26.5267394,87.6406262 28.9345563,91.3259413 32.0463169,94.2290489 C32.386669,94.4974638 32.7310352,94.7616517 33.0878662,95.011045 C34.4114577,96.1643836 36.4417394,96.9060117 37.6808239,97.9276791 C37.6808239,97.9445871 37.6725845,97.9657221 37.6599085,97.9868571 L37.6882711,98.0124834 L37.6882711,98.0124834 L37.7169507,98.0396947 L38.1479366,98.246818 C38.2746972,98.3546067 38.3887817,98.4750763 38.4899789,98.608227 C38.5979366,98.7329237 38.6927958,98.8703014 38.7732887,99.0161331 C38.8134296,99.1936673 38.7246972,99.2676399 38.5556831,99.1915538 C38.4815282,99.1661918 38.4077958,99.1366027 38.3338521,99.1091272 C38.3380775,99.1154677 38.3399789,99.1196947 38.3444155,99.1239217 C38.3686585,99.1606061 38.5327713,99.5412065 38.3436663,99.4792782 L38.3211761,99.4705362 C38.2174437,99.4324932 38.1141338,99.3902231 38.0127254,99.3500665 C38.1331479,99.5001252 38.2427958,99.662865 38.3399789,99.8002427 C38.4437113,99.9080313 38.5068803,100.034841 38.5324437,100.17856 C38.528007,100.258873 38.4838521,100.292689 38.4035704,100.282121 C38.2810352,100.241965 38.1606127,100.199695 38.0399789,100.155311 L38.0742856,100.220782 C38.1595165,100.388494 38.2806468,100.669779 38.0655423,100.575898 C37.8815282,100.518834 37.7042746,100.453315 37.5268099,100.381456 C37.5118099,100.411045 37.4824437,100.421613 37.4232887,100.394137 C36.8592042,100.193354 36.3141338,99.9481879 35.7923028,99.658638 C35.3338521,99.3247045 34.8709648,98.9971115 34.4106127,98.6652916 C33.9773028,98.4053307 33.558993,98.1157808 33.1599085,97.7903014 C30.4882183,96.0639922 28.1492746,93.8710215 26.2937113,91.4286575 C23.1904014,94.1172446 16.9856831,91.5487045 13.1475845,89.4440783 C9.75272535,87.5630607 8.41835915,84.0850802 8.07335915,80.3353033 C7.35610563,75.2869902 3.23216197,73.5589902 3.51906338,62.4821213 C3.51272535,62.4842348 3.50617606,62.4842348 3.49772535,62.4842348 C3.34772535,62.4398513 3.20216197,62.3806732 3.06483803,62.3045871 C2.92328873,62.236955 2.79019014,62.1566419 2.66533099,62.0594207 L2.51110563,61.8459569 L2.51110563,61.8459569 C2.43103521,61.8015734 2.35920423,61.7550763 2.30427465,61.7085793 L2.27578788,61.7453318 C2.18561268,61.8541923 2.24622887,61.6904031 2.25145775,61.6578552 L1.98353948,61.2933606 C1.34828543,60.4256995 0.65134331,59.4521507 0.0836408451,58.673589 L0.0657588593,58.7052238 C0.052916499,58.7291008 0.0461257545,58.7463539 0.0521619718,58.7539022 C-1.29889437,56.8120157 -2.56945775,54.4664501 -2.92248592,52.1957025 C-3.3393169,50.4465675 -3.17642958,48.6441722 -2.81283803,47.0239609 C-1.25389437,41.3502622 3.8528662,28.5111546 10.5582887,23.008227 Z M47.2233139,101.472664 L47.1386515,101.397234 L47.2130932,101.49054 C47.2521032,101.53876 47.2920401,101.582099 47.3570915,101.626309 C47.3528662,101.611515 47.3528662,101.59672 47.3547676,101.579812 C47.3116263,101.546867 47.2675152,101.510839 47.2233139,101.472664 Z M59.0801197,13.8715538 C49.1699789,13.0191781 39.4227254,15.203272 29.9659648,17.8470528 L29.3135977,18.0346301 C23.9363843,19.569572 18.250545,20.9507731 13.7063873,24.2361722 C7.35758451,29.1008219 4.0791338,36.8396243 1.21814789,43.9847436 C-1.28009155,49.2934403 -0.00297887324,55.2795147 3.76180986,58.9863875 C4.1535,55.3027632 4.8213169,51.7269276 5.86497887,48.1798356 C6.08279577,47.6256751 5.91800704,47.4441252 6.38744366,47.3718434 C7.09645775,56.9307945 3.60441549,63.9932759 10.5149789,75.3220744 C13.5135,80.667546 10.0423732,84.5787945 18.5099789,87.3916556 L18.7391283,87.4792497 C20.50323,88.1451832 22.42975,88.6708356 24.1575845,88.2985597 L24.0027873,88.0466646 C23.8449167,87.7872612 23.7970101,87.6613386 24.0265986,87.5503796 C24.0204718,87.5376986 24.0120211,87.5250176 24.0033592,87.5102231 C23.8176549,87.1593816 23.6380775,86.8043131 23.4667394,86.4450176 C23.3972324,86.4682661 23.3275141,86.4851742 23.2554718,86.5041957 C23.302162,86.5908493 23.3082887,86.6775029 23.1775141,86.707092 C22.7119648,86.8668728 22.2339009,86.9309166 21.7445249,86.9009418 L21.6394859,86.8930802 C21.0865986,86.8592642 20.7382183,86.7584501 20.4265986,86.6648219 C20.3232887,86.6479139 20.2197676,86.6310059 20.1181479,86.6098708 C19.1156831,86.3875303 18.0544859,85.8219569 17.3676549,85.261456 C9.5385,80.812955 10.3476549,65.6699178 19.9979366,64.2384423 C20.1958944,54.7040078 24.7290634,38.6185597 32.2523028,29.5332446 C39.0525845,21.1762427 57.6175141,17.5541213 70.5335704,18.8313112 C70.7218099,18.8936595 70.9100493,18.9566419 71.0982887,19.0202583 C73.0909648,19.1973699 74.9900493,20.0854638 76.9842042,20.4980196 C75.5524437,19.4245714 73.9282183,18.7095734 72.2551901,18.1019413 C68.9218099,16.0621996 65.1004014,14.9585284 61.4085,14.1801252 C60.6437113,13.9920235 59.8683592,13.8884618 59.0801197,13.8715538 Z M19.5562394,71.8977558 C20.0751127,71.6158145 20.0157465,71.8880337 20.1351127,71.8089886 C23.8673662,71.5044329 27.8918028,74.7733879 29.9780704,77.4985386 C29.8132817,77.6697323 29.367507,77.1624916 29.289338,77.0821785 C29.2787746,77.092746 29.2660986,77.1012 29.2534225,77.105427 L29.3115156,77.1874494 C30.1571007,78.4013886 28.4808213,76.9729193 28.3238451,76.6784994 C28.2963803,76.6932939 28.2689155,76.7017479 28.2372254,76.6954074 C28.3701127,76.8258106 28.7759577,77.1658732 28.8456761,77.4076579 L28.9532735,77.4972352 C29.9678658,78.3664083 29.8836617,79.0202421 28.7318028,77.785975 C28.7590563,77.8430395 28.7696197,77.8958771 28.7506056,77.9381472 L28.7902669,77.9645876 C29.3566853,78.3605602 29.8225102,79.4643749 28.6386338,78.3312587 C28.7618028,79.1589065 27.4654648,77.5591961 27.4238451,77.5703977 C25.1806056,75.808793 21.8778592,74.0955875 19.0639859,73.865427 L18.9671387,73.8542957 C18.4507899,73.7879265 18.206662,73.6346627 18.3879296,73.2968947 C17.7520141,73.1455679 17.9009577,72.8323468 18.2020141,72.8424916 C17.753493,72.5474466 18.1572254,72.2652939 18.417507,72.3754074 C18.2385634,71.879791 18.9562394,72.2099202 19.0217324,72.1408086 C19.3941972,71.5661472 19.4945493,72.0454896 19.5562394,71.8977558 Z M11.7330211,41.1779906 C13.5256268,40.5211139 18.8206268,42.487517 18.3970352,45.0917753 C18.1447817,45.6896853 17.3136549,46.0322841 16.7295,45.6947577 L15.9670715,45.1824955 C14.6402471,44.2935638 13.4435993,43.5140899 12.0190775,42.7388125 C11.2437254,42.3539436 10.9099225,41.5368634 11.7330211,41.1779906 Z M21.9319437,37.3079131 L21.2396325,36.8572074 C17.5035897,34.4111231 12.2220634,30.7047213 21.5886338,34.5394356 C22.656169,34.9974317 24.0746197,35.2683828 24.6570845,36.2854004 C25.5720845,38.1598661 23.1640563,38.2858309 21.9319437,37.3079131 Z M22.3517746,26.3327037 C22.0519859,25.1945824 25.782338,26.5301049 26.8682535,26.8822145 L27.0336531,26.944708 C28.0899945,27.3384701 29.3008732,27.7037542 29.9326901,28.6157096 C30.6729718,29.87578 29.174662,30.1367977 28.2465634,29.5676313 C26.3436761,28.3236235 24.2574085,27.3850168 22.3517746,26.3327037 Z M31.8377535,21.0310027 C29.7380472,18.7371398 35.3574566,20.9345822 36.199214,21.5445568 L36.2232465,21.5625487 C36.8513451,22.0049049 36.7239507,22.957672 36.1338803,23.2374998 C34.4549366,23.2694137 33.2194437,21.8694294 31.8377535,21.0310027 Z M41.3925423,18.5177941 C38.0545141,16.1179115 42.4516268,17.2594145 43.9788803,18.1999233 C45.0197958,19.1182403 43.9476127,20.6684947 41.3925423,18.5177941 Z" id="ðŸ–-Ink" fill="#000000"></path>
                    </g>
                    <g id="face/Eating-Happy" transform="translate(112.183099, 77.354207)" fill="#000000" fill-rule="evenodd">
                        <path d="M26.651385,41.4864172 C27.8332398,39.5415711 30.3523572,44.3057979 30.6200098,45.1249997 C30.8570644,45.850687 31.0135488,46.5940725 31.0930874,47.3460616 C32.0093391,47.5515032 32.9607994,47.5518825 33.8996301,47.3718474 C35.2949741,47.1040359 36.147956,46.3536048 37.3606685,45.7092415 C38.1982987,45.2639875 39.253962,45.7861206 39.6895539,46.524568 C40.2019297,47.3937571 39.8755006,48.2959069 39.201613,48.9438883 C37.923659,50.1726203 35.409214,50.4548999 33.7410515,50.1285895 C32.7852837,49.9417094 31.9093184,49.5831419 31.1357638,49.0620417 C31.1306364,49.159284 31.1272121,49.2565522 31.1195448,49.3536508 L31.1047743,49.5220861 C30.9766029,50.8848667 30.6021836,52.5984609 29.5440832,53.4852118 C27.8086691,54.9398049 25.6669327,52.142372 27.3531919,50.6894243 L27.4054668,50.6458128 C28.4536,49.7986046 28.6822644,47.525525 28.6258217,46.2735213 C28.5888138,45.4563605 28.4400203,44.6287353 28.1821129,43.8504618 L28.1290773,43.6954828 C28.0514434,43.4756328 27.2049692,41.3901568 26.8990933,41.6557485 L26.8844918,41.6707244 C26.758361,41.8213851 26.5545245,41.6458886 26.651385,41.4864172 Z M36.0875289,30.5120405 C37.6828906,31.482148 40.1137318,33.7442494 38.3974899,36.149264 C36.3773089,38.2698449 33.4687045,35.8384541 32.0353946,34.7388307 C30.7063626,33.8866164 29.2131206,36.0784478 30.4461973,37.0735516 C40.8033244,44.7445605 45.006466,30.7657101 36.8944406,29.3714319 C36.0012775,29.2177885 35.6695544,30.2119271 36.0875289,30.5120405 Z M19.051838,21.5451123 C20.610993,21.2684548 22.2081761,21.6562826 23.4983873,22.5688932 L23.5961707,22.6392476 C24.8391675,23.5486603 26.2298987,25.1455025 25.5166268,26.7130497 C25.2303592,27.3424509 24.3730352,27.4411515 23.8290211,27.1558286 C22.9233169,26.6807131 22.759162,25.5117346 21.9510634,24.8647914 C21.2883169,24.3345135 20.3959225,24.0128384 19.5424014,24.0904039 C17.5372606,24.2725879 16.3038803,26.251038 15.6810634,27.9560008 C15.6014155,28.1741143 15.2813451,28.2588658 15.1562746,28.0246896 C13.6877535,25.2788266 16.2871901,22.0358677 19.051838,21.5451123 Z M44.0259085,20.5088618 C47.0125986,20.2626387 50.5084437,23.3601886 49.7221056,26.5139577 C49.344993,28.0272258 47.1011197,27.983899 46.7022465,26.5139577 C46.4827394,25.7051202 46.5047113,24.9894881 45.922669,24.3178168 C45.4422465,23.7632337 44.7596408,23.4411358 44.0259085,23.4905918 C43.2171761,23.5451202 42.4711901,23.9494333 41.9043592,24.5177542 C41.3924577,25.0309127 41.086331,25.7818403 40.5560493,26.2360321 C40.4254859,26.347625 40.2507676,26.354811 40.1218944,26.2360321 C39.2092183,25.3942239 39.7570352,23.6417072 40.3356972,22.7629127 C41.1638662,21.5053785 42.5123873,20.6337699 44.0259085,20.5088618 Z M13.3643239,15.9516845 C15.2803099,14.2549644 18.7617887,12.6163656 21.3453803,13.4514106 C22.8308028,13.9313871 23.478338,16.3257746 21.8200986,17.0847335 C19.8998873,17.963528 17.6860141,17.6059233 15.7315775,18.5168431 C14.9108028,18.8995984 14.138831,19.3778841 13.5673521,20.0793558 C13.1171408,20.6322481 12.6591127,21.3597159 12.0079859,21.6784321 C11.8368592,21.7623382 11.6050986,21.7644517 11.4679859,21.6088978 C10.040662,19.9937589 12.1180563,17.0551444 13.3643239,15.9516845 Z M40.7327324,13.3671875 C41.9168873,13.0347335 43.2305493,13.0414967 44.433507,13.2503108 C45.6360423,13.4591249 46.8569577,13.9577002 47.8387183,14.6849566 L47.9526883,14.7701118 C49.0244692,15.5780701 50.3034536,16.7536241 50.2349155,18.1849174 C50.177662,19.3801033 48.920831,20.1885182 47.8357606,19.5620759 C46.9511831,19.0512423 46.5349859,18.0278841 45.7860423,17.3464908 C45.1680845,16.7840877 44.442169,16.3406748 43.667662,16.0299898 C42.8073803,15.6848548 41.9456197,15.5231718 41.0223803,15.5077432 C40.3114648,15.4959076 39.5963239,15.7292384 38.8987183,15.803845 C38.9561831,15.9217785 38.4047746,15.8668274 38.0887183,15.762209 C37.8546338,15.6624517 37.8533662,15.3663499 37.934493,15.1742325 C38.3369577,14.2225221 39.8012535,13.6284164 40.7327324,13.3671875 Z" id="ðŸ–-Ink"></path>
                    </g>
                    <g id="facial-hair/*-None" transform="translate(104.577451, 109.479380)"></g>
                    <g id="accessories/*-None" transform="translate(88.521127, 88.978474)"></g>
                </g>
            </g>
        </g>
    </g>
</svg>